<svg id="Assets_class" data-name="Assets class" xmlns="http://www.w3.org/2000/svg" viewBox="0 0 113.28 86.57"><defs><style>.cls-1{fill:#f1563f;}.cls-2{fill:#fff;}.cls-3{font-size:13px;fill:#e1bebb;font-family:Helvetica, Helvetica;}.cls-4{letter-spacing:0em;}.cls-5{letter-spacing:0.02em;}.cls-6{letter-spacing:-0.01em;}.cls-7{letter-spacing:0em;}.cls-8{letter-spacing:-0.01em;}.cls-9{letter-spacing:-0.01em;}.cls-10{letter-spacing:0em;}.cls-11{letter-spacing:0em;}</style></defs><title>Artboard 288</title><g id="_Group_" data-name="&lt;Group&gt;"><circle class="cls-1" cx="56.55" cy="25.5" r="14.5"/><circle class="cls-1" cx="56.55" cy="25.5" r="13.33"/></g><polygon class="cls-2" points="65.02 20.52 65.02 20.52 47.9 20.52 47.9 20.52 47.9 19.85 47.9 19.85 65.02 19.85 65.02 19.85 65.02 20.52"/><rect class="cls-2" x="53.77" y="20.83" width="1.2" height="8"/><rect class="cls-2" x="57.95" y="20.83" width="1.2" height="8"/><rect class="cls-2" x="62.12" y="20.83" width="1.2" height="8"/><polygon class="cls-2" points="55.3 21.85 53.45 21.85 53.21 20.83 55.53 20.83 55.3 21.85"/><polygon class="cls-2" points="55.28 27.8 53.47 27.8 53.24 28.82 55.5 28.82 55.28 27.8"/><rect class="cls-2" x="49.6" y="20.83" width="1.2" height="8"/><polygon class="cls-2" points="51.13 21.85 49.27 21.85 49.04 20.83 51.36 20.83 51.13 21.85"/><polygon class="cls-2" points="51.1 27.8 49.29 27.8 49.07 28.82 51.33 28.82 51.1 27.8"/><polygon class="cls-2" points="59.48 21.85 57.62 21.85 57.39 20.83 59.71 20.83 59.48 21.85"/><polygon class="cls-2" points="59.45 27.8 57.64 27.8 57.42 28.82 59.68 28.82 59.45 27.8"/><polygon class="cls-2" points="63.65 21.85 61.79 21.85 61.56 20.83 63.88 20.83 63.65 21.85"/><polygon class="cls-2" points="63.63 27.8 61.82 27.8 61.59 28.82 63.85 28.82 63.63 27.8"/><polygon class="cls-2" points="56.46 16.79 65.03 19.93 47.9 19.93 56.46 16.79"/><polygon class="cls-2" points="66.29 30.53 66.29 30.53 46.63 30.53 46.63 30.53 46.63 30.03 46.63 30.02 66.29 30.02 66.29 30.03 66.29 30.53"/><polygon class="cls-2" points="64.89 29.62 64.89 29.62 48.03 29.62 48.02 29.62 48.02 29.12 48.03 29.12 64.89 29.12 64.89 29.12 64.89 29.62"/><polygon class="cls-2" points="67.5 31.42 67.5 31.42 45.43 31.42 45.42 31.42 45.42 30.92 45.43 30.92 67.49 30.92 67.5 30.92 67.5 31.42"/><text class="cls-3" transform="translate(23.85 52.57)"><tspan class="cls-4">A</tspan><tspan class="cls-5" x="7.92" y="0">r</tspan><tspan x="12.48" y="0">t</tspan><tspan class="cls-6" x="16.78" y="0">s</tspan><tspan class="cls-7" x="21.79" y="0">, cultu</tspan><tspan class="cls-8" x="54.76" y="0">r</tspan><tspan x="58.88" y="0">e</tspan><tspan x="-6.59" y="12">and </tspan><tspan class="cls-9" x="16.98" y="12">r</tspan><tspan class="cls-10" x="21.1" y="12">ec</tspan><tspan class="cls-8" x="33.44" y="12">r</tspan><tspan class="cls-10" x="37.56" y="12">e</tspan><tspan class="cls-11" x="44.07" y="12">a</tspan><tspan x="50.28" y="12">tion</tspan></text></svg>