<svg id="Assets_class" data-name="Assets class" xmlns="http://www.w3.org/2000/svg" viewBox="0 0 66.24 75.55"><defs><style>.cls-1{fill:#f1563f;}.cls-2{fill:#fff;}.cls-3{font-size:13px;fill:#e1bebb;font-family:Helvetica, Helvetica;}.cls-4{letter-spacing:-0.01em;}</style></defs><title>Artboard 286</title><g id="_Group_" data-name="&lt;Group&gt;"><circle class="cls-1" cx="33.06" cy="25.5" r="14.5"/><circle class="cls-1" cx="33.06" cy="25.5" r="13.33"/></g><path class="cls-2" d="M34.25,31a1.11,1.11,0,1,1-1.11-1.11A1.11,1.11,0,0,1,34.25,31"/><path class="cls-2" d="M41.74,24.7a1.16,1.16,0,0,1-.84-.35,11,11,0,0,0-15.54,0,1.17,1.17,0,1,1-1.67-1.63,13.37,13.37,0,0,1,18.89,0,1.17,1.17,0,0,1-.84,2"/><path class="cls-2" d="M38.87,27.1a1.16,1.16,0,0,1-.8-.32,7.35,7.35,0,0,0-9.87,0,1.17,1.17,0,0,1-1.61-1.69,9.68,9.68,0,0,1,13.1,0,1.17,1.17,0,0,1-.81,2"/><path class="cls-2" d="M30.2,29.58a1.17,1.17,0,0,1-.73-2.08,5.85,5.85,0,0,1,3.66-1.23,5.91,5.91,0,0,1,3.57,1.15,1.17,1.17,0,0,1-1.42,1.86,3.75,3.75,0,0,0-4.35,0,1.16,1.16,0,0,1-.73.26"/><text class="cls-3" transform="translate(15.27 53.56)">Di<tspan class="cls-4" x="11.7" y="0">g</tspan><tspan x="18.89" y="0">ital</tspan></text></svg>