<?xml version="1.0" encoding="UTF-8" standalone="no"?>
<svg
   xmlns:dc="http://purl.org/dc/elements/1.1/"
   xmlns:cc="http://creativecommons.org/ns#"
   xmlns:rdf="http://www.w3.org/1999/02/22-rdf-syntax-ns#"
   xmlns:svg="http://www.w3.org/2000/svg"
   xmlns="http://www.w3.org/2000/svg"
   xmlns:sodipodi="http://sodipodi.sourceforge.net/DTD/sodipodi-0.dtd"
   xmlns:inkscape="http://www.inkscape.org/namespaces/inkscape"
   id="Assets_class"
   data-name="Assets class"
   viewBox="0 0 53.040002 53.040001"
   version="1.1"
   sodipodi:docname="education_e.svg"
   inkscape:version="0.92.1 r15371"
   width="53.040001"
   height="53.040001">
  <metadata
     id="metadata7586">
    <rdf:RDF>
      <cc:Work
         rdf:about="">
        <dc:format>image/svg+xml</dc:format>
        <dc:type
           rdf:resource="http://purl.org/dc/dcmitype/StillImage" />
        <dc:title>Artboard 285</dc:title>
      </cc:Work>
    </rdf:RDF>
  </metadata>
  <sodipodi:namedview
     pagecolor="#ffffff"
     bordercolor="#666666"
     borderopacity="1"
     objecttolerance="10"
     gridtolerance="10"
     guidetolerance="10"
     inkscape:pageopacity="0"
     inkscape:pageshadow="2"
     inkscape:window-width="1920"
     inkscape:window-height="1001"
     id="namedview7584"
     showgrid="false"
     inkscape:zoom="10.810811"
     inkscape:cx="-2.1991867"
     inkscape:cy="16.505253"
     inkscape:window-x="-9"
     inkscape:window-y="-9"
     inkscape:window-maximized="1"
     inkscape:current-layer="Assets_class"
     fit-margin-top="0"
     fit-margin-left="0"
     fit-margin-right="0"
     fit-margin-bottom="0" />
  <defs
     id="defs7554">
    <style
       id="style7552">.cls-1{fill:#f1563f;}.cls-2{fill:#fff;}.cls-3{font-size:13px;fill:#e1bebb;font-family:Helvetica, Helvetica;}.cls-4{letter-spacing:0em;}.cls-5{letter-spacing:0em;}.cls-6{letter-spacing:0em;}</style>
    <style
       id="style8161">.cls-1{isolation:isolate;}.cls-2{opacity:0.7;mix-blend-mode:multiply;}.cls-3,.cls-5{fill:#fff;}.cls-4{fill:#009887;}.cls-5{font-size:13px;font-family:Helvetica-Bold, Helvetica Bold;font-weight:700;}.cls-6{letter-spacing:0em;}.cls-7{letter-spacing:0em;}.cls-8{letter-spacing:0em;}</style>
  </defs>
  <title
     id="title7556">Artboard 285</title>
  <g
     inkscape:groupmode="layer"
     id="layer5"
     inkscape:label="Layer 1"
     transform="translate(-22.4,-2)"
     style="display:inline"
     sodipodi:insensitive="true">
    <g
       id="g8151">
      <g
         data-name="&lt;Group&gt;"
         id="_Group_">
        <circle
           id="circle7558"
           r="14.5"
           cy="25.5"
           cx="48.900002"
           class="cls-1"
           style="isolation:isolate;fill:#f1563f" />
        <circle
           id="circle7560"
           r="13.33"
           cy="25.5"
           cx="48.900002"
           class="cls-1"
           style="isolation:isolate;fill:#f1563f" />
      </g>
      <path
         id="path7563"
         d="m 42.36,25.8 v 2.91 0 c 0,0 0,0 0,0.06 v 0 c 0,1.49 3,2.69 6.6,2.69 3.6,0 6.6,-1.2 6.6,-2.69 v 0 a 0.4,0.4 0 0 0 0,-0.06 v 0 -2.91 l -6.6,2 z"
         class="cls-2"
         inkscape:connector-curvature="0"
         style="opacity:0.7;mix-blend-mode:multiply;fill:#ffffff" />
      <path
         id="path7565"
         d="m 58.19,26.29 v -0.21 a 0.21,0.21 0 0 0 -0.1,-0.19 V 24.2 l 2,-0.63 L 49,20.13 37.78,23.57 49,27 57.84,24.28 v 1.6 a 0.21,0.21 0 0 0 -0.1,0.19 v 0.21 a 0.22,0.22 0 0 0 0.08,0.18 l -0.34,1.88 h 1 l -0.34,-1.88 a 0.22,0.22 0 0 0 0.08,-0.18"
         class="cls-2"
         inkscape:connector-curvature="0"
         style="opacity:0.7;mix-blend-mode:multiply;fill:#ffffff" />
    </g>
    <g
       id="g8197"
       class="cls-1"
       style="isolation:isolate"
       transform="translate(-99.68,-109.58)">
      <g
         data-name="Selected Assets Classes"
         id="Selected_Assets_Classes" />
    </g>
    <g
       style="display:inline;isolation:isolate"
       id="g8246">
      <path
         style="fill:#ffffff"
         inkscape:connector-curvature="0"
         class="cls-3"
         d="m 42.36,25.8 v 2.91 0 c 0,0 0,0 0,0.06 v 0 c 0,1.49 3,2.69 6.6,2.69 3.6,0 6.6,-1.2 6.6,-2.69 v 0 a 0.4,0.4 0 0 0 0,-0.06 v 0 -2.91 l -6.6,2 z"
         id="path8242" />
      <path
         style="fill:#ffffff"
         inkscape:connector-curvature="0"
         class="cls-3"
         d="m 58.19,26.29 v -0.21 a 0.21,0.21 0 0 0 -0.1,-0.19 V 24.2 l 2,-0.63 L 49,20.13 37.78,23.57 49,27 57.84,24.28 v 1.6 a 0.21,0.21 0 0 0 -0.1,0.19 v 0.21 a 0.22,0.22 0 0 0 0.08,0.18 l -0.34,1.88 h 1 l -0.34,-1.88 a 0.22,0.22 0 0 0 0.08,-0.18"
         id="path8244" />
    </g>
  </g>
  <g
     inkscape:groupmode="layer"
     id="layer6"
     inkscape:label="Layer 2"
     style="display:inline"
     transform="translate(-22.4,-2)" />
</svg>
