<?xml version="1.0" encoding="UTF-8" standalone="no"?>
<svg
   xmlns:dc="http://purl.org/dc/elements/1.1/"
   xmlns:cc="http://creativecommons.org/ns#"
   xmlns:rdf="http://www.w3.org/1999/02/22-rdf-syntax-ns#"
   xmlns:svg="http://www.w3.org/2000/svg"
   xmlns="http://www.w3.org/2000/svg"
   xmlns:sodipodi="http://sodipodi.sourceforge.net/DTD/sodipodi-0.dtd"
   xmlns:inkscape="http://www.inkscape.org/namespaces/inkscape"
   id="Assets_class"
   data-name="Assets class"
   viewBox="0 0 97.92 87.32"
   version="1.1"
   sodipodi:docname="education.svg"
   inkscape:version="0.92.1 r15371">
  <metadata
     id="metadata7586">
    <rdf:RDF>
      <cc:Work
         rdf:about="">
        <dc:format>image/svg+xml</dc:format>
        <dc:type
           rdf:resource="http://purl.org/dc/dcmitype/StillImage" />
      </cc:Work>
    </rdf:RDF>
  </metadata>
  <sodipodi:namedview
     pagecolor="#ffffff"
     bordercolor="#666666"
     borderopacity="1"
     objecttolerance="10"
     gridtolerance="10"
     guidetolerance="10"
     inkscape:pageopacity="0"
     inkscape:pageshadow="2"
     inkscape:window-width="1920"
     inkscape:window-height="1001"
     id="namedview7584"
     showgrid="false"
     inkscape:zoom="2.7027027"
     inkscape:cx="48.959999"
     inkscape:cy="58.46"
     inkscape:window-x="-9"
     inkscape:window-y="-9"
     inkscape:window-maximized="1"
     inkscape:current-layer="Assets_class" />
  <defs
     id="defs7554">
    <style
       id="style7552">.cls-1{fill:#f1563f;}.cls-2{fill:#fff;}.cls-3{font-size:13px;fill:#e1bebb;font-family:Helvetica, Helvetica;}.cls-4{letter-spacing:0em;}.cls-5{letter-spacing:0em;}.cls-6{letter-spacing:0em;}</style>
  </defs>
  <title
     id="title7556">Artboard 285</title>
  <g
     id="_Group_"
     data-name="&lt;Group&gt;">
    <circle
       class="cls-1"
       cx="48.9"
       cy="25.5"
       r="14.5"
       id="circle7558" />
    <circle
       class="cls-1"
       cx="48.9"
       cy="25.5"
       r="13.33"
       id="circle7560" />
  </g>
  <path
     class="cls-2"
     d="M42.36,25.8v2.91h0s0,0,0,.06h0c0,1.49,3,2.69,6.6,2.69s6.6-1.2,6.6-2.69h0a.4.4,0,0,0,0-.06h0V25.8l-6.6,2Z"
     id="path7563" />
  <path
     class="cls-2"
     d="M58.19,26.29v-.21a.21.21,0,0,0-.1-.19V24.2l2-.63L49,20.13,37.78,23.57,49,27l8.84-2.72v1.6a.21.21,0,0,0-.1.19v.21a.22.22,0,0,0,.08.18l-.34,1.88h1l-.34-1.88a.22.22,0,0,0,.08-.18"
     id="path7565" />
  <text
     class="cls-3"
     transform="translate(21.61 53.32)"
     id="text7581">
    <tspan
       class="cls-4"
       id="tspan7567">E</tspan>
    <tspan
       x="6.34"
       y="0"
       id="tspan7569">duc</tspan>
    <tspan
       class="cls-4"
       x="26.66"
       y="0"
       id="tspan7571">a</tspan>
    <tspan
       class="cls-5"
       x="32.88"
       y="0"
       id="tspan7573">tion</tspan>
    <tspan
       x="-5.77"
       y="12"
       id="tspan7575">and t</tspan>
    <tspan
       class="cls-6"
       x="22.11"
       y="12"
       id="tspan7577">r</tspan>
    <tspan
       x="26.29"
       y="12"
       id="tspan7579">aining</tspan>
  </text>
</svg>
