<?xml version="1.0" encoding="UTF-8" standalone="no"?>
<svg
   xmlns:dc="http://purl.org/dc/elements/1.1/"
   xmlns:cc="http://creativecommons.org/ns#"
   xmlns:rdf="http://www.w3.org/1999/02/22-rdf-syntax-ns#"
   xmlns:svg="http://www.w3.org/2000/svg"
   xmlns="http://www.w3.org/2000/svg"
   xmlns:sodipodi="http://sodipodi.sourceforge.net/DTD/sodipodi-0.dtd"
   xmlns:inkscape="http://www.inkscape.org/namespaces/inkscape"
   id="Assets_class"
   data-name="Assets class"
   viewBox="0 0 53.040001 53.040001"
   version="1.1"
   sodipodi:docname="health_e.svg"
   inkscape:version="0.92.1 r15371"
   width="53.040001"
   height="53.040001">
  <metadata
     id="metadata10728">
    <rdf:RDF>
      <cc:Work
         rdf:about="">
        <dc:format>image/svg+xml</dc:format>
        <dc:type
           rdf:resource="http://purl.org/dc/dcmitype/StillImage" />
        <dc:title>Artboard 284</dc:title>
      </cc:Work>
    </rdf:RDF>
  </metadata>
  <sodipodi:namedview
     pagecolor="#ffffff"
     bordercolor="#666666"
     borderopacity="1"
     objecttolerance="10"
     gridtolerance="10"
     guidetolerance="10"
     inkscape:pageopacity="0"
     inkscape:pageshadow="2"
     inkscape:window-width="1920"
     inkscape:window-height="1001"
     id="namedview10726"
     showgrid="false"
     inkscape:zoom="12.533192"
     inkscape:cx="5.2226385"
     inkscape:cy="39.591822"
     inkscape:window-x="-9"
     inkscape:window-y="-9"
     inkscape:window-maximized="1"
     inkscape:current-layer="layer10"
     fit-margin-top="0"
     fit-margin-left="0"
     fit-margin-right="0"
     fit-margin-bottom="0" />
  <defs
     id="defs10708">
    <style
       id="style10706">.cls-1{fill:#f1563f;}.cls-2{fill:#fff;}.cls-3{font-size:13px;fill:#e1bebb;font-family:Helvetica, Helvetica;}</style>
    <style
       id="style11302">.cls-1{isolation:isolate;}.cls-2{opacity:0.7;mix-blend-mode:multiply;}.cls-3,.cls-5{fill:#fff;}.cls-4{fill:#009887;}.cls-5{font-size:13px;font-family:Helvetica-Bold, Helvetica Bold;font-weight:700;}</style>
  </defs>
  <title
     id="title10710">Artboard 284</title>
  <polygon
     class="cls-2"
     points="38.73,21.28 39.97,21.28 39.97,19.59 38.73,19.59 38.73,18.37 37.14,18.37 37.14,19.59 35.96,19.59 35.96,21.28 37.14,21.28 37.14,22.36 38.73,22.36 "
     id="polygon10719"
     style="opacity:0.7;mix-blend-mode:multiply;fill:#ffffff"
     transform="translate(-7.29,-2)" />
  <g
     inkscape:groupmode="layer"
     id="layer9"
     inkscape:label="Layer 1"
     style="display:inline"
     transform="translate(-7.29,-2)">
    <g
       id="g11293">
      <g
         data-name="&lt;Group&gt;"
         id="_Group_">
        <circle
           id="circle10712"
           r="14.5"
           cy="25.5"
           cx="33.790001"
           class="cls-1"
           style="fill:#f1563f" />
        <circle
           id="circle10714"
           r="13.33"
           cy="25.5"
           cx="33.790001"
           class="cls-1"
           style="fill:#f1563f" />
      </g>
    </g>
    <g
       style="display:inline;isolation:isolate"
       id="g11378">
      <path
         style="fill:#ffffff"
         inkscape:connector-curvature="0"
         class="cls-3"
         d="m 40.86,27.57 h -14 v -1.24 h 13.3 a 0.67,0.67 0 0 1 0.7,0.64 z m -14.1,-3.12 h 2.38 a 0.44,0.44 0 0 1 0.44,0.44 v 0.53 h -2.81 z m 15,3.12 V 27 a 1.58,1.58 0 0 0 -1.6,-1.54 h -9.9 v -0.53 a 1.11,1.11 0 0 0 -1.11,-1.12 h -2.52 v -1.44 h -1.81 v 10.4 h 1.81 v -3.39 h 13.69 v 3.39 h 1.81 v -5.2 z"
         id="path11372" />
      <polygon
         style="fill:#ffffff"
         class="cls-3"
         points="38.73,19.59 38.73,18.37 37.14,18.37 37.14,19.59 35.96,19.59 35.96,21.28 37.14,21.28 37.14,22.36 38.73,22.36 38.73,21.28 39.97,21.28 39.97,19.59 "
         id="polygon11374" />
      <path
         style="fill:#ffffff"
         inkscape:connector-curvature="0"
         class="cls-3"
         d="M 38,17 A 3.37,3.37 0 1 1 34.63,20.37 3.37,3.37 0 0 1 38,17 m 0,7.85 a 4.49,4.49 0 1 0 -4.49,-4.49 4.49,4.49 0 0 0 4.49,4.5"
         id="path11376" />
    </g>
  </g>
  <g
     inkscape:groupmode="layer"
     id="layer10"
     inkscape:label="Layer 2"
     transform="translate(-7.29,-2)"
     style="display:inline" />
</svg>
