<svg id="Assets_class" data-name="Assets class" xmlns="http://www.w3.org/2000/svg" viewBox="0 0 67.68 75.32"><defs><style>.cls-1{fill:#f1563f;}.cls-2{fill:#fff;}.cls-3{font-size:13px;fill:#e1bebb;font-family:Helvetica, Helvetica;}</style></defs><title>Artboard 284</title><g id="_Group_" data-name="&lt;Group&gt;"><circle class="cls-1" cx="33.79" cy="25.5" r="14.5"/><circle class="cls-1" cx="33.79" cy="25.5" r="13.33"/></g><path class="cls-2" d="M40.86,27.57h-14V26.33H40.16a.67.67,0,0,1,.7.64Zm-14.1-3.12h2.38a.44.44,0,0,1,.44.44v.53H26.77Zm15,3.12V27a1.58,1.58,0,0,0-1.6-1.54h-9.9v-.53a1.11,1.11,0,0,0-1.11-1.12H26.63V22.37H24.82V32.77h1.81V29.38H40.32v3.39h1.81v-5.2Z"/><polygon class="cls-2" points="37.14 22.36 38.73 22.36 38.73 21.28 39.97 21.28 39.97 19.59 38.73 19.59 38.73 18.37 37.14 18.37 37.14 19.59 35.96 19.59 35.96 21.28 37.14 21.28 37.14 22.36"/><path class="cls-2" d="M38,17a3.37,3.37,0,1,1-3.37,3.37A3.37,3.37,0,0,1,38,17m0,7.85a4.49,4.49,0,1,0-4.49-4.49A4.49,4.49,0,0,0,38,24.86"/><text class="cls-3" transform="translate(15.86 53.32)">Health</text></svg>