<svg id="Assets_class" data-name="Assets class" xmlns="http://www.w3.org/2000/svg" viewBox="0 0 75.6 86.57"><defs><style>.cls-1{fill:#f1563f;}.cls-2{fill:#fff;}.cls-3{font-size:13px;fill:#e1bebb;font-family:Helvetica, Helvetica;}.cls-4{letter-spacing:0.01em;}.cls-5{letter-spacing:0em;}</style></defs><title>Artboard 289</title><g id="_Group_" data-name="&lt;Group&gt;"><circle class="cls-1" cx="37.76" cy="25.5" r="14.5"/><circle class="cls-1" cx="37.76" cy="25.5" r="13.33"/></g><path class="cls-2" d="M47.71,30.84H28.44a.27.27,0,0,0-.27.27v.42a.27.27,0,0,0,.27.27H47.71a.27.27,0,0,0,.27-.27v-.42a.27.27,0,0,0-.27-.27"/><path class="cls-2" d="M29.22,22.22a.27.27,0,0,0,.36.12L38.08,18l8.62,4.28a.27.27,0,0,0,.36-.12l.14-.29a.27.27,0,0,0-.12-.36l-8.8-4.36-.07,0a.27.27,0,0,0-.27,0l-8.76,4.45a.27.27,0,0,0-.12.36Z"/><path class="cls-2" d="M39,22.15a.27.27,0,0,1-.27.27H37.42a.27.27,0,0,1-.27-.27V20.84a.27.27,0,0,1,.27-.27h1.31a.27.27,0,0,1,.27.27Zm-1.62,3.52a.27.27,0,0,1-.27.27H35.55a.27.27,0,0,1-.27-.27V24.11a.27.27,0,0,1,.27-.27h1.56a.27.27,0,0,1,.27.27Zm0,2.56a.27.27,0,0,1-.27.27H35.55a.27.27,0,0,1-.27-.27V26.67a.27.27,0,0,1,.27-.27h1.56a.27.27,0,0,1,.27.27Zm-2.73-2.56a.27.27,0,0,1-.27.27H32.82a.27.27,0,0,1-.27-.27V24.11a.27.27,0,0,1,.27-.27h1.56a.27.27,0,0,1,.27.27Zm0,2.56a.27.27,0,0,1-.27.27H32.82a.27.27,0,0,1-.27-.27V26.67a.27.27,0,0,1,.27-.27h1.56a.27.27,0,0,1,.27.27Zm9,2.11h2.22a.27.27,0,0,0,.27-.27V23a.47.47,0,0,0-.24-.39l-7.57-3.75a.62.62,0,0,0-.48,0l-7.57,3.75A.47.47,0,0,0,30,23v7.08a.27.27,0,0,0,.27.27h9a.27.27,0,0,0,.27-.27v-6a.27.27,0,0,1,.27-.27h3.24a.27.27,0,0,1,.27.27v6a.27.27,0,0,0,.27.27"/><text class="cls-3" transform="translate(20.47 52.57)"><tspan class="cls-4">S<tspan class="cls-5" x="6.49" y="0">ocial </tspan></tspan><tspan x="-4.8" y="12">housing</tspan></text></svg>