<?xml version="1.0" encoding="UTF-8" standalone="no"?>
<svg
   xmlns:dc="http://purl.org/dc/elements/1.1/"
   xmlns:cc="http://creativecommons.org/ns#"
   xmlns:rdf="http://www.w3.org/1999/02/22-rdf-syntax-ns#"
   xmlns:svg="http://www.w3.org/2000/svg"
   xmlns="http://www.w3.org/2000/svg"
   xmlns:sodipodi="http://sodipodi.sourceforge.net/DTD/sodipodi-0.dtd"
   xmlns:inkscape="http://www.inkscape.org/namespaces/inkscape"
   id="Assets_class"
   data-name="Assets class"
   viewBox="0 0 84.48 74.39"
   version="1.1"
   sodipodi:docname="transport.svg"
   inkscape:version="0.92.1 r15371">
  <metadata
     id="metadata5336">
    <rdf:RDF>
      <cc:Work
         rdf:about="">
        <dc:format>image/svg+xml</dc:format>
        <dc:type
           rdf:resource="http://purl.org/dc/dcmitype/StillImage" />
      </cc:Work>
    </rdf:RDF>
  </metadata>
  <sodipodi:namedview
     pagecolor="#ffffff"
     bordercolor="#666666"
     borderopacity="1"
     objecttolerance="10"
     gridtolerance="10"
     guidetolerance="10"
     inkscape:pageopacity="0"
     inkscape:pageshadow="2"
     inkscape:window-width="1920"
     inkscape:window-height="1001"
     id="namedview5334"
     showgrid="false"
     inkscape:zoom="8.9730986"
     inkscape:cx="55.694884"
     inkscape:cy="47.587053"
     inkscape:window-x="-9"
     inkscape:window-y="-9"
     inkscape:window-maximized="1"
     inkscape:current-layer="Assets_class" />
  <defs
     id="defs5299">
    <style
       id="style5297">.cls-1{fill:#f1563f;}.cls-2{fill:#fff;}.cls-3{font-size:13px;fill:#e1bebb;font-family:Helvetica, Helvetica;}.cls-4{letter-spacing:-0.04em;}.cls-5{letter-spacing:0em;}.cls-6{letter-spacing:0.02em;}.cls-7{letter-spacing:0em;}</style>
  </defs>
  <title
     id="title5301">Artboard 281</title>
  <circle
     class="cls-1"
     cx="42.23"
     cy="25.5"
     r="14.5"
     id="circle5303" />
  <circle
     class="cls-1"
     cx="42.23"
     cy="25.5"
     r="13.33"
     id="circle5305" />
  <path
     class="cls-2"
     d="M39.89,18.16,30.67,28.94c-.18.23.25.61.43.84a.39.39,0,0,0,.65,0l9-11.62Z"
     id="path5307" />
  <path
     class="cls-2"
     d="M54.42,28.78l-9.1-10.62h-.87l8.89,11.46a.41.41,0,0,0,.33.17.41.41,0,0,0,.32-.17c.18-.23.61-.61.43-.84"
     id="path5309" />
  <polygon
     class="cls-2"
     points="47.41 22.95 37.88 22.95 38.79 21.86 46.5 21.86 47.41 22.95"
     id="polygon5311" />
  <polygon
     class="cls-2"
     points="45.6 20.78 39.69 20.78 40.25 20.1 45.04 20.1 45.6 20.78"
     id="polygon5313" />
  <polygon
     class="cls-2"
     points="41.08 18.87 40.7 19.32 44.58 19.32 44.22 18.87 41.08 18.87"
     id="polygon5315" />
  <polygon
     class="cls-2"
     points="49.69 26.22 35.6 26.22 36.95 24.61 48.34 24.61 49.69 26.22"
     id="polygon5317" />
  <polygon
     class="cls-2"
     points="52.69 30.04 32.6 30.04 34.52 27.74 50.77 27.74 52.69 30.04"
     id="polygon5319" />
  <text
     class="cls-3"
     transform="translate(16.18 52.39)"
     id="text5331">
    <tspan
       class="cls-4"
       id="tspan5321">T</tspan>
    <tspan
       class="cls-5"
       x="5.88"
       y="0"
       id="tspan5323">r</tspan>
    <tspan
       x="10.06"
       y="0"
       id="tspan5325">anspo</tspan>
    <tspan
       class="cls-6"
       x="43.22"
       y="0"
       id="tspan5327">r</tspan>
    <tspan
       class="cls-7"
       x="47.79"
       y="0"
       id="tspan5329">t</tspan>
  </text>
</svg>
