<?xml version="1.0" encoding="UTF-8" standalone="no"?>
<svg
   xmlns:dc="http://purl.org/dc/elements/1.1/"
   xmlns:cc="http://creativecommons.org/ns#"
   xmlns:rdf="http://www.w3.org/1999/02/22-rdf-syntax-ns#"
   xmlns:svg="http://www.w3.org/2000/svg"
   xmlns="http://www.w3.org/2000/svg"
   xmlns:sodipodi="http://sodipodi.sourceforge.net/DTD/sodipodi-0.dtd"
   xmlns:inkscape="http://www.inkscape.org/namespaces/inkscape"
   id="Assets_class"
   data-name="Assets class"
   viewBox="0 0 53.040001 53.040001"
   version="1.1"
   sodipodi:docname="water_e.svg"
   inkscape:version="0.92.1 r15371"
   width="53.040001"
   height="53.040001">
  <metadata
     id="metadata6703">
    <rdf:RDF>
      <cc:Work
         rdf:about="">
        <dc:format>image/svg+xml</dc:format>
        <dc:type
           rdf:resource="http://purl.org/dc/dcmitype/StillImage" />
        <dc:title>Artboard 283</dc:title>
      </cc:Work>
    </rdf:RDF>
  </metadata>
  <sodipodi:namedview
     pagecolor="#ffffff"
     bordercolor="#666666"
     borderopacity="1"
     objecttolerance="10"
     gridtolerance="10"
     guidetolerance="10"
     inkscape:pageopacity="0"
     inkscape:pageshadow="2"
     inkscape:window-width="1920"
     inkscape:window-height="1001"
     id="namedview6701"
     showgrid="false"
     inkscape:zoom="8.8705488"
     inkscape:cx="21.157029"
     inkscape:cy="26.713484"
     inkscape:window-x="-9"
     inkscape:window-y="-9"
     inkscape:window-maximized="1"
     inkscape:current-layer="layer9"
     fit-margin-top="0"
     fit-margin-left="0"
     fit-margin-right="0"
     fit-margin-bottom="0" />
  <defs
     id="defs6677">
    <style
       id="style6675">.cls-1{fill:#f1563f;}.cls-2{fill:#fff;}.cls-3{font-size:13px;fill:#e1bebb;font-family:Helvetica, Helvetica;letter-spacing:-0.03em;}.cls-4{letter-spacing:0em;}.cls-5{letter-spacing:-0.01em;}.cls-6{letter-spacing:0em;}</style>
    <style
       id="style7265">.cls-1{isolation:isolate;}.cls-2{opacity:0.7;mix-blend-mode:multiply;}.cls-3,.cls-5{fill:#fff;}.cls-4{fill:#009887;}.cls-5{font-size:13px;font-family:Helvetica-Bold, Helvetica Bold;font-weight:700;letter-spacing:-0.03em;}.cls-6{letter-spacing:0em;}.cls-7{letter-spacing:-0.01em;}.cls-8{letter-spacing:0em;}</style>
  </defs>
  <title
     id="title6679">Artboard 283</title>
  <g
     inkscape:groupmode="layer"
     id="layer8"
     inkscape:label="Layer 1"
     transform="translate(-5.58,-2)">
    <g
       id="g7256">
      <g
         data-name="&lt;Group&gt;"
         id="_Group_">
        <circle
           id="circle6681"
           r="14.5"
           cy="25.5"
           cx="32.080002"
           class="cls-1"
           style="isolation:isolate;fill:#f1563f" />
        <circle
           id="circle6683"
           r="13.33"
           cy="25.5"
           cx="32.080002"
           class="cls-1"
           style="isolation:isolate;fill:#f1563f" />
      </g>
      <path
         id="path6686"
         d="m 32.39,33.67 a 2.53,2.53 0 0 1 -2.52,-2.52 0.57,0.57 0 1 1 1.14,0 1.39,1.39 0 0 0 1.38,1.38 0.57,0.57 0 0 1 0,1.14 m 2.24,-6.06 c -0.65,-1.07 -1.28,-1.95 -1.31,-2 L 32.85,25 32.39,24.37 31.93,25 31.47,25.63 c 0,0 -0.67,0.92 -1.31,2 a 7.75,7.75 0 0 0 -1.42,3.52 3.66,3.66 0 0 0 7.32,0 7.77,7.77 0 0 0 -1.42,-3.52"
         class="cls-2"
         inkscape:connector-curvature="0"
         style="opacity:0.7;mix-blend-mode:multiply;fill:#ffffff" />
      <path
         id="path6688"
         d="m 27,27.82 a 2.13,2.13 0 0 1 -2.13,-2.13 0.5,0.5 0 1 1 1,0 1.17,1.17 0 0 0 1.13,1.17 0.5,0.5 0 0 1 0,1 m 1.88,-5.11 C 28.34,21.85 27.8,21.11 27.77,21.08 L 27.38,20.54 27,20 26.61,20.53 26.2,21 c 0,0 -0.56,0.77 -1.11,1.67 a 6.56,6.56 0 0 0 -1.2,3 3.085,3.085 0 0 0 6.17,0 6.55,6.55 0 0 0 -1.2,-3"
         class="cls-2"
         inkscape:connector-curvature="0"
         style="opacity:0.7;mix-blend-mode:multiply;fill:#ffffff" />
      <path
         id="path6690"
         d="m 36.63,24.52 a 2.13,2.13 0 0 1 -2.13,-2.13 0.5,0.5 0 0 1 1,0 1.17,1.17 0 0 0 1.17,1.17 0.5,0.5 0 0 1 0,1 m 1.88,-5.11 c -0.54,-0.9 -1.08,-1.64 -1.11,-1.67 L 37,17.2 36.61,16.66 36.22,17.2 35.83,17.74 c 0,0 -0.56,0.77 -1.11,1.67 a 6.53,6.53 0 0 0 -1.2,3 3.085,3.085 0 0 0 6.17,0 6.55,6.55 0 0 0 -1.2,-3"
         class="cls-2"
         inkscape:connector-curvature="0"
         style="opacity:0.7;mix-blend-mode:multiply;fill:#ffffff" />
    </g>
    <g
       style="display:inline;isolation:isolate"
       id="g7363">
      <path
         id="path7357"
         d="m 32.39,33.67 a 2.53,2.53 0 0 1 -2.52,-2.52 0.57,0.57 0 1 1 1.14,0 1.39,1.39 0 0 0 1.38,1.38 0.57,0.57 0 0 1 0,1.14 m 2.24,-6.06 c -0.65,-1.07 -1.28,-1.95 -1.31,-2 L 32.85,25 32.39,24.37 31.93,25 31.47,25.63 c 0,0 -0.67,0.92 -1.31,2 a 7.75,7.75 0 0 0 -1.42,3.52 3.66,3.66 0 0 0 7.32,0 7.77,7.77 0 0 0 -1.42,-3.52"
         class="cls-3"
         inkscape:connector-curvature="0"
         style="fill:#ffffff" />
      <path
         id="path7359"
         d="m 27,27.82 a 2.13,2.13 0 0 1 -2.13,-2.13 0.5,0.5 0 1 1 1,0 1.17,1.17 0 0 0 1.13,1.17 0.5,0.5 0 0 1 0,1 m 1.88,-5.11 C 28.34,21.85 27.8,21.11 27.77,21.08 L 27.38,20.54 27,20 26.61,20.53 26.2,21 c 0,0 -0.56,0.77 -1.11,1.67 a 6.56,6.56 0 0 0 -1.2,3 3.085,3.085 0 0 0 6.17,0 6.55,6.55 0 0 0 -1.2,-3"
         class="cls-3"
         inkscape:connector-curvature="0"
         style="fill:#ffffff" />
      <path
         id="path7361"
         d="m 36.63,24.52 a 2.13,2.13 0 0 1 -2.13,-2.13 0.5,0.5 0 0 1 1,0 1.17,1.17 0 0 0 1.17,1.17 0.5,0.5 0 0 1 0,1 m 1.88,-5.11 c -0.54,-0.9 -1.08,-1.64 -1.11,-1.67 L 37,17.2 36.61,16.66 36.22,17.2 35.83,17.74 c 0,0 -0.56,0.77 -1.11,1.67 a 6.53,6.53 0 0 0 -1.2,3 3.085,3.085 0 0 0 6.17,0 6.55,6.55 0 0 0 -1.2,-3"
         class="cls-3"
         inkscape:connector-curvature="0"
         style="fill:#ffffff" />
    </g>
  </g>
  <g
     inkscape:groupmode="layer"
     id="layer9"
     inkscape:label="Layer 2"
     style="display:inline"
     transform="translate(-5.58,-2)" />
</svg>
