<?xml version="1.0" encoding="utf-8"?>
<!-- Generator: Adobe Illustrator 22.1.0, SVG Export Plug-In . SVG Version: 6.00 Build 0)  -->
<svg version="1.1" id="Layer_1" xmlns="http://www.w3.org/2000/svg" xmlns:xlink="http://www.w3.org/1999/xlink" x="0px" y="0px"
	 viewBox="0 0 153.1 265.6" style="enable-background:new 0 0 153.1 265.6;" xml:space="preserve">
<style type="text/css">
	.st0{fill:#6D1036;}
	.st1{fill:#6A0832;}
</style>
<g transform="translate(-68.3 -87.6)">
	<rect x="98" y="87.9" class="st0" width="0.8" height="265.9"/>
</g>
<g transform="translate(-68.3 -87.6)">
	<g transform="matrix(.265 0 0 .265 68.3 87.7)">
		<rect y="-0.2" class="st1" width="578.3" height="1003.5"/>
		<g>
			<polygon class="st0" points="552.8,-0.1 549.9,-0.1 578.3,20.4 578.3,16.9 			"/>
			<polygon class="st0" points="16.3,1003.3 0,992 0,994.8 11.4,1003.3 			"/>
			<polygon class="st0" points="246.9,1003.3 0,827.6 0,833.2 242.1,1003.3 			"/>
			<rect x="178.6" y="-0.4" class="st0" width="2.8" height="1003.5"/>
			<rect x="156.5" y="-0.2" class="st0" width="2.8" height="1003.5"/>
			<polygon class="st0" points="170.1,1003.3 0,884.3 0,887.1 165.3,1003.3 			"/>
			<polygon class="st0" points="131.5,1003.3 0,909.8 0,912.6 126.7,1003.3 			"/>
			<polygon class="st0" points="93.3,1003.3 0,938.1 0,941 88.4,1003.3 			"/>
			<polygon class="st0" points="54.7,1003.3 0,963.6 0,969.3 49.9,1003.3 			"/>
			<rect x="23.7" y="-0.2" class="st0" width="2.8" height="1003.5"/>
			<polygon class="st0" points="208.6,1003.3 0,855.9 0,858.7 203.5,1003.3 			"/>
			<rect x="399.7" y="-0.3" class="st0" width="2.8" height="1003.5"/>
			<rect x="377" y="-0.2" class="st0" width="2.8" height="1003.5"/>
			<polygon class="st0" points="399.7,1003.3 0,719.8 0,722.7 396.9,1003.3 			"/>
			<rect x="357.2" y="-0.3" class="st0" width="2.8" height="1003.5"/>
			<polygon class="st0" points="362.8,1003.3 0,748.2 0,751 357.2,1003.3 			"/>
			<polygon class="st0" points="323.1,1003.3 0,773.7 0,779.4 320.3,1003.3 			"/>
			<polygon class="st0" points="286.3,1003.3 0,802.1 0,804.9 280.6,1003.3 			"/>
			<rect x="223.1" y="-0.2" class="st0" width="2.8" height="1003.5"/>
			<rect x="245.2" y="-0.1" class="st0" width="2.8" height="1003.5"/>
			<rect x="267.3" y="-0.2" class="st0" width="2.8" height="1003.5"/>
			<rect x="200.7" y="-0.2" class="st0" width="2.8" height="1003.5"/>
			<rect x="334.5" y="-0.2" class="st0" width="2.8" height="1003.5"/>
			<rect x="289.1" y="0.1" class="st0" width="2.8" height="1003.5"/>
			<rect x="311.8" y="-0.3" class="st0" width="2.8" height="1003.5"/>
			<polygon class="st0" points="515.9,1003.3 0,640.5 0,643.3 510.2,1003.3 			"/>
			<rect x="487.6" y="-0.4" class="st0" width="2.8" height="1003.5"/>
			<rect x="467.7" y="0" class="st0" width="2.8" height="1003.5"/>
			<polygon class="st0" points="479.1,1003.3 0,666 0,668.8 473.4,1003.3 			"/>
			<rect x="445" y="-0.3" class="st0" width="2.8" height="1003.5"/>
			<polygon class="st0" points="439.4,1003.3 0,694.3 0,697.2 433.7,1003.3 			"/>
			<rect x="422.4" y="-0.2" class="st0" width="2.8" height="1003.5"/>
			<polygon class="st0" points="555.6,1003.3 0,612.1 0,615 549.9,1003.3 			"/>
			<rect x="532.9" y="-0.4" class="st0" width="2.8" height="1003.5"/>
			<rect x="510.2" y="-0.2" class="st0" width="2.8" height="1003.5"/>
			<rect x="555.6" y="-0.2" class="st0" width="2.8" height="1003.5"/>
			<polygon class="st0" points="578.3,342.8 92.7,-0.1 87.6,-0.1 578.3,345.7 			"/>
			<polygon class="st0" points="578.3,314.5 131,-0.1 126.1,-0.1 578.3,317.3 			"/>
			<polygon class="st0" points="578.3,289 169.5,-0.1 164.4,-0.1 578.3,291.8 			"/>
			<polygon class="st0" points="578.3,260.9 208.1,-0.1 203,-0.1 578.3,264.3 			"/>
			<polygon class="st0" points="578.3,233.7 246.3,-0.1 241.5,-0.1 578.3,237.1 			"/>
			<polygon class="st0" points="578.3,206.8 283.5,-0.1 280.1,-0.1 578.3,210.2 			"/>
			<polygon class="st0" points="578.3,179.6 323.1,-0.1 317.5,-0.1 578.3,183 			"/>
			<polygon class="st0" points="578.3,152.4 362.8,-0.1 357.2,-0.1 578.3,156 			"/>
			<polygon class="st0" points="578.3,125.4 399.7,-0.1 394,-0.1 578.3,128.8 			"/>
			<polygon class="st0" points="578.3,98.2 439.4,-0.1 433.7,-0.1 578.3,101.9 			"/>
			<polygon class="st0" points="578.3,71.3 476.2,-0.1 473.4,-0.1 578.3,74.7 			"/>
			<polygon class="st0" points="578.3,44.1 515.9,-0.1 510.2,-0.1 578.3,47.5 			"/>
			<polygon class="st0" points="578.3,558.3 0,151.5 0,154.9 578.3,561.1 			"/>
			<polygon class="st0" points="578.3,532.8 0,124.3 0,127.7 578.3,535.6 			"/>
			<polygon class="st0" points="578.3,504.4 0,97.1 0,100.8 578.3,507.3 			"/>
			<polygon class="st0" points="578.3,478.9 0,70.1 0,73.6 578.3,481.7 			"/>
			<polygon class="st0" points="578.3,450.6 0,42.9 0,46.3 578.3,453.4 			"/>
			<polygon class="st0" points="578.3,422.2 0,15.9 0,19.4 578.3,427.9 			"/>
			<polygon class="st0" points="578.3,368.4 54.1,-0.1 49.3,-0.1 578.3,374 			"/>
			<polygon class="st0" points="578.3,640.5 0,232.6 0,236.3 578.3,643.3 			"/>
			<polygon class="st0" points="578.3,612.1 0,205.6 0,209 578.3,617.8 			"/>
			<polygon class="st0" points="578.3,586.6 0,178.4 0,181.8 578.3,589.5 			"/>
			<polygon class="st0" points="578.3,855.9 0,450.6 0,453.4 578.3,861.6 			"/>
			<polygon class="st0" points="578.3,830.4 0,422.2 0,425 578.3,833.2 			"/>
			<polygon class="st0" points="578.3,802.1 0,396.7 0,399.5 578.3,807.7 			"/>
			<polygon class="st0" points="578.3,776.5 0,368.4 0,371.2 578.3,779.4 			"/>
			<polygon class="st0" points="578.3,748.2 0,340 0,345.7 578.3,751 			"/>
			<polygon class="st0" points="578.3,722.7 0,314.5 0,317.3 578.3,725.5 			"/>
			<polygon class="st0" points="578.3,694.3 0,286.1 0,289 578.3,697.2 			"/>
			<polygon class="st0" points="578.3,666 0,259.8 0,263.2 578.3,671.7 			"/>
			<polygon class="st0" points="578.3,966.5 0,558.3 0,561.1 578.3,969.3 			"/>
			<polygon class="st0" points="578.3,938.1 0,529.9 0,535.6 578.3,941 			"/>
			<polygon class="st0" points="578.3,912.6 0,504.4 0,507.3 578.3,915.4 			"/>
			<polygon class="st0" points="578.3,884.3 0,476.1 0,478.9 578.3,887.1 			"/>
			<polygon class="st0" points="578.3,992 0,583.8 0,589.5 578.3,994.8 			"/>
			<rect x="134.4" y="-0.2" class="st0" width="2.8" height="1003.5"/>
			<rect x="112.3" y="-0.2" class="st0" width="2.8" height="1003.5"/>
			<rect x="90.1" y="-0.2" class="st0" width="2.8" height="1003.5"/>
			<rect x="68" y="-0.2" class="st0" width="2.8" height="1003.5"/>
			<rect x="45.9" y="-0.2" class="st0" width="2.8" height="1003.5"/>
			<polygon class="st0" points="10.7,-0.2 578.3,399.5 578.3,396.7 15.6,-0.2 			"/>
		</g>
	</g>
</g>
</svg>
