<svg xmlns="http://www.w3.org/2000/svg" id="Layer_1" data-name="Layer 1" viewBox="0 0 205 315" width="205" height="315"><defs><style>.cls-1{fill:#098;}.cls-2{fill:none;stroke:#00a081;stroke-miterlimit:10;}.cls-3{fill:#009e8d;}.cls-4{fill:#fff;}</style></defs><title>RegionPanel</title><rect class="cls-1" width="204" height="315"/><line class="cls-2" x1="40.1" y1="-0.01" x2="40.1" y2="314.99"/><rect class="cls-3" x="8.35" width="1" height="315"/><polygon class="cls-3" points="4.82 315.01 0 311.62 0 312.84 3.08 315.01 4.82 315.01"/><polygon class="cls-3" points="140.44 315 0 216.05 0 217.27 138.7 315 140.44 315"/><rect class="cls-3" x="133.35" width="1" height="315"/><rect class="cls-3" x="125.54" width="1" height="315"/><polygon class="cls-3" points="126.87 315 0 225.61 0 226.83 125.14 315 126.87 315"/><rect class="cls-3" x="117.72" width="1" height="315"/><rect class="cls-3" x="109.91" width="1" height="315"/><polygon class="cls-3" points="113.31 315 0 235.16 0 236.39 111.57 315 113.31 315"/><rect class="cls-3" x="102.1" width="1" height="315"/><polygon class="cls-3" points="99.74 315 0 244.72 0 245.94 98.01 315 99.74 315"/><rect class="cls-3" x="94.29" width="1" height="315"/><rect class="cls-3" x="86.47" width="1" height="315"/><polygon class="cls-3" points="86.18 315 0 254.28 0 255.5 84.44 315 86.18 315"/><rect class="cls-3" x="78.66" width="1" height="315"/><rect class="cls-3" x="70.85" width="1" height="315"/><polygon class="cls-3" points="72.62 315 0 263.83 0 265.06 70.88 315 72.62 315"/><rect class="cls-3" x="63.04" width="1" height="315"/><polygon class="cls-3" points="59.05 315 0 273.39 0 274.62 57.32 315 59.05 315"/><rect class="cls-3" x="55.22" width="1" height="315"/><rect class="cls-3" x="47.41" width="1" height="315"/><polygon class="cls-3" points="45.49 315 0 282.95 0 284.17 43.75 315 45.49 315"/><rect class="cls-3" x="39.6" width="1" height="315"/><rect class="cls-3" x="31.79" width="1" height="315"/><polygon class="cls-3" points="31.93 315 0 292.51 0 293.73 30.19 315 31.93 315"/><rect class="cls-3" x="23.97" width="1" height="315"/><rect class="cls-3" x="16.16" width="1" height="315"/><polygon class="cls-3" points="18.36 315 0 302.06 0 303.29 16.63 315 18.36 315"/><rect class="cls-3" x="195.85" width="1" height="315"/><polygon class="cls-3" points="194.69 315 0 177.82 0 179.04 192.96 315 194.69 315"/><rect class="cls-3" x="188.04" width="1" height="315"/><rect class="cls-3" x="180.22" width="1" height="315"/><polygon class="cls-3" points="181.13 315 0 187.38 0 188.6 179.39 315 181.13 315"/><rect class="cls-3" x="172.41" width="1" height="315"/><rect class="cls-3" x="164.6" width="1" height="315"/><polygon class="cls-3" points="167.56 315 0 196.94 0 198.16 165.83 315 167.56 315"/><rect class="cls-3" x="156.79" width="1" height="315"/><polygon class="cls-3" points="154 315 0 206.49 0 207.72 152.26 315 154 315"/><rect class="cls-3" x="148.97" width="1" height="315"/><rect class="cls-3" x="141.16" width="1" height="315"/><polygon class="cls-3" points="204 34.74 154.69 -0.01 152.95 -0.01 204 35.96 204 34.74"/><polygon class="cls-3" points="204 25.18 168.25 -0.01 166.51 -0.01 204 26.41 204 25.18"/><polygon class="cls-3" points="204 6.13 195.29 -0.01 193.56 -0.01 204 7.35 204 6.13"/><polygon class="cls-3" points="204 15.63 181.81 -0.01 180.08 -0.01 204 16.85 204 15.63"/><polygon class="cls-3" points="204 44.3 141.12 -0.01 139.39 -0.01 204 45.52 204 44.3"/><polygon class="cls-3" points="204 63.41 114 -0.01 112.26 -0.01 204 64.64 204 63.41"/><polygon class="cls-3" points="204 53.85 127.56 -0.01 125.82 -0.01 204 55.08 204 53.85"/><polygon class="cls-3" points="204 72.97 100.43 -0.01 98.69 -0.01 204 74.19 204 72.97"/><polygon class="cls-3" points="204 216.32 0 72.58 0 73.81 204 217.55 204 216.32"/><polygon class="cls-3" points="204 206.77 0 63.03 0 64.25 204 207.99 204 206.77"/><polygon class="cls-3" points="204 178.09 0 34.36 0 35.58 204 179.32 204 178.09"/><polygon class="cls-3" points="204 197.21 0 53.47 0 54.69 204 198.43 204 197.21"/><polygon class="cls-3" points="204 187.65 0 43.91 0 45.14 204 188.88 204 187.65"/><polygon class="cls-3" points="204 139.87 5.49 0 3.76 0 204 141.09 204 139.87"/><polygon class="cls-3" points="204 149.42 0 5.69 0 6.91 204 150.65 204 149.42"/><polygon class="cls-3" points="204 158.98 0 15.24 0 16.47 204 160.2 204 158.98"/><polygon class="cls-3" points="204 168.54 0 24.8 0 26.02 204 169.76 204 168.54"/><polygon class="cls-3" points="204 254.66 0 110.92 0 112.15 204 255.88 204 254.66"/><polygon class="cls-3" points="204 302.45 0 158.71 0 159.93 204 303.67 204 302.45"/><polygon class="cls-3" points="204 283.33 0 139.59 0 140.82 204 284.56 204 283.33"/><polygon class="cls-3" points="204 225.88 0 82.14 0 83.37 204 227.1 204 225.88"/><polygon class="cls-3" points="204 312 0 168.26 0 169.49 204 313.23 204 312"/><polygon class="cls-3" points="204 292.89 0 149.15 0 150.37 204 294.11 204 292.89"/><polygon class="cls-3" points="204 244.99 0 101.26 0 102.48 204 246.22 204 244.99"/><polygon class="cls-3" points="204 235.44 0 91.7 0 92.92 204 236.66 204 235.44"/><polygon class="cls-3" points="204 264.22 0 120.48 0 121.7 204 265.44 204 264.22"/><polygon class="cls-3" points="204 273.77 0 130.04 0 131.26 204 275 204 273.77"/><polygon class="cls-3" points="204 82.53 86.87 -0.01 85.13 -0.01 204 83.75 204 82.53"/><polygon class="cls-3" points="204 101.64 59.74 -0.01 58 -0.01 204 102.86 204 101.64"/><polygon class="cls-3" points="204 92.08 73.3 -0.01 71.57 -0.01 204 93.31 204 92.08"/><polygon class="cls-3" points="204 130.31 19.05 -0.01 17.31 -0.01 204 131.53 204 130.31"/><polygon class="cls-3" points="204 120.75 32.61 -0.01 30.88 -0.01 204 121.98 204 120.75"/><polygon class="cls-3" points="204 111.2 46.18 -0.01 44.44 -0.01 204 112.42 204 111.2"/></svg>
