<?xml version="1.0" encoding="utf-8"?>
<!-- Generator: Adobe Illustrator 22.1.0, SVG Export Plug-In . SVG Version: 6.00 Build 0)  -->
<svg version="1.1" id="Layer_1" xmlns="http://www.w3.org/2000/svg" xmlns:xlink="http://www.w3.org/1999/xlink" x="0px" y="0px"
	 viewBox="0 0 318.5 386" style="enable-background:new 0 0 318.5 386;" xml:space="preserve">
<style type="text/css">
	.st0{fill:#009786;stroke:#FFFFFF;stroke-width:1.5;stroke-miterlimit:10;}
</style>
<title>Sunshine Coast_edit</title>
<polygon class="st0" points="218.3,266.5 217.3,267.4 217.8,267.3 "/>
<polygon class="st0" points="224.3,260.3 223.8,261.2 224.7,259.8 "/>
<polygon class="st0" points="295.1,358.7 295.3,357.7 295,356.8 294.2,356 293.8,355.1 293.8,353.5 294.5,351.9 294.6,350.8 
	294.6,349.7 294.5,348.7 293.3,347.9 292.2,347.2 291.7,346.7 291.4,347.5 291.2,348.3 290,347.9 288.3,347.2 287.7,346.5 
	286.3,346.7 285.3,347.4 284.3,348.2 283.9,349.3 283.9,350.9 283.6,352.6 283.3,353.6 283,354.9 283.7,355.9 284.4,356.4 
	285.5,355.5 286.4,354.7 287.4,354.5 288.5,354.6 289.5,356.1 290,357.7 292.6,359.6 293.3,359.5 294.3,359.2 295,359.1 
	295.5,359.5 "/>
<polygon class="st0" points="225.1,259.2 224.7,259.8 225.2,259.1 "/>
<polygon class="st0" points="233.7,249.3 233.5,249.6 234.2,251.4 234.2,250.1 "/>
<polygon class="st0" points="225.8,258.2 225.2,259.1 226.7,257.6 "/>
<polygon class="st0" points="234.2,251.4 232.5,253 233.8,252 "/>
<polygon class="st0" points="144.3,108.8 143.7,111.5 143.7,113.4 142.1,115.4 145,118.3 146.6,120.9 150.5,121.9 151.5,128.4 
	150.2,131 148.2,132.3 148.9,136.5 149.9,138.5 145.6,140.7 144,142.4 140.1,145.6 139.5,150.8 137.8,154.4 136.2,155.4 
	134.9,157.7 136.2,159.9 139.5,161.2 143.4,162.9 145.6,162.9 146,161.6 146,159.6 147.6,159.6 148.6,161.6 150.2,162.2 
	151.8,162.2 155.7,161.2 158,160.9 159.6,159.9 160.9,159 163.2,159.1 162.7,155.3 163.7,152 164.6,148.7 164.2,142.9 160.8,138.2 
	160.8,133.4 159.4,131 158.9,128.6 156.1,126.7 151.8,122.9 150.8,119.6 151.3,117.7 150.8,112.4 148.9,108.6 146.3,108.2 "/>
<line class="st0" x1="188.8" y1="265.3" x2="187.9" y2="264.4"/>
<polyline class="st0" points="187.9,264.4 187.3,263.8 184.4,262.2 180.8,261.8 179.8,259.2 178.8,257 175.3,255 172.3,252.1 
	171.7,249.1 170,247.2 166.8,245.9 163.5,243.6 164.2,241.3 163.5,237.1 "/>
<polygon class="st0" points="159.6,159.9 158,160.9 155.7,161.2 151.8,162.2 150.2,162.2 148.6,161.6 147.6,159.6 146,159.6 
	146,161.6 145.6,162.9 143.4,162.9 139.5,161.2 136.2,159.9 134.9,157.7 134.6,161.2 135.2,165.5 136.2,169.1 135.9,173 
	135.2,175.2 132.9,177.5 129,181.8 126.8,182.7 127.1,187 128.4,190.5 130.3,192.2 132.3,191.8 134.9,194.5 138.5,199.7 
	141.7,205.2 143.7,207.1 145.6,211.1 145.6,216.6 147.6,220.8 149.5,222.4 151.8,226.7 153.8,230.6 155.7,233.2 156.7,236.4 
	160.6,237.1 163.5,237.1 163.5,234.8 165.8,232.9 164.8,231.6 164.5,229.9 164.5,227.7 164.5,226 165.5,225 167.4,226 169.1,227.3 
	170.4,228.3 172.3,228.3 174,226.7 176.2,227.3 178.5,227 179.8,225.7 181.1,224.4 181.1,222.8 180.5,221.1 180.8,218.9 
	181.4,216.6 181.4,214.6 181.4,212.4 181.8,210.1 182.8,208.1 184.4,207.1 186,207.1 187.9,206.2 188.6,204.5 188.9,202.3 
	189.3,200 188.6,197.7 187.6,196.1 189.9,194.8 190.6,196.4 192.8,195.4 192.8,192.8 192.8,191.5 195.1,190.1 193.2,184.4 
	190.4,182.5 185.1,181.5 177,177.3 172.7,174.4 170.4,170.1 169.9,167.2 168.9,164.4 165.6,163 163.2,159.1 160.9,159 "/>
<polygon class="st0" points="316.3,353.2 316.3,353.2 314.8,353.6 313.3,354.5 311.9,355.3 311,356.1 309.9,357.3 309.7,358.8 
	309,361.4 309.9,362.4 310.4,363.5 310.6,365.1 310.9,366 310.9,366 316.2,364.1 317.1,360.3 317.1,355.5 "/>
<path class="st0" d="M310.4,363.5l-0.5-1.1l-0.9-1l0.6-2.6l0.3-1.5l1.1-1.2l0.9-0.8l1.4-0.8l1.5-0.9l1.4-0.4l0,0l-0.6-1.5l-3.3-7.6
	l-2.9-3.8c0,0-1.3,0.2-1.5,0.2s-1.4-1-1.4-1l-0.7-1.2l-0.5-1.3l-0.7-1.4l-3-0.4l-1.4-0.6l-0.3-1.6l-0.5-0.8l0.1-1.2l-1.9-0.5l-2-1.6
	l-2.3-0.6l-3.6,0.6l-0.3,1.3l0.3,2.9v1.6l-0.7,1.3l0.6,1.2l0.5,1.7l0.5,2.1l0.5,1.3l-0.3,1.1l-0.3,1.8l1,1.2l-0.1,0.3l0.5,0.5
	l1.1,0.7l1.2,0.8l0.2,1l-0.1,1.1l-0.1,1.1l-0.7,1.6v1.6l0.5,0.9l0.8,0.8l0.3,0.9l-0.2,1l0.4,0.8l0.6,1.8l0.8,1.7l0.4,1.3l1,1.1
	l0.7,0.6l0.5,0.5l0.8,0.6l0.4,0.5v0.2l7.5-0.4l2.9-1.4l-0.4-0.9L310.4,363.5z"/>
<polyline class="st0" points="291.7,346.7 291.9,346.4 290.9,345.2 291.1,343.4 291.5,342.3 291,341.1 290.5,339 290.1,337.3 
	289.4,336.1 288.9,337 287.6,335.4 285.6,335.7 283.3,337.4 281,337.4 278.1,335.4 276.8,334.1 273.2,332.1 270.6,330.2 268,325.3 
	267.7,321.7 269.3,320.1 263.5,318.8 260.9,318.8 260.5,315.9 260.2,314.3 259.6,312.3 257,311.3 255.6,311.2 255.3,314.9 
	253.1,314.9 251.1,314.9 248.2,315.5 244.9,316.5 242,316.5 238.1,316.5 233.5,317.8 228.6,318.8 225.4,315.9 222.8,313.3 
	224.7,312 224.7,310 223.8,308.7 219.8,307.1 218.9,304.5 216.3,303.5 211.7,303.5 208.8,301.2 207.2,298.3 205.9,296.7 203.9,297 
	200.6,298.6 198.7,299.9 196.4,302.2 193.5,303.8 191.9,306.1 190.9,308.1 187.9,311 188.3,313.3 188.9,315.2 190.6,316.5 
	193.5,318.1 193.5,320.1 192.5,321.7 191.5,324 190.6,328.6 187.9,329.9 187.6,338.7 185.7,338.7 183.7,340.9 185.7,342.9 
	184,345.5 183.7,348.8 184,351.4 186.3,351.7 186.3,353.3 186.3,356.2 186,359.8 183.4,359.8 182.8,362.1 182.1,363.7 181.8,368.6 
	181.1,372.5 180.5,378 181.1,379.4 181.1,381.7 223.3,381.7 226.6,380.3 230.9,376.5 234.2,373.1 238.5,375 244.2,373.1 
	251.8,371.2 257.6,372.6 265.2,376.5 271.9,379.3 271.9,382.2 275.2,385 279.5,381.2 286.1,378.4 287.1,373.1 289.5,370.8 
	292.8,366.9 298.1,367.9 300.6,367.8 300.6,367.6 300.2,367.1 299.4,366.5 299,366 298.3,365.4 297.3,364.3 296.9,363 296.1,361.3 
	295.5,359.5 295.5,359.5 295,359.1 294.3,359.2 293.3,359.5 292.6,359.6 290,357.7 289.5,356.1 288.5,354.6 287.4,354.5 
	286.4,354.7 285.5,355.5 284.4,356.4 283.7,355.9 283,354.9 283.3,353.6 283.6,352.6 283.9,350.9 283.9,349.3 284.3,348.2 
	285.3,347.4 286.3,346.7 287.7,346.5 288.3,347.2 290,347.9 291.2,348.3 291.4,347.5 291.7,346.7 "/>
<path class="st0" d="M238,241.6l-2.9-2.4l-1.4-4.3l-1-1.9l-1-4.8l-2.4-3.3l0.5-2.9l-1.9-3.8l-2.8-1.4l-6.2-5.2l-0.5-4.3l1.4-2.9
	l-0.5-4.3h-3.8l-5.7-4.7l-5.2-2.4l-7.7-1l-1.9-1.9l-2.3,1.4v3.9l-2.3,1l-0.6-1.6l-2.3,1.3l1,1.6l0.6,2.3l-0.3,2.3l-0.3,2.3l-0.6,1.6
	l-2,1h-1.6l-1.6,1l-1,2l-0.3,2.2v4.2l-0.6,2.3l-0.3,2.3l0.6,1.6v1.6l-1.3,1.3l-1.3,1.3l-2.3,0.3l-2.3-0.6l-1.6,1.6h-2l-1.3-1
	l-1.6-1.3l-2-1l-1,1v3.9l0.3,1.6l1,1.3l-2.3,2v2.3l0.6,4.2l-0.6,2.3l3.3,2.3l3.3,1.3l1.6,2l0.6,2.9l2.9,2.9l3.6,2l1,2.3l1,2.6
	l3.6,0.3l2.9,1.6l0.6,0.6l0.8,0.8l0.3-1.5l-0.2-1.3l0.3-1.6l0.3-0.5l1.1-0.8l1.6-0.9l1.6-1.5l0.9-1.6l0.6-1.2l0.9-0.4h1.6l2.5-2
	l2.5-1.9l1.4-0.6h2l0.9,0.6c0,0,0.1,1.8,0.6,1.6c0.5-0.2,1-0.5,1.4-0.9h2l0.8,1l-1.3,0.7l0.4,1.5h1.1l2.9,0.6l1.3,0.3v1.6l-0.6,2.6
	v2.3l-0.1,1.3l-0.2,1.6l0.9,2.5l0.2,0.6l0.9-0.1l1-0.9l1.2-1l1.9-2.1l1-0.1l0.9-1.2l0.4-0.9l0.6-0.9l0.3-0.5l0.4-0.6l0.1-0.1
	l0.6-0.9l0.9-0.6h1.3l2.6-1.3l2-3.3l1.6-1.8l-0.6-1.8l0.2-0.3l0.7-1.2l1.5-0.1h1.3l2-1.2l1.6-1.9l1-1L238,241.6z"/>
<path class="st0" d="M287.1,287.4l-1.9-6.2l-6.7-0.5l-1.9-2.4l-2.4-2.9l-3.8-1l-5.2-5.2l-3.3-4.3l-1.4-2.9l2.4-9.5v-5.7l-2.4,1
	l-2.4-0.5l-5.2-0.5l-2.8-4.3l-5.2-1l-1.4,5.7l-1.4-3.3l-1,1l-1.6,1.9l-2,1.2H236l-1.5,0.1l-0.7,1.2l0.5,0.8v1.3l-0.3,0.5l-1.3,1.1
	l-2,3.3l-2.6,1.3h-1.3l-1.6,1.5l-0.5,0.7l-0.9,1.4l-0.4,0.9l-0.9,1.2l-1,0.1l-1.9,2.1l-1.2,1l-0.6,0.8l-0.4,0.1l-0.9,0.1l-0.2-0.6
	l-0.9-2.5l0.2-1.6l0.1-1.3v-2.3l0.6-2.6V255l-1.3-0.3l-3-0.7h-1.2l-0.4-1.5l1.3-0.7l-0.8-1h-1.8c-0.5,0.3-0.9,0.6-1.4,0.9
	c-0.4,0.1-0.6-1.6-0.6-1.6l-0.9-0.6h-2l-1.4,0.6l-2.5,1.9l-2.5,2h-1.6l-0.9,0.4l-0.6,1.2l-0.9,1.6l-1.6,1.5l-1.6,0.9l-1.1,0.8
	l-0.3,0.5l-0.3,1.6l0.2,1.3l-0.3,1.5l0.5,0.5l-1,4.2l-1,2.6l0.3,2.9l-1.5,3.3l-2,2.3l-3.3,2l-1.3,2.3l-2.6,1.3l1.6,5.5l3.6,1
	l2.9,2.6l2,1.3l3.9-1.3l3.3-1.4l3.6-1.6l4.9,2.3l3.3,1.6l1.3,1.6l1.6,2.9l2.9,2.3h4.6l2.6,1l1,2.6l3.9,1.6l1,1.3v2l-2,1.3l2.6,2.6
	l3.3,2.9l4.9-1l4.6-1.3h6.8l3.3-1l2.9-0.6h4.2l0.3-3.7V311l-0.3-6.5l2-3.6v-4.6l2.3-3.6l2.6-1l2.9-1.6l0.3-2.6l3.3-2l1.6,1.3l1,2
	l2.6,1.3l1.6-1.6h1.3l1.3,2.3l2,1.6l2.3,0.3h3.9l1-3.3L287.1,287.4z"/>
<path class="st0" d="M305.1,322.7l-1.3,2.3l-0.3,2.6l-1.3,2l-2,1.6l-0.4-0.1l-0.1,1.2l0.5,0.8l0.3,1.6l1.4,0.6l3,0.4l0.7,1.4
	l0.5,1.3l0.7,1.2c0,0,1.1,1,1.4,1s1.5-0.2,1.5-0.2l1.9-7.6l0.5-3.8l-0.5-4.8l-2.2-2.4l-1.8,1.4L305.1,322.7z"/>
<polygon class="st0" points="307.5,316.2 308.1,311.6 307.6,307.8 302.8,307.8 300.4,304.5 299.5,300.2 296.6,294.5 293.5,293.6 
	289.2,286.6 287.1,287.3 287.2,289.5 286.3,292.8 282.4,292.8 280.1,292.4 278.1,290.8 276.8,288.5 275.5,288.5 273.9,290.2 
	271.3,288.9 270.3,286.9 268.7,285.6 265.4,287.5 265.1,290.2 262.2,291.8 259.6,292.8 257.3,296.3 257.3,300.9 255.3,304.5 
	255.7,311 255.6,311.2 257,311.3 259.6,312.3 260.2,314.3 260.5,315.9 260.9,318.8 263.5,318.8 269.3,320.1 267.7,321.7 268,325.3 
	270.6,330.2 273.2,332.1 276.8,334.1 278.1,335.4 281,337.4 283.3,337.4 285.6,335.7 287.6,335.4 288.9,337 289.4,336.1 
	290.1,334.8 290.1,333.1 289.8,330.2 290.1,328.9 293.8,328.3 296,328.9 298,330.5 299.8,331 300.3,331.2 302.2,329.5 303.5,327.6 
	303.8,325 305.1,322.7 307.4,323 309.2,321.6 310.4,320.8 "/>
<polygon class="st0" points="26,124.8 27.9,123.4 29.8,122.9 32.6,119.6 30.2,120.5 26.9,120.5 22.1,122 20.8,124.6 19.8,126.7 
	22.6,124.8 "/>
<polygon class="st0" points="24,132 29.3,135.8 28.8,133.4 26.9,132 "/>
<path class="st0" d="M314.5,343.1c0,0,0.5-5.2,1.1-6.3c0.5-1.3,0.9-2.6,1.3-4l0.9,4.5l-1.8,9.4L314.5,343.1z"/>
<polygon class="st0" points="218.2,266.3 217.2,267.2 217.6,267.1 "/>
<polygon class="st0" points="224.2,260.1 223.6,261 224.5,259.6 "/>
<polygon class="st0" points="294.9,358.5 295.1,357.5 294.9,356.6 294,355.8 293.6,354.9 293.6,353.3 294.3,351.7 294.4,350.6 
	294.5,349.5 294.3,348.5 293.1,347.7 292.1,347 291.6,346.5 291.3,347.3 291.1,348.1 289.8,347.7 288.1,347 287.6,346.3 
	286.1,346.5 285.1,347.2 284.1,348 283.7,349.2 283.7,350.7 283.4,352.4 283.1,353.4 282.9,354.7 283.5,355.7 284.3,356.3 
	285.3,355.4 286.2,354.6 287.2,354.4 288.4,354.5 289.4,355.9 289.8,357.5 292.4,359.4 293.1,359.3 294.1,359.1 294.9,359 
	295.3,359.3 "/>
<polygon class="st0" points="224.9,259.1 224.5,259.6 225,259 "/>
<polygon class="st0" points="233.6,249.2 233.4,249.4 234,251.2 234,249.9 "/>
<polygon class="st0" points="225.6,258.1 225,259 226.5,257.4 "/>
<polygon class="st0" points="234,251.2 232.4,252.9 233.7,251.8 "/>
<polygon class="st0" points="144.2,108.7 143.5,111.3 143.5,113.2 141.9,115.2 144.8,118.1 146.5,120.7 150.4,121.7 151.3,128.2 
	150,130.8 148.1,132.1 148.7,136.3 149.7,138.3 145.5,140.6 143.9,142.2 139.9,145.4 139.3,150.7 137.7,154.2 136,155.2 
	134.7,157.5 136,159.8 139.3,161.1 143.2,162.7 145.5,162.7 145.8,161.4 145.8,159.4 147.4,159.4 148.4,161.4 150,162 151.7,162 
	155.6,161.1 157.8,160.7 159.5,159.8 160.8,158.8 163,159 162.6,155.1 163.5,151.8 164.5,148.5 164,142.8 160.7,138 160.7,133.2 
	159.2,130.8 158.8,128.5 155.9,126.6 151.6,122.7 150.7,119.4 151.1,117.5 150.7,112.3 148.8,108.5 146.1,108 "/>
<line class="st0" x1="188.6" y1="265.1" x2="187.8" y2="264.3"/>
<polyline class="st0" points="187.5,265 186.9,264.4 183.9,262.7 180.4,262.4 179.4,259.8 178.4,257.5 174.8,255.6 171.9,252.6 
	171.3,249.7 169.6,247.8 166.4,246.5 163.1,244.2 163.8,241.9 163.1,237.7 160.2,237.7 156.3,237 155.3,233.8 153.4,231.1 
	151.4,227.2 149.1,223 147.2,221.4 145.2,217.2 145.2,211.6 143.3,207.7 141.3,205.8 138.1,200.2 134.5,195 131.9,192.4 
	129.9,192.7 128,191.1 126.7,187.5 126.3,183.3 128.6,182.3 132.5,178.1 134.8,175.8 135.4,173.5 135.8,169.6 134.8,166.1 
	134.1,161.8 134.5,158.2 135.8,156 137.4,155 139,151.4 139.7,146.2 143.6,142.9 145.2,141.3 149.4,139 148.5,137.1 147.8,132.9 
	149.8,131.5 151.1,128.9 150.1,122.4 146.2,121.5 144.6,118.9 141.6,115.9 143.3,114 143.3,112 143.9,109.4 145.9,108.8 
	148.5,109.2 148.5,109.1 148.1,106.8 148,103.5 144.7,98.7 145.1,93 146.6,90.1 144.7,88.2 139.9,84.9 137.1,83 133.7,79.2 
	130.9,75.4 128.9,75.8 127.5,77.3 122.8,80.6 119.9,81.1 116.1,79.6 114.2,77.7 113.2,75.8 112.3,72 111.3,68.7 109.9,65.4 
	110.4,60.1 107.5,55.8 108,52.5 106.6,49.2 103.7,48.2 104.6,43.9 104.6,40.6 103.2,37.7 99.9,36.3 99.9,33.9 100.3,28.7 
	101.3,24.4 98,25.3 95.6,19.6 95.6,16.7 95.6,13.4 94.6,10.5 94.2,6.7 90.8,6.7 88.9,6.3 88.4,2 87,3.9 82.7,5.3 83.2,7.7 
	83.2,10.5 82.7,12.9 82.2,15.8 81.3,18.7 77.9,24.8 79.4,26.7 78.4,29.6 77.5,31.5 76.5,27.2 75.1,29.6 73.7,33.4 73.2,35.3 
	75.1,37.7 78.9,40.6 71.8,45.3 70.8,48.7 75.1,51.5 70.8,56.3 67.5,66.3 71.3,70.1 71.3,76.3 69.4,78.2 69.8,81.1 70.3,85.4 
	71.8,88.2 73.2,90.6 70.8,93 67.5,109.7 66,114.4 63.7,122.5 60.3,127.8 57.5,130.6 55.6,138.3 54.6,140.6 52.7,141.6 49.4,143 
	44.1,144.9 41.3,144.9 36.5,144.9 34.1,144.9 30.8,143.5 27.9,141.6 25,140.6 21.3,139.2 18.9,136.8 15.5,132.1 13.1,129.7 
	10.8,129.2 0.8,127.3 0.8,318.4 57.9,318.9 57.9,382.3 180.7,382.3 180.7,379.9 180,378.6 180.7,373.1 181.4,369.2 181.7,364.3 
	182.3,362.7 183,360.4 185.6,360.4 185.9,356.8 185.9,353.9 185.9,352.3 183.6,351.9 183.3,349.3 183.6,346.1 185.3,343.5 
	183.3,341.5 185.3,339.2 187.2,339.2 187.5,330.4 190.1,329.1 191.1,324.6 192.1,322.3 193.1,320.7 193.1,318.7 190.1,317.1 
	188.5,315.8 187.9,313.8 187.5,311.6 190.5,308.6 191.4,306.7 193.1,304.4 196,302.8 198.3,300.5 200.2,299.2 203.5,297.6 
	205.4,297.2 202.2,295.6 197.3,293.3 193.7,295 190.5,296.3 186.6,297.6 184.6,296.3 181.7,293.6 178.1,292.7 176.5,287.1 
	179.1,285.8 180.4,283.6 183.6,281.6 185.6,279.3 187.2,276.1 186.9,273.1 187.9,270.5 188.8,266.3 188.4,265.9 "/>
<polygon class="st0" points="159.5,159.8 157.8,160.7 155.6,161.1 151.7,162 150,162 148.4,161.4 147.4,159.4 145.8,159.4 
	145.8,161.4 145.5,162.7 143.2,162.7 139.3,161.1 136,159.8 134.7,157.5 134.4,161.1 135.1,165.3 136,168.9 135.7,172.8 
	135.1,175.1 132.8,177.3 128.9,181.6 126.6,182.6 126.9,186.8 128.2,190.4 130.2,192 132.1,191.7 134.7,194.3 138.3,199.5 
	141.6,205 143.5,207 145.5,210.9 145.5,216.4 147.4,220.6 149.4,222.3 151.7,226.5 153.6,230.4 155.6,233 156.5,236.3 160.5,236.9 
	163.4,236.9 163.4,234.6 165.7,232.7 164.7,231.4 164.4,229.8 164.4,227.5 164.4,225.8 165.3,224.9 167.3,225.8 168.9,227.1 
	170.2,228.1 172.2,228.1 173.8,226.5 176.1,227.1 178.4,226.8 179.7,225.5 181,224.2 181,222.6 180.3,221 180.6,218.7 181.3,216.4 
	181.3,214.5 181.3,212.2 181.6,209.9 182.6,207.9 184.2,207 185.8,207 187.8,206 188.4,204.4 188.8,202.1 189.1,199.8 188.4,197.5 
	187.5,195.9 189.8,194.6 190.4,196.2 192.7,195.2 192.7,192.6 192.7,191.3 195,189.9 193.1,184.2 190.2,182.3 185,181.4 
	176.9,177.1 172.6,174.2 170.2,169.9 169.7,167.1 168.8,164.2 165.4,162.8 163,159 160.8,158.8 "/>
<polygon class="st0" points="316.1,353 316.1,353 314.6,353.4 313.1,354.3 311.8,355.1 310.9,355.9 309.8,357.1 309.5,358.6 
	308.9,361.2 309.8,362.2 310.3,363.3 310.4,364.9 310.8,365.8 310.8,365.8 316,363.9 317,360.1 317,355.3 "/>
<path class="st0" d="M310.3,363.3l-0.5-1.1l-0.9-1l0.6-2.6l0.3-1.5l1.1-1.2l0.9-0.8l1.4-0.8l1.5-0.9l1.4-0.4l0,0l-0.6-1.5l-3.3-7.6
	l-2.9-3.8c0,0-1.3,0.2-1.5,0.2s-1.4-1-1.4-1l-0.7-1.2l-0.5-1.3l-0.7-1.4l-3-0.4l-1.4-0.6l-0.3-1.6l-0.5-0.8l0.1-1.2l-1.9-0.5l-2-1.6
	l-2.3-0.6l-3.6,0.6l-0.3,1.3l0.3,2.9v1.6l-0.8,1.3l0.6,1.2l0.5,1.7l0.5,2.1l0.5,1.3l-0.4,1.1l-0.3,1.8l1,1.2l-0.1,0.3l0.5,0.5
	l1.1,0.7l1.2,0.8l0.2,1l-0.1,1.1l-0.1,1.1l-0.7,1.6v1.6l0.5,0.9l0.8,0.8l0.3,0.9l-0.2,1l0.4,0.8l0.6,1.8l0.8,1.7l0.4,1.3l1,1.1
	l0.7,0.6l0.5,0.5l0.8,0.6l0.4,0.5v0.2l7.5-0.4l2.9-1.4l-0.4-0.9L310.3,363.3z"/>
<polyline class="st0" points="291.6,346.5 291.7,346.2 290.7,345 291,343.2 291.4,342.1 290.8,340.9 290.4,338.8 289.9,337.1 
	289.3,335.9 288.7,336.9 287.4,335.2 285.4,335.5 283.2,337.2 280.9,337.2 278,335.2 276.7,333.9 273.1,332 270.5,330 267.9,325.1 
	267.5,321.5 269.2,319.9 263.3,318.6 260.7,318.6 260.4,315.7 260.1,314.1 259.4,312.1 256.8,311.1 255.5,311 255.2,314.7 
	252.9,314.7 250.9,314.7 248,315.4 244.8,316.4 241.8,316.4 237.9,316.4 233.4,317.6 228.5,318.6 225.2,315.7 222.6,313.1 
	224.6,311.8 224.6,309.8 223.6,308.5 219.7,306.9 218.7,304.3 216.1,303.3 211.6,303.3 208.6,301 207,298.1 205.7,296.5 
	203.8,296.8 200.5,298.4 198.5,299.8 196.3,302 193.3,303.6 191.7,305.9 190.7,307.9 187.8,310.8 188.1,313.1 188.8,315 
	190.4,316.4 193.3,318 193.3,319.9 192.4,321.5 191.4,323.8 190.4,328.4 187.8,329.7 187.5,338.5 185.5,338.5 183.6,340.8 
	185.5,342.7 183.9,345.3 183.6,348.6 183.9,351.2 186.2,351.5 186.2,353.1 186.2,356 185.8,359.6 183.3,359.6 182.6,361.9 
	181.9,363.5 181.6,368.4 181,372.3 180.3,377.9 181,379.2 181,381.5 223.1,381.5 226.4,380.1 230.7,376.3 234.1,373 238.3,374.9 
	244.1,373 251.7,371 257.4,372.5 265,376.3 271.7,379.1 271.7,382 275,384.9 279.3,381 286,378.2 287,373 289.4,370.6 292.7,366.8 
	297.9,367.7 300.5,367.6 300.4,367.4 300.1,367 299.3,366.3 298.8,365.8 298.1,365.2 297.1,364.1 296.8,362.8 295.9,361.1 
	295.3,359.3 295.3,359.3 294.9,359 294.1,359.1 293.1,359.3 292.4,359.4 289.8,357.5 289.4,355.9 288.4,354.5 287.2,354.4 
	286.2,354.6 285.3,355.4 284.3,356.3 283.5,355.7 282.9,354.7 283.1,353.4 283.4,352.4 283.7,350.7 283.7,349.2 284.1,348 
	285.1,347.2 286.1,346.5 287.6,346.3 288.1,347 289.8,347.7 291.1,348.1 291.3,347.3 291.6,346.5 "/>
<path class="st0" d="M237.9,241.4L235,239l-1.4-4.3l-1-1.9l-1-4.8l-2.4-3.3l0.5-2.9l-1.9-3.8l-2.9-1.4l-6.2-5.2l-0.5-4.3l1.4-2.9
	l-0.5-4.3h-3.8l-5.7-4.8l-5.2-2.4l-7.6-1l-1.9-1.9l-2.3,1.4v3.9l-2.3,1l-0.6-1.6l-2.3,1.3l1,1.6l0.6,2.3l-0.3,2.3l-0.3,2.3l-0.6,1.6
	l-2,1h-1.6l-1.6,1l-1,2l-0.3,2.3v4.2l-0.6,2.3l-0.3,2.3l0.6,1.6v1.6l-1.3,1.3l-1.3,1.3l-2.3,0.3l-2.3-0.6l-1.5,1.6h-2l-1.3-1
	l-1.6-1.3l-2-1l-1,1v3.9l0.3,1.6l1,1.3l-2.3,2v2.3l0.6,4.2l-0.6,2.3l3.3,2.3l3.3,1.3l1.6,2l0.6,3l3,2.9l3.6,2l1,2.3l1,2.6l3.6,0.3
	l2.9,1.6l0.6,0.6l0.8,0.8l0.3-1.5l-0.2-1.3l0.3-1.6l0.3-0.5l1.1-0.8l1.6-0.9l1.6-1.5l0.9-1.6l0.6-1.2l0.9-0.4h1.6l2.5-2l2.5-1.9
	l1.4-0.6h2l0.9,0.6c0,0,0.1,1.8,0.6,1.6c0.5-0.2,1-0.5,1.4-0.9h1.9l0.8,1l-1.3,0.7l0.4,1.5h1.2l2.9,0.6l1.3,0.3v1.6l-0.6,2.6v2.3
	l-0.1,1.3l-0.2,1.6l0.9,2.5l0.2,0.6l0.9-0.1l1-0.9l1.2-1l1.9-2.1l1-0.1l0.9-1.2l0.4-0.9l0.6-0.9l0.3-0.5l0.4-0.6l0.1-0.1l0.6-0.9
	l0.9-0.6h1.3l2.6-1.3l2-3.3l1.6-1.6l-0.6-1.8l0.2-0.3l0.7-1.2l1.5-0.1h1.3l2-1.2l1.6-1.9l1-1L237.9,241.4z"/>
<path class="st0" d="M287,287.2l-1.9-6.2l-6.7-0.5l-1.9-2.4l-2.3-2.9l-3.8-1l-5.3-5.3l-3.3-4.3l-1.4-2.9l2.4-9.5v-5.7l-2.4,1
	l-2.4-0.5l-5.2-0.5l-2.9-4.3l-5.2-1l-1.4,5.7l-1.4-3.3l-1,1l-1.6,1.9l-2,1.2h-1.4l-1.5,0.1l-0.7,1.2l0.5,0.8v1.3l-0.3,0.5l-1.3,1.1
	l-2,3.3l-2.6,1.3h-1.3L225,259l-0.5,0.7l-0.9,1.4l-0.4,0.9l-0.9,1.2l-1,0.1l-1.9,2.1l-1.2,1l-0.6,0.8l-0.4,0.1l-0.9,0.1l-0.2-0.6
	l-0.9-2.5l0.2-1.6l0.1-1.3V259l0.6-2.6v-1.6l-1.3-0.3l-2.9-0.6h-1.2l-0.4-1.5l1.3-0.7l-0.8-1H209c-0.5,0.3-0.9,0.6-1.4,0.9
	c-0.4,0.1-0.6-1.6-0.6-1.6l-0.9-0.6h-2l-1.4,0.6l-2.5,1.9l-2.5,2h-1.6l-0.9,0.4l-0.6,1.2l-0.9,1.6l-1.7,1.5l-1.6,0.9l-1.1,0.8
	l-0.3,0.5l-0.3,1.6l0.2,1.3l-0.3,1.5l0.5,0.5l-1,4.2l-0.9,2.6l0.3,2.9l-1.6,3.3l-2,2.3l-3.3,2l-1.3,2.3l-2.5,1.3l1.6,5.5l3.6,1
	l2.9,2.6l2,1.3l3.9-1.3l3.3-1.3l3.6-1.6l4.9,2.3l3.3,1.6l1.3,1.6l1.6,2.9l2.9,2.3h4.5l2.6,1l1,2.6l3.9,1.6l1,1.3v2l-2,1.3l2.6,2.6
	l3.3,2.9l4.9-1l4.6-1.3h6.8l3.3-1l2.9-0.6h4.2l0.3-3.7v-0.2l-0.3-6.6l2-3.6v-4.6l2.3-3.6l2.6-1l2.9-1.6l0.3-2.6l3.3-2l1.6,1.3l1,2
	l2.6,1.3l1.6-1.6h1.3l1.3,2.3l2,1.6l2.3,0.3h3.9l1-3.3L287,287.2z"/>
<path class="st0" d="M305,322.5l-1.3,2.3l-0.3,2.6l-1.3,2l-2,1.6l-0.4-0.1l-0.1,1.2l0.5,0.8l0.3,1.6l1.4,0.6l3,0.4l0.7,1.4l0.5,1.3
	l0.7,1.2c0,0,1.1,1,1.4,1s1.5-0.2,1.5-0.2l1.9-7.6l0.5-3.8l-0.5-4.8l-2.2-2.5l-1.8,1.4L305,322.5z"/>
<polygon class="st0" points="307.4,316 307.9,311.5 307.4,307.7 302.7,307.7 300.3,304.3 299.4,300 296.5,294.3 293.4,293.4 
	289,286.4 287,287.2 287.1,289.3 286.1,292.6 282.2,292.6 279.9,292.3 278,290.6 276.7,288.4 275.4,288.4 273.7,290 271.1,288.7 
	270.1,286.7 268.5,285.4 265.3,287.4 264.9,290 262,291.6 259.4,292.6 257.1,296.2 257.1,300.7 255.2,304.3 255.5,310.8 255.5,311 
	256.8,311.1 259.4,312.1 260.1,314.1 260.4,315.7 260.7,318.6 263.3,318.6 269.2,319.9 267.5,321.5 267.9,325.1 270.5,330 
	273.1,332 276.7,333.9 278,335.2 280.9,337.2 283.2,337.2 285.4,335.5 287.4,335.2 288.7,336.9 289.3,335.9 290,334.6 290,332.9 
	289.7,330 290,328.7 293.6,328.1 295.9,328.7 297.8,330.3 299.7,330.9 300.1,331 302.1,329.4 303.4,327.4 303.7,324.8 305,322.5 
	307.3,322.9 309.1,321.4 310.2,320.6 "/>
<polygon class="st0" points="25.8,124.7 27.7,123.2 29.6,122.7 32.5,119.4 30.1,120.4 26.8,120.4 22,121.8 20.7,124.5 19.6,126.6 
	22.5,124.7 "/>
<polygon class="st0" points="23.9,131.8 29.1,135.6 28.7,133.2 26.8,131.8 "/>
<path class="st0" d="M314.4,342.9c0,0,0.5-5.2,1.1-6.3c0.5-1.3,0.9-2.6,1.3-4l0.9,4.5l-1.8,9.4L314.4,342.9z"/>
</svg>
