<?xml version="1.0" encoding="UTF-8" standalone="no"?>
<!-- Created with Inkscape (http://www.inkscape.org/) -->

<svg
   xmlns:dc="http://purl.org/dc/elements/1.1/"
   xmlns:cc="http://creativecommons.org/ns#"
   xmlns:rdf="http://www.w3.org/1999/02/22-rdf-syntax-ns#"
   xmlns:svg="http://www.w3.org/2000/svg"
   xmlns="http://www.w3.org/2000/svg"
   xmlns:sodipodi="http://sodipodi.sourceforge.net/DTD/sodipodi-0.dtd"
   xmlns:inkscape="http://www.inkscape.org/namespaces/inkscape"
   width="14.603039mm"
   height="16.862137mm"
   viewBox="0 0 14.603039 16.862137"
   version="1.1"
   id="svg8"
   inkscape:version="0.92.2 (5c3e80d, 2017-08-06)"
   sodipodi:docname="energy.svg"
   inkscape:export-filename="C:\wamp64\www\dilgp3\images\buttons\icons\energy.png"
   inkscape:export-xdpi="95.599998"
   inkscape:export-ydpi="95.599998">
  <defs
     id="defs2">
    <style
       id="style8167">.cls-1{fill:#f1563f;}.cls-2{fill:#fff;}.cls-3{font-size:13px;fill:#e1bebb;font-family:Helvetica, Helvetica;}.cls-4{letter-spacing:0em;}.cls-5{letter-spacing:0.02em;}.cls-6{letter-spacing:-0.01em;}.cls-7{letter-spacing:0em;}.cls-8{letter-spacing:-0.01em;}.cls-9{letter-spacing:-0.01em;}.cls-10{letter-spacing:0em;}.cls-11{letter-spacing:0em;}</style>
    <style
       id="style8834">.cls-1{isolation:isolate;}.cls-2{opacity:0.7;mix-blend-mode:multiply;}.cls-3,.cls-5{fill:#fff;}.cls-4{fill:#009887;}.cls-5{font-size:13px;font-family:Helvetica-Bold, Helvetica Bold;font-weight:700;}.cls-6{letter-spacing:0em;}.cls-7{letter-spacing:0.02em;}.cls-8{letter-spacing:-0.01em;}.cls-9{letter-spacing:0em;}.cls-10{letter-spacing:-0.01em;}.cls-11{letter-spacing:-0.01em;}.cls-12{letter-spacing:0em;}.cls-13{letter-spacing:0em;}</style>
    <style
       id="style10273">.cls-1{fill:#f1563f;}.cls-2{fill:#fff;}.cls-3{font-size:13px;fill:#e1bebb;font-family:Helvetica, Helvetica;}.cls-4{letter-spacing:0em;}.cls-5{letter-spacing:-0.01em;}.cls-6{letter-spacing:-0.01em;}.cls-7{letter-spacing:0em;}.cls-8{letter-spacing:0em;}.cls-9{letter-spacing:0em;}</style>
    <style
       id="style10906">.cls-1{isolation:isolate;}.cls-2{opacity:0.7;mix-blend-mode:multiply;}.cls-3,.cls-5{fill:#fff;}.cls-4{fill:#009887;}.cls-5{font-size:13px;font-family:Helvetica-Bold, Helvetica Bold;font-weight:700;}.cls-6{letter-spacing:0em;}.cls-7{letter-spacing:-0.01em;}.cls-8{letter-spacing:-0.01em;}.cls-9{letter-spacing:0em;}.cls-10{letter-spacing:0em;}.cls-11{letter-spacing:0em;}</style>
    <style
       id="style11956">.cls-1{fill:#f1563f;}.cls-2{fill:#fff;}.cls-3{font-size:13px;fill:#e1bebb;font-family:Helvetica, Helvetica;}.cls-4{letter-spacing:-0.01em;}</style>
    <style
       id="style12531">.cls-1{isolation:isolate;}.cls-2{opacity:0.7;mix-blend-mode:multiply;}.cls-3,.cls-5{fill:#fff;}.cls-4{fill:#009887;}.cls-5{font-size:13px;font-family:Helvetica-Bold, Helvetica Bold;font-weight:700;}.cls-6{letter-spacing:-0.01em;}</style>
    <style
       id="style11956-4">.cls-1{fill:#f1563f;}.cls-2{fill:#fff;}.cls-3{font-size:13px;fill:#e1bebb;font-family:Helvetica, Helvetica;}.cls-4{letter-spacing:-0.01em;}</style>
    <style
       id="style12531-7">.cls-1{isolation:isolate;}.cls-2{opacity:0.7;mix-blend-mode:multiply;}.cls-3,.cls-5{fill:#fff;}.cls-4{fill:#009887;}.cls-5{font-size:13px;font-family:Helvetica-Bold, Helvetica Bold;font-weight:700;}.cls-6{letter-spacing:-0.01em;}</style>
    <style
       id="style10273-9">.cls-1{fill:#f1563f;}.cls-2{fill:#fff;}.cls-3{font-size:13px;fill:#e1bebb;font-family:Helvetica, Helvetica;}.cls-4{letter-spacing:0em;}.cls-5{letter-spacing:-0.01em;}.cls-6{letter-spacing:-0.01em;}.cls-7{letter-spacing:0em;}.cls-8{letter-spacing:0em;}.cls-9{letter-spacing:0em;}</style>
    <style
       id="style10906-3">.cls-1{isolation:isolate;}.cls-2{opacity:0.7;mix-blend-mode:multiply;}.cls-3,.cls-5{fill:#fff;}.cls-4{fill:#009887;}.cls-5{font-size:13px;font-family:Helvetica-Bold, Helvetica Bold;font-weight:700;}.cls-6{letter-spacing:0em;}.cls-7{letter-spacing:-0.01em;}.cls-8{letter-spacing:-0.01em;}.cls-9{letter-spacing:0em;}.cls-10{letter-spacing:0em;}.cls-11{letter-spacing:0em;}</style>
    <style
       id="style11956-0">.cls-1{fill:#f1563f;}.cls-2{fill:#fff;}.cls-3{font-size:13px;fill:#e1bebb;font-family:Helvetica, Helvetica;}.cls-4{letter-spacing:-0.01em;}</style>
    <style
       id="style12531-5">.cls-1{isolation:isolate;}.cls-2{opacity:0.7;mix-blend-mode:multiply;}.cls-3,.cls-5{fill:#fff;}.cls-4{fill:#009887;}.cls-5{font-size:13px;font-family:Helvetica-Bold, Helvetica Bold;font-weight:700;}.cls-6{letter-spacing:-0.01em;}</style>
    <style
       id="style7552">.cls-1{fill:#f1563f;}.cls-2{fill:#fff;}.cls-3{font-size:13px;fill:#e1bebb;font-family:Helvetica, Helvetica;}.cls-4{letter-spacing:0em;}.cls-5{letter-spacing:0em;}.cls-6{letter-spacing:0em;}</style>
    <style
       id="style8161">.cls-1{isolation:isolate;}.cls-2{opacity:0.7;mix-blend-mode:multiply;}.cls-3,.cls-5{fill:#fff;}.cls-4{fill:#009887;}.cls-5{font-size:13px;font-family:Helvetica-Bold, Helvetica Bold;font-weight:700;}.cls-6{letter-spacing:0em;}.cls-7{letter-spacing:0em;}.cls-8{letter-spacing:0em;}</style>
    <style
       id="style9392">.cls-1{fill:#f1563f;}.cls-2{fill:#fff;}.cls-3{font-size:13px;fill:#e1bebb;font-family:Helvetica, Helvetica;}.cls-4{letter-spacing:-0.01em;}</style>
    <style
       id="style10012">.cls-1{isolation:isolate;}.cls-2{opacity:0.7;mix-blend-mode:multiply;}.cls-3,.cls-5{fill:#fff;}.cls-4{fill:#009887;}.cls-5{font-size:13px;font-family:Helvetica-Bold, Helvetica Bold;font-weight:700;}.cls-6{letter-spacing:-0.01em;}</style>
    <style
       id="style10706">.cls-1{fill:#f1563f;}.cls-2{fill:#fff;}.cls-3{font-size:13px;fill:#e1bebb;font-family:Helvetica, Helvetica;}</style>
    <style
       id="style11302">.cls-1{isolation:isolate;}.cls-2{opacity:0.7;mix-blend-mode:multiply;}.cls-3,.cls-5{fill:#fff;}.cls-4{fill:#009887;}.cls-5{font-size:13px;font-family:Helvetica-Bold, Helvetica Bold;font-weight:700;}</style>
    <style
       id="style13202">.cls-1{fill:#f1563f;}.cls-2{fill:#fff;}.cls-3{font-size:13px;fill:#e1bebb;font-family:Helvetica, Helvetica;}.cls-4{letter-spacing:-0.01em;}.cls-5{letter-spacing:0em;}.cls-6{letter-spacing:-0.01em;}.cls-7{letter-spacing:0.01em;}</style>
    <style
       id="style13792">.cls-1{isolation:isolate;}.cls-2{opacity:0.7;mix-blend-mode:multiply;}.cls-3,.cls-5{fill:#fff;}.cls-4{fill:#009887;}.cls-5{font-size:13px;font-family:Helvetica-Bold, Helvetica Bold;font-weight:700;}.cls-6{letter-spacing:-0.01em;}.cls-7{letter-spacing:0em;}.cls-8{letter-spacing:-0.01em;}.cls-9{letter-spacing:0.01em;}</style>
    <style
       id="style13202-6">.cls-1{fill:#f1563f;}.cls-2{fill:#fff;}.cls-3{font-size:13px;fill:#e1bebb;font-family:Helvetica, Helvetica;}.cls-4{letter-spacing:-0.01em;}.cls-5{letter-spacing:0em;}.cls-6{letter-spacing:-0.01em;}.cls-7{letter-spacing:0.01em;}</style>
    <style
       id="style13792-2">.cls-1{isolation:isolate;}.cls-2{opacity:0.7;mix-blend-mode:multiply;}.cls-3,.cls-5{fill:#fff;}.cls-4{fill:#009887;}.cls-5{font-size:13px;font-family:Helvetica-Bold, Helvetica Bold;font-weight:700;}.cls-6{letter-spacing:-0.01em;}.cls-7{letter-spacing:0em;}.cls-8{letter-spacing:-0.01em;}.cls-9{letter-spacing:0.01em;}</style>
    <style
       id="style4485">.cls-1{fill:#f1563f;}.cls-2{fill:#fff;}.cls-3{font-size:13px;fill:#e1bebb;font-family:Helvetica, Helvetica;}.cls-4{letter-spacing:0.01em;}.cls-5{letter-spacing:0em;}</style>
    <style
       id="style4517">.cls-1{isolation:isolate;}.cls-2{opacity:0.7;mix-blend-mode:multiply;}.cls-3,.cls-5{fill:#fff;}.cls-4{fill:#009887;}.cls-5{font-size:13px;font-family:Helvetica-Bold, Helvetica Bold;font-weight:700;}.cls-6{letter-spacing:0.01em;}.cls-7{letter-spacing:0em;}</style>
    <style
       id="style5297">.cls-1{fill:#f1563f;}.cls-2{fill:#fff;}.cls-3{font-size:13px;fill:#e1bebb;font-family:Helvetica, Helvetica;}.cls-4{letter-spacing:-0.04em;}.cls-5{letter-spacing:0em;}.cls-6{letter-spacing:0.02em;}.cls-7{letter-spacing:0em;}</style>
    <style
       id="style5963">.cls-1{isolation:isolate;}.cls-2{opacity:0.7;mix-blend-mode:multiply;}.cls-3,.cls-5{fill:#fff;}.cls-4{fill:#009887;}.cls-5{font-size:13px;font-family:Helvetica-Bold, Helvetica Bold;font-weight:700;}.cls-6{letter-spacing:-0.04em;}.cls-7{letter-spacing:0em;}.cls-8{letter-spacing:0.02em;}.cls-9{letter-spacing:0em;}</style>
    <style
       id="style6675">.cls-1{fill:#f1563f;}.cls-2{fill:#fff;}.cls-3{font-size:13px;fill:#e1bebb;font-family:Helvetica, Helvetica;letter-spacing:-0.03em;}.cls-4{letter-spacing:0em;}.cls-5{letter-spacing:-0.01em;}.cls-6{letter-spacing:0em;}</style>
    <style
       id="style7265">.cls-1{isolation:isolate;}.cls-2{opacity:0.7;mix-blend-mode:multiply;}.cls-3,.cls-5{fill:#fff;}.cls-4{fill:#009887;}.cls-5{font-size:13px;font-family:Helvetica-Bold, Helvetica Bold;font-weight:700;letter-spacing:-0.03em;}.cls-6{letter-spacing:0em;}.cls-7{letter-spacing:-0.01em;}.cls-8{letter-spacing:0em;}</style>
  </defs>
  <sodipodi:namedview
     id="base"
     pagecolor="#ffffff"
     bordercolor="#666666"
     borderopacity="1.0"
     inkscape:pageopacity="0.0"
     inkscape:pageshadow="2"
     inkscape:zoom="5.6568545"
     inkscape:cx="36.895472"
     inkscape:cy="42.227705"
     inkscape:document-units="mm"
     inkscape:current-layer="layer8"
     showgrid="false"
     showguides="true"
     inkscape:guide-bbox="true"
     inkscape:window-width="1920"
     inkscape:window-height="1001"
     inkscape:window-x="-9"
     inkscape:window-y="-9"
     inkscape:window-maximized="1"
     fit-margin-top="0"
     fit-margin-left="0"
     fit-margin-right="0"
     fit-margin-bottom="0"
     inkscape:snap-global="false">
    <sodipodi:guide
       position="7.4269317,17.021278"
       orientation="1,0"
       id="guide4580"
       inkscape:locked="false" />
    <sodipodi:guide
       position="0.14262179,8.6238579"
       orientation="0,1"
       id="guide4582"
       inkscape:locked="false" />
  </sodipodi:namedview>
  <metadata
     id="metadata5">
    <rdf:RDF>
      <cc:Work
         rdf:about="">
        <dc:format>image/svg+xml</dc:format>
        <dc:type
           rdf:resource="http://purl.org/dc/dcmitype/StillImage" />
        <dc:title></dc:title>
      </cc:Work>
    </rdf:RDF>
  </metadata>
  <g
     inkscape:label="Layer 1"
     inkscape:groupmode="layer"
     id="layer1"
     transform="translate(-101.33542,-147.7295)">
    <g
       id="g4672"
       transform="matrix(0.26458333,0,0,0.26458333,56.020229,168.73794)">
      <g
         transform="translate(-6.56,-2)"
         inkscape:label="Layer 1"
         id="layer11" />
      <g
         style="display:inline"
         transform="translate(-14.81,-16)"
         inkscape:label="Layer 2"
         id="layer12" />
      <g
         transform="translate(-49.616837,-57.604266)"
         style="isolation:isolate"
         class="cls-1"
         id="g12561" />
    </g>
    <path
       sodipodi:type="star"
       style="opacity:0.98999999;vector-effect:none;fill:#e1f0ef;fill-opacity:1;fill-rule:nonzero;stroke:none;stroke-width:4.70968056;stroke-linecap:round;stroke-linejoin:round;stroke-miterlimit:4;stroke-dasharray:none;stroke-dashoffset:0;stroke-opacity:1;paint-order:markers stroke fill"
       id="path4515"
       sodipodi:sides="6"
       sodipodi:cx="108.63694"
       sodipodi:cy="156.16057"
       sodipodi:r1="8.4310684"
       sodipodi:r2="7.3015194"
       sodipodi:arg1="0.52359878"
       sodipodi:arg2="1.0471976"
       inkscape:flatsided="true"
       inkscape:rounded="0"
       inkscape:randomized="0"
       d="m 115.93846,160.3761 -7.30152,4.21554 -7.30152,-4.21554 0,-8.43107 7.30152,-4.21553 7.30152,4.21553 z"
       inkscape:transform-center-x="1.2497473e-006"
       inkscape:transform-center-y="-1.8508538e-006" />
    <g
       id="layer9-6"
       inkscape:label="Layer 1"
       style="display:inline"
       transform="matrix(0.26458333,0,0,0.26458333,85.244444,147.46592)" />
  </g>
  <g
     inkscape:groupmode="layer"
     id="layer8"
     inkscape:label="energy"
     style="display:inline"
     transform="translate(0.1636989,-0.18708964)">
    <g
       id="g5554"
       transform="matrix(0.49053604,0,0,0.49053604,-14.754097,-4.9851298)">
      <g
         transform="translate(-9.09,-2)"
         style="display:inline"
         inkscape:label="Layer 1"
         id="layer7-1">
        <g
           transform="translate(-31.448894,-21.478741)"
           style="isolation:isolate"
           class="cls-1"
           id="g10050">
          <g
             id="Selected_Assets_Classes-1"
             data-name="Selected Assets Classes" />
        </g>
      </g>
      <g
         style="display:inline"
         transform="translate(-9.09,-2)"
         inkscape:label="Layer 2"
         id="layer8-9">
        <g
           transform="translate(15.451856,-14.323801)"
           id="g10100"
           style="display:inline;isolation:isolate">
          <g
             id="g10085"
             transform="translate(3.0270161,18.311809)"
             style="fill:#009887;fill-opacity:1">
            <path
               style="fill:#009887;fill-opacity:1"
               inkscape:connector-curvature="0"
               class="cls-3"
               d="m 37.57,29 h -4.21 a 0.55,0.55 0 0 0 -0.55,0.73 v 0 a 0.51,0.51 0 0 0 0.28,0.28 0.86,0.86 0 0 0 0.31,0.05 h 4.15 c 0.39,0 0.62,-0.21 0.62,-0.54 C 38.17,29.19 38,29 37.57,29"
               id="path10025" />
            <path
               style="fill:#009887;fill-opacity:1"
               inkscape:connector-curvature="0"
               class="cls-3"
               d="m 37.47,30.82 h -4 a 0.56,0.56 0 0 0 -0.64,0.55 0.58,0.58 0 0 0 0,0.14 0.51,0.51 0 0 0 0.36,0.36 0.85,0.85 0 0 0 0.24,0 h 4 c 0.39,0 0.64,-0.22 0.64,-0.55 a 0.56,0.56 0 0 0 -0.63,-0.54"
               id="path10027" />
            <path
               style="fill:#009887;fill-opacity:1"
               inkscape:connector-curvature="0"
               class="cls-3"
               d="m 33.55,32.65 h -0.08 a 2.72,2.72 0 0 0 1,1 2.16,2.16 0 0 0 1,0.24 2.59,2.59 0 0 0 2,-1.19 h -4 z"
               id="path10029" />
            <path
               style="fill:#009887;fill-opacity:1"
               inkscape:connector-curvature="0"
               class="cls-3"
               d="M 38.66,25.36 36.17,26 v 1.85 a 0.77,0.77 0 0 0 0.76,0.78 v 0 A 0.77,0.77 0 0 0 37.7,27.86 V 27.2 L 39,26.85 a 0.7700974,0.7700974 0 1 0 -0.39,-1.49"
               id="path10031" />
            <path
               style="fill:#009887;fill-opacity:1"
               inkscape:connector-curvature="0"
               class="cls-3"
               d="m 38.66,23 -6.14,1.6 -0.59,0.16 a 0.77,0.77 0 0 0 -0.57,0.84 0.78,0.78 0 0 0 0.07,0.43 0.77,0.77 0 0 0 0.37,0.37 v 0 l 1.57,0.72 v 0.72 a 0.61,0.61 0 0 0 0,0.18 0.76,0.76 0 0 0 0.54,0.55 h 0.2 v 0 a 0.77,0.77 0 0 0 0.75,-0.79 V 26.1 L 34.11,25.75 39,24.54 A 0.78854296,0.78854296 0 1 0 38.66,23"
               id="path10033" />
            <path
               style="fill:#009887;fill-opacity:1"
               inkscape:connector-curvature="0"
               class="cls-3"
               d="m 38.66,20.73 -4.17,1.08 -2,0.52 -0.57,0.15 a 0.77,0.77 0 0 0 -0.55,0.94 0.55,0.55 0 0 0 0,0.11 0.75,0.75 0 0 0 0.4,0.4 0.77,0.77 0 0 0 0.31,0.07 h 0.19 l 1.45,-0.38 2,-0.52 3.28,-0.88 a 0.7700974,0.7700974 0 1 0 -0.39,-1.49"
               id="path10035" />
            <path
               style="fill:#009887;fill-opacity:1"
               inkscape:connector-curvature="0"
               class="cls-3"
               d="m 31.43,21.27 a 0.77,0.77 0 0 0 0.68,0.42 0.68,0.68 0 0 0 0.19,0 L 33.91,21.27 39,19.91 A 0.77,0.77 0 0 0 39.6,19 v -0.12 a 0.78,0.78 0 0 0 -0.38,-0.38 0.77,0.77 0 0 0 -0.51,0 l -0.38,0.1 -5.67,1.4 -0.74,0.19 a 0.77,0.77 0 0 0 -0.55,0.94 0.84,0.84 0 0 0 0.07,0.16"
               id="path10037" />
            <path
               style="fill:#009887;fill-opacity:1"
               inkscape:connector-curvature="0"
               class="cls-3"
               d="m 31.37,18.79 a 0.77,0.77 0 0 0 0.68,0.57 h 0.07 0.19 l 4.24,-1.1 a 0.77,0.77 0 0 0 0.56,-0.9 v 0 a 0.77,0.77 0 0 0 -0.59,-0.56 0.75,0.75 0 0 0 -0.35,0 l -4.24,1.1 a 0.77,0.77 0 0 0 -0.57,0.81 0.91,0.91 0 0 0 0,0.13"
               id="path10039" />
          </g>
        </g>
      </g>
    </g>
  </g>
</svg>
