<?xml version="1.0" encoding="UTF-8" standalone="no"?>
<svg
   xmlns:dc="http://purl.org/dc/elements/1.1/"
   xmlns:cc="http://creativecommons.org/ns#"
   xmlns:rdf="http://www.w3.org/1999/02/22-rdf-syntax-ns#"
   xmlns:svg="http://www.w3.org/2000/svg"
   xmlns="http://www.w3.org/2000/svg"
   xmlns:sodipodi="http://sodipodi.sourceforge.net/DTD/sodipodi-0.dtd"
   xmlns:inkscape="http://www.inkscape.org/namespaces/inkscape"
   viewBox="0 0 94.770004 122.78"
   version="1.1"
   id="svg9289"
   sodipodi:docname="LocationPointer.svg"
   width="94.770004"
   height="122.78"
   inkscape:version="0.92.2 (5c3e80d, 2017-08-06)">
  <metadata
     id="metadata9293">
    <rdf:RDF>
      <cc:Work
         rdf:about="">
        <dc:format>image/svg+xml</dc:format>
        <dc:type
           rdf:resource="http://purl.org/dc/dcmitype/StillImage" />
        <dc:title>Mackay</dc:title>
      </cc:Work>
    </rdf:RDF>
  </metadata>
  <sodipodi:namedview
     pagecolor="#ffffff"
     bordercolor="#666666"
     borderopacity="1"
     objecttolerance="10"
     gridtolerance="10"
     guidetolerance="10"
     inkscape:pageopacity="0"
     inkscape:pageshadow="2"
     inkscape:window-width="1920"
     inkscape:window-height="1001"
     id="namedview9291"
     showgrid="false"
     inkscape:zoom="0.921875"
     inkscape:cx="88.468188"
     inkscape:cy="-72.152978"
     inkscape:window-x="-9"
     inkscape:window-y="-9"
     inkscape:window-maximized="1"
     inkscape:current-layer="Ui"
     fit-margin-top="0"
     fit-margin-left="0"
     fit-margin-right="0"
     fit-margin-bottom="0" />
  <defs
     id="defs9182">
    <style
       id="style9177">.cls-1{fill:none;}.cls-2{clip-path:url(#clip-path);}.cls-3,.cls-4{fill:#009786;stroke:#fff;stroke-miterlimit:10;stroke-width:1.5px;}.cls-3{opacity:0.5;}.cls-5{fill:#fff;}.cls-5,.cls-6{fill-rule:evenodd;}.cls-6{fill:#a8ad2c;}</style>
    <clipPath
       id="clip-path">
      <rect
         class="cls-1"
         x="-1102.5601"
         y="-410.88"
         width="1080"
         height="1589.98"
         id="rect9179"
         style="fill:none" />
    </clipPath>
  </defs>
  <title
     id="title9184">Mackay</title>
  <g
     id="Ui"
     transform="translate(-382.59322,-48.459322)">
    <g
       class="cls-2"
       clip-path="url(#clip-path)"
       id="g9240">
      <polygon
         class="cls-3"
         points="309.62,320.91 310.21,320.06 309.19,320.97 "
         id="polygon9186"
         style="opacity:0.5;fill:#009786;stroke:#ffffff;stroke-width:1.5px;stroke-miterlimit:10" />
      <polygon
         class="cls-3"
         points="316.52,313.43 316.2,313.88 315.62,314.79 "
         id="polygon9188"
         style="opacity:0.5;fill:#009786;stroke:#ffffff;stroke-width:1.5px;stroke-miterlimit:10" />
      <polygon
         class="cls-3"
         points="386.87,410.4 386.06,409.59 385.62,408.69 385.62,407.08 386.33,405.45 386.42,404.37 386.51,403.3 386.33,402.31 385.17,401.49 384.08,400.77 383.59,400.28 383.27,401.05 383.09,401.85 381.83,401.49 380.12,400.77 379.58,400.05 378.15,400.33 377.16,400.96 376.17,401.77 375.71,402.94 375.71,404.46 375.44,406.17 375.18,407.17 374.91,408.51 375.54,409.5 376.26,410.04 377.33,409.14 378.24,408.33 379.23,408.15 380.4,408.24 381.38,409.69 381.83,411.31 384.44,413.19 385.17,413.11 386.16,412.84 386.87,412.75 387.32,413.11 386.96,412.29 387.14,411.31 "
         id="polygon9190"
         style="opacity:0.5;fill:#009786;stroke:#ffffff;stroke-width:1.5px;stroke-miterlimit:10" />
      <polygon
         class="cls-3"
         points="317.02,312.74 316.92,312.83 316.52,313.43 "
         id="polygon9192"
         style="opacity:0.5;fill:#009786;stroke:#ffffff;stroke-width:1.5px;stroke-miterlimit:10" />
      <polygon
         class="cls-3"
         points="326.04,305.02 326.04,303.72 325.57,302.95 325.41,303.22 "
         id="polygon9194"
         style="opacity:0.5;fill:#009786;stroke:#ffffff;stroke-width:1.5px;stroke-miterlimit:10" />
      <polygon
         class="cls-3"
         points="318.55,311.2 317.66,311.84 317.02,312.74 "
         id="polygon9196"
         style="opacity:0.5;fill:#009786;stroke:#ffffff;stroke-width:1.5px;stroke-miterlimit:10" />
      <polygon
         class="cls-3"
         points="325.7,305.56 326.04,305.02 324.41,306.65 "
         id="polygon9198"
         style="opacity:0.5;fill:#009786;stroke:#ffffff;stroke-width:1.5px;stroke-miterlimit:10" />
      <polygon
         class="cls-3"
         points="235.54,167.01 233.92,168.96 236.85,171.89 238.47,174.49 242.38,175.47 243.35,181.98 242.05,184.58 240.1,185.88 240.75,190.12 241.73,192.07 237.5,194.35 235.87,195.98 231.96,199.23 231.32,204.44 229.69,208.02 228.06,208.99 226.75,211.27 228.06,213.55 231.32,214.85 235.22,216.48 237.5,216.48 237.82,215.18 237.82,213.23 239.45,213.23 240.43,215.18 242.05,215.83 243.68,215.83 247.59,214.85 249.87,214.52 251.5,213.55 252.8,212.57 255.07,212.75 254.59,208.93 255.54,205.6 256.49,202.26 256.02,196.55 252.68,191.78 252.68,187.01 251.25,184.63 250.77,182.25 247.92,180.34 243.63,176.53 242.67,173.19 243.15,171.28 242.67,166.04 240.81,162.24 238.15,161.8 236.19,162.44 235.54,165.06 "
         id="polygon9200"
         style="opacity:0.5;fill:#009786;stroke:#ffffff;stroke-width:1.5px;stroke-miterlimit:10" />
      <line
         class="cls-3"
         x1="280.64999"
         y1="318.88"
         x2="279.81"
         y2="318.04001"
         id="line9202"
         style="opacity:0.5;fill:#009786;stroke:#ffffff;stroke-width:1.5px;stroke-miterlimit:10" />
      <polyline
         class="cls-4"
         points="255.4 290.69 252.47 290.69 248.57 290.05 247.59 286.79 245.64 284.18 243.68 280.28 241.4 276.05 239.45 274.42 237.5 270.19 237.5 264.66 235.54 260.75 233.59 258.8 230.34 253.26 226.75 248.06 224.15 245.45 222.2 245.78 220.25 244.15 218.94 240.57 218.62 236.34 220.9 235.36 224.8 231.13 227.08 228.85 227.73 226.57 228.06 222.67 227.08 219.09 226.43 214.85 226.75 211.27 228.06 208.99 229.69 208.02 231.32 204.44 231.96 199.23 235.87 195.98 237.5 194.35 241.73 192.07 240.75 190.12 240.1 185.88 242.05 184.58 243.35 181.98 242.38 175.47 238.47 174.49 236.85 171.89 233.92 168.96 235.54 167.01 235.54 165.06 236.19 162.44 238.15 161.8 240.81 162.24 240.75 162.12 240.43 159.84 240.29 156.51 236.95 151.74 237.43 146.03 238.86 143.17 236.95 141.26 232.19 137.93 229.33 136.02 225.99 132.21 223.13 128.4 221.23 128.87 219.8 130.3 215.03 133.64 212.17 134.11 208.36 132.68 206.45 130.78 205.5 128.87 204.55 125.06 203.59 121.73 202.16 118.39 202.64 113.14 199.78 108.86 200.26 105.52 198.83 102.19 195.97 101.23 196.92 96.94 196.92 93.6 195.49 90.75 192.15 89.31 192.15 86.94 192.63 81.69 193.59 77.4 190.25 78.36 187.87 72.63 187.87 69.78 187.87 66.44 186.91 63.58 186.44 59.77 183.1 59.77 181.2 59.3 180.72 55 179.29 56.91 175 58.34 175.48 60.72 175.48 63.58 175 65.96 174.52 68.82 173.57 71.69 170.24 77.88 171.66 79.78 170.71 82.64 169.76 84.55 168.8 80.26 167.37 82.64 165.94 86.46 165.47 88.36 167.37 90.75 171.19 93.6 164.04 98.37 163.08 101.71 167.37 104.57 163.08 109.33 159.75 119.34 163.57 123.15 163.57 129.35 161.66 131.26 162.13 134.11 162.61 138.41 164.04 141.26 165.47 143.65 163.08 146.03 159.75 162.71 158.32 167.47 155.94 175.58 152.6 180.82 149.74 183.68 147.84 191.3 146.88 193.68 144.98 194.64 141.64 196.07 136.4 197.98 133.54 197.98 128.78 197.98 126.39 197.98 123.06 196.55 120.19 194.64 117.33 193.68 113.53 192.26 111.14 189.87 107.8 185.11 105.42 182.72 103.04 182.25 93.03 180.34 93.03 371.45 150.22 371.92 150.22 435.31 272.98 435.31 272.98 432.95 272.32 431.64 272.98 426.11 273.63 422.21 273.96 417.32 274.61 415.69 275.26 413.42 277.86 413.42 278.19 409.83 278.19 406.91 278.19 405.27 275.91 404.95 275.58 402.35 275.91 399.09 277.54 396.49 275.58 394.54 277.54 392.26 279.49 392.26 279.81 383.47 282.42 382.17 283.39 377.61 284.37 375.33 285.35 373.7 285.35 371.75 282.42 370.13 280.79 368.82 280.14 366.87 279.81 364.6 282.75 361.66 283.72 359.71 285.35 357.43 288.28 355.8 290.56 353.53 292.51 352.22 295.76 350.6 297.72 350.26 294.46 348.64 289.58 346.36 286 347.99 282.75 349.29 278.84 350.6 276.88 349.29 273.96 346.68 270.37 345.71 268.75 340.18 271.35 338.87 272.65 336.6 275.91 334.64 277.86 332.36 279.49 329.11 279.16 326.18 280.14 323.57 281.12 319.34 280.65 318.88"
         id="polyline9204"
         style="fill:#009786;stroke:#ffffff;stroke-width:1.5px;stroke-miterlimit:10" />
      <polyline
         class="cls-3"
         points="279.81 318.04 279.16 317.39 276.23 315.77 272.65 315.44 271.68 312.83 270.7 310.56 267.12 308.6 264.19 305.67 263.54 302.74 261.91 300.79 258.66 299.49 255.4 297.2 256.05 294.93 255.4 290.69"
         id="polyline9206"
         style="opacity:0.5;fill:#009786;stroke:#ffffff;stroke-width:1.5px;stroke-miterlimit:10" />
      <polygon
         class="cls-3"
         points="247.59,214.85 243.68,215.83 242.05,215.83 240.43,215.18 239.45,213.23 237.82,213.23 237.82,215.18 237.5,216.48 235.22,216.48 231.32,214.85 228.06,213.55 226.75,211.27 226.43,214.85 227.08,219.09 228.06,222.67 227.73,226.57 227.08,228.85 224.8,231.13 220.9,235.36 218.62,236.34 218.94,240.57 220.25,244.15 222.2,245.78 224.15,245.45 226.75,248.06 230.34,253.26 233.59,258.8 235.54,260.75 237.5,264.66 237.5,270.19 239.45,274.42 241.4,276.05 243.68,280.28 245.64,284.18 247.59,286.79 248.57,290.05 252.47,290.69 255.4,290.69 255.4,288.42 257.68,286.47 256.7,285.17 256.38,283.54 256.38,281.26 256.38,279.63 257.36,278.65 259.31,279.63 260.94,280.93 262.24,281.91 264.19,281.91 265.82,280.28 268.1,280.93 270.37,280.61 271.68,279.3 272.98,278 272.98,276.38 272.32,274.75 272.65,272.48 273.3,270.19 273.3,268.24 273.3,265.96 273.63,263.68 274.61,261.73 276.23,260.75 277.86,260.75 279.81,259.77 280.46,258.15 280.79,255.87 281.12,253.59 280.46,251.31 279.49,249.69 281.76,248.38 282.42,250.01 284.7,249.03 284.7,246.43 284.7,245.13 286.99,243.72 285.09,238.01 282.23,236.11 276.99,235.15 268.89,230.86 264.59,228 262.22,223.71 261.74,220.85 260.79,217.99 257.45,216.56 255.07,212.75 252.8,212.57 251.5,213.55 249.87,214.52 "
         id="polygon9208"
         style="opacity:0.5;fill:#009786;stroke:#ffffff;stroke-width:1.5px;stroke-miterlimit:10" />
      <polygon
         class="cls-3"
         points="406.66,407.17 405.14,408.06 403.79,408.88 402.89,409.69 401.81,410.85 401.54,412.38 400.91,414.99 401.81,415.98 402.26,417.06 402.44,418.68 402.8,419.58 402.8,419.58 408.04,417.68 409,413.86 409,409.1 408.13,406.79 408.11,406.8 "
         id="polygon9210"
         style="opacity:0.5;fill:#009786;stroke:#ffffff;stroke-width:1.5px;stroke-miterlimit:10" />
      <path
         class="cls-3"
         d="m 402.26,417.06 -0.45,-1.08 -0.9,-1 0.63,-2.61 0.27,-1.53 1.08,-1.17 0.9,-0.81 1.35,-0.81 1.52,-0.9 1.44,-0.36 v 0 l -0.56,-1.51 -3.34,-7.63 -2.86,-3.81 c 0,0 -1.27,0.18 -1.54,0.18 -0.27,0 -1.35,-1 -1.35,-1 l -0.72,-1.17 -0.45,-1.26 -0.72,-1.35 -3,-0.36 -1.35,-0.63 -0.27,-1.62 -0.45,-0.81 0.15,-1.19 -1.87,-0.53 -2,-1.63 -2.28,-0.64 -3.58,0.64 -0.32,1.31 0.32,2.92 v 1.63 l -0.75,1.31 0.65,1.21 0.45,1.7 0.45,2.08 0.54,1.26 -0.25,1.11 -0.27,1.8 1,1.17 -0.13,0.32 0.49,0.49 1.08,0.72 1.17,0.81 0.18,1 -0.09,1.08 -0.09,1.08 -0.72,1.63 v 1.62 l 0.45,0.9 0.81,0.81 0.27,0.9 -0.18,1 0.36,0.81 0.63,1.8 0.81,1.71 0.36,1.25 1,1.08 0.72,0.63 0.45,0.54 0.81,0.63 0.36,0.45 v 0.16 l 7.47,-0.35 2.85,-1.43 -0.36,-0.9 z"
         id="path9212"
         inkscape:connector-curvature="0"
         style="opacity:0.5;fill:#009786;stroke:#ffffff;stroke-width:1.5px;stroke-miterlimit:10" />
      <polyline
         class="cls-3"
         points="383.59 400.28 383.72 399.97 382.73 398.8 383 397 383.37 395.92 382.82 394.66 382.37 392.58 381.92 390.88 381.27 389.67 380.72 390.63 379.42 389 377.46 389.33 375.19 390.95 372.91 390.95 369.98 389 368.68 387.7 365.1 385.75 362.49 383.8 359.89 378.92 359.56 375.33 361.19 373.7 355.33 372.4 352.73 372.4 352.4 369.47 352.08 367.85 351.42 365.89 348.82 364.92 347.5 364.81 347.19 368.5 344.92 368.5 342.96 368.5 340.03 369.15 336.78 370.13 333.85 370.13 329.94 370.13 325.39 371.43 320.5 372.4 317.25 369.47 314.64 366.87 316.6 365.57 316.6 363.61 315.62 362.31 311.71 360.69 310.74 358.08 308.13 357.1 303.58 357.1 300.64 354.83 299.02 351.9 297.72 350.26 295.76 350.6 292.51 352.22 290.56 353.53 288.28 355.8 285.35 357.43 283.72 359.71 282.75 361.66 279.81 364.6 280.14 366.87 280.79 368.82 282.42 370.13 285.35 371.75 285.35 373.7 284.37 375.33 283.39 377.61 282.42 382.17 279.81 383.47 279.49 392.26 277.54 392.26 275.58 394.54 277.54 396.49 275.91 399.09 275.58 402.35 275.91 404.95 278.19 405.27 278.19 406.91 278.19 409.83 277.86 413.42 275.26 413.42 274.61 415.69 273.96 417.32 273.63 422.21 272.98 426.11 272.32 431.64 272.98 432.95 272.98 435.31 315.11 435.31 318.45 433.88 322.74 430.06 326.07 426.73 330.37 428.63 336.08 426.73 343.71 424.82 349.43 426.25 357.05 430.06 363.72 432.92 363.72 435.79 367.06 438.65 371.35 434.83 378.02 431.98 378.97 426.73 381.36 424.35 384.69 420.54 389.94 421.49 392.47 421.36 392.45 421.2 392.09 420.75 391.29 420.12 390.83 419.58 390.11 418.95 389.12 417.87 388.76 416.62 387.95 414.9 387.32 413.11 387.32 413.11 386.87 412.75 386.16 412.84 385.17 413.11 384.44 413.19 381.83 411.31 381.38 409.69 380.4 408.24 379.23 408.15 378.24 408.33 377.33 409.14 376.26 410.04 375.54 409.5 374.91 408.51 375.18 407.17 375.44 406.17 375.71 404.46 375.71 402.94 376.17 401.77 377.16 400.96 378.15 400.33 379.58 400.05 380.12 400.77 381.83 401.49 383.09 401.85 383.27 401.05 383.59 400.28"
         id="polyline9214"
         style="opacity:0.5;fill:#009786;stroke:#ffffff;stroke-width:1.5px;stroke-miterlimit:10" />
      <path
         class="cls-3"
         d="m 329.89,295.2 -2.89,-2.39 -1.43,-4.28 -1,-1.91 -1,-4.76 -2.38,-3.34 0.48,-2.86 -1.91,-3.81 -2.76,-1.44 -6.2,-5.24 -0.48,-4.28 1.43,-2.86 -0.47,-4.29 h -3.81 l -5.7,-4.74 -5.24,-2.38 -7.63,-1 -1.9,-1.9 -2.29,1.4 V 249 l -2.28,1 -0.65,-1.63 -2.27,1.31 1,1.63 0.65,2.28 -0.32,2.28 -0.33,2.28 -0.65,1.63 -2,1 h -1.63 l -1.63,1 -1,2 -0.3,2.22 v 4.23 l -0.65,2.28 -0.33,2.27 0.65,1.63 V 278 l -1.3,1.3 -1.3,1.3 -2.28,0.33 -2.28,-0.65 -1.63,1.63 h -2 l -1.3,-1 -1.63,-1.3 -2,-1 -1,1 v 3.91 l 0.33,1.63 1,1.3 -2.28,2 v 2.27 l 0.65,4.24 -0.65,2.28 3.25,2.28 3.25,1.3 1.63,2 0.65,2.93 2.93,2.93 3.58,2 1,2.28 1,2.6 3.58,0.33 2.93,1.62 0.65,0.65 0.84,0.84 0.31,-1.48 -0.17,-1.31 0.32,-1.63 0.34,-0.5 1.13,-0.81 1.61,-0.88 1.61,-1.46 0.88,-1.61 0.58,-1.17 0.88,-0.44 h 1.61 l 2.48,-2 2.49,-1.9 1.38,-0.59 h 2 l 0.9,0.59 c 0,0 0.15,1.75 0.58,1.61 a 8.52,8.52 0 0 0 1.44,-0.89 h 1.88 l 0.78,1 -1.32,0.73 0.44,1.46 h 1.17 v 0 l 2.93,0.65 1.3,0.33 v 1.63 l -0.65,2.6 v 2.28 l -0.14,1.3 -0.18,1.63 0.91,2.51 0.21,0.57 0.92,-0.14 1,-0.91 1.17,-1 1.87,-2.08 1,-0.13 0.88,-1.16 0.44,-0.86 0.58,-0.9 0.32,-0.46 0.4,-0.59 0.1,-0.1 0.64,-0.9 0.89,-0.64 h 1.3 l 2.6,-1.3 2,-3.26 1.6,-1.79 -0.63,-1.8 0.16,-0.27 0.71,-1.19 1.46,-0.14 h 1.31 l 2,-1.17 1.61,-1.9 1,-1 z"
         id="path9216"
         inkscape:connector-curvature="0"
         style="opacity:0.5;fill:#009786;stroke:#ffffff;stroke-width:1.5px;stroke-miterlimit:10" />
      <path
         class="cls-3"
         d="m 379,340.95 -1.91,-6.2 -6.67,-0.48 -1.91,-2.38 -2.4,-2.89 -3.81,-1 -5.24,-5.24 -3.34,-4.29 -1.43,-2.86 2.38,-9.52 v -5.72 l -2.38,1 -2.38,-0.48 -5.24,-0.47 -2.86,-4.29 -5.24,-1 -1.43,5.71 -1.43,-3.34 -1,1 -1.61,1.9 -2,1.17 h -1.31 l -1.46,0.14 -0.71,1.19 0.47,0.77 V 305 l -0.34,0.54 -1.29,1.09 -2,3.26 -2.6,1.3 h -1.3 l -1.56,1.55 -0.5,0.69 -0.9,1.36 -0.44,0.86 -0.88,1.16 -1,0.13 -1.89,2.06 -1.17,1 -0.59,0.84 -0.43,0.06 -0.92,0.14 -0.21,-0.57 -0.91,-2.51 0.18,-1.63 0.14,-1.3 v -2.28 l 0.65,-2.6 v -1.55 l -1.3,-0.33 -2.93,-0.65 v 0 h -1.17 l -0.44,-1.46 1.32,-0.73 -0.78,-1 H 301 a 8.52,8.52 0 0 1 -1.44,0.89 c -0.44,0.15 -0.58,-1.61 -0.58,-1.61 l -0.9,-0.59 h -2 l -1.38,0.59 -2.49,1.9 -2.48,2 h -1.61 l -0.87,0.44 -0.58,1.17 -0.88,1.61 -1.61,1.46 -1.61,0.88 -1.12,0.81 -0.34,0.5 -0.32,1.63 0.17,1.31 -0.31,1.48 0.46,0.46 -1,4.23 -1,2.61 0.33,2.93 -1.63,3.25 -2,2.28 -3.26,2 -1.3,2.27 -2.6,1.31 1.62,5.53 3.59,1 2.92,2.6 2,1.31 3.91,-1.31 3.31,-1.37 3.58,-1.63 4.88,2.28 3.25,1.62 1.3,1.63 1.63,2.93 2.93,2.27 h 4.56 l 2.6,1 1,2.61 3.9,1.63 1,1.3 v 2 l -2,1.3 2.61,2.6 3.25,2.93 4.88,-1 4.55,-1.3 h 6.84 l 3.25,-1 2.93,-0.65 h 4.23 l 0.31,-3.68 v -0.22 l -0.33,-6.52 2,-3.58 v -4.56 l 2.28,-3.58 2.61,-1 2.93,-1.62 0.32,-2.61 3.25,-2 1.63,1.3 1,2 2.6,1.31 1.63,-1.63 h 1.3 l 1.3,2.28 2,1.62 2.28,0.33 h 3.91 l 1,-3.25 z"
         id="path9218"
         inkscape:connector-curvature="0"
         style="opacity:0.5;fill:#009786;stroke:#ffffff;stroke-width:1.5px;stroke-miterlimit:10" />
      <path
         class="cls-3"
         d="m 397,376.31 -1.31,2.28 -0.32,2.6 -1.3,2 -2,1.63 -0.41,-0.12 -0.15,1.19 0.45,0.81 0.27,1.63 1.35,0.63 3,0.36 0.72,1.35 0.45,1.26 0.72,1.17 c 0,0 1.08,1 1.35,1 0.27,0 1.54,-0.18 1.54,-0.18 l 1.9,-7.63 0.48,-3.81 -0.48,-4.77 -2.18,-2.43 -1.82,1.42 z"
         id="path9220"
         inkscape:connector-curvature="0"
         style="opacity:0.5;fill:#009786;stroke:#ffffff;stroke-width:1.5px;stroke-miterlimit:10" />
      <polygon
         class="cls-3"
         points="399.47,361.44 394.7,361.44 392.31,358.11 391.37,353.81 388.5,348.1 385.4,347.2 381.05,340.18 378.97,340.94 379.1,343.11 378.12,346.36 374.21,346.36 371.93,346.04 369.98,344.41 368.68,342.13 367.38,342.13 365.75,343.76 363.15,342.45 362.17,340.5 360.54,339.2 357.29,341.15 356.96,343.76 354.03,345.38 351.42,346.36 349.15,349.94 349.15,354.5 347.19,358.08 347.52,364.6 347.5,364.81 348.82,364.92 351.42,365.89 352.08,367.85 352.4,369.47 352.73,372.4 355.33,372.4 361.19,373.7 359.56,375.33 359.89,378.92 362.49,383.8 365.1,385.75 368.68,387.7 369.98,389 372.91,390.95 375.19,390.95 377.46,389.33 379.42,389 380.72,390.63 381.27,389.67 382.02,388.35 382.02,386.72 381.7,383.8 382.02,382.49 385.61,381.85 387.88,382.49 389.83,384.12 391.7,384.65 392.12,384.77 394.07,383.14 395.37,381.19 395.69,378.59 397,376.31 399.28,376.63 401.1,375.22 402.21,374.35 399.38,369.78 399.94,365.25 "
         id="polygon9222"
         style="opacity:0.5;fill:#009786;stroke:#ffffff;stroke-width:1.5px;stroke-miterlimit:10" />
      <polygon
         class="cls-4"
         points="121.62,176.53 124.48,173.19 122.1,174.15 118.77,174.15 114,175.58 112.67,178.24 111.62,180.34 114.48,178.44 117.81,178.44 119.72,177.01 "
         id="polygon9224"
         style="fill:#009786;stroke:#ffffff;stroke-width:1.5px;stroke-miterlimit:10" />
      <polygon
         class="cls-4"
         points="120.67,187.01 118.77,185.58 115.9,185.58 121.15,189.39 "
         id="polygon9226"
         style="fill:#009786;stroke:#ffffff;stroke-width:1.5px;stroke-miterlimit:10" />
      <path
         class="cls-3"
         d="m 406.39,396.71 c 0,0 0.54,-5.23 1.09,-6.32 a 30.14,30.14 0 0 0 1.26,-4 l 0.9,4.51 -1.8,9.38 z"
         id="path9228"
         inkscape:connector-curvature="0"
         style="opacity:0.5;fill:#009786;stroke:#ffffff;stroke-width:1.5px;stroke-miterlimit:10" />
      <path
         class="cls-5"
         d="m 207.21,252.52 a 31.61,31.61 0 1 1 -31.62,-31.6 31.61,31.61 0 0 1 31.62,31.6 z"
         id="path9230"
         inkscape:connector-curvature="0"
         style="fill:#ffffff;fill-rule:evenodd" />
      <path
         class="cls-6"
         d="m 225.53,252.14 c 0,-25.75 -21.21,-46.63 -47.38,-46.63 -26.17,0 -47.35,20.88 -47.35,46.63 a 46,46 0 0 0 12.13,31.1 l 4.67,5.76 h -0.18 L 178.21,328.29 209,289 h -0.25 c 2.83,-3.5 4.67,-5.76 4.67,-5.76 a 46,46 0 0 0 12.11,-31.1 z m -47.38,24.75 a 24.74,24.74 0 1 1 25.13,-24.74 24.92,24.92 0 0 1 -25.13,24.73 z"
         id="path9232"
         inkscape:connector-curvature="0"
         style="fill:#a8ad2c;fill-rule:evenodd" />
      <polyline
         class="cls-4"
         points="651.4 294.85 648.47 294.85 644.57 294.21 643.59 290.95 641.64 288.34 639.68 284.44 637.4 280.21 635.45 278.58 633.5 274.34 633.5 268.82 631.54 264.91 629.59 262.95 626.34 257.42 622.75 252.22 620.15 249.61 618.2 249.94 616.25 248.31 614.94 244.73 614.62 240.5 616.9 239.52 620.8 235.29 623.08 233.01 623.73 230.73 624.06 226.83 623.08 223.25 622.43 219.01 622.75 215.43 624.06 213.15 625.68 212.18 627.32 208.6 627.96 203.39 631.87 200.14 633.5 198.51 637.73 196.23 636.75 194.28 636.1 190.04 638.05 188.74 639.36 186.14 638.38 179.63 634.47 178.65 632.85 176.05 629.92 173.12 631.54 171.17 631.54 169.21 632.19 166.6 634.15 165.96 636.81 166.4 636.75 166.28 636.42 164 636.29 160.67 632.95 155.9 633.43 150.19 634.86 147.33 632.95 145.42 628.19 142.09 625.33 140.18 621.99 136.37 619.13 132.56 617.23 133.03 615.8 134.46 611.03 137.8 608.17 138.27 604.36 136.84 602.45 134.94 601.5 133.03 600.55 129.22 599.59 125.89 598.16 122.55 598.64 117.3 595.78 113.02 596.26 109.68 594.83 106.34 591.97 105.39 592.92 101.1 592.92 97.76 591.49 94.91 588.15 93.47 588.15 91.09 588.63 85.85 589.59 81.56 586.25 82.52 583.87 76.79 583.87 73.94 583.87 70.6 582.91 67.74 582.44 63.93 579.1 63.93 577.2 63.45 576.72 59.16 575.29 61.07 571 62.5 571.48 64.88 571.48 67.74 571 70.12 570.52 72.98 569.57 75.85 566.24 82.03 567.66 83.94 566.71 86.8 565.76 88.71 564.8 84.42 563.37 86.8 561.95 90.62 561.47 92.53 563.37 94.91 567.19 97.76 560.04 102.53 559.08 105.87 563.37 108.73 559.08 113.5 555.75 123.5 559.57 127.31 559.57 133.51 557.66 135.41 558.13 138.27 558.61 142.57 560.04 145.42 561.47 147.81 559.08 150.19 555.75 166.87 554.32 171.63 551.94 179.74 548.6 184.98 545.74 187.84 543.84 195.46 542.88 197.84 540.98 198.8 537.64 200.23 532.4 202.14 529.54 202.14 524.77 202.14 522.39 202.14 519.06 200.71 516.19 198.8 513.34 197.84 509.53 196.42 507.14 194.03 503.8 189.27 501.42 186.88 499.04 186.41 489.03 184.5 489.03 375.61 546.22 376.08 546.22 439.47 668.98 439.47 668.98 437.11 668.32 435.8 668.98 430.27 669.63 426.37 669.96 421.48 670.61 419.86 671.26 417.58 673.86 417.58 674.19 413.99 674.19 411.07 674.19 409.44 671.91 409.12 671.58 406.51 671.91 403.25 673.54 400.65 671.58 398.7 673.54 396.42 675.49 396.42 675.81 387.63 678.41 386.33 679.39 381.77 680.37 379.49 681.35 377.86 681.35 375.91 678.41 374.29 676.79 372.98 676.14 371.03 675.81 368.75 678.75 365.82 679.72 363.87 681.35 361.59 684.28 359.96 686.56 357.69 688.51 356.38 691.76 354.75 693.72 354.42 690.46 352.8 685.58 350.52 682 352.15 678.75 353.44 674.84 354.75 672.88 353.44 669.96 350.84 666.37 349.87 664.75 344.34 667.35 343.03 668.65 340.76 671.91 338.8 673.86 336.52 675.49 333.27 675.16 330.34 676.14 327.73 677.12 323.5 676.65 323.04"
         id="polyline9234"
         style="fill:#009786;stroke:#ffffff;stroke-width:1.5px;stroke-miterlimit:10" />
      <polygon
         class="cls-4"
         points="517.62,180.69 520.48,177.35 518.1,178.31 514.76,178.31 510,179.74 508.67,182.4 507.62,184.5 510.48,182.59 513.81,182.59 515.72,181.17 "
         id="polygon9236"
         style="fill:#009786;stroke:#ffffff;stroke-width:1.5px;stroke-miterlimit:10" />
      <polygon
         class="cls-4"
         points="516.67,191.17 514.76,189.74 511.9,189.74 517.15,193.55 "
         id="polygon9238"
         style="fill:#009786;stroke:#ffffff;stroke-width:1.5px;stroke-miterlimit:10" />
    </g>
    <path
       class="cls-5"
       d="m 459.03322,95.479322 a 31.61,31.61 0 1 1 -31.62,-31.6 31.61,31.61 0 0 1 31.62,31.6 z"
       id="path9284"
       inkscape:connector-curvature="0"
       style="fill:#ffffff;fill-rule:evenodd" />
    <path
       class="cls-6"
       d="m 477.36322,95.089322 c 0,-25.75 -21.21,-46.63 -47.38,-46.63 -26.17,0 -47.39,20.89 -47.39,46.63 a 46,46 0 0 0 12.13,31.099998 l 4.66,5.76 h -0.18 l 30.79,39.29 30.78,-39.29 h -0.18 c 2.83,-3.5 4.67,-5.76 4.67,-5.76 a 46,46 0 0 0 12.1,-31.099998 z m -47.38,24.749998 a 24.74,24.74 0 1 1 25.13,-24.739998 24.92,24.92 0 0 1 -25.14,24.739998 z"
       id="path9286"
       inkscape:connector-curvature="0"
       style="fill:#a8ad2c;fill-rule:evenodd" />
  </g>
</svg>
