<svg xmlns="http://www.w3.org/2000/svg" width="318.54" height="386.05" viewBox="0 0 318.54 386.05"><defs><style>.a,.b,.c{fill:#7cb5ab;}.a,.b,.c,.d,.e{stroke:#fff;stroke-miterlimit:10;stroke-width:1.5px;}.a{opacity:0.5;}.a,.c,.e{isolation:isolate;}.d,.e{fill:#009786;}</style></defs><title>Sunshine Coast_edit</title><polygon class="a" points="218.34 266.46 217.32 267.37 217.75 267.31 218.34 266.46"/><polygon class="a" points="224.34 260.28 223.75 261.19 224.66 259.83 224.34 260.28"/><polygon class="a" points="295.1 358.69 295.27 357.71 295 356.8 294.19 355.99 293.75 355.09 293.75 353.48 294.46 351.85 294.56 350.77 294.64 349.7 294.46 348.71 293.31 347.89 292.21 347.17 291.73 346.68 291.4 347.45 291.23 348.25 289.96 347.89 288.25 347.17 287.71 346.45 286.29 346.73 285.3 347.36 284.31 348.17 283.85 349.34 283.85 350.86 283.57 352.57 283.31 353.57 283.05 354.91 283.68 355.9 284.39 356.44 285.46 355.54 286.38 354.73 287.37 354.55 288.54 354.64 289.51 356.09 289.96 357.71 292.57 359.59 293.31 359.51 294.3 359.24 295 359.15 295.45 359.51 295.1 358.69"/><polygon class="a" points="225.06 259.23 224.66 259.83 225.16 259.14 225.06 259.23"/><polygon class="a" points="233.71 249.35 233.54 249.62 234.18 251.42 234.18 250.12 233.71 249.35"/><polygon class="a" points="225.79 258.24 225.16 259.14 226.69 257.6 225.79 258.24"/><polygon class="a" points="234.18 251.42 232.54 253.05 233.84 251.96 234.18 251.42"/><polygon class="a" points="144.32 108.84 143.68 111.46 143.68 113.41 142.06 115.36 144.99 118.29 146.6 120.89 150.51 121.87 151.49 128.38 150.19 130.98 148.24 132.28 148.88 136.52 149.87 138.47 145.63 140.75 144 142.38 140.09 145.63 139.46 150.84 137.82 154.42 136.19 155.39 134.88 157.67 136.19 159.95 139.46 161.25 143.35 162.88 145.63 162.88 145.96 161.58 145.96 159.63 147.59 159.63 148.56 161.58 150.19 162.23 151.81 162.23 155.72 161.25 158 160.92 159.63 159.95 160.94 158.97 163.21 159.15 162.72 155.33 163.68 152 164.63 148.66 164.16 142.95 160.81 138.18 160.81 133.41 159.38 131.03 158.91 128.65 156.06 126.74 151.76 122.93 150.81 119.59 151.28 117.68 150.81 112.44 148.94 108.64 146.28 108.2 144.32 108.84"/><line class="a" x1="188.79" y1="265.28" x2="187.95" y2="264.44"/><polyline class="a" points="187.94 264.44 187.29 263.79 184.37 262.17 180.78 261.84 179.81 259.23 178.84 256.96 175.25 255 172.32 252.07 171.68 249.14 170.04 247.19 166.79 245.89 163.53 243.6 164.19 241.33 163.53 237.09"/><polygon class="a" points="159.63 159.95 158 160.92 155.72 161.25 151.81 162.23 150.19 162.23 148.56 161.58 147.59 159.63 145.96 159.63 145.96 161.58 145.63 162.88 143.35 162.88 139.46 161.25 136.19 159.95 134.88 157.67 134.56 161.25 135.22 165.49 136.19 169.07 135.87 172.97 135.22 175.25 132.94 177.53 129.03 181.76 126.75 182.74 127.08 186.97 128.38 190.55 130.34 192.18 132.28 191.85 134.88 194.46 138.47 199.66 141.72 205.2 143.68 207.15 145.63 211.06 145.63 216.59 147.59 220.82 149.53 222.45 151.81 226.68 153.78 230.58 155.72 233.19 156.71 236.45 160.6 237.09 163.53 237.09 163.53 234.82 165.81 232.87 164.84 231.57 164.51 229.94 164.51 227.66 164.51 226.03 165.5 225.05 167.44 226.03 169.07 227.33 170.38 228.31 172.32 228.31 173.96 226.68 176.24 227.33 178.5 227.01 179.81 225.7 181.12 224.4 181.12 222.78 180.46 221.15 180.78 218.88 181.44 216.59 181.44 214.64 181.44 212.36 181.76 210.08 182.75 208.13 184.37 207.15 186 207.15 187.94 206.17 188.59 204.55 188.93 202.27 189.25 199.99 188.59 197.71 187.63 196.09 189.9 194.78 190.56 196.41 192.84 195.43 192.84 192.83 192.84 191.53 195.13 190.12 193.22 184.41 190.37 182.51 185.13 181.55 177.03 177.26 172.72 174.4 170.35 170.11 169.88 167.25 168.93 164.39 165.59 162.96 163.21 159.15 160.94 158.97 159.63 159.95"/><polygon class="a" points="316.26 353.19 316.25 353.2 314.8 353.57 313.27 354.46 311.93 355.28 311.02 356.09 309.94 357.25 309.68 358.78 309.05 361.39 309.94 362.38 310.39 363.46 310.57 365.08 310.94 365.98 310.94 365.98 316.18 364.08 317.13 360.26 317.13 355.5 316.26 353.19"/><path class="a" d="M310.4,363.46l-.45-1.08-.9-1,.63-2.61.27-1.53,1.08-1.17.9-.81,1.35-.81,1.52-.9,1.44-.36h0l-.56-1.51-3.34-7.63-2.86-3.81s-1.27.18-1.54.18-1.35-1-1.35-1l-.72-1.17-.45-1.26-.72-1.35-3-.36-1.35-.63-.27-1.62-.45-.81.15-1.19-1.87-.53-2-1.63-2.28-.64-3.58.64-.32,1.31.32,2.92v1.63L289.3,336l.65,1.21.45,1.7.45,2.08.54,1.26-.25,1.11-.27,1.8,1,1.17-.13.32.49.49,1.08.72,1.17.81.18,1-.09,1.08-.09,1.08-.72,1.63v1.62l.45.9.81.81.27.9-.18,1,.36.81.63,1.8.81,1.71.36,1.25,1,1.08.72.63.45.54.81.63.36.45v.16l7.47-.35,2.85-1.43-.36-.9Z"/><polyline class="a" points="291.73 346.68 291.86 346.37 290.87 345.2 291.13 343.4 291.5 342.32 290.95 341.06 290.5 338.98 290.06 337.28 289.4 336.07 288.86 337.03 287.56 335.4 285.6 335.73 283.32 337.35 281.05 337.35 278.12 335.4 276.81 334.1 273.24 332.15 270.63 330.2 268.02 325.32 267.69 321.73 269.32 320.1 263.46 318.8 260.87 318.8 260.54 315.87 260.21 314.25 259.56 312.29 256.95 311.32 255.63 311.21 255.32 314.9 253.06 314.9 251.09 314.9 248.16 315.55 244.91 316.53 241.99 316.53 238.07 316.53 233.53 317.83 228.63 318.8 225.38 315.87 222.78 313.27 224.74 311.97 224.74 310.01 223.75 308.71 219.84 307.09 218.88 304.48 216.26 303.5 211.72 303.5 208.78 301.23 207.16 298.3 205.85 296.66 203.9 297 200.65 298.62 198.69 299.93 196.41 302.2 193.49 303.83 191.85 306.11 190.88 308.06 187.94 311 188.28 313.27 188.93 315.22 190.56 316.53 193.49 318.15 193.49 320.1 192.5 321.73 191.53 324.01 190.56 328.57 187.94 329.87 187.63 338.66 185.68 338.66 183.72 340.94 185.68 342.89 184.04 345.49 183.72 348.75 184.04 351.35 186.32 351.67 186.32 353.31 186.32 356.23 186 359.82 183.4 359.82 182.75 362.09 182.09 363.72 181.76 368.61 181.12 372.51 180.46 378.04 181.12 379.35 181.12 381.71 223.25 381.71 226.59 380.28 230.88 376.46 234.21 373.13 238.5 375.03 244.22 373.13 251.84 371.22 257.56 372.65 265.19 376.46 271.86 379.32 271.86 382.19 275.19 385.05 279.49 381.23 286.15 378.38 287.11 373.13 289.5 370.75 292.82 366.94 298.07 367.89 300.61 367.76 300.58 367.6 300.23 367.15 299.43 366.52 298.96 365.98 298.25 365.35 297.25 364.27 296.89 363.02 296.08 361.3 295.45 359.51 295.45 359.51 295 359.15 294.3 359.24 293.31 359.51 292.57 359.59 289.96 357.71 289.51 356.09 288.54 354.64 287.37 354.55 286.38 354.73 285.46 355.54 284.39 356.44 283.68 355.9 283.05 354.91 283.31 353.57 283.57 352.57 283.85 350.86 283.85 349.34 284.31 348.17 285.3 347.36 286.29 346.73 287.71 346.45 288.25 347.17 289.96 347.89 291.23 348.25 291.4 347.45 291.73 346.68"/><path class="a" d="M238,241.6l-2.89-2.39-1.43-4.28-1-1.91-1-4.76-2.38-3.34.48-2.86-1.91-3.81-2.76-1.44-6.2-5.24-.48-4.28,1.43-2.86-.47-4.29h-3.81l-5.7-4.74L204.67,193,197,192l-1.9-1.9-2.29,1.4v3.88l-2.28,1-.65-1.63-2.27,1.31,1,1.63.65,2.28-.32,2.28-.33,2.28-.65,1.63-2,1h-1.63l-1.63,1-1,2-.3,2.22v4.23l-.65,2.28-.33,2.27.65,1.63v1.59l-1.3,1.3-1.3,1.3-2.28.33-2.28-.65-1.63,1.63h-2l-1.3-1-1.63-1.3-2-1-1,1v3.91l.33,1.63,1,1.3-2.28,2v2.27l.65,4.24-.65,2.28,3.25,2.28,3.25,1.3,1.63,2,.65,2.93,2.93,2.93,3.58,2,1,2.28,1,2.6,3.58.33,2.93,1.62.65.65.84.84.31-1.48-.17-1.31.32-1.63.34-.5,1.13-.81,1.61-.88,1.6-1.46.88-1.61.58-1.17.88-.44h1.61l2.48-2,2.49-1.9,1.38-.59h2l.9.59s.15,1.75.58,1.61a8.45,8.45,0,0,0,1.44-.89H211l.78,1-1.32.73.44,1.46H212l2.93.65,1.3.33v1.63l-.65,2.6v2.28l-.14,1.3-.18,1.63.91,2.51.21.57.92-.14,1-.91,1.17-1,1.87-2.08,1-.13.88-1.16.44-.86.58-.9.32-.46.4-.59.1-.1.64-.9.9-.64h1.29l2.6-1.3,2-3.26,1.61-1.79-.63-1.8.16-.27.71-1.19,1.46-.14h1.31l2-1.17,1.61-1.9,1-1Z"/><path class="a" d="M287.14,287.35l-1.91-6.2-6.67-.48-1.91-2.38-2.4-2.89-3.81-1-5.24-5.24-3.34-4.29L260.43,262l2.38-9.52v-5.72l-2.38,1-2.38-.48-5.24-.47L250,242.53l-5.24-1-1.43,5.71-1.43-3.34-1,1-1.61,1.9-2,1.17h-1.31l-1.46.14-.71,1.19.47.77v1.33l-.34.54L232.6,253l-2,3.26-2.6,1.3h-1.3l-1.56,1.55-.5.69-.9,1.36-.44.86-.88,1.16-1,.13-1.89,2.06-1.17,1-.59.84-.43.06-.92.14-.21-.57-.91-2.51.18-1.63.14-1.3v-2.28l.65-2.6V255l-1.3-.33L212,254h-1.17l-.44-1.46,1.32-.73-.78-1h-1.83a9.31,9.31,0,0,1-1.44.89c-.44.15-.58-1.61-.58-1.61l-.9-.59h-2l-1.38.59-2.49,1.9-2.48,2h-1.61l-.87.44-.58,1.17-.88,1.61-1.61,1.46-1.61.88-1.12.81-.34.5-.32,1.63.17,1.31-.31,1.48.46.46-1,4.23-1,2.61.33,2.93L186,278.78l-2,2.28-3.26,2-1.3,2.27-2.6,1.31,1.62,5.53,3.59,1,2.92,2.6,2,1.31,3.91-1.31,3.31-1.37,3.58-1.63,4.88,2.28,3.25,1.62,1.3,1.63,1.63,2.93,2.93,2.27h4.56l2.6,1,1,2.61,3.9,1.63,1,1.3v2l-2,1.3,2.61,2.6,3.25,2.93,4.88-1,4.55-1.3h6.84l3.25-1,2.93-.65h4.23l.31-3.68V311l-.33-6.52,2-3.58v-4.56l2.28-3.58,2.61-1,2.93-1.62.32-2.61,3.25-2,1.63,1.3,1,2,2.6,1.31,1.63-1.63h1.3l1.3,2.28,2,1.62,2.28.33h3.91l1-3.25Z"/><path class="a" d="M305.14,322.71,303.83,325l-.32,2.6-1.3,2-2,1.63-.41-.12-.15,1.19.45.81.27,1.63,1.35.63,3,.36.72,1.35.45,1.26.72,1.17s1.08,1,1.35,1,1.54-.18,1.54-.18l1.9-7.63.48-3.81-.48-4.77-2.18-2.43-1.82,1.42Z"/><polygon class="a" points="307.51 316.18 308.07 311.65 307.61 307.84 302.83 307.84 300.44 304.51 299.5 300.21 296.63 294.5 293.54 293.6 289.19 286.58 287.11 287.34 287.24 289.51 286.25 292.76 282.35 292.76 280.06 292.44 278.12 290.81 276.81 288.53 275.51 288.53 273.88 290.16 271.29 288.85 270.31 286.9 268.68 285.6 265.43 287.55 265.1 290.16 262.17 291.78 259.56 292.76 257.29 296.34 257.29 300.9 255.32 304.48 255.66 311 255.63 311.21 256.95 311.32 259.56 312.29 260.21 314.25 260.54 315.87 260.87 318.8 263.46 318.8 269.32 320.1 267.69 321.73 268.02 325.32 270.63 330.2 273.24 332.15 276.81 334.1 278.12 335.4 281.05 337.35 283.32 337.35 285.6 335.73 287.56 335.4 288.86 337.03 289.4 336.07 290.15 334.75 290.15 333.12 289.83 330.2 290.15 328.89 293.75 328.25 296.01 328.89 297.96 330.52 299.83 331.05 300.25 331.17 302.2 329.54 303.5 327.59 303.82 324.99 305.13 322.71 307.42 323.03 309.24 321.62 310.35 320.75 307.51 316.18"/><polygon class="b" points="25.95 124.84 27.86 123.41 29.75 122.93 32.62 119.59 30.23 120.55 26.91 120.55 22.14 121.98 20.8 124.64 19.75 126.74 22.61 124.84 25.95 124.84"/><polygon class="b" points="24.04 131.98 29.29 135.79 28.8 133.41 26.91 131.98 24.04 131.98"/><path class="a" d="M314.53,343.11s.54-5.23,1.09-6.32a30.94,30.94,0,0,0,1.26-4l.9,4.51-1.8,9.38Z"/><polygon class="c" points="218.19 266.28 217.18 267.19 217.6 267.13 218.19 266.28"/><polygon class="c" points="224.19 260.11 223.6 261.01 224.5 259.65 224.19 260.11"/><polygon class="c" points="294.94 358.52 295.13 357.53 294.86 356.62 294.05 355.81 293.6 354.92 293.6 353.3 294.31 351.67 294.4 350.59 294.5 349.52 294.31 348.53 293.14 347.71 292.06 347 291.57 346.5 291.25 347.27 291.07 348.08 289.81 347.71 288.11 347 287.56 346.28 286.13 346.55 285.13 347.18 284.15 347.99 283.69 349.16 283.69 350.69 283.43 352.4 283.15 353.39 282.88 354.73 283.52 355.72 284.25 356.26 285.31 355.36 286.21 354.56 287.2 354.38 288.38 354.46 289.37 355.91 289.81 357.53 292.43 359.41 293.14 359.33 294.13 359.06 294.86 358.97 295.31 359.33 294.94 358.52"/><polygon class="c" points="224.91 259.06 224.5 259.65 225 258.96 224.91 259.06"/><polygon class="c" points="233.56 249.17 233.38 249.44 234.03 251.24 234.03 249.94 233.56 249.17"/><polygon class="c" points="225.65 258.06 225 258.96 226.53 257.42 225.65 258.06"/><polygon class="c" points="234.03 251.24 232.4 252.87 233.69 251.78 234.03 251.24"/><polygon class="c" points="144.18 108.67 143.53 111.28 143.53 113.23 141.91 115.18 144.84 118.11 146.46 120.71 150.37 121.69 151.34 128.2 150.03 130.8 148.09 132.11 148.74 136.34 149.72 138.29 145.47 140.57 143.85 142.2 139.94 145.45 139.29 150.66 137.66 154.24 136.04 155.21 134.74 157.49 136.04 159.77 139.29 161.07 143.21 162.7 145.47 162.7 145.81 161.4 145.81 159.45 147.44 159.45 148.41 161.4 150.03 162.05 151.66 162.05 155.57 161.07 157.84 160.74 159.47 159.77 160.78 158.79 163.04 158.97 162.57 155.15 163.53 151.83 164.47 148.49 164 142.77 160.66 138 160.66 133.24 159.24 130.85 158.75 128.47 155.91 126.56 151.6 122.75 150.66 119.41 151.13 117.51 150.66 112.26 148.79 108.46 146.13 108.02 144.18 108.67"/><line class="c" x1="188.64" y1="265.1" x2="187.8" y2="264.26"/><polyline class="c" points="187.53 265.01 186.88 264.36 183.95 262.74 180.37 262.41 179.39 259.81 178.42 257.53 174.83 255.57 171.91 252.64 171.26 249.71 169.63 247.76 166.38 246.46 163.12 244.18 163.77 241.9 163.12 237.66 160.19 237.66 156.28 237.02 155.31 233.76 153.36 231.15 151.4 227.25 149.12 223.02 147.17 221.4 145.21 217.16 145.21 211.63 143.26 207.72 141.31 205.77 138.05 200.23 134.47 195.03 131.87 192.43 129.92 192.75 127.96 191.12 126.66 187.54 126.34 183.31 128.62 182.33 132.52 178.1 134.8 175.83 135.45 173.54 135.78 169.64 134.8 166.06 134.15 161.82 134.47 158.24 135.78 155.96 137.4 154.99 139.03 151.41 139.68 146.2 143.59 142.95 145.21 141.32 149.45 139.04 148.47 137.09 147.82 132.86 149.77 131.55 151.07 128.95 150.1 122.44 146.19 121.46 144.57 118.86 141.64 115.93 143.26 113.98 143.26 112.03 143.91 109.42 145.87 108.77 148.53 109.21 148.47 109.09 148.14 106.81 148.01 103.49 144.67 98.71 145.15 93 146.58 90.14 144.67 88.24 139.91 84.9 137.05 82.99 133.71 79.18 130.85 75.37 128.95 75.84 127.52 77.27 122.75 80.61 119.89 81.08 116.08 79.65 114.17 77.75 113.22 75.84 112.27 72.03 111.31 68.7 109.88 65.36 110.36 60.12 107.5 55.83 107.98 52.49 106.55 49.16 103.69 48.2 104.64 43.91 104.64 40.57 103.21 37.72 99.87 36.28 99.87 33.91 100.35 28.66 101.31 24.37 97.97 25.33 95.59 19.6 95.59 16.75 95.59 13.41 94.63 10.55 94.16 6.74 90.82 6.74 88.91 6.27 88.43 1.97 87 3.88 82.72 5.31 83.2 7.69 83.2 10.55 82.72 12.93 82.24 15.79 81.29 18.66 77.95 24.85 79.38 26.75 78.43 29.62 77.48 31.52 76.52 27.23 75.09 29.62 73.66 33.43 73.19 35.34 75.09 37.72 78.91 40.57 71.76 45.34 70.8 48.68 75.09 51.54 70.8 56.31 67.47 66.31 71.28 70.12 71.28 76.32 69.37 78.23 69.85 81.08 70.33 85.38 71.76 88.24 73.19 90.62 70.8 93 67.47 109.68 66.04 114.45 63.66 122.55 60.32 127.79 57.46 130.65 55.56 138.27 54.6 140.65 52.7 141.61 49.36 143.04 44.12 144.95 41.25 144.95 36.49 144.95 34.11 144.95 30.78 143.52 27.91 141.61 25.05 140.65 21.25 139.23 18.86 136.84 15.52 132.08 13.14 129.69 10.76 129.22 0.75 127.31 0.75 318.42 57.94 318.89 57.94 382.28 180.7 382.28 180.7 379.92 180.04 378.62 180.7 373.08 181.35 369.18 181.68 364.29 182.32 362.67 182.98 360.39 185.58 360.39 185.91 356.8 185.91 353.88 185.91 352.25 183.63 351.93 183.3 349.32 183.63 346.07 185.25 343.46 183.3 341.51 185.25 339.23 187.21 339.23 187.53 330.44 190.13 329.14 191.11 324.58 192.09 322.3 193.06 320.67 193.06 318.72 190.13 317.1 188.51 315.79 187.86 313.84 187.53 311.57 190.46 308.64 191.43 306.68 193.06 304.4 196 302.77 198.27 300.5 200.23 299.19 203.48 297.57 205.43 297.23 202.18 295.61 197.3 293.34 193.71 294.96 190.46 296.26 186.56 297.57 184.6 296.26 181.68 293.65 178.09 292.68 176.47 287.15 179.07 285.84 180.37 283.57 183.63 281.61 185.58 279.33 187.21 276.08 186.88 273.15 187.86 270.54 188.83 266.31 188.37 265.85"/><polygon class="c" points="159.47 159.77 157.84 160.74 155.57 161.07 151.66 162.05 150.03 162.05 148.41 161.4 147.44 159.45 145.81 159.45 145.81 161.4 145.47 162.7 143.21 162.7 139.29 161.07 136.04 159.77 134.74 157.49 134.41 161.07 135.06 165.31 136.04 168.89 135.72 172.79 135.06 175.08 132.78 177.35 128.88 181.58 126.61 182.56 126.92 186.79 128.22 190.37 130.19 192 132.13 191.68 134.74 194.28 138.31 199.48 141.57 205.02 143.53 206.97 145.47 210.88 145.47 216.41 147.44 220.65 149.38 222.27 151.66 226.5 153.63 230.4 155.57 233.01 156.54 236.27 160.46 236.91 163.38 236.91 163.38 234.64 165.66 232.69 164.69 231.39 164.37 229.76 164.37 227.48 164.37 225.85 165.34 224.87 167.29 225.85 168.93 227.15 170.22 228.13 172.18 228.13 173.81 226.5 176.07 227.15 178.35 226.83 179.66 225.52 180.97 224.23 180.97 222.6 180.31 220.97 180.63 218.7 181.28 216.41 181.28 214.46 181.28 212.18 181.62 209.9 182.59 207.95 184.22 206.97 185.84 206.97 187.79 206 188.44 204.37 188.78 202.09 189.09 199.81 188.44 197.53 187.47 195.91 189.75 194.6 190.4 196.23 192.69 195.25 192.69 192.65 192.69 191.35 194.97 189.95 193.07 184.23 190.22 182.33 184.97 181.37 176.88 177.08 172.57 174.22 170.19 169.93 169.72 167.07 168.76 164.21 165.44 162.78 163.04 158.97 160.78 158.79 159.47 159.77"/><polygon class="c" points="316.12 353.01 316.1 353.02 314.64 353.39 313.13 354.28 311.77 355.1 310.88 355.91 309.8 357.08 309.52 358.6 308.89 361.21 309.8 362.2 310.25 363.28 310.43 364.9 310.77 365.8 310.79 365.8 316.02 363.9 316.98 360.08 316.98 355.32 316.12 353.01"/><path class="c" d="M310.25,363.28l-.45-1.08-.9-1,.63-2.61.27-1.53,1.08-1.17.9-.81,1.35-.81,1.52-.9,1.44-.36h0l-.56-1.51-3.34-7.63-2.86-3.81s-1.27.18-1.54.18-1.35-1-1.35-1l-.72-1.17-.45-1.26-.72-1.35-3-.36-1.36-.63-.26-1.62-.46-.81.15-1.19-1.87-.53-2-1.63-2.28-.64-3.57.64-.32,1.31.32,2.92v1.63l-.75,1.31.65,1.21.45,1.7.45,2.08.54,1.26-.36,1.08-.27,1.8,1,1.17-.13.32.49.49,1.08.72,1.17.81.18,1-.09,1.08-.09,1.08-.72,1.63v1.62l.45.9.81.81.27.9-.18,1,.36.81.63,1.8.81,1.71.36,1.25,1,1.08.72.63.45.54.81.63.36.45v.16l7.47-.35,2.85-1.43-.36-.9Z"/><polyline class="c" points="291.57 346.5 291.7 346.19 290.71 345.02 290.99 343.22 291.35 342.14 290.81 340.88 290.36 338.8 289.9 337.1 289.25 335.89 288.7 336.85 287.4 335.23 285.44 335.55 283.18 337.18 280.89 337.18 277.96 335.23 276.67 333.92 273.08 331.97 270.48 330.02 267.88 325.14 267.55 321.55 269.18 319.92 263.31 318.63 260.71 318.63 260.38 315.69 260.06 314.07 259.4 312.11 256.81 311.14 255.49 311.04 255.18 314.72 252.91 314.72 250.94 314.72 248.01 315.37 244.76 316.35 241.84 316.35 237.93 316.35 233.38 317.65 228.49 318.63 225.24 315.69 222.63 313.09 224.59 311.79 224.59 309.84 223.6 308.53 219.69 306.91 218.72 304.3 216.12 303.32 211.56 303.32 208.63 301.05 207 298.12 205.69 296.48 203.75 296.82 200.5 298.44 198.53 299.75 196.26 302.02 193.32 303.65 191.69 305.93 190.72 307.89 187.79 310.82 188.13 313.09 188.78 315.04 190.4 316.35 193.32 317.97 193.32 319.92 192.35 321.55 191.38 323.83 190.4 328.39 187.79 329.69 187.47 338.48 185.51 338.48 183.56 340.76 185.51 342.71 183.9 345.32 183.56 348.57 183.9 351.18 186.18 351.5 186.18 353.13 186.18 356.05 185.84 359.64 183.25 359.64 182.59 361.92 181.94 363.54 181.62 368.43 180.97 372.33 180.31 377.87 180.97 379.17 180.97 381.53 223.09 381.53 226.44 380.1 230.72 376.28 234.06 372.95 238.34 374.85 244.06 372.95 251.69 371.04 257.4 372.47 265.04 376.28 271.7 379.14 271.7 382.01 275.04 384.87 279.32 381.05 286 378.2 286.95 372.95 289.35 370.57 292.68 366.76 297.92 367.71 300.45 367.58 300.44 367.42 300.07 366.97 299.26 366.34 298.81 365.8 298.1 365.17 297.11 364.09 296.75 362.84 295.94 361.13 295.31 359.33 295.31 359.33 294.86 358.97 294.13 359.06 293.14 359.33 292.43 359.41 289.81 357.53 289.37 355.91 288.38 354.46 287.2 354.38 286.21 354.56 285.31 355.36 284.25 356.26 283.52 355.72 282.88 354.73 283.15 353.39 283.43 352.4 283.69 350.69 283.69 349.16 284.15 347.99 285.13 347.18 286.13 346.55 287.56 346.28 288.11 347 289.81 347.71 291.07 348.08 291.25 347.27 291.57 346.5"/><path class="c" d="M237.87,241.4,235,239l-1.43-4.28-1-1.91-1-4.76-2.38-3.34.48-2.86-1.91-3.81-2.86-1.44-6.2-5.24-.48-4.28,1.43-2.86-.47-4.29h-3.81l-5.72-4.77-5.24-2.38-7.63-1-1.91-1.91-2.29,1.4v3.9l-2.28,1-.65-1.63-2.27,1.31,1,1.63.65,2.28-.32,2.28-.33,2.28-.65,1.63-2,1h-1.63l-1.63,1-1,2-.32,2.28v4.16l-.65,2.28-.33,2.27.65,1.63v1.63l-1.3,1.3-1.3,1.3-2.28.33-2.28-.65-1.53,1.64h-2l-1.3-1-1.63-1.3-2-1-1,1v3.91l.33,1.63,1,1.3-2.28,2v2.27l.65,4.24-.65,2.28,3.25,2.28,3.25,1.3,1.63,2L172,252,175,254.9l3.58,2,1,2.28,1,2.6,3.58.33,2.93,1.62.65.65.84.84.31-1.48-.18-1.31.32-1.63.34-.5,1.13-.81,1.61-.88,1.61-1.46.88-1.61.58-1.17.88-.44h1.61l2.48-2,2.49-1.9,1.38-.59h2l.9.59s.15,1.75.58,1.61a8.45,8.45,0,0,0,1.44-.89h1.88l.78,1-1.32.73.44,1.46h1.17l2.93.65,1.3.33v1.63l-.65,2.6v2.28l-.14,1.3-.18,1.63.91,2.51.21.57.92-.14,1-.91,1.17-1,1.87-2.08,1-.13.88-1.16.44-.86.58-.9.32-.46.4-.59.1-.1.64-.9.89-.64h1.3l2.6-1.3,2-3.26,1.63-1.63-.63-1.8.16-.27.71-1.19,1.46-.14H237l2-1.17,1.61-1.9,1-1Z"/><path class="c" d="M287,287.17l-1.91-6.2-6.67-.48-1.91-2.38-2.33-2.86-3.81-1L265.09,269l-3.34-4.29-1.43-2.86,2.38-9.52v-5.72l-2.38,1-2.38-.48-5.24-.47-2.91-4.27-5.24-1-1.41,5.73-1.43-3.34-1,1-1.61,1.9-2,1.17h-1.36l-1.46.14-.71,1.19.47.77v1.3l-.34.54-1.29,1.09-2,3.26-2.6,1.3h-1.3L225,259l-.5.69-.9,1.36-.44.86-.88,1.16-1,.13-1.87,2.08-1.17,1-.59.84-.43.06-.92.14-.21-.57-.91-2.51.18-1.63.14-1.3V259l.65-2.6v-1.63l-1.3-.33-2.93-.65h-1.16l-.44-1.46,1.32-.73-.78-1H209a9.31,9.31,0,0,1-1.44.89c-.44.15-.58-1.61-.58-1.61l-.9-.59h-2l-1.38.59-2.49,1.9-2.48,2h-1.55l-.87.44-.58,1.17-.88,1.61-1.67,1.49-1.61.88-1.12.81-.34.5-.32,1.63.17,1.31-.31,1.48.46.46-1,4.23-.93,2.6.33,2.93-1.63,3.25-2,2.28-3.26,2-1.3,2.27-2.54,1.27,1.62,5.53,3.59,1,2.92,2.6,2,1.31,3.91-1.31,3.25-1.29,3.58-1.63,4.88,2.28,3.25,1.62,1.3,1.63,1.63,2.93,2.93,2.27h4.54l2.6,1,1,2.61,3.9,1.63,1,1.3v2l-2,1.3,2.61,2.6,3.25,2.93,4.88-1,4.55-1.3h6.84l3.25-1,2.93-.65h4.19l.31-3.68v-.22l-.31-6.56,2-3.58v-4.56l2.28-3.58,2.61-1L265,290l.32-2.61,3.25-2,1.63,1.3,1,2,2.6,1.31,1.63-1.63h1.3l1.3,2.28,2,1.62,2.28.33h3.87l1-3.25Z"/><path class="d" d="M305,322.53l-1.31,2.28-.32,2.6-1.3,2-2,1.63-.41-.12-.15,1.19.45.81.27,1.63,1.35.63,3,.36.72,1.35.45,1.26.72,1.17s1.08,1,1.35,1,1.54-.18,1.54-.18l1.9-7.63.48-3.81-.48-4.77-2.16-2.53-1.82,1.42Z"/><polygon class="c" points="307.37 316 307.93 311.47 307.44 307.66 302.69 307.66 300.3 304.33 299.35 300.03 296.49 294.32 293.38 293.42 289.04 286.4 286.95 287.17 287.08 289.33 286.11 292.59 282.19 292.59 279.92 292.26 277.96 290.63 276.67 288.35 275.37 288.35 273.74 289.98 271.13 288.67 270.15 286.72 268.52 285.42 265.26 287.37 264.94 289.98 262.01 291.6 259.4 292.59 257.13 296.16 257.13 300.72 255.18 304.3 255.5 310.82 255.49 311.04 256.81 311.14 259.4 312.11 260.06 314.07 260.38 315.69 260.71 318.63 263.31 318.63 269.18 319.92 267.55 321.55 267.88 325.14 270.48 330.02 273.08 331.97 276.67 333.92 277.96 335.23 280.89 337.18 283.18 337.18 285.44 335.55 287.4 335.23 288.7 336.85 289.25 335.89 290 334.57 290 332.94 289.69 330.02 290 328.71 293.6 328.07 295.87 328.71 297.81 330.34 299.69 330.87 300.1 330.99 302.06 329.36 303.36 327.41 303.68 324.81 304.99 322.53 307.26 322.85 309.08 321.44 310.19 320.58 307.37 316"/><polygon class="c" points="25.8 124.66 27.7 123.23 29.61 122.75 32.47 119.41 30.09 120.37 26.75 120.37 21.98 121.8 20.66 124.46 19.61 126.56 22.46 124.66 25.8 124.66"/><polygon class="c" points="23.89 131.81 29.14 135.61 28.66 133.24 26.75 131.81 23.89 131.81"/><path class="e" d="M314.38,342.93s.54-5.23,1.09-6.32a30.94,30.94,0,0,0,1.26-4l.9,4.51-1.8,9.38Z"/></svg>