<?xml version="1.0" encoding="UTF-8" standalone="no"?>
<svg
   xmlns:dc="http://purl.org/dc/elements/1.1/"
   xmlns:cc="http://creativecommons.org/ns#"
   xmlns:rdf="http://www.w3.org/1999/02/22-rdf-syntax-ns#"
   xmlns:svg="http://www.w3.org/2000/svg"
   xmlns="http://www.w3.org/2000/svg"
   xmlns:sodipodi="http://sodipodi.sourceforge.net/DTD/sodipodi-0.dtd"
   xmlns:inkscape="http://www.inkscape.org/namespaces/inkscape"
   id="Assets_class"
   data-name="Assets class"
   viewBox="0 0 53.520001 53.520001"
   version="1.1"
   sodipodi:docname="cross_e.svg"
   width="53.52"
   height="53.52"
   inkscape:version="0.92.1 r15371">
  <metadata
     id="metadata10331">
    <rdf:RDF>
      <cc:Work
         rdf:about="">
        <dc:format>image/svg+xml</dc:format>
        <dc:type
           rdf:resource="http://purl.org/dc/dcmitype/StillImage" />
        <dc:title>Artboard 280</dc:title>
      </cc:Work>
    </rdf:RDF>
  </metadata>
  <sodipodi:namedview
     pagecolor="#ffffff"
     bordercolor="#666666"
     borderopacity="1"
     objecttolerance="10"
     gridtolerance="10"
     guidetolerance="10"
     inkscape:pageopacity="0"
     inkscape:pageshadow="2"
     inkscape:window-width="1920"
     inkscape:window-height="1001"
     id="namedview10329"
     showgrid="false"
     fit-margin-top="0"
     fit-margin-left="0"
     fit-margin-right="0"
     fit-margin-bottom="0"
     inkscape:zoom="7.7266907"
     inkscape:cx="18.868552"
     inkscape:cy="32.669555"
     inkscape:window-x="-9"
     inkscape:window-y="-9"
     inkscape:window-maximized="1"
     inkscape:current-layer="layer9" />
  <defs
     id="defs10275">
    <style
       id="style10273">.cls-1{fill:#f1563f;}.cls-2{fill:#fff;}.cls-3{font-size:13px;fill:#e1bebb;font-family:Helvetica, Helvetica;}.cls-4{letter-spacing:0em;}.cls-5{letter-spacing:-0.01em;}.cls-6{letter-spacing:-0.01em;}.cls-7{letter-spacing:0em;}.cls-8{letter-spacing:0em;}.cls-9{letter-spacing:0em;}</style>
    <style
       id="style10906">.cls-1{isolation:isolate;}.cls-2{opacity:0.7;mix-blend-mode:multiply;}.cls-3,.cls-5{fill:#fff;}.cls-4{fill:#009887;}.cls-5{font-size:13px;font-family:Helvetica-Bold, Helvetica Bold;font-weight:700;}.cls-6{letter-spacing:0em;}.cls-7{letter-spacing:-0.01em;}.cls-8{letter-spacing:-0.01em;}.cls-9{letter-spacing:0em;}.cls-10{letter-spacing:0em;}.cls-11{letter-spacing:0em;}</style>
  </defs>
  <title
     id="title10277">Artboard 280</title>
  <g
     inkscape:groupmode="layer"
     id="layer8"
     inkscape:label="Layer 1"
     style="display:inline"
     transform="translate(-22.489999,-1.7900005)">
    <g
       id="g10890">
      <circle
         id="circle10279"
         r="14.5"
         cy="25.5"
         cx="49.220001"
         class="cls-1"
         style="isolation:isolate;fill:#f1563f" />
      <circle
         id="circle10281"
         r="13.33"
         cy="25.5"
         cx="49.220001"
         class="cls-1"
         style="isolation:isolate;fill:#f1563f" />
      <path
         id="path10284"
         d="M 44.17,21.83 A 0.72,0.72 0 0 0 43.91,22 c -0.08,0.11 -0.05,0.16 0,0.14 0.05,-0.02 0.12,0 0.17,0 0.05,0 0.12,0.08 0.12,0 0,-0.08 0.11,-0.08 0.18,-0.1 0.07,-0.02 0.07,-0.06 0,-0.11 a 0.23,0.23 0 0 0 -0.23,0"
         class="cls-2"
         inkscape:connector-curvature="0"
         style="opacity:0.7;mix-blend-mode:multiply;fill:#ffffff" />
      <path
         id="path10286"
         d="m 44.2,22.35 c 0,0 0,0.07 -0.07,0.06 -0.07,-0.01 -0.06,0.14 0,0.1 0.06,-0.04 0.13,0 0.15,0 0.02,0 0,0 0,-0.08 0,-0.08 -0.06,-0.1 -0.09,-0.08"
         class="cls-2"
         inkscape:connector-curvature="0"
         style="opacity:0.7;mix-blend-mode:multiply;fill:#ffffff" />
      <path
         id="path10288"
         d="m 46.6,16.23 h -0.09 c -0.06,0 0,0 0,0.05 0,0.05 0,0.09 0.12,0.07 0.12,-0.02 0.1,0 0.08,-0.08 a 0.04,0 0 0 0 -0.08,0"
         class="cls-2"
         inkscape:connector-curvature="0"
         style="opacity:0.7;mix-blend-mode:multiply;fill:#ffffff" />
      <path
         id="path10290"
         d="m 46.57,16.58 c 0,0 0,0.08 -0.07,0.07 -0.07,-0.01 -0.07,0.12 0,0.12 0.07,0 0.08,-0.07 0.12,-0.09 0.04,-0.02 0,-0.07 0,-0.1 0,-0.03 0,0 -0.07,0"
         class="cls-2"
         inkscape:connector-curvature="0"
         style="opacity:0.7;mix-blend-mode:multiply;fill:#ffffff" />
      <path
         id="path10292"
         d="m 53.83,27.19 c 0,0 0,0.06 0,0 0,-0.06 -0.05,0 0,0.07 0.05,0.07 0.12,0.11 0.1,0.16 -0.02,0.05 0,0.12 0,0.09 0,-0.03 0.07,-0.09 0.09,-0.09 0.02,0 0,-0.09 -0.06,-0.13 -0.06,-0.04 -0.09,-0.09 -0.1,-0.13 -0.01,-0.04 -0.06,0 -0.05,0"
         class="cls-2"
         inkscape:connector-curvature="0"
         style="opacity:0.7;mix-blend-mode:multiply;fill:#ffffff" />
      <path
         id="path10294"
         d="m 54.35,28.48 c 0,0 -0.09,-0.06 -0.06,0 a 1.06,1.06 0 0 0 0.09,0.16 c 0,0.07 0.08,0.12 0.13,0.09 0.05,-0.03 0,-0.05 0,-0.14 0,-0.09 -0.1,-0.14 -0.14,-0.12"
         class="cls-2"
         inkscape:connector-curvature="0"
         style="opacity:0.7;mix-blend-mode:multiply;fill:#ffffff" />
      <path
         id="path10296"
         d="m 56.32,29.68 a 0.26,0.26 0 0 1 -0.08,0.08 c 0,0 0,0.06 0,0.1 a 0.16,0.16 0 0 1 0,0.2 c -0.06,0.08 -0.12,0.12 -0.11,0.17 0.01,0.05 0.05,0.17 0,0.23 -0.05,0.06 -0.06,0.08 0,0.17 0.06,0.09 0,0.2 0.07,0.15 0.07,-0.05 0,-0.31 0.07,-0.39 a 0.92,0.92 0 0 0 0.12,-0.25 c 0,-0.07 0.12,-0.14 0,-0.2 a 0.12,0.12 0 0 1 0,-0.16 c 0,0 0,-0.09 0,-0.09"
         class="cls-2"
         inkscape:connector-curvature="0"
         style="opacity:0.7;mix-blend-mode:multiply;fill:#ffffff" />
      <path
         id="path10298"
         d="m 56.5,31.9 a 0.11,0.11 0 0 0 0,0.13 c 0,0.08 0,0.24 0.07,0.19 0.07,-0.05 0,-0.18 0,-0.23 0,-0.05 -0.07,-0.08 -0.07,-0.08"
         class="cls-2"
         inkscape:connector-curvature="0"
         style="opacity:0.7;mix-blend-mode:multiply;fill:#ffffff" />
      <path
         id="path10300"
         d="m 56.55,32.22 a 0.77,0.77 0 0 0 0,0.1 c 0,0 0,0.32 0,0.37 0,0.05 0,0.09 0,0 0,-0.09 0,-0.2 0.05,-0.27 a 0.24,0.24 0 0 0 0,-0.2 0.08,0.08 0 0 0 -0.05,0"
         class="cls-2"
         inkscape:connector-curvature="0"
         style="opacity:0.7;mix-blend-mode:multiply;fill:#ffffff" />
      <path
         id="path10302"
         d="m 52.61,33.72 c 0.1,-0.08 0.28,-0.29 0.45,-0.2 a 0.27,0.27 0 0 0 0.32,0 1.28,1.28 0 0 1 0.52,0 c 0.13,0 0.43,0.11 0.49,0.26 0.06,0.15 0.18,0.3 0.29,0.09 a 0.7,0.7 0 0 1 0.42,-0.33 4.88,4.88 0 0 0 0.45,-0.23 0.61,0.61 0 0 1 0.5,-0.09 c 0.17,0.08 0.35,-0.24 0.45,-0.31 v 0 a 0.71,0.71 0 0 1 0,-0.26 1,1 0 0 0 -0.15,-0.37 c -0.07,-0.12 -0.14,-0.14 -0.08,-0.32 0.06,-0.18 0,-0.19 0,-0.39 0,-0.2 -0.09,-0.14 -0.08,-0.31 0.01,-0.17 0.07,-0.2 0.08,-0.31 0.01,-0.11 -0.07,-0.11 -0.11,-0.07 -0.04,0.04 0,-0.12 -0.06,-0.2 -0.06,-0.08 -0.13,-0.15 -0.06,-0.21 a 0.12,0.12 0 0 0 -0.06,-0.2 0.41,0.41 0 0 1 -0.31,-0.22 c -0.09,-0.16 0,-0.25 -0.17,-0.31 -0.17,-0.06 -0.37,-0.19 -0.32,-0.23 0.05,-0.04 0,-0.16 -0.05,-0.24 a 0.36,0.36 0 0 0 -0.34,-0.23 c -0.21,0 -0.24,-0.13 -0.34,-0.24 a 1.1,1.1 0 0 1 -0.28,-0.33 1.5,1.5 0 0 1 -0.05,-0.5 c 0,-0.11 0.08,-0.26 0,-0.34 -0.08,-0.08 0,0 -0.09,0 a 0.1,0.1 0 0 1 -0.18,0 c -0.06,-0.09 -0.29,-0.18 -0.32,-0.29 -0.03,-0.11 0,-0.14 -0.14,-0.18 -0.14,-0.04 -0.12,0.05 -0.07,0.1 a 0.16,0.16 0 0 1 0.07,0.17 0.17,0.17 0 0 0 0,0.18 c 0,0 0,0.1 0,0 0,-0.1 -0.09,-0.16 -0.14,-0.15 -0.05,0.01 0,0.06 -0.12,0 -0.12,-0.06 -0.07,-0.19 -0.12,-0.3 a 0.57,0.57 0 0 1 -0.07,-0.33 c 0,-0.1 0,-0.13 -0.06,-0.22 a 0.25,0.25 0 0 1 -0.1,-0.27 c 0,-0.11 0,-0.17 -0.08,-0.17 -0.08,0 -0.09,-0.05 -0.1,-0.11 -0.01,-0.06 0,0 -0.11,0 a 0.24,0.24 0 0 1 -0.17,-0.15 c 0,-0.09 -0.08,-0.24 0,-0.19 0.08,0.05 0.14,0.11 0.14,0.06 a 0.51,0.51 0 0 0 -0.2,-0.29 c -0.13,-0.1 -0.11,-0.06 -0.12,-0.11 a 0.07,0.07 0 0 0 -0.13,0 c 0,0 -0.1,0 -0.15,-0.1 -0.05,-0.1 -0.1,-0.1 -0.21,-0.1 -0.11,0 -0.1,0 -0.13,-0.08 -0.03,-0.08 -0.11,-0.07 -0.12,0 -0.01,0.07 -0.17,0 -0.18,-0.05 -0.01,-0.05 0.05,-0.2 0,-0.34 -0.05,-0.14 0,0 -0.11,0 -0.11,0 -0.28,0.05 -0.3,-0.09 -0.02,-0.14 -0.11,-0.08 -0.15,-0.15 -0.04,-0.07 -0.1,0 -0.16,0 -0.06,0 -0.38,-0.11 -0.36,-0.28 a 2.85,2.85 0 0 0 0,-0.33 c 0,-0.11 0,-0.17 0,-0.25 0,-0.08 -0.15,-0.07 -0.16,0 -0.01,0.07 -0.12,0 -0.08,-0.14 A 0.73,0.73 0 0 0 50,23 c 0,-0.13 -0.2,-0.45 -0.15,-0.54 a 0.14,0.14 0 0 0 -0.07,-0.21 0.62,0.62 0 0 1 -0.34,-0.29 c 0,-0.12 0,-0.3 -0.05,-0.47 a 0.58,0.58 0 0 1 -0.11,-0.45 c 0,-0.14 0,-0.17 0,-0.2 0,-0.03 0,-0.1 0,-0.15 0,-0.05 0.05,-0.09 -0.05,-0.19 A 1.93,1.93 0 0 0 48.85,20.21 C 48.7,20.13 48.77,20.09 48.77,20 c 0,-0.09 -0.1,-0.17 -0.19,-0.1 -0.09,0.07 -0.17,0 -0.21,0.07 -0.04,0.07 -0.09,0.16 -0.22,0.16 -0.13,0 -0.21,0 -0.2,-0.19 a 0.46,0.46 0 0 0 -0.1,-0.32 0.31,0.31 0 0 1 0,-0.28 0.47,0.47 0 0 0 0,-0.27 3.61,3.61 0 0 1 0,-0.42 c 0,-0.09 0,0 -0.08,0 -0.08,0 0,-0.12 0,-0.17 0,-0.05 -0.09,-0.08 -0.13,-0.13 -0.04,-0.05 -0.06,-0.17 -0.16,-0.17 -0.1,0 0,-0.14 0,-0.23 0,-0.09 0,-0.14 -0.07,-0.14 -0.07,0 -0.19,0 -0.2,-0.18 -0.01,-0.18 0,-0.24 0,-0.32 0,-0.08 0,-0.2 -0.09,-0.31 -0.09,-0.11 -0.21,-0.07 -0.15,-0.16 0.06,-0.09 0,-0.12 -0.08,-0.1 -0.08,0.02 -0.07,0.15 -0.21,0.18 -0.14,0.03 -0.14,0.13 -0.14,0.23 0,0.1 0,0.38 0,0.48 a 0.22,0.22 0 0 0 0,0.2 c 0,0 0,0.18 0,0.13 0,-0.05 -0.1,-0.08 -0.13,0 -0.03,0.08 -0.05,0.17 -0.07,0.21 -0.02,0.04 -0.07,0.17 0,0.2 0.07,0.03 0.18,0 0.17,0.11 -0.01,0.11 0,0.18 0,0.09 0,-0.09 -0.08,-0.09 -0.09,0 a 0.21,0.21 0 0 1 -0.09,0.17 c -0.07,0 -0.07,0.07 0,0.15 0.07,0.08 0.13,0.18 0.09,0.21 -0.04,0.03 -0.17,0 -0.18,0.15 -0.01,0.15 -0.06,0.38 0,0.45 A 0.31,0.31 0 0 1 46,20 a 0.76,0.76 0 0 0 0,0.33 c 0,0 0.08,0.16 0.09,0.27 0.01,0.11 -0.06,0.17 -0.11,0.26 a 1.38,1.38 0 0 0 -0.13,0.31 c 0,0.05 0,0.15 0,0.18 a 0.12,0.12 0 0 0 0,0.15 0.14,0.14 0 0 1 0,0.15 0.56,0.56 0 0 0 -0.12,0.25 c 0,0.1 -0.06,0.31 -0.17,0.36 -0.11,0.05 -0.09,0.22 -0.11,0.3 -0.02,0.08 -0.08,0.26 -0.2,0.32 -0.12,0.06 -0.43,0.23 -0.6,0.16 -0.17,-0.07 -0.39,-0.14 -0.43,-0.25 -0.04,-0.11 -0.26,0 -0.29,-0.15 -0.03,-0.15 -0.13,-0.36 -0.31,-0.4 A 1.56,1.56 0 0 1 43.03,22.08 L 42.84,22 v 9 h 2.61 v 2.91 h 6.91 a 1.06,1.06 0 0 0 0.25,-0.14"
         class="cls-2"
         inkscape:connector-curvature="0"
         style="opacity:0.7;mix-blend-mode:multiply;fill:#ffffff" />
    </g>
    <path
       transform="translate(-2e-6)"
       style="display:inline;isolation:isolate;fill:#ffffff"
       inkscape:connector-curvature="0"
       class="cls-3"
       d="m 52.61,33.72 c 0.1,-0.08 0.28,-0.29 0.45,-0.2 a 0.27,0.27 0 0 0 0.32,0 1.28,1.28 0 0 1 0.52,0 c 0.13,0 0.43,0.11 0.49,0.26 0.06,0.15 0.18,0.3 0.29,0.09 a 0.7,0.7 0 0 1 0.42,-0.33 4.88,4.88 0 0 0 0.45,-0.23 0.61,0.61 0 0 1 0.5,-0.09 c 0.17,0.08 0.35,-0.24 0.45,-0.31 v 0 a 0.71,0.71 0 0 1 0,-0.26 1,1 0 0 0 -0.15,-0.37 c -0.07,-0.12 -0.14,-0.14 -0.08,-0.32 0.06,-0.18 0,-0.19 0,-0.39 0,-0.2 -0.09,-0.14 -0.08,-0.31 0.01,-0.17 0.07,-0.2 0.08,-0.31 0.01,-0.11 -0.07,-0.11 -0.11,-0.07 -0.04,0.04 0,-0.12 -0.06,-0.2 -0.06,-0.08 -0.13,-0.15 -0.06,-0.21 a 0.12,0.12 0 0 0 -0.06,-0.2 0.41,0.41 0 0 1 -0.31,-0.22 c -0.09,-0.16 0,-0.25 -0.17,-0.31 -0.17,-0.06 -0.37,-0.19 -0.32,-0.23 0.05,-0.04 0,-0.16 -0.05,-0.24 a 0.36,0.36 0 0 0 -0.34,-0.23 c -0.21,0 -0.24,-0.13 -0.34,-0.24 a 1.1,1.1 0 0 1 -0.28,-0.33 1.5,1.5 0 0 1 -0.05,-0.5 c 0,-0.11 0.08,-0.26 0,-0.34 -0.08,-0.08 0,0 -0.09,0 a 0.1,0.1 0 0 1 -0.18,0 c -0.06,-0.09 -0.29,-0.18 -0.32,-0.29 -0.03,-0.11 0,-0.14 -0.14,-0.18 -0.14,-0.04 -0.12,0.05 -0.07,0.1 a 0.16,0.16 0 0 1 0.07,0.17 0.17,0.17 0 0 0 0,0.18 c 0,0 0,0.1 0,0 0,-0.1 -0.09,-0.16 -0.14,-0.15 -0.05,0.01 0,0.06 -0.12,0 -0.12,-0.06 -0.07,-0.19 -0.12,-0.3 a 0.57,0.57 0 0 1 -0.07,-0.33 c 0,-0.1 0,-0.13 -0.06,-0.22 a 0.25,0.25 0 0 1 -0.1,-0.27 c 0,-0.11 0,-0.17 -0.08,-0.17 -0.08,0 -0.09,-0.05 -0.1,-0.11 -0.01,-0.06 0,0 -0.11,0 a 0.24,0.24 0 0 1 -0.17,-0.15 c 0,-0.09 -0.08,-0.24 0,-0.19 0.08,0.05 0.14,0.11 0.14,0.06 a 0.51,0.51 0 0 0 -0.2,-0.29 c -0.13,-0.1 -0.11,-0.06 -0.12,-0.11 a 0.07,0.07 0 0 0 -0.13,0 c 0,0 -0.1,0 -0.15,-0.1 -0.05,-0.1 -0.1,-0.1 -0.21,-0.1 -0.11,0 -0.1,0 -0.13,-0.08 -0.03,-0.08 -0.11,-0.07 -0.12,0 -0.01,0.07 -0.17,0 -0.18,-0.05 -0.01,-0.05 0.05,-0.2 0,-0.34 -0.05,-0.14 0,0 -0.11,0 -0.11,0 -0.28,0.05 -0.3,-0.09 -0.02,-0.14 -0.11,-0.08 -0.15,-0.15 -0.04,-0.07 -0.1,0 -0.16,0 -0.06,0 -0.38,-0.11 -0.36,-0.28 a 2.85,2.85 0 0 0 0,-0.33 c 0,-0.11 0,-0.17 0,-0.25 0,-0.08 -0.15,-0.07 -0.16,0 -0.01,0.07 -0.12,0 -0.08,-0.14 A 0.73,0.73 0 0 0 50,23 c 0,-0.13 -0.2,-0.45 -0.15,-0.54 a 0.14,0.14 0 0 0 -0.07,-0.21 0.62,0.62 0 0 1 -0.34,-0.29 c 0,-0.12 0,-0.3 -0.05,-0.47 a 0.58,0.58 0 0 1 -0.11,-0.45 c 0,-0.14 0,-0.17 0,-0.2 0,-0.03 0,-0.1 0,-0.15 0,-0.05 0.05,-0.09 -0.05,-0.19 A 1.93,1.93 0 0 0 48.85,20.21 C 48.7,20.13 48.77,20.09 48.77,20 c 0,-0.09 -0.1,-0.17 -0.19,-0.1 -0.09,0.07 -0.17,0 -0.21,0.07 -0.04,0.07 -0.09,0.16 -0.22,0.16 -0.13,0 -0.21,0 -0.2,-0.19 a 0.46,0.46 0 0 0 -0.1,-0.32 0.31,0.31 0 0 1 0,-0.28 0.47,0.47 0 0 0 0,-0.27 3.61,3.61 0 0 1 0,-0.42 c 0,-0.09 0,0 -0.08,0 -0.08,0 0,-0.12 0,-0.17 0,-0.05 -0.09,-0.08 -0.13,-0.13 -0.04,-0.05 -0.06,-0.17 -0.16,-0.17 -0.1,0 0,-0.14 0,-0.23 0,-0.09 0,-0.14 -0.07,-0.14 -0.07,0 -0.19,0 -0.2,-0.18 -0.01,-0.18 0,-0.24 0,-0.32 0,-0.08 0,-0.2 -0.09,-0.31 -0.09,-0.11 -0.21,-0.07 -0.15,-0.16 0.06,-0.09 0,-0.12 -0.08,-0.1 -0.08,0.02 -0.07,0.15 -0.21,0.18 -0.14,0.03 -0.14,0.13 -0.14,0.23 0,0.1 0,0.38 0,0.48 a 0.22,0.22 0 0 0 0,0.2 c 0,0 0,0.18 0,0.13 0,-0.05 -0.1,-0.08 -0.13,0 -0.03,0.08 -0.05,0.17 -0.07,0.21 -0.02,0.04 -0.07,0.17 0,0.2 0.07,0.03 0.18,0 0.17,0.11 -0.01,0.11 0,0.18 0,0.09 0,-0.09 -0.08,-0.09 -0.09,0 a 0.21,0.21 0 0 1 -0.09,0.17 c -0.07,0 -0.07,0.07 0,0.15 0.07,0.08 0.13,0.18 0.09,0.21 -0.04,0.03 -0.17,0 -0.18,0.15 -0.01,0.15 -0.06,0.38 0,0.45 A 0.31,0.31 0 0 1 46,20 a 0.76,0.76 0 0 0 0,0.33 c 0,0 0.08,0.16 0.09,0.27 0.01,0.11 -0.06,0.17 -0.11,0.26 a 1.38,1.38 0 0 0 -0.13,0.31 c 0,0.05 0,0.15 0,0.18 a 0.12,0.12 0 0 0 0,0.15 0.14,0.14 0 0 1 0,0.15 0.56,0.56 0 0 0 -0.12,0.25 c 0,0.1 -0.06,0.31 -0.17,0.36 -0.11,0.05 -0.09,0.22 -0.11,0.3 -0.02,0.08 -0.08,0.26 -0.2,0.32 -0.12,0.06 -0.43,0.23 -0.6,0.16 -0.17,-0.07 -0.39,-0.14 -0.43,-0.25 -0.04,-0.11 -0.26,0 -0.29,-0.15 -0.03,-0.15 -0.13,-0.36 -0.31,-0.4 A 1.56,1.56 0 0 1 43.03,22.08 L 42.84,22 v 9 h 2.61 v 2.91 h 6.91 a 1.06,1.06 0 0 0 0.25,-0.14"
       id="path4524" />
  </g>
  <g
     inkscape:groupmode="layer"
     id="layer9"
     inkscape:label="Layer 2"
     transform="translate(-119.70705,-17.573442)"
     style="display:inline" />
  <g
     id="_Group_"
     data-name="&lt;Group&gt;"
     transform="translate(-22.489999,-1.7900005)" />
</svg>
