<?xml version="1.0" encoding="UTF-8" standalone="no"?>
<svg
   xmlns:dc="http://purl.org/dc/elements/1.1/"
   xmlns:cc="http://creativecommons.org/ns#"
   xmlns:rdf="http://www.w3.org/1999/02/22-rdf-syntax-ns#"
   xmlns:svg="http://www.w3.org/2000/svg"
   xmlns="http://www.w3.org/2000/svg"
   xmlns:sodipodi="http://sodipodi.sourceforge.net/DTD/sodipodi-0.dtd"
   xmlns:inkscape="http://www.inkscape.org/namespaces/inkscape"
   id="Assets_class"
   data-name="Assets class"
   viewBox="0 0 53.04 53.039999"
   version="1.1"
   sodipodi:docname="justice_e.svg"
   inkscape:version="0.92.1 r15371"
   width="53.040001"
   height="53.040001">
  <metadata
     id="metadata13234">
    <rdf:RDF>
      <cc:Work
         rdf:about="">
        <dc:format>image/svg+xml</dc:format>
        <dc:type
           rdf:resource="http://purl.org/dc/dcmitype/StillImage" />
        <dc:title>Artboard 287</dc:title>
      </cc:Work>
    </rdf:RDF>
  </metadata>
  <sodipodi:namedview
     pagecolor="#ffffff"
     bordercolor="#666666"
     borderopacity="1"
     objecttolerance="10"
     gridtolerance="10"
     guidetolerance="10"
     inkscape:pageopacity="0"
     inkscape:pageshadow="2"
     inkscape:window-width="1920"
     inkscape:window-height="1001"
     id="namedview13232"
     showgrid="false"
     inkscape:zoom="15.24863"
     inkscape:cx="7.4397045"
     inkscape:cy="24.999765"
     inkscape:window-x="-9"
     inkscape:window-y="-9"
     inkscape:window-maximized="1"
     inkscape:current-layer="layer14"
     fit-margin-top="0"
     fit-margin-left="0"
     fit-margin-right="0"
     fit-margin-bottom="0" />
  <defs
     id="defs13204">
    <style
       id="style13202">.cls-1{fill:#f1563f;}.cls-2{fill:#fff;}.cls-3{font-size:13px;fill:#e1bebb;font-family:Helvetica, Helvetica;}.cls-4{letter-spacing:-0.01em;}.cls-5{letter-spacing:0em;}.cls-6{letter-spacing:-0.01em;}.cls-7{letter-spacing:0.01em;}</style>
    <style
       id="style13792">.cls-1{isolation:isolate;}.cls-2{opacity:0.7;mix-blend-mode:multiply;}.cls-3,.cls-5{fill:#fff;}.cls-4{fill:#009887;}.cls-5{font-size:13px;font-family:Helvetica-Bold, Helvetica Bold;font-weight:700;}.cls-6{letter-spacing:-0.01em;}.cls-7{letter-spacing:0em;}.cls-8{letter-spacing:-0.01em;}.cls-9{letter-spacing:0.01em;}</style>
  </defs>
  <title
     id="title13206">Artboard 287</title>
  <g
     inkscape:groupmode="layer"
     id="layer13"
     inkscape:label="Layer 1"
     transform="translate(-24.3,-2)">
    <g
       id="g13785">
      <g
         data-name="&lt;Group&gt;"
         id="_Group_">
        <circle
           id="circle13208"
           r="14.5"
           cy="25.5"
           cx="50.799999"
           class="cls-1"
           style="isolation:isolate;fill:#f1563f" />
        <circle
           id="circle13210"
           r="13.33"
           cy="25.5"
           cx="50.799999"
           class="cls-1"
           style="isolation:isolate;fill:#f1563f" />
      </g>
      <path
         id="path13213"
         d="m 44.87,21.44 2.57,6.18 h -1.05 -3 -0.76 -0.33 z m 11.82,0 2.57,6.18 H 59 h -0.76 -3 -1 z m -14.56,6.84 0.14,0.08 h 0.06 l 0.13,0.07 h 0.07 a 4.94,4.94 0 0 0 0.78,0.3 5.59,5.59 0 0 0 1.56,0.21 5.65,5.65 0 0 0 1.56,-0.21 5.12,5.12 0 0 0 0.78,-0.3 c 0.12,-0.06 0.25,-0.12 0.39,-0.21 A 3,3 0 0 0 48,28 v 0 -0.31 0 l -2.69,-6.48 h 0.39 c 0.52,0.06 1.08,0.11 1.7,0.15 1,0.07 1.94,0.1 3,0.11 -0.05,0.52 -0.1,1 -0.15,1.54 L 50.11,24.65 50,26.29 c 0,0.25 0,0.52 -0.07,0.81 v 0.29 l -0.06,0.54 c 0,0.31 0,0.58 0,0.83 a 8.12,8.12 0 0 0 0,0.83 c 0,0.41 0.09,0.81 0.16,1.2 h -0.35 a 6.89,6.89 0 0 0 -1.17,0.28 6,6 0 0 0 -0.59,0.23 6.47,6.47 0 0 0 -0.59,0.29 6.14,6.14 0 0 0 -0.59,0.37 4.56,4.56 0 0 0 -0.59,0.49 v 0 0.39 l 1.29,0.06 h 1.15 2.3 2.3 1.15 0.58 0.71 v -0.39 0 A 4.22,4.22 0 0 0 55.04,32.02 6.3,6.3 0 0 0 54.45,31.65 6.83,6.83 0 0 0 53.28,31.13 7.11,7.11 0 0 0 52,30.84 h -0.32 c 0.07,-0.39 0.12,-0.79 0.16,-1.21 0.04,-0.42 0,-0.57 0,-0.83 0,-0.26 0,-0.52 0,-0.83 0,-0.31 0,-0.36 -0.06,-0.53 -0.06,-0.17 0,-0.19 0,-0.29 0,-0.29 -0.05,-0.56 -0.07,-0.81 L 51.6,24.7 51.37,23 c 0,-0.51 -0.1,-1 -0.15,-1.54 1,0 2,0 2.94,-0.11 0.63,0 1.18,-0.09 1.7,-0.15 l 0.43,-0.05 -2.7,6.49 h -0.1 V 28 h 0.05 a 2.88,2.88 0 0 0 0.39,0.28 l 0.14,0.08 h 0.05 l 0.13,0.06 h 0.07 a 4.65,4.65 0 0 0 0.78,0.3 5.55,5.55 0 0 0 1.56,0.21 5.73,5.73 0 0 0 1.56,-0.21 5,5 0 0 0 0.78,-0.3 l 0.39,-0.21 a 3.06,3.06 0 0 0 0.4,-0.28 h 0.05 v -0.31 h -0.08 l -2.69,-6.48 h 0.22 l 0.4,0.05 h 0.26 0.13 a 1.25,1.25 0 0 0 0.45,0 2.14,2.14 0 0 0 0.43,-0.12 A 1.69,1.69 0 0 0 59.4,21 h 0.05 V 20.79 H 59.4 a 1.63,1.63 0 0 0 -0.43,-0.25 2.07,2.07 0 0 0 -0.43,-0.12 1.23,1.23 0 0 0 -0.45,0 H 57.96 57.7 l -0.4,0.05 -0.4,0.06 h -0.23 l -0.81,-0.1 c -0.52,-0.06 -1.08,-0.11 -1.7,-0.15 -0.93,-0.06 -1.88,-0.1 -2.91,-0.11 l 0.09,-0.76 c 0,-0.13 0,-0.26 0.06,-0.39 v -0.2 a 2.11,2.11 0 0 0 0,-0.32 1.9,1.9 0 0 0 0,-0.32 3.12,3.12 0 0 0 -0.16,-0.62 2.62,2.62 0 0 0 -0.13,-0.31 2.11,2.11 0 0 0 -0.2,-0.32 v -0.06 h -0.24 v 0.06 a 2.17,2.17 0 0 0 -0.2,0.32 2.7,2.7 0 0 0 -0.13,0.31 3.19,3.19 0 0 0 -0.16,0.62 2.16,2.16 0 0 0 0,0.32 2.52,2.52 0 0 0 0,0.32 v 0.19 c 0,0.14 0,0.27 0.06,0.4 v 0.3 l 0.06,0.46 c -1.06,0 -2,0 -3,0.11 -0.62,0 -1.18,0.09 -1.7,0.15 l -0.74,0.1 h -0.19 l -0.41,-0.06 -0.4,-0.05 H 43.6 43.47 a 1.24,1.24 0 0 0 -0.45,0 2,2 0 0 0 -0.43,0.12 1.6,1.6 0 0 0 -0.44,0.25 H 42.1 V 21 h 0.05 a 1.61,1.61 0 0 0 0.44,0.25 2.07,2.07 0 0 0 0.43,0.12 1.27,1.27 0 0 0 0.45,0 h 0.13 0.26 l 0.4,-0.05 h 0.14 l -2.68,6.45 h -0.1 V 28 28 a 3.1,3.1 0 0 0 0.4,0.28"
         class="cls-2"
         inkscape:connector-curvature="0"
         style="opacity:0.95;mix-blend-mode:multiply;fill:#ffffff" />
    </g>
    <g
       id="g13826"
       class="cls-1"
       style="isolation:isolate"
       transform="translate(33.682206,-79.34551)" />
    <path
       id="path13866"
       d="m 44.87,21.44 2.57,6.18 h -1.05 -3 -0.76 -0.33 z m 11.82,0 2.57,6.18 H 59 h -0.76 -3 -1 z m -14.56,6.84 0.14,0.08 h 0.06 l 0.13,0.07 h 0.07 a 4.94,4.94 0 0 0 0.78,0.3 5.59,5.59 0 0 0 1.56,0.21 5.65,5.65 0 0 0 1.56,-0.21 5.12,5.12 0 0 0 0.78,-0.3 c 0.12,-0.06 0.25,-0.12 0.39,-0.21 A 3,3 0 0 0 48,28 v 0 -0.31 0 l -2.69,-6.48 h 0.39 c 0.52,0.06 1.08,0.11 1.7,0.15 1,0.07 1.94,0.1 3,0.11 -0.05,0.52 -0.1,1 -0.15,1.54 L 50.11,24.65 50,26.29 c 0,0.25 0,0.52 -0.07,0.81 v 0.29 l -0.06,0.54 c 0,0.31 0,0.58 0,0.83 a 8.12,8.12 0 0 0 0,0.83 c 0,0.41 0.09,0.81 0.16,1.2 h -0.35 a 6.89,6.89 0 0 0 -1.17,0.28 6,6 0 0 0 -0.59,0.23 6.47,6.47 0 0 0 -0.59,0.29 6.14,6.14 0 0 0 -0.59,0.37 4.56,4.56 0 0 0 -0.59,0.49 v 0 0.39 l 1.29,0.06 h 1.15 2.3 2.3 1.15 0.58 0.71 v -0.39 0 A 4.22,4.22 0 0 0 55.04,32.02 6.3,6.3 0 0 0 54.45,31.65 6.83,6.83 0 0 0 53.28,31.13 7.11,7.11 0 0 0 52,30.84 h -0.32 c 0.07,-0.39 0.12,-0.79 0.16,-1.21 0.04,-0.42 0,-0.57 0,-0.83 0,-0.26 0,-0.52 0,-0.83 0,-0.31 0,-0.36 -0.06,-0.53 -0.06,-0.17 0,-0.19 0,-0.29 0,-0.29 -0.05,-0.56 -0.07,-0.81 L 51.6,24.7 51.37,23 c 0,-0.51 -0.1,-1 -0.15,-1.54 1,0 2,0 2.94,-0.11 0.63,0 1.18,-0.09 1.7,-0.15 l 0.43,-0.05 -2.7,6.49 h -0.1 V 28 h 0.05 a 2.88,2.88 0 0 0 0.39,0.28 l 0.14,0.08 h 0.05 l 0.13,0.06 h 0.07 a 4.65,4.65 0 0 0 0.78,0.3 5.55,5.55 0 0 0 1.56,0.21 5.73,5.73 0 0 0 1.56,-0.21 5,5 0 0 0 0.78,-0.3 l 0.39,-0.21 a 3.06,3.06 0 0 0 0.4,-0.28 h 0.05 v -0.31 h -0.08 l -2.69,-6.48 h 0.22 l 0.4,0.05 h 0.26 0.13 a 1.25,1.25 0 0 0 0.45,0 2.14,2.14 0 0 0 0.43,-0.12 A 1.69,1.69 0 0 0 59.4,21 h 0.05 V 20.79 H 59.4 a 1.63,1.63 0 0 0 -0.43,-0.25 2.07,2.07 0 0 0 -0.43,-0.12 1.23,1.23 0 0 0 -0.45,0 H 57.96 57.7 l -0.4,0.05 -0.4,0.06 h -0.23 l -0.81,-0.1 c -0.52,-0.06 -1.08,-0.11 -1.7,-0.15 -0.93,-0.06 -1.88,-0.1 -2.91,-0.11 l 0.09,-0.76 c 0,-0.13 0,-0.26 0.06,-0.39 v -0.2 a 2.11,2.11 0 0 0 0,-0.32 1.9,1.9 0 0 0 0,-0.32 3.12,3.12 0 0 0 -0.16,-0.62 2.62,2.62 0 0 0 -0.13,-0.31 2.11,2.11 0 0 0 -0.2,-0.32 v -0.06 h -0.24 v 0.06 a 2.17,2.17 0 0 0 -0.2,0.32 2.7,2.7 0 0 0 -0.13,0.31 3.19,3.19 0 0 0 -0.16,0.62 2.16,2.16 0 0 0 0,0.32 2.52,2.52 0 0 0 0,0.32 v 0.19 c 0,0.14 0,0.27 0.06,0.4 v 0.3 l 0.06,0.46 c -1.06,0 -2,0 -3,0.11 -0.62,0 -1.18,0.09 -1.7,0.15 l -0.74,0.1 h -0.19 l -0.41,-0.06 -0.4,-0.05 H 43.6 43.47 a 1.24,1.24 0 0 0 -0.45,0 2,2 0 0 0 -0.43,0.12 1.6,1.6 0 0 0 -0.44,0.25 H 42.1 V 21 h 0.05 a 1.61,1.61 0 0 0 0.44,0.25 2.07,2.07 0 0 0 0.43,0.12 1.27,1.27 0 0 0 0.45,0 h 0.13 0.26 l 0.4,-0.05 h 0.14 l -2.68,6.45 h -0.1 V 28 28 a 3.1,3.1 0 0 0 0.4,0.28"
       class="cls-3"
       inkscape:connector-curvature="0"
       style="display:inline;isolation:isolate;fill:#ffffff" />
  </g>
  <g
     inkscape:groupmode="layer"
     id="layer14"
     inkscape:label="Layer 2"
     style="display:inline"
     transform="translate(-24.3,-2)" />
</svg>
