<?xml version="1.0" encoding="UTF-8" standalone="no"?>
<svg
   xmlns:dc="http://purl.org/dc/elements/1.1/"
   xmlns:cc="http://creativecommons.org/ns#"
   xmlns:rdf="http://www.w3.org/1999/02/22-rdf-syntax-ns#"
   xmlns:svg="http://www.w3.org/2000/svg"
   xmlns="http://www.w3.org/2000/svg"
   xmlns:sodipodi="http://sodipodi.sourceforge.net/DTD/sodipodi-0.dtd"
   xmlns:inkscape="http://www.inkscape.org/namespaces/inkscape"
   id="Assets_class"
   data-name="Assets class"
   viewBox="0 0 53.040002 53.039999"
   version="1.1"
   sodipodi:docname="social_e.svg"
   inkscape:version="0.92.1 r15371"
   width="53.040001"
   height="53.040001">
  <metadata
     id="metadata4513">
    <rdf:RDF>
      <cc:Work
         rdf:about="">
        <dc:format>image/svg+xml</dc:format>
        <dc:type
           rdf:resource="http://purl.org/dc/dcmitype/StillImage" />
        <dc:title>Artboard 289</dc:title>
      </cc:Work>
    </rdf:RDF>
  </metadata>
  <sodipodi:namedview
     pagecolor="#ffffff"
     bordercolor="#666666"
     borderopacity="1"
     objecttolerance="10"
     gridtolerance="10"
     guidetolerance="10"
     inkscape:pageopacity="0"
     inkscape:pageshadow="2"
     inkscape:window-width="1920"
     inkscape:window-height="1001"
     id="namedview4511"
     showgrid="false"
     inkscape:zoom="13.199544"
     inkscape:cx="2.219929"
     inkscape:cy="20.647827"
     inkscape:window-x="-9"
     inkscape:window-y="-9"
     inkscape:window-maximized="1"
     inkscape:current-layer="layer2"
     fit-margin-top="0"
     fit-margin-left="0"
     fit-margin-right="0"
     fit-margin-bottom="0" />
  <defs
     id="defs4487">
    <style
       id="style4485">.cls-1{fill:#f1563f;}.cls-2{fill:#fff;}.cls-3{font-size:13px;fill:#e1bebb;font-family:Helvetica, Helvetica;}.cls-4{letter-spacing:0.01em;}.cls-5{letter-spacing:0em;}</style>
    <style
       id="style4517">.cls-1{isolation:isolate;}.cls-2{opacity:0.7;mix-blend-mode:multiply;}.cls-3,.cls-5{fill:#fff;}.cls-4{fill:#009887;}.cls-5{font-size:13px;font-family:Helvetica-Bold, Helvetica Bold;font-weight:700;}.cls-6{letter-spacing:0.01em;}.cls-7{letter-spacing:0em;}</style>
  </defs>
  <title
     id="title4489">Artboard 289</title>
  <g
     id="g4576"
     transform="translate(-34.400111,-38.327946)">
    <g
       id="g4581"
       transform="translate(-7.7141584,35.535557)"
       style="fill:#ffffff">
      <path
         class="cls-2"
         d="m 78.251099,31.088577 h -19.27 a 0.27,0.27 0 0 0 -0.27,0.27 v 0.42 a 0.27,0.27 0 0 0 0.27,0.27 h 19.27 a 0.27,0.27 0 0 0 0.27,-0.27 v -0.42 a 0.27,0.27 0 0 0 -0.27,-0.27"
         id="path4496"
         inkscape:connector-curvature="0"
         style="opacity:0.7;mix-blend-mode:multiply;fill:#ffffff" />
      <path
         class="cls-2"
         d="m 59.761099,22.468577 a 0.27,0.27 0 0 0 0.36,0.12 l 8.5,-4.34 8.62,4.28 a 0.27,0.27 0 0 0 0.36,-0.12 l 0.14,-0.29 a 0.27,0.27 0 0 0 -0.12,-0.36 l -8.8,-4.36 h -0.07 a 0.27,0.27 0 0 0 -0.27,0 l -8.76,4.45 a 0.27,0.27 0 0 0 -0.12,0.36 z"
         id="path4498"
         inkscape:connector-curvature="0"
         style="opacity:0.7;mix-blend-mode:multiply;fill:#ffffff" />
      <path
         class="cls-2"
         d="m 69.541099,22.398577 a 0.27,0.27 0 0 1 -0.27,0.27 h -1.31 a 0.27,0.27 0 0 1 -0.27,-0.27 v -1.31 a 0.27,0.27 0 0 1 0.27,-0.27 h 1.31 a 0.27,0.27 0 0 1 0.27,0.27 z m -1.62,3.52 a 0.27,0.27 0 0 1 -0.27,0.27 h -1.56 a 0.27,0.27 0 0 1 -0.27,-0.27 v -1.56 a 0.27,0.27 0 0 1 0.27,-0.27 h 1.56 a 0.27,0.27 0 0 1 0.27,0.27 z m 0,2.56 a 0.27,0.27 0 0 1 -0.27,0.27 h -1.56 a 0.27,0.27 0 0 1 -0.27,-0.27 v -1.56 a 0.27,0.27 0 0 1 0.27,-0.27 h 1.56 a 0.27,0.27 0 0 1 0.27,0.27 z m -2.73,-2.56 a 0.27,0.27 0 0 1 -0.27,0.27 h -1.56 a 0.27,0.27 0 0 1 -0.27,-0.27 v -1.56 a 0.27,0.27 0 0 1 0.27,-0.27 h 1.56 a 0.27,0.27 0 0 1 0.27,0.27 z m 0,2.56 a 0.27,0.27 0 0 1 -0.27,0.27 h -1.56 a 0.27,0.27 0 0 1 -0.27,-0.27 v -1.56 a 0.27,0.27 0 0 1 0.27,-0.27 h 1.56 a 0.27,0.27 0 0 1 0.27,0.27 z m 9,2.11 h 2.22 a 0.27,0.27 0 0 0 0.27,-0.27 v -7.07 a 0.47,0.47 0 0 0 -0.24,-0.39 l -7.57,-3.75 a 0.62,0.62 0 0 0 -0.48,0 l -7.57,3.75 a 0.47,0.47 0 0 0 -0.28,0.39 v 7.08 a 0.27,0.27 0 0 0 0.27,0.27 h 9 a 0.27,0.27 0 0 0 0.27,-0.27 v -6 a 0.27,0.27 0 0 1 0.27,-0.27 h 3.24 a 0.27,0.27 0 0 1 0.27,0.27 v 6 a 0.27,0.27 0 0 0 0.27,0.27"
         id="path4500"
         inkscape:connector-curvature="0"
         style="opacity:0.7;mix-blend-mode:multiply;fill:#ffffff" />
    </g>
  </g>
  <g
     inkscape:groupmode="layer"
     id="layer1"
     inkscape:label="Layer 1"
     transform="translate(-10.608901,-0.1514242)"
     style="display:inline">
    <g
       transform="translate(-0.642846,-1.8213978)"
       data-name="&lt;Group&gt;"
       id="_Group_">
      <circle
         style="isolation:isolate;fill:#f1563f"
         id="circle4491"
         r="14.5"
         cy="25.5"
         cx="37.759998"
         class="cls-1" />
      <circle
         style="isolation:isolate;fill:#f1563f"
         id="circle4493"
         r="13.33"
         cy="25.5"
         cx="37.759998"
         class="cls-1" />
    </g>
    <g
       transform="translate(-0.651099,-1.8485758)"
       style="isolation:isolate"
       id="g4706">
      <path
         id="path4700"
         d="M 47.71,30.84 H 28.44 a 0.27,0.27 0 0 0 -0.27,0.27 v 0.42 a 0.27,0.27 0 0 0 0.27,0.27 h 19.27 a 0.27,0.27 0 0 0 0.27,-0.27 v -0.42 a 0.27,0.27 0 0 0 -0.27,-0.27"
         class="cls-3"
         inkscape:connector-curvature="0"
         style="fill:#ffffff" />
      <path
         id="path4702"
         d="m 29.22,22.22 a 0.27,0.27 0 0 0 0.36,0.12 l 8.5,-4.34 8.62,4.28 a 0.27,0.27 0 0 0 0.36,-0.12 l 0.14,-0.29 a 0.27,0.27 0 0 0 -0.12,-0.36 l -8.8,-4.36 h -0.07 a 0.27,0.27 0 0 0 -0.27,0 l -8.76,4.45 a 0.27,0.27 0 0 0 -0.12,0.36 z"
         class="cls-3"
         inkscape:connector-curvature="0"
         style="fill:#ffffff" />
      <path
         id="path4704"
         d="m 39,22.15 a 0.27,0.27 0 0 1 -0.27,0.27 h -1.31 a 0.27,0.27 0 0 1 -0.27,-0.27 v -1.31 a 0.27,0.27 0 0 1 0.27,-0.27 h 1.31 A 0.27,0.27 0 0 1 39,20.84 Z m -1.62,3.52 a 0.27,0.27 0 0 1 -0.27,0.27 h -1.56 a 0.27,0.27 0 0 1 -0.27,-0.27 v -1.56 a 0.27,0.27 0 0 1 0.27,-0.27 h 1.56 a 0.27,0.27 0 0 1 0.27,0.27 z m 0,2.56 a 0.27,0.27 0 0 1 -0.27,0.27 h -1.56 a 0.27,0.27 0 0 1 -0.27,-0.27 v -1.56 a 0.27,0.27 0 0 1 0.27,-0.27 h 1.56 a 0.27,0.27 0 0 1 0.27,0.27 z m -2.73,-2.56 a 0.27,0.27 0 0 1 -0.27,0.27 h -1.56 a 0.27,0.27 0 0 1 -0.27,-0.27 v -1.56 a 0.27,0.27 0 0 1 0.27,-0.27 h 1.56 a 0.27,0.27 0 0 1 0.27,0.27 z m 0,2.56 a 0.27,0.27 0 0 1 -0.27,0.27 h -1.56 a 0.27,0.27 0 0 1 -0.27,-0.27 v -1.56 a 0.27,0.27 0 0 1 0.27,-0.27 h 1.56 a 0.27,0.27 0 0 1 0.27,0.27 z m 9,2.11 h 2.22 a 0.27,0.27 0 0 0 0.27,-0.27 V 23 A 0.47,0.47 0 0 0 45.9,22.61 l -7.57,-3.75 a 0.62,0.62 0 0 0 -0.48,0 l -7.57,3.75 A 0.47,0.47 0 0 0 30,23 v 7.08 a 0.27,0.27 0 0 0 0.27,0.27 h 9 a 0.27,0.27 0 0 0 0.27,-0.27 v -6 a 0.27,0.27 0 0 1 0.27,-0.27 h 3.24 a 0.27,0.27 0 0 1 0.27,0.27 v 6 a 0.27,0.27 0 0 0 0.27,0.27"
         class="cls-3"
         inkscape:connector-curvature="0"
         style="fill:#ffffff" />
    </g>
  </g>
  <g
     inkscape:groupmode="layer"
     id="layer2"
     inkscape:label="Layer 2"
     transform="translate(-10.608901,-0.1514242)"
     style="display:inline">
    <g
       id="g4547"
       class="cls-1"
       transform="translate(-0.651099,-1.8485758)"
       style="isolation:isolate">
      <g
         data-name="Selected Assets Classes"
         id="Selected_Assets_Classes" />
    </g>
  </g>
</svg>
