<svg width="54mm" height="93.7mm" version="1.1" viewBox="0 0 54 93.7" xmlns="http://www.w3.org/2000/svg">
 <defs>
  <style>.cls-1{fill:#6a0832;}.cls-2{fill:none;stroke:#00a081;stroke-miterlimit:10;}.cls-3{fill:#6d1036;}.cls-4{fill:#fff;}</style>
 </defs>
 <g transform="translate(-68.3 -87.6)">
  <rect class="cls-3" transform="matrix(.265 0 0 .265 68.3 87.7)" x="39.6" width="1" height="354" fill="#6d1036"/>
 </g>
 <g transform="translate(-68.3 -87.6)">
  <g transform="matrix(.265 0 0 .265 68.3 87.7)">
   <rect class="cls-1" y="-.01" width="204" height="354" fill="#6a0832"/>
   <g fill="#6d1036">
    <polygon class="cls-3" points="195 0.01 194 0.01 204 7.25 204 6.03"/>
    <polygon class="cls-3" points="5.76 354 0 350 0 351 4.02 354"/>
    <polygon class="cls-3" points="87.1 354 0 292 0 294 85.4 354"/>
    <rect class="cls-3" x="63" y="-.08" width="1" height="354"/>
    <rect class="cls-3" x="55.2" y="-.03" width="1" height="354"/>
    <polygon class="cls-3" points="60 354 0 312 0 313 58.3 354"/>
    <polygon class="cls-3" points="46.4 354 0 321 0 322 44.7 354"/>
    <polygon class="cls-3" points="32.9 354 0 331 0 332 31.2 354"/>
    <polygon class="cls-3" points="19.3 354 0 340 0 342 17.6 354"/>
    <rect class="cls-3" x="8.35" width="1" height="354"/>
    <polygon class="cls-3" points="73.6 354 0 302 0 303 71.8 354"/>
    <rect class="cls-3" x="141" y="-.06" width="1" height="354"/>
    <rect class="cls-3" x="133" y="-.01" width="1" height="354"/>
    <polygon class="cls-3" points="141 354 0 254 0 255 140 354"/>
    <rect class="cls-3" x="126" y="-.06" width="1" height="354"/>
    <polygon class="cls-3" points="128 354 0 264 0 265 126 354"/>
    <polygon class="cls-3" points="114 354 0 273 0 275 113 354"/>
    <polygon class="cls-3" points="101 354 0 283 0 284 99 354"/>
    <rect class="cls-3" x="78.7" y="-.03" width="1" height="354"/>
    <rect class="cls-3" x="86.5" y=".01" width="1" height="354"/>
    <rect class="cls-3" x="94.3" y="-.03" width="1" height="354"/>
    <rect class="cls-3" x="70.8" y="-.03" width="1" height="354"/>
    <rect class="cls-3" x="118" y="-.01" width="1" height="354"/>
    <rect class="cls-3" x="102" y=".09" width="1" height="354"/>
    <rect class="cls-3" x="110" y="-.06" width="1" height="354"/>
    <polygon class="cls-3" points="182 354 0 226 0 227 180 354"/>
    <rect class="cls-3" x="172" y="-.08" width="1" height="354"/>
    <rect class="cls-3" x="165" y=".06" width="1" height="354"/>
    <polygon class="cls-3" points="169 354 0 235 0 236 167 354"/>
    <rect class="cls-3" x="157" y="-.06" width="1" height="354"/>
    <polygon class="cls-3" points="155 354 0 245 0 246 153 354"/>
    <rect class="cls-3" x="149" y="-.01" width="1" height="354"/>
    <polygon class="cls-3" points="196 354 0 216 0 217 194 354"/>
    <rect class="cls-3" x="188" y="-.08" width="1" height="354"/>
    <rect class="cls-3" x="180" y="-.03" width="1" height="354"/>
    <rect class="cls-3" x="196" y="-.03" width="1" height="354"/>
    <polygon class="cls-3" points="204 121 32.7 0.01 30.9 0.01 204 122"/>
    <polygon class="cls-3" points="204 111 46.2 0.01 44.5 0.01 204 112"/>
    <polygon class="cls-3" points="204 102 59.8 0.01 58 0.01 204 103"/>
    <polygon class="cls-3" points="204 92.1 73.4 0.01 71.6 0.01 204 93.3"/>
    <polygon class="cls-3" points="204 82.5 86.9 0.01 85.2 0.01 204 83.7"/>
    <polygon class="cls-3" points="204 73 100 0.01 98.8 0.01 204 74.2"/>
    <polygon class="cls-3" points="204 63.4 114 0.01 112 0.01 204 64.6"/>
    <polygon class="cls-3" points="204 53.8 128 0.01 126 0.01 204 55.1"/>
    <polygon class="cls-3" points="204 44.3 141 0.01 139 0.01 204 45.5"/>
    <polygon class="cls-3" points="204 34.7 155 0.01 153 0.01 204 36"/>
    <polygon class="cls-3" points="204 25.2 168 0.01 167 0.01 204 26.4"/>
    <polygon class="cls-3" points="204 15.6 182 0.01 180 0.01 204 16.8"/>
    <polygon class="cls-3" points="204 197 0 53.5 0 54.7 204 198"/>
    <polygon class="cls-3" points="204 188 0 43.9 0 45.1 204 189"/>
    <polygon class="cls-3" points="204 178 0 34.3 0 35.6 204 179"/>
    <polygon class="cls-3" points="204 169 0 24.8 0 26 204 170"/>
    <polygon class="cls-3" points="204 159 0 15.2 0 16.4 204 160"/>
    <polygon class="cls-3" points="204 149 0 5.67 0 6.89 204 151"/>
    <polygon class="cls-3" points="204 130 19.1 0.01 17.4 0.01 204 132"/>
    <polygon class="cls-3" points="204 226 0 82.1 0 83.4 204 227"/>
    <polygon class="cls-3" points="204 216 0 72.6 0 73.8 204 218"/>
    <polygon class="cls-3" points="204 207 0 63 0 64.2 204 208"/>
    <polygon class="cls-3" points="204 302 0 159 0 160 204 304"/>
    <polygon class="cls-3" points="204 293 0 149 0 150 204 294"/>
    <polygon class="cls-3" points="204 283 0 140 0 141 204 285"/>
    <polygon class="cls-3" points="204 274 0 130 0 131 204 275"/>
    <polygon class="cls-3" points="204 264 0 120 0 122 204 265"/>
    <polygon class="cls-3" points="204 255 0 111 0 112 204 256"/>
    <polygon class="cls-3" points="204 245 0 101 0 102 204 246"/>
    <polygon class="cls-3" points="204 235 0 91.7 0 92.9 204 237"/>
    <polygon class="cls-3" points="204 341 0 197 0 198 204 342"/>
    <polygon class="cls-3" points="204 331 0 187 0 189 204 332"/>
    <polygon class="cls-3" points="204 322 0 178 0 179 204 323"/>
    <polygon class="cls-3" points="204 312 0 168 0 169 204 313"/>
    <polygon class="cls-3" points="204 350 0 206 0 208 204 351"/>
    <rect class="cls-3" x="47.4" width="1" height="354"/>
    <rect class="cls-3" x="39.6" y="3.78e-6" width="1" height="354"/>
    <rect class="cls-3" x="31.8" width="1" height="354"/>
    <rect class="cls-3" x="24" width="1" height="354"/>
    <rect class="cls-3" x="16.2" width="1" height="354"/>
    <polygon class="cls-3" points="3.78 0 204 141 204 140 5.51 0"/>
   </g>
   <g fill="#fff">
    <path class="cls-4" d="m13.3 15h-1.74l2.82-7.9h1.9l2.79 7.9h-1.8l-0.51-1.63h-2.91zm1-3h2l-1-3.12z"/>
    <path class="cls-4" d="m23.3 10.9c-0.07-0.37-0.2-0.77-1-0.77s-0.95 0.32-0.95 0.57c0 0.92 3.66 0.25 3.66 2.41 0 1.71-1.65 2-2.56 2-1.33 0-2.77-0.46-2.82-2h1.58c0 0.5 0.31 0.86 1.28 0.86 0.79 0 1-0.38 1-0.6 0-1-3.63-0.24-3.63-2.43 0-0.86 0.54-2 2.37-2 1.14 0 2.51 0.29 2.63 1.94z"/>
    <path class="cls-4" d="m29.4 10.9c-0.07-0.37-0.2-0.77-1-0.77s-0.95 0.32-0.95 0.57c0 0.92 3.66 0.25 3.66 2.41 0 1.71-1.65 2-2.56 2-1.33 0-2.77-0.46-2.82-2h1.58c0 0.5 0.31 0.86 1.28 0.86 0.79 0 1-0.38 1-0.6 0-1-3.63-0.24-3.63-2.43 0-0.86 0.54-2 2.37-2 1.14 0 2.51 0.29 2.63 1.94z"/>
    <path class="cls-4" d="m37.2 13.3a2.54 2.54 0 0 1-2.58 1.87c-1.65 0-2.92-0.79-2.92-3.2a2.72 2.72 0 0 1 2.81-3c1.16 0 2.75 0.55 2.75 3.22v0.27h-4c0 0.44 0.13 1.43 1.38 1.43a1 1 0 0 0 1-0.64zm-1.52-1.79a1.18 1.18 0 0 0-1.19-1.23c-0.73 0-1.11 0.46-1.2 1.23z"/>
    <path class="cls-4" d="m40.1 9.13h1v1.1h-1v3.18c0 0.34 0 0.47 0.64 0.47h0.32v1.12h-0.93c-1.33 0-1.57-0.51-1.57-1.27v-3.5h-0.79v-1.1h0.79v-1.58h1.54z"/>
    <path class="cls-4" d="m50.1 12.8a2.5 2.5 0 0 1-2.67 2.29c-2.2 0-2.71-1.68-2.71-2.92 0-1.89 0.83-3.25 2.81-3.25a2.39 2.39 0 0 1 2.58 2.24h-1.56a1 1 0 0 0-1-0.95c-1 0-1.22 1-1.22 1.69s0 1.9 1.19 1.9a1.07 1.07 0 0 0 1-1z"/>
    <path class="cls-4" d="m52.5 15h-1.54v-7.91h1.54z"/>
    <path class="cls-4" d="m58.8 13.8c0 0.69 0.15 0.85 0.34 0.91v0.25h-1.66a2.59 2.59 0 0 1-0.14-0.69 2.38 2.38 0 0 1-1.89 0.85 1.64 1.64 0 0 1-1.78-1.71 1.79 1.79 0 0 1 1.71-1.87l1.39-0.21c0.24 0 0.54-0.13 0.54-0.46 0-0.65-0.62-0.68-1-0.68a0.83 0.83 0 0 0-0.95 0.81h-1.52c0.18-1.79 1.42-2 2.62-2 0.83 0 2.33 0.25 2.33 1.69zm-1.51-1.71a2.24 2.24 0 0 1-1 0.32c-0.57 0.1-1 0.24-1 0.88a0.67 0.67 0 0 0 0.71 0.7 1.27 1.27 0 0 0 1.38-1.15z"/>
    <path class="cls-4" d="m63.4 10.9c-0.07-0.37-0.2-0.77-1-0.77s-0.95 0.32-0.95 0.57c0 0.92 3.66 0.25 3.66 2.41 0 1.71-1.65 2-2.56 2-1.33 0-2.77-0.46-2.82-2h1.58c0 0.5 0.31 0.86 1.28 0.86 0.79 0 1-0.38 1-0.6 0-1-3.63-0.24-3.63-2.43 0-0.86 0.54-2 2.37-2 1.14 0 2.51 0.29 2.63 1.94z"/>
    <path class="cls-4" d="m69.6 10.9c-0.07-0.37-0.2-0.77-1-0.77s-0.95 0.32-0.95 0.57c0 0.92 3.66 0.25 3.66 2.41 0 1.71-1.65 2-2.56 2-1.33 0-2.77-0.46-2.82-2h1.58c0 0.5 0.31 0.86 1.28 0.86 0.79 0 1-0.38 1-0.6 0-1-3.63-0.24-3.63-2.43 0-0.86 0.54-2 2.37-2 1.14 0 2.51 0.29 2.63 1.94z"/>
    <path class="cls-4" d="m77.4 13.3a2.54 2.54 0 0 1-2.58 1.87c-1.65 0-2.92-0.79-2.92-3.2a2.72 2.72 0 0 1 2.81-2.94c1.16 0 2.75 0.55 2.75 3.22v0.27h-4c0 0.44 0.13 1.43 1.38 1.43a1 1 0 0 0 1-0.64zm-1.52-1.79a1.18 1.18 0 0 0-1.19-1.23c-0.73 0-1.11 0.46-1.2 1.23z"/>
    <path class="cls-4" d="m81.8 10.9c-0.07-0.37-0.2-0.77-1-0.77s-0.95 0.32-0.95 0.57c0 0.92 3.66 0.25 3.66 2.41 0 1.71-1.65 2-2.56 2-1.33 0-2.77-0.46-2.82-2h1.58c0 0.5 0.31 0.86 1.28 0.86 0.79 0 1-0.38 1-0.6 0-1-3.63-0.24-3.63-2.43 0-0.86 0.54-2 2.37-2 1.14 0 2.51 0.29 2.63 1.94z"/>
    <rect class="cls-4" x="12.2" y="18.6" width="15" height=".99"/>
   </g>
  </g>
 </g>
</svg>
