<?xml version="1.0" encoding="UTF-8" standalone="no"?>
<!-- Created with Inkscape (http://www.inkscape.org/) -->

<svg
   xmlns:dc="http://purl.org/dc/elements/1.1/"
   xmlns:cc="http://creativecommons.org/ns#"
   xmlns:rdf="http://www.w3.org/1999/02/22-rdf-syntax-ns#"
   xmlns:svg="http://www.w3.org/2000/svg"
   xmlns="http://www.w3.org/2000/svg"
   xmlns:sodipodi="http://sodipodi.sourceforge.net/DTD/sodipodi-0.dtd"
   xmlns:inkscape="http://www.inkscape.org/namespaces/inkscape"
   width="14.603039mm"
   height="16.862137mm"
   viewBox="0 0 14.603039 16.862137"
   version="1.1"
   id="svg8"
   inkscape:version="0.92.2 (5c3e80d, 2017-08-06)"
   sodipodi:docname="cross.svg"
   inkscape:export-filename="C:\wamp64\www\dilgp3\images\buttons\icons\cross.png"
   inkscape:export-xdpi="95.599998"
   inkscape:export-ydpi="95.599998">
  <defs
     id="defs2">
    <style
       id="style8167">.cls-1{fill:#f1563f;}.cls-2{fill:#fff;}.cls-3{font-size:13px;fill:#e1bebb;font-family:Helvetica, Helvetica;}.cls-4{letter-spacing:0em;}.cls-5{letter-spacing:0.02em;}.cls-6{letter-spacing:-0.01em;}.cls-7{letter-spacing:0em;}.cls-8{letter-spacing:-0.01em;}.cls-9{letter-spacing:-0.01em;}.cls-10{letter-spacing:0em;}.cls-11{letter-spacing:0em;}</style>
    <style
       id="style8834">.cls-1{isolation:isolate;}.cls-2{opacity:0.7;mix-blend-mode:multiply;}.cls-3,.cls-5{fill:#fff;}.cls-4{fill:#009887;}.cls-5{font-size:13px;font-family:Helvetica-Bold, Helvetica Bold;font-weight:700;}.cls-6{letter-spacing:0em;}.cls-7{letter-spacing:0.02em;}.cls-8{letter-spacing:-0.01em;}.cls-9{letter-spacing:0em;}.cls-10{letter-spacing:-0.01em;}.cls-11{letter-spacing:-0.01em;}.cls-12{letter-spacing:0em;}.cls-13{letter-spacing:0em;}</style>
    <style
       id="style10273">.cls-1{fill:#f1563f;}.cls-2{fill:#fff;}.cls-3{font-size:13px;fill:#e1bebb;font-family:Helvetica, Helvetica;}.cls-4{letter-spacing:0em;}.cls-5{letter-spacing:-0.01em;}.cls-6{letter-spacing:-0.01em;}.cls-7{letter-spacing:0em;}.cls-8{letter-spacing:0em;}.cls-9{letter-spacing:0em;}</style>
    <style
       id="style10906">.cls-1{isolation:isolate;}.cls-2{opacity:0.7;mix-blend-mode:multiply;}.cls-3,.cls-5{fill:#fff;}.cls-4{fill:#009887;}.cls-5{font-size:13px;font-family:Helvetica-Bold, Helvetica Bold;font-weight:700;}.cls-6{letter-spacing:0em;}.cls-7{letter-spacing:-0.01em;}.cls-8{letter-spacing:-0.01em;}.cls-9{letter-spacing:0em;}.cls-10{letter-spacing:0em;}.cls-11{letter-spacing:0em;}</style>
    <style
       id="style11956">.cls-1{fill:#f1563f;}.cls-2{fill:#fff;}.cls-3{font-size:13px;fill:#e1bebb;font-family:Helvetica, Helvetica;}.cls-4{letter-spacing:-0.01em;}</style>
    <style
       id="style12531">.cls-1{isolation:isolate;}.cls-2{opacity:0.7;mix-blend-mode:multiply;}.cls-3,.cls-5{fill:#fff;}.cls-4{fill:#009887;}.cls-5{font-size:13px;font-family:Helvetica-Bold, Helvetica Bold;font-weight:700;}.cls-6{letter-spacing:-0.01em;}</style>
    <style
       id="style11956-4">.cls-1{fill:#f1563f;}.cls-2{fill:#fff;}.cls-3{font-size:13px;fill:#e1bebb;font-family:Helvetica, Helvetica;}.cls-4{letter-spacing:-0.01em;}</style>
    <style
       id="style12531-7">.cls-1{isolation:isolate;}.cls-2{opacity:0.7;mix-blend-mode:multiply;}.cls-3,.cls-5{fill:#fff;}.cls-4{fill:#009887;}.cls-5{font-size:13px;font-family:Helvetica-Bold, Helvetica Bold;font-weight:700;}.cls-6{letter-spacing:-0.01em;}</style>
    <style
       id="style10273-9">.cls-1{fill:#f1563f;}.cls-2{fill:#fff;}.cls-3{font-size:13px;fill:#e1bebb;font-family:Helvetica, Helvetica;}.cls-4{letter-spacing:0em;}.cls-5{letter-spacing:-0.01em;}.cls-6{letter-spacing:-0.01em;}.cls-7{letter-spacing:0em;}.cls-8{letter-spacing:0em;}.cls-9{letter-spacing:0em;}</style>
    <style
       id="style10906-3">.cls-1{isolation:isolate;}.cls-2{opacity:0.7;mix-blend-mode:multiply;}.cls-3,.cls-5{fill:#fff;}.cls-4{fill:#009887;}.cls-5{font-size:13px;font-family:Helvetica-Bold, Helvetica Bold;font-weight:700;}.cls-6{letter-spacing:0em;}.cls-7{letter-spacing:-0.01em;}.cls-8{letter-spacing:-0.01em;}.cls-9{letter-spacing:0em;}.cls-10{letter-spacing:0em;}.cls-11{letter-spacing:0em;}</style>
    <style
       id="style11956-0">.cls-1{fill:#f1563f;}.cls-2{fill:#fff;}.cls-3{font-size:13px;fill:#e1bebb;font-family:Helvetica, Helvetica;}.cls-4{letter-spacing:-0.01em;}</style>
    <style
       id="style12531-5">.cls-1{isolation:isolate;}.cls-2{opacity:0.7;mix-blend-mode:multiply;}.cls-3,.cls-5{fill:#fff;}.cls-4{fill:#009887;}.cls-5{font-size:13px;font-family:Helvetica-Bold, Helvetica Bold;font-weight:700;}.cls-6{letter-spacing:-0.01em;}</style>
    <style
       id="style7552">.cls-1{fill:#f1563f;}.cls-2{fill:#fff;}.cls-3{font-size:13px;fill:#e1bebb;font-family:Helvetica, Helvetica;}.cls-4{letter-spacing:0em;}.cls-5{letter-spacing:0em;}.cls-6{letter-spacing:0em;}</style>
    <style
       id="style8161">.cls-1{isolation:isolate;}.cls-2{opacity:0.7;mix-blend-mode:multiply;}.cls-3,.cls-5{fill:#fff;}.cls-4{fill:#009887;}.cls-5{font-size:13px;font-family:Helvetica-Bold, Helvetica Bold;font-weight:700;}.cls-6{letter-spacing:0em;}.cls-7{letter-spacing:0em;}.cls-8{letter-spacing:0em;}</style>
    <style
       id="style9392">.cls-1{fill:#f1563f;}.cls-2{fill:#fff;}.cls-3{font-size:13px;fill:#e1bebb;font-family:Helvetica, Helvetica;}.cls-4{letter-spacing:-0.01em;}</style>
    <style
       id="style10012">.cls-1{isolation:isolate;}.cls-2{opacity:0.7;mix-blend-mode:multiply;}.cls-3,.cls-5{fill:#fff;}.cls-4{fill:#009887;}.cls-5{font-size:13px;font-family:Helvetica-Bold, Helvetica Bold;font-weight:700;}.cls-6{letter-spacing:-0.01em;}</style>
    <style
       id="style10706">.cls-1{fill:#f1563f;}.cls-2{fill:#fff;}.cls-3{font-size:13px;fill:#e1bebb;font-family:Helvetica, Helvetica;}</style>
    <style
       id="style11302">.cls-1{isolation:isolate;}.cls-2{opacity:0.7;mix-blend-mode:multiply;}.cls-3,.cls-5{fill:#fff;}.cls-4{fill:#009887;}.cls-5{font-size:13px;font-family:Helvetica-Bold, Helvetica Bold;font-weight:700;}</style>
    <style
       id="style13202">.cls-1{fill:#f1563f;}.cls-2{fill:#fff;}.cls-3{font-size:13px;fill:#e1bebb;font-family:Helvetica, Helvetica;}.cls-4{letter-spacing:-0.01em;}.cls-5{letter-spacing:0em;}.cls-6{letter-spacing:-0.01em;}.cls-7{letter-spacing:0.01em;}</style>
    <style
       id="style13792">.cls-1{isolation:isolate;}.cls-2{opacity:0.7;mix-blend-mode:multiply;}.cls-3,.cls-5{fill:#fff;}.cls-4{fill:#009887;}.cls-5{font-size:13px;font-family:Helvetica-Bold, Helvetica Bold;font-weight:700;}.cls-6{letter-spacing:-0.01em;}.cls-7{letter-spacing:0em;}.cls-8{letter-spacing:-0.01em;}.cls-9{letter-spacing:0.01em;}</style>
    <style
       id="style13202-6">.cls-1{fill:#f1563f;}.cls-2{fill:#fff;}.cls-3{font-size:13px;fill:#e1bebb;font-family:Helvetica, Helvetica;}.cls-4{letter-spacing:-0.01em;}.cls-5{letter-spacing:0em;}.cls-6{letter-spacing:-0.01em;}.cls-7{letter-spacing:0.01em;}</style>
    <style
       id="style13792-2">.cls-1{isolation:isolate;}.cls-2{opacity:0.7;mix-blend-mode:multiply;}.cls-3,.cls-5{fill:#fff;}.cls-4{fill:#009887;}.cls-5{font-size:13px;font-family:Helvetica-Bold, Helvetica Bold;font-weight:700;}.cls-6{letter-spacing:-0.01em;}.cls-7{letter-spacing:0em;}.cls-8{letter-spacing:-0.01em;}.cls-9{letter-spacing:0.01em;}</style>
    <style
       id="style4485">.cls-1{fill:#f1563f;}.cls-2{fill:#fff;}.cls-3{font-size:13px;fill:#e1bebb;font-family:Helvetica, Helvetica;}.cls-4{letter-spacing:0.01em;}.cls-5{letter-spacing:0em;}</style>
    <style
       id="style4517">.cls-1{isolation:isolate;}.cls-2{opacity:0.7;mix-blend-mode:multiply;}.cls-3,.cls-5{fill:#fff;}.cls-4{fill:#009887;}.cls-5{font-size:13px;font-family:Helvetica-Bold, Helvetica Bold;font-weight:700;}.cls-6{letter-spacing:0.01em;}.cls-7{letter-spacing:0em;}</style>
    <style
       id="style5297">.cls-1{fill:#f1563f;}.cls-2{fill:#fff;}.cls-3{font-size:13px;fill:#e1bebb;font-family:Helvetica, Helvetica;}.cls-4{letter-spacing:-0.04em;}.cls-5{letter-spacing:0em;}.cls-6{letter-spacing:0.02em;}.cls-7{letter-spacing:0em;}</style>
    <style
       id="style5963">.cls-1{isolation:isolate;}.cls-2{opacity:0.7;mix-blend-mode:multiply;}.cls-3,.cls-5{fill:#fff;}.cls-4{fill:#009887;}.cls-5{font-size:13px;font-family:Helvetica-Bold, Helvetica Bold;font-weight:700;}.cls-6{letter-spacing:-0.04em;}.cls-7{letter-spacing:0em;}.cls-8{letter-spacing:0.02em;}.cls-9{letter-spacing:0em;}</style>
    <style
       id="style6675">.cls-1{fill:#f1563f;}.cls-2{fill:#fff;}.cls-3{font-size:13px;fill:#e1bebb;font-family:Helvetica, Helvetica;letter-spacing:-0.03em;}.cls-4{letter-spacing:0em;}.cls-5{letter-spacing:-0.01em;}.cls-6{letter-spacing:0em;}</style>
    <style
       id="style7265">.cls-1{isolation:isolate;}.cls-2{opacity:0.7;mix-blend-mode:multiply;}.cls-3,.cls-5{fill:#fff;}.cls-4{fill:#009887;}.cls-5{font-size:13px;font-family:Helvetica-Bold, Helvetica Bold;font-weight:700;letter-spacing:-0.03em;}.cls-6{letter-spacing:0em;}.cls-7{letter-spacing:-0.01em;}.cls-8{letter-spacing:0em;}</style>
  </defs>
  <sodipodi:namedview
     id="base"
     pagecolor="#ffffff"
     bordercolor="#666666"
     borderopacity="1.0"
     inkscape:pageopacity="0.0"
     inkscape:pageshadow="2"
     inkscape:zoom="4.0000002"
     inkscape:cx="-5.5278772"
     inkscape:cy="16.11113"
     inkscape:document-units="mm"
     inkscape:current-layer="layer3"
     showgrid="false"
     showguides="true"
     inkscape:guide-bbox="true"
     inkscape:window-width="1920"
     inkscape:window-height="1001"
     inkscape:window-x="-9"
     inkscape:window-y="-9"
     inkscape:window-maximized="1"
     fit-margin-top="0"
     fit-margin-left="0"
     fit-margin-right="0"
     fit-margin-bottom="0"
     inkscape:snap-global="false">
    <sodipodi:guide
       position="7.4269323,17.021278"
       orientation="1,0"
       id="guide4580"
       inkscape:locked="false" />
    <sodipodi:guide
       position="0.14262234,8.6238581"
       orientation="0,1"
       id="guide4582"
       inkscape:locked="false" />
  </sodipodi:namedview>
  <metadata
     id="metadata5">
    <rdf:RDF>
      <cc:Work
         rdf:about="">
        <dc:format>image/svg+xml</dc:format>
        <dc:type
           rdf:resource="http://purl.org/dc/dcmitype/StillImage" />
        <dc:title></dc:title>
      </cc:Work>
    </rdf:RDF>
  </metadata>
  <g
     inkscape:label="Layer 1"
     inkscape:groupmode="layer"
     id="layer1"
     transform="translate(-101.33542,-147.7295)">
    <g
       id="g4672"
       transform="matrix(0.26458333,0,0,0.26458333,56.020229,168.73794)">
      <g
         transform="translate(-6.56,-2)"
         inkscape:label="Layer 1"
         id="layer11" />
      <g
         style="display:inline"
         transform="translate(-14.81,-16)"
         inkscape:label="Layer 2"
         id="layer12" />
      <g
         transform="translate(-49.616837,-57.604266)"
         style="isolation:isolate"
         class="cls-1"
         id="g12561" />
    </g>
    <path
       sodipodi:type="star"
       style="opacity:0.98999999;vector-effect:none;fill:#e1f0ef;fill-opacity:1;fill-rule:nonzero;stroke:none;stroke-width:4.70968056;stroke-linecap:round;stroke-linejoin:round;stroke-miterlimit:4;stroke-dasharray:none;stroke-dashoffset:0;stroke-opacity:1;paint-order:markers stroke fill"
       id="path4515"
       sodipodi:sides="6"
       sodipodi:cx="108.63694"
       sodipodi:cy="156.16057"
       sodipodi:r1="8.4310684"
       sodipodi:r2="7.3015194"
       sodipodi:arg1="0.52359878"
       sodipodi:arg2="1.0471976"
       inkscape:flatsided="true"
       inkscape:rounded="0"
       inkscape:randomized="0"
       d="m 115.93846,160.3761 -7.30152,4.21554 -7.30152,-4.21554 0,-8.43107 7.30152,-4.21553 7.30152,4.21553 z"
       inkscape:transform-center-x="1.2497473e-006"
       inkscape:transform-center-y="-1.8508538e-006" />
    <g
       id="layer9-6"
       inkscape:label="Layer 1"
       style="display:inline"
       transform="matrix(0.26458333,0,0,0.26458333,85.244444,147.46592)" />
  </g>
  <g
     inkscape:groupmode="layer"
     id="layer3"
     inkscape:label="cross"
     style="display:inline"
     transform="translate(0.16369945,-0.18708982)">
    <g
       id="g5364"
       transform="matrix(0.49053604,0,0,0.49053604,-61.302902,18.395873)">
      <g
         style="display:inline"
         transform="translate(-69.101752,8.8794424)"
         inkscape:label="Layer 2"
         id="layer9">
        <g
           transform="translate(100.70705,21.533441)"
           style="display:inline;isolation:isolate"
           class="cls-1"
           id="g10966">
          <g
             id="Selected_Assets_Classes-0"
             data-name="Selected Assets Classes">
            <path
               style="fill:#009887;fill-opacity:1"
               inkscape:connector-curvature="0"
               class="cls-3"
               d="m 111.11,-42.405001 c 0.1,-0.08 0.28,-0.29 0.45,-0.2 a 0.27,0.27 0 0 0 0.32,0 1.28,1.28 0 0 1 0.52,0 c 0.13,0 0.43,0.11 0.49,0.26 0.06,0.15 0.18,0.3 0.29,0.09 a 0.7,0.7 0 0 1 0.42,-0.33 4.88,4.88 0 0 0 0.45,-0.23 0.61,0.61 0 0 1 0.5,-0.09 c 0.17,0.08 0.35,-0.24 0.45,-0.31 v 0 a 0.71,0.71 0 0 1 0,-0.26 1,1 0 0 0 -0.15,-0.37 c -0.07,-0.12 -0.14,-0.14 -0.08,-0.32 0.06,-0.18 0,-0.19 0,-0.39 0,-0.2 -0.09,-0.14 -0.08,-0.31 0.01,-0.17 0.07,-0.2 0.08,-0.31 0.01,-0.11 -0.07,-0.11 -0.11,-0.07 -0.04,0.04 0,-0.12 -0.06,-0.2 -0.06,-0.08 -0.13,-0.15 -0.06,-0.21 a 0.12,0.12 0 0 0 -0.06,-0.2 0.41,0.41 0 0 1 -0.31,-0.22 c -0.09,-0.16 0,-0.25 -0.17,-0.31 -0.17,-0.06 -0.37,-0.19 -0.32,-0.23 0.05,-0.04 0,-0.16 -0.05,-0.24 a 0.36,0.36 0 0 0 -0.34,-0.23 c -0.21,0 -0.24,-0.13 -0.34,-0.24 a 1.1,1.1 0 0 1 -0.28,-0.33 1.5,1.5 0 0 1 -0.05,-0.5 c 0,-0.11 0.08,-0.26 0,-0.34 -0.08,-0.08 0,0 -0.09,0 a 0.1,0.1 0 0 1 -0.18,0 c -0.06,-0.09 -0.29,-0.18 -0.32,-0.29 -0.03,-0.11 0,-0.14 -0.14,-0.18 -0.14,-0.04 -0.12,0.05 -0.07,0.1 a 0.16,0.16 0 0 1 0.07,0.17 0.17,0.17 0 0 0 0,0.18 c 0,0 0,0.1 0,0 0,-0.1 -0.09,-0.16 -0.14,-0.15 -0.05,0.01 0,0.06 -0.12,0 -0.12,-0.06 -0.07,-0.19 -0.12,-0.3 a 0.57,0.57 0 0 1 -0.07,-0.33 c 0,-0.1 0,-0.13 -0.06,-0.22 a 0.25,0.25 0 0 1 -0.1,-0.27 c 0,-0.11 0,-0.17 -0.08,-0.17 -0.08,0 -0.09,-0.05 -0.1,-0.11 -0.01,-0.06 0,0 -0.11,0 a 0.24,0.24 0 0 1 -0.17,-0.15 c 0,-0.09 -0.08,-0.24 0,-0.19 0.08,0.05 0.14,0.11 0.14,0.06 a 0.51,0.51 0 0 0 -0.2,-0.29 c -0.13,-0.1 -0.11,-0.06 -0.12,-0.11 a 0.07,0.07 0 0 0 -0.13,0 c 0,0 -0.1,0 -0.15,-0.1 -0.05,-0.1 -0.1,-0.1 -0.21,-0.1 -0.11,0 -0.1,0 -0.13,-0.08 -0.03,-0.08 -0.11,-0.07 -0.12,0 -0.01,0.07 -0.17,0 -0.18,-0.05 -0.01,-0.05 0.05,-0.2 0,-0.34 -0.05,-0.14 0,0 -0.11,0 -0.11,0 -0.28,0.05 -0.3,-0.09 -0.02,-0.14 -0.11,-0.08 -0.15,-0.15 -0.04,-0.07 -0.1,0 -0.16,0 -0.06,0 -0.38,-0.11 -0.36,-0.28 a 2.85,2.85 0 0 0 0,-0.329999 c 0,-0.11 0,-0.17 0,-0.25 0,-0.08 -0.15,-0.07 -0.16,0 -0.01,0.07 -0.12,0 -0.08,-0.14 a 0.73,0.73 0 0 0 0.1,-0.47 c 0,-0.13 -0.2,-0.45 -0.15,-0.54 a 0.14,0.14 0 0 0 -0.07,-0.21 0.62,0.62 0 0 1 -0.34,-0.29 c 0,-0.12 0,-0.3 -0.05,-0.47 a 0.58,0.58 0 0 1 -0.11,-0.45 c 0,-0.14 0,-0.17 0,-0.2 0,-0.03 0,-0.1 0,-0.15 0,-0.05 0.05,-0.09 -0.05,-0.19 a 1.93,1.93 0 0 0 -0.38,-0.29 c -0.15,-0.08 -0.08,-0.12 -0.08,-0.21 0,-0.09 -0.1,-0.17 -0.19,-0.1 -0.09,0.07 -0.17,0 -0.21,0.07 -0.04,0.07 -0.09,0.16 -0.22,0.16 -0.13,0 -0.21,0 -0.2,-0.19 a 0.46,0.46 0 0 0 -0.1,-0.32 0.31,0.31 0 0 1 0,-0.28 0.47,0.47 0 0 0 0,-0.27 3.61,3.61 0 0 1 0,-0.42 c 0,-0.09 0,0 -0.08,0 -0.08,0 0,-0.12 0,-0.17 0,-0.05 -0.09,-0.08 -0.13,-0.13 -0.04,-0.05 -0.06,-0.17 -0.16,-0.17 -0.1,0 0,-0.14 0,-0.23 0,-0.09 0,-0.14 -0.07,-0.14 -0.07,0 -0.19,0 -0.2,-0.18 -0.01,-0.18 0,-0.24 0,-0.32 0,-0.08 0,-0.2 -0.09,-0.31 -0.09,-0.11 -0.21,-0.07 -0.15,-0.16 0.06,-0.09 0,-0.12 -0.08,-0.1 -0.08,0.02 -0.07,0.15 -0.21,0.18 -0.14,0.03 -0.14,0.13 -0.14,0.23 0,0.1 0,0.38 0,0.48 a 0.22,0.22 0 0 0 0,0.2 c 0,0 0,0.18 0,0.13 0,-0.05 -0.1,-0.08 -0.13,0 -0.03,0.08 -0.05,0.17 -0.07,0.21 -0.02,0.04 -0.07,0.17 0,0.2 0.07,0.03 0.18,0 0.17,0.11 -0.01,0.11 0,0.18 0,0.09 0,-0.09 -0.08,-0.09 -0.09,0 a 0.21,0.21 0 0 1 -0.09,0.17 c -0.07,0 -0.07,0.07 0,0.15 0.07,0.08 0.13,0.18 0.09,0.21 -0.04,0.03 -0.17,0 -0.18,0.15 -0.01,0.15 -0.06,0.38 0,0.45 a 0.31,0.31 0 0 1 -0.24,0.3 0.76,0.76 0 0 0 0,0.33 c 0,0 0.08,0.16 0.09,0.27 0.01,0.11 -0.06,0.17 -0.11,0.26 a 1.38,1.38 0 0 0 -0.13,0.31 c 0,0.05 0,0.15 0,0.18 a 0.12,0.12 0 0 0 0,0.15 0.14,0.14 0 0 1 0,0.15 0.56,0.56 0 0 0 -0.12,0.25 c 0,0.1 -0.06,0.31 -0.17,0.36 -0.11,0.05 -0.09,0.22 -0.11,0.3 -0.02,0.08 -0.08,0.26 -0.2,0.32 -0.12,0.06 -0.43,0.23 -0.6,0.16 -0.17,-0.07 -0.39,-0.14 -0.43,-0.25 -0.04,-0.11 -0.26,0 -0.29,-0.15 -0.03,-0.15 -0.13,-0.36 -0.31,-0.4 a 1.56,1.56 0 0 1 -0.59,-0.16 l -0.19,-0.08 v 8.999999 h 2.61 v 2.91 h 6.91 a 1.06,1.06 0 0 0 0.25,-0.14"
               id="path10937" />
          </g>
        </g>
      </g>
      <g
         transform="translate(-22.489999,-1.7900005)"
         data-name="&lt;Group&gt;"
         id="_Group_" />
    </g>
  </g>
</svg>
