<?xml version="1.0" encoding="UTF-8" standalone="no"?>
<!-- Created with Inkscape (http://www.inkscape.org/) -->

<svg
   xmlns:dc="http://purl.org/dc/elements/1.1/"
   xmlns:cc="http://creativecommons.org/ns#"
   xmlns:rdf="http://www.w3.org/1999/02/22-rdf-syntax-ns#"
   xmlns:svg="http://www.w3.org/2000/svg"
   xmlns="http://www.w3.org/2000/svg"
   xmlns:sodipodi="http://sodipodi.sourceforge.net/DTD/sodipodi-0.dtd"
   xmlns:inkscape="http://www.inkscape.org/namespaces/inkscape"
   width="14.603039mm"
   height="16.862137mm"
   viewBox="0 0 14.603039 16.862137"
   version="1.1"
   id="svg8"
   inkscape:version="0.92.2 (5c3e80d, 2017-08-06)"
   sodipodi:docname="justice.svg"
   inkscape:export-filename="C:\wamp64\www\dilgp3\images\buttons\icons\justice.png"
   inkscape:export-xdpi="95.599998"
   inkscape:export-ydpi="95.599998">
  <defs
     id="defs2">
    <style
       id="style8167">.cls-1{fill:#f1563f;}.cls-2{fill:#fff;}.cls-3{font-size:13px;fill:#e1bebb;font-family:Helvetica, Helvetica;}.cls-4{letter-spacing:0em;}.cls-5{letter-spacing:0.02em;}.cls-6{letter-spacing:-0.01em;}.cls-7{letter-spacing:0em;}.cls-8{letter-spacing:-0.01em;}.cls-9{letter-spacing:-0.01em;}.cls-10{letter-spacing:0em;}.cls-11{letter-spacing:0em;}</style>
    <style
       id="style8834">.cls-1{isolation:isolate;}.cls-2{opacity:0.7;mix-blend-mode:multiply;}.cls-3,.cls-5{fill:#fff;}.cls-4{fill:#009887;}.cls-5{font-size:13px;font-family:Helvetica-Bold, Helvetica Bold;font-weight:700;}.cls-6{letter-spacing:0em;}.cls-7{letter-spacing:0.02em;}.cls-8{letter-spacing:-0.01em;}.cls-9{letter-spacing:0em;}.cls-10{letter-spacing:-0.01em;}.cls-11{letter-spacing:-0.01em;}.cls-12{letter-spacing:0em;}.cls-13{letter-spacing:0em;}</style>
    <style
       id="style10273">.cls-1{fill:#f1563f;}.cls-2{fill:#fff;}.cls-3{font-size:13px;fill:#e1bebb;font-family:Helvetica, Helvetica;}.cls-4{letter-spacing:0em;}.cls-5{letter-spacing:-0.01em;}.cls-6{letter-spacing:-0.01em;}.cls-7{letter-spacing:0em;}.cls-8{letter-spacing:0em;}.cls-9{letter-spacing:0em;}</style>
    <style
       id="style10906">.cls-1{isolation:isolate;}.cls-2{opacity:0.7;mix-blend-mode:multiply;}.cls-3,.cls-5{fill:#fff;}.cls-4{fill:#009887;}.cls-5{font-size:13px;font-family:Helvetica-Bold, Helvetica Bold;font-weight:700;}.cls-6{letter-spacing:0em;}.cls-7{letter-spacing:-0.01em;}.cls-8{letter-spacing:-0.01em;}.cls-9{letter-spacing:0em;}.cls-10{letter-spacing:0em;}.cls-11{letter-spacing:0em;}</style>
    <style
       id="style11956">.cls-1{fill:#f1563f;}.cls-2{fill:#fff;}.cls-3{font-size:13px;fill:#e1bebb;font-family:Helvetica, Helvetica;}.cls-4{letter-spacing:-0.01em;}</style>
    <style
       id="style12531">.cls-1{isolation:isolate;}.cls-2{opacity:0.7;mix-blend-mode:multiply;}.cls-3,.cls-5{fill:#fff;}.cls-4{fill:#009887;}.cls-5{font-size:13px;font-family:Helvetica-Bold, Helvetica Bold;font-weight:700;}.cls-6{letter-spacing:-0.01em;}</style>
    <style
       id="style11956-4">.cls-1{fill:#f1563f;}.cls-2{fill:#fff;}.cls-3{font-size:13px;fill:#e1bebb;font-family:Helvetica, Helvetica;}.cls-4{letter-spacing:-0.01em;}</style>
    <style
       id="style12531-7">.cls-1{isolation:isolate;}.cls-2{opacity:0.7;mix-blend-mode:multiply;}.cls-3,.cls-5{fill:#fff;}.cls-4{fill:#009887;}.cls-5{font-size:13px;font-family:Helvetica-Bold, Helvetica Bold;font-weight:700;}.cls-6{letter-spacing:-0.01em;}</style>
    <style
       id="style10273-9">.cls-1{fill:#f1563f;}.cls-2{fill:#fff;}.cls-3{font-size:13px;fill:#e1bebb;font-family:Helvetica, Helvetica;}.cls-4{letter-spacing:0em;}.cls-5{letter-spacing:-0.01em;}.cls-6{letter-spacing:-0.01em;}.cls-7{letter-spacing:0em;}.cls-8{letter-spacing:0em;}.cls-9{letter-spacing:0em;}</style>
    <style
       id="style10906-3">.cls-1{isolation:isolate;}.cls-2{opacity:0.7;mix-blend-mode:multiply;}.cls-3,.cls-5{fill:#fff;}.cls-4{fill:#009887;}.cls-5{font-size:13px;font-family:Helvetica-Bold, Helvetica Bold;font-weight:700;}.cls-6{letter-spacing:0em;}.cls-7{letter-spacing:-0.01em;}.cls-8{letter-spacing:-0.01em;}.cls-9{letter-spacing:0em;}.cls-10{letter-spacing:0em;}.cls-11{letter-spacing:0em;}</style>
    <style
       id="style11956-0">.cls-1{fill:#f1563f;}.cls-2{fill:#fff;}.cls-3{font-size:13px;fill:#e1bebb;font-family:Helvetica, Helvetica;}.cls-4{letter-spacing:-0.01em;}</style>
    <style
       id="style12531-5">.cls-1{isolation:isolate;}.cls-2{opacity:0.7;mix-blend-mode:multiply;}.cls-3,.cls-5{fill:#fff;}.cls-4{fill:#009887;}.cls-5{font-size:13px;font-family:Helvetica-Bold, Helvetica Bold;font-weight:700;}.cls-6{letter-spacing:-0.01em;}</style>
    <style
       id="style7552">.cls-1{fill:#f1563f;}.cls-2{fill:#fff;}.cls-3{font-size:13px;fill:#e1bebb;font-family:Helvetica, Helvetica;}.cls-4{letter-spacing:0em;}.cls-5{letter-spacing:0em;}.cls-6{letter-spacing:0em;}</style>
    <style
       id="style8161">.cls-1{isolation:isolate;}.cls-2{opacity:0.7;mix-blend-mode:multiply;}.cls-3,.cls-5{fill:#fff;}.cls-4{fill:#009887;}.cls-5{font-size:13px;font-family:Helvetica-Bold, Helvetica Bold;font-weight:700;}.cls-6{letter-spacing:0em;}.cls-7{letter-spacing:0em;}.cls-8{letter-spacing:0em;}</style>
    <style
       id="style9392">.cls-1{fill:#f1563f;}.cls-2{fill:#fff;}.cls-3{font-size:13px;fill:#e1bebb;font-family:Helvetica, Helvetica;}.cls-4{letter-spacing:-0.01em;}</style>
    <style
       id="style10012">.cls-1{isolation:isolate;}.cls-2{opacity:0.7;mix-blend-mode:multiply;}.cls-3,.cls-5{fill:#fff;}.cls-4{fill:#009887;}.cls-5{font-size:13px;font-family:Helvetica-Bold, Helvetica Bold;font-weight:700;}.cls-6{letter-spacing:-0.01em;}</style>
    <style
       id="style10706">.cls-1{fill:#f1563f;}.cls-2{fill:#fff;}.cls-3{font-size:13px;fill:#e1bebb;font-family:Helvetica, Helvetica;}</style>
    <style
       id="style11302">.cls-1{isolation:isolate;}.cls-2{opacity:0.7;mix-blend-mode:multiply;}.cls-3,.cls-5{fill:#fff;}.cls-4{fill:#009887;}.cls-5{font-size:13px;font-family:Helvetica-Bold, Helvetica Bold;font-weight:700;}</style>
    <style
       id="style13202">.cls-1{fill:#f1563f;}.cls-2{fill:#fff;}.cls-3{font-size:13px;fill:#e1bebb;font-family:Helvetica, Helvetica;}.cls-4{letter-spacing:-0.01em;}.cls-5{letter-spacing:0em;}.cls-6{letter-spacing:-0.01em;}.cls-7{letter-spacing:0.01em;}</style>
    <style
       id="style13792">.cls-1{isolation:isolate;}.cls-2{opacity:0.7;mix-blend-mode:multiply;}.cls-3,.cls-5{fill:#fff;}.cls-4{fill:#009887;}.cls-5{font-size:13px;font-family:Helvetica-Bold, Helvetica Bold;font-weight:700;}.cls-6{letter-spacing:-0.01em;}.cls-7{letter-spacing:0em;}.cls-8{letter-spacing:-0.01em;}.cls-9{letter-spacing:0.01em;}</style>
    <style
       id="style13202-6">.cls-1{fill:#f1563f;}.cls-2{fill:#fff;}.cls-3{font-size:13px;fill:#e1bebb;font-family:Helvetica, Helvetica;}.cls-4{letter-spacing:-0.01em;}.cls-5{letter-spacing:0em;}.cls-6{letter-spacing:-0.01em;}.cls-7{letter-spacing:0.01em;}</style>
    <style
       id="style13792-2">.cls-1{isolation:isolate;}.cls-2{opacity:0.7;mix-blend-mode:multiply;}.cls-3,.cls-5{fill:#fff;}.cls-4{fill:#009887;}.cls-5{font-size:13px;font-family:Helvetica-Bold, Helvetica Bold;font-weight:700;}.cls-6{letter-spacing:-0.01em;}.cls-7{letter-spacing:0em;}.cls-8{letter-spacing:-0.01em;}.cls-9{letter-spacing:0.01em;}</style>
    <style
       id="style4485">.cls-1{fill:#f1563f;}.cls-2{fill:#fff;}.cls-3{font-size:13px;fill:#e1bebb;font-family:Helvetica, Helvetica;}.cls-4{letter-spacing:0.01em;}.cls-5{letter-spacing:0em;}</style>
    <style
       id="style4517">.cls-1{isolation:isolate;}.cls-2{opacity:0.7;mix-blend-mode:multiply;}.cls-3,.cls-5{fill:#fff;}.cls-4{fill:#009887;}.cls-5{font-size:13px;font-family:Helvetica-Bold, Helvetica Bold;font-weight:700;}.cls-6{letter-spacing:0.01em;}.cls-7{letter-spacing:0em;}</style>
    <style
       id="style5297">.cls-1{fill:#f1563f;}.cls-2{fill:#fff;}.cls-3{font-size:13px;fill:#e1bebb;font-family:Helvetica, Helvetica;}.cls-4{letter-spacing:-0.04em;}.cls-5{letter-spacing:0em;}.cls-6{letter-spacing:0.02em;}.cls-7{letter-spacing:0em;}</style>
    <style
       id="style5963">.cls-1{isolation:isolate;}.cls-2{opacity:0.7;mix-blend-mode:multiply;}.cls-3,.cls-5{fill:#fff;}.cls-4{fill:#009887;}.cls-5{font-size:13px;font-family:Helvetica-Bold, Helvetica Bold;font-weight:700;}.cls-6{letter-spacing:-0.04em;}.cls-7{letter-spacing:0em;}.cls-8{letter-spacing:0.02em;}.cls-9{letter-spacing:0em;}</style>
    <style
       id="style6675">.cls-1{fill:#f1563f;}.cls-2{fill:#fff;}.cls-3{font-size:13px;fill:#e1bebb;font-family:Helvetica, Helvetica;letter-spacing:-0.03em;}.cls-4{letter-spacing:0em;}.cls-5{letter-spacing:-0.01em;}.cls-6{letter-spacing:0em;}</style>
    <style
       id="style7265">.cls-1{isolation:isolate;}.cls-2{opacity:0.7;mix-blend-mode:multiply;}.cls-3,.cls-5{fill:#fff;}.cls-4{fill:#009887;}.cls-5{font-size:13px;font-family:Helvetica-Bold, Helvetica Bold;font-weight:700;letter-spacing:-0.03em;}.cls-6{letter-spacing:0em;}.cls-7{letter-spacing:-0.01em;}.cls-8{letter-spacing:0em;}</style>
  </defs>
  <sodipodi:namedview
     id="base"
     pagecolor="#ffffff"
     bordercolor="#666666"
     borderopacity="1.0"
     inkscape:pageopacity="0.0"
     inkscape:pageshadow="2"
     inkscape:zoom="5.6568545"
     inkscape:cx="53.962012"
     inkscape:cy="43.739898"
     inkscape:document-units="mm"
     inkscape:current-layer="layer1"
     showgrid="false"
     showguides="true"
     inkscape:guide-bbox="true"
     inkscape:window-width="1920"
     inkscape:window-height="1001"
     inkscape:window-x="-9"
     inkscape:window-y="-9"
     inkscape:window-maximized="1"
     fit-margin-top="0"
     fit-margin-left="0"
     fit-margin-right="0"
     fit-margin-bottom="0"
     inkscape:snap-global="false">
    <sodipodi:guide
       position="7.4269317,17.021278"
       orientation="1,0"
       id="guide4580"
       inkscape:locked="false" />
    <sodipodi:guide
       position="0.14262179,8.6238579"
       orientation="0,1"
       id="guide4582"
       inkscape:locked="false" />
  </sodipodi:namedview>
  <metadata
     id="metadata5">
    <rdf:RDF>
      <cc:Work
         rdf:about="">
        <dc:format>image/svg+xml</dc:format>
        <dc:type
           rdf:resource="http://purl.org/dc/dcmitype/StillImage" />
        <dc:title></dc:title>
      </cc:Work>
    </rdf:RDF>
  </metadata>
  <g
     inkscape:label="Layer 1"
     inkscape:groupmode="layer"
     id="layer1"
     transform="translate(-101.33542,-147.7295)">
    <g
       id="g4672"
       transform="matrix(0.26458333,0,0,0.26458333,56.020229,168.73794)">
      <g
         transform="translate(-6.56,-2)"
         inkscape:label="Layer 1"
         id="layer11" />
      <g
         style="display:inline"
         transform="translate(-14.81,-16)"
         inkscape:label="Layer 2"
         id="layer12" />
      <g
         transform="translate(-49.616837,-57.604266)"
         style="isolation:isolate"
         class="cls-1"
         id="g12561" />
    </g>
    <path
       sodipodi:type="star"
       style="opacity:0.98999999;vector-effect:none;fill:#e1f0ef;fill-opacity:1;fill-rule:nonzero;stroke:none;stroke-width:4.70968056;stroke-linecap:round;stroke-linejoin:round;stroke-miterlimit:4;stroke-dasharray:none;stroke-dashoffset:0;stroke-opacity:1;paint-order:markers stroke fill"
       id="path4515"
       sodipodi:sides="6"
       sodipodi:cx="108.63694"
       sodipodi:cy="156.16057"
       sodipodi:r1="8.4310684"
       sodipodi:r2="7.3015194"
       sodipodi:arg1="0.52359878"
       sodipodi:arg2="1.0471976"
       inkscape:flatsided="true"
       inkscape:rounded="0"
       inkscape:randomized="0"
       d="m 115.93846,160.3761 -7.30152,4.21554 -7.30152,-4.21554 0,-8.43107 7.30152,-4.21553 7.30152,4.21553 z"
       inkscape:transform-center-x="1.2497473e-006"
       inkscape:transform-center-y="-1.8508538e-006" />
    <g
       id="layer9-6"
       inkscape:label="Layer 1"
       style="display:inline"
       transform="matrix(0.26458333,0,0,0.26458333,85.244444,147.46592)" />
  </g>
  <g
     inkscape:groupmode="layer"
     id="layer13"
     inkscape:label="justice"
     style="display:inline"
     transform="translate(0.1636989,-0.18708964)">
    <path
       id="path13805"
       d="M 4.3758876,6.7249883 5.6365652,9.756501 H 5.1215024 3.6498943 3.2770869 3.11521 Z m 5.7981364,0 1.260677,3.0315127 H 11.307162 10.934354 9.4627463 8.9722103 Z m -7.1422051,3.3552667 0.068675,0.03924 h 0.029432 l 0.06377,0.03434 h 0.034338 a 2.423248,2.423248 0 0 0 0.3826181,0.147161 2.7420965,2.7420965 0 0 0 0.7652362,0.103013 2.7715286,2.7715286 0 0 0 0.7652362,-0.103013 2.5115445,2.5115445 0 0 0 0.3826181,-0.147161 c 0.058864,-0.02943 0.122634,-0.05886 0.1913091,-0.103012 A 1.4716081,1.4716081 0 0 0 5.9112654,9.9429047 v 0 -0.1520662 0 L 4.5917235,6.612165 h 0.191309 c 0.2550788,0.029432 0.5297789,0.053959 0.8339113,0.07358 0.490536,0.034338 0.9516399,0.049054 1.4716081,0.053959 -0.024527,0.2550788 -0.049054,0.4905361 -0.07358,0.7554255 l -0.068675,0.8044791 -0.053959,0.8044792 c 0,0.122634 0,0.2550787 -0.034338,0.3973341 v 0.1422555 l -0.029432,0.2648895 c 0,0.1520661 0,0.2845111 0,0.4071451 a 3.9831526,3.9831526 0 0 0 0,0.407145 c 0,0.20112 0.044148,0.397334 0.078486,0.588643 H 6.7353659 A 3.3797933,3.3797933 0 0 0 6.1614388,11.44885 2.9432162,2.9432162 0 0 0 5.8720225,11.561674 3.1737682,3.1737682 0 0 0 5.5826063,11.703929 3.0118913,3.0118913 0 0 0 5.29319,11.885427 2.2368443,2.2368443 0 0 0 5.0037737,12.12579 v 0 0.191309 l 0.6327915,0.02943 h 0.5641165 1.1282328 1.1282329 0.5641165 0.2845109 0.3482806 v -0.191309 0 A 2.0700621,2.0700621 0 0 0 9.3646391,11.91486 3.090377,3.090377 0 0 0 9.0752228,11.733361 3.3503611,3.3503611 0 0 0 8.5012957,11.478282 3.4877112,3.4877112 0 0 0 7.8734096,11.336027 H 7.716438 c 0.034337,-0.191309 0.058864,-0.387523 0.078486,-0.593549 0.019621,-0.206025 0,-0.279605 0,-0.407144 0,-0.12754 0,-0.255079 0,-0.4071454 0,-0.1520662 0,-0.176593 -0.029432,-0.2599841 -0.029432,-0.083391 0,-0.093202 0,-0.1422555 0,-0.1422554 -0.024527,-0.2747001 -0.034337,-0.3973341 L 7.6771951,8.3241358 7.5643718,7.4902245 c 0,-0.2501734 -0.049054,-0.4905361 -0.07358,-0.7554255 0.4905361,0 0.9810721,0 1.442176,-0.053959 0.3090377,0 0.5788325,-0.044148 0.8339113,-0.07358 L 9.9778092,6.5827328 8.6533619,9.7663117 h -0.049054 v 0.176593 h 0.024527 a 1.4127438,1.4127438 0 0 0 0.191309,0.1373503 l 0.068675,0.03924 h 0.024527 l 0.06377,0.02943 h 0.034338 a 2.2809926,2.2809926 0 0 0 0.3826181,0.147161 2.722475,2.722475 0 0 0 0.765236,0.103012 2.8107715,2.8107715 0 0 0 0.765237,-0.103012 2.4526802,2.4526802 0 0 0 0.382618,-0.147161 l 0.191309,-0.103013 a 1.5010403,1.5010403 0 0 0 0.196214,-0.1373498 h 0.02453 V 9.756501 h -0.03924 L 10.360427,6.5778275 h 0.107918 l 0.196215,0.024527 h 0.127539 0.06377 a 0.61317005,0.61317005 0 0 0 0.220741,0 1.0497471,1.0497471 0 0 0 0.21093,-0.058864 0.8290059,0.8290059 0 0 0 0.215836,-0.034338 h 0.02453 V 6.4061398 h -0.02453 a 0.79957374,0.79957374 0 0 0 -0.21093,-0.122634 1.0154096,1.0154096 0 0 0 -0.210931,-0.058864 0.60335933,0.60335933 0 0 0 -0.220741,0 h -0.06377 -0.127539 l -0.196214,0.024527 -0.196215,0.029432 H 10.164213 L 9.7668787,6.2295469 C 9.5117999,6.2001147 9.2370997,6.1755879 8.9329674,6.1559665 8.4767689,6.1265343 8.0107596,6.1069129 7.5055075,6.1020075 l 0.044148,-0.3728074 c 0,-0.06377 0,-0.1275394 0.029432,-0.191309 v -0.098107 a 1.035031,1.035031 0 0 0 0,-0.1569715 0.93201847,0.93201847 0 0 0 0,-0.1569715 A 1.5304724,1.5304724 0 0 0 7.5006022,4.8217084 1.2852044,1.2852044 0 0 0 7.4368325,4.6696423 1.035031,1.035031 0 0 0 7.3387253,4.5126707 V 4.4832386 H 7.2209966 v 0.029432 a 1.0644632,1.0644632 0 0 0 -0.098107,0.1569716 1.3244473,1.3244473 0 0 0 -0.06377,0.1520661 1.56481,1.56481 0 0 0 -0.078486,0.3041324 1.0595578,1.0595578 0 0 0 0,0.1569715 1.2361508,1.2361508 0 0 0 0,0.1569715 v 0.093202 c 0,0.068675 0,0.1324447 0.029432,0.1962144 v 0.1471608 l 0.029432,0.2256466 c -0.5199682,0 -0.9810721,0 -1.4716081,0.053959 -0.3041324,0 -0.5788326,0.044148 -0.8339113,0.07358 l -0.362996,0.049054 H 4.2777804 L 4.0766606,6.2491683 3.8804462,6.2246415 h -0.1275394 -0.06377 a 0.60826469,0.60826469 0 0 0 -0.2207412,0 0.98107208,0.98107208 0 0 0 -0.2109305,0.058864 0.78485766,0.78485766 0 0 0 -0.2158358,0.122634 h -0.024527 v 0.1030126 h 0.024527 a 0.78976302,0.78976302 0 0 0 0.2158358,0.122634 1.0154096,1.0154096 0 0 0 0.2109305,0.058864 0.62298077,0.62298077 0 0 0 0.2207412,0 h 0.06377 0.1275394 l 0.1962144,-0.024527 h 0.068675 L 2.8306991,9.8300814 h -0.049054 v 0.1128233 0 a 1.5206617,1.5206617 0 0 0 0.1962144,0.1373503"
       class="cls-3"
       inkscape:connector-curvature="0"
       style="display:inline;isolation:isolate;fill:#0e9d8e;fill-opacity:1;stroke-width:0.49053603" />
  </g>
</svg>
