<svg id="Layer_1" data-name="Layer 1" xmlns="http://www.w3.org/2000/svg" viewBox="0 0 205 315" width="205" height="315"><defs><style>.cls-1{fill:#098;}.cls-2{fill:none;stroke:#00a081;stroke-miterlimit:10;}.cls-3{fill:#009e8d;}.cls-4{fill:#fff;}</style></defs><title>RegionPanel</title><rect class="cls-1" width="204" height="315"/><line class="cls-2" x1="40.1" y1="-0.01" x2="40.1" y2="314.99"/><rect class="cls-3" x="8.35" width="1" height="315"/><polygon class="cls-3" points="4.82 315.01 0 311.62 0 312.84 3.08 315.01 4.82 315.01"/><polygon class="cls-3" points="140.44 315 0 216.05 0 217.27 138.7 315 140.44 315"/><rect class="cls-3" x="133.35" width="1" height="315"/><rect class="cls-3" x="125.54" width="1" height="315"/><polygon class="cls-3" points="126.87 315 0 225.61 0 226.83 125.14 315 126.87 315"/><rect class="cls-3" x="117.72" width="1" height="315"/><rect class="cls-3" x="109.91" width="1" height="315"/><polygon class="cls-3" points="113.31 315 0 235.16 0 236.39 111.57 315 113.31 315"/><rect class="cls-3" x="102.1" width="1" height="315"/><polygon class="cls-3" points="99.74 315 0 244.72 0 245.94 98.01 315 99.74 315"/><rect class="cls-3" x="94.29" width="1" height="315"/><rect class="cls-3" x="86.47" width="1" height="315"/><polygon class="cls-3" points="86.18 315 0 254.28 0 255.5 84.44 315 86.18 315"/><rect class="cls-3" x="78.66" width="1" height="315"/><rect class="cls-3" x="70.85" width="1" height="315"/><polygon class="cls-3" points="72.62 315 0 263.83 0 265.06 70.88 315 72.62 315"/><rect class="cls-3" x="63.04" width="1" height="315"/><polygon class="cls-3" points="59.05 315 0 273.39 0 274.62 57.32 315 59.05 315"/><rect class="cls-3" x="55.22" width="1" height="315"/><rect class="cls-3" x="47.41" width="1" height="315"/><polygon class="cls-3" points="45.49 315 0 282.95 0 284.17 43.75 315 45.49 315"/><rect class="cls-3" x="39.6" width="1" height="315"/><rect class="cls-3" x="31.79" width="1" height="315"/><polygon class="cls-3" points="31.93 315 0 292.51 0 293.73 30.19 315 31.93 315"/><rect class="cls-3" x="23.97" width="1" height="315"/><rect class="cls-3" x="16.16" width="1" height="315"/><polygon class="cls-3" points="18.36 315 0 302.06 0 303.29 16.63 315 18.36 315"/><rect class="cls-3" x="195.85" width="1" height="315"/><polygon class="cls-3" points="194.69 315 0 177.82 0 179.04 192.96 315 194.69 315"/><rect class="cls-3" x="188.04" width="1" height="315"/><rect class="cls-3" x="180.22" width="1" height="315"/><polygon class="cls-3" points="181.13 315 0 187.38 0 188.6 179.39 315 181.13 315"/><rect class="cls-3" x="172.41" width="1" height="315"/><rect class="cls-3" x="164.6" width="1" height="315"/><polygon class="cls-3" points="167.56 315 0 196.94 0 198.16 165.83 315 167.56 315"/><rect class="cls-3" x="156.79" width="1" height="315"/><polygon class="cls-3" points="154 315 0 206.49 0 207.72 152.26 315 154 315"/><rect class="cls-3" x="148.97" width="1" height="315"/><rect class="cls-3" x="141.16" width="1" height="315"/><polygon class="cls-3" points="204 34.74 154.69 -0.01 152.95 -0.01 204 35.96 204 34.74"/><polygon class="cls-3" points="204 25.18 168.25 -0.01 166.51 -0.01 204 26.41 204 25.18"/><polygon class="cls-3" points="204 6.13 195.29 -0.01 193.56 -0.01 204 7.35 204 6.13"/><polygon class="cls-3" points="204 15.63 181.81 -0.01 180.08 -0.01 204 16.85 204 15.63"/><polygon class="cls-3" points="204 44.3 141.12 -0.01 139.39 -0.01 204 45.52 204 44.3"/><polygon class="cls-3" points="204 63.41 114 -0.01 112.26 -0.01 204 64.64 204 63.41"/><polygon class="cls-3" points="204 53.85 127.56 -0.01 125.82 -0.01 204 55.08 204 53.85"/><polygon class="cls-3" points="204 72.97 100.43 -0.01 98.69 -0.01 204 74.19 204 72.97"/><polygon class="cls-3" points="204 216.32 0 72.58 0 73.81 204 217.55 204 216.32"/><polygon class="cls-3" points="204 206.77 0 63.03 0 64.25 204 207.99 204 206.77"/><polygon class="cls-3" points="204 178.09 0 34.36 0 35.58 204 179.32 204 178.09"/><polygon class="cls-3" points="204 197.21 0 53.47 0 54.69 204 198.43 204 197.21"/><polygon class="cls-3" points="204 187.65 0 43.91 0 45.14 204 188.88 204 187.65"/><polygon class="cls-3" points="204 139.87 5.49 0 3.76 0 204 141.09 204 139.87"/><polygon class="cls-3" points="204 149.42 0 5.69 0 6.91 204 150.65 204 149.42"/><polygon class="cls-3" points="204 158.98 0 15.24 0 16.47 204 160.2 204 158.98"/><polygon class="cls-3" points="204 168.54 0 24.8 0 26.02 204 169.76 204 168.54"/><polygon class="cls-3" points="204 254.66 0 110.92 0 112.15 204 255.88 204 254.66"/><polygon class="cls-3" points="204 302.45 0 158.71 0 159.93 204 303.67 204 302.45"/><polygon class="cls-3" points="204 283.33 0 139.59 0 140.82 204 284.56 204 283.33"/><polygon class="cls-3" points="204 225.88 0 82.14 0 83.37 204 227.1 204 225.88"/><polygon class="cls-3" points="204 312 0 168.26 0 169.49 204 313.23 204 312"/><polygon class="cls-3" points="204 292.89 0 149.15 0 150.37 204 294.11 204 292.89"/><polygon class="cls-3" points="204 244.99 0 101.26 0 102.48 204 246.22 204 244.99"/><polygon class="cls-3" points="204 235.44 0 91.7 0 92.92 204 236.66 204 235.44"/><polygon class="cls-3" points="204 264.22 0 120.48 0 121.7 204 265.44 204 264.22"/><polygon class="cls-3" points="204 273.77 0 130.04 0 131.26 204 275 204 273.77"/><polygon class="cls-3" points="204 82.53 86.87 -0.01 85.13 -0.01 204 83.75 204 82.53"/><polygon class="cls-3" points="204 101.64 59.74 -0.01 58 -0.01 204 102.86 204 101.64"/><polygon class="cls-3" points="204 92.08 73.3 -0.01 71.57 -0.01 204 93.31 204 92.08"/><polygon class="cls-3" points="204 130.31 19.05 -0.01 17.31 -0.01 204 131.53 204 130.31"/><polygon class="cls-3" points="204 120.75 32.61 -0.01 30.88 -0.01 204 121.98 204 120.75"/><polygon class="cls-3" points="204 111.2 46.18 -0.01 44.44 -0.01 204 112.42 204 111.2"/><path class="cls-4" d="M12.17,7.1h4a2.22,2.22,0,0,1,2.49,2.23,1.89,1.89,0,0,1-1.22,1.88c.65.29,1,.53,1,2,0,1.16,0,1.44.35,1.57V15H17a5.29,5.29,0,0,1-.18-1.6c0-1.08-.07-1.5-1.29-1.5H13.79V15H12.17Zm3.55,3.48c.86,0,1.28-.3,1.28-1.08,0-.42-.19-1-1.16-1H13.79v2.11Z"/><path class="cls-4" d="M25,13.28a2.53,2.53,0,0,1-2.57,1.87c-1.65,0-2.92-.79-2.92-3.2a2.72,2.72,0,0,1,2.81-3c1.16,0,2.75.55,2.75,3.22v.27h-4c0,.44.13,1.43,1.38,1.43a1,1,0,0,0,1-.64ZM23.5,11.49a1.18,1.18,0,0,0-1.19-1.23c-.73,0-1.11.46-1.2,1.23Z"/><path class="cls-4" d="M31.47,9.15v5.54c0,1-.08,2.7-3,2.7-1.21,0-2.49-.52-2.55-1.76h1.67c.07.3.19.59,1.08.59s1.22-.4,1.22-1.34v-.7l0,0a1.59,1.59,0,0,1-1.56.88c-1.41,0-2.52-1-2.52-3S27,9,28.26,9A1.76,1.76,0,0,1,30,10h0V9.15Zm-2.84,4.59c1,0,1.31-.89,1.31-1.69s-.46-1.72-1.32-1.72c-.57,0-1.21.42-1.21,1.78C27.42,12.85,27.72,13.73,28.64,13.73Z"/><path class="cls-4" d="M34.41,8.45H32.87V7h1.54Zm0,.69V15H32.87V9.15Z"/><path class="cls-4" d="M38.54,15.15a2.84,2.84,0,0,1-3-3.08,3,3,0,1,1,6,0A2.84,2.84,0,0,1,38.54,15.15Zm0-4.86c-1.19,0-1.41,1-1.41,1.78s.22,1.78,1.41,1.78,1.41-1,1.41-1.78S39.72,10.29,38.54,10.29Z"/><path class="cls-4" d="M47.9,15H46.36V11.45c0-.43,0-1.15-1-1.15a1.2,1.2,0,0,0-1.21,1.35V15H42.61V9.15h1.47V10h0a2,2,0,0,1,3.8.95Z"/><path class="cls-4" d="M52.64,10.93c-.07-.37-.2-.77-1-.77s-.95.32-.95.57c0,.92,3.66.25,3.66,2.41,0,1.71-1.65,2-2.56,2-1.33,0-2.77-.46-2.82-2h1.58c0,.5.31.86,1.28.86.79,0,1-.38,1-.6,0-1-3.63-.24-3.63-2.43,0-.86.54-2,2.37-2,1.14,0,2.51.29,2.63,1.94Z"/><rect class="cls-4" x="12.17" y="18.59" width="15.01" height="0.99"/></svg>