<?xml version="1.0" encoding="utf-8"?>
<!-- Generator: Adobe Illustrator 22.1.0, SVG Export Plug-In . SVG Version: 6.00 Build 0)  -->
<svg version="1.1" id="Layer_1" xmlns="http://www.w3.org/2000/svg" xmlns:xlink="http://www.w3.org/1999/xlink" x="0px" y="0px"
	 viewBox="0 0 205 315" style="enable-background:new 0 0 205 315;" xml:space="preserve">
<style type="text/css">
	.st0{fill:#009988;}
	.st1{fill:none;stroke:#00A081;stroke-miterlimit:10;}
	.st2{fill:#009E8D;}
	.st3{fill:#FFFFFF;}
</style>
<title>RegionPanel</title>
<rect y="0" class="st0" width="204" height="315"/>
<line class="st1" x1="40.1" y1="0" x2="40.1" y2="315"/>
<rect x="8.4" y="0" class="st2" width="1" height="315"/>
<polygon class="st2" points="4.8,315 0,311.6 0,312.8 3.1,315 "/>
<polygon class="st2" points="140.4,315 0,216 0,217.3 138.7,315 "/>
<rect x="133.4" y="0" class="st2" width="1" height="315"/>
<rect x="125.5" y="0" class="st2" width="1" height="315"/>
<polygon class="st2" points="126.9,315 0,225.6 0,226.8 125.1,315 "/>
<rect x="117.7" y="0" class="st2" width="1" height="315"/>
<rect x="109.9" y="0" class="st2" width="1" height="315"/>
<polygon class="st2" points="113.3,315 0,235.2 0,236.4 111.6,315 "/>
<rect x="102.1" y="0" class="st2" width="1" height="315"/>
<polygon class="st2" points="99.7,315 0,244.7 0,245.9 98,315 "/>
<rect x="94.3" y="0" class="st2" width="1" height="315"/>
<rect x="86.5" y="0" class="st2" width="1" height="315"/>
<polygon class="st2" points="86.2,315 0,254.3 0,255.5 84.4,315 "/>
<rect x="78.7" y="0" class="st2" width="1" height="315"/>
<rect x="70.8" y="0" class="st2" width="1" height="315"/>
<polygon class="st2" points="72.6,315 0,263.8 0,265.1 70.9,315 "/>
<rect x="63" y="0" class="st2" width="1" height="315"/>
<polygon class="st2" points="59,315 0,273.4 0,274.6 57.3,315 "/>
<rect x="55.2" y="0" class="st2" width="1" height="315"/>
<rect x="47.4" y="0" class="st2" width="1" height="315"/>
<polygon class="st2" points="45.5,315 0,283 0,284.2 43.8,315 "/>
<rect x="39.6" y="0" class="st2" width="1" height="315"/>
<rect x="31.8" y="0" class="st2" width="1" height="315"/>
<polygon class="st2" points="31.9,315 0,292.5 0,293.7 30.2,315 "/>
<rect x="24" y="0" class="st2" width="1" height="315"/>
<rect x="16.2" y="0" class="st2" width="1" height="315"/>
<polygon class="st2" points="18.4,315 0,302.1 0,303.3 16.6,315 "/>
<rect x="195.9" y="0" class="st2" width="1" height="315"/>
<polygon class="st2" points="194.7,315 0,177.8 0,179 193,315 "/>
<rect x="188" y="0" class="st2" width="1" height="315"/>
<rect x="180.2" y="0" class="st2" width="1" height="315"/>
<polygon class="st2" points="181.1,315 0,187.4 0,188.6 179.4,315 "/>
<rect x="172.4" y="0" class="st2" width="1" height="315"/>
<rect x="164.6" y="0" class="st2" width="1" height="315"/>
<polygon class="st2" points="167.6,315 0,196.9 0,198.2 165.8,315 "/>
<rect x="156.8" y="0" class="st2" width="1" height="315"/>
<polygon class="st2" points="154,315 0,206.5 0,207.7 152.3,315 "/>
<rect x="149" y="0" class="st2" width="1" height="315"/>
<rect x="141.2" y="0" class="st2" width="1" height="315"/>
<polygon class="st2" points="204,34.7 154.7,0 152.9,0 204,36 "/>
<polygon class="st2" points="204,25.2 168.3,0 166.5,0 204,26.4 "/>
<polygon class="st2" points="204,6.1 195.3,0 193.6,0 204,7.3 "/>
<polygon class="st2" points="204,15.6 181.8,0 180.1,0 204,16.8 "/>
<polygon class="st2" points="204,44.3 141.1,0 139.4,0 204,45.5 "/>
<polygon class="st2" points="204,63.4 114,0 112.3,0 204,64.6 "/>
<polygon class="st2" points="204,53.8 127.6,0 125.8,0 204,55.1 "/>
<polygon class="st2" points="204,73 100.4,0 98.7,0 204,74.2 "/>
<polygon class="st2" points="204,216.3 0,72.6 0,73.8 204,217.5 "/>
<polygon class="st2" points="204,206.8 0,63 0,64.2 204,208 "/>
<polygon class="st2" points="204,178.1 0,34.4 0,35.6 204,179.3 "/>
<polygon class="st2" points="204,197.2 0,53.5 0,54.7 204,198.4 "/>
<polygon class="st2" points="204,187.6 0,43.9 0,45.1 204,188.9 "/>
<polygon class="st2" points="204,139.9 5.5,0 3.8,0 204,141.1 "/>
<polygon class="st2" points="204,149.4 0,5.7 0,6.9 204,150.6 "/>
<polygon class="st2" points="204,159 0,15.2 0,16.5 204,160.2 "/>
<polygon class="st2" points="204,168.5 0,24.8 0,26 204,169.8 "/>
<polygon class="st2" points="204,254.7 0,110.9 0,112.1 204,255.9 "/>
<polygon class="st2" points="204,302.5 0,158.7 0,159.9 204,303.7 "/>
<polygon class="st2" points="204,283.3 0,139.6 0,140.8 204,284.6 "/>
<polygon class="st2" points="204,225.9 0,82.1 0,83.4 204,227.1 "/>
<polygon class="st2" points="204,312 0,168.3 0,169.5 204,313.2 "/>
<polygon class="st2" points="204,292.9 0,149.1 0,150.4 204,294.1 "/>
<polygon class="st2" points="204,245 0,101.3 0,102.5 204,246.2 "/>
<polygon class="st2" points="204,235.4 0,91.7 0,92.9 204,236.7 "/>
<polygon class="st2" points="204,264.2 0,120.5 0,121.7 204,265.4 "/>
<polygon class="st2" points="204,273.8 0,130 0,131.3 204,275 "/>
<polygon class="st2" points="204,82.5 86.9,0 85.1,0 204,83.7 "/>
<polygon class="st2" points="204,101.6 59.7,0 58,0 204,102.9 "/>
<polygon class="st2" points="204,92.1 73.3,0 71.6,0 204,93.3 "/>
<polygon class="st2" points="204,130.3 19,0 17.3,0 204,131.5 "/>
<polygon class="st2" points="204,120.7 32.6,0 30.9,0 204,122 "/>
<polygon class="st2" points="204,111.2 46.2,0 44.4,0 204,112.4 "/>
<path class="st3" d="M12.2,7.1h4C17.4,7,18.5,7.8,18.6,9c0,0.1,0,0.2,0,0.3c0,0.8-0.4,1.6-1.2,1.9c0.6,0.3,1,0.5,1,2
	c0,1.2,0,1.4,0.4,1.6V15H17c-0.1-0.5-0.2-1.1-0.2-1.6c0-1.1-0.1-1.5-1.3-1.5h-1.7V15h-1.6C12.2,15,12.2,7.1,12.2,7.1z M15.7,10.6
	c0.9,0,1.3-0.3,1.3-1.1c0-0.4-0.2-1-1.2-1h-2.1v2.1H15.7z"/>
<path class="st3" d="M25,13.3c-0.3,1.2-1.4,1.9-2.6,1.9c-1.6,0-2.9-0.8-2.9-3.2c-0.2-1.5,0.9-2.8,2.4-3c0.1,0,0.3,0,0.4,0
	c1.2,0,2.8,0.6,2.8,3.2v0.3h-4c0,0.4,0.1,1.4,1.4,1.4c0.4,0,0.8-0.2,1-0.6L25,13.3z M23.5,11.5c0-0.7-0.5-1.2-1.1-1.2c0,0,0,0-0.1,0
	c-0.7,0-1.1,0.5-1.2,1.2H23.5z"/>
<path class="st3" d="M31.5,9.1v5.5c0,1-0.1,2.7-3,2.7c-1.2,0-2.5-0.5-2.5-1.8h1.7c0.1,0.3,0.2,0.6,1.1,0.6s1.2-0.4,1.2-1.3v-0.7l0,0
	c-0.3,0.6-0.9,0.9-1.6,0.9c-1.4,0-2.5-1-2.5-3s1.1-3,2.4-3c0.7-0.1,1.4,0.3,1.7,1l0,0V9.1H31.5z M28.6,13.7c1,0,1.3-0.9,1.3-1.7
	s-0.5-1.7-1.3-1.7c-0.6,0-1.2,0.4-1.2,1.8C27.4,12.8,27.7,13.7,28.6,13.7L28.6,13.7z"/>
<path class="st3" d="M34.4,8.4h-1.5V7h1.5V8.4z M34.4,9.1V15h-1.5V9.1H34.4z"/>
<path class="st3" d="M38.5,15.1c-1.6,0.1-2.9-1.1-3-2.7c0-0.1,0-0.3,0-0.4c0-1.7,1.3-3,3-3s3,1.3,3,3c0.1,1.6-1,2.9-2.6,3.1
	C38.8,15.2,38.7,15.2,38.5,15.1z M38.5,10.3c-1.2,0-1.4,1-1.4,1.8s0.2,1.8,1.4,1.8s1.4-1,1.4-1.8S39.7,10.3,38.5,10.3z"/>
<path class="st3" d="M47.9,15h-1.5v-3.6c0-0.4,0-1.1-1-1.1c-0.7,0-1.2,0.5-1.2,1.2c0,0.1,0,0.1,0,0.2V15h-1.5V9.1h1.5V10l0,0
	c0.5-1,1.7-1.4,2.7-0.9c0.7,0.3,1.2,1.1,1.1,1.9L47.9,15z"/>
<path class="st3" d="M52.6,10.9c-0.1-0.4-0.2-0.8-1-0.8s-1,0.3-1,0.6c0,0.9,3.7,0.3,3.7,2.4c0,1.7-1.7,2-2.6,2c-1.3,0-2.8-0.5-2.8-2
	h1.6c0,0.5,0.3,0.9,1.3,0.9c0.8,0,1-0.4,1-0.6c0-1-3.6-0.2-3.6-2.4c0-0.9,0.5-2,2.4-2c1.1,0,2.5,0.3,2.6,1.9H52.6z"/>
<rect x="12.2" y="18.6" class="st3" width="15" height="1"/>
<g>
	<path class="st3" d="M13.8,25.8c-0.8,1-1.3,2.4-1.3,4.3c0,1.9,0.6,3.2,1.3,4.3h-0.7c-0.7-0.9-1.4-2.2-1.4-4.3
		c0-2.1,0.7-3.4,1.4-4.3H13.8z"/>
	<path class="st3" d="M15.8,30.8l-0.7,2.2h-0.9l2.4-7.1h1.1l2.4,7.1h-1l-0.8-2.2H15.8z M18.2,30.1l-0.7-2c-0.2-0.5-0.3-0.9-0.4-1.3
		h0c-0.1,0.4-0.2,0.9-0.4,1.3L16,30.1H18.2z"/>
	<path class="st3" d="M20.9,32.1c0.3,0.2,0.8,0.4,1.2,0.4c0.7,0,1-0.3,1-0.8c0-0.4-0.3-0.7-0.9-0.9c-0.9-0.3-1.3-0.8-1.3-1.4
		c0-0.8,0.7-1.5,1.8-1.5c0.5,0,1,0.1,1.3,0.3l-0.2,0.7c-0.2-0.1-0.6-0.3-1-0.3c-0.5,0-0.9,0.3-0.9,0.7c0,0.4,0.3,0.6,1,0.9
		c0.9,0.3,1.3,0.8,1.3,1.5c0,0.9-0.7,1.5-1.9,1.5c-0.6,0-1.1-0.1-1.4-0.3L20.9,32.1z"/>
	<path class="st3" d="M27.4,29.6c0-0.7,0-1.2,0-1.7h0.8l0,0.9h0c0.4-0.6,1-1,1.8-1c1.2,0,2.2,1,2.2,2.6c0,1.8-1.1,2.7-2.3,2.7
		c-0.7,0-1.3-0.3-1.6-0.8h0v2.8h-0.9V29.6z M28.4,31c0,0.1,0,0.3,0,0.4c0.2,0.6,0.7,1.1,1.4,1.1c1,0,1.5-0.8,1.5-2
		c0-1-0.5-1.9-1.5-1.9c-0.6,0-1.2,0.5-1.4,1.1c0,0.1-0.1,0.3-0.1,0.4V31z"/>
	<path class="st3" d="M34,30.7c0,1.3,0.8,1.8,1.8,1.8c0.7,0,1.1-0.1,1.4-0.3l0.2,0.7c-0.3,0.1-0.9,0.3-1.7,0.3c-1.6,0-2.5-1-2.5-2.6
		s0.9-2.8,2.4-2.8c1.7,0,2.1,1.5,2.1,2.4c0,0.2,0,0.3,0,0.4H34z M36.7,30c0-0.6-0.2-1.5-1.3-1.5c-0.9,0-1.3,0.9-1.4,1.5H36.7z"/>
	<path class="st3" d="M38.7,29.6c0-0.6,0-1.1,0-1.6h0.8l0,1h0c0.2-0.7,0.8-1.1,1.4-1.1c0.1,0,0.2,0,0.3,0v0.9c-0.1,0-0.2,0-0.3,0
		c-0.7,0-1.1,0.5-1.2,1.2c0,0.1,0,0.3,0,0.4v2.7h-0.9V29.6z"/>
	<path class="st3" d="M44.3,32c0.4,0.3,1,0.5,1.6,0.5c0.9,0,1.5-0.5,1.5-1.2c0-0.7-0.4-1-1.3-1.4c-1.2-0.4-1.9-1-1.9-2
		c0-1.1,0.9-1.9,2.3-1.9c0.7,0,1.3,0.2,1.6,0.3L47.8,27c-0.2-0.1-0.7-0.3-1.3-0.3c-1,0-1.3,0.6-1.3,1.1c0,0.7,0.4,1,1.4,1.4
		c1.2,0.5,1.8,1,1.8,2.1c0,1.1-0.8,2-2.5,2c-0.7,0-1.4-0.2-1.8-0.5L44.3,32z"/>
	<path class="st3" d="M50.5,26v7.1h-0.9V26H50.5z"/>
	<path class="st3" d="M52.1,26.1c0.4-0.1,1-0.1,1.8-0.1c0.9,0,1.6,0.2,2,0.6c0.4,0.3,0.6,0.9,0.6,1.5c0,0.6-0.2,1.1-0.5,1.5
		c-0.5,0.5-1.3,0.8-2.2,0.8c-0.3,0-0.5,0-0.7-0.1v2.8h-0.9V26.1z M53.1,29.5c0.2,0.1,0.5,0.1,0.8,0.1c1.1,0,1.8-0.5,1.8-1.5
		c0-0.9-0.7-1.4-1.7-1.4c-0.4,0-0.7,0-0.9,0.1V29.5z"/>
	<path class="st3" d="M60,26.1c0.4-0.1,1-0.1,1.8-0.1c0.9,0,1.6,0.2,2,0.6c0.4,0.3,0.6,0.9,0.6,1.5c0,0.6-0.2,1.1-0.5,1.5
		c-0.5,0.5-1.3,0.8-2.2,0.8c-0.3,0-0.5,0-0.7-0.1v2.8H60V26.1z M60.9,29.5c0.2,0.1,0.5,0.1,0.8,0.1c1.1,0,1.8-0.5,1.8-1.5
		c0-0.9-0.7-1.4-1.7-1.4c-0.4,0-0.7,0-0.9,0.1V29.5z"/>
	<path class="st3" d="M68.1,33.1L68,32.4h0c-0.3,0.4-0.8,0.8-1.6,0.8c-1,0-1.6-0.7-1.6-1.5c0-1.2,1.1-1.9,3.1-1.9v-0.1
		c0-0.4-0.1-1.2-1.2-1.2c-0.5,0-1,0.1-1.3,0.4l-0.2-0.6c0.4-0.3,1-0.5,1.7-0.5c1.6,0,1.9,1.1,1.9,2.1v1.9c0,0.4,0,0.9,0.1,1.2H68.1z
		 M68,30.5c-1,0-2.2,0.2-2.2,1.1c0,0.6,0.4,0.9,0.9,0.9c0.7,0,1.1-0.4,1.2-0.9c0-0.1,0.1-0.2,0.1-0.3V30.5z"/>
	<path class="st3" d="M70.4,29.6c0-0.6,0-1.1,0-1.6h0.8l0,1h0c0.2-0.7,0.8-1.1,1.4-1.1c0.1,0,0.2,0,0.3,0v0.9c-0.1,0-0.2,0-0.3,0
		c-0.7,0-1.1,0.5-1.2,1.2c0,0.1,0,0.3,0,0.4v2.7h-0.9V29.6z"/>
	<path class="st3" d="M75.2,26.5V28h1.3v0.7h-1.3v2.8c0,0.6,0.2,1,0.7,1c0.2,0,0.4,0,0.5-0.1l0,0.7c-0.2,0.1-0.5,0.1-0.8,0.1
		c-0.4,0-0.8-0.1-1-0.4c-0.3-0.3-0.4-0.7-0.4-1.3v-2.8h-0.8V28h0.8v-1.2L75.2,26.5z"/>
	<path class="st3" d="M79.8,26.1c0.4-0.1,1-0.1,1.7-0.1c0.9,0,1.5,0.2,2,0.5c0.4,0.3,0.6,0.7,0.6,1.3c0,0.7-0.5,1.3-1.2,1.6v0
		c0.7,0.2,1.5,0.7,1.5,1.8c0,0.6-0.2,1.1-0.6,1.4c-0.5,0.5-1.3,0.7-2.5,0.7c-0.6,0-1.1,0-1.4-0.1V26.1z M80.7,29h0.8
		c1,0,1.5-0.5,1.5-1.2c0-0.8-0.6-1.2-1.6-1.2c-0.4,0-0.7,0-0.8,0.1V29z M80.7,32.4c0.2,0,0.4,0,0.8,0c0.9,0,1.8-0.3,1.8-1.4
		c0-1-0.8-1.4-1.8-1.4h-0.8V32.4z"/>
	<path class="st3" d="M87.7,29.6c0-0.6,0-1.1,0-1.6h0.8l0,1h0c0.2-0.7,0.8-1.1,1.4-1.1c0.1,0,0.2,0,0.3,0v0.9c-0.1,0-0.2,0-0.3,0
		c-0.7,0-1.1,0.5-1.2,1.2c0,0.1,0,0.3,0,0.4v2.7h-0.9V29.6z"/>
	<path class="st3" d="M91.6,30.7c0,1.3,0.8,1.8,1.8,1.8c0.7,0,1.1-0.1,1.4-0.3l0.2,0.7c-0.3,0.1-0.9,0.3-1.7,0.3
		c-1.6,0-2.5-1-2.5-2.6s0.9-2.8,2.4-2.8c1.7,0,2.1,1.5,2.1,2.4c0,0.2,0,0.3,0,0.4H91.6z M94.3,30c0-0.6-0.2-1.5-1.3-1.5
		c-0.9,0-1.3,0.9-1.4,1.5H94.3z"/>
	<path class="st3" d="M100.8,28c0,0.4,0,0.8,0,1.4v3c0,1.2-0.2,1.9-0.7,2.3c-0.5,0.5-1.2,0.6-1.9,0.6c-0.6,0-1.3-0.1-1.7-0.4
		l0.2-0.7c0.3,0.2,0.9,0.4,1.5,0.4c0.9,0,1.6-0.5,1.6-1.8v-0.6h0c-0.3,0.5-0.8,0.9-1.6,0.9c-1.3,0-2.2-1.1-2.2-2.5
		c0-1.7,1.1-2.7,2.3-2.7c0.9,0,1.4,0.5,1.6,0.9h0l0-0.8H100.8z M99.8,30c0-0.2,0-0.3-0.1-0.4c-0.2-0.5-0.6-1-1.3-1
		c-0.9,0-1.5,0.7-1.5,1.9c0,1,0.5,1.8,1.5,1.8c0.6,0,1.1-0.4,1.3-0.9c0.1-0.2,0.1-0.3,0.1-0.5V30z"/>
	<path class="st3" d="M103.2,26.5c0,0.3-0.2,0.6-0.6,0.6c-0.3,0-0.6-0.3-0.6-0.6c0-0.3,0.2-0.6,0.6-0.6
		C103,26,103.2,26.2,103.2,26.5z M102.2,33.1V28h0.9v5.1H102.2z"/>
	<path class="st3" d="M109.3,30.5c0,1.9-1.3,2.7-2.5,2.7c-1.4,0-2.4-1-2.4-2.6c0-1.7,1.1-2.7,2.5-2.7
		C108.3,27.9,109.3,28.9,109.3,30.5z M105.2,30.5c0,1.1,0.6,2,1.5,2c0.9,0,1.5-0.8,1.5-2c0-0.9-0.4-2-1.5-2S105.2,29.6,105.2,30.5z"
		/>
	<path class="st3" d="M110.4,29.4c0-0.5,0-1,0-1.4h0.8l0.1,0.8h0c0.3-0.5,0.8-1,1.7-1c0.7,0,1.8,0.4,1.8,2.2v3h-0.9v-2.9
		c0-0.8-0.3-1.5-1.2-1.5c-0.6,0-1.1,0.4-1.2,0.9c0,0.1-0.1,0.3-0.1,0.4v3.1h-0.9V29.4z"/>
	<path class="st3" d="M116.2,32.1c0.3,0.2,0.8,0.4,1.2,0.4c0.7,0,1-0.3,1-0.8c0-0.4-0.3-0.7-0.9-0.9c-0.9-0.3-1.3-0.8-1.3-1.4
		c0-0.8,0.7-1.5,1.8-1.5c0.5,0,1,0.1,1.3,0.3l-0.2,0.7c-0.2-0.1-0.6-0.3-1-0.3c-0.5,0-0.9,0.3-0.9,0.7c0,0.4,0.3,0.6,1,0.9
		c0.9,0.3,1.3,0.8,1.3,1.5c0,0.9-0.7,1.5-1.9,1.5c-0.6,0-1.1-0.1-1.4-0.3L116.2,32.1z"/>
	<path class="st3" d="M119.9,34.4c0.7-1,1.3-2.4,1.3-4.3c0-1.9-0.6-3.2-1.3-4.3h0.7c0.7,0.9,1.4,2.2,1.4,4.3c0,2.1-0.7,3.4-1.4,4.3
		H119.9z"/>
</g>
</svg>
