<?xml version="1.0" encoding="utf-8"?>
<!-- Generator: Adobe Illustrator 22.0.0, SVG Export Plug-In . SVG Version: 6.00 Build 0)  -->
<svg version="1.1" id="Layer_1" xmlns="http://www.w3.org/2000/svg" xmlns:xlink="http://www.w3.org/1999/xlink" x="0px" y="0px"
	 viewBox="0 0 531.9 74.2" style="enable-background:new 0 0 531.9 74.2;" xml:space="preserve">
<style type="text/css">
	.st0{fill:#58595B;}
</style>
<g>
	<path class="st0" d="M29.3,6.7h-3.8V20h-2.1V6.7h-3.8V5.1h9.7V6.7z"/>
	<path class="st0" d="M32.9,10.4c0.3-0.5,0.7-0.9,1.1-1.2c0.5-0.3,1-0.4,1.5-0.4c1,0,1.8,0.4,2.3,1.1s0.8,1.9,0.8,3.4V20h-2.1v-6.8
		c0-1-0.1-1.8-0.4-2.2c-0.3-0.4-0.7-0.7-1.3-0.7c-0.4,0-0.8,0.1-1.1,0.4c-0.3,0.2-0.6,0.6-0.8,1V20h-2.1V4h2.1V10.4z"/>
	<path class="st0" d="M45.1,20.2c-1.3,0-2.4-0.5-3.2-1.4s-1.2-2.1-1.2-3.5v-1.6c0-1.4,0.4-2.6,1.2-3.6c0.8-0.9,1.8-1.4,3-1.4
		c1.3,0,2.2,0.4,2.9,1.3c0.7,0.9,1,2,1,3.5v1.4h-6v0.4c0,1,0.2,1.7,0.6,2.4c0.4,0.6,1,0.9,1.8,0.9c0.6,0,1.1-0.1,1.5-0.3
		c0.4-0.2,0.8-0.4,1.2-0.8l0.7,1.3c-0.3,0.4-0.8,0.7-1.4,1S45.9,20.2,45.1,20.2z M44.9,10.3c-0.6,0-1.1,0.3-1.4,0.9
		c-0.4,0.6-0.6,1.3-0.6,2.2h3.9V13c0-0.8-0.2-1.4-0.5-1.9C45.9,10.5,45.5,10.3,44.9,10.3z"/>
	<path class="st0" d="M63.4,15.4c0,1.5-0.3,2.6-1,3.5s-1.5,1.3-2.7,1.3c-0.5,0-1-0.1-1.4-0.3s-0.8-0.5-1.1-0.9v5.3h-2.1V8.9H57
		l0.1,1.3c0.3-0.5,0.7-0.8,1.1-1.1c0.4-0.3,0.9-0.4,1.5-0.4c1.2,0,2.1,0.5,2.7,1.5s1,2.3,1,3.9V15.4z M61.3,14c0-1.1-0.2-2-0.5-2.7
		c-0.4-0.7-0.9-1-1.6-1c-0.4,0-0.8,0.1-1.1,0.4c-0.3,0.3-0.6,0.6-0.8,1v5.6c0.2,0.4,0.4,0.7,0.7,1c0.3,0.2,0.7,0.3,1.2,0.3
		c0.7,0,1.3-0.3,1.6-0.9c0.4-0.6,0.5-1.4,0.5-2.4V14z"/>
	<path class="st0" d="M67.6,6h-2.1V4h2.1V6z M67.6,20h-2.1V8.9h2.1V20z"/>
	<path class="st0" d="M78.3,15.4c0,1.5-0.3,2.6-1,3.5s-1.5,1.3-2.7,1.3c-0.5,0-1-0.1-1.4-0.3s-0.8-0.5-1.1-0.9v5.3h-2.1V8.9H72
		l0.1,1.3c0.3-0.5,0.7-0.8,1.1-1.1c0.4-0.3,0.9-0.4,1.5-0.4c1.2,0,2.1,0.5,2.7,1.5s1,2.3,1,3.9V15.4z M76.2,14c0-1.1-0.2-2-0.5-2.7
		c-0.4-0.7-0.9-1-1.6-1c-0.4,0-0.8,0.1-1.1,0.4c-0.3,0.3-0.6,0.6-0.8,1v5.6c0.2,0.4,0.4,0.7,0.7,1c0.3,0.2,0.7,0.3,1.2,0.3
		c0.7,0,1.3-0.3,1.6-0.9c0.4-0.6,0.5-1.4,0.5-2.4V14z"/>
	<path class="st0" d="M84.3,20.2c-1.3,0-2.4-0.5-3.2-1.4S80,16.8,80,15.3v-1.6c0-1.4,0.4-2.6,1.2-3.6c0.8-0.9,1.8-1.4,3-1.4
		c1.3,0,2.2,0.4,2.9,1.3c0.7,0.9,1,2,1,3.5v1.4h-6v0.4c0,1,0.2,1.7,0.6,2.4c0.4,0.6,1,0.9,1.8,0.9c0.6,0,1.1-0.1,1.5-0.3
		c0.4-0.2,0.8-0.4,1.2-0.8l0.7,1.3c-0.3,0.4-0.8,0.7-1.4,1S85.1,20.2,84.3,20.2z M84.1,10.3c-0.6,0-1.1,0.3-1.4,0.9
		c-0.4,0.6-0.6,1.3-0.6,2.2H86V13c0-0.8-0.2-1.4-0.5-1.9C85.2,10.5,84.7,10.3,84.1,10.3z"/>
	<path class="st0" d="M92.1,20H90V4h2.1V20z"/>
	<path class="st0" d="M96.8,6h-2.1V4h2.1V6z M96.8,20h-2.1V8.9h2.1V20z"/>
	<path class="st0" d="M101.2,8.9l0.1,1.6c0.3-0.6,0.7-1,1.2-1.4c0.5-0.3,1-0.5,1.6-0.5c1,0,1.7,0.4,2.3,1.1c0.5,0.7,0.8,1.8,0.8,3.3
		V20h-2.1v-6.9c0-1-0.1-1.8-0.4-2.2s-0.7-0.6-1.3-0.6c-0.4,0-0.8,0.1-1.1,0.4c-0.3,0.3-0.6,0.6-0.8,1.1V20h-2.1V8.9H101.2z"/>
	<path class="st0" d="M113.6,20.2c-1.3,0-2.4-0.5-3.2-1.4s-1.2-2.1-1.2-3.5v-1.6c0-1.4,0.4-2.6,1.2-3.6c0.8-0.9,1.8-1.4,3-1.4
		c1.3,0,2.2,0.4,2.9,1.3c0.7,0.9,1,2,1,3.5v1.4h-6v0.4c0,1,0.2,1.7,0.6,2.4c0.4,0.6,1,0.9,1.8,0.9c0.6,0,1.1-0.1,1.5-0.3
		c0.4-0.2,0.8-0.4,1.2-0.8l0.7,1.3c-0.3,0.4-0.8,0.7-1.4,1S114.3,20.2,113.6,20.2z M113.3,10.3c-0.6,0-1.1,0.3-1.4,0.9
		c-0.4,0.6-0.6,1.3-0.6,2.2h3.9V13c0-0.8-0.2-1.4-0.5-1.9C114.4,10.5,113.9,10.3,113.3,10.3z"/>
	<path class="st0" d="M128.8,17.2c0-0.4-0.1-0.8-0.4-1.1c-0.3-0.3-0.8-0.6-1.6-1c-1.1-0.4-2-0.9-2.5-1.4c-0.6-0.5-0.8-1.2-0.8-2
		c0-0.9,0.3-1.6,1-2.2c0.7-0.6,1.6-0.9,2.7-0.9c1.1,0,2.1,0.3,2.7,1c0.7,0.6,1,1.5,1,2.4l0,0.1h-2c0-0.5-0.1-1-0.4-1.4
		c-0.3-0.4-0.7-0.6-1.2-0.6c-0.5,0-0.9,0.1-1.2,0.4c-0.3,0.3-0.4,0.6-0.4,1c0,0.4,0.1,0.8,0.4,1s0.8,0.6,1.6,1
		c1.2,0.4,2,0.9,2.6,1.4c0.6,0.5,0.8,1.2,0.8,2c0,0.9-0.3,1.7-1,2.2s-1.6,0.9-2.7,0.9c-1.2,0-2.2-0.3-2.9-1c-0.7-0.7-1-1.5-1-2.4
		l0-0.1h1.9c0,0.7,0.2,1.2,0.6,1.6c0.4,0.3,0.8,0.5,1.4,0.5c0.5,0,1-0.1,1.3-0.4C128.7,18,128.8,17.7,128.8,17.2z"/>
	<path class="st0" d="M138.6,18.5c-0.3,0.5-0.7,1-1.1,1.3s-1,0.4-1.6,0.4c-1,0-1.8-0.4-2.3-1.2s-0.8-2-0.8-3.6V8.9h2.1v6.6
		c0,1.1,0.1,1.9,0.4,2.4c0.3,0.5,0.7,0.7,1.2,0.7c0.5,0,0.9-0.1,1.3-0.4c0.3-0.2,0.6-0.6,0.8-1V8.9h2.1V20h-1.9L138.6,18.5z"/>
	<path class="st0" d="M151.2,15.4c0,1.5-0.3,2.6-1,3.5s-1.5,1.3-2.7,1.3c-0.5,0-1-0.1-1.4-0.3s-0.8-0.5-1.1-0.9v5.3H143V8.9h1.9
		l0.1,1.3c0.3-0.5,0.7-0.8,1.1-1.1c0.4-0.3,0.9-0.4,1.5-0.4c1.2,0,2.1,0.5,2.7,1.5s1,2.3,1,3.9V15.4z M149.1,14c0-1.1-0.2-2-0.5-2.7
		c-0.4-0.7-0.9-1-1.6-1c-0.4,0-0.8,0.1-1.1,0.4c-0.3,0.3-0.6,0.6-0.8,1v5.6c0.2,0.4,0.4,0.7,0.7,1c0.3,0.2,0.7,0.3,1.2,0.3
		c0.7,0,1.3-0.3,1.6-0.9c0.4-0.6,0.5-1.4,0.5-2.4V14z"/>
	<path class="st0" d="M161.4,15.4c0,1.5-0.3,2.6-1,3.5s-1.5,1.3-2.7,1.3c-0.5,0-1-0.1-1.4-0.3s-0.8-0.5-1.1-0.9v5.3h-2.1V8.9h1.9
		l0.1,1.3c0.3-0.5,0.7-0.8,1.1-1.1c0.4-0.3,0.9-0.4,1.5-0.4c1.2,0,2.1,0.5,2.7,1.5s1,2.3,1,3.9V15.4z M159.3,14c0-1.1-0.2-2-0.5-2.7
		c-0.4-0.7-0.9-1-1.6-1c-0.4,0-0.8,0.1-1.1,0.4c-0.3,0.3-0.6,0.6-0.8,1v5.6c0.2,0.4,0.4,0.7,0.7,1c0.3,0.2,0.7,0.3,1.2,0.3
		c0.7,0,1.3-0.3,1.6-0.9c0.4-0.6,0.5-1.4,0.5-2.4V14z"/>
	<path class="st0" d="M163,13.8c0-1.5,0.4-2.7,1.2-3.6c0.8-0.9,1.8-1.4,3.2-1.4c1.3,0,2.4,0.5,3.2,1.4c0.8,0.9,1.2,2.2,1.2,3.6v1.4
		c0,1.5-0.4,2.7-1.2,3.6c-0.8,0.9-1.8,1.4-3.2,1.4c-1.3,0-2.4-0.5-3.2-1.4c-0.8-0.9-1.2-2.2-1.2-3.6V13.8z M165.1,15.2
		c0,1,0.2,1.8,0.6,2.5c0.4,0.7,0.9,1,1.7,1c0.7,0,1.3-0.3,1.7-1c0.4-0.7,0.6-1.5,0.6-2.5v-1.4c0-1-0.2-1.8-0.6-2.5s-0.9-1-1.7-1
		c-0.8,0-1.3,0.3-1.7,1s-0.6,1.5-0.6,2.5V15.2z"/>
	<path class="st0" d="M178.4,10.7l-1-0.1c-0.4,0-0.8,0.1-1.1,0.4s-0.5,0.6-0.7,1.1V20h-2.1V8.9h1.9l0.2,1.7c0.2-0.6,0.5-1,0.9-1.4
		c0.4-0.3,0.8-0.5,1.3-0.5c0.1,0,0.3,0,0.4,0c0.1,0,0.3,0.1,0.3,0.1L178.4,10.7z"/>
	<path class="st0" d="M183.1,6.1v2.8h1.7v1.5h-1.7V17c0,0.6,0.1,1,0.3,1.2c0.2,0.2,0.4,0.4,0.7,0.4c0.2,0,0.3,0,0.5,0
		c0.1,0,0.3-0.1,0.5-0.1l0.2,1.4c-0.2,0.1-0.5,0.2-0.8,0.2c-0.3,0.1-0.6,0.1-0.9,0.1c-0.8,0-1.4-0.3-1.8-0.8
		c-0.4-0.5-0.7-1.3-0.7-2.4v-6.6h-1.4V8.9h1.4V6.1H183.1z"/>
	<path class="st0" d="M192,17.2c0-0.4-0.1-0.8-0.4-1.1c-0.3-0.3-0.8-0.6-1.6-1c-1.1-0.4-2-0.9-2.5-1.4c-0.6-0.5-0.8-1.2-0.8-2
		c0-0.9,0.3-1.6,1-2.2c0.7-0.6,1.6-0.9,2.7-0.9c1.1,0,2.1,0.3,2.7,1c0.7,0.6,1,1.5,1,2.4l0,0.1h-2c0-0.5-0.1-1-0.4-1.4
		c-0.3-0.4-0.7-0.6-1.2-0.6c-0.5,0-0.9,0.1-1.2,0.4c-0.3,0.3-0.4,0.6-0.4,1c0,0.4,0.1,0.8,0.4,1s0.8,0.6,1.6,1
		c1.2,0.4,2,0.9,2.6,1.4c0.6,0.5,0.8,1.2,0.8,2c0,0.9-0.3,1.7-1,2.2s-1.6,0.9-2.7,0.9c-1.2,0-2.2-0.3-2.9-1c-0.7-0.7-1-1.5-1-2.4
		l0-0.1h1.9c0,0.7,0.2,1.2,0.6,1.6c0.4,0.3,0.8,0.5,1.4,0.5c0.5,0,1-0.1,1.3-0.4C191.9,18,192,17.7,192,17.2z"/>
	<path class="st0" d="M206.2,20c-0.1-0.3-0.1-0.5-0.2-0.7c0-0.2-0.1-0.5-0.1-0.7c-0.3,0.5-0.7,0.9-1.2,1.2c-0.5,0.3-1,0.5-1.5,0.5
		c-0.9,0-1.7-0.3-2.2-0.9c-0.5-0.6-0.8-1.4-0.8-2.4c0-1.1,0.4-1.9,1.1-2.5c0.7-0.6,1.7-0.9,3-0.9h1.5v-1.1c0-0.7-0.2-1.2-0.5-1.6
		s-0.7-0.6-1.3-0.6c-0.5,0-0.9,0.2-1.2,0.5s-0.5,0.8-0.5,1.3l-2,0l0-0.1c0-0.9,0.3-1.6,1-2.3c0.7-0.7,1.6-1,2.8-1c1.1,0,2,0.3,2.7,1
		c0.7,0.6,1,1.6,1,2.8v5.1c0,0.4,0,0.8,0.1,1.2c0.1,0.4,0.1,0.8,0.3,1.2H206.2z M203.7,18.6c0.5,0,0.9-0.1,1.3-0.4
		c0.4-0.3,0.7-0.6,0.9-1.1v-2.3h-1.6c-0.6,0-1.1,0.2-1.5,0.6c-0.4,0.4-0.5,0.9-0.5,1.5c0,0.5,0.1,0.9,0.4,1.2
		C202.9,18.5,203.3,18.6,203.7,18.6z"/>
	<path class="st0" d="M218.8,18.6c0.5,0,1-0.2,1.3-0.6c0.4-0.4,0.5-0.9,0.5-1.6h1.9l0,0.1c0,1-0.3,1.9-1.1,2.6s-1.6,1.1-2.7,1.1
		c-1.4,0-2.4-0.5-3.2-1.4s-1.1-2.1-1.1-3.6v-1.5c0-1.4,0.4-2.6,1.1-3.6s1.8-1.4,3.2-1.4c1.1,0,2,0.4,2.7,1.1c0.7,0.7,1,1.7,1,2.9
		l0,0.1h-1.9c0-0.7-0.2-1.3-0.5-1.8c-0.3-0.5-0.8-0.7-1.3-0.7c-0.8,0-1.4,0.3-1.7,1c-0.3,0.6-0.5,1.5-0.5,2.4v1.5
		c0,1,0.2,1.8,0.5,2.5C217.4,18.3,218,18.6,218.8,18.6z"/>
	<path class="st0" d="M224,13.8c0-1.5,0.4-2.7,1.2-3.6c0.8-0.9,1.8-1.4,3.2-1.4c1.3,0,2.4,0.5,3.2,1.4c0.8,0.9,1.2,2.2,1.2,3.6v1.4
		c0,1.5-0.4,2.7-1.2,3.6c-0.8,0.9-1.8,1.4-3.2,1.4c-1.3,0-2.4-0.5-3.2-1.4c-0.8-0.9-1.2-2.2-1.2-3.6V13.8z M226,15.2
		c0,1,0.2,1.8,0.6,2.5c0.4,0.7,0.9,1,1.7,1c0.7,0,1.3-0.3,1.7-1c0.4-0.7,0.6-1.5,0.6-2.5v-1.4c0-1-0.2-1.8-0.6-2.5s-0.9-1-1.7-1
		c-0.8,0-1.3,0.3-1.7,1s-0.6,1.5-0.6,2.5V15.2z"/>
	<path class="st0" d="M234.2,13.8c0-1.5,0.4-2.7,1.2-3.6c0.8-0.9,1.8-1.4,3.2-1.4c1.3,0,2.4,0.5,3.2,1.4c0.8,0.9,1.2,2.2,1.2,3.6
		v1.4c0,1.5-0.4,2.7-1.2,3.6c-0.8,0.9-1.8,1.4-3.2,1.4c-1.3,0-2.4-0.5-3.2-1.4c-0.8-0.9-1.2-2.2-1.2-3.6V13.8z M236.3,15.2
		c0,1,0.2,1.8,0.6,2.5c0.4,0.7,0.9,1,1.7,1c0.7,0,1.3-0.3,1.7-1c0.4-0.7,0.6-1.5,0.6-2.5v-1.4c0-1-0.2-1.8-0.6-2.5s-0.9-1-1.7-1
		c-0.8,0-1.3,0.3-1.7,1s-0.6,1.5-0.6,2.5V15.2z"/>
	<path class="st0" d="M249.6,10.7l-1-0.1c-0.4,0-0.8,0.1-1.1,0.4s-0.5,0.6-0.7,1.1V20h-2.1V8.9h1.9l0.2,1.7c0.2-0.6,0.5-1,0.9-1.4
		c0.4-0.3,0.8-0.5,1.3-0.5c0.1,0,0.3,0,0.4,0c0.1,0,0.3,0.1,0.3,0.1L249.6,10.7z"/>
	<path class="st0" d="M250.7,14.6c0-1.8,0.3-3.2,1-4.3c0.6-1.1,1.5-1.6,2.7-1.6c0.5,0,1,0.1,1.4,0.3c0.4,0.2,0.8,0.6,1.1,1V4h2.1v16
		H257l-0.2-1.3c-0.3,0.5-0.7,0.9-1.1,1.1c-0.4,0.3-0.9,0.4-1.5,0.4c-1.2,0-2.1-0.5-2.7-1.5c-0.6-1-1-2.3-1-3.9V14.6z M252.8,14.8
		c0,1.2,0.2,2.1,0.5,2.8s0.9,1,1.6,1c0.5,0,0.8-0.1,1.2-0.4c0.3-0.2,0.6-0.6,0.8-1v-5.4c-0.2-0.5-0.5-0.8-0.8-1.1
		c-0.3-0.3-0.7-0.4-1.1-0.4c-0.7,0-1.3,0.4-1.6,1.2s-0.5,1.8-0.5,3.1V14.8z"/>
	<path class="st0" d="M263.5,6h-2.1V4h2.1V6z M263.5,20h-2.1V8.9h2.1V20z"/>
	<path class="st0" d="M267.9,8.9l0.1,1.6c0.3-0.6,0.7-1,1.2-1.4c0.5-0.3,1-0.5,1.6-0.5c1,0,1.7,0.4,2.3,1.1c0.5,0.7,0.8,1.8,0.8,3.3
		V20h-2.1v-6.9c0-1-0.1-1.8-0.4-2.2s-0.7-0.6-1.3-0.6c-0.4,0-0.8,0.1-1.1,0.4c-0.3,0.3-0.6,0.6-0.8,1.1V20H266V8.9H267.9z"/>
	<path class="st0" d="M281.9,20c-0.1-0.3-0.1-0.5-0.2-0.7c0-0.2-0.1-0.5-0.1-0.7c-0.3,0.5-0.7,0.9-1.2,1.2c-0.5,0.3-1,0.5-1.5,0.5
		c-0.9,0-1.7-0.3-2.2-0.9c-0.5-0.6-0.8-1.4-0.8-2.4c0-1.1,0.4-1.9,1.1-2.5c0.7-0.6,1.7-0.9,3-0.9h1.5v-1.1c0-0.7-0.2-1.2-0.5-1.6
		s-0.7-0.6-1.3-0.6c-0.5,0-0.9,0.2-1.2,0.5c-0.3,0.3-0.5,0.8-0.5,1.3l-2,0l0-0.1c0-0.9,0.3-1.6,1-2.3c0.7-0.7,1.6-1,2.8-1
		c1.1,0,2,0.3,2.7,1c0.7,0.6,1,1.6,1,2.8v5.1c0,0.4,0,0.8,0.1,1.2c0.1,0.4,0.1,0.8,0.3,1.2H281.9z M279.4,18.6
		c0.5,0,0.9-0.1,1.3-0.4c0.4-0.3,0.7-0.6,0.9-1.1v-2.3H280c-0.6,0-1.1,0.2-1.5,0.6c-0.4,0.4-0.5,0.9-0.5,1.5c0,0.5,0.1,0.9,0.4,1.2
		C278.6,18.5,278.9,18.6,279.4,18.6z"/>
	<path class="st0" d="M288.7,6.1v2.8h1.7v1.5h-1.7V17c0,0.6,0.1,1,0.3,1.2c0.2,0.2,0.4,0.4,0.7,0.4c0.2,0,0.3,0,0.5,0
		c0.1,0,0.3-0.1,0.5-0.1l0.2,1.4c-0.2,0.1-0.5,0.2-0.8,0.2c-0.3,0.1-0.6,0.1-0.9,0.1c-0.8,0-1.4-0.3-1.8-0.8
		c-0.4-0.5-0.7-1.3-0.7-2.4v-6.6h-1.4V8.9h1.4V6.1H288.7z"/>
	<path class="st0" d="M296.5,20.2c-1.3,0-2.4-0.5-3.2-1.4s-1.2-2.1-1.2-3.5v-1.6c0-1.4,0.4-2.6,1.2-3.6c0.8-0.9,1.8-1.4,3-1.4
		c1.3,0,2.2,0.4,2.9,1.3c0.7,0.9,1,2,1,3.5v1.4h-6v0.4c0,1,0.2,1.7,0.6,2.4c0.4,0.6,1,0.9,1.8,0.9c0.6,0,1.1-0.1,1.5-0.3
		c0.4-0.2,0.8-0.4,1.2-0.8l0.7,1.3c-0.3,0.4-0.8,0.7-1.4,1S297.2,20.2,296.5,20.2z M296.2,10.3c-0.6,0-1.1,0.3-1.4,0.9
		c-0.4,0.6-0.6,1.3-0.6,2.2h3.9V13c0-0.8-0.2-1.4-0.5-1.9C297.3,10.5,296.8,10.3,296.2,10.3z"/>
	<path class="st0" d="M301.6,14.6c0-1.8,0.3-3.2,1-4.3c0.6-1.1,1.5-1.6,2.7-1.6c0.5,0,1,0.1,1.4,0.3c0.4,0.2,0.8,0.6,1.1,1V4h2.1v16
		H308l-0.2-1.3c-0.3,0.5-0.7,0.9-1.1,1.1c-0.4,0.3-0.9,0.4-1.5,0.4c-1.2,0-2.1-0.5-2.7-1.5c-0.6-1-1-2.3-1-3.9V14.6z M303.7,14.8
		c0,1.2,0.2,2.1,0.5,2.8s0.9,1,1.6,1c0.5,0,0.8-0.1,1.2-0.4c0.3-0.2,0.6-0.6,0.8-1v-5.4c-0.2-0.5-0.5-0.8-0.8-1.1
		c-0.3-0.3-0.7-0.4-1.1-0.4c-0.7,0-1.3,0.4-1.6,1.2c-0.3,0.8-0.5,1.8-0.5,3.1V14.8z"/>
	<path class="st0" d="M322.4,20c-0.1-0.3-0.1-0.5-0.2-0.7c0-0.2-0.1-0.5-0.1-0.7c-0.3,0.5-0.7,0.9-1.2,1.2c-0.5,0.3-1,0.5-1.5,0.5
		c-0.9,0-1.7-0.3-2.2-0.9c-0.5-0.6-0.8-1.4-0.8-2.4c0-1.1,0.4-1.9,1.1-2.5c0.7-0.6,1.7-0.9,3-0.9h1.5v-1.1c0-0.7-0.2-1.2-0.5-1.6
		s-0.7-0.6-1.3-0.6c-0.5,0-0.9,0.2-1.2,0.5c-0.3,0.3-0.5,0.8-0.5,1.3l-2,0l0-0.1c0-0.9,0.3-1.6,1-2.3c0.7-0.7,1.6-1,2.8-1
		c1.1,0,2,0.3,2.7,1c0.7,0.6,1,1.6,1,2.8v5.1c0,0.4,0,0.8,0.1,1.2c0.1,0.4,0.1,0.8,0.3,1.2H322.4z M319.9,18.6
		c0.5,0,0.9-0.1,1.3-0.4c0.4-0.3,0.7-0.6,0.9-1.1v-2.3h-1.6c-0.6,0-1.1,0.2-1.5,0.6c-0.4,0.4-0.5,0.9-0.5,1.5c0,0.5,0.1,0.9,0.4,1.2
		C319.1,18.5,319.5,18.6,319.9,18.6z"/>
	<path class="st0" d="M328.4,8.9l0.1,1.6c0.3-0.6,0.7-1,1.2-1.4c0.5-0.3,1-0.5,1.6-0.5c1,0,1.7,0.4,2.3,1.1c0.5,0.7,0.8,1.8,0.8,3.3
		V20h-2.1v-6.9c0-1-0.1-1.8-0.4-2.2c-0.3-0.4-0.7-0.6-1.3-0.6c-0.4,0-0.8,0.1-1.1,0.4c-0.3,0.3-0.6,0.6-0.8,1.1V20h-2.1V8.9H328.4z"
		/>
	<path class="st0" d="M336.4,14.6c0-1.8,0.3-3.2,1-4.3c0.6-1.1,1.5-1.6,2.7-1.6c0.5,0,1,0.1,1.4,0.3c0.4,0.2,0.8,0.6,1.1,1V4h2.1v16
		h-1.8l-0.2-1.3c-0.3,0.5-0.7,0.9-1.1,1.1c-0.4,0.3-0.9,0.4-1.5,0.4c-1.2,0-2.1-0.5-2.7-1.5c-0.6-1-1-2.3-1-3.9V14.6z M338.4,14.8
		c0,1.2,0.2,2.1,0.5,2.8s0.9,1,1.6,1c0.5,0,0.8-0.1,1.2-0.4c0.3-0.2,0.6-0.6,0.8-1v-5.4c-0.2-0.5-0.5-0.8-0.8-1.1
		c-0.3-0.3-0.7-0.4-1.1-0.4c-0.7,0-1.3,0.4-1.6,1.2c-0.3,0.8-0.5,1.8-0.5,3.1V14.8z"/>
	<path class="st0" d="M353.8,6h-2.1V4h2.1V6z M353.8,20h-2.1V8.9h2.1V20z"/>
	<path class="st0" d="M358.2,8.9l0.1,1.6c0.3-0.6,0.7-1,1.2-1.4c0.5-0.3,1-0.5,1.6-0.5c1,0,1.7,0.4,2.3,1.1c0.5,0.7,0.8,1.8,0.8,3.3
		V20H362v-6.9c0-1-0.1-1.8-0.4-2.2c-0.3-0.4-0.7-0.6-1.3-0.6c-0.4,0-0.8,0.1-1.1,0.4c-0.3,0.3-0.6,0.6-0.8,1.1V20h-2.1V8.9H358.2z"
		/>
	<path class="st0" d="M369.1,6.1v2.8h1.7v1.5h-1.7V17c0,0.6,0.1,1,0.3,1.2c0.2,0.2,0.4,0.4,0.7,0.4c0.2,0,0.3,0,0.5,0
		c0.1,0,0.3-0.1,0.5-0.1l0.2,1.4c-0.2,0.1-0.5,0.2-0.8,0.2c-0.3,0.1-0.6,0.1-0.9,0.1c-0.8,0-1.4-0.3-1.8-0.8
		c-0.4-0.5-0.7-1.3-0.7-2.4v-6.6h-1.4V8.9h1.4V6.1H369.1z"/>
	<path class="st0" d="M376.9,20.2c-1.3,0-2.4-0.5-3.2-1.4s-1.2-2.1-1.2-3.5v-1.6c0-1.4,0.4-2.6,1.2-3.6c0.8-0.9,1.8-1.4,3-1.4
		c1.3,0,2.2,0.4,2.9,1.3c0.7,0.9,1,2,1,3.5v1.4h-6v0.4c0,1,0.2,1.7,0.6,2.4c0.4,0.6,1,0.9,1.8,0.9c0.6,0,1.1-0.1,1.5-0.3
		c0.4-0.2,0.8-0.4,1.2-0.8l0.7,1.3c-0.3,0.4-0.8,0.7-1.4,1S377.7,20.2,376.9,20.2z M376.7,10.3c-0.6,0-1.1,0.3-1.4,0.9
		c-0.4,0.6-0.6,1.3-0.6,2.2h3.9V13c0-0.8-0.2-1.4-0.5-1.9C377.8,10.5,377.3,10.3,376.7,10.3z"/>
	<path class="st0" d="M382.1,14c0-1.6,0.3-2.9,1-3.9c0.7-1,1.6-1.5,2.7-1.5c0.6,0,1.1,0.1,1.5,0.4c0.4,0.3,0.8,0.6,1.1,1.1l0.2-1.3
		h1.8v11c0,1.4-0.4,2.5-1.1,3.3c-0.8,0.8-1.8,1.2-3.2,1.2c-0.5,0-1-0.1-1.5-0.2c-0.5-0.1-1-0.3-1.4-0.6l0.4-1.6
		c0.3,0.2,0.7,0.4,1.1,0.5c0.4,0.1,0.9,0.2,1.3,0.2c0.8,0,1.3-0.2,1.7-0.7c0.4-0.5,0.5-1.2,0.5-2.1v-1c-0.3,0.4-0.6,0.7-1.1,1
		c-0.4,0.2-0.9,0.3-1.4,0.3c-1.2,0-2.1-0.4-2.7-1.3c-0.6-0.9-1-2.1-1-3.5V14z M384.1,15.4c0,1,0.2,1.8,0.5,2.4
		c0.3,0.6,0.9,0.9,1.6,0.9c0.5,0,0.8-0.1,1.2-0.3c0.3-0.2,0.6-0.6,0.8-1v-5.5c-0.2-0.4-0.5-0.8-0.8-1c-0.3-0.3-0.7-0.4-1.1-0.4
		c-0.7,0-1.3,0.3-1.6,1c-0.4,0.7-0.5,1.6-0.5,2.7V15.4z"/>
	<path class="st0" d="M397.4,10.7l-1-0.1c-0.4,0-0.8,0.1-1.1,0.4c-0.3,0.3-0.5,0.6-0.7,1.1V20h-2.1V8.9h1.9l0.2,1.7
		c0.2-0.6,0.5-1,0.9-1.4c0.4-0.3,0.8-0.5,1.3-0.5c0.1,0,0.3,0,0.4,0c0.1,0,0.3,0.1,0.3,0.1L397.4,10.7z"/>
	<path class="st0" d="M404.8,20c-0.1-0.3-0.1-0.5-0.2-0.7c0-0.2-0.1-0.5-0.1-0.7c-0.3,0.5-0.7,0.9-1.2,1.2c-0.5,0.3-1,0.5-1.5,0.5
		c-0.9,0-1.7-0.3-2.2-0.9c-0.5-0.6-0.8-1.4-0.8-2.4c0-1.1,0.4-1.9,1.1-2.5c0.7-0.6,1.7-0.9,3-0.9h1.5v-1.1c0-0.7-0.2-1.2-0.5-1.6
		s-0.7-0.6-1.3-0.6c-0.5,0-0.9,0.2-1.2,0.5c-0.3,0.3-0.5,0.8-0.5,1.3l-2,0l0-0.1c0-0.9,0.3-1.6,1-2.3c0.7-0.7,1.6-1,2.8-1
		c1.1,0,2,0.3,2.7,1c0.7,0.6,1,1.6,1,2.8v5.1c0,0.4,0,0.8,0.1,1.2c0.1,0.4,0.1,0.8,0.3,1.2H404.8z M402.3,18.6
		c0.5,0,0.9-0.1,1.3-0.4c0.4-0.3,0.7-0.6,0.9-1.1v-2.3h-1.6c-0.6,0-1.1,0.2-1.5,0.6c-0.4,0.4-0.5,0.9-0.5,1.5c0,0.5,0.1,0.9,0.4,1.2
		C401.5,18.5,401.8,18.6,402.3,18.6z"/>
	<path class="st0" d="M411.6,6.1v2.8h1.7v1.5h-1.7V17c0,0.6,0.1,1,0.3,1.2c0.2,0.2,0.4,0.4,0.7,0.4c0.2,0,0.3,0,0.5,0
		c0.1,0,0.3-0.1,0.5-0.1l0.2,1.4c-0.2,0.1-0.5,0.2-0.8,0.2c-0.3,0.1-0.6,0.1-0.9,0.1c-0.8,0-1.4-0.3-1.8-0.8
		c-0.4-0.5-0.7-1.3-0.7-2.4v-6.6h-1.4V8.9h1.4V6.1H411.6z"/>
	<path class="st0" d="M419.4,20.2c-1.3,0-2.4-0.5-3.2-1.4s-1.2-2.1-1.2-3.5v-1.6c0-1.4,0.4-2.6,1.2-3.6c0.8-0.9,1.8-1.4,3-1.4
		c1.3,0,2.2,0.4,2.9,1.3c0.7,0.9,1,2,1,3.5v1.4h-6v0.4c0,1,0.2,1.7,0.6,2.4c0.4,0.6,1,0.9,1.8,0.9c0.6,0,1.1-0.1,1.5-0.3
		c0.4-0.2,0.8-0.4,1.2-0.8l0.7,1.3c-0.3,0.4-0.8,0.7-1.4,1S420.1,20.2,419.4,20.2z M419.1,10.3c-0.6,0-1.1,0.3-1.4,0.9
		c-0.4,0.6-0.6,1.3-0.6,2.2h3.9V13c0-0.8-0.2-1.4-0.5-1.9C420.2,10.5,419.7,10.3,419.1,10.3z"/>
	<path class="st0" d="M424.5,14.6c0-1.8,0.3-3.2,1-4.3c0.6-1.1,1.5-1.6,2.7-1.6c0.5,0,1,0.1,1.4,0.3c0.4,0.2,0.8,0.6,1.1,1V4h2.1v16
		h-1.8l-0.2-1.3c-0.3,0.5-0.7,0.9-1.1,1.1c-0.4,0.3-0.9,0.4-1.5,0.4c-1.2,0-2.1-0.5-2.7-1.5c-0.6-1-1-2.3-1-3.9V14.6z M426.6,14.8
		c0,1.2,0.2,2.1,0.5,2.8s0.9,1,1.6,1c0.5,0,0.8-0.1,1.2-0.4c0.3-0.2,0.6-0.6,0.8-1v-5.4c-0.2-0.5-0.5-0.8-0.8-1.1
		c-0.3-0.3-0.7-0.4-1.1-0.4c-0.7,0-1.3,0.4-1.6,1.2c-0.3,0.8-0.5,1.8-0.5,3.1V14.8z"/>
	<path class="st0" d="M445.3,20c-0.1-0.3-0.1-0.5-0.2-0.7c0-0.2-0.1-0.5-0.1-0.7c-0.3,0.5-0.7,0.9-1.2,1.2c-0.5,0.3-1,0.5-1.5,0.5
		c-0.9,0-1.7-0.3-2.2-0.9c-0.5-0.6-0.8-1.4-0.8-2.4c0-1.1,0.4-1.9,1.1-2.5c0.7-0.6,1.7-0.9,3-0.9h1.5v-1.1c0-0.7-0.2-1.2-0.5-1.6
		s-0.7-0.6-1.3-0.6c-0.5,0-0.9,0.2-1.2,0.5c-0.3,0.3-0.5,0.8-0.5,1.3l-2,0l0-0.1c0-0.9,0.3-1.6,1-2.3c0.7-0.7,1.6-1,2.8-1
		c1.1,0,2,0.3,2.7,1c0.7,0.6,1,1.6,1,2.8v5.1c0,0.4,0,0.8,0.1,1.2c0.1,0.4,0.1,0.8,0.3,1.2H445.3z M442.8,18.6
		c0.5,0,0.9-0.1,1.3-0.4c0.4-0.3,0.7-0.6,0.9-1.1v-2.3h-1.6c-0.6,0-1.1,0.2-1.5,0.6c-0.4,0.4-0.5,0.9-0.5,1.5c0,0.5,0.1,0.9,0.4,1.2
		C442,18.5,442.4,18.6,442.8,18.6z"/>
	<path class="st0" d="M457.7,15.4c0,1.5-0.3,2.6-1,3.5s-1.5,1.3-2.7,1.3c-0.5,0-1-0.1-1.4-0.3s-0.8-0.5-1.1-0.9v5.3h-2.1V8.9h1.9
		l0.1,1.3c0.3-0.5,0.7-0.8,1.1-1.1c0.4-0.3,0.9-0.4,1.5-0.4c1.2,0,2.1,0.5,2.7,1.5s1,2.3,1,3.9V15.4z M455.6,14c0-1.1-0.2-2-0.5-2.7
		c-0.4-0.7-0.9-1-1.6-1c-0.4,0-0.8,0.1-1.1,0.4c-0.3,0.3-0.6,0.6-0.8,1v5.6c0.2,0.4,0.4,0.7,0.7,1c0.3,0.2,0.7,0.3,1.2,0.3
		c0.7,0,1.3-0.3,1.6-0.9c0.4-0.6,0.5-1.4,0.5-2.4V14z"/>
	<path class="st0" d="M467.9,15.4c0,1.5-0.3,2.6-1,3.5s-1.5,1.3-2.7,1.3c-0.5,0-1-0.1-1.4-0.3s-0.8-0.5-1.1-0.9v5.3h-2.1V8.9h1.9
		l0.1,1.3c0.3-0.5,0.7-0.8,1.1-1.1c0.4-0.3,0.9-0.4,1.5-0.4c1.2,0,2.1,0.5,2.7,1.5s1,2.3,1,3.9V15.4z M465.8,14c0-1.1-0.2-2-0.5-2.7
		c-0.4-0.7-0.9-1-1.6-1c-0.4,0-0.8,0.1-1.1,0.4c-0.3,0.3-0.6,0.6-0.8,1v5.6c0.2,0.4,0.4,0.7,0.7,1c0.3,0.2,0.7,0.3,1.2,0.3
		c0.7,0,1.3-0.3,1.6-0.9c0.4-0.6,0.5-1.4,0.5-2.4V14z"/>
	<path class="st0" d="M474.7,10.7l-1-0.1c-0.4,0-0.8,0.1-1.1,0.4c-0.3,0.3-0.5,0.6-0.7,1.1V20h-2.1V8.9h1.9l0.2,1.7
		c0.2-0.6,0.5-1,0.9-1.4c0.4-0.3,0.8-0.5,1.3-0.5c0.1,0,0.3,0,0.4,0c0.1,0,0.3,0.1,0.3,0.1L474.7,10.7z"/>
	<path class="st0" d="M475.8,13.8c0-1.5,0.4-2.7,1.2-3.6c0.8-0.9,1.8-1.4,3.2-1.4c1.3,0,2.4,0.5,3.2,1.4c0.8,0.9,1.2,2.2,1.2,3.6
		v1.4c0,1.5-0.4,2.7-1.2,3.6c-0.8,0.9-1.8,1.4-3.2,1.4c-1.3,0-2.4-0.5-3.2-1.4c-0.8-0.9-1.2-2.2-1.2-3.6V13.8z M477.8,15.2
		c0,1,0.2,1.8,0.6,2.5c0.4,0.7,0.9,1,1.7,1c0.7,0,1.3-0.3,1.7-1c0.4-0.7,0.6-1.5,0.6-2.5v-1.4c0-1-0.2-1.8-0.6-2.5
		c-0.4-0.7-0.9-1-1.7-1c-0.8,0-1.3,0.3-1.7,1s-0.6,1.5-0.6,2.5V15.2z"/>
	<path class="st0" d="M492,20c-0.1-0.3-0.1-0.5-0.2-0.7c0-0.2-0.1-0.5-0.1-0.7c-0.3,0.5-0.7,0.9-1.2,1.2c-0.5,0.3-1,0.5-1.5,0.5
		c-0.9,0-1.7-0.3-2.2-0.9c-0.5-0.6-0.8-1.4-0.8-2.4c0-1.1,0.4-1.9,1.1-2.5c0.7-0.6,1.7-0.9,3-0.9h1.5v-1.1c0-0.7-0.2-1.2-0.5-1.6
		s-0.7-0.6-1.3-0.6c-0.5,0-0.9,0.2-1.2,0.5c-0.3,0.3-0.5,0.8-0.5,1.3l-2,0l0-0.1c0-0.9,0.3-1.6,1-2.3c0.7-0.7,1.6-1,2.8-1
		c1.1,0,2,0.3,2.7,1c0.7,0.6,1,1.6,1,2.8v5.1c0,0.4,0,0.8,0.1,1.2c0.1,0.4,0.1,0.8,0.3,1.2H492z M489.5,18.6c0.5,0,0.9-0.1,1.3-0.4
		c0.4-0.3,0.7-0.6,0.9-1.1v-2.3h-1.6c-0.6,0-1.1,0.2-1.5,0.6c-0.4,0.4-0.5,0.9-0.5,1.5c0,0.5,0.1,0.9,0.4,1.2
		C488.7,18.5,489.1,18.6,489.5,18.6z"/>
	<path class="st0" d="M500,18.6c0.5,0,1-0.2,1.3-0.6c0.4-0.4,0.5-0.9,0.5-1.6h1.9l0,0.1c0,1-0.3,1.9-1.1,2.6
		c-0.7,0.7-1.6,1.1-2.7,1.1c-1.4,0-2.4-0.5-3.2-1.4c-0.7-0.9-1.1-2.1-1.1-3.6v-1.5c0-1.4,0.4-2.6,1.1-3.6c0.7-0.9,1.8-1.4,3.2-1.4
		c1.1,0,2,0.4,2.7,1.1c0.7,0.7,1,1.7,1,2.9l0,0.1h-1.9c0-0.7-0.2-1.3-0.5-1.8c-0.3-0.5-0.8-0.7-1.3-0.7c-0.8,0-1.4,0.3-1.7,1
		c-0.3,0.6-0.5,1.5-0.5,2.4v1.5c0,1,0.2,1.8,0.5,2.5C498.6,18.3,499.2,18.6,500,18.6z"/>
	<path class="st0" d="M507.7,10.4c0.3-0.5,0.7-0.9,1.1-1.2c0.5-0.3,1-0.4,1.5-0.4c1,0,1.8,0.4,2.3,1.1c0.6,0.7,0.8,1.9,0.8,3.4V20
		h-2.1v-6.8c0-1-0.1-1.8-0.4-2.2c-0.3-0.4-0.7-0.7-1.3-0.7c-0.4,0-0.8,0.1-1.1,0.4c-0.3,0.2-0.6,0.6-0.8,1V20h-2.1V4h2.1V10.4z"/>
	<path class="st0" d="M14,31.3v2.8h1.7v1.5H14v6.6c0,0.6,0.1,1,0.3,1.2c0.2,0.2,0.4,0.4,0.7,0.4c0.2,0,0.3,0,0.5,0
		c0.1,0,0.3-0.1,0.5-0.1l0.2,1.4c-0.2,0.1-0.5,0.2-0.8,0.2c-0.3,0.1-0.6,0.1-0.9,0.1c-0.8,0-1.4-0.3-1.8-0.8
		c-0.4-0.5-0.7-1.3-0.7-2.4v-6.6h-1.4v-1.5h1.4v-2.8H14z"/>
	<path class="st0" d="M17.1,39c0-1.5,0.4-2.7,1.2-3.6c0.8-0.9,1.8-1.4,3.2-1.4c1.3,0,2.4,0.5,3.2,1.4c0.8,0.9,1.2,2.2,1.2,3.6v1.4
		c0,1.5-0.4,2.7-1.2,3.6c-0.8,0.9-1.8,1.4-3.2,1.4c-1.3,0-2.4-0.5-3.2-1.4c-0.8-0.9-1.2-2.2-1.2-3.6V39z M19.2,40.4
		c0,1,0.2,1.8,0.6,2.5c0.4,0.7,0.9,1,1.7,1c0.7,0,1.3-0.3,1.7-1c0.4-0.7,0.6-1.5,0.6-2.5v-1.4c0-1-0.2-1.8-0.6-2.5s-0.9-1-1.7-1
		c-0.8,0-1.3,0.3-1.7,1s-0.6,1.5-0.6,2.5V40.4z"/>
	<path class="st0" d="M40.5,40.6c0,1.5-0.3,2.6-1,3.5s-1.5,1.3-2.7,1.3c-0.5,0-1-0.1-1.4-0.3s-0.8-0.5-1.1-0.9v5.3h-2.1V34.1h1.9
		l0.1,1.3c0.3-0.5,0.7-0.8,1.1-1.1c0.4-0.3,0.9-0.4,1.5-0.4c1.2,0,2.1,0.5,2.7,1.5s1,2.3,1,3.9V40.6z M38.4,39.2
		c0-1.1-0.2-2-0.5-2.7c-0.4-0.7-0.9-1-1.6-1c-0.4,0-0.8,0.1-1.1,0.4c-0.3,0.3-0.6,0.6-0.8,1v5.6c0.2,0.4,0.4,0.7,0.7,1
		c0.3,0.2,0.7,0.3,1.2,0.3c0.7,0,1.3-0.3,1.6-0.9c0.4-0.6,0.5-1.4,0.5-2.4V39.2z"/>
	<path class="st0" d="M44.7,45.2h-2.1v-16h2.1V45.2z"/>
	<path class="st0" d="M52.9,45.2c-0.1-0.3-0.1-0.5-0.2-0.7c0-0.2-0.1-0.5-0.1-0.7c-0.3,0.5-0.7,0.9-1.2,1.2c-0.5,0.3-1,0.5-1.5,0.5
		c-0.9,0-1.7-0.3-2.2-0.9c-0.5-0.6-0.8-1.4-0.8-2.4c0-1.1,0.4-1.9,1.1-2.5c0.7-0.6,1.7-0.9,3-0.9h1.5v-1.1c0-0.7-0.2-1.2-0.5-1.6
		s-0.7-0.6-1.3-0.6c-0.5,0-0.9,0.2-1.2,0.5s-0.5,0.8-0.5,1.3l-2,0l0-0.1c0-0.9,0.3-1.6,1-2.3c0.7-0.7,1.6-1,2.8-1c1.1,0,2,0.3,2.7,1
		c0.7,0.6,1,1.6,1,2.8v5.1c0,0.4,0,0.8,0.1,1.2c0.1,0.4,0.1,0.8,0.3,1.2H52.9z M50.4,43.8c0.5,0,0.9-0.1,1.3-0.4
		c0.4-0.3,0.7-0.6,0.9-1.1V40H51c-0.6,0-1.1,0.2-1.5,0.6c-0.4,0.4-0.5,0.9-0.5,1.5c0,0.5,0.1,0.9,0.4,1.2
		C49.6,43.7,50,43.8,50.4,43.8z"/>
	<path class="st0" d="M58.9,34.1l0.1,1.6c0.3-0.6,0.7-1,1.2-1.4c0.5-0.3,1-0.5,1.6-0.5c1,0,1.7,0.4,2.3,1.1c0.5,0.7,0.8,1.8,0.8,3.3
		v6.9h-2.1v-6.9c0-1-0.1-1.8-0.4-2.2s-0.7-0.6-1.3-0.6c-0.4,0-0.8,0.1-1.1,0.4c-0.3,0.3-0.6,0.6-0.8,1.1v8.2H57V34.1H58.9z"/>
	<path class="st0" d="M69.1,34.1l0.1,1.6c0.3-0.6,0.7-1,1.2-1.4c0.5-0.3,1-0.5,1.6-0.5c1,0,1.7,0.4,2.3,1.1c0.5,0.7,0.8,1.8,0.8,3.3
		v6.9H73v-6.9c0-1-0.1-1.8-0.4-2.2s-0.7-0.6-1.3-0.6c-0.4,0-0.8,0.1-1.1,0.4c-0.3,0.3-0.6,0.6-0.8,1.1v8.2h-2.1V34.1H69.1z"/>
	<path class="st0" d="M79.7,31.2h-2.1v-2h2.1V31.2z M79.7,45.2h-2.1V34.1h2.1V45.2z"/>
	<path class="st0" d="M84.1,34.1l0.1,1.6c0.3-0.6,0.7-1,1.2-1.4c0.5-0.3,1-0.5,1.6-0.5c1,0,1.7,0.4,2.3,1.1c0.5,0.7,0.8,1.8,0.8,3.3
		v6.9H88v-6.9c0-1-0.1-1.8-0.4-2.2s-0.7-0.6-1.3-0.6c-0.4,0-0.8,0.1-1.1,0.4c-0.3,0.3-0.6,0.6-0.8,1.1v8.2h-2.1V34.1H84.1z"/>
	<path class="st0" d="M92,39.2c0-1.6,0.3-2.9,1-3.9c0.7-1,1.6-1.5,2.7-1.5c0.6,0,1.1,0.1,1.5,0.4c0.4,0.3,0.8,0.6,1.1,1.1l0.2-1.3
		h1.8v11c0,1.4-0.4,2.5-1.1,3.3s-1.8,1.2-3.2,1.2c-0.5,0-1-0.1-1.5-0.2s-1-0.3-1.4-0.6l0.4-1.6c0.3,0.2,0.7,0.4,1.1,0.5
		c0.4,0.1,0.9,0.2,1.3,0.2c0.8,0,1.3-0.2,1.7-0.7s0.5-1.2,0.5-2.1v-1c-0.3,0.4-0.6,0.7-1.1,1c-0.4,0.2-0.9,0.3-1.4,0.3
		c-1.2,0-2.1-0.4-2.7-1.3c-0.6-0.9-1-2.1-1-3.5V39.2z M94.1,40.6c0,1,0.2,1.8,0.5,2.4c0.3,0.6,0.9,0.9,1.6,0.9
		c0.5,0,0.8-0.1,1.2-0.3c0.3-0.2,0.6-0.6,0.8-1v-5.5c-0.2-0.4-0.5-0.8-0.8-1c-0.3-0.3-0.7-0.4-1.1-0.4c-0.7,0-1.3,0.3-1.6,1
		s-0.5,1.6-0.5,2.7V40.6z"/>
	<path class="st0" d="M104.5,45l-1.3,3h-1.2l0.6-3.1V43h1.9V45z"/>
	<path class="st0" d="M119.4,40.6c0,1.5-0.3,2.6-1,3.5s-1.5,1.3-2.7,1.3c-0.5,0-1-0.1-1.4-0.3s-0.8-0.5-1.1-0.9v5.3h-2.1V34.1h1.9
		l0.1,1.3c0.3-0.5,0.7-0.8,1.1-1.1c0.4-0.3,0.9-0.4,1.5-0.4c1.2,0,2.1,0.5,2.7,1.5s1,2.3,1,3.9V40.6z M117.4,39.2
		c0-1.1-0.2-2-0.5-2.7c-0.4-0.7-0.9-1-1.6-1c-0.4,0-0.8,0.1-1.1,0.4c-0.3,0.3-0.6,0.6-0.8,1v5.6c0.2,0.4,0.4,0.7,0.7,1
		c0.3,0.2,0.7,0.3,1.2,0.3c0.7,0,1.3-0.3,1.6-0.9c0.4-0.6,0.5-1.4,0.5-2.4V39.2z"/>
	<path class="st0" d="M126.2,35.9l-1-0.1c-0.4,0-0.8,0.1-1.1,0.4s-0.5,0.6-0.7,1.1v7.9h-2.1V34.1h1.9l0.2,1.7c0.2-0.6,0.5-1,0.9-1.4
		c0.4-0.3,0.8-0.5,1.3-0.5c0.1,0,0.3,0,0.4,0c0.1,0,0.3,0.1,0.3,0.1L126.2,35.9z"/>
	<path class="st0" d="M130.1,31.2h-2.1v-2h2.1V31.2z M130.1,45.2h-2.1V34.1h2.1V45.2z"/>
	<path class="st0" d="M132.3,39c0-1.5,0.4-2.7,1.2-3.6c0.8-0.9,1.8-1.4,3.2-1.4c1.3,0,2.4,0.5,3.2,1.4c0.8,0.9,1.2,2.2,1.2,3.6v1.4
		c0,1.5-0.4,2.7-1.2,3.6c-0.8,0.9-1.8,1.4-3.2,1.4c-1.3,0-2.4-0.5-3.2-1.4c-0.8-0.9-1.2-2.2-1.2-3.6V39z M134.3,40.4
		c0,1,0.2,1.8,0.6,2.5c0.4,0.7,0.9,1,1.7,1c0.7,0,1.3-0.3,1.7-1c0.4-0.7,0.6-1.5,0.6-2.5v-1.4c0-1-0.2-1.8-0.6-2.5s-0.9-1-1.7-1
		c-0.8,0-1.3,0.3-1.7,1s-0.6,1.5-0.6,2.5V40.4z"/>
	<path class="st0" d="M147.6,35.9l-1-0.1c-0.4,0-0.8,0.1-1.1,0.4s-0.5,0.6-0.7,1.1v7.9h-2.1V34.1h1.9l0.2,1.7c0.2-0.6,0.5-1,0.9-1.4
		c0.4-0.3,0.8-0.5,1.3-0.5c0.1,0,0.3,0,0.4,0c0.1,0,0.3,0.1,0.3,0.1L147.6,35.9z"/>
	<path class="st0" d="M151.6,31.2h-2.1v-2h2.1V31.2z M151.6,45.2h-2.1V34.1h2.1V45.2z"/>
	<path class="st0" d="M156.8,31.3v2.8h1.7v1.5h-1.7v6.6c0,0.6,0.1,1,0.3,1.2c0.2,0.2,0.4,0.4,0.7,0.4c0.2,0,0.3,0,0.5,0
		c0.1,0,0.3-0.1,0.5-0.1l0.2,1.4c-0.2,0.1-0.5,0.2-0.8,0.2c-0.3,0.1-0.6,0.1-0.9,0.1c-0.8,0-1.4-0.3-1.8-0.8
		c-0.4-0.5-0.7-1.3-0.7-2.4v-6.6h-1.4v-1.5h1.4v-2.8H156.8z"/>
	<path class="st0" d="M162.8,31.2h-2.1v-2h2.1V31.2z M162.8,45.2h-2.1V34.1h2.1V45.2z"/>
	<path class="st0" d="M170.4,42.4c0-0.4-0.1-0.8-0.4-1.1c-0.3-0.3-0.8-0.6-1.6-1c-1.1-0.4-2-0.9-2.5-1.4c-0.6-0.5-0.8-1.2-0.8-2
		c0-0.9,0.3-1.6,1-2.2c0.7-0.6,1.6-0.9,2.7-0.9c1.1,0,2.1,0.3,2.7,1c0.7,0.6,1,1.5,1,2.4l0,0.1h-2c0-0.5-0.1-1-0.4-1.4
		c-0.3-0.4-0.7-0.6-1.2-0.6c-0.5,0-0.9,0.1-1.2,0.4c-0.3,0.3-0.4,0.6-0.4,1c0,0.4,0.1,0.8,0.4,1s0.8,0.6,1.6,1
		c1.2,0.4,2,0.9,2.6,1.4c0.6,0.5,0.8,1.2,0.8,2c0,0.9-0.3,1.7-1,2.2s-1.6,0.9-2.7,0.9c-1.2,0-2.2-0.3-2.9-1c-0.7-0.7-1-1.5-1-2.4
		l0-0.1h1.9c0,0.7,0.2,1.2,0.6,1.6c0.4,0.3,0.8,0.5,1.4,0.5c0.5,0,1-0.1,1.3-0.4C170.3,43.2,170.4,42.9,170.4,42.4z"/>
	<path class="st0" d="M176.6,31.2h-2.1v-2h2.1V31.2z M176.6,45.2h-2.1V34.1h2.1V45.2z"/>
	<path class="st0" d="M181,34.1l0.1,1.6c0.3-0.6,0.7-1,1.2-1.4c0.5-0.3,1-0.5,1.6-0.5c1,0,1.7,0.4,2.3,1.1c0.5,0.7,0.8,1.8,0.8,3.3
		v6.9h-2.1v-6.9c0-1-0.1-1.8-0.4-2.2s-0.7-0.6-1.3-0.6c-0.4,0-0.8,0.1-1.1,0.4c-0.3,0.3-0.6,0.6-0.8,1.1v8.2h-2.1V34.1H181z"/>
	<path class="st0" d="M189,39.2c0-1.6,0.3-2.9,1-3.9c0.7-1,1.6-1.5,2.7-1.5c0.6,0,1.1,0.1,1.5,0.4c0.4,0.3,0.8,0.6,1.1,1.1l0.2-1.3
		h1.8v11c0,1.4-0.4,2.5-1.1,3.3s-1.8,1.2-3.2,1.2c-0.5,0-1-0.1-1.5-0.2s-1-0.3-1.4-0.6l0.4-1.6c0.3,0.2,0.7,0.4,1.1,0.5
		c0.4,0.1,0.9,0.2,1.3,0.2c0.8,0,1.3-0.2,1.7-0.7s0.5-1.2,0.5-2.1v-1c-0.3,0.4-0.6,0.7-1.1,1c-0.4,0.2-0.9,0.3-1.4,0.3
		c-1.2,0-2.1-0.4-2.7-1.3c-0.6-0.9-1-2.1-1-3.5V39.2z M191,40.6c0,1,0.2,1.8,0.5,2.4c0.3,0.6,0.9,0.9,1.6,0.9c0.5,0,0.8-0.1,1.2-0.3
		c0.3-0.2,0.6-0.6,0.8-1v-5.5c-0.2-0.4-0.5-0.8-0.8-1c-0.3-0.3-0.7-0.4-1.1-0.4c-0.7,0-1.3,0.3-1.6,1s-0.5,1.6-0.5,2.7V40.6z"/>
	<path class="st0" d="M201.4,45l-1.3,3h-1.2l0.6-3.1V43h1.9V45z"/>
	<path class="st0" d="M208.9,45.2v-9.6h-1.4v-1.5h1.4v-1.4c0-1.2,0.3-2.1,0.8-2.7c0.6-0.6,1.4-1,2.4-1c0.2,0,0.4,0,0.6,0.1
		c0.2,0,0.4,0.1,0.7,0.2l-0.2,1.5c-0.1,0-0.2-0.1-0.4-0.1c-0.1,0-0.3,0-0.5,0c-0.5,0-0.8,0.2-1,0.5c-0.2,0.4-0.4,0.9-0.4,1.5v1.4
		h1.9v1.5H211v9.6H208.9z"/>
	<path class="st0" d="M220.4,43.7c-0.3,0.5-0.7,1-1.1,1.3s-1,0.4-1.6,0.4c-1,0-1.8-0.4-2.3-1.2s-0.8-2-0.8-3.6v-6.6h2.1v6.6
		c0,1.1,0.1,1.9,0.4,2.4c0.3,0.5,0.7,0.7,1.2,0.7c0.5,0,0.9-0.1,1.3-0.4c0.3-0.2,0.6-0.6,0.8-1v-8.3h2.1v11.1h-1.9L220.4,43.7z"/>
	<path class="st0" d="M226.7,34.1l0.1,1.6c0.3-0.6,0.7-1,1.2-1.4c0.5-0.3,1-0.5,1.6-0.5c1,0,1.7,0.4,2.3,1.1
		c0.5,0.7,0.8,1.8,0.8,3.3v6.9h-2.1v-6.9c0-1-0.1-1.8-0.4-2.2s-0.7-0.6-1.3-0.6c-0.4,0-0.8,0.1-1.1,0.4c-0.3,0.3-0.6,0.6-0.8,1.1
		v8.2h-2.1V34.1H226.7z"/>
	<path class="st0" d="M234.6,39.8c0-1.8,0.3-3.2,1-4.3c0.6-1.1,1.5-1.6,2.7-1.6c0.5,0,1,0.1,1.4,0.3s0.8,0.6,1.1,1v-6h2.1v16h-1.8
		l-0.2-1.3c-0.3,0.5-0.7,0.9-1.1,1.1c-0.4,0.3-0.9,0.4-1.5,0.4c-1.2,0-2.1-0.5-2.7-1.5c-0.6-1-1-2.3-1-3.9V39.8z M236.7,40
		c0,1.2,0.2,2.1,0.5,2.8s0.9,1,1.6,1c0.5,0,0.8-0.1,1.2-0.4c0.3-0.2,0.6-0.6,0.8-1V37c-0.2-0.5-0.5-0.8-0.8-1.1
		c-0.3-0.3-0.7-0.4-1.1-0.4c-0.7,0-1.3,0.4-1.6,1.2s-0.5,1.8-0.5,3.1V40z"/>
	<path class="st0" d="M247.4,31.2h-2.1v-2h2.1V31.2z M247.4,45.2h-2.1V34.1h2.1V45.2z"/>
	<path class="st0" d="M251.8,34.1l0.1,1.6c0.3-0.6,0.7-1,1.2-1.4c0.5-0.3,1-0.5,1.6-0.5c1,0,1.7,0.4,2.3,1.1
		c0.5,0.7,0.8,1.8,0.8,3.3v6.9h-2.1v-6.9c0-1-0.1-1.8-0.4-2.2s-0.7-0.6-1.3-0.6c-0.4,0-0.8,0.1-1.1,0.4c-0.3,0.3-0.6,0.6-0.8,1.1
		v8.2h-2.1V34.1H251.8z"/>
	<path class="st0" d="M259.7,39.2c0-1.6,0.3-2.9,1-3.9c0.7-1,1.6-1.5,2.7-1.5c0.6,0,1.1,0.1,1.5,0.4c0.4,0.3,0.8,0.6,1.1,1.1
		l0.2-1.3h1.8v11c0,1.4-0.4,2.5-1.1,3.3c-0.8,0.8-1.8,1.2-3.2,1.2c-0.5,0-1-0.1-1.5-0.2s-1-0.3-1.4-0.6l0.4-1.6
		c0.3,0.2,0.7,0.4,1.1,0.5c0.4,0.1,0.9,0.2,1.3,0.2c0.8,0,1.3-0.2,1.7-0.7s0.5-1.2,0.5-2.1v-1c-0.3,0.4-0.6,0.7-1.1,1
		c-0.4,0.2-0.9,0.3-1.4,0.3c-1.2,0-2.1-0.4-2.7-1.3c-0.6-0.9-1-2.1-1-3.5V39.2z M261.8,40.6c0,1,0.2,1.8,0.5,2.4
		c0.3,0.6,0.9,0.9,1.6,0.9c0.5,0,0.8-0.1,1.2-0.3c0.3-0.2,0.6-0.6,0.8-1v-5.5c-0.2-0.4-0.5-0.8-0.8-1c-0.3-0.3-0.7-0.4-1.1-0.4
		c-0.7,0-1.3,0.3-1.6,1s-0.5,1.6-0.5,2.7V40.6z"/>
	<path class="st0" d="M280.5,45.2c-0.1-0.3-0.1-0.5-0.2-0.7c0-0.2-0.1-0.5-0.1-0.7c-0.3,0.5-0.7,0.9-1.2,1.2c-0.5,0.3-1,0.5-1.5,0.5
		c-0.9,0-1.7-0.3-2.2-0.9c-0.5-0.6-0.8-1.4-0.8-2.4c0-1.1,0.4-1.9,1.1-2.5c0.7-0.6,1.7-0.9,3-0.9h1.5v-1.1c0-0.7-0.2-1.2-0.5-1.6
		s-0.7-0.6-1.3-0.6c-0.5,0-0.9,0.2-1.2,0.5c-0.3,0.3-0.5,0.8-0.5,1.3l-2,0l0-0.1c0-0.9,0.3-1.6,1-2.3c0.7-0.7,1.6-1,2.8-1
		c1.1,0,2,0.3,2.7,1c0.7,0.6,1,1.6,1,2.8v5.1c0,0.4,0,0.8,0.1,1.2c0.1,0.4,0.1,0.8,0.3,1.2H280.5z M278,43.8c0.5,0,0.9-0.1,1.3-0.4
		c0.4-0.3,0.7-0.6,0.9-1.1V40h-1.6c-0.6,0-1.1,0.2-1.5,0.6c-0.4,0.4-0.5,0.9-0.5,1.5c0,0.5,0.1,0.9,0.4,1.2
		C277.2,43.7,277.6,43.8,278,43.8z"/>
	<path class="st0" d="M286.6,34.1l0.1,1.6c0.3-0.6,0.7-1,1.2-1.4c0.5-0.3,1-0.5,1.6-0.5c1,0,1.7,0.4,2.3,1.1
		c0.5,0.7,0.8,1.8,0.8,3.3v6.9h-2.1v-6.9c0-1-0.1-1.8-0.4-2.2c-0.3-0.4-0.7-0.6-1.3-0.6c-0.4,0-0.8,0.1-1.1,0.4
		c-0.3,0.3-0.6,0.6-0.8,1.1v8.2h-2.1V34.1H286.6z"/>
	<path class="st0" d="M294.5,39.8c0-1.8,0.3-3.2,1-4.3c0.6-1.1,1.5-1.6,2.7-1.6c0.5,0,1,0.1,1.4,0.3c0.4,0.2,0.8,0.6,1.1,1v-6h2.1
		v16h-1.8l-0.2-1.3c-0.3,0.5-0.7,0.9-1.1,1.1c-0.4,0.3-0.9,0.4-1.5,0.4c-1.2,0-2.1-0.5-2.7-1.5c-0.6-1-1-2.3-1-3.9V39.8z M296.6,40
		c0,1.2,0.2,2.1,0.5,2.8s0.9,1,1.6,1c0.5,0,0.8-0.1,1.2-0.4c0.3-0.2,0.6-0.6,0.8-1V37c-0.2-0.5-0.5-0.8-0.8-1.1
		c-0.3-0.3-0.7-0.4-1.1-0.4c-0.7,0-1.3,0.4-1.6,1.2c-0.3,0.8-0.5,1.8-0.5,3.1V40z"/>
	<path class="st0" d="M309.3,39.8c0-1.8,0.3-3.2,1-4.3c0.6-1.1,1.5-1.6,2.7-1.6c0.5,0,1,0.1,1.4,0.3c0.4,0.2,0.8,0.6,1.1,1v-6h2.1
		v16h-1.8l-0.2-1.3c-0.3,0.5-0.7,0.9-1.1,1.1c-0.4,0.3-0.9,0.4-1.5,0.4c-1.2,0-2.1-0.5-2.7-1.5c-0.6-1-1-2.3-1-3.9V39.8z M311.3,40
		c0,1.2,0.2,2.1,0.5,2.8s0.9,1,1.6,1c0.5,0,0.8-0.1,1.2-0.4c0.3-0.2,0.6-0.6,0.8-1V37c-0.2-0.5-0.5-0.8-0.8-1.1
		c-0.3-0.3-0.7-0.4-1.1-0.4c-0.7,0-1.3,0.4-1.6,1.2c-0.3,0.8-0.5,1.8-0.5,3.1V40z"/>
	<path class="st0" d="M323.9,45.4c-1.3,0-2.4-0.5-3.2-1.4s-1.2-2.1-1.2-3.5v-1.6c0-1.4,0.4-2.6,1.2-3.6c0.8-0.9,1.8-1.4,3-1.4
		c1.3,0,2.2,0.4,2.9,1.3c0.7,0.9,1,2,1,3.5v1.4h-6v0.4c0,1,0.2,1.7,0.6,2.4c0.4,0.6,1,0.9,1.8,0.9c0.6,0,1.1-0.1,1.5-0.3
		c0.4-0.2,0.8-0.4,1.2-0.8l0.7,1.3c-0.3,0.4-0.8,0.7-1.4,1S324.6,45.4,323.9,45.4z M323.6,35.5c-0.6,0-1.1,0.3-1.4,0.9
		c-0.4,0.6-0.6,1.3-0.6,2.2h3.9v-0.4c0-0.8-0.2-1.4-0.5-1.9C324.7,35.7,324.2,35.5,323.6,35.5z"/>
	<path class="st0" d="M331.6,45.2h-2.1v-16h2.1V45.2z"/>
	<path class="st0" d="M336.3,31.2h-2.1v-2h2.1V31.2z M336.3,45.2h-2.1V34.1h2.1V45.2z"/>
	<path class="st0" d="M342.1,41.9l0.2,0.9h0.1l0.2-0.9l1.9-7.8h2.1l-3.3,11.1h-1.8L338,34.1h2.2L342.1,41.9z"/>
	<path class="st0" d="M351.9,45.4c-1.3,0-2.4-0.5-3.2-1.4s-1.2-2.1-1.2-3.5v-1.6c0-1.4,0.4-2.6,1.2-3.6c0.8-0.9,1.8-1.4,3-1.4
		c1.3,0,2.2,0.4,2.9,1.3c0.7,0.9,1,2,1,3.5v1.4h-6v0.4c0,1,0.2,1.7,0.6,2.4c0.4,0.6,1,0.9,1.8,0.9c0.6,0,1.1-0.1,1.5-0.3
		c0.4-0.2,0.8-0.4,1.2-0.8l0.7,1.3c-0.3,0.4-0.8,0.7-1.4,1S352.7,45.4,351.9,45.4z M351.7,35.5c-0.6,0-1.1,0.3-1.4,0.9
		c-0.4,0.6-0.6,1.3-0.6,2.2h3.9v-0.4c0-0.8-0.2-1.4-0.5-1.9C352.7,35.7,352.3,35.5,351.7,35.5z"/>
	<path class="st0" d="M362.2,35.9l-1-0.1c-0.4,0-0.8,0.1-1.1,0.4c-0.3,0.3-0.5,0.6-0.7,1.1v7.9h-2.1V34.1h1.9l0.2,1.7
		c0.2-0.6,0.5-1,0.9-1.4c0.4-0.3,0.8-0.5,1.3-0.5c0.1,0,0.3,0,0.4,0c0.1,0,0.3,0.1,0.3,0.1L362.2,35.9z"/>
	<path class="st0" d="M366.1,31.2H364v-2h2.1V31.2z M366.1,45.2H364V34.1h2.1V45.2z"/>
	<path class="st0" d="M370.5,34.1l0.1,1.6c0.3-0.6,0.7-1,1.2-1.4c0.5-0.3,1-0.5,1.6-0.5c1,0,1.7,0.4,2.3,1.1
		c0.5,0.7,0.8,1.8,0.8,3.3v6.9h-2.1v-6.9c0-1-0.1-1.8-0.4-2.2c-0.3-0.4-0.7-0.6-1.3-0.6c-0.4,0-0.8,0.1-1.1,0.4
		c-0.3,0.3-0.6,0.6-0.8,1.1v8.2h-2.1V34.1H370.5z"/>
	<path class="st0" d="M378.5,39.2c0-1.6,0.3-2.9,1-3.9c0.7-1,1.6-1.5,2.7-1.5c0.6,0,1.1,0.1,1.5,0.4c0.4,0.3,0.8,0.6,1.1,1.1
		l0.2-1.3h1.8v11c0,1.4-0.4,2.5-1.1,3.3c-0.8,0.8-1.8,1.2-3.2,1.2c-0.5,0-1-0.1-1.5-0.2c-0.5-0.1-1-0.3-1.4-0.6l0.4-1.6
		c0.3,0.2,0.7,0.4,1.1,0.5c0.4,0.1,0.9,0.2,1.3,0.2c0.8,0,1.3-0.2,1.7-0.7c0.4-0.5,0.5-1.2,0.5-2.1v-1c-0.3,0.4-0.6,0.7-1.1,1
		c-0.4,0.2-0.9,0.3-1.4,0.3c-1.2,0-2.1-0.4-2.7-1.3c-0.6-0.9-1-2.1-1-3.5V39.2z M380.5,40.6c0,1,0.2,1.8,0.5,2.4
		c0.3,0.6,0.9,0.9,1.6,0.9c0.5,0,0.8-0.1,1.2-0.3c0.3-0.2,0.6-0.6,0.8-1v-5.5c-0.2-0.4-0.5-0.8-0.8-1c-0.3-0.3-0.7-0.4-1.1-0.4
		c-0.7,0-1.3,0.3-1.6,1c-0.4,0.7-0.5,1.6-0.5,2.7V40.6z"/>
	<path class="st0" d="M395.8,31.2h-2.1v-2h2.1V31.2z M395.8,45.2h-2.1V34.1h2.1V45.2z"/>
	<path class="st0" d="M400.2,34.1l0.1,1.6c0.3-0.6,0.7-1,1.2-1.4c0.5-0.3,1-0.5,1.6-0.5c1,0,1.7,0.4,2.3,1.1
		c0.5,0.7,0.8,1.8,0.8,3.3v6.9h-2.1v-6.9c0-1-0.1-1.8-0.4-2.2c-0.3-0.4-0.7-0.6-1.3-0.6c-0.4,0-0.8,0.1-1.1,0.4
		c-0.3,0.3-0.6,0.6-0.8,1.1v8.2h-2.1V34.1H400.2z"/>
	<path class="st0" d="M409.3,45.2v-9.6h-1.4v-1.5h1.4v-1.4c0-1.2,0.3-2.1,0.8-2.7c0.6-0.6,1.4-1,2.4-1c0.2,0,0.4,0,0.6,0.1
		c0.2,0,0.4,0.1,0.7,0.2l-0.2,1.5c-0.1,0-0.2-0.1-0.4-0.1c-0.1,0-0.3,0-0.5,0c-0.5,0-0.8,0.2-1,0.5c-0.2,0.4-0.4,0.9-0.4,1.5v1.4
		h1.9v1.5h-1.9v9.6H409.3z"/>
	<path class="st0" d="M419.7,35.9l-1-0.1c-0.4,0-0.8,0.1-1.1,0.4c-0.3,0.3-0.5,0.6-0.7,1.1v7.9h-2.1V34.1h1.9l0.2,1.7
		c0.2-0.6,0.5-1,0.9-1.4c0.4-0.3,0.8-0.5,1.3-0.5c0.1,0,0.3,0,0.4,0c0.1,0,0.3,0.1,0.3,0.1L419.7,35.9z"/>
	<path class="st0" d="M427.1,45.2c-0.1-0.3-0.1-0.5-0.2-0.7c0-0.2-0.1-0.5-0.1-0.7c-0.3,0.5-0.7,0.9-1.2,1.2c-0.5,0.3-1,0.5-1.5,0.5
		c-0.9,0-1.7-0.3-2.2-0.9c-0.5-0.6-0.8-1.4-0.8-2.4c0-1.1,0.4-1.9,1.1-2.5c0.7-0.6,1.7-0.9,3-0.9h1.5v-1.1c0-0.7-0.2-1.2-0.5-1.6
		s-0.7-0.6-1.3-0.6c-0.5,0-0.9,0.2-1.2,0.5c-0.3,0.3-0.5,0.8-0.5,1.3l-2,0l0-0.1c0-0.9,0.3-1.6,1-2.3c0.7-0.7,1.6-1,2.8-1
		c1.1,0,2,0.3,2.7,1c0.7,0.6,1,1.6,1,2.8v5.1c0,0.4,0,0.8,0.1,1.2c0.1,0.4,0.1,0.8,0.3,1.2H427.1z M424.6,43.8
		c0.5,0,0.9-0.1,1.3-0.4c0.4-0.3,0.7-0.6,0.9-1.1V40h-1.6c-0.6,0-1.1,0.2-1.5,0.6c-0.4,0.4-0.5,0.9-0.5,1.5c0,0.5,0.1,0.9,0.4,1.2
		C423.8,43.7,424.1,43.8,424.6,43.8z"/>
	<path class="st0" d="M436.4,42.4c0-0.4-0.1-0.8-0.4-1.1c-0.3-0.3-0.8-0.6-1.6-1c-1.1-0.4-2-0.9-2.5-1.4c-0.5-0.5-0.8-1.2-0.8-2
		c0-0.9,0.3-1.6,1-2.2c0.7-0.6,1.6-0.9,2.7-0.9c1.1,0,2.1,0.3,2.7,1c0.7,0.6,1,1.5,1,2.4l0,0.1h-2c0-0.5-0.1-1-0.4-1.4
		c-0.3-0.4-0.7-0.6-1.2-0.6c-0.5,0-0.9,0.1-1.2,0.4c-0.3,0.3-0.4,0.6-0.4,1c0,0.4,0.1,0.8,0.4,1c0.3,0.2,0.8,0.6,1.6,1
		c1.2,0.4,2,0.9,2.6,1.4c0.6,0.5,0.8,1.2,0.8,2c0,0.9-0.3,1.7-1,2.2s-1.6,0.9-2.7,0.9c-1.2,0-2.2-0.3-2.9-1c-0.7-0.7-1-1.5-1-2.4
		l0-0.1h1.9c0,0.7,0.2,1.2,0.6,1.6c0.4,0.3,0.8,0.5,1.4,0.5c0.5,0,1-0.1,1.3-0.4C436.2,43.2,436.4,42.9,436.4,42.4z"/>
	<path class="st0" d="M443,31.3v2.8h1.7v1.5H443v6.6c0,0.6,0.1,1,0.3,1.2c0.2,0.2,0.4,0.4,0.7,0.4c0.2,0,0.3,0,0.5,0
		c0.1,0,0.3-0.1,0.5-0.1l0.2,1.4c-0.2,0.1-0.5,0.2-0.8,0.2c-0.3,0.1-0.6,0.1-0.9,0.1c-0.8,0-1.4-0.3-1.8-0.8
		c-0.4-0.5-0.7-1.3-0.7-2.4v-6.6h-1.4v-1.5h1.4v-2.8H443z"/>
	<path class="st0" d="M451.6,35.9l-1-0.1c-0.4,0-0.8,0.1-1.1,0.4c-0.3,0.3-0.5,0.6-0.7,1.1v7.9h-2.1V34.1h1.9l0.2,1.7
		c0.2-0.6,0.5-1,0.9-1.4c0.4-0.3,0.8-0.5,1.3-0.5c0.1,0,0.3,0,0.4,0c0.1,0,0.3,0.1,0.3,0.1L451.6,35.9z"/>
	<path class="st0" d="M459.1,43.7c-0.3,0.5-0.7,1-1.1,1.3s-1,0.4-1.6,0.4c-1,0-1.8-0.4-2.3-1.2s-0.8-2-0.8-3.6v-6.6h2.1v6.6
		c0,1.1,0.1,1.9,0.4,2.4c0.3,0.5,0.7,0.7,1.2,0.7c0.5,0,0.9-0.1,1.3-0.4c0.3-0.2,0.6-0.6,0.8-1v-8.3h2.1v11.1h-1.9L459.1,43.7z"/>
	<path class="st0" d="M467.4,43.8c0.5,0,1-0.2,1.3-0.6c0.4-0.4,0.5-0.9,0.5-1.6h1.9l0,0.1c0,1-0.3,1.9-1.1,2.6
		c-0.7,0.7-1.6,1.1-2.7,1.1c-1.4,0-2.4-0.5-3.2-1.4c-0.7-0.9-1.1-2.1-1.1-3.6v-1.5c0-1.4,0.4-2.6,1.1-3.6c0.7-0.9,1.8-1.4,3.2-1.4
		c1.1,0,2,0.4,2.7,1.1c0.7,0.7,1,1.7,1,2.9l0,0.1h-1.9c0-0.7-0.2-1.3-0.5-1.8c-0.3-0.5-0.8-0.7-1.3-0.7c-0.8,0-1.4,0.3-1.7,1
		c-0.3,0.6-0.5,1.5-0.5,2.4v1.5c0,1,0.2,1.8,0.5,2.5C466,43.5,466.6,43.8,467.4,43.8z"/>
	<path class="st0" d="M475.6,31.3v2.8h1.7v1.5h-1.7v6.6c0,0.6,0.1,1,0.3,1.2c0.2,0.2,0.4,0.4,0.7,0.4c0.2,0,0.3,0,0.5,0
		c0.1,0,0.3-0.1,0.5-0.1l0.2,1.4c-0.2,0.1-0.5,0.2-0.8,0.2c-0.3,0.1-0.6,0.1-0.9,0.1c-0.8,0-1.4-0.3-1.8-0.8
		c-0.4-0.5-0.7-1.3-0.7-2.4v-6.6h-1.4v-1.5h1.4v-2.8H475.6z"/>
	<path class="st0" d="M485.2,43.7c-0.3,0.5-0.7,1-1.1,1.3s-1,0.4-1.6,0.4c-1,0-1.8-0.4-2.3-1.2s-0.8-2-0.8-3.6v-6.6h2.1v6.6
		c0,1.1,0.1,1.9,0.4,2.4c0.3,0.5,0.7,0.7,1.2,0.7c0.5,0,0.9-0.1,1.3-0.4c0.3-0.2,0.6-0.6,0.8-1v-8.3h2.1v11.1h-1.9L485.2,43.7z"/>
	<path class="st0" d="M494.4,35.9l-1-0.1c-0.4,0-0.8,0.1-1.1,0.4c-0.3,0.3-0.5,0.6-0.7,1.1v7.9h-2.1V34.1h1.9l0.2,1.7
		c0.2-0.6,0.5-1,0.9-1.4c0.4-0.3,0.8-0.5,1.3-0.5c0.1,0,0.3,0,0.4,0c0.1,0,0.3,0.1,0.3,0.1L494.4,35.9z"/>
	<path class="st0" d="M499.9,45.4c-1.3,0-2.4-0.5-3.2-1.4s-1.2-2.1-1.2-3.5v-1.6c0-1.4,0.4-2.6,1.2-3.6c0.8-0.9,1.8-1.4,3-1.4
		c1.3,0,2.2,0.4,2.9,1.3c0.7,0.9,1,2,1,3.5v1.4h-6v0.4c0,1,0.2,1.7,0.6,2.4c0.4,0.6,1,0.9,1.8,0.9c0.6,0,1.1-0.1,1.5-0.3
		c0.4-0.2,0.8-0.4,1.2-0.8l0.7,1.3c-0.3,0.4-0.8,0.7-1.4,1S500.7,45.4,499.9,45.4z M499.7,35.5c-0.6,0-1.1,0.3-1.4,0.9
		c-0.4,0.6-0.6,1.3-0.6,2.2h3.9v-0.4c0-0.8-0.2-1.4-0.5-1.9C500.7,35.7,500.3,35.5,499.7,35.5z"/>
	<path class="st0" d="M512.2,31.2h-2.1v-2h2.1V31.2z M512.2,45.2h-2.1V34.1h2.1V45.2z"/>
	<path class="st0" d="M516.6,34.1l0.1,1.6c0.3-0.6,0.7-1,1.2-1.4c0.5-0.3,1-0.5,1.6-0.5c1,0,1.7,0.4,2.3,1.1
		c0.5,0.7,0.8,1.8,0.8,3.3v6.9h-2.1v-6.9c0-1-0.1-1.8-0.4-2.2c-0.3-0.4-0.7-0.6-1.3-0.6c-0.4,0-0.8,0.1-1.1,0.4
		c-0.3,0.3-0.6,0.6-0.8,1.1v8.2h-2.1V34.1H516.6z"/>
	<path class="st0" d="M227.4,65c0,0.9-0.1,1.7-0.4,2.4s-0.6,1.3-1,1.8l2.3,2.4l-1.4,1.1l-2.3-2.5c-0.3,0.2-0.7,0.3-1.1,0.3
		c-0.4,0.1-0.8,0.1-1.2,0.1c-1.5,0-2.7-0.5-3.6-1.5c-0.9-1-1.3-2.4-1.3-4.1v-4.1c0-1.8,0.4-3.1,1.3-4.1c0.9-1,2.1-1.5,3.6-1.5
		c1.5,0,2.8,0.5,3.7,1.5c0.9,1,1.4,2.4,1.4,4.1V65z M225.3,60.9c0-1.3-0.3-2.3-0.8-3c-0.5-0.7-1.3-1-2.2-1c-0.9,0-1.7,0.3-2.2,1
		c-0.5,0.7-0.7,1.7-0.7,3V65c0,1.3,0.3,2.3,0.8,3c0.5,0.7,1.2,1,2.1,1c1,0,1.7-0.3,2.2-1c0.5-0.7,0.8-1.7,0.8-3V60.9z"/>
	<path class="st0" d="M235.9,68.9c-0.3,0.5-0.7,1-1.1,1.3s-1,0.4-1.6,0.4c-1,0-1.8-0.4-2.3-1.2s-0.8-2-0.8-3.6v-6.6h2.1v6.6
		c0,1.1,0.1,1.9,0.4,2.4c0.3,0.5,0.7,0.7,1.2,0.7c0.5,0,0.9-0.1,1.3-0.4c0.3-0.2,0.6-0.6,0.8-1v-8.3h2.1v11.1H236L235.9,68.9z"/>
	<path class="st0" d="M244.2,70.6c-1.3,0-2.4-0.5-3.2-1.4s-1.2-2.1-1.2-3.5v-1.6c0-1.4,0.4-2.6,1.2-3.6c0.8-0.9,1.8-1.4,3-1.4
		c1.3,0,2.2,0.4,2.9,1.3c0.7,0.9,1,2,1,3.5v1.4h-6v0.4c0,1,0.2,1.7,0.6,2.4c0.4,0.6,1,0.9,1.8,0.9c0.6,0,1.1-0.1,1.5-0.3
		c0.4-0.2,0.8-0.4,1.2-0.8l0.7,1.3c-0.3,0.4-0.8,0.7-1.4,1S245,70.6,244.2,70.6z M244,60.7c-0.6,0-1.1,0.3-1.4,0.9
		c-0.4,0.6-0.6,1.3-0.6,2.2h3.9v-0.4c0-0.8-0.2-1.4-0.5-1.9C245.1,60.9,244.6,60.7,244,60.7z"/>
	<path class="st0" d="M253.8,70.6c-1.3,0-2.4-0.5-3.2-1.4s-1.2-2.1-1.2-3.5v-1.6c0-1.4,0.4-2.6,1.2-3.6c0.8-0.9,1.8-1.4,3-1.4
		c1.3,0,2.2,0.4,2.9,1.3c0.7,0.9,1,2,1,3.5v1.4h-6v0.4c0,1,0.2,1.7,0.6,2.4c0.4,0.6,1,0.9,1.8,0.9c0.6,0,1.1-0.1,1.5-0.3
		c0.4-0.2,0.8-0.4,1.2-0.8l0.7,1.3c-0.3,0.4-0.8,0.7-1.4,1C255.2,70.5,254.5,70.6,253.8,70.6z M253.5,60.7c-0.6,0-1.1,0.3-1.4,0.9
		c-0.4,0.6-0.6,1.3-0.6,2.2h3.9v-0.4c0-0.8-0.2-1.4-0.5-1.9C254.6,60.9,254.1,60.7,253.5,60.7z"/>
	<path class="st0" d="M261.2,59.3l0.1,1.6c0.3-0.6,0.7-1,1.2-1.4c0.5-0.3,1-0.5,1.6-0.5c1,0,1.7,0.4,2.3,1.1
		c0.5,0.7,0.8,1.8,0.8,3.3v6.9H265v-6.9c0-1-0.1-1.8-0.4-2.2s-0.7-0.6-1.3-0.6c-0.4,0-0.8,0.1-1.1,0.4c-0.3,0.3-0.6,0.6-0.8,1.1v8.2
		h-2.1V59.3H261.2z"/>
	<path class="st0" d="M274.7,67.6c0-0.4-0.1-0.8-0.4-1.1c-0.3-0.3-0.8-0.6-1.6-1c-1.1-0.4-2-0.9-2.5-1.4c-0.5-0.5-0.8-1.2-0.8-2
		c0-0.9,0.3-1.6,1-2.2c0.7-0.6,1.6-0.9,2.7-0.9c1.1,0,2.1,0.3,2.7,1c0.7,0.6,1,1.5,1,2.4l0,0.1h-2c0-0.5-0.1-1-0.4-1.4
		c-0.3-0.4-0.7-0.6-1.2-0.6c-0.5,0-0.9,0.1-1.2,0.4c-0.3,0.3-0.4,0.6-0.4,1c0,0.4,0.1,0.8,0.4,1c0.3,0.2,0.8,0.6,1.6,1
		c1.2,0.4,2,0.9,2.6,1.4c0.6,0.5,0.8,1.2,0.8,2c0,0.9-0.3,1.7-1,2.2s-1.6,0.9-2.7,0.9c-1.2,0-2.2-0.3-2.9-1c-0.7-0.7-1-1.5-1-2.4
		l0-0.1h1.9c0,0.7,0.2,1.2,0.6,1.6c0.4,0.3,0.8,0.5,1.4,0.5c0.5,0,1-0.1,1.3-0.4C274.5,68.4,274.7,68.1,274.7,67.6z"/>
	<path class="st0" d="M280.8,70.4h-2.1v-16h2.1V70.4z"/>
	<path class="st0" d="M289,70.4c-0.1-0.3-0.1-0.5-0.2-0.7c0-0.2-0.1-0.5-0.1-0.7c-0.3,0.5-0.7,0.9-1.2,1.2c-0.5,0.3-1,0.5-1.5,0.5
		c-0.9,0-1.7-0.3-2.2-0.9c-0.5-0.6-0.8-1.4-0.8-2.4c0-1.1,0.4-1.9,1.1-2.5c0.7-0.6,1.7-0.9,3-0.9h1.5v-1.1c0-0.7-0.2-1.2-0.5-1.6
		s-0.7-0.6-1.3-0.6c-0.5,0-0.9,0.2-1.2,0.5c-0.3,0.3-0.5,0.8-0.5,1.3l-2,0l0-0.1c0-0.9,0.3-1.6,1-2.3c0.7-0.7,1.6-1,2.8-1
		c1.1,0,2,0.3,2.7,1c0.7,0.6,1,1.6,1,2.8V68c0,0.4,0,0.8,0.1,1.2c0.1,0.4,0.1,0.8,0.3,1.2H289z M286.5,69c0.5,0,0.9-0.1,1.3-0.4
		c0.4-0.3,0.7-0.6,0.9-1.1v-2.3h-1.6c-0.6,0-1.1,0.2-1.5,0.6c-0.4,0.4-0.5,0.9-0.5,1.5c0,0.5,0.1,0.9,0.4,1.2
		C285.7,68.9,286.1,69,286.5,69z"/>
	<path class="st0" d="M295,59.3l0.1,1.6c0.3-0.6,0.7-1,1.2-1.4c0.5-0.3,1-0.5,1.6-0.5c1,0,1.7,0.4,2.3,1.1c0.5,0.7,0.8,1.8,0.8,3.3
		v6.9h-2.1v-6.9c0-1-0.1-1.8-0.4-2.2c-0.3-0.4-0.7-0.6-1.3-0.6c-0.4,0-0.8,0.1-1.1,0.4c-0.3,0.3-0.6,0.6-0.8,1.1v8.2h-2.1V59.3H295z
		"/>
	<path class="st0" d="M303,65c0-1.8,0.3-3.2,1-4.3c0.6-1.1,1.5-1.6,2.7-1.6c0.5,0,1,0.1,1.4,0.3c0.4,0.2,0.8,0.6,1.1,1v-6h2.1v16
		h-1.8l-0.2-1.3c-0.3,0.5-0.7,0.9-1.1,1.1c-0.4,0.3-0.9,0.4-1.5,0.4c-1.2,0-2.1-0.5-2.7-1.5c-0.6-1-1-2.3-1-3.9V65z M305,65.2
		c0,1.2,0.2,2.1,0.5,2.8s0.9,1,1.6,1c0.5,0,0.8-0.1,1.2-0.4c0.3-0.2,0.6-0.6,0.8-1v-5.4c-0.2-0.5-0.5-0.8-0.8-1.1
		c-0.3-0.3-0.7-0.4-1.1-0.4c-0.7,0-1.3,0.4-1.6,1.2c-0.3,0.8-0.5,1.8-0.5,3.1V65.2z"/>
	<path class="st0" d="M315.9,70.4h-2.1v-2.1h2.1V70.4z"/>
</g>
</svg>
