<svg id="Layer_1" data-name="Layer 1" xmlns="http://www.w3.org/2000/svg" viewBox="0 0 531.9 179.1"><defs><style>.cls-1{fill:#009887;}.cls-2{isolation:isolate;}.cls-3{fill:#6a0032;}</style></defs><title>Artboard 1</title><g id="Layer_2" data-name="Layer 2"><g id="Layer_1-2" data-name="Layer 1-2"><path class="cls-1" d="M84.2,124.5l3.1-16.7h4.8l-5.2,23.5H82.1l-3.8-15.7-3.8,15.7H69.6l-5.2-23.5h4.8l3.2,16.7,3.9-16.7h4.1Z"/><path class="cls-1" d="M102,131.6a8.89,8.89,0,0,1-3.6-.7,8,8,0,0,1-2.7-1.8,9.4,9.4,0,0,1-1.7-2.7,8.85,8.85,0,0,1-.6-3.3v-.6a11,11,0,0,1,.6-3.6,9.51,9.51,0,0,1,1.6-2.8,8.27,8.27,0,0,1,2.6-1.9,8.65,8.65,0,0,1,6.7,0,7.94,7.94,0,0,1,2.4,1.7,7.19,7.19,0,0,1,1.5,2.7,13.39,13.39,0,0,1,.5,3.5v2H98.1a4.74,4.74,0,0,0,.5,1.6,4.6,4.6,0,0,0,.9,1.2,6,6,0,0,0,1.3.8,4.37,4.37,0,0,0,1.6.3,5.91,5.91,0,0,0,2.3-.5,4.45,4.45,0,0,0,1.8-1.5l2.3,2.6a10.43,10.43,0,0,1-1,1.2,5.62,5.62,0,0,1-1.5,1,14.43,14.43,0,0,1-1.9.7A19.27,19.27,0,0,1,102,131.6Zm-.5-14.3a2.79,2.79,0,0,0-1.3.3,3.47,3.47,0,0,0-1,.7,4.11,4.11,0,0,0-.7,1.1,8.74,8.74,0,0,0-.4,1.5h6.5v-.4a5.68,5.68,0,0,0-.2-1.3,2.11,2.11,0,0,0-.6-1,3.47,3.47,0,0,0-1-.7A5.68,5.68,0,0,0,101.5,117.3Z"/><path class="cls-1" d="M116.7,131.3H112V106.6h4.7Z"/><path class="cls-1" d="M127.8,127.9a4.86,4.86,0,0,0,1.2-.2,4.4,4.4,0,0,0,.9-.5,1.56,1.56,0,0,0,.6-.8,3.75,3.75,0,0,0,.2-1.1h4.4a5.87,5.87,0,0,1-.6,2.6,7.34,7.34,0,0,1-1.5,2,6.41,6.41,0,0,1-2.3,1.3,8.89,8.89,0,0,1-6.4-.2,6.77,6.77,0,0,1-2.5-1.9,7.68,7.68,0,0,1-1.5-2.8,13.39,13.39,0,0,1-.5-3.5v-.5a12.66,12.66,0,0,1,.5-3.4,7.68,7.68,0,0,1,1.5-2.8,6.77,6.77,0,0,1,2.5-1.9,8.42,8.42,0,0,1,3.5-.7,9.2,9.2,0,0,1,2.9.5,8,8,0,0,1,2.3,1.4,7.17,7.17,0,0,1,2.1,5h-4.4a4.86,4.86,0,0,0-.2-1.2,2.11,2.11,0,0,0-.6-1,5.57,5.57,0,0,0-.9-.7,2.76,2.76,0,0,0-1.3-.2,3.36,3.36,0,0,0-1.7.4,3.51,3.51,0,0,0-1,1.1,4.74,4.74,0,0,0-.5,1.6,12.1,12.1,0,0,0-.1,1.9v.4a12.1,12.1,0,0,0,.1,1.9,4.33,4.33,0,0,0,.5,1.6,3.51,3.51,0,0,0,1,1.1A2.62,2.62,0,0,0,127.8,127.9Z"/><path class="cls-1" d="M137.1,122.4a10.43,10.43,0,0,1,.6-3.5,7.83,7.83,0,0,1,1.6-2.8,8.27,8.27,0,0,1,2.6-1.9,9.13,9.13,0,0,1,7,0,7,7,0,0,1,2.6,1.9,7.83,7.83,0,0,1,1.6,2.8,10.43,10.43,0,0,1,.6,3.5v.3a10.43,10.43,0,0,1-.6,3.5,7.83,7.83,0,0,1-1.6,2.8,6.73,6.73,0,0,1-2.6,1.8,9.41,9.41,0,0,1-7,0,7.93,7.93,0,0,1-2.6-1.8,7.83,7.83,0,0,1-1.6-2.8,10.43,10.43,0,0,1-.6-3.5Zm4.6.4a13.42,13.42,0,0,0,.2,2,4.37,4.37,0,0,0,.6,1.6,5.73,5.73,0,0,0,1.1,1.1,3.36,3.36,0,0,0,1.7.4,3,3,0,0,0,1.6-.4,2.91,2.91,0,0,0,1.1-1.1,4.37,4.37,0,0,0,.6-1.6,13.42,13.42,0,0,0,.2-2v-.3a13.42,13.42,0,0,0-.2-2,4.37,4.37,0,0,0-.6-1.6,3.84,3.84,0,0,0-1.1-1.1,3.36,3.36,0,0,0-1.7-.4,3,3,0,0,0-1.6.4,3.84,3.84,0,0,0-1.1,1.1,5.17,5.17,0,0,0-.6,1.6,13.42,13.42,0,0,0-.2,2Z"/><path class="cls-1" d="M160.8,113.9l.1,1.9a6.78,6.78,0,0,1,2.1-1.7,7.21,7.21,0,0,1,2.9-.6,6.74,6.74,0,0,1,2.8.6,4.1,4.1,0,0,1,1.9,2,7.84,7.84,0,0,1,2.1-2,6.67,6.67,0,0,1,3.1-.7,8.49,8.49,0,0,1,2.3.3,4.31,4.31,0,0,1,1.8,1.1,5.3,5.3,0,0,1,1.1,2.1,11.18,11.18,0,0,1,.4,3.1v11.1h-4.7V120.2a6.06,6.06,0,0,0-.2-1.4,4.4,4.4,0,0,0-.5-.9,1.23,1.23,0,0,0-.8-.4,4.07,4.07,0,0,0-1.1-.1,3.69,3.69,0,0,0-1.8.5,3.24,3.24,0,0,0-1.1,1.5v12h-4.7V120.3a3.18,3.18,0,0,0-.2-1.4,4.4,4.4,0,0,0-.5-.9,2.3,2.3,0,0,0-.8-.5,4.07,4.07,0,0,0-1.1-.1,3.36,3.36,0,0,0-1.7.4,3.25,3.25,0,0,0-1.1,1.2v12.4h-4.7V113.9Z"/><path class="cls-1" d="M193,131.6a8.89,8.89,0,0,1-3.6-.7,8,8,0,0,1-2.7-1.8,9.4,9.4,0,0,1-1.7-2.7,9.54,9.54,0,0,1-.6-3.3v-.6a11,11,0,0,1,.6-3.6,9.51,9.51,0,0,1,1.6-2.8,8.27,8.27,0,0,1,2.6-1.9,8.65,8.65,0,0,1,6.7,0,7,7,0,0,1,2.4,1.7,7.19,7.19,0,0,1,1.5,2.7,13.39,13.39,0,0,1,.5,3.5v2H189.2a4.74,4.74,0,0,0,.5,1.6,4.6,4.6,0,0,0,.9,1.2,6,6,0,0,0,1.3.8,4.37,4.37,0,0,0,1.6.3,6.82,6.82,0,0,0,2.4-.5,4.45,4.45,0,0,0,1.8-1.5l2.3,2.6a10.43,10.43,0,0,1-1,1.2,5.62,5.62,0,0,1-1.5,1,14.43,14.43,0,0,1-1.9.7A25,25,0,0,1,193,131.6Zm-.5-14.3a2.79,2.79,0,0,0-1.3.3,3.47,3.47,0,0,0-1,.7,4.11,4.11,0,0,0-.7,1.1,8.74,8.74,0,0,0-.4,1.5h6.5v-.4a5.68,5.68,0,0,0-.2-1.3,2.11,2.11,0,0,0-.6-1,3.47,3.47,0,0,0-1-.7A5.18,5.18,0,0,0,192.5,117.3Z"/><path class="cls-1" d="M216.6,109.6v4.3h3v3.4h-3V126a2.74,2.74,0,0,0,.1.9l.3.6.6.3a2.18,2.18,0,0,0,.8.1h.8l.6-.1v3.5c-.4.1-.8.2-1.3.3a7.78,7.78,0,0,1-1.6.1,7.46,7.46,0,0,1-2.1-.3,5.16,5.16,0,0,1-1.6-.9,3.33,3.33,0,0,1-1-1.6,6.76,6.76,0,0,1-.4-2.4v-9.2h-2.6v-3.5h2.6v-4.3l4.8.1Z"/><path class="cls-1" d="M221,122.4a10.43,10.43,0,0,1,.6-3.5,7.83,7.83,0,0,1,1.6-2.8,8.27,8.27,0,0,1,2.6-1.9,9.13,9.13,0,0,1,7,0,7,7,0,0,1,2.6,1.9,7.83,7.83,0,0,1,1.6,2.8,10.43,10.43,0,0,1,.6,3.5v.3a10.43,10.43,0,0,1-.6,3.5,7.83,7.83,0,0,1-1.6,2.8,6.73,6.73,0,0,1-2.6,1.8,9.41,9.41,0,0,1-7,0,7.93,7.93,0,0,1-2.6-1.8,7.83,7.83,0,0,1-1.6-2.8,10.43,10.43,0,0,1-.6-3.5Zm4.7.4a13.42,13.42,0,0,0,.2,2,4.37,4.37,0,0,0,.6,1.6,5.73,5.73,0,0,0,1.1,1.1,3.36,3.36,0,0,0,1.7.4,3,3,0,0,0,1.6-.4,2.91,2.91,0,0,0,1.1-1.1,4.37,4.37,0,0,0,.6-1.6,13.42,13.42,0,0,0,.2-2v-.3a13.42,13.42,0,0,0-.2-2,4.37,4.37,0,0,0-.6-1.6,3.84,3.84,0,0,0-1.1-1.1,3.36,3.36,0,0,0-1.7-.4,3,3,0,0,0-1.6.4,3.84,3.84,0,0,0-1.1,1.1,5.17,5.17,0,0,0-.6,1.6,13.42,13.42,0,0,0-.2,2Z"/><path class="cls-1" d="M254.2,109.6v4.3h3v3.4h-3V126a2.74,2.74,0,0,0,.1.9l.3.6.6.3a2.18,2.18,0,0,0,.8.1h.8l.6-.1v3.5c-.4.1-.8.2-1.3.3a7.78,7.78,0,0,1-1.6.1,7.46,7.46,0,0,1-2.1-.3,5.16,5.16,0,0,1-1.6-.9,3.33,3.33,0,0,1-1-1.6,6.76,6.76,0,0,1-.4-2.4v-9.2H247v-3.5h2.6v-4.3l4.6.1Z"/><path class="cls-1" d="M264.3,115.8a5.21,5.21,0,0,1,2-1.6,5.87,5.87,0,0,1,2.6-.6,6.76,6.76,0,0,1,2.4.4,3.58,3.58,0,0,1,1.8,1.2,7.2,7.2,0,0,1,1.2,2.1,11.18,11.18,0,0,1,.4,3.1v11H270v-11a6.66,6.66,0,0,0-.2-1.4,2.11,2.11,0,0,0-.6-1,1.87,1.87,0,0,0-.9-.5,4.86,4.86,0,0,0-1.2-.2,3.76,3.76,0,0,0-1.8.4,2.56,2.56,0,0,0-1.1,1.2v12.4h-4.7V106.6h4.7v9.2Z"/><path class="cls-1" d="M286.2,131.6a8.89,8.89,0,0,1-3.6-.7,8,8,0,0,1-2.7-1.8,9.4,9.4,0,0,1-1.7-2.7,9.54,9.54,0,0,1-.6-3.3v-.6a11,11,0,0,1,.6-3.6,9.51,9.51,0,0,1,1.6-2.8,7.21,7.21,0,0,1,2.5-1.8,8.65,8.65,0,0,1,6.7,0,8.52,8.52,0,0,1,2.5,1.7,7.19,7.19,0,0,1,1.5,2.7,13.39,13.39,0,0,1,.5,3.5v2H282.4a4.74,4.74,0,0,0,.5,1.6,4.6,4.6,0,0,0,.9,1.2,6,6,0,0,0,1.3.8,4.37,4.37,0,0,0,1.6.3,6.82,6.82,0,0,0,2.4-.5,4.45,4.45,0,0,0,1.8-1.5l2.3,2.6a10.43,10.43,0,0,1-1,1.2,5.62,5.62,0,0,1-1.5,1,14.43,14.43,0,0,1-1.9.7Zm-.5-14.3a2.79,2.79,0,0,0-1.3.3,3.47,3.47,0,0,0-1,.7,4.11,4.11,0,0,0-.7,1.1,8.74,8.74,0,0,0-.4,1.5h6.5v-.4a5.68,5.68,0,0,0-.2-1.3,2.11,2.11,0,0,0-.6-1,3.47,3.47,0,0,0-1-.7A5.18,5.18,0,0,0,285.7,117.3Z"/><path class="cls-1" d="M304.2,109.4a2.19,2.19,0,0,1,.7-1.7,2.63,2.63,0,0,1,1.9-.7,4.63,4.63,0,0,1,1.1.2,2.1,2.1,0,0,1,1.3,1.3,2.57,2.57,0,0,1,0,2,2.1,2.1,0,0,1-1.3,1.3,4.11,4.11,0,0,1-2.2,0,2.1,2.1,0,0,1-1.3-1.3A5.19,5.19,0,0,1,304.2,109.4Zm5,21.9h-4.7V113.9h4.7Z"/><path class="cls-1" d="M317.3,113.9l.1,2a6.19,6.19,0,0,1,2.2-1.7,7.11,7.11,0,0,1,2.8-.6,8.91,8.91,0,0,1,2.3.3,3.34,3.34,0,0,1,1.7,1.1,5.3,5.3,0,0,1,1.1,2.1,11.18,11.18,0,0,1,.4,3.1v11.1h-4.7V120.2a6.66,6.66,0,0,0-.2-1.4,4.4,4.4,0,0,0-.5-.9,1.87,1.87,0,0,0-.9-.5,4.83,4.83,0,0,0-1.2-.1,3.09,3.09,0,0,0-1.8.5,3.45,3.45,0,0,0-1.2,1.2v12.3h-4.7V113.9Z"/><path class="cls-1" d="M337.1,109.6v4.3h3v3.4h-3V126a2.74,2.74,0,0,0,.1.9l.3.6.6.3a2.18,2.18,0,0,0,.8.1h.8l.6-.1v3.5c-.4.1-.8.2-1.3.3a8.58,8.58,0,0,1-3.6-.2,5.16,5.16,0,0,1-1.6-.9,3.33,3.33,0,0,1-1-1.6,6.76,6.76,0,0,1-.4-2.4v-9.2h-2.5v-3.5h2.5v-4.3Z"/><path class="cls-1" d="M350.7,131.6a8.89,8.89,0,0,1-3.6-.7,8,8,0,0,1-2.7-1.8,9.4,9.4,0,0,1-1.7-2.7,9.54,9.54,0,0,1-.6-3.3v-.6a11,11,0,0,1,.6-3.6,9.51,9.51,0,0,1,1.6-2.8,8.27,8.27,0,0,1,2.6-1.9,8.65,8.65,0,0,1,6.7,0,7.94,7.94,0,0,1,2.4,1.7,7.19,7.19,0,0,1,1.5,2.7,13.39,13.39,0,0,1,.5,3.5v2H346.9a4.74,4.74,0,0,0,.5,1.6,4.6,4.6,0,0,0,.9,1.2,6,6,0,0,0,1.3.8,4.37,4.37,0,0,0,1.6.3,6.82,6.82,0,0,0,2.4-.5,4.45,4.45,0,0,0,1.8-1.5l2.3,2.6a10.43,10.43,0,0,1-1,1.2,5.62,5.62,0,0,1-1.5,1,14.43,14.43,0,0,1-1.9.7A25,25,0,0,1,350.7,131.6Zm-.5-14.3a2.79,2.79,0,0,0-1.3.3,3.47,3.47,0,0,0-1,.7,4.11,4.11,0,0,0-.7,1.1,8.74,8.74,0,0,0-.4,1.5h6.5v-.4a5.68,5.68,0,0,0-.2-1.3,2.11,2.11,0,0,0-.6-1,3.47,3.47,0,0,0-1-.7A5.68,5.68,0,0,0,350.2,117.3Z"/><path class="cls-1" d="M370.3,118.3l-.8-.1h-.9a4.19,4.19,0,0,0-2.2.5,3.25,3.25,0,0,0-1.3,1.3v11.4h-4.7V113.9h4.4l.1,2.1a6.88,6.88,0,0,1,1.6-1.8,3.81,3.81,0,0,1,2.3-.6,2.18,2.18,0,0,1,.8.1,1.94,1.94,0,0,1,.7.2Z"/><path class="cls-1" d="M382.2,131.3a7.43,7.43,0,0,1-.5-1.6,5.63,5.63,0,0,1-4.4,1.8,5.81,5.81,0,0,1-2.3-.4,5.26,5.26,0,0,1-1.9-1.1,5.54,5.54,0,0,1-1.3-1.7,5.26,5.26,0,0,1-.5-2.1,6.4,6.4,0,0,1,.5-2.4,5.23,5.23,0,0,1,1.5-1.8,7.88,7.88,0,0,1,2.5-1.1,13.29,13.29,0,0,1,3.5-.4h2.1v-1a3,3,0,0,0-.6-1.9,2.47,2.47,0,0,0-2-.7,3.32,3.32,0,0,0-1.9.6,2,2,0,0,0-.7,1.6h-4.7a5,5,0,0,1,.5-2.1,6.52,6.52,0,0,1,1.5-1.8,9.87,9.87,0,0,1,2.3-1.2,8,8,0,0,1,3.1-.4,8.87,8.87,0,0,1,2.8.4,4.76,4.76,0,0,1,2.2,1.2,6.93,6.93,0,0,1,1.5,1.9,6.1,6.1,0,0,1,.5,2.7v8.6a4.07,4.07,0,0,0,.1,1.1,1.86,1.86,0,0,0,.2.8c.1.2.2.5.3.7v.3Zm-3.9-3.2a4.49,4.49,0,0,0,2-.5,1.84,1.84,0,0,0,.7-.5c.2-.2.3-.4.5-.6v-3h-1.9a8.65,8.65,0,0,0-1.6.2,2.48,2.48,0,0,0-1.1.6,1.56,1.56,0,0,0-.6.8,3.75,3.75,0,0,0-.2,1.1,1.83,1.83,0,0,0,.6,1.4,2.78,2.78,0,0,0,1.6.5Z"/><path class="cls-1" d="M397,127.9a4.86,4.86,0,0,0,1.2-.2,4.4,4.4,0,0,0,.9-.5,1.56,1.56,0,0,0,.6-.8,3.75,3.75,0,0,0,.2-1.1h4.4a5.87,5.87,0,0,1-.6,2.6,7.34,7.34,0,0,1-1.5,2,6.41,6.41,0,0,1-2.3,1.3,9.22,9.22,0,0,1-2.8.5,8.42,8.42,0,0,1-3.5-.7,6.77,6.77,0,0,1-2.5-1.9,7.68,7.68,0,0,1-1.5-2.8,13.39,13.39,0,0,1-.5-3.5v-.5a14.29,14.29,0,0,1,.5-3.5,7.68,7.68,0,0,1,1.5-2.8,6.77,6.77,0,0,1,2.5-1.9,8.42,8.42,0,0,1,3.5-.7,9.2,9.2,0,0,1,2.9.5,8,8,0,0,1,2.3,1.4,7.22,7.22,0,0,1,1.5,2.2,5.51,5.51,0,0,1,.5,2.8H400a4.86,4.86,0,0,0-.2-1.2,2.11,2.11,0,0,0-.6-1,5.57,5.57,0,0,0-.9-.7,2.76,2.76,0,0,0-1.3-.2,3.36,3.36,0,0,0-1.7.4,3.51,3.51,0,0,0-1,1.1,4.74,4.74,0,0,0-.5,1.6,12.1,12.1,0,0,0-.1,1.9v.4a12.1,12.1,0,0,0,.1,1.9,4.33,4.33,0,0,0,.5,1.6,3.51,3.51,0,0,0,1,1.1A2.32,2.32,0,0,0,397,127.9Z"/><path class="cls-1" d="M412.5,109.6v4.3h3v3.4h-3V126a2.74,2.74,0,0,0,.1.9l.3.6.6.3a2.18,2.18,0,0,0,.8.1h.8l.6-.1v3.5c-.4.1-.8.2-1.3.3a8.58,8.58,0,0,1-3.6-.2,5.16,5.16,0,0,1-1.6-.9,3.33,3.33,0,0,1-1-1.6,6.76,6.76,0,0,1-.4-2.4v-9.2h-2.6v-3.5h2.5v-4.3l4.8.1Z"/><path class="cls-1" d="M418.1,109.4a2.19,2.19,0,0,1,.7-1.7,2.63,2.63,0,0,1,1.9-.7,4.63,4.63,0,0,1,1.1.2,2.1,2.1,0,0,1,1.3,1.3,2.57,2.57,0,0,1,0,2,2.1,2.1,0,0,1-1.3,1.3,4.11,4.11,0,0,1-2.2,0,2.1,2.1,0,0,1-1.3-1.3A2.45,2.45,0,0,1,418.1,109.4Zm4.9,21.9h-4.7V113.9H423Z"/><path class="cls-1" d="M433.4,125.6l3.2-11.8h4.9l-5.9,17.4h-4.5l-5.8-17.4h4.9Z"/><path class="cls-1" d="M451.3,131.6a8.89,8.89,0,0,1-3.6-.7,8,8,0,0,1-2.7-1.8,7.56,7.56,0,0,1-1.6-2.7,9.54,9.54,0,0,1-.6-3.3v-.6a11,11,0,0,1,.6-3.6,9.51,9.51,0,0,1,1.6-2.8,8.27,8.27,0,0,1,2.6-1.9,8.65,8.65,0,0,1,6.7,0,7.94,7.94,0,0,1,2.4,1.7,7.19,7.19,0,0,1,1.5,2.7,13.39,13.39,0,0,1,.5,3.5v2H447.6a4.74,4.74,0,0,0,.5,1.6,4.6,4.6,0,0,0,.9,1.2,6,6,0,0,0,1.3.8,4.37,4.37,0,0,0,1.6.3,6.82,6.82,0,0,0,2.4-.5,4.45,4.45,0,0,0,1.8-1.5l2.3,2.6a10.43,10.43,0,0,1-1,1.2,5.62,5.62,0,0,1-1.5,1,14.43,14.43,0,0,1-1.9.7A12.83,12.83,0,0,1,451.3,131.6Zm-.5-14.3a2.79,2.79,0,0,0-1.3.3,3.47,3.47,0,0,0-1,.7,4.11,4.11,0,0,0-.7,1.1,8.74,8.74,0,0,0-.4,1.5h6.5v-.4a5.68,5.68,0,0,0-.2-1.3,2.11,2.11,0,0,0-.6-1,3.47,3.47,0,0,0-1-.7A5.18,5.18,0,0,0,450.8,117.3Z"/><path class="cls-1" d="M28.6,156.1a13.76,13.76,0,0,1-1.1,5.7,9.59,9.59,0,0,1-3,3.9l3.9,3.1-3.1,2.7-5-4c-.6.1-1.2.1-1.8.2a11,11,0,0,1-4-.8,9,9,0,0,1-3.2-2.3A11.06,11.06,0,0,1,9.2,161a13.25,13.25,0,0,1-.7-4.8v-1a15.59,15.59,0,0,1,.7-4.8,8.74,8.74,0,0,1,2.1-3.6,8.16,8.16,0,0,1,3.2-2.3,11,11,0,0,1,4-.8,11,11,0,0,1,4,.8,9,9,0,0,1,3.2,2.3,10.8,10.8,0,0,1,2,3.6,13.25,13.25,0,0,1,.7,4.8Zm-4.9-1a9.9,9.9,0,0,0-1.3-5.6,4.16,4.16,0,0,0-3.8-1.9,4.47,4.47,0,0,0-3.8,1.9,10.06,10.06,0,0,0-1.3,5.6v1.1a12.28,12.28,0,0,0,.4,3.3,8,8,0,0,0,1,2.4,4.31,4.31,0,0,0,1.6,1.4,5.4,5.4,0,0,0,2.2.5,4.47,4.47,0,0,0,3.8-1.9,10.06,10.06,0,0,0,1.3-5.6Z"/><path class="cls-1" d="M42.3,165.5a5.21,5.21,0,0,1-2,1.6,6.74,6.74,0,0,1-2.8.6,5.81,5.81,0,0,1-2.3-.4,4.31,4.31,0,0,1-1.8-1.1,8.3,8.3,0,0,1-1.2-2,10.48,10.48,0,0,1-.4-3V149.9h4.7v11.3a4.86,4.86,0,0,0,.2,1.2,2.1,2.1,0,0,0,1.3,1.3,3.78,3.78,0,0,0,1,.2,4.45,4.45,0,0,0,2-.4,3.45,3.45,0,0,0,1.2-1.2V150h4.7v17.4H42.6Z"/><path class="cls-1" d="M58.4,167.6a8.89,8.89,0,0,1-3.6-.7,8,8,0,0,1-2.7-1.8,10.7,10.7,0,0,1-1.7-2.6,9.54,9.54,0,0,1-.6-3.3v-.6a11,11,0,0,1,.6-3.6,9.51,9.51,0,0,1,1.6-2.8,8.27,8.27,0,0,1,2.6-1.9,8.65,8.65,0,0,1,6.7,0,7.94,7.94,0,0,1,2.4,1.7,7.19,7.19,0,0,1,1.5,2.7,13.39,13.39,0,0,1,.5,3.5v2H54.4a4.74,4.74,0,0,0,.5,1.6,4.6,4.6,0,0,0,.9,1.2,6,6,0,0,0,1.3.8,4.37,4.37,0,0,0,1.6.3,5.91,5.91,0,0,0,2.3-.5,4.45,4.45,0,0,0,1.8-1.5l2.3,2.6a10.43,10.43,0,0,1-1,1.2,5.62,5.62,0,0,1-1.5,1,14.43,14.43,0,0,1-1.9.7Zm-.6-14.3a2.79,2.79,0,0,0-1.3.3,3.47,3.47,0,0,0-1,.7,4.11,4.11,0,0,0-.7,1.1,8.74,8.74,0,0,0-.4,1.5H61v-.4a5.68,5.68,0,0,0-.2-1.3,2.11,2.11,0,0,0-.6-1,3.47,3.47,0,0,0-1-.7A6.06,6.06,0,0,0,57.8,153.3Z"/><path class="cls-1" d="M76.2,167.6a8.89,8.89,0,0,1-3.6-.7,8,8,0,0,1-2.7-1.8,9.4,9.4,0,0,1-1.7-2.7,9.54,9.54,0,0,1-.6-3.3v-.6a11.33,11.33,0,0,1,.6-3.6,9.51,9.51,0,0,1,1.6-2.8,9.3,9.3,0,0,1,2.5-1.9,8.65,8.65,0,0,1,6.7,0,7,7,0,0,1,2.4,1.7,7.19,7.19,0,0,1,1.5,2.7,13.39,13.39,0,0,1,.5,3.5v2H72.3a4.74,4.74,0,0,0,.5,1.6,4.6,4.6,0,0,0,.9,1.2,6,6,0,0,0,1.3.8,4.37,4.37,0,0,0,1.6.3,5.91,5.91,0,0,0,2.3-.5,5.23,5.23,0,0,0,1.8-1.5l2.3,2.6a10.43,10.43,0,0,1-1,1.2,5.62,5.62,0,0,1-1.5,1,14.43,14.43,0,0,1-1.9.7A19.27,19.27,0,0,1,76.2,167.6Zm-.5-14.3a2.79,2.79,0,0,0-1.3.3,3.47,3.47,0,0,0-1,.7,4.11,4.11,0,0,0-.7,1.1,8.74,8.74,0,0,0-.4,1.5h6.5v-.4a5.68,5.68,0,0,0-.2-1.3,2.11,2.11,0,0,0-.6-1,3.47,3.47,0,0,0-1-.7A5.68,5.68,0,0,0,75.7,153.3Z"/><path class="cls-1" d="M90.3,149.9l.2,2a6.19,6.19,0,0,1,2.2-1.7,7.11,7.11,0,0,1,2.8-.6,8.91,8.91,0,0,1,2.3.3,3.34,3.34,0,0,1,1.7,1.1,5.3,5.3,0,0,1,1.1,2.1,11.18,11.18,0,0,1,.4,3.1v11.1H96.3V156.2a6.66,6.66,0,0,0-.2-1.4,4.4,4.4,0,0,0-.5-.9,1.87,1.87,0,0,0-.9-.5,4.83,4.83,0,0,0-1.2-.1,4,4,0,0,0-1.8.4,3.45,3.45,0,0,0-1.2,1.2v12.3H85.9V149.8l4.4.1Z"/><path class="cls-1" d="M114,162.5a1,1,0,0,0-.2-.7,1.72,1.72,0,0,0-.6-.6,3.77,3.77,0,0,0-1.1-.5,12.65,12.65,0,0,0-1.8-.5,23.73,23.73,0,0,1-2.5-.7,8,8,0,0,1-2-1.1,4.69,4.69,0,0,1-1.3-1.5,4.23,4.23,0,0,1,0-4,3.87,3.87,0,0,1,1.4-1.7,7.72,7.72,0,0,1,2.2-1.2,7,7,0,0,1,2.9-.4,10.48,10.48,0,0,1,3,.4,5.71,5.71,0,0,1,2.3,1.2,6.52,6.52,0,0,1,1.5,1.8,5.91,5.91,0,0,1,.5,2.3h-4.7a2.69,2.69,0,0,0-.6-1.7,3.09,3.09,0,0,0-2-.7,2.88,2.88,0,0,0-1.8.5,1.64,1.64,0,0,0-.6,1.3,1.94,1.94,0,0,0,.2.7,1.72,1.72,0,0,0,.6.6,9.33,9.33,0,0,0,1,.5,8.74,8.74,0,0,0,1.5.4,19.56,19.56,0,0,1,2.6.7,10.12,10.12,0,0,1,2.1,1,4.41,4.41,0,0,1,1.4,1.6,4.66,4.66,0,0,1,0,4.3,6.1,6.1,0,0,1-1.5,1.7,7,7,0,0,1-2.3,1.1,10.48,10.48,0,0,1-3,.4,11.19,11.19,0,0,1-3.2-.5,9.15,9.15,0,0,1-2.4-1.3,5.67,5.67,0,0,1-1.9-4h4.4a2.6,2.6,0,0,0,.2,1.2,2.83,2.83,0,0,0,.7.8,1.81,1.81,0,0,0,1,.4,4.86,4.86,0,0,0,1.2.2,3.51,3.51,0,0,0,2-.5A2.26,2.26,0,0,0,114,162.5Z"/><path class="cls-1" d="M126.4,167.3h-4.7V142.6h4.7Z"/><path class="cls-1" d="M140.3,167.3a7.43,7.43,0,0,1-.5-1.6A4.66,4.66,0,0,1,138,167a6.32,6.32,0,0,1-4.9.2,5.26,5.26,0,0,1-1.9-1.1,5.54,5.54,0,0,1-1.3-1.7,4,4,0,0,1-.4-2.1,6.4,6.4,0,0,1,.5-2.4,5.23,5.23,0,0,1,1.5-1.8A7.88,7.88,0,0,1,134,157a13.29,13.29,0,0,1,3.5-.4h2.1v-1a3.09,3.09,0,0,0-.6-1.9,2.47,2.47,0,0,0-2-.7,2.79,2.79,0,0,0-1.8.6,2,2,0,0,0-.7,1.6h-4.7a5,5,0,0,1,.5-2.1,6.52,6.52,0,0,1,1.5-1.8,9.87,9.87,0,0,1,2.3-1.2,8,8,0,0,1,3.1-.4,8.87,8.87,0,0,1,2.8.4,5.7,5.7,0,0,1,2.2,1.1,6.93,6.93,0,0,1,1.5,1.9,6.1,6.1,0,0,1,.5,2.7v8.7a4.07,4.07,0,0,0,.1,1.1,1.86,1.86,0,0,0,.2.8c.1.2.2.5.3.7v.3Zm-3.8-3.2a4.49,4.49,0,0,0,2-.5,1.84,1.84,0,0,0,.7-.5c.2-.2.3-.4.5-.6v-3h-1.9a8.65,8.65,0,0,0-1.6.2,2.48,2.48,0,0,0-1.1.6,1.56,1.56,0,0,0-.6.8,3.75,3.75,0,0,0-.2,1.1,1.83,1.83,0,0,0,.6,1.4A2.56,2.56,0,0,0,136.5,164.1Z"/><path class="cls-1" d="M152.2,149.9l.1,2a6.19,6.19,0,0,1,2.2-1.7,7.11,7.11,0,0,1,2.8-.6,8.91,8.91,0,0,1,2.3.3,4.54,4.54,0,0,1,1.7,1.1,5.3,5.3,0,0,1,1.1,2.1,11.18,11.18,0,0,1,.4,3.1v11.1h-4.6V156.2a6.66,6.66,0,0,0-.2-1.4,4.4,4.4,0,0,0-.5-.9,1.87,1.87,0,0,0-.9-.5,4.83,4.83,0,0,0-1.2-.1,4,4,0,0,0-1.8.4,3.45,3.45,0,0,0-1.2,1.2v12.3h-4.7V149.8l4.5.1Z"/><path class="cls-1" d="M165.7,158.5a11.23,11.23,0,0,1,.5-3.6,9.05,9.05,0,0,1,1.3-2.8,6,6,0,0,1,2.1-1.8,5.83,5.83,0,0,1,2.9-.6,6.82,6.82,0,0,1,2.4.5,4.93,4.93,0,0,1,1.8,1.4v-8.9h4.7v24.8h-4.2l-.2-1.8a5.51,5.51,0,0,1-4.5,2.2,5.87,5.87,0,0,1-2.9-.7,6.08,6.08,0,0,1-2.1-1.8,7.26,7.26,0,0,1-1.3-2.8,13.39,13.39,0,0,1-.5-3.5Zm4.6.3a13.42,13.42,0,0,0,.2,2,4.37,4.37,0,0,0,.6,1.6,3.51,3.51,0,0,0,1,1.1,3,3,0,0,0,1.6.4,3.2,3.2,0,0,0,1.9-.5,3.74,3.74,0,0,0,1.2-1.3v-6.9a3,3,0,0,0-1.2-1.3,4,4,0,0,0-1.8-.5,3.2,3.2,0,0,0-1.6.4,2.65,2.65,0,0,0-1,1.1,5.17,5.17,0,0,0-.6,1.6,13.42,13.42,0,0,0-.2,2Z"/><path class="cls-1" d="M198.7,167.3h-4.8V143.9h4.8Z"/><path class="cls-1" d="M207.1,149.9l.1,2a6.19,6.19,0,0,1,2.2-1.7,7.11,7.11,0,0,1,2.8-.6,8.91,8.91,0,0,1,2.3.3,4.31,4.31,0,0,1,1.8,1.1,5.3,5.3,0,0,1,1.1,2.1,11.18,11.18,0,0,1,.4,3.1v11.1h-4.7V156.2a6.66,6.66,0,0,0-.2-1.4,4.4,4.4,0,0,0-.5-.9,1.87,1.87,0,0,0-.9-.5,4.83,4.83,0,0,0-1.2-.1,4,4,0,0,0-1.8.4,3.45,3.45,0,0,0-1.2,1.2v12.3h-4.7V149.8l4.5.1Z"/><path class="cls-1" d="M222.6,167.3v-14H220v-3.4h2.6v-1.5a7.44,7.44,0,0,1,.4-2.6,4.89,4.89,0,0,1,1.3-1.9,8.3,8.3,0,0,1,2-1.2,8.5,8.5,0,0,1,2.7-.4,4.83,4.83,0,0,1,1.2.1c.4.1.8.1,1.1.2v3.6a6.66,6.66,0,0,0-1.4-.2,3.09,3.09,0,0,0-1.9.6,2.42,2.42,0,0,0-.7,1.8v1.5h3.5v3.4h-3.5v14Z"/><path class="cls-1" d="M242.9,154.2l-.8-.1h-.9a4.19,4.19,0,0,0-2.2.5,3,3,0,0,0-1.2,1.3v11.4h-4.7V149.9h4.4l.1,2.1a5.73,5.73,0,0,1,1.7-1.8,3.81,3.81,0,0,1,2.3-.6,2.18,2.18,0,0,1,.8.1,1.94,1.94,0,0,1,.7.2Z"/><path class="cls-1" d="M254.8,167.3a7.43,7.43,0,0,1-.5-1.6,4.66,4.66,0,0,1-1.8,1.3,6.32,6.32,0,0,1-4.9.2,5.26,5.26,0,0,1-1.9-1.1,5.54,5.54,0,0,1-1.3-1.7,4,4,0,0,1-.4-2.1,6.92,6.92,0,0,1,.5-2.5A5.23,5.23,0,0,1,246,158a7.88,7.88,0,0,1,2.5-1.1,13.29,13.29,0,0,1,3.5-.4h2.1v-1a3.09,3.09,0,0,0-.6-1.9,2.47,2.47,0,0,0-2-.7,3.32,3.32,0,0,0-1.9.6,2,2,0,0,0-.7,1.6h-4.7a4,4,0,0,1,.6-2.1,6.52,6.52,0,0,1,1.5-1.8,9.87,9.87,0,0,1,2.3-1.2,8,8,0,0,1,3.1-.4,8.87,8.87,0,0,1,2.8.4,4.76,4.76,0,0,1,2.2,1.2,5.46,5.46,0,0,1,1.5,1.9,6.1,6.1,0,0,1,.5,2.7v8.7a4.07,4.07,0,0,0,.1,1.1,2,2,0,0,0,.2.8c.1.2.2.5.3.7v.3Zm-3.9-3.2a4.49,4.49,0,0,0,2-.5,1.84,1.84,0,0,0,.7-.5c.2-.2.3-.4.5-.6v-3h-1.9a8.65,8.65,0,0,0-1.6.2,2.48,2.48,0,0,0-1.1.6,1.56,1.56,0,0,0-.6.8,3.75,3.75,0,0,0-.2,1.1,1.83,1.83,0,0,0,.6,1.4A2.78,2.78,0,0,0,250.9,164.1Z"/><path class="cls-1" d="M271.8,162.5a1.66,1.66,0,0,0-.1-.7,2.62,2.62,0,0,0-.5-.6,3.77,3.77,0,0,0-1.1-.5,12.65,12.65,0,0,0-1.8-.5,23.73,23.73,0,0,1-2.5-.7,8,8,0,0,1-2-1.1,4.69,4.69,0,0,1-1.3-1.5,4.49,4.49,0,0,1-.5-2,5.26,5.26,0,0,1,.5-2.1,3.87,3.87,0,0,1,1.4-1.7,7.72,7.72,0,0,1,2.2-1.2,7,7,0,0,1,2.9-.4,10.48,10.48,0,0,1,3,.4,5.71,5.71,0,0,1,2.3,1.2,5.23,5.23,0,0,1,1.5,1.8,5.91,5.91,0,0,1,.5,2.3h-4.7a2.69,2.69,0,0,0-.6-1.7,3.09,3.09,0,0,0-2-.7,2.88,2.88,0,0,0-1.8.5,1.64,1.64,0,0,0-.6,1.3,1.94,1.94,0,0,0,.2.7,2.62,2.62,0,0,0,.5.6,9.33,9.33,0,0,0,1,.5,8.74,8.74,0,0,0,1.5.4,19.56,19.56,0,0,1,2.6.7,10.12,10.12,0,0,1,2.1,1,4.41,4.41,0,0,1,1.4,1.6,4.66,4.66,0,0,1,0,4.3,6.1,6.1,0,0,1-1.5,1.7,7,7,0,0,1-2.3,1.1,10.48,10.48,0,0,1-3,.4,11.19,11.19,0,0,1-3.2-.5,9.15,9.15,0,0,1-2.4-1.3,5.67,5.67,0,0,1-1.9-4H266a2.63,2.63,0,0,0,.3,1.2,2.83,2.83,0,0,0,.7.8,1.81,1.81,0,0,0,1,.4,4.86,4.86,0,0,0,1.2.2,3.51,3.51,0,0,0,2-.5A1.64,1.64,0,0,0,271.8,162.5Z"/><path class="cls-1" d="M284.9,145.6v4.3h3v3.4h-3V162a2.74,2.74,0,0,0,.1.9l.3.6.6.3a2.18,2.18,0,0,0,.8.1h.8l.6-.1v3.5c-.4.1-.8.2-1.3.3a8.58,8.58,0,0,1-3.6-.2,5.16,5.16,0,0,1-1.6-.9,3.33,3.33,0,0,1-1-1.6,6.76,6.76,0,0,1-.4-2.4v-9.2h-2.5v-3.5h2.6v-4.3l4.6.1Z"/><path class="cls-1" d="M300.3,154.2l-.8-.1h-.9a4.19,4.19,0,0,0-2.2.5,3.25,3.25,0,0,0-1.3,1.3v11.4h-4.7V149.9h4.4l.1,2.1a6.88,6.88,0,0,1,1.6-1.8,3.81,3.81,0,0,1,2.3-.6,2.18,2.18,0,0,1,.8.1,1.94,1.94,0,0,1,.7.2Z"/><path class="cls-1" d="M313,165.5a5.21,5.21,0,0,1-2,1.6,7.08,7.08,0,0,1-5.2.2,4.31,4.31,0,0,1-1.8-1.1,8.3,8.3,0,0,1-1.2-2,10.48,10.48,0,0,1-.4-3V149.9h4.7v11.3a4.86,4.86,0,0,0,.2,1.2,2.1,2.1,0,0,0,1.3,1.3,3.78,3.78,0,0,0,1,.2,4.45,4.45,0,0,0,2-.4,3.45,3.45,0,0,0,1.2-1.2V150h4.7v17.4h-4.4Z"/><path class="cls-1" d="M328.3,163.9a4.86,4.86,0,0,0,1.2-.2,4.4,4.4,0,0,0,.9-.5,1.56,1.56,0,0,0,.6-.8,3.75,3.75,0,0,0,.2-1.1h4.4a5.87,5.87,0,0,1-.6,2.6,7.34,7.34,0,0,1-1.5,2,6.41,6.41,0,0,1-2.3,1.3,9.22,9.22,0,0,1-2.8.5,8.42,8.42,0,0,1-3.5-.7,6.77,6.77,0,0,1-2.5-1.9,7.68,7.68,0,0,1-1.5-2.8,13.39,13.39,0,0,1-.5-3.5v-.4a14.29,14.29,0,0,1,.5-3.5,7.68,7.68,0,0,1,1.5-2.8,6.77,6.77,0,0,1,2.5-1.9,8.42,8.42,0,0,1,3.5-.7,9.2,9.2,0,0,1,2.9.5,8,8,0,0,1,2.3,1.4,7.22,7.22,0,0,1,1.5,2.2,5.51,5.51,0,0,1,.5,2.8h-4.4a4.86,4.86,0,0,0-.2-1.2,2.11,2.11,0,0,0-.6-1,5.57,5.57,0,0,0-.9-.7,2.76,2.76,0,0,0-1.3-.2,3.36,3.36,0,0,0-1.7.4,3.51,3.51,0,0,0-1,1.1,4.74,4.74,0,0,0-.5,1.6,12.1,12.1,0,0,0-.1,1.9v.4a12.1,12.1,0,0,0,.1,1.9,4.33,4.33,0,0,0,.5,1.6,3.51,3.51,0,0,0,1,1.1A2.62,2.62,0,0,0,328.3,163.9Z"/><path class="cls-1" d="M343.8,145.6v4.3h3v3.4h-3V162a2.74,2.74,0,0,0,.1.9l.3.6.6.3a2.18,2.18,0,0,0,.8.1h.8l.6-.1v3.5c-.4.1-.8.2-1.3.3a8.58,8.58,0,0,1-3.6-.2,5.16,5.16,0,0,1-1.6-.9,3.33,3.33,0,0,1-1-1.6,6.76,6.76,0,0,1-.4-2.4v-9.2h-2.5v-3.5h2.5v-4.3l4.7.1Z"/><path class="cls-1" d="M359.8,165.5a5.21,5.21,0,0,1-2,1.6,7.08,7.08,0,0,1-5.2.2,4.31,4.31,0,0,1-1.8-1.1,8.3,8.3,0,0,1-1.2-2,10.48,10.48,0,0,1-.4-3V149.9h4.7v11.3a4.86,4.86,0,0,0,.2,1.2,2.1,2.1,0,0,0,1.3,1.3,3.78,3.78,0,0,0,1,.2,4.45,4.45,0,0,0,2-.4,3.45,3.45,0,0,0,1.2-1.2V150h4.7v17.4h-4.4Z"/><path class="cls-1" d="M377.6,154.2l-.8-.1h-.9a4.19,4.19,0,0,0-2.2.5,3,3,0,0,0-1.2,1.3v11.4h-4.7V149.9h4.4l.1,2.1a6.88,6.88,0,0,1,1.6-1.8,3.81,3.81,0,0,1,2.3-.6,2.18,2.18,0,0,1,.8.1,1.94,1.94,0,0,1,.7.2Z"/><path class="cls-1" d="M387.6,167.6a8.89,8.89,0,0,1-3.6-.7,8,8,0,0,1-2.7-1.8,9.4,9.4,0,0,1-1.7-2.7,9.54,9.54,0,0,1-.6-3.3v-.6a11,11,0,0,1,.6-3.6,9.51,9.51,0,0,1,1.6-2.8,8.27,8.27,0,0,1,2.6-1.9,8.65,8.65,0,0,1,6.7,0,7,7,0,0,1,2.4,1.7,7.19,7.19,0,0,1,1.5,2.7,13.39,13.39,0,0,1,.5,3.5v2H383.8a4.74,4.74,0,0,0,.5,1.6,4.6,4.6,0,0,0,.9,1.2,6,6,0,0,0,1.3.8,4.37,4.37,0,0,0,1.6.3,6.82,6.82,0,0,0,2.4-.5,4.45,4.45,0,0,0,1.8-1.5l2.3,2.6a10.43,10.43,0,0,1-1,1.2,5.62,5.62,0,0,1-1.5,1,14.43,14.43,0,0,1-1.9.7A25,25,0,0,1,387.6,167.6Zm-.5-14.3a2.79,2.79,0,0,0-1.3.3,3.47,3.47,0,0,0-1,.7,4.11,4.11,0,0,0-.7,1.1,8.74,8.74,0,0,0-.4,1.5h6.5v-.4a5.68,5.68,0,0,0-.2-1.3,2.11,2.11,0,0,0-.6-1,3.47,3.47,0,0,0-1-.7A5.68,5.68,0,0,0,387.1,153.3Z"/><path class="cls-1" d="M410.8,159v8.3H406V143.9h9.1a11.61,11.61,0,0,1,3.7.6,7.83,7.83,0,0,1,2.8,1.6,6.42,6.42,0,0,1,1.8,2.5,8.31,8.31,0,0,1,0,6.2,6.54,6.54,0,0,1-1.7,2.3,7.68,7.68,0,0,1-2.8,1.5,11.89,11.89,0,0,1-3.7.5Zm0-3.9h4.3a5.53,5.53,0,0,0,1.8-.3,2.37,2.37,0,0,0,1.2-.7,2.66,2.66,0,0,0,.7-1.1,3.5,3.5,0,0,0,.2-1.4,7.52,7.52,0,0,0-.2-1.5,2.37,2.37,0,0,0-.7-1.2,3.54,3.54,0,0,0-1.2-.9,5.53,5.53,0,0,0-1.8-.3h-4.3Z"/><path class="cls-1" d="M426.9,145.4a2.19,2.19,0,0,1,.7-1.7,2.63,2.63,0,0,1,1.9-.7,4.63,4.63,0,0,1,1.1.2,2.1,2.1,0,0,1,1.3,1.3,2.57,2.57,0,0,1,0,2,2.1,2.1,0,0,1-1.3,1.3,4.11,4.11,0,0,1-2.2,0,2.1,2.1,0,0,1-1.3-1.3A2.45,2.45,0,0,1,426.9,145.4Zm4.9,21.9h-4.7V149.9h4.7Z"/><path class="cls-1" d="M451.3,158.8a13.29,13.29,0,0,1-.4,3.5,9.05,9.05,0,0,1-1.3,2.8,5.16,5.16,0,0,1-2.1,1.8,5.87,5.87,0,0,1-2.9.7,4.87,4.87,0,0,1-2.4-.5,6,6,0,0,1-1.8-1.3V174h-4.7V149.9H440l.2,1.7a6.93,6.93,0,0,1,1.9-1.5,4.53,4.53,0,0,1,2.5-.5,7.21,7.21,0,0,1,2.9.6,5.16,5.16,0,0,1,2.1,1.8,9.05,9.05,0,0,1,1.3,2.8,11,11,0,0,1,.4,3.6Zm-4.6-.4a13.42,13.42,0,0,0-.2-2,4.37,4.37,0,0,0-.6-1.6,3.51,3.51,0,0,0-1-1.1,3,3,0,0,0-1.6-.4,4,4,0,0,0-1.9.4,2.56,2.56,0,0,0-1.1,1.2V162a3.45,3.45,0,0,0,1.1,1.3,4.08,4.08,0,0,0,1.9.5,3.2,3.2,0,0,0,1.6-.4,3.51,3.51,0,0,0,1-1.1,5.17,5.17,0,0,0,.6-1.6,13.42,13.42,0,0,0,.2-2Z"/><path class="cls-1" d="M462.3,167.6a8.89,8.89,0,0,1-3.6-.7,8,8,0,0,1-2.7-1.8,9.4,9.4,0,0,1-1.7-2.7,9.54,9.54,0,0,1-.6-3.3v-.6a11,11,0,0,1,.6-3.6,9.51,9.51,0,0,1,1.6-2.8,8.27,8.27,0,0,1,2.6-1.9,8.65,8.65,0,0,1,6.7,0,7.94,7.94,0,0,1,2.4,1.7,7.19,7.19,0,0,1,1.5,2.7,13.39,13.39,0,0,1,.5,3.5v2H458.5a4.74,4.74,0,0,0,.5,1.6,4.6,4.6,0,0,0,.9,1.2,6,6,0,0,0,1.3.8,4.37,4.37,0,0,0,1.6.3,6.82,6.82,0,0,0,2.4-.5,5.46,5.46,0,0,0,1.9-1.5l2.3,2.6a10.43,10.43,0,0,1-1,1.2,5.62,5.62,0,0,1-1.5,1,14.43,14.43,0,0,1-1.9.7C463.9,167.6,463.1,167.6,462.3,167.6Zm-.6-14.3a2.79,2.79,0,0,0-1.3.3,3.47,3.47,0,0,0-1,.7,4.11,4.11,0,0,0-.7,1.1,8.74,8.74,0,0,0-.4,1.5h6.5v-.4a5.68,5.68,0,0,0-.2-1.3,2.11,2.11,0,0,0-.6-1,3.47,3.47,0,0,0-1-.7,5.18,5.18,0,0,0-1.3-.2Z"/><path class="cls-1" d="M477,167.3h-4.7V142.6H477Z"/><path class="cls-1" d="M480.8,145.4a2.19,2.19,0,0,1,.7-1.7,2.63,2.63,0,0,1,1.9-.7,4.63,4.63,0,0,1,1.1.2,2.1,2.1,0,0,1,1.3,1.3,2.57,2.57,0,0,1,0,2,2.1,2.1,0,0,1-1.3,1.3,4.11,4.11,0,0,1-2.2,0,2.1,2.1,0,0,1-1.3-1.3A2.45,2.45,0,0,1,480.8,145.4Zm4.9,21.9H481V149.9h4.7Z"/><path class="cls-1" d="M493.9,149.9l.1,2a6.19,6.19,0,0,1,2.2-1.7,7.11,7.11,0,0,1,2.8-.6,5.81,5.81,0,0,1,2.3.4,3.34,3.34,0,0,1,1.7,1.1,5.3,5.3,0,0,1,1.1,2.1,11.18,11.18,0,0,1,.4,3.1v11.1h-4.7V156.3a6.66,6.66,0,0,0-.2-1.4,4.4,4.4,0,0,0-.5-.9,1.87,1.87,0,0,0-.9-.5,4.83,4.83,0,0,0-1.2-.1,4,4,0,0,0-1.8.4A3.45,3.45,0,0,0,494,155v12.3h-4.7V149.9Z"/><path class="cls-1" d="M516.1,167.6a8.89,8.89,0,0,1-3.6-.7,8,8,0,0,1-2.7-1.8,9.4,9.4,0,0,1-1.7-2.7,9.54,9.54,0,0,1-.6-3.3v-.6a11,11,0,0,1,.6-3.6,9.51,9.51,0,0,1,1.6-2.8,8.27,8.27,0,0,1,2.6-1.9,8.65,8.65,0,0,1,6.7,0,7,7,0,0,1,2.4,1.7,7.19,7.19,0,0,1,1.5,2.7,13.39,13.39,0,0,1,.5,3.5v2H512.3a4.74,4.74,0,0,0,.5,1.6,4.6,4.6,0,0,0,.9,1.2,6,6,0,0,0,1.3.8,4.37,4.37,0,0,0,1.6.3,5.91,5.91,0,0,0,2.3-.5,5.23,5.23,0,0,0,1.8-1.5l2.3,2.6a10.43,10.43,0,0,1-1,1.2,5.62,5.62,0,0,1-1.5,1,14.43,14.43,0,0,1-1.9.7A23.22,23.22,0,0,1,516.1,167.6Zm-.6-14.3a2.79,2.79,0,0,0-1.3.3,3.47,3.47,0,0,0-1,.7,4.11,4.11,0,0,0-.7,1.1,8.74,8.74,0,0,0-.4,1.5h6.5v-.4a5.68,5.68,0,0,0-.2-1.3,2.11,2.11,0,0,0-.6-1,3.47,3.47,0,0,0-1-.7A4.41,4.41,0,0,0,515.5,153.3Z"/></g></g><g class="cls-2"><path class="cls-3" d="M25.49,29.63a6.78,6.78,0,0,0,2.68,5.92,10.77,10.77,0,0,0,5.91,2h.37a10.8,10.8,0,0,0,5.28-1.32,5,5,0,0,0,2.77-3.81,1.29,1.29,0,0,0,0-.33v-.34a4.17,4.17,0,0,0-2.63-4.25,31.08,31.08,0,0,0-6-1.78l-.77-.16q-.36-.06-.72-.15a25.53,25.53,0,0,1-7.27-2.7C23,21.52,22,19.08,22.29,15.46a8.65,8.65,0,0,1,3.2-6C27.44,7.79,30.27,7,34,7s6.69.85,8.93,2.56A8.08,8.08,0,0,1,46,16.85H41.78v-.49a4.77,4.77,0,0,0-2.36-4.28,10.33,10.33,0,0,0-5.2-1.58H34a9.5,9.5,0,0,0-5,1.38,5,5,0,0,0-2.41,4.29,4.12,4.12,0,0,0,2.73,3.36,33.34,33.34,0,0,0,5.47,1.64l1.12.27,1.17.27a26,26,0,0,1,6.77,2.59q3.13,1.72,3.67,6.05a8.65,8.65,0,0,1-3.87,8.15,16.78,16.78,0,0,1-9.18,2.88h-.13a15.57,15.57,0,0,1-9.07-2.86q-4.12-2.87-4-8.89Z"/><path class="cls-3" d="M52.76,20.41h-3.2V16.49h3.2V10.14h3.87v6.35h3.91v3.92H56.63V35.3a3,3,0,0,0,.67,1.84,1.64,1.64,0,0,0,1.17.45,4,4,0,0,0,.48,0,3.27,3.27,0,0,0,.51-.07l.54-.06a4.87,4.87,0,0,1,.54,0V41l-1.41.11a12.5,12.5,0,0,1-1.33.07,6.51,6.51,0,0,1-3.51-.83,3.7,3.7,0,0,1-1.53-2.9Z"/><path class="cls-3" d="M65.07,29.52c.94-1.31,3.09-2.21,6.45-2.73q6-.49,7-1.23a3.18,3.18,0,0,0,.85-2.77v-.95a.61.61,0,0,0,0-.24,1.28,1.28,0,0,0-.14-.25,4.57,4.57,0,0,0-2-1.28,10,10,0,0,0-3.24-.7h-.5a6.7,6.7,0,0,0-3.48.92,3.53,3.53,0,0,0-1.56,3.31H64.82v-.31a.41.41,0,0,1,0-.16V23a2.53,2.53,0,0,1,0-.38c0-.14,0-.28,0-.43a7.12,7.12,0,0,1,2.36-4.37c1.4-1.31,3.56-2,6.5-2,.48,0,1,0,1.49.06a11.61,11.61,0,0,1,1.53.25,14.15,14.15,0,0,1,4.48,1.73,3.72,3.72,0,0,1,2,3.27V35.66a2.79,2.79,0,0,0,.43,1.55,1.57,1.57,0,0,0,1.42.66l.29,0,.34-.06v2.83L83.22,41l-.38.07-.38,0a2.26,2.26,0,0,1-1.67-.63,4.92,4.92,0,0,1-1-1.39,4.34,4.34,0,0,1-.27-.68c-.06-.21-.12-.4-.18-.58a16.31,16.31,0,0,1-4.41,2.63A11.38,11.38,0,0,1,71,41.2a7.41,7.41,0,0,1-5.45-2.07,6.88,6.88,0,0,1-2.2-4.55v-.72A8.94,8.94,0,0,1,65.07,29.52Zm12.62-.32a20.54,20.54,0,0,1-2.16.34l-1,.16-1.08.11a14.22,14.22,0,0,0-4,1.24,3.21,3.21,0,0,0-1.8,3.17,4,4,0,0,0,1.6,2.63,4.73,4.73,0,0,0,2.68.79l.65,0a2.77,2.77,0,0,0,.65-.12A8.68,8.68,0,0,0,76.86,36a4.71,4.71,0,0,0,2-2.48.51.51,0,0,0,.07-.17.58.58,0,0,0,0-.19V28.55A2.18,2.18,0,0,1,77.69,29.2Z"/><path class="cls-3" d="M90.33,20.41H87.14V16.49h3.19V10.14H94.2v6.35h3.92v3.92H94.2V35.3a3,3,0,0,0,.68,1.84,1.64,1.64,0,0,0,1.17.45,3.77,3.77,0,0,0,.47,0A3.24,3.24,0,0,0,97,37.5l.54-.06a4.87,4.87,0,0,1,.54,0V41l-1.42.11a12.36,12.36,0,0,1-1.33.07,6.51,6.51,0,0,1-3.51-.83,3.7,3.7,0,0,1-1.53-2.9Z"/><path class="cls-3" d="M104.06,19.21q2.56-3.39,7.87-3.39,5.49,0,7.7,3.21a16.39,16.39,0,0,1,2.74,7c.09.66.15,1.32.18,2s0,1.31,0,1.94H105.23q.13,4.05,2,5.85a5.6,5.6,0,0,0,4,1.8h.41a7.38,7.38,0,0,0,3.76-1.39A7.22,7.22,0,0,0,118,32.83h3.92a7.56,7.56,0,0,1-3,5.75,12.43,12.43,0,0,1-7,2.34c-3.42-.12-5.94-1.05-7.56-2.81a12.2,12.2,0,0,1-3.1-5.78,12.36,12.36,0,0,1-.34-2.14,13.25,13.25,0,0,1,0-2A17.44,17.44,0,0,1,104.06,19.21Zm14.26,7.22A8.39,8.39,0,0,0,116.21,21a5.64,5.64,0,0,0-4.1-1.87h-.36a6.3,6.3,0,0,0-4,2,9.56,9.56,0,0,0-2.52,5.37Z"/><path class="cls-3" d="M141,7.31h4.28V40.25H141Z"/><path class="cls-3" d="M152.39,16.49h3.87v3.19a4.59,4.59,0,0,1,2.65-2.6,11.64,11.64,0,0,1,4.86-1.22h.45a8.16,8.16,0,0,1,5,1.53q2.21,1.58,1.93,5.49V40.25h-3.87V23.6a3.64,3.64,0,0,0-1.3-3.08,4.77,4.77,0,0,0-3-1l-.56,0c-.2,0-.38,0-.56.06A7.25,7.25,0,0,0,158,21.8a6.89,6.89,0,0,0-1.73,5V40.25h-3.87Z"/><path class="cls-3" d="M178.26,19.68h-3.19V16.17h3.19V13q.23-3.6,1.76-4.93a5.51,5.51,0,0,1,3.73-1.33,10.92,10.92,0,0,1,1.15.07l1.15.16v3.19h-.36a1.47,1.47,0,0,1-.36,0h-.59a3.06,3.06,0,0,0-1.66.38c-.51.29-.83,1-1,2.14v3.55h3.92v3.51h-3.92V40.25h-3.87Z"/><path class="cls-3" d="M190,16.49h3.87v3.19c.12-.14.23-.29.34-.44a3.54,3.54,0,0,1,.34-.45,8.69,8.69,0,0,1,2.56-2.34,7.25,7.25,0,0,1,4.23-.63V20a8.26,8.26,0,0,0-5.58,1.65c-1.26,1.09-1.89,2.8-1.89,5.1V40.25H190Z"/><path class="cls-3" d="M205.1,29.52c1-1.31,3.1-2.21,6.46-2.73q6-.49,7-1.23a3.18,3.18,0,0,0,.86-2.77v-.95a.6.6,0,0,0,0-.24,1.2,1.2,0,0,0-.13-.25,4.62,4.62,0,0,0-2-1.28,10,10,0,0,0-3.24-.7h-.49a6.76,6.76,0,0,0-3.49.92,3.54,3.54,0,0,0-1.55,3.31h-3.56v-.31a.37.37,0,0,1,0-.16V23c0-.12,0-.25,0-.38a3,3,0,0,0,0-.43,7.09,7.09,0,0,1,2.37-4.37q2.09-2,6.5-2c.48,0,1,0,1.48.06a11.61,11.61,0,0,1,1.53.25,14.06,14.06,0,0,1,4.48,1.73,3.72,3.72,0,0,1,2,3.27V35.66a2.71,2.71,0,0,0,.43,1.55,1.54,1.54,0,0,0,1.41.66l.3,0,.33-.06v2.83l-2.47.36-.38.07-.39,0a2.24,2.24,0,0,1-1.66-.63,4.92,4.92,0,0,1-1-1.39,4.34,4.34,0,0,1-.27-.68c-.06-.21-.12-.4-.18-.58A16.31,16.31,0,0,1,215,40.41a11.43,11.43,0,0,1-3.92.79,7.39,7.39,0,0,1-5.44-2.07,6.9,6.9,0,0,1-2.21-4.55v-.72A9,9,0,0,1,205.1,29.52Zm12.62-.32a20.54,20.54,0,0,1-2.16.34l-1,.16-1.08.11a14.22,14.22,0,0,0-4,1.24,3.21,3.21,0,0,0-1.8,3.17,4,4,0,0,0,1.6,2.63,4.68,4.68,0,0,0,2.67.79l.66,0a2.87,2.87,0,0,0,.65-.12A8.59,8.59,0,0,0,216.89,36a4.69,4.69,0,0,0,2.05-2.48.87.87,0,0,0,.07-.17,1.11,1.11,0,0,0,0-.19V28.55A2.21,2.21,0,0,1,217.72,29.2Z"/><path class="cls-3" d="M229.83,33.18h2.29a4.91,4.91,0,0,0,2,3.87A7,7,0,0,0,238,38.27h.14a7.7,7.7,0,0,0,3.94-1,3.06,3.06,0,0,0,1.77-2.66,2.49,2.49,0,0,0-1.62-2.66,24.15,24.15,0,0,0-4.14-1.3l-.83-.18c-.28-.06-.58-.14-.88-.23A18,18,0,0,1,231,28.1q-2.39-1.44-2.11-5.22A6.75,6.75,0,0,1,231,18.31c1.22-1.09,3.23-1.8,6-2.14.51,0,1.05,0,1.62,0s1.16.09,1.76.18a9.13,9.13,0,0,1,4.14,1.8q1.89,1.44,2.07,5h-3.92a3.84,3.84,0,0,0-1.68-2.83,5.59,5.59,0,0,0-3-.86h-.49a7.78,7.78,0,0,0-3.49,1.1,2.73,2.73,0,0,0-1.6,2.23,2.41,2.41,0,0,0,1.62,2.57,24.67,24.67,0,0,0,4.19,1.34l.9.21.9.2a21.25,21.25,0,0,1,5.26,2.05,4.82,4.82,0,0,1,2.39,4.61v1a6.76,6.76,0,0,1-2.61,4.48q-2.38,2-7,2.27h-.22a.39.39,0,0,0-.14-.05h-.13c-.51,0-1-.07-1.62-.13a16.87,16.87,0,0,1-1.71-.27A9.59,9.59,0,0,1,230.12,39c-1.27-1.08-1.91-3-1.91-5.86Z"/><path class="cls-3" d="M253.05,20.41h-3.2V16.49h3.2V10.14h3.87v6.35h3.91v3.92h-3.91V35.3a3,3,0,0,0,.67,1.84,1.64,1.64,0,0,0,1.17.45,4,4,0,0,0,.48,0,3.27,3.27,0,0,0,.51-.07l.54-.06a4.87,4.87,0,0,1,.54,0V41l-1.41.11a12.5,12.5,0,0,1-1.33.07,6.51,6.51,0,0,1-3.51-.83,3.7,3.7,0,0,1-1.53-2.9Z"/><path class="cls-3" d="M265.11,16.49H269v3.19c.12-.14.23-.29.34-.44a4.71,4.71,0,0,1,.33-.45,8.85,8.85,0,0,1,2.57-2.34,7.25,7.25,0,0,1,4.23-.63V20a8.26,8.26,0,0,0-5.58,1.65c-1.26,1.09-1.89,2.8-1.89,5.1V40.25h-3.87Z"/><path class="cls-3" d="M280,16.49h3.87v17A4.52,4.52,0,0,0,285,36.94a3.9,3.9,0,0,0,2.79,1.1,5.06,5.06,0,0,0,.79-.06l.79-.16a8,8,0,0,0,3.78-2.48,6.69,6.69,0,0,0,1.71-4.67V16.49h3.87V40.25H294.9V37.78A11,11,0,0,1,292,40a11.7,11.7,0,0,1-3.29,1.17l-1,.16a7.77,7.77,0,0,1-1,.07A7.21,7.21,0,0,1,282,39.67q-2-1.71-2-5.45Z"/><path class="cls-3" d="M306.84,18.85a10.48,10.48,0,0,1,7.18-3,12.48,12.48,0,0,1,1.76.13,10.64,10.64,0,0,1,2,.5,9.37,9.37,0,0,1,3.71,2.6,9.49,9.49,0,0,1,2.09,5.63h-3.87a5.59,5.59,0,0,0-1.84-3.82,5.21,5.21,0,0,0-3.38-1.27l-.47,0c-.17,0-.32,0-.47.06a7.33,7.33,0,0,0-4.41,2.82q-2,2.4-1.85,6.77c.09,3,.77,5.18,2.05,6.52a5.84,5.84,0,0,0,4.16,2.08h.14a6.15,6.15,0,0,0,4.09-1.58,5.63,5.63,0,0,0,2-4.18h3.87a8.63,8.63,0,0,1-2.81,6.75,11.14,11.14,0,0,1-7.09,2.74l-1-.09a6.76,6.76,0,0,1-1.08-.18,10.64,10.64,0,0,1-6-3.65c-1.78-2-2.52-5.76-2.22-11.25A14,14,0,0,1,306.84,18.85Z"/><path class="cls-3" d="M328.2,20.41H325V16.49h3.2V10.14h3.87v6.35H336v3.92h-3.91V35.3a3,3,0,0,0,.67,1.84,1.64,1.64,0,0,0,1.17.45,4,4,0,0,0,.48,0,3.27,3.27,0,0,0,.51-.07l.54-.06a4.87,4.87,0,0,1,.54,0V41l-1.41.11a12.5,12.5,0,0,1-1.33.07,6.51,6.51,0,0,1-3.51-.83,3.7,3.7,0,0,1-1.53-2.9Z"/><path class="cls-3" d="M340.26,16.49h3.87v17a4.52,4.52,0,0,0,1.17,3.44,3.9,3.9,0,0,0,2.79,1.1,5.16,5.16,0,0,0,.79-.06l.78-.16a8,8,0,0,0,3.78-2.48,6.69,6.69,0,0,0,1.71-4.67V16.49H359V40.25h-3.87V37.78a11,11,0,0,1-2.88,2.2A11.64,11.64,0,0,1,349,41.15l-1,.16a7.63,7.63,0,0,1-1,.07,7.21,7.21,0,0,1-4.77-1.71q-2-1.71-2-5.45Z"/><path class="cls-3" d="M365.41,16.49h3.87v3.19c.12-.14.23-.29.34-.44a4.83,4.83,0,0,1,.34-.45,8.81,8.81,0,0,1,2.56-2.34,7.25,7.25,0,0,1,4.23-.63V20a8.26,8.26,0,0,0-5.58,1.65c-1.26,1.09-1.89,2.8-1.89,5.1V40.25h-3.87Z"/><path class="cls-3" d="M382,19.21q2.56-3.39,7.88-3.39,5.49,0,7.69,3.21a16.4,16.4,0,0,1,2.75,7c.09.66.15,1.32.18,2s0,1.31,0,1.94H383.14q.14,4.05,2,5.85a5.62,5.62,0,0,0,4,1.8h.4a7.38,7.38,0,0,0,3.76-1.39,7.24,7.24,0,0,0,2.59-3.42h3.91a7.56,7.56,0,0,1-3,5.75,12.4,12.4,0,0,1-7,2.34c-3.42-.12-5.94-1.05-7.56-2.81a12.22,12.22,0,0,1-3.11-5.78,12.36,12.36,0,0,1-.34-2.14,13.21,13.21,0,0,1,0-2A17.44,17.44,0,0,1,382,19.21Zm14.27,7.22A8.4,8.4,0,0,0,394.12,21,5.62,5.62,0,0,0,390,19.1h-.36a6.32,6.32,0,0,0-4,2,9.56,9.56,0,0,0-2.52,5.37Z"/><path class="cls-3" d="M418.6,7.31h15.21a8.3,8.3,0,0,1,6,2.43,8.52,8.52,0,0,1,2.53,6.43,2.23,2.23,0,0,1,0,.34v.38a10.09,10.09,0,0,1-.16,1.72,10.24,10.24,0,0,1-3.06,5.73,6.79,6.79,0,0,1-5,1.74H422.83V40.25H418.6Zm4.23,15.21h11a2.7,2.7,0,0,0,.77-.34,6.38,6.38,0,0,0,1.35-1,7,7,0,0,0,1.59-2,5,5,0,0,0,.56-3,5.44,5.44,0,0,0-1.57-3.37,4.72,4.72,0,0,0-3.42-1.26H422.83Z"/><path class="cls-3" d="M447.63,7.31h3.91V40.25h-3.91Z"/><path class="cls-3" d="M458.13,29.52c.95-1.31,3.1-2.21,6.46-2.73q6-.49,7-1.23a3.18,3.18,0,0,0,.86-2.77v-.95a.6.6,0,0,0-.05-.24,1.2,1.2,0,0,0-.13-.25,4.62,4.62,0,0,0-2-1.28,10,10,0,0,0-3.24-.7h-.49a6.76,6.76,0,0,0-3.49.92,3.54,3.54,0,0,0-1.55,3.31h-3.56v-.31a.37.37,0,0,1,0-.16V23c0-.12,0-.25,0-.38a3,3,0,0,0,0-.43,7.09,7.09,0,0,1,2.37-4.37q2.08-2,6.5-2c.48,0,1,0,1.48.06a11.61,11.61,0,0,1,1.53.25,14.06,14.06,0,0,1,4.48,1.73,3.72,3.72,0,0,1,2.05,3.27V35.66a2.71,2.71,0,0,0,.43,1.55,1.54,1.54,0,0,0,1.41.66l.3,0,.33-.06v2.83l-2.47.36-.38.07-.39,0a2.24,2.24,0,0,1-1.66-.63,4.92,4.92,0,0,1-1-1.39,4.34,4.34,0,0,1-.27-.68c-.06-.21-.12-.4-.18-.58A16.31,16.31,0,0,1,468,40.41a11.43,11.43,0,0,1-3.92.79,7.39,7.39,0,0,1-5.44-2.07,6.9,6.9,0,0,1-2.21-4.55v-.72A9,9,0,0,1,458.13,29.52Zm12.62-.32a20.54,20.54,0,0,1-2.16.34l-1,.16-1.08.11a14.22,14.22,0,0,0-4,1.24,3.21,3.21,0,0,0-1.8,3.17,4,4,0,0,0,1.6,2.63,4.68,4.68,0,0,0,2.67.79l.66,0a2.87,2.87,0,0,0,.65-.12A8.59,8.59,0,0,0,469.92,36,4.69,4.69,0,0,0,472,33.54a.87.87,0,0,0,.07-.17,1.11,1.11,0,0,0,0-.19V28.55A2.21,2.21,0,0,1,470.75,29.2Z"/><path class="cls-3" d="M483,16.49h3.87v3.19a4.59,4.59,0,0,1,2.65-2.6,11.64,11.64,0,0,1,4.86-1.22h.45a8.16,8.16,0,0,1,5,1.53q2.2,1.58,1.93,5.49V40.25h-3.87V23.6a3.64,3.64,0,0,0-1.3-3.08,4.77,4.77,0,0,0-3-1l-.56,0c-.19,0-.38,0-.56.06a7.28,7.28,0,0,0-3.85,2.21,6.93,6.93,0,0,0-1.73,5V40.25H483Z"/></g></svg>