<svg xmlns="http://www.w3.org/2000/svg" viewBox="0 0 517.09 228.79"><defs>
	<style>
		.cls-1{font-size:22.65px;fill:#6a0032;}
		.cls-1,.cls-4{font-family:Meta;font-weight:700;src:url(../fonts/meta-normal.ttf)}
		.cls-2{letter-spacing:-0.01em;}.cls-3{letter-spacing:0em;}
		.cls-4{font-size:33px;fill:#009887;}
		.cls-5{letter-spacing:-0.01em;}
		.cls-6{font-size:12px;fill:#58595b;font-family:Meta;src:url(../fonts/meta-normal.ttf)}
		.cls-7{letter-spacing:-0.02em;}
		.cls-8{letter-spacing:-0.01em;}
		.cls-9{letter-spacing:-0.01em;}
		.cls-10{letter-spacing:-0.01em;}
	</style></defs><title>Asset 1</title><g id="Layer_2" data-name="Layer 2"><g id="Layer_1-2" data-name="Layer 1"><text class="cls-1" transform="translate(133.22 19.37)">State Inf<tspan class="cls-2" x="86.65" y="0">r</tspan><tspan class="cls-3" x="94.57" y="0">astructure Plan</tspan></text><text class="cls-4" transform="translate(56.32 63.38)">Welcome <tspan class="cls-5" x="145.94" y="0">t</tspan><tspan x="156.6" y="0">o the inte</tspan><tspan class="cls-5" x="295.37" y="0">r</tspan><tspan x="306.93" y="0">active </tspan><tspan x="-56.32" y="36">Queensland Inf</tspan><tspan class="cls-5" x="167.72" y="36">r</tspan><tspan x="179.28" y="36">astructure Pipeline</tspan></text><text class="cls-6" transform="translate(131.58 165.54)">The Queensland Inf<tspan class="cls-7" x="101.7" y="0">r</tspan><tspan x="105.5" y="0">astructure Pipeline has been </tspan><tspan x="9.15" y="14.4">d</tspan><tspan class="cls-8" x="15.81" y="14.4">e</tspan><tspan x="21.94" y="14.4">veloped </tspan><tspan class="cls-9" x="65.75" y="14.4">t</tspan><tspan x="69.49" y="14.4">o illust</tspan><tspan class="cls-7" x="103.72" y="14.4">r</tspan><tspan x="107.53" y="14.4">ate how p</tspan><tspan class="cls-9" x="158.85" y="14.4">r</tspan><tspan x="162.77" y="14.4">oposals mature </tspan><tspan x="2.07" y="28.8">f</tspan><tspan class="cls-9" x="6.05" y="28.8">r</tspan><tspan x="9.97" y="28.8">om a concept </tspan><tspan class="cls-9" x="84.88" y="28.8">t</tspan><tspan x="88.62" y="28.8">o a funded g</tspan><tspan class="cls-10" x="153.87" y="28.8">o</tspan><tspan x="160.51" y="28.8">vernment p</tspan><tspan class="cls-9" x="219.96" y="28.8">r</tspan><tspan x="223.88" y="28.8">oject, </tspan><tspan x="22.15" y="43.2">by m</tspan><tspan class="cls-10" x="48.06" y="43.2">o</tspan><tspan x="54.69" y="43.2">ving th</tspan><tspan class="cls-9" x="89.76" y="43.2">r</tspan><tspan x="93.68" y="43.2">ough </tspan><tspan class="cls-10" x="123.15" y="43.2">v</tspan><tspan x="128.83" y="43.2">arious planning and </tspan><tspan x="52.47" y="57.6">investment decision phases.</tspan></text></g></g></svg>