<svg id="Layer_1" data-name="Layer 1" xmlns="http://www.w3.org/2000/svg" viewBox="0 0 132.62 33.38" width="132.62" height="33.38"><defs><style>.cls-1{fill:#00a59a;}.cls-2{fill:#d1eaf0;}.cls-3{fill:#395049;}</style></defs><title>Tag_asset</title><rect class="cls-1" width="132.62" height="30.33" rx="6" ry="6"/><rect class="cls-2" y="3.67" width="132.62" height="29.71" rx="6" ry="6"/><path class="cls-3" d="M24,19.7l-1,3H21.72l3.21-9.44H26.4l3.22,9.44h-1.3l-1-3Zm3.1-1L26.14,16c-.21-.62-.35-1.18-.49-1.72h0c-.14.56-.29,1.13-.48,1.71l-.92,2.73Z"/><path class="cls-3" d="M30.84,21.18A4.32,4.32,0,0,0,33,21.8c1.25,0,2-.66,2-1.61s-.5-1.39-1.78-1.88c-1.54-.55-2.49-1.34-2.49-2.68s1.22-2.56,3.05-2.56a4.29,4.29,0,0,1,2.09.46l-.34,1a3.76,3.76,0,0,0-1.79-.45c-1.29,0-1.78.77-1.78,1.42,0,.88.57,1.32,1.88,1.82,1.6.62,2.41,1.39,2.41,2.77s-1.08,2.72-3.31,2.72a4.88,4.88,0,0,1-2.41-.6Z"/><path class="cls-3" d="M37.74,21.18a4.32,4.32,0,0,0,2.19.62c1.25,0,2-.66,2-1.61s-.5-1.39-1.78-1.88c-1.54-.55-2.49-1.34-2.49-2.68s1.22-2.56,3.05-2.56a4.29,4.29,0,0,1,2.09.46l-.34,1a3.76,3.76,0,0,0-1.79-.45c-1.29,0-1.78.77-1.78,1.42,0,.88.57,1.32,1.88,1.82,1.6.62,2.41,1.39,2.41,2.77s-1.08,2.72-3.31,2.72a4.88,4.88,0,0,1-2.41-.6Z"/><path class="cls-3" d="M49.7,18.24H46v3.4h4.09v1H44.81V13.22h5.1v1H46v3H49.7Z"/><path class="cls-3" d="M53.72,14.26H50.84v-1h7v1H54.95v8.4H53.72Z"/><path class="cls-3" d="M68.45,22.36a6,6,0,0,1-2.49.45A4.41,4.41,0,0,1,61.29,18a4.7,4.7,0,0,1,4.93-5,5.06,5.06,0,0,1,2.24.42l-.29,1a4.44,4.44,0,0,0-1.91-.39c-2.21,0-3.68,1.41-3.68,3.89,0,2.31,1.33,3.8,3.63,3.8a4.88,4.88,0,0,0,2-.39Z"/><path class="cls-3" d="M70,13.22h1.22v8.42h4v1H70Z"/><path class="cls-3" d="M78.1,19.7l-1,3H75.86l3.21-9.44h1.47l3.22,9.44h-1.3l-1-3Zm3.1-1L80.27,16c-.21-.62-.35-1.18-.49-1.72h0c-.14.56-.29,1.13-.48,1.71l-.92,2.73Z"/><path class="cls-3" d="M85,21.18a4.32,4.32,0,0,0,2.19.62c1.25,0,2-.66,2-1.61s-.5-1.39-1.78-1.88c-1.54-.55-2.49-1.34-2.49-2.68s1.22-2.56,3.05-2.56a4.29,4.29,0,0,1,2.09.46l-.34,1a3.76,3.76,0,0,0-1.79-.45c-1.29,0-1.78.77-1.78,1.42,0,.88.57,1.32,1.88,1.82,1.6.62,2.41,1.39,2.41,2.77s-1.08,2.72-3.31,2.72a4.89,4.89,0,0,1-2.41-.6Z"/><path class="cls-3" d="M91.88,21.18a4.32,4.32,0,0,0,2.19.62c1.25,0,2-.66,2-1.61s-.5-1.39-1.78-1.88c-1.54-.55-2.49-1.34-2.49-2.68s1.22-2.56,3.05-2.56a4.29,4.29,0,0,1,2.09.46l-.34,1a3.76,3.76,0,0,0-1.79-.45c-1.29,0-1.78.77-1.78,1.42,0,.88.57,1.32,1.88,1.82,1.6.62,2.41,1.39,2.41,2.77S96.21,22.81,94,22.81a4.89,4.89,0,0,1-2.41-.6Z"/><path class="cls-3" d="M103.84,18.24h-3.67v3.4h4.09v1H98.95V13.22H104v1h-3.88v3h3.67Z"/><path class="cls-3" d="M105.67,21.18a4.32,4.32,0,0,0,2.19.62c1.25,0,2-.66,2-1.61s-.5-1.39-1.78-1.88c-1.54-.55-2.49-1.34-2.49-2.68s1.22-2.56,3.05-2.56a4.29,4.29,0,0,1,2.09.46l-.34,1a3.76,3.76,0,0,0-1.79-.45c-1.29,0-1.78.77-1.78,1.42,0,.88.58,1.32,1.88,1.82,1.6.62,2.41,1.39,2.41,2.77s-1.08,2.72-3.31,2.72a4.89,4.89,0,0,1-2.41-.6Z"/></svg>