<svg id="Layer_1" data-name="Layer 1" xmlns="http://www.w3.org/2000/svg" viewBox="0 0 92.83 34" width="92.83" height="34"><defs><style>.cls-1{fill:#00877d;}.cls-2{fill:#0c5b52;}.cls-3{fill:#fff;}</style></defs><title>Tag_planning</title><rect class="cls-1" width="92.83" height="30.33" rx="6" ry="6"/><rect class="cls-2" y="3.67" width="92.83" height="30.33" rx="6" ry="6"/><path class="cls-3" d="M17.65,13.17A14.18,14.18,0,0,1,20,13a3.88,3.88,0,0,1,2.65.78,2.54,2.54,0,0,1,.83,2,2.78,2.78,0,0,1-.73,2,3.91,3.91,0,0,1-2.89,1,4.18,4.18,0,0,1-1-.08V22.5H17.65Zm1.22,4.55a4.13,4.13,0,0,0,1,.1c1.47,0,2.37-.71,2.37-2S21.36,14,20,14a5.07,5.07,0,0,0-1.15.1Z"/><path class="cls-3" d="M25.1,13.06h1.22v8.42h4v1H25.1Z"/><path class="cls-3" d="M33.23,19.53l-1,3H31l3.21-9.44h1.47l3.22,9.44h-1.3l-1-3Zm3.1-1-.92-2.72c-.21-.62-.35-1.18-.49-1.72h0c-.14.56-.29,1.13-.48,1.71l-.92,2.73Z"/><path class="cls-3" d="M40.27,22.5V13.06H41.6l3,4.78a26.71,26.71,0,0,1,1.69,3.07h0c-.11-1.26-.14-2.41-.14-3.88v-4h1.15V22.5H46.13l-3-4.79a29.89,29.89,0,0,1-1.76-3.15h0c.07,1.19.1,2.33.1,3.89v4Z"/><path class="cls-3" d="M49.48,22.5V13.06h1.33l3,4.78a26.72,26.72,0,0,1,1.7,3.07h0c-.11-1.26-.14-2.41-.14-3.88v-4h1.15V22.5H55.34l-3-4.79a30,30,0,0,1-1.76-3.15h0c.07,1.19.1,2.33.1,3.89v4Z"/><path class="cls-3" d="M59.91,13.06V22.5H58.69V13.06Z"/><path class="cls-3" d="M62,22.5V13.06h1.33l3,4.78a26.72,26.72,0,0,1,1.7,3.07h0C68,19.63,68,18.48,68,17v-4h1.15V22.5H67.9l-3-4.79a30,30,0,0,1-1.76-3.15h0c.07,1.19.1,2.33.1,3.89v4Z"/><path class="cls-3" d="M78.44,22.08a8.81,8.81,0,0,1-2.9.52A4.85,4.85,0,0,1,72,21.35a4.86,4.86,0,0,1-1.32-3.52A4.74,4.74,0,0,1,75.81,13a5.83,5.83,0,0,1,2.35.43l-.29,1A4.88,4.88,0,0,0,75.78,14a3.53,3.53,0,0,0-3.8,3.8,3.46,3.46,0,0,0,3.64,3.81,4,4,0,0,0,1.63-.25V18.52H75.33v-1h3.11Z"/></svg>