<svg id="Layer_1" data-name="Layer 1" xmlns="http://www.w3.org/2000/svg" viewBox="0 0 101.71 47" width="101.71" height="47"><defs><style>.cls-1{fill:#00877d;}.cls-2{fill:#0c5b52;}.cls-3{fill:#fff;}</style></defs><title>Tag_invest</title><rect class="cls-1" width="101.71" height="43.58" rx="6" ry="6"/><rect class="cls-2" y="3.79" width="101.71" height="43.21" rx="6" ry="6"/><path class="cls-3" d="M17.9,14.35v9.44H16.68V14.35Z"/><path class="cls-3" d="M20,23.79V14.35h1.33l3,4.78a26.7,26.7,0,0,1,1.69,3.07h0C26,20.92,26,19.77,26,18.3v-4h1.15v9.44H25.88l-3-4.79a29.8,29.8,0,0,1-1.76-3.15h0c.07,1.19.1,2.33.1,3.89v4Z"/><path class="cls-3" d="M31.31,23.79l-3.08-9.44h1.32L31,19c.41,1.28.76,2.42,1,3.53h0c.27-1.09.66-2.28,1.08-3.52l1.6-4.67H36l-3.38,9.44Z"/><path class="cls-3" d="M41.94,19.36H38.27v3.4h4.09v1H37.05V14.35h5.1v1H38.27v3h3.67Z"/><path class="cls-3" d="M43.77,22.31a4.32,4.32,0,0,0,2.19.62c1.25,0,2-.66,2-1.61s-.5-1.39-1.78-1.88c-1.54-.55-2.49-1.34-2.49-2.68s1.22-2.56,3.05-2.56a4.29,4.29,0,0,1,2.09.46l-.34,1a3.76,3.76,0,0,0-1.79-.45c-1.29,0-1.78.77-1.78,1.42,0,.88.57,1.32,1.88,1.82,1.6.62,2.41,1.39,2.41,2.77s-1.08,2.72-3.31,2.72a4.88,4.88,0,0,1-2.41-.6Z"/><path class="cls-3" d="M52.64,15.39H49.76v-1h7v1H53.87v8.4H52.64Z"/><path class="cls-3" d="M65.76,19.64c-.07-1.32-.15-2.9-.14-4.08h0c-.32,1.11-.71,2.28-1.19,3.59l-1.67,4.58h-.92l-1.53-4.5c-.45-1.33-.83-2.55-1.09-3.67h0c0,1.18-.1,2.76-.18,4.17l-.25,4H57.55l.66-9.44h1.55l1.61,4.57c.39,1.16.71,2.2,1,3.18h0c.24-1,.57-2,1-3.18L65,14.35H66.6l.59,9.44H66Z"/><path class="cls-3" d="M73.94,19.36H70.27v3.4h4.09v1H69.06V14.35h5.1v1H70.27v3h3.67Z"/><path class="cls-3" d="M75.94,23.79V14.35h1.33l3,4.78A26.7,26.7,0,0,1,82,22.19h0c-.11-1.26-.14-2.41-.14-3.88v-4H83v9.44H81.8L78.8,19A29.8,29.8,0,0,1,77,15.85h0c.07,1.19.1,2.33.1,3.89v4Z"/><path class="cls-3" d="M86.95,15.39H84.08v-1h7v1H88.18v8.4H86.95Z"/><path class="cls-3" d="M26,31.28a17.56,17.56,0,0,1,2.59-.2,5.41,5.41,0,0,1,3.82,1.18,4.35,4.35,0,0,1,1.33,3.39,5,5,0,0,1-1.36,3.67,5.82,5.82,0,0,1-4.17,1.36A19.6,19.6,0,0,1,26,40.56Zm1.22,8.35a7.61,7.61,0,0,0,1.23.07c2.61,0,4-1.46,4-4,0-2.23-1.25-3.64-3.82-3.64a7,7,0,0,0-1.43.13Z"/><path class="cls-3" d="M40.22,36.16H36.55v3.4h4.09v1H35.33V31.15h5.1v1H36.55v3h3.67Z"/><path class="cls-3" d="M48.81,40.28a6,6,0,0,1-2.49.45A4.41,4.41,0,0,1,41.66,36a4.7,4.7,0,0,1,4.93-5,5.07,5.07,0,0,1,2.24.42l-.29,1a4.44,4.44,0,0,0-1.9-.39c-2.21,0-3.68,1.41-3.68,3.89,0,2.31,1.33,3.8,3.63,3.8a4.88,4.88,0,0,0,2-.39Z"/><path class="cls-3" d="M51.56,31.15v9.44H50.34V31.15Z"/><path class="cls-3" d="M53.51,39.11a4.32,4.32,0,0,0,2.19.62c1.25,0,2-.66,2-1.61s-.5-1.39-1.78-1.88c-1.54-.55-2.49-1.34-2.49-2.68S54.62,31,56.46,31a4.29,4.29,0,0,1,2.09.46l-.34,1A3.76,3.76,0,0,0,56.41,32c-1.29,0-1.78.77-1.78,1.42,0,.88.57,1.32,1.88,1.82,1.6.62,2.41,1.39,2.41,2.77s-1.08,2.72-3.31,2.72a4.88,4.88,0,0,1-2.41-.6Z"/><path class="cls-3" d="M61.8,31.15v9.44H60.59V31.15Z"/><path class="cls-3" d="M72,35.77c0,3.25-2,5-4.38,5S63.37,38.81,63.37,36s1.86-5,4.38-5S72,33,72,35.77Zm-7.33.15c0,2,1.09,3.82,3,3.82s3-1.78,3-3.92c0-1.88-1-3.84-3-3.84S64.67,33.85,64.67,35.93Z"/><path class="cls-3" d="M73.58,40.59V31.15h1.33l3,4.78A26.7,26.7,0,0,1,79.63,39h0c-.11-1.26-.14-2.41-.14-3.88v-4h1.15v9.44H79.43l-3-4.79a29.8,29.8,0,0,1-1.76-3.15h0c.07,1.19.1,2.33.1,3.89v4Z"/></svg>