<svg id="Layer_1" data-name="Layer 1" xmlns="http://www.w3.org/2000/svg" viewBox="0 0 92.83 34" width="92.83" height="34"><defs><style>.cls-1{fill:#00877d;}.cls-2{fill:#0c5b52;}.cls-3{fill:#fff;}</style></defs><title>Tag_delivery</title><rect class="cls-1" width="92.83" height="30.33" rx="6" ry="6"/><rect class="cls-2" y="3.67" width="92.83" height="30.33" rx="6" ry="6"/><path class="cls-3" d="M19.9,13.64a17.56,17.56,0,0,1,2.59-.2,5.41,5.41,0,0,1,3.82,1.18A4.35,4.35,0,0,1,27.64,18a5,5,0,0,1-1.36,3.67A5.82,5.82,0,0,1,22.11,23a19.6,19.6,0,0,1-2.21-.11ZM21.12,22a7.61,7.61,0,0,0,1.23.07c2.61,0,4-1.46,4-4,0-2.23-1.25-3.64-3.82-3.64a7,7,0,0,0-1.43.13Z"/><path class="cls-3" d="M34.11,18.53H30.44v3.4h4.09v1H29.22V13.52h5.1v1H30.44v3h3.67Z"/><path class="cls-3" d="M36.11,13.52h1.22v8.42h4v1H36.11Z"/><path class="cls-3" d="M43.94,13.52V23H42.72V13.52Z"/><path class="cls-3" d="M48.14,23l-3.08-9.44h1.32l1.47,4.65c.41,1.28.76,2.42,1,3.53h0c.27-1.09.66-2.28,1.08-3.52l1.6-4.67h1.3L49.48,23Z"/><path class="cls-3" d="M58.76,18.53H55.09v3.4h4.09v1H53.87V13.52H59v1H55.09v3h3.67Z"/><path class="cls-3" d="M60.76,13.64a12.71,12.71,0,0,1,2.34-.2,3.86,3.86,0,0,1,2.73.77A2.35,2.35,0,0,1,66.58,16a2.48,2.48,0,0,1-1.78,2.41v0a2.35,2.35,0,0,1,1.39,1.9A15,15,0,0,0,66.91,23H65.65A12.18,12.18,0,0,1,65,20.7c-.28-1.3-.79-1.79-1.89-1.83H62V23H60.76ZM62,17.94h1.25c1.3,0,2.13-.71,2.13-1.79s-.88-1.75-2.17-1.76A5,5,0,0,0,62,14.5Z"/><path class="cls-3" d="M70.24,23V19l-3-5.44h1.39L70,16.12c.36.71.64,1.29.94,1.95h0c.27-.62.59-1.23,1-1.95l1.36-2.61h1.39l-3.17,5.42v4Z"/></svg>