<?xml version="1.0" encoding="utf-8"?>
<!-- Generator: Adobe Illustrator 21.1.0, SVG Export Plug-In . SVG Version: 6.00 Build 0)  -->
<svg version="1.1" id="Layer_1" xmlns="http://www.w3.org/2000/svg" xmlns:xlink="http://www.w3.org/1999/xlink" x="0px" y="0px"
	 viewBox="0 0 204 315" style="enable-background:new 0 0 204 315;" xml:space="preserve">
<style type="text/css">
	.st0{fill:#009988;}
	.st1{fill:none;stroke:#00A081;stroke-miterlimit:10;}
	.st2{fill:none;stroke:#009E8D;stroke-miterlimit:10;}
	.st3{fill:#FFFFFF;}
	.st4{font-family:'Helvetica-Bold';}
	.st5{font-size:11px;}
	.st6{fill:#6A0832;}
	.st7{fill:none;stroke:#6D1036;stroke-miterlimit:10;}
</style>
<rect class="st0" width="204" height="315"/>
<line class="st1" x1="40.1" y1="0" x2="40.1" y2="315"/>
<g>
	<line class="st2" x1="8.8" y1="0.1" x2="8.8" y2="322.8"/>
	<line class="st2" x1="16.7" y1="0" x2="16.7" y2="322.8"/>
	<line class="st2" x1="24.5" y1="0" x2="24.5" y2="319.2"/>
	<line class="st2" x1="32.3" y1="0" x2="32.3" y2="322"/>
	<line class="st2" x1="40.1" y1="0.1" x2="40.1" y2="320.8"/>
	<line class="st2" x1="47.9" y1="-0.1" x2="47.9" y2="319.2"/>
	<line class="st2" x1="55.7" y1="0" x2="55.7" y2="317.5"/>
	<line class="st2" x1="63.5" y1="-0.1" x2="63.5" y2="320.8"/>
	<line class="st2" x1="71.3" y1="0" x2="71.3" y2="319.5"/>
	<line class="st2" x1="79.2" y1="0" x2="79.2" y2="317.5"/>
	<line class="st2" x1="87" y1="0" x2="87" y2="318.2"/>
	<line class="st2" x1="94.8" y1="0" x2="94.8" y2="317.1"/>
	<line class="st2" x1="102.6" y1="0.1" x2="102.6" y2="319"/>
	<line class="st2" x1="110.4" y1="0" x2="110.4" y2="320.8"/>
	<line class="st2" x1="118.2" y1="0" x2="118.2" y2="319.7"/>
	<line class="st2" x1="126" y1="0" x2="126" y2="320.8"/>
	<line class="st2" x1="133.8" y1="0" x2="133.8" y2="319"/>
	<line class="st2" x1="141.7" y1="0" x2="141.7" y2="318.8"/>
	<line class="st2" x1="149.5" y1="0" x2="149.5" y2="320.8"/>
	<line class="st2" x1="157.3" y1="0" x2="157.3" y2="320.8"/>
	<line class="st2" x1="165.1" y1="0.1" x2="165.1" y2="321.5"/>
	<line class="st2" x1="172.9" y1="-0.1" x2="172.9" y2="316.4"/>
	<line class="st2" x1="180.7" y1="0" x2="180.7" y2="319.8"/>
	<line class="st2" x1="188.5" y1="-0.1" x2="188.5" y2="321.5"/>
	<line class="st2" x1="196.3" y1="0" x2="196.3" y2="318.8"/>
</g>
<line class="st2" x1="-21.3" y1="86.9" x2="212" y2="251.3"/>
<line class="st2" x1="-16.9" y1="80.4" x2="216.4" y2="244.8"/>
<line class="st2" x1="-12.3" y1="74.1" x2="221" y2="238.5"/>
<line class="st2" x1="-7.9" y1="67.7" x2="225.4" y2="232"/>
<line class="st2" x1="-10.5" y1="56.3" x2="229.3" y2="225.2"/>
<line class="st2" x1="-6" y1="49.8" x2="233.7" y2="218.7"/>
<line class="st2" x1="-16" y1="33.2" x2="210.4" y2="192.8"/>
<line class="st2" x1="-11.6" y1="26.8" x2="214.9" y2="186.4"/>
<line class="st2" x1="-7" y1="20.5" x2="219.4" y2="180"/>
<line class="st2" x1="-2.5" y1="14.1" x2="224.6" y2="174.1"/>
<line class="st2" x1="-3" y1="4.2" x2="229.1" y2="167.7"/>
<line class="st2" x1="3.9" y1="-0.5" x2="233.6" y2="161.3"/>
<line class="st2" x1="11" y1="-5" x2="210.9" y2="135.8"/>
<line class="st2" x1="28.3" y1="-2.4" x2="215.3" y2="129.3"/>
<line class="st2" x1="32.8" y1="-8.8" x2="219.9" y2="123"/>
<line class="st2" x1="37.3" y1="-15.2" x2="224.3" y2="116.6"/>
<line class="st2" x1="41.8" y1="-21.6" x2="228.9" y2="110.2"/>
<line class="st2" x1="66.6" y1="-13.7" x2="213" y2="89.5"/>
<line class="st2" x1="75" y1="-17.3" x2="217.5" y2="83.1"/>
<line class="st2" x1="85.3" y1="-19.6" x2="205.8" y2="65.3"/>
<line class="st2" x1="97.6" y1="-20.5" x2="209.9" y2="58.6"/>
<line class="st2" x1="107.9" y1="-22.8" x2="214.3" y2="52.2"/>
<line class="st2" x1="117.4" y1="-25.6" x2="218.9" y2="45.8"/>
<line class="st2" x1="128" y1="-27.8" x2="223.3" y2="39.4"/>
<line class="st2" x1="138.1" y1="-30.2" x2="227.9" y2="33"/>
<g>
	<line class="st2" x1="-3.9" y1="309.5" x2="12.4" y2="321"/>
	<line class="st2" x1="-1.7" y1="301.5" x2="25.6" y2="320.7"/>
</g>
<line class="st2" x1="-5.6" y1="289.2" x2="39.7" y2="321.1"/>
<line class="st2" x1="-34.3" y1="259.4" x2="112.5" y2="362.8"/>
<line class="st2" x1="-29.7" y1="253" x2="117" y2="356.4"/>
<line class="st2" x1="-25.3" y1="246.6" x2="121.5" y2="350"/>
<line class="st2" x1="-20.7" y1="240.3" x2="126" y2="343.7"/>
<line class="st2" x1="-16.2" y1="233.9" x2="131" y2="337.6"/>
<line class="st2" x1="-11.7" y1="227.5" x2="135.5" y2="331.2"/>
<line class="st2" x1="-7.2" y1="221.1" x2="140" y2="324.8"/>
<line class="st2" x1="-26.3" y1="198.1" x2="144" y2="318.1"/>
<line class="st2" x1="-21.9" y1="191.7" x2="159.7" y2="319.6"/>
<line class="st2" x1="-17.4" y1="185.3" x2="174.7" y2="320.6"/>
<line class="st2" x1="-12.9" y1="178.9" x2="198.8" y2="328.1"/>
<line class="st2" x1="-8.4" y1="172.5" x2="203.3" y2="321.7"/>
<line class="st2" x1="-3.9" y1="166.1" x2="208.5" y2="315.7"/>
<line class="st2" x1="-29.9" y1="138.3" x2="213" y2="309.4"/>
<line class="st2" x1="-25.4" y1="131.8" x2="217.4" y2="303"/>
<line class="st2" x1="-20.8" y1="125.5" x2="221.3" y2="296.1"/>
<line class="st2" x1="-16.4" y1="119.1" x2="225.7" y2="289.7"/>
<line class="st2" x1="-11.9" y1="112.7" x2="230.2" y2="283.3"/>
<line class="st2" x1="-7.4" y1="106.3" x2="234.7" y2="276.9"/>
<text transform="matrix(1 0 0 1 11.3333 14.9998)" class="st3 st4 st5">Regions</text>
<rect x="12.2" y="18.6" class="st3" width="15" height="1"/>
</svg>
