<svg id="Layer_1" data-name="Layer 1" xmlns="http://www.w3.org/2000/svg" viewBox="0 0 204 315"><defs><style>.cls-1{fill:#098;}.cls-2,.cls-3{fill:none;stroke-miterlimit:10;}.cls-2{stroke:#00a081;}.cls-3{stroke:#009e8d;}.cls-4{fill:#fff;}</style></defs><title>u134</title><rect class="cls-1" width="204" height="315"/><line class="cls-2" x1="40.1" y1="-0.01" x2="40.1" y2="314.99"/><line class="cls-3" x1="8.85" y1="0.08" x2="8.85" y2="322.82"/><line class="cls-3" x1="16.66" y1="-0.05" x2="16.66" y2="322.82"/><line class="cls-3" x1="24.47" y1="-0.01" x2="24.47" y2="319.2"/><line class="cls-3" x1="32.29" y1="-0.05" x2="32.29" y2="321.98"/><line class="cls-3" x1="40.1" y1="0.06" x2="40.1" y2="320.85"/><line class="cls-3" x1="47.91" y1="-0.07" x2="47.91" y2="319.2"/><line class="cls-3" x1="55.72" y1="-0.03" x2="55.72" y2="317.54"/><line class="cls-3" x1="63.54" y1="-0.07" x2="63.54" y2="320.85"/><line class="cls-3" x1="71.35" y1="-0.03" x2="71.35" y2="319.54"/><line class="cls-3" x1="79.16" y1="-0.03" x2="79.16" y2="317.54"/><line class="cls-3" x1="86.97" y1="0.01" x2="86.97" y2="318.15"/><line class="cls-3" x1="94.79" y1="-0.03" x2="94.79" y2="317.07"/><line class="cls-3" x1="102.6" y1="0.08" x2="102.6" y2="319.04"/><line class="cls-3" x1="110.41" y1="-0.05" x2="110.41" y2="320.85"/><line class="cls-3" x1="118.22" y1="-0.01" x2="118.22" y2="319.7"/><line class="cls-3" x1="126.04" y1="-0.05" x2="126.04" y2="320.85"/><line class="cls-3" x1="133.85" y1="-0.01" x2="133.85" y2="319.04"/><line class="cls-3" x1="141.66" y1="-0.05" x2="141.66" y2="318.85"/><line class="cls-3" x1="149.47" y1="-0.01" x2="149.47" y2="320.85"/><line class="cls-3" x1="157.29" y1="-0.05" x2="157.29" y2="320.85"/><line class="cls-3" x1="165.1" y1="0.06" x2="165.1" y2="321.54"/><line class="cls-3" x1="172.91" y1="-0.07" x2="172.91" y2="316.41"/><line class="cls-3" x1="180.72" y1="-0.03" x2="180.72" y2="319.79"/><line class="cls-3" x1="188.54" y1="-0.07" x2="188.54" y2="321.54"/><line class="cls-3" x1="196.35" y1="-0.03" x2="196.35" y2="318.85"/><line class="cls-3" x1="-21.28" y1="86.88" x2="212.04" y2="251.27"/><line class="cls-3" x1="-16.87" y1="80.42" x2="216.45" y2="244.82"/><line class="cls-3" x1="-12.34" y1="74.06" x2="220.98" y2="238.46"/><line class="cls-3" x1="-7.87" y1="67.65" x2="225.45" y2="232.05"/><line class="cls-3" x1="-10.45" y1="56.28" x2="229.28" y2="225.19"/><line class="cls-3" x1="-6.05" y1="49.82" x2="233.68" y2="218.73"/><line class="cls-3" x1="-16.04" y1="33.22" x2="210.39" y2="192.77"/><line class="cls-3" x1="-11.57" y1="26.82" x2="214.86" y2="186.36"/><line class="cls-3" x1="-7.04" y1="20.45" x2="219.39" y2="180"/><line class="cls-3" x1="-2.54" y1="14.06" x2="224.6" y2="174.11"/><line class="cls-3" x1="-2.98" y1="4.19" x2="229.13" y2="167.74"/><line class="cls-3" x1="3.93" y1="-0.49" x2="233.6" y2="161.33"/><line class="cls-3" x1="11.02" y1="-5.05" x2="210.91" y2="135.79"/><line class="cls-3" x1="28.3" y1="-2.43" x2="215.33" y2="129.35"/><line class="cls-3" x1="32.83" y1="-8.8" x2="219.85" y2="122.98"/><line class="cls-3" x1="37.3" y1="-15.2" x2="224.33" y2="116.57"/><line class="cls-3" x1="41.83" y1="-21.57" x2="228.85" y2="110.2"/><line class="cls-3" x1="66.63" y1="-13.65" x2="212.98" y2="89.46"/><line class="cls-3" x1="75.05" y1="-17.28" x2="217.5" y2="83.09"/><line class="cls-3" x1="85.25" y1="-19.65" x2="205.83" y2="65.31"/><line class="cls-3" x1="97.61" y1="-20.49" x2="209.9" y2="58.62"/><line class="cls-3" x1="107.85" y1="-22.84" x2="214.34" y2="52.19"/><line class="cls-3" x1="117.43" y1="-25.64" x2="218.86" y2="45.82"/><line class="cls-3" x1="127.99" y1="-27.76" x2="223.34" y2="39.42"/><line class="cls-3" x1="138.12" y1="-30.18" x2="227.86" y2="33.05"/><line class="cls-3" x1="-3.87" y1="309.5" x2="12.44" y2="321"/><line class="cls-3" x1="-1.74" y1="301.45" x2="25.57" y2="320.69"/><line class="cls-3" x1="-5.57" y1="289.2" x2="39.7" y2="321.09"/><line class="cls-3" x1="-34.26" y1="259.42" x2="112.47" y2="362.81"/><line class="cls-3" x1="-29.75" y1="253.04" x2="116.99" y2="356.44"/><line class="cls-3" x1="-25.26" y1="246.64" x2="121.47" y2="350.04"/><line class="cls-3" x1="-20.75" y1="240.27" x2="125.99" y2="343.66"/><line class="cls-3" x1="-16.25" y1="233.89" x2="130.95" y2="337.6"/><line class="cls-3" x1="-11.73" y1="227.51" x2="135.47" y2="331.23"/><line class="cls-3" x1="-7.25" y1="221.11" x2="139.95" y2="324.83"/><line class="cls-3" x1="-26.34" y1="198.1" x2="143.97" y2="318.1"/><line class="cls-3" x1="-21.91" y1="191.67" x2="159.67" y2="319.61"/><line class="cls-3" x1="-17.39" y1="185.3" x2="174.67" y2="320.62"/><line class="cls-3" x1="-12.91" y1="178.89" x2="198.79" y2="328.06"/><line class="cls-3" x1="-8.38" y1="172.53" x2="203.32" y2="321.69"/><line class="cls-3" x1="-3.91" y1="166.12" x2="208.45" y2="315.75"/><line class="cls-3" x1="-29.89" y1="138.26" x2="212.98" y2="309.38"/><line class="cls-3" x1="-25.42" y1="131.85" x2="217.44" y2="302.97"/><line class="cls-3" x1="-20.84" y1="125.52" x2="221.27" y2="296.11"/><line class="cls-3" x1="-16.44" y1="119.06" x2="225.67" y2="289.66"/><line class="cls-3" x1="-11.91" y1="112.7" x2="230.2" y2="283.29"/><line class="cls-3" x1="-7.44" y1="106.29" x2="234.67" y2="276.88"/><path class="cls-4" d="M12.17,7.1h4a2.22,2.22,0,0,1,2.49,2.23,1.89,1.89,0,0,1-1.22,1.88c.65.29,1,.53,1,2,0,1.16,0,1.44.35,1.57V15H17a5.29,5.29,0,0,1-.18-1.6c0-1.08-.07-1.5-1.29-1.5H13.79V15H12.17Zm3.55,3.48c.86,0,1.28-.3,1.28-1.08,0-.42-.19-1-1.16-1H13.79v2.11Z"/><path class="cls-4" d="M25,13.28a2.53,2.53,0,0,1-2.57,1.87c-1.65,0-2.92-.79-2.92-3.2a2.72,2.72,0,0,1,2.81-3c1.16,0,2.75.55,2.75,3.22v.27h-4c0,.44.13,1.43,1.38,1.43a1,1,0,0,0,1-.64ZM23.5,11.49a1.18,1.18,0,0,0-1.19-1.23c-.73,0-1.11.46-1.2,1.23Z"/><path class="cls-4" d="M31.47,9.15v5.54c0,1-.08,2.7-3,2.7-1.21,0-2.49-.52-2.55-1.76h1.67c.07.3.19.59,1.08.59s1.22-.4,1.22-1.34v-.7l0,0a1.59,1.59,0,0,1-1.56.88c-1.41,0-2.52-1-2.52-3S27,9,28.26,9A1.76,1.76,0,0,1,30,10h0V9.15Zm-2.84,4.59c1,0,1.31-.89,1.31-1.69s-.46-1.72-1.32-1.72c-.57,0-1.21.42-1.21,1.78C27.42,12.85,27.72,13.73,28.64,13.73Z"/><path class="cls-4" d="M34.41,8.45H32.87V7h1.54Zm0,.69V15H32.87V9.15Z"/><path class="cls-4" d="M38.54,15.15a2.84,2.84,0,0,1-3-3.08,3,3,0,1,1,6,0A2.84,2.84,0,0,1,38.54,15.15Zm0-4.86c-1.19,0-1.41,1-1.41,1.78s.22,1.78,1.41,1.78,1.41-1,1.41-1.78S39.72,10.29,38.54,10.29Z"/><path class="cls-4" d="M47.9,15H46.36V11.45c0-.43,0-1.15-1-1.15a1.2,1.2,0,0,0-1.21,1.35V15H42.61V9.15h1.47V10h0a2,2,0,0,1,3.8.95Z"/><path class="cls-4" d="M52.64,10.93c-.07-.37-.2-.77-1-.77s-.95.32-.95.57c0,.92,3.66.25,3.66,2.41,0,1.71-1.65,2-2.56,2-1.33,0-2.77-.46-2.82-2h1.58c0,.5.31.86,1.28.86.79,0,1-.38,1-.6,0-1-3.63-.24-3.63-2.43,0-.86.54-2,2.37-2,1.14,0,2.51.29,2.63,1.94Z"/><rect class="cls-4" x="12.17" y="18.59" width="15.01" height="0.99"/></svg>