<?xml version="1.0" encoding="UTF-8" standalone="no"?>
<svg
   xmlns:dc="http://purl.org/dc/elements/1.1/"
   xmlns:cc="http://creativecommons.org/ns#"
   xmlns:rdf="http://www.w3.org/1999/02/22-rdf-syntax-ns#"
   xmlns:svg="http://www.w3.org/2000/svg"
   xmlns="http://www.w3.org/2000/svg"
   xmlns:sodipodi="http://sodipodi.sourceforge.net/DTD/sodipodi-0.dtd"
   xmlns:inkscape="http://www.inkscape.org/namespaces/inkscape"
   id="Assets_class"
   data-name="Assets class"
   viewBox="0 0 53.040001 53.040001"
   version="1.1"
   sodipodi:docname="arts_e.svg"
   inkscape:version="0.92.1 r15371"
   width="53.040001"
   height="53.040001">
  <metadata
     id="metadata8245">
    <rdf:RDF>
      <cc:Work
         rdf:about="">
        <dc:format>image/svg+xml</dc:format>
        <dc:type
           rdf:resource="http://purl.org/dc/dcmitype/StillImage" />
        <dc:title>Artboard 288</dc:title>
      </cc:Work>
    </rdf:RDF>
  </metadata>
  <sodipodi:namedview
     pagecolor="#ffffff"
     bordercolor="#666666"
     borderopacity="1"
     objecttolerance="10"
     gridtolerance="10"
     guidetolerance="10"
     inkscape:pageopacity="0"
     inkscape:pageshadow="2"
     inkscape:window-width="1920"
     inkscape:window-height="1001"
     id="namedview8243"
     showgrid="false"
     inkscape:zoom="13.273001"
     inkscape:cx="13.871357"
     inkscape:cy="14.35471"
     inkscape:window-x="-9"
     inkscape:window-y="-9"
     inkscape:window-maximized="1"
     inkscape:current-layer="layer7"
     fit-margin-top="0"
     fit-margin-left="0"
     fit-margin-right="0"
     fit-margin-bottom="0" />
  <defs
     id="defs8169">
    <style
       id="style8167">.cls-1{fill:#f1563f;}.cls-2{fill:#fff;}.cls-3{font-size:13px;fill:#e1bebb;font-family:Helvetica, Helvetica;}.cls-4{letter-spacing:0em;}.cls-5{letter-spacing:0.02em;}.cls-6{letter-spacing:-0.01em;}.cls-7{letter-spacing:0em;}.cls-8{letter-spacing:-0.01em;}.cls-9{letter-spacing:-0.01em;}.cls-10{letter-spacing:0em;}.cls-11{letter-spacing:0em;}</style>
    <style
       id="style8834">.cls-1{isolation:isolate;}.cls-2{opacity:0.7;mix-blend-mode:multiply;}.cls-3,.cls-5{fill:#fff;}.cls-4{fill:#009887;}.cls-5{font-size:13px;font-family:Helvetica-Bold, Helvetica Bold;font-weight:700;}.cls-6{letter-spacing:0em;}.cls-7{letter-spacing:0.02em;}.cls-8{letter-spacing:-0.01em;}.cls-9{letter-spacing:0em;}.cls-10{letter-spacing:-0.01em;}.cls-11{letter-spacing:-0.01em;}.cls-12{letter-spacing:0em;}.cls-13{letter-spacing:0em;}</style>
  </defs>
  <title
     id="title8171">Artboard 288</title>
  <g
     inkscape:groupmode="layer"
     id="layer6"
     inkscape:label="Layer 1"
     style="display:inline"
     transform="translate(-30.05,-2)">
    <g
       id="g8811">
      <g
         data-name="&lt;Group&gt;"
         id="_Group_">
        <circle
           id="circle8173"
           r="14.5"
           cy="25.5"
           cx="56.549999"
           class="cls-1"
           style="isolation:isolate;fill:#f1563f" />
        <circle
           id="circle8175"
           r="13.33"
           cy="25.5"
           cx="56.549999"
           class="cls-1"
           style="isolation:isolate;fill:#f1563f" />
      </g>
      <polygon
         id="polygon8178"
         points="65.02,19.85 65.02,20.52 47.9,20.52 47.9,19.85 "
         class="cls-2"
         style="opacity:0.7;mix-blend-mode:multiply;fill:#ffffff" />
      <rect
         id="rect8180"
         height="8"
         width="1.2"
         y="20.83"
         x="53.77"
         class="cls-2"
         style="opacity:0.7;mix-blend-mode:multiply;fill:#ffffff" />
      <rect
         id="rect8182"
         height="8"
         width="1.2"
         y="20.83"
         x="57.950001"
         class="cls-2"
         style="opacity:0.7;mix-blend-mode:multiply;fill:#ffffff" />
      <rect
         id="rect8184"
         height="8"
         width="1.2"
         y="20.83"
         x="62.119999"
         class="cls-2"
         style="opacity:0.7;mix-blend-mode:multiply;fill:#ffffff" />
      <polygon
         id="polygon8186"
         points="55.53,20.83 55.3,21.85 53.45,21.85 53.21,20.83 "
         class="cls-2"
         style="opacity:0.7;mix-blend-mode:multiply;fill:#ffffff" />
      <polygon
         id="polygon8188"
         points="55.5,28.82 55.28,27.8 53.47,27.8 53.24,28.82 "
         class="cls-2"
         style="opacity:0.7;mix-blend-mode:multiply;fill:#ffffff" />
      <rect
         id="rect8190"
         height="8"
         width="1.2"
         y="20.83"
         x="49.599998"
         class="cls-2"
         style="opacity:0.7;mix-blend-mode:multiply;fill:#ffffff" />
      <polygon
         id="polygon8192"
         points="51.36,20.83 51.13,21.85 49.27,21.85 49.04,20.83 "
         class="cls-2"
         style="opacity:0.7;mix-blend-mode:multiply;fill:#ffffff" />
      <polygon
         id="polygon8194"
         points="51.33,28.82 51.1,27.8 49.29,27.8 49.07,28.82 "
         class="cls-2"
         style="opacity:0.7;mix-blend-mode:multiply;fill:#ffffff" />
      <polygon
         id="polygon8196"
         points="59.71,20.83 59.48,21.85 57.62,21.85 57.39,20.83 "
         class="cls-2"
         style="opacity:0.7;mix-blend-mode:multiply;fill:#ffffff" />
      <polygon
         id="polygon8198"
         points="59.68,28.82 59.45,27.8 57.64,27.8 57.42,28.82 "
         class="cls-2"
         style="opacity:0.7;mix-blend-mode:multiply;fill:#ffffff" />
      <polygon
         id="polygon8200"
         points="63.88,20.83 63.65,21.85 61.79,21.85 61.56,20.83 "
         class="cls-2"
         style="opacity:0.7;mix-blend-mode:multiply;fill:#ffffff" />
      <polygon
         id="polygon8202"
         points="63.85,28.82 63.63,27.8 61.82,27.8 61.59,28.82 "
         class="cls-2"
         style="opacity:0.7;mix-blend-mode:multiply;fill:#ffffff" />
      <polygon
         id="polygon8204"
         points="47.9,19.93 56.46,16.79 65.03,19.93 "
         class="cls-2"
         style="opacity:0.7;mix-blend-mode:multiply;fill:#ffffff" />
      <polygon
         id="polygon8206"
         points="46.63,30.02 66.29,30.02 66.29,30.03 66.29,30.53 46.63,30.53 46.63,30.03 "
         class="cls-2"
         style="opacity:0.7;mix-blend-mode:multiply;fill:#ffffff" />
      <polygon
         id="polygon8208"
         points="48.02,29.12 48.03,29.12 64.89,29.12 64.89,29.62 48.03,29.62 48.02,29.62 "
         class="cls-2"
         style="opacity:0.7;mix-blend-mode:multiply;fill:#ffffff" />
      <polygon
         id="polygon8210"
         points="67.5,30.92 67.5,31.42 45.43,31.42 45.42,31.42 45.42,30.92 45.43,30.92 67.49,30.92 "
         class="cls-2"
         style="opacity:0.7;mix-blend-mode:multiply;fill:#ffffff" />
    </g>
    <g
       id="g8914"
       class="cls-1"
       style="isolation:isolate"
       transform="translate(0,0.51)">
      <g
         data-name="Selected Assets Classes"
         id="Selected_Assets_Classes"
         transform="translate(0,-0.51)" />
    </g>
    <g
       style="display:inline"
       id="g9638">
      <polygon
         id="polygon9604"
         points="65.02,19.85 65.02,20.52 47.9,20.52 47.9,19.85 "
         class="cls-3"
         style="display:inline;isolation:isolate;fill:#ffffff" />
      <rect
         id="rect9606"
         height="8"
         width="1.2"
         y="20.83"
         x="53.77"
         class="cls-3"
         style="display:inline;isolation:isolate;fill:#ffffff" />
      <rect
         id="rect9608"
         height="8"
         width="1.2"
         y="20.83"
         x="57.950001"
         class="cls-3"
         style="display:inline;isolation:isolate;fill:#ffffff" />
      <rect
         id="rect9610"
         height="8"
         width="1.2"
         y="20.83"
         x="62.119999"
         class="cls-3"
         style="display:inline;isolation:isolate;fill:#ffffff" />
      <polygon
         id="polygon9612"
         points="55.53,20.83 55.3,21.85 53.45,21.85 53.21,20.83 "
         class="cls-3"
         style="display:inline;isolation:isolate;fill:#ffffff" />
      <polygon
         id="polygon9614"
         points="55.5,28.82 55.28,27.8 53.47,27.8 53.24,28.82 "
         class="cls-3"
         style="display:inline;isolation:isolate;fill:#ffffff" />
      <rect
         id="rect9616"
         height="8"
         width="1.2"
         y="20.83"
         x="49.599998"
         class="cls-3"
         style="display:inline;isolation:isolate;fill:#ffffff" />
      <polygon
         id="polygon9618"
         points="51.36,20.83 51.13,21.85 49.27,21.85 49.04,20.83 "
         class="cls-3"
         style="display:inline;isolation:isolate;fill:#ffffff" />
      <polygon
         id="polygon9620"
         points="51.33,28.82 51.1,27.8 49.29,27.8 49.07,28.82 "
         class="cls-3"
         style="display:inline;isolation:isolate;fill:#ffffff" />
      <polygon
         id="polygon9622"
         points="59.71,20.83 59.48,21.85 57.62,21.85 57.39,20.83 "
         class="cls-3"
         style="display:inline;isolation:isolate;fill:#ffffff" />
      <polygon
         id="polygon9624"
         points="59.68,28.82 59.45,27.8 57.64,27.8 57.42,28.82 "
         class="cls-3"
         style="display:inline;isolation:isolate;fill:#ffffff" />
      <polygon
         id="polygon9626"
         points="63.88,20.83 63.65,21.85 61.79,21.85 61.56,20.83 "
         class="cls-3"
         style="display:inline;isolation:isolate;fill:#ffffff" />
      <polygon
         id="polygon9628"
         points="63.85,28.82 63.63,27.8 61.82,27.8 61.59,28.82 "
         class="cls-3"
         style="display:inline;isolation:isolate;fill:#ffffff" />
      <polygon
         id="polygon9630"
         points="65.03,19.93 47.9,19.93 56.46,16.79 "
         class="cls-3"
         style="display:inline;isolation:isolate;fill:#ffffff" />
      <polygon
         id="polygon9632"
         points="66.29,30.03 66.29,30.53 46.63,30.53 46.63,30.03 46.63,30.02 66.29,30.02 "
         class="cls-3"
         style="display:inline;isolation:isolate;fill:#ffffff" />
      <polygon
         id="polygon9634"
         points="64.89,29.12 64.89,29.62 48.03,29.62 48.02,29.62 48.02,29.12 48.03,29.12 "
         class="cls-3"
         style="display:inline;isolation:isolate;fill:#ffffff" />
      <polygon
         id="polygon9636"
         points="67.5,30.92 67.5,31.42 45.43,31.42 45.42,31.42 45.42,30.92 45.43,30.92 67.49,30.92 "
         class="cls-3"
         style="display:inline;isolation:isolate;fill:#ffffff" />
    </g>
  </g>
  <g
     inkscape:groupmode="layer"
     id="layer7"
     inkscape:label="Layer 2"
     style="display:none"
     transform="translate(-30.05,-2)" />
</svg>
