<?xml version="1.0" encoding="UTF-8" standalone="no"?>
<svg
   xmlns:dc="http://purl.org/dc/elements/1.1/"
   xmlns:cc="http://creativecommons.org/ns#"
   xmlns:rdf="http://www.w3.org/1999/02/22-rdf-syntax-ns#"
   xmlns:svg="http://www.w3.org/2000/svg"
   xmlns="http://www.w3.org/2000/svg"
   xmlns:sodipodi="http://sodipodi.sourceforge.net/DTD/sodipodi-0.dtd"
   xmlns:inkscape="http://www.inkscape.org/namespaces/inkscape"
   id="Assets_class"
   data-name="Assets class"
   viewBox="0 0 53.040003 53.039999"
   version="1.1"
   sodipodi:docname="digital_e.svg"
   inkscape:version="0.92.1 r15371"
   width="53.040001"
   height="53.040001">
  <metadata
     id="metadata11984">
    <rdf:RDF>
      <cc:Work
         rdf:about="">
        <dc:format>image/svg+xml</dc:format>
        <dc:type
           rdf:resource="http://purl.org/dc/dcmitype/StillImage" />
        <dc:title>Artboard 286</dc:title>
      </cc:Work>
    </rdf:RDF>
  </metadata>
  <sodipodi:namedview
     pagecolor="#ffffff"
     bordercolor="#666666"
     borderopacity="1"
     objecttolerance="10"
     gridtolerance="10"
     guidetolerance="10"
     inkscape:pageopacity="0"
     inkscape:pageshadow="2"
     inkscape:window-width="1920"
     inkscape:window-height="1001"
     id="namedview11982"
     showgrid="false"
     inkscape:zoom="8.8353246"
     inkscape:cx="-9.8040718"
     inkscape:cy="17.547928"
     inkscape:window-x="-9"
     inkscape:window-y="-9"
     inkscape:window-maximized="1"
     inkscape:current-layer="layer12"
     fit-margin-top="0"
     fit-margin-left="0"
     fit-margin-right="0"
     fit-margin-bottom="0" />
  <defs
     id="defs11958">
    <style
       id="style11956">.cls-1{fill:#f1563f;}.cls-2{fill:#fff;}.cls-3{font-size:13px;fill:#e1bebb;font-family:Helvetica, Helvetica;}.cls-4{letter-spacing:-0.01em;}</style>
    <style
       id="style12531">.cls-1{isolation:isolate;}.cls-2{opacity:0.7;mix-blend-mode:multiply;}.cls-3,.cls-5{fill:#fff;}.cls-4{fill:#009887;}.cls-5{font-size:13px;font-family:Helvetica-Bold, Helvetica Bold;font-weight:700;}.cls-6{letter-spacing:-0.01em;}</style>
  </defs>
  <title
     id="title11960">Artboard 286</title>
  <g
     id="_Group_"
     data-name="&lt;Group&gt;"
     transform="translate(-6.56,-2)">
    <circle
       class="cls-1"
       cx="33.060001"
       cy="25.5"
       r="14.5"
       id="circle11962"
       style="isolation:isolate;fill:#f1563f" />
    <circle
       class="cls-1"
       cx="33.060001"
       cy="25.5"
       r="13.33"
       id="circle11964"
       style="isolation:isolate;fill:#f1563f" />
  </g>
  <path
     class="cls-2"
     d="M 27.69,29 A 1.11,1.11 0 1 1 26.58,27.89 1.11,1.11 0 0 1 27.69,29"
     id="path11967"
     inkscape:connector-curvature="0"
     style="opacity:0.7;mix-blend-mode:multiply;fill:#ffffff" />
  <path
     class="cls-2"
     d="m 35.18,22.7 a 1.16,1.16 0 0 1 -0.84,-0.35 11,11 0 0 0 -15.54,0 1.17,1.17 0 1 1 -1.67,-1.63 13.37,13.37 0 0 1 18.89,0 1.17,1.17 0 0 1 -0.84,2"
     id="path11969"
     inkscape:connector-curvature="0"
     style="opacity:0.7;mix-blend-mode:multiply;fill:#ffffff" />
  <path
     class="cls-2"
     d="m 32.31,25.1 a 1.16,1.16 0 0 1 -0.8,-0.32 7.35,7.35 0 0 0 -9.87,0 1.17,1.17 0 0 1 -1.61,-1.69 9.68,9.68 0 0 1 13.1,0 1.17,1.17 0 0 1 -0.81,2"
     id="path11971"
     inkscape:connector-curvature="0"
     style="opacity:0.7;mix-blend-mode:multiply;fill:#ffffff" />
  <path
     class="cls-2"
     d="m 23.64,27.58 a 1.17,1.17 0 0 1 -0.73,-2.08 5.85,5.85 0 0 1 3.66,-1.23 5.91,5.91 0 0 1 3.57,1.15 1.1700427,1.1700427 0 0 1 -1.42,1.86 3.75,3.75 0 0 0 -4.35,0 1.16,1.16 0 0 1 -0.73,0.26"
     id="path11973"
     inkscape:connector-curvature="0"
     style="opacity:0.7;mix-blend-mode:multiply;fill:#ffffff" />
  <g
     inkscape:groupmode="layer"
     id="layer11"
     inkscape:label="Layer 1"
     transform="translate(-6.56,-2)">
    <g
       style="display:inline;isolation:isolate"
       id="g12619">
      <path
         style="fill:#ffffff"
         inkscape:connector-curvature="0"
         class="cls-3"
         d="M 34.25,31 A 1.11,1.11 0 1 1 33.14,29.89 1.11,1.11 0 0 1 34.25,31"
         id="path12611" />
      <path
         style="fill:#ffffff"
         inkscape:connector-curvature="0"
         class="cls-3"
         d="m 41.74,24.7 a 1.16,1.16 0 0 1 -0.84,-0.35 11,11 0 0 0 -15.54,0 1.17,1.17 0 1 1 -1.67,-1.63 13.37,13.37 0 0 1 18.89,0 1.17,1.17 0 0 1 -0.84,2"
         id="path12613" />
      <path
         style="fill:#ffffff"
         inkscape:connector-curvature="0"
         class="cls-3"
         d="m 38.87,27.1 a 1.16,1.16 0 0 1 -0.8,-0.32 7.35,7.35 0 0 0 -9.87,0 1.17,1.17 0 0 1 -1.61,-1.69 9.68,9.68 0 0 1 13.1,0 1.17,1.17 0 0 1 -0.81,2"
         id="path12615" />
      <path
         style="fill:#ffffff"
         inkscape:connector-curvature="0"
         class="cls-3"
         d="m 30.2,29.58 a 1.17,1.17 0 0 1 -0.73,-2.08 5.85,5.85 0 0 1 3.66,-1.23 5.91,5.91 0 0 1 3.57,1.15 1.1700427,1.1700427 0 0 1 -1.42,1.86 3.75,3.75 0 0 0 -4.35,0 1.16,1.16 0 0 1 -0.73,0.26"
         id="path12617" />
    </g>
  </g>
  <g
     inkscape:groupmode="layer"
     id="layer12"
     inkscape:label="Layer 2"
     transform="translate(-6.56,-2)"
     style="display:inline" />
  <g
     id="g12561"
     class="cls-1"
     style="isolation:isolate"
     transform="translate(-49.616837,-57.604266)" />
</svg>
