<?xml version="1.0" encoding="UTF-8" standalone="no"?>
<svg
   xmlns:dc="http://purl.org/dc/elements/1.1/"
   xmlns:cc="http://creativecommons.org/ns#"
   xmlns:rdf="http://www.w3.org/1999/02/22-rdf-syntax-ns#"
   xmlns:svg="http://www.w3.org/2000/svg"
   xmlns="http://www.w3.org/2000/svg"
   xmlns:sodipodi="http://sodipodi.sourceforge.net/DTD/sodipodi-0.dtd"
   xmlns:inkscape="http://www.inkscape.org/namespaces/inkscape"
   id="Assets_class"
   data-name="Assets class"
   viewBox="0 0 53.040002 53.040001"
   version="1.1"
   sodipodi:docname="energy_e.svg"
   inkscape:version="0.92.1 r15371"
   width="53.040001"
   height="53.040001">
  <metadata
     id="metadata9428">
    <rdf:RDF>
      <cc:Work
         rdf:about="">
        <dc:format>image/svg+xml</dc:format>
        <dc:type
           rdf:resource="http://purl.org/dc/dcmitype/StillImage" />
        <dc:title>Artboard 282</dc:title>
      </cc:Work>
    </rdf:RDF>
  </metadata>
  <sodipodi:namedview
     pagecolor="#ffffff"
     bordercolor="#666666"
     borderopacity="1"
     objecttolerance="10"
     gridtolerance="10"
     guidetolerance="10"
     inkscape:pageopacity="0"
     inkscape:pageshadow="2"
     inkscape:window-width="1920"
     inkscape:window-height="1001"
     id="namedview9426"
     showgrid="false"
     inkscape:zoom="8.8705488"
     inkscape:cx="5.102881"
     inkscape:cy="25.265555"
     inkscape:window-x="-9"
     inkscape:window-y="-9"
     inkscape:window-maximized="0"
     inkscape:current-layer="layer8"
     fit-margin-top="0"
     fit-margin-left="0"
     fit-margin-right="0"
     fit-margin-bottom="0" />
  <defs
     id="defs9394">
    <style
       id="style9392">.cls-1{fill:#f1563f;}.cls-2{fill:#fff;}.cls-3{font-size:13px;fill:#e1bebb;font-family:Helvetica, Helvetica;}.cls-4{letter-spacing:-0.01em;}</style>
    <style
       id="style10012">.cls-1{isolation:isolate;}.cls-2{opacity:0.7;mix-blend-mode:multiply;}.cls-3,.cls-5{fill:#fff;}.cls-4{fill:#009887;}.cls-5{font-size:13px;font-family:Helvetica-Bold, Helvetica Bold;font-weight:700;}.cls-6{letter-spacing:-0.01em;}</style>
  </defs>
  <title
     id="title9396">Artboard 282</title>
  <g
     inkscape:groupmode="layer"
     id="layer7"
     inkscape:label="Layer 1"
     style="display:inline"
     transform="translate(-9.09,-2)">
    <g
       id="g9995">
      <g
         data-name="&lt;Group&gt;"
         id="_Group_">
        <circle
           id="circle9398"
           r="14.5"
           cy="25.5"
           cx="35.59"
           class="cls-1"
           style="isolation:isolate;fill:#f1563f" />
        <circle
           id="circle9400"
           r="13.33"
           cy="25.5"
           cx="35.59"
           class="cls-1"
           style="isolation:isolate;fill:#f1563f" />
      </g>
      <g
         id="g9981">
        <path
           class="cls-2"
           d="m 37.57,29 h -4.21 a 0.55,0.55 0 0 0 -0.55,0.73 v 0 a 0.51,0.51 0 0 0 0.28,0.28 0.86,0.86 0 0 0 0.31,0.05 h 4.15 c 0.39,0 0.62,-0.21 0.62,-0.54 C 38.17,29.19 38,29 37.57,29"
           id="path9403"
           inkscape:connector-curvature="0"
           style="opacity:0.7;mix-blend-mode:multiply;fill:#ffffff" />
        <path
           class="cls-2"
           d="m 37.47,30.82 h -4 a 0.56,0.56 0 0 0 -0.64,0.55 0.58,0.58 0 0 0 0,0.14 0.51,0.51 0 0 0 0.36,0.36 0.85,0.85 0 0 0 0.24,0 h 4 c 0.39,0 0.64,-0.22 0.64,-0.55 a 0.56,0.56 0 0 0 -0.63,-0.54"
           id="path9405"
           inkscape:connector-curvature="0"
           style="opacity:0.7;mix-blend-mode:multiply;fill:#ffffff" />
        <path
           class="cls-2"
           d="m 33.55,32.65 h -0.08 a 2.72,2.72 0 0 0 1,1 2.16,2.16 0 0 0 1,0.24 2.59,2.59 0 0 0 2,-1.19 h -4 z"
           id="path9407"
           inkscape:connector-curvature="0"
           style="opacity:0.7;mix-blend-mode:multiply;fill:#ffffff" />
        <path
           class="cls-2"
           d="M 38.66,25.36 36.17,26 v 1.85 a 0.77,0.77 0 0 0 0.76,0.78 v 0 A 0.77,0.77 0 0 0 37.7,27.86 V 27.2 L 39,26.85 a 0.7700974,0.7700974 0 1 0 -0.39,-1.49"
           id="path9409"
           inkscape:connector-curvature="0"
           style="opacity:0.7;mix-blend-mode:multiply;fill:#ffffff" />
        <path
           class="cls-2"
           d="m 38.66,23 -6.14,1.6 -0.59,0.16 a 0.77,0.77 0 0 0 -0.57,0.84 0.78,0.78 0 0 0 0.07,0.43 0.77,0.77 0 0 0 0.37,0.37 v 0 l 1.57,0.72 v 0.72 a 0.61,0.61 0 0 0 0,0.18 0.76,0.76 0 0 0 0.54,0.55 h 0.2 v 0 a 0.77,0.77 0 0 0 0.75,-0.79 V 26.1 L 34.11,25.75 39,24.54 A 0.78854296,0.78854296 0 1 0 38.66,23"
           id="path9411"
           inkscape:connector-curvature="0"
           style="opacity:0.7;mix-blend-mode:multiply;fill:#ffffff" />
        <path
           class="cls-2"
           d="m 38.66,20.73 -4.17,1.08 -2,0.52 -0.57,0.15 a 0.77,0.77 0 0 0 -0.55,0.94 0.55,0.55 0 0 0 0,0.11 0.75,0.75 0 0 0 0.4,0.4 0.77,0.77 0 0 0 0.31,0.07 h 0.19 l 1.45,-0.38 2,-0.52 3.28,-0.88 a 0.7700974,0.7700974 0 1 0 -0.39,-1.49"
           id="path9413"
           inkscape:connector-curvature="0"
           style="opacity:0.7;mix-blend-mode:multiply;fill:#ffffff" />
        <path
           class="cls-2"
           d="m 31.43,21.27 a 0.77,0.77 0 0 0 0.68,0.42 0.68,0.68 0 0 0 0.19,0 L 33.91,21.27 39,19.91 A 0.77,0.77 0 0 0 39.6,19 v -0.12 a 0.78,0.78 0 0 0 -0.38,-0.38 0.77,0.77 0 0 0 -0.51,0 l -0.38,0.1 -5.67,1.4 -0.74,0.19 a 0.77,0.77 0 0 0 -0.55,0.94 0.84,0.84 0 0 0 0.07,0.16"
           id="path9415"
           inkscape:connector-curvature="0"
           style="opacity:0.7;mix-blend-mode:multiply;fill:#ffffff" />
        <path
           class="cls-2"
           d="m 31.37,18.79 a 0.77,0.77 0 0 0 0.68,0.57 h 0.07 0.19 l 4.24,-1.1 a 0.77,0.77 0 0 0 0.56,-0.9 v 0 a 0.77,0.77 0 0 0 -0.59,-0.56 0.75,0.75 0 0 0 -0.35,0 l -4.24,1.1 a 0.77,0.77 0 0 0 -0.57,0.81 0.91,0.91 0 0 0 0,0.13"
           id="path9417"
           inkscape:connector-curvature="0"
           style="opacity:0.7;mix-blend-mode:multiply;fill:#ffffff" />
      </g>
    </g>
    <g
       id="g10050"
       class="cls-1"
       style="isolation:isolate"
       transform="translate(-31.448894,-21.478741)">
      <g
         data-name="Selected Assets Classes"
         id="Selected_Assets_Classes" />
    </g>
    <g
       style="display:inline;isolation:isolate"
       id="g10085">
      <path
         id="path10025"
         d="m 37.57,29 h -4.21 a 0.55,0.55 0 0 0 -0.55,0.73 v 0 a 0.51,0.51 0 0 0 0.28,0.28 0.86,0.86 0 0 0 0.31,0.05 h 4.15 c 0.39,0 0.62,-0.21 0.62,-0.54 C 38.17,29.19 38,29 37.57,29"
         class="cls-3"
         inkscape:connector-curvature="0"
         style="fill:#ffffff" />
      <path
         id="path10027"
         d="m 37.47,30.82 h -4 a 0.56,0.56 0 0 0 -0.64,0.55 0.58,0.58 0 0 0 0,0.14 0.51,0.51 0 0 0 0.36,0.36 0.85,0.85 0 0 0 0.24,0 h 4 c 0.39,0 0.64,-0.22 0.64,-0.55 a 0.56,0.56 0 0 0 -0.63,-0.54"
         class="cls-3"
         inkscape:connector-curvature="0"
         style="fill:#ffffff" />
      <path
         id="path10029"
         d="m 33.55,32.65 h -0.08 a 2.72,2.72 0 0 0 1,1 2.16,2.16 0 0 0 1,0.24 2.59,2.59 0 0 0 2,-1.19 h -4 z"
         class="cls-3"
         inkscape:connector-curvature="0"
         style="fill:#ffffff" />
      <path
         id="path10031"
         d="M 38.66,25.36 36.17,26 v 1.85 a 0.77,0.77 0 0 0 0.76,0.78 v 0 A 0.77,0.77 0 0 0 37.7,27.86 V 27.2 L 39,26.85 a 0.7700974,0.7700974 0 1 0 -0.39,-1.49"
         class="cls-3"
         inkscape:connector-curvature="0"
         style="fill:#ffffff" />
      <path
         id="path10033"
         d="m 38.66,23 -6.14,1.6 -0.59,0.16 a 0.77,0.77 0 0 0 -0.57,0.84 0.78,0.78 0 0 0 0.07,0.43 0.77,0.77 0 0 0 0.37,0.37 v 0 l 1.57,0.72 v 0.72 a 0.61,0.61 0 0 0 0,0.18 0.76,0.76 0 0 0 0.54,0.55 h 0.2 v 0 a 0.77,0.77 0 0 0 0.75,-0.79 V 26.1 L 34.11,25.75 39,24.54 A 0.78854296,0.78854296 0 1 0 38.66,23"
         class="cls-3"
         inkscape:connector-curvature="0"
         style="fill:#ffffff" />
      <path
         id="path10035"
         d="m 38.66,20.73 -4.17,1.08 -2,0.52 -0.57,0.15 a 0.77,0.77 0 0 0 -0.55,0.94 0.55,0.55 0 0 0 0,0.11 0.75,0.75 0 0 0 0.4,0.4 0.77,0.77 0 0 0 0.31,0.07 h 0.19 l 1.45,-0.38 2,-0.52 3.28,-0.88 a 0.7700974,0.7700974 0 1 0 -0.39,-1.49"
         class="cls-3"
         inkscape:connector-curvature="0"
         style="fill:#ffffff" />
      <path
         id="path10037"
         d="m 31.43,21.27 a 0.77,0.77 0 0 0 0.68,0.42 0.68,0.68 0 0 0 0.19,0 L 33.91,21.27 39,19.91 A 0.77,0.77 0 0 0 39.6,19 v -0.12 a 0.78,0.78 0 0 0 -0.38,-0.38 0.77,0.77 0 0 0 -0.51,0 l -0.38,0.1 -5.67,1.4 -0.74,0.19 a 0.77,0.77 0 0 0 -0.55,0.94 0.84,0.84 0 0 0 0.07,0.16"
         class="cls-3"
         inkscape:connector-curvature="0"
         style="fill:#ffffff" />
      <path
         id="path10039"
         d="m 31.37,18.79 a 0.77,0.77 0 0 0 0.68,0.57 h 0.07 0.19 l 4.24,-1.1 a 0.77,0.77 0 0 0 0.56,-0.9 v 0 a 0.77,0.77 0 0 0 -0.59,-0.56 0.75,0.75 0 0 0 -0.35,0 l -4.24,1.1 a 0.77,0.77 0 0 0 -0.57,0.81 0.91,0.91 0 0 0 0,0.13"
         class="cls-3"
         inkscape:connector-curvature="0"
         style="fill:#ffffff" />
    </g>
  </g>
  <g
     inkscape:groupmode="layer"
     id="layer8"
     inkscape:label="Layer 2"
     transform="translate(-9.09,-2)"
     style="display:inline" />
</svg>
