<svg id="Layer_1" data-name="Layer 1" xmlns="http://www.w3.org/2000/svg" viewBox="0 0 531.91 74.17"><title>scene1_Text2_update1</title><path d="M29.34,6.65H25.5V20H23.42V6.65H19.61V5.07h9.73Z" style="fill:#58595b"/><path d="M32.93,10.39a3.58,3.58,0,0,1,1.13-1.24,2.7,2.7,0,0,1,1.51-.45A2.74,2.74,0,0,1,37.9,9.81a5.69,5.69,0,0,1,.83,3.4V20H36.65V13.19A4.08,4.08,0,0,0,36.2,11a1.51,1.51,0,0,0-1.33-.67,1.82,1.82,0,0,0-1.13.37,2.63,2.63,0,0,0-.81,1V20H30.84V4h2.09Z" style="fill:#58595b"/><path d="M45.09,20.22a4,4,0,0,1-3.17-1.38,5.18,5.18,0,0,1-1.19-3.51V13.71a5.49,5.49,0,0,1,1.16-3.59,3.65,3.65,0,0,1,3-1.42A3.46,3.46,0,0,1,47.75,10a5.42,5.42,0,0,1,1,3.46v1.43h-6v.45a4.18,4.18,0,0,0,.63,2.37,2,2,0,0,0,1.79.94,3.69,3.69,0,0,0,1.48-.27,4.14,4.14,0,0,0,1.17-.8l.65,1.29a3.9,3.9,0,0,1-1.4,1A5.17,5.17,0,0,1,45.09,20.22Zm-.24-9.94a1.64,1.64,0,0,0-1.44.88,4.55,4.55,0,0,0-.61,2.24h3.91V13A3.62,3.62,0,0,0,46.24,11,1.54,1.54,0,0,0,44.85,10.28Z" style="fill:#58595b"/><path d="M63.39,15.38a5.84,5.84,0,0,1-1,3.51,3.36,3.36,0,0,1-4.11,1,2.9,2.9,0,0,1-1-.93v5.3H55.19V8.91H57l.14,1.27a3.19,3.19,0,0,1,1.07-1.09,2.8,2.8,0,0,1,1.48-.39,3.08,3.08,0,0,1,2.7,1.46,6.88,6.88,0,0,1,1,3.85ZM61.31,14a5.75,5.75,0,0,0-.54-2.66,1.73,1.73,0,0,0-1.6-1A1.76,1.76,0,0,0,58,10.7a2.65,2.65,0,0,0-.76,1v5.61a2.19,2.19,0,0,0,.75.95,1.9,1.9,0,0,0,1.16.34,1.74,1.74,0,0,0,1.6-.9,4.63,4.63,0,0,0,.53-2.36Z" style="fill:#58595b"/><path d="M67.6,6H65.52V4H67.6Zm0,14H65.52V8.91H67.6Z" style="fill:#58595b"/><path d="M78.33,15.38a5.84,5.84,0,0,1-1,3.51,3.36,3.36,0,0,1-4.11,1A2.9,2.9,0,0,1,72.21,19v5.3H70.13V8.91H72l.14,1.27a3.19,3.19,0,0,1,1.07-1.09,2.8,2.8,0,0,1,1.48-.39,3.08,3.08,0,0,1,2.7,1.46,6.88,6.88,0,0,1,1,3.85ZM76.25,14a5.75,5.75,0,0,0-.54-2.66,1.73,1.73,0,0,0-1.6-1A1.76,1.76,0,0,0,73,10.7a2.65,2.65,0,0,0-.76,1v5.61a2.19,2.19,0,0,0,.75.95,1.9,1.9,0,0,0,1.16.34,1.74,1.74,0,0,0,1.6-.9,4.63,4.63,0,0,0,.53-2.36Z" style="fill:#58595b"/><path d="M84.34,20.22a4,4,0,0,1-3.17-1.38A5.18,5.18,0,0,1,80,15.33V13.71a5.44,5.44,0,0,1,1.17-3.59A3.64,3.64,0,0,1,84.1,8.7,3.49,3.49,0,0,1,87,10a5.48,5.48,0,0,1,1,3.46v1.43h-6v.45a4.18,4.18,0,0,0,.63,2.37,2,2,0,0,0,1.79.94A3.66,3.66,0,0,0,86,18.37a4.14,4.14,0,0,0,1.17-.8l.65,1.29a3.81,3.81,0,0,1-1.4,1A5.17,5.17,0,0,1,84.34,20.22Zm-.24-9.94a1.64,1.64,0,0,0-1.44.88,4.66,4.66,0,0,0-.61,2.24H86V13A3.62,3.62,0,0,0,85.49,11,1.54,1.54,0,0,0,84.1,10.28Z" style="fill:#58595b"/><path d="M92.08,20H90V4h2.08Z" style="fill:#58595b"/><path d="M96.82,6H94.74V4h2.08Zm0,14H94.74V8.91h2.08Z" style="fill:#58595b"/><path d="M101.23,8.91l.11,1.64a3.74,3.74,0,0,1,1.17-1.36,2.71,2.71,0,0,1,1.6-.49,2.66,2.66,0,0,1,2.26,1.08,5.57,5.57,0,0,1,.81,3.34V20H105.1V13.14a3.93,3.93,0,0,0-.44-2.18,1.5,1.5,0,0,0-1.33-.64,1.74,1.74,0,0,0-1.13.4,2.87,2.87,0,0,0-.8,1.07V20H99.32V8.91Z" style="fill:#58595b"/><path d="M113.55,20.22a4,4,0,0,1-3.17-1.38,5.18,5.18,0,0,1-1.19-3.51V13.71a5.44,5.44,0,0,1,1.17-3.59,3.64,3.64,0,0,1,3-1.42,3.49,3.49,0,0,1,2.9,1.29,5.42,5.42,0,0,1,1,3.46v1.43h-6v.45a4.18,4.18,0,0,0,.63,2.37,2,2,0,0,0,1.79.94,3.64,3.64,0,0,0,1.47-.27,4.14,4.14,0,0,0,1.17-.8l.66,1.29a3.94,3.94,0,0,1-1.41,1A5.14,5.14,0,0,1,113.55,20.22Zm-.23-9.94a1.66,1.66,0,0,0-1.45.88,4.66,4.66,0,0,0-.6,2.24h3.9V13A3.53,3.53,0,0,0,114.7,11,1.52,1.52,0,0,0,113.32,10.28Z" style="fill:#58595b"/><path d="M128.82,17.22a1.5,1.5,0,0,0-.43-1.09,5.31,5.31,0,0,0-1.6-1,8.23,8.23,0,0,1-2.54-1.42,2.51,2.51,0,0,1-.82-2,2.78,2.78,0,0,1,1-2.18,4.34,4.34,0,0,1,5.38.07,3.09,3.09,0,0,1,1,2.42l0,.06h-2a2.12,2.12,0,0,0-.45-1.36,1.47,1.47,0,0,0-1.23-.57,1.66,1.66,0,0,0-1.22.44,1.44,1.44,0,0,0-.43,1,1.33,1.33,0,0,0,.37,1,6.69,6.69,0,0,0,1.62,1A7.46,7.46,0,0,1,130,15.08a2.67,2.67,0,0,1,.85,2,2.79,2.79,0,0,1-1,2.24,4.23,4.23,0,0,1-2.75.86,3.94,3.94,0,0,1-2.89-1,3.16,3.16,0,0,1-1-2.44l0-.06h1.94a1.85,1.85,0,0,0,2,2,1.78,1.78,0,0,0,1.26-.42A1.35,1.35,0,0,0,128.82,17.22Z" style="fill:#58595b"/><path d="M138.64,18.52a3.44,3.44,0,0,1-1.12,1.26,2.91,2.91,0,0,1-1.58.44,2.74,2.74,0,0,1-2.35-1.16,6.17,6.17,0,0,1-.84-3.6V8.91h2.07v6.57a5.18,5.18,0,0,0,.4,2.41,1.32,1.32,0,0,0,1.22.72,2.23,2.23,0,0,0,1.29-.36,2.44,2.44,0,0,0,.82-1V8.91h2.08V20h-1.85Z" style="fill:#58595b"/><path d="M151.19,15.38a5.84,5.84,0,0,1-1,3.51,3.11,3.11,0,0,1-2.68,1.33,3.06,3.06,0,0,1-1.42-.32,3,3,0,0,1-1.06-.93v5.3H143V8.91h1.86l.13,1.27a3.13,3.13,0,0,1,1.08-1.09,2.74,2.74,0,0,1,1.47-.39,3.06,3.06,0,0,1,2.7,1.46,6.88,6.88,0,0,1,1,3.85ZM149.11,14a5.75,5.75,0,0,0-.54-2.66,1.72,1.72,0,0,0-1.6-1,1.8,1.8,0,0,0-1.14.38,2.76,2.76,0,0,0-.76,1v5.61a2.34,2.34,0,0,0,.75.95,1.92,1.92,0,0,0,1.16.34,1.75,1.75,0,0,0,1.61-.9,4.64,4.64,0,0,0,.52-2.36Z" style="fill:#58595b"/><path d="M161.4,15.38a5.77,5.77,0,0,1-1,3.51,3.35,3.35,0,0,1-4.1,1,2.9,2.9,0,0,1-1.05-.93v5.3h-2.09V8.91h1.86l.13,1.27a3.31,3.31,0,0,1,1.08-1.09,2.77,2.77,0,0,1,1.48-.39,3.05,3.05,0,0,1,2.69,1.46,6.8,6.8,0,0,1,1,3.85ZM159.32,14a5.75,5.75,0,0,0-.54-2.66,1.74,1.74,0,0,0-1.61-1,1.8,1.8,0,0,0-1.14.38,2.74,2.74,0,0,0-.75,1v5.61a2.24,2.24,0,0,0,.74.95,1.92,1.92,0,0,0,1.16.34,1.74,1.74,0,0,0,1.61-.9,4.63,4.63,0,0,0,.53-2.36Z" style="fill:#58595b"/><path d="M163,13.76a5.58,5.58,0,0,1,1.15-3.63,4.22,4.22,0,0,1,6.32,0,5.59,5.59,0,0,1,1.16,3.64v1.41a5.55,5.55,0,0,1-1.15,3.64,4.26,4.26,0,0,1-6.33,0A5.55,5.55,0,0,1,163,15.17Zm2.08,1.4a5,5,0,0,0,.55,2.5,1.93,1.93,0,0,0,3.36,0,5,5,0,0,0,.56-2.5V13.75a5,5,0,0,0-.56-2.49,1.93,1.93,0,0,0-3.36,0,5,5,0,0,0-.55,2.49Z" style="fill:#58595b"/><path d="M178.38,10.66l-1-.05a1.53,1.53,0,0,0-1.07.39,2.52,2.52,0,0,0-.65,1.1V20H173.6V8.91h1.9l.15,1.67a3.54,3.54,0,0,1,.91-1.38,1.93,1.93,0,0,1,1.3-.5,2.15,2.15,0,0,1,.43,0,1.1,1.1,0,0,1,.33.09Z" style="fill:#58595b"/><path d="M183.07,6.15V8.91h1.74v1.48h-1.74V17a2.19,2.19,0,0,0,.26,1.22.77.77,0,0,0,.67.37,3.19,3.19,0,0,0,.45,0l.5-.1.22,1.44a4.31,4.31,0,0,1-.79.23,4.43,4.43,0,0,1-.9.09,2.27,2.27,0,0,1-1.83-.78A3.77,3.77,0,0,1,181,17V10.39h-1.44V8.91H181V6.15Z" style="fill:#58595b"/><path d="M192,17.22a1.54,1.54,0,0,0-.43-1.09,5.44,5.44,0,0,0-1.6-1,8.11,8.11,0,0,1-2.54-1.42,2.52,2.52,0,0,1-.83-2,2.82,2.82,0,0,1,1-2.18,4.34,4.34,0,0,1,5.38.07,3.06,3.06,0,0,1,1,2.42l0,.06h-2a2.11,2.11,0,0,0-.44-1.36,1.49,1.49,0,0,0-1.24-.57,1.63,1.63,0,0,0-1.21.44,1.45,1.45,0,0,0-.44,1,1.33,1.33,0,0,0,.38,1,6.57,6.57,0,0,0,1.61,1,7.52,7.52,0,0,1,2.59,1.41,2.71,2.71,0,0,1,.85,2,2.77,2.77,0,0,1-1,2.24,4.21,4.21,0,0,1-2.75.86,4,4,0,0,1-2.89-1,3.15,3.15,0,0,1-1-2.44l0-.06h1.93a1.86,1.86,0,0,0,2,2,1.82,1.82,0,0,0,1.27-.42A1.38,1.38,0,0,0,192,17.22Z" style="fill:#58595b"/><path d="M206.22,20a7.33,7.33,0,0,1-.19-.74,4.55,4.55,0,0,1-.09-.73,4.1,4.1,0,0,1-1.16,1.22,2.72,2.72,0,0,1-1.55.47,2.82,2.82,0,0,1-2.2-.89,3.41,3.41,0,0,1-.79-2.37,3.09,3.09,0,0,1,1.08-2.5,4.58,4.58,0,0,1,3-.91h1.55V12.42a2.45,2.45,0,0,0-.45-1.57,1.54,1.54,0,0,0-1.28-.57,1.56,1.56,0,0,0-1.21.51,1.84,1.84,0,0,0-.45,1.27h-2l0-.06a2.84,2.84,0,0,1,1-2.28,3.91,3.91,0,0,1,2.78-1,3.74,3.74,0,0,1,2.66,1,3.64,3.64,0,0,1,1,2.76v5.15a10.1,10.1,0,0,0,.08,1.25,6.58,6.58,0,0,0,.25,1.17Zm-2.52-1.36a2.27,2.27,0,0,0,1.33-.43,2.59,2.59,0,0,0,.88-1.09V14.84h-1.58a1.84,1.84,0,0,0-1.48.62,2.24,2.24,0,0,0-.53,1.5,1.9,1.9,0,0,0,.36,1.21A1.22,1.22,0,0,0,203.7,18.64Z" style="fill:#58595b"/><path d="M218.79,18.64a1.67,1.67,0,0,0,1.31-.6,2.32,2.32,0,0,0,.53-1.61h1.87l0,.07a3.43,3.43,0,0,1-1.06,2.64,3.69,3.69,0,0,1-2.67,1.08,3.81,3.81,0,0,1-3.18-1.41,5.64,5.64,0,0,1-1.1-3.58V13.71a5.69,5.69,0,0,1,1.1-3.59,3.77,3.77,0,0,1,3.17-1.42,3.57,3.57,0,0,1,2.73,1.13,4,4,0,0,1,1,2.9l0,.06h-1.87a3,3,0,0,0-.5-1.81,1.58,1.58,0,0,0-1.35-.7,1.74,1.74,0,0,0-1.69,1,5.32,5.32,0,0,0-.5,2.44v1.54a5.31,5.31,0,0,0,.5,2.45A1.76,1.76,0,0,0,218.79,18.64Z" style="fill:#58595b"/><path d="M224,13.76a5.58,5.58,0,0,1,1.15-3.63,4.22,4.22,0,0,1,6.32,0,5.59,5.59,0,0,1,1.16,3.64v1.41a5.55,5.55,0,0,1-1.15,3.64,4.26,4.26,0,0,1-6.33,0A5.55,5.55,0,0,1,224,15.17Zm2.08,1.4a5,5,0,0,0,.55,2.5,1.93,1.93,0,0,0,3.36,0,5,5,0,0,0,.56-2.5V13.75a5,5,0,0,0-.56-2.49,1.93,1.93,0,0,0-3.36,0,5,5,0,0,0-.55,2.49Z" style="fill:#58595b"/><path d="M234.17,13.76a5.58,5.58,0,0,1,1.15-3.63,4.22,4.22,0,0,1,6.32,0,5.54,5.54,0,0,1,1.16,3.64v1.41a5.55,5.55,0,0,1-1.15,3.64,4.26,4.26,0,0,1-6.33,0,5.55,5.55,0,0,1-1.15-3.64Zm2.08,1.4a5.11,5.11,0,0,0,.55,2.5,1.84,1.84,0,0,0,1.7,1,1.81,1.81,0,0,0,1.66-1,5,5,0,0,0,.56-2.5V13.75a5,5,0,0,0-.56-2.49,1.93,1.93,0,0,0-3.36,0,5.1,5.1,0,0,0-.55,2.49Z" style="fill:#58595b"/><path d="M249.56,10.66l-1-.05a1.56,1.56,0,0,0-1.08.39,2.52,2.52,0,0,0-.65,1.1V20h-2.08V8.91h1.9l.15,1.67a3.55,3.55,0,0,1,.92-1.38,1.91,1.91,0,0,1,1.3-.5,2.12,2.12,0,0,1,.42,0,1.28,1.28,0,0,1,.34.09Z" style="fill:#58595b"/><path d="M250.69,14.59a8.28,8.28,0,0,1,1-4.27,3,3,0,0,1,2.7-1.62,2.79,2.79,0,0,1,1.39.35,3.15,3.15,0,0,1,1.05,1V4h2.07V20h-1.81l-.16-1.27a3.11,3.11,0,0,1-1.08,1.11,2.87,2.87,0,0,1-1.47.38,3,3,0,0,1-2.69-1.48,7.14,7.14,0,0,1-1-3.94Zm2.08.21a6.46,6.46,0,0,0,.5,2.78,1.67,1.67,0,0,0,1.59,1,1.89,1.89,0,0,0,1.16-.37,2.72,2.72,0,0,0,.77-1V11.81a3,3,0,0,0-.77-1.09,1.76,1.76,0,0,0-1.14-.4,1.7,1.7,0,0,0-1.6,1.18,7.9,7.9,0,0,0-.51,3.09Z" style="fill:#58595b"/><path d="M263.5,6h-2.09V4h2.09Zm0,14h-2.09V8.91h2.09Z" style="fill:#58595b"/><path d="M267.9,8.91l.12,1.64a3.56,3.56,0,0,1,1.17-1.36,2.71,2.71,0,0,1,1.6-.49,2.66,2.66,0,0,1,2.26,1.08,5.57,5.57,0,0,1,.81,3.34V20h-2.08V13.14a4,4,0,0,0-.44-2.18,1.5,1.5,0,0,0-1.33-.64,1.72,1.72,0,0,0-1.13.4,2.77,2.77,0,0,0-.8,1.07V20H266V8.91Z" style="fill:#58595b"/><path d="M281.87,20a5.3,5.3,0,0,1-.18-.74,6.09,6.09,0,0,1-.1-.73,4,4,0,0,1-1.16,1.22,2.71,2.71,0,0,1-1.54.47,2.8,2.8,0,0,1-2.2-.89,3.42,3.42,0,0,1-.8-2.37,3.09,3.09,0,0,1,1.08-2.5,4.58,4.58,0,0,1,3-.91h1.55V12.42a2.45,2.45,0,0,0-.45-1.57,1.54,1.54,0,0,0-1.28-.57,1.56,1.56,0,0,0-1.21.51,1.84,1.84,0,0,0-.45,1.27h-2l0-.06a2.87,2.87,0,0,1,1-2.28,3.93,3.93,0,0,1,2.78-1,3.72,3.72,0,0,1,2.66,1,3.64,3.64,0,0,1,1,2.76v5.15a10.1,10.1,0,0,0,.08,1.25A7.6,7.6,0,0,0,284,20Zm-2.51-1.36a2.29,2.29,0,0,0,1.33-.43,2.49,2.49,0,0,0,.87-1.09V14.84H280a1.85,1.85,0,0,0-1.48.62A2.24,2.24,0,0,0,278,17a1.9,1.9,0,0,0,.36,1.21A1.22,1.22,0,0,0,279.36,18.64Z" style="fill:#58595b"/><path d="M288.67,6.15V8.91h1.73v1.48h-1.73V17a2.2,2.2,0,0,0,.25,1.22.79.79,0,0,0,.67.37,3.33,3.33,0,0,0,.46,0l.49-.1.22,1.44a4,4,0,0,1-.78.23,4.43,4.43,0,0,1-.9.09,2.24,2.24,0,0,1-1.83-.78A3.71,3.71,0,0,1,286.6,17V10.39h-1.45V8.91h1.45V6.15Z" style="fill:#58595b"/><path d="M296.46,20.22a4,4,0,0,1-3.17-1.38,5.18,5.18,0,0,1-1.19-3.51V13.71a5.44,5.44,0,0,1,1.17-3.59,3.64,3.64,0,0,1,3-1.42,3.49,3.49,0,0,1,2.9,1.29,5.48,5.48,0,0,1,1,3.46v1.43h-6v.45a4.11,4.11,0,0,0,.64,2.37,2,2,0,0,0,1.78.94,3.66,3.66,0,0,0,1.48-.27,4.14,4.14,0,0,0,1.17-.8l.66,1.29a3.94,3.94,0,0,1-1.41,1A5.14,5.14,0,0,1,296.46,20.22Zm-.23-9.94a1.65,1.65,0,0,0-1.45.88,4.77,4.77,0,0,0-.61,2.24h3.91V13a3.62,3.62,0,0,0-.47-1.94A1.53,1.53,0,0,0,296.23,10.28Z" style="fill:#58595b"/><path d="M301.6,14.59a8.28,8.28,0,0,1,1-4.27,3,3,0,0,1,2.7-1.62,2.79,2.79,0,0,1,1.39.35,3.06,3.06,0,0,1,1.05,1V4h2.07V20H308l-.16-1.27a3.11,3.11,0,0,1-1.08,1.11,2.87,2.87,0,0,1-1.47.38,3,3,0,0,1-2.69-1.48,7.14,7.14,0,0,1-1-3.94Zm2.08.21a6.46,6.46,0,0,0,.5,2.78,1.67,1.67,0,0,0,1.59,1,1.89,1.89,0,0,0,1.16-.37,2.72,2.72,0,0,0,.77-1V11.81a3,3,0,0,0-.77-1.09,1.76,1.76,0,0,0-1.14-.4,1.7,1.7,0,0,0-1.6,1.18,7.9,7.9,0,0,0-.51,3.09Z" style="fill:#58595b"/><path d="M322.41,20c-.07-.25-.13-.5-.18-.74a4.55,4.55,0,0,1-.09-.73A4.22,4.22,0,0,1,321,19.75a2.75,2.75,0,0,1-1.55.47,2.8,2.8,0,0,1-2.2-.89,3.41,3.41,0,0,1-.79-2.37,3.09,3.09,0,0,1,1.08-2.5,4.56,4.56,0,0,1,3-.91h1.55V12.42a2.39,2.39,0,0,0-.46-1.57,1.7,1.7,0,0,0-2.48-.06,1.8,1.8,0,0,0-.46,1.27h-2l0-.06a2.88,2.88,0,0,1,1-2.28,3.91,3.91,0,0,1,2.78-1,3.74,3.74,0,0,1,2.66,1,3.64,3.64,0,0,1,1,2.76v5.15a8.47,8.47,0,0,0,.08,1.25,6.58,6.58,0,0,0,.25,1.17Zm-2.51-1.36a2.27,2.27,0,0,0,1.33-.43,2.59,2.59,0,0,0,.88-1.09V14.84h-1.58a1.84,1.84,0,0,0-1.48.62,2.19,2.19,0,0,0-.53,1.5,1.9,1.9,0,0,0,.36,1.21A1.22,1.22,0,0,0,319.9,18.64Z" style="fill:#58595b"/><path d="M328.44,8.91l.12,1.64a3.62,3.62,0,0,1,1.16-1.36,2.75,2.75,0,0,1,1.6-.49,2.68,2.68,0,0,1,2.27,1.08,5.57,5.57,0,0,1,.81,3.34V20h-2.08V13.14a4,4,0,0,0-.44-2.18,1.52,1.52,0,0,0-1.34-.64,1.69,1.69,0,0,0-1.12.4,2.77,2.77,0,0,0-.8,1.07V20h-2.09V8.91Z" style="fill:#58595b"/><path d="M336.37,14.59a8.28,8.28,0,0,1,1-4.27A3,3,0,0,1,340,8.7a2.79,2.79,0,0,1,1.39.35,3.06,3.06,0,0,1,1.05,1V4h2.07V20h-1.81l-.16-1.27a3.11,3.11,0,0,1-1.08,1.11,2.87,2.87,0,0,1-1.47.38,3,3,0,0,1-2.69-1.48,7.14,7.14,0,0,1-1-3.94Zm2.08.21a6.46,6.46,0,0,0,.5,2.78,1.67,1.67,0,0,0,1.59,1,1.89,1.89,0,0,0,1.16-.37,2.72,2.72,0,0,0,.77-1V11.81a3,3,0,0,0-.77-1.09,1.76,1.76,0,0,0-1.14-.4A1.7,1.7,0,0,0,339,11.5a7.9,7.9,0,0,0-.51,3.09Z" style="fill:#58595b"/><path d="M353.75,6h-2.08V4h2.08Zm0,14h-2.08V8.91h2.08Z" style="fill:#58595b"/><path d="M358.16,8.91l.11,1.64a3.74,3.74,0,0,1,1.17-1.36A2.73,2.73,0,0,1,361,8.7a2.68,2.68,0,0,1,2.27,1.08,5.57,5.57,0,0,1,.81,3.34V20H362V13.14a3.93,3.93,0,0,0-.44-2.18,1.49,1.49,0,0,0-1.33-.64,1.74,1.74,0,0,0-1.13.4,3,3,0,0,0-.8,1.07V20h-2.08V8.91Z" style="fill:#58595b"/><path d="M369.13,6.15V8.91h1.73v1.48h-1.73V17a2.19,2.19,0,0,0,.26,1.22.76.76,0,0,0,.66.37,3.23,3.23,0,0,0,.46,0l.5-.1.21,1.44a4,4,0,0,1-.78.23,4.43,4.43,0,0,1-.9.09,2.25,2.25,0,0,1-1.83-.78,3.77,3.77,0,0,1-.65-2.44V10.39h-1.45V8.91h1.45V6.15Z" style="fill:#58595b"/><path d="M376.92,20.22a4,4,0,0,1-3.16-1.38,5.13,5.13,0,0,1-1.19-3.51V13.71a5.43,5.43,0,0,1,1.16-3.59,3.65,3.65,0,0,1,3-1.42,3.47,3.47,0,0,1,2.9,1.29,5.42,5.42,0,0,1,1,3.46v1.43h-6v.45a4.18,4.18,0,0,0,.63,2.37,2,2,0,0,0,1.79.94,3.64,3.64,0,0,0,1.47-.27,4.14,4.14,0,0,0,1.17-.8l.66,1.29a3.94,3.94,0,0,1-1.41,1A5.1,5.1,0,0,1,376.92,20.22Zm-.23-9.94a1.66,1.66,0,0,0-1.45.88,4.66,4.66,0,0,0-.6,2.24h3.9V13a3.53,3.53,0,0,0-.47-1.94A1.51,1.51,0,0,0,376.69,10.28Z" style="fill:#58595b"/><path d="M382.06,14a6.85,6.85,0,0,1,1-3.85,3.1,3.1,0,0,1,2.72-1.46,2.69,2.69,0,0,1,1.48.4,3.32,3.32,0,0,1,1.09,1.14l.15-1.33h1.8V20a4.64,4.64,0,0,1-1.14,3.33,4.13,4.13,0,0,1-3.16,1.2,5.81,5.81,0,0,1-1.49-.21,5.71,5.71,0,0,1-1.42-.59l.44-1.55a4.74,4.74,0,0,0,1.15.49,4.64,4.64,0,0,0,1.3.18,2,2,0,0,0,1.69-.73,3.52,3.52,0,0,0,.54-2.13v-1a2.86,2.86,0,0,1-2.45,1.28,3.18,3.18,0,0,1-2.7-1.33,5.82,5.82,0,0,1-1-3.51Zm2.08,1.37a4.55,4.55,0,0,0,.52,2.35,1.71,1.71,0,0,0,1.61.88,1.91,1.91,0,0,0,1.15-.35,2.36,2.36,0,0,0,.77-1V11.75a2.72,2.72,0,0,0-.78-1,1.79,1.79,0,0,0-2.74.64,5.82,5.82,0,0,0-.53,2.66Z" style="fill:#58595b"/><path d="M397.42,10.66l-1-.05a1.52,1.52,0,0,0-1.07.39,2.34,2.34,0,0,0-.65,1.1V20h-2.09V8.91h1.9l.15,1.67a3.55,3.55,0,0,1,.92-1.38,1.91,1.91,0,0,1,1.3-.5,2,2,0,0,1,.42,0,1.18,1.18,0,0,1,.34.09Z" style="fill:#58595b"/><path d="M404.78,20c-.07-.25-.13-.5-.18-.74a4.55,4.55,0,0,1-.09-.73,4.22,4.22,0,0,1-1.16,1.22,2.75,2.75,0,0,1-1.55.47,2.8,2.8,0,0,1-2.2-.89,3.41,3.41,0,0,1-.79-2.37,3.09,3.09,0,0,1,1.08-2.5,4.56,4.56,0,0,1,3-.91h1.55V12.42a2.45,2.45,0,0,0-.46-1.57,1.7,1.7,0,0,0-2.48-.06,1.8,1.8,0,0,0-.46,1.27h-2l0-.06a2.88,2.88,0,0,1,1-2.28,3.91,3.91,0,0,1,2.78-1,3.74,3.74,0,0,1,2.66,1,3.64,3.64,0,0,1,1,2.76v5.15a10.13,10.13,0,0,0,.07,1.25,7.62,7.62,0,0,0,.26,1.17Zm-2.51-1.36a2.27,2.27,0,0,0,1.33-.43,2.59,2.59,0,0,0,.88-1.09V14.84H402.9a1.87,1.87,0,0,0-1.49.62,2.23,2.23,0,0,0-.52,1.5,1.9,1.9,0,0,0,.36,1.21A1.22,1.22,0,0,0,402.27,18.64Z" style="fill:#58595b"/><path d="M411.58,6.15V8.91h1.74v1.48h-1.74V17a2.19,2.19,0,0,0,.26,1.22.76.76,0,0,0,.66.37,3.23,3.23,0,0,0,.46,0l.5-.1.21,1.44a4,4,0,0,1-.78.23,4.43,4.43,0,0,1-.9.09,2.27,2.27,0,0,1-1.83-.78,3.77,3.77,0,0,1-.65-2.44V10.39h-1.44V8.91h1.44V6.15Z" style="fill:#58595b"/><path d="M419.38,20.22a4,4,0,0,1-3.17-1.38A5.13,5.13,0,0,1,415,15.33V13.71a5.43,5.43,0,0,1,1.16-3.59,3.65,3.65,0,0,1,3-1.42A3.47,3.47,0,0,1,422,10a5.42,5.42,0,0,1,1,3.46v1.43h-6v.45a4.18,4.18,0,0,0,.63,2.37,2,2,0,0,0,1.79.94,3.72,3.72,0,0,0,1.48-.27,4.1,4.1,0,0,0,1.16-.8l.66,1.29a3.94,3.94,0,0,1-1.41,1A5.09,5.09,0,0,1,419.38,20.22Zm-.24-9.94a1.67,1.67,0,0,0-1.45.88,4.66,4.66,0,0,0-.6,2.24H421V13a3.53,3.53,0,0,0-.47-1.94A1.51,1.51,0,0,0,419.14,10.28Z" style="fill:#58595b"/><path d="M424.51,14.59a8.28,8.28,0,0,1,1-4.27,3,3,0,0,1,2.7-1.62,2.76,2.76,0,0,1,1.39.35,3.06,3.06,0,0,1,1.05,1V4h2.08V20h-1.82l-.15-1.27a3.29,3.29,0,0,1-1.08,1.11,2.88,2.88,0,0,1-1.48.38,3.05,3.05,0,0,1-2.69-1.48,7.14,7.14,0,0,1-1-3.94Zm2.08.21a6.3,6.3,0,0,0,.51,2.78,1.65,1.65,0,0,0,1.59,1,1.86,1.86,0,0,0,1.15-.37,2.53,2.53,0,0,0,.77-1V11.81a2.79,2.79,0,0,0-.77-1.09,1.75,1.75,0,0,0-1.13-.4,1.69,1.69,0,0,0-1.6,1.18,7.89,7.89,0,0,0-.52,3.09Z" style="fill:#58595b"/><path d="M445.33,20a7.33,7.33,0,0,1-.19-.74c0-.24-.07-.49-.09-.73a4.1,4.1,0,0,1-1.16,1.22,2.72,2.72,0,0,1-1.55.47,2.78,2.78,0,0,1-2.19-.89,3.37,3.37,0,0,1-.8-2.37,3.09,3.09,0,0,1,1.08-2.5,4.58,4.58,0,0,1,3-.91H445V12.42a2.45,2.45,0,0,0-.45-1.57,1.54,1.54,0,0,0-1.28-.57,1.56,1.56,0,0,0-1.21.51,1.84,1.84,0,0,0-.45,1.27h-2l0-.06a2.84,2.84,0,0,1,1-2.28,3.93,3.93,0,0,1,2.78-1,3.74,3.74,0,0,1,2.66,1,3.64,3.64,0,0,1,1,2.76v5.15a10.1,10.1,0,0,0,.08,1.25,6.58,6.58,0,0,0,.25,1.17Zm-2.51-1.36a2.26,2.26,0,0,0,1.32-.43,2.51,2.51,0,0,0,.88-1.09V14.84h-1.58a1.85,1.85,0,0,0-1.48.62,2.24,2.24,0,0,0-.53,1.5,1.9,1.9,0,0,0,.36,1.21A1.22,1.22,0,0,0,442.82,18.64Z" style="fill:#58595b"/><path d="M457.67,15.38a5.84,5.84,0,0,1-1,3.51A3.12,3.12,0,0,1,454,20.22a3.06,3.06,0,0,1-1.42-.32,2.93,2.93,0,0,1-1.06-.93v5.3h-2.08V8.91h1.85l.14,1.27a3.13,3.13,0,0,1,1.08-1.09A2.74,2.74,0,0,1,454,8.7a3.06,3.06,0,0,1,2.7,1.46,6.88,6.88,0,0,1,1,3.85ZM455.59,14a5.75,5.75,0,0,0-.54-2.66,1.73,1.73,0,0,0-1.6-1,1.76,1.76,0,0,0-1.14.38,2.65,2.65,0,0,0-.76,1v5.61a2.34,2.34,0,0,0,.75.95,1.9,1.9,0,0,0,1.16.34,1.73,1.73,0,0,0,1.6-.9,4.63,4.63,0,0,0,.53-2.36Z" style="fill:#58595b"/><path d="M467.88,15.38a5.84,5.84,0,0,1-1,3.51,3.35,3.35,0,0,1-4.1,1,3,3,0,0,1-1.06-.93v5.3h-2.08V8.91h1.86l.13,1.27a3.22,3.22,0,0,1,1.08-1.09,2.75,2.75,0,0,1,1.48-.39,3.05,3.05,0,0,1,2.69,1.46,6.88,6.88,0,0,1,1,3.85ZM465.79,14a5.88,5.88,0,0,0-.53-2.66,1.74,1.74,0,0,0-1.61-1,1.8,1.8,0,0,0-1.14.38,2.76,2.76,0,0,0-.76,1v5.61a2.34,2.34,0,0,0,.75.95,1.92,1.92,0,0,0,1.16.34,1.75,1.75,0,0,0,1.61-.9,4.64,4.64,0,0,0,.52-2.36Z" style="fill:#58595b"/><path d="M474.65,10.66l-1-.05a1.52,1.52,0,0,0-1.07.39,2.43,2.43,0,0,0-.65,1.1V20h-2.08V8.91h1.89l.16,1.67a3.43,3.43,0,0,1,.91-1.38,1.91,1.91,0,0,1,1.3-.5,2,2,0,0,1,.42,0,1.09,1.09,0,0,1,.34.09Z" style="fill:#58595b"/><path d="M475.75,13.76a5.63,5.63,0,0,1,1.15-3.63,4.23,4.23,0,0,1,6.33,0,5.59,5.59,0,0,1,1.15,3.64v1.41a5.55,5.55,0,0,1-1.15,3.64,4.26,4.26,0,0,1-6.33,0,5.61,5.61,0,0,1-1.15-3.64Zm2.08,1.4a5,5,0,0,0,.56,2.5,1.92,1.92,0,0,0,3.35,0,4.9,4.9,0,0,0,.56-2.5V13.75a4.93,4.93,0,0,0-.56-2.49,1.92,1.92,0,0,0-3.35,0,5,5,0,0,0-.56,2.49Z" style="fill:#58595b"/><path d="M492,20c-.07-.25-.13-.5-.18-.74a4.55,4.55,0,0,1-.09-.73,4.22,4.22,0,0,1-1.16,1.22,2.75,2.75,0,0,1-1.55.47,2.8,2.8,0,0,1-2.2-.89A3.41,3.41,0,0,1,486,17a3.09,3.09,0,0,1,1.08-2.5,4.56,4.56,0,0,1,3-.91h1.55V12.42a2.39,2.39,0,0,0-.46-1.57,1.7,1.7,0,0,0-2.48-.06,1.8,1.8,0,0,0-.46,1.27h-2l0-.06a2.88,2.88,0,0,1,1-2.28,3.91,3.91,0,0,1,2.78-1,3.74,3.74,0,0,1,2.66,1,3.64,3.64,0,0,1,1,2.76v5.15a10.13,10.13,0,0,0,.07,1.25,7.62,7.62,0,0,0,.26,1.17Zm-2.51-1.36a2.27,2.27,0,0,0,1.33-.43,2.59,2.59,0,0,0,.88-1.09V14.84h-1.58a1.84,1.84,0,0,0-1.48.62,2.19,2.19,0,0,0-.53,1.5,1.9,1.9,0,0,0,.36,1.21A1.22,1.22,0,0,0,489.5,18.64Z" style="fill:#58595b"/><path d="M500,18.64a1.67,1.67,0,0,0,1.31-.6,2.32,2.32,0,0,0,.54-1.61h1.86l0,.07a3.39,3.39,0,0,1-1.06,2.64A3.66,3.66,0,0,1,500,20.22a3.78,3.78,0,0,1-3.17-1.41,5.58,5.58,0,0,1-1.1-3.58V13.71a5.63,5.63,0,0,1,1.1-3.59A3.75,3.75,0,0,1,500,8.7a3.6,3.6,0,0,1,2.74,1.13,3.9,3.9,0,0,1,1,2.9l0,.06h-1.86a3,3,0,0,0-.51-1.81,1.58,1.58,0,0,0-1.35-.7,1.73,1.73,0,0,0-1.68,1,5.2,5.2,0,0,0-.5,2.44v1.54a5.18,5.18,0,0,0,.5,2.45A1.74,1.74,0,0,0,500,18.64Z" style="fill:#58595b"/><path d="M507.65,10.39a3.7,3.7,0,0,1,1.14-1.24,2.65,2.65,0,0,1,1.51-.45,2.73,2.73,0,0,1,2.32,1.11,5.62,5.62,0,0,1,.83,3.4V20h-2.08V13.19a4.19,4.19,0,0,0-.44-2.2,1.51,1.51,0,0,0-1.33-.67,1.82,1.82,0,0,0-1.13.37,2.56,2.56,0,0,0-.82,1V20h-2.08V4h2.08Z" style="fill:#58595b"/><path d="M14,31.35v2.76H15.7v1.48H14V42.2a2.2,2.2,0,0,0,.25,1.22.78.78,0,0,0,.67.37,3.33,3.33,0,0,0,.46,0,4.27,4.27,0,0,0,.49-.1l.22,1.44a4.09,4.09,0,0,1-.79.23,4.41,4.41,0,0,1-.89.09,2.24,2.24,0,0,1-1.83-.78,3.71,3.71,0,0,1-.65-2.44V35.59H10.45V34.11H11.9V31.35Z" style="fill:#58595b"/><path d="M17.13,39a5.58,5.58,0,0,1,1.16-3.63,3.85,3.85,0,0,1,3.16-1.43,3.88,3.88,0,0,1,3.16,1.42A5.59,5.59,0,0,1,25.77,39v1.41A5.61,5.61,0,0,1,24.62,44a3.86,3.86,0,0,1-3.16,1.41A3.88,3.88,0,0,1,18.29,44a5.55,5.55,0,0,1-1.16-3.64Zm2.09,1.4a5,5,0,0,0,.55,2.5,1.93,1.93,0,0,0,3.36,0,5,5,0,0,0,.56-2.5V39a5,5,0,0,0-.56-2.49,1.93,1.93,0,0,0-3.36,0A5,5,0,0,0,19.22,39Z" style="fill:#58595b"/><path d="M40.52,40.58a5.84,5.84,0,0,1-1,3.51,3.11,3.11,0,0,1-2.68,1.33,3.06,3.06,0,0,1-1.42-.32,3,3,0,0,1-1.06-.93v5.3H32.32V34.11h1.86l.13,1.27a3.13,3.13,0,0,1,1.08-1.09,2.74,2.74,0,0,1,1.47-.39,3.06,3.06,0,0,1,2.7,1.46,6.88,6.88,0,0,1,1,3.85Zm-2.08-1.37a5.75,5.75,0,0,0-.54-2.66,1.72,1.72,0,0,0-1.6-1,1.8,1.8,0,0,0-1.14.38,2.76,2.76,0,0,0-.76,1v5.61a2.34,2.34,0,0,0,.75,1,1.92,1.92,0,0,0,1.16.34,1.73,1.73,0,0,0,1.6-.9,4.53,4.53,0,0,0,.53-2.36Z" style="fill:#58595b"/><path d="M44.74,45.2H42.66v-16h2.08Z" style="fill:#58595b"/><path d="M52.91,45.2a7.22,7.22,0,0,1-.18-.74,6.09,6.09,0,0,1-.1-.73A4.06,4.06,0,0,1,51.48,45a2.77,2.77,0,0,1-1.55.47,2.8,2.8,0,0,1-2.2-.89,3.42,3.42,0,0,1-.8-2.37A3.09,3.09,0,0,1,48,39.66a4.6,4.6,0,0,1,3-.91H52.6V37.62a2.45,2.45,0,0,0-.45-1.57,1.54,1.54,0,0,0-1.28-.57,1.52,1.52,0,0,0-1.2.51,1.8,1.8,0,0,0-.46,1.27h-2l0-.06a2.9,2.9,0,0,1,1-2.28,3.93,3.93,0,0,1,2.78-1,3.72,3.72,0,0,1,2.66,1,3.64,3.64,0,0,1,1,2.76v5.15A10.1,10.1,0,0,0,54.76,44,7.6,7.6,0,0,0,55,45.2ZM50.4,43.84a2.29,2.29,0,0,0,1.33-.43,2.49,2.49,0,0,0,.87-1.09V40H51a1.85,1.85,0,0,0-1.48.62,2.24,2.24,0,0,0-.53,1.5,1.94,1.94,0,0,0,.36,1.22A1.24,1.24,0,0,0,50.4,43.84Z" style="fill:#58595b"/><path d="M58.94,34.11l.11,1.64a3.74,3.74,0,0,1,1.17-1.36,2.73,2.73,0,0,1,1.6-.49A2.68,2.68,0,0,1,64.09,35a5.57,5.57,0,0,1,.81,3.34V45.2H62.82V38.34a4,4,0,0,0-.44-2.18A1.52,1.52,0,0,0,61,35.52a1.74,1.74,0,0,0-1.13.4,3,3,0,0,0-.8,1.07V45.2H57V34.11Z" style="fill:#58595b"/><path d="M69.14,34.11l.12,1.64a3.62,3.62,0,0,1,1.16-1.36A2.75,2.75,0,0,1,72,33.9,2.68,2.68,0,0,1,74.29,35a5.57,5.57,0,0,1,.81,3.34V45.2H73V38.34a4,4,0,0,0-.44-2.18,1.52,1.52,0,0,0-1.34-.64,1.69,1.69,0,0,0-1.12.4,2.77,2.77,0,0,0-.8,1.07V45.2H67.24V34.11Z" style="fill:#58595b"/><path d="M79.67,31.2H77.59v-2h2.08Zm0,14H77.59V34.11h2.08Z" style="fill:#58595b"/><path d="M84.08,34.11l.12,1.64a3.62,3.62,0,0,1,1.16-1.36A2.75,2.75,0,0,1,87,33.9,2.68,2.68,0,0,1,89.23,35,5.57,5.57,0,0,1,90,38.32V45.2H88V38.34a4,4,0,0,0-.44-2.18,1.52,1.52,0,0,0-1.34-.64,1.69,1.69,0,0,0-1.12.4,2.77,2.77,0,0,0-.8,1.07V45.2H82.18V34.11Z" style="fill:#58595b"/><path d="M92,39.21a6.85,6.85,0,0,1,1-3.85,3.1,3.1,0,0,1,2.72-1.46,2.71,2.71,0,0,1,1.48.4,3.3,3.3,0,0,1,1.08,1.14l.16-1.33h1.79v11a4.68,4.68,0,0,1-1.13,3.33,4.14,4.14,0,0,1-3.16,1.2,6,6,0,0,1-2.92-.8l.44-1.55a4.92,4.92,0,0,0,1.15.49,4.71,4.71,0,0,0,1.31.18,2,2,0,0,0,1.68-.73,3.45,3.45,0,0,0,.55-2.13v-1a2.86,2.86,0,0,1-2.45,1.28A3.18,3.18,0,0,1,93,44.09a5.81,5.81,0,0,1-1-3.51Zm2.08,1.37a4.66,4.66,0,0,0,.51,2.35,1.72,1.72,0,0,0,1.61.88,1.94,1.94,0,0,0,1.16-.35,2.53,2.53,0,0,0,.77-1V37a2.72,2.72,0,0,0-.78-1,1.79,1.79,0,0,0-2.74.64,5.82,5.82,0,0,0-.53,2.66Z" style="fill:#58595b"/><path d="M104.49,45l-1.3,3h-1.25l.61-3.1V43h1.94Z" style="fill:#58595b"/><path d="M119.44,40.58a5.77,5.77,0,0,1-1,3.51,3.35,3.35,0,0,1-4.1,1,2.9,2.9,0,0,1-1.05-.93v5.3h-2.08V34.11h1.85l.13,1.27a3.31,3.31,0,0,1,1.08-1.09,2.77,2.77,0,0,1,1.48-.39,3.05,3.05,0,0,1,2.69,1.46,6.8,6.8,0,0,1,1,3.85Zm-2.08-1.37a5.75,5.75,0,0,0-.54-2.66,1.81,1.81,0,0,0-2.74-.65,2.65,2.65,0,0,0-.76,1v5.61a2.19,2.19,0,0,0,.75,1,1.89,1.89,0,0,0,1.15.34,1.74,1.74,0,0,0,1.61-.9,4.63,4.63,0,0,0,.53-2.36Z" style="fill:#58595b"/><path d="M126.22,35.86l-1,0a1.52,1.52,0,0,0-1.07.39,2.52,2.52,0,0,0-.65,1.1v7.9h-2.08V34.11h1.89l.16,1.67a3.54,3.54,0,0,1,.91-1.38,1.93,1.93,0,0,1,1.3-.5,2,2,0,0,1,.42,0,1.09,1.09,0,0,1,.34.09Z" style="fill:#58595b"/><path d="M130.14,31.2h-2.08v-2h2.08Zm0,14h-2.08V34.11h2.08Z" style="fill:#58595b"/><path d="M132.26,39a5.58,5.58,0,0,1,1.15-3.63,4.22,4.22,0,0,1,6.32,0A5.59,5.59,0,0,1,140.89,39v1.41A5.61,5.61,0,0,1,139.74,44a4.26,4.26,0,0,1-6.33,0,5.55,5.55,0,0,1-1.15-3.64Zm2.08,1.4a5,5,0,0,0,.55,2.5,1.93,1.93,0,0,0,3.36,0,5,5,0,0,0,.56-2.5V39a5,5,0,0,0-.56-2.49,1.93,1.93,0,0,0-3.36,0,5,5,0,0,0-.55,2.49Z" style="fill:#58595b"/><path d="M147.65,35.86l-1,0a1.52,1.52,0,0,0-1.07.39,2.52,2.52,0,0,0-.65,1.1v7.9h-2.08V34.11h1.9l.15,1.67a3.54,3.54,0,0,1,.91-1.38,1.93,1.93,0,0,1,1.3-.5,2,2,0,0,1,.42,0,1.09,1.09,0,0,1,.34.09Z" style="fill:#58595b"/><path d="M151.57,31.2h-2.08v-2h2.08Zm0,14h-2.08V34.11h2.08Z" style="fill:#58595b"/><path d="M156.75,31.35v2.76h1.74v1.48h-1.74V42.2a2.19,2.19,0,0,0,.26,1.22.76.76,0,0,0,.66.37,3.23,3.23,0,0,0,.46,0,4.39,4.39,0,0,0,.5-.1l.21,1.44a4,4,0,0,1-.78.23,4.43,4.43,0,0,1-.9.09,2.27,2.27,0,0,1-1.83-.78,3.77,3.77,0,0,1-.65-2.44V35.59h-1.44V34.11h1.44V31.35Z" style="fill:#58595b"/><path d="M162.75,31.2h-2.08v-2h2.08Zm0,14h-2.08V34.11h2.08Z" style="fill:#58595b"/><path d="M170.44,42.42a1.53,1.53,0,0,0-.42-1.09,5.53,5.53,0,0,0-1.61-1,8.23,8.23,0,0,1-2.54-1.42,2.51,2.51,0,0,1-.82-2,2.78,2.78,0,0,1,1-2.18,4.34,4.34,0,0,1,5.38.07,3.09,3.09,0,0,1,1,2.42l0,.06h-2a2.12,2.12,0,0,0-.45-1.36,1.47,1.47,0,0,0-1.23-.57,1.66,1.66,0,0,0-1.22.44,1.44,1.44,0,0,0-.43,1,1.33,1.33,0,0,0,.37,1,6.69,6.69,0,0,0,1.62,1,7.45,7.45,0,0,1,2.59,1.42,2.66,2.66,0,0,1,.84,2,2.79,2.79,0,0,1-1,2.24,4.23,4.23,0,0,1-2.75.86,3.94,3.94,0,0,1-2.89-1,3.16,3.16,0,0,1-1-2.44l0-.06h1.94a2.08,2.08,0,0,0,.59,1.55,2,2,0,0,0,1.38.48A1.86,1.86,0,0,0,170,43.5,1.41,1.41,0,0,0,170.44,42.42Z" style="fill:#58595b"/><path d="M176.62,31.2h-2.08v-2h2.08Zm0,14h-2.08V34.11h2.08Z" style="fill:#58595b"/><path d="M181,34.11l.12,1.64a3.56,3.56,0,0,1,1.17-1.36,2.7,2.7,0,0,1,1.59-.49A2.67,2.67,0,0,1,186.18,35a5.57,5.57,0,0,1,.81,3.34V45.2h-2.08V38.34a4,4,0,0,0-.44-2.18,1.51,1.51,0,0,0-1.33-.64,1.72,1.72,0,0,0-1.13.4,2.77,2.77,0,0,0-.8,1.07V45.2h-2.08V34.11Z" style="fill:#58595b"/><path d="M189,39.21a6.85,6.85,0,0,1,1-3.85,3.1,3.1,0,0,1,2.72-1.46,2.71,2.71,0,0,1,1.48.4,3.3,3.3,0,0,1,1.08,1.14l.16-1.33h1.79v11A4.64,4.64,0,0,1,196,48.48a4.14,4.14,0,0,1-3.16,1.2,6,6,0,0,1-2.92-.8l.45-1.55a4.77,4.77,0,0,0,2.45.67,2,2,0,0,0,1.68-.73,3.45,3.45,0,0,0,.55-2.13v-1a2.86,2.86,0,0,1-2.45,1.28,3.2,3.2,0,0,1-2.71-1.33,5.81,5.81,0,0,1-1-3.51ZM191,40.58a4.66,4.66,0,0,0,.51,2.35,1.73,1.73,0,0,0,1.61.88,1.94,1.94,0,0,0,1.16-.35,2.45,2.45,0,0,0,.77-1V37a2.72,2.72,0,0,0-.78-1,1.79,1.79,0,0,0-2.74.64,5.82,5.82,0,0,0-.53,2.66Z" style="fill:#58595b"/><path d="M201.44,45l-1.3,3H198.9l.6-3.1V43h1.94Z" style="fill:#58595b"/><path d="M208.91,45.2V35.59h-1.43V34.11h1.43V32.68a4.06,4.06,0,0,1,.85-2.73,3,3,0,0,1,2.37-1,3.23,3.23,0,0,1,.61.06,6.28,6.28,0,0,1,.71.16l-.21,1.52-.39-.08a3.33,3.33,0,0,0-.46,0,1.18,1.18,0,0,0-1,.53,2.75,2.75,0,0,0-.35,1.53v1.43h1.93v1.48H211V45.2Z" style="fill:#58595b"/><path d="M220.43,43.72A3.47,3.47,0,0,1,219.3,45a2.89,2.89,0,0,1-1.58.44,2.75,2.75,0,0,1-2.35-1.16,6.17,6.17,0,0,1-.84-3.6V34.11h2.07v6.57a5.15,5.15,0,0,0,.41,2.41,1.3,1.3,0,0,0,1.21.72,2.18,2.18,0,0,0,1.29-.36,2.46,2.46,0,0,0,.83-1V34.11h2.08V45.2h-1.86Z" style="fill:#58595b"/><path d="M226.66,34.11l.12,1.64a3.62,3.62,0,0,1,1.16-1.36,2.75,2.75,0,0,1,1.6-.49A2.67,2.67,0,0,1,231.81,35a5.57,5.57,0,0,1,.81,3.34V45.2h-2.08V38.34a4,4,0,0,0-.44-2.18,1.51,1.51,0,0,0-1.33-.64,1.72,1.72,0,0,0-1.13.4,2.77,2.77,0,0,0-.8,1.07V45.2h-2.08V34.11Z" style="fill:#58595b"/><path d="M234.59,39.79a8.28,8.28,0,0,1,1-4.27,3,3,0,0,1,2.7-1.62,2.79,2.79,0,0,1,1.39.35,3.06,3.06,0,0,1,1.05,1v-6h2.07v16H241l-.16-1.27A3,3,0,0,1,239.71,45a2.87,2.87,0,0,1-1.47.38,3,3,0,0,1-2.69-1.48,7.14,7.14,0,0,1-1-3.94Zm2.08.21a6.46,6.46,0,0,0,.5,2.78,1.67,1.67,0,0,0,1.59,1,1.89,1.89,0,0,0,1.16-.37,2.72,2.72,0,0,0,.77-1V37a3,3,0,0,0-.77-1.09,1.76,1.76,0,0,0-1.14-.4,1.71,1.71,0,0,0-1.6,1.18,7.9,7.9,0,0,0-.51,3.09Z" style="fill:#58595b"/><path d="M247.4,31.2h-2.08v-2h2.08Zm0,14h-2.08V34.11h2.08Z" style="fill:#58595b"/><path d="M251.81,34.11l.11,1.64a3.74,3.74,0,0,1,1.17-1.36,2.71,2.71,0,0,1,1.6-.49A2.66,2.66,0,0,1,257,35a5.57,5.57,0,0,1,.81,3.34V45.2h-2.08V38.34a4,4,0,0,0-.44-2.18,1.5,1.5,0,0,0-1.33-.64,1.72,1.72,0,0,0-1.13.4A2.87,2.87,0,0,0,252,37V45.2H249.9V34.11Z" style="fill:#58595b"/><path d="M259.73,39.21a6.85,6.85,0,0,1,1-3.85,3.1,3.1,0,0,1,2.72-1.46,2.69,2.69,0,0,1,1.48.4A3.32,3.32,0,0,1,266,35.44l.15-1.33h1.79v11a4.64,4.64,0,0,1-1.13,3.33,4.13,4.13,0,0,1-3.16,1.2,5.81,5.81,0,0,1-1.49-.21,5.71,5.71,0,0,1-1.42-.59l.44-1.55a4.74,4.74,0,0,0,1.15.49,4.64,4.64,0,0,0,1.3.18,2,2,0,0,0,1.69-.73,3.52,3.52,0,0,0,.54-2.13v-1a2.86,2.86,0,0,1-2.45,1.28,3.18,3.18,0,0,1-2.7-1.33,5.82,5.82,0,0,1-1-3.51Zm2.08,1.37a4.55,4.55,0,0,0,.52,2.35,1.71,1.71,0,0,0,1.61.88,1.91,1.91,0,0,0,1.15-.35,2.36,2.36,0,0,0,.77-1V37a2.72,2.72,0,0,0-.78-1,1.79,1.79,0,0,0-2.74.64,5.82,5.82,0,0,0-.53,2.66Z" style="fill:#58595b"/><path d="M280.54,45.2a7.33,7.33,0,0,1-.19-.74,4.55,4.55,0,0,1-.09-.73A4.1,4.1,0,0,1,279.1,45a2.72,2.72,0,0,1-1.55.47,2.82,2.82,0,0,1-2.2-.89,3.41,3.41,0,0,1-.79-2.37,3.09,3.09,0,0,1,1.08-2.5,4.58,4.58,0,0,1,3-.91h1.55V37.62a2.45,2.45,0,0,0-.45-1.57,1.54,1.54,0,0,0-1.28-.57,1.56,1.56,0,0,0-1.21.51,1.84,1.84,0,0,0-.45,1.27h-2l0-.06a2.84,2.84,0,0,1,1-2.28,3.91,3.91,0,0,1,2.78-1,3.74,3.74,0,0,1,2.66,1,3.64,3.64,0,0,1,1,2.76v5.15a10.1,10.1,0,0,0,.08,1.25,6.58,6.58,0,0,0,.25,1.17ZM278,43.84a2.26,2.26,0,0,0,1.32-.43,2.59,2.59,0,0,0,.88-1.09V40h-1.58a1.84,1.84,0,0,0-1.48.62,2.24,2.24,0,0,0-.53,1.5,1.94,1.94,0,0,0,.36,1.22A1.24,1.24,0,0,0,278,43.84Z" style="fill:#58595b"/><path d="M286.57,34.11l.11,1.64a3.74,3.74,0,0,1,1.17-1.36,2.71,2.71,0,0,1,1.6-.49A2.66,2.66,0,0,1,291.71,35a5.57,5.57,0,0,1,.81,3.34V45.2h-2.08V38.34a4,4,0,0,0-.44-2.18,1.5,1.5,0,0,0-1.33-.64,1.72,1.72,0,0,0-1.13.4,2.87,2.87,0,0,0-.8,1.07V45.2h-2.08V34.11Z" style="fill:#58595b"/><path d="M294.49,39.79a8.28,8.28,0,0,1,1-4.27,3,3,0,0,1,2.7-1.62,2.76,2.76,0,0,1,1.39.35,3.06,3.06,0,0,1,1,1v-6h2.07v16h-1.81l-.15-1.27A3.14,3.14,0,0,1,299.61,45a2.82,2.82,0,0,1-1.47.38,3.05,3.05,0,0,1-2.69-1.48,7.14,7.14,0,0,1-1-3.94Zm2.08.21a6.3,6.3,0,0,0,.51,2.78,1.65,1.65,0,0,0,1.58,1,1.87,1.87,0,0,0,1.16-.37,2.62,2.62,0,0,0,.77-1V37a2.89,2.89,0,0,0-.77-1.09,1.75,1.75,0,0,0-1.13-.4,1.69,1.69,0,0,0-1.6,1.18,7.71,7.71,0,0,0-.52,3.09Z" style="fill:#58595b"/><path d="M309.27,39.79a8.28,8.28,0,0,1,1-4.27,3,3,0,0,1,2.7-1.62,2.79,2.79,0,0,1,1.39.35,3.15,3.15,0,0,1,1.05,1v-6h2.07v16h-1.81l-.16-1.27A3,3,0,0,1,314.39,45a2.87,2.87,0,0,1-1.47.38,3,3,0,0,1-2.69-1.48,7.14,7.14,0,0,1-1-3.94Zm2.08.21a6.46,6.46,0,0,0,.5,2.78,1.67,1.67,0,0,0,1.59,1,1.89,1.89,0,0,0,1.16-.37,2.72,2.72,0,0,0,.77-1V37a3,3,0,0,0-.77-1.09,1.76,1.76,0,0,0-1.14-.4,1.7,1.7,0,0,0-1.6,1.18,7.9,7.9,0,0,0-.51,3.09Z" style="fill:#58595b"/><path d="M323.87,45.42A4,4,0,0,1,320.7,44a5.16,5.16,0,0,1-1.19-3.51V38.91a5.44,5.44,0,0,1,1.17-3.59,3.64,3.64,0,0,1,2.95-1.42,3.49,3.49,0,0,1,2.91,1.29,5.48,5.48,0,0,1,1,3.46v1.43h-6v.45a4.18,4.18,0,0,0,.63,2.37,2,2,0,0,0,1.79.94,3.66,3.66,0,0,0,1.48-.27,4.14,4.14,0,0,0,1.17-.8l.65,1.29a3.7,3.7,0,0,1-1.4,1A5.17,5.17,0,0,1,323.87,45.42Zm-.24-9.94a1.64,1.64,0,0,0-1.44.88,4.55,4.55,0,0,0-.61,2.24h3.91v-.42a3.62,3.62,0,0,0-.47-1.94A1.54,1.54,0,0,0,323.63,35.48Z" style="fill:#58595b"/><path d="M331.61,45.2h-2.08v-16h2.08Z" style="fill:#58595b"/><path d="M336.35,31.2h-2.08v-2h2.08Zm0,14h-2.08V34.11h2.08Z" style="fill:#58595b"/><path d="M342.09,41.87l.18.86h.06l.17-.86,1.89-7.76h2.14L343.21,45.2h-1.84L338,34.11h2.15Z" style="fill:#58595b"/><path d="M351.89,45.42A4,4,0,0,1,348.72,44a5.16,5.16,0,0,1-1.19-3.51V38.91a5.44,5.44,0,0,1,1.17-3.59,3.64,3.64,0,0,1,3-1.42,3.49,3.49,0,0,1,2.9,1.29,5.42,5.42,0,0,1,1,3.46v1.43h-6v.45a4.18,4.18,0,0,0,.63,2.37,2,2,0,0,0,1.79.94,3.64,3.64,0,0,0,1.47-.27,4.14,4.14,0,0,0,1.17-.8l.66,1.29a3.82,3.82,0,0,1-1.41,1A5.14,5.14,0,0,1,351.89,45.42Zm-.23-9.94a1.66,1.66,0,0,0-1.45.88,4.66,4.66,0,0,0-.6,2.24h3.9v-.42a3.53,3.53,0,0,0-.47-1.94A1.51,1.51,0,0,0,351.66,35.48Z" style="fill:#58595b"/><path d="M362.2,35.86l-1,0a1.54,1.54,0,0,0-1.08.39,2.52,2.52,0,0,0-.65,1.1v7.9h-2.08V34.11h1.9l.15,1.67a3.54,3.54,0,0,1,.91-1.38,1.93,1.93,0,0,1,1.31-.5,2.12,2.12,0,0,1,.42,0,1.1,1.1,0,0,1,.33.09Z" style="fill:#58595b"/><path d="M366.13,31.2H364v-2h2.09Zm0,14H364V34.11h2.09Z" style="fill:#58595b"/><path d="M370.53,34.11l.12,1.64a3.56,3.56,0,0,1,1.17-1.36,2.7,2.7,0,0,1,1.59-.49A2.67,2.67,0,0,1,375.68,35a5.57,5.57,0,0,1,.81,3.34V45.2h-2.08V38.34a4,4,0,0,0-.44-2.18,1.51,1.51,0,0,0-1.33-.64,1.72,1.72,0,0,0-1.13.4,2.77,2.77,0,0,0-.8,1.07V45.2h-2.08V34.11Z" style="fill:#58595b"/><path d="M378.46,39.21a6.85,6.85,0,0,1,1-3.85,3.1,3.1,0,0,1,2.72-1.46,2.71,2.71,0,0,1,1.48.4,3.42,3.42,0,0,1,1.09,1.14l.15-1.33h1.79v11a4.64,4.64,0,0,1-1.13,3.33,4.13,4.13,0,0,1-3.16,1.2,5.81,5.81,0,0,1-1.49-.21,5.71,5.71,0,0,1-1.42-.59l.44-1.55a4.58,4.58,0,0,0,1.15.49,4.64,4.64,0,0,0,1.3.18,1.94,1.94,0,0,0,1.68-.73,3.45,3.45,0,0,0,.55-2.13v-1a2.86,2.86,0,0,1-2.45,1.28,3.2,3.2,0,0,1-2.71-1.33,5.81,5.81,0,0,1-1-3.51Zm2.08,1.37a4.55,4.55,0,0,0,.52,2.35,1.71,1.71,0,0,0,1.6.88,1.92,1.92,0,0,0,1.16-.35,2.45,2.45,0,0,0,.77-1V37a2.72,2.72,0,0,0-.78-1,1.79,1.79,0,0,0-2.74.64,5.82,5.82,0,0,0-.53,2.66Z" style="fill:#58595b"/><path d="M395.83,31.2h-2.08v-2h2.08Zm0,14h-2.08V34.11h2.08Z" style="fill:#58595b"/><path d="M400.24,34.11l.11,1.64a3.74,3.74,0,0,1,1.17-1.36,2.73,2.73,0,0,1,1.6-.49A2.68,2.68,0,0,1,405.39,35a5.57,5.57,0,0,1,.81,3.34V45.2h-2.09V38.34a3.93,3.93,0,0,0-.44-2.18,1.49,1.49,0,0,0-1.33-.64,1.74,1.74,0,0,0-1.13.4,3,3,0,0,0-.8,1.07V45.2h-2.08V34.11Z" style="fill:#58595b"/><path d="M409.28,45.2V35.59h-1.43V34.11h1.43V32.68a4.06,4.06,0,0,1,.85-2.73,3,3,0,0,1,2.37-1,3.23,3.23,0,0,1,.61.06,6.28,6.28,0,0,1,.71.16l-.21,1.52-.39-.08a3.33,3.33,0,0,0-.46,0,1.17,1.17,0,0,0-1,.53,2.75,2.75,0,0,0-.36,1.53v1.43h1.94v1.48h-1.94V45.2Z" style="fill:#58595b"/><path d="M419.72,35.86l-1,0a1.52,1.52,0,0,0-1.07.39,2.43,2.43,0,0,0-.65,1.1v7.9h-2.09V34.11h1.9l.15,1.67a3.55,3.55,0,0,1,.92-1.38,1.91,1.91,0,0,1,1.3-.5,2,2,0,0,1,.42,0A1.18,1.18,0,0,1,420,34Z" style="fill:#58595b"/><path d="M427.08,45.2c-.07-.25-.13-.5-.18-.74a4.55,4.55,0,0,1-.09-.73A4.22,4.22,0,0,1,425.65,45a2.75,2.75,0,0,1-1.55.47,2.8,2.8,0,0,1-2.2-.89,3.41,3.41,0,0,1-.79-2.37,3.09,3.09,0,0,1,1.08-2.5,4.56,4.56,0,0,1,3-.91h1.55V37.62a2.39,2.39,0,0,0-.46-1.57,1.7,1.7,0,0,0-2.48-.06,1.8,1.8,0,0,0-.46,1.27h-2l0-.06a2.88,2.88,0,0,1,1-2.28,3.91,3.91,0,0,1,2.78-1,3.74,3.74,0,0,1,2.66,1,3.64,3.64,0,0,1,1,2.76v5.15a8.47,8.47,0,0,0,.08,1.25,6.58,6.58,0,0,0,.25,1.17Zm-2.51-1.36a2.27,2.27,0,0,0,1.33-.43,2.59,2.59,0,0,0,.88-1.09V40H425.2a1.84,1.84,0,0,0-1.48.62,2.19,2.19,0,0,0-.53,1.5,1.94,1.94,0,0,0,.36,1.22A1.24,1.24,0,0,0,424.57,43.84Z" style="fill:#58595b"/><path d="M436.4,42.42a1.54,1.54,0,0,0-.43-1.09,5.39,5.39,0,0,0-1.61-1,8.16,8.16,0,0,1-2.53-1.42,2.52,2.52,0,0,1-.83-2,2.82,2.82,0,0,1,1-2.18,4.34,4.34,0,0,1,5.38.07,3.06,3.06,0,0,1,1,2.42l0,.06h-2A2.17,2.17,0,0,0,435.9,36a1.49,1.49,0,0,0-1.24-.57,1.63,1.63,0,0,0-1.21.44,1.45,1.45,0,0,0-.44,1,1.33,1.33,0,0,0,.38,1,6.57,6.57,0,0,0,1.61,1,7.36,7.36,0,0,1,2.59,1.42,2.67,2.67,0,0,1,.85,2,2.77,2.77,0,0,1-1.05,2.24,4.21,4.21,0,0,1-2.75.86,4,4,0,0,1-2.89-1,3.19,3.19,0,0,1-1-2.44l0-.06h1.93a1.86,1.86,0,0,0,2,2,1.86,1.86,0,0,0,1.27-.41A1.42,1.42,0,0,0,436.4,42.42Z" style="fill:#58595b"/><path d="M443,31.35v2.76h1.73v1.48H443V42.2a2.19,2.19,0,0,0,.26,1.22.76.76,0,0,0,.66.37,3.23,3.23,0,0,0,.46,0,4.87,4.87,0,0,0,.5-.1l.21,1.44a4,4,0,0,1-.78.23,4.43,4.43,0,0,1-.9.09,2.24,2.24,0,0,1-1.83-.78A3.77,3.77,0,0,1,441,42.2V35.59H439.5V34.11H441V31.35Z" style="fill:#58595b"/><path d="M451.58,35.86l-1,0a1.52,1.52,0,0,0-1.07.39,2.34,2.34,0,0,0-.65,1.1v7.9H446.8V34.11h1.9l.15,1.67a3.55,3.55,0,0,1,.92-1.38,1.91,1.91,0,0,1,1.3-.5,2,2,0,0,1,.42,0,1.18,1.18,0,0,1,.34.09Z" style="fill:#58595b"/><path d="M459.15,43.72A3.47,3.47,0,0,1,458,45a2.89,2.89,0,0,1-1.58.44,2.75,2.75,0,0,1-2.35-1.16,6.17,6.17,0,0,1-.84-3.6V34.11h2.07v6.57a5.15,5.15,0,0,0,.41,2.41,1.3,1.3,0,0,0,1.21.72,2.18,2.18,0,0,0,1.29-.36,2.46,2.46,0,0,0,.83-1V34.11h2.08V45.2h-1.86Z" style="fill:#58595b"/><path d="M467.35,43.84a1.67,1.67,0,0,0,1.31-.6,2.32,2.32,0,0,0,.54-1.61h1.86l0,.07A3.39,3.39,0,0,1,470,44.34a3.66,3.66,0,0,1-2.67,1.08A3.78,3.78,0,0,1,464.18,44a5.58,5.58,0,0,1-1.1-3.58V38.91a5.63,5.63,0,0,1,1.1-3.59,3.75,3.75,0,0,1,3.16-1.42A3.57,3.57,0,0,1,470.07,35a3.87,3.87,0,0,1,1,2.9l0,.06H469.2a3,3,0,0,0-.51-1.81,1.58,1.58,0,0,0-1.35-.7,1.75,1.75,0,0,0-1.69,1,5.33,5.33,0,0,0-.49,2.44v1.54a5.29,5.29,0,0,0,.49,2.45A1.77,1.77,0,0,0,467.35,43.84Z" style="fill:#58595b"/><path d="M475.6,31.35v2.76h1.73v1.48H475.6V42.2a2.2,2.2,0,0,0,.25,1.22.77.77,0,0,0,.67.37,3.44,3.44,0,0,0,.46,0,4.75,4.75,0,0,0,.49-.1l.22,1.44a4.31,4.31,0,0,1-.79.23,4.41,4.41,0,0,1-.89.09,2.24,2.24,0,0,1-1.83-.78,3.71,3.71,0,0,1-.66-2.44V35.59h-1.44V34.11h1.44V31.35Z" style="fill:#58595b"/><path d="M485.24,43.72A3.56,3.56,0,0,1,484.11,45a2.91,2.91,0,0,1-1.58.44,2.74,2.74,0,0,1-2.35-1.16,6.17,6.17,0,0,1-.84-3.6V34.11h2.07v6.57a5,5,0,0,0,.41,2.41,1.29,1.29,0,0,0,1.21.72,2.23,2.23,0,0,0,1.29-.36,2.44,2.44,0,0,0,.82-1V34.11h2.08V45.2h-1.85Z" style="fill:#58595b"/><path d="M494.36,35.86l-1,0a1.52,1.52,0,0,0-1.07.39,2.44,2.44,0,0,0-.66,1.1v7.9h-2.08V34.11h1.9l.15,1.67a3.55,3.55,0,0,1,.92-1.38,1.91,1.91,0,0,1,1.3-.5,2,2,0,0,1,.42,0,1.18,1.18,0,0,1,.34.09Z" style="fill:#58595b"/><path d="M499.89,45.42A4,4,0,0,1,496.72,44a5.16,5.16,0,0,1-1.19-3.51V38.91a5.49,5.49,0,0,1,1.16-3.59,3.65,3.65,0,0,1,3-1.42,3.46,3.46,0,0,1,2.9,1.29,5.42,5.42,0,0,1,1,3.46v1.43h-6v.45a4.18,4.18,0,0,0,.63,2.37,2,2,0,0,0,1.79.94,3.69,3.69,0,0,0,1.48-.27,4.14,4.14,0,0,0,1.17-.8l.65,1.29a3.86,3.86,0,0,1-1.4,1A5.17,5.17,0,0,1,499.89,45.42Zm-.24-9.94a1.64,1.64,0,0,0-1.44.88,4.55,4.55,0,0,0-.61,2.24h3.91v-.42a3.62,3.62,0,0,0-.47-1.94A1.54,1.54,0,0,0,499.65,35.48Z" style="fill:#58595b"/><path d="M512.2,31.2h-2.08v-2h2.08Zm0,14h-2.08V34.11h2.08Z" style="fill:#58595b"/><path d="M516.61,34.11l.11,1.64a3.74,3.74,0,0,1,1.17-1.36,2.73,2.73,0,0,1,1.6-.49A2.68,2.68,0,0,1,521.76,35a5.57,5.57,0,0,1,.81,3.34V45.2h-2.08V38.34a4,4,0,0,0-.44-2.18,1.52,1.52,0,0,0-1.34-.64,1.69,1.69,0,0,0-1.12.4,2.89,2.89,0,0,0-.81,1.07V45.2H514.7V34.11Z" style="fill:#58595b"/><path d="M227.37,65a7.28,7.28,0,0,1-.36,2.37,5,5,0,0,1-1,1.76l2.26,2.4-1.36,1.14-2.31-2.51a5.11,5.11,0,0,1-1.09.34,5.62,5.62,0,0,1-1.18.12,4.67,4.67,0,0,1-3.62-1.48A6,6,0,0,1,217.35,65V60.9a6,6,0,0,1,1.35-4.15,4.62,4.62,0,0,1,3.61-1.49A4.79,4.79,0,0,1,226,56.75a5.89,5.89,0,0,1,1.38,4.15Zm-2.08-4.13a4.77,4.77,0,0,0-.78-3,2.58,2.58,0,0,0-2.2-1,2.49,2.49,0,0,0-2.15,1,4.91,4.91,0,0,0-.75,3V65a5,5,0,0,0,.75,3,2.51,2.51,0,0,0,2.15,1,2.63,2.63,0,0,0,2.21-1,4.85,4.85,0,0,0,.77-3Z" style="fill:#58595b"/><path d="M235.87,68.92a3.47,3.47,0,0,1-1.13,1.26,2.91,2.91,0,0,1-1.58.44,2.74,2.74,0,0,1-2.35-1.16,6.17,6.17,0,0,1-.84-3.6V59.31H232v6.57a5.15,5.15,0,0,0,.41,2.41,1.3,1.3,0,0,0,1.21.72,2.23,2.23,0,0,0,1.29-.36,2.44,2.44,0,0,0,.82-1V59.31h2.09V70.4H236Z" style="fill:#58595b"/><path d="M244.22,70.62a4,4,0,0,1-3.17-1.38,5.16,5.16,0,0,1-1.19-3.51V64.11A5.44,5.44,0,0,1,241,60.52a3.64,3.64,0,0,1,3-1.42,3.49,3.49,0,0,1,2.9,1.29,5.42,5.42,0,0,1,1,3.46v1.44h-6v.44a4.18,4.18,0,0,0,.63,2.37,2,2,0,0,0,1.79.94,3.64,3.64,0,0,0,1.47-.27A4.14,4.14,0,0,0,247,68l.66,1.29a3.82,3.82,0,0,1-1.41,1A5.1,5.1,0,0,1,244.22,70.62ZM244,60.68a1.66,1.66,0,0,0-1.45.88,4.66,4.66,0,0,0-.6,2.24h3.9v-.42a3.53,3.53,0,0,0-.47-1.94A1.51,1.51,0,0,0,244,60.68Z" style="fill:#58595b"/><path d="M253.76,70.62a4,4,0,0,1-3.17-1.38,5.16,5.16,0,0,1-1.19-3.51V64.11a5.44,5.44,0,0,1,1.17-3.59,3.64,3.64,0,0,1,3-1.42,3.46,3.46,0,0,1,2.9,1.29,5.42,5.42,0,0,1,1,3.46v1.44h-6v.44a4.18,4.18,0,0,0,.63,2.37,2,2,0,0,0,1.79.94,3.66,3.66,0,0,0,1.48-.27,4.14,4.14,0,0,0,1.17-.8l.65,1.29a3.7,3.7,0,0,1-1.4,1A5.17,5.17,0,0,1,253.76,70.62Zm-.24-9.94a1.64,1.64,0,0,0-1.44.88,4.66,4.66,0,0,0-.61,2.24h3.91v-.42a3.62,3.62,0,0,0-.47-1.94A1.54,1.54,0,0,0,253.52,60.68Z" style="fill:#58595b"/><path d="M261.17,59.31l.12,1.64a3.62,3.62,0,0,1,1.16-1.36,2.75,2.75,0,0,1,1.6-.49,2.68,2.68,0,0,1,2.27,1.08,5.57,5.57,0,0,1,.81,3.34V70.4h-2.08V63.54a4,4,0,0,0-.44-2.18,1.52,1.52,0,0,0-1.34-.64,1.69,1.69,0,0,0-1.12.4,2.77,2.77,0,0,0-.8,1.07V70.4h-2.08V59.31Z" style="fill:#58595b"/><path d="M274.66,67.62a1.54,1.54,0,0,0-.43-1.09,5.44,5.44,0,0,0-1.6-1,8.11,8.11,0,0,1-2.54-1.42,2.52,2.52,0,0,1-.83-1.95,2.82,2.82,0,0,1,1-2.18,3.85,3.85,0,0,1,2.65-.9,3.81,3.81,0,0,1,2.73,1,3.06,3.06,0,0,1,1,2.42l0,.06h-2a2.12,2.12,0,0,0-.45-1.36,1.49,1.49,0,0,0-1.24-.57,1.63,1.63,0,0,0-1.21.44,1.45,1.45,0,0,0-.44,1,1.33,1.33,0,0,0,.38,1,6.57,6.57,0,0,0,1.61,1,7.36,7.36,0,0,1,2.59,1.42,2.67,2.67,0,0,1,.85,2,2.77,2.77,0,0,1-1.05,2.24,4.21,4.21,0,0,1-2.75.86,4,4,0,0,1-2.89-1,3.15,3.15,0,0,1-1-2.44l0-.06H271a1.86,1.86,0,0,0,2,2,1.85,1.85,0,0,0,1.27-.41A1.42,1.42,0,0,0,274.66,67.62Z" style="fill:#58595b"/><path d="M280.84,70.4h-2.08v-16h2.08Z" style="fill:#58595b"/><path d="M289,70.4a7.22,7.22,0,0,1-.18-.74,4.55,4.55,0,0,1-.09-.73,4.22,4.22,0,0,1-1.16,1.22,2.75,2.75,0,0,1-1.55.47,2.8,2.8,0,0,1-2.2-.89,3.42,3.42,0,0,1-.8-2.37,3.06,3.06,0,0,1,1.09-2.5,4.56,4.56,0,0,1,3-.91h1.54V62.82a2.45,2.45,0,0,0-.45-1.57,1.7,1.7,0,0,0-2.48-.06,1.82,1.82,0,0,0-.46,1.27h-2l0-.07a2.88,2.88,0,0,1,1-2.28,3.89,3.89,0,0,1,2.77-1,3.72,3.72,0,0,1,2.66,1,3.61,3.61,0,0,1,1,2.76V68a10.13,10.13,0,0,0,.07,1.25,7.6,7.6,0,0,0,.25,1.17ZM286.5,69a2.27,2.27,0,0,0,1.33-.43,2.49,2.49,0,0,0,.87-1.09V65.24h-1.58a1.85,1.85,0,0,0-1.48.62,2.24,2.24,0,0,0-.53,1.5,2,2,0,0,0,.36,1.22A1.26,1.26,0,0,0,286.5,69Z" style="fill:#58595b"/><path d="M295,59.31l.11,1.64a3.74,3.74,0,0,1,1.17-1.36,2.73,2.73,0,0,1,1.6-.49,2.68,2.68,0,0,1,2.27,1.08,5.57,5.57,0,0,1,.81,3.34V70.4h-2.08V63.54a4,4,0,0,0-.44-2.18,1.52,1.52,0,0,0-1.34-.64,1.69,1.69,0,0,0-1.12.4,2.89,2.89,0,0,0-.81,1.07V70.4h-2.08V59.31Z" style="fill:#58595b"/><path d="M303,65a8.28,8.28,0,0,1,1-4.27,3,3,0,0,1,2.7-1.62,2.79,2.79,0,0,1,1.39.35,3.24,3.24,0,0,1,1.05,1V54.41h2.07v16h-1.82l-.15-1.27a3,3,0,0,1-1.08,1.11,2.87,2.87,0,0,1-1.47.38,3,3,0,0,1-2.69-1.48,7.14,7.14,0,0,1-1-3.94Zm2.08.21a6.46,6.46,0,0,0,.5,2.78,1.66,1.66,0,0,0,1.59,1,1.84,1.84,0,0,0,1.15-.37,2.64,2.64,0,0,0,.78-1V62.21a2.91,2.91,0,0,0-.78-1.09,1.71,1.71,0,0,0-2.73.78,7.9,7.9,0,0,0-.51,3.09Z" style="fill:#58595b"/><path d="M315.87,70.4h-2.1V68.32h2.1Z" style="fill:#58595b"/></svg>