<svg id="Layer_1" data-name="Layer 1" xmlns="http://www.w3.org/2000/svg" viewBox="0 0 531.9 127"><defs><style>.cls-1{fill:#009887;}.cls-2{isolation:isolate;}.cls-3{fill:#6a0032;}</style></defs><title>scene1_Text_update1</title><g id="Layer_2" data-name="Layer 2"><g id="Layer_1-2" data-name="Layer 1-2"><path class="cls-1" d="M84.2,75.4l3.1-16.7h4.8L86.9,82.2H82.1L78.3,66.5,74.5,82.2H69.6L64.4,58.7h4.8l3.2,16.7,3.9-16.7h4.1Z"/><path class="cls-1" d="M102,82.5a8.89,8.89,0,0,1-3.6-.7A8,8,0,0,1,95.7,80,9.48,9.48,0,0,1,94,77.3a8.81,8.81,0,0,1-.6-3.3v-.6a10.88,10.88,0,0,1,.6-3.6A9.7,9.7,0,0,1,95.6,67a8.32,8.32,0,0,1,2.6-1.9,8.65,8.65,0,0,1,6.7,0,8.07,8.07,0,0,1,2.4,1.7,7.2,7.2,0,0,1,1.5,2.7,13.45,13.45,0,0,1,.5,3.5v2H98.1a4.94,4.94,0,0,0,.5,1.6,4.7,4.7,0,0,0,.9,1.2,5.67,5.67,0,0,0,1.3.8,4.53,4.53,0,0,0,1.6.3,5.93,5.93,0,0,0,2.3-.5,4.41,4.41,0,0,0,1.8-1.5l2.3,2.6a10.59,10.59,0,0,1-1,1.2,5.6,5.6,0,0,1-1.5,1,14.58,14.58,0,0,1-1.9.7A19.27,19.27,0,0,1,102,82.5Zm-.5-14.3a2.77,2.77,0,0,0-1.3.3,3.59,3.59,0,0,0-1,.7,4.13,4.13,0,0,0-.7,1.1,8.33,8.33,0,0,0-.4,1.5h6.5v-.4a5.85,5.85,0,0,0-.2-1.3,2.07,2.07,0,0,0-.6-1,3.59,3.59,0,0,0-1-.7A5.85,5.85,0,0,0,101.5,68.2Z"/><path class="cls-1" d="M116.7,82.2H112V57.5h4.7Z"/><path class="cls-1" d="M127.8,78.8a5,5,0,0,0,1.2-.2,4.05,4.05,0,0,0,.9-.5,1.56,1.56,0,0,0,.6-.8,3.59,3.59,0,0,0,.2-1.1h4.4a5.83,5.83,0,0,1-.6,2.6,7.49,7.49,0,0,1-1.5,2,6.54,6.54,0,0,1-2.3,1.3,8.88,8.88,0,0,1-6.4-.2,6.67,6.67,0,0,1-2.5-1.9,7.61,7.61,0,0,1-1.5-2.8,13.45,13.45,0,0,1-.5-3.5v-.5a12.7,12.7,0,0,1,.5-3.4,7.61,7.61,0,0,1,1.5-2.8,6.67,6.67,0,0,1,2.5-1.9,8.42,8.42,0,0,1,3.5-.7,9.29,9.29,0,0,1,2.9.5,7.89,7.89,0,0,1,2.3,1.4,7.18,7.18,0,0,1,2.1,5h-4.4a5,5,0,0,0-.2-1.2,2.07,2.07,0,0,0-.6-1,5.5,5.5,0,0,0-.9-.7,2.74,2.74,0,0,0-1.3-.2,3.29,3.29,0,0,0-1.7.4,3.46,3.46,0,0,0-1,1.1,4.94,4.94,0,0,0-.5,1.6,12.1,12.1,0,0,0-.1,1.9v.4a12.1,12.1,0,0,0,.1,1.9,4.28,4.28,0,0,0,.5,1.6,3.46,3.46,0,0,0,1,1.1A2.61,2.61,0,0,0,127.8,78.8Z"/><path class="cls-1" d="M137.1,73.3a10.3,10.3,0,0,1,.6-3.5,7.85,7.85,0,0,1,1.6-2.8,8.32,8.32,0,0,1,2.6-1.9,9.1,9.1,0,0,1,7,0,7,7,0,0,1,2.6,1.9,7.85,7.85,0,0,1,1.6,2.8,10.3,10.3,0,0,1,.6,3.5v.3a10.3,10.3,0,0,1-.6,3.5,7.85,7.85,0,0,1-1.6,2.8,6.77,6.77,0,0,1-2.6,1.8,9.41,9.41,0,0,1-7,0,8.06,8.06,0,0,1-2.6-1.8,7.85,7.85,0,0,1-1.6-2.8,10.3,10.3,0,0,1-.6-3.5Zm4.6.4a13.55,13.55,0,0,0,.2,2,4.42,4.42,0,0,0,.6,1.6,5.73,5.73,0,0,0,1.1,1.1,3.29,3.29,0,0,0,1.7.4,2.93,2.93,0,0,0,1.6-.4,2.91,2.91,0,0,0,1.1-1.1,4.42,4.42,0,0,0,.6-1.6,13.55,13.55,0,0,0,.2-2v-.3a13.55,13.55,0,0,0-.2-2,4.42,4.42,0,0,0-.6-1.6,3.84,3.84,0,0,0-1.1-1.1,3.29,3.29,0,0,0-1.7-.4,2.93,2.93,0,0,0-1.6.4,3.84,3.84,0,0,0-1.1,1.1,5.23,5.23,0,0,0-.6,1.6,13.55,13.55,0,0,0-.2,2Z"/><path class="cls-1" d="M160.8,64.8l.1,1.9A6.84,6.84,0,0,1,163,65a7.17,7.17,0,0,1,2.9-.6,6.71,6.71,0,0,1,2.8.6,4.12,4.12,0,0,1,1.9,2,8,8,0,0,1,2.1-2,6.7,6.7,0,0,1,3.1-.7,8.52,8.52,0,0,1,2.3.3,4.18,4.18,0,0,1,1.8,1.1,5.29,5.29,0,0,1,1.1,2.1,11,11,0,0,1,.4,3.1V82h-4.7V71.1a5.9,5.9,0,0,0-.2-1.4,4.05,4.05,0,0,0-.5-.9,1.23,1.23,0,0,0-.8-.4,4.1,4.1,0,0,0-1.1-.1,3.74,3.74,0,0,0-1.8.5,3.27,3.27,0,0,0-1.1,1.5v12h-4.7V71.2a3.18,3.18,0,0,0-.2-1.4,4.05,4.05,0,0,0-.5-.9,2.18,2.18,0,0,0-.8-.5,4.1,4.1,0,0,0-1.1-.1,3.29,3.29,0,0,0-1.7.4,3.18,3.18,0,0,0-1.1,1.2V82.3h-4.7V64.8Z"/><path class="cls-1" d="M193,82.5a8.89,8.89,0,0,1-3.6-.7,8,8,0,0,1-2.7-1.8,9.48,9.48,0,0,1-1.7-2.7,9.6,9.6,0,0,1-.6-3.3v-.6a10.88,10.88,0,0,1,.6-3.6,9.7,9.7,0,0,1,1.6-2.8,8.32,8.32,0,0,1,2.6-1.9,8.65,8.65,0,0,1,6.7,0,7,7,0,0,1,2.4,1.7,7.2,7.2,0,0,1,1.5,2.7,13.45,13.45,0,0,1,.5,3.5v2H189.2a4.94,4.94,0,0,0,.5,1.6,4.7,4.7,0,0,0,.9,1.2,5.67,5.67,0,0,0,1.3.8,4.53,4.53,0,0,0,1.6.3,6.87,6.87,0,0,0,2.4-.5,4.41,4.41,0,0,0,1.8-1.5l2.3,2.6a10.59,10.59,0,0,1-1,1.2,5.6,5.6,0,0,1-1.5,1,14.58,14.58,0,0,1-1.9.7A24.4,24.4,0,0,1,193,82.5Zm-.5-14.3a2.77,2.77,0,0,0-1.3.3,3.59,3.59,0,0,0-1,.7,4.13,4.13,0,0,0-.7,1.1,8.33,8.33,0,0,0-.4,1.5h6.5v-.4a5.85,5.85,0,0,0-.2-1.3,2.07,2.07,0,0,0-.6-1,3.59,3.59,0,0,0-1-.7,5.07,5.07,0,0,0-1.3-.2Z"/><path class="cls-1" d="M216.6,60.5v4.3h3v3.4h-3v8.7a2.77,2.77,0,0,0,.1.9l.3.6.6.3a2.2,2.2,0,0,0,.8.1h.8l.6-.1v3.5c-.4.1-.8.2-1.3.3a8.08,8.08,0,0,1-1.6.1,7.61,7.61,0,0,1-2.1-.3,5.07,5.07,0,0,1-1.6-.9,3.36,3.36,0,0,1-1-1.6,6.72,6.72,0,0,1-.4-2.4V68.2h-2.6V64.7h2.6V60.4h4.8Z"/><path class="cls-1" d="M221,73.3a10.3,10.3,0,0,1,.6-3.5,7.85,7.85,0,0,1,1.6-2.8,8.32,8.32,0,0,1,2.6-1.9,9.1,9.1,0,0,1,7,0,7,7,0,0,1,2.6,1.9,7.85,7.85,0,0,1,1.6,2.8,10.3,10.3,0,0,1,.6,3.5v.3a10.3,10.3,0,0,1-.6,3.5,7.85,7.85,0,0,1-1.6,2.8,6.77,6.77,0,0,1-2.6,1.8,9.41,9.41,0,0,1-7,0,8.06,8.06,0,0,1-2.6-1.8,7.85,7.85,0,0,1-1.6-2.8,10.3,10.3,0,0,1-.6-3.5Zm4.7.4a13.55,13.55,0,0,0,.2,2,4.42,4.42,0,0,0,.6,1.6,5.73,5.73,0,0,0,1.1,1.1,3.29,3.29,0,0,0,1.7.4,2.93,2.93,0,0,0,1.6-.4,2.91,2.91,0,0,0,1.1-1.1,4.42,4.42,0,0,0,.6-1.6,13.55,13.55,0,0,0,.2-2v-.3a13.55,13.55,0,0,0-.2-2,4.42,4.42,0,0,0-.6-1.6,3.84,3.84,0,0,0-1.1-1.1,3.29,3.29,0,0,0-1.7-.4,2.93,2.93,0,0,0-1.6.4,3.84,3.84,0,0,0-1.1,1.1,5.23,5.23,0,0,0-.6,1.6,13.55,13.55,0,0,0-.2,2Z"/><path class="cls-1" d="M254.2,60.5v4.3h3v3.4h-3v8.7a2.77,2.77,0,0,0,.1.9l.3.6.6.3a2.2,2.2,0,0,0,.8.1h.8l.6-.1v3.5c-.4.1-.8.2-1.3.3a8.08,8.08,0,0,1-1.6.1,7.61,7.61,0,0,1-2.1-.3,5.07,5.07,0,0,1-1.6-.9,3.36,3.36,0,0,1-1-1.6,6.72,6.72,0,0,1-.4-2.4V68.2H247V64.7h2.6V60.4h4.6Z"/><path class="cls-1" d="M264.3,66.7a5.26,5.26,0,0,1,2-1.6,5.83,5.83,0,0,1,2.6-.6,6.72,6.72,0,0,1,2.4.4,3.6,3.6,0,0,1,1.8,1.2,7.19,7.19,0,0,1,1.2,2.1,11,11,0,0,1,.4,3.1v11H270v-11a6.75,6.75,0,0,0-.2-1.4,2.07,2.07,0,0,0-.6-1,1.93,1.93,0,0,0-.9-.5,5,5,0,0,0-1.2-.2,3.66,3.66,0,0,0-1.8.4,2.54,2.54,0,0,0-1.1,1.2V82.2h-4.7V57.5h4.7v9.2Z"/><path class="cls-1" d="M286.2,82.5a8.89,8.89,0,0,1-3.6-.7,8,8,0,0,1-2.7-1.8,9.48,9.48,0,0,1-1.7-2.7,9.6,9.6,0,0,1-.6-3.3v-.6a10.88,10.88,0,0,1,.6-3.6,9.7,9.7,0,0,1,1.6-2.8,7.25,7.25,0,0,1,2.5-1.8,8.65,8.65,0,0,1,6.7,0,8.52,8.52,0,0,1,2.5,1.7,7.2,7.2,0,0,1,1.5,2.7,13.45,13.45,0,0,1,.5,3.5v2H282.4a4.94,4.94,0,0,0,.5,1.6,4.7,4.7,0,0,0,.9,1.2,5.67,5.67,0,0,0,1.3.8,4.53,4.53,0,0,0,1.6.3,6.87,6.87,0,0,0,2.4-.5,4.41,4.41,0,0,0,1.8-1.5l2.3,2.6a10.59,10.59,0,0,1-1,1.2,5.6,5.6,0,0,1-1.5,1,14.58,14.58,0,0,1-1.9.7Zm-.5-14.3a2.77,2.77,0,0,0-1.3.3,3.59,3.59,0,0,0-1,.7,4.13,4.13,0,0,0-.7,1.1,8.33,8.33,0,0,0-.4,1.5h6.5v-.4a5.85,5.85,0,0,0-.2-1.3,2.07,2.07,0,0,0-.6-1,3.59,3.59,0,0,0-1-.7A5.07,5.07,0,0,0,285.7,68.2Z"/><path class="cls-1" d="M304.2,60.3a2.19,2.19,0,0,1,.7-1.7,2.64,2.64,0,0,1,1.9-.7,4.25,4.25,0,0,1,1.1.2,2.1,2.1,0,0,1,1.3,1.3,2.6,2.6,0,0,1,0,2,2.1,2.1,0,0,1-1.3,1.3,4.11,4.11,0,0,1-2.2,0,2.1,2.1,0,0,1-1.3-1.3A5.16,5.16,0,0,1,304.2,60.3Zm5,21.9h-4.7V64.8h4.7Z"/><path class="cls-1" d="M317.3,64.8l.1,2a6.2,6.2,0,0,1,2.2-1.7,7.06,7.06,0,0,1,2.8-.6,9.08,9.08,0,0,1,2.3.3,3.37,3.37,0,0,1,1.7,1.1,5.29,5.29,0,0,1,1.1,2.1,11,11,0,0,1,.4,3.1V82.2h-4.7V71.1a6.75,6.75,0,0,0-.2-1.4,4.05,4.05,0,0,0-.5-.9,1.93,1.93,0,0,0-.9-.5,4.87,4.87,0,0,0-1.2-.1,3.09,3.09,0,0,0-1.8.5,3.45,3.45,0,0,0-1.2,1.2V82.2h-4.7V64.8Z"/><path class="cls-1" d="M337.1,60.5v4.3h3v3.4h-3v8.7a2.77,2.77,0,0,0,.1.9l.3.6.6.3a2.2,2.2,0,0,0,.8.1h.8l.6-.1v3.5c-.4.1-.8.2-1.3.3a8.71,8.71,0,0,1-3.6-.2,5.07,5.07,0,0,1-1.6-.9,3.36,3.36,0,0,1-1-1.6,6.72,6.72,0,0,1-.4-2.4V68.2h-2.5V64.7h2.5V60.4h4.7Z"/><path class="cls-1" d="M350.7,82.5a8.89,8.89,0,0,1-3.6-.7,8,8,0,0,1-2.7-1.8,9.48,9.48,0,0,1-1.7-2.7,9.6,9.6,0,0,1-.6-3.3v-.6a10.88,10.88,0,0,1,.6-3.6,9.7,9.7,0,0,1,1.6-2.8,8.32,8.32,0,0,1,2.6-1.9,8.65,8.65,0,0,1,6.7,0,8.07,8.07,0,0,1,2.4,1.7,7.2,7.2,0,0,1,1.5,2.7A13.45,13.45,0,0,1,358,73v2H346.9a4.94,4.94,0,0,0,.5,1.6,4.7,4.7,0,0,0,.9,1.2,5.67,5.67,0,0,0,1.3.8,4.53,4.53,0,0,0,1.6.3,6.87,6.87,0,0,0,2.4-.5,4.41,4.41,0,0,0,1.8-1.5l2.3,2.6a10.59,10.59,0,0,1-1,1.2,5.6,5.6,0,0,1-1.5,1,14.58,14.58,0,0,1-1.9.7A24.4,24.4,0,0,1,350.7,82.5Zm-.5-14.3a2.77,2.77,0,0,0-1.3.3,3.59,3.59,0,0,0-1,.7,4.13,4.13,0,0,0-.7,1.1,8.33,8.33,0,0,0-.4,1.5h6.5v-.4a5.85,5.85,0,0,0-.2-1.3,2.07,2.07,0,0,0-.6-1,3.59,3.59,0,0,0-1-.7,5.85,5.85,0,0,0-1.3-.2Z"/><path class="cls-1" d="M370.3,69.2l-.8-.1h-.9a4.19,4.19,0,0,0-2.2.5,3.25,3.25,0,0,0-1.3,1.3V82.3h-4.7V64.8h4.4l.1,2.1a6.9,6.9,0,0,1,1.6-1.8,3.79,3.79,0,0,1,2.3-.6,2.2,2.2,0,0,1,.8.1,1.85,1.85,0,0,1,.7.2Z"/><path class="cls-1" d="M382.2,82.2a7.49,7.49,0,0,1-.5-1.6,4.63,4.63,0,0,1-1.8,1.3,4.68,4.68,0,0,1-2.6.5A5.87,5.87,0,0,1,375,82a5.24,5.24,0,0,1-1.9-1.1,5.5,5.5,0,0,1-1.3-1.7,5.37,5.37,0,0,1-.5-2.1,6.44,6.44,0,0,1,.5-2.4,5.17,5.17,0,0,1,1.5-1.8,8,8,0,0,1,2.5-1.1,13.42,13.42,0,0,1,3.5-.4h2.1v-1a3.08,3.08,0,0,0-.6-1.9,2.49,2.49,0,0,0-2-.7,3.29,3.29,0,0,0-1.9.6,2,2,0,0,0-.7,1.6h-4.7a5,5,0,0,1,.5-2.1,6.55,6.55,0,0,1,1.5-1.8,10.08,10.08,0,0,1,2.3-1.2,8,8,0,0,1,3.1-.4,9,9,0,0,1,2.8.4,4.77,4.77,0,0,1,2.2,1.2,7,7,0,0,1,1.5,1.9,6.18,6.18,0,0,1,.5,2.7v8.6a4.1,4.1,0,0,0,.1,1.1,1.88,1.88,0,0,0,.2.8c.1.2.2.5.3.7v.3ZM378.3,79a4.55,4.55,0,0,0,2-.5,1.79,1.79,0,0,0,.7-.5c.2-.2.3-.4.5-.6v-3h-1.9a8.75,8.75,0,0,0-1.6.2,2.38,2.38,0,0,0-1.1.6,1.56,1.56,0,0,0-.6.8,3.59,3.59,0,0,0-.2,1.1,1.82,1.82,0,0,0,.6,1.4A2.77,2.77,0,0,0,378.3,79Z"/><path class="cls-1" d="M397,78.8a5,5,0,0,0,1.2-.2,4.05,4.05,0,0,0,.9-.5,1.56,1.56,0,0,0,.6-.8,3.59,3.59,0,0,0,.2-1.1h4.4a5.83,5.83,0,0,1-.6,2.6,7.49,7.49,0,0,1-1.5,2,6.54,6.54,0,0,1-2.3,1.3,9.18,9.18,0,0,1-2.8.5,8.42,8.42,0,0,1-3.5-.7,6.67,6.67,0,0,1-2.5-1.9,7.61,7.61,0,0,1-1.5-2.8,13.45,13.45,0,0,1-.5-3.5v-.5a14.08,14.08,0,0,1,.5-3.5,7.61,7.61,0,0,1,1.5-2.8,6.67,6.67,0,0,1,2.5-1.9,8.42,8.42,0,0,1,3.5-.7,9.29,9.29,0,0,1,2.9.5,7.89,7.89,0,0,1,2.3,1.4,7.12,7.12,0,0,1,1.5,2.2,5.57,5.57,0,0,1,.5,2.8H400a5,5,0,0,0-.2-1.2,2.07,2.07,0,0,0-.6-1,5.5,5.5,0,0,0-.9-.7,2.74,2.74,0,0,0-1.3-.2,3.29,3.29,0,0,0-1.7.4,3.46,3.46,0,0,0-1,1.1,4.94,4.94,0,0,0-.5,1.6,12.1,12.1,0,0,0-.1,1.9v.4a12.1,12.1,0,0,0,.1,1.9,4.28,4.28,0,0,0,.5,1.6,3.46,3.46,0,0,0,1,1.1A2.34,2.34,0,0,0,397,78.8Z"/><path class="cls-1" d="M412.5,60.5v4.3h3v3.4h-3v8.7a2.77,2.77,0,0,0,.1.9l.3.6.6.3a2.2,2.2,0,0,0,.8.1h.8l.6-.1v3.5c-.4.1-.8.2-1.3.3a8.71,8.71,0,0,1-3.6-.2,5.07,5.07,0,0,1-1.6-.9,3.36,3.36,0,0,1-1-1.6,6.72,6.72,0,0,1-.4-2.4V68.2h-2.6V64.7h2.5V60.4h4.8Z"/><path class="cls-1" d="M418.1,60.3a2.19,2.19,0,0,1,.7-1.7,2.64,2.64,0,0,1,1.9-.7,4.25,4.25,0,0,1,1.1.2,2.1,2.1,0,0,1,1.3,1.3,2.6,2.6,0,0,1,0,2,2.1,2.1,0,0,1-1.3,1.3,4.11,4.11,0,0,1-2.2,0,2.1,2.1,0,0,1-1.3-1.3A2.34,2.34,0,0,1,418.1,60.3ZM423,82.2h-4.7V64.8H423Z"/><path class="cls-1" d="M433.4,76.5l3.2-11.8h4.9l-5.9,17.4h-4.5l-5.8-17.4h4.9Z"/><path class="cls-1" d="M451.3,82.5a8.89,8.89,0,0,1-3.6-.7A8,8,0,0,1,445,80a7.44,7.44,0,0,1-1.6-2.7,9.6,9.6,0,0,1-.6-3.3v-.6a10.88,10.88,0,0,1,.6-3.6A9.7,9.7,0,0,1,445,67a8.32,8.32,0,0,1,2.6-1.9,8.65,8.65,0,0,1,6.7,0,8.07,8.07,0,0,1,2.4,1.7,7.2,7.2,0,0,1,1.5,2.7,13.45,13.45,0,0,1,.5,3.5v2H447.6a4.94,4.94,0,0,0,.5,1.6,4.7,4.7,0,0,0,.9,1.2,5.67,5.67,0,0,0,1.3.8,4.53,4.53,0,0,0,1.6.3,6.87,6.87,0,0,0,2.4-.5,4.41,4.41,0,0,0,1.8-1.5l2.3,2.6a10.59,10.59,0,0,1-1,1.2,5.6,5.6,0,0,1-1.5,1,14.58,14.58,0,0,1-1.9.7A12.83,12.83,0,0,1,451.3,82.5Zm-.5-14.3a2.77,2.77,0,0,0-1.3.3,3.59,3.59,0,0,0-1,.7,4.13,4.13,0,0,0-.7,1.1,8.33,8.33,0,0,0-.4,1.5h6.5v-.4a5.85,5.85,0,0,0-.2-1.3,2.07,2.07,0,0,0-.6-1,3.59,3.59,0,0,0-1-.7,5.07,5.07,0,0,0-1.3-.2Z"/><path class="cls-1" d="M28.6,107a13.8,13.8,0,0,1-1.1,5.7,9.55,9.55,0,0,1-3,3.9l3.9,3.1-3.1,2.7-5-4c-.6.1-1.2.1-1.8.2a11,11,0,0,1-4-.8,9,9,0,0,1-3.2-2.3,11,11,0,0,1-2.1-3.6,13.32,13.32,0,0,1-.7-4.8v-1a15.5,15.5,0,0,1,.7-4.8,8.77,8.77,0,0,1,2.1-3.6,8.21,8.21,0,0,1,3.2-2.3,11,11,0,0,1,4-.8,11,11,0,0,1,4,.8,9,9,0,0,1,3.2,2.3,10.68,10.68,0,0,1,2,3.6,13.32,13.32,0,0,1,.7,4.8Zm-4.9-1a9.88,9.88,0,0,0-1.3-5.6,4.14,4.14,0,0,0-3.8-1.9,4.47,4.47,0,0,0-3.8,1.9,10.07,10.07,0,0,0-1.3,5.6v1.1a12.42,12.42,0,0,0,.4,3.3,8.18,8.18,0,0,0,1,2.4,4.28,4.28,0,0,0,1.6,1.4,5.45,5.45,0,0,0,2.2.5,4.47,4.47,0,0,0,3.8-1.9,10.07,10.07,0,0,0,1.3-5.6Z"/><path class="cls-1" d="M42.3,116.4a5.26,5.26,0,0,1-2,1.6,6.71,6.71,0,0,1-2.8.6,5.87,5.87,0,0,1-2.3-.4,4.18,4.18,0,0,1-1.8-1.1,8.17,8.17,0,0,1-1.2-2,10.32,10.32,0,0,1-.4-3V100.8h4.7v11.3a5,5,0,0,0,.2,1.2,2.1,2.1,0,0,0,1.3,1.3,3.55,3.55,0,0,0,1,.2,4.48,4.48,0,0,0,2-.4,3.45,3.45,0,0,0,1.2-1.2V100.9h4.7v17.4H42.6Z"/><path class="cls-1" d="M58.4,118.5a8.89,8.89,0,0,1-3.6-.7,8,8,0,0,1-2.7-1.8,10.57,10.57,0,0,1-1.7-2.6,9.6,9.6,0,0,1-.6-3.3v-.6a10.88,10.88,0,0,1,.6-3.6,9.7,9.7,0,0,1,1.6-2.8,8.32,8.32,0,0,1,2.6-1.9,8.65,8.65,0,0,1,6.7,0,8.07,8.07,0,0,1,2.4,1.7,7.2,7.2,0,0,1,1.5,2.7,13.45,13.45,0,0,1,.5,3.5v2H54.4a4.94,4.94,0,0,0,.5,1.6,4.7,4.7,0,0,0,.9,1.2,5.67,5.67,0,0,0,1.3.8,4.53,4.53,0,0,0,1.6.3,5.93,5.93,0,0,0,2.3-.5,4.41,4.41,0,0,0,1.8-1.5l2.3,2.6a10.59,10.59,0,0,1-1,1.2,5.6,5.6,0,0,1-1.5,1,14.58,14.58,0,0,1-1.9.7Zm-.6-14.3a2.77,2.77,0,0,0-1.3.3,3.59,3.59,0,0,0-1,.7,4.13,4.13,0,0,0-.7,1.1,8.33,8.33,0,0,0-.4,1.5H61v-.4a5.85,5.85,0,0,0-.2-1.3,2.07,2.07,0,0,0-.6-1,3.59,3.59,0,0,0-1-.7A5.9,5.9,0,0,0,57.8,104.2Z"/><path class="cls-1" d="M76.2,118.5a8.89,8.89,0,0,1-3.6-.7,8,8,0,0,1-2.7-1.8,9.48,9.48,0,0,1-1.7-2.7,9.6,9.6,0,0,1-.6-3.3v-.6a11.33,11.33,0,0,1,.6-3.6,9.7,9.7,0,0,1,1.6-2.8,9.2,9.2,0,0,1,2.5-1.9,8.65,8.65,0,0,1,6.7,0,7,7,0,0,1,2.4,1.7,7.2,7.2,0,0,1,1.5,2.7,13.45,13.45,0,0,1,.5,3.5v2H72.3a4.94,4.94,0,0,0,.5,1.6,4.7,4.7,0,0,0,.9,1.2,5.67,5.67,0,0,0,1.3.8,4.53,4.53,0,0,0,1.6.3,5.93,5.93,0,0,0,2.3-.5,5.17,5.17,0,0,0,1.8-1.5l2.3,2.6a10.59,10.59,0,0,1-1,1.2,5.6,5.6,0,0,1-1.5,1,14.58,14.58,0,0,1-1.9.7A19.27,19.27,0,0,1,76.2,118.5Zm-.5-14.3a2.77,2.77,0,0,0-1.3.3,3.59,3.59,0,0,0-1,.7,4.13,4.13,0,0,0-.7,1.1,8.33,8.33,0,0,0-.4,1.5h6.5v-.4a5.85,5.85,0,0,0-.2-1.3,2.07,2.07,0,0,0-.6-1,3.59,3.59,0,0,0-1-.7A5.85,5.85,0,0,0,75.7,104.2Z"/><path class="cls-1" d="M90.3,100.8l.2,2a6.2,6.2,0,0,1,2.2-1.7,7.06,7.06,0,0,1,2.8-.6,9.08,9.08,0,0,1,2.3.3,3.37,3.37,0,0,1,1.7,1.1,5.29,5.29,0,0,1,1.1,2.1,11,11,0,0,1,.4,3.1v11.1H96.3V107.1a6.75,6.75,0,0,0-.2-1.4,4.05,4.05,0,0,0-.5-.9,1.93,1.93,0,0,0-.9-.5,4.87,4.87,0,0,0-1.2-.1,3.92,3.92,0,0,0-1.8.4,3.45,3.45,0,0,0-1.2,1.2v12.3H85.9V100.7h4.4Z"/><path class="cls-1" d="M114,113.4a1,1,0,0,0-.2-.7,1.7,1.7,0,0,0-.6-.6,3.7,3.7,0,0,0-1.1-.5,12.09,12.09,0,0,0-1.8-.5,23.35,23.35,0,0,1-2.5-.7,7.81,7.81,0,0,1-2-1.1,4.71,4.71,0,0,1-1.3-1.5,4.25,4.25,0,0,1,0-4,3.91,3.91,0,0,1,1.4-1.7,7.76,7.76,0,0,1,2.2-1.2,7,7,0,0,1,2.9-.4,10.32,10.32,0,0,1,3,.4,5.67,5.67,0,0,1,2.3,1.2,6.55,6.55,0,0,1,1.5,1.8,5.93,5.93,0,0,1,.5,2.3h-4.7a2.72,2.72,0,0,0-.6-1.7,3.06,3.06,0,0,0-2-.7,2.9,2.9,0,0,0-1.8.5,1.61,1.61,0,0,0-.6,1.3,1.85,1.85,0,0,0,.2.7,1.7,1.7,0,0,0,.6.6,9.29,9.29,0,0,0,1,.5,8.33,8.33,0,0,0,1.5.4,19.73,19.73,0,0,1,2.6.7,10,10,0,0,1,2.1,1,4.39,4.39,0,0,1,1.4,1.6,4.66,4.66,0,0,1,0,4.3,6.12,6.12,0,0,1-1.5,1.7,7,7,0,0,1-2.3,1.1,10.32,10.32,0,0,1-3,.4,11.27,11.27,0,0,1-3.2-.5,9.21,9.21,0,0,1-2.4-1.3,5.22,5.22,0,0,1-1.4-1.9,5.37,5.37,0,0,1-.5-2.1h4.4a2.54,2.54,0,0,0,.2,1.2,2.7,2.7,0,0,0,.7.8,1.78,1.78,0,0,0,1,.4,5,5,0,0,0,1.2.2,3.51,3.51,0,0,0,2-.5A2.24,2.24,0,0,0,114,113.4Z"/><path class="cls-1" d="M126.4,118.2h-4.7V93.5h4.7Z"/><path class="cls-1" d="M140.3,118.2a7.49,7.49,0,0,1-.5-1.6,4.63,4.63,0,0,1-1.8,1.3,6.31,6.31,0,0,1-4.9.2,5.24,5.24,0,0,1-1.9-1.1,5.5,5.5,0,0,1-1.3-1.7,4,4,0,0,1-.4-2.1,6.44,6.44,0,0,1,.5-2.4,5.17,5.17,0,0,1,1.5-1.8,8,8,0,0,1,2.5-1.1,13.42,13.42,0,0,1,3.5-.4h2.1v-1a3.08,3.08,0,0,0-.6-1.9,2.49,2.49,0,0,0-2-.7,2.79,2.79,0,0,0-1.8.6,2,2,0,0,0-.7,1.6h-4.7a5,5,0,0,1,.5-2.1,6.55,6.55,0,0,1,1.5-1.8,10.08,10.08,0,0,1,2.3-1.2,8,8,0,0,1,3.1-.4,9,9,0,0,1,2.8.4,5.7,5.7,0,0,1,2.2,1.1,7,7,0,0,1,1.5,1.9,6.18,6.18,0,0,1,.5,2.7v8.7a4.1,4.1,0,0,0,.1,1.1,1.88,1.88,0,0,0,.2.8c.1.2.2.5.3.7v.3Zm-3.8-3.2a4.55,4.55,0,0,0,2-.5,1.79,1.79,0,0,0,.7-.5c.2-.2.3-.4.5-.6v-3h-1.9a8.75,8.75,0,0,0-1.6.2,2.38,2.38,0,0,0-1.1.6,1.56,1.56,0,0,0-.6.8,3.59,3.59,0,0,0-.2,1.1,1.82,1.82,0,0,0,.6,1.4,2.54,2.54,0,0,0,1.6.5Z"/><path class="cls-1" d="M152.2,100.8l.1,2a6.2,6.2,0,0,1,2.2-1.7,7.06,7.06,0,0,1,2.8-.6,9.08,9.08,0,0,1,2.3.3,4.52,4.52,0,0,1,1.7,1.1,5.29,5.29,0,0,1,1.1,2.1,11,11,0,0,1,.4,3.1v11.1h-4.6V107.1a6.75,6.75,0,0,0-.2-1.4,4.05,4.05,0,0,0-.5-.9,1.93,1.93,0,0,0-.9-.5,4.87,4.87,0,0,0-1.2-.1,3.92,3.92,0,0,0-1.8.4,3.45,3.45,0,0,0-1.2,1.2v12.3h-4.7V100.7h4.5Z"/><path class="cls-1" d="M165.7,109.4a11.19,11.19,0,0,1,.5-3.6,9,9,0,0,1,1.3-2.8,6,6,0,0,1,2.1-1.8,5.83,5.83,0,0,1,2.9-.6,6.87,6.87,0,0,1,2.4.5,4.89,4.89,0,0,1,1.8,1.4V93.6h4.7v24.8h-4.2l-.2-1.8a5.5,5.5,0,0,1-4.5,2.2,5.92,5.92,0,0,1-2.9-.7,6.11,6.11,0,0,1-2.1-1.8,7.19,7.19,0,0,1-1.3-2.8,13.45,13.45,0,0,1-.5-3.5Zm4.6.3a13.55,13.55,0,0,0,.2,2,4.42,4.42,0,0,0,.6,1.6,3.46,3.46,0,0,0,1,1.1,2.93,2.93,0,0,0,1.6.4,3.2,3.2,0,0,0,1.9-.5,3.74,3.74,0,0,0,1.2-1.3v-6.9a3,3,0,0,0-1.2-1.3,4.07,4.07,0,0,0-1.8-.5,3.17,3.17,0,0,0-1.6.4,2.66,2.66,0,0,0-1,1.1,5.23,5.23,0,0,0-.6,1.6,13.55,13.55,0,0,0-.2,2Z"/><path class="cls-1" d="M198.7,118.2h-4.8V94.8h4.8Z"/><path class="cls-1" d="M207.1,100.8l.1,2a6.2,6.2,0,0,1,2.2-1.7,7.06,7.06,0,0,1,2.8-.6,9.08,9.08,0,0,1,2.3.3,4.18,4.18,0,0,1,1.8,1.1,5.29,5.29,0,0,1,1.1,2.1,11,11,0,0,1,.4,3.1v11.1h-4.7V107.1a6.75,6.75,0,0,0-.2-1.4,4.05,4.05,0,0,0-.5-.9,1.93,1.93,0,0,0-.9-.5,4.87,4.87,0,0,0-1.2-.1,3.92,3.92,0,0,0-1.8.4,3.45,3.45,0,0,0-1.2,1.2v12.3h-4.7V100.7h4.5Z"/><path class="cls-1" d="M222.6,118.2v-14H220v-3.4h2.6V99.3a7.46,7.46,0,0,1,.4-2.6,5,5,0,0,1,1.3-1.9,8.17,8.17,0,0,1,2-1.2,8.42,8.42,0,0,1,2.7-.4,4.87,4.87,0,0,1,1.2.1c.4.1.8.1,1.1.2v3.6a6.75,6.75,0,0,0-1.4-.2,3.08,3.08,0,0,0-1.9.6,2.41,2.41,0,0,0-.7,1.8v1.5h3.5v3.4h-3.5v14Z"/><path class="cls-1" d="M242.9,105.1l-.8-.1h-.9a4.19,4.19,0,0,0-2.2.5,3,3,0,0,0-1.2,1.3v11.4h-4.7V100.8h4.4l.1,2.1a5.81,5.81,0,0,1,1.7-1.8,3.79,3.79,0,0,1,2.3-.6,2.2,2.2,0,0,1,.8.1,1.85,1.85,0,0,1,.7.2Z"/><path class="cls-1" d="M254.8,118.2a7.49,7.49,0,0,1-.5-1.6,4.63,4.63,0,0,1-1.8,1.3,6.31,6.31,0,0,1-4.9.2,5.24,5.24,0,0,1-1.9-1.1,5.5,5.5,0,0,1-1.3-1.7,4,4,0,0,1-.4-2.1,7,7,0,0,1,.5-2.5,5.17,5.17,0,0,1,1.5-1.8,8,8,0,0,1,2.5-1.1,13.42,13.42,0,0,1,3.5-.4h2.1v-1a3.08,3.08,0,0,0-.6-1.9,2.49,2.49,0,0,0-2-.7,3.29,3.29,0,0,0-1.9.6,2,2,0,0,0-.7,1.6h-4.7a3.94,3.94,0,0,1,.6-2.1,6.55,6.55,0,0,1,1.5-1.8,10.08,10.08,0,0,1,2.3-1.2,8,8,0,0,1,3.1-.4,9,9,0,0,1,2.8.4,4.77,4.77,0,0,1,2.2,1.2,5.5,5.5,0,0,1,1.5,1.9,6.18,6.18,0,0,1,.5,2.7v8.7a4.1,4.1,0,0,0,.1,1.1,1.88,1.88,0,0,0,.2.8c.1.2.2.5.3.7v.3Zm-3.9-3.2a4.55,4.55,0,0,0,2-.5,1.79,1.79,0,0,0,.7-.5c.2-.2.3-.4.5-.6v-3h-1.9a8.75,8.75,0,0,0-1.6.2,2.38,2.38,0,0,0-1.1.6,1.56,1.56,0,0,0-.6.8,3.59,3.59,0,0,0-.2,1.1,1.82,1.82,0,0,0,.6,1.4,2.77,2.77,0,0,0,1.6.5Z"/><path class="cls-1" d="M271.8,113.4a1.7,1.7,0,0,0-.1-.7,2.65,2.65,0,0,0-.5-.6,3.7,3.7,0,0,0-1.1-.5,12.09,12.09,0,0,0-1.8-.5,23.35,23.35,0,0,1-2.5-.7,7.81,7.81,0,0,1-2-1.1,4.71,4.71,0,0,1-1.3-1.5,4.55,4.55,0,0,1-.5-2,5.37,5.37,0,0,1,.5-2.1,3.91,3.91,0,0,1,1.4-1.7,7.76,7.76,0,0,1,2.2-1.2,7,7,0,0,1,2.9-.4,10.32,10.32,0,0,1,3,.4,5.67,5.67,0,0,1,2.3,1.2,5.17,5.17,0,0,1,1.5,1.8,5.93,5.93,0,0,1,.5,2.3h-4.7a2.72,2.72,0,0,0-.6-1.7,3.06,3.06,0,0,0-2-.7,2.9,2.9,0,0,0-1.8.5,1.61,1.61,0,0,0-.6,1.3,1.85,1.85,0,0,0,.2.7,2.65,2.65,0,0,0,.5.6,9.29,9.29,0,0,0,1,.5,8.33,8.33,0,0,0,1.5.4,19.73,19.73,0,0,1,2.6.7,10,10,0,0,1,2.1,1,4.39,4.39,0,0,1,1.4,1.6,4.66,4.66,0,0,1,0,4.3,6.12,6.12,0,0,1-1.5,1.7,7,7,0,0,1-2.3,1.1,10.32,10.32,0,0,1-3,.4,11.27,11.27,0,0,1-3.2-.5,9.21,9.21,0,0,1-2.4-1.3,5.22,5.22,0,0,1-1.4-1.9,5.37,5.37,0,0,1-.5-2.1H266a2.66,2.66,0,0,0,.3,1.2,2.7,2.7,0,0,0,.7.8,1.78,1.78,0,0,0,1,.4,5,5,0,0,0,1.2.2,3.51,3.51,0,0,0,2-.5A1.64,1.64,0,0,0,271.8,113.4Z"/><path class="cls-1" d="M284.9,96.5v4.3h3v3.4h-3v8.7a2.77,2.77,0,0,0,.1.9l.3.6.6.3a2.2,2.2,0,0,0,.8.1h.8l.6-.1v3.5c-.4.1-.8.2-1.3.3a8.71,8.71,0,0,1-3.6-.2,5.07,5.07,0,0,1-1.6-.9,3.36,3.36,0,0,1-1-1.6,6.72,6.72,0,0,1-.4-2.4v-9.2h-2.5v-3.5h2.6V96.4h4.6Z"/><path class="cls-1" d="M300.3,105.1l-.8-.1h-.9a4.19,4.19,0,0,0-2.2.5,3.25,3.25,0,0,0-1.3,1.3v11.4h-4.7V100.8h4.4l.1,2.1a6.9,6.9,0,0,1,1.6-1.8,3.79,3.79,0,0,1,2.3-.6,2.2,2.2,0,0,1,.8.1,1.85,1.85,0,0,1,.7.2Z"/><path class="cls-1" d="M313,116.4a5.26,5.26,0,0,1-2,1.6,7.08,7.08,0,0,1-5.2.2,4.18,4.18,0,0,1-1.8-1.1,8.17,8.17,0,0,1-1.2-2,10.32,10.32,0,0,1-.4-3V100.8h4.7v11.3a5,5,0,0,0,.2,1.2,2.1,2.1,0,0,0,1.3,1.3,3.55,3.55,0,0,0,1,.2,4.48,4.48,0,0,0,2-.4,3.45,3.45,0,0,0,1.2-1.2V100.9h4.7v17.4h-4.4Z"/><path class="cls-1" d="M328.3,114.8a5,5,0,0,0,1.2-.2,4.05,4.05,0,0,0,.9-.5,1.56,1.56,0,0,0,.6-.8,3.59,3.59,0,0,0,.2-1.1h4.4a5.83,5.83,0,0,1-.6,2.6,7.49,7.49,0,0,1-1.5,2,6.54,6.54,0,0,1-2.3,1.3,9.18,9.18,0,0,1-2.8.5,8.42,8.42,0,0,1-3.5-.7,6.67,6.67,0,0,1-2.5-1.9,7.61,7.61,0,0,1-1.5-2.8,13.45,13.45,0,0,1-.5-3.5v-.4a14.08,14.08,0,0,1,.5-3.5,7.61,7.61,0,0,1,1.5-2.8,6.67,6.67,0,0,1,2.5-1.9,8.42,8.42,0,0,1,3.5-.7,9.29,9.29,0,0,1,2.9.5,7.89,7.89,0,0,1,2.3,1.4,7.12,7.12,0,0,1,1.5,2.2,5.57,5.57,0,0,1,.5,2.8h-4.4a5,5,0,0,0-.2-1.2,2.07,2.07,0,0,0-.6-1,5.5,5.5,0,0,0-.9-.7,2.74,2.74,0,0,0-1.3-.2,3.29,3.29,0,0,0-1.7.4,3.46,3.46,0,0,0-1,1.1,4.94,4.94,0,0,0-.5,1.6,12.1,12.1,0,0,0-.1,1.9v.4a12.1,12.1,0,0,0,.1,1.9,4.28,4.28,0,0,0,.5,1.6,3.46,3.46,0,0,0,1,1.1A2.61,2.61,0,0,0,328.3,114.8Z"/><path class="cls-1" d="M343.8,96.5v4.3h3v3.4h-3v8.7a2.77,2.77,0,0,0,.1.9l.3.6.6.3a2.2,2.2,0,0,0,.8.1h.8l.6-.1v3.5c-.4.1-.8.2-1.3.3a8.71,8.71,0,0,1-3.6-.2,5.07,5.07,0,0,1-1.6-.9,3.36,3.36,0,0,1-1-1.6,6.72,6.72,0,0,1-.4-2.4v-9.2h-2.5v-3.5h2.5V96.4h4.7Z"/><path class="cls-1" d="M359.8,116.4a5.26,5.26,0,0,1-2,1.6,7.08,7.08,0,0,1-5.2.2,4.18,4.18,0,0,1-1.8-1.1,8.17,8.17,0,0,1-1.2-2,10.32,10.32,0,0,1-.4-3V100.8h4.7v11.3a5,5,0,0,0,.2,1.2,2.1,2.1,0,0,0,1.3,1.3,3.55,3.55,0,0,0,1,.2,4.48,4.48,0,0,0,2-.4,3.45,3.45,0,0,0,1.2-1.2V100.9h4.7v17.4h-4.4Z"/><path class="cls-1" d="M377.6,105.1l-.8-.1h-.9a4.19,4.19,0,0,0-2.2.5,3,3,0,0,0-1.2,1.3v11.4h-4.7V100.8h4.4l.1,2.1a6.9,6.9,0,0,1,1.6-1.8,3.79,3.79,0,0,1,2.3-.6,2.2,2.2,0,0,1,.8.1,1.85,1.85,0,0,1,.7.2Z"/><path class="cls-1" d="M387.6,118.5a8.89,8.89,0,0,1-3.6-.7,8,8,0,0,1-2.7-1.8,9.48,9.48,0,0,1-1.7-2.7,9.6,9.6,0,0,1-.6-3.3v-.6a10.88,10.88,0,0,1,.6-3.6,9.7,9.7,0,0,1,1.6-2.8,8.32,8.32,0,0,1,2.6-1.9,8.65,8.65,0,0,1,6.7,0,7,7,0,0,1,2.4,1.7,7.2,7.2,0,0,1,1.5,2.7,13.45,13.45,0,0,1,.5,3.5v2H383.8a4.94,4.94,0,0,0,.5,1.6,4.7,4.7,0,0,0,.9,1.2,5.67,5.67,0,0,0,1.3.8,4.53,4.53,0,0,0,1.6.3,6.87,6.87,0,0,0,2.4-.5,4.41,4.41,0,0,0,1.8-1.5l2.3,2.6a10.59,10.59,0,0,1-1,1.2,5.6,5.6,0,0,1-1.5,1,14.58,14.58,0,0,1-1.9.7A24.4,24.4,0,0,1,387.6,118.5Zm-.5-14.3a2.77,2.77,0,0,0-1.3.3,3.59,3.59,0,0,0-1,.7,4.13,4.13,0,0,0-.7,1.1,8.33,8.33,0,0,0-.4,1.5h6.5v-.4a5.85,5.85,0,0,0-.2-1.3,2.07,2.07,0,0,0-.6-1,3.59,3.59,0,0,0-1-.7A5.85,5.85,0,0,0,387.1,104.2Z"/><path class="cls-1" d="M410.8,109.9v8.3H406V94.8h9.1a11.48,11.48,0,0,1,3.7.6,7.85,7.85,0,0,1,2.8,1.6,6.42,6.42,0,0,1,1.8,2.5,8.31,8.31,0,0,1,0,6.2,6.58,6.58,0,0,1-1.7,2.3,7.61,7.61,0,0,1-2.8,1.5,11.8,11.8,0,0,1-3.7.5Zm0-3.9h4.3a5.66,5.66,0,0,0,1.8-.3,2.4,2.4,0,0,0,1.2-.7,2.59,2.59,0,0,0,.7-1.1,3.4,3.4,0,0,0,.2-1.4,7.72,7.72,0,0,0-.2-1.5,2.4,2.4,0,0,0-.7-1.2,3.45,3.45,0,0,0-1.2-.9,5.66,5.66,0,0,0-1.8-.3h-4.3Z"/><path class="cls-1" d="M426.9,96.3a2.19,2.19,0,0,1,.7-1.7,2.64,2.64,0,0,1,1.9-.7,4.25,4.25,0,0,1,1.1.2,2.1,2.1,0,0,1,1.3,1.3,2.6,2.6,0,0,1,0,2,2.1,2.1,0,0,1-1.3,1.3,4.11,4.11,0,0,1-2.2,0,2.1,2.1,0,0,1-1.3-1.3A2.34,2.34,0,0,1,426.9,96.3Zm4.9,21.9h-4.7V100.8h4.7Z"/><path class="cls-1" d="M451.3,109.7a13.42,13.42,0,0,1-.4,3.5,9,9,0,0,1-1.3,2.8,5.2,5.2,0,0,1-2.1,1.8,5.92,5.92,0,0,1-2.9.7,4.94,4.94,0,0,1-2.4-.5,5.94,5.94,0,0,1-1.8-1.3v8.2h-4.7V100.8H440l.2,1.7a7,7,0,0,1,1.9-1.5,4.51,4.51,0,0,1,2.5-.5,7.17,7.17,0,0,1,2.9.6,5.2,5.2,0,0,1,2.1,1.8,9,9,0,0,1,1.3,2.8,11.07,11.07,0,0,1,.4,3.6Zm-4.6-.4a13.55,13.55,0,0,0-.2-2,4.42,4.42,0,0,0-.6-1.6,3.46,3.46,0,0,0-1-1.1,2.93,2.93,0,0,0-1.6-.4,4.06,4.06,0,0,0-1.9.4,2.54,2.54,0,0,0-1.1,1.2v7.1a3.48,3.48,0,0,0,1.1,1.3,4.14,4.14,0,0,0,1.9.5,3.17,3.17,0,0,0,1.6-.4,3.46,3.46,0,0,0,1-1.1,5.23,5.23,0,0,0,.6-1.6,13.55,13.55,0,0,0,.2-2Z"/><path class="cls-1" d="M462.3,118.5a8.89,8.89,0,0,1-3.6-.7A8,8,0,0,1,456,116a9.48,9.48,0,0,1-1.7-2.7,9.6,9.6,0,0,1-.6-3.3v-.6a10.88,10.88,0,0,1,.6-3.6,9.7,9.7,0,0,1,1.6-2.8,8.32,8.32,0,0,1,2.6-1.9,8.65,8.65,0,0,1,6.7,0,8.07,8.07,0,0,1,2.4,1.7,7.2,7.2,0,0,1,1.5,2.7,13.45,13.45,0,0,1,.5,3.5v2H458.5a4.94,4.94,0,0,0,.5,1.6,4.7,4.7,0,0,0,.9,1.2,5.67,5.67,0,0,0,1.3.8,4.53,4.53,0,0,0,1.6.3,6.87,6.87,0,0,0,2.4-.5,5.5,5.5,0,0,0,1.9-1.5l2.3,2.6a10.59,10.59,0,0,1-1,1.2,5.6,5.6,0,0,1-1.5,1,14.58,14.58,0,0,1-1.9.7C463.9,118.5,463.1,118.5,462.3,118.5Zm-.6-14.3a2.77,2.77,0,0,0-1.3.3,3.59,3.59,0,0,0-1,.7,4.13,4.13,0,0,0-.7,1.1,8.33,8.33,0,0,0-.4,1.5h6.5v-.4a5.85,5.85,0,0,0-.2-1.3,2.07,2.07,0,0,0-.6-1,3.59,3.59,0,0,0-1-.7A5.07,5.07,0,0,0,461.7,104.2Z"/><path class="cls-1" d="M477,118.2h-4.7V93.5H477Z"/><path class="cls-1" d="M480.8,96.3a2.19,2.19,0,0,1,.7-1.7,2.64,2.64,0,0,1,1.9-.7,4.25,4.25,0,0,1,1.1.2,2.1,2.1,0,0,1,1.3,1.3,2.6,2.6,0,0,1,0,2,2.1,2.1,0,0,1-1.3,1.3,4.11,4.11,0,0,1-2.2,0,2.1,2.1,0,0,1-1.3-1.3A2.34,2.34,0,0,1,480.8,96.3Zm4.9,21.9H481V100.8h4.7Z"/><path class="cls-1" d="M493.9,100.8l.1,2a6.2,6.2,0,0,1,2.2-1.7,7.06,7.06,0,0,1,2.8-.6,5.87,5.87,0,0,1,2.3.4A3.37,3.37,0,0,1,503,102a5.29,5.29,0,0,1,1.1,2.1,11,11,0,0,1,.4,3.1v11.1h-4.7V107.2a6.75,6.75,0,0,0-.2-1.4,4.05,4.05,0,0,0-.5-.9,1.93,1.93,0,0,0-.9-.5,4.87,4.87,0,0,0-1.2-.1,3.92,3.92,0,0,0-1.8.4,3.45,3.45,0,0,0-1.2,1.2v12.3h-4.7V100.8Z"/><path class="cls-1" d="M516.1,118.5a8.89,8.89,0,0,1-3.6-.7,8,8,0,0,1-2.7-1.8,9.48,9.48,0,0,1-1.7-2.7,9.6,9.6,0,0,1-.6-3.3v-.6a10.88,10.88,0,0,1,.6-3.6,9.7,9.7,0,0,1,1.6-2.8,8.32,8.32,0,0,1,2.6-1.9,8.65,8.65,0,0,1,6.7,0,7,7,0,0,1,2.4,1.7,7.2,7.2,0,0,1,1.5,2.7,13.45,13.45,0,0,1,.5,3.5v2H512.3a4.94,4.94,0,0,0,.5,1.6,4.7,4.7,0,0,0,.9,1.2,5.67,5.67,0,0,0,1.3.8,4.53,4.53,0,0,0,1.6.3,5.93,5.93,0,0,0,2.3-.5,5.17,5.17,0,0,0,1.8-1.5l2.3,2.6a10.59,10.59,0,0,1-1,1.2,5.6,5.6,0,0,1-1.5,1,14.58,14.58,0,0,1-1.9.7A21.75,21.75,0,0,1,516.1,118.5Zm-.6-14.3a2.77,2.77,0,0,0-1.3.3,3.59,3.59,0,0,0-1,.7,4.13,4.13,0,0,0-.7,1.1,8.33,8.33,0,0,0-.4,1.5h6.5v-.4a5.85,5.85,0,0,0-.2-1.3,2.07,2.07,0,0,0-.6-1,3.59,3.59,0,0,0-1-.7A4.44,4.44,0,0,0,515.5,104.2Z"/></g></g><g class="cls-2"><path class="cls-3" d="M30,30.09a4,4,0,0,0-1.39-3.16,14,14,0,0,0-4.89-2.25,27.81,27.81,0,0,1-9.21-4.17,7.9,7.9,0,0,1-3.12-6.61A8.19,8.19,0,0,1,14.92,7a14.89,14.89,0,0,1,9.13-2.66,13.72,13.72,0,0,1,9.16,3,8.93,8.93,0,0,1,3.42,7.37l-.05.14H30a5,5,0,0,0-1.58-3.83,6.29,6.29,0,0,0-4.44-1.46,6.57,6.57,0,0,0-4.24,1.21,3.86,3.86,0,0,0-1.5,3.12,3.34,3.34,0,0,0,1.6,2.85,22.38,22.38,0,0,0,5.54,2.36,21.42,21.42,0,0,1,8.56,4.14,8.63,8.63,0,0,1,2.91,6.78A8.12,8.12,0,0,1,33.34,37a15.1,15.1,0,0,1-9.13,2.53,16.64,16.64,0,0,1-9.73-2.87,9,9,0,0,1-4-8l.05-.14h6.65A5.25,5.25,0,0,0,19,32.89a8.36,8.36,0,0,0,5.19,1.42,6.83,6.83,0,0,0,4.27-1.15A3.68,3.68,0,0,0,30,30.09Z"/><path class="cls-3" d="M49.55,7.43v6.21h4.26v4.81H49.55V31.36a3,3,0,0,0,.6,2.11,2.2,2.2,0,0,0,1.65.63,6.17,6.17,0,0,0,.92-.06,6.84,6.84,0,0,0,.9-.2l.59,4.95a14.73,14.73,0,0,1-2,.53,12.77,12.77,0,0,1-2.13.17,7.33,7.33,0,0,1-5.45-1.94c-1.27-1.3-1.91-3.35-1.91-6.17V18.45H39V13.64h3.7V7.43Z"/><path class="cls-3" d="M73.05,39a14.6,14.6,0,0,1-.64-1.83,12.72,12.72,0,0,1-.39-2,9.31,9.31,0,0,1-2.78,3.07,6.84,6.84,0,0,1-4.11,1.22A8.56,8.56,0,0,1,59,37.44a7.34,7.34,0,0,1-2.16-5.59,6.69,6.69,0,0,1,2.88-5.78c1.91-1.36,4.7-2.05,8.37-2.05H71.9V22a4,4,0,0,0-1-2.84,4.48,4.48,0,0,0-5.4-.2,2.86,2.86,0,0,0-.9,2.24l-6.61,0,0-.14A6.45,6.45,0,0,1,60.8,15.5a12.15,12.15,0,0,1,7.75-2.33,11.34,11.34,0,0,1,7.39,2.31,8,8,0,0,1,2.83,6.57V32.53A19.68,19.68,0,0,0,79,35.88,16.84,16.84,0,0,0,79.9,39ZM66.8,34.43A5.91,5.91,0,0,0,70,33.54a4.59,4.59,0,0,0,1.89-2.06V27.89H68.08A4.55,4.55,0,0,0,64.78,29a3.56,3.56,0,0,0-1.13,2.64,2.66,2.66,0,0,0,.85,2A3.3,3.3,0,0,0,66.8,34.43Z"/><path class="cls-3" d="M92.08,7.43v6.21h4.27v4.81H92.08V31.36a3,3,0,0,0,.61,2.11,2.19,2.19,0,0,0,1.64.63,6.22,6.22,0,0,0,.93-.06,6.84,6.84,0,0,0,.9-.2l.59,4.95a14.73,14.73,0,0,1-2,.53,12.77,12.77,0,0,1-2.13.17,7.31,7.31,0,0,1-5.45-1.94c-1.27-1.3-1.91-3.35-1.91-6.17V18.45h-3.7V13.64h3.7V7.43Z"/><path class="cls-3" d="M111.94,39.49A11.44,11.44,0,0,1,103.17,36a12.57,12.57,0,0,1-3.28-8.93v-.94A13.88,13.88,0,0,1,103,16.8a10.35,10.35,0,0,1,8.34-3.63c3.42,0,6.07,1,8,3.1a11.89,11.89,0,0,1,2.83,8.36v3.73H107l0,.14a6.63,6.63,0,0,0,1.68,4.11,5.24,5.24,0,0,0,4,1.61,13,13,0,0,0,3.78-.46,16.86,16.86,0,0,0,3.28-1.44l1.85,4.23a12.57,12.57,0,0,1-4.06,2.11A17.75,17.75,0,0,1,111.94,39.49Zm-.61-21a3.55,3.55,0,0,0-3,1.45A7.49,7.49,0,0,0,107,23.72l.07.12h8.39v-.61a5.46,5.46,0,0,0-1-3.48A3.67,3.67,0,0,0,111.33,18.45Z"/><path class="cls-3" d="M145.9,39h-6.85V4.88h6.85Z"/><path class="cls-3" d="M158.41,13.64l.31,3.63a9.33,9.33,0,0,1,3.11-3A8.1,8.1,0,0,1,166,13.17a7.61,7.61,0,0,1,6,2.42q2.16,2.41,2.16,7.57V39h-6.87V23.14a5.16,5.16,0,0,0-1-3.63,4.16,4.16,0,0,0-3.12-1.06,5.21,5.21,0,0,0-2.43.55,5.11,5.11,0,0,0-1.81,1.56V39H152V13.64Z"/><path class="cls-3" d="M181,39V18.45h-3.77V13.64H181V10.83a8.58,8.58,0,0,1,2.46-6.58A9.71,9.71,0,0,1,190.4,2a13.38,13.38,0,0,1,1.77.12c.61.09,1.27.21,2,.37l-.58,5.08-1.09-.16a8.88,8.88,0,0,0-1.23-.07,3.28,3.28,0,0,0-2.52.91,3.72,3.72,0,0,0-.86,2.63v2.81h5v4.81h-5V39Z"/><path class="cls-3" d="M209.74,19.52l-2.51-.07a4.46,4.46,0,0,0-2.5.64,3.93,3.93,0,0,0-1.5,1.78V39H196.4V13.64h6.36l.3,3.75a7.87,7.87,0,0,1,2.31-3.1,5.09,5.09,0,0,1,3.27-1.12,5.61,5.61,0,0,1,1,.08l.88.2Z"/><path class="cls-3" d="M228.09,39a14.6,14.6,0,0,1-.64-1.83,12.72,12.72,0,0,1-.39-2,9.31,9.31,0,0,1-2.78,3.07,6.87,6.87,0,0,1-4.11,1.22A8.55,8.55,0,0,1,214,37.44a7.34,7.34,0,0,1-2.16-5.59,6.71,6.71,0,0,1,2.87-5.78c1.92-1.36,4.71-2.05,8.38-2.05h3.82V22a4,4,0,0,0-1-2.84,4.48,4.48,0,0,0-5.4-.2,2.86,2.86,0,0,0-.9,2.24l-6.61,0,0-.14a6.47,6.47,0,0,1,2.78-5.55,12.2,12.2,0,0,1,7.76-2.33A11.36,11.36,0,0,1,231,15.48a8,8,0,0,1,2.83,6.57V32.53a19.68,19.68,0,0,0,.27,3.35,16.84,16.84,0,0,0,.86,3.12Zm-6.26-4.57a5.92,5.92,0,0,0,3.22-.89,4.59,4.59,0,0,0,1.89-2.06V27.89h-3.82a4.55,4.55,0,0,0-3.3,1.09,3.56,3.56,0,0,0-1.13,2.64,2.66,2.66,0,0,0,.85,2A3.29,3.29,0,0,0,221.83,34.43Z"/><path class="cls-3" d="M252.7,32a2.39,2.39,0,0,0-1.09-2,11,11,0,0,0-4-1.45,16.29,16.29,0,0,1-6.79-2.71A5.89,5.89,0,0,1,238.5,21a7,7,0,0,1,2.75-5.56,11.16,11.16,0,0,1,7.37-2.29,12.1,12.1,0,0,1,7.73,2.28,6.71,6.71,0,0,1,2.75,5.74l-.05.14h-6.61a3.34,3.34,0,0,0-1-2.49,4.66,4.66,0,0,0-5.46-.15,2.57,2.57,0,0,0-.95,2,2.29,2.29,0,0,0,1,1.92,10.82,10.82,0,0,0,4,1.34,16.27,16.27,0,0,1,7,2.75,6,6,0,0,1,2.27,5,6.63,6.63,0,0,1-2.93,5.59,12.65,12.65,0,0,1-7.73,2.17,11.75,11.75,0,0,1-8-2.56,7.17,7.17,0,0,1-2.8-5.85l0-.14h6.26a3.54,3.54,0,0,0,1.34,2.95,5.49,5.49,0,0,0,3.3.91,4.78,4.78,0,0,0,2.9-.75A2.4,2.4,0,0,0,252.7,32Z"/><path class="cls-3" d="M271.87,7.43v6.21h4.27v4.81h-4.27V31.36a3,3,0,0,0,.61,2.11,2.19,2.19,0,0,0,1.64.63,6.22,6.22,0,0,0,.93-.06,6.84,6.84,0,0,0,.9-.2l.59,4.95a14.73,14.73,0,0,1-2,.53,12.77,12.77,0,0,1-2.13.17,7.31,7.31,0,0,1-5.45-1.94c-1.27-1.3-1.91-3.35-1.91-6.17V18.45h-3.7V13.64H265V7.43Z"/><path class="cls-3" d="M296,35.34a8.38,8.38,0,0,1-3,3.07,8.77,8.77,0,0,1-10.41-1.48q-2.27-2.58-2.27-8V13.64h6.83V29a6.62,6.62,0,0,0,.93,4,3.29,3.29,0,0,0,2.77,1.21,6.84,6.84,0,0,0,2.81-.53,4.71,4.71,0,0,0,1.92-1.56V13.64h6.85V39H296.6Z"/><path class="cls-3" d="M318.23,34.22a4,4,0,0,0,2.93-1.06,3.73,3.73,0,0,0,1.1-2.83h6.22l.07.14a7.91,7.91,0,0,1-2.9,6.43,10.9,10.9,0,0,1-7.42,2.59q-5.67,0-8.74-3.58a13.64,13.64,0,0,1-3.07-9.21V26a13.76,13.76,0,0,1,3.06-9.21q3.06-3.6,8.73-3.61a10.68,10.68,0,0,1,7.56,2.67,8.92,8.92,0,0,1,2.78,7l-.05.14h-6.24a4.91,4.91,0,0,0-1.07-3.27,3.65,3.65,0,0,0-3-1.3,4,4,0,0,0-3.83,2.1A11.64,11.64,0,0,0,313.26,26v.7a11.57,11.57,0,0,0,1.12,5.47A4,4,0,0,0,318.23,34.22Z"/><path class="cls-3" d="M340.57,7.43v6.21h4.26v4.81h-4.26V31.36a3,3,0,0,0,.61,2.11,2.16,2.16,0,0,0,1.64.63,6.22,6.22,0,0,0,.93-.06,7.63,7.63,0,0,0,.9-.2l.58,4.95a14.6,14.6,0,0,1-2,.53,13,13,0,0,1-2.14.17,7.31,7.31,0,0,1-5.44-1.94c-1.28-1.3-1.91-3.35-1.91-6.17V18.45H330V13.64h3.71V7.43Z"/><path class="cls-3" d="M364.69,35.34a8.45,8.45,0,0,1-3,3.07,8.79,8.79,0,0,1-10.42-1.48Q349,34.35,349,29V13.64h6.82V29a6.54,6.54,0,0,0,.94,4,3.26,3.26,0,0,0,2.76,1.21,6.89,6.89,0,0,0,2.82-.53,4.71,4.71,0,0,0,1.92-1.56V13.64h6.84V39H365.3Z"/><path class="cls-3" d="M389.62,19.52l-2.5-.07a4.47,4.47,0,0,0-2.51.64,3.93,3.93,0,0,0-1.5,1.78V39h-6.82V13.64h6.35l.3,3.75a8.07,8.07,0,0,1,2.31-3.1,5.13,5.13,0,0,1,3.27-1.12,5.52,5.52,0,0,1,1,.08l.88.2Z"/><path class="cls-3" d="M404.32,39.49A11.44,11.44,0,0,1,395.55,36a12.61,12.61,0,0,1-3.28-8.93v-.94a13.89,13.89,0,0,1,3.11-9.31,10.35,10.35,0,0,1,8.33-3.63q5.13,0,8,3.1a11.89,11.89,0,0,1,2.83,8.36v3.73H399.37l0,.14A6.57,6.57,0,0,0,401,32.61a5.26,5.26,0,0,0,4.05,1.61,13,13,0,0,0,3.77-.46,16.86,16.86,0,0,0,3.28-1.44L414,36.55a12.61,12.61,0,0,1-4.05,2.11A17.77,17.77,0,0,1,404.32,39.49Zm-.61-21a3.55,3.55,0,0,0-3,1.45,7.59,7.59,0,0,0-1.36,3.82l.07.12h8.39v-.61a5.46,5.46,0,0,0-1-3.48A3.67,3.67,0,0,0,403.71,18.45Z"/><path class="cls-3" d="M437.86,26.63V39H431V4.88h13.6q5.88,0,9.26,3a10,10,0,0,1,3.37,7.89,10,10,0,0,1-3.37,7.88q-3.37,3-9.26,3Zm0-5.28h6.75a5.68,5.68,0,0,0,4.33-1.56,5.52,5.52,0,0,0,1.48-4A5.84,5.84,0,0,0,449,11.75a5.6,5.6,0,0,0-4.35-1.6h-6.75Z"/><path class="cls-3" d="M468.91,39h-6.84V2.44h6.84Z"/><path class="cls-3" d="M489.42,39a14.6,14.6,0,0,1-.64-1.83,12.72,12.72,0,0,1-.39-2,9.31,9.31,0,0,1-2.78,3.07,6.89,6.89,0,0,1-4.11,1.22,8.55,8.55,0,0,1-6.14-2.05,7.34,7.34,0,0,1-2.16-5.59,6.71,6.71,0,0,1,2.87-5.78C478,24.71,480.78,24,484.45,24h3.82V22a4,4,0,0,0-1-2.84,4.48,4.48,0,0,0-5.4-.2,2.86,2.86,0,0,0-.9,2.24l-6.61,0,0-.14a6.45,6.45,0,0,1,2.79-5.55,12.2,12.2,0,0,1,7.76-2.33,11.31,11.31,0,0,1,7.38,2.31,8,8,0,0,1,2.84,6.57V32.53a19.68,19.68,0,0,0,.27,3.35,16.81,16.81,0,0,0,.85,3.12Zm-6.26-4.57a5.87,5.87,0,0,0,3.21-.89,4.62,4.62,0,0,0,1.9-2.06V27.89h-3.82a4.55,4.55,0,0,0-3.3,1.09A3.56,3.56,0,0,0,480,31.62a2.63,2.63,0,0,0,.85,2A3.27,3.27,0,0,0,483.16,34.43Z"/><path class="cls-3" d="M506.58,13.64l.3,3.63a9.36,9.36,0,0,1,3.12-3,8.08,8.08,0,0,1,4.15-1.08,7.64,7.64,0,0,1,6,2.42q2.15,2.41,2.15,7.57V39h-6.86V23.14a5.21,5.21,0,0,0-1-3.63,4.16,4.16,0,0,0-3.12-1.06,5.25,5.25,0,0,0-2.44.55,5,5,0,0,0-1.8,1.56V39H500.2V13.64Z"/></g></svg>