<?xml version="1.0" encoding="utf-8"?>
<!-- Generator: Adobe Illustrator 22.1.0, SVG Export Plug-In . SVG Version: 6.00 Build 0)  -->
<svg version="1.1" id="Layer_1" xmlns="http://www.w3.org/2000/svg" xmlns:xlink="http://www.w3.org/1999/xlink" x="0px" y="0px"
	 viewBox="0 0 1080 146" style="enable-background:new 0 0 1080 146;" xml:space="preserve">
<style type="text/css">
	.st0{fill:#79BA00;}
	.st1{fill:#FFFFFF;}
	.st2{font-family:'MetaOT-Book';}
	.st3{font-size:21.0298px;}
	.st4{font-family:'MetaOT-Bold';}
	.st5{font-size:36px;}
	.st6{fill:#FFFFFF;stroke:#084E9F;stroke-width:0.18;stroke-miterlimit:10;}
	.st7{fill:none;stroke:#FFFFFF;stroke-width:4;stroke-linecap:round;stroke-linejoin:round;}
</style>
<title>IP_Header</title>
<g id="Layer_2_1_">
	<g id="Ui">
		<rect y="0" class="st0" width="1080" height="146"/>
		<text transform="matrix(1 0 0 1 55.6699 124.5306)" class="st1 st2 st3">Department of State Development, Manufacturing, Infrastructure and Planning</text>
		<text transform="matrix(1 0 0 1 153.02 70.28)" class="st1 st4 st5">Quee</text>
		<text transform="matrix(1 0 0 1 234.67 70.28)" class="st1 st4 st5">n</text>
		<text transform="matrix(1 0 0 1 254.32 70.28)" class="st1 st4 st5">s</text>
		<text transform="matrix(1 0 0 1 271.82 70.28)" class="st1 st4 st5">l</text>
		<text transform="matrix(1 0 0 1 282.22 70.28)" class="st1 st4 st5">an</text>
		<text transform="matrix(1 0 0 1 320.96 70.28)" class="st1 st4 st5">d</text>
		<text transform="matrix(1 0 0 1 340.72 70.28)" class="st1 st4 st5"> </text>
		<text transform="matrix(1 0 0 1 348.82 70.28)" class="st1 st2 st5">G</text>
		<text transform="matrix(1 0 0 1 372.26 70.28)" class="st1 st2 st5">o</text>
		<text transform="matrix(1 0 0 1 391.77 70.28)" class="st1 st2 st5">v</text>
		<text transform="matrix(1 0 0 1 408.72 70.28)" class="st1 st2 st5">e</text>
		<text transform="matrix(1 0 0 1 426.76 70.28)" class="st1 st2 st5">r</text>
		<text transform="matrix(1 0 0 1 438.68 70.28)" class="st1 st2 st5">nme</text>
		<text transform="matrix(1 0 0 1 506.71 70.28)" class="st1 st2 st5">n</text>
		<text transform="matrix(1 0 0 1 526.55 70.28)" class="st1 st2 st5">t</text>
		<path class="st1" d="M110.3,72.6c1-2.1,1.4-4.4,1.1-6.7c0-0.3-0.2-0.6-0.3-0.8c-1.3-1.8-2.2-3.8-2.6-6c-0.1-0.4-0.3-0.7-0.5-1
			c-1.3-2.7-0.3-6,2.2-7.6c1.6-0.9,3.3-1.8,4.9-2.6c0.2-0.1,0.3-0.2,0.4-0.3c0.4-0.3,1.1-0.6,0.8-1.3c-0.3-0.7-1-1.1-1.7-1
			c-1.5,0.2-2.9,0.5-4.4,0.7c-0.7,0-1.5,0-2.2,0l-0.1-0.3c0.5-0.2,0.9-0.5,1.4-0.7c0.7-0.3,1.4-0.5,2.1-0.7c1.2-0.2,2.3-0.8,3-1.8
			c0.7-0.9,1.7-1.5,2.8-1.6c1.3-0.3,2.6,0.2,3.3,1.3c0.9,1.3,0.9,2.9,0,4.2c-0.8,1-1.7,1.8-2.7,2.5c-1,0.8-2.2,1.5-3.1,2.4
			c-0.6,0.7-1.1,1.4-1.5,2.3c-0.3,0.6-0.1,0.9,0.7,0.9c0.7,0,1.4,0.2,2,0.5c0.4,0.3,1,0.2,1.3-0.1c2.3-1.5,3.8-4,4.1-6.7
			c0.2-1.4,0.7-2.7,1.3-4c1.8-3.9,2.8-8.1,2.9-12.4c0-0.2,0-0.5,0-0.7l0.3-0.1l2.3,3.8l0.5-2.8c1.1,1,1.3,2.3,1.8,3.6l0.8-2.3
			c0.9,1.1,0.9,2.3,1.2,3.7l2.8-4.1c1,1.3,0.6,2.7,0.5,4.3l1.7-1.3c0.7,1.4,0.1,2.7-0.5,4.2l1.4-0.6c0.4,1.7-0.4,2.9-1.5,4.1
			l1.8-0.5l-1.2,2.6l1-0.1c-0.1,1.2-1,1.9-1.9,2.7l1.1,0.1c-0.6,1.4-1.8,2.5-3.3,2.9l0.9,1.1l-2.6,0.5l0.6,1.6l-1.8,0.2l0.4,1.2
			l-1.6,0.2l0.1,1.1c-1-0.2-1.3,0.5-1.5,1.2c-0.1,0.2-0.2,0.4-0.4,0.5c-1.7,1.1-3.3,2.2-5.1,3.4c1.2,1.6,2,3.4,2.4,5.3
			c0,0.2,0.3,0.4,0.5,0.7c1,1.2,1.6,2.6,1.8,4.2c0,0.3,0,0.6-0.2,0.8c-1.2,1-2.7,1.5-4.3,1.5c-0.2,0-0.4-0.3-0.5-0.5s-0.1-0.7-0.2-1
			c-0.3-0.6-0.6-1.2-1-1.7c-0.1-0.2-0.4-0.3-0.4-0.4c-0.3-1.4-1.5-1.6-2.7-1.8c0,0.6,0,1.1,0.1,1.7c0,0.5,0.1,0.9,0.3,1.4
			c1.1,3,0.8,6,0.5,9c-0.1,1.1-0.2,2.1-0.2,3.2c0,0.3,0.2,0.6,0.5,0.7c1.3,0.5,1.6,1.2,1.2,2.6c-2.7-0.4-5.1-0.3-6.6,2.5
			c-0.8-0.1-1.4-0.8-1.4-1.6c-0.2-1.2-0.6-1.4-1.7-0.9l-0.3,0.2c-0.3-1.1,0.3-2.3,1.4-2.7c0.1,0,0.2,0,0.3-0.1
			c0.6-0.1,1.3-0.2,1.9-0.2c0.7,0.1,1.3,0.1,2,0.3c0.1-1.5,0.3-3,0.3-4.5s0-3.2,0.1-4.8c0.1-2.2-1.2-3.9-2.1-5.8h-0.3
			c-0.8,1.9-1.7,3.8-2.5,5.7c-0.1,0.6-0.7,1-1.3,1c-0.7,0-1.4-0.1-1.7-0.9c-0.6-1.7-1.2-3.5-1.8-5.2c-0.1-0.3-0.2-0.5-0.4-1.1
			c-0.2,1.1-0.3,1.9-0.4,2.7c-1.3,6.3-5.2,10.7-10.7,13.7c-4.2,2.3-3.2,2.3-7.5,0C83,83.2,79.3,79,77.8,73c0-0.1-0.1-0.1-0.2-0.2
			l-0.5,0.7c-0.5-1.2-1.3-2.3-0.4-3.6c0.1-0.4,0.2-0.8,0.3-1.2h-0.8c0.2-1,0.3-2,0.4-2.9c0.3-1.9-0.9-3.7-2.8-4.1
			c-0.2,0-0.4-0.1-0.6-0.1c-0.8-0.1-1.6,0.3-2,0.9c-1,1.5-2.2,2.8-3.3,4.2c0.1,0.1,0.1,0.1,0.2,0.1c2.5,0.1,3.3,0.9,3,3.3
			c-0.3,2-0.8,4-1.3,6.2c0.2,0.1,0.4,0.3,0.6,0.4c2.1,0.8,3.7,2.4,4.7,4.4l0.6,1.1c0.6,1,0.4,1.3-0.7,1.5c-0.4,0.1-0.7,0.1-1.1,0.1
			c-0.7,0.1-1.3-0.3-1.4-1c-0.1-0.3-0.2-0.6-0.4-0.8l-0.8,0.6c-0.5-0.7-1-1.3-1.6-1.9c-0.8-0.9-1.8-1.6-3-1.8
			c-0.7,0-1.2-0.7-1.2-1.3c0,0,0,0,0-0.1c0-1.1,0-2.2,0-3.3c0-0.4-0.2-0.7-0.3-1c-1.2,2.3-3,4.3-5.1,5.8c-0.3,0.3-0.5,0.7-0.5,1.1
			c-0.1,1.3-0.1,2.7-0.1,4c0.1,0.3,0.2,0.6,0.4,0.9c0.7,0.8,1.1,1.9,1.2,3c0.2,0.7,0.4,1.3,0.8,1.9c-1,0.1-2,0.1-3,0.1
			c-0.2,0-0.5-0.7-0.5-1.1c0.1-0.7-0.2-1.3-0.8-1.8l-1.2,0.4c0.1-1.1,0.2-2.2,0.2-3.3c0-1.4-0.2-2.9-0.5-4.3c-0.3-1.6-0.4-1.8,1-2.7
			c0.2-0.1,0.3-0.3,0.3-0.5c0.2-0.6,0.5-1.2,0.7-1.8c0.1-0.3,0.1-0.5,0.1-0.8c-0.1-0.5-0.2-1-0.3-1.6c-1.1,0.4-2.2,0.9-3.3-0.1
			c1.8-1,2.3-2.8,2.9-4.5c0.9-2.5,2.2-4.8,3.9-6.8l0.2-5c-2-2.5-2.5-5.4-2.4-8.4c0-0.2,0-0.3,0-0.6c-0.3,0-0.6-0.1-1-0.1
			c-0.7,0-1.4-0.4-1.7-1.1c-0.2-0.2-0.4-0.4-0.7-0.5c-0.9-0.2-1.5-0.9-1.6-1.8l4.8-0.8v-0.2l-1.2-0.5c-1.9-0.7-3.6-1.8-5-3.2
			c-0.2-0.2-0.5-0.3-0.8-0.4c-1.3-0.5-2.3-1.5-2.7-2.9c-0.1-0.4-0.1-0.8-0.2-1.3l0.3-0.1l1.9,2.4l0.2-0.1c-0.4-1.4-0.5-2.8-0.3-4.3
			l0.3-0.1l1.2,4.1h0.2l0.8-2.8h0.4c0,0.4,0.1,0.8,0.1,1.2c-0.1,0.8-0.2,1.6-0.3,2.4c0.1,0.5,0.2,1.1,0.5,1.6l0.4-0.1l0.7-2.2
			l0.4,0.1c0.1,0.8,0.1,1.6,0.2,2.4s0.3,1.1,1.1,1.2l1-3.1h0.3c0.1,0.3,0.2,0.5,0.3,0.8c0,0.4,0,0.8-0.1,1.2
			c-0.3,1.8,0.3,2.6,2.5,2.5c-0.1-1-0.3-2-0.3-3c0-0.3,0.1-0.7,0.2-1c0.3,0.3,0.7,0.5,0.8,0.8c0.3,0.9,0.4,1.8,0.5,2.7
			c0,0.2,0.1,0.5,0.2,0.9c0.2-0.3,0.4-0.3,0.4-0.5c0.3-1.5,0.2-3-0.3-4.5c-0.4-0.9-1.1-1.5-2-1.9c-1.1-0.5-2.1-1.1-3.1-1.8
			c-0.3-0.2-0.5-0.5-0.7-0.8c1.4-0.2,2.1,1,3.3,1.2c-0.5-1.6-2.4-2-2.8-3.6c1.6,0,2.2,1.5,3.4,2v-3.4l0.3-0.1
			c0.3,0.3,0.5,0.7,0.6,1.1c0.2,1,0.3,2.1,0.2,3.1c-0.1,0.9,0.3,1.7,1.1,2.2c1-1.3,0.3-2.6-0.1-3.9c0.7-0.3,1,0.1,1.3,0.5
			c0.7,1.1,0.8,2.5,0.2,3.7c-0.5,0.7-0.5,1.5-0.1,2.2c0.9-0.4,1.4-1.4,1.2-2.4c0-0.4,0.1-0.7,0.2-1.1c0.2,0.3,0.6,0.6,0.7,1
			c0.4,1.6-0.2,3.2-1.5,4.2c-0.3,0.3-0.5,0.7-0.6,1.2c1.3-0.1,1.7-1.3,2.4-2.1l0.3,0.1c-0.1,0.4,0,0.9-0.2,1.2
			c-0.6,0.8-1.4,1.5-2.1,2.2c-0.2,0.2-0.5,0.4-0.7,0.7c2,1.2,3.9,2.4,5.7,3.6c0.2,0.2,0.3,0.4,0.3,0.6c0.2,1-0.5,2-1.5,2.2
			c0,0-0.1,0-0.1,0c-0.7,0.1-1.4,0.2-2.3,0.3c0.4,0.4,0.7,0.7,1.1,0.9c1.4,1,2.8,2,4.2,2.9c0.3,0.1,0.6,0.1,0.9,0c1-0.6,2-1.3,3-2
			c0.5-0.5,1.3-0.8,2-0.7c0,0.8,0,1.6-0.1,2.3c0,0.4-0.2,0.7-0.4,1c-0.9,1-1.6,2.2-1.9,3.5c-0.2,0.8,0.3,1.2,0.7,1.7
			c0.5,0.5,1,1,1.6,1.5l0.3-0.2v-9.3h6c0.4,0,0.9,0.1,1.1-0.1c0.5-0.5,0.9-1.1,1.1-1.7c0.4-2.1,0.6-4.2,0.9-6.4
			c-1.3,0.5-2,1.8-1.9,3.2c0,0.3,0.1,0.6,0.2,0.9c0.3,1-0.2,1.6-1.3,1.4c-0.5-0.1-1,0-1.4,0.3c-1.4,1-3.2,1.3-4.9,0.8
			c0.7-1,1.4-2,1.9-3c0.6-1.2,1.6-2.2,2.7-2.8c0.3-0.2,0.6-0.4,0.8-0.8c-0.4,0.1-0.8,0.1-1.2,0.2c-1.5,0.1-2.9-0.2-4.2-1
			c-0.7-0.4-1.5-0.8-2.3-1c-1-0.4-2.1,0-2.5,1c-0.1,0.1-0.1,0.3-0.1,0.4c-1.4-0.4-1.8-1.2-1.4-3.3c-1.5-0.5-3.1-1-3.5-2.8
			c2.9-1.9,5.7-1.8,8.3,0.8l0.1-0.3c-0.4-1.3-0.8-2.5-1.3-3.7s-1.2-2.2-2.7-1.7c0.2-1.6,0.8-2.1,2.9-2.5L73.5,25
			c-2.4,2-4.8,2.9-7.5,0.8c0.6-0.2,1.2-0.5,1.7-0.8c0.5-0.4,0.9-0.8,1.3-1.2c-1.6-1.4-1.8-2.8-0.5-4.2c0.5,1.4,0.9,1.6,2.7,1.5
			c2.2-0.1,4.4,0.9,5.8,2.6c0.7,0.9,1.1,2.1,1,3.2c0.1,2,0.1,4,0.2,6c0,0.2,0.1,0.4,0.1,0.8c1.1-1.7,3.1-2.3,3.4-4.5
			c1,1,1.4,2.5,1,3.9c-0.2,0.5-0.1,1,0.3,1.3c0.7,0.9,0.7,2.2,0,3.2c-0.6-0.5-1.5-0.5-2.2,0c-0.6,0.6-0.8,1.4-0.6,2.2l3.7-1.5
			c0.1,0,0.3-0.1,0.3-0.2c0.3-1.2,0.7-2.4,1-3.7c0-0.2-0.1-0.4-0.2-0.6c-1.1-2-1.8-4.2-2.1-6.4c-0.2-0.9-0.4-1.7-0.7-2.6L80,29.5
			l-0.1-0.1c0.3-1.7,0.5-3.4,0.8-5c0.3-0.8,1.2-1.3,2-1c0.1,0,0.2,0.1,0.3,0.1c0.2,0.1,0.3,0.3,0.6,0.5c0.2-1.7,0.3-3.3,0.4-5.1
			c-1.9,0.7-2.9,2.6-4.9,2.8c0.9-1,1.7-1.9,2.5-2.8c0.3-0.3,0.7-0.6,1.1-0.9c1.4-0.7,2.2-0.4,2.9,1.3c0.7-1.1,1.3-2,1.9-3.1
			c0.7-1.1,1.7-2,3-2.3c-0.4,1.2-1,2.4-2,3.2c-0.9,0.9-1.7,1.9-2.4,2.9c0.4,0.1,0.6,0.2,0.7,0.2c0.7,0,1.3,0.6,1.2,1.3
			c0,0,0,0.1,0,0.1c0,0.7,0,1.5,0,2.2L87.8,24l-1.1-2.3c-2.3,1.8-2.4,7.3-0.2,11.3c0.9-0.3,1.8-0.6,2.7-0.9c0.2-0.1,0.3-0.3,0.4-0.5
			c0.3-0.8,0.5-1.6,0.8-2.4c-0.8-1-1.7-0.6-2.6-0.3c-0.6,0.2-1.2,0.4-2,0.6l1.9-2.6l-1.9-2.7l3.3,1l1.2-1l-1.1-3.7
			c0.8,0.6,1.5,1.1,2.2,1.5c0.3,0.1,0.6,0.1,0.9,0c0.7-0.5,1.4-0.9,2.1-1.3l-1,3.4l1.2,1l3.1-0.9l0.1,0.1c-0.3,0.5-0.6,0.9-1,1.4
			c-0.6,0.4-0.7,1.2-0.3,1.8c0.1,0.1,0.2,0.2,0.3,0.3c0.4,0.5,0.8,1,1.2,1.6l-3.5-1.1l-1,0.7v0.1c0,2.1,1.7,3.7,3.8,3.7
			c0,0,0.1,0,0.1,0c1.2-2.8,2.3-5.7,1.7-9c-0.2-1-0.7-1.9-1.6-2.4l-1.6,2L95.4,23l1.8-4.2c-0.7-0.7-1.4-1.3-2.1-1.9
			c-0.8-0.7-1.3-1.6-1.4-2.6c1.3,0.3,2.4,1.2,3,2.5c0.6,1.1,1.3,2.1,2.1,3.1c0.1-0.4,0.2-0.7,0.2-1c0.2-0.6,0.3-1.1,1.1-1.2
			c0.7-0.1,1.4,0.3,1.6,1c0.5,1,1.2,2,1.8,3c-1.3,0-2-1-3-1.9V24c0.3-0.3,0.6-0.6,0.9-0.9c0.3-0.2,0.8-0.4,1-0.3
			c0.4,0.2,0.7,0.6,0.8,1c0.2,1.5,0.3,3,0.4,4.5c-1.1-0.6-1.4-1.9-1.8-3.4c-0.3,0.5-0.6,1-0.8,1.6c-0.5,1.6-0.9,3.2-1.4,4.9
			c-0.1,0.5-0.3,1-0.6,1.5c-0.9,1.4-0.5,2.6,0.1,4c0.3,1,1.2,1.7,2.2,1.9c1.3,0.3,2.6,0.1,3.7-0.5c-0.7-1.3-1.6-1.6-3.5-0.9
			c-0.5-1-0.4-2.3,0.3-3.2c0.3-0.4,0.3-0.9,0.2-1.3c-0.2-1.2-0.4-2.4-0.5-3.6c0-0.4,0.1-0.7,0.3-1.1c1.5,1.8,4.1,2.2,4.8,4.6
			l0.2-0.1c-0.1-1.4-0.2-2.8-0.3-4.3c0-1.2,0-2.4,0.1-3.5c0.1-0.9,0.6-1.7,1.5-2.2c1.8-1.2,3.9-2,6.1-2.3c1-0.2,2-0.5,2.9-0.9
			c-0.1,1.3-0.8,2.6-1.9,3.4c1.2,0.9,1.9,2.5,3.8,2.3c-1.6,1.8-4.4,2.1-6.3,0.7c-0.7-0.5-1.4-0.9-2.2-1.4v7.5
			c1.7-1.6,3.6-1.5,5.5-1.4c1,0,2.1-0.1,3.1-0.2c-0.2,1.9-1.1,3-3.6,4.2c0,1.3,0.1,2.6-1.4,3.2c-0.6-1.2-1.2-1.6-2.4-1.1
			c-0.8,0.4-1.6,0.9-2.3,1.5c-1.1,0.8-2,1.9-3.1,2.7c-1.1,0.6-2.2,1.2-3.3,1.6c1,1,2.3,1.4,3.7,1.2c-0.4,1-1.1,1.8-2.2,2.2
			c-0.2,0.1-0.4,0.4-0.4,0.7c0.1,1.2-0.4,2.4-1.3,3.2c-1.1-0.4-1.9-1.3-2.3-2.5c-0.4-1.1-0.6-2.2-0.9-3.3c-0.3-1.3-1-2.5-2-3.5
			c0.1,0.8,0.1,1.5,0.2,2.2c0.2,1.8,0.5,3.6,0.7,5.5c0.1,0.3,0.2,0.6,0.4,0.8c0.2,0.4,0.5,0.8,0.8,1.3h7v5.5c0,0.6,0,1.3,0,1.9
			c-0.2,1.1,0.1,2.1,0.8,3c0.7,1.1,1,2.4,0.7,3.7c-0.1,1.1,0,2.2,0.4,3.2C109.2,69.4,109.7,71,110.3,72.6z M103.8,67.6
			c1.9-0.6,1.8-2.3,1.8-3.8c0-1.2,0.1-2.6-1.5-3.1l-0.1-0.3l2.4-1.1v-8.3H77.6c0,3,0,5.8,0,8.7c0,0.2,0.3,0.4,0.4,0.6
			c0.7,0.4,1.1,1.2,1,1.9c0,0.9,0.1,1.8,0.3,2.7c0.8,2,0.5,4.3-0.8,6c-0.1,0.1-0.1,0.2-0.2,0.3c-0.1,0.5-0.2,0.9-0.2,1.4
			c1.8,7.3,6.5,11.9,13.3,14.6c0.3,0.1,0.6,0.1,0.8,0c5.3-2.3,9.7-5.4,12.2-10.8c1-2.3,1.6-4.7,1.8-7.2
			C104.4,69.2,103.9,68.9,103.8,67.6L103.8,67.6z M86.4,48.9c0.7,0.3,1.2,0.6,1.8,0.9c1.6,0.9,2.6,0.7,3.7-0.7
			c1.2,1.3,2,1.5,3.3,0.9c0.7-0.4,1.5-0.8,2.2-1.1c-0.3-2.2-0.5-4.4-0.8-6.6c-0.1-0.3-0.3-0.6-0.7-0.8c-0.7-0.3-1.5-0.3-2.2-0.3
			c-0.7,0.3-1.3,0.7-1.9,1.2c-0.9-1.4-2.8-1.7-4.2-0.8c0,0,0,0-0.1,0c-0.1,0.1-0.2,0.3-0.3,0.4C87,44.4,86.7,46.7,86.4,48.9z
			 M68.5,36.2l-0.1,0.3c0.6,0.3,1.2,0.6,1.8,0.8c0.7,0.2,1.4,0.3,2.1,0.4c-0.8,1.5-0.8,1.6-0.4,2.3c1-0.9,2.4-1.1,3.6-0.5
			c1.2,0.5,2.5,0.7,3.8,0.3c0.1-2.8,0.6-3.3,3.5-4l-1.2-1.6l0.5-2.4l-0.3-0.1l-1.4,1.2c-0.9,0.7-1.4,1.7-1.4,2.7
			c0,0.3-0.3,0.6-0.6,1C78.1,36.6,78,36.3,78,36c-0.2-2.7-0.4-5.4-0.7-8c-0.1-1-0.3-2-0.7-3c-0.4-1-1.2-1.1-2.1-0.6
			c0.3,0.8,0.7,1.6,0.9,2.5s0.3,1.7,0.5,2.6c-1,0.1-1.9-0.4-2.6,0.5c1.4,0.6,1.8,1.9,2.3,3.2c0.6,1.5,1.1,3.1,1.6,4.7
			c-0.3,0-0.7,0.1-1,0c-0.9-0.5-1.9-1-2.8-1.6C71.9,35.4,70,35.3,68.5,36.2z M106.8,36c-1.1-3.3-2.6-5.1-4.6-5.5l1.2,3.3l-1,1.9
			c3.1,0.1,3.5,0.4,4.3,3.9c0.2-0.4,0.4-0.7,0.6-1c0.7-0.8,1.5-1.5,2.4-2.1c1.4-1,2.9-1.7,4.6-0.3l0.2-0.2l-0.6-2.1
			c1.4-0.3,2.7-1.1,3.6-2.3c-0.8,0.1-1.6,0.1-2.4,0.1c-2-0.2-4,0.8-5,2.6c-0.2,0.2-0.4,0.4-0.6,0.5l-0.3-0.1V24.4
			c-1.3-0.1-1.8,0.3-1.8,1.6c0,2.8,0.1,5.6,0.3,8.4C107.8,35.3,107.7,35.8,106.8,36z M104.8,44.8c-3.6-2.1-4.1-2.5-4.1-3.8
			c1.2,0.4,2.5,0.3,3.7-0.1c0.6-0.2,1-0.8,0.9-1.5c0,0,0,0,0,0c-1.7,0.9-3.7,0.9-5.3,0c-0.8-0.4-1.8-0.5-2.7-0.3
			c0.1,0.2,0.2,0.4,0.4,0.6c1.8,1.5,2.9,3.6,3.2,5.9c0.1,0.7,0.3,1.3,0.6,2c0.3,0.5,0.7,1,1.2,1.5c0.9-1.2,0.6-2.4,0.4-3.5
			L104.8,44.8z M78.8,48.2c1.3,0,2.6-0.6,3.4-1.7l1.4,0.4c0-0.3,0-0.4,0-0.5c-0.5-2.1,0.5-4.2,2.4-5.1c0.2-0.1,0.3-0.3,0.4-0.5
			c0.1-0.6,0.1-1.2,0.2-1.6c-1-0.3-2-0.2-2.9,0.3c-1.3,0.6-2.8,1-4.2,1.5c-0.2,0.1-0.3,0.1-0.7,0.3c1.9,0.8,3.6,0.2,5.3-0.2
			c-0.2,1.2-1,2.3-2.1,2.9C80.5,44.9,79.7,46.5,78.8,48.2L78.8,48.2z M86.3,35.2c1.9-0.4,3.8-0.7,5.7-0.8c1.8,0.1,3.6,0.4,5.3,0.8
			c-0.2-0.7-0.8-1.2-1.5-1.4c-2.5-1-5.4-1-7.9,0.1C87.3,34.3,86.8,34.7,86.3,35.2L86.3,35.2z M70.7,23.1L68.6,26
			c2.6,0.1,3.9-2.1,6-2.9c-1.6-1.6-3.6-1.1-5.6-1.3L68.9,22L70.7,23.1z M113.1,23.2l1.9-1.4l-0.2-0.2c-1.7,0.5-3.8,0-5,1.5
			c1,0.6,2.1,1.2,3.2,1.9c0.9,0.8,2.2,1,3.4,0.6L113.1,23.2z M96.2,39.5c0.1-1,0.1-1-0.7-1.3c-2.3-0.8-4.8-0.8-7.1,0
			c-0.5,0.1-0.9,0.6-0.8,1.1c0,0.1,0,0.2,0.1,0.2C90.5,38.8,93.4,38.8,96.2,39.5z M91.4,27.4c0.2-1.6,0-2.2-0.7-2
			c-0.3,0.1-0.6,0.4-0.7,0.8C90.1,27.2,90.4,27.5,91.4,27.4z M97.1,37.6c-0.3-1.3-1-1.8-2.5-1.7C95,37.1,95.1,37.2,97.1,37.6
			L97.1,37.6z M92.3,27.4c1.1,0.1,1.7-0.6,1.4-1.5c-0.1-0.3-0.3-0.5-0.6-0.5c-0.3,0-0.5,0.2-0.7,0.5C92.4,26.3,92.3,26.9,92.3,27.4
			L92.3,27.4z M91.6,36.5c-0.5-1.2-1.1-1.3-2.7-0.6C89.6,37.2,90.6,36.5,91.6,36.5L91.6,36.5z M92.8,30.5l0.2-0.1
			c-0.4-0.5,0.1-1.5-1-1.5S91.3,30,91,30.6l1-0.6L92.8,30.5z M90.8,22.7l0.4,1.5h1.4l0.4-1.3l-0.1-0.2
			C92.3,23.6,91.6,23.3,90.8,22.7L90.8,22.7z M94.3,27.4l1.5,0.5c-0.2-0.5-0.5-0.8-0.5-1.1s0.3-0.6,0.5-1
			C94.6,25.7,94.5,26.5,94.3,27.4L94.3,27.4z M88.7,26.8L88,27.9l1.5-0.5c-0.3-1.4-0.3-1.4-1.4-1.6L88.7,26.8z M90.8,31.8H93
			L91.9,31L90.8,31.8z M86.8,37.8v-0.5c-0.4-0.1-0.7-0.2-1.1-0.2c-0.1,0-0.1,0.4-0.2,0.7L86.8,37.8z"/>
		<path class="st1" d="M105.7,86.3c2.3,2.1,5.1,3.5,8.2,4.1c2.9,0.7,5.8,0.8,8.7,0.2c0.6-0.1,0.9,0.1,0.8,0.7c0,0.1,0,0.2,0,0.3
			c-0.4,1.7-0.8,3.5-1.2,5.2H61.6c-0.4-1.8-0.8-3.6-1.2-5.4c-0.2-0.9,0.1-1,1.1-0.9c5.2,0.9,10.5-0.1,14.9-2.9
			c0.6-0.4,1.2-0.9,1.8-1.4c-0.5-0.7-0.9-1.5-1.3-2.3c-0.6-1.2-0.2-2.7,1-3.3c0.3-0.2,0.7-0.3,1-0.3c1-0.1,2,0.4,2.6,1.2
			c0.8,0.9,1.4,2,2.2,2.9c0.6,0.7,0.6,1.8,0,2.5c-0.6,0.8-1.2,1.5-1.9,2.2c-0.6,0.5-1.2,1-1.8,1.5h24c-0.4-0.3-0.6-0.5-0.9-0.7
			c-0.7-0.5-1.3-1.1-1.9-1.7c-1.7-1.9-1.8-2.8-0.3-4.8c0.5-0.7,0.9-1.3,1.4-1.9c0.6-0.8,1.6-1.3,2.6-1.2c1.4,0.1,2.4,1.3,2.3,2.6
			c0,0.3-0.1,0.7-0.3,1C106.6,84.9,106.1,85.6,105.7,86.3z M62.5,95.9h58.8l0.9-4H61.7L62.5,95.9z M111.3,90.9
			c-3.7-1.7-7.2-3.5-9.1-7.4c-0.3,0.4-0.5,0.7-0.7,0.9c-0.9,1.3-1,1.9,0.2,3c1.3,1.2,2.6,2.3,4,3.3c0.2,0.1,0.4,0.2,0.6,0.2
			C108,91,109.7,91,111.3,90.9L111.3,90.9z M72.6,90.9h4.9c0.1,0,0.2,0,0.3-0.1c1.9-0.9,3.5-2.3,4.7-4.1c0.2-0.5,0.3-1,0.1-1.5
			c-0.3-0.7-0.7-1.3-1.2-1.8c-0.7,1.9-2.1,3.5-3.8,4.6C76,89.1,74.3,90,72.6,90.9L72.6,90.9z M79.1,85.5c0.5-0.8,0.9-1.4,1.2-2
			c0.4-0.6,0.2-1.3-0.3-1.7c-0.4-0.4-1.1-0.4-1.6-0.1c-0.6,0.4-0.9,1.1-0.5,1.8C78.3,84.3,78.7,84.9,79.1,85.5L79.1,85.5z
			 M104.5,85.2l0.4,0.1c0.4-0.6,0.8-1.3,1.2-2c0.2-0.6-0.1-1.3-0.7-1.5c0,0,0,0,0,0c-0.5-0.2-1-0.1-1.4,0.1
			c-0.5,0.3-0.8,0.9-0.5,1.4c0,0,0,0.1,0,0.1C103.8,84,104.1,84.7,104.5,85.2L104.5,85.2z"/>
		<path class="st6" d="M78.3,51.7h27.3v7.5c-1.1,0.3-2,1.1-2.4,2.2c1.7,0.2,2.2,1.1,1.8,3.4H80.7c-1.1,0-1.3-0.2-1.3-1.3
			c0-0.5,0.1-0.9,0.1-1.4c0-0.4-0.1-1-0.4-1.1c-0.9-0.7-0.8-1.6-0.8-2.5C78.3,56.1,78.3,53.9,78.3,51.7z M102.3,60.4
			c-3,0.6-4,0-4.5-2.8c-0.8,0.3-1.5,0.4-2.1-0.5c0.7-0.2,1.2-1,2.1-0.5c0.1,0.1,0.4-0.1,0.5-0.2c0.7-0.9,1.9-1.3,3-1.1
			c0.4,0.1,0.7,0.3,1.1,0.5l-0.1,0.4H101c-0.7-0.1-1.4,0.3-1.7,1c-0.3,0.7,0,1.6,0.7,2c0.8,0.5,1.8,0.3,2.4-0.4
			c0.9-1.2,1-2.9,0.4-4.3c-0.4-0.6-0.9-0.9-1.6-1.1c-1,0.1-1.9,0.3-2.8,0.6c-0.3,0.1-0.4,0.5-0.7,0.7c-0.3,0.4-0.6,0.7-0.9,1
			c-0.8,0.6-1.7,1.2-2.5,1.9c-0.3,0.3-0.6,0.7-0.8,1.1l1.3,0.1l0.1,0.3c-0.3,0.2-0.7,0.4-1,0.6c-0.2,0.2-0.4,0.5-0.6,0.8
			c0.3,0.1,0.7,0.3,0.9,0.2c0.9-0.2,1.7-0.5,2.6-0.8l0.5,0.8l-1.8,2.1h6.8V60.4z M89.4,53.4l-0.2-0.3c-2.2,0.8-4.7,0.8-6.9,0
			l-0.1,0.2l1.6,1.4c-0.9,0.8-1.7,1.5-2.6,2.2c-0.4,0.2-0.6,0.6-0.6,1.1c0,1.2,0.1,2.4,0,3.5c-0.1,0.6,0.3,1.2,0.9,1.3
			c1.7,0.7,3.1-0.1,4.5-0.8c-0.1-1.1-0.6-1.5-1.7-1.5c-1.3,0-2-0.9-2.4-2c-0.3-0.8-0.1-1.1,0.7-1.2c0.2,0.4,0.3,0.7,0.5,1.1
			c0.6,1.1,1.9,1.6,3.1,1.2c1-0.3,1.9-0.8,3-1.2l-1.7-3.5l0.9-0.7L89.4,53.4z M88.9,59.5c-0.4,0.1-0.9,0.3-1.3,0.4
			c-0.8,0.3-0.9,0.7-0.5,1.4c0.5,0.9,1.2,1,2.4,0.5c0.5-0.2,0.7-0.7,0.5-1.2c0,0,0,0,0,0C89.9,60,89.7,59.5,88.9,59.5L88.9,59.5z"/>
		<path class="st6" d="M79.8,65.5h11.6v20.9c-2.2-0.8-4.2-2-6-3.5c-3.3-2.6-5.6-6.2-6.7-10.2c-0.2-0.6-0.1-1.2,0.3-1.7
			C80.3,69.5,80.6,67.4,79.8,65.5z M84.1,78.7h3.7v-0.9l1-0.4l-0.6-1.7h-4.5l-0.6,1.7l1,0.4C84.1,78.1,84.1,78.3,84.1,78.7
			L84.1,78.7z M84.2,68c0.4,1.8,0.8,3.3,1.2,4.9c0,0.1,0.4,0.2,0.6,0.2c0.2,0,0.4-0.1,0.4-0.3c0.4-1.5,0.7-3,1.1-4.5
			c0-0.2-0.1-0.6-0.2-0.6c-0.7-0.2-1.5-0.3-2.2-0.3C84.8,67.4,84.5,67.8,84.2,68z M84.8,73c-0.4-1.2-0.7-2.4-1.1-3.6
			c-0.1-0.4-0.3-1-0.9-0.7s-0.5,0.8-0.3,1.2c0.3,0.9,0.7,1.7,1,2.6C83.7,73.1,84.1,73.3,84.8,73z M87.1,73.2c0.5-0.1,1-0.1,1.1-0.3
			c0.5-1.1,1-2.3,1.3-3.5c0.1-0.2-0.3-0.6-0.4-0.8c-0.2,0.2-0.6,0.3-0.7,0.5C87.9,70.4,87.6,71.7,87.1,73.2z M86,73.8
			c-0.7,0.1-1.3,0.1-1.9,0.2c-0.2,0-0.3,0.3-0.5,0.5c0.2,0.1,0.3,0.4,0.5,0.4c1.3,0,2.7,0,4,0c0.2,0,0.3-0.3,0.5-0.4
			C88.3,74.3,88.2,74,88,74C87.3,73.9,86.6,73.8,86,73.8z"/>
		<path class="st1" d="M103.9,76.2c-0.8-0.6-1.6-1.1-2.3-1.7c-0.2-0.2-0.3-0.4-0.3-0.7c0-0.6,0-1.1,0-1.7l-1-0.1
			c-0.2-2.1-0.4-4.1-2.1-5.6c-1.4,1.2-1.6,1.9-2.2,5.6h-0.4h-0.4c-0.2,0.8-0.1,1.7-0.6,2.3c-0.6,0.5-1.4,1-2.2,1.2v-10h12.3
			c0,1-0.3,1.3-1.5,1.5c-0.2,1.3,0.7,2.5,1.9,2.7c0.1,0,0.3,0,0.4,0C105.4,72,104.9,74.2,103.9,76.2z"/>
		<path class="st1" d="M92.4,86.5v-1.2c0-2.6,0-5.2,0-7.7c0-0.5,0.3-0.9,0.6-1.2c2.1-1.6,4.9-2.1,7.5-1.3c0.4,0.1,0.7,0.2,1.1,0.4
			c1.9,1,2,1.7,0.8,3.4c-2.3,3.2-5.5,5.7-9.1,7.3C93,86.3,92.7,86.4,92.4,86.5z M97.1,78.9l-1.9,1.6l0.6,0.6l1.9-1.7l0.7,2.1
			l1.5-1.4l-2-0.9l1.6-1.4l0.8,0.8c0.3-0.9-0.1-1.9-1-2.2c-0.3-0.1-0.7-0.2-1-0.1l0.7,1l-1.5,1.3L97,77.7l0.5-0.6
			c-0.9-0.8-1.9-1.2-2.3-0.7s-0.1,1.5,0.6,2.2l0.6-0.4L97.1,78.9z"/>
		<path class="st1" d="M89.6,44.5c0.7,0.2,1.5-0.9,1.7,0.2c0.2,1.4-1.1,0.2-1.7,0.7c0.1,0.5,0.2,1.1,0.3,1.7c0,0.2,0,0.6-0.1,0.7
			c-0.2,0.1-0.5,0.1-0.7,0c-0.1-0.2-0.2-0.4-0.2-0.7c0.1-0.6,0.2-1.2,0.3-1.8L89,45.2c-0.2,0.1-0.4,0.3-0.6,0.3
			c-0.2,0.1-0.5,0.1-0.7,0c-0.1-0.2-0.2-0.4-0.1-0.6c0.2-0.2,0.4-0.3,0.6-0.3c0.3,0,0.6,0,0.9,0c0-0.4-0.1-0.8-0.1-1.2
			c-0.1-0.3-0.1-0.5,0-0.8c0.2-0.1,0.4-0.2,0.7-0.1c0.1,0.2,0.2,0.5,0.2,0.8C89.8,43.7,89.7,44.1,89.6,44.5z"/>
		<path class="st1" d="M94.3,44.4c-0.1-0.4-0.2-0.8-0.2-1.2c0-0.3,0-0.5,0.1-0.8c0.2-0.1,0.4-0.1,0.6,0c0.1,0.3,0.2,0.6,0.1,0.9
			c0,0.3-0.2,0.5-0.2,0.7c-0.1,0.5,0.2,0.7,0.7,0.6c0.3,0,0.6,0.1,0.9,0.2c0,0.2-0.1,0.7-0.2,0.7c-0.3,0-0.6-0.1-0.9-0.2
			c-0.1,0-0.2-0.1-0.4-0.2c-0.3,0.5-0.3,1.2-0.1,1.7c0.1,0.3,0.1,0.6,0,0.9c-0.2,0.1-0.5,0.1-0.7,0c-0.1-0.3-0.1-0.6-0.1-0.9
			c0-0.3,0.1-0.6,0.1-0.9c0.1-0.7,0.1-1.2-0.9-0.8c-0.2,0-0.5,0-0.7-0.2c-0.1-0.2-0.1-0.4,0-0.6c0.2-0.1,0.4-0.2,0.7-0.2
			c0.2,0.1,0.5,0.2,0.7,0.3L94.3,44.4z"/>
		<path class="st1" d="M86.4,57.8c-1.8,0.2-1.8,0.2-2.3-1.5C86,56.1,86.5,55.6,86.4,57.8z"/>
		<path class="st1" d="M69.2,94.4c0-0.1,0-0.1-0.2-0.1h-0.6c-0.1,0-0.1,0-0.2,0.1l-0.1,0.4c0,0.1-0.1,0.2-0.1,0.3c0,0,0,0.1,0.1,0.1
			h0.1c0,0,0,0.1,0,0.1c0,0,0,0,0,0h-0.8c0,0,0-0.1,0-0.1h0.1c0.1,0,0.2-0.1,0.2-0.2c0.1-0.2,0.2-0.4,0.3-0.9l0.4-1.1
			c0-0.1,0.1-0.2,0.1-0.3c0.1,0,0.2-0.1,0.2-0.2c0,0,0,0,0.1,0c0.1,0.2,0.1,0.4,0.2,0.5l0.6,1.6c0.1,0.3,0.2,0.4,0.3,0.4h0.1
			c0,0,0,0.1,0,0.1h-0.9c0,0,0-0.1,0-0.1c0,0,0,0,0,0h0.1c0.1,0,0.1,0,0.1-0.1c0-0.1,0-0.1-0.1-0.2L69.2,94.4z M68.4,94.1
			C68.4,94.2,68.4,94.2,68.4,94.1l0.6,0.1c0.1,0,0.1,0,0.1-0.1l-0.2-0.7c0-0.1-0.1-0.2-0.1-0.3l0,0c0,0.1-0.1,0.2-0.1,0.2L68.4,94.1
			z"/>
		<path class="st1" d="M73.2,93.7c0-0.3,0-0.6-0.1-0.8c-0.1-0.1-0.1-0.1-0.2-0.1h-0.1c0,0,0-0.1,0-0.1c0,0,0,0,0,0h0.9
			c0,0,0,0.1,0,0.1c0,0,0,0,0,0h-0.1c-0.1,0-0.2,0-0.2,0.1c-0.1,0.3-0.1,0.5-0.1,0.8v0.4c0,0.4-0.1,0.7-0.3,1
			c-0.2,0.2-0.5,0.3-0.8,0.3c-0.6,0-1-0.4-1.1-0.9c0-0.1,0-0.2,0-0.2v-0.9c0-0.4,0-0.5-0.2-0.5h0c0,0,0-0.1,0-0.1h1c0,0,0,0.1,0,0.1
			h-0.1c-0.2,0-0.2,0.1-0.2,0.5v0.9c0,0.6,0.2,1.1,0.8,1.1s0.8-0.4,0.8-1.1L73.2,93.7z"/>
		<path class="st1" d="M75.1,93.2c0-0.3,0-0.4-0.2-0.4h-0.1c0,0,0-0.1,0-0.1c0,0,0,0,0,0c0.3,0,0.7,0,1,0c0.3,0,0.6,0,0.9,0.1
			c0.5,0.2,0.8,0.6,0.8,1.1c0,0.5-0.3,1-0.7,1.2c-0.3,0.1-0.6,0.2-0.9,0.2c-0.3,0-0.5,0-0.7,0h-0.5c0,0,0-0.1,0-0.1h0.1
			c0.2,0,0.2-0.1,0.2-0.5V93.2z M75.4,94.7c0,0.1,0,0.3,0.1,0.4c0.1,0.1,0.2,0.2,0.5,0.2c0.8,0,1.1-0.5,1.1-1.3
			c0-0.6-0.4-1.1-1.1-1.2c-0.1,0-0.1,0-0.2,0c-0.1,0-0.3,0-0.4,0.1c0,0,0,0.1,0,0.3L75.4,94.7z"/>
		<path class="st1" d="M80.1,94.4c0-0.1,0-0.1-0.2-0.1h-0.6c-0.1,0-0.1,0-0.2,0.1l-0.1,0.4c0,0.1-0.1,0.2-0.1,0.3c0,0,0,0.1,0.1,0.1
			h0.1c0,0,0,0.1,0,0.1c0,0,0,0,0,0h-0.8c0,0,0-0.1,0-0.1h0.1c0.1,0,0.2-0.1,0.2-0.2c0.1-0.2,0.2-0.4,0.3-0.9l0.4-1.1
			c0-0.1,0.1-0.2,0.1-0.3c0.1,0,0.2-0.1,0.2-0.2c0,0,0,0,0.1,0c0.1,0.2,0.1,0.4,0.2,0.5l0.6,1.6c0.1,0.3,0.2,0.4,0.3,0.4h0
			c0,0,0,0.1,0,0.1h-0.9c0,0,0-0.1,0-0.1c0,0,0,0,0,0h0.1c0.1,0,0.1,0,0.1-0.1c0-0.1,0-0.1-0.1-0.2L80.1,94.4z M79.3,94.1
			C79.3,94.2,79.3,94.2,79.3,94.1l0.6,0.1c0.1,0,0.1,0,0.1-0.1l-0.2-0.7c0-0.1-0.1-0.2-0.1-0.3l0,0c0,0.1-0.1,0.2-0.1,0.2L79.3,94.1
			z"/>
		<path class="st1" d="M84.4,95.3C84.4,95.3,84.4,95.3,84.4,95.3C84.4,95.4,84.4,95.4,84.4,95.3l-1,0.1c0,0,0-0.1,0-0.1h0.1
			c0.1,0,0.1,0,0.1-0.1s0-0.1-0.1-0.2s-0.4-0.6-0.6-0.8c-0.2,0.3-0.4,0.6-0.6,0.8c0,0,0,0.1-0.1,0.1c0,0,0,0,0.1,0.1h0.1
			c0,0,0,0.1,0,0.1h-0.8c0,0,0-0.1,0-0.1c0,0,0,0,0,0h0.1c0.2,0,0.4-0.2,0.5-0.3c0-0.1,0.3-0.4,0.5-0.7c0,0,0-0.1,0-0.1
			c0,0,0-0.1,0-0.1l-0.6-0.9c-0.1-0.2-0.2-0.3-0.3-0.3h-0.1c0,0,0-0.1,0-0.1h0.9c0,0,0,0.1,0,0.1h-0.1c-0.1,0-0.1,0-0.1,0.1
			c0,0.1,0.1,0.2,0.1,0.2c0.1,0.2,0.4,0.6,0.5,0.7c0.1-0.1,0.5-0.7,0.5-0.8c0,0,0.1-0.1,0.1-0.1c0,0-0.1,0-0.1-0.1h-0.1
			c0,0,0-0.1,0-0.1h0.8c0,0,0,0.1,0,0.1c0,0,0,0,0,0h-0.1c-0.1,0-0.3,0.1-0.4,0.3s-0.3,0.4-0.5,0.7c0,0,0,0.1,0,0.1c0,0,0,0,0,0.1
			l0.7,0.9c0.1,0.2,0.2,0.3,0.4,0.3L84.4,95.3z"/>
		<path class="st1" d="M88.5,94.4c0-0.1,0-0.1-0.2-0.1h-0.6c-0.1,0-0.1,0-0.2,0.1l-0.1,0.4c0,0.1-0.1,0.2-0.1,0.3c0,0,0,0.1,0.1,0.1
			h0.1c0,0,0,0.1,0,0.1c0,0,0,0,0,0h-0.8c0,0,0-0.1,0-0.1H87c0.1,0,0.2-0.1,0.2-0.2c0.1-0.2,0.2-0.4,0.3-0.9l0.4-1.1
			c0-0.1,0.1-0.2,0.1-0.3c0.1,0,0.2-0.1,0.2-0.2c0,0,0,0,0.1,0c0.1,0.2,0.1,0.4,0.2,0.5l0.6,1.6c0.1,0.3,0.2,0.4,0.3,0.4h0.1
			c0,0,0,0.1,0,0.1h-0.9c0,0,0-0.1,0-0.1c0,0,0,0,0,0h0.1c0.1,0,0.1,0,0.1-0.1c0-0.1,0-0.1-0.1-0.2L88.5,94.4z M87.8,94.1
			C87.8,94.2,87.8,94.2,87.8,94.1l0.6,0.1c0.1,0,0.1,0,0.1-0.1l-0.2-0.7c0-0.1-0.1-0.2-0.1-0.3l0,0c0,0.1-0.1,0.2-0.1,0.2L87.8,94.1
			z"/>
		<path class="st1" d="M91.4,94.8c0,0.4,0,0.5,0.2,0.5h0.1c0,0,0,0.1,0,0.1h-1.1c0,0,0-0.1,0-0.1c0,0,0,0,0,0h0.1
			c0.2,0,0.3-0.1,0.3-0.5V93c0-0.1,0-0.1-0.1-0.1h-0.2c-0.2,0-0.3,0-0.5,0.1c-0.1,0.1-0.1,0.2-0.2,0.3c0,0-0.1,0-0.1,0
			c0.1-0.2,0.1-0.4,0.2-0.6c0,0,0.1,0,0.1,0c0,0.1,0.2,0.1,0.3,0.1h1.6c0.2,0,0.3,0,0.3-0.1s0.1,0,0.1,0c0,0.2-0.1,0.4-0.1,0.6
			c0,0-0.1,0-0.1,0c0-0.1,0-0.2-0.1-0.3c-0.1-0.1-0.3-0.1-0.5-0.1h-0.3c-0.1,0-0.1,0-0.1,0.1L91.4,94.8z"/>
		<path class="st1" d="M96,93.8c0,0.1,0,0.1,0.1,0.1h0.3c0.1,0,0.2,0,0.3,0c0,0,0.1,0,0.1-0.1v-0.2c0,0,0.1,0,0.1,0
			c0,0.1,0,0.3,0,0.4s0,0.3,0,0.4s-0.1,0-0.1,0v-0.2c0-0.1-0.1-0.1-0.1-0.2c-0.1,0-0.2,0-0.3,0h-0.3c-0.1,0-0.1,0-0.1,0.1v0.6
			c0,0.4,0,0.5,0.2,0.5h0.1c0,0,0,0.1,0,0.1h-1c0,0,0-0.1,0-0.1h0.1c0.2,0,0.2-0.1,0.2-0.5v-1.5c0-0.4,0-0.5-0.2-0.5h-0.1
			c0,0,0-0.1,0-0.1h1.2c0.3,0,0.5,0,0.5,0c0,0.2,0,0.4,0,0.5c0,0-0.1,0-0.1,0c0,0,0,0,0,0c0-0.2-0.1-0.3-0.3-0.4c-0.1,0-0.3,0-0.4,0
			h-0.3c-0.1,0-0.1,0-0.1,0.2L96,93.8z"/>
		<path class="st1" d="M98.6,93.3c0-0.4,0-0.5-0.2-0.5h-0.1c0,0,0-0.1,0-0.1h1c0,0,0,0.1,0,0.1h-0.1c-0.2,0-0.2,0.1-0.2,0.5v1.4
			c0,0.4,0,0.5,0.2,0.5h0.1c0,0,0,0.1,0,0.1h-1c0,0,0-0.1,0-0.1h0.1c0.2,0,0.2-0.1,0.2-0.5V93.3z"/>
		<path class="st1" d="M100.7,93.2c0-0.3,0-0.4-0.2-0.4h-0.1c0,0,0-0.1,0-0.1c0,0,0,0,0,0c0.3,0,0.7,0,1,0c0.3,0,0.6,0,0.9,0.1
			c0.5,0.2,0.8,0.6,0.8,1.2c0,0.5-0.3,1-0.7,1.2c-0.3,0.1-0.6,0.2-0.9,0.2c-0.3,0-0.5,0-0.7,0h-0.5c0,0,0-0.1,0-0.1h0.1
			c0.2,0,0.2-0.1,0.2-0.5L100.7,93.2z M101.1,94.7c0,0.1,0,0.3,0.1,0.4c0.1,0.1,0.2,0.2,0.5,0.2c0.8,0,1.1-0.5,1.1-1.3
			c0-0.6-0.4-1.1-1.1-1.2c-0.1,0-0.1,0-0.2,0c-0.1,0-0.3,0-0.4,0.1c0,0,0,0.1,0,0.3L101.1,94.7z"/>
		<path class="st1" d="M104.6,93.3c0-0.4,0-0.5-0.2-0.5h-0.1c0,0,0-0.1,0-0.1h1.2c0.3,0,0.5,0,0.5,0c0,0.2,0.1,0.4,0.1,0.5
			c0,0-0.1,0-0.1,0c-0.1-0.2-0.1-0.3-0.3-0.4c-0.1,0-0.3,0-0.4,0h-0.3c-0.1,0-0.1,0-0.1,0.2v0.8c0,0.1,0,0.1,0.1,0.1h0.2
			c0.1,0,0.2,0,0.3,0c0,0,0.1,0,0.1-0.1v-0.2c0,0,0.1,0,0.1,0s0,0.3,0,0.4s0,0.3,0,0.4s-0.1,0-0.1,0v-0.2c0-0.1-0.1-0.1-0.1-0.2
			c-0.1,0-0.2,0-0.3,0h-0.2c-0.1,0-0.1,0-0.1,0.1v0.6c0,0.1,0,0.3,0.1,0.4c0,0,0.1,0.1,0.5,0.1c0.2,0,0.3,0,0.5-0.1
			c0.1-0.1,0.2-0.2,0.3-0.4c0,0,0.1,0,0.1,0c0,0,0,0,0,0c0,0.2-0.1,0.4-0.2,0.6h-2c0,0,0-0.1,0-0.1h0.1c0.2,0,0.3-0.1,0.3-0.5
			L104.6,93.3z"/>
		<path class="st1" d="M107.8,93.3c0-0.4,0-0.5-0.3-0.5h-0.1c0,0,0-0.1,0-0.1h1c0,0,0,0.1,0,0.1h-0.1c-0.2,0-0.2,0.1-0.2,0.5v1.4
			c0,0.3,0,0.3,0.1,0.4s0.1,0.1,0.4,0.1s0.4,0,0.5-0.1c0.1-0.1,0.2-0.2,0.3-0.4h0.1c0,0.2-0.1,0.4-0.2,0.6h-1.9c0,0,0-0.1,0-0.1h0.1
			c0.2,0,0.2-0.1,0.2-0.5L107.8,93.3z"/>
		<path class="st1" d="M110.8,93.3c0-0.4,0-0.5-0.2-0.5h-0.1c0,0,0-0.1,0-0.1h1c0,0,0,0.1,0,0.1h-0.1c-0.2,0-0.2,0.1-0.2,0.5v1.4
			c0,0.4,0,0.5,0.2,0.5h0.1c0,0,0,0.1,0,0.1h-1c0,0,0-0.1,0-0.1h0.1c0.2,0,0.2-0.1,0.2-0.5V93.3z"/>
		<path class="st1" d="M113.3,95.4c-0.2,0-0.4,0-0.6-0.2c-0.1-0.2-0.1-0.4-0.1-0.6c0,0,0.1,0,0.1,0c0.1,0.3,0.3,0.6,0.7,0.6
			c0.2,0,0.5-0.2,0.5-0.4c0,0,0,0,0-0.1c0-0.2-0.1-0.5-0.3-0.6l-0.4-0.3c-0.3-0.1-0.4-0.4-0.4-0.7c0-0.4,0.3-0.7,0.7-0.7
			c0,0,0,0,0.1,0c0.1,0,0.2,0,0.4,0.1h0.1c0,0.2,0.1,0.3,0.1,0.5c0,0-0.1,0-0.1,0c0-0.3-0.3-0.5-0.5-0.4c-0.2,0-0.4,0.1-0.5,0.4
			c0,0,0,0,0,0.1c0,0.2,0.2,0.4,0.3,0.5l0.3,0.2c0.3,0.1,0.5,0.4,0.5,0.8c0,0.4-0.3,0.8-0.7,0.8C113.4,95.4,113.3,95.4,113.3,95.4z"
			/>
		<circle class="st7" cx="862.8" cy="65.5" r="22.5"/>
		<line class="st7" x1="878.5" y1="82.5" x2="900.3" y2="103"/>
		<line class="st7" x1="972.6" y1="50" x2="1032.6" y2="50"/>
		<line class="st7" x1="972.6" y1="73" x2="1032.6" y2="73"/>
		<line class="st7" x1="972.6" y1="96" x2="1032.6" y2="96"/>
	</g>
</g>
</svg>
