<svg xmlns="http://www.w3.org/2000/svg" viewBox="0 0 1080 146"><defs><style>.cls-1{fill:#084e9f;}.cls-2{font-size:24px;font-family:MetaPro-Book, MetaPro Book;letter-spacing:0.03em;}.cls-16,.cls-2,.cls-29,.cls-30,.cls-31{fill:#fff;}.cls-3{letter-spacing:0.03em;}.cls-4{letter-spacing:0.05em;}.cls-5{letter-spacing:0.02em;}.cls-6{letter-spacing:0.03em;}.cls-7{letter-spacing:0.02em;}.cls-8{letter-spacing:0.02em;}.cls-9{letter-spacing:0.04em;}.cls-10{letter-spacing:0.02em;}.cls-11{letter-spacing:0.01em;}.cls-12{letter-spacing:0.01em;}.cls-13{letter-spacing:0.03em;}.cls-14{letter-spacing:0.02em;}.cls-15{letter-spacing:0.02em;}.cls-16{font-size:36px;font-family:MetaOT-Bold, Meta OT;}.cls-17,.cls-18,.cls-19,.cls-20,.cls-21,.cls-22{font-weight:700;}.cls-18{letter-spacing:-0.01em;}.cls-19{letter-spacing:0em;}.cls-20{letter-spacing:0em;}.cls-21{letter-spacing:0em;}.cls-22,.cls-25{letter-spacing:-0.01em;}.cls-23,.cls-24,.cls-25,.cls-26,.cls-27,.cls-28{font-family:MetaOT-Book, MetaOT Book;}.cls-23{letter-spacing:0em;}.cls-24{letter-spacing:-0.01em;}.cls-27{letter-spacing:0em;}.cls-28{letter-spacing:0em;}.cls-29,.cls-30{fill-rule:evenodd;}.cls-30{stroke:#084e9f;stroke-miterlimit:10;stroke-width:0.18px;}.cls-32{fill:none;stroke:#fff;stroke-linecap:round;stroke-linejoin:round;stroke-width:4px;}</style></defs><title>IP_Header</title><g id="Layer_2" data-name="Layer 2"><g id="Ui"><rect class="cls-1" width="1080" height="146"/><text class="cls-2" transform="translate(48.99 127.68)">D<tspan class="cls-3" x="16.68" y="0">epartment of Infrastructure, Local Government and Planning</tspan></text><text class="cls-16" transform="translate(153.02 70.28)"><tspan class="cls-17">Quee</tspan><tspan class="cls-18" x="81.65" y="0">n</tspan><tspan class="cls-19" x="101.3" y="0">s</tspan><tspan class="cls-20" x="118.8" y="0">l</tspan><tspan class="cls-21" x="129.2" y="0">an</tspan><tspan class="cls-22" x="167.94" y="0">d</tspan><tspan class="cls-17" x="187.7" y="0"> </tspan><tspan class="cls-23" x="195.8" y="0">G</tspan><tspan class="cls-24" x="219.24" y="0">o</tspan><tspan class="cls-25" x="238.75" y="0">v</tspan><tspan class="cls-26" x="255.7" y="0">e</tspan><tspan class="cls-27" x="273.74" y="0">r</tspan><tspan class="cls-26" x="285.66" y="0">nme</tspan><tspan class="cls-28" x="353.69" y="0">n</tspan><tspan class="cls-26" x="373.53" y="0">t</tspan></text><path class="cls-29" d="M110.25,72.62a12.16,12.16,0,0,0,1.11-6.7,1.73,1.73,0,0,0-.35-.8,14.25,14.25,0,0,1-2.63-6,4,4,0,0,0-.53-1,6,6,0,0,1,2.2-7.62c1.62-.92,3.29-1.76,4.93-2.64a4,4,0,0,0,.45-.28c.44-.32,1.14-.58.83-1.26a1.58,1.58,0,0,0-1.71-1c-1.47.21-2.92.48-4.39.65a19.32,19.32,0,0,1-2.23,0l-.06-.29a15.46,15.46,0,0,1,1.4-.67c.69-.26,1.41-.47,2.12-.66a4.88,4.88,0,0,0,3-1.77A4.13,4.13,0,0,1,117.21,41a3.08,3.08,0,0,1,3.29,1.26,3.64,3.64,0,0,1,0,4.2A14,14,0,0,1,117.76,49c-1,.82-2.17,1.47-3.11,2.36a8.14,8.14,0,0,0-1.5,2.25c-.29.56-.06.88.68.92a5.18,5.18,0,0,1,2,.55,1.15,1.15,0,0,0,1.35-.11,9.16,9.16,0,0,0,4.06-6.7,13.24,13.24,0,0,1,1.3-4,31,31,0,0,0,2.89-12.37c0-.23,0-.46,0-.7l.27-.14L128,34.81l.51-2.79c1.06,1,1.31,2.28,1.79,3.59l.78-2.28c.92,1.06.86,2.35,1.17,3.69L135,32.9c1,1.28.59,2.71.52,4.25l1.74-1.35c.67,1.44.15,2.71-.5,4.16l1.38-.59c.37,1.66-.39,2.87-1.52,4.12l1.82-.49-1.2,2.6,1-.1c-.13,1.22-1,1.9-1.92,2.7l1.14.1a5.13,5.13,0,0,1-3.29,2.89l.94,1.08-2.58.49.63,1.58-1.77.16.39,1.22-1.63.21.1,1.14c-1-.18-1.31.46-1.54,1.23a1,1,0,0,1-.39.47c-1.66,1.11-3.32,2.21-5.05,3.36a13.14,13.14,0,0,1,2.45,5.3c0,.24.29.44.46.65A8.6,8.6,0,0,1,128,72.24a1.09,1.09,0,0,1-.24.84,6.05,6.05,0,0,1-4.26,1.46c-.18,0-.43-.27-.51-.46s-.07-.72-.22-1a17,17,0,0,0-1-1.7c-.11-.17-.38-.27-.42-.44-.3-1.44-1.48-1.59-2.73-1.8,0,.55,0,1.12.11,1.68a5.57,5.57,0,0,0,.26,1.4c1.13,3,.85,6,.51,9a28.63,28.63,0,0,0-.16,3.19,1,1,0,0,0,.5.71c1.27.52,1.6,1.16,1.19,2.6-2.65-.37-5.13-.27-6.61,2.54A1.72,1.72,0,0,1,113,88.61c-.15-1.17-.6-1.41-1.69-.91l-.31.16a2.13,2.13,0,0,1,1.67-2.73,7.11,7.11,0,0,1,1.93-.18,16.85,16.85,0,0,1,2,.28c.11-1.53.26-3,.32-4.52s0-3.2.08-4.8c.07-2.24-1.21-3.95-2.08-5.82l-.27,0c-.85,1.9-1.74,3.79-2.53,5.73a1.31,1.31,0,0,1-1.35,1c-.74,0-1.42-.07-1.71-.93-.59-1.74-1.22-3.46-1.83-5.19-.1-.27-.2-.53-.39-1.05-.17,1.08-.26,1.92-.44,2.73-1.33,6.29-5.17,10.72-10.65,13.74-4.21,2.32-3.21,2.31-7.48,0-5.25-2.88-9-7.11-10.46-13.07,0-.05-.06-.1-.15-.22l-.51.66c-.52-1.22-1.27-2.26-.41-3.55A4.25,4.25,0,0,0,77,68.73h-.8c.15-1,.27-2,.44-2.93a3.52,3.52,0,0,0-3.42-4.14,2,2,0,0,0-2,.94c-1,1.46-2.17,2.79-3.27,4.18.07.06.11.11.15.12,2.49.08,3.33.87,3,3.35-.25,2-.82,4-1.27,6.2a3.29,3.29,0,0,0,.63.36,9.21,9.21,0,0,1,4.73,4.37l.62,1.08c.58,1,.45,1.28-.72,1.49a6,6,0,0,1-1.06.06,1.26,1.26,0,0,1-1.44-1,4.71,4.71,0,0,0-.38-.83l-.78.59c-.54-.65-1-1.31-1.6-1.92a5.32,5.32,0,0,0-3-1.8,1.26,1.26,0,0,1-1.16-1.42c0-1.09,0-2.19,0-3.28a2.48,2.48,0,0,0-.35-1,16.89,16.89,0,0,1-5.14,5.85,1.72,1.72,0,0,0-.54,1.13c-.08,1.33-.08,2.67-.06,4A1.87,1.87,0,0,0,60,85a5.26,5.26,0,0,1,1.21,3,6.28,6.28,0,0,0,.8,1.89,22.3,22.3,0,0,1-2.95.08c-.23,0-.55-.72-.55-1.1a2.09,2.09,0,0,0-.76-1.78l-1.19.39a27.8,27.8,0,0,0,.24-3.29,24.51,24.51,0,0,0-.49-4.28c-.35-1.55-.36-1.78,1-2.71a1,1,0,0,0,.33-.46c.24-.6.47-1.2.66-1.81a2,2,0,0,0,.12-.82c-.07-.53-.21-1-.33-1.6-1.07.41-2.15.94-3.32-.06,1.76-1,2.26-2.81,2.91-4.52a21.15,21.15,0,0,1,3.93-6.81l.2-5c-2-2.46-2.5-5.37-2.38-8.44,0-.17,0-.35,0-.62-.33,0-.64-.06-1-.1a1.92,1.92,0,0,1-1.72-1.06,1.14,1.14,0,0,0-.67-.46,2,2,0,0,1-1.57-1.82l4.85-.79,0-.16-1.18-.5a12.22,12.22,0,0,1-5-3.24,1.89,1.89,0,0,0-.77-.4,4.41,4.41,0,0,1-2.71-2.87,7.37,7.37,0,0,1-.17-1.25l.28-.13,1.88,2.39.2-.09a8.92,8.92,0,0,1-.26-4.26l.3-.07,1.15,4.1.19,0,.8-2.81.36,0a8.36,8.36,0,0,1,.06,1.21,23.58,23.58,0,0,0-.28,2.38,5.93,5.93,0,0,0,.46,1.57L55,38.6l.71-2.23.44.06c.06.79.14,1.59.16,2.38s.26,1.13,1.06,1.18l1-3.14.31,0a3.25,3.25,0,0,1,.26.84,5.59,5.59,0,0,1-.12,1.23c-.33,1.84.33,2.58,2.52,2.52-.11-1-.25-2-.32-3a4,4,0,0,1,.18-1c.26.25.66.45.75.75.25.88.37,1.79.54,2.69,0,.24.08.48.15.89.22-.25.37-.34.39-.45a7.92,7.92,0,0,0-.35-4.46A3.41,3.41,0,0,0,60.69,35a25.73,25.73,0,0,1-3.06-1.76,4.5,4.5,0,0,1-.74-.84c1.43-.2,2.11.95,3.3,1.18-.53-1.56-2.37-2-2.83-3.64,1.58,0,2.16,1.48,3.44,2V28.56l.27-.11a3.66,3.66,0,0,1,.63,1.11,16.18,16.18,0,0,1,.23,3.09A2.14,2.14,0,0,0,63,34.82c1-1.32.31-2.61-.09-3.91.68-.29,1,.12,1.25.55a3.54,3.54,0,0,1,.15,3.65,2,2,0,0,0-.07,2.21,2.17,2.17,0,0,0,1.17-2.38,4.37,4.37,0,0,1,.19-1.09c.23.33.59.64.66,1A4.09,4.09,0,0,1,64.78,39a2.47,2.47,0,0,0-.63,1.2c1.33-.14,1.71-1.33,2.42-2.13l.31.13c-.06.39,0,.89-.19,1.15-.64.8-1.38,1.5-2.1,2.24-.23.23-.49.44-.74.66,2,1.24,3.86,2.4,5.72,3.58a.91.91,0,0,1,.34.63,1.88,1.88,0,0,1-1.68,2.18c-.69.12-1.4.17-2.33.28.44.38.73.69,1.06.93,1.38,1,2.76,1.95,4.17,2.87a1,1,0,0,0,.87,0,35.35,35.35,0,0,0,3-2A2.35,2.35,0,0,1,77,50c0,.81,0,1.58-.12,2.34a1.77,1.77,0,0,1-.42,1,8.1,8.1,0,0,0-1.89,3.47c-.24.8.32,1.23.71,1.69A16.39,16.39,0,0,0,76.88,60l.28-.17v-9.3h6c.38,0,.91.1,1.1-.11a3.84,3.84,0,0,0,1.09-1.72c.38-2.09.59-4.22.87-6.36a3,3,0,0,0-1.87,3.18,6.39,6.39,0,0,0,.17.87c.27,1-.23,1.6-1.32,1.36a1.72,1.72,0,0,0-1.44.3,6,6,0,0,1-4.93.84c.68-1,1.37-2,1.94-3a7.32,7.32,0,0,1,2.74-2.84,1.91,1.91,0,0,0,.75-.75c-.39.06-.78.14-1.18.18a7,7,0,0,1-4.16-1,10.62,10.62,0,0,0-2.27-1A1.93,1.93,0,0,0,72,41.92c-1.42-.38-1.76-1.16-1.43-3.28-1.52-.52-3.1-1-3.53-2.77,2.94-1.94,5.7-1.84,8.26.77l.13-.28c-.42-1.25-.78-2.52-1.27-3.74S73,30.44,71.46,30.9c.15-1.59.77-2.14,2.89-2.48L73.51,25c-2.4,2-4.77,2.87-7.47.77a13.41,13.41,0,0,0,1.72-.84,12.15,12.15,0,0,0,1.35-1.22c-1.63-1.41-1.78-2.83-.51-4.24.5,1.36.94,1.61,2.71,1.52a7,7,0,0,1,5.75,2.64,4.84,4.84,0,0,1,1,3.23c.06,2,.13,4,.21,6,0,.19.05.39.11.77,1.07-1.67,3.08-2.32,3.4-4.48a4.13,4.13,0,0,1,1,3.87,1.26,1.26,0,0,0,.29,1.33,2.55,2.55,0,0,1,0,3.17,1.72,1.72,0,0,0-2.18,0,2.13,2.13,0,0,0-.58,2.23l3.73-1.54c.11,0,.26-.11.29-.2.34-1.22.67-2.44,1-3.67,0-.16-.12-.38-.22-.56A19.92,19.92,0,0,1,83,27.38a20.53,20.53,0,0,0-.71-2.57L80,29.54l-.14-.1c.28-1.68.54-3.37.84-5a1.62,1.62,0,0,1,2.35-.89c.16.11.31.25.59.48.15-1.71.29-3.29.44-5.05-1.95.67-2.94,2.62-4.94,2.8.88-1,1.68-1.94,2.52-2.83a4.3,4.3,0,0,1,1.12-.86c1.37-.72,2.16-.39,2.9,1.26.66-1.07,1.34-2,1.88-3.07a4.87,4.87,0,0,1,3-2.29,7,7,0,0,1-2,3.22,23.49,23.49,0,0,0-2.4,2.94c.4.1.56.16.73.18a1.27,1.27,0,0,1,1.23,1.44c0,.73,0,1.45,0,2.18l-.29.08-1.11-2.3C84.46,23.49,84.35,29,86.56,33c.92-.3,1.84-.58,2.74-.92.17-.06.31-.33.38-.54.27-.81.51-1.64.76-2.43-.81-1-1.7-.57-2.6-.26-.58.2-1.18.35-2,.6l1.9-2.65L85.83,24.1l3.35,1,1.17-1-1.06-3.66c.83.59,1.48,1.11,2.19,1.54a1,1,0,0,0,.9,0,22.39,22.39,0,0,1,2.11-1.3l-1,3.39,1.15,1,3.06-.91.14.15a10.39,10.39,0,0,1-1,1.37,1.3,1.3,0,0,0,0,2.1,16.13,16.13,0,0,1,1.18,1.6l-3.52-1.06L93.46,29v.12a3.73,3.73,0,0,0,3.89,3.7c1.24-2.76,2.35-5.69,1.66-9a3.64,3.64,0,0,0-1.56-2.43l-1.63,2-.4-.34,1.85-4.22a20.8,20.8,0,0,0-2.1-1.92,4.09,4.09,0,0,1-1.39-2.6,4.56,4.56,0,0,1,3,2.46,24,24,0,0,0,2.07,3.07c.09-.39.16-.72.24-1.05.15-.58.27-1.15,1.06-1.23a1.34,1.34,0,0,1,1.55,1,27.89,27.89,0,0,0,1.82,3c-1.27,0-2-1-3-1.9V24a6.22,6.22,0,0,1,.92-.91c.29-.17.75-.38,1-.26a1.62,1.62,0,0,1,.79,1c.2,1.48.28,3,.41,4.5-1.14-.61-1.41-1.87-1.78-3.37a11.8,11.8,0,0,0-.78,1.57c-.5,1.61-.93,3.24-1.41,4.86a6.14,6.14,0,0,1-.55,1.5c-.86,1.38-.47,2.6.08,4a2.82,2.82,0,0,0,2.2,1.88,4.7,4.7,0,0,0,3.74-.55c-.65-1.33-1.57-1.56-3.54-.88a3.11,3.11,0,0,1,.26-3.19,1.32,1.32,0,0,0,.15-1.28c-.23-1.18-.38-2.38-.5-3.58a3.33,3.33,0,0,1,.29-1.06c1.5,1.76,4.1,2.16,4.79,4.62l.23-.09c-.1-1.42-.24-2.84-.28-4.26a31.7,31.7,0,0,1,.09-3.54,2.76,2.76,0,0,1,1.47-2.17,14.83,14.83,0,0,1,6.08-2.29,17.12,17.12,0,0,0,2.91-.91A4.8,4.8,0,0,1,115.22,23c1.21.9,1.93,2.46,3.81,2.27a4.74,4.74,0,0,1-6.35.66c-.69-.48-1.43-.89-2.23-1.38V32.1c1.71-1.57,3.6-1.46,5.51-1.38a29,29,0,0,0,3.14-.19c-.15,1.88-1.05,3-3.61,4.24,0,1.27.14,2.62-1.42,3.24-.55-1.24-1.18-1.61-2.43-1.14a8.84,8.84,0,0,0-2.29,1.45c-1.06.85-2,1.9-3.09,2.66a24.65,24.65,0,0,1-3.32,1.62,4.25,4.25,0,0,0,3.67,1.24,3.76,3.76,0,0,1-2.15,2.24.9.9,0,0,0-.45.68A3.76,3.76,0,0,1,102.66,50a3.88,3.88,0,0,1-2.28-2.47c-.36-1.06-.61-2.16-.91-3.25a6.82,6.82,0,0,0-2-3.47c.08.85.12,1.53.2,2.2.23,1.82.46,3.64.72,5.46a2.47,2.47,0,0,0,.4.84c.24.39.51.77.85,1.27h7v5.48c0,.62,0,1.25,0,1.87a3.85,3.85,0,0,0,.79,2.95,4.54,4.54,0,0,1,.71,3.66,6.74,6.74,0,0,0,.4,3.2C109.2,69.36,109.71,71,110.25,72.62Zm-6.46-5c1.87-.63,1.78-2.28,1.81-3.75,0-1.22.08-2.61-1.54-3.11L104,60.5l2.36-1.13V51.1H77.57c0,3,0,5.85,0,8.74,0,.19.25.44.45.56a2.07,2.07,0,0,1,1,1.94A7.93,7.93,0,0,0,79.33,65a5.89,5.89,0,0,1-.85,6,.75.75,0,0,0-.18.31,3.7,3.7,0,0,0-.18,1.4c1.81,7.25,6.5,11.9,13.32,14.59a1.19,1.19,0,0,0,.83,0c5.27-2.25,9.7-5.43,12.17-10.84a20.76,20.76,0,0,0,1.81-7.16C104.38,69.22,103.88,68.88,103.78,67.61ZM86.44,48.94c.68.35,1.23.62,1.77.93,1.58.9,2.59.73,3.7-.66,1.21,1.3,2,1.51,3.33.87.74-.36,1.46-.75,2.19-1.13-.27-2.2-.52-4.4-.84-6.59a1.13,1.13,0,0,0-.65-.78,5.11,5.11,0,0,0-2.24-.26,6.82,6.82,0,0,0-1.91,1.15,3,3,0,0,0-4.22-.76.7.7,0,0,0-.26.42C87,44.41,86.73,46.7,86.44,48.94ZM68.54,36.25l-.12.34a13.5,13.5,0,0,0,1.78.85,15.93,15.93,0,0,0,2.06.38c-.77,1.5-.79,1.63-.43,2.35a3.06,3.06,0,0,1,3.55-.45,5.48,5.48,0,0,0,3.77.31c.11-2.78.55-3.3,3.5-4l-1.21-1.62L81.91,32l-.26-.07-1.37,1.22a3.63,3.63,0,0,0-1.45,2.74c0,.29-.34.57-.62,1A5.15,5.15,0,0,1,78,36c-.24-2.68-.44-5.36-.73-8a10.32,10.32,0,0,0-.74-3c-.42-1-1.22-1.08-2.12-.58.3.83.67,1.64.89,2.49s.31,1.71.47,2.61c-1,.08-1.87-.35-2.59.51,1.43.62,1.83,1.93,2.29,3.17.56,1.52,1.06,3.06,1.64,4.74-.3,0-.72.12-1,0a30,30,0,0,1-2.75-1.61A4.51,4.51,0,0,0,68.54,36.25Zm38.3-.2c-1.13-3.25-2.61-5.11-4.55-5.48l1.17,3.31-1,1.92c3.07.06,3.48.42,4.28,3.93a5.66,5.66,0,0,1,.64-1,20.6,20.6,0,0,1,2.4-2.09c1.4-.95,2.91-1.66,4.56-.32l.23-.16L114,34.06a6.05,6.05,0,0,0,3.6-2.33,21.59,21.59,0,0,1-2.37.09,5,5,0,0,0-5,2.59,2.56,2.56,0,0,1-.63.52l-.31-.14V24.45c-1.35-.06-1.8.34-1.78,1.56,0,2.81.11,5.62.25,8.43C107.84,35.27,107.68,35.83,106.84,36.05Zm-2.07,8.76c-3.61-2.06-4.11-2.53-4.1-3.83a6,6,0,0,0,3.74-.12,1.21,1.21,0,0,0,.86-1.5,5.48,5.48,0,0,1-5.34,0,4,4,0,0,0-2.73-.3,2.63,2.63,0,0,0,.37.57,8.92,8.92,0,0,1,3.15,5.87,6.75,6.75,0,0,0,.56,1.95,8.93,8.93,0,0,0,1.17,1.48c.88-1.24.55-2.39.41-3.47Zm-26,3.36a4.26,4.26,0,0,0,3.41-1.68l1.42.39c0-.3,0-.42,0-.53A4.48,4.48,0,0,1,86,41.25a.87.87,0,0,0,.4-.51c.09-.57.11-1.15.15-1.61a3.44,3.44,0,0,0-2.87.32c-1.33.61-2.77,1-4.16,1.51-.17.06-.34.14-.67.28,1.9.81,3.57.16,5.33-.2a4.38,4.38,0,0,1-2.08,2.91C80.49,44.92,79.67,46.47,78.76,48.17Zm7.5-12.92A42.25,42.25,0,0,1,92,34.47a36.74,36.74,0,0,1,5.33.75,2.14,2.14,0,0,0-1.5-1.4,10.5,10.5,0,0,0-7.87.06A8.1,8.1,0,0,0,86.25,35.24ZM70.7,23.12,68.55,26c2.56.15,3.93-2.09,6-2.85C72.94,21.54,70.91,22,69,21.83L68.9,22Zm42.42.12L115,21.8l-.16-.23c-1.74.51-3.82,0-5,1.52,1,.63,2.14,1.23,3.18,1.92a3.56,3.56,0,0,0,3.38.61ZM96.2,39.48c.1-1,.1-1-.69-1.3a10.86,10.86,0,0,0-7.12,0,.94.94,0,0,0-.73,1.3A17.57,17.57,0,0,1,96.2,39.48ZM91.42,27.4c.15-1.61,0-2.16-.67-2a1.08,1.08,0,0,0-.65.81C90.06,27.18,90.4,27.46,91.42,27.4Zm5.71,10.17c-.27-1.29-1-1.79-2.47-1.7C95,37.1,95.14,37.19,97.13,37.58Zm-4.79-10.2c1.11.09,1.7-.57,1.42-1.52a.82.82,0,0,0-.59-.51.88.88,0,0,0-.66.49A8.27,8.27,0,0,0,92.34,27.38Zm-.7,9.14c-.47-1.22-1.09-1.34-2.71-.6C89.57,37.2,90.62,36.55,91.64,36.52Zm1.15-6,.16-.14c-.36-.49.11-1.53-1-1.49s-.63,1.09-.92,1.68L92,30Zm-2-7.84.41,1.49h1.42L93,22.85l-.12-.24C92.27,23.57,91.63,23.32,90.82,22.64Zm3.49,4.74,1.47.46c-.24-.47-.54-.8-.54-1.13s.32-.63.5-.95C94.55,25.66,94.46,26.5,94.31,27.38Zm-5.58-.63L88,27.86l1.53-.48c-.26-1.44-.26-1.44-1.44-1.64Zm2.08,5h2.27L91.93,31Zm-4,6,0-.46a6.25,6.25,0,0,0-1.11-.19c-.07,0-.14.43-.21.65Z"/><path class="cls-29" d="M105.69,86.35a15.94,15.94,0,0,0,8.23,4.06,21,21,0,0,0,8.73.21c.59-.13.93.08.85.74a2.89,2.89,0,0,1,0,.35c-.38,1.73-.77,3.46-1.17,5.23H61.57c-.41-1.82-.83-3.59-1.19-5.38-.18-.87.12-1,1.06-.9a21.22,21.22,0,0,0,14.92-2.89,22,22,0,0,0,1.78-1.4,17.58,17.58,0,0,1-1.32-2.27,2.45,2.45,0,0,1,2.06-3.58,3,3,0,0,1,2.56,1.2c.75.95,1.44,2,2.15,2.94a2,2,0,0,1,0,2.49,18.5,18.5,0,0,1-1.88,2.23,20.25,20.25,0,0,1-1.84,1.49h24c-.36-.28-.64-.48-.9-.7a22.07,22.07,0,0,1-1.86-1.65c-1.72-1.86-1.76-2.78-.29-4.83.47-.65.94-1.3,1.45-1.91a3,3,0,0,1,2.63-1.24,2.45,2.45,0,0,1,2,3.6A17.17,17.17,0,0,1,105.69,86.35ZM62.55,95.93h58.77l.91-4H61.66Zm48.76-5c-3.72-1.65-7.17-3.49-9.06-7.38-.28.38-.49.66-.69.95-.88,1.28-1,1.87.16,3a47,47,0,0,0,4,3.28,1,1,0,0,0,.58.16C108,91,109.66,91,111.31,91Zm-38.7,0h4.93a.72.72,0,0,0,.34-.07,12.12,12.12,0,0,0,4.7-4.09,2,2,0,0,0,.09-1.48,10.33,10.33,0,0,0-1.17-1.85,9.36,9.36,0,0,1-3.85,4.61C76,89.14,74.27,90,72.61,91Zm6.52-5.4c.5-.85.88-1.4,1.17-2A1.26,1.26,0,0,0,80,81.83a1.22,1.22,0,0,0-1.55-.05,1.36,1.36,0,0,0-.54,1.78A19.32,19.32,0,0,0,79.13,85.56Zm25.37-.28.36.05a15,15,0,0,0,1.15-2,1.19,1.19,0,0,0-.67-1.55,2,2,0,0,0-1.45.08,1.08,1.08,0,0,0-.44,1.53A19.91,19.91,0,0,0,104.5,85.28Z"/><path class="cls-30" d="M78.28,51.67h27.33v7.5a3.31,3.31,0,0,0-2.4,2.15c1.74.21,2.23,1.13,1.8,3.43H80.7c-1.13,0-1.32-.2-1.3-1.33A11.9,11.9,0,0,0,79.46,62c0-.4-.11-.95-.37-1.14-.94-.68-.8-1.61-.8-2.54C78.29,56.13,78.28,53.94,78.28,51.67Zm24,8.78c-3,.57-4-.05-4.48-2.75-.77.28-1.52.4-2.09-.55.74-.18,1.21-1,2.06-.45.08.06.39-.08.49-.21a3,3,0,0,1,3-1.1,3.87,3.87,0,0,1,1.08.47l-.09.39H101a1.66,1.66,0,0,0-1.72,1,1.61,1.61,0,0,0,.68,2,1.89,1.89,0,0,0,2.42-.39,4.13,4.13,0,0,0,.36-4.27,2.48,2.48,0,0,0-1.58-1.08,9.39,9.39,0,0,0-2.81.59c-.26.08-.44.45-.66.68a8.94,8.94,0,0,1-.91,1c-.81.64-1.68,1.21-2.47,1.87a5.7,5.7,0,0,0-.8,1.11l1.28.11.12.26a7.32,7.32,0,0,0-1,.63,4.58,4.58,0,0,0-.6.79c.32.08.66.29.94.23.86-.2,1.69-.5,2.6-.78l.48.77-1.85,2.09h6.8Zm-12.91-7-.2-.3a10.11,10.11,0,0,1-6.91,0l-.07.24,1.62,1.4c-.91.75-1.73,1.5-2.62,2.15A1.14,1.14,0,0,0,80.61,58c0,1.18.06,2.37,0,3.55a1.22,1.22,0,0,0,.91,1.32c1.73.7,3.14-.08,4.52-.83-.1-1.11-.58-1.54-1.65-1.54-1.27,0-2-.92-2.45-2-.34-.76-.07-1.06.66-1.2.18.38.33.74.52,1.07a2.64,2.64,0,0,0,3.07,1.18c1-.35,1.93-.76,3-1.19l-1.66-3.51.92-.68Zm-.44,6.06c-.45.13-.91.25-1.35.4-.75.25-.86.73-.49,1.38.48.87,1.18,1,2.37.46A.92.92,0,0,0,90,60.56C89.87,60,89.66,59.52,88.93,59.54Z"/><path class="cls-30" d="M79.82,65.53H91.41V86.47a21.13,21.13,0,0,1-6-3.51,19.27,19.27,0,0,1-6.69-10.23A1.92,1.92,0,0,1,79,71,5.23,5.23,0,0,0,79.82,65.53Zm4.29,13.14h3.67v-.86l1-.42-.6-1.69H83.7l-.57,1.74,1,.37C84.14,78.09,84.13,78.32,84.11,78.68ZM84.24,68c.44,1.78.8,3.33,1.21,4.87,0,.13.38.24.58.24a.56.56,0,0,0,.44-.3q.57-2.23,1.08-4.47c0-.2-.07-.61-.17-.63a10.4,10.4,0,0,0-2.2-.26C84.85,67.41,84.53,67.77,84.24,68ZM84.75,73c-.38-1.23-.74-2.41-1.11-3.59-.13-.42-.27-1-.87-.74s-.46.75-.29,1.21c.34.88.74,1.74,1,2.63C83.74,73.13,84.05,73.33,84.75,73Zm2.33.25c.5-.14,1-.13,1.08-.31a33.51,33.51,0,0,0,1.35-3.46c.07-.21-.27-.55-.43-.84-.24.17-.62.29-.7.51C87.94,70.43,87.56,71.73,87.08,73.25ZM86,73.8c-.65.05-1.31.07-1.95.17-.19,0-.35.3-.53.46.16.14.32.39.48.39q2,0,4,0c.16,0,.32-.26.47-.39-.17-.16-.32-.43-.51-.46C87.26,73.86,86.61,73.85,86,73.8Z"/><path class="cls-29" d="M103.87,76.2c-.8-.57-1.58-1.1-2.31-1.68a1,1,0,0,1-.25-.69c0-.55,0-1.11,0-1.71l-1-.09c-.15-2.08-.42-4.13-2.12-5.63C96.84,67.62,96.59,68.27,96,72l-.41,0-.39,0c-.17.78-.12,1.72-.55,2.26a6.85,6.85,0,0,1-2.19,1.22v-10H104.8c0,1-.33,1.32-1.52,1.5a2.34,2.34,0,0,0,2.33,2.71A17.8,17.8,0,0,1,103.87,76.2Z"/><path class="cls-29" d="M92.37,86.54V85.33c0-2.58,0-5.15,0-7.73A1.7,1.7,0,0,1,93,76.45a8.22,8.22,0,0,1,7.48-1.35,4.3,4.3,0,0,1,1.06.43c1.86,1,2,1.69.8,3.39a22.21,22.21,0,0,1-9.08,7.32C93,86.35,92.72,86.42,92.37,86.54Zm4.7-7.63-1.89,1.62.63.6,1.94-1.7.67,2.05,1.54-1.4L98,79.14l1.64-1.42.83.78a1.72,1.72,0,0,0-2-2.3l.67,1-1.52,1.25L97,77.67l.5-.64c-.87-.83-1.92-1.16-2.29-.73s-.11,1.5.59,2.24l.64-.37Z"/><path class="cls-29" d="M89.63,44.48c.7.17,1.54-.91,1.67.17.16,1.38-1.07.17-1.69.7.08.51.2,1.12.27,1.73,0,.24,0,.58-.12.7a.73.73,0,0,1-.7,0,.86.86,0,0,1-.16-.68c.08-.59.23-1.16.34-1.75L89,45.21a2.6,2.6,0,0,1-.63.34,1,1,0,0,1-.71,0,.63.63,0,0,1-.11-.62,1,1,0,0,1,.63-.33,4.82,4.82,0,0,1,.89,0c0-.39-.1-.78-.13-1.18a1.45,1.45,0,0,1,0-.78.7.7,0,0,1,.67-.07,1.22,1.22,0,0,1,.17.78A10.67,10.67,0,0,1,89.63,44.48Z"/><path class="cls-29" d="M94.28,44.44a10.36,10.36,0,0,1-.21-1.15,1.35,1.35,0,0,1,.13-.78.72.72,0,0,1,.61,0,1.93,1.93,0,0,1,.14.86c0,.25-.17.49-.21.74-.06.51.17.67.69.59a3,3,0,0,1,.92.16c0,.24-.09.68-.15.68a3.52,3.52,0,0,1-.92-.15,2.2,2.2,0,0,1-.36-.17,2.15,2.15,0,0,0-.07,1.71,1.5,1.5,0,0,1,0,.87.93.93,0,0,1-.67,0,2.07,2.07,0,0,1-.08-.87,7,7,0,0,1,.11-.87c.12-.74.06-1.24-.9-.78a.75.75,0,0,1-.66-.23.63.63,0,0,1,0-.63.92.92,0,0,1,.69-.15,2.38,2.38,0,0,1,.67.32Z"/><path class="cls-29" d="M86.44,57.8c-1.77.19-1.78.18-2.35-1.5C86,56.08,86.51,55.64,86.44,57.8Z"/><path class="cls-31" d="M69.24,94.44c0-.09,0-.1-.16-.1h-.6c-.1,0-.12,0-.15.1l-.14.42a1.51,1.51,0,0,0-.09.33s0,.07.11.08h.13a.07.07,0,0,1,0,.1h-.8a.08.08,0,0,1,0-.1h.13a.27.27,0,0,0,.24-.2c.07-.18.18-.44.35-.89l.41-1.07a.57.57,0,0,0,.07-.28.44.44,0,0,0,.21-.15.06.06,0,0,1,.06,0c.05.18.12.36.17.53l.55,1.6c.12.34.17.4.34.42h.11a.08.08,0,0,1,0,.1h-.94a.07.07,0,0,1,0-.1h.12c.08,0,.14,0,.14-.07a.85.85,0,0,0-.05-.21Zm-.79-.36c0,.09,0,.1.08.1H69c.12,0,.12,0,.09-.12l-.22-.65a2.58,2.58,0,0,0-.09-.25h0a2.35,2.35,0,0,0-.1.23Z"/><path class="cls-31" d="M73.23,93.73a2.83,2.83,0,0,0-.08-.82.24.24,0,0,0-.2-.08h-.1a.07.07,0,0,1,0-.1h.87a.07.07,0,0,1,0,.1h-.1a.23.23,0,0,0-.2.09,3.51,3.51,0,0,0-.06.81v.45a1.39,1.39,0,0,1-.28,1,1.05,1.05,0,0,1-.76.29,1,1,0,0,1-1.06-1.16v-.94c0-.41,0-.48-.24-.5H71s0-.08,0-.1h1s0,.08,0,.1h-.1c-.23,0-.24.09-.24.5v.86c0,.64.2,1.06.81,1.06s.8-.45.8-1.06Z"/><path class="cls-31" d="M75.1,93.25c0-.28,0-.36-.19-.39h-.09a.06.06,0,0,1,0-.1c.34,0,.66,0,1,0a2.47,2.47,0,0,1,.88.12A1.19,1.19,0,0,1,77.51,94a1.31,1.31,0,0,1-.7,1.19,1.92,1.92,0,0,1-.89.19c-.25,0-.51,0-.65,0h-.5a.08.08,0,0,1,0-.1h.09c.23,0,.24-.08.24-.5Zm.33,1.42a.74.74,0,0,0,.08.43c.09.12.24.16.49.16.77,0,1.12-.51,1.12-1.25a1.12,1.12,0,0,0-1.25-1.18.93.93,0,0,0-.39.05s0,.12,0,.3Z"/><path class="cls-31" d="M80.11,94.44c0-.09,0-.1-.16-.1h-.6c-.1,0-.12,0-.15.1l-.14.42a1.55,1.55,0,0,0-.09.33s0,.07.12.08h.13a.07.07,0,0,1,0,.1h-.8a.08.08,0,0,1,0-.1h.13a.26.26,0,0,0,.24-.2c.07-.18.19-.44.35-.89l.41-1.07a.57.57,0,0,0,.07-.28.44.44,0,0,0,.21-.15.06.06,0,0,1,.06,0c.05.18.12.36.18.53l.55,1.6c.11.34.17.4.34.42H81a.08.08,0,0,1,0,.1h-.94a.07.07,0,0,1,0-.1h.12c.08,0,.14,0,.14-.07a.84.84,0,0,0-.05-.21Zm-.79-.36c0,.09,0,.1.08.1h.49c.12,0,.12,0,.09-.12l-.21-.65c0-.09-.07-.2-.09-.25h0a2.09,2.09,0,0,0-.1.23Z"/><path class="cls-31" d="M84.42,95.27a.07.07,0,0,1,0,.1h-1a.09.09,0,0,1,0-.1h.12c.09,0,.13,0,.13-.05s0-.06-.09-.17-.39-.57-.57-.8a10.16,10.16,0,0,0-.56.85.33.33,0,0,0-.05.13s0,0,.12.05h.11a.08.08,0,0,1,0,.1h-.84a.06.06,0,0,1,0-.1h.1a.73.73,0,0,0,.47-.35c0-.06.32-.41.54-.73a.17.17,0,0,0,0-.08.22.22,0,0,0,0-.09l-.6-.86c-.13-.19-.21-.27-.35-.3l-.13,0s0-.09,0-.1h.91s0,.07,0,.1h-.11c-.07,0-.12,0-.12.05a.58.58,0,0,0,.12.22c.13.19.37.55.51.73.1-.13.46-.69.53-.81a.32.32,0,0,0,.06-.13s-.06,0-.13-.05h-.1s0-.08,0-.1h.8a.07.07,0,0,1,0,.1h-.1c-.12,0-.26.13-.43.34s-.33.44-.52.71a.26.26,0,0,0,0,.08s0,0,0,.1l.67.95c.14.19.24.25.36.26Z"/><path class="cls-31" d="M88.54,94.44c0-.09,0-.1-.16-.1h-.6c-.1,0-.12,0-.15.1l-.14.42a1.54,1.54,0,0,0-.09.33s0,.07.12.08h.13a.07.07,0,0,1,0,.1h-.8a.08.08,0,0,1,0-.1H87a.26.26,0,0,0,.24-.2c.07-.18.18-.44.35-.89L88,93.1a.59.59,0,0,0,.07-.28.44.44,0,0,0,.21-.15.06.06,0,0,1,.06,0c.05.18.12.36.18.53l.55,1.6c.12.34.17.4.34.42h.11a.08.08,0,0,1,0,.1h-.94a.07.07,0,0,1,0-.1h.12c.08,0,.14,0,.14-.07a.8.8,0,0,0-.05-.21Zm-.79-.36c0,.09,0,.1.08.1h.49c.11,0,.12,0,.09-.12l-.21-.65a2.65,2.65,0,0,0-.09-.25h0a2.07,2.07,0,0,0-.1.23Z"/><path class="cls-31" d="M91.39,94.76c0,.42,0,.48.24.5h.13s0,.09,0,.1H90.67a.07.07,0,0,1,0-.1h.14c.23,0,.25-.08.25-.5V93c0-.12,0-.13-.12-.13h-.22a.83.83,0,0,0-.49.1.74.74,0,0,0-.18.27.08.08,0,0,1-.1,0,4,4,0,0,0,.15-.59.1.1,0,0,1,.08,0c0,.13.16.12.34.12h1.61c.21,0,.25,0,.31-.11s.06,0,.07,0a2.5,2.5,0,0,0-.06.61.08.08,0,0,1-.1,0,.51.51,0,0,0-.1-.29.8.8,0,0,0-.46-.1H91.5c-.12,0-.12,0-.12.14Z"/><path class="cls-31" d="M96,93.85c0,.11,0,.11.13.11h.27a1.57,1.57,0,0,0,.34,0s.08,0,.1-.14l0-.16a.08.08,0,0,1,.1,0c0,.09,0,.25,0,.4s0,.29,0,.39-.08,0-.1,0l0-.16a.19.19,0,0,0-.13-.15,1.39,1.39,0,0,0-.31,0h-.27c-.12,0-.13,0-.13.11v.55c0,.42,0,.48.24.5h.13s0,.09,0,.1h-1a.08.08,0,0,1,0-.1h.1c.23,0,.24-.08.24-.5V93.33c0-.42,0-.47-.24-.5h-.06s0-.09,0-.1h1.19c.25,0,.49,0,.54,0,0,.18,0,.38,0,.53a.07.07,0,0,1-.1,0c0-.18-.08-.33-.28-.38a1.68,1.68,0,0,0-.39,0H96.1c-.12,0-.12,0-.12.16Z"/><path class="cls-31" d="M98.59,93.34c0-.42,0-.49-.24-.51h-.1s0-.09,0-.1h1s0,.08,0,.1h-.1c-.23,0-.24.09-.24.51v1.42c0,.42,0,.48.24.51h.1s0,.09,0,.1h-1a.08.08,0,0,1,0-.1h.1c.23,0,.24-.08.24-.51Z"/><path class="cls-31" d="M100.73,93.25c0-.28,0-.36-.19-.39h-.09a.06.06,0,0,1,0-.1c.34,0,.66,0,1,0a2.48,2.48,0,0,1,.88.12,1.19,1.19,0,0,1,.81,1.17,1.31,1.31,0,0,1-.7,1.19,1.91,1.91,0,0,1-.89.19c-.25,0-.51,0-.65,0h-.5a.08.08,0,0,1,0-.1h.09c.23,0,.24-.08.24-.5Zm.33,1.42a.75.75,0,0,0,.08.43c.09.12.24.16.49.16.77,0,1.12-.51,1.12-1.25a1.12,1.12,0,0,0-1.25-1.18.93.93,0,0,0-.39.05s0,.12,0,.3Z"/><path class="cls-31" d="M104.64,93.33c0-.41,0-.47-.24-.5h-.06s0-.09,0-.1h1.22c.26,0,.49,0,.54,0a4.37,4.37,0,0,1,.06.53.08.08,0,0,1-.1,0c-.06-.19-.1-.33-.3-.38a1.88,1.88,0,0,0-.39,0h-.29c-.12,0-.12,0-.12.16v.8c0,.11,0,.11.13.11h.23a1.4,1.4,0,0,0,.34,0s.08,0,.1-.14l0-.16s.09,0,.1,0,0,.25,0,.4,0,.3,0,.38-.08,0-.1,0l0-.16a.17.17,0,0,0-.12-.15,1.36,1.36,0,0,0-.31,0h-.23c-.12,0-.13,0-.13.11v.56a.67.67,0,0,0,.08.42s.13.09.48.09a1.16,1.16,0,0,0,.51-.06,1,1,0,0,0,.28-.38.07.07,0,0,1,.1,0,3.24,3.24,0,0,1-.18.55h-2a.08.08,0,0,1,0-.1h.13c.23,0,.25-.08.25-.5Z"/><path class="cls-31" d="M107.76,93.33c0-.42,0-.48-.26-.5h-.1s0-.09,0-.1h1a.08.08,0,0,1,0,.1h-.1c-.23,0-.24.08-.24.5v1.39c0,.25,0,.35.08.43s.12.09.43.09.42,0,.49-.05a.85.85,0,0,0,.26-.39s.1,0,.1,0a3.16,3.16,0,0,1-.17.56h-1.87a.08.08,0,0,1,0-.1h.12c.23,0,.24-.08.24-.5Z"/><path class="cls-31" d="M110.76,93.34c0-.42,0-.49-.24-.51h-.1s0-.09,0-.1h1s0,.08,0,.1h-.1c-.23,0-.24.09-.24.51v1.42c0,.42,0,.48.24.51h.1s0,.09,0,.1h-1a.08.08,0,0,1,0-.1h.1c.23,0,.24-.08.24-.51Z"/><path class="cls-31" d="M113.29,95.42a1.27,1.27,0,0,1-.62-.15,1.83,1.83,0,0,1-.11-.56s.08,0,.1,0a.72.72,0,0,0,.68.59.45.45,0,0,0,.5-.46.6.6,0,0,0-.33-.56l-.38-.25a.85.85,0,0,1-.43-.69.72.72,0,0,1,.81-.69,1.52,1.52,0,0,1,.37.05l.14,0a1.78,1.78,0,0,1,.07.49.08.08,0,0,1-.1,0,.52.52,0,0,0-.54-.45.42.42,0,0,0-.47.44.63.63,0,0,0,.34.49l.32.2a.9.9,0,0,1,.5.77A.75.75,0,0,1,113.29,95.42Z"/><circle class="cls-32" cx="862.75" cy="65.5" r="22.5"/><line class="cls-32" x1="878.46" y1="82.46" x2="900.25" y2="103"/><line class="cls-32" x1="972.62" y1="50.04" x2="1032.62" y2="50.04"/><line class="cls-32" x1="972.62" y1="73" x2="1032.62" y2="73"/><line class="cls-32" x1="972.62" y1="95.96" x2="1032.62" y2="95.96"/></g></g></svg>