<svg id="Layer_1" data-name="Layer 1" xmlns="http://www.w3.org/2000/svg" xmlns:xlink="http://www.w3.org/1999/xlink" viewBox="0 0 250 250"><defs><style>.cls-1{fill:#fff;}.cls-2{fill:none;}.cls-3,.cls-6{isolation:isolate;}.cls-4{fill:#4c4c4e;}.cls-5{fill:#dbdcde;}.cls-6{opacity:0.6;}.cls-7{fill:#f0563f;}.cls-8{fill:#404041;}.cls-9{fill:#e6e7e8;}</style></defs><title>IP_sc4_justBtn</title><rect class="cls-1" x="-749" y="-765.5" width="1108.4" height="1893.6"/><circle class="cls-1" cx="125" cy="125" r="125"/><rect class="cls-2" x="29.2" y="172.5" width="188.5" height="61.9"/><g class="cls-3"><path class="cls-4" d="M38.9,192.4c-.56,2.38-2.77,3.89-4.54,4.56l-1.82-2a6,6,0,0,0,2.27-2.35A8.82,8.82,0,0,0,35.2,189v-16.1h4V188.6A13.46,13.46,0,0,1,38.9,192.4Z"/><path class="cls-4" d="M52.67,192.77a3.28,3.28,0,0,1-1.12-1.4,5.36,5.36,0,0,1-3.78,1.37c-2,0-3.75-1-4.23-2.32a8.58,8.58,0,0,1-.31-2.86v-9.18l3.7-.7v9.21a5.65,5.65,0,0,0,.31,2.35,1.5,1.5,0,0,0,1.32.67,2.78,2.78,0,0,0,2.32-1.37V178.46l3.58-.76v10.95a4.16,4.16,0,0,0,.87,2.6Z"/><path class="cls-4" d="M63.06,192.82a12.75,12.75,0,0,1-5.8-1.65l1.34-2.74a10.47,10.47,0,0,0,4.76,1.62,1.76,1.76,0,0,0,1.9-1.62c0-1-.7-1.48-2.21-1.76l-1.68-.31a5.06,5.06,0,0,1-2.63-1.46,4.35,4.35,0,0,1-.81-2.58c0-2.8,2.21-4.68,5.54-4.68A10.76,10.76,0,0,1,68.6,179l-1.23,2.52a7.58,7.58,0,0,0-3.53-1c-1.09,0-1.82.56-1.82,1.4s.48,1.12,1.79,1.46l1.74.45a4.46,4.46,0,0,1,2.86,1.62,3.8,3.8,0,0,1,.78,2.44C69.19,190.81,66.73,192.82,63.06,192.82Z"/><path class="cls-4" d="M76.25,192.71c-1.9,0-3.42-.84-3.86-2.1a5.25,5.25,0,0,1-.25-2.21v-7.78H70.71V178h1.43a24.87,24.87,0,0,1,.14-3.39l3.81-1a42.91,42.91,0,0,0-.22,4.34h3.36l-1,2.58H75.86v7.2c0,1.82.34,2.3,1.62,2.3a4.9,4.9,0,0,0,1.34-.28l.48,2.24A7.89,7.89,0,0,1,76.25,192.71Z"/><path class="cls-4" d="M83.84,176.42a2.31,2.31,0,0,1-2.3-2.32,2.34,2.34,0,0,1,2.35-2.32,2.29,2.29,0,0,1,2.27,2.32A2.32,2.32,0,0,1,83.84,176.42Zm-1.88,16V178.29l3.75-.59v14.67Z"/><path class="cls-4" d="M98.82,191.82a6.71,6.71,0,0,1-3.5.9c-3.95,0-6.24-2.74-6.24-7.39,0-3.3,1.26-5.49,2.94-6.64a6.79,6.79,0,0,1,3.56-1.06,6.12,6.12,0,0,1,2.77.64,6.37,6.37,0,0,1,1.4,1l-1.82,2.46a3.61,3.61,0,0,0-2.27-1.12c-1.68,0-2.44,1.46-2.44,4.82,0,1.88.25,3,.73,3.61a2.17,2.17,0,0,0,1.68.81,3.83,3.83,0,0,0,2.58-1.18l.22-.2,1.71,2.27A6,6,0,0,1,98.82,191.82Z"/><path class="cls-4" d="M105.73,186.38v.11c0,2.21,1.09,3.47,3,3.47a5.6,5.6,0,0,0,3.64-1.43l1.46,2.24a8.22,8.22,0,0,1-5.4,2c-4.12,0-6.78-2.91-6.78-7.42,0-2.58.53-4.28,1.79-5.68a5.64,5.64,0,0,1,4.51-1.93,5.87,5.87,0,0,1,4.14,1.51c1.32,1.34,1.9,3.28,1.9,6.27v.87Zm4.4-2.91a3.69,3.69,0,0,0-.45-2.16,1.81,1.81,0,0,0-1.65-.84c-1.43,0-2.24,1.12-2.24,3.11v.06h4.34Z"/><path class="cls-4" d="M136,192.38l-1.18-1.18a6.66,6.66,0,0,1-1.68,1,10.3,10.3,0,0,1-3.67.56c-4.48,0-7-1.93-7-5.29,0-2.18,1.15-3.75,3.5-4.84a5.44,5.44,0,0,1-1.82-2,6,6,0,0,1-.45-2.21c0-2.77,2.3-4.7,5.6-4.7s5.68,1.82,5.68,4.42a4.13,4.13,0,0,1-1,2.69,8.88,8.88,0,0,1-2.46,1.74l-.25.14,3.25,3.08a8.39,8.39,0,0,0,.25-2.74v-.2h3.14V183a12.8,12.8,0,0,1-.9,5.21l4.17,4.14Zm-8-7.7a2.86,2.86,0,0,0-1.51,2.58c0,1.76,1.15,2.77,3.13,2.77a3.91,3.91,0,0,0,2.94-1Zm1.34-8.34a1.71,1.71,0,0,0-1.79,1.82c0,.81.28,1.26,1.46,2.46l.22.22a3,3,0,0,0,1.85-2.63A1.75,1.75,0,0,0,129.28,176.33Z"/><path class="cls-4" d="M160,191.06a5.11,5.11,0,0,1-3.84,1.62,6,6,0,0,1-3-.76,7.61,7.61,0,0,1,.06,1.18v4.48l-3.61,1V182a18.15,18.15,0,0,0-.22-3.61l3.33-.59a6.3,6.3,0,0,1,.25,1.34,4.8,4.8,0,0,1,3.53-1.34,5.19,5.19,0,0,1,2.83.87c1.54,1,2.66,2.88,2.66,6.19C162,187.9,161.45,189.46,160,191.06Zm-2.46-9a1.72,1.72,0,0,0-1.79-1.2,3.46,3.46,0,0,0-2.49,1.09v7a3.53,3.53,0,0,0,2.07.84c1.85,0,2.58-1.26,2.58-4.54A10.1,10.1,0,0,0,157.5,182Z"/><path class="cls-4" d="M174.47,192.77a3.28,3.28,0,0,1-1.12-1.4,5.35,5.35,0,0,1-3.78,1.37c-2,0-3.75-1-4.23-2.32a8.55,8.55,0,0,1-.31-2.86v-9.18l3.7-.7v9.21a5.67,5.67,0,0,0,.31,2.35,1.51,1.51,0,0,0,1.32.67,2.78,2.78,0,0,0,2.32-1.37V178.46l3.58-.76v10.95a4.17,4.17,0,0,0,.87,2.6Z"/><path class="cls-4" d="M190,191.54a4.74,4.74,0,0,1-3.13,1.12,4,4,0,0,1-3.19-1.32,2.39,2.39,0,0,1-.39,1H180c.28-.64.36-1.06.36-3.05V176.05a15.33,15.33,0,0,0-.25-3.53l3.84-.9a19.55,19.55,0,0,1,.14,2.55v3.39a7.56,7.56,0,0,1-.08,1.26,3.93,3.93,0,0,1,3.05-1.15c3.5,0,5.68,2.8,5.68,7.28C192.7,187.87,191.8,190.14,190,191.54Zm-1.76-8.93a2.05,2.05,0,0,0-2-1.82,2.88,2.88,0,0,0-2.13,1.15v6.61a3,3,0,0,0,2.1.92,1.75,1.75,0,0,0,1.82-1.12,7.83,7.83,0,0,0,.42-3.3A10.25,10.25,0,0,0,188.28,182.6Z"/><path class="cls-4" d="M199.45,192.71a3.36,3.36,0,0,1-3.33-2,7.75,7.75,0,0,1-.34-3.22v-10.7a37.25,37.25,0,0,0-.2-4.31l3.84-.87a21.49,21.49,0,0,1,.2,3.72v11.17c0,2.46,0,2.8.25,3.19a.86.86,0,0,0,.76.39,1.24,1.24,0,0,0,.42-.06l.64,2.24A6.26,6.26,0,0,1,199.45,192.71Z"/><path class="cls-4" d="M205.8,176.42a2.31,2.31,0,0,1-2.3-2.32,2.34,2.34,0,0,1,2.35-2.32,2.29,2.29,0,0,1,2.27,2.32A2.32,2.32,0,0,1,205.8,176.42Zm-1.87,16V178.29l3.75-.59v14.67Z"/><path class="cls-4" d="M220.78,191.82a6.71,6.71,0,0,1-3.5.9c-3.95,0-6.24-2.74-6.24-7.39,0-3.3,1.26-5.49,2.94-6.64a6.8,6.8,0,0,1,3.56-1.06,6.12,6.12,0,0,1,2.77.64,6.37,6.37,0,0,1,1.4,1l-1.82,2.46a3.61,3.61,0,0,0-2.27-1.12c-1.68,0-2.44,1.46-2.44,4.82,0,1.88.25,3,.73,3.61a2.17,2.17,0,0,0,1.68.81,3.83,3.83,0,0,0,2.57-1.18l.22-.2,1.71,2.27A6,6,0,0,1,220.78,191.82Z"/></g><g class="cls-3"><path class="cls-4" d="M95.5,220.82a12.75,12.75,0,0,1-5.8-1.65L91,216.43a10.46,10.46,0,0,0,4.76,1.62,1.76,1.76,0,0,0,1.9-1.62c0-1-.7-1.48-2.21-1.76l-1.68-.31a5.06,5.06,0,0,1-2.63-1.46,4.34,4.34,0,0,1-.81-2.58c0-2.8,2.21-4.68,5.54-4.68A10.76,10.76,0,0,1,101,207l-1.23,2.52a7.59,7.59,0,0,0-3.53-1c-1.09,0-1.82.56-1.82,1.4s.48,1.12,1.79,1.46l1.74.45a4.46,4.46,0,0,1,2.86,1.62,3.79,3.79,0,0,1,.79,2.44C101.63,218.81,99.17,220.82,95.5,220.82Z"/><path class="cls-4" d="M114.12,221.1a4,4,0,0,1-2-1.74,7,7,0,0,1-.87.76,5,5,0,0,1-2.88.78c-3.19,0-4.93-1.62-4.93-4.48,0-3.36,2.32-4.93,6.89-4.93.28,0,.53,0,.84,0v-.59c0-1.6-.31-2.13-1.68-2.13a7.91,7.91,0,0,0-4.14,1.62l-1.6-2.69a13.82,13.82,0,0,1,2.32-1.18,9.7,9.7,0,0,1,3.92-.84c2.41,0,4.06.9,4.62,2.49a6.63,6.63,0,0,1,.25,2.58l-.08,4.82c0,1.57.08,2.24,1.34,3.19Zm-3.19-7c-2.6,0-3.5.48-3.5,2.18a1.7,1.7,0,0,0,1.65,1.88,2.72,2.72,0,0,0,2-1l.06-3.08Z"/><path class="cls-4" d="M125.77,202.85a3.15,3.15,0,0,0-1.54-.48,1.47,1.47,0,0,0-1.57,1.62v2h3.64l-1,2.58h-2.66v11.76H119V208.62h-1.29V206h1.37a14.68,14.68,0,0,1-.14-2c0-2.83,1.68-4.45,4.62-4.45a6.47,6.47,0,0,1,3.39.9Z"/><path class="cls-4" d="M130.78,214.38v.11c0,2.21,1.09,3.47,3,3.47a5.6,5.6,0,0,0,3.64-1.43l1.46,2.24a8.23,8.23,0,0,1-5.4,2c-4.12,0-6.78-2.91-6.78-7.42,0-2.58.53-4.28,1.79-5.68a5.64,5.64,0,0,1,4.51-1.93,5.86,5.86,0,0,1,4.14,1.51c1.32,1.34,1.9,3.28,1.9,6.27v.87Zm4.4-2.91a3.69,3.69,0,0,0-.45-2.16,1.82,1.82,0,0,0-1.65-.84c-1.43,0-2.24,1.12-2.24,3.11v.06h4.34Z"/><path class="cls-4" d="M146.12,220.71c-1.9,0-3.41-.84-3.86-2.1a5.28,5.28,0,0,1-.25-2.21v-7.78h-1.43V206H142a24.7,24.7,0,0,1,.14-3.39l3.81-1a43.21,43.21,0,0,0-.22,4.34h3.36l-1,2.58h-2.41v7.2c0,1.82.34,2.3,1.62,2.3a4.9,4.9,0,0,0,1.35-.28l.47,2.24A7.88,7.88,0,0,1,146.12,220.71Z"/><path class="cls-4" d="M158.72,220.6c-1,2.77-1.71,4-2.74,4.73a7.56,7.56,0,0,1-3.47,1.32l-1.29-2.46a8.41,8.41,0,0,0,2.32-1,4.3,4.3,0,0,0,1.06-1.18,8.49,8.49,0,0,0,.81-1.68h-1l-4.73-14.11,3.84-.45,2.49,8.37.76,3c0-.08.28-1.6.45-2.3.11-.48.34-1.32.56-2L160,206h3.95Z"/></g><circle class="cls-5" cx="123.5" cy="95" r="60"/><path class="cls-1" d="M101.1,81.7l9.7,23.4-4-.1H95.2l-2.9.1h-1Zm44.8,0,9.8,23.4h-1.1l-2.9-.1H140.1l-3.9.1ZM90.7,107.6a2.17,2.17,0,0,1,.5.3l.2.1c.2.1.3.2.5.3l.3.1a18.16,18.16,0,0,0,3,1.1,22.16,22.16,0,0,0,11.8,0c1-.3,2-.7,3-1.1.4-.2,1-.5,1.5-.8a11.22,11.22,0,0,0,1.5-1.1l.2-.2v-1.2h-.3L102.7,80.5c.5.1,1,.1,1.5.2,2,.2,4.1.4,6.5.6,3.6.3,7.4.4,11.5.4-.2,2-.4,3.9-.6,5.9l-.5,6.2-.4,6.2c-.1,1-.2,2-.3,3.1l-.1,1.1c-.1.7-.1,1.4-.2,2-.1,1.2-.2,2.2-.2,3.2s0,2.1.1,3.2c.1,1.6.4,3.1.6,4.5a5.07,5.07,0,0,0-1.3.2,20.26,20.26,0,0,0-4.4,1.1,10.21,10.21,0,0,0-2.2.9,15.07,15.07,0,0,0-2.2,1.1c-.7.4-1.5.9-2.2,1.4a15,15,0,0,0-2.3,1.9l-.2.2v1.5l4.9.2,4.4.1,8.7.1h8.8l4.4-.1,2.2-.1,2.7-.1V124l-.2-.2a28.86,28.86,0,0,0-2.2-1.9c-.7-.5-1.5-1-2.2-1.4a24.83,24.83,0,0,0-4.4-2,31.48,31.48,0,0,0-4.4-1.1c-.4-.1-.8-.1-1.2-.2a34,34,0,0,0,.6-4.6c.1-1.1.1-2.2.1-3.2s-.1-2-.2-3.2c-.1-.7-.1-1.3-.2-2,0-.4-.1-.7-.1-1.1-.1-1.1-.2-2.1-.3-3.1l-.4-6.2-.5-6.2c-.2-1.9-.4-3.9-.6-5.9,3.9,0,7.6-.2,11.2-.4,2.4-.2,4.5-.4,6.5-.6.6-.1,1.1-.1,1.6-.2l-10.2,24.6h-.4v1.2l.2.2c.6.5,1.1.8,1.5,1.1l.6.3.2.1c.2.1.3.2.5.2l.3.1a12.14,12.14,0,0,0,3,1.1,22.16,22.16,0,0,0,11.8,0c1-.3,2-.7,3-1.1.4-.2.9-.5,1.5-.8a6.27,6.27,0,0,0,1.5-1.1l.2-.2V105h-.3L148.2,80.4c.3,0,.6.1.8.1.5.1,1,.1,1.5.2a4.41,4.41,0,0,1,1,.2c.2,0,.3.1.5.1a4.85,4.85,0,0,0,1.7,0,4.94,4.94,0,0,0,1.6-.5,7.86,7.86,0,0,0,1.6-1l.2-.2v-.8l-.2-.2a6.22,6.22,0,0,0-1.7-1,9.84,9.84,0,0,0-1.6-.5,4.84,4.84,0,0,0-1.7,0c-.2,0-.3.1-.5.1s-.7.1-1,.2c-.5.1-1,.1-1.5.2a7.71,7.71,0,0,1-1.5.2l-.9.2c-1.1-.2-2.2-.3-3.1-.4-2-.2-4.1-.4-6.5-.6-3.5-.2-7.1-.4-11-.4l.4-2.9a7.67,7.67,0,0,1,.2-1.5c0-.3.1-.5.1-.7a7.28,7.28,0,0,0,0-2.4,10.53,10.53,0,0,0-.6-2.4c-.2-.4-.3-.8-.5-1.2a4.2,4.2,0,0,0-.8-1.2l-.2-.2h-.9l-.2.2c-.3.4-.6.9-.8,1.2s-.3.7-.5,1.2a9.38,9.38,0,0,0-.6,2.4,7.28,7.28,0,0,0,0,2.4c0,.2.1.5.1.7a7.75,7.75,0,0,1,.2,1.5l.1,1.1.2,1.7c-4,0-7.7.2-11.3.4-2.4.2-4.5.4-6.5.6-.8.1-1.8.2-2.8.4l-.7-.1a7.71,7.71,0,0,0-1.5-.2c-.5-.1-1-.1-1.5-.2a4.41,4.41,0,0,1-1-.2c-.2,0-.3-.1-.5-.1a4.84,4.84,0,0,0-1.7,0,4.29,4.29,0,0,0-1.6.5,8.16,8.16,0,0,0-1.7,1l-.2.2v.8l.2.2a6.22,6.22,0,0,0,1.7,1,9.84,9.84,0,0,0,1.6.5,4.85,4.85,0,0,0,1.7,0c.2,0,.3-.1.5-.1s.7-.1,1-.2c.5-.1,1-.1,1.5-.2a4.3,4.3,0,0,0,.5-.1L89.6,104.9h-.4v1.2l.2.2a3.19,3.19,0,0,0,1.3,1.3"/><circle class="cls-1" cx="1433.1" cy="128.7" r="125"/><rect class="cls-2" x="1374.3" y="176.2" width="111.6" height="29.9"/><g class="cls-3"><path class="cls-4" d="M1403.07,196.07v-8.68h-5.6v8.68h-3.89V176.61h3.89v7.56h5.6v-7.56h4v19.46Z"/><path class="cls-4" d="M1414.47,190.08v.11c0,2.21,1.09,3.47,3,3.47a5.6,5.6,0,0,0,3.64-1.43l1.46,2.24a8.23,8.23,0,0,1-5.4,2c-4.12,0-6.78-2.91-6.78-7.42,0-2.58.53-4.28,1.79-5.68a5.64,5.64,0,0,1,4.51-1.93,5.86,5.86,0,0,1,4.14,1.51c1.32,1.34,1.9,3.28,1.9,6.27v.87Zm4.39-2.91a3.69,3.69,0,0,0-.45-2.16,1.81,1.81,0,0,0-1.65-.84c-1.43,0-2.24,1.12-2.24,3.11v.06h4.34Z"/><path class="cls-4" d="M1435.13,196.8a4,4,0,0,1-2-1.74,7.12,7.12,0,0,1-.87.76,5,5,0,0,1-2.88.78c-3.19,0-4.93-1.62-4.93-4.48,0-3.36,2.32-4.93,6.89-4.93.28,0,.53,0,.84,0v-.59c0-1.6-.31-2.13-1.68-2.13a7.91,7.91,0,0,0-4.14,1.62l-1.6-2.69a13.82,13.82,0,0,1,2.32-1.18,9.7,9.7,0,0,1,3.92-.84c2.41,0,4.06.9,4.62,2.49a6.64,6.64,0,0,1,.25,2.58l-.08,4.82c0,1.57.08,2.24,1.34,3.19Zm-3.19-7c-2.61,0-3.5.48-3.5,2.18a1.7,1.7,0,0,0,1.65,1.88,2.72,2.72,0,0,0,2-1l.06-3.08Z"/><path class="cls-4" d="M1443.48,196.41a3.36,3.36,0,0,1-3.33-2,7.75,7.75,0,0,1-.34-3.22v-10.7a36.76,36.76,0,0,0-.2-4.31l3.84-.87a21.23,21.23,0,0,1,.2,3.72v11.17c0,2.46,0,2.8.25,3.19a.86.86,0,0,0,.76.39,1.25,1.25,0,0,0,.42-.06l.64,2.24A6.24,6.24,0,0,1,1443.48,196.41Z"/><path class="cls-4" d="M1452,196.41c-1.9,0-3.42-.84-3.86-2.1a5.25,5.25,0,0,1-.25-2.21v-7.78h-1.43v-2.58h1.43a24.7,24.7,0,0,1,.14-3.39l3.81-1a43.19,43.19,0,0,0-.22,4.34h3.36l-1,2.58h-2.41v7.2c0,1.82.34,2.3,1.63,2.3a4.9,4.9,0,0,0,1.34-.28l.48,2.24A7.88,7.88,0,0,1,1452,196.41Z"/><path class="cls-4" d="M1465.9,196.07v-9.63c0-1.43-.39-2-1.46-2a5,5,0,0,0-3,1.32v10.28h-3.81V179.5a15.13,15.13,0,0,0-.28-3.28l3.84-.9a19.29,19.29,0,0,1,.25,3.5v2.86c0,.45-.06,1-.06,1.2a6.27,6.27,0,0,1,4.06-1.54c1.82,0,3.28.78,3.72,2a6.7,6.7,0,0,1,.37,2.66v10Z"/></g><circle class="cls-5" cx="1430.1" cy="98.7" r="60"/><path class="cls-1" d="M1453.6,109.3h-45.5v-4.1h43.2a2.16,2.16,0,0,1,2.3,2.1Zm-45.9-10.2h7.8a1.37,1.37,0,0,1,1.4,1.4v1.7h-9.2Zm48.9,10.2v-2a5.06,5.06,0,0,0-5.2-5h-32.2v-1.7a3.58,3.58,0,0,0-3.6-3.6h-8.2V92.4h-5.9v33.9h5.9v-11H1452v11h5.9v-17Z"/><polygon class="cls-1" points="1441.5 92.3 1446.7 92.3 1446.7 88.8 1450.7 88.8 1450.7 83.3 1446.7 83.3 1446.7 79.3 1441.5 79.3 1441.5 83.3 1437.6 83.3 1437.6 88.8 1441.5 88.8 1441.5 92.3"/><path class="cls-1" d="M1444.2,74.8a11,11,0,1,1-11,11,11,11,0,0,1,11-11m0,25.6a14.6,14.6,0,1,0-14.6-14.6,14.55,14.55,0,0,0,14.6,14.6"/><circle class="cls-1" cx="1111" cy="128.7" r="125"/><circle class="cls-5" cx="1111" cy="98.7" r="60"/><path class="cls-1" d="M1103.1,76.2l-27.3,39.4c-.5.8.7,2.2,1.3,3.1a1.22,1.22,0,0,0,1,.6,1.36,1.36,0,0,0,1-.6l26.7-42.5Z"/><path class="cls-1" d="M1146.2,115l-27-38.8h-2.6l26.3,41.9a1.22,1.22,0,0,0,1,.6,1.36,1.36,0,0,0,1-.6c.5-.9,1.8-2.2,1.3-3.1"/><polygon class="cls-1" points="1125.4 93.7 1097.2 93.7 1099.9 89.7 1122.7 89.7 1125.4 93.7"/><polygon class="cls-1" points="1120.1 85.8 1102.5 85.8 1104.2 83.3 1118.4 83.3 1120.1 85.8"/><polygon class="cls-1" points="1106.6 78.8 1105.5 80.4 1117 80.4 1115.9 78.8 1106.6 78.8"/><polygon class="cls-1" points="1132.1 105.7 1090.4 105.7 1094.4 99.8 1128.1 99.8 1132.1 105.7"/><polygon class="cls-1" points="1141 119.6 1081.5 119.6 1087.2 111.2 1135.3 111.2 1141 119.6"/><rect class="cls-2" x="1037.4" y="176.2" width="147.1" height="32.6"/><g class="cls-3"><path class="cls-4" d="M1068.32,179.86h-4.65v16.21h-4V179.86h-4.76v-3.25h14Z"/><path class="cls-4" d="M1076.95,185a2.11,2.11,0,0,0-1.09-.28,3,3,0,0,0-2.3,1.2v10.14h-3.75V186.5a13,13,0,0,0-.53-4.2l3.36-.9a4.59,4.59,0,0,1,.59,2,4.4,4.4,0,0,1,3.36-2,2.9,2.9,0,0,1,1.4.31Z"/><path class="cls-4" d="M1089.24,196.8a4,4,0,0,1-2-1.74,7,7,0,0,1-.87.76,5,5,0,0,1-2.88.78c-3.19,0-4.93-1.62-4.93-4.48,0-3.36,2.32-4.93,6.89-4.93.28,0,.53,0,.84,0v-.59c0-1.6-.31-2.13-1.68-2.13a7.9,7.9,0,0,0-4.14,1.62l-1.6-2.69a13.82,13.82,0,0,1,2.32-1.18,9.7,9.7,0,0,1,3.92-.84c2.41,0,4.06.9,4.62,2.49a6.63,6.63,0,0,1,.25,2.58l-.08,4.82c0,1.57.08,2.24,1.34,3.19Zm-3.19-7c-2.6,0-3.5.48-3.5,2.18a1.7,1.7,0,0,0,1.65,1.88,2.72,2.72,0,0,0,2-1l.05-3.08Z"/><path class="cls-4" d="M1101.75,196.07v-9.32c0-1.62-.28-2.1-1.26-2.1a4.37,4.37,0,0,0-2.61,1.29v10.14h-3.75V185.68a10.34,10.34,0,0,0-.5-3.36l3.33-1a3.67,3.67,0,0,1,.53,1.79,16.6,16.6,0,0,1,1.65-1.06,5.9,5.9,0,0,1,2.58-.62,3.57,3.57,0,0,1,3.45,2.07,5.8,5.8,0,0,1,.28,2v10.47Z"/><path class="cls-4" d="M1114,196.52a12.75,12.75,0,0,1-5.8-1.65l1.35-2.74a10.46,10.46,0,0,0,4.76,1.62,1.76,1.76,0,0,0,1.91-1.62c0-1-.7-1.48-2.21-1.76l-1.68-.31a5.06,5.06,0,0,1-2.63-1.46,4.34,4.34,0,0,1-.81-2.58c0-2.8,2.21-4.68,5.54-4.68a10.76,10.76,0,0,1,5.13,1.34l-1.23,2.52a7.58,7.58,0,0,0-3.53-1c-1.09,0-1.82.56-1.82,1.4s.48,1.12,1.79,1.46l1.74.45a4.46,4.46,0,0,1,2.86,1.62,3.78,3.78,0,0,1,.78,2.44C1120.09,194.5,1117.63,196.52,1114,196.52Z"/><path class="cls-4" d="M1133.42,194.76a5.1,5.1,0,0,1-3.84,1.62,6,6,0,0,1-3-.76,7.61,7.61,0,0,1,.06,1.18v4.48l-3.61,1V185.66a18,18,0,0,0-.22-3.61l3.33-.59a6.18,6.18,0,0,1,.25,1.34,4.8,4.8,0,0,1,3.53-1.34,5.18,5.18,0,0,1,2.83.87c1.54,1,2.66,2.88,2.66,6.19C1135.41,191.59,1134.91,193.16,1133.42,194.76Zm-2.46-9a1.73,1.73,0,0,0-1.79-1.2,3.46,3.46,0,0,0-2.49,1.09v7a3.53,3.53,0,0,0,2.07.84c1.85,0,2.58-1.26,2.58-4.54A10.16,10.16,0,0,0,1131,185.71Z"/><path class="cls-4" d="M1149,194.39a5.86,5.86,0,0,1-4.73,2c-3.89,0-6.44-2.91-6.44-7.42s2.58-7.5,6.44-7.5a6,6,0,0,1,4.87,2.16,7.45,7.45,0,0,1,1.65,5.24A7.78,7.78,0,0,1,1149,194.39Zm-3.05-9.41a2.05,2.05,0,0,0-3.55.7,13.56,13.56,0,0,0,.08,6.8,2.07,2.07,0,0,0,1.9,1.18c1.62,0,2.32-1.46,2.32-4.84C1146.67,186.89,1146.41,185.63,1145.91,185Z"/><path class="cls-4" d="M1161.11,185a2.12,2.12,0,0,0-1.09-.28,3,3,0,0,0-2.3,1.2v10.14H1154V186.5a13,13,0,0,0-.53-4.2l3.36-.9a4.59,4.59,0,0,1,.59,2,4.4,4.4,0,0,1,3.36-2,2.89,2.89,0,0,1,1.4.31Z"/><path class="cls-4" d="M1168.5,196.41c-1.9,0-3.42-.84-3.86-2.1a5.25,5.25,0,0,1-.25-2.21v-7.78H1163v-2.58h1.43a24.7,24.7,0,0,1,.14-3.39l3.81-1a43.19,43.19,0,0,0-.22,4.34h3.36l-1,2.58h-2.41v7.2c0,1.82.34,2.3,1.63,2.3a4.9,4.9,0,0,0,1.34-.28l.48,2.24A7.88,7.88,0,0,1,1168.5,196.41Z"/></g><circle class="cls-1" cx="1750.7" cy="128.7" r="125"/><rect class="cls-2" x="1654.9" y="176.2" width="188.5" height="61.9"/><g class="cls-3"><path class="cls-4" d="M1700.65,196.94c-.56,2.38-2.77,3.89-4.54,4.56l-1.82-2a6,6,0,0,0,2.27-2.35,8.78,8.78,0,0,0,.39-3.58v-16.1h4v15.68A13.38,13.38,0,0,1,1700.65,196.94Z"/><path class="cls-4" d="M1714.42,197.3a3.29,3.29,0,0,1-1.12-1.4,5.35,5.35,0,0,1-3.78,1.37c-2,0-3.75-1-4.23-2.32a8.55,8.55,0,0,1-.31-2.86v-9.18l3.7-.7v9.21a5.68,5.68,0,0,0,.31,2.35,1.51,1.51,0,0,0,1.32.67,2.78,2.78,0,0,0,2.32-1.37V183l3.58-.76v10.95a4.17,4.17,0,0,0,.87,2.6Z"/><path class="cls-4" d="M1724.81,197.36a12.74,12.74,0,0,1-5.79-1.65l1.34-2.74a10.47,10.47,0,0,0,4.76,1.62A1.76,1.76,0,0,0,1727,193c0-1-.7-1.48-2.21-1.76l-1.68-.31a5.06,5.06,0,0,1-2.63-1.46,4.33,4.33,0,0,1-.81-2.58c0-2.8,2.21-4.68,5.54-4.68a10.76,10.76,0,0,1,5.13,1.34l-1.23,2.52a7.59,7.59,0,0,0-3.53-1c-1.09,0-1.82.56-1.82,1.4s.47,1.12,1.79,1.46l1.74.45a4.46,4.46,0,0,1,2.86,1.62,3.79,3.79,0,0,1,.79,2.44C1730.95,195.34,1728.48,197.36,1724.81,197.36Z"/><path class="cls-4" d="M1738,197.25c-1.9,0-3.42-.84-3.87-2.1a5.25,5.25,0,0,1-.25-2.21v-7.78h-1.43v-2.58h1.43a24.7,24.7,0,0,1,.14-3.39l3.81-1a42.62,42.62,0,0,0-.22,4.34H1741l-1,2.58h-2.41v7.2c0,1.82.34,2.3,1.62,2.3a4.9,4.9,0,0,0,1.34-.28l.48,2.24A7.88,7.88,0,0,1,1738,197.25Z"/><path class="cls-4" d="M1745.59,181a2.31,2.31,0,0,1-2.29-2.32,2.34,2.34,0,0,1,2.35-2.32,2.29,2.29,0,0,1,2.27,2.32A2.32,2.32,0,0,1,1745.59,181Zm-1.87,16V182.83l3.75-.59v14.67Z"/><path class="cls-4" d="M1760.57,196.35a6.7,6.7,0,0,1-3.5.9c-3.95,0-6.24-2.74-6.24-7.39,0-3.3,1.26-5.49,2.94-6.64a6.79,6.79,0,0,1,3.55-1.06,6.11,6.11,0,0,1,2.77.64,6.32,6.32,0,0,1,1.4,1l-1.82,2.46a3.62,3.62,0,0,0-2.27-1.12c-1.68,0-2.44,1.46-2.44,4.82,0,1.88.25,3,.73,3.61a2.16,2.16,0,0,0,1.68.81,3.83,3.83,0,0,0,2.58-1.18l.22-.2,1.71,2.27A6,6,0,0,1,1760.57,196.35Z"/><path class="cls-4" d="M1767.49,190.92V191c0,2.21,1.09,3.47,3,3.47a5.6,5.6,0,0,0,3.64-1.43l1.46,2.24a8.23,8.23,0,0,1-5.4,2c-4.12,0-6.78-2.91-6.78-7.42,0-2.58.53-4.28,1.79-5.68a5.63,5.63,0,0,1,4.51-1.93,5.87,5.87,0,0,1,4.14,1.51c1.32,1.34,1.9,3.28,1.9,6.27v.87Zm4.4-2.91a3.69,3.69,0,0,0-.45-2.16,1.82,1.82,0,0,0-1.65-.84c-1.43,0-2.24,1.12-2.24,3.11v.06h4.34Z"/><path class="cls-4" d="M1797.73,196.91l-1.18-1.18a6.73,6.73,0,0,1-1.68,1,10.32,10.32,0,0,1-3.67.56c-4.48,0-7-1.93-7-5.29,0-2.18,1.15-3.75,3.5-4.84a5.45,5.45,0,0,1-1.82-2,6,6,0,0,1-.45-2.21c0-2.77,2.3-4.7,5.6-4.7s5.68,1.82,5.68,4.42a4.13,4.13,0,0,1-1,2.69,8.89,8.89,0,0,1-2.46,1.74l-.25.14,3.25,3.08a8.36,8.36,0,0,0,.25-2.74v-.2h3.14v.17a12.77,12.77,0,0,1-.9,5.21l4.17,4.14Zm-6.69-16a1.71,1.71,0,0,0-1.79,1.82c0,.81.28,1.26,1.46,2.46l.22.22a3,3,0,0,0,1.85-2.63A1.75,1.75,0,0,0,1791,180.87Zm-1.35,8.34a2.86,2.86,0,0,0-1.51,2.58c0,1.76,1.15,2.77,3.14,2.77a3.91,3.91,0,0,0,2.94-1Z"/></g><g class="cls-3"><path class="cls-4" d="M1682.8,223.6a5.11,5.11,0,0,1-3.84,1.62,6,6,0,0,1-3-.76,7.61,7.61,0,0,1,.06,1.18v4.48l-3.61,1V214.5a18.18,18.18,0,0,0-.22-3.61l3.33-.59a6.29,6.29,0,0,1,.25,1.34,4.8,4.8,0,0,1,3.53-1.34,5.19,5.19,0,0,1,2.83.87c1.54,1,2.66,2.88,2.66,6.19C1684.79,220.43,1684.29,222,1682.8,223.6Zm-2.46-9a1.72,1.72,0,0,0-1.79-1.2,3.46,3.46,0,0,0-2.49,1.09v7a3.53,3.53,0,0,0,2.07.84c1.85,0,2.58-1.26,2.58-4.54A10.16,10.16,0,0,0,1680.34,214.55Z"/><path class="cls-4" d="M1697.31,225.3a3.26,3.26,0,0,1-1.12-1.4,5.36,5.36,0,0,1-3.78,1.37c-2,0-3.75-1-4.23-2.32a8.55,8.55,0,0,1-.31-2.86v-9.18l3.7-.7v9.21a5.67,5.67,0,0,0,.31,2.35,1.5,1.5,0,0,0,1.32.67,2.78,2.78,0,0,0,2.32-1.37V211l3.58-.76v10.95a4.16,4.16,0,0,0,.87,2.6Z"/><path class="cls-4" d="M1712.87,224.07a4.75,4.75,0,0,1-3.14,1.12,4,4,0,0,1-3.19-1.32,2.44,2.44,0,0,1-.39,1h-3.36c.28-.64.36-1.06.36-3.05V208.59a15.3,15.3,0,0,0-.25-3.53l3.84-.9a19.22,19.22,0,0,1,.14,2.55v3.39a7.56,7.56,0,0,1-.08,1.26,3.93,3.93,0,0,1,3.05-1.15c3.5,0,5.68,2.8,5.68,7.28C1715.53,220.4,1714.64,222.67,1712.87,224.07Zm-1.77-8.93a2.05,2.05,0,0,0-2-1.82,2.88,2.88,0,0,0-2.13,1.15v6.61a3,3,0,0,0,2.1.92,1.75,1.75,0,0,0,1.82-1.12,7.84,7.84,0,0,0,.42-3.3A10.25,10.25,0,0,0,1711.11,215.14Z"/><path class="cls-4" d="M1722.28,225.25a3.36,3.36,0,0,1-3.33-2,7.75,7.75,0,0,1-.34-3.22v-10.7a36.76,36.76,0,0,0-.2-4.31l3.84-.87a21.23,21.23,0,0,1,.2,3.72v11.17c0,2.46,0,2.8.25,3.19a.86.86,0,0,0,.76.39,1.25,1.25,0,0,0,.42-.06l.64,2.24A6.27,6.27,0,0,1,1722.28,225.25Z"/><path class="cls-4" d="M1728.64,209a2.31,2.31,0,0,1-2.3-2.32,2.34,2.34,0,0,1,2.35-2.32,2.29,2.29,0,0,1,2.27,2.32A2.32,2.32,0,0,1,1728.64,209Zm-1.88,16V210.83l3.75-.59v14.67Z"/><path class="cls-4" d="M1743.62,224.35a6.7,6.7,0,0,1-3.5.9c-3.95,0-6.24-2.74-6.24-7.39,0-3.3,1.26-5.49,2.94-6.64a6.79,6.79,0,0,1,3.56-1.06,6.12,6.12,0,0,1,2.77.64,6.41,6.41,0,0,1,1.4,1l-1.82,2.46a3.61,3.61,0,0,0-2.27-1.12c-1.68,0-2.44,1.46-2.44,4.82,0,1.88.25,3,.73,3.61a2.17,2.17,0,0,0,1.68.81,3.83,3.83,0,0,0,2.58-1.18l.22-.2,1.71,2.27A5.93,5.93,0,0,1,1743.62,224.35Z"/><path class="cls-4" d="M1758.29,225.36a12.74,12.74,0,0,1-5.79-1.65l1.34-2.74a10.47,10.47,0,0,0,4.76,1.62,1.76,1.76,0,0,0,1.9-1.62c0-1-.7-1.48-2.21-1.76l-1.68-.31a5.06,5.06,0,0,1-2.63-1.46,4.33,4.33,0,0,1-.81-2.58c0-2.8,2.21-4.68,5.54-4.68a10.76,10.76,0,0,1,5.12,1.34L1762.6,214a7.59,7.59,0,0,0-3.53-1c-1.09,0-1.82.56-1.82,1.4s.48,1.12,1.79,1.46l1.73.45a4.45,4.45,0,0,1,2.86,1.62,3.79,3.79,0,0,1,.79,2.44C1764.42,223.34,1762,225.36,1758.29,225.36Z"/><path class="cls-4" d="M1776.91,225.64a4,4,0,0,1-2-1.74,7.11,7.11,0,0,1-.87.76,5,5,0,0,1-2.88.78c-3.19,0-4.93-1.62-4.93-4.48,0-3.36,2.32-4.93,6.89-4.93.28,0,.53,0,.84,0v-.59c0-1.6-.31-2.13-1.68-2.13a7.91,7.91,0,0,0-4.14,1.62l-1.59-2.69a13.73,13.73,0,0,1,2.32-1.18,9.7,9.7,0,0,1,3.92-.84c2.41,0,4.06.9,4.62,2.49a6.67,6.67,0,0,1,.25,2.58l-.08,4.82c0,1.57.08,2.24,1.34,3.19Zm-3.19-7c-2.61,0-3.5.48-3.5,2.18a1.7,1.7,0,0,0,1.65,1.88,2.72,2.72,0,0,0,2-1l.06-3.08Z"/><path class="cls-4" d="M1788.56,207.38a3.16,3.16,0,0,0-1.54-.48,1.47,1.47,0,0,0-1.57,1.62v2h3.64l-1,2.58h-2.66v11.76h-3.67V213.15h-1.29v-2.58h1.37a14.68,14.68,0,0,1-.14-2c0-2.83,1.68-4.45,4.62-4.45a6.47,6.47,0,0,1,3.39.9Z"/><path class="cls-4" d="M1793.57,218.92V219c0,2.21,1.09,3.47,3,3.47a5.6,5.6,0,0,0,3.64-1.43l1.46,2.24a8.23,8.23,0,0,1-5.4,2c-4.12,0-6.78-2.91-6.78-7.42,0-2.58.53-4.28,1.79-5.68a5.64,5.64,0,0,1,4.51-1.93,5.86,5.86,0,0,1,4.14,1.51c1.32,1.34,1.9,3.28,1.9,6.27v.87ZM1798,216a3.69,3.69,0,0,0-.45-2.16,1.81,1.81,0,0,0-1.65-.84c-1.43,0-2.24,1.12-2.24,3.11v.06H1798Z"/><path class="cls-4" d="M1808.91,225.25c-1.9,0-3.42-.84-3.86-2.1a5.24,5.24,0,0,1-.25-2.21v-7.78h-1.43v-2.58h1.43a24.7,24.7,0,0,1,.14-3.39l3.81-1a42.62,42.62,0,0,0-.22,4.34h3.36l-1,2.58h-2.41v7.2c0,1.82.34,2.3,1.62,2.3a4.9,4.9,0,0,0,1.35-.28l.47,2.24A7.87,7.87,0,0,1,1808.91,225.25Z"/><path class="cls-4" d="M1821.51,225.14c-1,2.77-1.71,4-2.74,4.73a7.56,7.56,0,0,1-3.47,1.32l-1.29-2.46a8.41,8.41,0,0,0,2.32-1,4.33,4.33,0,0,0,1.06-1.18,8.6,8.6,0,0,0,.81-1.68h-1l-4.73-14.11,3.84-.45,2.49,8.37.76,3c0-.08.28-1.6.45-2.3.11-.48.34-1.32.56-2l2.16-6.83h3.95Z"/></g><image class="cls-6" width="181" height="181" transform="translate(1658.3 12.52)" xlink:href="../AppData/Local/Packages/Microsoft.SkypeApp_kzf8qxf38zg5c/LocalState/Downloads/ECF25F9F.png"/><circle class="cls-7" cx="1749.2" cy="98.7" r="60"/><path class="cls-1" d="M1726.8,85.3l9.7,23.4-4-.1h-11.6l-2.9.1h-1Zm44.8.1,9.8,23.4h-1.1l-2.9-.1h-11.6l-3.9.1Zm-55.2,25.9a2.17,2.17,0,0,1,.5.3l.2.1c.2.1.3.2.5.3l.3.1a18.16,18.16,0,0,0,3,1.1,22.16,22.16,0,0,0,11.8,0c1-.3,2-.7,3-1.1.4-.2,1-.5,1.5-.8a11.22,11.22,0,0,0,1.5-1.1l.2-.2v-1.2h-.3l-10.2-24.6c.5.1,1,.1,1.5.2,2,.2,4.1.4,6.5.6,3.6.3,7.4.4,11.5.4-.2,2-.4,3.9-.6,5.9l-.5,6.2-.4,6.2c-.1,1-.2,2-.3,3.1l-.1,1.1c-.1.7-.1,1.4-.2,2-.1,1.2-.2,2.2-.2,3.2s0,2.1.1,3.2c.1,1.6.4,3.1.6,4.5a5.07,5.07,0,0,0-1.3.2,20.26,20.26,0,0,0-4.4,1.1,10.21,10.21,0,0,0-2.2.9,15.07,15.07,0,0,0-2.2,1.1c-.7.4-1.5.9-2.2,1.4a11.25,11.25,0,0,0-2.2,1.9l-.2.2v1.5l4.9.2,4.4.1,8.7.1h8.8l4.4-.1,2.2-.1,2.7-.1v-1.5l-.2-.2a28.86,28.86,0,0,0-2.2-1.9c-.7-.5-1.5-1-2.2-1.4a24.83,24.83,0,0,0-4.4-2,29.64,29.64,0,0,0-4.5-1.1c-.4-.1-.8-.1-1.2-.2a34,34,0,0,0,.6-4.6c.1-1.1.1-2.2.1-3.2s-.1-2-.2-3.2c-.1-.7-.1-1.3-.2-2,0-.4-.1-.7-.1-1.1-.1-1.1-.2-2.1-.3-3.1l-.4-6.2-.5-6.2c-.2-1.9-.4-3.9-.6-5.9,3.9,0,7.6-.2,11.2-.4,2.4-.2,4.5-.4,6.5-.6.6-.1,1.1-.1,1.6-.2l-10.2,24.6h-.4V110l.2.2c.6.5,1.1.8,1.5,1.1l.6.3.2.1c.2.1.3.2.5.2l.3.1a12.14,12.14,0,0,0,3,1.1,22.16,22.16,0,0,0,11.8,0c1-.3,2-.7,3-1.1.4-.2.9-.5,1.5-.8a6.27,6.27,0,0,0,1.5-1.1l.2-.2v-1.2h-.3l-10.2-24.6c.3,0,.6.1.8.1.5.1,1,.1,1.5.2a4.41,4.41,0,0,1,1,.2c.2,0,.3.1.5.1a4.85,4.85,0,0,0,1.7,0,4.94,4.94,0,0,0,1.6-.5,7.86,7.86,0,0,0,1.6-1l.2-.2v-.8l-.2-.2a6.22,6.22,0,0,0-1.7-1,9.84,9.84,0,0,0-1.6-.5,4.84,4.84,0,0,0-1.7,0c-.2,0-.3.1-.5.1s-.7.1-1,.2c-.5.1-1,.1-1.5.2a7.71,7.71,0,0,1-1.5.2l-.9.2c-1.1-.2-2.2-.3-3.1-.4-2-.2-4.1-.4-6.5-.6-3.5-.2-7.1-.4-11-.4l.4-2.9a7.67,7.67,0,0,1,.2-1.5c0-.3.1-.5.1-.7a7.28,7.28,0,0,0,0-2.4,10.53,10.53,0,0,0-.6-2.4c-.2-.4-.3-.8-.5-1.2a4.2,4.2,0,0,0-.8-1.2l-.2-.2h-.9l-.2.2c-.3.4-.6.9-.8,1.2s-.3.7-.5,1.2a9.38,9.38,0,0,0-.6,2.4,7.28,7.28,0,0,0,0,2.4c0,.2.1.5.1.7a7.75,7.75,0,0,1,.2,1.5l.1,1.1.2,1.7c-4,0-7.7.2-11.3.4-2.4.2-4.5.4-6.5.6-.8.1-1.8.2-2.8.4l-.7-.1a7.71,7.71,0,0,0-1.5-.2c-.5-.1-1-.1-1.5-.2a4.41,4.41,0,0,1-1-.2c-.2,0-.3-.1-.5-.1a4.84,4.84,0,0,0-1.7,0,4.29,4.29,0,0,0-1.6.5,8.16,8.16,0,0,0-1.7,1l-.2.2V83l.2.2a6.22,6.22,0,0,0,1.7,1,9.84,9.84,0,0,0,1.6.5,4.85,4.85,0,0,0,1.7,0c.2,0,.3-.1.5-.1s.7-.1,1-.2c.5-.1,1-.1,1.5-.2a4.3,4.3,0,0,0,.5-.1l-10.2,24.5h-.4v1.2l.2.2a2.71,2.71,0,0,0,1.3,1.3"/><polygon class="cls-8" points="1739 8.1 1749 25.4 1759 8.1 1739 8.1"/><rect class="cls-1" x="2460.8" y="-765.5" width="1108.4" height="1893.6"/><path class="cls-9" d="M3490.8,117.9a9.82,9.82,0,0,1-9.8,9.8H3050a9.82,9.82,0,0,1-9.8-9.8V37.5a9.82,9.82,0,0,1,9.8-9.8h431a9.82,9.82,0,0,1,9.8,9.8Z"/><g class="cls-3"><path class="cls-4" d="M3194.7,86.89c-3.74,0-6.52-1.22-8.53-3.82-1.84-2.34-2.66-5-2.66-8.75,0-5.29,1.73-9,5.22-11.37a10.33,10.33,0,0,1,6.08-1.76,11.88,11.88,0,0,1,8,2.88l-2.66,3.13a7.92,7.92,0,0,0-5.22-1.94,5.1,5.1,0,0,0-3.6,1.26c-1.69,1.62-2.12,4.32-2.12,8.06,0,3.56.61,5.87,1.87,7.13a5.55,5.55,0,0,0,3.92,1.4,5.92,5.92,0,0,0,2.84-.61V76.81H3194l-.65-4.1H3203v12A16.1,16.1,0,0,1,3194.7,86.89Z"/><path class="cls-4" d="M3221.16,84.44a7.52,7.52,0,0,1-6.08,2.56c-5,0-8.28-3.74-8.28-9.54s3.31-9.65,8.28-9.65a7.72,7.72,0,0,1,6.26,2.77c1.48,1.73,2.13,3.74,2.13,6.73C3223.46,80.49,3222.74,82.64,3221.16,84.44Zm-3.92-12.09a2.64,2.64,0,0,0-4.57.9,13.13,13.13,0,0,0-.5,4.1,13,13,0,0,0,.61,4.64,2.67,2.67,0,0,0,2.45,1.51c2.09,0,3-1.87,3-6.23C3218.2,74.8,3217.88,73.18,3217.23,72.35Z"/><path class="cls-4" d="M3232.14,87a4.32,4.32,0,0,1-4.28-2.52c-.36-.94-.43-1.51-.43-4.14V66.63a47.54,47.54,0,0,0-.25-5.54L3232.1,60a27.45,27.45,0,0,1,.25,4.79V79.12c0,3.17,0,3.6.32,4.1a1.1,1.1,0,0,0,1,.5,1.61,1.61,0,0,0,.54-.07l.83,2.88A8,8,0,0,1,3232.14,87Z"/><path class="cls-4" d="M3249,86.6a3.29,3.29,0,0,1-.29-1.08,6.19,6.19,0,0,1-4.25,1.55c-4.68,0-7.63-3.64-7.63-9.36S3240,68,3244.7,68a5,5,0,0,1,3.28,1,22.35,22.35,0,0,1-.14-2.74V60l4.79.76V79.87c0,4.54.36,6,.68,6.73ZM3247.9,73a4,4,0,0,0-2.63-1.19c-2.16,0-3.1,1.8-3.1,5.9S3243,83,3245.53,83a3.45,3.45,0,0,0,2.38-1.19Z"/><path class="cls-4" d="M3275.88,87a10.21,10.21,0,0,1-8.17-3.46,13.05,13.05,0,0,1-3-9,16,16,0,0,1,1.69-7.78,10.75,10.75,0,0,1,9.58-5.79,10.23,10.23,0,0,1,6.33,2L3280,66.45a6.59,6.59,0,0,0-4-1.4,5.18,5.18,0,0,0-4.25,2.16c-1,1.44-1.4,3.53-1.4,6.44,0,3.42.29,5.33,1,6.69a5.2,5.2,0,0,0,4.82,2.81,6.47,6.47,0,0,0,4.28-1.62l2.3,3.17A10.22,10.22,0,0,1,3275.88,87Z"/><path class="cls-4" d="M3298.16,84.44a7.53,7.53,0,0,1-6.08,2.56c-5,0-8.28-3.74-8.28-9.54s3.31-9.65,8.28-9.65a7.72,7.72,0,0,1,6.26,2.77c1.48,1.73,2.13,3.74,2.13,6.73C3300.46,80.49,3299.74,82.64,3298.16,84.44Zm-3.92-12.09a2.64,2.64,0,0,0-4.57.9,13.13,13.13,0,0,0-.5,4.1,13,13,0,0,0,.61,4.64,2.67,2.67,0,0,0,2.45,1.51c2.09,0,3-1.87,3-6.23C3295.21,74.8,3294.88,73.18,3294.24,72.35Z"/><path class="cls-4" d="M3316.92,87.54a5.16,5.16,0,0,1-2.59-2.23,8.93,8.93,0,0,1-1.12,1,6.37,6.37,0,0,1-3.71,1c-4.1,0-6.33-2.09-6.33-5.76,0-4.32,3-6.33,8.86-6.33.36,0,.68,0,1.08,0v-.76c0-2.05-.4-2.74-2.16-2.74a10.15,10.15,0,0,0-5.33,2.09l-2.05-3.46a17.76,17.76,0,0,1,3-1.51,12.48,12.48,0,0,1,5-1.08c3.09,0,5.22,1.15,5.94,3.2a8.47,8.47,0,0,1,.32,3.31l-.11,6.19c0,2,.11,2.88,1.73,4.1Zm-4.1-9c-3.35,0-4.5.61-4.5,2.81a2.19,2.19,0,0,0,2.13,2.41A3.5,3.5,0,0,0,3313,82.5l.07-4Z"/><path class="cls-4" d="M3328.69,87.18a16.38,16.38,0,0,1-7.45-2.12l1.73-3.53a13.47,13.47,0,0,0,6.12,2.09,2.26,2.26,0,0,0,2.45-2.09c0-1.26-.9-1.91-2.84-2.27l-2.16-.4a6.51,6.51,0,0,1-3.38-1.87,5.59,5.59,0,0,1-1-3.31c0-3.6,2.84-6,7.13-6a13.84,13.84,0,0,1,6.59,1.73l-1.58,3.24a9.74,9.74,0,0,0-4.54-1.33c-1.4,0-2.34.72-2.34,1.8s.61,1.44,2.3,1.87l2.23.58c2.27.58,3,1.26,3.67,2.09a4.88,4.88,0,0,1,1,3.13C3336.57,84.59,3333.4,87.18,3328.69,87.18Z"/><path class="cls-4" d="M3345.64,87c-2.45,0-4.39-1.08-5-2.7a6.77,6.77,0,0,1-.32-2.84v-10h-1.84V68.18h1.84a31.63,31.63,0,0,1,.18-4.36l4.89-1.22a55.11,55.11,0,0,0-.29,5.58h4.32l-1.22,3.31h-3.1v9.25c0,2.34.43,3,2.09,3a6.31,6.31,0,0,0,1.73-.36l.61,2.88A10.13,10.13,0,0,1,3345.64,87Z"/></g><path class="cls-9" d="M3490.8,263.8a9.82,9.82,0,0,1-9.8,9.8H3050a9.82,9.82,0,0,1-9.8-9.8V183.4a9.82,9.82,0,0,1,9.8-9.8h431a9.82,9.82,0,0,1,9.8,9.8Z"/><g class="cls-3"><path class="cls-4" d="M3189.92,211.69h-6v20.84h-5.11V211.69h-6.12v-4.17h18Z"/><path class="cls-4" d="M3204.51,230.37a7.53,7.53,0,0,1-6.08,2.56c-5,0-8.28-3.74-8.28-9.54s3.31-9.65,8.28-9.65a7.73,7.73,0,0,1,6.26,2.77c1.47,1.73,2.12,3.74,2.12,6.73C3206.81,226.41,3206.09,228.57,3204.51,230.37Zm-3.93-12.09a2.58,2.58,0,0,0-2.09-1,2.6,2.6,0,0,0-2.48,1.87,17.47,17.47,0,0,0,.11,8.75,2.67,2.67,0,0,0,2.45,1.51c2.09,0,3-1.87,3-6.23C3201.55,220.72,3201.23,219.1,3200.58,218.27Z"/><path class="cls-4" d="M3224.05,230.37a7.53,7.53,0,0,1-6.08,2.56c-5,0-8.28-3.74-8.28-9.54s3.31-9.65,8.28-9.65a7.72,7.72,0,0,1,6.26,2.77c1.48,1.73,2.13,3.74,2.13,6.73C3226.36,226.41,3225.64,228.57,3224.05,230.37Zm-3.92-12.09a2.64,2.64,0,0,0-4.57.9,17.44,17.44,0,0,0,.11,8.75,2.67,2.67,0,0,0,2.45,1.51c2.09,0,3-1.87,3-6.23C3221.1,220.72,3220.78,219.1,3220.13,218.27Z"/><path class="cls-4" d="M3247.71,232.53h-4.43l-1.66-6.33c-.4-1.48-.83-3.24-1-4.46l-.29-1.84a22.94,22.94,0,0,1-.43,2.38c-.36,1.58-1.15,4.75-1.58,6.48l-.94,3.78h-4.5l-5-18.11,4.79-.54,1.51,7.09c.43,1.91.94,5,1,5.72a63.93,63.93,0,0,1,1.33-6.41l1.73-6.19h4.54l1.48,6.08c.72,3.06,1.26,5.9,1.37,6.52.11-.79.5-3.67,1-6l1.4-6.59h5Z"/><path class="cls-4" d="M3268.77,230.37a7.53,7.53,0,0,1-6.08,2.56c-5,0-8.28-3.74-8.28-9.54s3.31-9.65,8.28-9.65a7.72,7.72,0,0,1,6.26,2.77c1.48,1.73,2.12,3.74,2.12,6.73C3271.07,226.41,3270.35,228.57,3268.77,230.37Zm-3.92-12.09a2.64,2.64,0,0,0-4.57.9,17.47,17.47,0,0,0,.11,8.75,2.67,2.67,0,0,0,2.45,1.51c2.09,0,3-1.87,3-6.23C3265.82,220.72,3265.49,219.1,3264.84,218.27Z"/><path class="cls-4" d="M3288.32,230.37a7.53,7.53,0,0,1-6.08,2.56c-5,0-8.28-3.74-8.28-9.54s3.31-9.65,8.28-9.65a7.73,7.73,0,0,1,6.26,2.77c1.47,1.73,2.12,3.74,2.12,6.73C3290.62,226.41,3289.9,228.57,3288.32,230.37Zm-3.93-12.09a2.58,2.58,0,0,0-2.09-1,2.6,2.6,0,0,0-2.48,1.87,17.47,17.47,0,0,0,.11,8.75,2.67,2.67,0,0,0,2.45,1.51c2.09,0,3-1.87,3-6.23C3285.36,220.72,3285,219.1,3284.39,218.27Z"/><path class="cls-4" d="M3313.58,232.53V220.36c0-2.2-.25-2.63-1.51-2.63a5.49,5.49,0,0,0-3.2,1.55v13.25h-4.57v-12c0-2.3-.32-2.84-1.66-2.84a5.11,5.11,0,0,0-3.17,1.4v13.43h-4.71V219.68c0-2.66-.18-3.82-.68-4.71l4.36-1.19a4.68,4.68,0,0,1,.65,1.87,6.35,6.35,0,0,1,4.5-1.87,5,5,0,0,1,3.74,1.51,6,6,0,0,1,.72.9,6.77,6.77,0,0,1,5.22-2.41,5.7,5.7,0,0,1,3.64,1.15c1,.9,1.37,2,1.37,4.5v13.1Z"/><path class="cls-4" d="M3335.8,231.45a6.1,6.1,0,0,1-4,1.44,5.1,5.1,0,0,1-4.1-1.69,3.12,3.12,0,0,1-.5,1.33h-4.32c.36-.83.47-1.37.47-3.92V211.54A19.62,19.62,0,0,0,3323,207l4.93-1.15a24.88,24.88,0,0,1,.18,3.28v4.36a9.76,9.76,0,0,1-.11,1.62,5.05,5.05,0,0,1,3.92-1.48c4.5,0,7.31,3.6,7.31,9.36C3339.22,226.73,3338.07,229.65,3335.8,231.45ZM3333.53,220a2.64,2.64,0,0,0-2.63-2.34,3.71,3.71,0,0,0-2.74,1.48v8.5a3.8,3.8,0,0,0,2.7,1.19,2.25,2.25,0,0,0,2.34-1.44,10,10,0,0,0,.54-4.25A13.23,13.23,0,0,0,3333.53,220Z"/><path class="cls-4" d="M3355.85,233.46a5.16,5.16,0,0,1-2.59-2.23,8.93,8.93,0,0,1-1.12,1,6.37,6.37,0,0,1-3.71,1c-4.11,0-6.34-2.09-6.34-5.76,0-4.32,3-6.33,8.86-6.33.36,0,.68,0,1.08,0v-.76c0-2.05-.39-2.74-2.16-2.74a10.15,10.15,0,0,0-5.33,2.09l-2.05-3.46a17.76,17.76,0,0,1,3-1.51,12.48,12.48,0,0,1,5-1.08c3.1,0,5.22,1.15,5.94,3.2a8.56,8.56,0,0,1,.32,3.31l-.11,6.19c0,2,.11,2.88,1.73,4.1Zm-4.1-9c-3.35,0-4.5.61-4.5,2.81a2.19,2.19,0,0,0,2.12,2.41,3.49,3.49,0,0,0,2.52-1.26l.07-4Z"/></g><path class="cls-9" d="M2539.1,117.9a9.82,9.82,0,0,0,9.8,9.8h431a9.82,9.82,0,0,0,9.8-9.8V37.5a9.82,9.82,0,0,0-9.8-9.8h-431a9.82,9.82,0,0,0-9.8,9.8Z"/><g class="cls-3"><path class="cls-4" d="M2702.6,65.76h-6V86.6h-5.11V65.76h-6.12V61.59h18Z"/><path class="cls-4" d="M2717.18,84.44a7.53,7.53,0,0,1-6.08,2.56c-5,0-8.28-3.74-8.28-9.54s3.31-9.65,8.28-9.65a7.72,7.72,0,0,1,6.26,2.77c1.48,1.73,2.13,3.74,2.13,6.73C2719.48,80.49,2718.76,82.64,2717.18,84.44Zm-3.92-12.09a2.64,2.64,0,0,0-4.57.9,13.13,13.13,0,0,0-.5,4.1,13,13,0,0,0,.61,4.64,2.67,2.67,0,0,0,2.45,1.51c2.09,0,3-1.87,3-6.23C2714.23,74.8,2713.9,73.18,2713.25,72.35Z"/><path class="cls-4" d="M2740.83,86.6h-4.43l-1.66-6.33c-.4-1.48-.83-3.24-1-4.46l-.29-1.84a22.94,22.94,0,0,1-.43,2.38c-.36,1.58-1.15,4.75-1.58,6.48l-.94,3.78H2726l-5-18.11,4.79-.54,1.51,7.09c.43,1.91.94,5,1,5.72a63.93,63.93,0,0,1,1.33-6.41l1.73-6.19h4.54l1.48,6.08c.72,3.06,1.26,5.9,1.37,6.52.11-.79.5-3.67,1-6l1.4-6.59h5Z"/><path class="cls-4" d="M2758.76,86.6v-12c0-2.09-.36-2.7-1.62-2.7a5.63,5.63,0,0,0-3.35,1.66v13H2749V73.25a13.3,13.3,0,0,0-.65-4.32l4.28-1.22a4.72,4.72,0,0,1,.68,2.3,21.33,21.33,0,0,1,2.13-1.37,7.59,7.59,0,0,1,3.31-.79,4.58,4.58,0,0,1,4.43,2.66,7.44,7.44,0,0,1,.36,2.63V86.6Z"/><path class="cls-4" d="M2774.46,87.18a16.37,16.37,0,0,1-7.45-2.12l1.73-3.53a13.48,13.48,0,0,0,6.12,2.09,2.26,2.26,0,0,0,2.45-2.09c0-1.26-.9-1.91-2.84-2.27l-2.16-.4a6.5,6.5,0,0,1-3.38-1.87,5.58,5.58,0,0,1-1-3.31c0-3.6,2.84-6,7.13-6a13.85,13.85,0,0,1,6.59,1.73L2780,72.64a9.74,9.74,0,0,0-4.54-1.33c-1.4,0-2.34.72-2.34,1.8s.61,1.44,2.3,1.87l2.23.58c2.27.58,3,1.26,3.67,2.09a4.88,4.88,0,0,1,1,3.13C2782.34,84.59,2779.17,87.18,2774.46,87.18Z"/><path class="cls-4" d="M2794.11,86.6h-4l-6.7-18.14,4.93-.61,2.66,8.32c.4,1.22.94,3.24,1.19,4.43a30.82,30.82,0,0,1,1.12-4.68l2.48-7.74h5Z"/><path class="cls-4" d="M2805.42,66.09a3,3,0,0,1-3-3,3,3,0,0,1,3-3,2.94,2.94,0,0,1,2.92,3A3,3,0,0,1,2805.42,66.09ZM2803,86.6V68.5l4.82-.76V86.6Z"/><path class="cls-4" d="M2817.76,87a4.33,4.33,0,0,1-4.29-2.52c-.36-.94-.43-1.51-.43-4.14V66.63a47.54,47.54,0,0,0-.25-5.54l4.93-1.12a27.45,27.45,0,0,1,.25,4.79V79.12c0,3.17,0,3.6.32,4.1a1.1,1.1,0,0,0,1,.5,1.6,1.6,0,0,0,.54-.07l.83,2.88A8,8,0,0,1,2817.76,87Z"/><path class="cls-4" d="M2827.88,87a4.32,4.32,0,0,1-4.28-2.52c-.36-.94-.43-1.51-.43-4.14V66.63a47.59,47.59,0,0,0-.25-5.54l4.93-1.12a27.45,27.45,0,0,1,.25,4.79V79.12c0,3.17,0,3.6.32,4.1a1.1,1.1,0,0,0,1,.5,1.6,1.6,0,0,0,.54-.07l.83,2.88A8,8,0,0,1,2827.88,87Z"/><path class="cls-4" d="M2837.78,78.9V79c0,2.84,1.4,4.46,3.89,4.46a7.21,7.21,0,0,0,4.68-1.84l1.87,2.88a10.58,10.58,0,0,1-6.95,2.56c-5.29,0-8.71-3.74-8.71-9.54,0-3.31.68-5.51,2.3-7.31a7.25,7.25,0,0,1,5.8-2.48,7.54,7.54,0,0,1,5.33,1.94c1.69,1.73,2.45,4.21,2.45,8.06V78.9Zm5.65-3.74a4.75,4.75,0,0,0-.58-2.77,2.34,2.34,0,0,0-2.12-1.08c-1.83,0-2.88,1.44-2.88,4v.07h5.58Z"/></g><path class="cls-9" d="M2539.1,263.8a9.82,9.82,0,0,0,9.8,9.8h431a9.82,9.82,0,0,0,9.8-9.8V183.4a9.82,9.82,0,0,0-9.8-9.8h-431a9.82,9.82,0,0,0-9.8,9.8Z"/><g class="cls-3"><path class="cls-4" d="M2730.52,232.53l-.94-13.35c-.11-1.58-.18-2.84-.18-4.18-.29,1.44-.5,2.34-.94,3.85l-4,13.68h-4.28l-3.56-13.14c-.32-1.22-.76-3-1-4.43,0,1.48-.07,3-.18,4.5l-.86,13.07h-5l2.34-25h6.44l3.28,12.53a39.13,39.13,0,0,1,.87,4c.21-1.3.5-2.59.9-4.07l3.38-12.42h6.41l2.23,25Z"/><path class="cls-4" d="M2752.44,233.46a5.15,5.15,0,0,1-2.59-2.23,9.08,9.08,0,0,1-1.12,1,6.37,6.37,0,0,1-3.71,1c-4.1,0-6.34-2.09-6.34-5.76,0-4.32,3-6.33,8.86-6.33.36,0,.68,0,1.08,0v-.76c0-2.05-.4-2.74-2.16-2.74a10.14,10.14,0,0,0-5.33,2.09l-2.05-3.46a17.76,17.76,0,0,1,3-1.51,12.48,12.48,0,0,1,5-1.08c3.1,0,5.22,1.15,5.94,3.2a8.54,8.54,0,0,1,.32,3.31l-.11,6.19c0,2,.11,2.88,1.73,4.1Zm-4.1-9c-3.35,0-4.5.61-4.5,2.81a2.19,2.19,0,0,0,2.12,2.41,3.49,3.49,0,0,0,2.52-1.26l.07-4Z"/><path class="cls-4" d="M2770.19,231.81a8.62,8.62,0,0,1-4.5,1.15c-5.08,0-8-3.53-8-9.5,0-4.25,1.62-7.05,3.78-8.53a8.72,8.72,0,0,1,4.57-1.37,7.87,7.87,0,0,1,3.56.83,8.12,8.12,0,0,1,1.8,1.3l-2.34,3.17a4.64,4.64,0,0,0-2.92-1.44c-2.16,0-3.13,1.87-3.13,6.19,0,2.41.32,3.85.94,4.64a2.79,2.79,0,0,0,2.16,1,4.93,4.93,0,0,0,3.31-1.51l.29-.25,2.2,2.92A7.6,7.6,0,0,1,2770.19,231.81Z"/><path class="cls-4" d="M2775.3,232.53V211.76A28.51,28.51,0,0,0,2775,207l4.86-1.19a43.66,43.66,0,0,1,.29,6v20.77Zm11.12,0-6.19-10.44,4.71-8h5.8l-5.87,7.7,7.23,10.73Z"/><path class="cls-4" d="M2806.51,233.46a5.16,5.16,0,0,1-2.59-2.23,8.93,8.93,0,0,1-1.12,1,6.37,6.37,0,0,1-3.71,1c-4.1,0-6.33-2.09-6.33-5.76,0-4.32,3-6.33,8.86-6.33.36,0,.68,0,1.08,0v-.76c0-2.05-.4-2.74-2.16-2.74a10.15,10.15,0,0,0-5.33,2.09l-2.05-3.46a17.76,17.76,0,0,1,3-1.51,12.48,12.48,0,0,1,5-1.08c3.09,0,5.22,1.15,5.94,3.2a8.47,8.47,0,0,1,.32,3.31l-.11,6.19c0,2,.11,2.88,1.73,4.1Zm-4.1-9c-3.35,0-4.5.61-4.5,2.81a2.19,2.19,0,0,0,2.13,2.41,3.5,3.5,0,0,0,2.52-1.26l.07-4Z"/><path class="cls-4" d="M2821.49,232.82c-1.26,3.56-2.2,5.11-3.53,6.08a9.72,9.72,0,0,1-4.46,1.69l-1.66-3.17a10.83,10.83,0,0,0,3-1.22,5.59,5.59,0,0,0,1.37-1.51,11,11,0,0,0,1-2.16H2816l-6.08-18.14,4.93-.58,3.2,10.76,1,3.82c0-.11.36-2.05.58-3,.14-.61.43-1.69.72-2.56l2.77-8.78h5.08Z"/></g></svg>