<svg id="Layer_1" data-name="Layer 1" xmlns="http://www.w3.org/2000/svg" viewBox="0 0 523 173"><defs><style>.cls-1{fill:#00c0f2;}.cls-2{fill:#e6e7e8;}.cls-3{fill:#4c4c4e;}</style></defs><title>IP_sc4_multiBtn</title><rect class="cls-1" x="818.49" y="-191.06" width="89.4" height="193.5"/><rect class="cls-1" x="2149.09" y="-191.06" width="89.4" height="193.5"/><path class="cls-2" d="M486.65,125.92a9.82,9.82,0,0,1-9.8,9.8h-431a9.82,9.82,0,0,1-9.8-9.8V45.52a9.82,9.82,0,0,1,9.8-9.8h431a9.82,9.82,0,0,1,9.8,9.8Z"/><path class="cls-3" d="M188.65,94.67l-.94-13.36c-.11-1.58-.18-2.84-.18-4.18-.29,1.44-.5,2.34-.94,3.85l-4,13.68h-4.28L174.8,81.53c-.32-1.22-.76-3-1-4.43,0,1.48-.07,3-.18,4.5l-.86,13.07h-5l2.34-25h6.44l3.28,12.53a38.71,38.71,0,0,1,.86,4c.22-1.3.5-2.59.9-4.07l3.38-12.42h6.41l2.23,25Z"/><path class="cls-3" d="M210,95.18a4.22,4.22,0,0,1-1.44-1.8,6.88,6.88,0,0,1-4.86,1.76c-2.59,0-4.82-1.22-5.44-3a11,11,0,0,1-.4-3.67V76.68l4.75-.9V87.62a7.28,7.28,0,0,0,.4,3,1.93,1.93,0,0,0,1.69.86,3.57,3.57,0,0,0,3-1.76v-13l4.61-1V89.89a5.36,5.36,0,0,0,1.12,3.35Z"/><path class="cls-3" d="M222.28,95.1A4.33,4.33,0,0,1,218,92.59c-.36-.94-.43-1.51-.43-4.14V74.69a47.55,47.55,0,0,0-.25-5.54L222.24,68a27.45,27.45,0,0,1,.25,4.79V87.18c0,3.17,0,3.6.32,4.1a1.1,1.1,0,0,0,1,.5,1.63,1.63,0,0,0,.54-.07l.83,2.88A8,8,0,0,1,222.28,95.1Z"/><path class="cls-3" d="M233.19,95.1c-2.45,0-4.39-1.08-5-2.7a6.77,6.77,0,0,1-.32-2.84v-10h-1.84V76.24h1.84a32,32,0,0,1,.18-4.36L233,70.66a55.13,55.13,0,0,0-.29,5.58H237l-1.22,3.31h-3.1v9.25c0,2.34.43,3,2.09,3a6.31,6.31,0,0,0,1.73-.36l.61,2.88A10.12,10.12,0,0,1,233.19,95.1Z"/><path class="cls-3" d="M242.94,74.16a3,3,0,0,1-3-3,3,3,0,0,1,3-3,2.94,2.94,0,0,1,2.92,3A3,3,0,0,1,242.94,74.16Zm-2.41,20.52V76.57l4.82-.76V94.67Z"/><path class="cls-3" d="M249.68,86.9V82.72h8.64V86.9Z"/><path class="cls-3" d="M271.81,80.45a2.72,2.72,0,0,0-1.4-.36,3.84,3.84,0,0,0-3,1.55v13h-4.82V82.36A16.7,16.7,0,0,0,262,77l4.32-1.15a5.92,5.92,0,0,1,.76,2.63,5.65,5.65,0,0,1,4.32-2.63,3.72,3.72,0,0,1,1.8.39Z"/><path class="cls-3" d="M279,87v.14c0,2.84,1.4,4.46,3.89,4.46a7.21,7.21,0,0,0,4.68-1.84l1.87,2.88a10.57,10.57,0,0,1-6.95,2.56c-5.29,0-8.71-3.74-8.71-9.54,0-3.31.68-5.51,2.3-7.31a7.24,7.24,0,0,1,5.8-2.48,7.54,7.54,0,0,1,5.33,1.94c1.69,1.73,2.45,4.21,2.45,8.06V87Zm5.65-3.74a4.75,4.75,0,0,0-.58-2.77A2.33,2.33,0,0,0,282,79.37c-1.83,0-2.88,1.44-2.88,4v.07h5.58Z"/><path class="cls-3" d="M308.32,79.63a10.49,10.49,0,0,1-1.26-.11,4.44,4.44,0,0,1,1.08,3c0,3.17-2.88,5.47-6.8,5.47a6,6,0,0,1-.72,0c-1.22.58-1.91,1-1.91,1.51,0,.25.29.43.79.43l2.59,0c2.81,0,4.28.47,5.58,1.66a5,5,0,0,1,1.58,3.92,5.24,5.24,0,0,1-1.47,3.82c-1.62,1.73-4.39,2.37-7.27,2.37-2.63,0-5.33-.43-7-2A4.32,4.32,0,0,1,292,96.47a3.68,3.68,0,0,1,.43-1.87h4.46a2.59,2.59,0,0,0-.22,1.19c0,1.48,1.22,2.27,3.46,2.27a5.83,5.83,0,0,0,3-.61,2.24,2.24,0,0,0,1.19-1.87c0-1.65-1.48-2.16-3.38-2.2l-2.05,0a13.16,13.16,0,0,1-4.43-.58,2.34,2.34,0,0,1-1.4-2.41c0-1.19.36-2.3,3.38-3.1a4.77,4.77,0,0,1-4-5.11c0-3.78,3.06-6.23,7.77-6.23a13.35,13.35,0,0,1,3.31.47,9.66,9.66,0,0,0,2.27.4,5.8,5.8,0,0,0,3.82-1.58l2,3.06A4.59,4.59,0,0,1,308.32,79.63Zm-8.06-.18a2.56,2.56,0,0,0-2.88,2.74c0,1.87,1.15,2.63,2.84,2.63,1.91,0,3-.94,3-2.63A2.59,2.59,0,0,0,300.25,79.45Z"/><path class="cls-3" d="M316.13,74.16a3,3,0,0,1-3-3,3,3,0,0,1,3-3,2.94,2.94,0,0,1,2.92,3A3,3,0,0,1,316.13,74.16Zm-2.41,20.52V76.57l4.82-.76V94.67Z"/><path class="cls-3" d="M337,92.51A7.53,7.53,0,0,1,331,95.07c-5,0-8.28-3.74-8.28-9.54S326,75.88,331,75.88a7.72,7.72,0,0,1,6.26,2.77c1.48,1.73,2.12,3.74,2.12,6.73C339.35,88.55,338.63,90.71,337,92.51Zm-3.92-12.09a2.64,2.64,0,0,0-4.57.9,13.13,13.13,0,0,0-.5,4.1,13,13,0,0,0,.61,4.64,2.67,2.67,0,0,0,2.45,1.51c2.09,0,3-1.87,3-6.23C334.09,82.87,333.77,81.25,333.12,80.42Z"/><path class="cls-3" d="M353.28,94.67v-12c0-2.09-.36-2.7-1.62-2.7a5.63,5.63,0,0,0-3.35,1.66v13h-4.82V81.32a13.26,13.26,0,0,0-.65-4.32l4.28-1.22a4.73,4.73,0,0,1,.68,2.3,21.33,21.33,0,0,1,2.12-1.37,7.6,7.6,0,0,1,3.31-.79,4.58,4.58,0,0,1,4.43,2.66,7.43,7.43,0,0,1,.36,2.63V94.67Z"/><rect class="cls-1" x="700.44" y="-188.74" width="89.4" height="193.5"/></svg>