<svg id="Layer_1" data-name="Layer 1" xmlns="http://www.w3.org/2000/svg" viewBox="0 0 250 248.02"><defs><style>.cls-1{fill:#fff;}.cls-2{fill:none;}.cls-3{isolation:isolate;}.cls-4{fill:#4c4c4e;}.cls-5{fill:#dbdcde;}</style></defs><title>IP_sc4_artsBtn</title><rect class="cls-1" x="-431.4" y="-1330.95" width="1108.4" height="1893.6"/><circle class="cls-1" cx="121.5" cy="124.85" r="125"/><rect class="cls-2" x="44.9" y="154.75" width="155.7" height="57.1"/><g class="cls-3"><path class="cls-4" d="M67.76,174.63,66.39,170H60.68l-1.37,4.62H55.22l6.38-19.52h4.23L72,174.63Zm-3.39-11.79-.78-3.44c-.11.45-.59,2.46-.92,3.75s-.62,2.32-1,3.61h3.81C65.3,166.34,64.68,164.19,64.38,162.84Z"/><path class="cls-4" d="M81.12,163.57a2.11,2.11,0,0,0-1.09-.28,3,3,0,0,0-2.3,1.2v10.14H74v-9.58a13,13,0,0,0-.53-4.2l3.36-.9a4.62,4.62,0,0,1,.59,2,4.4,4.4,0,0,1,3.36-2,2.89,2.89,0,0,1,1.4.31Z"/><path class="cls-4" d="M88.51,175c-1.9,0-3.42-.84-3.86-2.1a5.25,5.25,0,0,1-.25-2.21v-7.78H83V160.3h1.43a24.87,24.87,0,0,1,.14-3.39l3.81-1a43.2,43.2,0,0,0-.22,4.34h3.36l-1,2.58H88.12v7.2c0,1.82.34,2.3,1.62,2.3a4.9,4.9,0,0,0,1.34-.28l.48,2.24A7.88,7.88,0,0,1,88.51,175Z"/><path class="cls-4" d="M98.53,175.08a12.75,12.75,0,0,1-5.8-1.65l1.34-2.74a10.47,10.47,0,0,0,4.76,1.62,1.76,1.76,0,0,0,1.9-1.62c0-1-.7-1.48-2.21-1.76l-1.68-.31a5.06,5.06,0,0,1-2.63-1.46,4.35,4.35,0,0,1-.81-2.58c0-2.8,2.21-4.68,5.54-4.68a10.76,10.76,0,0,1,5.12,1.34l-1.23,2.52a7.58,7.58,0,0,0-3.53-1c-1.09,0-1.82.56-1.82,1.4s.48,1.12,1.79,1.46L101,166a4.46,4.46,0,0,1,2.86,1.62,3.8,3.8,0,0,1,.78,2.44C104.67,173.06,102.2,175.08,98.53,175.08Z"/><path class="cls-4" d="M108.39,178.69l-1.48-1.57c1.23-.28,2-.92,2-1.6,0-.36-.17-.56-.73-.9a2.08,2.08,0,0,1-1.09-2,2.41,2.41,0,0,1,2.44-2.41c1.62,0,2.8,1.4,2.8,3.36A5.16,5.16,0,0,1,108.39,178.69Z"/><path class="cls-4" d="M124.88,174.07a6.71,6.71,0,0,1-3.5.9c-3.95,0-6.24-2.74-6.24-7.39,0-3.3,1.26-5.49,2.94-6.64a6.79,6.79,0,0,1,3.56-1.06,6.12,6.12,0,0,1,2.77.64,6.39,6.39,0,0,1,1.4,1L124,164a3.61,3.61,0,0,0-2.27-1.12c-1.68,0-2.44,1.46-2.44,4.82,0,1.88.25,3,.73,3.61a2.17,2.17,0,0,0,1.68.81,3.83,3.83,0,0,0,2.58-1.18l.22-.2L126.2,173A6,6,0,0,1,124.88,174.07Z"/><path class="cls-4" d="M138.15,175a3.28,3.28,0,0,1-1.12-1.4,5.36,5.36,0,0,1-3.78,1.37c-2,0-3.75-1-4.23-2.32a8.58,8.58,0,0,1-.31-2.86v-9.18l3.7-.7v9.21a5.65,5.65,0,0,0,.31,2.35,1.5,1.5,0,0,0,1.32.67,2.78,2.78,0,0,0,2.32-1.37V160.72l3.58-.76v10.95a4.16,4.16,0,0,0,.87,2.6Z"/><path class="cls-4" d="M147.67,175a3.37,3.37,0,0,1-3.33-2,7.78,7.78,0,0,1-.34-3.22v-10.7a37,37,0,0,0-.2-4.31l3.84-.87a21.39,21.39,0,0,1,.2,3.72v11.17c0,2.46,0,2.8.25,3.19a.86.86,0,0,0,.76.39,1.24,1.24,0,0,0,.42-.06l.64,2.24A6.26,6.26,0,0,1,147.67,175Z"/><path class="cls-4" d="M156.16,175c-1.9,0-3.42-.84-3.86-2.1a5.27,5.27,0,0,1-.25-2.21v-7.78h-1.43V160.3H152a24.87,24.87,0,0,1,.14-3.39l3.81-1a42.62,42.62,0,0,0-.22,4.34h3.36l-1,2.58h-2.41v7.2c0,1.82.34,2.3,1.62,2.3a4.9,4.9,0,0,0,1.34-.28l.48,2.24A7.89,7.89,0,0,1,156.16,175Z"/><path class="cls-4" d="M170.89,175a3.28,3.28,0,0,1-1.12-1.4A5.35,5.35,0,0,1,166,175c-2,0-3.75-1-4.23-2.32a8.58,8.58,0,0,1-.31-2.86v-9.18l3.7-.7v9.21a5.66,5.66,0,0,0,.31,2.35,1.5,1.5,0,0,0,1.32.67,2.78,2.78,0,0,0,2.32-1.37V160.72l3.58-.76v10.95a4.16,4.16,0,0,0,.87,2.6Z"/><path class="cls-4" d="M183.74,163.57a2.11,2.11,0,0,0-1.09-.28,3,3,0,0,0-2.3,1.2v10.14H176.6v-9.58a13,13,0,0,0-.53-4.2l3.36-.9a4.6,4.6,0,0,1,.59,2,4.4,4.4,0,0,1,3.36-2,2.89,2.89,0,0,1,1.4.31Z"/><path class="cls-4" d="M189.34,168.64v.11c0,2.21,1.09,3.47,3,3.47A5.6,5.6,0,0,0,196,170.8l1.46,2.24a8.22,8.22,0,0,1-5.4,2c-4.12,0-6.78-2.91-6.78-7.42,0-2.58.53-4.28,1.79-5.68a5.63,5.63,0,0,1,4.51-1.93,5.87,5.87,0,0,1,4.14,1.51c1.32,1.34,1.9,3.28,1.9,6.27v.87Zm4.4-2.91a3.69,3.69,0,0,0-.45-2.16,1.82,1.82,0,0,0-1.65-.84c-1.43,0-2.24,1.12-2.24,3.11v.06h4.34Z"/></g><g class="cls-3"><path class="cls-4" d="M66.52,202.63l-1.18-1.18a6.68,6.68,0,0,1-1.68,1A10.31,10.31,0,0,1,60,203c-4.48,0-7-1.93-7-5.29,0-2.18,1.15-3.75,3.5-4.84a5.45,5.45,0,0,1-1.82-2,6,6,0,0,1-.45-2.21c0-2.77,2.3-4.7,5.6-4.7s5.68,1.82,5.68,4.42a4.13,4.13,0,0,1-1,2.69,8.91,8.91,0,0,1-2.46,1.74l-.25.14,3.25,3.08a8.36,8.36,0,0,0,.25-2.74v-.2h3.14v.17a12.78,12.78,0,0,1-.9,5.21l4.17,4.14Zm-8-7.7A2.86,2.86,0,0,0,57,197.51c0,1.76,1.15,2.77,3.14,2.77a3.91,3.91,0,0,0,2.94-1Zm1.34-8.34A1.71,1.71,0,0,0,58,188.41c0,.81.28,1.26,1.46,2.46l.22.22a3,3,0,0,0,1.85-2.63A1.75,1.75,0,0,0,59.82,186.59Z"/><path class="cls-4" d="M87.26,191.57a2.11,2.11,0,0,0-1.09-.28,3,3,0,0,0-2.3,1.2v10.14H80.12v-9.58a13,13,0,0,0-.53-4.2L83,188a4.62,4.62,0,0,1,.59,2,4.4,4.4,0,0,1,3.36-2,2.89,2.89,0,0,1,1.4.31Z"/><path class="cls-4" d="M92.86,196.64v.11c0,2.21,1.09,3.47,3,3.47a5.6,5.6,0,0,0,3.64-1.43L101,201a8.23,8.23,0,0,1-5.4,2c-4.12,0-6.78-2.91-6.78-7.42,0-2.58.53-4.28,1.79-5.68A5.64,5.64,0,0,1,95.1,188a5.86,5.86,0,0,1,4.14,1.51c1.32,1.34,1.9,3.28,1.9,6.27v.87Zm4.4-2.91a3.69,3.69,0,0,0-.45-2.16,1.82,1.82,0,0,0-1.65-.84c-1.43,0-2.24,1.12-2.24,3.11v.06h4.34Z"/><path class="cls-4" d="M113,202.07a6.71,6.71,0,0,1-3.5.9c-3.95,0-6.24-2.74-6.24-7.39,0-3.3,1.26-5.49,2.94-6.64a6.79,6.79,0,0,1,3.56-1.06,6.12,6.12,0,0,1,2.77.64,6.32,6.32,0,0,1,1.4,1L112.1,192a3.61,3.61,0,0,0-2.27-1.12c-1.68,0-2.44,1.46-2.44,4.82,0,1.88.25,3,.73,3.61a2.17,2.17,0,0,0,1.68.81,3.84,3.84,0,0,0,2.58-1.18l.22-.2,1.71,2.27A6,6,0,0,1,113,202.07Z"/><path class="cls-4" d="M124,191.57a2.11,2.11,0,0,0-1.09-.28,3,3,0,0,0-2.3,1.2v10.14h-3.75v-9.58a13,13,0,0,0-.53-4.2l3.36-.9a4.6,4.6,0,0,1,.59,2,4.4,4.4,0,0,1,3.36-2,2.89,2.89,0,0,1,1.4.31Z"/><path class="cls-4" d="M129.57,196.64v.11c0,2.21,1.09,3.47,3,3.47a5.6,5.6,0,0,0,3.64-1.43l1.46,2.24a8.22,8.22,0,0,1-5.4,2c-4.12,0-6.78-2.91-6.78-7.42,0-2.58.53-4.28,1.79-5.68a5.63,5.63,0,0,1,4.51-1.93A5.87,5.87,0,0,1,136,189.5c1.32,1.34,1.9,3.28,1.9,6.27v.87Zm4.4-2.91a3.69,3.69,0,0,0-.45-2.16,1.82,1.82,0,0,0-1.65-.84c-1.43,0-2.24,1.12-2.24,3.11v.06H134Z"/><path class="cls-4" d="M150.23,203.36a4,4,0,0,1-2-1.74,7,7,0,0,1-.87.76,5,5,0,0,1-2.88.78c-3.19,0-4.93-1.62-4.93-4.48,0-3.36,2.32-4.93,6.89-4.93.28,0,.53,0,.84,0v-.59c0-1.6-.31-2.13-1.68-2.13a7.9,7.9,0,0,0-4.14,1.62l-1.6-2.69a13.81,13.81,0,0,1,2.32-1.18,9.71,9.71,0,0,1,3.92-.84c2.41,0,4.06.9,4.62,2.49a6.67,6.67,0,0,1,.25,2.58l-.08,4.82c0,1.57.08,2.24,1.34,3.19Zm-3.19-7c-2.6,0-3.5.48-3.5,2.18a1.7,1.7,0,0,0,1.65,1.88,2.72,2.72,0,0,0,2-1l.06-3.08Z"/><path class="cls-4" d="M159.25,203c-1.9,0-3.42-.84-3.86-2.1a5.25,5.25,0,0,1-.25-2.21v-7.78h-1.43V188.3h1.43a24.87,24.87,0,0,1,.14-3.39l3.81-1a42.91,42.91,0,0,0-.22,4.34h3.36l-1,2.58h-2.41v7.2c0,1.82.34,2.3,1.62,2.3a4.9,4.9,0,0,0,1.34-.28l.48,2.24A7.89,7.89,0,0,1,159.25,203Z"/><path class="cls-4" d="M166.84,186.67a2.31,2.31,0,0,1-2.3-2.32,2.34,2.34,0,0,1,2.35-2.32,2.29,2.29,0,0,1,2.27,2.32A2.32,2.32,0,0,1,166.84,186.67Zm-1.88,16V188.55l3.75-.59v14.67Z"/><path class="cls-4" d="M183.11,201a5.86,5.86,0,0,1-4.73,2c-3.89,0-6.44-2.91-6.44-7.42s2.58-7.5,6.44-7.5a6,6,0,0,1,4.87,2.16,7.45,7.45,0,0,1,1.65,5.24A7.78,7.78,0,0,1,183.11,201Zm-3.05-9.41a2.05,2.05,0,0,0-3.56.7,13.56,13.56,0,0,0,.08,6.8,2.07,2.07,0,0,0,1.9,1.18c1.62,0,2.32-1.46,2.32-4.84C180.81,193.45,180.56,192.19,180.05,191.54Z"/><path class="cls-4" d="M195.73,202.63v-9.32c0-1.62-.28-2.1-1.26-2.1a4.38,4.38,0,0,0-2.6,1.29v10.14h-3.75V192.24a10.34,10.34,0,0,0-.5-3.36l3.33-1a3.67,3.67,0,0,1,.53,1.79,16.73,16.73,0,0,1,1.65-1.06,5.91,5.91,0,0,1,2.58-.62,3.57,3.57,0,0,1,3.44,2.07,5.77,5.77,0,0,1,.28,2v10.47Z"/></g><circle class="cls-5" cx="122" cy="80.55" r="60"/><path class="cls-1" d="M153.6,67.35H90.4v-2.5h63.2Z"/><rect class="cls-1" x="112.1" y="68.46" width="4.4" height="29.5"/><rect class="cls-1" x="127.5" y="68.46" width="4.4" height="29.5"/><rect class="cls-1" x="142.9" y="68.46" width="4.4" height="29.5"/><polygon class="cls-1" points="117.7 72.25 110.9 72.25 110 68.45 118.6 68.45 117.7 72.25"/><polygon class="cls-1" points="117.6 94.25 111 94.25 110.1 97.95 118.5 97.95 117.6 94.25"/><rect class="cls-1" x="96.7" y="68.46" width="4.4" height="29.5"/><polygon class="cls-1" points="102.3 72.25 95.5 72.25 94.6 68.45 103.2 68.45 102.3 72.25"/><polygon class="cls-1" points="102.2 94.25 95.5 94.25 94.7 97.95 103.1 97.95 102.2 94.25"/><polygon class="cls-1" points="133.1 72.25 126.3 72.25 125.4 68.45 134 68.45 133.1 72.25"/><polygon class="cls-1" points="133 94.25 126.4 94.25 125.5 97.95 133.9 97.95 133 94.25"/><polygon class="cls-1" points="148.5 72.25 141.7 72.25 140.8 68.45 149.4 68.45 148.5 72.25"/><polygon class="cls-1" points="148.5 94.25 141.8 94.25 140.9 97.95 149.3 97.95 148.5 94.25"/><polygon class="cls-1" points="122 53.55 153.6 65.16 90.4 65.16 122 53.55"/><path class="cls-1" d="M158.3,104.25H85.7v-1.8h72.6Z"/><path class="cls-1" d="M153.2,101H90.9v-1.8h62.3Z"/><path class="cls-1" d="M162.8,107.55H81.3v-1.8h81.5Z"/></svg>