<svg id="Layer_1" data-name="Layer 1" xmlns="http://www.w3.org/2000/svg" viewBox="0 0 250 250"><defs><style>.cls-1{fill:#fff;}.cls-2{fill:none;}.cls-3{isolation:isolate;}.cls-4{fill:#4c4c4e;}.cls-5{fill:#dbdcde;}</style></defs><title>IP_sc4_crossBtn</title><rect class="cls-1" x="-109.3" y="-501.3" width="1108.4" height="1893.6"/><circle class="cls-1" cx="125" cy="125" r="125"/><rect class="cls-2" x="33.3" y="163.7" width="183.4" height="58.5"/><g class="cls-3"><path class="cls-4" d="M99.2,183.87a7.94,7.94,0,0,1-6.36-2.69,10.16,10.16,0,0,1-2.35-7,12.46,12.46,0,0,1,1.32-6,8.36,8.36,0,0,1,7.45-4.51,8,8,0,0,1,4.93,1.54l-1.76,2.66a5.12,5.12,0,0,0-3.11-1.09,4,4,0,0,0-3.3,1.68,8.94,8.94,0,0,0-1.09,5c0,2.66.22,4.14.81,5.21a4,4,0,0,0,3.75,2.18,5,5,0,0,0,3.33-1.26l1.79,2.46A8,8,0,0,1,99.2,183.87Z"/><path class="cls-4" d="M114.27,172.47a2.11,2.11,0,0,0-1.09-.28,3,3,0,0,0-2.29,1.2v10.14h-3.75V174a13,13,0,0,0-.53-4.2l3.36-.9a4.6,4.6,0,0,1,.59,2,4.39,4.39,0,0,1,3.36-2,2.89,2.89,0,0,1,1.4.31Z"/><path class="cls-4" d="M126.84,181.85a5.86,5.86,0,0,1-4.73,2c-3.89,0-6.44-2.91-6.44-7.42s2.58-7.5,6.44-7.5a6,6,0,0,1,4.87,2.16,7.45,7.45,0,0,1,1.65,5.24A7.78,7.78,0,0,1,126.84,181.85Zm-3.05-9.41a2.05,2.05,0,0,0-3.55.7,13.56,13.56,0,0,0,.08,6.8,2.07,2.07,0,0,0,1.9,1.18c1.62,0,2.32-1.46,2.32-4.84C124.54,174.35,124.29,173.09,123.79,172.45Z"/><path class="cls-4" d="M136.25,184a12.75,12.75,0,0,1-5.8-1.65l1.34-2.74a10.46,10.46,0,0,0,4.76,1.62,1.76,1.76,0,0,0,1.9-1.62c0-1-.7-1.48-2.21-1.76l-1.68-.31a5.06,5.06,0,0,1-2.63-1.46,4.34,4.34,0,0,1-.81-2.58c0-2.8,2.21-4.68,5.54-4.68a10.76,10.76,0,0,1,5.13,1.34l-1.23,2.52a7.59,7.59,0,0,0-3.53-1c-1.09,0-1.82.56-1.82,1.4s.48,1.12,1.79,1.46l1.74.45a4.46,4.46,0,0,1,2.86,1.62,3.79,3.79,0,0,1,.79,2.44C142.38,182,139.91,184,136.25,184Z"/><path class="cls-4" d="M149.71,184a12.75,12.75,0,0,1-5.8-1.65l1.34-2.74a10.47,10.47,0,0,0,4.76,1.62,1.76,1.76,0,0,0,1.9-1.62c0-1-.7-1.48-2.21-1.76l-1.68-.31a5.06,5.06,0,0,1-2.63-1.46,4.34,4.34,0,0,1-.81-2.58c0-2.8,2.21-4.68,5.54-4.68a10.76,10.76,0,0,1,5.12,1.34L154,172.67a7.58,7.58,0,0,0-3.53-1c-1.09,0-1.82.56-1.82,1.4s.48,1.12,1.79,1.46l1.74.45a4.46,4.46,0,0,1,2.86,1.62,3.79,3.79,0,0,1,.78,2.44C155.85,182,153.38,184,149.71,184Z"/><path class="cls-4" d="M158.09,177.49v-3.25h6.72v3.25Z"/></g><g class="cls-3"><path class="cls-4" d="M66,199.83a7.94,7.94,0,0,1-1-.08,3.46,3.46,0,0,1,.84,2.35c0,2.46-2.24,4.26-5.29,4.26a4.55,4.55,0,0,1-.56,0c-1,.45-1.48.78-1.48,1.18,0,.2.22.34.62.34l2,0c2.18,0,3.33.36,4.34,1.29a3.91,3.91,0,0,1,1.23,3.05,4.07,4.07,0,0,1-1.15,3c-1.26,1.34-3.42,1.85-5.66,1.85-2,0-4.14-.34-5.43-1.54a3.37,3.37,0,0,1-1.18-2.55,2.86,2.86,0,0,1,.34-1.46h3.47a2,2,0,0,0-.17.92c0,1.15,1,1.76,2.69,1.76a4.53,4.53,0,0,0,2.35-.48,1.74,1.74,0,0,0,.92-1.46c0-1.29-1.15-1.68-2.63-1.71l-1.6,0a10.2,10.2,0,0,1-3.44-.45,1.82,1.82,0,0,1-1.09-1.88c0-.92.28-1.79,2.63-2.41a3.71,3.71,0,0,1-3.08-4c0-2.94,2.38-4.84,6-4.84a10.32,10.32,0,0,1,2.58.36,7.55,7.55,0,0,0,1.76.31,4.51,4.51,0,0,0,3-1.23l1.57,2.38A3.57,3.57,0,0,1,66,199.83Zm-6.27-.14a2,2,0,0,0-2.24,2.13c0,1.46.9,2,2.21,2,1.48,0,2.3-.73,2.3-2A2,2,0,0,0,59.73,199.69Z"/><path class="cls-4" d="M80.11,209.85a5.86,5.86,0,0,1-4.73,2c-3.89,0-6.44-2.91-6.44-7.42s2.58-7.5,6.44-7.5a6,6,0,0,1,4.87,2.16,7.45,7.45,0,0,1,1.65,5.24A7.78,7.78,0,0,1,80.11,209.85Zm-3.05-9.41a2.05,2.05,0,0,0-3.56.7,13.59,13.59,0,0,0,.08,6.8,2.07,2.07,0,0,0,1.9,1.18c1.62,0,2.32-1.46,2.32-4.84C77.81,202.35,77.56,201.09,77.06,200.45Z"/><path class="cls-4" d="M91.06,211.53H88l-5.21-14.11,3.84-.48,2.07,6.47c.31,1,.73,2.52.92,3.44a24.17,24.17,0,0,1,.87-3.64l1.93-6h3.92Z"/><path class="cls-4" d="M101.08,205.54v.11c0,2.21,1.09,3.47,3,3.47a5.6,5.6,0,0,0,3.64-1.43l1.46,2.24a8.23,8.23,0,0,1-5.4,2c-4.12,0-6.78-2.91-6.78-7.42,0-2.58.53-4.28,1.79-5.68a5.63,5.63,0,0,1,4.51-1.93,5.87,5.87,0,0,1,4.14,1.51c1.32,1.34,1.9,3.28,1.9,6.27v.87Zm4.4-2.91a3.69,3.69,0,0,0-.45-2.16,1.82,1.82,0,0,0-1.65-.84c-1.43,0-2.24,1.12-2.24,3.11v.06h4.34Z"/><path class="cls-4" d="M119.45,200.47a2.11,2.11,0,0,0-1.09-.28,3,3,0,0,0-2.3,1.2v10.14h-3.75V202a13,13,0,0,0-.53-4.2l3.36-.9a4.62,4.62,0,0,1,.59,2,4.4,4.4,0,0,1,3.36-2,2.89,2.89,0,0,1,1.4.31Z"/><path class="cls-4" d="M129.92,211.53v-9.32c0-1.62-.28-2.1-1.26-2.1a4.37,4.37,0,0,0-2.6,1.29v10.14h-3.75V201.15a10.34,10.34,0,0,0-.5-3.36l3.33-1a3.67,3.67,0,0,1,.53,1.79,16.86,16.86,0,0,1,1.65-1.06,5.9,5.9,0,0,1,2.58-.62,3.56,3.56,0,0,1,3.44,2.07,5.75,5.75,0,0,1,.28,2v10.47Z"/><path class="cls-4" d="M152.46,211.53v-9.46c0-1.71-.2-2-1.18-2a4.27,4.27,0,0,0-2.49,1.2v10.3h-3.56v-9.32c0-1.79-.25-2.21-1.29-2.21a4,4,0,0,0-2.46,1.09v10.44h-3.67v-10c0-2.07-.14-3-.53-3.67l3.39-.92a3.65,3.65,0,0,1,.5,1.46,4.94,4.94,0,0,1,3.5-1.46,3.88,3.88,0,0,1,2.91,1.18,4.79,4.79,0,0,1,.56.7,5.26,5.26,0,0,1,4.06-1.88,4.43,4.43,0,0,1,2.83.9c.81.7,1.06,1.54,1.06,3.5v10.19Z"/><path class="cls-4" d="M163.52,205.54v.11c0,2.21,1.09,3.47,3,3.47a5.6,5.6,0,0,0,3.64-1.43l1.46,2.24a8.22,8.22,0,0,1-5.4,2c-4.12,0-6.78-2.91-6.78-7.42,0-2.58.53-4.28,1.79-5.68a5.63,5.63,0,0,1,4.51-1.93,5.87,5.87,0,0,1,4.14,1.51c1.32,1.34,1.9,3.28,1.9,6.27v.87Zm4.4-2.91a3.69,3.69,0,0,0-.45-2.16,1.82,1.82,0,0,0-1.65-.84c-1.43,0-2.24,1.12-2.24,3.11v.06h4.34Z"/><path class="cls-4" d="M182.37,211.53v-9.32c0-1.62-.28-2.1-1.26-2.1a4.37,4.37,0,0,0-2.6,1.29v10.14h-3.75V201.15a10.34,10.34,0,0,0-.5-3.36l3.33-1a3.67,3.67,0,0,1,.53,1.79,16.74,16.74,0,0,1,1.65-1.06,5.9,5.9,0,0,1,2.58-.62,3.56,3.56,0,0,1,3.44,2.07,5.77,5.77,0,0,1,.28,2v10.47Z"/><path class="cls-4" d="M194.38,211.87c-1.9,0-3.42-.84-3.86-2.1a5.25,5.25,0,0,1-.25-2.21v-7.78h-1.43V197.2h1.43a25,25,0,0,1,.14-3.39l3.81-1a42.91,42.91,0,0,0-.22,4.34h3.36l-1,2.58H194V207c0,1.82.34,2.3,1.63,2.3A4.9,4.9,0,0,0,197,209l.48,2.24A7.89,7.89,0,0,1,194.38,211.87Z"/></g><circle class="cls-5" cx="125" cy="87.3" r="60"/><path class="cls-1" d="M110.2,75.4a2.13,2.13,0,0,0-.9.6c-.3.4-.2.6,0,.5s.4.1.6-.1.4.3.4-.1.4-.3.7-.4.3-.2.1-.4a2.49,2.49,0,0,0-.9-.1"/><path class="cls-1" d="M110.3,77.3s-.1.2-.2.2-.2.5,0,.4.5-.1.5,0,.2-.1,0-.3-.2-.3-.3-.3"/><path class="cls-1" d="M119,55a.77.77,0,0,1-.3-.1c-.2-.1-.2.1-.1.2s.2.3.4.2.4-.1.3-.3-.2-.1-.3,0"/><path class="cls-1" d="M119,56.3s-.1.3-.3.3-.2.4,0,.4.3-.3.4-.3.2-.3.1-.3c-.1-.2-.1-.1-.2-.1"/><path class="cls-1" d="M145.4,95s.1.2-.1.2-.2.1,0,.3a.82.82,0,0,1,.4.6c0,.2,0,.5.2.3s.2-.3.3-.3,0-.3-.2-.5a1.75,1.75,0,0,1-.4-.5c0-.2-.2-.2-.2-.1"/><path class="cls-1" d="M147.3,99.7s-.3-.2-.2.1.2.3.3.6.3.4.5.3.1-.2-.1-.5-.4-.6-.5-.5"/><path class="cls-1" d="M154.5,104a.75.75,0,0,1-.3.3c-.2.1-.1.2,0,.4s.1.4-.1.7-.4.4-.4.6.2.6,0,.8-.2.3-.1.6.1.7.2.5,0-1.1.3-1.4.3-.7.4-.9.4-.5.2-.7a.39.39,0,0,1-.1-.6,1,1,0,0,0-.1-.3"/><path class="cls-1" d="M155.1,112.1a.35.35,0,0,0-.1.5c.1.3.1.9.2.7a2.77,2.77,0,0,0,.1-.9c.1-.2-.2-.3-.2-.3"/><path class="cls-1" d="M155.3,113.3a1,1,0,0,0-.1.4v1.4c0,.2.1.3.1.2s0-.7.2-1,0-.6,0-.7c-.1-.3-.2-.3-.2-.3"/><path class="cls-1" d="M130,118.8c.3-.3,1-1,1.7-.7a1,1,0,0,0,1.2-.1c.2-.2,1.4,0,1.9.1s1.6.4,1.8,1,.6,1.1,1.1.3a2.66,2.66,0,0,1,1.5-1.2,11.44,11.44,0,0,0,1.6-.9c.4-.2,1.2-.6,1.8-.3s1.3-.9,1.7-1.1h0a3.4,3.4,0,0,1-.1-1,3.49,3.49,0,0,0-.5-1.3c-.2-.4-.5-.5-.3-1.2s-.1-.7,0-1.4-.3-.5-.3-1.1.3-.7.3-1.1-.2-.4-.4-.3,0-.4-.2-.7-.5-.5-.2-.8a.39.39,0,0,0-.2-.7,1.4,1.4,0,0,1-1.1-.8c-.3-.6-.1-.9-.6-1.1s-1.3-.7-1.2-.8,0-.6-.2-.9-.5-.9-1.2-.8-.9-.5-1.2-.9a3.78,3.78,0,0,1-1-1.2,5.84,5.84,0,0,1-.2-1.8c0-.4.3-.9.1-1.3s-.2-.2-.3,0a.42.42,0,0,1-.7,0c-.2-.3-1.1-.7-1.2-1.1s-.1-.5-.5-.7-.4.2-.3.4.3.3.2.6a.62.62,0,0,0,.2.7c.2.2.1.4-.1.1s-.3-.6-.5-.6-.1.2-.4-.2-.2-.7-.4-1.1a1.8,1.8,0,0,1-.3-1.2c.1-.4.2-.5-.2-.8a1,1,0,0,1-.4-1q.15-.6-.3-.6c-.3,0-.3-.2-.3-.4s-.1,0-.4-.1a.74.74,0,0,1-.6-.6c-.1-.3-.3-.9.1-.7s.5.4.5.2a2.39,2.39,0,0,0-.7-1.1c-.5-.3-.4-.2-.5-.4a.28.28,0,0,0-.5,0c0,.2-.4,0-.5-.4s-.4-.3-.8-.4-.4.1-.5-.3-.4-.2-.4,0a.33.33,0,0,1-.6-.2c0-.4.2-.7-.2-1.2s-.1-.1-.4,0-1,.2-1.1-.3-.4-.3-.5-.6-.4.1-.6.2-1.4-.4-1.3-1a5.73,5.73,0,0,0,.1-1.2c0-.4.1-.6-.2-.9s-.6-.3-.6,0-.4-.2-.3-.5a2.29,2.29,0,0,0,.4-1.4c-.1-.5-.7-1.6-.6-2a.52.52,0,0,0-.2-.8c-.3-.1-1.1-.6-1.2-1.1s.2-1.1-.2-1.7-.6-1.1-.4-1.6.2-.6-.1-.7-.2-.4,0-.6.2-.3-.2-.7a8.53,8.53,0,0,0-1.4-1.1c-.5-.3-.3-.4-.3-.8s-.3-.6-.7-.4-.6,0-.8.3-.3.6-.8.6-.8-.1-.7-.7a1.75,1.75,0,0,0-.4-1.2.93.93,0,0,1-.1-1,1.67,1.67,0,0,0,0-1,8.63,8.63,0,0,1-.1-1.5c0-.3-.2-.2-.3,0s-.2-.4,0-.6-.3-.3-.5-.5-.2-.6-.6-.6-.1-.5.2-.8,0-.5-.2-.5-.7,0-.7-.7a3.45,3.45,0,0,0-.1-1.2c-.2-.3,0-.7-.3-1.1s-.7-.3-.6-.6,0-.4-.3-.4-.3.5-.8.6-.5.5-.5.9.1,1.4-.2,1.7a.75.75,0,0,0-.2.7c0,.2.1.6-.1.5s-.4-.3-.5,0a7,7,0,0,1-.3.8c-.1.2-.3.6.1.7s.7.2.6.4,0,.7-.2.3-.3-.3-.3-.1a.61.61,0,0,1-.3.6c-.2.2-.3.3,0,.5s.5.7.3.8-.6,0-.6.6-.2,1.4,0,1.7a1.1,1.1,0,0,1,.1,1.1,2.55,2.55,0,0,0-.1,1.2c0,.2.3.6.3,1a1.49,1.49,0,0,1-.4.9,4.78,4.78,0,0,0-.5,1.1c0,.2.1.5,0,.6s-.1.4,0,.6a.64.64,0,0,1,0,.6,1.88,1.88,0,0,0-.4.9,1.61,1.61,0,0,1-.6,1.3c-.4.2-.3.8-.4,1.1a2.51,2.51,0,0,1-.7,1.2c-.4.2-1.6.9-2.2.6s-1.4-.5-1.6-.9-.9-.1-1-.6-.5-1.3-1.1-1.4a6,6,0,0,1-2.2-.6,5.69,5.69,0,0,0-.7-.4v32.8h9.5v10.6h25.2c-.2,0,.4-.2.7-.5"/></svg>