<svg xmlns="http://www.w3.org/2000/svg" viewBox="0 0 998.14 111.34"><defs><style>.cls-1{fill:#00c0f2;stroke:#00c0f2;stroke-miterlimit:10;stroke-width:1.74px;}.cls-2{isolation:isolate;}.cls-3{fill:#fff;}</style></defs><title>IP_sc2_explore</title><g id="Layer_2" data-name="Layer 2"><g id="Layer_1-2" data-name="Layer 1"><path class="cls-1" d="M997.27,55.67a54.82,54.82,0,0,1-54.8,54.8H55.67A54.82,54.82,0,0,1,.87,55.67h0A54.82,54.82,0,0,1,55.67.87h886.8a54.82,54.82,0,0,1,54.8,54.8Z"/><g class="cls-2"><path class="cls-3" d="M451.64,72H433.16V39.31h18l-.53,3.22H437.14v10.7h11.28v3.41H437.14v12h14.5Z"/><path class="cls-3" d="M476.36,72H471.8l-6.48-10.18L458.84,72h-4.42l8.93-13.25L456,48.19h4.61l4.7,7.87,4.56-7.87h4.37l-7.06,10.56Z"/><path class="cls-3" d="M500.65,60a15.56,15.56,0,0,1-1.92,8.24,8.3,8.3,0,0,1-7.39,4.36,8.79,8.79,0,0,1-6.58-2.78V81.26L481,82V53.9a20.22,20.22,0,0,0-.58-5.76l3.89-.67a15.82,15.82,0,0,1,.24,3v.62a9,9,0,0,1,7.06-3.46,7.7,7.7,0,0,1,7.1,4A16.25,16.25,0,0,1,500.65,60Zm-4,.48a17.91,17.91,0,0,0-.82-6.17,4.71,4.71,0,0,0-4.7-3.3,8.16,8.16,0,0,0-6.38,3.35v12q2.74,3.11,5.86,3.11Q496.66,69.5,496.66,60.5Z"/><path class="cls-3" d="M515,72a5.87,5.87,0,0,1-2.4.51q-4,0-4-4.42V44.5a22.85,22.85,0,0,0-.67-6.63l3.89-.77q.58,1.68.58,7.4V67.24a5.73,5.73,0,0,0,.14,1.63,1.15,1.15,0,0,0,1.2.77h.48Z"/><path class="cls-3" d="M540.92,60.62q0,6.62-3.74,9.89a9.58,9.58,0,0,1-6.53,2.3,9.09,9.09,0,0,1-7.92-3.89,15,15,0,0,1-2.4-8.83,14.82,14.82,0,0,1,2.35-8.69,9,9,0,0,1,7.82-3.84,9.17,9.17,0,0,1,8.11,4A15.85,15.85,0,0,1,540.92,60.62Zm-4.27.29a19.06,19.06,0,0,0-.91-6.77,5.26,5.26,0,0,0-5.28-3.5,5.07,5.07,0,0,0-5,2.83,13.34,13.34,0,0,0-1.06,6,18.32,18.32,0,0,0,1,6.82,5.39,5.39,0,0,0,5.38,3.41Q536.65,69.7,536.65,60.91Z"/><path class="cls-3" d="M560.64,47.71l-1.54,4a7.1,7.1,0,0,0-1.06-.1,5.56,5.56,0,0,0-2.86.84,5.42,5.42,0,0,0-2.09,2.08,5.76,5.76,0,0,0-.43,2.58V72h-3.74V53.76a13.35,13.35,0,0,0-.86-5.28l3.78-1a8.39,8.39,0,0,1,.82,3.55v.34q2.81-3.89,6.68-3.89A4.19,4.19,0,0,1,560.64,47.71Z"/><path class="cls-3" d="M582.72,60.62H567.8v.58a9.81,9.81,0,0,0,1.1,5.26,6.6,6.6,0,0,0,6,2.94,8.34,8.34,0,0,0,5.86-2.26l1.44,2.4a11.52,11.52,0,0,1-8.06,3A9.44,9.44,0,0,1,566,68.74a14.75,14.75,0,0,1-2.5-8.93,14.33,14.33,0,0,1,2.45-8.5,8.84,8.84,0,0,1,7.58-3.89A8.53,8.53,0,0,1,580,50.05a9.34,9.34,0,0,1,2.35,4.69,27.86,27.86,0,0,1,.38,5.36Zm-4-2.78a11.17,11.17,0,0,0-1-5.14,4.65,4.65,0,0,0-4.42-2.3q-5.23,0-5.52,7.44Z"/></g><circle class="cls-3" cx="380.17" cy="55.67" r="25"/><path class="cls-1" d="M394.07,54l-8.4-8.4a2.19,2.19,0,1,0-3.1,3.1l4.8,4.8H368a2.2,2.2,0,1,0,0,4.4h19.4l-4.8,4.8a2.3,2.3,0,0,0,0,3.1,2.18,2.18,0,0,0,3,0l8.4-8.4a2.16,2.16,0,0,0,.6-1.6A1.73,1.73,0,0,0,394.07,54Z"/></g></g></svg>