<svg id="Layer_1" data-name="Layer 1" xmlns="http://www.w3.org/2000/svg" viewBox="0 0 523 173"><defs><style>.cls-1{fill:none;}.cls-2{fill:#00c0f2;}.cls-3{fill:#e6e7e8;}.cls-4{fill:#4c4c4e;}</style></defs><title>IP_sc4_goldBtn</title><rect class="cls-1" x="2427.42" y="-9.27" width="226.5" height="67.9"/><rect class="cls-2" x="1478.52" y="-117.27" width="89.4" height="193.5"/><rect class="cls-2" x="2809.12" y="-117.27" width="89.4" height="193.5"/><path class="cls-3" d="M486.65,127.12a9.82,9.82,0,0,1-9.8,9.8h-431a9.82,9.82,0,0,1-9.8-9.8V46.72a9.82,9.82,0,0,1,9.8-9.8h431a9.82,9.82,0,0,1,9.8,9.8Z"/><path class="cls-4" d="M190.55,96.11c-3.74,0-6.51-1.22-8.53-3.81-1.84-2.34-2.66-5-2.66-8.75,0-5.29,1.73-9,5.22-11.37a10.34,10.34,0,0,1,6.08-1.76,11.88,11.88,0,0,1,8,2.88l-2.66,3.13a7.91,7.91,0,0,0-5.22-1.94,5.09,5.09,0,0,0-3.6,1.26c-1.69,1.62-2.12,4.32-2.12,8.06,0,3.56.61,5.87,1.87,7.13a5.55,5.55,0,0,0,3.92,1.4,5.92,5.92,0,0,0,2.84-.61V86h-3.82l-.65-4.1h9.68v12A16.1,16.1,0,0,1,190.55,96.11Z"/><path class="cls-4" d="M217,93.67a7.53,7.53,0,0,1-6.08,2.55c-5,0-8.28-3.74-8.28-9.54S206,77,210.92,77a7.72,7.72,0,0,1,6.26,2.77c1.48,1.73,2.12,3.74,2.12,6.73C219.31,89.71,218.59,91.87,217,93.67Zm-3.92-12.09a2.64,2.64,0,0,0-4.57.9,13.13,13.13,0,0,0-.5,4.1,13,13,0,0,0,.61,4.64,2.67,2.67,0,0,0,2.45,1.51c2.09,0,3-1.87,3-6.23C214.05,84,213.73,82.4,213.08,81.57Z"/><path class="cls-4" d="M228,96.26a4.33,4.33,0,0,1-4.28-2.52c-.36-.94-.43-1.51-.43-4.14V75.85A47.55,47.55,0,0,0,223,70.3l4.93-1.12A27.35,27.35,0,0,1,228.2,74V88.34c0,3.17,0,3.6.32,4.1a1.1,1.1,0,0,0,1,.5,1.63,1.63,0,0,0,.54-.07l.83,2.88A8,8,0,0,1,228,96.26Z"/><path class="cls-4" d="M244.83,95.83a3.3,3.3,0,0,1-.29-1.08,6.19,6.19,0,0,1-4.25,1.55c-4.68,0-7.63-3.63-7.63-9.36s3.2-9.72,7.88-9.72a5,5,0,0,1,3.28,1,22.6,22.6,0,0,1-.14-2.74V69.19l4.79.76V89.09c0,4.54.36,6,.68,6.73Zm-1.08-13.57a4,4,0,0,0-2.63-1.19c-2.16,0-3.1,1.8-3.1,5.9s.83,5.26,3.35,5.26A3.46,3.46,0,0,0,243.75,91Z"/><path class="cls-4" d="M271.72,96.26a10.21,10.21,0,0,1-8.17-3.46,13.05,13.05,0,0,1-3-9,16,16,0,0,1,1.69-7.78,10.74,10.74,0,0,1,9.57-5.79,10.23,10.23,0,0,1,6.34,2l-2.27,3.42a6.6,6.6,0,0,0-4-1.4,5.18,5.18,0,0,0-4.25,2.16c-1,1.44-1.4,3.53-1.4,6.44,0,3.42.29,5.33,1,6.7a5.2,5.2,0,0,0,4.82,2.81,6.48,6.48,0,0,0,4.28-1.62l2.3,3.17A10.23,10.23,0,0,1,271.72,96.26Z"/><path class="cls-4" d="M294,93.67a7.53,7.53,0,0,1-6.08,2.55c-5,0-8.28-3.74-8.28-9.54S283,77,287.93,77a7.72,7.72,0,0,1,6.26,2.77c1.48,1.73,2.12,3.74,2.12,6.73C296.31,89.71,295.59,91.87,294,93.67Zm-3.92-12.09a2.64,2.64,0,0,0-4.57.9,13.13,13.13,0,0,0-.5,4.1,13,13,0,0,0,.61,4.64,2.67,2.67,0,0,0,2.45,1.51c2.09,0,3-1.87,3-6.23C291.06,84,290.73,82.4,290.08,81.57Z"/><path class="cls-4" d="M312.76,96.76a5.16,5.16,0,0,1-2.59-2.23,8.93,8.93,0,0,1-1.12,1,6.37,6.37,0,0,1-3.71,1c-4.1,0-6.33-2.09-6.33-5.76,0-4.32,3-6.33,8.86-6.33.36,0,.68,0,1.08,0V83.7c0-2.05-.4-2.74-2.16-2.74A10.15,10.15,0,0,0,301.46,83l-2.05-3.46a17.7,17.7,0,0,1,3-1.51,12.47,12.47,0,0,1,5-1.08c3.1,0,5.22,1.15,5.94,3.2a8.53,8.53,0,0,1,.32,3.31l-.11,6.19c0,2,.11,2.88,1.73,4.1Zm-4.1-9c-3.35,0-4.5.61-4.5,2.81A2.19,2.19,0,0,0,306.29,93a3.5,3.5,0,0,0,2.52-1.26l.07-4Z"/><path class="cls-4" d="M324.54,96.4a16.38,16.38,0,0,1-7.45-2.12l1.73-3.53a13.45,13.45,0,0,0,6.12,2.09,2.26,2.26,0,0,0,2.45-2.09c0-1.26-.9-1.91-2.84-2.27l-2.16-.4A6.5,6.5,0,0,1,319,86.22a5.58,5.58,0,0,1-1-3.31c0-3.6,2.84-6,7.13-6a13.84,13.84,0,0,1,6.59,1.73l-1.58,3.24a9.75,9.75,0,0,0-4.54-1.33c-1.4,0-2.34.72-2.34,1.8s.61,1.44,2.3,1.87l2.23.58c2.27.58,3,1.26,3.67,2.09a4.88,4.88,0,0,1,1,3.13C332.42,93.81,329.25,96.4,324.54,96.4Z"/><path class="cls-4" d="M341.49,96.26c-2.45,0-4.39-1.08-5-2.7a6.78,6.78,0,0,1-.32-2.84v-10h-1.84V77.4h1.84a32,32,0,0,1,.18-4.36l4.9-1.22A55.12,55.12,0,0,0,341,77.4h4.32l-1.22,3.31H341V90c0,2.34.43,3,2.09,3a6.31,6.31,0,0,0,1.73-.36l.61,2.88A10.12,10.12,0,0,1,341.49,96.26Z"/><rect class="cls-2" x="1360.47" y="-114.95" width="89.4" height="193.5"/></svg>