<svg id="Layer_1" data-name="Layer 1" xmlns="http://www.w3.org/2000/svg" xmlns:xlink="http://www.w3.org/1999/xlink" viewBox="0 0 1081 290.89"><defs><style>.cls-1{fill:none;}.cls-2{clip-path:url(#clip-path);}.cls-3{opacity:0.7;}.cls-4{fill:#f1f1f2;}.cls-5{fill:#333e48;}</style><clipPath id="clip-path"><rect class="cls-1" y="-90.29" width="1080" height="381"/></clipPath></defs><title>IP_sc5_hilites</title><g id="Layer_2" data-name="Layer 2"><g class="cls-2"><g class="cls-3"><rect class="cls-4" width="1080" height="290.89"/></g><path class="cls-5" d="M95.52,138.78h3.13V155c0,6.44-3.17,8.42-7.34,8.42a10.14,10.14,0,0,1-3.35-.58l.47-2.56a7.46,7.46,0,0,0,2.63.47c2.81,0,4.46-1.26,4.46-6Z"/><path class="cls-5" d="M119.54,154.18c0,6.44-4.46,9.25-8.67,9.25-4.72,0-8.35-3.46-8.35-9,0-5.83,3.82-9.25,8.64-9.25C116.15,145.22,119.54,148.86,119.54,154.18Zm-13.82.18c0,3.82,2.2,6.69,5.29,6.69s5.29-2.84,5.29-6.77c0-3-1.48-6.69-5.22-6.69s-5.37,3.46-5.37,6.77Z"/><path class="cls-5" d="M123.39,163c.07-1.19.14-3,.14-4.5V137.48h3.13v10.94h.07a6.49,6.49,0,0,1,5.94-3.2c4.32,0,7.38,3.6,7.34,8.89,0,6.23-3.92,9.32-7.81,9.32a6.21,6.21,0,0,1-5.83-3.28h-.11l-.14,2.88Zm3.28-7a5.92,5.92,0,0,0,.14,1.15,4.89,4.89,0,0,0,4.75,3.71c3.31,0,5.29-2.7,5.29-6.7,0-3.49-1.8-6.48-5.18-6.48a5,5,0,0,0-4.82,3.89,6.23,6.23,0,0,0-.18,1.3Z"/><path class="cls-5" d="M143.58,159.8a8.3,8.3,0,0,0,4.18,1.26c2.3,0,3.38-1.15,3.38-2.59s-.9-2.34-3.24-3.2c-3.13-1.12-4.61-2.84-4.61-4.93,0-2.81,2.27-5.11,6-5.11a8.69,8.69,0,0,1,4.28,1.08l-.79,2.3a6.78,6.78,0,0,0-3.56-1c-1.87,0-2.92,1.08-2.92,2.38s1,2.09,3.31,3c3,1.15,4.57,2.66,4.57,5.26,0,3.06-2.38,5.22-6.52,5.22a9.93,9.93,0,0,1-4.89-1.19Z"/><path class="cls-5" d="M165.47,159.8a8.3,8.3,0,0,0,4.18,1.26c2.3,0,3.38-1.15,3.38-2.59s-.9-2.34-3.24-3.2c-3.13-1.12-4.61-2.84-4.61-4.93,0-2.81,2.27-5.11,6-5.11a8.69,8.69,0,0,1,4.28,1.08l-.79,2.3a6.78,6.78,0,0,0-3.56-1c-1.87,0-2.92,1.08-2.92,2.38s1,2.09,3.31,3c3,1.15,4.57,2.66,4.57,5.26,0,3.06-2.38,5.22-6.52,5.22a9.93,9.93,0,0,1-4.89-1.19Z"/><path class="cls-5" d="M194.74,158.29c0,1.8,0,3.38.14,4.75h-2.81l-.18-2.84h-.07a6.55,6.55,0,0,1-5.76,3.24c-2.74,0-6-1.51-6-7.63V145.62h3.17v9.65c0,3.31,1,5.54,3.89,5.54a4.46,4.46,0,0,0,4.46-4.46V145.62h3.17Z"/><path class="cls-5" d="M200,151.3c0-2.23-.07-4-.14-5.69h2.84l.14,3h.07a6.85,6.85,0,0,1,6.19-3.38c4.21,0,7.38,3.56,7.38,8.85,0,6.26-3.82,9.36-7.92,9.36a6.11,6.11,0,0,1-5.36-2.73h-.07v9.47H200Zm3.13,4.64a7.11,7.11,0,0,0,.14,1.3,4.89,4.89,0,0,0,4.75,3.71c3.35,0,5.29-2.74,5.29-6.73,0-3.49-1.84-6.48-5.18-6.48a5,5,0,0,0-4.79,3.92,5.12,5.12,0,0,0-.22,1.3Z"/><path class="cls-5" d="M220.48,151.3c0-2.23-.07-4-.14-5.69h2.84l.14,3h.07a6.85,6.85,0,0,1,6.19-3.38c4.21,0,7.38,3.56,7.38,8.85,0,6.26-3.82,9.36-7.92,9.36a6.11,6.11,0,0,1-5.36-2.74h-.07v9.47h-3.13Zm3.13,4.64a7.1,7.1,0,0,0,.14,1.3,4.89,4.89,0,0,0,4.75,3.71c3.35,0,5.29-2.74,5.29-6.73,0-3.49-1.84-6.48-5.18-6.48a5,5,0,0,0-4.79,3.92,5.12,5.12,0,0,0-.22,1.3Z"/><path class="cls-5" d="M256.73,154.18c0,6.44-4.46,9.25-8.67,9.25-4.72,0-8.35-3.46-8.35-9,0-5.83,3.82-9.25,8.64-9.25C253.34,145.22,256.73,148.86,256.73,154.18Zm-13.82.18c0,3.82,2.2,6.69,5.29,6.69s5.29-2.84,5.29-6.77c0-3-1.48-6.69-5.22-6.69S242.91,151,242.91,154.36Z"/><path class="cls-5" d="M260.73,151c0-2.05,0-3.82-.14-5.44h2.77l.11,3.42h.14a5.23,5.23,0,0,1,4.82-3.82,3.44,3.44,0,0,1,.9.11v3a4.77,4.77,0,0,0-1.08-.11c-2.23,0-3.82,1.69-4.25,4.07a8.89,8.89,0,0,0-.14,1.48V163h-3.13Z"/><path class="cls-5" d="M277.18,140.61v5h4.54V148h-4.54v9.4c0,2.16.61,3.38,2.38,3.38a7,7,0,0,0,1.83-.22l.14,2.38a7.76,7.76,0,0,1-2.81.43,4.39,4.39,0,0,1-3.42-1.33c-.9-.94-1.22-2.48-1.22-4.54V148h-2.7v-2.41h2.7v-4.18Z"/><path class="cls-5" d="M286.83,154.9c.07,4.28,2.81,6,6,6a11.46,11.46,0,0,0,4.82-.9l.54,2.27a14.12,14.12,0,0,1-5.8,1.08c-5.36,0-8.57-3.53-8.57-8.78s3.1-9.4,8.17-9.4c5.69,0,7.2,5,7.2,8.21a11.91,11.91,0,0,1-.11,1.48Zm9.29-2.27c0-2-.83-5.15-4.39-5.15-3.2,0-4.61,3-4.86,5.15Z"/><path class="cls-5" d="M318.14,137.48v21.06a44.57,44.57,0,0,0,.14,4.5h-2.84l-.14-3h-.07a6.44,6.44,0,0,1-5.94,3.42c-4.21,0-7.45-3.56-7.45-8.85,0-5.8,3.56-9.36,7.81-9.36a5.83,5.83,0,0,1,5.26,2.66H315v-10.4ZM315,152.71a5.62,5.62,0,0,0-.14-1.33,4.66,4.66,0,0,0-4.57-3.67c-3.28,0-5.22,2.88-5.22,6.73,0,3.53,1.73,6.44,5.15,6.44a4.76,4.76,0,0,0,4.64-3.78,5.53,5.53,0,0,0,.14-1.39Z"/><path class="cls-5" d="M330.28,148.5a2.14,2.14,0,1,1,2.14,2.14,2.15,2.15,0,0,1-2.14-2.14Zm0,12.71a2.14,2.14,0,1,1,2.14,2.14,2.15,2.15,0,0,1-2.14-2.14Z"/><path class="cls-5" d="M602.54,49.14h-7.38V46.48h18v2.66h-7.42V70.71h-3.17Z"/><path class="cls-5" d="M628.93,61.88c0,6.44-4.46,9.25-8.67,9.25-4.72,0-8.35-3.46-8.35-9,0-5.83,3.82-9.25,8.64-9.25C625.54,52.92,628.93,56.55,628.93,61.88Zm-13.82.18c0,3.82,2.2,6.69,5.29,6.69s5.29-2.84,5.29-6.77c0-3-1.48-6.69-5.22-6.69s-5.37,3.42-5.37,6.77Z"/><path class="cls-5" d="M636.74,48.31v5h4.54v2.4h-4.54v9.4c0,2.16.61,3.38,2.38,3.38a7,7,0,0,0,1.83-.22l.14,2.38a7.76,7.76,0,0,1-2.81.43,4.39,4.39,0,0,1-3.42-1.33c-.9-.94-1.22-2.48-1.22-4.54v-9.5h-2.7v-2.4h2.7V49.13Z"/><path class="cls-5" d="M654.49,70.71l-.25-2.2h-.11a6.49,6.49,0,0,1-5.33,2.59,5,5,0,0,1-5.32-4.66q0-.17,0-.34c0-4.21,3.74-6.52,10.47-6.48v-.36c0-1.44-.4-4-4-4a8.68,8.68,0,0,0-4.54,1.3l-.72-2.09a10.81,10.81,0,0,1,5.72-1.55c5.33,0,6.62,3.64,6.62,7.13v6.52a24.54,24.54,0,0,0,.29,4.18ZM654,61.82c-3.46-.07-7.38.54-7.38,3.92a2.8,2.8,0,0,0,3,3,4.34,4.34,0,0,0,4.21-2.92,3.33,3.33,0,0,0,.18-1Z"/><path class="cls-5" d="M662.19,45.18h3.17V70.71h-3.17Z"/><path class="cls-5" d="M678.32,59c0-2.23-.07-4-.14-5.69H681l.14,3h.07a6.85,6.85,0,0,1,6.19-3.38c4.21,0,7.38,3.56,7.38,8.85,0,6.26-3.82,9.36-7.92,9.36a6.11,6.11,0,0,1-5.36-2.74h-.07v9.47H678.3Zm3.13,4.64a7.1,7.1,0,0,0,.14,1.3,4.89,4.89,0,0,0,4.75,3.71c3.35,0,5.29-2.74,5.29-6.73,0-3.49-1.84-6.48-5.18-6.48a5.05,5.05,0,0,0-4.79,3.92,5.12,5.12,0,0,0-.22,1.3Z"/><path class="cls-5" d="M698.8,58.71c0-2.05,0-3.82-.14-5.44h2.77l.11,3.42h.14a5.23,5.23,0,0,1,4.82-3.82,3.44,3.44,0,0,1,.9.11v3a4.77,4.77,0,0,0-1.08-.11c-2.23,0-3.82,1.69-4.25,4.07a8.89,8.89,0,0,0-.14,1.48v9.29H698.8Z"/><path class="cls-5" d="M726,61.88c0,6.44-4.46,9.25-8.67,9.25-4.72,0-8.35-3.46-8.35-9,0-5.83,3.82-9.25,8.64-9.25C722.6,52.92,726,56.55,726,61.88Zm-13.82.18c0,3.82,2.2,6.69,5.29,6.69s5.29-2.84,5.29-6.77c0-3-1.48-6.69-5.22-6.69s-5.38,3.42-5.38,6.77Z"/><path class="cls-5" d="M725.73,75.78a5.13,5.13,0,0,0,3.46-1.33c.86-1,1.19-2.38,1.19-6.55V53.31h3.17v15.8c0,3.38-.54,5.58-2.09,7.16a8,8,0,0,1-5.4,2Zm8.17-27.36a1.86,1.86,0,0,1-1.77,1.94h-.23A1.89,1.89,0,0,1,730,48.52s0-.07,0-.1a1.94,1.94,0,0,1,1.88-2H732a1.87,1.87,0,0,1,1.94,2Z"/><path class="cls-5" d="M740.49,62.6c.07,4.28,2.81,6,6,6a11.46,11.46,0,0,0,4.82-.9l.54,2.27A14.12,14.12,0,0,1,746,71c-5.36,0-8.57-3.53-8.57-8.78s3.1-9.4,8.17-9.4c5.69,0,7.2,5,7.2,8.21a11.91,11.91,0,0,1-.11,1.48Zm9.29-2.27c0-2-.83-5.15-4.39-5.15-3.2,0-4.61,3-4.86,5.15Z"/><path class="cls-5" d="M769.18,70.09a11.66,11.66,0,0,1-5,1c-5.26,0-8.67-3.56-8.67-8.89s3.67-9.25,9.36-9.25a10.59,10.59,0,0,1,4.39.9l-.72,2.45a7.35,7.35,0,0,0-3.67-.83c-4,0-6.16,3-6.16,6.59,0,4,2.59,6.52,6,6.52a9,9,0,0,0,3.89-.86Z"/><path class="cls-5" d="M777.17,48.31v5h4.54v2.4h-4.54v9.4c0,2.16.61,3.38,2.38,3.38a7,7,0,0,0,1.83-.22l.14,2.38a7.76,7.76,0,0,1-2.81.43,4.39,4.39,0,0,1-3.42-1.33c-.9-.94-1.22-2.48-1.22-4.54v-9.5h-2.7v-2.4h2.7V49.13Z"/><path class="cls-5" d="M784.84,67.5A8.3,8.3,0,0,0,789,68.71c2.3,0,3.38-1.15,3.38-2.59s-.9-2.34-3.24-3.2c-3.13-1.12-4.61-2.84-4.61-4.93,0-2.81,2.27-5.11,6-5.11A8.69,8.69,0,0,1,794.81,54l-.79,2.3a6.78,6.78,0,0,0-3.56-1c-1.87,0-2.92,1.08-2.92,2.38s1,2.09,3.31,3c3,1.15,4.57,2.66,4.57,5.26,0,3.06-2.38,5.22-6.52,5.22a9.93,9.93,0,0,1-4.9-1.21Z"/><path class="cls-5" d="M806.41,56.19a2.14,2.14,0,1,1,2.14,2.14A2.15,2.15,0,0,1,806.41,56.19Zm0,12.71A2.14,2.14,0,1,1,808.55,71,2.15,2.15,0,0,1,806.41,68.9Z"/><path class="cls-5" d="M602.54,141.44h-7.38v-2.66h18v2.66h-7.42V163h-3.17Z"/><path class="cls-5" d="M628.93,154.18c0,6.44-4.46,9.25-8.67,9.25-4.72,0-8.35-3.46-8.35-9,0-5.83,3.82-9.25,8.64-9.25C625.54,145.22,628.93,148.86,628.93,154.18Zm-13.82.18c0,3.82,2.2,6.69,5.29,6.69s5.29-2.84,5.29-6.77c0-3-1.48-6.69-5.22-6.69s-5.37,3.46-5.37,6.77Z"/><path class="cls-5" d="M636.74,140.61v5h4.54V148h-4.54v9.4c0,2.16.61,3.38,2.38,3.38a7,7,0,0,0,1.83-.22l.14,2.38a7.76,7.76,0,0,1-2.81.43,4.39,4.39,0,0,1-3.42-1.33c-.9-.94-1.22-2.48-1.22-4.54V148h-2.7v-2.41h2.7v-4.18Z"/><path class="cls-5" d="M654.49,163l-.25-2.2h-.11a6.49,6.49,0,0,1-5.33,2.59,5,5,0,0,1-5.32-4.66q0-.17,0-.34c0-4.21,3.74-6.52,10.47-6.48v-.36c0-1.44-.4-4-4-4a8.68,8.68,0,0,0-4.54,1.3l-.72-2.09a10.81,10.81,0,0,1,5.72-1.55c5.33,0,6.62,3.64,6.62,7.13v6.52a24.54,24.54,0,0,0,.29,4.18Zm-.47-8.89c-3.46-.07-7.38.54-7.38,3.92a2.8,2.8,0,0,0,3,3,4.34,4.34,0,0,0,4.21-2.92,3.33,3.33,0,0,0,.18-1Z"/><path class="cls-5" d="M662.19,137.48h3.17V163h-3.17Z"/><path class="cls-5" d="M678.32,151.3c0-2.23-.07-4-.14-5.69H681l.14,3h.07a6.85,6.85,0,0,1,6.19-3.38c4.21,0,7.38,3.56,7.38,8.85,0,6.26-3.82,9.36-7.92,9.36a6.11,6.11,0,0,1-5.36-2.74h-.07v9.47H678.3Zm3.13,4.64a7.1,7.1,0,0,0,.14,1.3,4.89,4.89,0,0,0,4.75,3.71c3.35,0,5.29-2.74,5.29-6.73,0-3.49-1.84-6.48-5.18-6.48a5.05,5.05,0,0,0-4.79,3.92,5.12,5.12,0,0,0-.22,1.3Z"/><path class="cls-5" d="M698.8,151c0-2.05,0-3.82-.14-5.44h2.77l.11,3.42h.14a5.23,5.23,0,0,1,4.82-3.82,3.44,3.44,0,0,1,.9.11v3a4.77,4.77,0,0,0-1.08-.11c-2.23,0-3.82,1.69-4.25,4.07a8.89,8.89,0,0,0-.14,1.48V163H698.8Z"/><path class="cls-5" d="M726,154.18c0,6.44-4.46,9.25-8.67,9.25-4.72,0-8.35-3.46-8.35-9,0-5.83,3.82-9.25,8.64-9.25C722.6,145.22,726,148.86,726,154.18Zm-13.82.18c0,3.82,2.2,6.69,5.29,6.69s5.29-2.84,5.29-6.77c0-3-1.48-6.69-5.22-6.69s-5.38,3.46-5.38,6.77Z"/><path class="cls-5" d="M745,145.62c-.07,1.26-.14,2.66-.14,4.79v10.11c0,4-.79,6.44-2.48,8a9.23,9.23,0,0,1-6.33,2.09,11.24,11.24,0,0,1-5.79-1.44l.74-2.46a9.82,9.82,0,0,0,5.11,1.37c3.24,0,5.62-1.69,5.62-6.08v-1.94h-.07a6.22,6.22,0,0,1-5.54,2.92c-4.32,0-7.42-3.67-7.42-8.5,0-5.9,3.85-9.25,7.85-9.25a5.8,5.8,0,0,1,5.44,3h.07l.14-2.63Zm-3.28,6.88a4.63,4.63,0,0,0-4.47-4.79h-.15c-3,0-5.18,2.56-5.18,6.59,0,3.42,1.73,6.26,5.15,6.26a4.63,4.63,0,0,0,4.39-3.24,5.52,5.52,0,0,0,.25-1.69Z"/><path class="cls-5" d="M749.89,151c0-2.05,0-3.82-.14-5.44h2.77l.11,3.42h.14a5.23,5.23,0,0,1,4.82-3.82,3.44,3.44,0,0,1,.9.11v3a4.77,4.77,0,0,0-1.08-.11c-2.23,0-3.82,1.69-4.25,4.07a8.88,8.88,0,0,0-.16,1.43V163h-3.13Z"/><path class="cls-5" d="M771.12,163l-.25-2.2h-.11a6.49,6.49,0,0,1-5.33,2.59,5,5,0,0,1-5.32-4.66q0-.17,0-.34c0-4.21,3.74-6.52,10.47-6.48v-.36c0-1.44-.4-4-4-4a8.68,8.68,0,0,0-4.54,1.3l-.72-2.09a10.81,10.81,0,0,1,5.72-1.55c5.33,0,6.62,3.64,6.62,7.13v6.52a24.54,24.54,0,0,0,.29,4.18Zm-.47-8.89c-3.46-.07-7.38.54-7.38,3.92a2.8,2.8,0,0,0,3,3,4.34,4.34,0,0,0,4.21-2.92,3.33,3.33,0,0,0,.18-1Z"/><path class="cls-5" d="M778.83,150.33c0-1.8,0-3.28-.14-4.72h2.77l.14,2.81h.11a6,6,0,0,1,5.47-3.2,5.15,5.15,0,0,1,4.93,3.49h.07a7.16,7.16,0,0,1,1.94-2.27,5.94,5.94,0,0,1,3.85-1.22c2.3,0,5.72,1.51,5.72,7.56V163h-3.1v-9.86c0-3.35-1.22-5.36-3.78-5.36a4.1,4.1,0,0,0-3.74,2.88,5.23,5.23,0,0,0-.25,1.58V163h-3.1V152.6c0-2.77-1.22-4.79-3.64-4.79a4.72,4.72,0,0,0-4.17,4.72V163h-3.1Z"/><path class="cls-5" d="M808.42,159.8a8.3,8.3,0,0,0,4.18,1.26c2.3,0,3.38-1.15,3.38-2.59s-.9-2.34-3.24-3.2c-3.13-1.12-4.61-2.84-4.61-4.93,0-2.81,2.27-5.11,6-5.11a8.69,8.69,0,0,1,4.28,1.08l-.79,2.3a6.78,6.78,0,0,0-3.56-1c-1.87,0-2.92,1.08-2.92,2.38s1,2.09,3.31,3c3,1.15,4.57,2.66,4.57,5.26,0,3.06-2.38,5.22-6.52,5.22a9.93,9.93,0,0,1-4.89-1.19Z"/><path class="cls-5" d="M830,148.5a2.14,2.14,0,1,1,2.14,2.14A2.15,2.15,0,0,1,830,148.5Zm0,12.71a2.14,2.14,0,1,1,2.14,2.14A2.15,2.15,0,0,1,830,161.21Z"/><path class="cls-5" d="M602.54,218.07h-7.38v-2.66h18v2.66h-7.42v21.64h-3.17Z"/><path class="cls-5" d="M628.93,230.81c0,6.44-4.46,9.25-8.67,9.25-4.72,0-8.35-3.46-8.35-9,0-5.83,3.82-9.25,8.64-9.25C625.54,221.85,628.93,225.48,628.93,230.81Zm-13.82.18c0,3.82,2.2,6.69,5.29,6.69s5.29-2.84,5.29-6.77c0-3-1.48-6.69-5.22-6.69s-5.37,3.49-5.37,6.77Z"/><path class="cls-5" d="M636.74,217.24v5h4.54v2.41h-4.54V234c0,2.16.61,3.38,2.38,3.38a7,7,0,0,0,1.83-.22l.14,2.38a7.76,7.76,0,0,1-2.81.43,4.39,4.39,0,0,1-3.42-1.33c-.9-.94-1.22-2.48-1.22-4.54v-9.5h-2.7v-2.41h2.7v-4.18Z"/><path class="cls-5" d="M654.49,239.71l-.25-2.2h-.11a6.49,6.49,0,0,1-5.33,2.59,5,5,0,0,1-5.32-4.66q0-.17,0-.34c0-4.21,3.74-6.52,10.47-6.48v-.36c0-1.44-.4-4-4-4a8.68,8.68,0,0,0-4.54,1.3l-.72-2.09a10.81,10.81,0,0,1,5.72-1.55c5.33,0,6.62,3.64,6.62,7.13v6.52a24.54,24.54,0,0,0,.29,4.18Zm-.47-8.89c-3.46-.07-7.38.54-7.38,3.92a2.8,2.8,0,0,0,3,3,4.34,4.34,0,0,0,4.21-2.92,3.32,3.32,0,0,0,.18-1Z"/><path class="cls-5" d="M662.19,214.11h3.17v25.6h-3.17Z"/><path class="cls-5" d="M693.33,222.24c-.07,1.26-.14,2.66-.14,4.79v10.11c0,4-.79,6.44-2.48,8a9.23,9.23,0,0,1-6.33,2.09,11.24,11.24,0,0,1-5.79-1.44l.79-2.41a9.82,9.82,0,0,0,5.11,1.37c3.24,0,5.62-1.69,5.62-6.08v-2H690a6.22,6.22,0,0,1-5.54,2.92c-4.32,0-7.42-3.67-7.42-8.5,0-5.9,3.85-9.25,7.85-9.25a5.8,5.8,0,0,1,5.44,3h.07l.14-2.63ZM690,229.12a4.63,4.63,0,0,0-4.47-4.79h-.14c-3,0-5.18,2.56-5.18,6.59,0,3.42,1.73,6.26,5.15,6.26a4.63,4.63,0,0,0,4.39-3.24,5.52,5.52,0,0,0,.25-1.69Z"/><path class="cls-5" d="M698.23,227.71c0-2,0-3.82-.14-5.44h2.77l.14,3.44h.14a5.23,5.23,0,0,1,4.82-3.82,3.44,3.44,0,0,1,.9.11v3a4.77,4.77,0,0,0-1.08-.11c-2.23,0-3.82,1.69-4.25,4.07a8.89,8.89,0,0,0-.14,1.48v9.27h-3.13Z"/><path class="cls-5" d="M719.47,239.71l-.25-2.2h-.11a6.49,6.49,0,0,1-5.33,2.59,5,5,0,0,1-5.32-4.66q0-.17,0-.34c0-4.21,3.74-6.52,10.47-6.48v-.36c0-1.44-.4-4-4-4a8.68,8.68,0,0,0-4.54,1.3l-.72-2.09a10.81,10.81,0,0,1,5.72-1.55c5.33,0,6.62,3.64,6.62,7.13v6.52a24.54,24.54,0,0,0,.29,4.18Zm-.47-8.89c-3.46-.07-7.38.54-7.38,3.92a2.8,2.8,0,0,0,3,3,4.34,4.34,0,0,0,4.21-2.92,3.32,3.32,0,0,0,.18-1Z"/><path class="cls-5" d="M727.17,227c0-1.8,0-3.28-.14-4.72h2.81l.18,2.88h.07a6.41,6.41,0,0,1,5.76-3.28c2.41,0,6.16,1.44,6.16,7.42v10.45h-3.17v-10c0-2.81-1-5.15-4-5.15a4.65,4.65,0,0,0-4.46,4.72v10.43h-3.17Z"/><path class="cls-5" d="M750.82,217.24v5h4.54v2.41h-4.54V234c0,2.16.61,3.38,2.38,3.38a7,7,0,0,0,1.83-.22l.14,2.38a7.76,7.76,0,0,1-2.81.43,4.39,4.39,0,0,1-3.42-1.33c-.9-.94-1.22-2.48-1.22-4.54v-9.5H745v-2.41h2.7v-4.18Z"/><path class="cls-5" d="M758.49,236.42a8.3,8.3,0,0,0,4.18,1.26c2.3,0,3.38-1.15,3.38-2.59s-.9-2.34-3.24-3.2c-3.13-1.12-4.61-2.84-4.61-4.93,0-2.81,2.27-5.11,6-5.11a8.69,8.69,0,0,1,4.28,1.08l-.79,2.3a6.78,6.78,0,0,0-3.56-1c-1.87,0-2.92,1.08-2.92,2.38s1,2.09,3.31,3c3,1.15,4.57,2.66,4.57,5.26,0,3.06-2.38,5.22-6.52,5.22a9.93,9.93,0,0,1-4.89-1.19Z"/><path class="cls-5" d="M780,225.12a2.14,2.14,0,1,1,2.14,2.14A2.15,2.15,0,0,1,780,225.12Zm0,12.71a2.14,2.14,0,1,1,2.14,2.14A2.15,2.15,0,0,1,780,237.83Z"/><path class="cls-5" d="M107.51,69.71a15.54,15.54,0,0,1-6.41,1.15c-6.84,0-12-4.32-12-12.27,0-7.6,5.15-12.74,12.67-12.74a13,13,0,0,1,5.76,1.08l-.76,2.56a11.41,11.41,0,0,0-4.9-1c-5.69,0-9.47,3.64-9.47,10,0,5.94,3.42,9.75,9.32,9.75a12.54,12.54,0,0,0,5.11-1Z"/><path class="cls-5" d="M120.72,70.51l-.25-2.2h-.11a6.49,6.49,0,0,1-5.36,2.6,5,5,0,0,1-5.32-4.66q0-.17,0-.34c0-4.21,3.74-6.52,10.47-6.48v-.36c0-1.44-.4-4-4-4a8.68,8.68,0,0,0-4.54,1.3l-.72-2.09a10.81,10.81,0,0,1,5.72-1.55c5.33,0,6.62,3.64,6.62,7.13v6.52a24.54,24.54,0,0,0,.29,4.18Zm-.47-8.89c-3.46-.07-7.38.54-7.38,3.92a2.8,2.8,0,0,0,3,3,4.34,4.34,0,0,0,4.21-2.92,3.32,3.32,0,0,0,.18-1Z"/><path class="cls-5" d="M128.43,58.78c0-2.23-.07-4-.14-5.69h2.84l.14,3h.07a6.85,6.85,0,0,1,6.19-3.38c4.21,0,7.38,3.56,7.38,8.85,0,6.26-3.82,9.36-7.92,9.36a6.11,6.11,0,0,1-5.36-2.74h-.07v9.47h-3.13Zm3.13,4.64a7.11,7.11,0,0,0,.14,1.3,4.89,4.89,0,0,0,4.75,3.71c3.35,0,5.29-2.74,5.29-6.73,0-3.49-1.84-6.48-5.18-6.48a5,5,0,0,0-4.79,3.92,5.12,5.12,0,0,0-.22,1.3Z"/><path class="cls-5" d="M152.44,48.2a2,2,0,0,1-3.92,0,1.93,1.93,0,0,1,1.86-2h.14A1.88,1.88,0,0,1,152.44,48Q152.45,48.11,152.44,48.2Zm-3.53,22.32V53.09h3.17V70.51Z"/><path class="cls-5" d="M161.15,48.09v5h4.54V55.5h-4.54v9.4c0,2.16.61,3.38,2.38,3.38a7,7,0,0,0,1.83-.22l.14,2.38a7.76,7.76,0,0,1-2.81.43,4.39,4.39,0,0,1-3.42-1.33c-.9-.94-1.22-2.48-1.22-4.54V55.5h-2.7V53.09h2.7V48.91Z"/><path class="cls-5" d="M178.9,70.51l-.25-2.2h-.11a6.49,6.49,0,0,1-5.33,2.59,5,5,0,0,1-5.32-4.66q0-.17,0-.34c0-4.21,3.74-6.52,10.47-6.48v-.36c0-1.44-.4-4-4-4a8.68,8.68,0,0,0-4.54,1.3l-.72-2.09a10.81,10.81,0,0,1,5.72-1.55c5.33,0,6.62,3.64,6.62,7.13v6.52a24.54,24.54,0,0,0,.29,4.18Zm-.47-8.89c-3.46-.07-7.38.54-7.38,3.92a2.8,2.8,0,0,0,3,3,4.34,4.34,0,0,0,4.21-2.92,3.32,3.32,0,0,0,.18-1Z"/><path class="cls-5" d="M186.6,45h3.17V70.51H186.6Z"/><path class="cls-5" d="M202.59,70.51c.07-1.19.14-3,.14-4.5V45h3.13V55.9h.07a6.49,6.49,0,0,1,5.94-3.2c4.32,0,7.38,3.6,7.34,8.89,0,6.23-3.92,9.32-7.81,9.32a6.21,6.21,0,0,1-5.83-3.28h-.11l-.14,2.88Zm3.28-7a5.92,5.92,0,0,0,.13,1.2,4.89,4.89,0,0,0,4.75,3.71c3.31,0,5.29-2.7,5.29-6.7,0-3.49-1.8-6.48-5.18-6.48A5,5,0,0,0,206,59.13a6.23,6.23,0,0,0-.18,1.3Z"/><path class="cls-5" d="M237.79,65.76c0,1.8,0,3.38.14,4.75h-2.81l-.18-2.84h-.07a6.55,6.55,0,0,1-5.76,3.24c-2.74,0-6-1.51-6-7.63V53.09h3.17v9.62c0,3.31,1,5.54,3.89,5.54a4.46,4.46,0,0,0,4.46-4.46V53.09h3.17Z"/><path class="cls-5" d="M258.1,45V66a44.57,44.57,0,0,0,.14,4.5H255.4l-.14-3h-.07a6.44,6.44,0,0,1-5.94,3.42c-4.21,0-7.45-3.56-7.45-8.85,0-5.8,3.56-9.36,7.81-9.36a5.83,5.83,0,0,1,5.26,2.66h.07V45Zm-3.17,15.23a5.62,5.62,0,0,0-.14-1.33,4.66,4.66,0,0,0-4.57-3.67c-3.28,0-5.22,2.88-5.22,6.73,0,3.53,1.73,6.44,5.15,6.44a4.76,4.76,0,0,0,4.64-3.78,5.53,5.53,0,0,0,.14-1.37Z"/><path class="cls-5" d="M278.36,53.09c-.07,1.26-.14,2.66-.14,4.79V68c0,4-.79,6.44-2.48,8a9.23,9.23,0,0,1-6.33,2.09,11.24,11.24,0,0,1-5.79-1.44l.79-2.41a9.82,9.82,0,0,0,5.11,1.37c3.24,0,5.62-1.69,5.62-6.08V67.58h-.07a6.22,6.22,0,0,1-5.54,2.92c-4.32,0-7.42-3.67-7.42-8.5,0-5.9,3.85-9.25,7.85-9.25a5.8,5.8,0,0,1,5.44,3h.07l.14-2.63ZM275.08,60a4.63,4.63,0,0,0-4.47-4.79h-.14c-3,0-5.18,2.56-5.18,6.59,0,3.42,1.73,6.26,5.15,6.26a4.63,4.63,0,0,0,4.39-3.24,5.52,5.52,0,0,0,.25-1.69Z"/><path class="cls-5" d="M285.24,62.38c.07,4.28,2.81,6,6,6a11.46,11.46,0,0,0,4.82-.9l.54,2.27a14.12,14.12,0,0,1-5.8,1.08c-5.36,0-8.57-3.53-8.57-8.78s3.1-9.4,8.17-9.4c5.69,0,7.2,5,7.2,8.21a11.91,11.91,0,0,1-.11,1.48Zm9.29-2.27c0-2-.83-5.15-4.39-5.15-3.2,0-4.61,3-4.86,5.15Z"/><path class="cls-5" d="M305.33,48.09v5h4.54V55.5h-4.54v9.4c0,2.16.61,3.38,2.38,3.38a7,7,0,0,0,1.83-.22l.14,2.38a7.76,7.76,0,0,1-2.81.43,4.39,4.39,0,0,1-3.42-1.33c-.9-.94-1.22-2.48-1.22-4.54V55.5h-2.7V53.09h2.7V48.91Z"/><path class="cls-5" d="M320.31,56a2.14,2.14,0,1,1,2.14,2.14A2.15,2.15,0,0,1,320.31,56Zm0,12.71a2.14,2.14,0,1,1,2.14,2.14,2.15,2.15,0,0,1-2.14-2.14Z"/></g></g></svg>