<svg id="Layer_1" data-name="Layer 1" xmlns="http://www.w3.org/2000/svg" viewBox="0 0 250 250"><defs><style>.cls-1{fill:#fff;}.cls-2{fill:none;}.cls-3{isolation:isolate;}.cls-4{fill:#4c4c4e;}.cls-5{fill:#dbdcde;}</style></defs><title>IP_sc4_waterBtn</title><rect class="cls-1" x="-429.84" y="-501.3" width="1108.4" height="1893.6"/><circle class="cls-1" cx="123.06" cy="125" r="125"/><rect class="cls-2" x="67.76" y="163.7" width="111.6" height="30.8"/><g class="cls-3"><path class="cls-4" d="M107.48,183.7h-4.29l-1.74-7.92a48.93,48.93,0,0,1-.92-5.49c-.08.53-.42,2.94-.92,5.43l-1.62,8H93.54l-4.65-19.63H93l1.68,7.67c.73,3.39,1,6,1,6.38a60.81,60.81,0,0,1,1-6.19l1.74-7.87h4.28l1.79,8.71c.36,1.74.78,4.82.84,5.12.06-.67.64-4.56,1.06-6.44l1.6-7.39h4.12Z"/><path class="cls-4" d="M123.64,184.26a4,4,0,0,1-2-1.74,7,7,0,0,1-.87.76,5,5,0,0,1-2.88.78c-3.19,0-4.93-1.62-4.93-4.48,0-3.36,2.32-4.93,6.89-4.93.28,0,.53,0,.84,0v-.59c0-1.6-.31-2.13-1.68-2.13a7.91,7.91,0,0,0-4.14,1.62l-1.6-2.69a13.82,13.82,0,0,1,2.32-1.18,9.7,9.7,0,0,1,3.92-.84c2.41,0,4.06.9,4.62,2.49a6.63,6.63,0,0,1,.25,2.58l-.08,4.82c0,1.57.08,2.24,1.34,3.19Zm-3.19-7c-2.6,0-3.5.48-3.5,2.18a1.7,1.7,0,0,0,1.65,1.88,2.72,2.72,0,0,0,2-1l.06-3.08Z"/><path class="cls-4" d="M132.65,183.87c-1.9,0-3.42-.84-3.86-2.1a5.27,5.27,0,0,1-.25-2.21v-7.78h-1.43V169.2h1.43a24.87,24.87,0,0,1,.14-3.39l3.81-1a42.62,42.62,0,0,0-.22,4.34h3.36l-1,2.58h-2.41V179c0,1.82.34,2.3,1.62,2.3a4.9,4.9,0,0,0,1.34-.28l.48,2.24A7.89,7.89,0,0,1,132.65,183.87Z"/><path class="cls-4" d="M141.22,177.54v.11c0,2.21,1.09,3.47,3,3.47a5.6,5.6,0,0,0,3.64-1.43l1.46,2.24a8.22,8.22,0,0,1-5.4,2c-4.12,0-6.78-2.91-6.78-7.42,0-2.58.53-4.28,1.79-5.68a5.64,5.64,0,0,1,4.51-1.93,5.87,5.87,0,0,1,4.14,1.51c1.32,1.34,1.9,3.28,1.9,6.27v.87Zm4.4-2.91a3.69,3.69,0,0,0-.45-2.16,1.81,1.81,0,0,0-1.65-.84c-1.43,0-2.24,1.12-2.24,3.11v.06h4.34Z"/><path class="cls-4" d="M159.59,172.47a2.11,2.11,0,0,0-1.09-.28,3,3,0,0,0-2.3,1.2v10.14h-3.75V174a13,13,0,0,0-.53-4.2l3.36-.9a4.6,4.6,0,0,1,.59,2,4.39,4.39,0,0,1,3.36-2,2.89,2.89,0,0,1,1.4.31Z"/></g><circle class="cls-5" cx="123.56" cy="87.3" r="60"/><path class="cls-1" d="M125.86,120.7a10,10,0,0,1-10-10,2.33,2.33,0,0,1,2.3-2.3,2.26,2.26,0,0,1,2.3,2.3,5.55,5.55,0,0,0,5.5,5.5,2.26,2.26,0,0,1,2.3,2.3,2.4,2.4,0,0,1-2.4,2.2m8.9-24.1c-2.6-4.2-5.1-7.7-5.2-7.9l-1.8-2.5L126,83.7l-1.8,2.5-1.8,2.5c-.1.2-2.6,3.6-5.2,7.9-3.8,6.4-5.6,10.8-5.6,14a14.5,14.5,0,0,0,29,0c-.1-3.1-1.9-7.6-5.8-14"/><path class="cls-1" d="M104.46,97.5a8.39,8.39,0,0,1-8.4-8.4A1.9,1.9,0,0,1,98,87.2a1.84,1.84,0,0,1,1.9,1.9,4.59,4.59,0,0,0,4.6,4.6,1.9,1.9,0,0,1,1.9,1.9,2,2,0,0,1-1.9,1.9m7.4-20.3c-2.2-3.6-4.3-6.5-4.4-6.6l-1.6-2.1-1.5-2.1-1.5,2.1-1.5,2.1c-.1.1-2.2,3.1-4.4,6.6-3.2,5.4-4.8,9.1-4.8,11.8a12.2,12.2,0,0,0,24.4,0c.1-2.7-1.4-6.4-4.7-11.8"/><path class="cls-1" d="M142.66,84.4a8.45,8.45,0,0,1-8.4-8.4,1.9,1.9,0,0,1,3.8,0,4.59,4.59,0,0,0,4.6,4.6,1.9,1.9,0,1,1,0,3.8m7.5-20.3c-2.2-3.6-4.3-6.5-4.4-6.6l-1.5-2.1-1.5-2.1-1.5,2.1-1.5,2.1c-.1.1-2.2,3.1-4.4,6.6-3.2,5.4-4.8,9.1-4.8,11.8a12.2,12.2,0,0,0,24.4,0c0-2.7-1.5-6.4-4.8-11.8"/></svg>