<svg id="Layer_1" data-name="Layer 1" xmlns="http://www.w3.org/2000/svg" viewBox="0 0 250 250"><defs><style>.cls-1{fill:#fff;}.cls-2{fill:#dbdcde;}.cls-3{fill:none;}.cls-4{isolation:isolate;}.cls-5{fill:#4c4c4e;}</style></defs><title>IP_sc4_transportBtn</title><rect class="cls-1" x="-109.3" y="-765.66" width="1108.4" height="1893.6"/><circle class="cls-1" cx="125" cy="124.84" r="125"/><circle class="cls-2" cx="125" cy="94.84" r="60"/><path class="cls-1" d="M117.2,72.34l-27.3,39.4c-.5.8.7,2.2,1.3,3.1a1.22,1.22,0,0,0,1,.6,1.36,1.36,0,0,0,1-.6l26.7-42.5Z"/><path class="cls-1" d="M160.2,111.14l-27-38.8h-2.6l26.3,41.9a1.22,1.22,0,0,0,1,.6,1.36,1.36,0,0,0,1-.6c.5-.9,1.8-2.2,1.3-3.1"/><polygon class="cls-1" points="139.4 89.84 111.2 89.84 113.9 85.84 136.7 85.84 139.4 89.84"/><polygon class="cls-1" points="134.1 81.94 116.5 81.94 118.2 79.44 132.4 79.44 134.1 81.94"/><polygon class="cls-1" points="120.7 74.94 119.6 76.54 131.1 76.54 130 74.94 120.7 74.94"/><polygon class="cls-1" points="146.2 101.84 104.4 101.84 108.4 95.94 142.2 95.94 146.2 101.84"/><polygon class="cls-1" points="155.1 115.74 95.6 115.74 101.2 107.34 149.4 107.34 155.1 115.74"/><rect class="cls-3" x="51.5" y="172.34" width="147.1" height="32.6"/><g class="cls-4"><path class="cls-5" d="M82.35,176H77.7v16.21h-4V176H69v-3.25H83Z"/><path class="cls-5" d="M91,181.15a2.11,2.11,0,0,0-1.09-.28,3,3,0,0,0-2.29,1.2v10.14H83.83v-9.58a13,13,0,0,0-.53-4.2l3.36-.9a4.62,4.62,0,0,1,.59,2,4.39,4.39,0,0,1,3.36-2,2.89,2.89,0,0,1,1.4.31Z"/><path class="cls-5" d="M103.26,192.94a4,4,0,0,1-2-1.74,7,7,0,0,1-.87.76,5,5,0,0,1-2.88.78c-3.19,0-4.93-1.62-4.93-4.48,0-3.36,2.32-4.93,6.89-4.93.28,0,.53,0,.84,0v-.59c0-1.6-.31-2.13-1.68-2.13a7.91,7.91,0,0,0-4.14,1.62l-1.6-2.69a13.82,13.82,0,0,1,2.32-1.18,9.7,9.7,0,0,1,3.92-.84c2.41,0,4.06.9,4.62,2.49a6.63,6.63,0,0,1,.25,2.58l-.08,4.82c0,1.57.08,2.24,1.34,3.19Zm-3.19-7c-2.6,0-3.5.48-3.5,2.18A1.7,1.7,0,0,0,98.22,190a2.72,2.72,0,0,0,2-1l.06-3.08Z"/><path class="cls-5" d="M115.78,192.21v-9.32c0-1.62-.28-2.1-1.26-2.1a4.38,4.38,0,0,0-2.6,1.29v10.14h-3.75V181.82a10.34,10.34,0,0,0-.5-3.36l3.33-1a3.66,3.66,0,0,1,.53,1.79,16.61,16.61,0,0,1,1.65-1.06,5.91,5.91,0,0,1,2.58-.62,3.57,3.57,0,0,1,3.44,2.07,5.8,5.8,0,0,1,.28,2v10.47Z"/><path class="cls-5" d="M128,192.66a12.75,12.75,0,0,1-5.8-1.65l1.34-2.74a10.46,10.46,0,0,0,4.76,1.62,1.76,1.76,0,0,0,1.9-1.62c0-1-.7-1.48-2.21-1.76l-1.68-.31a5.06,5.06,0,0,1-2.63-1.46,4.34,4.34,0,0,1-.81-2.58c0-2.8,2.21-4.68,5.54-4.68a10.76,10.76,0,0,1,5.13,1.34l-1.23,2.52a7.59,7.59,0,0,0-3.53-1c-1.09,0-1.82.56-1.82,1.4s.48,1.12,1.79,1.46l1.74.45a4.46,4.46,0,0,1,2.86,1.62,3.79,3.79,0,0,1,.79,2.44C134.12,190.64,131.65,192.66,128,192.66Z"/><path class="cls-5" d="M147.45,190.9a5.11,5.11,0,0,1-3.84,1.62,6,6,0,0,1-3-.76,7.74,7.74,0,0,1,.06,1.18v4.48l-3.61,1V181.8a18.09,18.09,0,0,0-.22-3.61l3.33-.59a6.3,6.3,0,0,1,.25,1.34,4.8,4.8,0,0,1,3.53-1.34,5.19,5.19,0,0,1,2.83.87c1.54,1,2.66,2.88,2.66,6.19C149.44,187.73,148.93,189.3,147.45,190.9Zm-2.46-9a1.72,1.72,0,0,0-1.79-1.2,3.46,3.46,0,0,0-2.49,1.09v7a3.53,3.53,0,0,0,2.07.84c1.85,0,2.58-1.26,2.58-4.54A10.16,10.16,0,0,0,145,181.85Z"/><path class="cls-5" d="M163,190.53a5.86,5.86,0,0,1-4.73,2c-3.89,0-6.44-2.91-6.44-7.42s2.58-7.5,6.44-7.5a6,6,0,0,1,4.87,2.16,7.45,7.45,0,0,1,1.65,5.24A7.78,7.78,0,0,1,163,190.53Zm-3.05-9.41a2.05,2.05,0,0,0-3.56.7,13.56,13.56,0,0,0,.08,6.8,2.07,2.07,0,0,0,1.9,1.18c1.62,0,2.32-1.46,2.32-4.84C160.69,183,160.44,181.77,159.93,181.12Z"/><path class="cls-5" d="M175.14,181.15a2.11,2.11,0,0,0-1.09-.28,3,3,0,0,0-2.3,1.2v10.14H168v-9.58a13,13,0,0,0-.53-4.2l3.36-.9a4.59,4.59,0,0,1,.59,2,4.39,4.39,0,0,1,3.36-2,2.89,2.89,0,0,1,1.4.31Z"/><path class="cls-5" d="M182.53,192.55c-1.9,0-3.42-.84-3.86-2.1a5.27,5.27,0,0,1-.25-2.21v-7.78H177v-2.58h1.43a24.7,24.7,0,0,1,.14-3.39l3.81-1a42.91,42.91,0,0,0-.22,4.34h3.36l-1,2.58h-2.41v7.2c0,1.82.34,2.3,1.62,2.3a4.9,4.9,0,0,0,1.34-.28l.48,2.24A7.88,7.88,0,0,1,182.53,192.55Z"/></g></svg>