<svg xmlns="http://www.w3.org/2000/svg" xmlns:xlink="http://www.w3.org/1999/xlink" viewBox="0 0 1468.1 877.59"><defs><style>.cls-1,.cls-10,.cls-11,.cls-12,.cls-13,.cls-14,.cls-17,.cls-18,.cls-65,.cls-67,.cls-70,.cls-72,.cls-73{fill:none;}.cls-2{fill:#009f9c;}.cls-28,.cls-3,.cls-30,.cls-32,.cls-58{fill:#fff;}.cls-4{fill:#59a9b1;}.cls-22,.cls-27,.cls-29,.cls-31,.cls-33,.cls-36,.cls-37,.cls-38,.cls-4,.cls-40,.cls-41,.cls-42,.cls-43,.cls-44,.cls-47,.cls-48,.cls-49,.cls-50,.cls-51,.cls-52,.cls-68{mix-blend-mode:multiply;}.cls-5{fill:#303e47;}.cls-6{isolation:isolate;}.cls-7{clip-path:url(#clip-path);}.cls-8{fill:#79a9a4;stroke-width:2.28px;}.cls-10,.cls-8{stroke:#79a9a4;}.cls-11,.cls-12,.cls-13,.cls-14,.cls-17,.cls-18,.cls-65,.cls-67,.cls-72,.cls-73,.cls-8{stroke-miterlimit:10;}.cls-9{fill:#d7eeec;}.cls-10,.cls-70{stroke-linejoin:round;}.cls-10{stroke-width:28px;stroke-dasharray:1 8 1 8;}.cls-11,.cls-13{stroke:#d5d4ad;}.cls-11{stroke-width:20.93px;}.cls-12,.cls-14,.cls-70,.cls-72,.cls-73{stroke:#fff;}.cls-12{stroke-width:2.99px;}.cls-13{stroke-width:24.05px;}.cls-14{stroke-width:3.44px;}.cls-15{fill:#9ecdcb;}.cls-16{opacity:0.2;}.cls-17,.cls-18{stroke:#b5c3d2;}.cls-17{stroke-width:2.23px;}.cls-18{stroke-width:1.72px;}.cls-18,.cls-30,.cls-35{opacity:0.5;}.cls-19{fill:#80b1ae;}.cls-20{fill:#aed3dc;}.cls-21{fill:#ebecec;}.cls-22,.cls-36,.cls-39,.cls-40,.cls-43,.cls-68{opacity:0.6;}.cls-22{fill:url(#linear-gradient);}.cls-23{fill:#a32d6e;}.cls-24{fill:#6a0032;}.cls-25{opacity:0.9;}.cls-26,.cls-32,.cls-47,.cls-48,.cls-49,.cls-50,.cls-51,.cls-52{opacity:0.3;}.cls-27,.cls-29,.cls-31,.cls-33,.cls-37,.cls-38,.cls-41,.cls-42,.cls-44,.cls-60{opacity:0.7;}.cls-27{fill:url(#linear-gradient-2);}.cls-28,.cls-34{opacity:0.4;}.cls-29{fill:url(#linear-gradient-3);}.cls-31{fill:url(#linear-gradient-4);}.cls-33{fill:url(#linear-gradient-5);}.cls-36{fill:url(#linear-gradient-6);}.cls-37{fill:url(#linear-gradient-7);}.cls-38{fill:url(#linear-gradient-8);}.cls-40{fill:url(#linear-gradient-9);}.cls-41{fill:url(#linear-gradient-10);}.cls-42{fill:url(#linear-gradient-11);}.cls-43{fill:url(#linear-gradient-12);}.cls-44{fill:url(#linear-gradient-13);}.cls-45{fill:#cbc775;}.cls-46{fill:#e2df8b;}.cls-47{fill:url(#linear-gradient-14);}.cls-48{fill:url(#linear-gradient-15);}.cls-49{fill:url(#linear-gradient-16);}.cls-50{fill:url(#linear-gradient-17);}.cls-51{fill:url(#linear-gradient-18);}.cls-52{fill:url(#linear-gradient-19);}.cls-53,.cls-58,.cls-59{opacity:0.8;}.cls-53{fill:url(#linear-gradient-20);}.cls-54{fill:url(#linear-gradient-21);}.cls-55{fill:url(#linear-gradient-22);}.cls-56{fill:url(#linear-gradient-23);}.cls-57{fill:url(#linear-gradient-24);}.cls-61{fill:url(#linear-gradient-25);}.cls-62{fill:url(#linear-gradient-26);}.cls-63{fill:url(#linear-gradient-27);}.cls-64{fill:url(#linear-gradient-28);}.cls-65,.cls-67{stroke:#9ecdda;}.cls-65{stroke-width:1.12px;}.cls-66{fill:#005c54;}.cls-67{stroke-width:1.12px;}.cls-68{fill:url(#linear-gradient-29);}.cls-69{fill:url(#linear-gradient-30);}.cls-70{stroke-width:32.17px;stroke-dasharray:1.15 9.19 1.15 9.19;}.cls-71{fill:url(#linear-gradient-31);}.cls-72,.cls-73{stroke-width:8.91px;}.cls-73{stroke-dasharray:8.97 8.97;}</style><clipPath id="clip-path" transform="translate(0 -14.56)"><rect class="cls-1" x="274.14" width="1077.85" height="931.13"/></clipPath><linearGradient id="linear-gradient" x1="558.89" y1="657.28" x2="558.89" y2="563.87" gradientUnits="userSpaceOnUse"><stop offset="0.08" stop-color="#808184"/><stop offset="1" stop-color="#808184" stop-opacity="0"/></linearGradient><linearGradient id="linear-gradient-2" x1="526.34" y1="602.6" x2="526.34" y2="573.48" gradientUnits="userSpaceOnUse"><stop offset="0.47" stop-opacity="0.35"/><stop offset="0.98" stop-opacity="0"/></linearGradient><linearGradient id="linear-gradient-3" x1="526.34" y1="619.36" x2="526.34" y2="600.83" xlink:href="#linear-gradient-2"/><linearGradient id="linear-gradient-4" x1="597.4" y1="603.21" x2="597.4" y2="574.09" xlink:href="#linear-gradient-2"/><linearGradient id="linear-gradient-5" x1="597.4" y1="619.16" x2="597.4" y2="600.63" xlink:href="#linear-gradient-2"/><linearGradient id="linear-gradient-6" x1="755.64" y1="657.03" x2="755.64" y2="563.84" xlink:href="#linear-gradient"/><linearGradient id="linear-gradient-7" x1="725.09" y1="602.74" x2="725.09" y2="573.62" xlink:href="#linear-gradient-2"/><linearGradient id="linear-gradient-8" x1="725.09" y1="619.3" x2="725.09" y2="600.77" xlink:href="#linear-gradient-2"/><linearGradient id="linear-gradient-9" x1="921.65" y1="657.03" x2="921.65" y2="563.84" xlink:href="#linear-gradient"/><linearGradient id="linear-gradient-10" x1="924.07" y1="603.1" x2="924.07" y2="573.98" xlink:href="#linear-gradient-2"/><linearGradient id="linear-gradient-11" x1="924.07" y1="619.47" x2="924.07" y2="600.95" xlink:href="#linear-gradient-2"/><linearGradient id="linear-gradient-12" x1="1123.18" y1="656.18" x2="1123.18" y2="586.88" xlink:href="#linear-gradient"/><linearGradient id="linear-gradient-13" x1="1125.24" y1="619.41" x2="1125.24" y2="600.88" xlink:href="#linear-gradient-2"/><linearGradient id="linear-gradient-14" x1="-4031.11" y1="2957.93" x2="-4031.11" y2="2945.73" gradientTransform="translate(3984.22 4098.04) rotate(90)" xlink:href="#linear-gradient-2"/><linearGradient id="linear-gradient-15" x1="-4031.11" y1="5178.76" x2="-4031.11" y2="5166.55" gradientTransform="matrix(0, 1, 1, 0, -4095.95, 4098.04)" xlink:href="#linear-gradient-2"/><linearGradient id="linear-gradient-16" x1="-4031.11" y1="3156.45" x2="-4031.11" y2="3144.24" gradientTransform="translate(3984.22 4098.04) rotate(90)" xlink:href="#linear-gradient-2"/><linearGradient id="linear-gradient-17" x1="-4031.11" y1="4980.24" x2="-4031.11" y2="4968.04" gradientTransform="matrix(0, 1, 1, 0, -4095.95, 4098.04)" xlink:href="#linear-gradient-2"/><linearGradient id="linear-gradient-18" x1="-4031.11" y1="3354.97" x2="-4031.11" y2="3342.7" gradientTransform="translate(3984.22 4098.04) rotate(90)" xlink:href="#linear-gradient-2"/><linearGradient id="linear-gradient-19" x1="-4031.11" y1="4782.03" x2="-4031.11" y2="4769.76" gradientTransform="matrix(0, 1, 1, 0, -4095.95, 4098.04)" xlink:href="#linear-gradient-2"/><linearGradient id="linear-gradient-20" x1="1206.96" y1="311.23" x2="1248.43" y2="311.23" gradientUnits="userSpaceOnUse"><stop offset="0" stop-color="#00a09e" stop-opacity="0"/><stop offset="0.95" stop-color="#00a09e" stop-opacity="0.6"/></linearGradient><linearGradient id="linear-gradient-21" x1="555.82" y1="99.61" x2="555.82" y2="277.62" gradientUnits="userSpaceOnUse"><stop offset="0.04" stop-color="#e1de8a"/><stop offset="1" stop-color="#d8eeec"/></linearGradient><linearGradient id="linear-gradient-22" x1="754.76" y1="99.59" x2="754.76" y2="280.38" xlink:href="#linear-gradient-21"/><linearGradient id="linear-gradient-23" x1="953.7" y1="99.59" x2="953.7" y2="280.38" xlink:href="#linear-gradient-21"/><linearGradient id="linear-gradient-24" x1="1152.64" y1="99.61" x2="1152.64" y2="277.62" xlink:href="#linear-gradient-21"/><linearGradient id="linear-gradient-25" x1="555.26" y1="199.85" x2="555.26" y2="243" xlink:href="#linear-gradient-20"/><linearGradient id="linear-gradient-26" x1="754.52" y1="199.85" x2="754.52" y2="243" xlink:href="#linear-gradient-20"/><linearGradient id="linear-gradient-27" x1="953.16" y1="199.85" x2="953.16" y2="243" xlink:href="#linear-gradient-20"/><linearGradient id="linear-gradient-28" x1="1152.42" y1="199.85" x2="1152.42" y2="243" xlink:href="#linear-gradient-20"/><linearGradient id="linear-gradient-29" x1="1325.21" y1="653.75" x2="1325.21" y2="584.45" xlink:href="#linear-gradient"/><linearGradient id="linear-gradient-30" x1="1241.53" y1="298.19" x2="1455.18" y2="298.19" gradientUnits="userSpaceOnUse"><stop offset="0.04" stop-color="#fff" stop-opacity="0"/><stop offset="0.67" stop-color="#fff"/></linearGradient><linearGradient id="linear-gradient-31" x1="1244.15" y1="528.27" x2="1468.1" y2="528.27" xlink:href="#linear-gradient-30"/><symbol id="New_Symbol_59" data-name="New Symbol 59" viewBox="0 0 4.38 4.38"><circle class="cls-4" cx="2.19" cy="2.19" r="2.19"/></symbol><symbol id="New_Symbol_8" data-name="New Symbol 8" viewBox="0 0 12.14 12.14"><circle class="cls-5" cx="6.07" cy="6.07" r="6.07"/><polygon class="cls-3" points="9.58 6.18 8.62 5.22 6.75 7.09 6.75 2.45 5.39 2.45 5.39 7.09 3.52 5.22 2.56 6.18 6.07 9.69 6.07 9.69 6.07 9.69 9.58 6.18"/></symbol><symbol id="New_Symbol_7" data-name="New Symbol 7" viewBox="0 0 14.1 14.1"><circle class="cls-3" cx="7.05" cy="7.05" r="7.05"/><circle class="cls-2" cx="7.05" cy="7.05" r="7.05"/><path class="cls-3" d="M8.92,7.29a4.5,4.5,0,0,0-1-.52h0l-.54-.2v-2A.81.81,0,0,1,8.11,5a1.89,1.89,0,0,1,.16.69H9.67A2.09,2.09,0,0,0,8.74,3.8a2.62,2.62,0,0,0-1.36-.43V2.65H6.87v.71A3.88,3.88,0,0,0,6,3.49,2.05,2.05,0,0,0,5.2,4a2.08,2.08,0,0,0-.46.7,2.37,2.37,0,0,0-.16.9A2,2,0,0,0,5,6.9a2.51,2.51,0,0,0,1.12.72h0l.16,0,.43.13v2.28a1.11,1.11,0,0,1-.82-.47,2.78,2.78,0,0,1-.21-.9H4.24a2.31,2.31,0,0,0,.89,2.09,3.72,3.72,0,0,0,1.57.46v1.06h.52V11.26a3.15,3.15,0,0,0,1.43-.44,2.13,2.13,0,0,0,1-2A1.88,1.88,0,0,0,8.92,7.29ZM6.18,4.8a.93.93,0,0,1,.69-.25V6.42a1.93,1.93,0,0,1-.58-.27A.85.85,0,0,1,6,5.45.9.9,0,0,1,6.18,4.8ZM8,9.95a1.31,1.31,0,0,1-.61.2V8.06A2.27,2.27,0,0,1,8,8.38a.91.91,0,0,1,.31.73A1,1,0,0,1,8,9.95Z"/></symbol><symbol id="New_Symbol_58" data-name="New Symbol 58" viewBox="0 0 23.7 23.7"><circle class="cls-2" cx="11.85" cy="11.85" r="11.85"/><path class="cls-3" d="M15,12.27a7.48,7.48,0,0,0-1.71-.87l0,0-.9-.33V7.63a1.36,1.36,0,0,1,1.22.7,3.25,3.25,0,0,1,.27,1.16h2.36a3.51,3.51,0,0,0-1.56-3.11,4.41,4.41,0,0,0-2.28-.72V4.46h-.87V5.65a6.46,6.46,0,0,0-1.38.22A3.54,3.54,0,0,0,8,7.93,4,4,0,0,0,7.7,9.44a3.43,3.43,0,0,0,.7,2.16,4.2,4.2,0,0,0,1.88,1.22h0l.27.08.72.22V17a1.87,1.87,0,0,1-1.37-.79,4.67,4.67,0,0,1-.35-1.52H7.12a3.9,3.9,0,0,0,1.5,3.52,6.28,6.28,0,0,0,2.64.77v1.79h.87v-1.8a5.3,5.3,0,0,0,2.4-.73,3.58,3.58,0,0,0,1.66-3.28A3.17,3.17,0,0,0,15,12.27Zm-4.6-4.2a1.56,1.56,0,0,1,1.15-.42V10.8a3.23,3.23,0,0,1-1-.45A1.43,1.43,0,0,1,10,9.16,1.51,1.51,0,0,1,10.39,8.07Zm3.09,8.66a2.21,2.21,0,0,1-1,.33V13.55a3.78,3.78,0,0,1,1.06.54A1.53,1.53,0,0,1,14,15.31,1.64,1.64,0,0,1,13.48,16.73Z"/></symbol></defs><title>IP_sc2_car4</title><g class="cls-6"><g id="Layer_2" data-name="Layer 2"><g id="Ui"><g class="cls-7"><path class="cls-8" d="M408.14,604.4V409.92c0-40.12,27.26-37.53,41.19-37.53h828.21v-48.6H419.79c-54.78,0-54.27,55.5-54.27,69.67V604.4Z" transform="translate(0 -14.56)"/><path class="cls-9" d="M408.14,598.86V388.06c0-40.12,27.26-37.53,41.19-37.53h828.21v-48.6H413.8c-54.78,0-63,55.5-63,69.67V598.86Z" transform="translate(0 -14.56)"/><use width="4.38" height="4.38" transform="translate(569.08 352.33) rotate(180) scale(1.98 1.97)" xlink:href="#New_Symbol_59"/><use width="4.38" height="4.38" transform="translate(529.91 352.33) rotate(180) scale(1.98 1.97)" xlink:href="#New_Symbol_59"/><use width="4.38" height="4.38" transform="translate(490.75 352.33) rotate(180) scale(1.98 1.97)" xlink:href="#New_Symbol_59"/><use width="4.38" height="4.38" transform="translate(451.59 352.33) rotate(180) scale(1.98 1.97)" xlink:href="#New_Symbol_59"/><use width="4.38" height="4.38" transform="translate(725.73 352.33) rotate(180) scale(1.98 1.97)" xlink:href="#New_Symbol_59"/><use width="4.38" height="4.38" transform="translate(686.57 352.33) rotate(180) scale(1.98 1.97)" xlink:href="#New_Symbol_59"/><use width="4.38" height="4.38" transform="translate(647.4 352.33) rotate(180) scale(1.98 1.97)" xlink:href="#New_Symbol_59"/><use width="4.38" height="4.38" transform="translate(608.24 352.33) rotate(180) scale(1.98 1.97)" xlink:href="#New_Symbol_59"/><use width="4.38" height="4.38" transform="translate(882.38 352.33) rotate(180) scale(1.98 1.97)" xlink:href="#New_Symbol_59"/><use width="4.38" height="4.38" transform="translate(843.22 352.33) rotate(180) scale(1.98 1.97)" xlink:href="#New_Symbol_59"/><use width="4.38" height="4.38" transform="translate(804.05 352.33) rotate(180) scale(1.98 1.97)" xlink:href="#New_Symbol_59"/><use width="4.38" height="4.38" transform="translate(764.89 352.33) rotate(180) scale(1.98 1.97)" xlink:href="#New_Symbol_59"/><use width="4.38" height="4.38" transform="translate(1039.03 352.33) rotate(180) scale(1.98 1.97)" xlink:href="#New_Symbol_59"/><use width="4.38" height="4.38" transform="translate(999.87 352.33) rotate(180) scale(1.98 1.97)" xlink:href="#New_Symbol_59"/><use width="4.38" height="4.38" transform="translate(960.71 352.33) rotate(180) scale(1.98 1.97)" xlink:href="#New_Symbol_59"/><use width="4.38" height="4.38" transform="translate(921.54 352.33) rotate(180) scale(1.98 1.97)" xlink:href="#New_Symbol_59"/><use width="4.38" height="4.38" transform="translate(420.79 363.02) rotate(180) scale(1.52 1.97)" xlink:href="#New_Symbol_59"/><path class="cls-10" d="M505.63,326.32H442.48s-62.39-6.9-62.72,53.63v188" transform="translate(0 -14.56)"/><line class="cls-10" x1="1273.64" y1="311.76" x2="556.98" y2="311.76"/><path class="cls-11" d="M175.64,729.16H298.82a15,15,0,0,0,15-15V93.63a15,15,0,0,1,15-15H516.43" transform="translate(0 -14.56)"/><path class="cls-12" d="M161,729.16H298.82a15,15,0,0,0,15-15V93.63a15,15,0,0,1,15-15H516.43" transform="translate(0 -14.56)"/><use width="12.14" height="12.14" transform="translate(388.97 77.01) rotate(-90.4) scale(1.65)" xlink:href="#New_Symbol_8"/><use width="12.14" height="12.14" transform="translate(323.59 441.89) rotate(178.33) scale(1.65)" xlink:href="#New_Symbol_8"/><use id="New_Symbol_7-3" data-name="New Symbol 7" width="14.1" height="14.09" transform="translate(303.3 281.19) scale(1.42)" xlink:href="#New_Symbol_7"/><line class="cls-13" x1="536.65" y1="66.94" x2="1179.48" y2="66.94"/><line class="cls-14" x1="536.65" y1="66.94" x2="1179.48" y2="66.94"/><path class="cls-15" d="M1427,331.28c-12.71-12.15-41-11.31-41-11.31H1167v53.81h183.34s21.32-2.73,29.84,8c7.8,9.84,5.85,26.79,5.85,26.79v86.3h53.81V364.51A40.79,40.79,0,0,0,1427,331.28Z" transform="translate(0 -14.56)"/><path class="cls-9" d="M1433.81,470.79h-52.62V386.4s1.9-16.58-5.72-26.2c-8.34-10.51-29.18-7.84-29.18-7.84H1131V301.94H1381.1s27.7-3,40.12,8.85a39.88,39.88,0,0,1,12.59,32.49Z" transform="translate(0 -14.56)"/><g class="cls-16"><line class="cls-17" x1="1216.5" y1="292.98" x2="1216.5" y2="329.48"/><line class="cls-17" x1="1242.87" y1="292.98" x2="1242.87" y2="329.48"/><line class="cls-17" x1="1269.24" y1="292.98" x2="1269.24" y2="329.48"/><line class="cls-17" x1="1295.61" y1="292.98" x2="1295.61" y2="329.48"/><line class="cls-17" x1="1321.98" y1="292.98" x2="1321.98" y2="329.48"/><line class="cls-17" x1="1348.35" y1="292.98" x2="1348.35" y2="329.48"/><line class="cls-17" x1="1192.54" y1="292.98" x2="1192.54" y2="329.48"/><line class="cls-17" x1="1171.58" y1="292.98" x2="1171.58" y2="329.48"/></g><rect class="cls-15" x="442.11" y="525.14" width="962.38" height="201.24" rx="8.59" ry="8.59"/><rect class="cls-9" x="442.11" y="510.96" width="962.38" height="201.24" rx="8.59" ry="8.59"/><line class="cls-18" x1="1140.25" y1="349.4" x2="1169.52" y2="349.4"/><line class="cls-18" x1="1140.25" y1="367.68" x2="1169.52" y2="367.68"/><line class="cls-18" x1="1140.25" y1="404.25" x2="1169.52" y2="404.25"/><line class="cls-18" x1="1140.25" y1="385.97" x2="1169.52" y2="385.97"/><line class="cls-18" x1="1160.62" y1="312.73" x2="1137.05" y2="330.52"/><line class="cls-18" x1="1167.07" y1="332.08" x2="1139.35" y2="338.98"/><rect class="cls-9" x="535.44" y="344.45" width="40.56" height="204.07"/><path class="cls-9" d="M519.06,350.53s16.59-2.79,16.26,11.13h40.44s6.36-59.94-56.7-59.94Z" transform="translate(0 -14.56)"/><path class="cls-10" d="M555.83,559s0-150.71-.11-177.45c1.21-30.35-3.75-49.45-20.94-53.21-7-1.52-24.59-2-24.59-2" transform="translate(0 -14.56)"/><rect class="cls-9" x="734.08" y="344.45" width="40.56" height="204.07"/><path class="cls-9" d="M717.05,350.53s16.91-1,16.91,11.13H774.4s7-59.73-57.18-59.73Z" transform="translate(0 -14.56)"/><path class="cls-10" d="M754.47,559s0-150.71-.11-177.45c1.21-30.35-3.75-49.45-20.94-53.21-7-1.52-24.59-2-24.59-2" transform="translate(0 -14.56)"/><rect class="cls-9" x="931.87" y="344.45" width="40.56" height="204.07"/><path class="cls-9" d="M915.31,350.53s16.77-2.79,16.44,11.13h40.44s4.21-57.39-57.35-58.24Z" transform="translate(0 -14.56)"/><path class="cls-10" d="M952.26,559s0-150.71-.11-177.45c1.21-30.35-3.75-49.45-20.94-53.21-7-1.52-24.59-2-24.59-2" transform="translate(0 -14.56)"/><rect class="cls-9" x="1132.6" y="344.45" width="40.56" height="204.07"/><path class="cls-9" d="M1114.77,350.53s18-2.79,17.71,11.13h40.44s8.74-59-58.15-59.73Z" transform="translate(0 -14.56)"/><path class="cls-10" d="M1153,559s0-150.71-.11-177.45c1.21-30.35-3.75-49.45-20.94-53.21-7-1.52-24.59-2-24.59-2" transform="translate(0 -14.56)"/><rect class="cls-19" x="474.53" y="545.72" width="171.33" height="144.31" rx="8.59" ry="8.59"/><rect class="cls-20" x="477.97" y="530.43" width="164.46" height="140.55" rx="5.15" ry="5.15"/><path class="cls-21" d="M637.28,548.43a1.74,1.74,0,0,1,1.72,1.72V680.39a1.74,1.74,0,0,1-1.72,1.72H483.12a1.74,1.74,0,0,1-1.72-1.72V550.14a1.74,1.74,0,0,1,1.72-1.72H637.28m0-6.87H483.12a8.61,8.61,0,0,0-8.59,8.59V680.39a8.61,8.61,0,0,0,8.59,8.59H637.28a8.61,8.61,0,0,0,8.59-8.59V550.14a8.61,8.61,0,0,0-8.59-8.59Z" transform="translate(0 -14.56)"/><rect class="cls-9" x="522.28" y="523.02" width="69.24" height="26.13"/><rect class="cls-19" x="480.87" y="532.97" width="41.41" height="16.17"/><rect class="cls-19" x="591.52" y="532.97" width="47.66" height="16.17"/><polygon class="cls-22" points="640.51 551.86 477.27 551.86 495.42 654.21 628.11 654.21 640.51 551.86"/><path class="cls-23" d="M518.66,563.17H498.41a3.64,3.64,0,0,0-3.63,3.63v6.09h30.82Z" transform="translate(0 -14.56)"/><path class="cls-23" d="M498.41,555.23h55.88a3.63,3.63,0,0,1,3.63,3.63v36.69a3.63,3.63,0,0,1-3.63,3.63H498.41a3.64,3.64,0,0,1-3.64-3.64V558.87A3.64,3.64,0,0,1,498.41,555.23Z"/><path class="cls-24" d="M554.39,571.17H523.48l-4.72-6.61H498.51a3.64,3.64,0,0,0-3.64,3.63v6.09h.05a3.67,3.67,0,0,0-.05.52V611.5a3.65,3.65,0,0,0,3.64,3.64h55.88A3.65,3.65,0,0,0,558,611.5V574.81A3.65,3.65,0,0,0,554.39,571.17Z" transform="translate(0 -14.56)"/><g class="cls-25"><path class="cls-3" d="M508.64,570.85a7.8,7.8,0,1,0,7.8,7.8A7.8,7.8,0,0,0,508.64,570.85Z" transform="translate(0 -14.56)"/><polygon class="cls-24" points="512.23 560.47 507.26 565.44 504.99 563.17 503.46 564.7 507.26 568.5 513.76 562 512.23 560.47"/></g><g class="cls-26"><path class="cls-3" d="M532.72,598.15a1.07,1.07,0,1,1-1.07-1.07,1.07,1.07,0,0,1,1.07,1.07" transform="translate(0 -14.56)"/><path class="cls-3" d="M539.91,592.07a1.12,1.12,0,0,1-.81-.34,10.58,10.58,0,0,0-14.9,0,1.12,1.12,0,1,1-1.6-1.56,12.81,12.81,0,0,1,18.11,0,1.12,1.12,0,0,1-.8,1.9" transform="translate(0 -14.56)"/><path class="cls-3" d="M537.16,594.38a1.11,1.11,0,0,1-.77-.31,7,7,0,0,0-9.47,0,1.12,1.12,0,0,1-1.55-1.63,9.28,9.28,0,0,1,12.56,0,1.12,1.12,0,0,1-.78,1.93" transform="translate(0 -14.56)"/><path class="cls-3" d="M528.85,596.75a1.12,1.12,0,0,1-.7-2,5.82,5.82,0,0,1,6.93-.07,1.12,1.12,0,1,1-1.36,1.78,3.59,3.59,0,0,0-4.17,0,1.13,1.13,0,0,1-.7.25" transform="translate(0 -14.56)"/></g><rect class="cls-27" x="494.73" y="563.54" width="63.22" height="35.16"/><path class="cls-23" d="M518.66,590.53H498.41a3.64,3.64,0,0,0-3.63,3.63v6.1h30.82Z" transform="translate(0 -14.56)"/><path class="cls-23" d="M498.4,582.59h55.89a3.63,3.63,0,0,1,3.63,3.63v36.69a3.63,3.63,0,0,1-3.63,3.63H498.41a3.64,3.64,0,0,1-3.64-3.64V586.22A3.63,3.63,0,0,1,498.4,582.59Z"/><path class="cls-24" d="M554.39,598.53H523.48l-4.72-6.61H498.51a3.64,3.64,0,0,0-3.64,3.64v6.09h.05a3.65,3.65,0,0,0-.05.52v36.69a3.64,3.64,0,0,0,3.64,3.64h55.88a3.65,3.65,0,0,0,3.64-3.64V602.17A3.65,3.65,0,0,0,554.39,598.53Z" transform="translate(0 -14.56)"/><path class="cls-28" d="M525.94,616.92l2.74,6.59-1.13,0h-3.25l-.81,0h-.3Zm12.6,0,2.74,6.58H541l-.81,0h-3.25l-1.1,0ZM523,624.22l.15.09.06,0,.13.07.08,0a5.52,5.52,0,0,0,.83.31,6.17,6.17,0,0,0,3.33,0,5.61,5.61,0,0,0,.84-.31l.42-.23a3.63,3.63,0,0,0,.42-.3l.05,0v-.34h-.09l-2.87-6.9.41,0c.55.06,1.15.11,1.81.16,1,.07,2.08.11,3.22.12-.06.55-.11,1.1-.16,1.64l-.15,1.75-.12,1.75c0,.27,0,.55-.08.86l0,.31c0,.19,0,.38-.06.57s0,.62,0,.89,0,.58,0,.89.1.86.17,1.28l-.38,0a7.57,7.57,0,0,0-1.25.3c-.21.07-.42.15-.63.24a6.38,6.38,0,0,0-.62.31c-.21.11-.42.25-.63.4a5.34,5.34,0,0,0-.63.53l0,0v.42l1.37.06,1.23,0,2.45,0h2.45l1.23,0,.62,0,.75,0v-.42l0,0a4.91,4.91,0,0,0-.63-.52,6.54,6.54,0,0,0-.63-.4,7.34,7.34,0,0,0-2.5-.85l-.34,0c.07-.41.13-.85.17-1.28s0-.61,0-.89,0-.56-.05-.89,0-.38-.06-.57,0-.21,0-.31c0-.31-.06-.6-.08-.86l-.12-1.75-.15-1.75c0-.54-.11-1.09-.16-1.64,1.11,0,2.14,0,3.14-.12.67,0,1.26-.1,1.81-.16l.46-.06-2.88,6.92h-.1v.33l.05,0a3,3,0,0,0,.42.3l.15.09.06,0,.14.07.08,0a5,5,0,0,0,.83.32,6,6,0,0,0,1.66.22,6.19,6.19,0,0,0,1.66-.23,5.57,5.57,0,0,0,.84-.32,3.55,3.55,0,0,0,.42-.23,3.05,3.05,0,0,0,.42-.3l.06,0v-.33h-.09L539,616.64l.24,0,.43.06.27,0,.14,0a1.35,1.35,0,0,0,.48,0,2,2,0,0,0,.45-.13,1.85,1.85,0,0,0,.46-.27l.05,0v-.23l-.05,0a2.08,2.08,0,0,0-.46-.27,2.64,2.64,0,0,0-.45-.13,1.3,1.3,0,0,0-.48,0l-.14,0-.28,0-.42.06-.43.07-.24,0-.87-.11c-.55-.06-1.14-.12-1.81-.16-1-.07-2-.1-3.1-.11l.1-.81c0-.14,0-.27.06-.42l0-.21a1.86,1.86,0,0,0,0-.34,1.62,1.62,0,0,0,0-.34,3.18,3.18,0,0,0-.31-1,2.33,2.33,0,0,0-.21-.34l0-.06h-.26l0,.06a2,2,0,0,0-.21.34c-.05.1-.1.21-.14.33a3.16,3.16,0,0,0-.17.67,2.35,2.35,0,0,0,0,.34,3.34,3.34,0,0,0,0,.34l0,.2c0,.15.05.28.07.42l0,.32.06.49c-1.13,0-2.17,0-3.18.11-.66,0-1.26.1-1.81.16l-.8.1-.2,0-.43-.07-.43-.06-.28,0-.14,0a1.32,1.32,0,0,0-.48,0,2.15,2.15,0,0,0-.46.13,1.69,1.69,0,0,0-.47.27l-.06,0v.23l.06,0a1.77,1.77,0,0,0,.47.27,1.91,1.91,0,0,0,.45.13,1.37,1.37,0,0,0,.48,0l.14,0,.28,0,.43-.06.15,0-2.86,6.88h-.11v.34l.05,0a2.9,2.9,0,0,0,.42.3" transform="translate(0 -14.56)"/><g class="cls-25"><path class="cls-3" d="M508.64,598.57a7.8,7.8,0,1,0,7.8,7.8A7.8,7.8,0,0,0,508.64,598.57Z" transform="translate(0 -14.56)"/><polygon class="cls-24" points="512.23 588.19 507.26 593.16 504.99 590.88 503.46 592.42 507.26 596.22 513.76 589.72 512.23 588.19"/></g><rect class="cls-29" x="494.73" y="594.5" width="63.22" height="22.37"/><path class="cls-23" d="M518.62,618.67H498.36a3.64,3.64,0,0,0-3.63,3.63v6.09h30.82Z" transform="translate(0 -14.56)"/><path class="cls-23" d="M557.88,665.61a3.65,3.65,0,0,1-3.64,3.63H498.36a3.64,3.64,0,0,1-3.63-3.63V628.92a3.65,3.65,0,0,1,3.63-3.63h55.88a3.65,3.65,0,0,1,3.64,3.63Z" transform="translate(0 -14.56)"/><path class="cls-24" d="M554.34,626.67H523.44l-4.71-6.61H498.46a3.64,3.64,0,0,0-3.63,3.64v6.09h.05a3.31,3.31,0,0,0-.05.52V667a3.65,3.65,0,0,0,3.63,3.64h55.88A3.65,3.65,0,0,0,558,667V630.31A3.65,3.65,0,0,0,554.34,626.67Z" transform="translate(0 -14.56)"/><path class="cls-3" d="M508.64,627a7.8,7.8,0,1,0,7.8,7.8A7.8,7.8,0,0,0,508.64,627Z" transform="translate(0 -14.56)"/><polygon class="cls-24" points="512.23 616.66 507.26 621.63 504.99 619.36 503.46 620.89 507.26 624.68 513.76 618.19 512.23 616.66"/><path class="cls-30" d="M523.92,651.28v3.09h0s0,0,0,.07h0c0,1.58,3.14,2.86,7,2.86s7-1.28,7-2.86h0a.45.45,0,0,0,0-.06h0v-3.09l-7,2.16Zm16.83.52v-.23a.22.22,0,0,0-.1-.2v-1.79l2.17-.67-11.89-3.65-11.88,3.65,11.88,3.65,9.4-2.89v1.7a.22.22,0,0,0-.1.2v.23a.23.23,0,0,0,.09.19l-.36,2H541l-.36-2a.23.23,0,0,0,.09-.19" transform="translate(0 -14.56)"/><path class="cls-23" d="M589.73,563.17H569.47a3.65,3.65,0,0,0-3.64,3.63v6.09h30.82Z" transform="translate(0 -14.56)"/><rect class="cls-23" x="565.83" y="555.23" width="63.15" height="43.96" rx="3.64" ry="3.64"/><path class="cls-24" d="M625.45,571.17H594.54l-4.72-6.61H569.57a3.64,3.64,0,0,0-3.63,3.63v6.09H566a3.69,3.69,0,0,0-.05.52V611.5a3.65,3.65,0,0,0,3.63,3.64h55.88a3.65,3.65,0,0,0,3.64-3.64V574.81A3.65,3.65,0,0,0,625.45,571.17Z" transform="translate(0 -14.56)"/><g class="cls-25"><path class="cls-3" d="M579.7,570.85a7.8,7.8,0,1,0,7.8,7.8A7.8,7.8,0,0,0,579.7,570.85Z" transform="translate(0 -14.56)"/><polygon class="cls-24" points="583.29 560.47 578.33 565.44 576.06 563.17 574.52 564.7 578.33 568.5 584.83 562 583.29 560.47"/></g><rect class="cls-31" x="565.79" y="564.14" width="63.23" height="35.16"/><path class="cls-32" d="M593.4,592a.27.27,0,0,0,.37.12l8.73-4.43,8.86,4.39a.27.27,0,0,0,.37-.12l.15-.3a.27.27,0,0,0-.12-.37l-9-4.48-.07,0a.27.27,0,0,0-.28,0l-9,4.56a.28.28,0,0,0-.12.37Z" transform="translate(0 -14.56)"/><path class="cls-32" d="M603.45,592a.28.28,0,0,1-.27.27h-1.35a.28.28,0,0,1-.28-.27V590.6a.28.28,0,0,1,.28-.27h1.35a.27.27,0,0,1,.27.27Zm-1.66,3.61a.27.27,0,0,1-.27.28h-1.61a.28.28,0,0,1-.28-.28V594a.28.28,0,0,1,.28-.28h1.61a.28.28,0,0,1,.27.28Zm0,2.63a.27.27,0,0,1-.27.27h-1.61a.27.27,0,0,1-.28-.27v-1.6a.28.28,0,0,1,.28-.28h1.61a.27.27,0,0,1,.27.28Zm-2.8-2.63a.28.28,0,0,1-.28.28h-1.6a.28.28,0,0,1-.28-.28V594a.28.28,0,0,1,.28-.28h1.6a.28.28,0,0,1,.28.28Zm0,2.63a.28.28,0,0,1-.28.27h-1.6a.28.28,0,0,1-.28-.27v-1.6a.28.28,0,0,1,.28-.28h1.6a.28.28,0,0,1,.28.28Zm9.23,2.17h2.28a.28.28,0,0,0,.27-.28v-7.26a.49.49,0,0,0-.24-.4l-7.77-3.85a.63.63,0,0,0-.49,0l-7.77,3.85a.48.48,0,0,0-.24.4v7.26a.28.28,0,0,0,.27.28h9.28a.28.28,0,0,0,.27-.28V594a.28.28,0,0,1,.28-.28h3.32a.28.28,0,0,1,.28.28v6.12a.28.28,0,0,0,.27.28" transform="translate(0 -14.56)"/><path class="cls-23" d="M589.73,590.53H569.47a3.65,3.65,0,0,0-3.64,3.63v6.1h30.82Z" transform="translate(0 -14.56)"/><path class="cls-23" d="M629,637.47a3.64,3.64,0,0,1-3.64,3.63H569.47a3.64,3.64,0,0,1-3.64-3.63V600.78a3.64,3.64,0,0,1,3.64-3.63h55.88a3.65,3.65,0,0,1,3.64,3.63Z" transform="translate(0 -14.56)"/><path class="cls-24" d="M625.45,598.53H594.54l-4.72-6.61H569.57a3.64,3.64,0,0,0-3.63,3.64v6.09H566a3.66,3.66,0,0,0-.05.52v36.69a3.64,3.64,0,0,0,3.63,3.64h55.88a3.65,3.65,0,0,0,3.64-3.64V602.17A3.65,3.65,0,0,0,625.45,598.53Z" transform="translate(0 -14.56)"/><g class="cls-25"><path class="cls-3" d="M579.7,598.57a7.8,7.8,0,1,0,7.8,7.8A7.8,7.8,0,0,0,579.7,598.57Z" transform="translate(0 -14.56)"/><polygon class="cls-24" points="583.29 588.19 578.33 593.16 576.06 590.88 574.52 592.42 578.33 596.22 584.83 589.72 583.29 588.19"/></g><rect class="cls-33" x="565.79" y="594.31" width="63.23" height="22.37"/><g class="cls-34"><path class="cls-3" d="M610.05,622.68h-12.5v-1.11h11.88a.6.6,0,0,1,.62.57Zm-12.6-2.79h2.13a.39.39,0,0,1,.39.39v.47h-2.52Zm13.41,2.79v-.54a1.41,1.41,0,0,0-1.43-1.38h-8.85v-.47a1,1,0,0,0-1-1h-2.26V618h-1.62v9.31h1.62v-3h12.24v3h1.62v-4.65Z" transform="translate(0 -14.56)"/><polygon class="cls-3" points="606.73 603.47 608.15 603.47 608.15 602.5 609.26 602.5 609.26 600.98 608.15 600.98 608.15 599.9 606.73 599.9 606.73 600.98 605.67 600.98 605.67 602.5 606.73 602.5 606.73 603.47"/><path class="cls-3" d="M607.46,613.23a3,3,0,1,1-3,3,3,3,0,0,1,3-3m0,7a4,4,0,1,0-4-4,4,4,0,0,0,4,4" transform="translate(0 -14.56)"/></g><path class="cls-23" d="M589.68,618.67H569.42a3.65,3.65,0,0,0-3.64,3.63v6.09h30.83Z" transform="translate(0 -14.56)"/><path class="cls-23" d="M569.42,610.73h55.89a3.64,3.64,0,0,1,3.64,3.64v36.69a3.63,3.63,0,0,1-3.63,3.63H569.43a3.64,3.64,0,0,1-3.64-3.64V614.36A3.63,3.63,0,0,1,569.42,610.73Z"/><path class="cls-24" d="M625.41,626.67H594.5l-4.72-6.61H569.52a3.64,3.64,0,0,0-3.63,3.64v6.09h.05a3.3,3.3,0,0,0-.05.52V667a3.65,3.65,0,0,0,3.63,3.64h55.88A3.65,3.65,0,0,0,629,667V630.31A3.65,3.65,0,0,0,625.41,626.67Z" transform="translate(0 -14.56)"/><path class="cls-3" d="M579.7,627a7.8,7.8,0,1,0,7.8,7.8A7.8,7.8,0,0,0,579.7,627Z" transform="translate(0 -14.56)"/><polygon class="cls-24" points="583.29 616.66 578.33 621.63 576.06 619.36 574.52 620.89 578.33 624.68 584.83 618.19 583.29 616.66"/><g class="cls-35"><path class="cls-3" d="M603.19,653.38h-4a.52.52,0,0,0-.53.69l0,0a.46.46,0,0,0,.27.27.77.77,0,0,0,.3.05h4a.53.53,0,0,0,.6-.52c0-.33-.22-.54-.6-.54" transform="translate(0 -14.56)"/><path class="cls-3" d="M603.1,655.13h-3.8c-.37,0-.62.22-.61.53a.43.43,0,0,0,0,.13.49.49,0,0,0,.34.34.9.9,0,0,0,.23,0h3.8c.38,0,.61-.22.61-.53a.53.53,0,0,0-.6-.51" transform="translate(0 -14.56)"/><path class="cls-3" d="M599.33,656.88h-.08a2.59,2.59,0,0,0,1,.91,2,2,0,0,0,.94.23,2.48,2.48,0,0,0,1.93-1.14h-3.79Z" transform="translate(0 -14.56)"/><path class="cls-3" d="M604.23,649.9l-2.39.62v1.77a.74.74,0,0,0,.73.74h0a.74.74,0,0,0,.74-.73v-.64l1.29-.33a.74.74,0,0,0-.37-1.43" transform="translate(0 -14.56)"/><path class="cls-3" d="M604.23,647.68l-5.89,1.53-.57.15a.74.74,0,0,0-.54.81.73.73,0,0,0,.07.41.72.72,0,0,0,.35.35h0l1.5.69,0,.69a.84.84,0,0,0,0,.17.74.74,0,0,0,.53.52.56.56,0,0,0,.19,0h0a.74.74,0,0,0,.72-.76l0-1.61-.71-.33,4.71-1.22a.74.74,0,0,0-.37-1.43" transform="translate(0 -14.56)"/><path class="cls-3" d="M604.23,645.47l-4,1-1.91.5-.55.15a.73.73,0,0,0-.53.9l0,.11a.72.72,0,0,0,.38.38.71.71,0,0,0,.3.07l.18,0,1.39-.36,1.92-.5,3.15-.82a.74.74,0,0,0-.37-1.43" transform="translate(0 -14.56)"/><path class="cls-3" d="M597.31,646a.71.71,0,0,0,.32.32.72.72,0,0,0,.34.08.66.66,0,0,0,.18,0l1.55-.4,4.91-1.28a.73.73,0,0,0,.37-.23.73.73,0,0,0,.15-.67l0-.12a.73.73,0,0,0-.36-.36.72.72,0,0,0-.49,0l-.36.09-5.39,1.4-.71.18a.74.74,0,0,0-.53.9.69.69,0,0,0,.06.15" transform="translate(0 -14.56)"/><path class="cls-3" d="M597.25,643.61a.74.74,0,0,0,.65.55H598l.18,0,4.06-1.05a.74.74,0,0,0,.54-.87v0a.74.74,0,0,0-.56-.53.78.78,0,0,0-.34,0l-4.06,1.06a.74.74,0,0,0-.55.78s0,.08,0,.12" transform="translate(0 -14.56)"/></g><rect class="cls-19" x="673.47" y="545.72" width="171.33" height="144.31" rx="8.59" ry="8.59"/><rect class="cls-20" x="676.91" y="530.43" width="164.46" height="140.55" rx="5.15" ry="5.15"/><path class="cls-21" d="M836.22,548.43a1.74,1.74,0,0,1,1.72,1.72V680.39a1.74,1.74,0,0,1-1.72,1.72H682.06a1.74,1.74,0,0,1-1.72-1.72V550.14a1.74,1.74,0,0,1,1.72-1.72H836.22m0-6.87H682.06a8.61,8.61,0,0,0-8.59,8.59V680.39a8.61,8.61,0,0,0,8.59,8.59H836.22a8.61,8.61,0,0,0,8.59-8.59V550.14a8.61,8.61,0,0,0-8.59-8.59Z" transform="translate(0 -14.56)"/><rect class="cls-9" x="717.22" y="523.02" width="83.33" height="26.13"/><rect class="cls-19" x="679.81" y="532.97" width="37.42" height="16.17"/><rect class="cls-19" x="800.56" y="532.97" width="37.56" height="16.17"/><polygon class="cls-36" points="835.06 614.32 764.31 614.32 764.31 551.86 676.21 551.86 694.34 653.97 827.58 653.29 835.06 614.32"/><path class="cls-23" d="M717.42,562.7H697.16a3.64,3.64,0,0,0-3.63,3.63v6.09h30.82Z" transform="translate(0 -14.56)"/><path class="cls-23" d="M697.16,554.75H753a3.63,3.63,0,0,1,3.63,3.63v36.69a3.63,3.63,0,0,1-3.63,3.63H697.16a3.64,3.64,0,0,1-3.64-3.64V558.39A3.64,3.64,0,0,1,697.16,554.75Z"/><path class="cls-24" d="M753.14,570.7H722.23l-4.72-6.61H697.26a3.64,3.64,0,0,0-3.63,3.63v6.09h.05a3.76,3.76,0,0,0-.05.52V611a3.64,3.64,0,0,0,3.63,3.64h55.88a3.65,3.65,0,0,0,3.64-3.64V574.33A3.65,3.65,0,0,0,753.14,570.7Z" transform="translate(0 -14.56)"/><g class="cls-25"><path class="cls-3" d="M707.39,570.37a7.8,7.8,0,1,0,7.8,7.8A7.8,7.8,0,0,0,707.39,570.37Z" transform="translate(0 -14.56)"/><polygon class="cls-24" points="710.98 559.99 706.02 564.96 703.75 562.69 702.22 564.22 706.02 568.02 712.51 561.52 710.98 559.99"/></g><g class="cls-26"><path class="cls-3" d="M731.48,597.67a1.07,1.07,0,1,1-1.07-1.06,1.07,1.07,0,0,1,1.07,1.06" transform="translate(0 -14.56)"/><path class="cls-3" d="M738.66,591.6a1.12,1.12,0,0,1-.8-.34,10.58,10.58,0,0,0-14.9,0,1.12,1.12,0,1,1-1.61-1.57,12.81,12.81,0,0,1,18.12,0,1.12,1.12,0,0,1-.81,1.91" transform="translate(0 -14.56)"/><path class="cls-3" d="M735.91,593.9a1.12,1.12,0,0,1-.78-.31,7,7,0,0,0-9.46,0,1.12,1.12,0,0,1-1.55-1.63,9.29,9.29,0,0,1,12.56,0,1.12,1.12,0,0,1,0,1.58,1.1,1.1,0,0,1-.81.35" transform="translate(0 -14.56)"/><path class="cls-3" d="M727.6,596.27a1.12,1.12,0,0,1-.7-2,5.83,5.83,0,0,1,6.93-.07,1.12,1.12,0,0,1-1.36,1.79,3.6,3.6,0,0,0-4.17,0,1.13,1.13,0,0,1-.7.24" transform="translate(0 -14.56)"/></g><rect class="cls-37" x="693.48" y="563.67" width="63.22" height="35.16"/><path class="cls-23" d="M717.42,590.05H697.16a3.65,3.65,0,0,0-3.63,3.63v6.09h30.82Z" transform="translate(0 -14.56)"/><path class="cls-23" d="M697.16,582.11H753a3.63,3.63,0,0,1,3.63,3.63v36.69a3.64,3.64,0,0,1-3.64,3.64H697.16a3.64,3.64,0,0,1-3.64-3.64V585.75A3.63,3.63,0,0,1,697.16,582.11Z"/><path class="cls-24" d="M753.14,598.05H722.23l-4.72-6.61H697.26a3.64,3.64,0,0,0-3.63,3.64v6.09h.05a3.7,3.7,0,0,0-.05.52v36.69a3.65,3.65,0,0,0,3.63,3.64h55.88a3.65,3.65,0,0,0,3.64-3.64V601.69A3.65,3.65,0,0,0,753.14,598.05Z" transform="translate(0 -14.56)"/><g class="cls-25"><path class="cls-3" d="M707.39,598.09a7.8,7.8,0,1,0,7.8,7.8A7.8,7.8,0,0,0,707.39,598.09Z" transform="translate(0 -14.56)"/><polygon class="cls-24" points="710.98 587.72 706.02 592.68 703.75 590.41 702.22 591.94 706.02 595.73 712.51 589.24 710.98 587.72"/></g><path class="cls-32" d="M724.5,618.46v2.81h0s0,0,0,.06h0c0,1.44,2.86,2.6,6.4,2.6s6.4-1.17,6.4-2.6h0a.46.46,0,0,0,0-.06h0v-2.81l-6.4,2Zm15.34.47v-.21a.2.2,0,0,0-.09-.18v-1.64l2-.61L730.89,613l-10.83,3.33,10.83,3.33,8.56-2.63v1.55a.2.2,0,0,0-.09.18v.21a.21.21,0,0,0,.08.18l-.33,1.83h1l-.33-1.83a.22.22,0,0,0,.08-.18" transform="translate(0 -14.56)"/><rect class="cls-38" x="693.48" y="594.44" width="63.22" height="22.37"/><path class="cls-23" d="M717.37,618.2H697.11a3.64,3.64,0,0,0-3.63,3.63v6.09H724.3Z" transform="translate(0 -14.56)"/><path class="cls-23" d="M756.63,665.13a3.65,3.65,0,0,1-3.64,3.64H697.11a3.65,3.65,0,0,1-3.63-3.64V628.45a3.65,3.65,0,0,1,3.63-3.64H753a3.65,3.65,0,0,1,3.64,3.64Z" transform="translate(0 -14.56)"/><path class="cls-24" d="M753.1,626.2H722.19l-4.71-6.61H697.22a3.64,3.64,0,0,0-3.63,3.63v6.09h.06a3.34,3.34,0,0,0-.06.53v36.69a3.65,3.65,0,0,0,3.63,3.64H753.1a3.65,3.65,0,0,0,3.64-3.64V629.83A3.65,3.65,0,0,0,753.1,626.2Z" transform="translate(0 -14.56)"/><path class="cls-3" d="M707.39,626.56a7.8,7.8,0,1,0,7.8,7.8A7.8,7.8,0,0,0,707.39,626.56Z" transform="translate(0 -14.56)"/><polygon class="cls-24" points="710.98 616.18 706.02 621.15 703.75 618.88 702.22 620.41 706.02 624.21 712.51 617.71 710.98 616.18"/><g class="cls-39"><polygon class="cls-3" points="737.48 631.33 737.48 631.34 718.63 631.34 718.62 631.33 718.62 630.6 718.63 630.59 737.48 630.59 737.48 630.6 737.48 631.33"/><rect class="cls-3" x="725.1" y="631.68" width="1.32" height="8.81"/><rect class="cls-3" x="729.69" y="631.68" width="1.32" height="8.81"/><rect class="cls-3" x="734.29" y="631.68" width="1.32" height="8.81"/><polygon class="cls-3" points="726.78 632.8 724.73 632.8 724.48 631.68 727.03 631.68 726.78 632.8"/><polygon class="cls-3" points="726.75 639.36 724.76 639.36 724.51 640.48 727 640.48 726.75 639.36"/><rect class="cls-3" x="720.5" y="631.68" width="1.32" height="8.81"/><polygon class="cls-3" points="722.18 632.8 720.13 632.8 719.88 631.68 722.44 631.68 722.18 632.8"/><polygon class="cls-3" points="722.16 639.36 720.16 639.36 719.91 640.48 722.4 640.48 722.16 639.36"/><polygon class="cls-3" points="731.37 632.8 729.33 632.8 729.07 631.68 731.63 631.68 731.37 632.8"/><polygon class="cls-3" points="731.35 639.36 729.36 639.36 729.1 640.48 731.6 640.48 731.35 639.36"/><polygon class="cls-3" points="735.97 632.8 733.93 632.8 733.67 631.68 736.23 631.68 735.97 632.8"/><polygon class="cls-3" points="735.95 639.36 733.95 639.36 733.71 640.48 736.19 640.48 735.95 639.36"/><polygon class="cls-3" points="728.05 627.23 737.49 630.69 718.62 630.69 728.05 627.23"/><polygon class="cls-3" points="738.88 642.36 738.88 642.36 717.23 642.36 717.22 642.36 717.22 641.81 717.23 641.81 738.88 641.81 738.88 641.81 738.88 642.36"/><polygon class="cls-3" points="737.35 641.36 737.34 641.36 718.76 641.36 718.76 641.36 718.76 640.81 718.76 640.8 737.34 640.8 737.35 640.81 737.35 641.36"/><path class="cls-3" d="M740.21,657.9H715.9v-.55h24.31Z" transform="translate(0 -14.56)"/></g><path class="cls-23" d="M788.44,618.2H768.18a3.64,3.64,0,0,0-3.63,3.63v6.09h30.82Z" transform="translate(0 -14.56)"/><path class="cls-23" d="M768.18,610.25h55.88a3.63,3.63,0,0,1,3.63,3.63v36.69a3.63,3.63,0,0,1-3.63,3.63H768.18a3.64,3.64,0,0,1-3.64-3.64V613.89A3.64,3.64,0,0,1,768.18,610.25Z"/><path class="cls-24" d="M824.16,626.2H793.25l-4.72-6.61H768.28a3.64,3.64,0,0,0-3.63,3.63v6.09h.05a3.47,3.47,0,0,0-.05.53v36.69a3.65,3.65,0,0,0,3.63,3.64h55.88a3.65,3.65,0,0,0,3.64-3.64V629.83A3.65,3.65,0,0,0,824.16,626.2Z" transform="translate(0 -14.56)"/><path class="cls-3" d="M778.46,626.56a7.8,7.8,0,1,0,7.8,7.8A7.8,7.8,0,0,0,778.46,626.56Z" transform="translate(0 -14.56)"/><polygon class="cls-24" points="782.05 616.18 777.08 621.15 774.81 618.88 773.28 620.41 777.08 624.21 783.58 617.71 782.05 616.18"/><g class="cls-35"><path class="cls-3" d="M795.93,644l-9.39,11c-.18.23.26.62.44.85a.42.42,0,0,0,.33.18.42.42,0,0,0,.33-.18L796.82,644Z" transform="translate(0 -14.56)"/><path class="cls-3" d="M810.72,654.84,801.45,644h-.89l9.06,11.67a.4.4,0,0,0,.66,0c.18-.23.62-.62.44-.85" transform="translate(0 -14.56)"/><polygon class="cls-3" points="803.58 634.35 793.88 634.35 794.8 633.24 802.65 633.24 803.58 634.35"/><polygon class="cls-3" points="801.75 632.14 795.72 632.14 796.29 631.45 801.17 631.45 801.75 632.14"/><polygon class="cls-3" points="797.13 630.2 796.75 630.65 800.71 630.65 800.33 630.2 797.13 630.2"/><polygon class="cls-3" points="805.9 637.68 791.56 637.68 792.93 636.04 804.53 636.04 805.9 637.68"/><polygon class="cls-3" points="808.96 641.57 788.5 641.57 790.46 639.23 807 639.23 808.96 641.57"/></g><rect class="cls-19" x="872.41" y="545.72" width="171.33" height="144.31" rx="8.59" ry="8.59"/><rect class="cls-20" x="875.84" y="530.43" width="164.46" height="140.55" rx="5.15" ry="5.15"/><path class="cls-21" d="M1035.15,548.43a1.74,1.74,0,0,1,1.72,1.72V680.39a1.74,1.74,0,0,1-1.72,1.72H881a1.74,1.74,0,0,1-1.72-1.72V550.14a1.74,1.74,0,0,1,1.72-1.72h154.16m0-6.87H881a8.61,8.61,0,0,0-8.59,8.59V680.39A8.61,8.61,0,0,0,881,689h154.16a8.61,8.61,0,0,0,8.59-8.59V550.14a8.61,8.61,0,0,0-8.59-8.59Z" transform="translate(0 -14.56)"/><rect class="cls-9" x="908.42" y="523.02" width="96.92" height="26.13"/><rect class="cls-19" x="878.75" y="532.97" width="29.67" height="16.17"/><rect class="cls-19" x="1005.34" y="532.97" width="31.72" height="16.17"/><polygon class="cls-40" points="968.16 551.86 875.15 551.86 892.75 652.87 955.73 653.97 968.16 551.86"/><path class="cls-23" d="M916.39,562.87H896.14a3.65,3.65,0,0,0-3.63,3.63v6.09h30.82Z" transform="translate(0 -14.56)"/><path class="cls-23" d="M896.14,554.93H952a3.63,3.63,0,0,1,3.63,3.63v36.69a3.64,3.64,0,0,1-3.64,3.64H896.14a3.64,3.64,0,0,1-3.64-3.64V558.56A3.63,3.63,0,0,1,896.14,554.93Z"/><path class="cls-24" d="M952.12,570.87H921.21l-4.72-6.61H896.24a3.64,3.64,0,0,0-3.63,3.63V574h.05a4,4,0,0,0-.05.52V611.2a3.65,3.65,0,0,0,3.63,3.64h55.88a3.65,3.65,0,0,0,3.64-3.64V574.51A3.65,3.65,0,0,0,952.12,570.87Z" transform="translate(0 -14.56)"/><g class="cls-25"><path class="cls-3" d="M906.37,570.55a7.8,7.8,0,1,0,7.8,7.8A7.8,7.8,0,0,0,906.37,570.55Z" transform="translate(0 -14.56)"/><polygon class="cls-24" points="909.96 560.17 905 565.14 902.73 562.87 901.19 564.4 905 568.2 911.49 561.7 909.96 560.17"/></g><rect class="cls-41" x="892.46" y="564.03" width="63.22" height="35.16"/><g class="cls-26"><polygon class="cls-3" points="938.69 573.37 938.68 573.37 921.55 573.37 921.55 573.37 921.55 572.7 921.55 572.7 938.68 572.7 938.69 572.7 938.69 573.37"/><rect class="cls-3" x="927.43" y="573.68" width="1.2" height="8"/><rect class="cls-3" x="931.6" y="573.68" width="1.2" height="8"/><rect class="cls-3" x="935.78" y="573.68" width="1.2" height="8"/><polygon class="cls-3" points="928.95 574.71 927.1 574.71 926.86 573.68 929.19 573.68 928.95 574.71"/><polygon class="cls-3" points="928.93 580.66 927.12 580.66 926.9 581.68 929.16 581.68 928.93 580.66"/><rect class="cls-3" x="923.25" y="573.68" width="1.2" height="8"/><polygon class="cls-3" points="924.78 574.71 922.92 574.71 922.69 573.68 925.01 573.68 924.78 574.71"/><polygon class="cls-3" points="924.75 580.66 922.95 580.66 922.72 581.68 924.98 581.68 924.75 580.66"/><polygon class="cls-3" points="933.13 574.71 931.27 574.71 931.04 573.68 933.37 573.68 933.13 574.71"/><polygon class="cls-3" points="933.11 580.66 931.3 580.66 931.07 581.68 933.34 581.68 933.11 580.66"/><polygon class="cls-3" points="937.31 574.71 935.45 574.71 935.22 573.68 937.54 573.68 937.31 574.71"/><polygon class="cls-3" points="937.29 580.66 935.48 580.66 935.25 581.68 937.51 581.68 937.29 580.66"/><polygon class="cls-3" points="930.12 569.64 938.69 572.78 921.55 572.78 930.12 569.64"/><path class="cls-3" d="M940,597.94H920.27v-.5H940Z" transform="translate(0 -14.56)"/><polygon class="cls-3" points="938.56 582.48 938.55 582.48 921.67 582.48 921.67 582.48 921.67 581.98 921.67 581.98 938.55 581.98 938.56 581.98 938.56 582.48"/><polygon class="cls-3" points="941.16 584.28 941.15 584.28 919.08 584.28 919.07 584.28 919.07 583.78 919.08 583.78 941.15 583.78 941.16 583.78 941.16 584.28"/></g><path class="cls-23" d="M916.39,590.23H896.14a3.64,3.64,0,0,0-3.63,3.63V600h30.82Z" transform="translate(0 -14.56)"/><path class="cls-23" d="M955.65,637.17A3.65,3.65,0,0,1,952,640.8H896.14a3.64,3.64,0,0,1-3.63-3.63V600.48a3.65,3.65,0,0,1,3.63-3.63H952a3.65,3.65,0,0,1,3.64,3.63Z" transform="translate(0 -14.56)"/><path class="cls-24" d="M952.12,598.23H921.21l-4.72-6.61H896.24a3.64,3.64,0,0,0-3.63,3.63v6.09h.05a4.06,4.06,0,0,0-.05.52v36.69a3.64,3.64,0,0,0,3.63,3.64h55.88a3.65,3.65,0,0,0,3.64-3.64V601.87A3.65,3.65,0,0,0,952.12,598.23Z" transform="translate(0 -14.56)"/><g class="cls-25"><path class="cls-3" d="M906.37,598.27a7.8,7.8,0,1,0,7.8,7.8A7.8,7.8,0,0,0,906.37,598.27Z" transform="translate(0 -14.56)"/><polygon class="cls-24" points="909.96 587.89 905 592.85 902.73 590.59 901.19 592.12 905 595.91 911.49 589.41 909.96 587.89"/></g><path class="cls-32" d="M923.47,618.64v2.81h0s0,0,0,.06h0c0,1.44,2.86,2.61,6.4,2.61s6.4-1.17,6.4-2.61h0a.22.22,0,0,0,0-.06h0v-2.81l-6.4,2Zm15.34.47v-.21a.2.2,0,0,0-.1-.18v-1.64l2-.61-10.83-3.33L919,616.48l10.83,3.33,8.57-2.63v1.55a.21.21,0,0,0-.09.18v.21a.21.21,0,0,0,.08.17l-.33,1.83h1l-.33-1.83a.21.21,0,0,0,.08-.17" transform="translate(0 -14.56)"/><rect class="cls-42" x="892.46" y="594.62" width="63.22" height="22.37"/><path class="cls-23" d="M916.35,618.37H896.09a3.64,3.64,0,0,0-3.63,3.63v6.1h30.82Z" transform="translate(0 -14.56)"/><path class="cls-23" d="M955.61,665.31a3.65,3.65,0,0,1-3.64,3.63H896.09a3.65,3.65,0,0,1-3.63-3.63V628.62a3.64,3.64,0,0,1,3.63-3.63H952a3.65,3.65,0,0,1,3.64,3.63Z" transform="translate(0 -14.56)"/><path class="cls-24" d="M952.07,626.37H921.17l-4.72-6.61H896.19a3.65,3.65,0,0,0-3.63,3.63v6.09h.05a3.34,3.34,0,0,0-.05.52V666.7a3.65,3.65,0,0,0,3.63,3.64h55.88a3.65,3.65,0,0,0,3.64-3.64V630A3.65,3.65,0,0,0,952.07,626.37Z" transform="translate(0 -14.56)"/><path class="cls-3" d="M906.37,626.74a7.8,7.8,0,1,0,7.8,7.8A7.8,7.8,0,0,0,906.37,626.74Z" transform="translate(0 -14.56)"/><polygon class="cls-24" points="909.96 616.36 905 621.33 902.73 619.05 901.19 620.58 905 624.38 911.49 617.89 909.96 616.36"/><g class="cls-35"><path class="cls-3" d="M931.27,654.08h-4.79a.62.62,0,0,0-.63.83l0,.05a.57.57,0,0,0,.32.32,1,1,0,0,0,.36.06h4.72c.44,0,.7-.24.71-.61s-.26-.64-.71-.64" transform="translate(0 -14.56)"/><path class="cls-3" d="M931.17,656.17h-4.51c-.45,0-.73.25-.73.63a.59.59,0,0,0,.43.57,1,1,0,0,0,.28,0h4.52c.45,0,.73-.25.73-.63a.64.64,0,0,0-.71-.61" transform="translate(0 -14.56)"/><path class="cls-3" d="M926.7,658.24h-.1a3.11,3.11,0,0,0,1.18,1.08,2.45,2.45,0,0,0,1.12.27,3,3,0,0,0,2.3-1.35h-4.5Z" transform="translate(0 -14.56)"/><path class="cls-3" d="M932.51,650l-2.83.74v2.1a.88.88,0,0,0,.87.88h0a.88.88,0,0,0,.88-.87V652l1.53-.4a.88.88,0,0,0-.44-1.7" transform="translate(0 -14.56)"/><path class="cls-3" d="M932.51,647.32l-7,1.82-.68.18a.87.87,0,0,0-.65,1,.85.85,0,0,0,.08.49.83.83,0,0,0,.42.42h0l1.79.82,0,.82a.81.81,0,0,0,0,.2.87.87,0,0,0,.62.62.72.72,0,0,0,.22,0h0a.88.88,0,0,0,.86-.9l-.05-1.9-.85-.39L933,649a.88.88,0,0,0-.44-1.69" transform="translate(0 -14.56)"/><path class="cls-3" d="M932.51,644.69l-4.74,1.23-2.28.59-.65.17a.88.88,0,0,0-.63,1.07s0,.09,0,.13a.85.85,0,0,0,.45.45.84.84,0,0,0,.35.08l.22,0,1.65-.43,2.27-.59,3.74-1a.88.88,0,0,0-.44-1.7" transform="translate(0 -14.56)"/><path class="cls-3" d="M924.3,645.31a.85.85,0,0,0,.37.37.87.87,0,0,0,.4.1.81.81,0,0,0,.22,0l1.84-.48,5.83-1.52a.84.84,0,0,0,.44-.27.88.88,0,0,0,.19-.79l0-.14a.88.88,0,0,0-1-.49l-.43.11-6.4,1.66-.84.22a.88.88,0,0,0-.63,1.07,1.05,1.05,0,0,0,.08.18" transform="translate(0 -14.56)"/><path class="cls-3" d="M924.22,642.49a.88.88,0,0,0,.77.65h.08l.22,0,4.83-1.25a.88.88,0,0,0,.63-1,.25.25,0,0,1,0,0,.87.87,0,0,0-.67-.63.82.82,0,0,0-.4,0l-4.82,1.25a.88.88,0,0,0-.65.93,1.32,1.32,0,0,0,0,.14" transform="translate(0 -14.56)"/></g><rect class="cls-19" x="1071.35" y="545.72" width="171.34" height="144.31" rx="8.59" ry="8.59"/><rect class="cls-20" x="1074.78" y="530.43" width="164.46" height="140.55" rx="5.15" ry="5.15"/><path class="cls-21" d="M1234.1,548.43a1.74,1.74,0,0,1,1.72,1.72V680.39a1.74,1.74,0,0,1-1.72,1.72H1079.94a1.74,1.74,0,0,1-1.72-1.72V550.14a1.74,1.74,0,0,1,1.72-1.72H1234.1m0-6.87H1079.94a8.61,8.61,0,0,0-8.59,8.59V680.39a8.61,8.61,0,0,0,8.59,8.59H1234.1a8.61,8.61,0,0,0,8.59-8.59V550.14a8.61,8.61,0,0,0-8.59-8.59Z" transform="translate(0 -14.56)"/><rect class="cls-9" x="1105.21" y="523.02" width="94.42" height="26.13"/><rect class="cls-19" x="1077.69" y="532.97" width="27.53" height="16.17"/><rect class="cls-19" x="1199.64" y="532.97" width="36.36" height="16.17"/><polygon class="cls-43" points="1166.99 577.97 1079.37 577.97 1093.92 652.8 1156.9 653.9 1166.99 577.97"/><path class="cls-23" d="M1117.57,590.17h-20.26a3.64,3.64,0,0,0-3.63,3.63v6.09h30.82Z" transform="translate(0 -14.56)"/><path class="cls-23" d="M1156.83,637.11a3.65,3.65,0,0,1-3.64,3.63h-55.88a3.64,3.64,0,0,1-3.63-3.63V600.42a3.64,3.64,0,0,1,3.63-3.64h55.88a3.65,3.65,0,0,1,3.64,3.64Z" transform="translate(0 -14.56)"/><path class="cls-24" d="M1153.29,598.17h-30.91l-4.72-6.61h-20.25a3.64,3.64,0,0,0-3.63,3.63v6.09h.05a3.58,3.58,0,0,0-.05.53v36.69a3.64,3.64,0,0,0,3.63,3.64h55.88a3.65,3.65,0,0,0,3.64-3.64V601.8A3.64,3.64,0,0,0,1153.29,598.17Z" transform="translate(0 -14.56)"/><g class="cls-25"><path class="cls-3" d="M1107.54,598.21a7.8,7.8,0,1,0,7.8,7.8A7.8,7.8,0,0,0,1107.54,598.21Z" transform="translate(0 -14.56)"/><polygon class="cls-24" points="1111.13 587.83 1106.17 592.79 1103.9 590.52 1102.36 592.05 1106.17 595.85 1112.66 589.35 1111.13 587.83"/></g><path class="cls-32" d="M1124.65,618.57v2.81h0s0,0,0,.06h0c0,1.44,2.86,2.61,6.4,2.61s6.4-1.17,6.4-2.61h0s0,0,0-.06h0v-2.81l-6.4,2ZM1140,619v-.21a.2.2,0,0,0-.1-.18V617l2-.61L1131,613.08l-10.83,3.33,10.83,3.33,8.57-2.63v1.55a.21.21,0,0,0-.09.18V619a.2.2,0,0,0,.08.17l-.33,1.83h1l-.33-1.83a.2.2,0,0,0,.09-.17" transform="translate(0 -14.56)"/><rect class="cls-44" x="1093.63" y="594.56" width="63.22" height="22.37"/><path class="cls-23" d="M1117,618.07H1096.7a3.64,3.64,0,0,0-3.63,3.63v6.09h30.83Z" transform="translate(0 -14.56)"/><path class="cls-23" d="M1096.7,610.13h55.88a3.64,3.64,0,0,1,3.64,3.64v36.69a3.63,3.63,0,0,1-3.63,3.63H1096.7a3.64,3.64,0,0,1-3.64-3.64V613.77A3.64,3.64,0,0,1,1096.7,610.13Z"/><path class="cls-24" d="M1152.68,626.07h-30.91l-4.71-6.61H1096.8a3.64,3.64,0,0,0-3.63,3.63v6.09h.06a3.29,3.29,0,0,0-.06.52V666.4a3.65,3.65,0,0,0,3.63,3.64h55.88a3.65,3.65,0,0,0,3.64-3.64V629.71A3.65,3.65,0,0,0,1152.68,626.07Z" transform="translate(0 -14.56)"/><path class="cls-3" d="M1107,626.44a7.8,7.8,0,1,0,7.8,7.8A7.8,7.8,0,0,0,1107,626.44Z" transform="translate(0 -14.56)"/><polygon class="cls-24" points="1110.57 616.06 1105.6 621.02 1103.33 618.75 1101.8 620.28 1105.6 624.08 1112.1 617.58 1110.57 616.06"/><g class="cls-35"><path class="cls-3" d="M1131.18,658a2.61,2.61,0,0,1-2.61-2.61.59.59,0,1,1,1.18,0,1.43,1.43,0,0,0,1.43,1.43.59.59,0,1,1,0,1.18m2.31-6.26c-.67-1.1-1.33-2-1.36-2l-.48-.66-.48-.65-.48.65-.47.66s-.69.95-1.35,2a8,8,0,0,0-1.47,3.64,3.78,3.78,0,0,0,7.55,0,8.08,8.08,0,0,0-1.47-3.64" transform="translate(0 -14.56)"/><path class="cls-3" d="M1125.59,652a2.2,2.2,0,0,1-2.2-2.2.5.5,0,0,1,1,0,1.2,1.2,0,0,0,1.21,1.2.5.5,0,0,1,0,1m1.95-5.28c-.56-.93-1.12-1.7-1.14-1.73l-.4-.55-.4-.55-.4.55-.4.55s-.58.8-1.15,1.73a6.76,6.76,0,0,0-1.24,3.07,3.18,3.18,0,0,0,6.37,0,6.76,6.76,0,0,0-1.24-3.07" transform="translate(0 -14.56)"/><path class="cls-3" d="M1135.55,648.58a2.2,2.2,0,0,1-2.19-2.19.5.5,0,1,1,1,0,1.21,1.21,0,0,0,1.2,1.21.49.49,0,1,1,0,1m1.95-5.28c-.57-.93-1.12-1.69-1.14-1.73L1136,641l-.4-.55-.4.55-.4.55s-.58.8-1.14,1.73a6.72,6.72,0,0,0-1.24,3.07,3.18,3.18,0,0,0,6.37,0,6.77,6.77,0,0,0-1.24-3.07" transform="translate(0 -14.56)"/></g><rect class="cls-19" x="1275.19" y="545.72" width="171.34" height="144.31" rx="8.59" ry="8.59"/><rect class="cls-20" x="1278.63" y="530.43" width="164.46" height="140.55" rx="5.15" ry="5.15"/><path class="cls-21" d="M1437.94,548.43a1.74,1.74,0,0,1,1.72,1.72V680.39a1.74,1.74,0,0,1-1.72,1.72H1283.78a1.74,1.74,0,0,1-1.72-1.72V550.14a1.74,1.74,0,0,1,1.72-1.72h154.16m0-6.87H1283.78a8.61,8.61,0,0,0-8.59,8.59V680.39a8.61,8.61,0,0,0,8.59,8.59h154.16a8.61,8.61,0,0,0,8.59-8.59V550.14a8.61,8.61,0,0,0-8.59-8.59Z" transform="translate(0 -14.56)"/><rect class="cls-9" x="1336.58" y="523.02" width="39.81" height="26.13"/><rect class="cls-19" x="1281.53" y="532.97" width="55.05" height="16.17"/><rect class="cls-19" x="1376.39" y="532.97" width="63.45" height="16.17"/><path class="cls-45" d="M485.9,116.82a6.89,6.89,0,0,0,6.87,6.87H623.9a6.89,6.89,0,0,0,6.87-6.87V46.16a6.89,6.89,0,0,0-6.87-6.87H515.69a22.7,22.7,0,0,0-12.22,4.32l-12.22,9.87a16.33,16.33,0,0,0-5.35,11.19Z" transform="translate(0 -14.56)"/><path class="cls-46" d="M485.9,108.27a6.89,6.89,0,0,0,6.87,6.87H623.9a6.89,6.89,0,0,0,6.87-6.87V37.61a6.89,6.89,0,0,0-6.87-6.87H515.69a22.7,22.7,0,0,0-12.22,4.32l-12.22,9.87a16.34,16.34,0,0,0-5.35,11.19Z" transform="translate(0 -14.56)"/><use width="23.71" height="23.71" transform="translate(539.41 40.7) scale(1.56)" xlink:href="#New_Symbol_58"/><path class="cls-45" d="M684.41,116.82a6.89,6.89,0,0,0,6.87,6.87H822.4a6.89,6.89,0,0,0,6.87-6.87V46.16a6.89,6.89,0,0,0-6.87-6.87H714.19A22.7,22.7,0,0,0,702,43.61l-12.22,9.87a16.33,16.33,0,0,0-5.35,11.19Z" transform="translate(0 -14.56)"/><path class="cls-46" d="M684.41,108.27a6.89,6.89,0,0,0,6.87,6.87H822.4a6.89,6.89,0,0,0,6.87-6.87V37.61a6.89,6.89,0,0,0-6.87-6.87H714.19A22.7,22.7,0,0,0,702,35.05l-12.22,9.87a16.34,16.34,0,0,0-5.35,11.19Z" transform="translate(0 -14.56)"/><use width="23.71" height="23.71" transform="translate(737.91 40.7) scale(1.56)" xlink:href="#New_Symbol_58"/><path class="cls-45" d="M882.92,116.82a6.89,6.89,0,0,0,6.87,6.87h131.13a6.89,6.89,0,0,0,6.87-6.87V46.16a6.89,6.89,0,0,0-6.87-6.87H912.7a22.7,22.7,0,0,0-12.22,4.32l-12.22,9.87a16.33,16.33,0,0,0-5.35,11.19Z" transform="translate(0 -14.56)"/><path class="cls-46" d="M882.92,108.27a6.89,6.89,0,0,0,6.87,6.87h131.13a6.89,6.89,0,0,0,6.87-6.87V37.61a6.89,6.89,0,0,0-6.87-6.87H912.7a22.7,22.7,0,0,0-12.22,4.32l-12.22,9.87a16.34,16.34,0,0,0-5.35,11.19Z" transform="translate(0 -14.56)"/><use width="23.71" height="23.71" transform="translate(936.42 40.7) scale(1.56)" xlink:href="#New_Symbol_58"/><path class="cls-45" d="M1081.42,116.82a6.89,6.89,0,0,0,6.87,6.87h131.13a6.89,6.89,0,0,0,6.87-6.87V46.16a6.89,6.89,0,0,0-6.87-6.87H1111.2A22.7,22.7,0,0,0,1099,43.61l-12.22,9.87a16.34,16.34,0,0,0-5.35,11.19Z" transform="translate(0 -14.56)"/><path class="cls-46" d="M1081.42,108.27a6.89,6.89,0,0,0,6.87,6.87h131.13a6.89,6.89,0,0,0,6.87-6.87V37.61a6.89,6.89,0,0,0-6.87-6.87H1111.2A22.7,22.7,0,0,0,1099,35.05l-12.22,9.87a16.34,16.34,0,0,0-5.35,11.19Z" transform="translate(0 -14.56)"/><use width="23.71" height="23.71" transform="translate(1134.93 40.7) scale(1.56)" xlink:href="#New_Symbol_58"/><rect class="cls-47" x="1027.93" y="56.09" width="14.73" height="21.7"/><rect class="cls-48" x="1066.44" y="56.09" width="14.74" height="21.7"/><rect class="cls-49" x="829.41" y="56.09" width="14.73" height="21.7"/><rect class="cls-50" x="867.93" y="56.09" width="14.73" height="21.7"/><rect class="cls-51" x="630.9" y="56.09" width="14.82" height="21.7"/><rect class="cls-52" x="669.62" y="56.09" width="14.82" height="21.7"/><polygon class="cls-53" points="1248.43 311.24 1234.15 296.96 1234.15 304.32 1206.95 304.32 1206.95 318.15 1234.15 318.15 1234.15 325.51 1248.43 311.24"/><g class="cls-39"><path class="cls-5" d="M1260.65,315.82h-2.71v2.27h2.22v.85h-2.22v3.51h-1.05V315h3.9Z" transform="translate(0 -14.56)"/><path class="cls-5" d="M1265.41,322.64a1.28,1.28,0,0,1-.51-.78,2,2,0,0,1-1.64.78,1.53,1.53,0,0,1-1.47-.81,2.32,2.32,0,0,1-.13-.91V317l1-.2v3.79c0,.55.05.77.25,1a1,1,0,0,0,.63.24,1.5,1.5,0,0,0,1.24-.86v-3.91l1-.2V321a1.49,1.49,0,0,0,.34,1.13Z" transform="translate(0 -14.56)"/><path class="cls-5" d="M1269.77,317.71h-1.08V321c0,.67.16.88.71.88a1.2,1.2,0,0,0,.51-.11l.12.61a2.16,2.16,0,0,1-1,.23,1.55,1.55,0,0,1-1-.29c-.22-.2-.37-.34-.37-1.09v-3.51h-.65V317h.65a11.72,11.72,0,0,1,.07-1.39l1-.24c0,.39-.1,1.08-.1,1.63H1270Z" transform="translate(0 -14.56)"/><path class="cls-5" d="M1275,322.64a1.28,1.28,0,0,1-.51-.78,2,2,0,0,1-1.64.78,1.53,1.53,0,0,1-1.47-.81,2.32,2.32,0,0,1-.13-.91V317l1-.2v3.79c0,.55.05.77.25,1a1,1,0,0,0,.63.24,1.5,1.5,0,0,0,1.24-.86v-3.91l1-.2V321a1.49,1.49,0,0,0,.34,1.13Z" transform="translate(0 -14.56)"/><path class="cls-5" d="M1279.69,317.89a.81.81,0,0,0-.28-.05,1.14,1.14,0,0,0-1.13,1.11v3.51h-1v-4a3.46,3.46,0,0,0-.21-1.36l1-.25a2.25,2.25,0,0,1,.19.84v.1a1.79,1.79,0,0,1,1.48-.94,1,1,0,0,1,.34.05Z" transform="translate(0 -14.56)"/><path class="cls-5" d="M1281.87,319.94v.13a2,2,0,0,0,.23,1.09,1.42,1.42,0,0,0,1.25.64,1.94,1.94,0,0,0,1.34-.52l.38.6a2.78,2.78,0,0,1-1.88.7c-1.51,0-2.43-1.1-2.43-2.88a3,3,0,0,1,.65-2.11,2,2,0,0,1,1.64-.75,2,2,0,0,1,1.48.59,3,3,0,0,1,.66,2.35v.17Zm1.93-2a1,1,0,0,0-.78-.38c-.76,0-1.14.62-1.14,1.61h2.26A2,2,0,0,0,1283.8,318Z" transform="translate(0 -14.56)"/><path class="cls-5" d="M1291.31,322.62a3.73,3.73,0,0,1-.92,1.67,2.39,2.39,0,0,1-1,.47l-.31-.65a1.65,1.65,0,0,0,.94-.62,3.09,3.09,0,0,0,.45-1.06l-.39.05a15.84,15.84,0,0,0-.52-1.81l-1.21-3.57,1-.23,1,3.42c.1.34.24.91.32,1.28h.07c.09-.37.22-.86.37-1.35l1-3.22h1.11Z" transform="translate(0 -14.56)"/><path class="cls-5" d="M1295.14,319.94v.13a2,2,0,0,0,.23,1.09,1.42,1.42,0,0,0,1.25.64,1.94,1.94,0,0,0,1.34-.52l.38.6a2.78,2.78,0,0,1-1.88.7c-1.51,0-2.43-1.1-2.43-2.88a3,3,0,0,1,.65-2.11,2,2,0,0,1,1.64-.75,2,2,0,0,1,1.48.59,3,3,0,0,1,.66,2.35v.17Zm1.93-2a1,1,0,0,0-.78-.38c-.76,0-1.14.62-1.14,1.61h2.26A2,2,0,0,0,1297.07,318Z" transform="translate(0 -14.56)"/><path class="cls-5" d="M1303.62,322.68a1.25,1.25,0,0,1-.73-.78,1.89,1.89,0,0,1-1.54.72c-1.09,0-1.76-.55-1.76-1.6,0-1.26,1-1.93,2.77-1.93h.38v-.36c0-.64-.09-1.08-.85-1.08a3,3,0,0,0-1.67.62l-.46-.72a4.29,4.29,0,0,1,2.28-.72,1.51,1.51,0,0,1,1.58.87,2.5,2.5,0,0,1,.11,1c0,.39,0,1.23,0,2s0,1.05.45,1.31Zm-1.23-2.92a1.88,1.88,0,0,0-1.42.39,1,1,0,0,0-.28.79c0,.6.3.95.86.95a1.36,1.36,0,0,0,1.14-.72l0-1.39Z" transform="translate(0 -14.56)"/><path class="cls-5" d="M1308.08,317.89a.81.81,0,0,0-.28-.05,1.14,1.14,0,0,0-1.13,1.11v3.51h-1v-4a3.48,3.48,0,0,0-.21-1.36l1-.25a2.25,2.25,0,0,1,.18.84v.1a1.79,1.79,0,0,1,1.48-.94,1,1,0,0,1,.34.05Z" transform="translate(0 -14.56)"/><path class="cls-5" d="M1311.05,322.6a4.14,4.14,0,0,1-2-.58l.36-.72a3.72,3.72,0,0,0,1.75.54.9.9,0,0,0,1-.88c0-.47-.28-.74-.91-.86l-.66-.13a1.47,1.47,0,0,1-1.33-1.51,1.76,1.76,0,0,1,2-1.69,3.46,3.46,0,0,1,1.72.45l-.34.71a2.94,2.94,0,0,0-1.34-.39.83.83,0,0,0-.95.81c0,.39.2.61.77.74l.71.16c1,.23,1.41.8,1.41,1.52A1.9,1.9,0,0,1,1311.05,322.6Z" transform="translate(0 -14.56)"/></g><rect class="cls-54" x="535.92" y="100.58" width="39.81" height="189.39"/><rect class="cls-55" x="734.86" y="100.58" width="39.81" height="192.34"/><rect class="cls-56" x="933.8" y="100.58" width="39.81" height="192.34"/><rect class="cls-57" x="1132.74" y="100.58" width="39.81" height="189.39"/><g class="cls-35"><polygon class="cls-3" points="563.67 534.16 555.89 541.95 548.1 534.16 563.67 534.16"/><polygon class="cls-3" points="764.42 535.78 756.63 543.56 748.85 535.78 764.42 535.78"/><polygon class="cls-3" points="962.38 534.16 954.6 541.95 946.81 534.16 962.38 534.16"/><polygon class="cls-3" points="1160.63 534.16 1152.85 541.95 1145.06 534.16 1160.63 534.16"/></g><path class="cls-23" d="M547.34,422.63H528.13a3.46,3.46,0,0,0-3.45,3.45v5.78h29.23Z" transform="translate(0 -14.56)"/><path class="cls-23" d="M584.59,467.16a3.46,3.46,0,0,1-3.45,3.45h-53a3.46,3.46,0,0,1-3.45-3.45v-34.8a3.45,3.45,0,0,1,3.45-3.45h53a3.46,3.46,0,0,1,3.45,3.45Z" transform="translate(0 -14.56)"/><path class="cls-24" d="M581.23,430.22H551.91L547.44,424H528.22a3.46,3.46,0,0,0-3.45,3.45v5.77h.05a3.42,3.42,0,0,0-.05.5v34.81a3.46,3.46,0,0,0,3.45,3.45h53a3.46,3.46,0,0,0,3.45-3.45V433.67A3.46,3.46,0,0,0,581.23,430.22Z" transform="translate(0 -14.56)"/><path class="cls-30" d="M554.25,447.66l2.6,6.25-1.07,0h-4.13Zm12,0,2.6,6.25h0l-.27,0h-3.85l-1,0Zm-14.73,6.9.14.09.06,0,.13.07.07,0a4.53,4.53,0,0,0,.79.3,5.9,5.9,0,0,0,3.16,0,4.93,4.93,0,0,0,.8-.3,3.63,3.63,0,0,0,.4-.21,3.39,3.39,0,0,0,.4-.29l0,0v-.32h-.08l-2.73-6.55.39,0c.52.06,1.09.11,1.72.15,1,.07,2,.11,3.06.12-.05.52-.11,1-.15,1.56l-.14,1.66-.12,1.66c0,.25,0,.53-.07.82l0,.29c0,.18,0,.36-.06.54s0,.59,0,.85a7.37,7.37,0,0,0,0,.84c0,.42.09.82.16,1.21l-.35,0a7.11,7.11,0,0,0-1.18.29c-.2.07-.4.15-.6.23s-.4.19-.59.29a6.76,6.76,0,0,0-.59.38,4.16,4.16,0,0,0-.6.49l0,0v.4l1.3.06,1.16,0,2.33,0h2.33l1.16,0,.58,0,.72,0v-.4l0,0a4.41,4.41,0,0,0-.6-.49,5.18,5.18,0,0,0-.6-.38,7.19,7.19,0,0,0-1.18-.52,7,7,0,0,0-1.19-.29l-.32,0c.07-.39.13-.81.16-1.22s0-.57,0-.84,0-.53,0-.85,0-.35-.06-.54,0-.19,0-.29c0-.3-.06-.57-.08-.82l-.12-1.66-.14-1.66c0-.51-.1-1-.15-1.56,1,0,2,0,3-.12.63,0,1.2-.09,1.72-.15l.44-.05-2.73,6.57H563v.32l.05,0a2.58,2.58,0,0,0,.4.28l.15.09.06,0,.13.06.07,0a4.67,4.67,0,0,0,.79.3,5.61,5.61,0,0,0,1.57.22,5.87,5.87,0,0,0,1.58-.22,4.93,4.93,0,0,0,.79-.3,2.66,2.66,0,0,0,.4-.22,2.19,2.19,0,0,0,.4-.28l.05,0V454h-.09l-2.72-6.55.22,0,.41.05.26,0,.13,0a1.35,1.35,0,0,0,.45,0,1.75,1.75,0,0,0,.43-.13,1.54,1.54,0,0,0,.44-.25l.06,0v-.21l-.06,0a1.43,1.43,0,0,0-.44-.26,2.15,2.15,0,0,0-.43-.12,1.31,1.31,0,0,0-.45,0l-.13,0-.27,0-.4.05-.41.06-.23,0-.82-.1c-.52-.06-1.09-.11-1.72-.16-.94-.06-1.91-.1-2.94-.11l.09-.77c0-.13,0-.26.06-.4s0-.13,0-.19a2.28,2.28,0,0,0,0-.32,1.75,1.75,0,0,0,0-.33,3,3,0,0,0-.16-.63,2.16,2.16,0,0,0-.13-.32,2.92,2.92,0,0,0-.2-.32l0-.05h-.24l0,.05a2.71,2.71,0,0,0-.2.32c-.05.1-.09.2-.14.32a3,3,0,0,0-.15.63,1.84,1.84,0,0,0,0,.32c0,.1,0,.21,0,.33s0,.13,0,.19,0,.27.06.4l0,.3.06.47c-1.07,0-2.06,0-3,.11-.63,0-1.19.09-1.72.15l-.75.09-.19,0-.41-.06-.41-.05-.26,0-.13,0a1.34,1.34,0,0,0-.46,0,2.17,2.17,0,0,0-.43.12,1.49,1.49,0,0,0-.44.26l-.06,0v.21l.06,0a1.53,1.53,0,0,0,.44.25,1.78,1.78,0,0,0,.43.13,1.4,1.4,0,0,0,.46,0l.13,0,.26,0,.41-.05.15,0-2.71,6.52H551v.32l.05,0a2.26,2.26,0,0,0,.4.29" transform="translate(0 -14.56)"/><path class="cls-58" d="M537.83,430.26a7.4,7.4,0,1,0,7.4,7.4A7.4,7.4,0,0,0,537.83,430.26Z" transform="translate(0 -14.56)"/><polygon class="cls-24" points="541.24 419.66 536.53 424.38 534.38 422.22 532.92 423.67 536.53 427.28 542.69 421.11 541.24 419.66"/><path class="cls-23" d="M747,449.48H727.8a3.46,3.46,0,0,0-3.44,3.45v5.78h29.24Z" transform="translate(0 -14.56)"/><path class="cls-23" d="M784.26,494a3.46,3.46,0,0,1-3.45,3.45h-53a3.46,3.46,0,0,1-3.44-3.45v-34.8a3.45,3.45,0,0,1,3.44-3.45h53a3.46,3.46,0,0,1,3.45,3.45Z" transform="translate(0 -14.56)"/><path class="cls-24" d="M780.9,457.07H751.59l-4.47-6.27H727.9a3.46,3.46,0,0,0-3.45,3.45V460h.05a3.79,3.79,0,0,0-.05.5v34.81a3.46,3.46,0,0,0,3.45,3.45h53a3.46,3.46,0,0,0,3.45-3.45V460.52A3.46,3.46,0,0,0,780.9,457.07Z" transform="translate(0 -14.56)"/><path class="cls-58" d="M737.55,457.42a7.4,7.4,0,1,0,7.4,7.4A7.4,7.4,0,0,0,737.55,457.42Z" transform="translate(0 -14.56)"/><polygon class="cls-24" points="740.96 446.83 736.25 451.54 734.09 449.38 732.64 450.83 736.25 454.44 742.4 448.27 740.96 446.83"/><path class="cls-30" d="M752,480.42v2.93h0s0,0,0,.06h0c0,1.5,3,2.72,6.66,2.72s6.66-1.21,6.66-2.72h0a.25.25,0,0,0,0-.06h0v-2.93l-6.66,2Zm16,.49v-.22a.23.23,0,0,0-.1-.19v-1.7l2.06-.64L758.7,474.7l-11.27,3.46,11.27,3.47,8.92-2.74v1.61a.23.23,0,0,0-.1.19v.22a.23.23,0,0,0,.09.18l-.35,1.9h1l-.34-1.9a.23.23,0,0,0,.08-.18" transform="translate(0 -14.56)"/><path class="cls-23" d="M1146.54,446.94h-19.21a3.46,3.46,0,0,0-3.45,3.45v5.78h29.24Z" transform="translate(0 -14.56)"/><path class="cls-23" d="M1183.78,491.47a3.46,3.46,0,0,1-3.45,3.44h-53a3.45,3.45,0,0,1-3.45-3.44v-34.8a3.46,3.46,0,0,1,3.45-3.45h53a3.46,3.46,0,0,1,3.45,3.45Z" transform="translate(0 -14.56)"/><path class="cls-24" d="M1180.42,454.53H1151.1l-4.47-6.27h-19.21a3.45,3.45,0,0,0-3.45,3.45v5.77h0a3.83,3.83,0,0,0,0,.5v34.81a3.46,3.46,0,0,0,3.45,3.45h53a3.46,3.46,0,0,0,3.45-3.45V458A3.46,3.46,0,0,0,1180.42,454.53Z" transform="translate(0 -14.56)"/><path class="cls-58" d="M1137,454.57a7.4,7.4,0,1,0,7.4,7.4A7.4,7.4,0,0,0,1137,454.57Z" transform="translate(0 -14.56)"/><polygon class="cls-24" points="1140.44 443.97 1135.72 448.68 1133.57 446.53 1132.12 447.98 1135.72 451.58 1141.89 445.42 1140.44 443.97"/><g class="cls-35"><path class="cls-3" d="M1166.31,477.65h-12.82v-1.14h12.18a.61.61,0,0,1,.64.58Zm-12.92-2.85h2.19a.39.39,0,0,1,.4.39v.48h-2.58Zm13.75,2.85v-.55a1.45,1.45,0,0,0-1.47-1.42h-9.08v-.48a1,1,0,0,0-1-1h-2.31v-1.29h-1.66v9.54h1.66v-3.11h12.55v3.11h1.66v-4.77Z" transform="translate(0 -14.56)"/><polygon class="cls-3" points="1162.9 458.32 1164.36 458.32 1164.36 457.33 1165.5 457.33 1165.5 455.78 1164.36 455.78 1164.36 454.67 1162.9 454.67 1162.9 455.78 1161.82 455.78 1161.82 457.33 1162.9 457.33 1162.9 458.32"/><path class="cls-3" d="M1163.66,468a3.08,3.08,0,1,1-3.08,3.09,3.09,3.09,0,0,1,3.08-3.09m0,7.2a4.12,4.12,0,1,0-4.12-4.12,4.11,4.11,0,0,0,4.12,4.12" transform="translate(0 -14.56)"/></g><path class="cls-23" d="M944.81,384.62H925.6a3.46,3.46,0,0,0-3.45,3.44v5.79h29.24Z" transform="translate(0 -14.56)"/><path class="cls-23" d="M982,429.14a3.46,3.46,0,0,1-3.45,3.45h-53a3.46,3.46,0,0,1-3.45-3.45v-34.8a3.46,3.46,0,0,1,3.45-3.45h53a3.46,3.46,0,0,1,3.45,3.45Z" transform="translate(0 -14.56)"/><path class="cls-24" d="M978.7,392.2H949.38l-4.47-6.27H925.7a3.45,3.45,0,0,0-3.44,3.45v5.77h.05a3,3,0,0,0-.05.5v34.8a3.46,3.46,0,0,0,3.44,3.45h53a3.46,3.46,0,0,0,3.45-3.45v-34.8A3.46,3.46,0,0,0,978.7,392.2Z" transform="translate(0 -14.56)"/><path class="cls-58" d="M935.35,392.55a7.4,7.4,0,1,0,7.39,7.4A7.4,7.4,0,0,0,935.35,392.55Z" transform="translate(0 -14.56)"/><polygon class="cls-24" points="938.75 381.96 934.04 386.67 931.89 384.51 930.44 385.97 934.04 389.57 940.21 383.41 938.75 381.96"/><g class="cls-35"><path class="cls-3" d="M957.62,417.53h-2.93c-.29,0-.59,0-.89,0a.49.49,0,0,0-.5.66l0,0a.45.45,0,0,0,.25.25.79.79,0,0,0,.28,0h3.77c.35,0,.56-.2.56-.49s-.2-.51-.57-.52" transform="translate(0 -14.56)"/><path class="cls-3" d="M957.54,419.19h-3.61c-.35,0-.58.21-.58.51a.57.57,0,0,0,0,.12.46.46,0,0,0,.33.33l.22,0h3.61c.36,0,.58-.21.58-.5a.51.51,0,0,0-.57-.49" transform="translate(0 -14.56)"/><path class="cls-3" d="M954,420.86h-.07a2.48,2.48,0,0,0,.94.86,2,2,0,0,0,.9.22,2.35,2.35,0,0,0,1.83-1.08H954Z" transform="translate(0 -14.56)"/><path class="cls-3" d="M958.61,414.23l-2.26.59v1.68a.7.7,0,0,0,.69.7h0a.7.7,0,0,0,.7-.7v-.6l1.22-.32a.7.7,0,1,0-.35-1.36" transform="translate(0 -14.56)"/><path class="cls-3" d="M958.61,412.13,953,413.58l-.54.14a.69.69,0,0,0-.52.76.65.65,0,0,0,.06.39.67.67,0,0,0,.33.33h0l1.42.66,0,.65a.8.8,0,0,0,0,.17.69.69,0,0,0,.49.49.58.58,0,0,0,.18,0h0a.7.7,0,0,0,.68-.72l0-1.53-.68-.31,4.46-1.16a.7.7,0,0,0,.51-.86.71.71,0,0,0-.86-.5" transform="translate(0 -14.56)"/><path class="cls-3" d="M958.61,410l-3.79,1-1.82.47-.52.14a.7.7,0,0,0-.5.86.73.73,0,0,0,0,.1.69.69,0,0,0,.36.36.67.67,0,0,0,.28.06l.18,0,1.32-.34,1.82-.47,3-.78a.7.7,0,1,0-.35-1.35" transform="translate(0 -14.56)"/><path class="cls-3" d="M952,410.52a.74.74,0,0,0,.3.3.81.81,0,0,0,.32.07l.18,0,1.46-.38,4.66-1.21a.78.78,0,0,0,.36-.22.73.73,0,0,0,.15-.64l0-.11a.67.67,0,0,0-.34-.35.69.69,0,0,0-.47,0l-.35.09-5.11,1.33-.67.18a.69.69,0,0,0-.5.85.72.72,0,0,0,.06.15" transform="translate(0 -14.56)"/><path class="cls-3" d="M952,408.27a.69.69,0,0,0,.61.52h.06l.18,0,3.85-1a.7.7,0,0,0,.51-.82.09.09,0,0,1,0,0,.69.69,0,0,0-.53-.51.6.6,0,0,0-.32,0l-3.85,1a.7.7,0,0,0-.52.74s0,.07,0,.11" transform="translate(0 -14.56)"/></g><path class="cls-23" d="M443.9,290.95H424.68a3.45,3.45,0,0,0-3.45,3.44v5.78h29.24Z" transform="translate(0 -14.56)"/><path class="cls-23" d="M481.14,335.47a3.47,3.47,0,0,1-3.45,3.44h-53a3.46,3.46,0,0,1-3.45-3.44v-34.8a3.45,3.45,0,0,1,3.45-3.44h53a3.46,3.46,0,0,1,3.45,3.44Z" transform="translate(0 -14.56)"/><path class="cls-24" d="M477.79,298.54H448.47L444,292.27H424.78a3.46,3.46,0,0,0-3.45,3.45v5.78h.05a3.43,3.43,0,0,0-.05.5v34.8a3.46,3.46,0,0,0,3.45,3.45h53a3.46,3.46,0,0,0,3.45-3.45V302A3.46,3.46,0,0,0,477.79,298.54Z" transform="translate(0 -14.56)"/><path class="cls-58" d="M434.43,298.89a7.4,7.4,0,1,0,7.4,7.4A7.4,7.4,0,0,0,434.43,298.89Z" transform="translate(0 -14.56)"/><polygon class="cls-24" points="437.84 288.29 433.13 293 430.98 290.85 429.52 292.3 433.13 295.9 439.29 289.74 437.84 288.29"/><g class="cls-35"><path class="cls-3" d="M457.39,328.85a2.47,2.47,0,0,1-2.47-2.47.56.56,0,1,1,1.11,0,1.36,1.36,0,0,0,1.36,1.36.56.56,0,1,1,0,1.11m2.19-5.93c-.64-1-1.26-1.91-1.29-1.95l-.45-.62-.45-.62-.45.62-.45.62s-.65.9-1.29,1.95a7.62,7.62,0,0,0-1.39,3.45,3.58,3.58,0,0,0,7.17,0,7.63,7.63,0,0,0-1.39-3.45" transform="translate(0 -14.56)"/><path class="cls-3" d="M452.09,323.13A2.09,2.09,0,0,1,450,321a.47.47,0,0,1,.94,0,1.14,1.14,0,0,0,1.14,1.14.47.47,0,0,1,0,.94m1.85-5c-.54-.88-1.06-1.61-1.09-1.64l-.38-.52-.38-.53-.38.53-.38.52s-.55.76-1.09,1.64a6.47,6.47,0,0,0-1.17,2.91,3,3,0,0,0,6,0,6.45,6.45,0,0,0-1.17-2.91" transform="translate(0 -14.56)"/><path class="cls-3" d="M461.54,319.89a2.09,2.09,0,0,1-2.08-2.08.47.47,0,1,1,.94,0,1.14,1.14,0,0,0,1.14,1.14.47.47,0,0,1,.47.47.47.47,0,0,1-.47.48m1.85-5c-.54-.88-1.06-1.6-1.08-1.64l-.38-.53-.38-.52-.38.52-.39.53s-.55.76-1.08,1.64a6.39,6.39,0,0,0-1.17,2.91,3,3,0,0,0,6,0,6.38,6.38,0,0,0-1.17-2.91" transform="translate(0 -14.56)"/></g><path class="cls-23" d="M683.32,294.68H664.1a3.46,3.46,0,0,0-3.45,3.45v5.78h29.24Z" transform="translate(0 -14.56)"/><rect class="cls-23" x="660.66" y="286.4" width="59.9" height="41.7" rx="3.45" ry="3.45"/><path class="cls-24" d="M717.21,302.27H687.89L683.41,296H664.2a3.45,3.45,0,0,0-3.45,3.45v5.77h0a3.46,3.46,0,0,0,0,.5v34.8A3.46,3.46,0,0,0,664.2,344h53a3.46,3.46,0,0,0,3.45-3.46v-34.8A3.46,3.46,0,0,0,717.21,302.27Z" transform="translate(0 -14.56)"/><path class="cls-58" d="M673.81,302a7.4,7.4,0,1,0,7.4,7.4A7.4,7.4,0,0,0,673.81,302Z" transform="translate(0 -14.56)"/><polygon class="cls-24" points="677.21 291.37 672.5 296.08 670.35 293.93 668.9 295.38 672.5 298.98 678.67 292.82 677.21 291.37"/><g class="cls-35"><path class="cls-3" d="M696.65,327.86a1,1,0,1,1-1-1,1,1,0,0,1,1,1" transform="translate(0 -14.56)"/><path class="cls-3" d="M703.47,322.09a1.05,1.05,0,0,1-.76-.32,10,10,0,0,0-14.14,0,1.06,1.06,0,1,1-1.52-1.48,12.16,12.16,0,0,1,17.18,0,1.06,1.06,0,0,1-.76,1.8" transform="translate(0 -14.56)"/><path class="cls-3" d="M700.87,324.28a1.06,1.06,0,0,1-.73-.3,6.69,6.69,0,0,0-9,0,1.06,1.06,0,1,1-1.47-1.54,8.81,8.81,0,0,1,11.92,0,1.06,1.06,0,0,1-.74,1.83" transform="translate(0 -14.56)"/><path class="cls-3" d="M693,326.53a1.07,1.07,0,0,1-.83-.4,1.05,1.05,0,0,1,.17-1.49,5.53,5.53,0,0,1,6.58-.06,1.06,1.06,0,0,1-1.3,1.69,3.2,3.2,0,0,0-2-.62,3.23,3.23,0,0,0-2,.65,1.07,1.07,0,0,1-.66.23" transform="translate(0 -14.56)"/></g><path class="cls-23" d="M896.24,294.68H877a3.46,3.46,0,0,0-3.45,3.45v5.78h29.24Z" transform="translate(0 -14.56)"/><rect class="cls-23" x="873.58" y="286.4" width="59.9" height="41.7" rx="3.45" ry="3.45"/><path class="cls-24" d="M930.13,302.27H900.81L896.33,296H877.12a3.45,3.45,0,0,0-3.44,3.45v5.77h0a3.41,3.41,0,0,0,0,.5v34.8a3.46,3.46,0,0,0,3.44,3.46h53a3.47,3.47,0,0,0,3.45-3.46v-34.8A3.46,3.46,0,0,0,930.13,302.27Z" transform="translate(0 -14.56)"/><path class="cls-58" d="M886.73,302a7.4,7.4,0,1,0,7.4,7.4A7.4,7.4,0,0,0,886.73,302Z" transform="translate(0 -14.56)"/><polygon class="cls-24" points="890.14 291.37 885.43 296.08 883.27 293.93 881.82 295.38 885.43 298.98 891.59 292.82 890.14 291.37"/><path class="cls-30" d="M899.73,322a.26.26,0,0,0,.35.12l8.28-4.21,8.4,4.17a.26.26,0,0,0,.35-.12l.14-.28a.26.26,0,0,0-.12-.35l-8.57-4.25-.07,0a.27.27,0,0,0-.27,0l-8.53,4.33a.26.26,0,0,0-.11.35Z" transform="translate(0 -14.56)"/><path class="cls-30" d="M909.26,322a.26.26,0,0,1-.26.26h-1.28a.26.26,0,0,1-.26-.26V320.7a.27.27,0,0,1,.26-.26H909a.27.27,0,0,1,.26.26Zm-1.58,3.43a.26.26,0,0,1-.26.26H905.9a.26.26,0,0,1-.26-.26v-1.52a.26.26,0,0,1,.26-.26h1.52a.26.26,0,0,1,.26.26Zm0,2.5a.25.25,0,0,1-.26.26H905.9a.26.26,0,0,1-.26-.26v-1.52a.26.26,0,0,1,.26-.26h1.52a.25.25,0,0,1,.26.26Zm-2.65-2.5a.26.26,0,0,1-.26.26h-1.52a.26.26,0,0,1-.26-.26v-1.52a.27.27,0,0,1,.26-.26h1.52a.27.27,0,0,1,.26.26Zm0,2.5a.26.26,0,0,1-.26.26h-1.52a.26.26,0,0,1-.26-.26v-1.52a.26.26,0,0,1,.26-.26h1.52a.26.26,0,0,1,.26.26Zm8.75,2.05h2.16a.26.26,0,0,0,.26-.26v-6.89a.46.46,0,0,0-.23-.38l-7.38-3.65a.57.57,0,0,0-.47,0l-7.37,3.65a.47.47,0,0,0-.23.38v6.89a.26.26,0,0,0,.26.26h8.8a.26.26,0,0,0,.26-.26v-5.81a.26.26,0,0,1,.26-.26h3.15a.27.27,0,0,1,.26.26v5.81a.26.26,0,0,0,.26.26" transform="translate(0 -14.56)"/><path class="cls-23" d="M1078.87,294.68h-19.21a3.46,3.46,0,0,0-3.45,3.44v5.78h29.24Z" transform="translate(0 -14.56)"/><path class="cls-23" d="M1116.11,339.2a3.46,3.46,0,0,1-3.45,3.45h-53a3.46,3.46,0,0,1-3.45-3.45v-34.8a3.46,3.46,0,0,1,3.45-3.44h53a3.45,3.45,0,0,1,3.45,3.44Z" transform="translate(0 -14.56)"/><path class="cls-24" d="M1112.75,302.27h-29.31L1079,296h-19.21a3.46,3.46,0,0,0-3.44,3.45v5.77h.05a3.05,3.05,0,0,0-.05.5v34.8a3.46,3.46,0,0,0,3.44,3.45h53a3.46,3.46,0,0,0,3.45-3.45v-34.8A3.46,3.46,0,0,0,1112.75,302.27Z" transform="translate(0 -14.56)"/><path class="cls-58" d="M1069.4,302.62a7.4,7.4,0,1,0,7.39,7.41A7.4,7.4,0,0,0,1069.4,302.62Z" transform="translate(0 -14.56)"/><polygon class="cls-24" points="1072.81 292.03 1068.1 296.74 1065.94 294.58 1064.49 296.03 1068.1 299.63 1074.26 293.47 1072.81 292.03"/><g class="cls-35"><path class="cls-3" d="M1091.68,327.6h-3.82a.49.49,0,0,0-.5.66l0,0a.45.45,0,0,0,.25.25.76.76,0,0,0,.28.05h3.77a.51.51,0,0,0,.57-.5c0-.31-.2-.51-.57-.51" transform="translate(0 -14.56)"/><path class="cls-3" d="M1091.59,329.26H1088c-.35,0-.59.2-.58.51a.75.75,0,0,0,0,.13.46.46,0,0,0,.33.32.72.72,0,0,0,.22,0h3.61a.5.5,0,1,0,0-1" transform="translate(0 -14.56)"/><path class="cls-3" d="M1088,330.92H1088a2.46,2.46,0,0,0,.93.86,2,2,0,0,0,.9.22,2.35,2.35,0,0,0,1.83-1.08H1088Z" transform="translate(0 -14.56)"/><path class="cls-3" d="M1092.67,324.3l-2.26.59v1.68a.7.7,0,0,0,.7.7h0a.7.7,0,0,0,.7-.69V326l1.22-.32a.7.7,0,1,0-.35-1.35" transform="translate(0 -14.56)"/><path class="cls-3" d="M1092.67,322.2l-5.58,1.45-.54.14a.91.91,0,0,0-.45,1.16.71.71,0,0,0,.33.33h0l1.42.66,0,.65a.58.58,0,0,0,0,.16.68.68,0,0,0,.49.49.49.49,0,0,0,.18,0h0a.7.7,0,0,0,.68-.72l0-1.52-.68-.31,4.46-1.16a.7.7,0,0,0,.51-.85.71.71,0,0,0-.86-.5" transform="translate(0 -14.56)"/><path class="cls-3" d="M1092.67,320.09l-3.79,1-1.82.48-.52.13a.71.71,0,0,0-.51.86l0,.1a.69.69,0,0,0,.36.36.68.68,0,0,0,.28.06l.18,0,1.32-.34,1.82-.47,3-.78a.7.7,0,1,0-.35-1.36" transform="translate(0 -14.56)"/><path class="cls-3" d="M1086.11,320.58a.67.67,0,0,0,.3.3.71.71,0,0,0,.32.08.56.56,0,0,0,.18,0l1.46-.38,4.66-1.21a.69.69,0,0,0,.51-.85,1,1,0,0,0,0-.11.7.7,0,0,0-.81-.39l-.34.08-5.11,1.33-.67.18a.7.7,0,0,0-.51.85.71.71,0,0,0,.06.15" transform="translate(0 -14.56)"/><path class="cls-3" d="M1086,318.34a.7.7,0,0,0,.62.52h.06a.55.55,0,0,0,.18,0l3.85-1a.71.71,0,0,0,.51-.82.09.09,0,0,1,0,0,.69.69,0,0,0-.53-.51.64.64,0,0,0-.32,0l-3.85,1a.7.7,0,0,0-.52.74v.11" transform="translate(0 -14.56)"/></g><use width="12.14" height="12.14" transform="translate(650.36 76.47) rotate(-90.4) scale(1.56)" xlink:href="#New_Symbol_8"/><use width="12.14" height="12.14" transform="translate(846.12 76.47) rotate(-90.4) scale(1.56)" xlink:href="#New_Symbol_8"/><use width="12.14" height="12.14" transform="translate(1046.96 76.47) rotate(-90.4) scale(1.56)" xlink:href="#New_Symbol_8"/><g class="cls-59"><g class="cls-60"><polygon class="cls-61" points="555.26 249.23 568.9 236.98 561.87 236.98 561.87 195.28 548.65 195.28 548.65 236.98 541.62 236.98 555.26 249.23"/></g><g class="cls-60"><polygon class="cls-62" points="754.52 249.23 768.16 236.98 761.13 236.98 761.13 195.28 747.91 195.28 747.91 236.98 740.88 236.98 754.52 249.23"/></g><g class="cls-60"><polygon class="cls-63" points="953.16 249.23 966.8 236.98 959.77 236.98 959.77 195.28 946.55 195.28 946.55 236.98 939.52 236.98 953.16 249.23"/></g><g class="cls-60"><polygon class="cls-64" points="1152.42 249.23 1166.06 236.98 1159.03 236.98 1159.03 195.28 1145.81 195.28 1145.81 236.98 1138.78 236.98 1152.42 249.23"/></g></g><g class="cls-60"><rect class="cls-3" x="499.9" y="124.73" width="115.72" height="38.01" rx="6.71" ry="6.71"/><rect class="cls-65" x="499.9" y="124.73" width="115.72" height="38.01" rx="6.71" ry="6.71"/></g><path class="cls-66" d="M513.61,164.57v-1.32l1.68-1.63c4-3.85,5.87-5.9,5.9-8.29a2.83,2.83,0,0,0-3.14-3.09,5.39,5.39,0,0,0-3.36,1.34l-.68-1.51a7,7,0,0,1,4.48-1.61,4.46,4.46,0,0,1,4.85,4.61c0,2.92-2.12,5.29-5.46,8.5l-1.27,1.17v0h7.12v1.78Z" transform="translate(0 -14.56)"/><path class="cls-66" d="M535.68,156.48c0,5.39-2,8.36-5.51,8.36-3.1,0-5.19-2.9-5.24-8.14s2.29-8.24,5.51-8.24S535.68,151.43,535.68,156.48Zm-8.6.24c0,4.12,1.27,6.46,3.22,6.46,2.19,0,3.24-2.56,3.24-6.6s-1-6.46-3.22-6.46C528.45,150.12,527.08,152.41,527.08,156.72Z" transform="translate(0 -14.56)"/><path class="cls-66" d="M541.36,150.73h0l-2.75,1.49-.41-1.63,3.46-1.85h1.83v15.84h-2.07Z" transform="translate(0 -14.56)"/><path class="cls-66" d="M558.53,148.73v1.41l-6.9,14.43h-2.22l6.87-14v0h-7.75v-1.78Z" transform="translate(0 -14.56)"/><path class="cls-66" d="M582.34,157.65v1.46H559.43v-1.46Z" transform="translate(0 -14.56)"/><path class="cls-66" d="M587.86,150.73h0l-2.75,1.49-.41-1.63,3.46-1.85h1.83v15.84h-2.07Z" transform="translate(0 -14.56)"/><path class="cls-66" d="M594.56,160.55a4.52,4.52,0,0,1,3.14-4.24l0-.07a3.92,3.92,0,0,1-2.51-3.56c0-2.51,2.12-4.22,4.9-4.22,3.07,0,4.61,1.93,4.61,3.9a4,4,0,0,1-2.61,3.7v.07c2,.78,3.19,2.17,3.19,4.09,0,2.75-2.36,4.61-5.38,4.61C596.56,164.84,594.56,162.86,594.56,160.55Zm8.53-.1c0-1.93-1.34-2.85-3.48-3.46-1.85.54-2.85,1.75-2.85,3.27a2.93,2.93,0,0,0,3.17,3A2.87,2.87,0,0,0,603.09,160.45Zm-5.9-7.92c0,1.58,1.2,2.44,3,2.92a3.12,3.12,0,0,0,2.41-2.88,2.46,2.46,0,0,0-2.68-2.58A2.52,2.52,0,0,0,597.19,152.53Z" transform="translate(0 -14.56)"/><g class="cls-60"><rect class="cls-3" x="698.29" y="124.69" width="115.72" height="38.57" rx="6.71" ry="6.71"/><rect class="cls-65" x="698.29" y="124.69" width="115.72" height="38.57" rx="6.71" ry="6.71"/></g><path class="cls-66" d="M712,164.81v-1.32l1.68-1.63c4-3.85,5.87-5.9,5.9-8.29a2.83,2.83,0,0,0-3.14-3.09,5.39,5.39,0,0,0-3.36,1.34l-.68-1.51a7,7,0,0,1,4.48-1.61,4.46,4.46,0,0,1,4.85,4.61c0,2.92-2.12,5.29-5.46,8.5L715,163v0h7.12v1.78Z" transform="translate(0 -14.56)"/><path class="cls-66" d="M734.07,156.72c0,5.39-2,8.36-5.51,8.36-3.1,0-5.19-2.9-5.24-8.14s2.29-8.24,5.51-8.24S734.07,151.68,734.07,156.72Zm-8.6.24c0,4.12,1.27,6.46,3.22,6.46,2.19,0,3.24-2.56,3.24-6.6s-1-6.46-3.22-6.46C726.83,150.36,725.46,152.65,725.46,157Z" transform="translate(0 -14.56)"/><path class="cls-66" d="M739.74,151h0l-2.75,1.49-.41-1.63L740,149h1.83v15.84h-2.07Z" transform="translate(0 -14.56)"/><path class="cls-66" d="M746.44,160.79a4.52,4.52,0,0,1,3.14-4.24l0-.07a3.92,3.92,0,0,1-2.51-3.56c0-2.51,2.12-4.22,4.9-4.22,3.07,0,4.61,1.93,4.61,3.9a4,4,0,0,1-2.61,3.7v.07c2,.78,3.19,2.17,3.19,4.09,0,2.75-2.36,4.61-5.38,4.61C748.44,165.08,746.44,163.1,746.44,160.79Zm8.53-.1c0-1.93-1.34-2.85-3.48-3.46-1.85.54-2.85,1.75-2.85,3.27a2.93,2.93,0,0,0,3.17,3A2.87,2.87,0,0,0,755,160.69Zm-5.9-7.92c0,1.58,1.2,2.44,3,2.92a3.12,3.12,0,0,0,2.41-2.88,2.46,2.46,0,0,0-2.68-2.58A2.52,2.52,0,0,0,749.07,152.77Z" transform="translate(0 -14.56)"/><path class="cls-66" d="M780.72,157.89v1.46H757.82v-1.46Z" transform="translate(0 -14.56)"/><path class="cls-66" d="M786.25,151h0l-2.75,1.49-.41-1.63,3.46-1.85h1.83v15.84h-2.07Z" transform="translate(0 -14.56)"/><path class="cls-66" d="M794.38,163.3a8.93,8.93,0,0,0,1.73-.07,6,6,0,0,0,3.31-1.54,7,7,0,0,0,2.1-4.22h-.07a4.65,4.65,0,0,1-3.73,1.71,4.59,4.59,0,0,1-4.68-4.85,5.43,5.43,0,0,1,5.41-5.63c3.24,0,5.24,2.63,5.24,6.68a10,10,0,0,1-2.73,7.43,7.92,7.92,0,0,1-4.61,2.12,10,10,0,0,1-2,.12Zm.78-9.11a3,3,0,0,0,3,3.36,3.54,3.54,0,0,0,3.12-1.66,1.42,1.42,0,0,0,.2-.78c0-2.7-1-4.78-3.24-4.78C796.45,150.34,795.16,151.94,795.16,154.19Z" transform="translate(0 -14.56)"/><g class="cls-60"><rect class="cls-3" x="898.23" y="124.69" width="115.72" height="38.57" rx="6.71" ry="6.71"/><rect class="cls-65" x="898.23" y="124.69" width="115.72" height="38.57" rx="6.71" ry="6.71"/></g><path class="cls-66" d="M911.93,164.81v-1.32l1.68-1.63c4-3.85,5.87-5.9,5.9-8.29a2.83,2.83,0,0,0-3.14-3.09,5.39,5.39,0,0,0-3.36,1.34l-.68-1.51a7,7,0,0,1,4.48-1.61,4.46,4.46,0,0,1,4.85,4.61c0,2.92-2.12,5.29-5.46,8.5L914.93,163v0H922v1.78Z" transform="translate(0 -14.56)"/><path class="cls-66" d="M934,156.72c0,5.39-2,8.36-5.51,8.36-3.09,0-5.19-2.9-5.24-8.14s2.29-8.24,5.51-8.24S934,151.68,934,156.72Zm-8.6.24c0,4.12,1.27,6.46,3.22,6.46,2.19,0,3.24-2.56,3.24-6.6s-1-6.46-3.22-6.46C926.77,150.36,925.41,152.65,925.41,157Z" transform="translate(0 -14.56)"/><path class="cls-66" d="M939.68,151h0l-2.75,1.49-.41-1.63,3.46-1.85h1.83v15.84h-2.07Z" transform="translate(0 -14.56)"/><path class="cls-66" d="M947.82,163.3a8.91,8.91,0,0,0,1.73-.07,6,6,0,0,0,3.31-1.54,7,7,0,0,0,2.1-4.22h-.07a4.65,4.65,0,0,1-3.73,1.71,4.59,4.59,0,0,1-4.68-4.85,5.43,5.43,0,0,1,5.41-5.63c3.24,0,5.24,2.63,5.24,6.68a10,10,0,0,1-2.73,7.43,7.92,7.92,0,0,1-4.61,2.12,10,10,0,0,1-2,.12Zm.78-9.11a3,3,0,0,0,3,3.36,3.54,3.54,0,0,0,3.12-1.66,1.4,1.4,0,0,0,.2-.78c0-2.7-1-4.78-3.24-4.78C949.89,150.34,948.6,151.94,948.6,154.19Z" transform="translate(0 -14.56)"/><path class="cls-66" d="M980.66,157.89v1.46H957.76v-1.46Z" transform="translate(0 -14.56)"/><path class="cls-66" d="M981.53,164.81v-1.32l1.68-1.63c4-3.85,5.87-5.9,5.9-8.29a2.83,2.83,0,0,0-3.14-3.09,5.39,5.39,0,0,0-3.36,1.34l-.68-1.51a7,7,0,0,1,4.48-1.61,4.46,4.46,0,0,1,4.85,4.61c0,2.92-2.12,5.29-5.46,8.5L984.53,163v0h7.12v1.78Z" transform="translate(0 -14.56)"/><path class="cls-66" d="M1003.61,156.72c0,5.39-2,8.36-5.51,8.36-3.09,0-5.19-2.9-5.24-8.14s2.29-8.24,5.51-8.24S1003.61,151.68,1003.61,156.72ZM995,157c0,4.12,1.27,6.46,3.22,6.46,2.19,0,3.24-2.56,3.24-6.6s-1-6.46-3.22-6.46C996.37,150.36,995,152.65,995,157Z" transform="translate(0 -14.56)"/><g class="cls-60"><rect class="cls-3" x="1093.97" y="124.69" width="115.72" height="38.57" rx="6.71" ry="6.71"/><rect class="cls-67" x="1093.97" y="124.69" width="115.72" height="38.57" rx="6.71" ry="6.71"/></g><path class="cls-66" d="M1107.68,164.81v-1.32l1.68-1.63c4-3.85,5.87-5.9,5.9-8.29a2.83,2.83,0,0,0-3.14-3.09,5.39,5.39,0,0,0-3.36,1.34l-.68-1.51a7,7,0,0,1,4.48-1.61,4.46,4.46,0,0,1,4.85,4.61c0,2.92-2.12,5.29-5.46,8.5l-1.27,1.17v0h7.12v1.78Z" transform="translate(0 -14.56)"/><path class="cls-66" d="M1129.75,156.72c0,5.39-2,8.36-5.51,8.36-3.1,0-5.19-2.9-5.24-8.14s2.29-8.24,5.51-8.24S1129.75,151.68,1129.75,156.72Zm-8.6.24c0,4.12,1.27,6.46,3.22,6.46,2.19,0,3.24-2.56,3.24-6.6s-1-6.46-3.22-6.46C1122.51,150.36,1121.15,152.65,1121.15,157Z" transform="translate(0 -14.56)"/><path class="cls-66" d="M1130.77,164.81v-1.32l1.68-1.63c4-3.85,5.87-5.9,5.9-8.29a2.83,2.83,0,0,0-3.14-3.09,5.39,5.39,0,0,0-3.36,1.34l-.68-1.51a7,7,0,0,1,4.48-1.61,4.46,4.46,0,0,1,4.85,4.61c0,2.92-2.12,5.29-5.46,8.5l-1.27,1.17v0h7.12v1.78Z" transform="translate(0 -14.56)"/><path class="cls-66" d="M1152.84,156.72c0,5.39-2,8.36-5.51,8.36-3.1,0-5.19-2.9-5.24-8.14s2.29-8.24,5.51-8.24S1152.84,151.68,1152.84,156.72Zm-8.6.24c0,4.12,1.27,6.46,3.22,6.46,2.19,0,3.24-2.56,3.24-6.6s-1-6.46-3.22-6.46C1145.61,150.36,1144.24,152.65,1144.24,157Z" transform="translate(0 -14.56)"/><path class="cls-66" d="M1176.41,157.89v1.46H1153.5v-1.46Z" transform="translate(0 -14.56)"/><path class="cls-66" d="M1177.28,164.81v-1.32l1.68-1.63c4-3.85,5.87-5.9,5.9-8.29a2.83,2.83,0,0,0-3.14-3.09,5.39,5.39,0,0,0-3.36,1.34l-.68-1.51a7,7,0,0,1,4.48-1.61,4.46,4.46,0,0,1,4.85,4.61c0,2.92-2.12,5.29-5.46,8.5l-1.27,1.17v0h7.12v1.78Z" transform="translate(0 -14.56)"/><path class="cls-66" d="M1193.48,151h0l-2.75,1.49-.41-1.63,3.46-1.85h1.83v15.84h-2.07Z" transform="translate(0 -14.56)"/><polygon class="cls-68" points="1369.02 575.54 1281.4 575.54 1295.95 651.48 1358.93 651.48 1369.02 575.54"/><path class="cls-23" d="M1319.81,616.51h-20.25a3.64,3.64,0,0,0-3.64,3.63v6.1h30.82Z" transform="translate(0 -14.56)"/><path class="cls-23" d="M1299.56,608.57h55.88a3.64,3.64,0,0,1,3.64,3.64V648.9a3.64,3.64,0,0,1-3.64,3.64h-55.88a3.64,3.64,0,0,1-3.64-3.64V612.21A3.63,3.63,0,0,1,1299.56,608.57Z"/><path class="cls-24" d="M1355.54,624.52h-30.91l-4.71-6.61h-20.26a3.64,3.64,0,0,0-3.63,3.63v6.09h.05a3.54,3.54,0,0,0-.05.52v36.69a3.64,3.64,0,0,0,3.63,3.64h55.88a3.65,3.65,0,0,0,3.64-3.64V628.15A3.64,3.64,0,0,0,1355.54,624.52Z" transform="translate(0 -14.56)"/><g class="cls-25"><path class="cls-3" d="M1309.79,624.2a7.8,7.8,0,1,0,7.8,7.8A7.8,7.8,0,0,0,1309.79,624.2Z" transform="translate(0 -14.56)"/><polygon class="cls-24" points="1313.38 613.82 1308.42 618.78 1306.15 616.51 1304.62 618.04 1308.42 621.84 1314.91 615.34 1313.38 613.82"/></g><path class="cls-32" d="M1323.49,645.37a.27.27,0,0,0,.37.12l8.73-4.43,8.85,4.39a.28.28,0,0,0,.37-.13l.15-.3a.27.27,0,0,0-.12-.37l-9-4.48-.07,0a.28.28,0,0,0-.28,0l-9,4.56a.28.28,0,0,0-.12.37Z" transform="translate(0 -14.56)"/><path class="cls-32" d="M1333.54,645.29a.28.28,0,0,1-.27.28h-1.35a.28.28,0,0,1-.28-.28v-1.34a.28.28,0,0,1,.28-.28h1.35a.28.28,0,0,1,.27.28Zm-1.67,3.62a.27.27,0,0,1-.27.28H1330a.27.27,0,0,1-.27-.28V647.3a.27.27,0,0,1,.27-.28h1.61a.27.27,0,0,1,.27.28Zm0,2.63a.27.27,0,0,1-.27.27H1330a.27.27,0,0,1-.27-.27v-1.6a.27.27,0,0,1,.27-.28h1.61a.27.27,0,0,1,.27.28Zm-2.8-2.63a.28.28,0,0,1-.28.28h-1.6a.28.28,0,0,1-.28-.28V647.3a.28.28,0,0,1,.28-.28h1.6a.28.28,0,0,1,.28.28Zm0,2.63a.28.28,0,0,1-.28.27h-1.6a.27.27,0,0,1-.28-.27v-1.6a.28.28,0,0,1,.28-.28h1.6a.28.28,0,0,1,.28.28Zm9.23,2.17h2.28a.28.28,0,0,0,.28-.28v-7.26a.49.49,0,0,0-.25-.4l-7.77-3.85a.62.62,0,0,0-.49,0l-7.78,3.85a.49.49,0,0,0-.25.4v7.26a.28.28,0,0,0,.27.28h9.28a.28.28,0,0,0,.28-.28V647.3a.28.28,0,0,1,.27-.28h3.32a.28.28,0,0,1,.28.28v6.12a.28.28,0,0,0,.28.28" transform="translate(0 -14.56)"/><rect class="cls-69" x="1241.53" width="213.65" height="596.38"/><path class="cls-8" d="M360.76,604.41V822.57c0,21.62-19.09,19.84-19.09,19.84H4.34V891H334.92c78.16-5.58,73.13-70,73.13-84.2V604.41Z" transform="translate(0 -14.56)"/><path class="cls-9" d="M350.51,594.25V781.72c0,40.13-27.26,37.53-41.19,37.53H0v48.6H345.1c54.78,0,63-55.5,63-69.67V594.25Z" transform="translate(0 -14.56)"/><use width="4.38" height="4.38" transform="translate(195.82 862.24) scale(1.98 1.97)" xlink:href="#New_Symbol_59"/><use width="4.38" height="4.38" transform="translate(234.98 862.24) scale(1.98 1.97)" xlink:href="#New_Symbol_59"/><use width="4.38" height="4.38" transform="translate(274.14 862.24) scale(1.98 1.97)" xlink:href="#New_Symbol_59"/><use width="4.38" height="4.38" transform="translate(313.3 862.24) scale(1.98 1.97)" xlink:href="#New_Symbol_59"/><use width="4.38" height="4.38" transform="translate(39.16 862.24) scale(1.98 1.97)" xlink:href="#New_Symbol_59"/><use width="4.38" height="4.38" transform="translate(78.33 862.24) scale(1.98 1.97)" xlink:href="#New_Symbol_59"/><use width="4.38" height="4.38" transform="translate(117.49 862.24) scale(1.98 1.97)" xlink:href="#New_Symbol_59"/><use width="4.38" height="4.38" transform="translate(156.65 862.24) scale(1.98 1.97)" xlink:href="#New_Symbol_59"/><use width="4.38" height="4.38" transform="translate(361.08 857.92) scale(1.98 1.97)" xlink:href="#New_Symbol_59"/><use width="4.38" height="4.38" transform="translate(395.57 828.91) scale(1.52 1.97)" xlink:href="#New_Symbol_59"/><path class="cls-10" d="M0,843.47H317s61.75.3,62.72-53.63V564.56" transform="translate(0 -14.56)"/><path class="cls-70" d="M580.42,717.28" transform="translate(0 -14.56)"/><path class="cls-23" d="M374.89,731H355.67a3.46,3.46,0,0,0-3.45,3.44v5.78h29.24Z" transform="translate(0 -14.56)"/><path class="cls-23" d="M412.13,775.57a3.47,3.47,0,0,1-3.46,3.44h-53a3.46,3.46,0,0,1-3.45-3.44v-34.8a3.45,3.45,0,0,1,3.45-3.44h53a3.46,3.46,0,0,1,3.46,3.44Z" transform="translate(0 -14.56)"/><path class="cls-24" d="M408.77,738.64H379.46L375,732.37H355.77a3.46,3.46,0,0,0-3.45,3.45v5.77h.05a3.45,3.45,0,0,0-.05.5v34.8a3.46,3.46,0,0,0,3.45,3.45h53a3.46,3.46,0,0,0,3.45-3.45v-34.8A3.46,3.46,0,0,0,408.77,738.64Z" transform="translate(0 -14.56)"/><path class="cls-58" d="M365.42,739a7.4,7.4,0,1,0,7.4,7.4A7.4,7.4,0,0,0,365.42,739Z" transform="translate(0 -14.56)"/><polygon class="cls-24" points="368.83 728.39 364.12 733.1 361.97 730.95 360.51 732.4 364.12 736 370.28 729.84 368.83 728.39"/><g class="cls-35"><path class="cls-3" d="M388.38,769a2.47,2.47,0,0,1-2.47-2.47.56.56,0,1,1,1.11,0,1.36,1.36,0,0,0,1.36,1.36.56.56,0,1,1,0,1.11m2.19-5.93c-.64-1-1.26-1.91-1.29-1.95l-.45-.62-.45-.62-.45.62-.45.62s-.65.9-1.29,1.95a7.62,7.62,0,0,0-1.39,3.45,3.58,3.58,0,0,0,7.17,0,7.63,7.63,0,0,0-1.39-3.45" transform="translate(0 -14.56)"/><path class="cls-3" d="M383.08,763.23a2.09,2.09,0,0,1-2.09-2.08.47.47,0,0,1,.94,0,1.14,1.14,0,0,0,1.14,1.14.47.47,0,0,1,0,.94m1.85-5c-.54-.88-1.06-1.61-1.09-1.64l-.38-.52-.38-.53-.38.53-.38.52s-.55.76-1.09,1.64a6.48,6.48,0,0,0-1.17,2.91,3,3,0,0,0,6,0,6.45,6.45,0,0,0-1.17-2.91" transform="translate(0 -14.56)"/><path class="cls-3" d="M392.53,760a2.09,2.09,0,0,1-2.08-2.08.47.47,0,1,1,.94,0,1.14,1.14,0,0,0,1.14,1.14.47.47,0,0,1,0,.94m1.85-5c-.54-.88-1.06-1.6-1.08-1.64l-.38-.52-.38-.53-.38.53-.39.52s-.55.76-1.08,1.64a6.39,6.39,0,0,0-1.17,2.91,3,3,0,0,0,6,0,6.38,6.38,0,0,0-1.17-2.91" transform="translate(0 -14.56)"/></g><path class="cls-23" d="M375.74,489.76H356.53a3.46,3.46,0,0,0-3.45,3.44V499h29.24Z" transform="translate(0 -14.56)"/><rect class="cls-23" x="353.08" y="481.48" width="59.9" height="41.69" rx="3.45" ry="3.45"/><path class="cls-24" d="M409.63,497.35H380.31l-4.47-6.27H356.63a3.45,3.45,0,0,0-3.44,3.45v5.77h.05a3,3,0,0,0-.05.5v34.8a3.46,3.46,0,0,0,3.44,3.45h53a3.46,3.46,0,0,0,3.45-3.45V500.8A3.46,3.46,0,0,0,409.63,497.35Z" transform="translate(0 -14.56)"/><path class="cls-58" d="M366.28,497.69a7.4,7.4,0,1,0,7.4,7.41A7.4,7.4,0,0,0,366.28,497.69Z" transform="translate(0 -14.56)"/><polygon class="cls-24" points="369.68 487.1 364.97 491.81 362.82 489.65 361.37 491.11 364.97 494.71 371.14 488.55 369.68 487.1"/><g class="cls-35"><path class="cls-3" d="M388.55,522.67h-2.94c-.29,0-.59,0-.89,0a.49.49,0,0,0-.5.66l0,0a.45.45,0,0,0,.25.25.78.78,0,0,0,.28,0h3.77c.35,0,.56-.2.56-.49s-.2-.51-.57-.52" transform="translate(0 -14.56)"/><path class="cls-3" d="M388.47,524.33h-3.61c-.35,0-.58.21-.58.51a.57.57,0,0,0,0,.12.46.46,0,0,0,.33.33l.22,0h3.61c.36,0,.58-.21.58-.5a.51.51,0,0,0-.57-.49" transform="translate(0 -14.56)"/><path class="cls-3" d="M384.9,526h-.07a2.48,2.48,0,0,0,.94.86,2,2,0,0,0,.9.22,2.36,2.36,0,0,0,1.83-1.08h-3.6Z" transform="translate(0 -14.56)"/><path class="cls-3" d="M389.54,519.37l-2.26.59v1.68a.7.7,0,0,0,.69.7h0a.7.7,0,0,0,.7-.7V521l1.22-.32a.7.7,0,1,0-.35-1.36" transform="translate(0 -14.56)"/><path class="cls-3" d="M389.54,517.27,384,518.72l-.54.14a.69.69,0,0,0-.52.76.7.7,0,0,0,.39.72h0l1.42.66,0,.65a.78.78,0,0,0,0,.17.69.69,0,0,0,.49.49.58.58,0,0,0,.18,0h0a.71.71,0,0,0,.68-.72l0-1.53-.68-.31,4.46-1.16a.7.7,0,0,0,.51-.86.71.71,0,0,0-.86-.5" transform="translate(0 -14.56)"/><path class="cls-3" d="M389.54,515.17l-3.79,1-1.82.47-.52.14a.7.7,0,0,0-.5.86.78.78,0,0,0,0,.1.69.69,0,0,0,.36.36.66.66,0,0,0,.28.06l.18,0,1.32-.35,1.82-.47,3-.78a.7.7,0,1,0-.35-1.35" transform="translate(0 -14.56)"/><path class="cls-3" d="M383,515.66a.72.72,0,0,0,.3.3.8.8,0,0,0,.32.08l.18,0,1.46-.38,4.65-1.21a.77.77,0,0,0,.36-.21.73.73,0,0,0,.15-.64l0-.11a.67.67,0,0,0-.34-.35.69.69,0,0,0-.47,0l-.35.09-5.11,1.33-.67.18a.7.7,0,0,0-.5.85.72.72,0,0,0,.06.15" transform="translate(0 -14.56)"/><path class="cls-3" d="M382.92,513.41a.69.69,0,0,0,.61.52h.06l.18,0,3.85-1a.7.7,0,0,0,.51-.82.09.09,0,0,1,0,0,.69.69,0,0,0-.53-.51.64.64,0,0,0-.32,0l-3.85,1a.7.7,0,0,0-.52.74s0,.07,0,.11" transform="translate(0 -14.56)"/></g><rect class="cls-71" x="1244.15" y="361.48" width="223.96" height="333.57"/><g class="cls-34"><line class="cls-72" x1="1178.36" y1="312.93" x2="1182.81" y2="312.93"/><path class="cls-73" d="M1191.79,327.48h187a26.82,26.82,0,0,1,26.74,26.74V461.7" transform="translate(0 -14.56)"/><line class="cls-72" x1="1405.51" y1="451.63" x2="1405.51" y2="456.08"/></g></g></g></g></g></svg>