<svg id="Layer_1" data-name="Layer 1" xmlns="http://www.w3.org/2000/svg" viewBox="0 0 250 250"><defs><style>.cls-1{fill:#fff;}.cls-2{fill:none;}.cls-3{isolation:isolate;}.cls-4{fill:#4c4c4e;}.cls-5{fill:#dbdcde;}</style></defs><title>IP_sc4_energyBtn</title><rect class="cls-1" x="-109.3" y="-1034.5" width="1108.4" height="1893.6"/><circle class="cls-1" cx="125" cy="125" r="125"/><rect class="cls-2" x="62.3" y="173.7" width="125.4" height="30.8"/><g class="cls-3"><path class="cls-4" d="M86.43,193.58V174.12H97.52l-.5,3.19H90.41v4.51h5.52V185H90.41v5.21h7.36v3.36Z"/><path class="cls-4" d="M108.19,193.58v-9.32c0-1.62-.28-2.1-1.26-2.1a4.37,4.37,0,0,0-2.6,1.29v10.14h-3.75V183.19a10.34,10.34,0,0,0-.5-3.36l3.33-1a3.67,3.67,0,0,1,.53,1.79,16.86,16.86,0,0,1,1.65-1.06,5.9,5.9,0,0,1,2.58-.62,3.56,3.56,0,0,1,3.44,2.07,5.75,5.75,0,0,1,.28,2v10.47Z"/><path class="cls-4" d="M119.31,187.59v.11c0,2.21,1.09,3.47,3,3.47a5.6,5.6,0,0,0,3.64-1.43l1.46,2.24a8.23,8.23,0,0,1-5.4,2c-4.12,0-6.78-2.91-6.78-7.42,0-2.58.53-4.28,1.79-5.68a5.64,5.64,0,0,1,4.51-1.93,5.86,5.86,0,0,1,4.14,1.51c1.32,1.34,1.9,3.28,1.9,6.27v.87Zm4.4-2.91a3.69,3.69,0,0,0-.45-2.16,1.82,1.82,0,0,0-1.65-.84c-1.43,0-2.24,1.12-2.24,3.11v.06h4.34Z"/><path class="cls-4" d="M137.67,182.52a2.11,2.11,0,0,0-1.09-.28,3,3,0,0,0-2.3,1.2v10.14h-3.75V184a13,13,0,0,0-.53-4.2l3.36-.9a4.6,4.6,0,0,1,.59,2,4.4,4.4,0,0,1,3.36-2,2.89,2.89,0,0,1,1.4.31Z"/><path class="cls-4" d="M151.62,181.88a7.94,7.94,0,0,1-1-.08,3.46,3.46,0,0,1,.84,2.35c0,2.46-2.24,4.26-5.29,4.26a4.55,4.55,0,0,1-.56,0c-1,.45-1.48.78-1.48,1.18,0,.2.22.34.62.34l2,0c2.18,0,3.33.36,4.34,1.29a3.91,3.91,0,0,1,1.23,3.05,4.07,4.07,0,0,1-1.15,3c-1.26,1.34-3.42,1.85-5.66,1.85-2,0-4.14-.34-5.43-1.54a3.37,3.37,0,0,1-1.18-2.55,2.86,2.86,0,0,1,.34-1.46h3.47a2,2,0,0,0-.17.92c0,1.15,1,1.76,2.69,1.76a4.53,4.53,0,0,0,2.35-.48,1.74,1.74,0,0,0,.92-1.46c0-1.29-1.15-1.68-2.63-1.71l-1.6,0a10.2,10.2,0,0,1-3.44-.45,1.82,1.82,0,0,1-1.09-1.88c0-.92.28-1.79,2.63-2.41a3.71,3.71,0,0,1-3.08-4c0-2.94,2.38-4.84,6-4.84a10.32,10.32,0,0,1,2.58.36,7.55,7.55,0,0,0,1.76.31,4.51,4.51,0,0,0,3-1.23l1.57,2.38A3.57,3.57,0,0,1,151.62,181.88Zm-6.27-.14a2,2,0,0,0-2.24,2.13c0,1.46.9,2,2.21,2,1.48,0,2.3-.73,2.3-2A2,2,0,0,0,145.35,181.74Z"/><path class="cls-4" d="M163,193.81c-1,2.77-1.71,4-2.74,4.73a7.56,7.56,0,0,1-3.47,1.32l-1.29-2.46a8.39,8.39,0,0,0,2.32-1,4.33,4.33,0,0,0,1.06-1.18,8.6,8.6,0,0,0,.81-1.68h-1L154,179.47l3.84-.45,2.49,8.37.76,3c0-.08.28-1.6.45-2.3.11-.48.34-1.32.56-2l2.16-6.83h3.95Z"/></g><circle class="cls-5" cx="125" cy="96.6" r="60"/><path class="cls-1" d="M133,113.7H116.8a2.09,2.09,0,0,0-2.1,2.8c0,.1.1.1.1.2a2,2,0,0,0,1.1,1.1,5,5,0,0,0,1.2.2h16c1.5,0,2.4-.8,2.4-2.1a2.19,2.19,0,0,0-2.5-2.2"/><path class="cls-1" d="M132.7,120.8H117.4a2.23,2.23,0,0,0-2.5,2.1.75.75,0,0,0,.1.5,2,2,0,0,0,1.4,1.4,2.77,2.77,0,0,0,.9.1h15.3a2.23,2.23,0,0,0,2.5-2.1,2.12,2.12,0,0,0-2.4-2"/><path class="cls-1" d="M117.5,127.8h-.3a11.52,11.52,0,0,0,4,3.7,8.87,8.87,0,0,0,3.8.9c5,0,7.8-4.6,7.8-4.6H117.5Z"/><path class="cls-1" d="M137.2,99.7l-9.6,2.5v7.1a3,3,0,0,0,2.9,3h0a3.07,3.07,0,0,0,3-3v-2.6l5.2-1.3a2.92,2.92,0,0,0,2.1-3.6,3,3,0,0,0-3.6-2.1"/><path class="cls-1" d="M137.2,90.8,113.5,97l-2.3.6a3,3,0,0,0-2.2,3.3,2.59,2.59,0,0,0,.3,1.7,3.16,3.16,0,0,0,1.4,1.4h0l6,2.8.1,2.8a1.7,1.7,0,0,0,.1.7,3.16,3.16,0,0,0,2.1,2.1,2,2,0,0,0,.8.1h.1a3,3,0,0,0,2.9-3l-.2-6.5-2.9-1.3,18.9-4.9a2.92,2.92,0,0,0,2.1-3.6,2.77,2.77,0,0,0-3.5-2.4"/><path class="cls-1" d="M137.2,79.6l-16.1,4.2-7.7,2-2.2.6a2.92,2.92,0,0,0-2.1,3.6.52.52,0,0,0,.2.4,3.12,3.12,0,0,0,1.5,1.5,2.66,2.66,0,0,0,1.2.3,2.2,2.2,0,0,0,.8-.1l5.6-1.5,7.7-2,12.7-3.3a2.92,2.92,0,0,0,2.1-3.6,3.16,3.16,0,0,0-3.7-2.1"/><path class="cls-1" d="M109.4,80.1a3.25,3.25,0,0,0,1.3,1.3,3.19,3.19,0,0,0,1.4.3,2.2,2.2,0,0,0,.8-.1l6.2-1.6,19.7-5.1a3.76,3.76,0,0,0,1.5-.9,2.88,2.88,0,0,0,.6-2.7c0-.2-.1-.3-.2-.5a3.07,3.07,0,0,0-3.5-1.7l-1.5.4L114,75.1l-2.8.7a2.92,2.92,0,0,0-2.1,3.6c.1.2.2.5.3.7"/><path class="cls-1" d="M109.2,68.8a3,3,0,0,0,2.6,2.2h.3a2.2,2.2,0,0,0,.8-.1l16.3-4.2a2.89,2.89,0,0,0,2.1-3.5v-.1A2.91,2.91,0,0,0,129,61a3.29,3.29,0,0,0-1.4,0l-16.3,4.3a3,3,0,0,0-2.2,3.1.6.6,0,0,0,.1.4"/></svg>