<svg xmlns="http://www.w3.org/2000/svg" xmlns:xlink="http://www.w3.org/1999/xlink" viewBox="0 0 1050.81 315.64"><defs><style>.cls-1{opacity:0.3;}.cls-1,.cls-3{isolation:isolate;}.cls-2{fill:#fff;}.cls-4{fill:#4c4c4e;}</style></defs><title>IP_sc4_investment</title><g id="Layer_2" data-name="Layer 2"><g id="Layer_1-2" data-name="Layer 1"><image class="cls-1" width="1052" height="316" transform="translate(0 0)" xlink:href="../AppData/Local/Packages/Microsoft.SkypeApp_kzf8qxf38zg5c/LocalState/Downloads/ECF25FF9.png"/><path class="cls-2" d="M1035.47,290.27a10,10,0,0,1-10,10H25a10,10,0,0,1-10-10V25.67a10,10,0,0,1,10-10h1000.5a10,10,0,0,1,10,10Z" transform="translate(0 0)"/><g class="cls-3"><path class="cls-4" d="M273.11,174.37V138.58h4.74v35.79Z" transform="translate(0 0)"/><path class="cls-4" d="M285.64,174.37V148.44h4v3.69a9.32,9.32,0,0,1,8.25-4.27,10.85,10.85,0,0,1,4.31.84,6.79,6.79,0,0,1,2.94,2.21,8.5,8.5,0,0,1,1.37,3.25,25.24,25.24,0,0,1,.24,4.27v15.94h-4.39V158.6a11.84,11.84,0,0,0-.51-4,4.22,4.22,0,0,0-1.82-2.12,5.79,5.79,0,0,0-3.06-.79,7.12,7.12,0,0,0-4.85,1.78q-2,1.78-2,6.76v14.16Z" transform="translate(0 0)"/><path class="cls-4" d="M320.65,174.37l-9.86-25.93h4.64L321,164q.9,2.52,1.66,5.22.59-2.05,1.64-4.93L330,148.44h4.52l-9.81,25.93Z" transform="translate(0 0)"/><path class="cls-4" d="M356.19,166l4.54.56a11.08,11.08,0,0,1-4,6.18,13.48,13.48,0,0,1-16.44-1.31Q337,168,337,161.63q0-6.54,3.37-10.16a11.41,11.41,0,0,1,8.74-3.61,11.09,11.09,0,0,1,8.5,3.54q3.3,3.54,3.3,10,0,.39,0,1.17H341.52a10,10,0,0,0,2.42,6.54,7.19,7.19,0,0,0,5.42,2.27,6.72,6.72,0,0,0,4.13-1.27A8.43,8.43,0,0,0,356.19,166Zm-14.43-7.1h14.48a8.79,8.79,0,0,0-1.66-4.91,6.74,6.74,0,0,0-5.44-2.54,7,7,0,0,0-5.09,2A8,8,0,0,0,341.77,158.92Z" transform="translate(0 0)"/><path class="cls-4" d="M364.49,166.63l4.35-.68a6.07,6.07,0,0,0,2,4,7.11,7.11,0,0,0,4.68,1.39,6.87,6.87,0,0,0,4.49-1.23,3.69,3.69,0,0,0,1.46-2.89,2.67,2.67,0,0,0-1.29-2.34,19.08,19.08,0,0,0-4.49-1.49,41,41,0,0,1-6.7-2.11,6.4,6.4,0,0,1-3.8-5.95,6.68,6.68,0,0,1,.79-3.21,7.1,7.1,0,0,1,2.16-2.45,9.07,9.07,0,0,1,2.79-1.28,13.27,13.27,0,0,1,3.8-.53,15,15,0,0,1,5.36.88,7.29,7.29,0,0,1,3.41,2.38,9.29,9.29,0,0,1,1.51,4l-4.3.59a4.7,4.7,0,0,0-1.7-3.12,6.21,6.21,0,0,0-4-1.12,7.19,7.19,0,0,0-4.32,1,2.91,2.91,0,0,0-1.29,2.34,2.42,2.42,0,0,0,.54,1.54,3.86,3.86,0,0,0,1.68,1.17q.66.24,3.88,1.12a54,54,0,0,1,6.51,2A6.6,6.6,0,0,1,385,163a6.45,6.45,0,0,1,1,3.76,7.37,7.37,0,0,1-1.28,4.14,8.28,8.28,0,0,1-3.7,3,13.45,13.45,0,0,1-5.47,1.06q-5.05,0-7.7-2.1A9.76,9.76,0,0,1,364.49,166.63Z" transform="translate(0 0)"/><path class="cls-4" d="M400.85,170.44l.63,3.88a16.35,16.35,0,0,1-3.32.39,7.52,7.52,0,0,1-3.71-.76,4.23,4.23,0,0,1-1.86-2,15.73,15.73,0,0,1-.54-5.19V151.86h-3.22v-3.42h3.22V142l4.37-2.64v9.06h4.42v3.42h-4.42V167a7.67,7.67,0,0,0,.23,2.42,1.82,1.82,0,0,0,.76.85,2.92,2.92,0,0,0,1.5.32A14.25,14.25,0,0,0,400.85,170.44Z" transform="translate(0 0)"/><path class="cls-4" d="M405.14,174.37V148.44h3.93v3.64a9.23,9.23,0,0,1,3.25-3.06,9.12,9.12,0,0,1,4.61-1.16,8.53,8.53,0,0,1,4.72,1.2,6.41,6.41,0,0,1,2.6,3.34,9.31,9.31,0,0,1,8-4.54A7.89,7.89,0,0,1,438.2,150q2.07,2.14,2.08,6.58v17.8h-4.37V158a12,12,0,0,0-.43-3.8,3.68,3.68,0,0,0-1.55-1.87,4.84,4.84,0,0,0-2.64-.71,6.14,6.14,0,0,0-4.54,1.82q-1.81,1.82-1.81,5.82v15.06h-4.39V157.53a7.41,7.41,0,0,0-1.07-4.39,4.07,4.07,0,0,0-3.52-1.46,6.39,6.39,0,0,0-3.43,1,5.54,5.54,0,0,0-2.28,2.86,16.09,16.09,0,0,0-.71,5.42v13.45Z" transform="translate(0 0)"/><path class="cls-4" d="M464.54,166l4.54.56a11.08,11.08,0,0,1-4,6.18,13.48,13.48,0,0,1-16.44-1.31q-3.33-3.5-3.33-9.83,0-6.54,3.37-10.16a11.41,11.41,0,0,1,8.74-3.61,11.09,11.09,0,0,1,8.5,3.54q3.3,3.54,3.3,10,0,.39,0,1.17H449.87a10,10,0,0,0,2.42,6.54,7.19,7.19,0,0,0,5.42,2.27,6.72,6.72,0,0,0,4.13-1.27A8.43,8.43,0,0,0,464.54,166Zm-14.43-7.1h14.48a8.79,8.79,0,0,0-1.66-4.91,6.74,6.74,0,0,0-5.44-2.54,7,7,0,0,0-5.09,2A8,8,0,0,0,450.11,158.92Z" transform="translate(0 0)"/><path class="cls-4" d="M474.6,174.37V148.44h4v3.69a9.32,9.32,0,0,1,8.25-4.27,10.85,10.85,0,0,1,4.31.84,6.79,6.79,0,0,1,2.94,2.21,8.5,8.5,0,0,1,1.37,3.25,25.24,25.24,0,0,1,.24,4.27v15.94h-4.39V158.6a11.84,11.84,0,0,0-.51-4,4.22,4.22,0,0,0-1.82-2.12,5.79,5.79,0,0,0-3.06-.79,7.12,7.12,0,0,0-4.85,1.78q-2,1.78-2,6.76v14.16Z" transform="translate(0 0)"/><path class="cls-4" d="M512,170.44l.63,3.88a16.35,16.35,0,0,1-3.32.39,7.52,7.52,0,0,1-3.71-.76,4.24,4.24,0,0,1-1.86-2,15.73,15.73,0,0,1-.54-5.19V151.86H500v-3.42h3.22V142l4.37-2.64v9.06H512v3.42h-4.42V167a7.63,7.63,0,0,0,.23,2.42,1.82,1.82,0,0,0,.76.85,2.92,2.92,0,0,0,1.5.32A14.25,14.25,0,0,0,512,170.44Z" transform="translate(0 0)"/><path class="cls-4" d="M530.75,174.37V138.58h12.33a29.91,29.91,0,0,1,6.37.51,12.14,12.14,0,0,1,5.25,2.56,14.58,14.58,0,0,1,4.24,6.12,24,24,0,0,1,1.4,8.51,25,25,0,0,1-1,7.23,17.54,17.54,0,0,1-2.44,5.21,13,13,0,0,1-3.26,3.25,13.27,13.27,0,0,1-4.27,1.79,24.38,24.38,0,0,1-5.75.61Zm4.74-4.22h7.64a18.55,18.55,0,0,0,5.55-.66,8,8,0,0,0,3.21-1.86,11.29,11.29,0,0,0,2.62-4.53,22.12,22.12,0,0,0,.94-6.9q0-5.61-1.84-8.63a9.28,9.28,0,0,0-4.48-4,18.52,18.52,0,0,0-6.13-.73h-7.52Z" transform="translate(0 0)"/><path class="cls-4" d="M584.05,166l4.54.56a11.08,11.08,0,0,1-4,6.18,13.48,13.48,0,0,1-16.44-1.31q-3.33-3.5-3.33-9.83,0-6.54,3.37-10.16a11.41,11.41,0,0,1,8.74-3.61,11.09,11.09,0,0,1,8.5,3.54q3.3,3.54,3.3,10,0,.39,0,1.17H569.38a10,10,0,0,0,2.42,6.54,7.19,7.19,0,0,0,5.42,2.27,6.72,6.72,0,0,0,4.13-1.27A8.43,8.43,0,0,0,584.05,166Zm-14.43-7.1H584.1a8.79,8.79,0,0,0-1.66-4.91,6.74,6.74,0,0,0-5.44-2.54,7,7,0,0,0-5.09,2A8,8,0,0,0,569.62,158.92Z" transform="translate(0 0)"/><path class="cls-4" d="M611,164.87l4.32.56a11.21,11.21,0,0,1-3.63,7,10.55,10.55,0,0,1-7.17,2.53,11.14,11.14,0,0,1-8.56-3.48q-3.23-3.48-3.23-10a18,18,0,0,1,1.39-7.35,9.71,9.71,0,0,1,4.24-4.72,12.58,12.58,0,0,1,6.19-1.57,10.76,10.76,0,0,1,6.91,2.14,9.8,9.8,0,0,1,3.44,6.07l-4.27.66a7.09,7.09,0,0,0-2.16-3.93,5.59,5.59,0,0,0-3.75-1.32,6.82,6.82,0,0,0-5.4,2.38q-2.08,2.38-2.08,7.53t2,7.59a6.51,6.51,0,0,0,5.22,2.37,6.16,6.16,0,0,0,4.32-1.59A7.88,7.88,0,0,0,611,164.87Z" transform="translate(0 0)"/><path class="cls-4" d="M619.13,143.63v-5.05h4.39v5.05Zm0,30.74V148.44h4.39v25.93Z" transform="translate(0 0)"/><path class="cls-4" d="M628.46,166.63l4.35-.68a6.07,6.07,0,0,0,2,4,7.11,7.11,0,0,0,4.68,1.39,6.87,6.87,0,0,0,4.49-1.23,3.69,3.69,0,0,0,1.46-2.89,2.67,2.67,0,0,0-1.29-2.34,19.08,19.08,0,0,0-4.49-1.49,41,41,0,0,1-6.7-2.11,6.4,6.4,0,0,1-3.8-5.95,6.68,6.68,0,0,1,.79-3.21,7.1,7.1,0,0,1,2.16-2.45,9.07,9.07,0,0,1,2.79-1.28,13.27,13.27,0,0,1,3.8-.53,15,15,0,0,1,5.36.88,7.29,7.29,0,0,1,3.41,2.38,9.31,9.31,0,0,1,1.51,4l-4.3.59a4.7,4.7,0,0,0-1.7-3.12,6.21,6.21,0,0,0-4-1.12,7.19,7.19,0,0,0-4.32,1,2.91,2.91,0,0,0-1.29,2.34,2.42,2.42,0,0,0,.54,1.54,3.86,3.86,0,0,0,1.68,1.17q.66.24,3.88,1.12a54,54,0,0,1,6.51,2,6.6,6.6,0,0,1,2.89,2.31,6.45,6.45,0,0,1,1,3.76,7.37,7.37,0,0,1-1.28,4.14,8.28,8.28,0,0,1-3.7,3,13.45,13.45,0,0,1-5.47,1.06q-5.05,0-7.7-2.1A9.76,9.76,0,0,1,628.46,166.63Z" transform="translate(0 0)"/><path class="cls-4" d="M655.24,143.63v-5.05h4.39v5.05Zm0,30.74V148.44h4.39v25.93Z" transform="translate(0 0)"/><path class="cls-4" d="M664.69,161.41q0-7.2,4-10.67a12.07,12.07,0,0,1,8.15-2.88,11.63,11.63,0,0,1,8.74,3.5Q689,154.86,689,161a17.16,17.16,0,0,1-1.5,7.87,10.63,10.63,0,0,1-4.37,4.46,12.73,12.73,0,0,1-6.26,1.59,11.65,11.65,0,0,1-8.8-3.49Q664.69,168,664.69,161.41Zm4.52,0q0,5,2.17,7.46a7.23,7.23,0,0,0,10.91,0q2.17-2.49,2.17-7.59,0-4.81-2.19-7.29a7.24,7.24,0,0,0-10.9,0Q669.21,156.43,669.21,161.41Z" transform="translate(0 0)"/><path class="cls-4" d="M694.13,174.37V148.44h4v3.69a9.32,9.32,0,0,1,8.25-4.27,10.85,10.85,0,0,1,4.31.84,6.79,6.79,0,0,1,2.94,2.21,8.5,8.5,0,0,1,1.37,3.25,25.24,25.24,0,0,1,.24,4.27v15.94h-4.39V158.6a11.84,11.84,0,0,0-.51-4,4.22,4.22,0,0,0-1.82-2.12,5.79,5.79,0,0,0-3.06-.79,7.12,7.12,0,0,0-4.85,1.78q-2,1.78-2,6.76v14.16Z" transform="translate(0 0)"/></g></g></g></svg>