<svg id="Layer_1" data-name="Layer 1" xmlns="http://www.w3.org/2000/svg" viewBox="0 0 523 173"><defs><style>.cls-1{fill:none;}.cls-2{fill:#00c0f2;}.cls-3{fill:#e6e7e8;}.cls-4{fill:#4c4c4e;}</style></defs><title>IP_sc4_remoteBtn</title><rect class="cls-1" x="3035.4" y="25.33" width="226.5" height="67.9"/><rect class="cls-2" x="2086.5" y="-82.67" width="89.4" height="193.5"/><rect class="cls-2" x="3417.1" y="-82.67" width="89.4" height="193.5"/><rect class="cls-2" x="1968.45" y="-80.35" width="89.4" height="193.5"/><path class="cls-3" d="M485.95,126.22a9.82,9.82,0,0,1-9.8,9.8H45.75a9.82,9.82,0,0,1-9.8-9.8V45.82a9.82,9.82,0,0,1,9.8-9.8h430.4a9.82,9.82,0,0,1,9.8,9.8Z"/><path class="cls-4" d="M123,95c-1-1.66-1.37-2.34-2.34-4.1-2.48-4.5-3.24-5.72-4.14-6.12a2.54,2.54,0,0,0-.79-.22V95h-4.93V70h9.32a6.93,6.93,0,0,1,7.34,7.34c0,3.74-2.48,6.84-5.58,6.91a4.81,4.81,0,0,1,1,1c1.29,1.62,5.11,8.13,6,9.72Zm-2.63-20.62a9,9,0,0,0-2.84-.36h-1.8v6.77h1.69c2.16,0,3.1-.22,3.78-.83a3.41,3.41,0,0,0,1-2.52A2.93,2.93,0,0,0,120.33,74.36Z"/><path class="cls-4" d="M135.92,87.28v.14c0,2.84,1.4,4.46,3.89,4.46a7.21,7.21,0,0,0,4.68-1.84l1.87,2.88a10.57,10.57,0,0,1-6.95,2.56c-5.29,0-8.71-3.74-8.71-9.54,0-3.31.68-5.51,2.3-7.31a7.24,7.24,0,0,1,5.79-2.48,7.55,7.55,0,0,1,5.33,1.94c1.69,1.73,2.45,4.21,2.45,8.06v1.12Zm5.65-3.74a4.74,4.74,0,0,0-.58-2.77,2.33,2.33,0,0,0-2.12-1.08c-1.84,0-2.88,1.44-2.88,4v.07h5.58Z"/><path class="cls-4" d="M169.18,95V82.82c0-2.2-.25-2.63-1.51-2.63a5.48,5.48,0,0,0-3.2,1.55V95h-4.57V83c0-2.3-.32-2.84-1.66-2.84a5.11,5.11,0,0,0-3.17,1.4V95h-4.71V82.13c0-2.66-.18-3.81-.68-4.71L154,76.23a4.67,4.67,0,0,1,.65,1.87,6.35,6.35,0,0,1,4.5-1.87,5,5,0,0,1,3.74,1.51,6,6,0,0,1,.72.9,6.77,6.77,0,0,1,5.22-2.41,5.7,5.7,0,0,1,3.63,1.15c1,.9,1.37,2,1.37,4.5V95Z"/><path class="cls-4" d="M192.37,92.82a7.53,7.53,0,0,1-6.08,2.55c-5,0-8.28-3.74-8.28-9.54s3.31-9.65,8.28-9.65A7.72,7.72,0,0,1,192.54,79c1.48,1.73,2.13,3.74,2.13,6.73C194.67,88.86,193.95,91,192.37,92.82Zm-3.92-12.09a2.58,2.58,0,0,0-2.09-1,2.6,2.6,0,0,0-2.48,1.87,13.13,13.13,0,0,0-.5,4.1,13,13,0,0,0,.61,4.64,2.67,2.67,0,0,0,2.45,1.51c2.09,0,3-1.87,3-6.23C189.41,83.18,189.09,81.56,188.44,80.73Z"/><path class="cls-4" d="M204.1,95.41c-2.45,0-4.39-1.08-5-2.7a6.78,6.78,0,0,1-.32-2.84v-10H197V76.55h1.84A31.78,31.78,0,0,1,199,72.2L203.89,71a55.13,55.13,0,0,0-.29,5.58h4.32l-1.22,3.31H203.6v9.25c0,2.34.43,3,2.09,3a6.3,6.3,0,0,0,1.73-.36l.61,2.88A10.11,10.11,0,0,1,204.1,95.41Z"/><path class="cls-4" d="M215.12,87.28v.14c0,2.84,1.4,4.46,3.89,4.46a7.21,7.21,0,0,0,4.68-1.84l1.87,2.88a10.57,10.57,0,0,1-6.95,2.56c-5.29,0-8.71-3.74-8.71-9.54,0-3.31.68-5.51,2.3-7.31A7.24,7.24,0,0,1,218,76.16a7.55,7.55,0,0,1,5.33,1.94c1.69,1.73,2.45,4.21,2.45,8.06v1.12Zm5.65-3.74a4.75,4.75,0,0,0-.58-2.77,2.33,2.33,0,0,0-2.12-1.08c-1.84,0-2.88,1.44-2.88,4v.07h5.58Z"/><path class="cls-4" d="M259.47,99.23a5,5,0,0,1-2.23.43,8.79,8.79,0,0,1-4.61-1.76,21.48,21.48,0,0,0-5.07-2.52c-3.74,0-6.19-1-8.1-3.53a14.8,14.8,0,0,1-2.88-9.29c0-5.4,2.05-9.76,5.65-11.7a11.12,11.12,0,0,1,5.18-1.22c6.66,0,10.76,4.86,10.76,12.71,0,5.44-1.94,9.5-4.93,11.48a14.93,14.93,0,0,1,2.23,1.26,6.25,6.25,0,0,0,3.1,1A16,16,0,0,0,260.8,96ZM251.73,76.7a4.52,4.52,0,0,0-4.39-3.17,4.36,4.36,0,0,0-3.89,2.2,14.54,14.54,0,0,0-1.26,6.84c0,4.32.72,7,2.23,8.1a5,5,0,0,0,3,.87c3.49,0,5-2.66,5-9A20,20,0,0,0,251.73,76.7Z"/><path class="cls-4" d="M274.45,95.49a4.22,4.22,0,0,1-1.44-1.8,6.88,6.88,0,0,1-4.86,1.76c-2.59,0-4.82-1.22-5.44-3a11,11,0,0,1-.4-3.67V77l4.75-.9V87.93a7.28,7.28,0,0,0,.4,3,1.93,1.93,0,0,0,1.69.86,3.57,3.57,0,0,0,3-1.76v-13l4.61-1V90.2a5.36,5.36,0,0,0,1.12,3.35Z"/><path class="cls-4" d="M286.29,87.28v.14c0,2.84,1.4,4.46,3.89,4.46a7.21,7.21,0,0,0,4.68-1.84l1.87,2.88a10.57,10.57,0,0,1-6.95,2.56c-5.29,0-8.71-3.74-8.71-9.54,0-3.31.68-5.51,2.3-7.31a7.24,7.24,0,0,1,5.8-2.48,7.54,7.54,0,0,1,5.33,1.94c1.69,1.73,2.45,4.21,2.45,8.06v1.12Zm5.65-3.74a4.75,4.75,0,0,0-.58-2.77,2.33,2.33,0,0,0-2.12-1.08c-1.84,0-2.88,1.44-2.88,4v.07h5.58Z"/><path class="cls-4" d="M304.87,87.28v.14c0,2.84,1.4,4.46,3.89,4.46a7.21,7.21,0,0,0,4.68-1.84l1.87,2.88a10.57,10.57,0,0,1-6.95,2.56c-5.29,0-8.71-3.74-8.71-9.54,0-3.31.68-5.51,2.3-7.31a7.24,7.24,0,0,1,5.8-2.48,7.54,7.54,0,0,1,5.33,1.94c1.69,1.73,2.45,4.21,2.45,8.06v1.12Zm5.65-3.74a4.75,4.75,0,0,0-.58-2.77,2.34,2.34,0,0,0-2.12-1.08c-1.83,0-2.88,1.44-2.88,4v.07h5.58Z"/><path class="cls-4" d="M329.09,95V83c0-2.09-.36-2.7-1.62-2.7A5.63,5.63,0,0,0,324.13,82V95H319.3V81.63a13.29,13.29,0,0,0-.65-4.32l4.28-1.22a4.73,4.73,0,0,1,.68,2.3A21.44,21.44,0,0,1,325.75,77a7.6,7.6,0,0,1,3.31-.79,4.58,4.58,0,0,1,4.43,2.66,7.43,7.43,0,0,1,.36,2.63V95Z"/><path class="cls-4" d="M344.79,95.56a16.38,16.38,0,0,1-7.45-2.12l1.73-3.53A13.46,13.46,0,0,0,345.18,92a2.26,2.26,0,0,0,2.45-2.09c0-1.26-.9-1.91-2.84-2.27l-2.16-.4a6.5,6.5,0,0,1-3.38-1.87,5.58,5.58,0,0,1-1-3.31c0-3.6,2.84-6,7.13-6a13.85,13.85,0,0,1,6.59,1.73L350.33,81a9.75,9.75,0,0,0-4.54-1.33c-1.4,0-2.34.72-2.34,1.8s.61,1.44,2.3,1.87l2.23.58c2.27.58,3,1.26,3.67,2.09a4.88,4.88,0,0,1,1,3.13C352.67,93,349.5,95.56,344.79,95.56Z"/><path class="cls-4" d="M361.17,95.41a4.33,4.33,0,0,1-4.28-2.52c-.36-.94-.43-1.51-.43-4.14V75a47.55,47.55,0,0,0-.25-5.54l4.93-1.12a27.45,27.45,0,0,1,.25,4.79V87.49c0,3.17,0,3.6.32,4.1a1.1,1.1,0,0,0,1,.5,1.63,1.63,0,0,0,.54-.07l.83,2.88A8,8,0,0,1,361.17,95.41Z"/><path class="cls-4" d="M379.35,95.92a5.16,5.16,0,0,1-2.59-2.23,8.86,8.86,0,0,1-1.12,1,6.37,6.37,0,0,1-3.71,1c-4.1,0-6.33-2.09-6.33-5.76,0-4.32,3-6.33,8.85-6.33.36,0,.68,0,1.08,0v-.76c0-2.05-.4-2.74-2.16-2.74A10.15,10.15,0,0,0,368,82.2L366,78.75a17.7,17.7,0,0,1,3-1.51,12.47,12.47,0,0,1,5-1.08c3.1,0,5.22,1.15,5.94,3.2a8.53,8.53,0,0,1,.32,3.31l-.11,6.19c0,2,.11,2.88,1.73,4.1Zm-4.1-9c-3.35,0-4.5.61-4.5,2.81a2.19,2.19,0,0,0,2.12,2.41,3.5,3.5,0,0,0,2.52-1.26l.07-4Z"/><path class="cls-4" d="M395.44,95V83c0-2.09-.36-2.7-1.62-2.7A5.63,5.63,0,0,0,390.47,82V95h-4.82V81.63a13.26,13.26,0,0,0-.65-4.32l4.28-1.22a4.72,4.72,0,0,1,.68,2.3A21.33,21.33,0,0,1,392.09,77a7.6,7.6,0,0,1,3.31-.79,4.58,4.58,0,0,1,4.43,2.66,7.43,7.43,0,0,1,.36,2.63V95Z"/><path class="cls-4" d="M416.68,95a3.3,3.3,0,0,1-.29-1.08,6.19,6.19,0,0,1-4.25,1.55c-4.68,0-7.63-3.63-7.63-9.36s3.2-9.72,7.88-9.72a5,5,0,0,1,3.28,1,22.35,22.35,0,0,1-.14-2.74V68.35l4.79.76V88.25c0,4.54.36,6,.68,6.73ZM415.6,81.41A4,4,0,0,0,413,80.23c-2.16,0-3.1,1.8-3.1,5.9s.83,5.26,3.35,5.26a3.46,3.46,0,0,0,2.38-1.19Z"/></svg>