<svg id="Layer_1" data-name="Layer 1" xmlns="http://www.w3.org/2000/svg" viewBox="0 0 523 173"><defs><style>.cls-1{fill:#e6e7e8;}.cls-2{fill:#4c4c4e;}</style></defs><title>IP_sc4_sunshineBtn</title><path class="cls-1" d="M486.65,126.22a9.82,9.82,0,0,1-9.8,9.8h-431a9.82,9.82,0,0,1-9.8-9.8V45.82a9.82,9.82,0,0,1,9.8-9.8h431a9.82,9.82,0,0,1,9.8,9.8Z"/><path class="cls-2" d="M150.64,95.44a17.89,17.89,0,0,1-8.53-2.27L144,89.25a14.18,14.18,0,0,0,6.88,2c2.88,0,4.39-1.19,4.39-3.42,0-1.62-1-2.63-3.28-3.24l-2.77-.76c-2.48-.68-4-1.66-4.93-3.17a7.23,7.23,0,0,1-1-3.82c0-4.57,3.67-7.74,9-7.74a14.68,14.68,0,0,1,8.35,2.52l-2.37,3.6a10.79,10.79,0,0,0-5.83-1.91c-2.05,0-3.49,1.19-3.49,2.88,0,1.29.68,1.94,2.77,2.52l3,.83c4.1,1.12,6.33,3.74,6.33,7.45C161,92.1,156.87,95.44,150.64,95.44Z"/><path class="cls-2" d="M176.71,95.41a4.21,4.21,0,0,1-1.44-1.8,6.88,6.88,0,0,1-4.86,1.76c-2.59,0-4.82-1.22-5.44-3a11,11,0,0,1-.4-3.67V76.91l4.75-.9V87.85a7.28,7.28,0,0,0,.4,3,1.93,1.93,0,0,0,1.69.86,3.57,3.57,0,0,0,3-1.76V77L179,76V90.12a5.36,5.36,0,0,0,1.12,3.35Z"/><path class="cls-2" d="M193.84,94.91v-12c0-2.09-.36-2.7-1.62-2.7a5.63,5.63,0,0,0-3.35,1.66v13H184V81.55a13.29,13.29,0,0,0-.65-4.32L187.69,76a4.73,4.73,0,0,1,.68,2.3,21.44,21.44,0,0,1,2.12-1.37,7.6,7.6,0,0,1,3.31-.79,4.58,4.58,0,0,1,4.43,2.66,7.43,7.43,0,0,1,.36,2.63V94.91Z"/><path class="cls-2" d="M209.54,95.48a16.38,16.38,0,0,1-7.45-2.12l1.73-3.53a13.46,13.46,0,0,0,6.12,2.09,2.26,2.26,0,0,0,2.45-2.09c0-1.26-.9-1.91-2.84-2.27l-2.16-.4A6.5,6.5,0,0,1,204,85.29a5.58,5.58,0,0,1-1-3.31c0-3.6,2.84-6,7.13-6a13.84,13.84,0,0,1,6.59,1.73l-1.58,3.24a9.75,9.75,0,0,0-4.54-1.33c-1.4,0-2.34.72-2.34,1.8s.61,1.44,2.3,1.87l2.23.58c2.27.58,3,1.26,3.67,2.09a4.88,4.88,0,0,1,1,3.13C217.42,92.89,214.25,95.48,209.54,95.48Z"/><path class="cls-2" d="M231.78,94.91V82.52c0-1.84-.5-2.52-1.87-2.52a6.38,6.38,0,0,0-3.81,1.69V94.91h-4.9V73.59a19.5,19.5,0,0,0-.36-4.21l4.93-1.15a24.93,24.93,0,0,1,.32,4.5V76.4c0,.58-.07,1.33-.07,1.55a8.07,8.07,0,0,1,5.22-2c2.34,0,4.21,1,4.79,2.63A8.64,8.64,0,0,1,236.5,82V94.91Z"/><path class="cls-2" d="M244.31,74.39a3,3,0,0,1-3-3,3,3,0,0,1,3-3,2.94,2.94,0,0,1,2.92,3A3,3,0,0,1,244.31,74.39ZM241.9,94.91V76.8l4.82-.76V94.91Z"/><path class="cls-2" d="M261.92,94.91v-12c0-2.09-.36-2.7-1.62-2.7a5.62,5.62,0,0,0-3.35,1.66v13h-4.82V81.55a13.26,13.26,0,0,0-.65-4.32L255.76,76a4.73,4.73,0,0,1,.68,2.3,21.43,21.43,0,0,1,2.12-1.37,7.6,7.6,0,0,1,3.31-.79,4.58,4.58,0,0,1,4.43,2.66,7.43,7.43,0,0,1,.36,2.63V94.91Z"/><path class="cls-2" d="M276.21,87.2v.14c0,2.84,1.4,4.46,3.89,4.46A7.21,7.21,0,0,0,284.78,90l1.87,2.88a10.57,10.57,0,0,1-6.95,2.56c-5.29,0-8.71-3.74-8.71-9.54,0-3.31.68-5.51,2.3-7.31a7.24,7.24,0,0,1,5.79-2.48A7.55,7.55,0,0,1,284.42,78c1.69,1.73,2.45,4.21,2.45,8.06V87.2Zm5.65-3.74a4.74,4.74,0,0,0-.58-2.77,2.33,2.33,0,0,0-2.12-1.08c-1.84,0-2.88,1.44-2.88,4v.07h5.58Z"/><path class="cls-2" d="M308.86,95.34a10.21,10.21,0,0,1-8.17-3.46,13.06,13.06,0,0,1-3-9,16,16,0,0,1,1.69-7.78,10.75,10.75,0,0,1,9.58-5.79,10.23,10.23,0,0,1,6.33,2L313,74.75a6.59,6.59,0,0,0-4-1.4,5.18,5.18,0,0,0-4.25,2.16c-1,1.44-1.4,3.53-1.4,6.44,0,3.42.29,5.33,1,6.7a5.2,5.2,0,0,0,4.82,2.81,6.47,6.47,0,0,0,4.28-1.62l2.3,3.17A10.23,10.23,0,0,1,308.86,95.34Z"/><path class="cls-2" d="M331.14,92.75a7.53,7.53,0,0,1-6.08,2.55c-5,0-8.28-3.74-8.28-9.54s3.31-9.65,8.28-9.65a7.72,7.72,0,0,1,6.26,2.77c1.48,1.73,2.12,3.74,2.12,6.73C333.45,88.79,332.73,90.94,331.14,92.75Zm-3.92-12.09a2.64,2.64,0,0,0-4.57.9,13.13,13.13,0,0,0-.5,4.1,13,13,0,0,0,.61,4.64,2.67,2.67,0,0,0,2.45,1.51c2.09,0,3-1.87,3-6.23C328.19,83.1,327.87,81.48,327.22,80.65Z"/><path class="cls-2" d="M349.9,95.84a5.16,5.16,0,0,1-2.59-2.23,8.93,8.93,0,0,1-1.12,1,6.37,6.37,0,0,1-3.71,1c-4.1,0-6.34-2.09-6.34-5.76,0-4.32,3-6.33,8.86-6.33.36,0,.68,0,1.08,0v-.76c0-2.05-.4-2.74-2.16-2.74a10.15,10.15,0,0,0-5.33,2.09l-2.05-3.46a17.7,17.7,0,0,1,3-1.51,12.48,12.48,0,0,1,5-1.08c3.1,0,5.22,1.15,5.94,3.2a8.53,8.53,0,0,1,.32,3.31l-.11,6.19c0,2,.11,2.88,1.73,4.1Zm-4.1-9c-3.35,0-4.5.61-4.5,2.81a2.19,2.19,0,0,0,2.12,2.41,3.5,3.5,0,0,0,2.52-1.26l.07-4Z"/><path class="cls-2" d="M361.67,95.48a16.38,16.38,0,0,1-7.45-2.12l1.73-3.53a13.46,13.46,0,0,0,6.12,2.09,2.26,2.26,0,0,0,2.45-2.09c0-1.26-.9-1.91-2.84-2.27l-2.16-.4a6.5,6.5,0,0,1-3.38-1.87,5.58,5.58,0,0,1-1-3.31c0-3.6,2.84-6,7.13-6a13.84,13.84,0,0,1,6.59,1.73l-1.58,3.24a9.75,9.75,0,0,0-4.54-1.33c-1.4,0-2.34.72-2.34,1.8s.61,1.44,2.3,1.87l2.23.58c2.27.58,3,1.26,3.67,2.09a4.88,4.88,0,0,1,1,3.13C369.55,92.89,366.39,95.48,361.67,95.48Z"/><path class="cls-2" d="M378.63,95.34c-2.45,0-4.39-1.08-5-2.7a6.78,6.78,0,0,1-.32-2.84v-10H371.5V76.48h1.84a32,32,0,0,1,.18-4.36l4.9-1.22a55.11,55.11,0,0,0-.29,5.58h4.32l-1.22,3.31h-3.1V89c0,2.34.43,3,2.09,3a6.31,6.31,0,0,0,1.73-.36l.61,2.88A10.11,10.11,0,0,1,378.63,95.34Z"/></svg>