<svg xmlns="http://www.w3.org/2000/svg" viewBox="0 0 147.3 30.71"><defs><style>.cls-1{fill:#00c0f2;}</style></defs><title>IP_sc4_phaseBtn1</title><g id="Layer_2" data-name="Layer 2"><g id="Ui"><path class="cls-1" d="M18.1,23.92c-1.34.63-2.6,1-5.84,1H9V35.64H3.15V6.44h7.69c5,0,6.47.5,8.11,1.43a8.2,8.2,0,0,1,4.2,7.56A9,9,0,0,1,18.1,23.92ZM12.77,11.19H9v8.91H12.1c2.39,0,3.11-.29,3.91-1.51a5.2,5.2,0,0,0,.71-3C16.72,12.83,15.25,11.19,12.77,11.19Z" transform="translate(-3.15 -5.56)"/><path class="cls-1" d="M42.63,35.64v-13h-8.4v13H28.39V6.44h5.84V17.78h8.4V6.44h6v29.2Z" transform="translate(-3.15 -5.56)"/><path class="cls-1" d="M71.49,35.64l-2.06-6.93H60.86L58.8,35.64H52.67L62.25,6.36h6.34l9.2,29.28ZM66.4,18c-.29-1.34-1.18-5.17-1.18-5.17s-.84,3.44-1.39,5.63-.92,3.49-1.55,5.42H68S67,20.77,66.4,18Z" transform="translate(-3.15 -5.56)"/><path class="cls-1" d="M90.13,36.27a20.88,20.88,0,0,1-10-2.65L82.36,29a16.56,16.56,0,0,0,8,2.35c3.36,0,5.12-1.39,5.12-4,0-1.89-1.22-3.07-3.82-3.78l-3.24-.88c-2.9-.8-4.7-1.93-5.75-3.7a8.43,8.43,0,0,1-1.22-4.45c0-5.33,4.29-9,10.46-9a17.13,17.13,0,0,1,9.75,2.94l-2.77,4.2a12.59,12.59,0,0,0-6.81-2.23c-2.39,0-4.08,1.39-4.08,3.36,0,1.51.8,2.27,3.23,2.94l3.53,1c4.79,1.3,7.39,4.37,7.39,8.7C102.19,32.36,97.4,36.27,90.13,36.27Z" transform="translate(-3.15 -5.56)"/><path class="cls-1" d="M107.86,35.64V6.44h16.64l-.76,4.79h-10V18h8.36v4.79h-8.28V30.6h11v5Z" transform="translate(-3.15 -5.56)"/><path class="cls-1" d="M138.39,36.27a20.87,20.87,0,0,1-10-2.65L130.62,29a16.56,16.56,0,0,0,8,2.35c3.36,0,5.13-1.39,5.13-4,0-1.89-1.22-3.07-3.82-3.78l-3.23-.88c-2.9-.8-4.71-1.93-5.75-3.7a8.44,8.44,0,0,1-1.22-4.45c0-5.33,4.28-9,10.46-9a17.13,17.13,0,0,1,9.75,2.94l-2.77,4.2a12.58,12.58,0,0,0-6.81-2.23c-2.39,0-4.07,1.39-4.07,3.36,0,1.51.8,2.27,3.23,2.94l3.53,1c4.79,1.3,7.39,4.37,7.39,8.7C150.45,32.36,145.66,36.27,138.39,36.27Z" transform="translate(-3.15 -5.56)"/></g></g></svg>