<svg xmlns="http://www.w3.org/2000/svg" viewBox="0 0 121 121"><defs><style>.cls-1{fill:#39c6bc;stroke:#39c6bc;stroke-miterlimit:10;}.cls-2{fill:#fff;}</style></defs><title>IP_sc4_done</title><g id="Layer_2" data-name="Layer 2"><g id="Ui"><circle class="cls-1" cx="60.5" cy="60.5" r="60"/><path class="cls-2" d="M23.5,71.29l-2.34-5.44H10.61L8.27,71.29h-6L13.16,46.13H18.6L29.47,71.29ZM15.9,53.62l-3.17,7.31H19Z"/><path class="cls-2" d="M49.72,48.38q2.65,2.25,2.65,6.91t-2.72,6.82q-2.72,2.16-8.3,2.16H38v7H32.39V46.13h8.89Q47.07,46.13,49.72,48.38Zm-4.12,9.9a4.84,4.84,0,0,0,1-3.31,3.51,3.51,0,0,0-1.31-3.1A7.22,7.22,0,0,0,41.21,51H38v8.46h3.78Q44.59,59.41,45.6,58.28Z"/><path class="cls-2" d="M74.09,48.38q2.65,2.25,2.65,6.91T74,62.11q-2.72,2.16-8.3,2.16H62.37v7H56.76V46.13h8.89Q71.45,46.13,74.09,48.38ZM70,58.28A4.84,4.84,0,0,0,71,55a3.51,3.51,0,0,0-1.31-3.1A7.22,7.22,0,0,0,65.58,51h-3.2v8.46h3.78Q69,59.41,70,58.28Z"/><path class="cls-2" d="M81.13,71.29V46.13h5.62V66.29H97.47v5Z"/><path class="cls-2" d="M110.22,71.29H104.6V61.36L95.89,46.13H102l5.44,9.36,5.44-9.36h6.08l-8.71,15.23Z"/></g></g></svg>