<svg id="Layer_1" data-name="Layer 1" xmlns="http://www.w3.org/2000/svg" viewBox="0 0 523 173"><defs><style>.cls-1{fill:none;}.cls-2{fill:#e6e7e8;}.cls-3{fill:#4c4c4e;}</style></defs><title>IP_sc4_greaterBrisbaneBtn</title><rect class="cls-1" x="291.75" y="-40.78" width="226.5" height="67.9"/><path class="cls-2" d="M486,126.22a9.82,9.82,0,0,1-9.8,9.8H45.85a9.82,9.82,0,0,1-9.8-9.8V45.82a9.82,9.82,0,0,1,9.8-9.8h430.4a9.82,9.82,0,0,1,9.8,9.8Z"/><path class="cls-3" d="M149.12,95.27c-3.74,0-6.52-1.22-8.53-3.82-1.84-2.34-2.66-5-2.66-8.75,0-5.29,1.73-9,5.22-11.37a10.33,10.33,0,0,1,6.08-1.76,11.88,11.88,0,0,1,8,2.88l-2.66,3.13a7.92,7.92,0,0,0-5.22-1.94,5.1,5.1,0,0,0-3.6,1.26c-1.69,1.62-2.12,4.32-2.12,8.06,0,3.56.61,5.87,1.87,7.13a5.55,5.55,0,0,0,3.92,1.4,5.92,5.92,0,0,0,2.84-.61V85.19H148.4l-.65-4.1h9.68V93A16.1,16.1,0,0,1,149.12,95.27Z"/><path class="cls-3" d="M171.65,80.77a2.72,2.72,0,0,0-1.4-.36,3.85,3.85,0,0,0-3,1.55V95h-4.82V82.67a16.72,16.72,0,0,0-.68-5.4l4.32-1.15a5.93,5.93,0,0,1,.76,2.63,5.65,5.65,0,0,1,4.32-2.63,3.72,3.72,0,0,1,1.8.4Z"/><path class="cls-3" d="M178.85,87.28v.14c0,2.84,1.4,4.46,3.89,4.46a7.2,7.2,0,0,0,4.68-1.84l1.87,2.88a10.58,10.58,0,0,1-6.95,2.56c-5.29,0-8.71-3.74-8.71-9.54,0-3.31.68-5.51,2.3-7.31a7.24,7.24,0,0,1,5.79-2.48,7.54,7.54,0,0,1,5.33,1.94c1.69,1.73,2.45,4.21,2.45,8.06v1.12Zm5.65-3.74a4.75,4.75,0,0,0-.58-2.77,2.33,2.33,0,0,0-2.12-1.08c-1.84,0-2.88,1.44-2.88,4v.07h5.58Z"/><path class="cls-3" d="M205.42,95.92a5.15,5.15,0,0,1-2.59-2.23,9,9,0,0,1-1.12,1,6.37,6.37,0,0,1-3.71,1c-4.1,0-6.33-2.09-6.33-5.76,0-4.32,3-6.33,8.86-6.33.36,0,.68,0,1.08,0v-.76c0-2.05-.4-2.74-2.16-2.74a10.15,10.15,0,0,0-5.33,2.09l-2.05-3.46a17.77,17.77,0,0,1,3-1.51,12.47,12.47,0,0,1,5-1.08c3.1,0,5.22,1.15,5.94,3.2a8.52,8.52,0,0,1,.32,3.31l-.11,6.19c0,2,.11,2.88,1.73,4.1Zm-4.1-9c-3.35,0-4.5.61-4.5,2.81a2.19,2.19,0,0,0,2.12,2.41,3.49,3.49,0,0,0,2.52-1.26l.07-4Z"/><path class="cls-3" d="M217,95.41c-2.45,0-4.39-1.08-5-2.7a6.78,6.78,0,0,1-.32-2.84v-10h-1.84V76.55h1.84a32,32,0,0,1,.18-4.36L216.8,71a55.12,55.12,0,0,0-.29,5.58h4.32l-1.22,3.31h-3.1v9.25c0,2.34.43,3,2.09,3a6.31,6.31,0,0,0,1.73-.36l.61,2.88A10.13,10.13,0,0,1,217,95.41Z"/><path class="cls-3" d="M228,87.28v.14c0,2.84,1.4,4.46,3.89,4.46a7.21,7.21,0,0,0,4.68-1.84l1.87,2.88a10.58,10.58,0,0,1-6.95,2.56c-5.29,0-8.71-3.74-8.71-9.54,0-3.31.68-5.51,2.3-7.31a7.25,7.25,0,0,1,5.8-2.48,7.54,7.54,0,0,1,5.33,1.94c1.69,1.73,2.45,4.21,2.45,8.06v1.12Zm5.65-3.74a4.74,4.74,0,0,0-.58-2.77A2.33,2.33,0,0,0,231,79.69c-1.84,0-2.88,1.44-2.88,4v.07h5.58Z"/><path class="cls-3" d="M251.65,80.77a2.72,2.72,0,0,0-1.4-.36,3.84,3.84,0,0,0-3,1.55V95h-4.82V82.67a16.69,16.69,0,0,0-.68-5.4l4.32-1.15a5.93,5.93,0,0,1,.76,2.63,5.65,5.65,0,0,1,4.32-2.63,3.72,3.72,0,0,1,1.8.4Z"/><path class="cls-3" d="M274.5,94.91c-.79,0-1.83.07-3.2.07h-7.88V70h8.46c3.06,0,4.64.47,6.16,1.8a5.59,5.59,0,0,1,2.05,4.46,5.53,5.53,0,0,1-1.69,4.18,4.79,4.79,0,0,1-2.3,1.3c3.1.9,5,3,5,6.3A6.59,6.59,0,0,1,274.5,94.91Zm-1.12-20.34a5,5,0,0,0-2.09-.32h-2.88V80h3a4.65,4.65,0,0,0,2.16-.32,3.19,3.19,0,0,0,1.3-2.56A2.71,2.71,0,0,0,273.39,74.57Zm.14,9.75a5.88,5.88,0,0,0-1.94-.22h-3.13v6.77h3.28a3.63,3.63,0,0,0,2.34-.58,3.78,3.78,0,0,0,1.3-2.92A3,3,0,0,0,273.53,84.33Z"/><path class="cls-3" d="M294.56,80.77a2.72,2.72,0,0,0-1.4-.36,3.85,3.85,0,0,0-3,1.55V95h-4.82V82.67a16.72,16.72,0,0,0-.68-5.4L289,76.12a5.93,5.93,0,0,1,.76,2.63,5.65,5.65,0,0,1,4.32-2.63,3.72,3.72,0,0,1,1.8.4Z"/><path class="cls-3" d="M300.35,74.47a3,3,0,0,1-3-3,3,3,0,0,1,3-3,2.94,2.94,0,0,1,2.92,3A3,3,0,0,1,300.35,74.47ZM297.94,95V76.88l4.82-.76V95Z"/><path class="cls-3" d="M313.64,95.56a16.38,16.38,0,0,1-7.45-2.12l1.73-3.53A13.47,13.47,0,0,0,314,92a2.26,2.26,0,0,0,2.45-2.09c0-1.26-.9-1.91-2.84-2.27l-2.16-.4a6.5,6.5,0,0,1-3.38-1.87,5.58,5.58,0,0,1-1-3.31c0-3.6,2.84-6,7.13-6a13.84,13.84,0,0,1,6.59,1.73L319.18,81a9.74,9.74,0,0,0-4.54-1.33c-1.4,0-2.34.72-2.34,1.8s.61,1.44,2.3,1.87l2.23.58c2.27.58,3,1.26,3.67,2.09a4.88,4.88,0,0,1,1,3.13C321.52,93,318.35,95.56,313.64,95.56Z"/><path class="cls-3" d="M337.79,93.9a6.1,6.1,0,0,1-4,1.44,5.1,5.1,0,0,1-4.1-1.69,3.13,3.13,0,0,1-.5,1.33h-4.32c.36-.83.47-1.37.47-3.92V74a19.62,19.62,0,0,0-.32-4.54l4.93-1.15a25.05,25.05,0,0,1,.18,3.28v4.36a9.77,9.77,0,0,1-.11,1.62,5.05,5.05,0,0,1,3.92-1.48c4.5,0,7.31,3.6,7.31,9.36C341.21,89.19,340.06,92.1,337.79,93.9Zm-2.27-11.48a2.64,2.64,0,0,0-2.63-2.34,3.7,3.7,0,0,0-2.74,1.48v8.5a3.8,3.8,0,0,0,2.7,1.19,2.25,2.25,0,0,0,2.34-1.44,10.07,10.07,0,0,0,.54-4.25A13.24,13.24,0,0,0,335.52,82.42Z"/><path class="cls-3" d="M357.84,95.92a5.15,5.15,0,0,1-2.59-2.23,9,9,0,0,1-1.12,1,6.37,6.37,0,0,1-3.71,1c-4.1,0-6.33-2.09-6.33-5.76,0-4.32,3-6.33,8.86-6.33.36,0,.68,0,1.08,0v-.76c0-2.05-.4-2.74-2.16-2.74a10.15,10.15,0,0,0-5.33,2.09l-2.05-3.46a17.77,17.77,0,0,1,3-1.51,12.47,12.47,0,0,1,5-1.08c3.1,0,5.22,1.15,5.94,3.2a8.52,8.52,0,0,1,.32,3.31l-.11,6.19c0,2,.11,2.88,1.73,4.1Zm-4.1-9c-3.35,0-4.5.61-4.5,2.81a2.19,2.19,0,0,0,2.12,2.41,3.49,3.49,0,0,0,2.52-1.26l.07-4Z"/><path class="cls-3" d="M373.94,95V83c0-2.09-.36-2.7-1.62-2.7A5.63,5.63,0,0,0,369,82V95h-4.82V81.63a13.27,13.27,0,0,0-.65-4.32l4.28-1.22a4.72,4.72,0,0,1,.68,2.3A21.32,21.32,0,0,1,370.59,77a7.6,7.6,0,0,1,3.31-.79,4.58,4.58,0,0,1,4.43,2.66,7.44,7.44,0,0,1,.36,2.63V95Z"/><path class="cls-3" d="M388.23,87.28v.14c0,2.84,1.4,4.46,3.89,4.46a7.21,7.21,0,0,0,4.68-1.84l1.87,2.88a10.58,10.58,0,0,1-6.95,2.56c-5.29,0-8.71-3.74-8.71-9.54,0-3.31.68-5.51,2.3-7.31a7.25,7.25,0,0,1,5.8-2.48,7.54,7.54,0,0,1,5.33,1.94c1.69,1.73,2.45,4.21,2.45,8.06v1.12Zm5.65-3.74a4.74,4.74,0,0,0-.58-2.77,2.33,2.33,0,0,0-2.12-1.08c-1.84,0-2.88,1.44-2.88,4v.07h5.58Z"/></svg>