<svg id="Layer_1" data-name="Layer 1" xmlns="http://www.w3.org/2000/svg" viewBox="0 0 523 173"><defs><style>.cls-1{fill:#e6e7e8;}.cls-2{fill:#4c4c4e;}</style></defs><title>IP_sc4_wideBayBtn</title><path class="cls-1" d="M36.25,126.17A9.82,9.82,0,0,0,46,136H477a9.82,9.82,0,0,0,9.8-9.8V45.87a9.82,9.82,0,0,0-9.8-9.8H46a9.82,9.82,0,0,0-9.8,9.8Z"/><path class="cls-2" d="M216.33,95.16h-5.51L208.58,85a63.21,63.21,0,0,1-1.19-7.05c-.11.68-.54,3.78-1.19,7l-2.09,10.26H198.4l-6-25.23h5.33l2.16,9.86c.94,4.36,1.26,7.7,1.33,8.21a77.91,77.91,0,0,1,1.29-8l2.23-10.11h5.51l2.3,11.19c.47,2.23,1,6.19,1.08,6.59.07-.86.83-5.87,1.37-8.28l2.05-9.5h5.29Z"/><path class="cls-2" d="M227.31,74.43a3,3,0,0,1-3-3,3,3,0,0,1,3-3,2.94,2.94,0,0,1,2.92,3A3,3,0,0,1,227.31,74.43ZM224.9,94.94V76.84l4.82-.76V94.94Z"/><path class="cls-2" d="M246.21,94.94a3.27,3.27,0,0,1-.29-1.08,6.18,6.18,0,0,1-4.25,1.55c-4.68,0-7.63-3.64-7.63-9.36s3.2-9.72,7.88-9.72a5,5,0,0,1,3.28,1,22.35,22.35,0,0,1-.14-2.74V68.31l4.79.76V88.21c0,4.54.36,6,.68,6.73Zm-1.08-13.57a4,4,0,0,0-2.63-1.19c-2.16,0-3.1,1.8-3.1,5.9s.83,5.25,3.35,5.25a3.45,3.45,0,0,0,2.38-1.19Z"/><path class="cls-2" d="M259.38,87.24v.14c0,2.84,1.4,4.46,3.89,4.46A7.21,7.21,0,0,0,268,90l1.87,2.88a10.58,10.58,0,0,1-6.95,2.56c-5.29,0-8.71-3.74-8.71-9.54,0-3.31.68-5.51,2.3-7.31a7.25,7.25,0,0,1,5.8-2.48,7.54,7.54,0,0,1,5.33,1.94c1.69,1.73,2.45,4.21,2.45,8.06v1.12ZM265,83.5a4.75,4.75,0,0,0-.58-2.77,2.33,2.33,0,0,0-2.12-1.08c-1.84,0-2.88,1.44-2.88,4v.07H265Z"/><path class="cls-2" d="M293,94.87c-.79,0-1.84.07-3.2.07h-7.88v-25h8.46c3.06,0,4.64.47,6.15,1.8a5.59,5.59,0,0,1,2.05,4.46,5.53,5.53,0,0,1-1.69,4.18,4.79,4.79,0,0,1-2.3,1.3c3.1.9,5,3,5,6.3A6.59,6.59,0,0,1,293,94.87Zm-1.12-20.34a5,5,0,0,0-2.09-.32h-2.88v5.72h3a4.66,4.66,0,0,0,2.16-.32,3.19,3.19,0,0,0,1.3-2.56A2.71,2.71,0,0,0,291.89,74.54Zm.14,9.75a5.88,5.88,0,0,0-1.94-.22H287v6.77h3.28a3.63,3.63,0,0,0,2.34-.58,3.78,3.78,0,0,0,1.3-2.92A3,3,0,0,0,292,84.29Z"/><path class="cls-2" d="M316,95.88a5.15,5.15,0,0,1-2.59-2.23,8.93,8.93,0,0,1-1.12,1,6.37,6.37,0,0,1-3.71,1c-4.1,0-6.33-2.09-6.33-5.76,0-4.32,3-6.33,8.85-6.33.36,0,.68,0,1.08,0v-.76c0-2.05-.4-2.74-2.16-2.74a10.15,10.15,0,0,0-5.33,2.09l-2.05-3.46a17.77,17.77,0,0,1,3-1.51,12.47,12.47,0,0,1,5-1.08c3.1,0,5.22,1.15,5.94,3.2a8.52,8.52,0,0,1,.32,3.31l-.11,6.19c0,2,.11,2.88,1.73,4.1Zm-4.1-9c-3.35,0-4.5.61-4.5,2.81a2.19,2.19,0,0,0,2.12,2.41A3.49,3.49,0,0,0,312,90.84l.07-4Z"/><path class="cls-2" d="M331,95.23c-1.26,3.56-2.2,5.11-3.53,6.08A9.72,9.72,0,0,1,323,103l-1.66-3.17a10.8,10.8,0,0,0,3-1.22,5.54,5.54,0,0,0,1.37-1.51,11,11,0,0,0,1-2.16h-1.22L319.43,76.8l4.93-.58L327.57,87l1,3.82c0-.11.36-2.05.58-3,.14-.61.43-1.69.72-2.56l2.77-8.78h5.08Z"/></svg>