<svg xmlns="http://www.w3.org/2000/svg" xmlns:xlink="http://www.w3.org/1999/xlink" viewBox="0 0 1080 146.03"><defs><style>.cls-1{fill:none;}.cls-2{clip-path:url(#clip-path);}.cls-3{fill:#39c6bc;}.cls-4{fill:#fff;}.cls-5{fill:#dbdcde;}</style><clipPath id="clip-path"><rect class="cls-1" width="1080" height="146.03"/></clipPath></defs><title>IP_sc5_header</title><g id="Ui"><g class="cls-2"><path class="cls-3" d="M1108.52,0H-18.37a10,10,0,0,0-10,10V146H1118.52V10A10,10,0,0,0,1108.52,0Z"/></g><path class="cls-4" d="M399,65.7a3,3,0,0,0-1.12,2.45,2.77,2.77,0,0,0,1.38,2.42,25.13,25.13,0,0,0,6.35,2.13,17.89,17.89,0,0,1,7.72,3.68q2.75,2.45,2.75,7.15a9.44,9.44,0,0,1-3.52,7.63,14.06,14.06,0,0,1-9.28,2.92,21.47,21.47,0,0,1-15-6.15l4.65-5.7q5.65,5,10.45,5a5.49,5.49,0,0,0,3.38-.92,3,3,0,0,0,1.22-2.5,2.91,2.91,0,0,0-1.3-2.5,17,17,0,0,0-5.15-1.87q-6.1-1.45-8.92-3.78t-2.83-7.3a9,9,0,0,1,3.58-7.67,14.38,14.38,0,0,1,8.92-2.7,21.46,21.46,0,0,1,7,1.2,18.77,18.77,0,0,1,6.1,3.4l-4,5.7a15.39,15.39,0,0,0-9.4-3.45A4.7,4.7,0,0,0,399,65.7Z"/><path class="cls-4" d="M422.73,58.73h7.8v35h-7.8Z"/><path class="cls-4" d="M463.2,61.85q3.68,3.13,3.67,9.6t-3.77,9.48q-3.78,3-11.53,3h-4.65v9.75h-7.8v-35h12.35Q459.53,58.73,463.2,61.85ZM457.48,75.6a6.72,6.72,0,0,0,1.4-4.6q0-3-1.83-4.3t-5.67-1.27h-4.45V77.18h5.25Q456.08,77.18,457.48,75.6Z"/><path class="cls-4" d="M510.25,61.85q3.68,3.13,3.67,9.6t-3.77,9.48q-3.78,3-11.53,3H494v9.75h-7.8v-35h12.35Q506.58,58.73,510.25,61.85ZM504.53,75.6a6.72,6.72,0,0,0,1.4-4.6q0-3-1.83-4.3t-5.67-1.27H494V77.18h5.25Q503.13,77.18,504.53,75.6Z"/><path class="cls-4" d="M533.43,73.38a5.68,5.68,0,0,0-5,2.38A10.79,10.79,0,0,0,526.78,82V93.68h-7.5V66.78h7.5v3.55a12.6,12.6,0,0,1,3.63-2.8,9.86,9.86,0,0,1,4.42-1.2l.05,7.05Z"/><path class="cls-4" d="M566.33,80.23a13.3,13.3,0,0,1-4,9.85,14.94,14.94,0,0,1-20.35,0,14,14,0,0,1,0-19.73,14.87,14.87,0,0,1,20.35,0A13.39,13.39,0,0,1,566.33,80.23Zm-20.9,0a7.71,7.71,0,0,0,1.88,5.38,6.59,6.59,0,0,0,9.6,0,7.71,7.71,0,0,0,1.88-5.37,7.8,7.8,0,0,0-1.87-5.4,6.54,6.54,0,0,0-9.6,0A7.8,7.8,0,0,0,545.43,80.23Z"/><path class="cls-4" d="M574.43,94.18V66.73h7.5V94.78a9,9,0,0,1-9.22,9.5,10.83,10.83,0,0,1-7.37-3.2l3.45-5.55a4.37,4.37,0,0,0,3.35,1.75,2.06,2.06,0,0,0,1.65-.77A3.56,3.56,0,0,0,574.43,94.18Zm.63-30.83a4.47,4.47,0,1,1,3.13,1.28A4.25,4.25,0,0,1,575.05,63.35Z"/><path class="cls-4" d="M612.33,89.78a15,15,0,0,1-10.67,4.3,14.16,14.16,0,0,1-10.12-3.77,13.26,13.26,0,0,1-4-10.12,13.06,13.06,0,0,1,4.08-10.1,13.74,13.74,0,0,1,9.63-3.75,13.92,13.92,0,0,1,9.42,3.35,11.52,11.52,0,0,1,3.88,9.2v4h-19.6a5.34,5.34,0,0,0,2.3,3.6,7.36,7.36,0,0,0,4.4,1.4,8.63,8.63,0,0,0,6.5-2.65Zm-7.2-16a5.68,5.68,0,0,0-3.78-1.3,6.76,6.76,0,0,0-4.08,1.35,5.16,5.16,0,0,0-2.15,3.65h11.8A5.33,5.33,0,0,0,605.13,73.83Z"/><path class="cls-4" d="M632.83,87.43q3.75,0,6.75-3.75l4.45,5q-5.2,5.4-11.25,5.4a14.58,14.58,0,0,1-10.23-3.82,12.93,12.93,0,0,1-4.17-10A13,13,0,0,1,622.6,70.2a14.34,14.34,0,0,1,10-3.87,15.62,15.62,0,0,1,5.88,1.2,14.86,14.86,0,0,1,5.22,3.55l-3.9,5.1a8.88,8.88,0,0,0-3.17-2.4,9,9,0,0,0-3.73-.85,7.3,7.3,0,0,0-5.08,1.92,6.85,6.85,0,0,0-2.12,5.35,6.77,6.77,0,0,0,2.13,5.33A7.23,7.23,0,0,0,632.83,87.43Z"/><path class="cls-4" d="M658,72.18v12a3.46,3.46,0,0,0,.8,2.43,2.49,2.49,0,0,0,1.9.88,4.33,4.33,0,0,0,3.55-1.9l2.8,5.25a10.83,10.83,0,0,1-7.37,3.2,9,9,0,0,1-9.22-9.5V72.18h-3.15v-5.4h3.15V58.73H658v8.05h6.5v5.4Z"/><path class="cls-4" d="M691.27,85.3a7.83,7.83,0,0,1-2.92,6.38,11.32,11.32,0,0,1-7.42,2.4A19.88,19.88,0,0,1,674.67,93a18.45,18.45,0,0,1-5.85-3.18l3.3-4.7a14.37,14.37,0,0,0,8.95,3.25,4.05,4.05,0,0,0,2.3-.58,1.76,1.76,0,0,0,.85-1.52A2.2,2.2,0,0,0,683,84.53a13.32,13.32,0,0,0-3.4-1.5q-2.23-.7-3.4-1.2a19,19,0,0,1-2.68-1.45,6.21,6.21,0,0,1-3-5.62,7.37,7.37,0,0,1,3-6.08,12.2,12.2,0,0,1,7.75-2.35,16.91,16.91,0,0,1,9.5,3.2l-2.8,5a12.28,12.28,0,0,0-7-2.4q-3.48,0-3.48,1.9a1.83,1.83,0,0,0,1.1,1.65,22.16,22.16,0,0,0,3.65,1.4q2.55.8,3.63,1.23a18.26,18.26,0,0,1,2.58,1.33Q691.27,81.33,691.27,85.3Z"/></g><g id="Status_Bar" data-name="Status Bar"><rect class="cls-5" y="-131.97" width="1080" height="132"/></g></svg>