<svg xmlns="http://www.w3.org/2000/svg" viewBox="0 0 1080.67 1025.07"><defs><style>.cls-1{fill:#eaebec;}.cls-2{fill:#02817c;}.cls-3{fill:none;stroke:#6d6e70;stroke-linecap:round;stroke-linejoin:round;stroke-width:2px;}.cls-4{font-size:28px;fill:#4c4c4e;font-family:MetaPro-Book, MetaPro Book;}.cls-5{fill:#6a0032;}.cls-6{fill:#fff;}.cls-7,.cls-8{font-size:60px;}.cls-7{fill:#00c0f2;font-family:Montserrat-Regular, Montserrat Regular;letter-spacing:0.03em;}.cls-8{fill:#404041;font-family:MetaPro-Medium, MetaPro Medium;letter-spacing:0.02em;}</style></defs><title>IP_sc2_img1</title><g id="Layer_2" data-name="Layer 2"><g id="Ui"><path class="cls-1" d="M.76,655.29v84.93H232.09a24.41,24.41,0,0,1,23.21,23.62l0,52.08h54.42V788.5a24.41,24.41,0,0,1,23.2-23.59h69.24a24.41,24.41,0,0,1,23.21,23.62l0,52.58h52.42V788.5A24.41,24.41,0,0,1,501,764.9h59.68a24.41,24.41,0,0,1,23.2,23.62l0,73h52.42v-73a24.41,24.41,0,0,1,23.2-23.59h61.16a24.41,24.41,0,0,1,23.21,23.62l0,97.13h52.66V755.29c2.1-7,7.92-15.45,23.76-15.45h260.29V655.29Z"/><rect class="cls-2" y="1019.07" width="1080.31" height="6"/><polyline class="cls-3" points="1007.14 941.04 1030.33 971 1007.14 1001.78"/><line class="cls-3" x1="936.9" y1="971" x2="1030.33" y2="971"/><rect class="cls-1" x="0.35" width="1080" height="667.55"/><text class="cls-4" transform="translate(146.76 461.88)">Health</text><circle class="cls-5" cx="185.36" cy="364.5" r="60"/><path class="cls-6" d="M208.88,375.06H163.37V371h43.25a2.17,2.17,0,0,1,2.27,2.08ZM163,364.91h7.77a1.43,1.43,0,0,1,1.42,1.42v1.73H163Zm48.84,10.15v-2a5.14,5.14,0,0,0-5.22-5H174.38v-1.73a3.63,3.63,0,0,0-3.62-3.63h-8.22v-4.59h-5.89V392h5.89V381h44.58v11H213V375.06Z"/><polygon class="cls-6" points="196.78 358.1 201.94 358.1 201.94 354.58 205.99 354.58 205.99 349.07 201.94 349.07 201.94 345.11 196.78 345.11 196.78 349.07 192.91 349.07 192.91 354.58 196.78 354.58 196.78 358.1"/><path class="cls-6" d="M199.45,340.65a11,11,0,1,1-11,11,11,11,0,0,1,11-11m0,25.58a14.62,14.62,0,1,0-14.62-14.62,14.62,14.62,0,0,0,14.62,14.62"/><circle class="cls-5" cx="914.23" cy="122.99" r="60"/><path class="cls-6" d="M906.38,100.49,879.06,139.9c-.53.84.73,2.21,1.27,3.06a1.17,1.17,0,0,0,1,.64,1.18,1.18,0,0,0,1-.64L909,100.49Z"/><path class="cls-6" d="M949.4,139.31l-27-38.82h-2.59l26.35,41.89a1,1,0,0,0,1.92,0c.54-.84,1.8-2.21,1.27-3.06"/><polygon class="cls-6" points="928.65 118.01 900.42 118.01 903.13 114.02 925.95 114.02 928.65 118.01"/><polygon class="cls-6" points="923.3 110.05 905.77 110.05 907.45 107.58 921.63 107.58 923.3 110.05"/><polygon class="cls-6" points="909.89 103.1 908.79 104.72 920.29 104.72 919.18 103.1 909.89 103.1"/><polygon class="cls-6" points="935.39 129.97 893.68 129.97 897.66 124.08 931.4 124.08 935.39 129.97"/><polygon class="cls-6" points="944.29 143.92 884.78 143.92 890.47 135.51 938.6 135.51 944.29 143.92"/><text class="cls-4" transform="translate(857.77 220.37)">Transport</text><text class="cls-4" transform="translate(607.34 219.25)">Education &amp; <tspan x="24.44" y="28">training</tspan></text><circle class="cls-5" cx="677.66" cy="122.99" r="60"/><path class="cls-6" d="M652.41,128.75v11.11h0c0,.08,0,.16,0,.23h0c0,5.68,11.31,10.28,25.25,10.28s25.25-4.6,25.25-10.28h0a1.66,1.66,0,0,0,0-.23h0V128.75l-25.25,7.77Z"/><path class="cls-6" d="M713,127.86V127a.83.83,0,0,0-.37-.73v-6.45l7.81-2.41-42.74-13.13-42.74,13.13,42.74,13.14,33.81-10.39v6.11a.83.83,0,0,0-.37.73v.81a.84.84,0,0,0,.32.69l-1.31,7.21h3.82l-1.3-7.21a.82.82,0,0,0,.33-.69"/><text class="cls-4" transform="translate(639.27 713.47)">Digital</text><circle class="cls-5" cx="677.66" cy="616.52" r="60"/><path class="cls-6" d="M682.19,642.17a4.54,4.54,0,1,1-4.54-4.54,4.55,4.55,0,0,1,4.54,4.54"/><path class="cls-6" d="M712.77,616.28a4.77,4.77,0,0,1-3.42-1.44,45,45,0,0,0-63.41,0,4.77,4.77,0,1,1-6.83-6.66,54.53,54.53,0,0,1,77.08,0,4.77,4.77,0,0,1-3.43,8.1"/><path class="cls-6" d="M701.08,626.09a4.76,4.76,0,0,1-3.29-1.31,30,30,0,0,0-40.28,0,4.77,4.77,0,0,1-6.59-6.91,39.5,39.5,0,0,1,53.45,0,4.77,4.77,0,0,1-3.3,8.23"/><path class="cls-6" d="M665.69,636.18a4.77,4.77,0,0,1-3-8.5,24.84,24.84,0,0,1,29.51-.29,4.77,4.77,0,1,1-5.8,7.59,15.3,15.3,0,0,0-17.76.16,4.73,4.73,0,0,1-3,1"/><text class="cls-4" transform="translate(347.47 713.47)">Social housing</text><circle class="cls-5" cx="432.21" cy="616.52" r="60"/><path class="cls-6" d="M469.66,638.89h-74.9a1,1,0,0,0-1,1v1.61a1,1,0,0,0,1,1h74.9a1,1,0,0,0,1-1v-1.61a1,1,0,0,0-1-1"/><path class="cls-6" d="M397.79,605.38a1,1,0,0,0,1.4.45L432.24,589l33.53,16.63a1.05,1.05,0,0,0,1.4-.46l.57-1.15a1,1,0,0,0-.47-1.39l-34.22-17a.85.85,0,0,0-.27-.07,1,1,0,0,0-1-.08l-34.06,17.28a1,1,0,0,0-.46,1.4Z"/><path class="cls-6" d="M435.82,605.1a1,1,0,0,1-1,1h-5.1a1,1,0,0,1-1-1V600a1,1,0,0,1,1-1h5.1a1,1,0,0,1,1,1Zm-6.29,13.69a1.05,1.05,0,0,1-1,1h-6.07a1,1,0,0,1-1-1v-6.08a1,1,0,0,1,1-1h6.07a1.05,1.05,0,0,1,1,1Zm0,9.95a1,1,0,0,1-1,1h-6.07a1,1,0,0,1-1-1v-6.08a1,1,0,0,1,1-1h6.07a1,1,0,0,1,1,1ZM418.9,618.8a1,1,0,0,1-1,1h-6.08a1,1,0,0,1-1-1v-6.08a1,1,0,0,1,1-1h6.08a1,1,0,0,1,1,1Zm0,9.95a1,1,0,0,1-1,1h-6.08a1,1,0,0,1-1-1v-6.08a1,1,0,0,1,1-1h6.08a1,1,0,0,1,1,1Zm35,8.21h8.63a1,1,0,0,0,1-1V608.39a1.83,1.83,0,0,0-.93-1.5l-29.44-14.58a2.38,2.38,0,0,0-1.87,0l-29.43,14.58a1.83,1.83,0,0,0-.94,1.5V635.9a1,1,0,0,0,1,1h35.15a1,1,0,0,0,1-1V612.72a1,1,0,0,1,1-1h12.59a1,1,0,0,1,1,1V635.9a1,1,0,0,0,1,1"/><text class="cls-4" transform="translate(610.21 458.56)">Arts,culture <tspan x="-3.56" y="28">&amp; recreation</tspan></text><circle class="cls-5" cx="674.23" cy="364.5" r="60"/><path class="cls-6" d="M705.86,351.23a0,0,0,0,1,0,0H642.62a0,0,0,0,1,0,0v-2.46h63.24Z"/><rect class="cls-6" x="664.32" y="352.38" width="4.43" height="29.53"/><rect class="cls-6" x="679.73" y="352.38" width="4.43" height="29.53"/><rect class="cls-6" x="695.14" y="352.38" width="4.43" height="29.53"/><polygon class="cls-6" points="669.96 356.16 663.11 356.16 662.25 352.38 670.82 352.38 669.96 356.16"/><polygon class="cls-6" points="669.88 378.13 663.2 378.13 662.36 381.91 670.71 381.91 669.88 378.13"/><rect class="cls-6" x="648.91" y="352.38" width="4.43" height="29.53"/><polygon class="cls-6" points="654.55 356.16 647.69 356.16 646.84 352.38 655.41 352.38 654.55 356.16"/><polygon class="cls-6" points="654.46 378.13 647.78 378.13 646.95 381.91 655.29 381.91 654.46 378.13"/><polygon class="cls-6" points="685.37 356.16 678.51 356.16 677.66 352.38 686.23 352.38 685.37 356.16"/><polygon class="cls-6" points="685.28 378.13 678.6 378.13 677.76 381.91 686.13 381.91 685.28 378.13"/><polygon class="cls-6" points="700.78 356.16 693.93 356.16 693.07 352.38 701.65 352.38 700.78 356.16"/><polygon class="cls-6" points="700.7 378.13 694.02 378.13 693.18 381.91 701.52 381.91 700.7 378.13"/><polygon class="cls-6" points="674.24 337.49 705.87 349.07 642.62 349.07 674.24 337.49"/><path class="cls-6" d="M710.54,388.19v0H637.94v-1.86s0,0,0,0h72.59s0,0,0,0Z"/><path class="cls-6" d="M705.39,384.84H643.09V383h62.28v1.86Z"/><path class="cls-6" d="M715,391.49h-81.5v-1.84H715Z"/><text class="cls-4" transform="translate(149.59 219.25)">Cross- <tspan x="-36.93" y="28">government</tspan></text><circle class="cls-5" cx="185.36" cy="122.99" r="60"/><path class="cls-6" d="M170.53,111.15a2.62,2.62,0,0,0-.95.63c-.3.38-.2.58,0,.5s.43.08.63-.07.41.3.41-.12.4-.3.67-.37.27-.21.08-.4a.87.87,0,0,0-.84-.17"/><path class="cls-6" d="M170.66,113.06s-.1.24-.25.21-.23.51,0,.37.46-.12.54,0,.16-.1,0-.3-.21-.37-.34-.31"/><path class="cls-6" d="M179.4,90.73a1.33,1.33,0,0,1-.32-.1c-.22-.09-.18.1-.11.19s.17.32.43.25.35-.13.29-.28a.17.17,0,0,0-.29-.06"/><path class="cls-6" d="M179.31,92s-.11.29-.27.26-.25.42,0,.43.31-.27.42-.34.18-.25.09-.35-.11,0-.24,0"/><path class="cls-6" d="M205.75,130.69s.1.22-.11.17-.18.11,0,.27.43.38.39.56,0,.46.16.32.25-.31.34-.31,0-.31-.23-.48-.34-.32-.35-.46-.23-.16-.2-.08"/><path class="cls-6" d="M207.65,135.39s-.32-.2-.23.06a3.22,3.22,0,0,0,.33.58c.12.26.28.45.49.32s.06-.19-.07-.49-.38-.52-.51-.46"/><path class="cls-6" d="M214.84,139.75a.94.94,0,0,1-.29.29c-.17.09-.11.21,0,.35a.57.57,0,0,1-.11.71c-.23.28-.42.44-.39.61s.19.62,0,.84-.21.3-.07.62.1.71.24.53,0-1.12.26-1.41a3,3,0,0,0,.42-.93c.12-.24.42-.52.16-.71a.45.45,0,0,1-.13-.58c0-.11-.09-.32-.09-.32"/><path class="cls-6" d="M215.49,147.83a.4.4,0,0,0-.15.47c.11.28.1.89.23.69a2.31,2.31,0,0,0,.15-.86c0-.2-.23-.29-.23-.29"/><path class="cls-6" d="M215.66,149a3.57,3.57,0,0,0-.13.35c0,.13,0,1.16,0,1.36s.08.32.13.16,0-.72.19-1a.93.93,0,0,0,0-.74.28.28,0,0,0-.19-.17"/><path class="cls-6" d="M190.38,154.49c.35-.28,1-1,1.65-.74a1,1,0,0,0,1.18-.12,4.73,4.73,0,0,1,1.91.07c.47.11,1.57.39,1.79,1s.64,1.08,1.07.32a2.52,2.52,0,0,1,1.52-1.18c.46-.18,1.25-.65,1.65-.86a2.23,2.23,0,0,1,1.81-.32c.61.28,1.29-.88,1.65-1.12v0a2.67,2.67,0,0,1-.14-1,3.75,3.75,0,0,0-.54-1.34c-.27-.44-.53-.52-.29-1.16s-.09-.69,0-1.43-.32-.51-.31-1.14.27-.71.31-1.14-.25-.41-.39-.27,0-.43-.23-.73-.49-.53-.21-.76a.42.42,0,0,0-.23-.74,1.49,1.49,0,0,1-1.12-.81c-.33-.57-.11-.91-.62-1.13s-1.34-.67-1.16-.85,0-.59-.19-.87a1.33,1.33,0,0,0-1.23-.84c-.76,0-.87-.49-1.25-.85a3.93,3.93,0,0,1-1-1.2,5.48,5.48,0,0,1-.2-1.82c0-.41.28-.94.13-1.26s-.16-.17-.33,0a.37.37,0,0,1-.65,0c-.22-.33-1.07-.66-1.17-1.06s-.13-.5-.52-.67-.44.2-.26.36a.58.58,0,0,1,.23.64.6.6,0,0,0,.15.65c.16.17.08.37-.14.11s-.34-.57-.52-.56-.09.23-.45-.17-.23-.7-.43-1.1a2.13,2.13,0,0,1-.28-1.22c.08-.36.16-.47-.21-.78a.94.94,0,0,1-.37-1c.06-.39,0-.63-.31-.62s-.33-.18-.35-.41-.14,0-.4-.11a.9.9,0,0,1-.62-.56c-.12-.33-.27-.86.11-.71s.53.41.51.2a1.9,1.9,0,0,0-.73-1.06c-.46-.35-.39-.2-.46-.41a.25.25,0,0,0-.45,0c0,.17-.38,0-.54-.36s-.36-.35-.77-.37-.37.09-.47-.29-.39-.24-.44,0-.63.17-.64-.19.19-.73-.16-1.24-.15-.11-.4,0-1,.18-1.11-.34-.41-.29-.54-.56-.38.06-.59.17-1.39-.41-1.31-1a8.79,8.79,0,0,0,.1-1.22c0-.4.13-.63-.17-.92s-.55-.25-.59,0-.45-.16-.29-.51a2.72,2.72,0,0,0,.38-1.45c-.1-.48-.74-1.64-.56-2a.49.49,0,0,0-.25-.76,2.26,2.26,0,0,1-1.23-1.07c-.11-.43.15-1.08-.19-1.7a2.14,2.14,0,0,1-.42-1.64c.18-.5.18-.6-.1-.72s-.17-.38,0-.56.19-.33-.2-.67a6.48,6.48,0,0,0-1.39-1.07c-.55-.28-.31-.41-.31-.78s-.34-.64-.66-.38-.64,0-.77.28-.33.59-.79.59-.76-.1-.73-.67a1.71,1.71,0,0,0-.36-1.18,1.13,1.13,0,0,1-.15-1,1.74,1.74,0,0,0,0-1,12.58,12.58,0,0,1-.08-1.53c0-.33-.18-.15-.29,0s-.17-.41,0-.6-.35-.31-.47-.49-.23-.62-.61-.63-.13-.52.15-.83,0-.52-.24-.5-.71,0-.73-.67,0-.86-.13-1.17,0-.74-.31-1.12-.75-.27-.57-.59,0-.45-.29-.37-.26.55-.76.65-.5.48-.52.85.12,1.38-.15,1.75a.79.79,0,0,0-.16.72c0,.18.08.65-.09.5s-.35-.28-.47,0-.2.62-.27.79-.26.63.1.72.66.18.64.41,0,.65-.17.33-.3-.32-.31-.07a.77.77,0,0,1-.33.63c-.23.15-.26.27,0,.55s.47.65.34.76-.61,0-.64.56-.22,1.37,0,1.65a1.11,1.11,0,0,1,.1,1.12,2.86,2.86,0,0,0-.06,1.21c0,.18.29.58.32,1s-.24.6-.4.94a4.72,4.72,0,0,0-.47,1.14c0,.19.11.53,0,.64a.45.45,0,0,0,0,.56.48.48,0,0,1,0,.56,2.08,2.08,0,0,0-.42.91c0,.36-.22,1.11-.61,1.32s-.31.82-.41,1.08a2.07,2.07,0,0,1-.74,1.16c-.45.23-1.55.85-2.19.57s-1.42-.51-1.56-.91-.94-.08-1-.55-.48-1.29-1.14-1.45a5.91,5.91,0,0,1-2.15-.59c-.26-.17-.47-.3-.65-.4v32.77h9.52V155h25.18a3.82,3.82,0,0,0,.89-.49"/><text class="cls-4" transform="translate(397.39 219.25)">Water</text><circle class="cls-5" cx="432.21" cy="122.99" r="60"/><path class="cls-6" d="M434.53,156.42a10,10,0,0,1-10-10,2.26,2.26,0,0,1,4.52,0,5.5,5.5,0,0,0,5.49,5.49,2.26,2.26,0,1,1,0,4.52m8.87-24.06c-2.56-4.24-5.09-7.73-5.2-7.89L436.37,122l-1.84-2.52L432.71,122l-1.84,2.52c-.11.15-2.64,3.65-5.21,7.89-3.85,6.36-5.65,10.81-5.65,14a14.52,14.52,0,0,0,29,0c0-3.18-1.8-7.63-5.66-14"/><path class="cls-6" d="M413.07,133.2a8.45,8.45,0,0,1-8.44-8.44,1.9,1.9,0,0,1,3.81,0,4.64,4.64,0,0,0,4.63,4.63,1.9,1.9,0,0,1,0,3.81m7.48-20.28c-2.16-3.57-4.3-6.53-4.39-6.65l-1.56-2.13L413.07,102l-1.55,2.12L410,106.28c-.1.12-2.24,3.08-4.4,6.65-3.24,5.36-4.76,9.11-4.76,11.79a12.24,12.24,0,0,0,24.47,0c0-2.68-1.5-6.43-4.75-11.79"/><path class="cls-6" d="M451.35,120.09a8.45,8.45,0,0,1-8.43-8.44,1.9,1.9,0,0,1,3.8,0,4.64,4.64,0,0,0,4.63,4.63,1.9,1.9,0,1,1,0,3.81m7.48-20.28c-2.16-3.57-4.3-6.53-4.39-6.65L452.9,91l-1.55-2.12L449.81,91l-1.55,2.13c-.09.12-2.22,3.08-4.39,6.65-3.25,5.36-4.76,9.11-4.76,11.78a12.24,12.24,0,0,0,24.48,0c0-2.67-1.51-6.42-4.76-11.78"/><text class="cls-4" transform="translate(341.67 461.88)">Justice &amp; public <tspan x="55.92" y="28">safety</tspan></text><circle class="cls-5" cx="432.21" cy="364.5" r="60"/><path class="cls-6" d="M409.83,351.15l9.74,23.44-4-.09c-.66,0-1.34,0-2,0l-3.79,0-2.9,0h-1c-.64,0-1.27,0-1.92,0l-2.89.06-1,0Zm44.82.06,9.75,23.43h-.1l-1,0-2.88-.05c-.66,0-1.33,0-2,0l-3.79,0-2.89,0h-1c-.63,0-1.28,0-1.91,0l-3.93.09Zm-55.24,25.9a6.16,6.16,0,0,0,.55.32l.2.11.48.25.27.13a17.9,17.9,0,0,0,3,1.12,21,21,0,0,0,5.93.81,21.64,21.64,0,0,0,5.91-.81,19.42,19.42,0,0,0,3-1.13c.43-.21,1-.48,1.49-.8a12.62,12.62,0,0,0,1.5-1.07l.19-.17v-1.19l-.32,0L411.34,350.1l1.46.17c2,.22,4.08.41,6.46.58,3.62.25,7.39.38,11.46.42-.21,2-.39,3.94-.57,5.85l-.54,6.23-.44,6.23c-.06,1-.16,2-.27,3.08l-.13,1.09c-.07.67-.14,1.35-.21,2-.1,1.17-.17,2.2-.17,3.16a30.74,30.74,0,0,0,.14,3.17c.15,1.56.35,3.08.62,4.55-.46,0-.9.11-1.34.17a26,26,0,0,0-4.44,1.08c-.74.24-1.49.53-2.23.85a22.08,22.08,0,0,0-2.22,1.11,22.87,22.87,0,0,0-2.23,1.41,17.7,17.7,0,0,0-2.25,1.87l-.15.16v1.5l4.88.21,4.36.11,8.72.09h0l4.37,0H438c1,0,2,0,3,0l4.36-.11,2.18-.09,2.7-.12v-1.5l-.16-.16a17.92,17.92,0,0,0-2.25-1.86,24.51,24.51,0,0,0-2.23-1.41,25.42,25.42,0,0,0-4.44-2,26.68,26.68,0,0,0-4.45-1.08c-.4-.06-.8-.12-1.2-.16.26-1.47.47-3,.62-4.58a30.81,30.81,0,0,0,.14-3.16c0-1-.06-2-.17-3.16-.06-.67-.15-1.35-.22-2,0-.37-.08-.74-.12-1.1-.13-1.12-.21-2.13-.28-3.08l-.44-6.23-.54-6.23c-.17-1.92-.37-3.9-.57-5.85,3.95,0,7.61-.16,11.18-.41,2.38-.17,4.49-.36,6.46-.58l1.65-.2-10.24,24.64-.39,0v1.19l.19.16a11.5,11.5,0,0,0,1.49,1.06c.19.13.37.23.55.33l.21.12c.16.09.32.17.49.24l.26.14a18.19,18.19,0,0,0,3,1.12,21.16,21.16,0,0,0,5.91.81,21.74,21.74,0,0,0,5.92-.81,20.17,20.17,0,0,0,3-1.13c.44-.22.95-.48,1.48-.81a10.85,10.85,0,0,0,1.5-1.06l.2-.16v-1.19l-.31,0-10.22-24.57.84.12,1.52.2c.31,0,.63.1,1,.17l.5.1a4.8,4.8,0,0,0,1.69,0,7.58,7.58,0,0,0,1.63-.46,6.32,6.32,0,0,0,1.64-1l.19-.16v-.8l-.19-.16a6.27,6.27,0,0,0-1.65-1,7.67,7.67,0,0,0-1.61-.46,4.67,4.67,0,0,0-1.69,0l-.5.09c-.34.07-.66.14-1,.18l-1.51.2-1.53.24-.86.15c-1.1-.16-2.17-.28-3.08-.39-2-.23-4.08-.42-6.46-.59-3.53-.24-7.14-.37-11-.4l.35-2.89c0-.49.14-1,.23-1.48,0-.25.09-.5.13-.74a6.86,6.86,0,0,0,.11-1.21,6.22,6.22,0,0,0-.09-1.22,12.37,12.37,0,0,0-.6-2.37,12.05,12.05,0,0,0-.51-1.19,8.26,8.26,0,0,0-.75-1.21l-.17-.21h-.92l-.16.21a8.06,8.06,0,0,0-.76,1.22,10.93,10.93,0,0,0-.51,1.19,11.7,11.7,0,0,0-.6,2.37,7.74,7.74,0,0,0-.09,1.22,7.82,7.82,0,0,0,.12,1.21c0,.25.07.49.13.73.09.51.18,1,.23,1.5l.13,1.14.22,1.74c-4,0-7.73.17-11.3.41-2.37.16-4.48.35-6.46.58-.77.09-1.8.22-2.83.36l-.71-.13-1.54-.23-1.53-.21a9.6,9.6,0,0,1-1-.17l-.49-.09a4.7,4.7,0,0,0-1.7,0,7.52,7.52,0,0,0-1.64.46,6.11,6.11,0,0,0-1.66,1l-.2.16v.8l.2.16a6,6,0,0,0,1.67,1,7.4,7.4,0,0,0,1.62.46,4.9,4.9,0,0,0,1.71,0l.5-.1c.34-.07.66-.13,1-.17l1.53-.2.55-.08-10.18,24.47-.38,0v1.19l.19.16a10.81,10.81,0,0,0,1.5,1.07"/><text class="cls-4" transform="translate(873.56 461.44)">Energy</text><circle class="cls-5" cx="914.23" cy="364.5" r="60"/><path class="cls-6" d="M922.26,381.56c-3.33,0-6.67,0-10,0h-2.45c-1.25,0-2.51,0-3.77,0a2.1,2.1,0,0,0-2.12,2.8l.07.17a2,2,0,0,0,1.08,1.08,3.17,3.17,0,0,0,1.21.22h7.94c2.68,0,5.37,0,8.05,0a2.1,2.1,0,0,0,2.39-2.07c0-1.32-.86-2.18-2.4-2.19"/><path class="cls-6" d="M921.9,388.64H906.61a2.17,2.17,0,0,0-2.46,2.13,2.59,2.59,0,0,0,.08.53,2,2,0,0,0,1.39,1.38,3,3,0,0,0,.94.15c2.53,0,5.06,0,7.59,0s5.14,0,7.7,0c1.52,0,2.48-.87,2.46-2.13a2.15,2.15,0,0,0-2.41-2.06"/><path class="cls-6" d="M906.77,395.67h-.32a10.55,10.55,0,0,0,4,3.66,8.25,8.25,0,0,0,3.8.92c5,0,7.78-4.58,7.78-4.58H906.77Z"/><path class="cls-6" d="M926.47,367.57l-9.59,2.49,0,7.12a3,3,0,0,0,2.95,3h0a3,3,0,0,0,3-3l0-2.55,5.17-1.34a3,3,0,0,0-1.49-5.75"/><path class="cls-6" d="M926.47,358.65l-23.68,6.16-2.29.59a3.82,3.82,0,0,0-1.92,4.9,2.94,2.94,0,0,0,1.41,1.42h0l6,2.78.08,2.76a2.47,2.47,0,0,0,.1.69,3,3,0,0,0,2.1,2.1,2.81,2.81,0,0,0,.76.11h.08a3,3,0,0,0,2.91-3l-.17-6.46L909,369.33,928,364.41a3,3,0,0,0-1.49-5.76"/><path class="cls-6" d="M926.47,347.49l-16.05,4.18-7.71,2-2.2.58a3,3,0,0,0-2,4.05,2.91,2.91,0,0,0,1.53,1.53,3,3,0,0,0,1.19.26,2.77,2.77,0,0,0,.76-.1l5.59-1.45,7.7-2,12.67-3.3a3,3,0,1,0-1.49-5.75"/><path class="cls-6" d="M898.63,347.91a3,3,0,0,0,1.26,1.27,3,3,0,0,0,1.35.33,3.07,3.07,0,0,0,.76-.09l6.21-1.62L928,342.67a3,3,0,0,0,2.13-3.62,3.4,3.4,0,0,0-.17-.48,3,3,0,0,0-1.47-1.47,2.89,2.89,0,0,0-2-.19l-1.46.37-21.67,5.64-2.84.74a3,3,0,0,0-2.13,3.62,2.86,2.86,0,0,0,.25.63"/><path class="cls-6" d="M898.38,336.71a3,3,0,0,0,2.61,2.21l.26,0a3.44,3.44,0,0,0,.76-.1l16.34-4.25a3,3,0,0,0,2.15-3.49.7.7,0,0,1,0-.14,3,3,0,0,0-2.27-2.14,2.9,2.9,0,0,0-1.36,0l-16.34,4.25a3,3,0,0,0-2.21,3.14,2.71,2.71,0,0,0,.08.49"/><text class="cls-7" transform="translate(711.84 982.18)">10</text><text class="cls-8" transform="translate(320.79 982.18)">Asset Classes</text></g></g></svg>