<svg xmlns="http://www.w3.org/2000/svg" viewBox="0 0 779.75 44.47"><defs><style>.cls-1{fill:#404041;}.cls-2{fill:#6a0032;}</style></defs><title>IP_sc2_subTitle3_1</title><g id="Layer_2" data-name="Layer 2"><g id="Ui"><path class="cls-1" d="M9,9V46H4.18V9Z" transform="translate(-4.18 -8.7)"/><path class="cls-1" d="M18.55,26.62c0-2.75-.05-5-.22-7.2h4.29l.27,4.4H23a9.8,9.8,0,0,1,8.81-5c3.69,0,9.41,2.2,9.41,11.33V46H36.38V30.69c0-4.29-1.6-7.86-6.16-7.86A7.1,7.1,0,0,0,23.39,30V46H18.55Z" transform="translate(-4.18 -8.7)"/><path class="cls-1" d="M52.34,19.42l5.23,15a68.34,68.34,0,0,1,2.15,6.82h.17c.61-2.2,1.38-4.4,2.26-6.82l5.17-15h5.06L61.92,46H57.3L47.17,19.42Z" transform="translate(-4.18 -8.7)"/><path class="cls-1" d="M81,33.61c.11,6.54,4.29,9.24,9.14,9.24a17.52,17.52,0,0,0,7.38-1.37l.83,3.46a21.59,21.59,0,0,1-8.86,1.65c-8.2,0-13.1-5.39-13.1-13.42s4.73-14.35,12.49-14.35c8.7,0,11,7.64,11,12.54a18.22,18.22,0,0,1-.17,2.25Zm14.2-3.46c.06-3.08-1.27-7.86-6.71-7.86-4.9,0-7,4.51-7.43,7.86Z" transform="translate(-4.18 -8.7)"/><path class="cls-1" d="M106.61,41.09A12.7,12.7,0,0,0,113,43c3.52,0,5.17-1.76,5.17-4s-1.38-3.57-5-4.89c-4.79-1.7-7-4.34-7-7.53,0-4.29,3.47-7.81,9.19-7.81a13.31,13.31,0,0,1,6.55,1.65L120.7,24a10.38,10.38,0,0,0-5.45-1.54c-2.86,0-4.46,1.65-4.46,3.63,0,2.2,1.6,3.19,5.06,4.51,4.62,1.76,7,4.07,7,8,0,4.67-3.63,8-10,8a15.2,15.2,0,0,1-7.49-1.81Z" transform="translate(-4.18 -8.7)"/><path class="cls-1" d="M136.28,11.77v7.64h6.93V23.1h-6.93V37.46c0,3.3.94,5.17,3.63,5.17a10.78,10.78,0,0,0,2.81-.33l.22,3.63a11.87,11.87,0,0,1-4.29.66,6.72,6.72,0,0,1-5.23-2c-1.38-1.43-1.87-3.79-1.87-6.93V23.1h-4.13V19.42h4.13V13Z" transform="translate(-4.18 -8.7)"/><path class="cls-1" d="M150,26.62c0-2.75-.05-5-.22-7.2h4.24l.22,4.29h.17a9.18,9.18,0,0,1,8.37-4.89,7.87,7.87,0,0,1,7.54,5.33h.11a11,11,0,0,1,3-3.46,9.1,9.1,0,0,1,5.89-1.87c3.52,0,8.75,2.31,8.75,11.55V46h-4.73V31c0-5.11-1.87-8.19-5.78-8.19a6.27,6.27,0,0,0-5.72,4.4,8,8,0,0,0-.39,2.42V46h-4.73V30.09c0-4.23-1.87-7.31-5.56-7.31-3,0-5.23,2.42-6,4.84a6.67,6.67,0,0,0-.39,2.36V46H150Z" transform="translate(-4.18 -8.7)"/><path class="cls-1" d="M200,33.61c.11,6.54,4.29,9.24,9.14,9.24a17.52,17.52,0,0,0,7.38-1.37l.83,3.46a21.59,21.59,0,0,1-8.86,1.65c-8.2,0-13.1-5.39-13.1-13.42s4.73-14.35,12.49-14.35c8.7,0,11,7.64,11,12.54a18.22,18.22,0,0,1-.17,2.25Zm14.2-3.46c.06-3.08-1.27-7.86-6.71-7.86-4.9,0-7,4.51-7.43,7.86Z" transform="translate(-4.18 -8.7)"/><path class="cls-1" d="M226.27,26.62c0-2.75-.05-5-.22-7.2h4.29l.27,4.4h.11a9.8,9.8,0,0,1,8.81-5c3.69,0,9.41,2.2,9.41,11.33V46H244.1V30.69c0-4.29-1.6-7.86-6.16-7.86a7.1,7.1,0,0,0-6.82,7.2V46h-4.84Z" transform="translate(-4.18 -8.7)"/><path class="cls-1" d="M264,11.77v7.64H271V23.1H264V37.46c0,3.3.94,5.17,3.63,5.17a10.78,10.78,0,0,0,2.81-.33l.22,3.63a11.87,11.87,0,0,1-4.29.66,6.72,6.72,0,0,1-5.23-2c-1.38-1.43-1.87-3.79-1.87-6.93V23.1h-4.13V19.42h4.13V13Z" transform="translate(-4.18 -8.7)"/><path class="cls-1" d="M291,9.46a68.64,68.64,0,0,1,10.18-.77c6.88,0,11.78,1.59,15,4.62s5.23,7.31,5.23,13.31-1.87,11-5.34,14.41-9.19,5.33-16.4,5.33a77.36,77.36,0,0,1-8.7-.44Zm4.79,32.78a30.29,30.29,0,0,0,4.84.27c10.24,0,15.8-5.72,15.8-15.73.05-8.74-4.9-14.3-15-14.3a27.24,27.24,0,0,0-5.61.49Z" transform="translate(-4.18 -8.7)"/><path class="cls-1" d="M331.56,33.61c.11,6.54,4.29,9.24,9.14,9.24a17.52,17.52,0,0,0,7.38-1.37l.83,3.46A21.59,21.59,0,0,1,340,46.58c-8.2,0-13.1-5.39-13.1-13.42s4.73-14.35,12.49-14.35c8.7,0,11,7.64,11,12.54a18.22,18.22,0,0,1-.17,2.25Zm14.2-3.46c.06-3.08-1.27-7.86-6.71-7.86-4.9,0-7,4.51-7.43,7.86Z" transform="translate(-4.18 -8.7)"/><path class="cls-1" d="M376.81,45a17.85,17.85,0,0,1-7.65,1.54c-8,0-13.26-5.44-13.26-13.58s5.61-14.13,14.31-14.13a16.2,16.2,0,0,1,6.71,1.38L375.81,24a11.24,11.24,0,0,0-5.61-1.26c-6.11,0-9.41,4.51-9.41,10.06,0,6.16,4,10,9.25,10A13.77,13.77,0,0,0,376,41.42Z" transform="translate(-4.18 -8.7)"/><path class="cls-1" d="M389.25,11.94a3,3,0,0,1-6,0,3,3,0,0,1,3-3A2.87,2.87,0,0,1,389.25,11.94ZM383.85,46V19.42h4.84V46Z" transform="translate(-4.18 -8.7)"/><path class="cls-1" d="M397.45,41.09A12.7,12.7,0,0,0,403.83,43c3.52,0,5.17-1.76,5.17-4s-1.37-3.57-5-4.89c-4.79-1.7-7-4.34-7-7.53,0-4.29,3.47-7.81,9.19-7.81a13.31,13.31,0,0,1,6.55,1.65L411.54,24a10.37,10.37,0,0,0-5.45-1.54c-2.86,0-4.46,1.65-4.46,3.63,0,2.2,1.6,3.19,5.06,4.51,4.62,1.76,7,4.07,7,8,0,4.67-3.63,8-10,8a15.2,15.2,0,0,1-7.49-1.81Z" transform="translate(-4.18 -8.7)"/><path class="cls-1" d="M426.67,11.94a3,3,0,0,1-6,0,3,3,0,0,1,3-3A2.87,2.87,0,0,1,426.67,11.94ZM421.28,46V19.42h4.84V46Z" transform="translate(-4.18 -8.7)"/><path class="cls-1" d="M459.64,32.51c0,9.84-6.82,14.13-13.26,14.13-7.21,0-12.77-5.28-12.77-13.69,0-8.91,5.83-14.13,13.21-14.13C454.47,18.81,459.64,24.37,459.64,32.51Zm-21.13.27c0,5.83,3.36,10.23,8.09,10.23s8.09-4.34,8.09-10.34c0-4.51-2.26-10.23-8-10.23S438.51,27.72,438.51,32.78Z" transform="translate(-4.18 -8.7)"/><path class="cls-1" d="M467.13,26.62c0-2.75-.05-5-.22-7.2h4.29l.27,4.4h.11a9.8,9.8,0,0,1,8.81-5c3.69,0,9.41,2.2,9.41,11.33V46H485V30.69c0-4.29-1.6-7.86-6.16-7.86a6.88,6.88,0,0,0-6.5,4.95A7,7,0,0,0,472,30V46h-4.84Z" transform="translate(-4.18 -8.7)"/><path class="cls-2" d="M527.37,19.56a37.56,37.56,0,0,0-1.92,11.5,37.56,37.56,0,0,0,1.92,11.5,35.58,35.58,0,0,0,4.71,9.86h-5.71a33.92,33.92,0,0,1-4.29-9.31,38.28,38.28,0,0,1,0-24.1,33.92,33.92,0,0,1,4.29-9.31h5.71A35.58,35.58,0,0,0,527.37,19.56Z" transform="translate(-4.18 -8.7)"/><path class="cls-2" d="M536.25,12.48h12.19V46h-5.38V17.52h-6.82Z" transform="translate(-4.18 -8.7)"/><path class="cls-2" d="M555.73,12.48h12.19V46h-5.38V17.52h-6.82Z" transform="translate(-4.18 -8.7)"/><path class="cls-2" d="M581,14.35a14.05,14.05,0,0,1,16.13,0,7.85,7.85,0,0,1,3.22,6.41,8.72,8.72,0,0,1-3.6,6.84,9.69,9.69,0,0,1,4.85,8.64,9.13,9.13,0,0,1-3.46,7.25,15.52,15.52,0,0,1-18.14,0,9.13,9.13,0,0,1-3.46-7.25,9.69,9.69,0,0,1,4.85-8.64,8.72,8.72,0,0,1-3.6-6.84A7.85,7.85,0,0,1,581,14.35Zm3.36,25.75a8.52,8.52,0,0,0,9.41,0A4.54,4.54,0,0,0,596,36.05,4.65,4.65,0,0,0,593.9,32a8.72,8.72,0,0,0-9.6,0,4.65,4.65,0,0,0-2.11,4.08A4.54,4.54,0,0,0,584.39,40.11Zm.46-15.26a6.9,6.9,0,0,0,8.5,0,4.48,4.48,0,0,0,1.8-3.6,4.41,4.41,0,0,0-1.8-3.58,7,7,0,0,0-8.5,0,4.41,4.41,0,0,0-1.8,3.58A4.48,4.48,0,0,0,584.85,24.84Z" transform="translate(-4.18 -8.7)"/><path class="cls-2" d="M622.65,22.06a36.38,36.38,0,0,1,6-.47c3.1,0,5.37.72,6.81,2a6.52,6.52,0,0,1,2.13,5.08,7.14,7.14,0,0,1-1.87,5.18c-1.66,1.76-4.36,2.66-7.42,2.66a10.79,10.79,0,0,1-2.52-.22V46h-3.13Zm3.13,11.7a10.51,10.51,0,0,0,2.59.25c3.78,0,6.09-1.84,6.09-5.18s-2.27-4.75-5.73-4.75a13.17,13.17,0,0,0-3,.25Z" transform="translate(-4.18 -8.7)"/><path class="cls-2" d="M642.61,34c0-2.05,0-3.82-.14-5.44h2.77l.11,3.42h.14a5.23,5.23,0,0,1,4.83-3.82,3.44,3.44,0,0,1,.9.11v3a4.78,4.78,0,0,0-1.08-.11c-2.23,0-3.82,1.69-4.25,4.07a8.89,8.89,0,0,0-.14,1.48V46h-3.13Z" transform="translate(-4.18 -8.7)"/><path class="cls-2" d="M671.07,37.18c0,6.44-4.47,9.25-8.68,9.25-4.72,0-8.36-3.46-8.36-9,0-5.83,3.82-9.25,8.65-9.25C667.68,28.22,671.07,31.85,671.07,37.18Zm-13.83.18c0,3.82,2.2,6.69,5.3,6.69s5.29-2.84,5.29-6.77c0-3-1.48-6.69-5.22-6.69S657.23,34,657.23,37.36Z" transform="translate(-4.18 -8.7)"/><path class="cls-2" d="M676,34.3c0-2.23-.07-4-.14-5.69h2.85l.14,3h.07a6.86,6.86,0,0,1,6.2-3.38c4.21,0,7.38,3.56,7.38,8.85,0,6.26-3.82,9.36-7.93,9.36a6.11,6.11,0,0,1-5.37-2.74h-.07v9.47H676Zm3.13,4.64a7.19,7.19,0,0,0,.14,1.3A4.89,4.89,0,0,0,684,43.95c3.35,0,5.3-2.74,5.3-6.73,0-3.49-1.84-6.48-5.19-6.48a5.06,5.06,0,0,0-4.79,3.92,5.12,5.12,0,0,0-.22,1.3Z" transform="translate(-4.18 -8.7)"/><path class="cls-2" d="M713.15,37.18c0,6.44-4.47,9.25-8.68,9.25-4.72,0-8.36-3.46-8.36-9,0-5.83,3.82-9.25,8.65-9.25C709.76,28.22,713.15,31.85,713.15,37.18Zm-13.83.18c0,3.82,2.2,6.69,5.3,6.69s5.3-2.84,5.3-6.77c0-3-1.48-6.69-5.22-6.69S699.31,34,699.31,37.36Z" transform="translate(-4.18 -8.7)"/><path class="cls-2" d="M717.61,42.8a8.31,8.31,0,0,0,4.18,1.26c2.3,0,3.39-1.15,3.39-2.59s-.9-2.34-3.24-3.2c-3.13-1.12-4.61-2.84-4.61-4.93,0-2.81,2.27-5.11,6-5.11a8.7,8.7,0,0,1,4.29,1.08l-.79,2.3a6.79,6.79,0,0,0-3.57-1c-1.87,0-2.92,1.08-2.92,2.38s1,2.09,3.31,3c3,1.15,4.58,2.66,4.58,5.26,0,3.06-2.38,5.22-6.52,5.22a10,10,0,0,1-4.9-1.19Z" transform="translate(-4.18 -8.7)"/><path class="cls-2" d="M742.87,46l-.25-2.2h-.11a6.5,6.5,0,0,1-5.33,2.59,5,5,0,0,1-5.33-5c0-4.21,3.75-6.52,10.48-6.48v-.36c0-1.44-.4-4-4-4a8.7,8.7,0,0,0-4.54,1.3l-.72-2.09a10.82,10.82,0,0,1,5.73-1.55c5.33,0,6.63,3.64,6.63,7.13v6.52a24.44,24.44,0,0,0,.29,4.18Zm-.47-8.89c-3.46-.07-7.39.54-7.39,3.92a2.8,2.8,0,0,0,3,3,4.34,4.34,0,0,0,4.21-2.92,3.27,3.27,0,0,0,.18-1Z" transform="translate(-4.18 -8.7)"/><path class="cls-2" d="M751.48,20.48h3.17V46h-3.17Z" transform="translate(-4.18 -8.7)"/><path class="cls-2" d="M760.45,42.8a8.31,8.31,0,0,0,4.18,1.26c2.31,0,3.39-1.15,3.39-2.59s-.9-2.34-3.24-3.2c-3.13-1.12-4.61-2.84-4.61-4.93,0-2.81,2.27-5.11,6-5.11a8.71,8.71,0,0,1,4.29,1.08l-.79,2.3a6.79,6.79,0,0,0-3.57-1c-1.87,0-2.92,1.08-2.92,2.38s1,2.09,3.31,3c3,1.15,4.57,2.66,4.57,5.26,0,3.06-2.38,5.22-6.52,5.22a10,10,0,0,1-4.9-1.19Z" transform="translate(-4.18 -8.7)"/><path class="cls-2" d="M774.38,51.84a32.48,32.48,0,0,0,6.05-19.63,31.81,31.81,0,0,0-6.05-19.49h3.27c3.07,3.94,6.29,10.08,6.29,19.54a31.15,31.15,0,0,1-6.29,19.59Z" transform="translate(-4.18 -8.7)"/></g></g></svg>