<svg xmlns="http://www.w3.org/2000/svg" viewBox="0 0 137.76 29.19"><defs><style>.cls-1{opacity:0.3;}.cls-2{fill:#00c0f2;}</style></defs><title>IP_sc4_phaseBtn</title><g id="Layer_2" data-name="Layer 2"><g id="Ui"><g class="cls-1"><path class="cls-2" d="M3.19,7.18a42.36,42.36,0,0,1,7-.55c3.61,0,6.26.84,7.94,2.35a7.61,7.61,0,0,1,2.48,5.92,8.33,8.33,0,0,1-2.18,6c-1.93,2.06-5.08,3.11-8.65,3.11a12.58,12.58,0,0,1-2.94-.25V35.15H3.19ZM6.85,20.83a12.24,12.24,0,0,0,3,.29c4.41,0,7.1-2.14,7.1-6,0-3.74-2.65-5.54-6.68-5.54a15.35,15.35,0,0,0-3.45.29Z" transform="translate(-3.19 -6.38)"/><path class="cls-2" d="M30.24,6.84V18.69H43.94V6.84h3.7V35.15h-3.7V21.88H30.24V35.15H26.59V6.84Z" transform="translate(-3.19 -6.38)"/><path class="cls-2" d="M59.6,26.25l-2.94,8.91H52.88L62.5,6.84h4.41l9.66,28.31H72.66l-3-8.91Zm9.28-2.86-2.77-8.15c-.63-1.85-1.05-3.53-1.47-5.17h-.08c-.42,1.68-.88,3.4-1.43,5.13l-2.77,8.19Z" transform="translate(-3.19 -6.38)"/><path class="cls-2" d="M81.27,30.7a13,13,0,0,0,6.55,1.85c3.74,0,5.92-2,5.92-4.83,0-2.65-1.51-4.16-5.33-5.63-4.62-1.64-7.48-4-7.48-8,0-4.41,3.65-7.69,9.16-7.69a12.87,12.87,0,0,1,6.26,1.39l-1,3A11.27,11.27,0,0,0,90,9.4c-3.86,0-5.33,2.31-5.33,4.24,0,2.65,1.72,3.95,5.63,5.46C95,21,97.49,23.27,97.49,27.42c0,4.37-3.23,8.15-9.91,8.15a14.64,14.64,0,0,1-7.23-1.81Z" transform="translate(-3.19 -6.38)"/><path class="cls-2" d="M118.19,21.88h-11V32.09h12.27v3.07H103.53V6.84h15.29V9.91H107.19v8.95h11Z" transform="translate(-3.19 -6.38)"/><path class="cls-2" d="M124.74,30.7a13,13,0,0,0,6.55,1.85c3.74,0,5.92-2,5.92-4.83,0-2.65-1.51-4.16-5.33-5.63-4.62-1.64-7.48-4-7.48-8,0-4.41,3.65-7.69,9.16-7.69a12.86,12.86,0,0,1,6.26,1.39l-1,3a11.27,11.27,0,0,0-5.38-1.34c-3.87,0-5.33,2.31-5.33,4.24,0,2.65,1.72,3.95,5.63,5.46C138.52,21,141,23.27,141,27.42c0,4.37-3.23,8.15-9.91,8.15a14.63,14.63,0,0,1-7.23-1.81Z" transform="translate(-3.19 -6.38)"/></g></g></g></svg>