<svg id="Layer_1" data-name="Layer 1" xmlns="http://www.w3.org/2000/svg" xmlns:xlink="http://www.w3.org/1999/xlink" viewBox="0 0 250 250"><defs><style>.cls-1{fill:#fff;}.cls-2{fill:none;}.cls-3,.cls-6{isolation:isolate;}.cls-4{fill:#4c4c4e;}.cls-5{fill:#dbdcde;}.cls-6{opacity:0.6;}.cls-7{fill:#f0563f;}.cls-8{fill:#404041;}.cls-9{fill:#e6e7e8;}</style></defs><title>IP_sc4_digitalBtn</title><rect class="cls-1" x="-749" y="-1034.5" width="1108.4" height="1893.6"/><circle class="cls-1" cx="125" cy="125" r="125"/><rect class="cls-2" x="66.2" y="173.7" width="114.6" height="39"/><g class="cls-3"><path class="cls-4" d="M99.48,190.67a6.67,6.67,0,0,1-4.73,2.8c-.73.06-1.65.11-2.8.11H87.21V174.12h3.92c1.12,0,2.6.06,3.39.11a6.6,6.6,0,0,1,4.26,1.93c1.79,1.76,2.66,4.26,2.66,7.76A11.13,11.13,0,0,1,99.48,190.67Zm-3.42-11.84A3.22,3.22,0,0,0,93,177.2H91.19v13.19h2.1c2.58,0,3.75-2,3.75-6.1C97,182,96.84,180.11,96.06,178.83Z"/><path class="cls-4" d="M106.67,177.62a2.31,2.31,0,0,1-2.29-2.32,2.34,2.34,0,0,1,2.35-2.32A2.29,2.29,0,0,1,109,175.3,2.32,2.32,0,0,1,106.67,177.62Zm-1.87,16V179.5l3.75-.59v14.67Z"/><path class="cls-4" d="M124.31,181.88a7.93,7.93,0,0,1-1-.08,3.46,3.46,0,0,1,.84,2.35c0,2.46-2.24,4.26-5.29,4.26a4.52,4.52,0,0,1-.56,0c-1,.45-1.48.78-1.48,1.18,0,.2.22.34.62.34l2,0c2.18,0,3.33.36,4.34,1.29a3.91,3.91,0,0,1,1.23,3.05,4.08,4.08,0,0,1-1.15,3c-1.26,1.34-3.42,1.85-5.66,1.85-2,0-4.14-.34-5.43-1.54a3.36,3.36,0,0,1-1.18-2.55,2.87,2.87,0,0,1,.34-1.46h3.47a2,2,0,0,0-.17.92c0,1.15,1,1.76,2.69,1.76a4.53,4.53,0,0,0,2.35-.48,1.75,1.75,0,0,0,.92-1.46c0-1.29-1.15-1.68-2.63-1.71l-1.6,0a10.19,10.19,0,0,1-3.44-.45,1.82,1.82,0,0,1-1.09-1.88c0-.92.28-1.79,2.63-2.41a3.71,3.71,0,0,1-3.08-4c0-2.94,2.38-4.84,6-4.84a10.34,10.34,0,0,1,2.58.36,7.52,7.52,0,0,0,1.76.31,4.51,4.51,0,0,0,3-1.23l1.57,2.38A3.57,3.57,0,0,1,124.31,181.88Zm-6.27-.14a2,2,0,0,0-2.24,2.13c0,1.46.9,2,2.21,2,1.48,0,2.3-.73,2.3-2A2,2,0,0,0,118,181.74Z"/><path class="cls-4" d="M130.39,177.62a2.31,2.31,0,0,1-2.3-2.32,2.34,2.34,0,0,1,2.35-2.32,2.29,2.29,0,0,1,2.27,2.32A2.32,2.32,0,0,1,130.39,177.62Zm-1.88,16V179.5l3.75-.59v14.67Z"/><path class="cls-4" d="M140.58,193.92c-1.9,0-3.42-.84-3.86-2.1a5.27,5.27,0,0,1-.25-2.21v-7.78H135v-2.58h1.43a24.7,24.7,0,0,1,.14-3.39l3.81-1a43.21,43.21,0,0,0-.22,4.34h3.36l-1,2.58h-2.41V189c0,1.82.34,2.3,1.62,2.3a4.9,4.9,0,0,0,1.35-.28l.47,2.24A7.88,7.88,0,0,1,140.58,193.92Z"/><path class="cls-4" d="M155.61,194.31a4,4,0,0,1-2-1.74,7,7,0,0,1-.87.76,5,5,0,0,1-2.88.78c-3.19,0-4.93-1.62-4.93-4.48,0-3.36,2.32-4.93,6.89-4.93.28,0,.53,0,.84,0v-.59c0-1.6-.31-2.13-1.68-2.13a7.9,7.9,0,0,0-4.14,1.62l-1.6-2.69a13.8,13.8,0,0,1,2.32-1.18,9.71,9.71,0,0,1,3.92-.84c2.41,0,4.06.9,4.62,2.49a6.67,6.67,0,0,1,.25,2.58l-.08,4.82c0,1.57.08,2.24,1.34,3.19Zm-3.19-7c-2.6,0-3.5.48-3.5,2.18a1.7,1.7,0,0,0,1.65,1.88,2.71,2.71,0,0,0,2-1l.06-3.08Z"/><path class="cls-4" d="M164,193.92a3.36,3.36,0,0,1-3.33-2,7.78,7.78,0,0,1-.34-3.22V178a37.25,37.25,0,0,0-.2-4.31l3.84-.87a21.49,21.49,0,0,1,.2,3.72v11.17c0,2.46,0,2.8.25,3.19a.86.86,0,0,0,.76.39,1.24,1.24,0,0,0,.42-.06l.64,2.24A6.26,6.26,0,0,1,164,193.92Z"/></g><circle class="cls-5" cx="123.5" cy="96.6" r="60"/><path class="cls-1" d="M128,122.3a4.5,4.5,0,1,1-4.5-4.5,4.42,4.42,0,0,1,4.5,4.5"/><path class="cls-1" d="M158.6,96.4a4.94,4.94,0,0,1-3.4-1.4,44.9,44.9,0,0,0-63.4,0,4.86,4.86,0,0,1-6.8.1,4.74,4.74,0,0,1-.1-6.7,54.56,54.56,0,0,1,77.1.1,4.86,4.86,0,0,1-.1,6.8,6.2,6.2,0,0,1-3.3,1.1"/><path class="cls-1" d="M146.9,106.2a4.6,4.6,0,0,1-3.3-1.3,29.8,29.8,0,0,0-40.2,0A4.74,4.74,0,1,1,96.9,98a39.47,39.47,0,0,1,53.4,0,4.86,4.86,0,0,1,.2,6.8,5.63,5.63,0,0,1-3.6,1.4"/><path class="cls-1" d="M111.5,116.3a4.59,4.59,0,0,1-3.7-1.8,4.85,4.85,0,0,1,.7-6.7,23.89,23.89,0,0,1,14.9-5,24.48,24.48,0,0,1,14.6,4.7,4.78,4.78,0,1,1-5.8,7.6,14.24,14.24,0,0,0-8.8-2.8,14.9,14.9,0,0,0-9,2.9,3.92,3.92,0,0,1-2.9,1.1"/><circle class="cls-1" cx="1750.7" cy="128.7" r="125"/><rect class="cls-2" x="1691.9" y="177.4" width="114.6" height="39"/><g class="cls-3"><path class="cls-4" d="M1725.15,194.37a6.67,6.67,0,0,1-4.73,2.8c-.73.06-1.65.11-2.8.11h-4.73V177.82h3.92c1.12,0,2.6.06,3.39.11a6.61,6.61,0,0,1,4.26,1.93c1.79,1.76,2.66,4.26,2.66,7.76A11.12,11.12,0,0,1,1725.15,194.37Zm-3.42-11.84a3.22,3.22,0,0,0-3.08-1.62h-1.79v13.19h2.1c2.57,0,3.75-2,3.75-6.1C1722.71,185.71,1722.52,183.81,1721.74,182.52Z"/><path class="cls-4" d="M1732.35,181.32a2.31,2.31,0,0,1-2.29-2.32,2.34,2.34,0,0,1,2.35-2.32,2.29,2.29,0,0,1,2.27,2.32A2.32,2.32,0,0,1,1732.35,181.32Zm-1.87,16V183.19l3.75-.59v14.67Z"/><path class="cls-4" d="M1750,185.57a7.91,7.91,0,0,1-1-.08,3.46,3.46,0,0,1,.84,2.35c0,2.46-2.24,4.26-5.29,4.26a4.5,4.5,0,0,1-.56,0c-1,.45-1.48.78-1.48,1.18,0,.2.22.34.62.34l2,0c2.18,0,3.33.36,4.34,1.29a3.91,3.91,0,0,1,1.23,3.05,4.08,4.08,0,0,1-1.15,3c-1.26,1.34-3.42,1.85-5.66,1.85-2,0-4.14-.34-5.43-1.54a3.36,3.36,0,0,1-1.18-2.55,2.86,2.86,0,0,1,.34-1.46h3.47a2,2,0,0,0-.17.92c0,1.15,1,1.76,2.69,1.76a4.53,4.53,0,0,0,2.35-.48,1.75,1.75,0,0,0,.92-1.46c0-1.29-1.15-1.68-2.63-1.71l-1.6,0a10.19,10.19,0,0,1-3.44-.45,1.82,1.82,0,0,1-1.09-1.88c0-.92.28-1.79,2.63-2.41a3.71,3.71,0,0,1-3.08-4c0-2.94,2.38-4.84,6-4.84a10.35,10.35,0,0,1,2.58.36,7.52,7.52,0,0,0,1.76.31,4.51,4.51,0,0,0,3-1.23l1.57,2.38A3.57,3.57,0,0,1,1750,185.57Zm-6.27-.14a2,2,0,0,0-2.24,2.13c0,1.46.89,2,2.21,2,1.48,0,2.3-.73,2.3-2A2,2,0,0,0,1743.71,185.43Z"/><path class="cls-4" d="M1756.06,181.32a2.31,2.31,0,0,1-2.29-2.32,2.34,2.34,0,0,1,2.35-2.32,2.29,2.29,0,0,1,2.27,2.32A2.32,2.32,0,0,1,1756.06,181.32Zm-1.87,16V183.19l3.75-.59v14.67Z"/><path class="cls-4" d="M1766.25,197.61c-1.9,0-3.41-.84-3.86-2.1a5.28,5.28,0,0,1-.25-2.21v-7.78h-1.43v-2.58h1.43a24.7,24.7,0,0,1,.14-3.39l3.81-1a43.21,43.21,0,0,0-.22,4.34h3.36l-1,2.58h-2.41v7.2c0,1.82.34,2.3,1.62,2.3a4.9,4.9,0,0,0,1.35-.28l.47,2.24A7.88,7.88,0,0,1,1766.25,197.61Z"/><path class="cls-4" d="M1781.29,198a4,4,0,0,1-2-1.74,7,7,0,0,1-.87.76,5,5,0,0,1-2.88.78c-3.19,0-4.93-1.62-4.93-4.48,0-3.36,2.32-4.93,6.89-4.93.28,0,.53,0,.84,0v-.59c0-1.6-.31-2.13-1.68-2.13a7.9,7.9,0,0,0-4.14,1.62l-1.6-2.69a13.8,13.8,0,0,1,2.32-1.18,9.71,9.71,0,0,1,3.92-.84c2.41,0,4.06.9,4.62,2.49a6.67,6.67,0,0,1,.25,2.58l-.08,4.82c0,1.57.08,2.24,1.34,3.19Zm-3.19-7c-2.6,0-3.5.48-3.5,2.18a1.7,1.7,0,0,0,1.65,1.88,2.71,2.71,0,0,0,2-1l.06-3.08Z"/><path class="cls-4" d="M1789.63,197.61a3.36,3.36,0,0,1-3.33-2,7.78,7.78,0,0,1-.34-3.22v-10.7a37.25,37.25,0,0,0-.2-4.31l3.84-.87a21.49,21.49,0,0,1,.2,3.72v11.17c0,2.46,0,2.8.25,3.19a.86.86,0,0,0,.76.39,1.24,1.24,0,0,0,.42-.06l.64,2.24A6.26,6.26,0,0,1,1789.63,197.61Z"/></g><circle class="cls-5" cx="1749.2" cy="100.3" r="60"/><path class="cls-1" d="M1753.7,126a4.5,4.5,0,1,1-4.5-4.5,4.42,4.42,0,0,1,4.5,4.5"/><path class="cls-1" d="M1784.3,100.1a4.94,4.94,0,0,1-3.4-1.4,44.9,44.9,0,0,0-63.4,0,4.86,4.86,0,0,1-6.8.1,4.74,4.74,0,0,1-.1-6.7,54.56,54.56,0,0,1,77.1.1,4.86,4.86,0,0,1-.1,6.8,6.2,6.2,0,0,1-3.3,1.1"/><path class="cls-1" d="M1772.6,109.9a4.6,4.6,0,0,1-3.3-1.3,29.8,29.8,0,0,0-40.2,0,4.86,4.86,0,0,1-6.8-.2,4.74,4.74,0,0,1,.2-6.7,39.47,39.47,0,0,1,53.4,0,4.86,4.86,0,0,1,.2,6.8,5.19,5.19,0,0,1-3.5,1.4"/><path class="cls-1" d="M1737.2,120a4.59,4.59,0,0,1-3.7-1.8,4.85,4.85,0,0,1,.7-6.7,23.89,23.89,0,0,1,14.9-5,24.48,24.48,0,0,1,14.6,4.7,4.78,4.78,0,1,1-5.8,7.6,14.24,14.24,0,0,0-8.8-2.8,14.9,14.9,0,0,0-9,2.9,4.36,4.36,0,0,1-2.9,1.1"/><circle class="cls-1" cx="1433.1" cy="128.7" r="125"/><rect class="cls-2" x="1330.1" y="177.4" width="200" height="33.7"/><g class="cls-3"><path class="cls-4" d="M1353,197.7a13.91,13.91,0,0,1-6.64-1.76l1.46-3.05a11.05,11.05,0,0,0,5.35,1.57c2.24,0,3.41-.92,3.41-2.66,0-1.26-.81-2-2.55-2.52l-2.16-.59a5.9,5.9,0,0,1-3.84-2.46,5.63,5.63,0,0,1-.81-3c0-3.56,2.86-6,7-6a11.42,11.42,0,0,1,6.5,2l-1.85,2.8a8.4,8.4,0,0,0-4.54-1.48c-1.6,0-2.72.92-2.72,2.24,0,1,.53,1.51,2.16,2l2.35.64c3.19.87,4.93,2.91,4.93,5.8C1361,195.09,1357.8,197.7,1353,197.7Z"/><path class="cls-4" d="M1374.26,195.6a5.86,5.86,0,0,1-4.73,2c-3.89,0-6.44-2.91-6.44-7.42s2.58-7.5,6.44-7.5a6,6,0,0,1,4.87,2.16,7.45,7.45,0,0,1,1.65,5.24A7.78,7.78,0,0,1,1374.26,195.6Zm-3.05-9.41a2.05,2.05,0,0,0-3.55.7,13.56,13.56,0,0,0,.08,6.8,2.07,2.07,0,0,0,1.9,1.18c1.62,0,2.32-1.46,2.32-4.84C1372,188.09,1371.71,186.83,1371.21,186.19Z"/><path class="cls-4" d="M1388.17,196.72a6.71,6.71,0,0,1-3.5.9c-3.95,0-6.24-2.74-6.24-7.39,0-3.3,1.26-5.49,2.94-6.64a6.8,6.8,0,0,1,3.56-1.06,6.12,6.12,0,0,1,2.77.64,6.32,6.32,0,0,1,1.4,1l-1.82,2.46a3.61,3.61,0,0,0-2.27-1.12c-1.68,0-2.44,1.46-2.44,4.82,0,1.88.25,3,.73,3.61a2.16,2.16,0,0,0,1.68.81,3.83,3.83,0,0,0,2.58-1.18l.22-.2,1.71,2.27A6,6,0,0,1,1388.17,196.72Z"/><path class="cls-4" d="M1393.89,181.32a2.31,2.31,0,0,1-2.29-2.32,2.34,2.34,0,0,1,2.35-2.32,2.29,2.29,0,0,1,2.27,2.32A2.32,2.32,0,0,1,1393.89,181.32Zm-1.87,16V183.19l3.75-.59v14.67Z"/><path class="cls-4" d="M1409.54,198a4,4,0,0,1-2-1.74,7,7,0,0,1-.87.76,5,5,0,0,1-2.88.78c-3.19,0-4.93-1.62-4.93-4.48,0-3.36,2.32-4.93,6.89-4.93.28,0,.53,0,.84,0v-.59c0-1.6-.31-2.13-1.68-2.13a7.9,7.9,0,0,0-4.14,1.62l-1.6-2.69a13.82,13.82,0,0,1,2.32-1.18,9.7,9.7,0,0,1,3.92-.84c2.41,0,4.06.9,4.62,2.49a6.63,6.63,0,0,1,.25,2.58l-.08,4.82c0,1.57.08,2.24,1.34,3.19Zm-3.19-7c-2.6,0-3.5.48-3.5,2.18a1.7,1.7,0,0,0,1.65,1.88,2.72,2.72,0,0,0,2-1l.05-3.08Z"/><path class="cls-4" d="M1417.88,197.61a3.37,3.37,0,0,1-3.33-2,7.78,7.78,0,0,1-.34-3.22v-10.7a36.81,36.81,0,0,0-.2-4.31l3.84-.87a21.29,21.29,0,0,1,.2,3.72v11.17c0,2.46,0,2.8.25,3.19a.86.86,0,0,0,.75.39,1.26,1.26,0,0,0,.42-.06l.64,2.24A6.26,6.26,0,0,1,1417.88,197.61Z"/><path class="cls-4" d="M1436.61,197.28v-9.63c0-1.43-.39-2-1.46-2a5,5,0,0,0-3,1.32v10.28h-3.81V180.7a15.16,15.16,0,0,0-.28-3.28l3.84-.9a19.31,19.31,0,0,1,.25,3.5v2.86c0,.45-.06,1-.06,1.2a6.27,6.27,0,0,1,4.06-1.54c1.82,0,3.28.78,3.72,2a6.7,6.7,0,0,1,.37,2.66v10Z"/><path class="cls-4" d="M1454.67,195.6a5.86,5.86,0,0,1-4.73,2c-3.89,0-6.44-2.91-6.44-7.42s2.57-7.5,6.44-7.5a6,6,0,0,1,4.87,2.16,7.45,7.45,0,0,1,1.65,5.24A7.79,7.79,0,0,1,1454.67,195.6Zm-3.05-9.41a2.05,2.05,0,0,0-3.56.7,10.28,10.28,0,0,0-.39,3.19,10.11,10.11,0,0,0,.48,3.61,2.07,2.07,0,0,0,1.9,1.18c1.63,0,2.32-1.46,2.32-4.84C1452.38,188.09,1452.13,186.83,1451.62,186.19Z"/><path class="cls-4" d="M1469,197.67a3.29,3.29,0,0,1-1.12-1.4,5.36,5.36,0,0,1-3.78,1.37c-2,0-3.75-1-4.23-2.32a8.55,8.55,0,0,1-.31-2.86v-9.18l3.7-.7v9.21a5.67,5.67,0,0,0,.31,2.35,1.5,1.5,0,0,0,1.32.67,2.78,2.78,0,0,0,2.32-1.37V183.36l3.58-.76v10.95a4.16,4.16,0,0,0,.87,2.6Z"/><path class="cls-4" d="M1479.37,197.73a12.76,12.76,0,0,1-5.8-1.65l1.35-2.74a10.46,10.46,0,0,0,4.76,1.62,1.76,1.76,0,0,0,1.9-1.62c0-1-.7-1.48-2.21-1.76l-1.68-.31a5.06,5.06,0,0,1-2.63-1.46,4.34,4.34,0,0,1-.81-2.58c0-2.8,2.21-4.68,5.54-4.68a10.76,10.76,0,0,1,5.13,1.34l-1.23,2.52a7.59,7.59,0,0,0-3.53-1c-1.09,0-1.82.56-1.82,1.4s.48,1.12,1.79,1.46l1.74.45a4.46,4.46,0,0,1,2.86,1.62,3.79,3.79,0,0,1,.79,2.44C1485.5,195.71,1483,197.73,1479.37,197.73Z"/><path class="cls-4" d="M1490.18,181.32a2.31,2.31,0,0,1-2.3-2.32,2.34,2.34,0,0,1,2.35-2.32,2.29,2.29,0,0,1,2.27,2.32A2.32,2.32,0,0,1,1490.18,181.32Zm-1.88,16V183.19l3.75-.59v14.67Z"/><path class="cls-4" d="M1503.87,197.28V188c0-1.62-.28-2.1-1.26-2.1a4.37,4.37,0,0,0-2.6,1.29v10.14h-3.75V186.89a10.34,10.34,0,0,0-.5-3.36l3.33-1a3.65,3.65,0,0,1,.53,1.79,16.86,16.86,0,0,1,1.65-1.06,5.9,5.9,0,0,1,2.58-.62,3.56,3.56,0,0,1,3.44,2.07,5.75,5.75,0,0,1,.28,2v10.47Z"/><path class="cls-4" d="M1523.33,185.57a7.91,7.91,0,0,1-1-.08,3.47,3.47,0,0,1,.84,2.35c0,2.46-2.24,4.26-5.29,4.26a4.5,4.5,0,0,1-.56,0c-1,.45-1.48.78-1.48,1.18,0,.2.22.34.62.34l2,0c2.19,0,3.33.36,4.34,1.29a3.91,3.91,0,0,1,1.23,3.05,4.07,4.07,0,0,1-1.15,3c-1.26,1.34-3.41,1.85-5.66,1.85-2,0-4.14-.34-5.43-1.54a3.37,3.37,0,0,1-1.18-2.55,2.89,2.89,0,0,1,.34-1.46h3.47a2,2,0,0,0-.17.92c0,1.15,1,1.76,2.69,1.76a4.54,4.54,0,0,0,2.35-.48,1.74,1.74,0,0,0,.92-1.46c0-1.29-1.15-1.68-2.63-1.71l-1.6,0a10.21,10.21,0,0,1-3.45-.45,1.82,1.82,0,0,1-1.09-1.88c0-.92.28-1.79,2.63-2.41a3.71,3.71,0,0,1-3.08-4c0-2.94,2.38-4.84,6-4.84a10.35,10.35,0,0,1,2.58.36,7.53,7.53,0,0,0,1.76.31,4.51,4.51,0,0,0,3-1.23l1.57,2.38A3.57,3.57,0,0,1,1523.33,185.57Zm-6.27-.14a2,2,0,0,0-2.24,2.13c0,1.46.9,2,2.21,2,1.48,0,2.3-.73,2.3-2A2,2,0,0,0,1517.06,185.43Z"/></g><circle class="cls-5" cx="1430.1" cy="100.3" r="60"/><path class="cls-1" d="M1467.5,122.7h-74.9a1,1,0,0,0-1,1v1.6a1,1,0,0,0,1,1h74.9a1,1,0,0,0,1-1v-1.6a.94.94,0,0,0-1-1"/><path class="cls-1" d="M1395.7,89.2a1,1,0,0,0,1.4.4l33.1-16.8,33.5,16.6a1.05,1.05,0,0,0,1.4-.5l.6-1.2a1.05,1.05,0,0,0-.5-1.4l-34.2-17c-.1,0-.2-.1-.3-.1a.92.92,0,0,0-1-.1l-34.1,17.3a1.15,1.15,0,0,0-.5,1.4Z"/><path class="cls-1" d="M1433.7,88.9a1,1,0,0,1-1,1h-5.1a1,1,0,0,1-1-1V83.8a1,1,0,0,1,1-1h5.1a1,1,0,0,1,1,1Zm-6.3,13.7a1,1,0,0,1-1,1h-6.1a1,1,0,0,1-1-1V96.5a1,1,0,0,1,1-1h6.1a1,1,0,0,1,1,1Zm0,10a1,1,0,0,1-1,1h-6.1a1,1,0,0,1-1-1v-6.1a1,1,0,0,1,1-1h6.1a1,1,0,0,1,1,1Zm-10.6-10a1,1,0,0,1-1,1h-6.1a1,1,0,0,1-1-1V96.5a1,1,0,0,1,1-1h6.1a1,1,0,0,1,1,1Zm0,10a1,1,0,0,1-1,1h-6.1a1,1,0,0,1-1-1v-6.1a1,1,0,0,1,1-1h6.1a1,1,0,0,1,1,1Zm34.9,8.2h8.6a1,1,0,0,0,1-1V92.3a1.86,1.86,0,0,0-.9-1.5L1431,76.2a2.12,2.12,0,0,0-1.9,0l-29.4,14.6a1.86,1.86,0,0,0-.9,1.5v27.5a1,1,0,0,0,1,1h35.1a1,1,0,0,0,1-1V96.6a1,1,0,0,1,1-1h12.6a1,1,0,0,1,1,1v23.2a1.4,1.4,0,0,0,1.2,1"/><circle class="cls-1" cx="1111" cy="128.7" r="125"/><rect class="cls-2" x="1048.3" y="177.4" width="125.4" height="30.8"/><g class="cls-3"><path class="cls-4" d="M1071.05,198.12V178.66h11.09l-.5,3.19H1075v4.51h5.52v3.19H1075v5.21h7.36v3.36Z"/><path class="cls-4" d="M1092.81,198.12v-9.32c0-1.62-.28-2.1-1.26-2.1a4.37,4.37,0,0,0-2.6,1.29v10.14h-3.75V187.73a10.34,10.34,0,0,0-.5-3.36l3.33-1a3.65,3.65,0,0,1,.53,1.79,16.86,16.86,0,0,1,1.65-1.06,5.9,5.9,0,0,1,2.58-.62,3.56,3.56,0,0,1,3.44,2.07,5.75,5.75,0,0,1,.28,2v10.47Z"/><path class="cls-4" d="M1103.92,192.13v.11c0,2.21,1.09,3.47,3,3.47a5.6,5.6,0,0,0,3.64-1.43l1.46,2.24a8.23,8.23,0,0,1-5.4,2c-4.12,0-6.78-2.91-6.78-7.42,0-2.58.53-4.28,1.79-5.68a5.63,5.63,0,0,1,4.51-1.93,5.87,5.87,0,0,1,4.14,1.51c1.32,1.34,1.9,3.28,1.9,6.27v.87Zm4.4-2.91a3.69,3.69,0,0,0-.45-2.16,1.82,1.82,0,0,0-1.65-.84c-1.43,0-2.24,1.12-2.24,3.11v.06h4.34Z"/><path class="cls-4" d="M1122.29,187.06a2.12,2.12,0,0,0-1.09-.28,3,3,0,0,0-2.29,1.2v10.14h-3.75v-9.58a13,13,0,0,0-.53-4.2l3.36-.9a4.62,4.62,0,0,1,.59,2,4.39,4.39,0,0,1,3.36-2,2.89,2.89,0,0,1,1.4.31Z"/><path class="cls-4" d="M1136.24,186.41a8,8,0,0,1-1-.08,3.46,3.46,0,0,1,.84,2.35c0,2.46-2.24,4.26-5.29,4.26a4.53,4.53,0,0,1-.56,0c-1,.45-1.48.78-1.48,1.18,0,.2.22.34.62.34l2,0c2.18,0,3.33.36,4.34,1.29a3.91,3.91,0,0,1,1.23,3.05,4.08,4.08,0,0,1-1.15,3c-1.26,1.34-3.42,1.85-5.66,1.85-2,0-4.14-.34-5.43-1.54a3.37,3.37,0,0,1-1.18-2.55,2.86,2.86,0,0,1,.34-1.46h3.47a2,2,0,0,0-.17.92c0,1.15,1,1.76,2.69,1.76a4.53,4.53,0,0,0,2.35-.48,1.74,1.74,0,0,0,.92-1.46c0-1.29-1.15-1.68-2.63-1.71l-1.6,0a10.19,10.19,0,0,1-3.44-.45,1.82,1.82,0,0,1-1.09-1.88c0-.92.28-1.79,2.63-2.41a3.71,3.71,0,0,1-3.08-4c0-2.94,2.38-4.84,6-4.84a10.33,10.33,0,0,1,2.58.36,7.52,7.52,0,0,0,1.76.31,4.52,4.52,0,0,0,3-1.23l1.57,2.38A3.57,3.57,0,0,1,1136.24,186.41Zm-6.27-.14a2,2,0,0,0-2.24,2.13c0,1.46.9,2,2.21,2,1.48,0,2.3-.73,2.3-2A2,2,0,0,0,1130,186.27Z"/><path class="cls-4" d="M1147.6,198.34c-1,2.77-1.71,4-2.74,4.73a7.56,7.56,0,0,1-3.47,1.32l-1.29-2.46a8.41,8.41,0,0,0,2.32-1,4.33,4.33,0,0,0,1.06-1.18,8.6,8.6,0,0,0,.81-1.68h-1L1138.61,184l3.84-.45,2.49,8.37.76,3c0-.08.28-1.6.45-2.3.11-.48.34-1.32.56-2l2.16-6.83h3.95Z"/></g><image class="cls-6" width="181" height="181" transform="translate(1020.3 13.52)" xlink:href="../AppData/Local/Packages/Microsoft.SkypeApp_kzf8qxf38zg5c/LocalState/Downloads/ECF25F9D.png"/><circle class="cls-7" cx="1111" cy="100.3" r="60"/><path class="cls-1" d="M1119,117.4h-16.2a2.09,2.09,0,0,0-2.1,2.8c0,.1.1.1.1.2a2,2,0,0,0,1.1,1.1,5,5,0,0,0,1.2.2h16c1.5,0,2.4-.8,2.4-2.1a2.24,2.24,0,0,0-2.5-2.2"/><path class="cls-1" d="M1118.6,124.5h-15.3a2.23,2.23,0,0,0-2.5,2.1.75.75,0,0,0,.1.5,2,2,0,0,0,1.4,1.4,2.77,2.77,0,0,0,.9.1h15.3a2.23,2.23,0,0,0,2.5-2.1c0-1.2-.9-2-2.4-2"/><path class="cls-1" d="M1103.5,131.5h-.3a11.53,11.53,0,0,0,4,3.7,8.87,8.87,0,0,0,3.8.9c5,0,7.8-4.6,7.8-4.6h-15.3Z"/><path class="cls-1" d="M1123.2,103.4l-9.6,2.5V113a3,3,0,0,0,2.9,3h0a3.07,3.07,0,0,0,3-3v-2.6l5.2-1.3a2.95,2.95,0,1,0-1.5-5.7"/><path class="cls-1" d="M1123.2,94.5l-23.7,6.2-2.3.6a3,3,0,0,0-2.2,3.3,2.6,2.6,0,0,0,.3,1.7,3.15,3.15,0,0,0,1.4,1.4h0l6,2.8.1,2.8a1.71,1.71,0,0,0,.1.7,3.15,3.15,0,0,0,2.1,2.1,2,2,0,0,0,.8.1h.1a3,3,0,0,0,2.9-3l-.2-6.5-2.9-1.3,18.9-4.9a2.92,2.92,0,0,0,2.1-3.6,2.77,2.77,0,0,0-3.5-2.4"/><path class="cls-1" d="M1123.2,83.3l-16.1,4.2-7.7,2-2.2.6a2.92,2.92,0,0,0-2.1,3.6.52.52,0,0,0,.2.4,3.12,3.12,0,0,0,1.5,1.5,2.66,2.66,0,0,0,1.2.3,2.2,2.2,0,0,0,.8-.1l5.6-1.5,7.7-2,12.7-3.3a2.92,2.92,0,0,0,2.1-3.6,3.16,3.16,0,0,0-3.7-2.1"/><path class="cls-1" d="M1095.4,83.7a3.25,3.25,0,0,0,1.3,1.3,3.2,3.2,0,0,0,1.4.3,2.2,2.2,0,0,0,.8-.1l6.2-1.6,19.7-5.1a3.77,3.77,0,0,0,1.5-.9,2.88,2.88,0,0,0,.6-2.7c0-.2-.1-.3-.2-.5a3.07,3.07,0,0,0-3.5-1.7l-1.5.4L1100,78.7l-2.8.7a2.92,2.92,0,0,0-2.1,3.6,5,5,0,0,0,.3.7"/><path class="cls-1" d="M1095.1,72.5a3,3,0,0,0,2.6,2.2h.3a2.2,2.2,0,0,0,.8-.1l16.3-4.2a2.89,2.89,0,0,0,2.1-3.5v-.1a2.91,2.91,0,0,0-2.3-2.1,3.29,3.29,0,0,0-1.4,0L1097.2,69a3,3,0,0,0-2.2,3.1.59.59,0,0,1,.1.4"/><polygon class="cls-8" points="1101 13 1111 30.3 1121 13 1101 13"/><rect class="cls-1" x="2460.8" y="-1034.5" width="1108.4" height="1893.6"/><path class="cls-9" d="M3490.8-5.2a9.82,9.82,0,0,1-9.8,9.8H3050a9.82,9.82,0,0,1-9.8-9.8V-85.6a9.82,9.82,0,0,1,9.8-9.8h431a9.82,9.82,0,0,1,9.8,9.8Z"/><path class="cls-9" d="M3490.8,140.7a9.82,9.82,0,0,1-9.8,9.8H3050a9.82,9.82,0,0,1-9.8-9.8V60.3a9.82,9.82,0,0,1,9.8-9.8h431a9.82,9.82,0,0,1,9.8,9.8Z"/><g class="cls-3"><path class="cls-4" d="M3192.81,109.45l-.94-13.35c-.11-1.58-.18-2.84-.18-4.18-.29,1.44-.5,2.34-.94,3.85l-4,13.68h-4.28l-3.56-13.14c-.32-1.22-.76-3-1-4.43,0,1.48-.07,3-.18,4.5l-.86,13.07h-5l2.34-25h6.44L3184,97a39.13,39.13,0,0,1,.87,4c.21-1.3.5-2.59.9-4.07l3.38-12.42h6.41l2.23,25Z"/><path class="cls-4" d="M3214.19,110a4.2,4.2,0,0,1-1.44-1.8,6.88,6.88,0,0,1-4.86,1.76c-2.59,0-4.82-1.22-5.44-3a11,11,0,0,1-.4-3.67V91.45l4.75-.9v11.84a7.31,7.31,0,0,0,.39,3,1.94,1.94,0,0,0,1.69.86,3.57,3.57,0,0,0,3-1.76v-13l4.61-1v14.07a5.35,5.35,0,0,0,1.12,3.35Z"/><path class="cls-4" d="M3226.43,109.88a4.33,4.33,0,0,1-4.28-2.52c-.36-.94-.43-1.51-.43-4.14V89.47a47.54,47.54,0,0,0-.25-5.54l4.93-1.12a27.45,27.45,0,0,1,.25,4.79V102c0,3.17,0,3.6.32,4.1a1.1,1.1,0,0,0,1,.5,1.61,1.61,0,0,0,.54-.07l.83,2.88A8,8,0,0,1,3226.43,109.88Z"/><path class="cls-4" d="M3237.34,109.88c-2.45,0-4.39-1.08-5-2.7a6.78,6.78,0,0,1-.32-2.84v-10h-1.84V91H3232a32,32,0,0,1,.18-4.36l4.89-1.22a55.13,55.13,0,0,0-.29,5.58h4.32l-1.22,3.31h-3.1v9.25c0,2.34.43,3,2.09,3a6.32,6.32,0,0,0,1.73-.36l.61,2.88A10.13,10.13,0,0,1,3237.34,109.88Z"/><path class="cls-4" d="M3247.09,88.93a3,3,0,0,1-3-3,3,3,0,0,1,3-3,2.94,2.94,0,0,1,2.92,3A3,3,0,0,1,3247.09,88.93Zm-2.41,20.52V91.34l4.82-.76v18.86Z"/><path class="cls-4" d="M3253.83,101.67V97.5h8.64v4.17Z"/><path class="cls-4" d="M3276,95.23a2.73,2.73,0,0,0-1.4-.36,3.84,3.84,0,0,0-3,1.55v13h-4.82V97.14a16.69,16.69,0,0,0-.68-5.4l4.32-1.15a5.91,5.91,0,0,1,.76,2.63,5.65,5.65,0,0,1,4.32-2.63,3.72,3.72,0,0,1,1.8.4Z"/><path class="cls-4" d="M3283.17,101.75v.14c0,2.84,1.4,4.46,3.89,4.46a7.21,7.21,0,0,0,4.68-1.84l1.87,2.88a10.58,10.58,0,0,1-6.95,2.56c-5.29,0-8.71-3.74-8.71-9.54,0-3.31.68-5.51,2.3-7.31a7.25,7.25,0,0,1,5.8-2.48,7.54,7.54,0,0,1,5.33,1.94c1.69,1.73,2.45,4.21,2.45,8.06v1.12Zm5.65-3.74a4.75,4.75,0,0,0-.58-2.77,2.34,2.34,0,0,0-2.12-1.08c-1.83,0-2.88,1.44-2.88,4v.07h5.58Z"/><path class="cls-4" d="M3312.47,94.4a10.23,10.23,0,0,1-1.26-.11,4.44,4.44,0,0,1,1.08,3c0,3.17-2.88,5.47-6.8,5.47a5.87,5.87,0,0,1-.72,0c-1.22.58-1.91,1-1.91,1.51,0,.25.29.43.79.43l2.59,0c2.81,0,4.28.47,5.58,1.66a5,5,0,0,1,1.58,3.92,5.24,5.24,0,0,1-1.47,3.82c-1.62,1.73-4.39,2.38-7.27,2.38-2.63,0-5.33-.43-7-2a4.32,4.32,0,0,1-1.51-3.28,3.68,3.68,0,0,1,.43-1.87h4.46a2.6,2.6,0,0,0-.21,1.19c0,1.48,1.22,2.27,3.46,2.27a5.82,5.82,0,0,0,3-.61,2.24,2.24,0,0,0,1.19-1.87c0-1.66-1.48-2.16-3.38-2.2l-2.05,0a13.11,13.11,0,0,1-4.43-.58,2.34,2.34,0,0,1-1.4-2.41c0-1.19.36-2.3,3.38-3.1a4.77,4.77,0,0,1-4-5.11c0-3.78,3.06-6.23,7.77-6.23a13.31,13.31,0,0,1,3.31.47,9.66,9.66,0,0,0,2.27.4,5.79,5.79,0,0,0,3.81-1.58l2,3.06A4.59,4.59,0,0,1,3312.47,94.4Zm-8.06-.18a2.56,2.56,0,0,0-2.88,2.74c0,1.87,1.15,2.63,2.84,2.63,1.91,0,3-.94,3-2.63A2.59,2.59,0,0,0,3304.41,94.22Z"/><path class="cls-4" d="M3320.28,88.93a3,3,0,0,1-3-3,3,3,0,0,1,3-3,2.94,2.94,0,0,1,2.91,3A3,3,0,0,1,3320.28,88.93Zm-2.41,20.52V91.34l4.82-.76v18.86Z"/><path class="cls-4" d="M3341.2,107.29a7.53,7.53,0,0,1-6.08,2.56c-5,0-8.28-3.74-8.28-9.54s3.31-9.65,8.28-9.65a7.72,7.72,0,0,1,6.26,2.77c1.48,1.73,2.12,3.74,2.12,6.73C3343.5,103.33,3342.78,105.49,3341.2,107.29Zm-3.92-12.09a2.64,2.64,0,0,0-4.57.9,13.13,13.13,0,0,0-.5,4.1,13,13,0,0,0,.61,4.64,2.67,2.67,0,0,0,2.45,1.51c2.09,0,3-1.87,3-6.23C3338.25,97.64,3337.92,96,3337.27,95.2Z"/><path class="cls-4" d="M3357.43,109.45v-12c0-2.09-.36-2.7-1.62-2.7a5.63,5.63,0,0,0-3.35,1.66v13h-4.82V96.09a13.3,13.3,0,0,0-.65-4.32l4.28-1.22a4.7,4.7,0,0,1,.68,2.3,21.33,21.33,0,0,1,2.13-1.37,7.6,7.6,0,0,1,3.31-.79,4.58,4.58,0,0,1,4.43,2.66,7.44,7.44,0,0,1,.36,2.63v13.46Z"/></g><path class="cls-9" d="M3490.8,286.6a9.82,9.82,0,0,1-9.8,9.8H3050a9.82,9.82,0,0,1-9.8-9.8V206.3a9.82,9.82,0,0,1,9.8-9.8h431a9.82,9.82,0,0,1,9.8,9.8Z"/><g class="cls-3"><path class="cls-4" d="M3197.43,255.91a17.89,17.89,0,0,1-8.53-2.27l1.87-3.92a14.19,14.19,0,0,0,6.88,2c2.88,0,4.39-1.19,4.39-3.42,0-1.62-1-2.63-3.28-3.24l-2.77-.76c-2.48-.68-4-1.66-4.93-3.17a7.23,7.23,0,0,1-1-3.82c0-4.57,3.67-7.74,9-7.74a14.67,14.67,0,0,1,8.35,2.52l-2.37,3.6a10.78,10.78,0,0,0-5.83-1.91c-2.05,0-3.49,1.19-3.49,2.88,0,1.3.68,1.94,2.77,2.52l3,.83c4.1,1.12,6.34,3.74,6.34,7.45C3207.76,252.56,3203.66,255.91,3197.43,255.91Z"/><path class="cls-4" d="M3217,255.8c-2.45,0-4.39-1.08-5-2.7a6.77,6.77,0,0,1-.32-2.84v-10h-1.84v-3.31h1.84a32,32,0,0,1,.18-4.36l4.9-1.22a55.13,55.13,0,0,0-.29,5.58h4.32l-1.22,3.31h-3.09v9.25c0,2.34.43,3,2.09,3a6.31,6.31,0,0,0,1.73-.36l.61,2.88A10.12,10.12,0,0,1,3217,255.8Z"/><path class="cls-4" d="M3236.35,256.31a5.16,5.16,0,0,1-2.59-2.23,8.93,8.93,0,0,1-1.12,1,6.37,6.37,0,0,1-3.71,1c-4.1,0-6.33-2.09-6.33-5.76,0-4.32,3-6.33,8.86-6.33.36,0,.68,0,1.08,0v-.76c0-2.05-.4-2.74-2.16-2.74a10.15,10.15,0,0,0-5.33,2.09l-2.05-3.46a17.76,17.76,0,0,1,3-1.51,12.48,12.48,0,0,1,5-1.08c3.09,0,5.22,1.15,5.94,3.2a8.47,8.47,0,0,1,.32,3.31l-.11,6.19c0,2,.11,2.88,1.73,4.1Zm-4.1-9c-3.35,0-4.5.61-4.5,2.81a2.19,2.19,0,0,0,2.13,2.41,3.5,3.5,0,0,0,2.52-1.26l.07-4Z"/><path class="cls-4" d="M3247.94,255.8c-2.45,0-4.39-1.08-5-2.7a6.77,6.77,0,0,1-.32-2.84v-10h-1.84v-3.31h1.84a31.63,31.63,0,0,1,.18-4.36l4.89-1.22a55.11,55.11,0,0,0-.29,5.58h4.32l-1.22,3.31h-3.1v9.25c0,2.34.43,3,2.09,3a6.31,6.31,0,0,0,1.73-.36l.61,2.88A10.13,10.13,0,0,1,3247.94,255.8Z"/><path class="cls-4" d="M3259,247.67v.14c0,2.84,1.4,4.46,3.89,4.46a7.2,7.2,0,0,0,4.68-1.84l1.87,2.88a10.58,10.58,0,0,1-6.95,2.56c-5.29,0-8.71-3.74-8.71-9.54,0-3.31.69-5.51,2.3-7.31a7.24,7.24,0,0,1,5.79-2.48,7.54,7.54,0,0,1,5.33,1.94c1.69,1.73,2.45,4.21,2.45,8.06v1.12Zm5.65-3.74a4.75,4.75,0,0,0-.57-2.77,2.34,2.34,0,0,0-2.12-1.08c-1.84,0-2.88,1.44-2.88,4v.07h5.58Z"/><path class="cls-4" d="M3290.78,255.37h-4.43L3284.7,249c-.4-1.48-.83-3.24-1-4.46l-.29-1.84a22.94,22.94,0,0,1-.43,2.38c-.36,1.58-1.15,4.75-1.58,6.48l-.94,3.78h-4.5l-5-18.11,4.79-.54,1.51,7.09c.43,1.91.94,5,1,5.72a63.93,63.93,0,0,1,1.33-6.41l1.73-6.19h4.54l1.48,6.08c.72,3.06,1.26,5.9,1.37,6.52.11-.79.5-3.67,1-6l1.4-6.59h5Z"/><path class="cls-4" d="M3301,234.85a3,3,0,0,1-3-3,3,3,0,0,1,3-3,2.94,2.94,0,0,1,2.92,3A3,3,0,0,1,3301,234.85Zm-2.41,20.52V237.27l4.82-.76v18.86Z"/><path class="cls-4" d="M3319.87,255.37a3.34,3.34,0,0,1-.29-1.08,6.18,6.18,0,0,1-4.25,1.55c-4.68,0-7.63-3.64-7.63-9.36s3.2-9.72,7.88-9.72a5,5,0,0,1,3.28,1,22.45,22.45,0,0,1-.14-2.74v-6.33l4.79.76v19.15c0,4.54.36,6,.68,6.73Zm-1.08-13.57a4,4,0,0,0-2.63-1.19c-2.16,0-3.1,1.8-3.1,5.9s.83,5.25,3.35,5.25a3.45,3.45,0,0,0,2.38-1.19Z"/><path class="cls-4" d="M3333,247.67v.14c0,2.84,1.4,4.46,3.89,4.46a7.21,7.21,0,0,0,4.68-1.84l1.87,2.88a10.58,10.58,0,0,1-6.95,2.56c-5.29,0-8.71-3.74-8.71-9.54,0-3.31.69-5.51,2.3-7.31a7.24,7.24,0,0,1,5.79-2.48,7.54,7.54,0,0,1,5.33,1.94c1.69,1.73,2.45,4.21,2.45,8.06v1.12Zm5.65-3.74a4.74,4.74,0,0,0-.58-2.77,2.33,2.33,0,0,0-2.12-1.08c-1.84,0-2.88,1.44-2.88,4v.07h5.58Z"/></g><path class="cls-9" d="M2539.1-5.2a9.82,9.82,0,0,0,9.8,9.8h431a9.82,9.82,0,0,0,9.8-9.8V-85.6a9.82,9.82,0,0,0-9.8-9.8h-431a9.82,9.82,0,0,0-9.8,9.8Z"/><path class="cls-9" d="M2539.1,140.7a9.82,9.82,0,0,0,9.8,9.8h431a9.82,9.82,0,0,0,9.8-9.8V60.3a9.82,9.82,0,0,0-9.8-9.8h-431a9.82,9.82,0,0,0-9.8,9.8Z"/><g class="cls-3"><path class="cls-4" d="M2729.24,88.5h-8v5.72h6.37v4.1h-6.37v11.12h-5v-25h13.57Z"/><path class="cls-4" d="M2734.75,88.93a3,3,0,0,1-3-3,3,3,0,0,1,3-3,2.94,2.94,0,0,1,2.92,3A3,3,0,0,1,2734.75,88.93Zm-2.41,20.52V91.34l4.82-.76v18.86Z"/><path class="cls-4" d="M2747.85,109.88c-2.45,0-4.39-1.08-5-2.7a6.78,6.78,0,0,1-.32-2.84v-10h-1.84V91h1.84a32,32,0,0,1,.18-4.36l4.89-1.22a55.13,55.13,0,0,0-.29,5.58h4.32l-1.22,3.31h-3.1v9.25c0,2.34.43,3,2.09,3a6.32,6.32,0,0,0,1.73-.36l.61,2.88A10.13,10.13,0,0,1,2747.85,109.88Z"/><path class="cls-4" d="M2767.33,109.45h-13.57v-3l8.68-12.06h-8V91h13.68v3.31L2760,106.1h8.46Z"/><path class="cls-4" d="M2781.62,95.23a2.73,2.73,0,0,0-1.4-.36,3.84,3.84,0,0,0-3,1.55v13h-4.82V97.14a16.69,16.69,0,0,0-.68-5.4l4.32-1.15a5.91,5.91,0,0,1,.76,2.63,5.65,5.65,0,0,1,4.32-2.63,3.72,3.72,0,0,1,1.8.4Z"/><path class="cls-4" d="M2797.78,107.29a7.52,7.52,0,0,1-6.08,2.56c-5,0-8.28-3.74-8.28-9.54s3.31-9.65,8.28-9.65a7.72,7.72,0,0,1,6.26,2.77c1.48,1.73,2.13,3.74,2.13,6.73C2800.08,103.33,2799.36,105.49,2797.78,107.29Zm-3.92-12.09a2.64,2.64,0,0,0-4.57.9,13.13,13.13,0,0,0-.5,4.1,13.06,13.06,0,0,0,.61,4.64,2.67,2.67,0,0,0,2.45,1.51c2.09,0,3-1.87,3-6.23C2794.83,97.64,2794.5,96,2793.86,95.2Z"/><path class="cls-4" d="M2812.9,109.74c-1.26,3.56-2.2,5.11-3.53,6.08a9.72,9.72,0,0,1-4.46,1.69l-1.66-3.17a10.81,10.81,0,0,0,3-1.22,5.59,5.59,0,0,0,1.37-1.51,11.17,11.17,0,0,0,1-2.16h-1.22l-6.08-18.14,4.93-.58,3.2,10.76,1,3.82c0-.11.36-2.05.58-3,.14-.61.43-1.69.72-2.56l2.77-8.78h5.07Z"/></g><path class="cls-9" d="M2539.1,286.6a9.82,9.82,0,0,0,9.8,9.8h431a9.82,9.82,0,0,0,9.8-9.8V206.3a9.82,9.82,0,0,0-9.8-9.8h-431a9.82,9.82,0,0,0-9.8,9.8Z"/><g class="cls-3"><path class="cls-4" d="M2719.17,255.59h-5.51l-2.23-10.19a63.21,63.21,0,0,1-1.19-7.05c-.11.68-.54,3.78-1.19,7L2707,255.59h-5.72l-6-25.23h5.33l2.16,9.86c.94,4.36,1.26,7.7,1.33,8.21a78.67,78.67,0,0,1,1.3-8l2.23-10.11h5.51l2.3,11.19c.47,2.23,1,6.19,1.08,6.59.07-.86.83-5.87,1.37-8.28l2.05-9.5h5.29Z"/><path class="cls-4" d="M2730.16,234.85a3,3,0,0,1-3-3,3,3,0,0,1,3-3,2.94,2.94,0,0,1,2.92,3A3,3,0,0,1,2730.16,234.85Zm-2.41,20.52V237.27l4.82-.76v18.86Z"/><path class="cls-4" d="M2749.06,255.37a3.29,3.29,0,0,1-.29-1.08,6.18,6.18,0,0,1-4.25,1.55c-4.68,0-7.63-3.64-7.63-9.36s3.2-9.72,7.88-9.72a5,5,0,0,1,3.28,1,22.35,22.35,0,0,1-.14-2.74v-6.33l4.79.76v19.15c0,4.54.36,6,.68,6.73ZM2748,241.8a4,4,0,0,0-2.63-1.19c-2.16,0-3.1,1.8-3.1,5.9s.83,5.25,3.35,5.25a3.46,3.46,0,0,0,2.38-1.19Z"/><path class="cls-4" d="M2762.23,247.67v.14c0,2.84,1.4,4.46,3.89,4.46a7.2,7.2,0,0,0,4.68-1.84l1.87,2.88a10.58,10.58,0,0,1-6.95,2.56c-5.29,0-8.71-3.74-8.71-9.54,0-3.31.68-5.51,2.3-7.31a7.25,7.25,0,0,1,5.79-2.48,7.54,7.54,0,0,1,5.33,1.94c1.69,1.73,2.45,4.21,2.45,8.06v1.12Zm5.65-3.74a4.75,4.75,0,0,0-.58-2.77,2.33,2.33,0,0,0-2.12-1.08c-1.84,0-2.88,1.44-2.88,4v.07h5.58Z"/><path class="cls-4" d="M2795.86,255.3c-.79,0-1.84.07-3.21.07h-7.88v-25h8.46c3.06,0,4.64.47,6.15,1.8a5.93,5.93,0,0,1,.36,8.64,4.78,4.78,0,0,1-2.3,1.3c3.1.9,5,3,5,6.3A6.59,6.59,0,0,1,2795.86,255.3ZM2794.74,235a5,5,0,0,0-2.09-.32h-2.88v5.72h3a4.65,4.65,0,0,0,2.16-.32,3.18,3.18,0,0,0,1.3-2.56A2.71,2.71,0,0,0,2794.74,235Zm.14,9.75a5.88,5.88,0,0,0-1.94-.22h-3.13v6.77h3.28a3.64,3.64,0,0,0,2.34-.58,3.77,3.77,0,0,0,1.29-2.92A3,3,0,0,0,2794.88,244.72Z"/><path class="cls-4" d="M2818.86,256.31a5.15,5.15,0,0,1-2.59-2.23,9.08,9.08,0,0,1-1.12,1,6.36,6.36,0,0,1-3.71,1c-4.1,0-6.34-2.09-6.34-5.76,0-4.32,3-6.33,8.86-6.33.36,0,.68,0,1.08,0v-.76c0-2.05-.4-2.74-2.16-2.74a10.15,10.15,0,0,0-5.33,2.09l-2.05-3.46a17.79,17.79,0,0,1,3-1.51,12.47,12.47,0,0,1,5-1.08c3.1,0,5.22,1.15,5.94,3.2a8.54,8.54,0,0,1,.32,3.31l-.11,6.19c0,2,.11,2.88,1.73,4.1Zm-4.1-9c-3.35,0-4.5.61-4.5,2.81a2.19,2.19,0,0,0,2.12,2.41,3.49,3.49,0,0,0,2.52-1.26l.07-4Z"/><path class="cls-4" d="M2833.83,255.66c-1.26,3.56-2.2,5.11-3.53,6.08a9.71,9.71,0,0,1-4.46,1.69l-1.66-3.17a10.81,10.81,0,0,0,3-1.22,5.55,5.55,0,0,0,1.37-1.51,11.06,11.06,0,0,0,1-2.16h-1.22l-6.08-18.14,4.93-.58,3.21,10.76,1,3.82c0-.11.36-2.05.58-3,.14-.61.43-1.69.72-2.56l2.77-8.78h5.07Z"/></g></svg>