<svg xmlns="http://www.w3.org/2000/svg" viewBox="0 0 302.78 30.71"><defs><style>.cls-1{fill:#00c0f2;}</style></defs><title>IP_sc4_assetBtn1</title><g id="Layer_2" data-name="Layer 2"><g id="Ui"><path class="cls-1" d="M18.82,35.64l-2.06-6.93H8.19L6.13,35.64H0L9.58,6.36h6.34l9.2,29.28ZM13.74,18c-.29-1.34-1.18-5.17-1.18-5.17s-.84,3.44-1.39,5.63-.92,3.49-1.55,5.42h5.71S14.37,20.77,13.74,18Z" transform="translate(0 -5.56)"/><path class="cls-1" d="M37.46,36.27a20.87,20.87,0,0,1-10-2.65L29.69,29a16.56,16.56,0,0,0,8,2.35c3.36,0,5.13-1.39,5.13-4,0-1.89-1.22-3.07-3.82-3.78l-3.24-.88c-2.9-.8-4.7-1.93-5.75-3.7a8.43,8.43,0,0,1-1.22-4.45c0-5.33,4.29-9,10.46-9A17.13,17.13,0,0,1,49,8.5l-2.77,4.2a12.59,12.59,0,0,0-6.8-2.23c-2.39,0-4.08,1.39-4.08,3.36,0,1.51.8,2.27,3.23,2.94l3.53,1c4.79,1.3,7.39,4.37,7.39,8.7C49.52,32.36,44.73,36.27,37.46,36.27Z" transform="translate(0 -5.56)"/><path class="cls-1" d="M63.46,36.27a20.87,20.87,0,0,1-10-2.65L55.69,29a16.56,16.56,0,0,0,8,2.35c3.36,0,5.13-1.39,5.13-4,0-1.89-1.22-3.07-3.82-3.78l-3.24-.88c-2.9-.8-4.7-1.93-5.75-3.7a8.43,8.43,0,0,1-1.22-4.45c0-5.33,4.29-9,10.46-9A17.13,17.13,0,0,1,75,8.5l-2.77,4.2a12.59,12.59,0,0,0-6.8-2.23c-2.39,0-4.08,1.39-4.08,3.36,0,1.51.8,2.27,3.23,2.94l3.53,1c4.79,1.3,7.39,4.37,7.39,8.7C75.52,32.36,70.73,36.27,63.46,36.27Z" transform="translate(0 -5.56)"/><path class="cls-1" d="M81.18,35.64V6.44H97.82l-.76,4.79h-10V18h8.36v4.79H87.15V30.6h11v5Z" transform="translate(0 -5.56)"/><path class="cls-1" d="M121,11.31h-7V35.64h-6V11.31h-7.14V6.44h21Z" transform="translate(0 -5.56)"/><path class="cls-1" d="M147.84,36.14a11.91,11.91,0,0,1-9.54-4c-2.35-2.65-3.53-6.17-3.53-10.46a18.71,18.71,0,0,1,2-9.07,12.54,12.54,0,0,1,11.17-6.76,11.93,11.93,0,0,1,7.39,2.31l-2.65,4A7.69,7.69,0,0,0,148,10.47a6.05,6.05,0,0,0-5,2.52c-1.13,1.68-1.64,4.12-1.64,7.52,0,4,.34,6.22,1.22,7.81a6.07,6.07,0,0,0,5.63,3.28,7.55,7.55,0,0,0,5-1.89l2.69,3.7A11.93,11.93,0,0,1,147.84,36.14Z" transform="translate(0 -5.56)"/><path class="cls-1" d="M176.61,35.64H161.19V6.44h6V30.76h10.46Z" transform="translate(0 -5.56)"/><path class="cls-1" d="M197.82,35.64l-2.06-6.93h-8.57l-2.06,6.93H179l9.58-29.28h6.34l9.2,29.28ZM192.74,18c-.29-1.34-1.18-5.17-1.18-5.17s-.84,3.44-1.39,5.63-.92,3.49-1.55,5.42h5.71S193.37,20.77,192.74,18Z" transform="translate(0 -5.56)"/><path class="cls-1" d="M216.47,36.27a20.88,20.88,0,0,1-10-2.65L208.7,29a16.56,16.56,0,0,0,8,2.35c3.36,0,5.12-1.39,5.12-4,0-1.89-1.22-3.07-3.82-3.78l-3.24-.88c-2.9-.8-4.7-1.93-5.75-3.7a8.43,8.43,0,0,1-1.22-4.45c0-5.33,4.29-9,10.46-9A17.13,17.13,0,0,1,228,8.5l-2.77,4.2a12.59,12.59,0,0,0-6.81-2.23c-2.39,0-4.08,1.39-4.08,3.36,0,1.51.8,2.27,3.23,2.94l3.53,1c4.79,1.3,7.39,4.37,7.39,8.7C228.52,32.36,223.73,36.27,216.47,36.27Z" transform="translate(0 -5.56)"/><path class="cls-1" d="M242.46,36.27a20.88,20.88,0,0,1-10-2.65L234.69,29a16.56,16.56,0,0,0,8,2.35c3.36,0,5.12-1.39,5.12-4,0-1.89-1.22-3.07-3.82-3.78l-3.24-.88c-2.9-.8-4.7-1.93-5.75-3.7a8.43,8.43,0,0,1-1.22-4.45c0-5.33,4.29-9,10.46-9A17.13,17.13,0,0,1,254,8.5l-2.77,4.2a12.59,12.59,0,0,0-6.81-2.23c-2.39,0-4.08,1.39-4.08,3.36,0,1.51.8,2.27,3.23,2.94l3.53,1c4.79,1.3,7.39,4.37,7.39,8.7C254.52,32.36,249.73,36.27,242.46,36.27Z" transform="translate(0 -5.56)"/><path class="cls-1" d="M260.19,35.64V6.44h16.64l-.76,4.79h-10V18h8.36v4.79h-8.28V30.6h11v5Z" transform="translate(0 -5.56)"/><path class="cls-1" d="M290.72,36.27a20.87,20.87,0,0,1-10-2.65L282.95,29a16.56,16.56,0,0,0,8,2.35c3.36,0,5.13-1.39,5.13-4,0-1.89-1.22-3.07-3.82-3.78L289,22.74c-2.9-.8-4.71-1.93-5.76-3.7a8.44,8.44,0,0,1-1.22-4.45c0-5.33,4.28-9,10.46-9a17.13,17.13,0,0,1,9.75,2.94l-2.77,4.2a12.58,12.58,0,0,0-6.8-2.23c-2.39,0-4.07,1.39-4.07,3.36,0,1.51.8,2.27,3.23,2.94l3.53,1c4.79,1.3,7.39,4.37,7.39,8.7C302.78,32.36,298,36.27,290.72,36.27Z" transform="translate(0 -5.56)"/></g></g></svg>