<svg id="Layer_1" data-name="Layer 1" xmlns="http://www.w3.org/2000/svg" viewBox="0 0 963.89 155.92"><defs><style>.cls-1{isolation:isolate;}.cls-2{fill:#58595b;}</style></defs><title>IP_sc2_text2</title><g id="Layer_2" data-name="Layer 2"><g id="Ui"><g class="cls-1"><g class="cls-1"><path class="cls-2" d="M124.15,30.27h3.54v21h-3.54Z"/><path class="cls-2" d="M136.5,42.6v8.64h-3.36v-16h3.36v2.91a6.26,6.26,0,0,1,9.67-1.5,6.42,6.42,0,0,1,1.67,4.77v9.78h-3.36V42.48q0-4.41-3.66-4.41a4.39,4.39,0,0,0-3,1.16A4.29,4.29,0,0,0,136.5,42.6Z"/><path class="cls-2" d="M156.79,34v1.32H161V38h-4.2V51.24h-3.36V38h-2v-2.7h2V34a5.35,5.35,0,0,1,1.52-4,5,5,0,0,1,3.66-1.48,5.73,5.73,0,0,1,3.92,1.59l-1.38,2.37a2.86,2.86,0,0,0-2.07-1,2.13,2.13,0,0,0-1.68.67A2.63,2.63,0,0,0,156.79,34Z"/><path class="cls-2" d="M172.86,38.43A4.46,4.46,0,0,0,169.11,40a6.9,6.9,0,0,0-1.26,4.35v6.84H164.5v-16h3.36v3.21A7,7,0,0,1,170.06,36a5.32,5.32,0,0,1,3-1l0,3.39Z"/><path class="cls-2" d="M189.45,51.24h-3.06V49.11a6.56,6.56,0,0,1-5.31,2.37A6.09,6.09,0,0,1,177,50.07a4.72,4.72,0,0,1-1.64-3.76,4,4,0,0,1,1.74-3.53,8.33,8.33,0,0,1,4.71-1.17h4.35V41q0-3.18-3.54-3.18A8.3,8.3,0,0,0,178,39.45l-1.5-2.1a10.33,10.33,0,0,1,6.6-2.31,7.16,7.16,0,0,1,4.6,1.42A5.4,5.4,0,0,1,189.45,41Zm-3.36-5.94V44h-3.78q-3.63,0-3.63,2.28a2,2,0,0,0,.9,1.79,4.39,4.39,0,0,0,2.5.61,4.55,4.55,0,0,0,2.8-.9A2.88,2.88,0,0,0,186.09,45.3Z"/><path class="cls-2" d="M205.77,46.47a4.49,4.49,0,0,1-1.65,3.64,6.42,6.42,0,0,1-4.23,1.37,11.33,11.33,0,0,1-3.61-.63A10.84,10.84,0,0,1,193,49.08l1.62-2.61a9.06,9.06,0,0,0,5.4,2.1,2.81,2.81,0,0,0,1.8-.53,1.64,1.64,0,0,0,.66-1.33q0-1.2-3.18-2.16l-.36-.12q-5-1.35-5-4.5a4.27,4.27,0,0,1,1.72-3.56A7.12,7.12,0,0,1,200.13,35a9.33,9.33,0,0,1,5.22,1.62l-1.26,2.49a7.52,7.52,0,0,0-4.23-1.29,3.87,3.87,0,0,0-2,.43,1.42,1.42,0,0,0-.75,1.31,1.19,1.19,0,0,0,.78,1.14,7.51,7.51,0,0,0,1.51.51q1,.24,1.73.48t1.46.54a9.42,9.42,0,0,1,1.52.84A3.75,3.75,0,0,1,205.77,46.47Z"/><path class="cls-2" d="M214,38v8.1a2.63,2.63,0,0,0,.6,1.82,2.13,2.13,0,0,0,1.68.67,2.86,2.86,0,0,0,2.07-1l1.38,2.37a5.73,5.73,0,0,1-3.92,1.59A5,5,0,0,1,212.15,50a5.35,5.35,0,0,1-1.52-4V38h-2v-2.7h2v-5H214v5h4.2V38Z"/><path class="cls-2" d="M231,38.43A4.46,4.46,0,0,0,227.28,40,6.9,6.9,0,0,0,226,44.4v6.84h-3.36v-16H226v3.21A7,7,0,0,1,228.23,36a5.32,5.32,0,0,1,3-1l0,3.39Z"/><path class="cls-2" d="M246,43.92V35.28h3.36v16H246V48.33a6.26,6.26,0,0,1-9.67,1.5,6.42,6.42,0,0,1-1.67-4.77V35.28H238V44q0,4.41,3.66,4.41a4.39,4.39,0,0,0,3-1.16A4.29,4.29,0,0,0,246,43.92Z"/><path class="cls-2" d="M261.57,51.48a8.06,8.06,0,0,1-5.73-2.27,7.77,7.77,0,0,1-2.4-5.92,7.71,7.71,0,0,1,2.5-6A8.71,8.71,0,0,1,262.05,35a8.28,8.28,0,0,1,6.09,2.49l-2,2.43a6.37,6.37,0,0,0-4.17-1.8,5.26,5.26,0,0,0-3.65,1.4,4.63,4.63,0,0,0-1.54,3.6,5.22,5.22,0,0,0,5.29,5.26,5.85,5.85,0,0,0,4.21-2l2,2.16A9.18,9.18,0,0,1,261.57,51.48Z"/><path class="cls-2" d="M276.18,38v8.1a2.63,2.63,0,0,0,.6,1.82,2.13,2.13,0,0,0,1.68.67,2.86,2.86,0,0,0,2.07-1l1.38,2.37A5.73,5.73,0,0,1,278,51.48,5,5,0,0,1,274.34,50a5.35,5.35,0,0,1-1.52-4V38h-2v-2.7h2v-5h3.36v5h4.2V38Z"/><path class="cls-2" d="M296,43.92V35.28h3.36v16H296V48.33a6.26,6.26,0,0,1-9.67,1.5,6.42,6.42,0,0,1-1.67-4.77V35.28H288V44q0,4.41,3.66,4.41a4.39,4.39,0,0,0,3-1.16A4.29,4.29,0,0,0,296,43.92Z"/><path class="cls-2" d="M312.87,38.43A4.46,4.46,0,0,0,309.12,40a6.9,6.9,0,0,0-1.26,4.35v6.84H304.5v-16h3.36v3.21A7,7,0,0,1,310.07,36a5.32,5.32,0,0,1,3-1l0,3.39Z"/><path class="cls-2" d="M331.53,44.73H319a3.63,3.63,0,0,0,1.59,2.8,6.18,6.18,0,0,0,7.92-.83l1.92,2.1a8.93,8.93,0,0,1-6.72,2.67A8,8,0,0,1,318,49.25a7.88,7.88,0,0,1-2.35-6,7.76,7.76,0,0,1,2.4-6A8.06,8.06,0,0,1,323.72,35a8.19,8.19,0,0,1,5.54,2,6.77,6.77,0,0,1,2.28,5.42ZM319,42.09h9.15A3.85,3.85,0,0,0,326.91,39a4.61,4.61,0,0,0-3.1-1.08A5.31,5.31,0,0,0,320.49,39,3.63,3.63,0,0,0,319,42.09Z"/><path class="cls-2" d="M344.19,32.1a2.1,2.1,0,1,1,1.5.63A2,2,0,0,1,344.19,32.1Zm3.15,19.14H344v-16h3.36Z"/><path class="cls-2" d="M355.83,42.6v8.64h-3.36v-16h3.36v2.91a6.26,6.26,0,0,1,9.67-1.5,6.42,6.42,0,0,1,1.67,4.77v9.78h-3.36V42.48q0-4.41-3.66-4.41a4.39,4.39,0,0,0-3,1.16A4.29,4.29,0,0,0,355.83,42.6Z"/><path class="cls-2" d="M372.33,32.1a2.1,2.1,0,1,1,1.5.63A2,2,0,0,1,372.33,32.1Zm3.15,19.14h-3.36v-16h3.36Z"/><path class="cls-2" d="M384.75,38v8.1a2.63,2.63,0,0,0,.6,1.82,2.13,2.13,0,0,0,1.68.67,2.86,2.86,0,0,0,2.07-1l1.38,2.37a5.73,5.73,0,0,1-3.92,1.59A5,5,0,0,1,382.91,50a5.35,5.35,0,0,1-1.52-4V38h-2v-2.7h2v-5h3.36v5H389V38Z"/><path class="cls-2" d="M393.63,32.1a2.1,2.1,0,1,1,1.5.63A2,2,0,0,1,393.63,32.1Zm3.15,19.14h-3.36v-16h3.36Z"/><path class="cls-2" d="M414.84,51.24h-3.06V49.11a6.56,6.56,0,0,1-5.31,2.37,6.09,6.09,0,0,1-4.12-1.41,4.72,4.72,0,0,1-1.64-3.76,4,4,0,0,1,1.74-3.53,8.33,8.33,0,0,1,4.71-1.17h4.35V41q0-3.18-3.54-3.18a8.3,8.3,0,0,0-4.62,1.62l-1.5-2.1a10.33,10.33,0,0,1,6.6-2.31,7.16,7.16,0,0,1,4.6,1.42A5.4,5.4,0,0,1,414.84,41Zm-3.36-5.94V44H407.7q-3.63,0-3.63,2.28A2,2,0,0,0,405,48a4.39,4.39,0,0,0,2.5.61,4.55,4.55,0,0,0,2.8-.9A2.88,2.88,0,0,0,411.48,45.3Z"/><path class="cls-2" d="M423.75,38v8.1a2.63,2.63,0,0,0,.6,1.82,2.13,2.13,0,0,0,1.68.67,2.86,2.86,0,0,0,2.07-1l1.38,2.37a5.73,5.73,0,0,1-3.92,1.59A5,5,0,0,1,421.91,50a5.35,5.35,0,0,1-1.52-4V38h-2v-2.7h2v-5h3.36v5H428V38Z"/><path class="cls-2" d="M432.63,32.1a2.1,2.1,0,1,1,1.5.63A2,2,0,0,1,432.63,32.1Zm3.15,19.14h-3.36v-16h3.36Z"/><path class="cls-2" d="M445.14,51.24l-6.42-16h3.48l4.86,12.06,4.86-12.06h3.48l-6.42,16Z"/><path class="cls-2" d="M473.19,44.73H460.68a3.63,3.63,0,0,0,1.59,2.8,6.18,6.18,0,0,0,7.92-.83l1.92,2.1a8.93,8.93,0,0,1-6.72,2.67,8,8,0,0,1-5.71-2.24,7.88,7.88,0,0,1-2.35-6,7.76,7.76,0,0,1,2.4-6A8.06,8.06,0,0,1,465.38,35a8.19,8.19,0,0,1,5.54,2,6.77,6.77,0,0,1,2.28,5.42Zm-12.51-2.64h9.15A3.85,3.85,0,0,0,468.57,39a4.61,4.61,0,0,0-3.1-1.08A5.31,5.31,0,0,0,462.15,39,3.63,3.63,0,0,0,460.68,42.09Z"/><path class="cls-2" d="M488.52,46.47a4.49,4.49,0,0,1-1.65,3.64,6.42,6.42,0,0,1-4.23,1.37,11.33,11.33,0,0,1-3.61-.63,10.84,10.84,0,0,1-3.31-1.77l1.62-2.61a9.06,9.06,0,0,0,5.4,2.1,2.81,2.81,0,0,0,1.8-.53,1.64,1.64,0,0,0,.66-1.33q0-1.2-3.18-2.16l-.36-.12q-5-1.35-5-4.5a4.27,4.27,0,0,1,1.72-3.56A7.12,7.12,0,0,1,482.88,35a9.33,9.33,0,0,1,5.22,1.62l-1.26,2.49a7.52,7.52,0,0,0-4.23-1.29,3.87,3.87,0,0,0-2,.43,1.42,1.42,0,0,0-.75,1.31,1.19,1.19,0,0,0,.78,1.14,7.51,7.51,0,0,0,1.51.51q1,.24,1.72.48t1.46.54a9.43,9.43,0,0,1,1.52.84A3.75,3.75,0,0,1,488.52,46.47Z"/><path class="cls-2" d="M515.85,35.28V49.2q0,4.23-2.29,6.34a8.36,8.36,0,0,1-5.9,2.12,10.38,10.38,0,0,1-6.51-2.25l1.59-2.55a7.79,7.79,0,0,0,4.73,1.77,5.51,5.51,0,0,0,3.78-1.23,5,5,0,0,0,1.4-3.93v-2a5.73,5.73,0,0,1-2.15,2.25,6,6,0,0,1-3.13.84,6.77,6.77,0,0,1-5.22-2.22,7.85,7.85,0,0,1-2-5.52,7.85,7.85,0,0,1,2-5.52A6.76,6.76,0,0,1,507.34,35a6.17,6.17,0,0,1,5.14,2.61V35.28ZM503.4,42.65A5.06,5.06,0,0,0,504.61,46a4.08,4.08,0,0,0,3.27,1.42,4.33,4.33,0,0,0,3.33-1.38,4.87,4.87,0,0,0,1.27-3.43,5,5,0,0,0-1.29-3.48,4.29,4.29,0,0,0-3.33-1.42,4,4,0,0,0-3.25,1.47A5.23,5.23,0,0,0,503.4,42.65Z"/><path class="cls-2" d="M534.33,49.1a8.74,8.74,0,0,1-12,0,8.29,8.29,0,0,1,0-11.67,8.74,8.74,0,0,1,12,0,8.29,8.29,0,0,1,0,11.67ZM524.71,47a5.22,5.22,0,0,0,7.23,0,5.69,5.69,0,0,0,0-7.53,5.22,5.22,0,0,0-7.23,0,5.69,5.69,0,0,0,0,7.53Z"/><path class="cls-2" d="M553.44,38v8.1a2.63,2.63,0,0,0,.6,1.82,2.13,2.13,0,0,0,1.68.67,2.86,2.86,0,0,0,2.07-1l1.38,2.37a5.73,5.73,0,0,1-3.92,1.59A5,5,0,0,1,551.59,50a5.35,5.35,0,0,1-1.51-4V38h-2v-2.7h2v-5h3.36v5h4.2V38Z"/><path class="cls-2" d="M565.47,42.6v8.64h-3.36V29h3.36v9.18a5.33,5.33,0,0,1,2.17-2.31,6.17,6.17,0,0,1,3.13-.84,5.94,5.94,0,0,1,4.37,1.65,6.42,6.42,0,0,1,1.67,4.77v9.78h-3.36V42.48q0-4.41-3.66-4.41a4.39,4.39,0,0,0-3,1.16A4.29,4.29,0,0,0,565.47,42.6Z"/><path class="cls-2" d="M590.13,38.43A4.46,4.46,0,0,0,586.38,40a6.9,6.9,0,0,0-1.26,4.35v6.84h-3.36v-16h3.36v3.21A7,7,0,0,1,587.32,36a5.32,5.32,0,0,1,3-1l0,3.39Z"/><path class="cls-2" d="M607,49.1a8.74,8.74,0,0,1-12,0,8.29,8.29,0,0,1,0-11.67,8.74,8.74,0,0,1,12,0,8.29,8.29,0,0,1,0,11.67ZM597.37,47a5.22,5.22,0,0,0,7.23,0,5.69,5.69,0,0,0,0-7.53,5.22,5.22,0,0,0-7.23,0,5.69,5.69,0,0,0,0,7.53Z"/><path class="cls-2" d="M624.63,43.92V35.28H628v16h-3.36V48.33a6.26,6.26,0,0,1-9.67,1.5,6.42,6.42,0,0,1-1.67-4.77V35.28h3.36V44q0,4.41,3.66,4.41a4.39,4.39,0,0,0,3-1.16A4.29,4.29,0,0,0,624.63,43.92Z"/><path class="cls-2" d="M647.88,35.28V49.2q0,4.23-2.29,6.34a8.36,8.36,0,0,1-5.89,2.12,10.38,10.38,0,0,1-6.51-2.25l1.59-2.55a7.79,7.79,0,0,0,4.72,1.77,5.52,5.52,0,0,0,3.78-1.23,5,5,0,0,0,1.39-3.93v-2a5.73,5.73,0,0,1-2.14,2.25,6,6,0,0,1-3.13.84,6.77,6.77,0,0,1-5.22-2.22,7.85,7.85,0,0,1-2-5.52,7.85,7.85,0,0,1,2-5.52A6.76,6.76,0,0,1,639.37,35a6.17,6.17,0,0,1,5.15,2.61V35.28Zm-12.45,7.37A5.05,5.05,0,0,0,636.64,46a4.07,4.07,0,0,0,3.27,1.42,4.32,4.32,0,0,0,3.33-1.38,4.87,4.87,0,0,0,1.28-3.43,5,5,0,0,0-1.29-3.48,4.29,4.29,0,0,0-3.33-1.42,4,4,0,0,0-3.25,1.47A5.23,5.23,0,0,0,635.43,42.65Z"/><path class="cls-2" d="M656.37,42.6v8.64H653V29h3.36v9.18a5.33,5.33,0,0,1,2.17-2.31,6.17,6.17,0,0,1,3.13-.84A5.94,5.94,0,0,1,666,36.69a6.42,6.42,0,0,1,1.67,4.77v9.78h-3.36V42.48q0-4.41-3.66-4.41a4.39,4.39,0,0,0-3,1.16A4.29,4.29,0,0,0,656.37,42.6Z"/><path class="cls-2" d="M688.83,42.75V38.91h3.36v3.84h2.52V46h-2.52v5.28h-3.36V46h-9V42.84l7.71-12.57h3.87l-7.59,12.48Z"/><path class="cls-2" d="M715.62,35a7.59,7.59,0,0,1,5.49,2.22,7.88,7.88,0,0,1,2.28,5.91,8.21,8.21,0,0,1-2.27,6,7,7,0,0,1-10.69-.33v8.22h-3.36V35.28h3.36v2.79A6,6,0,0,1,715.62,35Zm-5.25,8.25A5.21,5.21,0,0,0,711.75,47a4.46,4.46,0,0,0,3.36,1.46A4.77,4.77,0,0,0,718.56,47,5,5,0,0,0,720,43.31a5.31,5.31,0,0,0-1.44-3.81A4.59,4.59,0,0,0,715.14,38a4.41,4.41,0,0,0-3.39,1.51A5.42,5.42,0,0,0,710.37,43.29Z"/><path class="cls-2" d="M730.86,42.6v8.64H727.5V29h3.36v9.18A5.34,5.34,0,0,1,733,35.88a6.17,6.17,0,0,1,3.14-.84,5.93,5.93,0,0,1,4.36,1.65,6.42,6.42,0,0,1,1.67,4.77v9.78h-3.36V42.48q0-4.41-3.66-4.41a4.39,4.39,0,0,0-3,1.16A4.29,4.29,0,0,0,730.86,42.6Z"/><path class="cls-2" d="M760.08,51.24H757V49.11a6.56,6.56,0,0,1-5.31,2.37,6.09,6.09,0,0,1-4.12-1.41,4.72,4.72,0,0,1-1.64-3.76,4,4,0,0,1,1.74-3.53,8.33,8.33,0,0,1,4.71-1.17h4.35V41q0-3.18-3.54-3.18a8.3,8.3,0,0,0-4.62,1.62l-1.5-2.1a10.33,10.33,0,0,1,6.6-2.31,7.16,7.16,0,0,1,4.61,1.42A5.4,5.4,0,0,1,760.08,41Zm-3.36-5.94V44h-3.78q-3.63,0-3.63,2.28a2,2,0,0,0,.9,1.79,4.39,4.39,0,0,0,2.5.61,4.55,4.55,0,0,0,2.8-.9A2.88,2.88,0,0,0,756.72,45.3Z"/><path class="cls-2" d="M776.4,46.47a4.49,4.49,0,0,1-1.65,3.64,6.42,6.42,0,0,1-4.23,1.37,11.32,11.32,0,0,1-3.61-.63,10.84,10.84,0,0,1-3.32-1.77l1.62-2.61a9.06,9.06,0,0,0,5.4,2.1,2.81,2.81,0,0,0,1.8-.53,1.64,1.64,0,0,0,.66-1.33q0-1.2-3.18-2.16l-.36-.12q-5-1.35-5-4.5a4.27,4.27,0,0,1,1.72-3.56A7.13,7.13,0,0,1,770.76,35,9.33,9.33,0,0,1,776,36.66l-1.26,2.49a7.52,7.52,0,0,0-4.23-1.29,3.86,3.86,0,0,0-2,.43,1.42,1.42,0,0,0-.75,1.31,1.19,1.19,0,0,0,.78,1.14,7.48,7.48,0,0,0,1.51.51q1,.24,1.72.48t1.46.54a9.43,9.43,0,0,1,1.52.84A3.75,3.75,0,0,1,776.4,46.47Z"/><path class="cls-2" d="M795.33,44.73H782.82a3.64,3.64,0,0,0,1.59,2.8,6.18,6.18,0,0,0,7.92-.83l1.92,2.1a8.93,8.93,0,0,1-6.72,2.67,8,8,0,0,1-5.71-2.24,7.88,7.88,0,0,1-2.35-6,7.76,7.76,0,0,1,2.4-6A8.06,8.06,0,0,1,787.51,35,8.19,8.19,0,0,1,793,37a6.77,6.77,0,0,1,2.28,5.42Zm-12.51-2.64H792A3.85,3.85,0,0,0,790.71,39a4.61,4.61,0,0,0-3.11-1.08A5.31,5.31,0,0,0,784.29,39,3.63,3.63,0,0,0,782.82,42.09Z"/><path class="cls-2" d="M810.66,46.47A4.49,4.49,0,0,1,809,50.12a6.42,6.42,0,0,1-4.23,1.37,11.33,11.33,0,0,1-3.62-.63,10.84,10.84,0,0,1-3.31-1.77l1.62-2.61a9.05,9.05,0,0,0,5.4,2.1,2.81,2.81,0,0,0,1.8-.53,1.63,1.63,0,0,0,.66-1.33q0-1.2-3.18-2.16l-.36-.12q-5-1.35-5-4.5a4.27,4.27,0,0,1,1.72-3.56A7.12,7.12,0,0,1,805,35a9.33,9.33,0,0,1,5.22,1.62L809,39.15a7.52,7.52,0,0,0-4.23-1.29,3.86,3.86,0,0,0-1.95.43A1.41,1.41,0,0,0,802,39.6a1.19,1.19,0,0,0,.78,1.14,7.52,7.52,0,0,0,1.52.51q1,.24,1.72.48t1.46.54a9.42,9.42,0,0,1,1.51.84A3.75,3.75,0,0,1,810.66,46.47Z"/><path class="cls-2" d="M823.26,44.46v-2h11.22v2Z"/><path class="cls-2" d="M153.93,74v8.1a2.63,2.63,0,0,0,.6,1.82,2.13,2.13,0,0,0,1.68.67,2.86,2.86,0,0,0,2.07-1l1.38,2.37a5.73,5.73,0,0,1-3.92,1.59A5,5,0,0,1,152.09,86a5.35,5.35,0,0,1-1.52-4V74h-2v-2.7h2v-5h3.36v5h4.2V74Z"/><path class="cls-2" d="M166,78.6v8.64H162.6V65H166v9.18a5.33,5.33,0,0,1,2.17-2.31,6.17,6.17,0,0,1,3.14-.84,5.93,5.93,0,0,1,4.36,1.65,6.42,6.42,0,0,1,1.67,4.77v9.78h-3.36V78.48q0-4.41-3.66-4.41a4.39,4.39,0,0,0-3,1.16A4.29,4.29,0,0,0,166,78.6Z"/><path class="cls-2" d="M197.1,80.73H184.59a3.63,3.63,0,0,0,1.59,2.8,6.18,6.18,0,0,0,7.92-.83l1.92,2.1a8.93,8.93,0,0,1-6.72,2.67,8,8,0,0,1-5.71-2.24,7.88,7.88,0,0,1-2.35-6,7.76,7.76,0,0,1,2.4-6A8.06,8.06,0,0,1,189.29,71a8.19,8.19,0,0,1,5.54,2,6.77,6.77,0,0,1,2.28,5.42Zm-12.51-2.64h9.15A3.85,3.85,0,0,0,192.48,75a4.61,4.61,0,0,0-3.1-1.08A5.31,5.31,0,0,0,186.06,75,3.63,3.63,0,0,0,184.59,78.09Z"/><path class="cls-2" d="M209.76,68.1a2.1,2.1,0,1,1,1.5.63A2,2,0,0,1,209.76,68.1Zm3.15,19.14h-3.36v-16h3.36Z"/><path class="cls-2" d="M219.27,85.2a8.17,8.17,0,0,1-2.25-6,7.86,7.86,0,0,1,2.31-5.94,7.67,7.67,0,0,1,5.5-2.22,6.06,6.06,0,0,1,5.15,2.7V65h3.36V87.24H230v-2.4a6.22,6.22,0,0,1-5.43,2.64A7.18,7.18,0,0,1,219.27,85.2Zm1.11-5.87a5,5,0,0,0,1.47,3.74,4.77,4.77,0,0,0,3.45,1.44,4.46,4.46,0,0,0,3.36-1.45A5.21,5.21,0,0,0,230,79.32a5.48,5.48,0,0,0-1.38-3.81A4.39,4.39,0,0,0,225.27,74a4.57,4.57,0,0,0-3.45,1.53A5.37,5.37,0,0,0,220.38,79.33Z"/><path class="cls-2" d="M253.32,80.73H240.81a3.63,3.63,0,0,0,1.59,2.8,6.18,6.18,0,0,0,7.92-.83l1.92,2.1a8.93,8.93,0,0,1-6.72,2.67,8,8,0,0,1-5.71-2.24,7.88,7.88,0,0,1-2.35-6,7.76,7.76,0,0,1,2.4-6A8.06,8.06,0,0,1,245.51,71,8.19,8.19,0,0,1,251,73a6.77,6.77,0,0,1,2.28,5.42Zm-12.51-2.64H250A3.85,3.85,0,0,0,248.7,75a4.61,4.61,0,0,0-3.1-1.08A5.31,5.31,0,0,0,242.28,75,3.63,3.63,0,0,0,240.81,78.09Z"/><path class="cls-2" d="M270.21,87.24h-3.06V85.11a6.56,6.56,0,0,1-5.31,2.37,6.09,6.09,0,0,1-4.12-1.41,4.72,4.72,0,0,1-1.64-3.76,4,4,0,0,1,1.74-3.53,8.33,8.33,0,0,1,4.71-1.17h4.35V77q0-3.18-3.54-3.18a8.3,8.3,0,0,0-4.62,1.62l-1.5-2.1a10.33,10.33,0,0,1,6.6-2.31,7.16,7.16,0,0,1,4.6,1.42A5.4,5.4,0,0,1,270.21,77Zm-3.36-5.94V80h-3.78q-3.63,0-3.63,2.28a2,2,0,0,0,.9,1.79,4.39,4.39,0,0,0,2.5.61,4.55,4.55,0,0,0,2.8-.9A2.88,2.88,0,0,0,266.85,81.3Z"/><path class="cls-2" d="M292.2,71a7.59,7.59,0,0,1,5.49,2.22A7.87,7.87,0,0,1,300,79.17a8.2,8.2,0,0,1-2.27,6A7,7,0,0,1,287,84.84v8.22h-3.36V71.28H287v2.79A6,6,0,0,1,292.2,71ZM287,79.29A5.21,5.21,0,0,0,288.33,83a4.46,4.46,0,0,0,3.36,1.46A4.77,4.77,0,0,0,295.14,83a5,5,0,0,0,1.47-3.73,5.31,5.31,0,0,0-1.44-3.81A4.59,4.59,0,0,0,291.72,74a4.41,4.41,0,0,0-3.39,1.51A5.42,5.42,0,0,0,287,79.29Z"/><path class="cls-2" d="M307.44,78.6v8.64h-3.36V65h3.36v9.18a5.33,5.33,0,0,1,2.17-2.31,6.17,6.17,0,0,1,3.14-.84,5.93,5.93,0,0,1,4.36,1.65,6.42,6.42,0,0,1,1.67,4.77v9.78h-3.36V78.48q0-4.41-3.66-4.41a4.39,4.39,0,0,0-3,1.16A4.29,4.29,0,0,0,307.44,78.6Z"/><path class="cls-2" d="M336.66,87.24H333.6V85.11a6.56,6.56,0,0,1-5.31,2.37,6.09,6.09,0,0,1-4.12-1.41,4.72,4.72,0,0,1-1.64-3.76,4,4,0,0,1,1.74-3.53A8.33,8.33,0,0,1,329,77.61h4.35V77q0-3.18-3.54-3.18a8.3,8.3,0,0,0-4.62,1.62l-1.5-2.1a10.33,10.33,0,0,1,6.6-2.31,7.16,7.16,0,0,1,4.6,1.42A5.4,5.4,0,0,1,336.66,77ZM333.3,81.3V80h-3.78q-3.63,0-3.63,2.28a2,2,0,0,0,.9,1.79,4.39,4.39,0,0,0,2.5.61,4.55,4.55,0,0,0,2.8-.9A2.88,2.88,0,0,0,333.3,81.3Z"/><path class="cls-2" d="M353,82.47a4.49,4.49,0,0,1-1.65,3.64,6.42,6.42,0,0,1-4.23,1.37,11.33,11.33,0,0,1-3.61-.63,10.84,10.84,0,0,1-3.31-1.77l1.62-2.61a9.06,9.06,0,0,0,5.4,2.1A2.81,2.81,0,0,0,349,84a1.64,1.64,0,0,0,.66-1.33q0-1.2-3.18-2.16l-.36-.12q-5-1.35-5-4.5a4.27,4.27,0,0,1,1.72-3.56A7.12,7.12,0,0,1,347.34,71a9.33,9.33,0,0,1,5.22,1.62l-1.26,2.49a7.52,7.52,0,0,0-4.23-1.29,3.87,3.87,0,0,0-2,.43,1.42,1.42,0,0,0-.75,1.31,1.19,1.19,0,0,0,.78,1.14,7.51,7.51,0,0,0,1.51.51q1,.24,1.73.48t1.46.54a9.42,9.42,0,0,1,1.52.84A3.75,3.75,0,0,1,353,82.47Z"/><path class="cls-2" d="M371.91,80.73H359.4a3.63,3.63,0,0,0,1.59,2.8,6.18,6.18,0,0,0,7.92-.83l1.92,2.1a8.93,8.93,0,0,1-6.72,2.67,8,8,0,0,1-5.71-2.24,7.88,7.88,0,0,1-2.35-6,7.76,7.76,0,0,1,2.4-6A8.06,8.06,0,0,1,364.1,71a8.19,8.19,0,0,1,5.54,2,6.77,6.77,0,0,1,2.28,5.42ZM359.4,78.09h9.15A3.85,3.85,0,0,0,367.29,75a4.61,4.61,0,0,0-3.1-1.08A5.31,5.31,0,0,0,360.87,75,3.63,3.63,0,0,0,359.4,78.09Z"/><path class="cls-2" d="M375.42,85.29A2.23,2.23,0,0,1,377.64,83a2.21,2.21,0,0,1,1.57.65,2.06,2.06,0,0,1,.68,1.54,4.36,4.36,0,0,1-.81,2.19l-1.8,3h-1.74l1.11-3.12A2,2,0,0,1,375.42,85.29Z"/><path class="cls-2" d="M397.2,74v8.1a2.63,2.63,0,0,0,.6,1.82,2.13,2.13,0,0,0,1.68.67,2.86,2.86,0,0,0,2.07-1l1.38,2.37A5.73,5.73,0,0,1,399,87.48,5,5,0,0,1,395.36,86a5.35,5.35,0,0,1-1.52-4V74h-2v-2.7h2v-5h3.36v5h4.2V74Z"/><path class="cls-2" d="M409.23,78.6v8.64h-3.36V65h3.36v9.18a5.33,5.33,0,0,1,2.17-2.31,6.17,6.17,0,0,1,3.14-.84,5.93,5.93,0,0,1,4.36,1.65,6.42,6.42,0,0,1,1.67,4.77v9.78h-3.36V78.48q0-4.41-3.66-4.41a4.39,4.39,0,0,0-3,1.16A4.29,4.29,0,0,0,409.23,78.6Z"/><path class="cls-2" d="M440.37,80.73H427.86a3.63,3.63,0,0,0,1.59,2.8,6.18,6.18,0,0,0,7.92-.83l1.92,2.1a8.93,8.93,0,0,1-6.72,2.67,8,8,0,0,1-5.71-2.24,7.88,7.88,0,0,1-2.35-6,7.76,7.76,0,0,1,2.4-6A8.06,8.06,0,0,1,432.56,71a8.19,8.19,0,0,1,5.54,2,6.77,6.77,0,0,1,2.28,5.42Zm-12.51-2.64H437A3.85,3.85,0,0,0,435.75,75a4.61,4.61,0,0,0-3.1-1.08A5.31,5.31,0,0,0,429.33,75,3.63,3.63,0,0,0,427.86,78.09Z"/><path class="cls-2" d="M464.19,82.47a4.49,4.49,0,0,1-1.65,3.64,6.42,6.42,0,0,1-4.23,1.37,11.33,11.33,0,0,1-3.61-.63,10.84,10.84,0,0,1-3.31-1.77L453,82.47a9.06,9.06,0,0,0,5.4,2.1,2.81,2.81,0,0,0,1.8-.53,1.64,1.64,0,0,0,.66-1.33q0-1.2-3.18-2.16l-.36-.12q-5-1.35-5-4.5a4.27,4.27,0,0,1,1.72-3.56A7.12,7.12,0,0,1,458.55,71a9.33,9.33,0,0,1,5.22,1.62l-1.26,2.49a7.52,7.52,0,0,0-4.23-1.29,3.87,3.87,0,0,0-2,.43,1.42,1.42,0,0,0-.75,1.31,1.19,1.19,0,0,0,.78,1.14,7.51,7.51,0,0,0,1.51.51q1,.24,1.73.48t1.46.54a9.42,9.42,0,0,1,1.52.84A3.75,3.75,0,0,1,464.19,82.47Z"/><path class="cls-2" d="M472.41,74v8.1a2.63,2.63,0,0,0,.6,1.82,2.13,2.13,0,0,0,1.68.67,2.86,2.86,0,0,0,2.07-1l1.38,2.37a5.73,5.73,0,0,1-3.92,1.59A5,5,0,0,1,470.57,86a5.35,5.35,0,0,1-1.52-4V74h-2v-2.7h2v-5h3.36v5h4.2V74Z"/><path class="cls-2" d="M489.45,74.43A4.46,4.46,0,0,0,485.7,76a6.9,6.9,0,0,0-1.26,4.35v6.84h-3.36v-16h3.36v3.21A7,7,0,0,1,486.65,72a5.32,5.32,0,0,1,3-1l0,3.39Z"/><path class="cls-2" d="M506,87.24H503V85.11a6.56,6.56,0,0,1-5.31,2.37,6.09,6.09,0,0,1-4.12-1.41,4.72,4.72,0,0,1-1.63-3.76,4,4,0,0,1,1.74-3.53,8.33,8.33,0,0,1,4.71-1.17h4.35V77q0-3.18-3.54-3.18a8.3,8.3,0,0,0-4.62,1.62l-1.5-2.1a10.33,10.33,0,0,1,6.6-2.31,7.16,7.16,0,0,1,4.6,1.42A5.4,5.4,0,0,1,506,77Zm-3.36-5.94V80H498.9q-3.63,0-3.63,2.28a2,2,0,0,0,.9,1.79,4.39,4.39,0,0,0,2.5.61,4.55,4.55,0,0,0,2.8-.9A2.88,2.88,0,0,0,502.68,81.3Z"/><path class="cls-2" d="M514.95,74v8.1a2.63,2.63,0,0,0,.6,1.82,2.13,2.13,0,0,0,1.68.67,2.86,2.86,0,0,0,2.07-1l1.38,2.37a5.73,5.73,0,0,1-3.92,1.59A5,5,0,0,1,513.1,86a5.35,5.35,0,0,1-1.51-4V74h-2v-2.7h2v-5h3.36v5h4.2V74Z"/><path class="cls-2" d="M538.47,80.73H526a3.63,3.63,0,0,0,1.59,2.8,6.18,6.18,0,0,0,7.92-.83l1.92,2.1a8.92,8.92,0,0,1-6.72,2.67A8,8,0,0,1,525,85.25a7.88,7.88,0,0,1-2.36-6,7.76,7.76,0,0,1,2.4-6A8.05,8.05,0,0,1,530.65,71a8.19,8.19,0,0,1,5.54,2,6.77,6.77,0,0,1,2.28,5.42ZM526,78.09h9.15A3.85,3.85,0,0,0,533.85,75a4.61,4.61,0,0,0-3.1-1.08A5.31,5.31,0,0,0,527.43,75,3.63,3.63,0,0,0,526,78.09Z"/><path class="cls-2" d="M557.19,71.28V85.2q0,4.23-2.29,6.34A8.36,8.36,0,0,1,549,93.66a10.38,10.38,0,0,1-6.51-2.25l1.59-2.55a7.79,7.79,0,0,0,4.72,1.77,5.52,5.52,0,0,0,3.78-1.23A5,5,0,0,0,554,85.47v-2a5.73,5.73,0,0,1-2.14,2.25,6,6,0,0,1-3.13.84,6.77,6.77,0,0,1-5.22-2.22,8.49,8.49,0,0,1,0-11A6.76,6.76,0,0,1,548.68,71a6.17,6.17,0,0,1,5.15,2.61V71.28Zm-12.45,7.37A5.05,5.05,0,0,0,546,82a4.07,4.07,0,0,0,3.27,1.42,4.32,4.32,0,0,0,3.33-1.38,4.87,4.87,0,0,0,1.28-3.43,5,5,0,0,0-1.29-3.48,4.29,4.29,0,0,0-3.33-1.42A4,4,0,0,0,546,75.21,5.23,5.23,0,0,0,544.74,78.65Z"/><path class="cls-2" d="M562.53,68.1a2.1,2.1,0,1,1,1.5.63A2,2,0,0,1,562.53,68.1Zm3.15,19.14h-3.36v-16h3.36Z"/><path class="cls-2" d="M577.89,87.48a8.06,8.06,0,0,1-5.73-2.27,8.42,8.42,0,0,1,.11-11.88A8.71,8.71,0,0,1,578.37,71a8.28,8.28,0,0,1,6.09,2.49l-2,2.43a6.37,6.37,0,0,0-4.17-1.8,5.26,5.26,0,0,0-3.64,1.4,4.63,4.63,0,0,0-1.54,3.6,5.22,5.22,0,0,0,5.29,5.26,5.85,5.85,0,0,0,4.21-2l2,2.16A9.18,9.18,0,0,1,577.89,87.48Z"/><path class="cls-2" d="M609.78,87.24h-3.06V85.11a6.56,6.56,0,0,1-5.31,2.37,6.09,6.09,0,0,1-4.12-1.41,4.72,4.72,0,0,1-1.63-3.76,4,4,0,0,1,1.74-3.53,8.33,8.33,0,0,1,4.71-1.17h4.35V77q0-3.18-3.54-3.18a8.3,8.3,0,0,0-4.62,1.62l-1.5-2.1a10.33,10.33,0,0,1,6.6-2.31,7.16,7.16,0,0,1,4.6,1.42A5.4,5.4,0,0,1,609.78,77Zm-3.36-5.94V80h-3.78Q599,80,599,82.23a2,2,0,0,0,.9,1.79,4.39,4.39,0,0,0,2.5.61,4.55,4.55,0,0,0,2.8-.9A2.88,2.88,0,0,0,606.42,81.3Z"/><path class="cls-2" d="M625.83,82.47a4.49,4.49,0,0,1-1.65,3.64,6.41,6.41,0,0,1-4.23,1.37,11.33,11.33,0,0,1-3.62-.63A10.84,10.84,0,0,1,613,85.08l1.62-2.61a9.06,9.06,0,0,0,5.4,2.1,2.81,2.81,0,0,0,1.8-.53,1.64,1.64,0,0,0,.66-1.33q0-1.2-3.18-2.16l-.36-.12q-5-1.35-5-4.5a4.27,4.27,0,0,1,1.72-3.56A7.12,7.12,0,0,1,620.19,71a9.33,9.33,0,0,1,5.22,1.62l-1.26,2.49a7.53,7.53,0,0,0-4.23-1.29,3.87,3.87,0,0,0-2,.43,1.42,1.42,0,0,0-.75,1.31,1.19,1.19,0,0,0,.78,1.14,7.53,7.53,0,0,0,1.51.51q1,.24,1.73.48t1.46.54a9.42,9.42,0,0,1,1.51.84A3.75,3.75,0,0,1,625.83,82.47Z"/><path class="cls-2" d="M641,82.47a4.49,4.49,0,0,1-1.65,3.64,6.41,6.41,0,0,1-4.23,1.37,11.33,11.33,0,0,1-3.62-.63,10.84,10.84,0,0,1-3.31-1.77l1.62-2.61a9.06,9.06,0,0,0,5.4,2.1A2.81,2.81,0,0,0,637,84a1.64,1.64,0,0,0,.66-1.33q0-1.2-3.18-2.16l-.36-.12q-5-1.35-5-4.5a4.27,4.27,0,0,1,1.72-3.56A7.12,7.12,0,0,1,635.37,71a9.33,9.33,0,0,1,5.22,1.62l-1.26,2.49a7.53,7.53,0,0,0-4.23-1.29,3.87,3.87,0,0,0-2,.43,1.42,1.42,0,0,0-.75,1.31,1.19,1.19,0,0,0,.78,1.14,7.53,7.53,0,0,0,1.51.51q1,.24,1.73.48t1.46.54a9.42,9.42,0,0,1,1.51.84A3.75,3.75,0,0,1,641,82.47Z"/><path class="cls-2" d="M659.67,80.73H647.16a3.64,3.64,0,0,0,1.59,2.8,6.18,6.18,0,0,0,7.92-.83l1.92,2.1a8.93,8.93,0,0,1-6.72,2.67,8,8,0,0,1-5.71-2.24,7.88,7.88,0,0,1-2.35-6,7.76,7.76,0,0,1,2.4-6A8.06,8.06,0,0,1,651.85,71a8.19,8.19,0,0,1,5.54,2,6.77,6.77,0,0,1,2.28,5.42Zm-12.51-2.64h9.15A3.85,3.85,0,0,0,655,75a4.61,4.61,0,0,0-3.11-1.08A5.31,5.31,0,0,0,648.63,75,3.63,3.63,0,0,0,647.16,78.09Z"/><path class="cls-2" d="M674.73,82.47a4.49,4.49,0,0,1-1.65,3.64,6.41,6.41,0,0,1-4.23,1.37,11.33,11.33,0,0,1-3.62-.63,10.84,10.84,0,0,1-3.31-1.77l1.62-2.61a9.06,9.06,0,0,0,5.4,2.1,2.81,2.81,0,0,0,1.8-.53,1.64,1.64,0,0,0,.66-1.33q0-1.2-3.18-2.16l-.36-.12q-5-1.35-5-4.5a4.27,4.27,0,0,1,1.72-3.56A7.12,7.12,0,0,1,669.09,71a9.33,9.33,0,0,1,5.22,1.62L673,75.15a7.53,7.53,0,0,0-4.23-1.29,3.87,3.87,0,0,0-2,.43,1.42,1.42,0,0,0-.75,1.31,1.19,1.19,0,0,0,.78,1.14,7.53,7.53,0,0,0,1.51.51q1,.24,1.73.48t1.46.54a9.42,9.42,0,0,1,1.51.84A3.75,3.75,0,0,1,674.73,82.47Z"/><path class="cls-2" d="M689.91,82.47a4.49,4.49,0,0,1-1.65,3.64A6.42,6.42,0,0,1,684,87.48a11.32,11.32,0,0,1-3.61-.63,10.84,10.84,0,0,1-3.32-1.77l1.62-2.61a9.06,9.06,0,0,0,5.4,2.1,2.81,2.81,0,0,0,1.8-.53,1.64,1.64,0,0,0,.66-1.33q0-1.2-3.18-2.16l-.36-.12q-5-1.35-5-4.5a4.27,4.27,0,0,1,1.72-3.56A7.13,7.13,0,0,1,684.27,71a9.33,9.33,0,0,1,5.22,1.62l-1.26,2.49A7.52,7.52,0,0,0,684,73.86a3.86,3.86,0,0,0-2,.43,1.42,1.42,0,0,0-.75,1.31,1.19,1.19,0,0,0,.78,1.14,7.48,7.48,0,0,0,1.51.51q1,.24,1.72.48t1.46.54a9.43,9.43,0,0,1,1.52.84A3.75,3.75,0,0,1,689.91,82.47Z"/><path class="cls-2" d="M697.08,78.6v8.64h-3.36v-16h3.36v2.91a5.34,5.34,0,0,1,2.17-2.31,6.17,6.17,0,0,1,3.14-.84,5.07,5.07,0,0,1,5.13,3.12A7.16,7.16,0,0,1,713.43,71a5.93,5.93,0,0,1,4.36,1.65,6.42,6.42,0,0,1,1.67,4.77v9.78H716.1V78.48q0-4.41-3.66-4.41a4.44,4.44,0,0,0-3,1.09,4.15,4.15,0,0,0-1.33,3.2v8.88h-3.36V78.48a5.55,5.55,0,0,0-.81-3.35,3,3,0,0,0-2.55-1.06,4.39,4.39,0,0,0-3,1.16A4.29,4.29,0,0,0,697.08,78.6Z"/><path class="cls-2" d="M739,80.73H726.48a3.63,3.63,0,0,0,1.59,2.8,6.18,6.18,0,0,0,7.92-.83l1.92,2.1a8.92,8.92,0,0,1-6.72,2.67,8,8,0,0,1-5.71-2.24,7.88,7.88,0,0,1-2.36-6,7.76,7.76,0,0,1,2.4-6A8.05,8.05,0,0,1,731.17,71a8.19,8.19,0,0,1,5.54,2A6.77,6.77,0,0,1,739,78.42Zm-12.51-2.64h9.15A3.85,3.85,0,0,0,734.37,75a4.61,4.61,0,0,0-3.1-1.08A5.31,5.31,0,0,0,727.95,75,3.63,3.63,0,0,0,726.48,78.09Z"/><path class="cls-2" d="M746,78.6v8.64h-3.36v-16H746v2.91a6.26,6.26,0,0,1,9.67-1.5,6.42,6.42,0,0,1,1.67,4.77v9.78H754V78.48q0-4.41-3.66-4.41a4.39,4.39,0,0,0-3,1.16A4.29,4.29,0,0,0,746,78.6Z"/><path class="cls-2" d="M766,74v8.1a2.63,2.63,0,0,0,.6,1.82,2.13,2.13,0,0,0,1.68.67,2.86,2.86,0,0,0,2.07-1l1.38,2.37a5.73,5.73,0,0,1-3.92,1.59A5,5,0,0,1,764.14,86a5.35,5.35,0,0,1-1.52-4V74h-2v-2.7h2v-5H766v5h4.2V74Z"/><path class="cls-2" d="M796,85.1a8.74,8.74,0,0,1-12,0,8.29,8.29,0,0,1,0-11.67,8.74,8.74,0,0,1,12,0,8.29,8.29,0,0,1,0,11.67ZM786.34,83a5.22,5.22,0,0,0,7.23,0,5.68,5.68,0,0,0,0-7.53,5.22,5.22,0,0,0-7.23,0,5.69,5.69,0,0,0,0,7.53Z"/><path class="cls-2" d="M806.07,70v1.32h4.2V74h-4.2V87.24h-3.36V74h-2v-2.7h2V70a5.35,5.35,0,0,1,1.51-4,5,5,0,0,1,3.66-1.48,5.73,5.73,0,0,1,3.92,1.59l-1.38,2.37a2.86,2.86,0,0,0-2.07-1,2.13,2.13,0,0,0-1.68.67A2.63,2.63,0,0,0,806.07,70Z"/><path class="cls-2" d="M333.24,118.47a4.49,4.49,0,0,1-1.65,3.64,6.42,6.42,0,0,1-4.23,1.37,11.33,11.33,0,0,1-3.61-.63,10.84,10.84,0,0,1-3.31-1.77l1.62-2.61a9.06,9.06,0,0,0,5.4,2.1,2.81,2.81,0,0,0,1.8-.53,1.64,1.64,0,0,0,.66-1.33q0-1.2-3.18-2.16l-.36-.12q-5-1.35-5-4.5a4.27,4.27,0,0,1,1.72-3.56A7.12,7.12,0,0,1,327.6,107a9.33,9.33,0,0,1,5.22,1.62l-1.26,2.49a7.52,7.52,0,0,0-4.23-1.29,3.87,3.87,0,0,0-2,.43,1.42,1.42,0,0,0-.75,1.31,1.19,1.19,0,0,0,.78,1.14,7.51,7.51,0,0,0,1.51.51q1,.24,1.73.48t1.46.54a9.42,9.42,0,0,1,1.52.84A3.75,3.75,0,0,1,333.24,118.47Z"/><path class="cls-2" d="M351.9,116.73H339.39a3.63,3.63,0,0,0,1.59,2.8,6.18,6.18,0,0,0,7.92-.83l1.92,2.1a8.93,8.93,0,0,1-6.72,2.67,8,8,0,0,1-5.71-2.24,7.88,7.88,0,0,1-2.35-6,7.76,7.76,0,0,1,2.4-6,8.06,8.06,0,0,1,5.65-2.22,8.19,8.19,0,0,1,5.54,2,6.77,6.77,0,0,1,2.28,5.42Zm-12.51-2.64h9.15a3.85,3.85,0,0,0-1.26-3.09,4.61,4.61,0,0,0-3.1-1.08,5.31,5.31,0,0,0-3.31,1.13A3.63,3.63,0,0,0,339.39,114.09Z"/><path class="cls-2" d="M364,110.43a4.46,4.46,0,0,0-3.75,1.62A6.9,6.9,0,0,0,359,116.4v6.84h-3.36v-16H359v3.21a7,7,0,0,1,2.21-2.46,5.32,5.32,0,0,1,3-1l0,3.39Z"/><path class="cls-2" d="M371.73,123.24l-6.42-16h3.48l4.86,12.06,4.86-12.06H382l-6.42,16Z"/><path class="cls-2" d="M384.87,104.1a2.1,2.1,0,1,1,1.5.63A2,2,0,0,1,384.87,104.1ZM388,123.24h-3.36v-16H388Z"/><path class="cls-2" d="M400,123.48a8.06,8.06,0,0,1-5.73-2.27,8.42,8.42,0,0,1,.1-11.88,8.71,8.71,0,0,1,6.11-2.29,8.28,8.28,0,0,1,6.09,2.49l-2,2.43a6.37,6.37,0,0,0-4.17-1.8,5.26,5.26,0,0,0-3.65,1.4,4.63,4.63,0,0,0-1.54,3.6,5.22,5.22,0,0,0,5.29,5.26,5.85,5.85,0,0,0,4.21-2l2,2.16A9.18,9.18,0,0,1,400,123.48Z"/><path class="cls-2" d="M425,116.73H412.5a3.63,3.63,0,0,0,1.59,2.8,6.18,6.18,0,0,0,7.92-.83l1.92,2.1a8.93,8.93,0,0,1-6.72,2.67,8,8,0,0,1-5.71-2.24,7.88,7.88,0,0,1-2.35-6,7.76,7.76,0,0,1,2.4-6A8.06,8.06,0,0,1,417.2,107a8.19,8.19,0,0,1,5.54,2,6.77,6.77,0,0,1,2.28,5.42Zm-12.51-2.64h9.15a3.85,3.85,0,0,0-1.26-3.09,4.61,4.61,0,0,0-3.1-1.08A5.31,5.31,0,0,0,414,111,3.63,3.63,0,0,0,412.5,114.09Z"/><path class="cls-2" d="M445.29,110.43a4.46,4.46,0,0,0-3.75,1.62,6.9,6.9,0,0,0-1.26,4.35v6.84h-3.36v-16h3.36v3.21a7,7,0,0,1,2.21-2.46,5.32,5.32,0,0,1,3-1l0,3.39Z"/><path class="cls-2" d="M463.68,116.73H451.17a3.63,3.63,0,0,0,1.59,2.8,6.18,6.18,0,0,0,7.92-.83l1.92,2.1a8.93,8.93,0,0,1-6.72,2.67,8,8,0,0,1-5.71-2.24,7.88,7.88,0,0,1-2.35-6,7.76,7.76,0,0,1,2.4-6,8.06,8.06,0,0,1,5.65-2.22,8.19,8.19,0,0,1,5.54,2,6.77,6.77,0,0,1,2.28,5.42Zm-12.51-2.64h9.15a3.85,3.85,0,0,0-1.26-3.09,4.61,4.61,0,0,0-3.1-1.08,5.31,5.31,0,0,0-3.31,1.13A3.63,3.63,0,0,0,451.17,114.09Z"/><path class="cls-2" d="M473.9,123.48a7.17,7.17,0,0,1-5.28-2.31,8.2,8.2,0,0,1-2.26-6,7.87,7.87,0,0,1,2.28-5.91,7.59,7.59,0,0,1,5.49-2.22,6,6,0,0,1,5.19,3v-2.79h3.36v21.78h-3.36v-8.22A7.18,7.18,0,0,1,473.9,123.48Zm-4.19-8.17a5,5,0,0,0,1.47,3.73,4.77,4.77,0,0,0,3.45,1.44A4.46,4.46,0,0,0,478,119a5.21,5.21,0,0,0,1.38-3.74A5.42,5.42,0,0,0,478,111.5,4.41,4.41,0,0,0,474.6,110a4.59,4.59,0,0,0-3.45,1.51A5.31,5.31,0,0,0,469.71,115.31Z"/><path class="cls-2" d="M498.69,115.92v-8.64H502v16h-3.36v-2.91a6.26,6.26,0,0,1-9.67,1.5,6.42,6.42,0,0,1-1.67-4.77v-9.78h3.36V116q0,4.41,3.66,4.41a4.4,4.4,0,0,0,3-1.16A4.3,4.3,0,0,0,498.69,115.92Z"/><path class="cls-2" d="M507.12,104.1a2.1,2.1,0,1,1,1.5.63A2,2,0,0,1,507.12,104.1Zm3.15,19.14h-3.36v-16h3.36Z"/><path class="cls-2" d="M523.5,110.43a4.46,4.46,0,0,0-3.75,1.62,6.9,6.9,0,0,0-1.26,4.35v6.84h-3.36v-16h3.36v3.21a7,7,0,0,1,2.21-2.46,5.32,5.32,0,0,1,3-1l0,3.39Z"/><path class="cls-2" d="M541.89,116.73H529.38a3.63,3.63,0,0,0,1.59,2.8,6.18,6.18,0,0,0,7.92-.83l1.92,2.1a8.92,8.92,0,0,1-6.72,2.67,8,8,0,0,1-5.71-2.24,7.88,7.88,0,0,1-2.36-6,7.76,7.76,0,0,1,2.4-6,8.05,8.05,0,0,1,5.65-2.22,8.19,8.19,0,0,1,5.54,2,6.77,6.77,0,0,1,2.28,5.42Zm-12.51-2.64h9.15a3.85,3.85,0,0,0-1.26-3.09,4.61,4.61,0,0,0-3.1-1.08,5.31,5.31,0,0,0-3.32,1.13A3.63,3.63,0,0,0,529.38,114.09Z"/><path class="cls-2" d="M548.94,114.6v8.64h-3.36v-16h3.36v2.91a5.34,5.34,0,0,1,2.17-2.31,6.17,6.17,0,0,1,3.14-.84,5.07,5.07,0,0,1,5.13,3.12,7.16,7.16,0,0,1,5.91-3.12,5.93,5.93,0,0,1,4.36,1.65,6.42,6.42,0,0,1,1.67,4.77v9.78H568v-8.76q0-4.41-3.66-4.41a4.44,4.44,0,0,0-3,1.09,4.15,4.15,0,0,0-1.33,3.2v8.88h-3.36v-8.76a5.55,5.55,0,0,0-.81-3.35,3,3,0,0,0-2.55-1.06,4.39,4.39,0,0,0-3,1.16A4.29,4.29,0,0,0,548.94,114.6Z"/><path class="cls-2" d="M590.85,116.73H578.34a3.64,3.64,0,0,0,1.59,2.8,6.18,6.18,0,0,0,7.92-.83l1.92,2.1a8.93,8.93,0,0,1-6.72,2.67,8,8,0,0,1-5.71-2.24,7.88,7.88,0,0,1-2.35-6,7.76,7.76,0,0,1,2.4-6A8.06,8.06,0,0,1,583,107a8.19,8.19,0,0,1,5.54,2,6.77,6.77,0,0,1,2.28,5.42Zm-12.51-2.64h9.15a3.85,3.85,0,0,0-1.26-3.09,4.61,4.61,0,0,0-3.11-1.08,5.31,5.31,0,0,0-3.31,1.13A3.63,3.63,0,0,0,578.34,114.09Z"/><path class="cls-2" d="M597.9,114.6v8.64h-3.36v-16h3.36v2.91a6.26,6.26,0,0,1,9.67-1.5,6.42,6.42,0,0,1,1.67,4.77v9.78h-3.36v-8.76q0-4.41-3.66-4.41a4.39,4.39,0,0,0-3,1.16A4.29,4.29,0,0,0,597.9,114.6Z"/><path class="cls-2" d="M617.85,110v8.1a2.63,2.63,0,0,0,.6,1.82,2.13,2.13,0,0,0,1.68.67,2.86,2.86,0,0,0,2.07-1l1.38,2.37a5.73,5.73,0,0,1-3.92,1.59A5,5,0,0,1,616,122a5.35,5.35,0,0,1-1.52-4v-8h-2v-2.7h2v-5h3.36v5H622V110Z"/><path class="cls-2" d="M637.62,118.47a4.49,4.49,0,0,1-1.65,3.64,6.41,6.41,0,0,1-4.23,1.37,11.33,11.33,0,0,1-3.62-.63,10.84,10.84,0,0,1-3.31-1.77l1.62-2.61a9.06,9.06,0,0,0,5.4,2.1,2.81,2.81,0,0,0,1.8-.53,1.64,1.64,0,0,0,.66-1.33q0-1.2-3.18-2.16l-.36-.12q-5-1.35-5-4.5a4.27,4.27,0,0,1,1.72-3.56A7.12,7.12,0,0,1,632,107a9.33,9.33,0,0,1,5.22,1.62l-1.26,2.49a7.53,7.53,0,0,0-4.23-1.29,3.87,3.87,0,0,0-2,.43,1.42,1.42,0,0,0-.75,1.31,1.19,1.19,0,0,0,.78,1.14,7.53,7.53,0,0,0,1.51.51q1,.24,1.73.48t1.46.54a9.42,9.42,0,0,1,1.51.84A3.75,3.75,0,0,1,637.62,118.47Z"/></g></g></g></g></svg>