<svg xmlns="http://www.w3.org/2000/svg" viewBox="0 0 1080.35 715.09"><defs><style>.cls-1{fill:#eaebec;}.cls-2{fill:#4c4c4e;}.cls-3{fill:#6a0032;}.cls-4{fill:#fff;}</style></defs><title>IP_sc2_btns.svg</title><g id="Layer_2" data-name="Layer 2"><g id="Ui"><path class="cls-1" d="M0,475.75V526.8H231.33a24.42,24.42,0,0,1,23.21,23.62l0,65.88H309V575.08a24.41,24.41,0,0,1,23.2-23.59h69.24a24.41,24.41,0,0,1,23.21,23.62l0,71h52.42V575.08a24.41,24.41,0,0,1,23.21-23.59H560a24.41,24.41,0,0,1,23.2,23.62l0-34.75V666.45h52.42V575.08a24.41,24.41,0,0,1,23.2-23.59H720a24.41,24.41,0,0,1,23.21,23.62l0-34.75V715.09h52.66V541.87c2.1-7,7.92-15.45,23.76-15.45h260.29V475.75Z"/><rect class="cls-1" x="0.35" width="1080" height="501.06"/><path class="cls-2" d="M151,297.2v7.9h9.13v-7.9h2.46v18.87h-2.46v-8.85H151v8.85h-2.44V297.2Z"/><path class="cls-2" d="M168.06,309.74c.06,3.33,2.18,4.7,4.65,4.7a8.91,8.91,0,0,0,3.75-.7l.42,1.76a11,11,0,0,1-4.51.84c-4.17,0-6.66-2.74-6.66-6.83s2.41-7.31,6.36-7.31c4.42,0,5.6,3.89,5.6,6.38a9.33,9.33,0,0,1-.08,1.15Zm7.22-1.76c0-1.57-.64-4-3.42-4-2.49,0-3.58,2.3-3.78,4Z"/><path class="cls-2" d="M188.22,316.07l-.2-1.71h-.08a5,5,0,0,1-4.14,2,3.86,3.86,0,0,1-4.14-3.89c0-3.28,2.91-5.07,8.15-5v-.28a2.79,2.79,0,0,0-3.08-3.14,6.75,6.75,0,0,0-3.53,1l-.56-1.62a8.41,8.41,0,0,1,4.45-1.2c4.14,0,5.15,2.83,5.15,5.54v5.07a19.08,19.08,0,0,0,.22,3.25Zm-.36-6.92c-2.69-.06-5.74.42-5.74,3.05a2.18,2.18,0,0,0,2.32,2.35,3.37,3.37,0,0,0,3.28-2.27,2.58,2.58,0,0,0,.14-.78Z"/><path class="cls-2" d="M194.22,296.19h2.46v19.88h-2.46Z"/><path class="cls-2" d="M203.79,298.62v3.89h3.53v1.88h-3.53v7.31c0,1.68.48,2.63,1.85,2.63a5.48,5.48,0,0,0,1.43-.17l.11,1.85a6,6,0,0,1-2.18.34,3.41,3.41,0,0,1-2.66-1,5,5,0,0,1-1-3.53v-7.39h-2.1v-1.88h2.1v-3.25Z"/><path class="cls-2" d="M210.09,296.19h2.46v8.46h.06a4.57,4.57,0,0,1,1.76-1.74,5.07,5.07,0,0,1,2.52-.7c1.82,0,4.73,1.12,4.73,5.8v8.06h-2.46v-7.78c0-2.18-.81-4-3.14-4a3.54,3.54,0,0,0-3.3,2.46,3,3,0,0,0-.17,1.18v8.18h-2.46Z"/><circle class="cls-3" cx="184.99" cy="243.03" r="40"/><path class="cls-4" d="M200.67,250.07H170.33v-2.7h28.83a1.45,1.45,0,0,1,1.51,1.39Zm-30.59-6.77h5.18a1,1,0,0,1,.94.95v1.15h-6.12Zm32.56,6.77v-1.31a3.43,3.43,0,0,0-3.48-3.36H177.67v-1.15a2.42,2.42,0,0,0-2.41-2.42h-5.48v-3.06h-3.93v22.59h3.93V254H199.5v7.37h3.93V250.07Z"/><polygon class="cls-4" points="192.6 238.77 196.04 238.77 196.04 236.42 198.74 236.42 198.74 232.74 196.04 232.74 196.04 230.1 192.6 230.1 192.6 232.74 190.02 232.74 190.02 236.42 192.6 236.42 192.6 238.77"/><path class="cls-4" d="M194.38,227.13a7.31,7.31,0,1,1-7.31,7.3,7.31,7.31,0,0,1,7.31-7.3m0,17.05a9.74,9.74,0,1,0-9.74-9.75,9.75,9.75,0,0,0,9.74,9.75"/><circle class="cls-3" cx="913.86" cy="64.92" r="40"/><path class="cls-4" d="M908.63,49.92,890.42,76.2c-.35.56.49,1.47.85,2a.7.7,0,0,0,1.28,0l17.81-28.31Z"/><path class="cls-4" d="M937.31,75.81l-18-25.88h-1.73l17.56,27.92a.69.69,0,0,0,1.28,0c.36-.56,1.2-1.48.85-2"/><polygon class="cls-4" points="923.48 61.6 904.66 61.6 906.46 58.94 921.67 58.94 923.48 61.6"/><polygon class="cls-4" points="919.91 56.3 908.22 56.3 909.34 54.65 918.79 54.65 919.91 56.3"/><polygon class="cls-4" points="910.97 51.66 910.23 52.74 917.9 52.74 917.16 51.66 910.97 51.66"/><polygon class="cls-4" points="927.97 69.58 900.16 69.58 902.82 65.65 925.31 65.65 927.97 69.58"/><polygon class="cls-4" points="933.9 78.88 894.23 78.88 898.02 73.28 930.11 73.28 933.9 78.88"/><path class="cls-2" d="M863.11,115.36h-5.74v-2.07h14v2.07h-5.77v16.8h-2.46Z"/><path class="cls-2" d="M873.36,122.84c0-1.6,0-3-.11-4.23h2.16l.08,2.66h.11a4.07,4.07,0,0,1,3.75-3,2.66,2.66,0,0,1,.7.08v2.32a3.72,3.72,0,0,0-.84-.08,3.46,3.46,0,0,0-3.3,3.16,7,7,0,0,0-.11,1.15v7.22h-2.44Z"/><path class="cls-2" d="M890,132.16l-.2-1.71h-.08a5,5,0,0,1-4.14,2,3.86,3.86,0,0,1-4.14-3.89c0-3.28,2.91-5.07,8.15-5v-.28a2.79,2.79,0,0,0-3.08-3.14,6.75,6.75,0,0,0-3.53,1l-.56-1.62a8.41,8.41,0,0,1,4.45-1.2c4.14,0,5.15,2.83,5.15,5.54v5.07a19.08,19.08,0,0,0,.22,3.25Zm-.36-6.92c-2.69-.06-5.74.42-5.74,3.05a2.18,2.18,0,0,0,2.32,2.35,3.37,3.37,0,0,0,3.28-2.27,2.58,2.58,0,0,0,.14-.78Z"/><path class="cls-2" d="M896,122.28c0-1.4,0-2.55-.11-3.67h2.18l.14,2.24h.06a5,5,0,0,1,4.48-2.55c1.88,0,4.79,1.12,4.79,5.77v8.09h-2.46v-7.81c0-2.18-.81-4-3.14-4a3.5,3.5,0,0,0-3.3,2.52,3.55,3.55,0,0,0-.17,1.15v8.15H896Z"/><path class="cls-2" d="M911.22,129.64a6.46,6.46,0,0,0,3.25,1c1.79,0,2.63-.9,2.63-2s-.7-1.82-2.52-2.49c-2.44-.87-3.58-2.21-3.58-3.84,0-2.18,1.76-4,4.68-4a6.77,6.77,0,0,1,3.33.84l-.62,1.79a5.28,5.28,0,0,0-2.77-.78c-1.46,0-2.27.84-2.27,1.85s.81,1.62,2.58,2.3c2.35.9,3.56,2.07,3.56,4.09,0,2.38-1.85,4.06-5.07,4.06a7.73,7.73,0,0,1-3.81-.92Z"/><path class="cls-2" d="M922.64,123c0-1.74-.06-3.14-.11-4.42h2.21l.11,2.32h.06a5.33,5.33,0,0,1,4.82-2.63c3.28,0,5.74,2.77,5.74,6.89,0,4.87-3,7.28-6.16,7.28a4.75,4.75,0,0,1-4.17-2.13h-.06v7.36h-2.44Zm2.44,3.61a5.58,5.58,0,0,0,.11,1,3.8,3.8,0,0,0,3.7,2.88c2.6,0,4.12-2.13,4.12-5.24,0-2.72-1.43-5-4-5a3.93,3.93,0,0,0-3.72,3.05,4,4,0,0,0-.17,1Z"/><path class="cls-2" d="M950.84,125.27c0,5-3.47,7.2-6.75,7.2-3.67,0-6.5-2.69-6.5-7,0-4.54,3-7.2,6.72-7.2S950.84,121.13,950.84,125.27Zm-10.75.14c0,3,1.71,5.21,4.12,5.21s4.12-2.21,4.12-5.26c0-2.3-1.15-5.21-4.06-5.21S940.09,122.84,940.09,125.41Z"/><path class="cls-2" d="M953.95,122.84c0-1.6,0-3-.11-4.23H956l.08,2.66h.11a4.07,4.07,0,0,1,3.75-3,2.66,2.66,0,0,1,.7.08v2.32a3.72,3.72,0,0,0-.84-.08,3.46,3.46,0,0,0-3.3,3.16,7,7,0,0,0-.11,1.15v7.22h-2.44Z"/><path class="cls-2" d="M966.07,114.72v3.89h3.53v1.88h-3.53v7.31c0,1.68.48,2.63,1.85,2.63a5.48,5.48,0,0,0,1.43-.17l.11,1.85a6,6,0,0,1-2.18.34,3.41,3.41,0,0,1-2.66-1,5,5,0,0,1-1-3.53v-7.39h-2.1v-1.88h2.1v-3.25Z"/><path class="cls-2" d="M618.87,123.31h-7.34v6.8h8.18v2H609.1V113.29h10.19v2h-7.76v6h7.34Z"/><path class="cls-2" d="M634.49,112.28v16.38c0,1.2,0,2.58.11,3.5h-2.21l-.11-2.35h-.06a5,5,0,0,1-4.62,2.66c-3.28,0-5.8-2.77-5.8-6.89,0-4.51,2.77-7.28,6.08-7.28a4.53,4.53,0,0,1,4.09,2.07H632v-8.09ZM632,124.12a4.35,4.35,0,0,0-.11-1,3.62,3.62,0,0,0-3.56-2.86c-2.55,0-4.06,2.24-4.06,5.24,0,2.74,1.34,5,4,5a3.7,3.7,0,0,0,3.61-2.94,4.28,4.28,0,0,0,.11-1.06Z"/><path class="cls-2" d="M649.92,128.46c0,1.4,0,2.63.11,3.7h-2.18l-.14-2.21h-.06a5.1,5.1,0,0,1-4.48,2.52c-2.13,0-4.68-1.18-4.68-5.94v-7.92H641v7.5c0,2.58.78,4.31,3,4.31a3.56,3.56,0,0,0,3.25-2.24,3.6,3.6,0,0,0,.22-1.26v-8.32h2.46Z"/><path class="cls-2" d="M663.67,131.66a9.08,9.08,0,0,1-3.89.78c-4.09,0-6.75-2.77-6.75-6.92a6.89,6.89,0,0,1,7.28-7.2,8.24,8.24,0,0,1,3.42.7l-.56,1.9a5.71,5.71,0,0,0-2.86-.64c-3.11,0-4.79,2.3-4.79,5.12,0,3.14,2,5.07,4.7,5.07a7,7,0,0,0,3-.67Z"/><path class="cls-2" d="M674.06,132.16l-.2-1.71h-.08a5,5,0,0,1-4.14,2,3.86,3.86,0,0,1-4.14-3.89c0-3.28,2.91-5.07,8.15-5v-.28a2.79,2.79,0,0,0-3.08-3.14,6.75,6.75,0,0,0-3.53,1l-.56-1.62a8.41,8.41,0,0,1,4.45-1.2c4.14,0,5.15,2.83,5.15,5.54v5.07a19.08,19.08,0,0,0,.22,3.25Zm-.36-6.92c-2.69-.06-5.74.42-5.74,3.05a2.18,2.18,0,0,0,2.32,2.35,3.37,3.37,0,0,0,3.28-2.27,2.58,2.58,0,0,0,.14-.78Z"/><path class="cls-2" d="M683,114.72v3.89h3.53v1.88H683v7.31c0,1.68.48,2.63,1.85,2.63a5.48,5.48,0,0,0,1.43-.17l.11,1.85a6,6,0,0,1-2.18.34,3.41,3.41,0,0,1-2.66-1,5,5,0,0,1-1-3.53v-7.39h-2.1v-1.88h2.1v-3.25Z"/><path class="cls-2" d="M692.06,114.8a1.53,1.53,0,0,1-3.05,0,1.5,1.5,0,0,1,1.54-1.54A1.46,1.46,0,0,1,692.06,114.8Zm-2.74,17.36V118.61h2.46v13.55Z"/><path class="cls-2" d="M708.13,125.27c0,5-3.47,7.2-6.75,7.2-3.67,0-6.5-2.69-6.5-7,0-4.54,3-7.2,6.72-7.2S708.13,121.13,708.13,125.27Zm-10.75.14c0,3,1.71,5.21,4.12,5.21s4.12-2.21,4.12-5.26c0-2.3-1.15-5.21-4.06-5.21S697.38,122.84,697.38,125.41Z"/><path class="cls-2" d="M711.24,122.28c0-1.4,0-2.55-.11-3.67h2.18l.14,2.24h.06A5,5,0,0,1,718,118.3c1.88,0,4.79,1.12,4.79,5.77v8.09h-2.46v-7.81c0-2.18-.81-4-3.14-4a3.5,3.5,0,0,0-3.3,2.52,3.55,3.55,0,0,0-.17,1.15v8.15h-2.46Z"/><path class="cls-2" d="M744.61,132.16c-.53-.53-1-1.06-1.76-1.85a7.73,7.73,0,0,1-5.52,2.16c-3.67,0-5.8-2.46-5.8-5.29,0-2.58,1.54-4.34,3.7-5.52v-.08a6.48,6.48,0,0,1-1.57-3.95,4.58,4.58,0,0,1,4.79-4.65,3.93,3.93,0,0,1,4.17,4c0,2-1.15,3.56-4.14,5v.08c1.6,1.85,3.39,3.92,4.59,5.26a13.84,13.84,0,0,0,1.82-5.52h2.24c-.5,3-1.32,5.32-2.72,7,1,1.06,2,2.13,3.11,3.33Zm-3-3.25c-1.12-1.23-3.22-3.53-5.32-5.94a4.64,4.64,0,0,0-2.44,3.84,3.72,3.72,0,0,0,3.86,3.81A5.27,5.27,0,0,0,741.65,128.91Zm-5.74-11.51a5.29,5.29,0,0,0,1.43,3.39c1.9-1.09,3.14-2.1,3.14-3.7a2.22,2.22,0,0,0-2.18-2.44A2.46,2.46,0,0,0,735.91,117.4Z"/><path class="cls-2" d="M636.42,142.72v3.89H640v1.88h-3.53v7.31c0,1.68.48,2.63,1.85,2.63a5.48,5.48,0,0,0,1.43-.17l.11,1.85a6,6,0,0,1-2.18.34,3.41,3.41,0,0,1-2.66-1,5,5,0,0,1-1-3.53v-7.39h-2.1v-1.88H634v-3.25Z"/><path class="cls-2" d="M642.72,150.84c0-1.6,0-3-.11-4.23h2.16l.08,2.66H645a4.07,4.07,0,0,1,3.75-3,2.66,2.66,0,0,1,.7.08v2.32a3.72,3.72,0,0,0-.84-.08,3.46,3.46,0,0,0-3.3,3.16,7,7,0,0,0-.11,1.15v7.22h-2.44Z"/><path class="cls-2" d="M659.38,160.16l-.2-1.71h-.08a5,5,0,0,1-4.14,2,3.86,3.86,0,0,1-4.14-3.89c0-3.28,2.91-5.07,8.15-5v-.28a2.79,2.79,0,0,0-3.08-3.14,6.75,6.75,0,0,0-3.53,1l-.56-1.62a8.41,8.41,0,0,1,4.45-1.2c4.14,0,5.15,2.83,5.15,5.54v5.07a19.08,19.08,0,0,0,.22,3.25Zm-.36-6.92c-2.69-.06-5.74.42-5.74,3.05a2.18,2.18,0,0,0,2.32,2.35,3.37,3.37,0,0,0,3.28-2.27,2.58,2.58,0,0,0,.14-.78Z"/><path class="cls-2" d="M668.12,142.8a1.53,1.53,0,0,1-3.05,0,1.5,1.5,0,0,1,1.54-1.54A1.46,1.46,0,0,1,668.12,142.8Zm-2.74,17.36V146.61h2.46v13.55Z"/><path class="cls-2" d="M671.93,150.28c0-1.4,0-2.55-.11-3.67H674l.14,2.24h.06a5,5,0,0,1,4.48-2.55c1.88,0,4.79,1.12,4.79,5.77v8.09H681v-7.81c0-2.18-.81-4-3.14-4a3.5,3.5,0,0,0-3.3,2.52,3.55,3.55,0,0,0-.17,1.15v8.15h-2.46Z"/><path class="cls-2" d="M690.21,142.8a1.53,1.53,0,0,1-3.05,0,1.5,1.5,0,0,1,1.54-1.54A1.46,1.46,0,0,1,690.21,142.8Zm-2.74,17.36V146.61h2.46v13.55Z"/><path class="cls-2" d="M694,150.28c0-1.4,0-2.55-.11-3.67h2.18l.14,2.24h.06a5,5,0,0,1,4.48-2.55c1.88,0,4.79,1.12,4.79,5.77v8.09h-2.46v-7.81c0-2.18-.81-4-3.14-4a3.5,3.5,0,0,0-3.3,2.52,3.55,3.55,0,0,0-.17,1.15v8.15H694Z"/><path class="cls-2" d="M721.24,146.61c-.06,1-.11,2.07-.11,3.72v7.87c0,3.11-.62,5-1.93,6.19a7.18,7.18,0,0,1-4.93,1.62,8.75,8.75,0,0,1-4.51-1.12l.62-1.88a7.64,7.64,0,0,0,4,1.06c2.52,0,4.37-1.32,4.37-4.73v-1.51h-.06a4.84,4.84,0,0,1-4.31,2.27c-3.36,0-5.77-2.86-5.77-6.61,0-4.59,3-7.2,6.1-7.2a4.51,4.51,0,0,1,4.23,2.35H719l.11-2ZM718.69,152a3.5,3.5,0,0,0-.14-1.12,3.55,3.55,0,0,0-3.44-2.6c-2.35,0-4,2-4,5.12,0,2.66,1.34,4.87,4,4.87a3.6,3.6,0,0,0,3.42-2.52,4.3,4.3,0,0,0,.2-1.32Z"/><circle class="cls-3" cx="677.29" cy="64.92" r="40"/><path class="cls-4" d="M660.46,68.77v7.41h0c0,.05,0,.11,0,.16h0c0,3.79,7.54,6.85,16.83,6.85s16.83-3.06,16.83-6.85h0a1.16,1.16,0,0,0,0-.16h0V68.77l-16.83,5.18Z"/><path class="cls-4" d="M700.82,68.17v-.54a.55.55,0,0,0-.24-.48v-4.3l5.21-1.6-28.49-8.76L648.8,61.24,677.29,70l22.54-6.93v4.07a.55.55,0,0,0-.24.48v.54a.56.56,0,0,0,.22.46l-.88,4.81h2.54l-.87-4.81a.55.55,0,0,0,.22-.46"/><path class="cls-2" d="M641,474.75a35,35,0,0,1,5.18-.39c3.5,0,6,.81,7.64,2.35a8.69,8.69,0,0,1,2.66,6.78,10,10,0,0,1-2.72,7.34c-1.76,1.76-4.68,2.72-8.34,2.72a39.28,39.28,0,0,1-4.42-.22Zm2.44,16.69a15.35,15.35,0,0,0,2.46.14c5.21,0,8-2.91,8-8,0-4.45-2.49-7.28-7.64-7.28a13.87,13.87,0,0,0-2.86.25Z"/><path class="cls-2" d="M662.34,476a1.53,1.53,0,0,1-3.05,0,1.5,1.5,0,0,1,1.54-1.54A1.46,1.46,0,0,1,662.34,476Zm-2.74,17.36V479.82h2.46v13.55Z"/><path class="cls-2" d="M677.82,479.82c-.06,1-.11,2.07-.11,3.72v7.87c0,3.11-.62,5-1.93,6.19a7.18,7.18,0,0,1-4.93,1.62,8.75,8.75,0,0,1-4.51-1.12l.62-1.88a7.64,7.64,0,0,0,4,1.06c2.52,0,4.37-1.32,4.37-4.73V491h-.06a4.84,4.84,0,0,1-4.31,2.27c-3.36,0-5.77-2.86-5.77-6.61,0-4.59,3-7.2,6.1-7.2a4.51,4.51,0,0,1,4.23,2.35h.06l.11-2Zm-2.55,5.35a3.5,3.5,0,0,0-.14-1.12,3.55,3.55,0,0,0-3.44-2.6c-2.35,0-4,2-4,5.12,0,2.66,1.34,4.87,4,4.87a3.6,3.6,0,0,0,3.42-2.52,4.3,4.3,0,0,0,.2-1.32Z"/><path class="cls-2" d="M684.54,476a1.53,1.53,0,0,1-3.05,0,1.5,1.5,0,0,1,1.54-1.54A1.46,1.46,0,0,1,684.54,476Zm-2.74,17.36V479.82h2.46v13.55Z"/><path class="cls-2" d="M691.32,475.93v3.89h3.53v1.88h-3.53V489c0,1.68.48,2.63,1.85,2.63a5.48,5.48,0,0,0,1.43-.17l.11,1.85a6,6,0,0,1-2.18.34,3.41,3.41,0,0,1-2.66-1,5,5,0,0,1-1-3.53V481.7h-2.1v-1.88h2.1v-3.25Z"/><path class="cls-2" d="M705.12,493.37l-.2-1.71h-.08a5,5,0,0,1-4.14,2,3.86,3.86,0,0,1-4.14-3.89c0-3.28,2.91-5.07,8.15-5v-.28a2.79,2.79,0,0,0-3.08-3.14,6.75,6.75,0,0,0-3.53,1l-.56-1.62a8.41,8.41,0,0,1,4.45-1.2c4.14,0,5.15,2.83,5.15,5.54v5.07a19.08,19.08,0,0,0,.22,3.25Zm-.36-6.92c-2.69-.06-5.74.42-5.74,3.05a2.18,2.18,0,0,0,2.32,2.35,3.37,3.37,0,0,0,3.28-2.27,2.58,2.58,0,0,0,.14-.78Z"/><path class="cls-2" d="M711.11,473.49h2.46v19.88h-2.46Z"/><circle class="cls-3" cx="677.29" cy="422.45" r="40"/><path class="cls-4" d="M680.31,439.55a3,3,0,1,1-3-3,3,3,0,0,1,3,3"/><path class="cls-4" d="M700.7,422.29a3.18,3.18,0,0,1-2.28-1,30,30,0,0,0-42.27,0,3.18,3.18,0,1,1-4.55-4.44,36.35,36.35,0,0,1,51.39,0,3.18,3.18,0,0,1-2.29,5.4"/><path class="cls-4" d="M692.91,428.83a3.17,3.17,0,0,1-2.19-.88,20,20,0,0,0-26.85,0,3.18,3.18,0,0,1-4.39-4.61,26.33,26.33,0,0,1,35.63,0,3.18,3.18,0,0,1-2.2,5.49"/><path class="cls-4" d="M669.31,435.56a3.18,3.18,0,0,1-2-5.67A16.56,16.56,0,0,1,687,429.7a3.18,3.18,0,1,1-3.86,5.06,10.21,10.21,0,0,0-11.84.11,3.15,3.15,0,0,1-2,.7"/><path class="cls-2" d="M348.89,490.41a8.63,8.63,0,0,0,4.37,1.23c2.49,0,3.95-1.32,3.95-3.22s-1-2.77-3.56-3.75c-3.08-1.09-5-2.69-5-5.35,0-2.94,2.44-5.12,6.1-5.12a8.57,8.57,0,0,1,4.17.92l-.67,2a7.52,7.52,0,0,0-3.58-.9c-2.58,0-3.56,1.54-3.56,2.83,0,1.76,1.15,2.63,3.75,3.64,3.19,1.23,4.82,2.77,4.82,5.54s-2.16,5.43-6.61,5.43a9.76,9.76,0,0,1-4.82-1.2Z"/><path class="cls-2" d="M375.21,486.49c0,5-3.47,7.2-6.75,7.2-3.67,0-6.5-2.69-6.5-7,0-4.54,3-7.2,6.72-7.2S375.21,482.34,375.21,486.49Zm-10.75.14c0,3,1.71,5.21,4.12,5.21s4.12-2.21,4.12-5.26c0-2.3-1.15-5.21-4.06-5.21S364.46,484,364.46,486.63Z"/><path class="cls-2" d="M388,492.87a9.08,9.08,0,0,1-3.89.78c-4.09,0-6.75-2.77-6.75-6.92a6.89,6.89,0,0,1,7.28-7.2,8.24,8.24,0,0,1,3.42.7l-.56,1.9a5.71,5.71,0,0,0-2.86-.64c-3.11,0-4.79,2.3-4.79,5.12,0,3.14,2,5.07,4.7,5.07a7,7,0,0,0,3-.67Z"/><path class="cls-2" d="M393.61,476a1.53,1.53,0,0,1-3.05,0,1.5,1.5,0,0,1,1.54-1.54A1.46,1.46,0,0,1,393.61,476Zm-2.74,17.36V479.82h2.46v13.55Z"/><path class="cls-2" d="M404.92,493.37l-.2-1.71h-.08a5,5,0,0,1-4.14,2,3.86,3.86,0,0,1-4.14-3.89c0-3.28,2.91-5.07,8.15-5v-.28a2.79,2.79,0,0,0-3.08-3.14,6.75,6.75,0,0,0-3.53,1l-.56-1.62a8.41,8.41,0,0,1,4.45-1.2c4.14,0,5.15,2.83,5.15,5.54v5.07a19.08,19.08,0,0,0,.22,3.25Zm-.36-6.92c-2.69-.06-5.74.42-5.74,3.05a2.18,2.18,0,0,0,2.32,2.35,3.37,3.37,0,0,0,3.28-2.27,2.58,2.58,0,0,0,.14-.78Z"/><path class="cls-2" d="M410.91,473.49h2.46v19.88h-2.46Z"/><path class="cls-2" d="M423.46,473.49h2.46v8.46H426a4.57,4.57,0,0,1,1.76-1.74,5.07,5.07,0,0,1,2.52-.7c1.82,0,4.73,1.12,4.73,5.8v8.06h-2.46v-7.78c0-2.18-.81-4-3.14-4a3.54,3.54,0,0,0-3.3,2.46,3,3,0,0,0-.17,1.18v8.18h-2.46Z"/><path class="cls-2" d="M451.26,486.49c0,5-3.47,7.2-6.75,7.2-3.67,0-6.5-2.69-6.5-7,0-4.54,3-7.2,6.72-7.2S451.26,482.34,451.26,486.49Zm-10.75.14c0,3,1.71,5.21,4.12,5.21s4.12-2.21,4.12-5.26c0-2.3-1.15-5.21-4.06-5.21S440.51,484,440.51,486.63Z"/><path class="cls-2" d="M465.71,489.68c0,1.4,0,2.63.11,3.7h-2.18l-.14-2.21h-.06a5.1,5.1,0,0,1-4.48,2.52c-2.13,0-4.68-1.18-4.68-5.94v-7.92h2.46v7.5c0,2.58.78,4.31,3,4.31A3.56,3.56,0,0,0,463,489.4a3.6,3.6,0,0,0,.22-1.26v-8.32h2.46Z"/><path class="cls-2" d="M469.46,490.85a6.46,6.46,0,0,0,3.25,1c1.79,0,2.63-.9,2.63-2s-.7-1.82-2.52-2.49c-2.44-.87-3.58-2.21-3.58-3.84,0-2.18,1.76-4,4.68-4a6.77,6.77,0,0,1,3.33.84l-.62,1.79a5.28,5.28,0,0,0-2.77-.78c-1.46,0-2.27.84-2.27,1.85s.81,1.62,2.58,2.3c2.35.9,3.56,2.07,3.56,4.09,0,2.38-1.85,4.06-5.07,4.06a7.73,7.73,0,0,1-3.81-.92Z"/><path class="cls-2" d="M483.63,476a1.53,1.53,0,0,1-3.05,0,1.5,1.5,0,0,1,1.54-1.54A1.46,1.46,0,0,1,483.63,476Zm-2.74,17.36V479.82h2.46v13.55Z"/><path class="cls-2" d="M487.43,483.49c0-1.4,0-2.55-.11-3.67h2.18l.14,2.24h.06a5,5,0,0,1,4.48-2.55c1.88,0,4.79,1.12,4.79,5.77v8.09h-2.46v-7.81c0-2.18-.81-4-3.14-4a3.5,3.5,0,0,0-3.3,2.52,3.55,3.55,0,0,0-.17,1.15v8.15h-2.46Z"/><path class="cls-2" d="M514.65,479.82c-.06,1-.11,2.07-.11,3.72v7.87c0,3.11-.62,5-1.93,6.19a7.18,7.18,0,0,1-4.93,1.62,8.75,8.75,0,0,1-4.51-1.12l.62-1.88a7.64,7.64,0,0,0,4,1.06c2.52,0,4.37-1.32,4.37-4.73V491h-.06a4.84,4.84,0,0,1-4.31,2.27c-3.36,0-5.77-2.86-5.77-6.61,0-4.59,3-7.2,6.1-7.2a4.51,4.51,0,0,1,4.23,2.35h.06l.11-2Zm-2.55,5.35A3.5,3.5,0,0,0,512,484a3.55,3.55,0,0,0-3.44-2.6c-2.35,0-4,2-4,5.12,0,2.66,1.34,4.87,4,4.87a3.6,3.6,0,0,0,3.42-2.52,4.3,4.3,0,0,0,.2-1.32Z"/><circle class="cls-3" cx="431.84" cy="422.45" r="40"/><path class="cls-4" d="M456.81,437.37H406.88a.7.7,0,0,0-.69.69v1.08a.7.7,0,0,0,.69.7h49.93a.7.7,0,0,0,.69-.7v-1.08a.69.69,0,0,0-.69-.69"/><path class="cls-4" d="M408.89,415a.7.7,0,0,0,.93.3l22-11.19,22.35,11.09a.7.7,0,0,0,.93-.31l.38-.77a.69.69,0,0,0-.31-.92L432.4,401.91a.55.55,0,0,0-.18,0,.69.69,0,0,0-.7-.05l-22.71,11.52a.7.7,0,0,0-.3.94Z"/><path class="cls-4" d="M434.25,414.84a.69.69,0,0,1-.69.69h-3.4a.69.69,0,0,1-.7-.69v-3.4a.69.69,0,0,1,.7-.69h3.4a.69.69,0,0,1,.69.69Zm-4.2,9.13a.7.7,0,0,1-.7.69h-4a.69.69,0,0,1-.69-.69v-4.05a.69.69,0,0,1,.69-.69h4a.7.7,0,0,1,.7.69Zm0,6.63a.7.7,0,0,1-.7.69h-4a.69.69,0,0,1-.69-.69v-4.05a.69.69,0,0,1,.69-.69h4a.7.7,0,0,1,.7.69ZM423,424a.7.7,0,0,1-.69.69h-4.05a.69.69,0,0,1-.7-.69v-4.05a.69.69,0,0,1,.7-.69h4.05a.7.7,0,0,1,.69.69Zm0,6.63a.7.7,0,0,1-.69.69h-4.05a.69.69,0,0,1-.7-.69v-4.05a.69.69,0,0,1,.7-.69h4.05a.7.7,0,0,1,.69.69Zm23.3,5.47H452a.7.7,0,0,0,.7-.7V417a1.22,1.22,0,0,0-.62-1l-19.63-9.72a1.59,1.59,0,0,0-1.25,0L411.61,416a1.22,1.22,0,0,0-.62,1v18.34a.7.7,0,0,0,.69.7h23.43a.69.69,0,0,0,.69-.7V419.91a.7.7,0,0,1,.7-.69h8.39a.69.69,0,0,1,.69.69v15.46a.7.7,0,0,0,.7.7"/><path class="cls-2" d="M615,310.13l-2,5.94h-2.52L617,297.2h2.94l6.44,18.87h-2.6l-2-5.94Zm6.19-1.9-1.85-5.43c-.42-1.23-.7-2.35-1-3.44h-.06c-.28,1.12-.59,2.27-1,3.42l-1.85,5.46Z"/><path class="cls-2" d="M629,306.74c0-1.6,0-3-.11-4.23h2.16l.08,2.66h.11a4.07,4.07,0,0,1,3.75-3,2.66,2.66,0,0,1,.7.08v2.32a3.72,3.72,0,0,0-.84-.08,3.46,3.46,0,0,0-3.3,3.16,7,7,0,0,0-.11,1.15v7.22H629Z"/><path class="cls-2" d="M641.14,298.62v3.89h3.53v1.88h-3.53v7.31c0,1.68.48,2.63,1.85,2.63a5.48,5.48,0,0,0,1.43-.17l.11,1.85a6,6,0,0,1-2.18.34,3.41,3.41,0,0,1-2.66-1,5,5,0,0,1-1-3.53v-7.39h-2.1v-1.88h2.1v-3.25Z"/><path class="cls-2" d="M647.11,313.55a6.46,6.46,0,0,0,3.25,1c1.79,0,2.63-.9,2.63-2s-.7-1.82-2.52-2.49c-2.44-.87-3.58-2.21-3.58-3.84,0-2.18,1.76-4,4.68-4a6.77,6.77,0,0,1,3.33.84l-.62,1.79a5.28,5.28,0,0,0-2.77-.78c-1.46,0-2.27.84-2.27,1.85s.81,1.62,2.58,2.3c2.35.9,3.56,2.07,3.56,4.09,0,2.38-1.85,4.06-5.07,4.06a7.73,7.73,0,0,1-3.81-.92Z"/><path class="cls-2" d="M656.94,319.51a40.32,40.32,0,0,0,1.68-6.69l2.74-.28a34.12,34.12,0,0,1-2.66,6.8Z"/><path class="cls-2" d="M674,315.56a9.08,9.08,0,0,1-3.89.78c-4.09,0-6.75-2.77-6.75-6.92a6.89,6.89,0,0,1,7.28-7.2,8.24,8.24,0,0,1,3.42.7l-.56,1.9a5.71,5.71,0,0,0-2.86-.64c-3.11,0-4.79,2.3-4.79,5.12,0,3.14,2,5.07,4.7,5.07a7,7,0,0,0,3-.67Z"/><path class="cls-2" d="M688.21,312.37c0,1.4,0,2.63.11,3.7h-2.18l-.14-2.21h-.06a5.1,5.1,0,0,1-4.48,2.52c-2.13,0-4.68-1.18-4.68-5.94v-7.92h2.46V310c0,2.58.78,4.31,3,4.31a3.56,3.56,0,0,0,3.25-2.24,3.6,3.6,0,0,0,.22-1.26v-8.32h2.46Z"/><path class="cls-2" d="M692.3,296.19h2.46v19.88H692.3Z"/><path class="cls-2" d="M701.87,298.62v3.89h3.53v1.88h-3.53v7.31c0,1.68.48,2.63,1.85,2.63a5.48,5.48,0,0,0,1.43-.17l.11,1.85a6,6,0,0,1-2.18.34,3.41,3.41,0,0,1-2.66-1,5,5,0,0,1-1-3.53v-7.39h-2.1v-1.88h2.1v-3.25Z"/><path class="cls-2" d="M719.51,312.37c0,1.4,0,2.63.11,3.7h-2.18l-.14-2.21h-.06a5.1,5.1,0,0,1-4.48,2.52c-2.13,0-4.68-1.18-4.68-5.94v-7.92h2.46V310c0,2.58.78,4.31,3,4.31a3.56,3.56,0,0,0,3.25-2.24,3.6,3.6,0,0,0,.22-1.26v-8.32h2.46Z"/><path class="cls-2" d="M723.6,306.74c0-1.6,0-3-.11-4.23h2.16l.08,2.66h.11a4.07,4.07,0,0,1,3.75-3,2.66,2.66,0,0,1,.7.08v2.32a3.72,3.72,0,0,0-.84-.08,3.46,3.46,0,0,0-3.3,3.16,7,7,0,0,0-.11,1.15v7.22H723.6Z"/><path class="cls-2" d="M734.13,309.74c.06,3.33,2.18,4.7,4.65,4.7a8.91,8.91,0,0,0,3.75-.7l.42,1.76a11,11,0,0,1-4.51.84c-4.17,0-6.66-2.74-6.66-6.83s2.41-7.31,6.36-7.31c4.42,0,5.6,3.89,5.6,6.38a9.33,9.33,0,0,1-.08,1.15Zm7.22-1.76c0-1.57-.64-4-3.42-4-2.49,0-3.58,2.3-3.78,4Z"/><path class="cls-2" d="M620.23,344.07c-.53-.53-1-1.06-1.76-1.85a7.73,7.73,0,0,1-5.52,2.16c-3.67,0-5.8-2.46-5.8-5.29,0-2.58,1.54-4.34,3.7-5.52v-.08a6.48,6.48,0,0,1-1.57-3.95,4.58,4.58,0,0,1,4.79-4.65,3.93,3.93,0,0,1,4.17,4c0,2-1.15,3.56-4.14,5V334c1.6,1.85,3.39,3.92,4.59,5.26a13.84,13.84,0,0,0,1.82-5.52h2.24c-.5,3-1.32,5.32-2.72,7,1,1.06,2,2.13,3.11,3.33Zm-3-3.25c-1.12-1.23-3.22-3.53-5.32-5.94a4.64,4.64,0,0,0-2.44,3.84,3.72,3.72,0,0,0,3.86,3.81A5.27,5.27,0,0,0,617.26,340.82Zm-5.74-11.51a5.29,5.29,0,0,0,1.43,3.39c1.9-1.09,3.14-2.1,3.14-3.7a2.22,2.22,0,0,0-2.18-2.44A2.46,2.46,0,0,0,611.52,329.31Z"/><path class="cls-2" d="M631.2,334.74c0-1.6,0-3-.11-4.23h2.16l.08,2.66h.11a4.07,4.07,0,0,1,3.75-3,2.66,2.66,0,0,1,.7.08v2.32a3.72,3.72,0,0,0-.84-.08,3.46,3.46,0,0,0-3.3,3.16,7,7,0,0,0-.11,1.15v7.22H631.2Z"/><path class="cls-2" d="M641.73,337.74c.06,3.33,2.18,4.7,4.65,4.7a8.91,8.91,0,0,0,3.75-.7l.42,1.76a11,11,0,0,1-4.51.84c-4.17,0-6.66-2.74-6.66-6.83s2.41-7.31,6.36-7.31c4.42,0,5.6,3.89,5.6,6.38a9.33,9.33,0,0,1-.08,1.15ZM649,336c0-1.57-.64-4-3.42-4-2.49,0-3.58,2.3-3.78,4Z"/><path class="cls-2" d="M664,343.56a9.08,9.08,0,0,1-3.89.78c-4.09,0-6.75-2.77-6.75-6.92a6.89,6.89,0,0,1,7.28-7.2,8.24,8.24,0,0,1,3.42.7l-.56,1.9a5.72,5.72,0,0,0-2.86-.64c-3.11,0-4.79,2.3-4.79,5.12,0,3.14,2,5.07,4.7,5.07a7,7,0,0,0,3-.67Z"/><path class="cls-2" d="M666.93,334.74c0-1.6,0-3-.11-4.23H669l.08,2.66h.11a4.07,4.07,0,0,1,3.75-3,2.66,2.66,0,0,1,.7.08v2.32a3.72,3.72,0,0,0-.84-.08,3.46,3.46,0,0,0-3.3,3.16,7,7,0,0,0-.11,1.15v7.22h-2.44Z"/><path class="cls-2" d="M677.46,337.74c.06,3.33,2.18,4.7,4.65,4.7a8.91,8.91,0,0,0,3.75-.7l.42,1.76a11,11,0,0,1-4.51.84c-4.17,0-6.66-2.74-6.66-6.83s2.41-7.31,6.36-7.31c4.42,0,5.6,3.89,5.6,6.38a9.33,9.33,0,0,1-.08,1.15Zm7.22-1.76c0-1.57-.64-4-3.42-4-2.49,0-3.58,2.3-3.78,4Z"/><path class="cls-2" d="M697.62,344.07l-.2-1.71h-.08a5,5,0,0,1-4.14,2,3.86,3.86,0,0,1-4.14-3.89c0-3.28,2.91-5.07,8.15-5v-.28a2.79,2.79,0,0,0-3.08-3.14,6.75,6.75,0,0,0-3.53,1l-.56-1.62a8.41,8.41,0,0,1,4.45-1.2c4.14,0,5.15,2.83,5.15,5.54v5.07a19.08,19.08,0,0,0,.22,3.25Zm-.36-6.92c-2.69-.06-5.74.42-5.74,3.05a2.18,2.18,0,0,0,2.32,2.35,3.37,3.37,0,0,0,3.28-2.27,2.58,2.58,0,0,0,.14-.78Z"/><path class="cls-2" d="M706.58,326.62v3.89h3.53v1.88h-3.53v7.31c0,1.68.48,2.63,1.85,2.63a5.48,5.48,0,0,0,1.43-.17L710,344a6,6,0,0,1-2.18.34,3.41,3.41,0,0,1-2.66-1,5,5,0,0,1-1-3.53v-7.39h-2.1v-1.88h2.1v-3.25Z"/><path class="cls-2" d="M715.62,326.71a1.53,1.53,0,0,1-3.05,0,1.5,1.5,0,0,1,1.54-1.54A1.46,1.46,0,0,1,715.62,326.71Zm-2.74,17.36V330.52h2.46v13.55Z"/><path class="cls-2" d="M731.69,337.18c0,5-3.47,7.2-6.75,7.2-3.67,0-6.5-2.69-6.5-7,0-4.54,3-7.2,6.72-7.2S731.69,333,731.69,337.18Zm-10.75.14c0,3,1.71,5.21,4.12,5.21s4.12-2.21,4.12-5.26c0-2.3-1.15-5.21-4.06-5.21S720.94,334.74,720.94,337.32Z"/><path class="cls-2" d="M734.8,334.18c0-1.4,0-2.55-.11-3.67h2.18l.14,2.24h.06a5,5,0,0,1,4.48-2.55c1.88,0,4.79,1.12,4.79,5.77v8.09h-2.46v-7.81c0-2.18-.81-4-3.14-4a3.5,3.5,0,0,0-3.3,2.52,3.55,3.55,0,0,0-.17,1.15v8.15H734.8Z"/><circle class="cls-3" cx="673.87" cy="243.03" r="40"/><path class="cls-4" d="M695,234.18H652.79v-1.64H695Z"/><rect class="cls-4" x="667.26" y="234.95" width="2.96" height="19.69"/><rect class="cls-4" x="677.53" y="234.95" width="2.95" height="19.69"/><rect class="cls-4" x="687.8" y="234.95" width="2.96" height="19.69"/><polygon class="cls-4" points="671.02 237.47 666.45 237.47 665.88 234.95 671.59 234.95 671.02 237.47"/><polygon class="cls-4" points="670.96 252.12 666.51 252.12 665.95 254.63 671.52 254.63 670.96 252.12"/><rect class="cls-4" x="656.98" y="234.95" width="2.95" height="19.69"/><polygon class="cls-4" points="660.74 237.47 656.17 237.47 655.6 234.95 661.31 234.95 660.74 237.47"/><polygon class="cls-4" points="660.68 252.12 656.23 252.12 655.68 254.63 661.24 254.63 660.68 252.12"/><polygon class="cls-4" points="681.29 237.47 676.72 237.47 676.15 234.95 681.86 234.95 681.29 237.47"/><polygon class="cls-4" points="681.23 252.12 676.78 252.12 676.22 254.63 681.79 254.63 681.23 252.12"/><polygon class="cls-4" points="691.57 237.47 687 237.47 686.43 234.95 692.14 234.95 691.57 237.47"/><polygon class="cls-4" points="691.51 252.12 687.06 252.12 686.5 254.63 692.06 254.63 691.51 252.12"/><polygon class="cls-4" points="673.87 225.02 694.96 232.74 652.79 232.74 673.87 225.02"/><path class="cls-4" d="M698.07,258.82H649.66V257.6s0,0,0,0h48.39s0,0,0,0Z"/><path class="cls-4" d="M694.63,256.59H653.11v-1.23h41.53Z"/><path class="cls-4" d="M701,261H646.7V259.8H701Z"/><path class="cls-2" d="M164.54,131.54a12.09,12.09,0,0,1-5,.9c-5.32,0-9.32-3.36-9.32-9.55,0-5.91,4-9.91,9.86-9.91a10.12,10.12,0,0,1,4.48.84l-.59,2a8.88,8.88,0,0,0-3.81-.78c-4.42,0-7.36,2.83-7.36,7.78,0,4.62,2.66,7.59,7.25,7.59a9.75,9.75,0,0,0,4-.78Z"/><path class="cls-2" d="M167.5,122.84c0-1.6,0-3-.11-4.23h2.16l.08,2.66h.11a4.07,4.07,0,0,1,3.75-3,2.66,2.66,0,0,1,.7.08v2.32a3.72,3.72,0,0,0-.84-.08,3.46,3.46,0,0,0-3.3,3.16,7,7,0,0,0-.11,1.15v7.22H167.5Z"/><path class="cls-2" d="M188.92,125.27c0,5-3.47,7.2-6.75,7.2-3.67,0-6.5-2.69-6.5-7,0-4.54,3-7.2,6.72-7.2S188.92,121.13,188.92,125.27Zm-10.75.14c0,3,1.71,5.21,4.12,5.21s4.12-2.21,4.12-5.26c0-2.3-1.15-5.21-4.06-5.21S178.17,122.84,178.17,125.41Z"/><path class="cls-2" d="M191.7,129.64a6.46,6.46,0,0,0,3.25,1c1.79,0,2.63-.9,2.63-2s-.7-1.82-2.52-2.49c-2.44-.87-3.58-2.21-3.58-3.84,0-2.18,1.76-4,4.68-4a6.77,6.77,0,0,1,3.33.84l-.62,1.79a5.28,5.28,0,0,0-2.77-.78c-1.46,0-2.27.84-2.27,1.85s.81,1.62,2.58,2.3c2.35.9,3.56,2.07,3.56,4.09,0,2.38-1.85,4.06-5.07,4.06a7.73,7.73,0,0,1-3.81-.92Z"/><path class="cls-2" d="M202.78,129.64a6.46,6.46,0,0,0,3.25,1c1.79,0,2.63-.9,2.63-2s-.7-1.82-2.52-2.49c-2.44-.87-3.58-2.21-3.58-3.84,0-2.18,1.76-4,4.68-4a6.77,6.77,0,0,1,3.33.84l-.62,1.79a5.28,5.28,0,0,0-2.77-.78c-1.46,0-2.27.84-2.27,1.85s.81,1.62,2.58,2.3c2.35.9,3.56,2.07,3.56,4.09,0,2.38-1.85,4.06-5.07,4.06a7.73,7.73,0,0,1-3.81-.92Z"/><path class="cls-2" d="M219.92,123.68v1.82H213v-1.82Z"/><path class="cls-2" d="M126,146.61c-.06,1-.11,2.07-.11,3.72v7.87c0,3.11-.62,5-1.93,6.19A7.18,7.18,0,0,1,119,166a8.75,8.75,0,0,1-4.51-1.12l.62-1.88a7.64,7.64,0,0,0,4,1.06c2.52,0,4.37-1.32,4.37-4.73v-1.51h-.06a4.84,4.84,0,0,1-4.31,2.27c-3.36,0-5.77-2.86-5.77-6.61,0-4.59,3-7.2,6.1-7.2a4.51,4.51,0,0,1,4.23,2.35h.06l.11-2ZM123.46,152a3.5,3.5,0,0,0-.14-1.12,3.55,3.55,0,0,0-3.44-2.6c-2.35,0-4,2-4,5.12,0,2.66,1.34,4.87,4,4.87a3.6,3.6,0,0,0,3.42-2.52,4.3,4.3,0,0,0,.2-1.32Z"/><path class="cls-2" d="M142.25,153.27c0,5-3.47,7.2-6.75,7.2-3.67,0-6.5-2.69-6.5-7,0-4.54,3-7.2,6.72-7.2S142.25,149.13,142.25,153.27Zm-10.75.14c0,3,1.71,5.21,4.12,5.21s4.12-2.21,4.12-5.26c0-2.3-1.15-5.21-4.06-5.21S131.5,150.84,131.5,153.41Z"/><path class="cls-2" d="M146.31,146.61l2.66,7.62a34.85,34.85,0,0,1,1.09,3.47h.08c.31-1.12.7-2.24,1.15-3.47l2.63-7.62h2.58l-5.32,13.55h-2.35l-5.15-13.55Z"/><path class="cls-2" d="M160.2,153.83c.06,3.33,2.18,4.7,4.65,4.7a8.91,8.91,0,0,0,3.75-.7l.42,1.76a11,11,0,0,1-4.51.84c-4.17,0-6.66-2.74-6.66-6.83s2.41-7.31,6.36-7.31c4.42,0,5.6,3.89,5.6,6.38a9.33,9.33,0,0,1-.08,1.15Zm7.22-1.76c0-1.57-.64-4-3.42-4-2.49,0-3.58,2.3-3.78,4Z"/><path class="cls-2" d="M172.85,150.84c0-1.6,0-3-.11-4.23h2.16l.08,2.66h.11a4.07,4.07,0,0,1,3.75-3,2.66,2.66,0,0,1,.7.08v2.32a3.72,3.72,0,0,0-.84-.08,3.46,3.46,0,0,0-3.3,3.16,7,7,0,0,0-.11,1.15v7.22h-2.44Z"/><path class="cls-2" d="M182,150.28c0-1.4,0-2.55-.11-3.67h2.18l.14,2.24h.06a5,5,0,0,1,4.48-2.55c1.88,0,4.79,1.12,4.79,5.77v8.09h-2.46v-7.81c0-2.18-.81-4-3.14-4a3.5,3.5,0,0,0-3.3,2.52,3.55,3.55,0,0,0-.17,1.15v8.15H182Z"/><path class="cls-2" d="M197.55,150.28c0-1.4,0-2.55-.11-3.67h2.16l.11,2.18h.08A4.67,4.67,0,0,1,204,146.3a4,4,0,0,1,3.84,2.72h.06a5.58,5.58,0,0,1,1.51-1.76,4.62,4.62,0,0,1,3-1c1.79,0,4.45,1.18,4.45,5.88v8h-2.41v-7.67c0-2.6-1-4.17-2.94-4.17a3.19,3.19,0,0,0-2.91,2.24,4.06,4.06,0,0,0-.2,1.23v8.37H206V152c0-2.16-1-3.72-2.83-3.72A3.67,3.67,0,0,0,200,152v8.18h-2.41Z"/><path class="cls-2" d="M222.27,153.83c.06,3.33,2.18,4.7,4.65,4.7a8.91,8.91,0,0,0,3.75-.7l.42,1.76a11,11,0,0,1-4.51.84c-4.17,0-6.66-2.74-6.66-6.83s2.41-7.31,6.36-7.31c4.42,0,5.6,3.89,5.6,6.38a9.33,9.33,0,0,1-.08,1.15Zm7.22-1.76c0-1.57-.64-4-3.42-4-2.49,0-3.58,2.3-3.78,4Z"/><path class="cls-2" d="M234.93,150.28c0-1.4,0-2.55-.11-3.67H237l.14,2.24h.06a5,5,0,0,1,4.48-2.55c1.88,0,4.79,1.12,4.79,5.77v8.09H244v-7.81c0-2.18-.81-4-3.14-4a3.5,3.5,0,0,0-3.3,2.52,3.55,3.55,0,0,0-.17,1.15v8.15h-2.46Z"/><path class="cls-2" d="M253.44,142.72v3.89H257v1.88h-3.53v7.31c0,1.68.48,2.63,1.85,2.63a5.48,5.48,0,0,0,1.43-.17l.11,1.85a6,6,0,0,1-2.18.34,3.41,3.41,0,0,1-2.66-1,5,5,0,0,1-1-3.53v-7.39h-2.1v-1.88H251v-3.25Z"/><circle class="cls-3" cx="184.99" cy="64.92" r="40"/><path class="cls-4" d="M175.11,57a1.74,1.74,0,0,0-.63.42c-.2.26-.13.39,0,.33s.29.05.42,0,.28.2.28-.08.26-.2.44-.25.18-.14.05-.27a.58.58,0,0,0-.56-.11"/><path class="cls-4" d="M175.19,58.3s-.07.16-.16.14-.16.34,0,.25.31-.08.36,0,.1-.06,0-.2-.14-.25-.23-.2"/><path class="cls-4" d="M181,43.42a.84.84,0,0,1-.21-.06c-.14-.06-.12.06-.07.12s.11.21.28.17.23-.08.2-.18a.11.11,0,0,0-.2,0"/><path class="cls-4" d="M181,44.27s-.07.19-.18.17-.16.28,0,.29.21-.18.28-.23.12-.17.06-.23-.08,0-.16,0"/><path class="cls-4" d="M198.58,70.06s.06.14-.07.11-.12.07,0,.18.29.25.26.38,0,.31.11.21.16-.21.23-.21,0-.21-.15-.32-.23-.21-.23-.3-.15-.11-.14-.05"/><path class="cls-4" d="M199.85,73.19s-.21-.13-.16,0a2.14,2.14,0,0,0,.22.39c.08.17.19.3.33.21s0-.13,0-.33-.25-.35-.34-.31"/><path class="cls-4" d="M204.64,76.1a.63.63,0,0,1-.2.19c-.11.06-.07.14,0,.24a.38.38,0,0,1-.07.47c-.15.19-.28.3-.26.41s.13.42,0,.56-.14.2,0,.41.07.48.16.35,0-.75.17-.94a2,2,0,0,0,.28-.62c.08-.16.28-.35.11-.48a.3.3,0,0,1-.09-.39c0-.07-.06-.21-.06-.21"/><path class="cls-4" d="M205.08,81.49a.27.27,0,0,0-.1.31c.07.18.06.59.16.46a1.55,1.55,0,0,0,.1-.57c0-.14-.16-.19-.16-.19"/><path class="cls-4" d="M205.19,82.28a2.35,2.35,0,0,0-.09.24c0,.09,0,.78,0,.91s.05.22.09.11,0-.48.12-.65a.62.62,0,0,0,0-.49.18.18,0,0,0-.12-.11"/><path class="cls-4" d="M188.34,85.92c.23-.19.67-.7,1.1-.49a.65.65,0,0,0,.79-.08,3.15,3.15,0,0,1,1.27,0c.31.07,1,.26,1.19.64s.43.72.71.21a1.68,1.68,0,0,1,1-.79c.31-.12.84-.43,1.1-.57a1.48,1.48,0,0,1,1.2-.22c.41.19.86-.59,1.1-.74v0a1.77,1.77,0,0,1-.09-.64,2.52,2.52,0,0,0-.36-.9c-.18-.29-.36-.34-.2-.77s-.06-.46,0-1-.21-.34-.21-.76.18-.48.21-.76-.17-.27-.26-.18,0-.29-.15-.48-.33-.36-.14-.51a.28.28,0,0,0-.16-.49,1,1,0,0,1-.75-.54c-.22-.38-.07-.61-.41-.76s-.89-.45-.77-.57,0-.39-.12-.58a.88.88,0,0,0-.82-.56c-.5,0-.58-.33-.83-.57a2.62,2.62,0,0,1-.68-.8,3.66,3.66,0,0,1-.13-1.21c0-.27.19-.62.09-.84s-.11-.11-.22,0a.25.25,0,0,1-.44,0c-.15-.22-.71-.44-.78-.71s-.08-.33-.35-.45-.29.13-.18.24a.38.38,0,0,1,.16.43.4.4,0,0,0,.1.43c.1.11.05.25-.09.07s-.23-.38-.34-.38-.06.15-.3-.11-.16-.47-.29-.73a1.42,1.42,0,0,1-.19-.81c.05-.24.11-.31-.14-.52a.63.63,0,0,1-.25-.67c0-.26,0-.42-.21-.42s-.22-.12-.23-.28-.09,0-.27-.07a.6.6,0,0,1-.41-.37c-.08-.22-.18-.57.07-.47s.35.27.34.13a1.27,1.27,0,0,0-.48-.7c-.31-.23-.26-.13-.3-.28a.17.17,0,0,0-.3,0c0,.11-.25,0-.36-.24s-.24-.23-.51-.25-.25.06-.31-.19-.26-.16-.29,0-.42.11-.43-.13.13-.49-.11-.83-.1-.07-.27,0-.68.12-.74-.23-.28-.19-.36-.37-.25,0-.39.11-.92-.27-.88-.69a6,6,0,0,0,.06-.81c0-.27.08-.42-.11-.61s-.37-.17-.4,0-.3-.11-.19-.34a1.81,1.81,0,0,0,.26-1c-.07-.32-.49-1.1-.37-1.3a.33.33,0,0,0-.16-.51,1.51,1.51,0,0,1-.82-.71c-.07-.29.1-.72-.13-1.13a1.43,1.43,0,0,1-.28-1.09c.12-.34.12-.4-.07-.48s-.11-.25,0-.37.13-.22-.13-.45A4.34,4.34,0,0,0,179,53c-.36-.19-.21-.28-.21-.52s-.22-.43-.44-.25-.42,0-.52.18-.22.39-.53.39-.51-.06-.49-.45a1.14,1.14,0,0,0-.24-.79.75.75,0,0,1-.1-.69,1.16,1.16,0,0,0,0-.65,8.39,8.39,0,0,1-.05-1c0-.22-.12-.1-.19,0s-.11-.28,0-.4-.23-.21-.32-.33-.16-.42-.4-.42-.09-.35.1-.55,0-.35-.16-.34-.47,0-.49-.45,0-.58-.08-.78,0-.49-.21-.74-.5-.18-.38-.4,0-.3-.2-.25-.17.37-.5.43-.33.32-.34.57.08.92-.1,1.16a.52.52,0,0,0-.11.48c0,.12.05.43-.06.33s-.23-.19-.31,0-.13.41-.18.53-.17.42.07.48.44.12.42.27,0,.43-.11.22-.2-.21-.21,0a.51.51,0,0,1-.22.42c-.15.1-.18.18,0,.36s.31.44.22.5-.41,0-.43.37-.14.92,0,1.1a.74.74,0,0,1,.07.75,1.9,1.9,0,0,0,0,.81c0,.12.2.39.21.66s-.16.4-.27.62a3.13,3.13,0,0,0-.31.76c0,.13.08.36,0,.43a.3.3,0,0,0,0,.37.32.32,0,0,1,0,.37,1.38,1.38,0,0,0-.28.61c0,.24-.15.74-.41.88s-.2.55-.27.72a1.38,1.38,0,0,1-.49.77c-.3.16-1,.57-1.46.38s-.94-.34-1-.61-.62-.05-.69-.37-.32-.86-.76-1a3.94,3.94,0,0,1-1.44-.39l-.44-.27V79.17H171v7.08h16.79a2.56,2.56,0,0,0,.59-.33"/><path class="cls-2" d="M402.23,132.16l-4.79-18.87H400l2.24,9.55c.56,2.35,1.06,4.7,1.4,6.52h.06c.31-1.88.9-4.12,1.54-6.55l2.52-9.52h2.55l2.3,9.58c.53,2.24,1,4.48,1.32,6.47H414c.39-2.07.92-4.17,1.51-6.52l2.49-9.52h2.49l-5.35,18.87h-2.55l-2.38-9.83a56.83,56.83,0,0,1-1.23-6.16h-.06a58.89,58.89,0,0,1-1.46,6.16l-2.69,9.83Z"/><path class="cls-2" d="M430.26,132.16l-.2-1.71H430a5,5,0,0,1-4.14,2,3.86,3.86,0,0,1-4.14-3.89c0-3.28,2.91-5.07,8.15-5v-.28a2.79,2.79,0,0,0-3.08-3.14,6.75,6.75,0,0,0-3.53,1l-.56-1.62a8.41,8.41,0,0,1,4.45-1.2c4.14,0,5.15,2.83,5.15,5.54v5.07a19.08,19.08,0,0,0,.22,3.25Zm-.36-6.92c-2.69-.06-5.74.42-5.74,3.05a2.18,2.18,0,0,0,2.32,2.35,3.37,3.37,0,0,0,3.28-2.27,2.58,2.58,0,0,0,.14-.78Z"/><path class="cls-2" d="M439.22,114.72v3.89h3.53v1.88h-3.53v7.31c0,1.68.48,2.63,1.85,2.63a5.48,5.48,0,0,0,1.43-.17l.11,1.85a6,6,0,0,1-2.18.34,3.41,3.41,0,0,1-2.66-1,5,5,0,0,1-1-3.53v-7.39h-2.1v-1.88h2.1v-3.25Z"/><path class="cls-2" d="M446.89,125.83c.06,3.33,2.18,4.7,4.65,4.7a8.91,8.91,0,0,0,3.75-.7l.42,1.76a11,11,0,0,1-4.51.84c-4.17,0-6.66-2.74-6.66-6.83s2.41-7.31,6.36-7.31c4.42,0,5.6,3.89,5.6,6.38a9.33,9.33,0,0,1-.08,1.15Zm7.22-1.76c0-1.57-.64-4-3.42-4-2.49,0-3.58,2.3-3.78,4Z"/><path class="cls-2" d="M459.55,122.84c0-1.6,0-3-.11-4.23h2.16l.08,2.66h.11a4.07,4.07,0,0,1,3.75-3,2.66,2.66,0,0,1,.7.08v2.32a3.72,3.72,0,0,0-.84-.08,3.46,3.46,0,0,0-3.3,3.16,7,7,0,0,0-.11,1.15v7.22h-2.44Z"/><circle class="cls-3" cx="431.84" cy="64.92" r="40"/><path class="cls-4" d="M433.39,87.21a6.69,6.69,0,0,1-6.68-6.68,1.51,1.51,0,0,1,3,0,3.67,3.67,0,0,0,3.66,3.66,1.51,1.51,0,1,1,0,3m5.91-16c-1.71-2.83-3.4-5.15-3.47-5.26l-1.22-1.68-1.22-1.68-1.22,1.68L431,65.92c-.07.1-1.76,2.43-3.47,5.26-2.57,4.24-3.77,7.21-3.77,9.33a9.68,9.68,0,0,0,19.36,0c0-2.12-1.2-5.08-3.77-9.33"/><path class="cls-4" d="M419.08,71.74a5.63,5.63,0,0,1-5.63-5.63,1.27,1.27,0,0,1,2.54,0,3.09,3.09,0,0,0,3.09,3.09,1.27,1.27,0,0,1,0,2.54m5-13.52c-1.44-2.38-2.87-4.35-2.92-4.43l-1-1.42-1-1.41-1,1.41-1,1.42c-.06.08-1.49,2.05-2.93,4.43-2.16,3.57-3.17,6.07-3.17,7.86a8.16,8.16,0,0,0,16.32,0c0-1.79-1-4.29-3.17-7.86"/><path class="cls-4" d="M444.6,63A5.63,5.63,0,0,1,439,57.37a1.27,1.27,0,0,1,2.54,0,3.09,3.09,0,0,0,3.09,3.09,1.27,1.27,0,1,1,0,2.54m5-13.52c-1.44-2.38-2.86-4.35-2.93-4.43l-1-1.42-1-1.42-1,1.42-1,1.42c-.06.08-1.48,2.05-2.93,4.43-2.17,3.57-3.17,6.07-3.17,7.85a8.16,8.16,0,0,0,16.32,0c0-1.78-1-4.28-3.17-7.85"/><path class="cls-2" d="M347.3,297.2h2.44v12.63c0,5-2.46,6.55-5.71,6.55a7.89,7.89,0,0,1-2.6-.45l.36-2a5.81,5.81,0,0,0,2,.36c2.18,0,3.47-1,3.47-4.68Z"/><path class="cls-2" d="M365,312.37c0,1.4,0,2.63.11,3.7H363l-.14-2.21h-.06a5.1,5.1,0,0,1-4.48,2.52c-2.13,0-4.68-1.18-4.68-5.94v-7.92h2.46V310c0,2.58.78,4.31,3,4.31a3.56,3.56,0,0,0,3.25-2.24,3.6,3.6,0,0,0,.22-1.26v-8.32H365Z"/><path class="cls-2" d="M368.8,313.55a6.46,6.46,0,0,0,3.25,1c1.79,0,2.63-.9,2.63-2s-.7-1.82-2.52-2.49c-2.44-.87-3.58-2.21-3.58-3.84,0-2.18,1.76-4,4.68-4a6.77,6.77,0,0,1,3.33.84l-.62,1.79a5.28,5.28,0,0,0-2.77-.78c-1.46,0-2.27.84-2.27,1.85s.81,1.62,2.58,2.3c2.35.9,3.56,2.07,3.56,4.09,0,2.38-1.85,4.06-5.07,4.06a7.73,7.73,0,0,1-3.81-.92Z"/><path class="cls-2" d="M383.19,298.62v3.89h3.53v1.88h-3.53v7.31c0,1.68.48,2.63,1.85,2.63a5.48,5.48,0,0,0,1.43-.17l.11,1.85a6,6,0,0,1-2.18.34,3.41,3.41,0,0,1-2.66-1,5,5,0,0,1-1-3.53v-7.39h-2.1v-1.88h2.1v-3.25Z"/><path class="cls-2" d="M392.24,298.71a1.53,1.53,0,0,1-3.05,0,1.5,1.5,0,0,1,1.54-1.54A1.46,1.46,0,0,1,392.24,298.71Zm-2.74,17.36V302.52H392v13.55Z"/><path class="cls-2" d="M405.71,315.56a9.08,9.08,0,0,1-3.89.78c-4.09,0-6.75-2.77-6.75-6.92a6.89,6.89,0,0,1,7.28-7.2,8.24,8.24,0,0,1,3.42.7l-.56,1.9a5.72,5.72,0,0,0-2.86-.64c-3.11,0-4.79,2.3-4.79,5.12,0,3.14,2,5.07,4.7,5.07a7,7,0,0,0,3-.67Z"/><path class="cls-2" d="M410,309.74c.06,3.33,2.18,4.7,4.65,4.7a8.91,8.91,0,0,0,3.75-.7l.42,1.76a11,11,0,0,1-4.51.84c-4.17,0-6.66-2.74-6.66-6.83s2.41-7.31,6.36-7.31c4.42,0,5.6,3.89,5.6,6.38a9.33,9.33,0,0,1-.08,1.15Zm7.22-1.76c0-1.57-.64-4-3.42-4-2.49,0-3.58,2.3-3.78,4Z"/><path class="cls-2" d="M440.45,316.07c-.53-.53-1-1.06-1.76-1.85a7.73,7.73,0,0,1-5.52,2.16c-3.67,0-5.8-2.46-5.8-5.29,0-2.58,1.54-4.34,3.7-5.52v-.08a6.48,6.48,0,0,1-1.57-3.95,4.58,4.58,0,0,1,4.79-4.65,3.93,3.93,0,0,1,4.17,4c0,2-1.15,3.56-4.14,5V306c1.6,1.85,3.39,3.92,4.59,5.26a13.84,13.84,0,0,0,1.82-5.52H443c-.5,3-1.32,5.32-2.72,7,1,1.06,2,2.13,3.11,3.33Zm-3-3.25c-1.12-1.23-3.22-3.53-5.32-5.94a4.64,4.64,0,0,0-2.44,3.84,3.72,3.72,0,0,0,3.86,3.81A5.27,5.27,0,0,0,437.48,312.82Zm-5.74-11.51a5.29,5.29,0,0,0,1.43,3.39c1.9-1.09,3.14-2.1,3.14-3.7a2.22,2.22,0,0,0-2.18-2.44A2.46,2.46,0,0,0,431.74,301.31Z"/><path class="cls-2" d="M451.43,306.94c0-1.74-.06-3.14-.11-4.42h2.21l.11,2.32h.06a5.33,5.33,0,0,1,4.82-2.63c3.28,0,5.74,2.77,5.74,6.89,0,4.87-3,7.28-6.16,7.28a4.75,4.75,0,0,1-4.17-2.13h-.06v7.36h-2.44Zm2.44,3.61a5.58,5.58,0,0,0,.11,1,3.8,3.8,0,0,0,3.7,2.88c2.6,0,4.12-2.13,4.12-5.24,0-2.72-1.43-5-4-5a3.93,3.93,0,0,0-3.72,3.05,4,4,0,0,0-.17,1Z"/><path class="cls-2" d="M478.7,312.37c0,1.4,0,2.63.11,3.7h-2.18l-.14-2.21h-.06a5.1,5.1,0,0,1-4.48,2.52c-2.13,0-4.68-1.18-4.68-5.94v-7.92h2.46V310c0,2.58.78,4.31,3,4.31a3.56,3.56,0,0,0,3.25-2.24,3.6,3.6,0,0,0,.22-1.26v-8.32h2.46Z"/><path class="cls-2" d="M482.68,316.07c.06-.92.11-2.3.11-3.5V296.19h2.44v8.51h.06a5,5,0,0,1,4.62-2.49c3.36,0,5.74,2.8,5.71,6.92,0,4.84-3.05,7.25-6.08,7.25a4.83,4.83,0,0,1-4.54-2.55h-.08l-.11,2.24Zm2.55-5.43a4.64,4.64,0,0,0,.11.9,3.8,3.8,0,0,0,3.7,2.88c2.58,0,4.12-2.1,4.12-5.21,0-2.72-1.4-5-4-5a3.93,3.93,0,0,0-3.75,3,4.84,4.84,0,0,0-.14,1Z"/><path class="cls-2" d="M498.72,296.19h2.46v19.88h-2.46Z"/><path class="cls-2" d="M508.07,298.71a1.53,1.53,0,0,1-3.05,0,1.5,1.5,0,0,1,1.54-1.54A1.46,1.46,0,0,1,508.07,298.71Zm-2.74,17.36V302.52h2.46v13.55Z"/><path class="cls-2" d="M521.54,315.56a9.08,9.08,0,0,1-3.89.78c-4.09,0-6.75-2.77-6.75-6.92a6.89,6.89,0,0,1,7.28-7.2,8.24,8.24,0,0,1,3.42.7l-.56,1.9a5.71,5.71,0,0,0-2.86-.64c-3.11,0-4.79,2.3-4.79,5.12,0,3.14,2,5.07,4.7,5.07a7,7,0,0,0,3-.67Z"/><path class="cls-2" d="M398.93,341.55a6.46,6.46,0,0,0,3.25,1c1.79,0,2.63-.9,2.63-2s-.7-1.82-2.52-2.49c-2.44-.87-3.58-2.21-3.58-3.84,0-2.18,1.76-4,4.68-4a6.77,6.77,0,0,1,3.33.84l-.62,1.79a5.28,5.28,0,0,0-2.77-.78c-1.46,0-2.27.84-2.27,1.85s.81,1.62,2.58,2.3c2.35.9,3.56,2.07,3.56,4.09,0,2.38-1.85,4.06-5.07,4.06a7.73,7.73,0,0,1-3.81-.92Z"/><path class="cls-2" d="M417.86,344.07l-.2-1.71h-.08a5,5,0,0,1-4.14,2,3.86,3.86,0,0,1-4.14-3.89c0-3.28,2.91-5.07,8.15-5v-.28a2.79,2.79,0,0,0-3.08-3.14,6.75,6.75,0,0,0-3.53,1l-.56-1.62a8.41,8.41,0,0,1,4.45-1.2c4.14,0,5.15,2.83,5.15,5.54v5.07a19.08,19.08,0,0,0,.22,3.25Zm-.36-6.92c-2.69-.06-5.74.42-5.74,3.05a2.18,2.18,0,0,0,2.32,2.35,3.37,3.37,0,0,0,3.28-2.27,2.57,2.57,0,0,0,.14-.78Z"/><path class="cls-2" d="M424.1,344.07V332.39h-1.9v-1.88h1.9v-.64a6.39,6.39,0,0,1,1.57-4.73,4.72,4.72,0,0,1,3.3-1.26,5.72,5.72,0,0,1,2.1.39l-.34,1.9a3.68,3.68,0,0,0-1.57-.31c-2.1,0-2.63,1.85-2.63,3.92v.73h3.28v1.88h-3.28v11.68Z"/><path class="cls-2" d="M433.4,337.74c.06,3.33,2.18,4.7,4.65,4.7a8.91,8.91,0,0,0,3.75-.7l.42,1.76a11,11,0,0,1-4.51.84c-4.17,0-6.66-2.74-6.66-6.83s2.41-7.31,6.36-7.31c4.42,0,5.6,3.89,5.6,6.38a9.33,9.33,0,0,1-.08,1.15Zm7.22-1.76c0-1.57-.64-4-3.42-4-2.49,0-3.58,2.3-3.78,4Z"/><path class="cls-2" d="M449,326.62v3.89h3.53v1.88H449v7.31c0,1.68.48,2.63,1.85,2.63a5.48,5.48,0,0,0,1.43-.17l.11,1.85a6,6,0,0,1-2.18.34,3.41,3.41,0,0,1-2.66-1,5,5,0,0,1-1-3.53v-7.39h-2.1v-1.88h2.1v-3.25Z"/><path class="cls-2" d="M456.22,330.52l3,8c.31.9.64,2,.87,2.77h.06c.25-.81.53-1.85.87-2.83l2.69-8h2.6l-3.7,9.66c-1.76,4.65-3,7-4.65,8.48a6.68,6.68,0,0,1-3,1.6l-.62-2.07a6.53,6.53,0,0,0,2.16-1.2,7.47,7.47,0,0,0,2.07-2.74,1.76,1.76,0,0,0,.2-.59,2.15,2.15,0,0,0-.17-.64l-5-12.49Z"/><circle class="cls-3" cx="431.84" cy="243.03" r="40"/><path class="cls-4" d="M416.93,234.13l6.49,15.62-2.66-.06-1.33,0-2.53,0h-2.58l-1.28,0-1.93,0-.69,0Zm29.88,0,6.5,15.62h-.07l-.68,0-1.92,0c-.44,0-.88,0-1.33,0l-2.53,0-1.93,0h-.65c-.42,0-.85,0-1.27,0l-2.62.06ZM410,251.44l.36.22.13.07.32.17.18.08a11.9,11.9,0,0,0,2,.75,14,14,0,0,0,4,.54,14.46,14.46,0,0,0,3.94-.54,13,13,0,0,0,2-.75c.29-.14.64-.32,1-.54a8.39,8.39,0,0,0,1-.72l.13-.11v-.79h-.21l-6.81-16.38,1,.12c1.31.15,2.72.27,4.31.39,2.41.17,4.93.26,7.64.28-.14,1.31-.26,2.63-.38,3.9l-.36,4.15-.29,4.15c0,.64-.1,1.31-.18,2.06l-.09.73c0,.45-.09.9-.14,1.35-.07.78-.11,1.47-.11,2.1a20.54,20.54,0,0,0,.09,2.11c.1,1,.23,2.05.41,3l-.89.12a17.4,17.4,0,0,0-3,.72c-.5.16-1,.35-1.48.57a14.61,14.61,0,0,0-1.48.74,15.1,15.1,0,0,0-1.49.94,11.84,11.84,0,0,0-1.5,1.25l-.1.1v1l3.25.14,2.9.07,5.82.06h0l2.91,0h.93l2,0,2.9-.07,1.46-.06,1.8-.08v-1l-.11-.1a11.91,11.91,0,0,0-1.5-1.24,16.1,16.1,0,0,0-1.49-.94,16.93,16.93,0,0,0-3-1.3,17.75,17.75,0,0,0-3-.72l-.8-.11c.18-1,.32-2,.42-3.05a20.63,20.63,0,0,0,.09-2.11c0-.64,0-1.32-.11-2.11,0-.45-.1-.9-.15-1.34,0-.25-.06-.49-.08-.73-.09-.75-.14-1.42-.19-2.06l-.29-4.15-.36-4.15c-.12-1.28-.24-2.6-.38-3.9,2.63,0,5.07-.11,7.45-.27,1.58-.11,3-.24,4.3-.38l1.1-.13L439,249.84h-.26v.8l.13.11a7.72,7.72,0,0,0,1,.71l.37.22.14.08.33.16.18.09a12.19,12.19,0,0,0,2,.75,14.1,14.1,0,0,0,3.94.54,14.45,14.45,0,0,0,3.94-.54,13.35,13.35,0,0,0,2-.75c.29-.14.63-.32,1-.54a7.31,7.31,0,0,0,1-.71l.13-.11v-.79h-.21l-6.81-16.38.56.08,1,.13c.21,0,.42.07.64.11l.33.07a3.22,3.22,0,0,0,1.13,0,5,5,0,0,0,1.08-.31,4.21,4.21,0,0,0,1.1-.64l.13-.1v-.54l-.13-.11a4.2,4.2,0,0,0-1.1-.64,5.13,5.13,0,0,0-1.07-.3,3.12,3.12,0,0,0-1.13,0l-.33.06c-.23,0-.44.09-.66.12l-1,.13-1,.16-.57.1c-.73-.11-1.45-.19-2.05-.26-1.31-.15-2.72-.28-4.3-.39-2.35-.16-4.76-.25-7.35-.27l.23-1.92c0-.33.09-.65.16-1,0-.17.06-.33.08-.5a4.55,4.55,0,0,0,.08-.81,4.22,4.22,0,0,0-.06-.81,8.31,8.31,0,0,0-.4-1.58,8.12,8.12,0,0,0-.34-.79,5.46,5.46,0,0,0-.5-.81l-.11-.14h-.61l-.1.14a5.38,5.38,0,0,0-.5.81,7.26,7.26,0,0,0-.34.79,7.83,7.83,0,0,0-.4,1.58,5.17,5.17,0,0,0-.06.81,5.3,5.3,0,0,0,.08.81c0,.16,0,.33.08.49.06.34.12.67.15,1l.09.76.15,1.16c-2.68,0-5.15.11-7.54.28-1.58.11-3,.24-4.31.39l-1.88.24-.47-.08-1-.16-1-.14a6.44,6.44,0,0,1-.66-.11l-.32-.06a3.14,3.14,0,0,0-1.13,0,5,5,0,0,0-1.09.3,4.06,4.06,0,0,0-1.11.64l-.13.11v.54l.13.1a4,4,0,0,0,1.11.64,4.93,4.93,0,0,0,1.08.31,3.28,3.28,0,0,0,1.14,0l.33-.07c.23,0,.44-.09.66-.11l1-.13.37-.05-6.78,16.31h-.25v.79l.13.11a7.21,7.21,0,0,0,1,.71"/><path class="cls-2" d="M885.09,307.22h-7.34V314h8.18v2H875.32V297.2h10.19v2h-7.76v6h7.34Z"/><path class="cls-2" d="M889,306.18c0-1.4,0-2.55-.11-3.67h2.18l.14,2.24h.06a5,5,0,0,1,4.48-2.55c1.88,0,4.79,1.12,4.79,5.77v8.09h-2.46v-7.81c0-2.18-.81-4-3.14-4a3.5,3.5,0,0,0-3.3,2.52,3.55,3.55,0,0,0-.17,1.15v8.15H889Z"/><path class="cls-2" d="M905.93,309.74c.06,3.33,2.18,4.7,4.65,4.7a8.91,8.91,0,0,0,3.75-.7l.42,1.76a11,11,0,0,1-4.51.84c-4.17,0-6.66-2.74-6.66-6.83s2.41-7.31,6.36-7.31c4.42,0,5.6,3.89,5.6,6.38a9.33,9.33,0,0,1-.08,1.15Zm7.22-1.76c0-1.57-.64-4-3.42-4-2.49,0-3.58,2.3-3.78,4Z"/><path class="cls-2" d="M918.58,306.74c0-1.6,0-3-.11-4.23h2.16l.08,2.66h.11a4.07,4.07,0,0,1,3.75-3,2.66,2.66,0,0,1,.7.08v2.32a3.72,3.72,0,0,0-.84-.08,3.46,3.46,0,0,0-3.3,3.16,7,7,0,0,0-.11,1.15v7.22h-2.44Z"/><path class="cls-2" d="M939.41,302.52c-.06,1-.11,2.07-.11,3.72v7.87c0,3.11-.62,5-1.93,6.19a7.18,7.18,0,0,1-4.93,1.62,8.75,8.75,0,0,1-4.51-1.12l.62-1.88a7.64,7.64,0,0,0,4,1.06c2.52,0,4.37-1.32,4.37-4.73v-1.51h-.06a4.84,4.84,0,0,1-4.31,2.27c-3.36,0-5.77-2.86-5.77-6.61,0-4.59,3-7.2,6.1-7.2a4.51,4.51,0,0,1,4.23,2.35h.06l.11-2Zm-2.55,5.35a3.5,3.5,0,0,0-.14-1.12,3.55,3.55,0,0,0-3.44-2.6c-2.35,0-4,2-4,5.12,0,2.66,1.34,4.87,4,4.87a3.6,3.6,0,0,0,3.42-2.52,4.3,4.3,0,0,0,.2-1.32Z"/><path class="cls-2" d="M944.29,302.52l3,8c.31.9.64,2,.87,2.77h.06c.25-.81.53-1.85.87-2.83l2.69-8h2.6l-3.7,9.66c-1.76,4.65-3,7-4.65,8.48a6.68,6.68,0,0,1-3,1.6l-.62-2.07a6.53,6.53,0,0,0,2.16-1.2,7.47,7.47,0,0,0,2.07-2.74,1.76,1.76,0,0,0,.2-.59,2.15,2.15,0,0,0-.17-.64l-5-12.49Z"/><circle class="cls-3" cx="913.86" cy="243.03" r="40"/><path class="cls-4" d="M919.22,254.4c-2.22,0-4.45,0-6.67,0h-1.63c-.84,0-1.67,0-2.51,0a1.4,1.4,0,0,0-1.42,1.87l0,.11a1.31,1.31,0,0,0,.72.72,2.11,2.11,0,0,0,.8.15h5.29c1.79,0,3.58,0,5.37,0a1.4,1.4,0,0,0,1.59-1.38c0-.88-.57-1.45-1.6-1.46"/><path class="cls-4" d="M919,259.12h-10.2a1.45,1.45,0,0,0-1.64,1.42,1.81,1.81,0,0,0,.05.35,1.32,1.32,0,0,0,.93.92,2,2,0,0,0,.63.1c1.69,0,3.37,0,5.06,0s3.42,0,5.13,0c1,0,1.65-.58,1.64-1.42a1.43,1.43,0,0,0-1.61-1.38"/><path class="cls-4" d="M908.89,263.81h-.21a7,7,0,0,0,2.66,2.44,5.5,5.5,0,0,0,2.54.61c3.31,0,5.19-3.05,5.19-3.05H908.89Z"/><path class="cls-4" d="M922,245.08l-6.39,1.66,0,4.74a2,2,0,0,0,2,2h0a2,2,0,0,0,2-2v-1.7l3.44-.89a2,2,0,0,0-1-3.84"/><path class="cls-4" d="M922,239.13l-15.79,4.11-1.52.39a2.31,2.31,0,0,0-.34,4.21h0l4,1.85.06,1.84a1.63,1.63,0,0,0,.07.46,2,2,0,0,0,1.4,1.4,1.89,1.89,0,0,0,.5.08h.05a2,2,0,0,0,1.94-2l-.11-4.31-1.92-.89L923,243a2,2,0,0,0-1-3.84"/><path class="cls-4" d="M922,231.69l-10.7,2.79-5.14,1.32-1.47.39a2,2,0,0,0-1.32,2.7,1.94,1.94,0,0,0,1,1,2,2,0,0,0,.79.17,1.86,1.86,0,0,0,.5-.07l3.73-1,5.13-1.33,8.44-2.2a2,2,0,1,0-1-3.83"/><path class="cls-4" d="M903.46,232a2,2,0,0,0,.84.84,2,2,0,0,0,.9.22,2.06,2.06,0,0,0,.5-.06l4.14-1.08L923,228.47a2,2,0,0,0,1.42-2.41,2.27,2.27,0,0,0-.11-.32,2,2,0,0,0-1-1,1.93,1.93,0,0,0-1.32-.12l-1,.25-14.45,3.76-1.89.5a2,2,0,0,0-1.42,2.41,1.92,1.92,0,0,0,.17.42"/><path class="cls-4" d="M903.29,224.5A2,2,0,0,0,905,226h.17a2.29,2.29,0,0,0,.5-.06l10.9-2.83a2,2,0,0,0,1.43-2.33.53.53,0,0,1,0-.09,2,2,0,0,0-1.51-1.43,1.93,1.93,0,0,0-.9,0l-10.89,2.84a2,2,0,0,0-1.47,2.09,1.81,1.81,0,0,0,.05.32"/></g></g></svg>