<svg xmlns="http://www.w3.org/2000/svg" viewBox="0 0 159.01 29.24"><defs><style>.cls-1{opacity:0.3;}.cls-2{fill:#00c0f2;}</style></defs><title>IP_sc4_regionBtn</title><g id="Layer_2" data-name="Layer 2"><g id="Ui"><g class="cls-1"><path class="cls-2" d="M3.19,7.22a38.09,38.09,0,0,1,7-.59c3.91,0,6.43.71,8.19,2.31a7.05,7.05,0,0,1,2.23,5.38,7.43,7.43,0,0,1-5.34,7.23v.13c2.19.76,3.49,2.77,4.16,5.71.92,3.95,1.6,6.68,2.18,7.77H17.85A36.77,36.77,0,0,1,16,28.39c-.84-3.91-2.35-5.38-5.67-5.5H6.85V35.15H3.19Zm3.65,12.9h3.74C14.49,20.12,17,18,17,14.74c0-3.65-2.65-5.25-6.51-5.29a15.05,15.05,0,0,0-3.61.34Z" transform="translate(-3.19 -6.38)"/><path class="cls-2" d="M41.5,21.88h-11V32.09H42.76v3.07H26.84V6.84H42.13V9.91H30.49v8.95h11Z" transform="translate(-3.19 -6.38)"/><path class="cls-2" d="M70.1,33.89a26.36,26.36,0,0,1-8.7,1.55c-4.28,0-7.81-1.09-10.59-3.74a14.56,14.56,0,0,1-3.95-10.54c0-8.44,5.84-14.62,15.33-14.62a17.5,17.5,0,0,1,7.06,1.3l-.88,3a14.67,14.67,0,0,0-6.26-1.22C55.23,9.61,50.74,13.9,50.74,21s4.33,11.43,10.92,11.43a11.91,11.91,0,0,0,4.87-.76V23.22H60.78V20.28H70.1Z" transform="translate(-3.19 -6.38)"/><path class="cls-2" d="M80.39,6.84V35.15H76.73V6.84Z" transform="translate(-3.19 -6.38)"/><path class="cls-2" d="M112,20.7c0,9.75-5.92,14.91-13.15,14.91-7.48,0-12.73-5.8-12.73-14.37,0-9,5.59-14.87,13.15-14.87C107,6.38,112,12.3,112,20.7Zm-22,.46c0,6,3.28,11.47,9,11.47s9.07-5.33,9.07-11.76c0-5.63-2.94-11.51-9-11.51S90,14.95,90,21.17Z" transform="translate(-3.19 -6.38)"/><path class="cls-2" d="M117.81,35.15V6.84h4l9.07,14.32a80.16,80.16,0,0,1,5.08,9.2l.08,0c-.34-3.78-.42-7.23-.42-11.64V6.84h3.45V35.15h-3.7l-9-14.37a89.85,89.85,0,0,1-5.29-9.45l-.13,0c.21,3.57.29,7,.29,11.68v12.1Z" transform="translate(-3.19 -6.38)"/><path class="cls-2" d="M146,30.7a13,13,0,0,0,6.55,1.85c3.74,0,5.92-2,5.92-4.83,0-2.65-1.51-4.16-5.33-5.63-4.62-1.64-7.48-4-7.48-8,0-4.41,3.65-7.69,9.16-7.69a12.86,12.86,0,0,1,6.26,1.39l-1,3a11.27,11.27,0,0,0-5.38-1.34c-3.87,0-5.33,2.31-5.33,4.24,0,2.65,1.72,3.95,5.63,5.46,4.79,1.85,7.23,4.16,7.23,8.32,0,4.37-3.23,8.15-9.91,8.15a14.63,14.63,0,0,1-7.23-1.81Z" transform="translate(-3.19 -6.38)"/></g></g></g></svg>