<svg xmlns="http://www.w3.org/2000/svg" viewBox="0 0 899.06 174.11"><defs><style>.cls-1{fill:#58595b;}</style></defs><title>IP_sc2_text_top</title><g id="Layer_2" data-name="Layer 2"><g id="Ui"><path class="cls-1" d="M86.23,7.54H80.5V27h-3V7.54H71.73V5H86.55Z" transform="translate(-2.39 -3.51)"/><path class="cls-1" d="M98.48,27V16a3.53,3.53,0,0,0-.54-2.24,2.56,2.56,0,0,0-1.76-.61,6.14,6.14,0,0,0-4.26,2.34V27h-3V7.54a14,14,0,0,0-.35-3.36l3-.61a16.34,16.34,0,0,1,.35,3.71v3.58c0,.58,0,1.31-.1,2.14a11,11,0,0,1,1.7-1.31A6.19,6.19,0,0,1,97,10.61a4.1,4.1,0,0,1,4,2.4,6.51,6.51,0,0,1,.32,2.59V27Z" transform="translate(-2.39 -3.51)"/><path class="cls-1" d="M108.63,8.18a2.08,2.08,0,0,1-2-2.11,2.1,2.1,0,1,1,4.19,0A2.14,2.14,0,0,1,108.63,8.18ZM107.13,27V11.09l3-.48V27Z" transform="translate(-2.39 -3.51)"/><path class="cls-1" d="M120.31,27.47a12.21,12.21,0,0,1-6-1.7l1.06-2.11a10.93,10.93,0,0,0,5.15,1.6c1.76,0,3-1,3-2.59,0-1.38-.83-2.18-2.69-2.53l-2-.38c-2.53-.51-3.9-2.08-3.9-4.45,0-2.94,2.34-5,5.79-5a10.19,10.19,0,0,1,5.06,1.31l-1,2.08a8.67,8.67,0,0,0-3.94-1.15c-1.7,0-2.78,1-2.78,2.4,0,1.15.58,1.79,2.27,2.18l2.08.48c2.94.67,4.16,2.37,4.16,4.48C126.61,25.3,124.05,27.47,120.31,27.47Z" transform="translate(-2.39 -3.51)"/><path class="cls-1" d="M149.94,27H137.49V24.43l4.16-3c2.91-2.14,4.8-3.58,4.8-5.82,0-1.73-1.22-2.66-3.23-2.66a8.53,8.53,0,0,0-4.77,2L137,13.3c2.34-2,4.42-3,7-3,3.42,0,5.82,1.82,5.82,4.8s-3.2,5.57-5.15,6.94L141,24.69c.45,0,2.34-.1,3.3-.1h6.27Z" transform="translate(-2.39 -3.51)"/><path class="cls-1" d="M161.94,27.47c-4.54,0-7.23-3.26-7.23-8.48s2.88-8.45,7.2-8.45c4.54,0,7.23,3.3,7.23,8.51S166.26,27.47,161.94,27.47Zm-.06-14.65c-2.69,0-4,2-4,5.86,0,4.86,1.38,6.53,4.1,6.53s4-2,4-5.86C166,14.48,164.6,12.82,161.88,12.82Z" transform="translate(-2.39 -3.51)"/><path class="cls-1" d="M174.45,27V24.66h3.14V14a20.81,20.81,0,0,1-4.22,2.11l-.7-1.54,5.66-4h2.14v14h2.82V27Z" transform="translate(-2.39 -3.51)"/><path class="cls-1" d="M199,13.81c-.42.61-1.73,2.62-2.59,4a58.83,58.83,0,0,0-3.65,7.49,44.92,44.92,0,0,0-2.4,6.88l-3.46.93a27.49,27.49,0,0,1,1.66-5.57,56.14,56.14,0,0,1,3-6.53,41,41,0,0,1,5.06-7.65,15.28,15.28,0,0,1-2.66.16h-8.16l.67-2.56h13.12Z" transform="translate(-2.39 -3.51)"/><path class="cls-1" d="M221.56,27.57a3.78,3.78,0,0,1-1.5-2.3,5.88,5.88,0,0,1-4.83,2.3,4.51,4.51,0,0,1-4.32-2.4,6.82,6.82,0,0,1-.38-2.69V11.09l2.91-.58V21.68c0,1.63.16,2.27.74,2.82a2.93,2.93,0,0,0,1.86.7,4.41,4.41,0,0,0,3.65-2.53V11.15l2.91-.58V22.64c0,1.63.35,2.78,1,3.33Z" transform="translate(-2.39 -3.51)"/><path class="cls-1" d="M235,27.34a6.16,6.16,0,0,1-4.16-1.66,16.18,16.18,0,0,1,.06,1.79V33.1l-2.88.67V14.93a17,17,0,0,0-.35-3.94l2.85-.48a8.31,8.31,0,0,1,.19,2.3,5.81,5.81,0,0,1,4.54-2.24c3.26,0,6,2.66,6,8.16C241.27,23.73,239.09,27.34,235,27.34Zm-.26-14.27a5,5,0,0,0-3.84,2v8.16A5,5,0,0,0,234.32,25c2.59,0,3.78-2,3.78-5.89S237.27,13.07,234.74,13.07Z" transform="translate(-2.39 -3.51)"/><path class="cls-1" d="M256,27a6.24,6.24,0,0,1-.29-1.5,5.35,5.35,0,0,1-4.13,1.76c-4.1,0-6.5-3.07-6.5-8.13,0-3.46,1.18-6.11,3.36-7.52a5.53,5.53,0,0,1,3.14-.93,4.78,4.78,0,0,1,3.9,1.86c0-.45-.06-1.73-.06-2.82V3.51l2.94.48V21.65a19.2,19.2,0,0,0,.45,5.38Zm-.61-12.45a4.11,4.11,0,0,0-3.39-1.5,3.14,3.14,0,0,0-2.78,1.63,8.52,8.52,0,0,0-.83,4.42c0,3.1.38,4,1.25,4.86a3,3,0,0,0,2.37.83A3.8,3.8,0,0,0,255.41,23Z" transform="translate(-2.39 -3.51)"/><path class="cls-1" d="M274.74,27.7a3.66,3.66,0,0,1-2.14-2.3,5.57,5.57,0,0,1-4.54,2.11c-3.2,0-5.18-1.63-5.18-4.7,0-3.71,3-5.7,8.16-5.7.38,0,.7,0,1.12,0V16.08c0-1.89-.26-3.17-2.5-3.17a8.85,8.85,0,0,0-4.93,1.82l-1.34-2.11a12.62,12.62,0,0,1,6.72-2.11c2.34,0,4,.86,4.64,2.56a7.31,7.31,0,0,1,.32,2.82c0,1.15-.13,3.62-.13,6s.06,3.1,1.31,3.87Zm-3.62-8.61c-2.21,0-3.55.42-4.19,1.15a3.09,3.09,0,0,0-.83,2.34c0,1.76.9,2.78,2.53,2.78A4,4,0,0,0,272,23.25l.1-4.1C271.64,19.12,271.38,19.09,271.12,19.09Z" transform="translate(-2.39 -3.51)"/><path class="cls-1" d="M286.8,13.07h-3.17v9.66c0,2,.48,2.59,2.08,2.59a3.54,3.54,0,0,0,1.5-.32l.35,1.79a6.38,6.38,0,0,1-2.91.67,4.57,4.57,0,0,1-2.82-.86c-.64-.58-1.09-1-1.09-3.2V13.07h-1.92V11h1.92a34.73,34.73,0,0,1,.19-4.1l3-.7c-.13,1.15-.29,3.17-.29,4.8h3.9Z" transform="translate(-2.39 -3.51)"/><path class="cls-1" d="M293.3,19.63V20a6,6,0,0,0,.67,3.2,4.18,4.18,0,0,0,3.68,1.89,5.7,5.7,0,0,0,3.94-1.54l1.12,1.76a8.19,8.19,0,0,1-5.54,2c-4.45,0-7.17-3.23-7.17-8.48,0-2.78.54-4.58,1.92-6.21a6,6,0,0,1,4.83-2.21,5.78,5.78,0,0,1,4.35,1.73c1.41,1.44,1.92,3.23,2,6.91v.51Zm5.7-5.79a2.88,2.88,0,0,0-2.3-1.12c-2.24,0-3.36,1.82-3.36,4.74H300A5.86,5.86,0,0,0,299,13.84Z" transform="translate(-2.39 -3.51)"/><path class="cls-1" d="M320.56,27.47c-4.29,0-6.94-3.26-6.94-8.48s2.66-8.45,6.88-8.45c4.74,0,7,3.78,7,8.61C327.54,24.24,324.82,27.47,320.56,27.47Zm-.06-14.65c-2.56,0-3.62,1.82-3.62,5.86,0,4.9,1.25,6.53,3.74,6.53,2.24,0,3.62-1.73,3.62-5.92C324.24,14.32,322.8,12.82,320.5,12.82Z" transform="translate(-2.39 -3.51)"/><path class="cls-1" d="M339.35,6.45a4.58,4.58,0,0,0-2.08-.61c-1.34,0-2.14.93-2.14,2.56V11h4.26l-.77,2.08h-3.46V27h-3v-14h-1.54V11h1.57c-.06-.32-.06-2.3-.06-2.56a4.61,4.61,0,0,1,1.79-4,4.88,4.88,0,0,1,2.91-.77,6.56,6.56,0,0,1,3.49.86Z" transform="translate(-2.39 -3.51)"/><path class="cls-1" d="M354.32,27.44a13.49,13.49,0,0,1-7.1-2l1.22-2.37a10.85,10.85,0,0,0,6,1.82c2.88,0,4.77-1.47,4.77-3.84,0-1.79-1.18-3-3.65-3.74l-2.3-.67c-3.33-1-5.22-2.56-5.22-5.7,0-3.81,2.94-6.4,7.3-6.4A11.7,11.7,0,0,1,362,6.67l-1.38,2.18a9.28,9.28,0,0,0-5.25-1.73c-2.46,0-4,1.28-4,3.33,0,1.57.9,2.46,3.26,3.17l2.59.77c2.94.86,5.38,2.78,5.38,6.21C362.64,23.66,360.11,27.44,354.32,27.44Z" transform="translate(-2.39 -3.51)"/><path class="cls-1" d="M367,27V5h3.14V27Z" transform="translate(-2.39 -3.51)"/><path class="cls-1" d="M387.22,17a6.75,6.75,0,0,1-4.64,1.34h-3.65V27h-3.07V5h5.89c2.85,0,4.06.29,5.25,1a6.05,6.05,0,0,1,2.91,5.38A6.39,6.39,0,0,1,387.22,17Zm-1.82-8.45a4.85,4.85,0,0,0-3.58-1.09h-2.88v8.38h3.46a3.62,3.62,0,0,0,3.17-1.25,4.41,4.41,0,0,0,.93-2.91A4.11,4.11,0,0,0,385.39,8.59Z" transform="translate(-2.39 -3.51)"/><path class="cls-1" d="M412.15,17a6.75,6.75,0,0,1-4.64,1.34h-3.65V27h-3.07V5h5.89c2.85,0,4.06.29,5.25,1a6.05,6.05,0,0,1,2.91,5.38A6.39,6.39,0,0,1,412.15,17Zm-1.82-8.45a4.85,4.85,0,0,0-3.58-1.09h-2.88v8.38h3.46a3.62,3.62,0,0,0,3.17-1.25,4.41,4.41,0,0,0,.93-2.91A4.11,4.11,0,0,0,410.32,8.59Z" transform="translate(-2.39 -3.51)"/><path class="cls-1" d="M428.85,27.7a3.66,3.66,0,0,1-2.14-2.3,5.57,5.57,0,0,1-4.54,2.11c-3.2,0-5.18-1.63-5.18-4.7,0-3.71,3-5.7,8.16-5.7.38,0,.7,0,1.12,0V16.08c0-1.89-.26-3.17-2.5-3.17a8.85,8.85,0,0,0-4.93,1.82l-1.34-2.11a12.62,12.62,0,0,1,6.72-2.11c2.34,0,4,.86,4.64,2.56a7.31,7.31,0,0,1,.32,2.82c0,1.15-.13,3.62-.13,6s.06,3.1,1.31,3.87Zm-3.62-8.61c-2.21,0-3.55.42-4.19,1.15a3.09,3.09,0,0,0-.83,2.34c0,1.76.9,2.78,2.53,2.78a4,4,0,0,0,3.36-2.11l.1-4.1C425.75,19.12,425.49,19.09,425.23,19.09Z" transform="translate(-2.39 -3.51)"/><path class="cls-1" d="M442,13.58a2.4,2.4,0,0,0-.83-.16,3.35,3.35,0,0,0-3.33,3.26V27h-2.94V15.25a10.24,10.24,0,0,0-.61-4l2.85-.74a6.63,6.63,0,0,1,.54,2.46v.29c1.28-1.86,2.66-2.78,4.35-2.78a2.92,2.92,0,0,1,1,.16Z" transform="translate(-2.39 -3.51)"/><path class="cls-1" d="M452.56,13.07h-3.17v9.66c0,2,.48,2.59,2.08,2.59A3.54,3.54,0,0,0,453,25l.35,1.79a6.38,6.38,0,0,1-2.91.67,4.57,4.57,0,0,1-2.82-.86c-.64-.58-1.09-1-1.09-3.2V13.07h-1.92V11h1.92a34.73,34.73,0,0,1,.19-4.1l3-.7c-.13,1.15-.29,3.17-.29,4.8h3.9Z" transform="translate(-2.39 -3.51)"/><path class="cls-1" d="M474.13,26.67a15.17,15.17,0,0,1-3.49.35h-6.72V5h4.67c3.71,0,4.7.1,6.08.83a5,5,0,0,1,3,4.61c0,2.3-1.31,4.06-4,4.86,3.33.74,4.93,2.82,4.93,5.7A5.63,5.63,0,0,1,474.13,26.67Zm-2-18.88a7.43,7.43,0,0,0-2.24-.22h-3v6.72h3.49c2,0,2.62-.35,3.26-1.22a3.84,3.84,0,0,0,.64-2.14A3.13,3.13,0,0,0,472.18,7.79Zm.64,9.25a10.24,10.24,0,0,0-2.3-.19H467v7.68h4.35a3.67,3.67,0,0,0,3.87-3.9A3.49,3.49,0,0,0,472.82,17Z" transform="translate(-2.39 -3.51)"/><path class="cls-1" d="M496.3,27.34a5.87,5.87,0,0,1-5.15-2.4,9.69,9.69,0,0,1-1.54-5.79c0-3.62,1.15-5.7,2.69-7.07a6.27,6.27,0,0,1,8.51.06l-1.54,2a3.91,3.91,0,0,0-2.82-1.25,3.08,3.08,0,0,0-2.82,1.73,11.38,11.38,0,0,0-.77,4.9c0,2.24.45,3.71,1.28,4.61a3.11,3.11,0,0,0,2.3,1,4.49,4.49,0,0,0,3.33-1.66l1.44,1.82A6.31,6.31,0,0,1,496.3,27.34Z" transform="translate(-2.39 -3.51)"/><path class="cls-1" d="M510.74,27.47c-4.29,0-6.94-3.26-6.94-8.48s2.66-8.45,6.88-8.45c4.74,0,7,3.78,7,8.61C517.71,24.24,515,27.47,510.74,27.47Zm-.06-14.65c-2.56,0-3.62,1.82-3.62,5.86,0,4.9,1.25,6.53,3.74,6.53,2.24,0,3.62-1.73,3.62-5.92C514.42,14.32,513,12.82,510.67,12.82Z" transform="translate(-2.39 -3.51)"/><path class="cls-1" d="M531.38,27V16.21c0-1.44-.13-2-.51-2.46a2,2,0,0,0-1.63-.64,6.47,6.47,0,0,0-4,2V27h-2.91V15.09a8.75,8.75,0,0,0-.61-3.81l2.78-.77a5.09,5.09,0,0,1,.54,2.46,13.81,13.81,0,0,1,2.08-1.57,5.94,5.94,0,0,1,3-.8,4,4,0,0,1,3.78,2.27,5,5,0,0,1,.38,2V27Z" transform="translate(-2.39 -3.51)"/><path class="cls-1" d="M549.52,27v-14H543V27h-3v-14h-1.54V11h1.57c0-.32-.06-2.3-.06-2.56a4.67,4.67,0,0,1,1.82-4,4.71,4.71,0,0,1,2.88-.77,6.53,6.53,0,0,1,3.36.77l-1,1.92a4.9,4.9,0,0,0-2-.51c-1.34,0-2.14.93-2.14,2.56V11h9.57V27ZM551,8.18a2.1,2.1,0,0,1-2.08-2.11,2.14,2.14,0,0,1,2.11-2.14,2.13,2.13,0,0,1,0,4.26Z" transform="translate(-2.39 -3.51)"/><path class="cls-1" d="M565.39,13.58a2.4,2.4,0,0,0-.83-.16,3.35,3.35,0,0,0-3.33,3.26V27h-2.94V15.25a10.24,10.24,0,0,0-.61-4l2.85-.74a6.63,6.63,0,0,1,.54,2.46v.29c1.28-1.86,2.66-2.78,4.35-2.78a2.92,2.92,0,0,1,1,.16Z" transform="translate(-2.39 -3.51)"/><path class="cls-1" d="M586.57,27V15.54c0-1.82-.58-2.46-1.92-2.46s-2.53,1-3.74,2.18V27H578V15.6c0-1.79-.51-2.46-2-2.46A5.51,5.51,0,0,0,572.37,15V27h-2.91V15.25a8.72,8.72,0,0,0-.58-4l2.75-.67a4.54,4.54,0,0,1,.54,2.24,6.55,6.55,0,0,1,4.51-2.27,4.14,4.14,0,0,1,3.81,2.53,6.87,6.87,0,0,1,4.9-2.53c2.5,0,4.1,1.57,4.1,4.51V27Z" transform="translate(-2.39 -3.51)"/><path class="cls-1" d="M599.79,27.47a12.21,12.21,0,0,1-6-1.7l1.06-2.11a10.93,10.93,0,0,0,5.15,1.6c1.76,0,3-1,3-2.59,0-1.38-.83-2.18-2.69-2.53l-2-.38c-2.53-.51-3.9-2.08-3.9-4.45,0-2.94,2.34-5,5.79-5a10.19,10.19,0,0,1,5.06,1.31l-1,2.08a8.67,8.67,0,0,0-3.94-1.15c-1.7,0-2.78,1-2.78,2.4,0,1.15.58,1.79,2.27,2.18l2.08.48c2.94.67,4.16,2.37,4.16,4.48C606.1,25.3,603.54,27.47,599.79,27.47Z" transform="translate(-2.39 -3.51)"/><path class="cls-1" d="M623.5,13.07h-3.17v9.66c0,2,.48,2.59,2.08,2.59a3.54,3.54,0,0,0,1.5-.32l.35,1.79a6.38,6.38,0,0,1-2.91.67,4.57,4.57,0,0,1-2.82-.86c-.64-.58-1.09-1-1.09-3.2V13.07h-1.92V11h1.92a34.73,34.73,0,0,1,.19-4.1l3-.7c-.13,1.15-.29,3.17-.29,4.8h3.9Z" transform="translate(-2.39 -3.51)"/><path class="cls-1" d="M637.52,27V16a3.53,3.53,0,0,0-.54-2.24,2.56,2.56,0,0,0-1.76-.61A6.14,6.14,0,0,0,631,15.5V27h-3V7.54a14,14,0,0,0-.35-3.36l3-.61A16.34,16.34,0,0,1,631,7.28v3.58c0,.58,0,1.31-.1,2.14a11,11,0,0,1,1.7-1.31A6.19,6.19,0,0,1,636,10.61a4.1,4.1,0,0,1,4,2.4,6.51,6.51,0,0,1,.32,2.59V27Z" transform="translate(-2.39 -3.51)"/><path class="cls-1" d="M648.5,19.63V20a6,6,0,0,0,.67,3.2,4.18,4.18,0,0,0,3.68,1.89,5.7,5.7,0,0,0,3.94-1.54l1.12,1.76a8.19,8.19,0,0,1-5.54,2c-4.45,0-7.17-3.23-7.17-8.48,0-2.78.54-4.58,1.92-6.21A6,6,0,0,1,652,10.48a5.78,5.78,0,0,1,4.35,1.73c1.41,1.44,1.92,3.23,2,6.91v.51Zm5.7-5.79a2.88,2.88,0,0,0-2.3-1.12c-2.24,0-3.36,1.82-3.36,4.74h6.66A5.86,5.86,0,0,0,654.19,13.84Z" transform="translate(-2.39 -3.51)"/><path class="cls-1" d="M688.46,30.7a4,4,0,0,1-1.86.32,8.72,8.72,0,0,1-4.1-1.63,12.47,12.47,0,0,0-4.64-2,7.8,7.8,0,0,1-6.34-2.91c-1.73-2-2.56-5-2.56-8.54,0-4.8,1.63-8.51,4.51-10.21a8.57,8.57,0,0,1,4.38-1.09A8.13,8.13,0,0,1,684.81,8a13.73,13.73,0,0,1,2.14,8.1c0,4.13-1.09,6.88-3.14,8.93a7.87,7.87,0,0,1-1.54,1.25A20,20,0,0,1,685,27.73a5.7,5.7,0,0,0,2.91.93,7.17,7.17,0,0,0,1.38-.13Zm-6-20.7a4.74,4.74,0,0,0-4.61-3,4.92,4.92,0,0,0-4.32,2.37,13,13,0,0,0-1.15,6.21c0,3.55.64,6.3,1.63,7.58a5.09,5.09,0,0,0,4,1.86,4.4,4.4,0,0,0,3.9-2c1-1.38,1.44-3.33,1.44-6.66A16.88,16.88,0,0,0,682.48,10Z" transform="translate(-2.39 -3.51)"/><path class="cls-1" d="M702.64,27.57a3.78,3.78,0,0,1-1.5-2.3,5.88,5.88,0,0,1-4.83,2.3,4.51,4.51,0,0,1-4.32-2.4,6.82,6.82,0,0,1-.38-2.69V11.09l2.91-.58V21.68c0,1.63.16,2.27.74,2.82a2.93,2.93,0,0,0,1.86.7,4.41,4.41,0,0,0,3.65-2.53V11.15l2.91-.58V22.64c0,1.63.35,2.78,1,3.33Z" transform="translate(-2.39 -3.51)"/><path class="cls-1" d="M711.76,19.63V20a6,6,0,0,0,.67,3.2,4.18,4.18,0,0,0,3.68,1.89A5.7,5.7,0,0,0,720,23.57l1.12,1.76a8.19,8.19,0,0,1-5.54,2c-4.45,0-7.17-3.23-7.17-8.48,0-2.78.54-4.58,1.92-6.21a6,6,0,0,1,4.83-2.21,5.78,5.78,0,0,1,4.35,1.73c1.41,1.44,1.92,3.23,2,6.91v.51Zm5.7-5.79a2.88,2.88,0,0,0-2.3-1.12c-2.24,0-3.36,1.82-3.36,4.74h6.66A5.86,5.86,0,0,0,717.45,13.84Z" transform="translate(-2.39 -3.51)"/><path class="cls-1" d="M728.33,19.63V20a6,6,0,0,0,.67,3.2,4.18,4.18,0,0,0,3.68,1.89,5.7,5.7,0,0,0,3.94-1.54l1.12,1.76a8.19,8.19,0,0,1-5.54,2c-4.45,0-7.17-3.23-7.17-8.48,0-2.78.54-4.58,1.92-6.21a6,6,0,0,1,4.83-2.21,5.78,5.78,0,0,1,4.35,1.73c1.41,1.44,1.92,3.23,2,6.91v.51Zm5.7-5.79a2.88,2.88,0,0,0-2.3-1.12c-2.24,0-3.36,1.82-3.36,4.74H735A5.86,5.86,0,0,0,734,13.84Z" transform="translate(-2.39 -3.51)"/><path class="cls-1" d="M751.6,27V16.21c0-1.44-.13-2-.51-2.46a2,2,0,0,0-1.63-.64,6.47,6.47,0,0,0-4,2V27h-2.91V15.09a8.75,8.75,0,0,0-.61-3.81l2.78-.77a5.09,5.09,0,0,1,.54,2.46,13.78,13.78,0,0,1,2.08-1.57,5.94,5.94,0,0,1,3-.8,4,4,0,0,1,3.78,2.27,5,5,0,0,1,.38,2V27Z" transform="translate(-2.39 -3.51)"/><path class="cls-1" d="M764.81,27.47a12.21,12.21,0,0,1-6-1.7l1.06-2.11a10.93,10.93,0,0,0,5.15,1.6c1.76,0,3-1,3-2.59,0-1.38-.83-2.18-2.69-2.53l-2-.38c-2.53-.51-3.9-2.08-3.9-4.45,0-2.94,2.34-5,5.79-5a10.19,10.19,0,0,1,5.06,1.31l-1,2.08a8.67,8.67,0,0,0-3.94-1.15c-1.7,0-2.78,1-2.78,2.4,0,1.15.58,1.79,2.27,2.18l2.08.48c2.94.67,4.16,2.37,4.16,4.48C771.12,25.3,768.56,27.47,764.81,27.47Z" transform="translate(-2.39 -3.51)"/><path class="cls-1" d="M778.54,27.34a2.72,2.72,0,0,1-2.5-1.22c-.48-.67-.61-1.22-.61-2.78V8.82a20.87,20.87,0,0,0-.35-4.61l3.07-.64a19.88,19.88,0,0,1,.29,4.58V23.06c0,1.12.1,1.7.51,2a1.2,1.2,0,0,0,.9.13l.51,1.82A4.31,4.31,0,0,1,778.54,27.34Z" transform="translate(-2.39 -3.51)"/><path class="cls-1" d="M794.8,27.7a3.66,3.66,0,0,1-2.14-2.3,5.57,5.57,0,0,1-4.54,2.11c-3.2,0-5.18-1.63-5.18-4.7,0-3.71,3-5.7,8.16-5.7.38,0,.7,0,1.12,0V16.08c0-1.89-.26-3.17-2.5-3.17a8.85,8.85,0,0,0-4.93,1.82l-1.34-2.11a12.62,12.62,0,0,1,6.72-2.11c2.34,0,4,.86,4.64,2.56a7.31,7.31,0,0,1,.32,2.82c0,1.15-.13,3.62-.13,6s.06,3.1,1.31,3.87Zm-3.62-8.61c-2.21,0-3.55.42-4.19,1.15a3.09,3.09,0,0,0-.83,2.34c0,1.76.9,2.78,2.53,2.78A4,4,0,0,0,792,23.25l.1-4.1C791.69,19.12,791.44,19.09,791.18,19.09Z" transform="translate(-2.39 -3.51)"/><path class="cls-1" d="M809.84,27V16.21c0-1.44-.13-2-.51-2.46a2,2,0,0,0-1.63-.64,6.47,6.47,0,0,0-4,2V27h-2.91V15.09a8.75,8.75,0,0,0-.61-3.81l2.78-.77a5.09,5.09,0,0,1,.54,2.46,13.81,13.81,0,0,1,2.08-1.57,5.94,5.94,0,0,1,3-.8,4,4,0,0,1,3.78,2.27,5,5,0,0,1,.38,2V27Z" transform="translate(-2.39 -3.51)"/><path class="cls-1" d="M828.46,27a6.24,6.24,0,0,1-.29-1.5A5.35,5.35,0,0,1,824,27.28c-4.1,0-6.5-3.07-6.5-8.13,0-3.46,1.18-6.11,3.36-7.52a5.53,5.53,0,0,1,3.14-.93,4.78,4.78,0,0,1,3.9,1.86c0-.45-.06-1.73-.06-2.82V3.51l2.94.48V21.65a19.2,19.2,0,0,0,.45,5.38Zm-.61-12.45a4.11,4.11,0,0,0-3.39-1.5,3.14,3.14,0,0,0-2.78,1.63,8.52,8.52,0,0,0-.83,4.42c0,3.1.38,4,1.25,4.86a3,3,0,0,0,2.37.83A3.8,3.8,0,0,0,827.85,23Z" transform="translate(-2.39 -3.51)"/><path class="cls-1" d="M11.92,63.34a8.71,8.71,0,0,1-7-3c-1.76-2-2.56-4.64-2.56-8.26,0-4.42,1.28-7.46,3.81-9.54a8.25,8.25,0,0,1,5.54-1.89A9.2,9.2,0,0,1,18,42.9L16.5,44.82a7.49,7.49,0,0,0-4.7-1.66A4.84,4.84,0,0,0,7.06,46a12.65,12.65,0,0,0-1.22,6.3c0,3,.54,5.31,1.57,6.66a6.09,6.09,0,0,0,4.74,2,6.58,6.58,0,0,0,3.26-.83V53.81H11.35l-.51-2.53h7.62v10.3A12.68,12.68,0,0,1,11.92,63.34Z" transform="translate(-2.39 -3.51)"/><path class="cls-1" d="M29.88,63.47c-4.29,0-6.94-3.26-6.94-8.48s2.66-8.45,6.88-8.45c4.74,0,7,3.78,7,8.61C36.85,60.24,34.13,63.47,29.88,63.47Zm-.06-14.65c-2.56,0-3.62,1.82-3.62,5.86,0,4.9,1.25,6.53,3.74,6.53,2.24,0,3.62-1.73,3.62-5.92C33.56,50.32,32.12,48.82,29.81,48.82Z" transform="translate(-2.39 -3.51)"/><path class="cls-1" d="M47.25,63.15H44.5L38.77,47.06l3-.48L45,56.27c.35,1.09.7,2.37,1,3.46H46a28.68,28.68,0,0,1,1-3.52L50,47h3.1Z" transform="translate(-2.39 -3.51)"/><path class="cls-1" d="M58.23,55.63V56a6,6,0,0,0,.67,3.2,4.18,4.18,0,0,0,3.68,1.89,5.7,5.7,0,0,0,3.94-1.54l1.12,1.76a8.19,8.19,0,0,1-5.54,2c-4.45,0-7.17-3.23-7.17-8.48,0-2.78.54-4.58,1.92-6.21a6,6,0,0,1,4.83-2.21A5.78,5.78,0,0,1,66,48.21c1.41,1.44,1.92,3.23,2,6.91v.51Zm5.7-5.79a2.88,2.88,0,0,0-2.3-1.12c-2.24,0-3.36,1.82-3.36,4.74h6.66A5.86,5.86,0,0,0,63.92,49.84Z" transform="translate(-2.39 -3.51)"/><path class="cls-1" d="M79.57,49.58a2.4,2.4,0,0,0-.83-.16,3.35,3.35,0,0,0-3.33,3.26V63H72.47V51.25a10.24,10.24,0,0,0-.61-4l2.85-.74A6.63,6.63,0,0,1,75.25,49v.29c1.28-1.86,2.66-2.78,4.35-2.78a2.92,2.92,0,0,1,1,.16Z" transform="translate(-2.39 -3.51)"/><path class="cls-1" d="M92.66,63V52.21c0-1.44-.13-2-.51-2.46a2,2,0,0,0-1.63-.64,6.47,6.47,0,0,0-4,2V63H83.64V51.09A8.75,8.75,0,0,0,83,47.28l2.78-.77A5.09,5.09,0,0,1,86.36,49a13.78,13.78,0,0,1,2.08-1.57,5.94,5.94,0,0,1,3-.8,4,4,0,0,1,3.78,2.27,5,5,0,0,1,.38,2V63Z" transform="translate(-2.39 -3.51)"/><path class="cls-1" d="M118.45,63V51.54c0-1.82-.58-2.46-1.92-2.46s-2.53,1-3.74,2.18V63h-2.88V51.6c0-1.79-.51-2.46-2-2.46A5.51,5.51,0,0,0,104.24,51V63h-2.91V51.25a8.72,8.72,0,0,0-.58-4l2.75-.67a4.54,4.54,0,0,1,.54,2.24,6.55,6.55,0,0,1,4.51-2.27,4.14,4.14,0,0,1,3.81,2.53,6.87,6.87,0,0,1,4.9-2.53c2.5,0,4.1,1.57,4.1,4.51V63Z" transform="translate(-2.39 -3.51)"/><path class="cls-1" d="M129.46,55.63V56a6,6,0,0,0,.67,3.2,4.18,4.18,0,0,0,3.68,1.89,5.7,5.7,0,0,0,3.94-1.54l1.12,1.76a8.19,8.19,0,0,1-5.54,2c-4.45,0-7.17-3.23-7.17-8.48,0-2.78.54-4.58,1.92-6.21a6,6,0,0,1,4.83-2.21,5.78,5.78,0,0,1,4.35,1.73c1.41,1.44,1.92,3.23,2,6.91v.51Zm5.7-5.79a2.88,2.88,0,0,0-2.3-1.12c-2.24,0-3.36,1.82-3.36,4.74h6.66A5.86,5.86,0,0,0,135.16,49.84Z" transform="translate(-2.39 -3.51)"/><path class="cls-1" d="M152.72,63V52.21c0-1.44-.13-2-.51-2.46a2,2,0,0,0-1.63-.64,6.47,6.47,0,0,0-4,2V63H143.7V51.09a8.75,8.75,0,0,0-.61-3.81l2.78-.77a5.09,5.09,0,0,1,.54,2.46,13.78,13.78,0,0,1,2.08-1.57,5.94,5.94,0,0,1,3-.8,4,4,0,0,1,3.78,2.27,5,5,0,0,1,.38,2V63Z" transform="translate(-2.39 -3.51)"/><path class="cls-1" d="M167.44,49.07h-3.17v9.66c0,2,.48,2.59,2.08,2.59a3.54,3.54,0,0,0,1.5-.32l.35,1.79a6.38,6.38,0,0,1-2.91.67,4.57,4.57,0,0,1-2.82-.86c-.64-.58-1.09-1-1.09-3.2V49.07h-1.92V47h1.92a34.73,34.73,0,0,1,.19-4.1l3-.7c-.13,1.15-.29,3.17-.29,4.8h3.9Z" transform="translate(-2.39 -3.51)"/><path class="cls-1" d="M171.67,49.46l-1-1.44a3.16,3.16,0,0,0,2.08-2.4c0-.45-.48-.58-1-.86a1.9,1.9,0,0,1-1.06-1.86A2.34,2.34,0,0,1,173,40.5c1.54,0,2.66,1.34,2.66,3.3A6.37,6.37,0,0,1,171.67,49.46Z" transform="translate(-2.39 -3.51)"/><path class="cls-1" d="M185.17,63.47a12.21,12.21,0,0,1-6-1.7l1.06-2.11a10.93,10.93,0,0,0,5.15,1.6c1.76,0,3-1,3-2.59,0-1.38-.83-2.18-2.69-2.53l-2-.38c-2.53-.51-3.9-2.08-3.9-4.45,0-2.94,2.34-5,5.79-5a10.19,10.19,0,0,1,5.06,1.31l-1,2.08a8.67,8.67,0,0,0-3.94-1.15c-1.7,0-2.78,1-2.78,2.4,0,1.15.58,1.79,2.27,2.18l2.08.48c2.94.67,4.16,2.37,4.16,4.48C191.47,61.3,188.91,63.47,185.17,63.47Z" transform="translate(-2.39 -3.51)"/><path class="cls-1" d="M208.56,63.34a5.87,5.87,0,0,1-5.15-2.4,9.69,9.69,0,0,1-1.54-5.79c0-3.62,1.15-5.7,2.69-7.07a6.27,6.27,0,0,1,8.51.06l-1.54,2a3.91,3.91,0,0,0-2.82-1.25,3.08,3.08,0,0,0-2.82,1.73,11.38,11.38,0,0,0-.77,4.9c0,2.24.45,3.71,1.28,4.61a3.11,3.11,0,0,0,2.3,1,4.49,4.49,0,0,0,3.33-1.66l1.44,1.82A6.31,6.31,0,0,1,208.56,63.34Z" transform="translate(-2.39 -3.51)"/><path class="cls-1" d="M228.37,63.57a3.78,3.78,0,0,1-1.5-2.3,5.88,5.88,0,0,1-4.83,2.3,4.51,4.51,0,0,1-4.32-2.4,6.82,6.82,0,0,1-.38-2.69V47.09l2.91-.58V57.68c0,1.63.16,2.27.74,2.82a2.93,2.93,0,0,0,1.86.7,4.41,4.41,0,0,0,3.65-2.53V47.15l2.91-.58V58.64c0,1.63.35,2.78,1,3.33Z" transform="translate(-2.39 -3.51)"/><path class="cls-1" d="M241.94,49.58a2.4,2.4,0,0,0-.83-.16,3.35,3.35,0,0,0-3.33,3.26V63h-2.94V51.25a10.24,10.24,0,0,0-.61-4l2.85-.74a6.63,6.63,0,0,1,.54,2.46v.29c1.28-1.86,2.66-2.78,4.35-2.78a2.92,2.92,0,0,1,1,.16Z" transform="translate(-2.39 -3.51)"/><path class="cls-1" d="M253.11,49.58a2.4,2.4,0,0,0-.83-.16,3.35,3.35,0,0,0-3.33,3.26V63H246V51.25a10.24,10.24,0,0,0-.61-4l2.85-.74a6.63,6.63,0,0,1,.54,2.46v.29c1.28-1.86,2.66-2.78,4.35-2.78a2.92,2.92,0,0,1,1,.16Z" transform="translate(-2.39 -3.51)"/><path class="cls-1" d="M259.09,55.63V56a6,6,0,0,0,.67,3.2,4.18,4.18,0,0,0,3.68,1.89,5.7,5.7,0,0,0,3.94-1.54l1.12,1.76a8.19,8.19,0,0,1-5.54,2c-4.45,0-7.17-3.23-7.17-8.48,0-2.78.54-4.58,1.92-6.21a6,6,0,0,1,4.83-2.21,5.78,5.78,0,0,1,4.35,1.73c1.41,1.44,1.92,3.23,2,6.91v.51Zm5.7-5.79a2.88,2.88,0,0,0-2.3-1.12c-2.24,0-3.36,1.82-3.36,4.74h6.66A5.86,5.86,0,0,0,264.79,49.84Z" transform="translate(-2.39 -3.51)"/><path class="cls-1" d="M282.35,63V52.21c0-1.44-.13-2-.51-2.46a2,2,0,0,0-1.63-.64,6.47,6.47,0,0,0-4,2V63h-2.91V51.09a8.75,8.75,0,0,0-.61-3.81l2.78-.77a5.09,5.09,0,0,1,.54,2.46,13.81,13.81,0,0,1,2.08-1.57,5.94,5.94,0,0,1,3-.8,4,4,0,0,1,3.78,2.27,5,5,0,0,1,.38,2V63Z" transform="translate(-2.39 -3.51)"/><path class="cls-1" d="M297.07,49.07h-3.17v9.66c0,2,.48,2.59,2.08,2.59a3.54,3.54,0,0,0,1.5-.32l.35,1.79a6.38,6.38,0,0,1-2.91.67,4.57,4.57,0,0,1-2.82-.86c-.64-.58-1.09-1-1.09-3.2V49.07h-1.92V47H291a34.73,34.73,0,0,1,.19-4.1l3-.7c-.13,1.15-.29,3.17-.29,4.8h3.9Z" transform="translate(-2.39 -3.51)"/><path class="cls-1" d="M309.94,44.18a2.08,2.08,0,0,1-2-2.11,2.1,2.1,0,1,1,4.19,0A2.14,2.14,0,0,1,309.94,44.18ZM308.43,63V47.09l3-.48V63Z" transform="translate(-2.39 -3.51)"/><path class="cls-1" d="M326.26,63V52.21c0-1.44-.13-2-.51-2.46a2,2,0,0,0-1.63-.64,6.47,6.47,0,0,0-4,2V63h-2.91V51.09a8.75,8.75,0,0,0-.61-3.81l2.78-.77A5.09,5.09,0,0,1,320,49,13.81,13.81,0,0,1,322,47.41a5.94,5.94,0,0,1,3-.8,4,4,0,0,1,3.78,2.27,5,5,0,0,1,.38,2V63Z" transform="translate(-2.39 -3.51)"/><path class="cls-1" d="M342.1,42.45a4.58,4.58,0,0,0-2.08-.61c-1.34,0-2.14.93-2.14,2.56V47h4.26l-.77,2.08h-3.46V63h-3v-14h-1.54V47H335c-.06-.32-.06-2.3-.06-2.56a4.61,4.61,0,0,1,1.79-4,4.88,4.88,0,0,1,2.91-.77,6.56,6.56,0,0,1,3.49.86Z" transform="translate(-2.39 -3.51)"/><path class="cls-1" d="M351.79,49.58a2.4,2.4,0,0,0-.83-.16,3.35,3.35,0,0,0-3.33,3.26V63h-2.94V51.25a10.24,10.24,0,0,0-.61-4l2.85-.74a6.63,6.63,0,0,1,.54,2.46v.29c1.28-1.86,2.66-2.78,4.35-2.78a2.92,2.92,0,0,1,1,.16Z" transform="translate(-2.39 -3.51)"/><path class="cls-1" d="M366.29,63.7a3.66,3.66,0,0,1-2.14-2.3,5.57,5.57,0,0,1-4.54,2.11c-3.2,0-5.18-1.63-5.18-4.7,0-3.71,3-5.7,8.16-5.7.38,0,.7,0,1.12,0V52.08c0-1.89-.26-3.17-2.5-3.17a8.85,8.85,0,0,0-4.93,1.82l-1.34-2.11a12.62,12.62,0,0,1,6.72-2.11c2.34,0,4,.86,4.64,2.56a7.31,7.31,0,0,1,.32,2.82c0,1.15-.13,3.62-.13,6s.06,3.1,1.31,3.87Zm-3.62-8.61c-2.21,0-3.55.42-4.19,1.15a3.09,3.09,0,0,0-.83,2.34c0,1.76.9,2.78,2.53,2.78a4,4,0,0,0,3.36-2.11l.1-4.1C363.19,55.12,362.93,55.09,362.67,55.09Z" transform="translate(-2.39 -3.51)"/><path class="cls-1" d="M376.69,63.47a12.21,12.21,0,0,1-6-1.7l1.06-2.11a10.93,10.93,0,0,0,5.15,1.6c1.76,0,3-1,3-2.59,0-1.38-.83-2.18-2.69-2.53l-2-.38c-2.53-.51-3.9-2.08-3.9-4.45,0-2.94,2.34-5,5.79-5a10.19,10.19,0,0,1,5.06,1.31l-1,2.08a8.67,8.67,0,0,0-3.94-1.15c-1.7,0-2.78,1-2.78,2.4,0,1.15.58,1.79,2.27,2.18l2.08.48c2.94.67,4.16,2.37,4.16,4.48C383,61.3,380.43,63.47,376.69,63.47Z" transform="translate(-2.39 -3.51)"/><path class="cls-1" d="M393.36,49.07h-3.17v9.66c0,2,.48,2.59,2.08,2.59a3.54,3.54,0,0,0,1.5-.32l.35,1.79a6.38,6.38,0,0,1-2.91.67,4.57,4.57,0,0,1-2.82-.86c-.64-.58-1.09-1-1.09-3.2V49.07h-1.92V47h1.92a34.73,34.73,0,0,1,.19-4.1l3-.7c-.13,1.15-.29,3.17-.29,4.8h3.9Z" transform="translate(-2.39 -3.51)"/><path class="cls-1" d="M404.63,49.58a2.4,2.4,0,0,0-.83-.16,3.35,3.35,0,0,0-3.33,3.26V63h-2.94V51.25a10.24,10.24,0,0,0-.61-4l2.85-.74a6.63,6.63,0,0,1,.54,2.46v.29c1.28-1.86,2.66-2.78,4.35-2.78a2.92,2.92,0,0,1,1,.16Z" transform="translate(-2.39 -3.51)"/><path class="cls-1" d="M419.57,63.57a3.78,3.78,0,0,1-1.5-2.3,5.88,5.88,0,0,1-4.83,2.3,4.51,4.51,0,0,1-4.32-2.4,6.82,6.82,0,0,1-.38-2.69V47.09l2.91-.58V57.68c0,1.63.16,2.27.74,2.82a2.93,2.93,0,0,0,1.86.7,4.41,4.41,0,0,0,3.65-2.53V47.15l2.91-.58V58.64c0,1.63.35,2.78,1,3.33Z" transform="translate(-2.39 -3.51)"/><path class="cls-1" d="M432.08,63.34a5.87,5.87,0,0,1-5.15-2.4,9.69,9.69,0,0,1-1.54-5.79c0-3.62,1.15-5.7,2.69-7.07a6.27,6.27,0,0,1,8.51.06l-1.54,2a3.91,3.91,0,0,0-2.82-1.25,3.08,3.08,0,0,0-2.82,1.73,11.38,11.38,0,0,0-.77,4.9c0,2.24.45,3.71,1.28,4.61a3.11,3.11,0,0,0,2.3,1,4.49,4.49,0,0,0,3.33-1.66L437,61.26A6.31,6.31,0,0,1,432.08,63.34Z" transform="translate(-2.39 -3.51)"/><path class="cls-1" d="M447.22,49.07H444v9.66c0,2,.48,2.59,2.08,2.59a3.54,3.54,0,0,0,1.5-.32L448,62.8a6.38,6.38,0,0,1-2.91.67,4.57,4.57,0,0,1-2.82-.86c-.64-.58-1.09-1-1.09-3.2V49.07h-1.92V47h1.92a34.73,34.73,0,0,1,.19-4.1l3-.7c-.13,1.15-.29,3.17-.29,4.8H448Z" transform="translate(-2.39 -3.51)"/><path class="cls-1" d="M462.26,63.57a3.78,3.78,0,0,1-1.5-2.3,5.88,5.88,0,0,1-4.83,2.3,4.51,4.51,0,0,1-4.32-2.4,6.82,6.82,0,0,1-.38-2.69V47.09l2.91-.58V57.68c0,1.63.16,2.27.74,2.82a2.93,2.93,0,0,0,1.86.7,4.41,4.41,0,0,0,3.65-2.53V47.15l2.91-.58V58.64c0,1.63.35,2.78,1,3.33Z" transform="translate(-2.39 -3.51)"/><path class="cls-1" d="M475.83,49.58a2.4,2.4,0,0,0-.83-.16,3.35,3.35,0,0,0-3.33,3.26V63h-2.94V51.25a10.24,10.24,0,0,0-.61-4l2.85-.74a6.63,6.63,0,0,1,.54,2.46v.29c1.28-1.86,2.66-2.78,4.35-2.78a2.92,2.92,0,0,1,1,.16Z" transform="translate(-2.39 -3.51)"/><path class="cls-1" d="M481.81,55.63V56a6,6,0,0,0,.67,3.2,4.18,4.18,0,0,0,3.68,1.89,5.7,5.7,0,0,0,3.94-1.54l1.12,1.76a8.19,8.19,0,0,1-5.54,2c-4.45,0-7.17-3.23-7.17-8.48,0-2.78.54-4.58,1.92-6.21a6,6,0,0,1,4.83-2.21,5.78,5.78,0,0,1,4.35,1.73c1.41,1.44,1.92,3.23,2,6.91v.51Zm5.7-5.79a2.88,2.88,0,0,0-2.3-1.12c-2.24,0-3.36,1.82-3.36,4.74h6.66A5.86,5.86,0,0,0,487.51,49.84Z" transform="translate(-2.39 -3.51)"/><path class="cls-1" d="M510.23,63.34a6.16,6.16,0,0,1-4.16-1.66,16.18,16.18,0,0,1,.06,1.79V69.1l-2.88.67V50.93A17,17,0,0,0,502.9,47l2.85-.48a8.31,8.31,0,0,1,.19,2.3,5.81,5.81,0,0,1,4.54-2.24c3.26,0,6,2.66,6,8.16C516.5,59.73,514.32,63.34,510.23,63.34ZM510,49.07a5,5,0,0,0-3.84,2v8.16A5,5,0,0,0,509.55,61c2.59,0,3.78-2,3.78-5.89S512.5,49.07,510,49.07Z" transform="translate(-2.39 -3.51)"/><path class="cls-1" d="M528.4,49.58a2.4,2.4,0,0,0-.83-.16,3.35,3.35,0,0,0-3.33,3.26V63H521.3V51.25a10.24,10.24,0,0,0-.61-4l2.85-.74a6.63,6.63,0,0,1,.54,2.46v.29c1.28-1.86,2.66-2.78,4.35-2.78a2.92,2.92,0,0,1,1,.16Z" transform="translate(-2.39 -3.51)"/><path class="cls-1" d="M537.87,63.47c-4.29,0-6.94-3.26-6.94-8.48s2.66-8.45,6.88-8.45c4.74,0,7,3.78,7,8.61C544.85,60.24,542.13,63.47,537.87,63.47Zm-.06-14.65c-2.56,0-3.62,1.82-3.62,5.86,0,4.9,1.25,6.53,3.74,6.53,2.24,0,3.62-1.73,3.62-5.92C541.55,50.32,540.11,48.82,537.81,48.82Z" transform="translate(-2.39 -3.51)"/><path class="cls-1" d="M561.26,49.27a3.81,3.81,0,0,1-1.38-.26A4.48,4.48,0,0,1,561,52c0,2.3-1.57,5-5.76,5-1,.32-2.53,1.06-2.53,1.76,0,.48.38.8,1.15.8h2.46c4.1,0,5.79,1.92,5.79,4.42,0,3.46-2.85,5.18-6.75,5.18-4.48,0-7-1.57-7-4.22a4.8,4.8,0,0,1,.29-1.63l2.88-.16a3.09,3.09,0,0,0-.29,1.22c0,1.66,1.38,2.56,3.87,2.56s3.94-1.06,3.94-2.75c0-1.54-1.25-2.43-4.42-2.43-1.12,0-2.4-.1-3-.16-1.41-.16-2.24-1-2.24-2.14,0-1.5,1.31-2.14,3.14-2.82-2.46-.74-3.78-2.4-3.78-4.61,0-3.23,2.46-5.38,6.14-5.38a7.83,7.83,0,0,1,2.5.35,9,9,0,0,0,2.4.51,4.38,4.38,0,0,0,2.62-.93l1.5,1.82A4,4,0,0,1,561.26,49.27Zm-6.43-.42c-1.89,0-2.91,1-2.91,3.07a2.65,2.65,0,0,0,2.94,3c1.92,0,2.91-1.06,2.91-3S556.85,48.85,554.83,48.85Z" transform="translate(-2.39 -3.51)"/><path class="cls-1" d="M573.9,49.58a2.4,2.4,0,0,0-.83-.16,3.35,3.35,0,0,0-3.33,3.26V63H566.8V51.25a10.24,10.24,0,0,0-.61-4l2.85-.74a6.63,6.63,0,0,1,.54,2.46v.29c1.28-1.86,2.66-2.78,4.35-2.78a2.92,2.92,0,0,1,1,.16Z" transform="translate(-2.39 -3.51)"/><path class="cls-1" d="M588.4,63.7a3.66,3.66,0,0,1-2.14-2.3,5.57,5.57,0,0,1-4.54,2.11c-3.2,0-5.18-1.63-5.18-4.7,0-3.71,3-5.7,8.16-5.7.38,0,.7,0,1.12,0V52.08c0-1.89-.26-3.17-2.5-3.17a8.85,8.85,0,0,0-4.93,1.82L577,48.63a12.62,12.62,0,0,1,6.72-2.11c2.34,0,4,.86,4.64,2.56a7.31,7.31,0,0,1,.32,2.82c0,1.15-.13,3.62-.13,6s.06,3.1,1.31,3.87Zm-3.62-8.61c-2.21,0-3.55.42-4.19,1.15a3.09,3.09,0,0,0-.83,2.34c0,1.76.9,2.78,2.53,2.78a4,4,0,0,0,3.36-2.11l.1-4.1C585.3,55.12,585,55.09,584.78,55.09Z" transform="translate(-2.39 -3.51)"/><path class="cls-1" d="M611.54,63V51.54c0-1.82-.58-2.46-1.92-2.46s-2.53,1-3.74,2.18V63H603V51.6c0-1.79-.51-2.46-2-2.46A5.51,5.51,0,0,0,597.33,51V63h-2.91V51.25a8.72,8.72,0,0,0-.58-4l2.75-.67a4.54,4.54,0,0,1,.54,2.24,6.55,6.55,0,0,1,4.51-2.27,4.14,4.14,0,0,1,3.81,2.53,6.87,6.87,0,0,1,4.9-2.53c2.5,0,4.1,1.57,4.1,4.51V63Z" transform="translate(-2.39 -3.51)"/><path class="cls-1" d="M634.58,42.45a4.58,4.58,0,0,0-2.08-.61c-1.34,0-2.14.93-2.14,2.56V47h4.26l-.77,2.08h-3.46V63h-3v-14h-1.54V47h1.57c-.06-.32-.06-2.3-.06-2.56a4.61,4.61,0,0,1,1.79-4,4.88,4.88,0,0,1,2.91-.77,6.56,6.56,0,0,1,3.49.86Z" transform="translate(-2.39 -3.51)"/><path class="cls-1" d="M642.9,63.47c-4.29,0-6.94-3.26-6.94-8.48s2.66-8.45,6.88-8.45c4.74,0,7,3.78,7,8.61C649.87,60.24,647.15,63.47,642.9,63.47Zm-.06-14.65c-2.56,0-3.62,1.82-3.62,5.86,0,4.9,1.25,6.53,3.74,6.53,2.24,0,3.62-1.73,3.62-5.92C646.58,50.32,645.14,48.82,642.83,48.82Z" transform="translate(-2.39 -3.51)"/><path class="cls-1" d="M661.62,49.58a2.4,2.4,0,0,0-.83-.16,3.35,3.35,0,0,0-3.33,3.26V63h-2.94V51.25a10.24,10.24,0,0,0-.61-4l2.85-.74A6.63,6.63,0,0,1,657.3,49v.29c1.28-1.86,2.66-2.78,4.35-2.78a2.92,2.92,0,0,1,1,.16Z" transform="translate(-2.39 -3.51)"/><path class="cls-1" d="M675.22,55.63V56a6,6,0,0,0,.67,3.2,4.18,4.18,0,0,0,3.68,1.89,5.7,5.7,0,0,0,3.94-1.54l1.12,1.76a8.19,8.19,0,0,1-5.54,2c-4.45,0-7.17-3.23-7.17-8.48,0-2.78.54-4.58,1.92-6.21a6,6,0,0,1,4.83-2.21A5.78,5.78,0,0,1,683,48.21c1.41,1.44,1.92,3.23,2,6.91v.51Zm5.7-5.79a2.88,2.88,0,0,0-2.3-1.12c-2.24,0-3.36,1.82-3.36,4.74h6.66A5.86,5.86,0,0,0,680.91,49.84Z" transform="translate(-2.39 -3.51)"/><path class="cls-1" d="M699.89,63.7a3.66,3.66,0,0,1-2.14-2.3,5.57,5.57,0,0,1-4.54,2.11c-3.2,0-5.18-1.63-5.18-4.7,0-3.71,3-5.7,8.16-5.7.38,0,.7,0,1.12,0V52.08c0-1.89-.26-3.17-2.5-3.17a8.85,8.85,0,0,0-4.93,1.82l-1.34-2.11a12.62,12.62,0,0,1,6.72-2.11c2.34,0,4,.86,4.64,2.56a7.31,7.31,0,0,1,.32,2.82c0,1.15-.13,3.62-.13,6s.06,3.1,1.31,3.87Zm-3.62-8.61c-2.21,0-3.55.42-4.19,1.15a3.09,3.09,0,0,0-.83,2.34c0,1.76.9,2.78,2.53,2.78a4,4,0,0,0,3.36-2.11l.1-4.1C696.78,55.12,696.53,55.09,696.27,55.09Z" transform="translate(-2.39 -3.51)"/><path class="cls-1" d="M711.63,63.34a5.87,5.87,0,0,1-5.15-2.4,9.69,9.69,0,0,1-1.54-5.79c0-3.62,1.15-5.7,2.69-7.07a6.27,6.27,0,0,1,8.51.06l-1.54,2a3.91,3.91,0,0,0-2.82-1.25A3.08,3.08,0,0,0,709,50.64a11.38,11.38,0,0,0-.77,4.9c0,2.24.45,3.71,1.28,4.61a3.11,3.11,0,0,0,2.3,1,4.49,4.49,0,0,0,3.33-1.66l1.44,1.82A6.31,6.31,0,0,1,711.63,63.34Z" transform="translate(-2.39 -3.51)"/><path class="cls-1" d="M730.1,63V52a3.53,3.53,0,0,0-.54-2.24,2.56,2.56,0,0,0-1.76-.61,6.14,6.14,0,0,0-4.26,2.34V63h-3V43.54a14,14,0,0,0-.35-3.36l3-.61a16.34,16.34,0,0,1,.35,3.71v3.58c0,.58,0,1.31-.1,2.14a11,11,0,0,1,1.7-1.31,6.19,6.19,0,0,1,3.49-1.09,4.1,4.1,0,0,1,4,2.4A6.51,6.51,0,0,1,733,51.6V63Z" transform="translate(-2.39 -3.51)"/><path class="cls-1" d="M756.69,63.7a3.66,3.66,0,0,1-2.14-2.3A5.57,5.57,0,0,1,750,63.5c-3.2,0-5.18-1.63-5.18-4.7,0-3.71,3-5.7,8.16-5.7.38,0,.7,0,1.12,0V52.08c0-1.89-.26-3.17-2.5-3.17a8.85,8.85,0,0,0-4.93,1.82l-1.34-2.11A12.62,12.62,0,0,1,752,46.51c2.34,0,4,.86,4.64,2.56a7.31,7.31,0,0,1,.32,2.82c0,1.15-.13,3.62-.13,6s.06,3.1,1.31,3.87Zm-3.62-8.61c-2.21,0-3.55.42-4.19,1.15a3.09,3.09,0,0,0-.83,2.34c0,1.76.9,2.78,2.53,2.78a4,4,0,0,0,3.36-2.11l.1-4.1C753.58,55.12,753.33,55.09,753.07,55.09Z" transform="translate(-2.39 -3.51)"/><path class="cls-1" d="M767.09,63.47a12.21,12.21,0,0,1-6-1.7l1.06-2.11a10.93,10.93,0,0,0,5.15,1.6c1.76,0,3-1,3-2.59,0-1.38-.83-2.18-2.69-2.53l-2-.38c-2.53-.51-3.9-2.08-3.9-4.45,0-2.94,2.34-5,5.79-5a10.19,10.19,0,0,1,5.06,1.31l-1,2.08a8.67,8.67,0,0,0-3.94-1.15c-1.7,0-2.78,1-2.78,2.4,0,1.15.58,1.79,2.27,2.18l2.08.48c2.94.67,4.16,2.37,4.16,4.48C773.39,61.3,770.83,63.47,767.09,63.47Z" transform="translate(-2.39 -3.51)"/><path class="cls-1" d="M782.25,63.47a12.21,12.21,0,0,1-6-1.7l1.06-2.11a10.93,10.93,0,0,0,5.15,1.6c1.76,0,3-1,3-2.59,0-1.38-.83-2.18-2.69-2.53l-2-.38c-2.53-.51-3.9-2.08-3.9-4.45,0-2.94,2.34-5,5.79-5a10.19,10.19,0,0,1,5.06,1.31l-1,2.08a8.67,8.67,0,0,0-3.94-1.15c-1.7,0-2.78,1-2.78,2.4,0,1.15.58,1.79,2.27,2.18l2.08.48c2.94.67,4.16,2.37,4.16,4.48C788.56,61.3,786,63.47,782.25,63.47Z" transform="translate(-2.39 -3.51)"/><path class="cls-1" d="M795.38,55.63V56a6,6,0,0,0,.67,3.2,4.18,4.18,0,0,0,3.68,1.89,5.7,5.7,0,0,0,3.94-1.54l1.12,1.76a8.19,8.19,0,0,1-5.54,2c-4.45,0-7.17-3.23-7.17-8.48,0-2.78.54-4.58,1.92-6.21a6,6,0,0,1,4.83-2.21,5.78,5.78,0,0,1,4.35,1.73c1.41,1.44,1.92,3.23,2,6.91v.51Zm5.7-5.79a2.88,2.88,0,0,0-2.3-1.12c-2.24,0-3.36,1.82-3.36,4.74h6.66A5.86,5.86,0,0,0,801.07,49.84Z" transform="translate(-2.39 -3.51)"/><path class="cls-1" d="M815.66,49.07h-3.17v9.66c0,2,.48,2.59,2.08,2.59a3.54,3.54,0,0,0,1.5-.32l.35,1.79a6.38,6.38,0,0,1-2.91.67,4.57,4.57,0,0,1-2.82-.86c-.64-.58-1.09-1-1.09-3.2V49.07h-1.92V47h1.92a34.73,34.73,0,0,1,.19-4.1l3-.7c-.13,1.15-.29,3.17-.29,4.8h3.9Z" transform="translate(-2.39 -3.51)"/><path class="cls-1" d="M832.75,63.34a5.87,5.87,0,0,1-5.15-2.4,9.69,9.69,0,0,1-1.54-5.79c0-3.62,1.15-5.7,2.69-7.07a6.27,6.27,0,0,1,8.51.06l-1.54,2a3.91,3.91,0,0,0-2.82-1.25,3.08,3.08,0,0,0-2.82,1.73,11.38,11.38,0,0,0-.77,4.9c0,2.24.45,3.71,1.28,4.61a3.11,3.11,0,0,0,2.3,1,4.49,4.49,0,0,0,3.33-1.66l1.44,1.82A6.31,6.31,0,0,1,832.75,63.34Z" transform="translate(-2.39 -3.51)"/><path class="cls-1" d="M844.78,63.34a2.72,2.72,0,0,1-2.5-1.22c-.48-.67-.61-1.22-.61-2.78V44.82a20.87,20.87,0,0,0-.35-4.61l3.07-.64a19.88,19.88,0,0,1,.29,4.58V59.06c0,1.12.1,1.7.51,2a1.2,1.2,0,0,0,.9.13l.51,1.82A4.31,4.31,0,0,1,844.78,63.34Z" transform="translate(-2.39 -3.51)"/><path class="cls-1" d="M861,63.7a3.66,3.66,0,0,1-2.14-2.3,5.57,5.57,0,0,1-4.54,2.11c-3.2,0-5.18-1.63-5.18-4.7,0-3.71,3-5.7,8.16-5.7.38,0,.7,0,1.12,0V52.08c0-1.89-.26-3.17-2.5-3.17A8.85,8.85,0,0,0,851,50.74l-1.34-2.11a12.62,12.62,0,0,1,6.72-2.11c2.34,0,4,.86,4.64,2.56a7.31,7.31,0,0,1,.32,2.82c0,1.15-.13,3.62-.13,6s.06,3.1,1.31,3.87Zm-3.62-8.61c-2.21,0-3.55.42-4.19,1.15a3.09,3.09,0,0,0-.83,2.34c0,1.76.9,2.78,2.53,2.78a4,4,0,0,0,3.36-2.11l.1-4.1C857.93,55.12,857.68,55.09,857.42,55.09Z" transform="translate(-2.39 -3.51)"/><path class="cls-1" d="M871.44,63.47a12.21,12.21,0,0,1-6-1.7l1.06-2.11a10.93,10.93,0,0,0,5.15,1.6c1.76,0,3-1,3-2.59,0-1.38-.83-2.18-2.69-2.53l-2-.38c-2.53-.51-3.9-2.08-3.9-4.45,0-2.94,2.34-5,5.79-5a10.19,10.19,0,0,1,5.06,1.31l-1,2.08A8.67,8.67,0,0,0,872,48.56c-1.7,0-2.78,1-2.78,2.4,0,1.15.58,1.79,2.27,2.18l2.08.48c2.94.67,4.16,2.37,4.16,4.48C877.74,61.3,875.18,63.47,871.44,63.47Z" transform="translate(-2.39 -3.51)"/><path class="cls-1" d="M886.61,63.47a12.21,12.21,0,0,1-6-1.7l1.06-2.11a10.93,10.93,0,0,0,5.15,1.6c1.76,0,3-1,3-2.59,0-1.38-.83-2.18-2.69-2.53l-2-.38c-2.53-.51-3.9-2.08-3.9-4.45,0-2.94,2.34-5,5.79-5a10.19,10.19,0,0,1,5.06,1.31l-1,2.08a8.67,8.67,0,0,0-3.94-1.15c-1.7,0-2.78,1-2.78,2.4,0,1.15.58,1.79,2.27,2.18l2.08.48c2.94.67,4.16,2.37,4.16,4.48C892.91,61.3,890.35,63.47,886.61,63.47Z" transform="translate(-2.39 -3.51)"/><path class="cls-1" d="M899.18,63.47a2.4,2.4,0,1,1,2.27-2.4A2.31,2.31,0,0,1,899.18,63.47Z" transform="translate(-2.39 -3.51)"/><path class="cls-1" d="M33,115.54H27.24V135h-3V115.54H18.47V113H33.29Z" transform="translate(-2.39 -3.51)"/><path class="cls-1" d="M45.22,135V124a3.53,3.53,0,0,0-.54-2.24,2.56,2.56,0,0,0-1.76-.61,6.14,6.14,0,0,0-4.26,2.34V135h-3V115.54a14,14,0,0,0-.35-3.36l3-.61a16.34,16.34,0,0,1,.35,3.71v3.58c0,.58,0,1.31-.1,2.14a11,11,0,0,1,1.7-1.31,6.19,6.19,0,0,1,3.49-1.09,4.1,4.1,0,0,1,4,2.4,6.51,6.51,0,0,1,.32,2.59V135Z" transform="translate(-2.39 -3.51)"/><path class="cls-1" d="M56.2,127.63V128a6,6,0,0,0,.67,3.2,4.18,4.18,0,0,0,3.68,1.89,5.7,5.7,0,0,0,3.94-1.54l1.12,1.76a8.19,8.19,0,0,1-5.54,2c-4.45,0-7.17-3.23-7.17-8.48,0-2.78.54-4.58,1.92-6.21a6,6,0,0,1,4.83-2.21A5.78,5.78,0,0,1,64,120.21c1.41,1.44,1.92,3.23,2,6.91v.51Zm5.7-5.79a2.88,2.88,0,0,0-2.3-1.12c-2.24,0-3.36,1.82-3.36,4.74h6.66A5.86,5.86,0,0,0,61.89,121.84Z" transform="translate(-2.39 -3.51)"/><path class="cls-1" d="M82.34,135.47a12.21,12.21,0,0,1-6-1.7l1.06-2.11a10.93,10.93,0,0,0,5.15,1.6c1.76,0,3-1,3-2.59,0-1.38-.83-2.18-2.69-2.53l-2-.38c-2.53-.51-3.9-2.08-3.9-4.45,0-2.94,2.34-5,5.79-5a10.19,10.19,0,0,1,5.06,1.31l-1,2.08a8.67,8.67,0,0,0-3.94-1.15c-1.7,0-2.78,1-2.78,2.4,0,1.15.58,1.79,2.27,2.18l2.08.48c2.94.67,4.16,2.37,4.16,4.48C88.65,133.3,86.09,135.47,82.34,135.47Z" transform="translate(-2.39 -3.51)"/><path class="cls-1" d="M99,121.07H95.85v9.66c0,2,.48,2.59,2.08,2.59a3.54,3.54,0,0,0,1.5-.32l.35,1.79a6.38,6.38,0,0,1-2.91.67,4.57,4.57,0,0,1-2.82-.86c-.64-.58-1.09-1-1.09-3.2V121.07H91V119H93a34.73,34.73,0,0,1,.19-4.1l3-.7c-.13,1.15-.29,3.17-.29,4.8h3.9Z" transform="translate(-2.39 -3.51)"/><path class="cls-1" d="M113.83,135.7a3.66,3.66,0,0,1-2.14-2.3,5.57,5.57,0,0,1-4.54,2.11c-3.2,0-5.18-1.63-5.18-4.7,0-3.71,3-5.7,8.16-5.7.38,0,.7,0,1.12,0v-1.06c0-1.89-.26-3.17-2.5-3.17a8.85,8.85,0,0,0-4.93,1.82l-1.34-2.11a12.62,12.62,0,0,1,6.72-2.11c2.34,0,4,.86,4.64,2.56a7.31,7.31,0,0,1,.32,2.82c0,1.15-.13,3.62-.13,6s.06,3.1,1.31,3.87Zm-3.62-8.61c-2.21,0-3.55.42-4.19,1.15a3.09,3.09,0,0,0-.83,2.34c0,1.76.9,2.78,2.53,2.78a4,4,0,0,0,3.36-2.11l.1-4.1C110.73,127.12,110.47,127.09,110.21,127.09Z" transform="translate(-2.39 -3.51)"/><path class="cls-1" d="M131.62,121.27a3.81,3.81,0,0,1-1.38-.26A4.48,4.48,0,0,1,131.4,124c0,2.3-1.57,5-5.76,5-1,.32-2.53,1.06-2.53,1.76,0,.48.38.8,1.15.8h2.46c4.1,0,5.79,1.92,5.79,4.42,0,3.46-2.85,5.18-6.75,5.18-4.48,0-7-1.57-7-4.22a4.8,4.8,0,0,1,.29-1.63l2.88-.16a3.09,3.09,0,0,0-.29,1.22c0,1.66,1.38,2.56,3.87,2.56s3.94-1.06,3.94-2.75c0-1.54-1.25-2.43-4.42-2.43-1.12,0-2.4-.1-3-.16-1.41-.16-2.24-1-2.24-2.14,0-1.5,1.31-2.14,3.14-2.82-2.46-.74-3.78-2.4-3.78-4.61,0-3.23,2.46-5.38,6.14-5.38a7.83,7.83,0,0,1,2.5.35,9,9,0,0,0,2.4.51,4.38,4.38,0,0,0,2.62-.93l1.5,1.82A4,4,0,0,1,131.62,121.27Zm-6.43-.42c-1.89,0-2.91,1-2.91,3.07a2.65,2.65,0,0,0,2.94,3c1.92,0,2.91-1.06,2.91-3S127.21,120.85,125.19,120.85Z" transform="translate(-2.39 -3.51)"/><path class="cls-1" d="M139.17,127.63V128a6,6,0,0,0,.67,3.2,4.18,4.18,0,0,0,3.68,1.89,5.7,5.7,0,0,0,3.94-1.54l1.12,1.76a8.19,8.19,0,0,1-5.54,2c-4.45,0-7.17-3.23-7.17-8.48,0-2.78.54-4.58,1.92-6.21a6,6,0,0,1,4.83-2.21,5.78,5.78,0,0,1,4.35,1.73c1.41,1.44,1.92,3.23,2,6.91v.51Zm5.7-5.79a2.88,2.88,0,0,0-2.3-1.12c-2.24,0-3.36,1.82-3.36,4.74h6.66A5.86,5.86,0,0,0,144.87,121.84Z" transform="translate(-2.39 -3.51)"/><path class="cls-1" d="M158,135.47a12.21,12.21,0,0,1-6-1.7l1.06-2.11a10.93,10.93,0,0,0,5.15,1.6c1.76,0,3-1,3-2.59,0-1.38-.83-2.18-2.69-2.53l-2-.38c-2.53-.51-3.9-2.08-3.9-4.45,0-2.94,2.34-5,5.79-5a10.19,10.19,0,0,1,5.06,1.31l-1,2.08a8.67,8.67,0,0,0-3.94-1.15c-1.7,0-2.78,1-2.78,2.4,0,1.15.58,1.79,2.27,2.18l2.08.48c2.94.67,4.16,2.37,4.16,4.48C164.26,133.3,161.7,135.47,158,135.47Z" transform="translate(-2.39 -3.51)"/><path class="cls-1" d="M190.12,135.15h-2.85l-2.34-8.74-1-3.78h-.1l-.86,3.58-2.4,8.93h-2.82l-4.38-16,3-.48,2,9,.83,3.94h.1a34.58,34.58,0,0,1,.74-3.65L182.5,119h3l2.24,8.67c.38,1.54.8,3.46.9,3.9h.13l.74-3.81,2-8.77h3.07Z" transform="translate(-2.39 -3.51)"/><path class="cls-1" d="M199.3,116.18a2.08,2.08,0,0,1-2-2.11,2.1,2.1,0,1,1,4.19,0A2.14,2.14,0,0,1,199.3,116.18ZM197.8,135V119.09l3-.48V135Z" transform="translate(-2.39 -3.51)"/><path class="cls-1" d="M212.65,121.07h-3.17v9.66c0,2,.48,2.59,2.08,2.59a3.54,3.54,0,0,0,1.5-.32l.35,1.79a6.38,6.38,0,0,1-2.91.67,4.57,4.57,0,0,1-2.82-.86c-.64-.58-1.09-1-1.09-3.2V121.07h-1.92V119h1.92a34.73,34.73,0,0,1,.19-4.1l3-.7c-.13,1.15-.29,3.17-.29,4.8h3.9Z" transform="translate(-2.39 -3.51)"/><path class="cls-1" d="M226.66,135V124a3.53,3.53,0,0,0-.54-2.24,2.56,2.56,0,0,0-1.76-.61,6.14,6.14,0,0,0-4.26,2.34V135h-3V115.54a14,14,0,0,0-.35-3.36l3-.61a16.34,16.34,0,0,1,.35,3.71v3.58c0,.58,0,1.31-.1,2.14a11,11,0,0,1,1.7-1.31,6.19,6.19,0,0,1,3.49-1.09,4.1,4.1,0,0,1,4,2.4,6.51,6.51,0,0,1,.32,2.59V135Z" transform="translate(-2.39 -3.51)"/><path class="cls-1" d="M236.81,116.18a2.08,2.08,0,0,1-2-2.11,2.1,2.1,0,1,1,4.19,0A2.14,2.14,0,0,1,236.81,116.18ZM235.3,135V119.09l3-.48V135Z" transform="translate(-2.39 -3.51)"/><path class="cls-1" d="M253.12,135V124.21c0-1.44-.13-2-.51-2.46a2,2,0,0,0-1.63-.64,6.47,6.47,0,0,0-4,2V135H244.1V123.09a8.75,8.75,0,0,0-.61-3.81l2.78-.77a5.09,5.09,0,0,1,.54,2.46,13.78,13.78,0,0,1,2.08-1.57,5.94,5.94,0,0,1,3-.8,4,4,0,0,1,3.78,2.27,5,5,0,0,1,.38,2V135Z" transform="translate(-2.39 -3.51)"/><path class="cls-1" d="M275,121.07h-3.17v9.66c0,2,.48,2.59,2.08,2.59a3.54,3.54,0,0,0,1.5-.32l.35,1.79a6.38,6.38,0,0,1-2.91.67,4.57,4.57,0,0,1-2.82-.86c-.64-.58-1.09-1-1.09-3.2V121.07h-1.92V119H269a34.73,34.73,0,0,1,.19-4.1l3-.7c-.13,1.15-.29,3.17-.29,4.8h3.9Z" transform="translate(-2.39 -3.51)"/><path class="cls-1" d="M289.06,135V124a3.53,3.53,0,0,0-.54-2.24,2.56,2.56,0,0,0-1.76-.61,6.14,6.14,0,0,0-4.26,2.34V135h-3V115.54a14,14,0,0,0-.35-3.36l3-.61a16.34,16.34,0,0,1,.35,3.71v3.58c0,.58,0,1.31-.1,2.14a11,11,0,0,1,1.7-1.31,6.19,6.19,0,0,1,3.49-1.09,4.1,4.1,0,0,1,4,2.4,6.51,6.51,0,0,1,.32,2.59V135Z" transform="translate(-2.39 -3.51)"/><path class="cls-1" d="M300,127.63V128a6,6,0,0,0,.67,3.2,4.18,4.18,0,0,0,3.68,1.89,5.7,5.7,0,0,0,3.94-1.54l1.12,1.76a8.19,8.19,0,0,1-5.54,2c-4.45,0-7.17-3.23-7.17-8.48,0-2.78.54-4.58,1.92-6.21a6,6,0,0,1,4.83-2.21,5.78,5.78,0,0,1,4.35,1.73c1.41,1.44,1.92,3.23,2,6.91v.51Zm5.7-5.79a2.88,2.88,0,0,0-2.3-1.12c-2.24,0-3.36,1.82-3.36,4.74h6.66A5.86,5.86,0,0,0,305.73,121.84Z" transform="translate(-2.39 -3.51)"/><path class="cls-1" d="M328.45,135.34a6.16,6.16,0,0,1-4.16-1.66,16.18,16.18,0,0,1,.06,1.79v5.63l-2.88.67V122.93a17,17,0,0,0-.35-3.94l2.85-.48a8.31,8.31,0,0,1,.19,2.3,5.81,5.81,0,0,1,4.54-2.24c3.26,0,6,2.66,6,8.16C334.72,131.73,332.55,135.34,328.45,135.34Zm-.26-14.27a5,5,0,0,0-3.84,2v8.16a5,5,0,0,0,3.42,1.76c2.59,0,3.78-2,3.78-5.89S330.72,121.07,328.19,121.07Z" transform="translate(-2.39 -3.51)"/><path class="cls-1" d="M340.87,116.18a2.08,2.08,0,0,1-2-2.11,2.1,2.1,0,1,1,4.19,0A2.14,2.14,0,0,1,340.87,116.18ZM339.36,135V119.09l3-.48V135Z" transform="translate(-2.39 -3.51)"/><path class="cls-1" d="M355.14,135.34a6.16,6.16,0,0,1-4.16-1.66,16.18,16.18,0,0,1,.06,1.79v5.63l-2.88.67V122.93a17,17,0,0,0-.35-3.94l2.85-.48a8.31,8.31,0,0,1,.19,2.3,5.81,5.81,0,0,1,4.54-2.24c3.26,0,6,2.66,6,8.16C361.41,131.73,359.23,135.34,355.14,135.34Zm-.26-14.27a5,5,0,0,0-3.84,2v8.16a5,5,0,0,0,3.42,1.76c2.59,0,3.78-2,3.78-5.89S357.41,121.07,354.88,121.07Z" transform="translate(-2.39 -3.51)"/><path class="cls-1" d="M368.55,127.63V128a6,6,0,0,0,.67,3.2,4.18,4.18,0,0,0,3.68,1.89,5.7,5.7,0,0,0,3.94-1.54l1.12,1.76a8.19,8.19,0,0,1-5.54,2c-4.45,0-7.17-3.23-7.17-8.48,0-2.78.54-4.58,1.92-6.21a6,6,0,0,1,4.83-2.21,5.78,5.78,0,0,1,4.35,1.73c1.41,1.44,1.92,3.23,2,6.91v.51Zm5.7-5.79a2.88,2.88,0,0,0-2.3-1.12c-2.24,0-3.36,1.82-3.36,4.74h6.66A5.86,5.86,0,0,0,374.24,121.84Z" transform="translate(-2.39 -3.51)"/><path class="cls-1" d="M385.89,135.34a2.72,2.72,0,0,1-2.5-1.22c-.48-.67-.61-1.22-.61-2.78V116.82a20.87,20.87,0,0,0-.35-4.61l3.07-.64a19.88,19.88,0,0,1,.29,4.58v14.91c0,1.12.1,1.7.51,2a1.2,1.2,0,0,0,.9.13l.51,1.82A4.31,4.31,0,0,1,385.89,135.34Z" transform="translate(-2.39 -3.51)"/><path class="cls-1" d="M393.06,116.18a2.08,2.08,0,0,1-2-2.11,2.1,2.1,0,1,1,4.19,0A2.14,2.14,0,0,1,393.06,116.18ZM391.55,135V119.09l3-.48V135Z" transform="translate(-2.39 -3.51)"/><path class="cls-1" d="M409.38,135V124.21c0-1.44-.13-2-.51-2.46a2,2,0,0,0-1.63-.64,6.47,6.47,0,0,0-4,2V135h-2.91V123.09a8.75,8.75,0,0,0-.61-3.81l2.78-.77a5.09,5.09,0,0,1,.54,2.46,13.81,13.81,0,0,1,2.08-1.57,5.94,5.94,0,0,1,3-.8,4,4,0,0,1,3.78,2.27,5,5,0,0,1,.38,2V135Z" transform="translate(-2.39 -3.51)"/><path class="cls-1" d="M420.39,127.63V128a6,6,0,0,0,.67,3.2,4.18,4.18,0,0,0,3.68,1.89,5.7,5.7,0,0,0,3.94-1.54l1.12,1.76a8.19,8.19,0,0,1-5.54,2c-4.45,0-7.17-3.23-7.17-8.48,0-2.78.54-4.58,1.92-6.21a6,6,0,0,1,4.83-2.21,5.78,5.78,0,0,1,4.35,1.73c1.41,1.44,1.92,3.23,2,6.91v.51Zm5.7-5.79a2.88,2.88,0,0,0-2.3-1.12c-2.24,0-3.36,1.82-3.36,4.74h6.66A5.86,5.86,0,0,0,426.08,121.84Z" transform="translate(-2.39 -3.51)"/><path class="cls-1" d="M452.58,135.7a3.66,3.66,0,0,1-2.14-2.3,5.57,5.57,0,0,1-4.54,2.11c-3.2,0-5.18-1.63-5.18-4.7,0-3.71,3-5.7,8.16-5.7.38,0,.7,0,1.12,0v-1.06c0-1.89-.26-3.17-2.5-3.17a8.85,8.85,0,0,0-4.93,1.82l-1.34-2.11a12.62,12.62,0,0,1,6.72-2.11c2.34,0,4,.86,4.64,2.56a7.31,7.31,0,0,1,.32,2.82c0,1.15-.13,3.62-.13,6s.06,3.1,1.31,3.87ZM449,127.09c-2.21,0-3.55.42-4.19,1.15a3.09,3.09,0,0,0-.83,2.34c0,1.76.9,2.78,2.53,2.78a4,4,0,0,0,3.36-2.11l.1-4.1C449.47,127.12,449.22,127.09,449,127.09Z" transform="translate(-2.39 -3.51)"/><path class="cls-1" d="M465.7,121.58a2.4,2.4,0,0,0-.83-.16,3.35,3.35,0,0,0-3.33,3.26V135h-2.94V123.25a10.24,10.24,0,0,0-.61-4l2.85-.74a6.63,6.63,0,0,1,.54,2.46v.29c1.28-1.86,2.66-2.78,4.35-2.78a2.92,2.92,0,0,1,1,.16Z" transform="translate(-2.39 -3.51)"/><path class="cls-1" d="M471.68,127.63V128a6,6,0,0,0,.67,3.2A4.18,4.18,0,0,0,476,133.1a5.7,5.7,0,0,0,3.94-1.54l1.12,1.76a8.19,8.19,0,0,1-5.54,2c-4.45,0-7.17-3.23-7.17-8.48,0-2.78.54-4.58,1.92-6.21a6,6,0,0,1,4.83-2.21,5.78,5.78,0,0,1,4.35,1.73c1.41,1.44,1.92,3.23,2,6.91v.51Zm5.7-5.79a2.88,2.88,0,0,0-2.3-1.12c-2.24,0-3.36,1.82-3.36,4.74h6.66A5.86,5.86,0,0,0,477.38,121.84Z" transform="translate(-2.39 -3.51)"/><path class="cls-1" d="M503.87,135.7a3.66,3.66,0,0,1-2.14-2.3,5.57,5.57,0,0,1-4.54,2.11c-3.2,0-5.18-1.63-5.18-4.7,0-3.71,3-5.7,8.16-5.7.38,0,.7,0,1.12,0v-1.06c0-1.89-.26-3.17-2.5-3.17a8.85,8.85,0,0,0-4.93,1.82l-1.34-2.11a12.62,12.62,0,0,1,6.72-2.11c2.34,0,4,.86,4.64,2.56a7.31,7.31,0,0,1,.32,2.82c0,1.15-.13,3.62-.13,6s.06,3.1,1.31,3.87Zm-3.62-8.61c-2.21,0-3.55.42-4.19,1.15a3.09,3.09,0,0,0-.83,2.34c0,1.76.9,2.78,2.53,2.78a4,4,0,0,0,3.36-2.11l.1-4.1C500.77,127.12,500.51,127.09,500.26,127.09Z" transform="translate(-2.39 -3.51)"/><path class="cls-1" d="M512.83,135.34a2.72,2.72,0,0,1-2.5-1.22c-.48-.67-.61-1.22-.61-2.78V116.82a20.87,20.87,0,0,0-.35-4.61l3.07-.64a19.88,19.88,0,0,1,.29,4.58v14.91c0,1.12.1,1.7.51,2a1.2,1.2,0,0,0,.9.13l.51,1.82A4.31,4.31,0,0,1,512.83,135.34Z" transform="translate(-2.39 -3.51)"/><path class="cls-1" d="M520,116.18a2.08,2.08,0,0,1-2-2.11,2.1,2.1,0,1,1,4.19,0A2.14,2.14,0,0,1,520,116.18ZM518.5,135V119.09l3-.48V135Z" transform="translate(-2.39 -3.51)"/><path class="cls-1" d="M539.07,121.27a3.81,3.81,0,0,1-1.38-.26,4.48,4.48,0,0,1,1.15,2.94c0,2.3-1.57,5-5.76,5-1,.32-2.53,1.06-2.53,1.76,0,.48.38.8,1.15.8h2.46c4.1,0,5.79,1.92,5.79,4.42,0,3.46-2.85,5.18-6.75,5.18-4.48,0-7-1.57-7-4.22a4.8,4.8,0,0,1,.29-1.63l2.88-.16a3.09,3.09,0,0,0-.29,1.22c0,1.66,1.38,2.56,3.87,2.56s3.94-1.06,3.94-2.75c0-1.54-1.25-2.43-4.42-2.43-1.12,0-2.4-.1-3-.16-1.41-.16-2.24-1-2.24-2.14,0-1.5,1.31-2.14,3.14-2.82-2.46-.74-3.78-2.4-3.78-4.61,0-3.23,2.46-5.38,6.14-5.38a7.83,7.83,0,0,1,2.5.35,9,9,0,0,0,2.4.51,4.38,4.38,0,0,0,2.62-.93l1.5,1.82A4,4,0,0,1,539.07,121.27Zm-6.43-.42c-1.89,0-2.91,1-2.91,3.07a2.65,2.65,0,0,0,2.94,3c1.92,0,2.91-1.06,2.91-3S534.66,120.85,532.64,120.85Z" transform="translate(-2.39 -3.51)"/><path class="cls-1" d="M553.63,135V124.21c0-1.44-.13-2-.51-2.46a2,2,0,0,0-1.63-.64,6.47,6.47,0,0,0-4,2V135h-2.91V123.09a8.75,8.75,0,0,0-.61-3.81l2.78-.77a5.09,5.09,0,0,1,.54,2.46,13.78,13.78,0,0,1,2.08-1.57,5.94,5.94,0,0,1,3-.8,4,4,0,0,1,3.78,2.27,5,5,0,0,1,.38,2V135Z" transform="translate(-2.39 -3.51)"/><path class="cls-1" d="M564.64,127.63V128a6,6,0,0,0,.67,3.2A4.18,4.18,0,0,0,569,133.1a5.7,5.7,0,0,0,3.94-1.54l1.12,1.76a8.19,8.19,0,0,1-5.54,2c-4.45,0-7.17-3.23-7.17-8.48,0-2.78.54-4.58,1.92-6.21a6,6,0,0,1,4.83-2.21,5.78,5.78,0,0,1,4.35,1.73c1.41,1.44,1.92,3.23,2,6.91v.51Zm5.7-5.79a2.88,2.88,0,0,0-2.3-1.12c-2.24,0-3.36,1.82-3.36,4.74h6.66A5.86,5.86,0,0,0,570.34,121.84Z" transform="translate(-2.39 -3.51)"/><path class="cls-1" d="M588.83,135a6.24,6.24,0,0,1-.29-1.5,5.35,5.35,0,0,1-4.13,1.76c-4.1,0-6.5-3.07-6.5-8.13,0-3.46,1.18-6.11,3.36-7.52a5.53,5.53,0,0,1,3.14-.93,4.78,4.78,0,0,1,3.9,1.86c0-.45-.06-1.73-.06-2.82v-6.24l2.94.48v17.66a19.2,19.2,0,0,0,.45,5.38Zm-.61-12.45a4.11,4.11,0,0,0-3.39-1.5A3.14,3.14,0,0,0,582,122.7a8.52,8.52,0,0,0-.83,4.42c0,3.1.38,4,1.25,4.86a3,3,0,0,0,2.37.83,3.8,3.8,0,0,0,3.39-1.86Z" transform="translate(-2.39 -3.51)"/><path class="cls-1" d="M618.33,135.15h-2.85l-2.34-8.74-1-3.78h-.1l-.86,3.58-2.4,8.93H606l-4.38-16,3-.48,2,9,.83,3.94h.1a34.58,34.58,0,0,1,.74-3.65l2.43-8.93h3l2.24,8.67c.38,1.54.8,3.46.9,3.9H617l.74-3.81,2-8.77h3.07Z" transform="translate(-2.39 -3.51)"/><path class="cls-1" d="M627.52,116.18a2.08,2.08,0,0,1-2-2.11,2.1,2.1,0,1,1,4.19,0A2.14,2.14,0,0,1,627.52,116.18ZM626,135V119.09l3-.48V135Z" transform="translate(-2.39 -3.51)"/><path class="cls-1" d="M640.86,121.07h-3.17v9.66c0,2,.48,2.59,2.08,2.59a3.54,3.54,0,0,0,1.5-.32l.35,1.79a6.38,6.38,0,0,1-2.91.67,4.57,4.57,0,0,1-2.82-.86c-.64-.58-1.09-1-1.09-3.2V121.07h-1.92V119h1.92a34.73,34.73,0,0,1,.19-4.1l3-.7c-.13,1.15-.29,3.17-.29,4.8h3.9Z" transform="translate(-2.39 -3.51)"/><path class="cls-1" d="M654.88,135V124a3.53,3.53,0,0,0-.54-2.24,2.56,2.56,0,0,0-1.76-.61,6.14,6.14,0,0,0-4.26,2.34V135h-3V115.54a14,14,0,0,0-.35-3.36l3-.61a16.34,16.34,0,0,1,.35,3.71v3.58c0,.58,0,1.31-.1,2.14a11,11,0,0,1,1.7-1.31,6.19,6.19,0,0,1,3.49-1.09,4.1,4.1,0,0,1,4,2.4,6.51,6.51,0,0,1,.32,2.59V135Z" transform="translate(-2.39 -3.51)"/><path class="cls-1" d="M676.77,121.07H673.6v9.66c0,2,.48,2.59,2.08,2.59a3.54,3.54,0,0,0,1.5-.32l.35,1.79a6.38,6.38,0,0,1-2.91.67,4.57,4.57,0,0,1-2.82-.86c-.64-.58-1.09-1-1.09-3.2V121.07H668.8V119h1.92a34.73,34.73,0,0,1,.19-4.1l3-.7c-.13,1.15-.29,3.17-.29,4.8h3.9Z" transform="translate(-2.39 -3.51)"/><path class="cls-1" d="M690.78,135V124a3.53,3.53,0,0,0-.54-2.24,2.56,2.56,0,0,0-1.76-.61,6.14,6.14,0,0,0-4.26,2.34V135h-3V115.54a14,14,0,0,0-.35-3.36l3-.61a16.34,16.34,0,0,1,.35,3.71v3.58c0,.58,0,1.31-.1,2.14a11,11,0,0,1,1.7-1.31,6.19,6.19,0,0,1,3.49-1.09,4.1,4.1,0,0,1,4,2.4,6.51,6.51,0,0,1,.32,2.59V135Z" transform="translate(-2.39 -3.51)"/><path class="cls-1" d="M701.76,127.63V128a6,6,0,0,0,.67,3.2,4.18,4.18,0,0,0,3.68,1.89,5.7,5.7,0,0,0,3.94-1.54l1.12,1.76a8.19,8.19,0,0,1-5.54,2c-4.45,0-7.17-3.23-7.17-8.48,0-2.78.54-4.58,1.92-6.21a6,6,0,0,1,4.83-2.21,5.78,5.78,0,0,1,4.35,1.73c1.41,1.44,1.92,3.23,2,6.91v.51Zm5.7-5.79a2.88,2.88,0,0,0-2.3-1.12c-2.24,0-3.36,1.82-3.36,4.74h6.66A5.86,5.86,0,0,0,707.45,121.84Z" transform="translate(-2.39 -3.51)"/><path class="cls-1" d="M741.72,138.7a4,4,0,0,1-1.86.32,8.72,8.72,0,0,1-4.1-1.63,12.47,12.47,0,0,0-4.64-2,7.8,7.8,0,0,1-6.34-2.91c-1.73-2-2.56-5-2.56-8.54,0-4.8,1.63-8.51,4.51-10.21a8.57,8.57,0,0,1,4.38-1.09,8.13,8.13,0,0,1,6.94,3.42,13.73,13.73,0,0,1,2.14,8.1c0,4.13-1.09,6.88-3.14,8.93a7.87,7.87,0,0,1-1.54,1.25,20,20,0,0,1,2.75,1.44,5.7,5.7,0,0,0,2.91.93,7.17,7.17,0,0,0,1.38-.13Zm-6-20.7a4.74,4.74,0,0,0-4.61-3,4.92,4.92,0,0,0-4.32,2.37,13,13,0,0,0-1.15,6.21c0,3.55.64,6.3,1.63,7.58a5.09,5.09,0,0,0,4,1.86,4.4,4.4,0,0,0,3.9-2c1-1.38,1.44-3.33,1.44-6.66A16.88,16.88,0,0,0,735.74,118Z" transform="translate(-2.39 -3.51)"/><path class="cls-1" d="M755.9,135.57a3.78,3.78,0,0,1-1.5-2.3,5.88,5.88,0,0,1-4.83,2.3,4.51,4.51,0,0,1-4.32-2.4,6.82,6.82,0,0,1-.38-2.69V119.09l2.91-.58v11.17c0,1.63.16,2.27.74,2.82a2.93,2.93,0,0,0,1.86.7,4.41,4.41,0,0,0,3.65-2.53V119.15l2.91-.58v12.06c0,1.63.35,2.78,1,3.33Z" transform="translate(-2.39 -3.51)"/><path class="cls-1" d="M765,127.63V128a6,6,0,0,0,.67,3.2,4.18,4.18,0,0,0,3.68,1.89,5.7,5.7,0,0,0,3.94-1.54l1.12,1.76a8.19,8.19,0,0,1-5.54,2c-4.45,0-7.17-3.23-7.17-8.48,0-2.78.54-4.58,1.92-6.21a6,6,0,0,1,4.83-2.21,5.78,5.78,0,0,1,4.35,1.73c1.41,1.44,1.92,3.23,2,6.91v.51Zm5.7-5.79a2.88,2.88,0,0,0-2.3-1.12c-2.24,0-3.36,1.82-3.36,4.74h6.66A5.86,5.86,0,0,0,770.72,121.84Z" transform="translate(-2.39 -3.51)"/><path class="cls-1" d="M781.6,127.63V128a6,6,0,0,0,.67,3.2,4.18,4.18,0,0,0,3.68,1.89,5.7,5.7,0,0,0,3.94-1.54l1.12,1.76a8.19,8.19,0,0,1-5.54,2c-4.45,0-7.17-3.23-7.17-8.48,0-2.78.54-4.58,1.92-6.21a6,6,0,0,1,4.83-2.21,5.78,5.78,0,0,1,4.35,1.73c1.41,1.44,1.92,3.23,2,6.91v.51Zm5.7-5.79a2.88,2.88,0,0,0-2.3-1.12c-2.24,0-3.36,1.82-3.36,4.74h6.66A5.86,5.86,0,0,0,787.29,121.84Z" transform="translate(-2.39 -3.51)"/><path class="cls-1" d="M804.86,135V124.21c0-1.44-.13-2-.51-2.46a2,2,0,0,0-1.63-.64,6.47,6.47,0,0,0-4,2V135h-2.91V123.09a8.75,8.75,0,0,0-.61-3.81l2.78-.77a5.09,5.09,0,0,1,.54,2.46,13.78,13.78,0,0,1,2.08-1.57,5.94,5.94,0,0,1,3-.8,4,4,0,0,1,3.78,2.27,5,5,0,0,1,.38,2V135Z" transform="translate(-2.39 -3.51)"/><path class="cls-1" d="M818.08,135.47a12.21,12.21,0,0,1-6-1.7l1.06-2.11a10.93,10.93,0,0,0,5.15,1.6c1.76,0,3-1,3-2.59,0-1.38-.83-2.18-2.69-2.53l-2-.38c-2.53-.51-3.9-2.08-3.9-4.45,0-2.94,2.34-5,5.79-5a10.19,10.19,0,0,1,5.06,1.31l-1,2.08a8.67,8.67,0,0,0-3.94-1.15c-1.7,0-2.78,1-2.78,2.4,0,1.15.58,1.79,2.27,2.18l2.08.48c2.94.67,4.16,2.37,4.16,4.48C824.38,133.3,821.82,135.47,818.08,135.47Z" transform="translate(-2.39 -3.51)"/><path class="cls-1" d="M831.8,135.34a2.72,2.72,0,0,1-2.5-1.22c-.48-.67-.61-1.22-.61-2.78V116.82a20.87,20.87,0,0,0-.35-4.61l3.07-.64a19.88,19.88,0,0,1,.29,4.58v14.91c0,1.12.1,1.7.51,2a1.2,1.2,0,0,0,.9.13l.51,1.82A4.31,4.31,0,0,1,831.8,135.34Z" transform="translate(-2.39 -3.51)"/><path class="cls-1" d="M848.06,135.7a3.66,3.66,0,0,1-2.14-2.3,5.57,5.57,0,0,1-4.54,2.11c-3.2,0-5.18-1.63-5.18-4.7,0-3.71,3-5.7,8.16-5.7.38,0,.7,0,1.12,0v-1.06c0-1.89-.26-3.17-2.5-3.17a8.85,8.85,0,0,0-4.93,1.82l-1.34-2.11a12.62,12.62,0,0,1,6.72-2.11c2.34,0,4,.86,4.64,2.56a7.31,7.31,0,0,1,.32,2.82c0,1.15-.13,3.62-.13,6s.06,3.1,1.31,3.87Zm-3.62-8.61c-2.21,0-3.55.42-4.19,1.15a3.09,3.09,0,0,0-.83,2.34c0,1.76.9,2.78,2.53,2.78a4,4,0,0,0,3.36-2.11l.1-4.1C845,127.12,844.7,127.09,844.44,127.09Z" transform="translate(-2.39 -3.51)"/><path class="cls-1" d="M863.1,135V124.21c0-1.44-.13-2-.51-2.46a2,2,0,0,0-1.63-.64,6.47,6.47,0,0,0-4,2V135h-2.91V123.09a8.75,8.75,0,0,0-.61-3.81l2.78-.77a5.09,5.09,0,0,1,.54,2.46,13.81,13.81,0,0,1,2.08-1.57,5.94,5.94,0,0,1,3-.8,4,4,0,0,1,3.78,2.27,5,5,0,0,1,.38,2V135Z" transform="translate(-2.39 -3.51)"/><path class="cls-1" d="M881.72,135a6.24,6.24,0,0,1-.29-1.5,5.35,5.35,0,0,1-4.13,1.76c-4.1,0-6.5-3.07-6.5-8.13,0-3.46,1.18-6.11,3.36-7.52a5.53,5.53,0,0,1,3.14-.93,4.78,4.78,0,0,1,3.9,1.86c0-.45-.06-1.73-.06-2.82v-6.24l2.94.48v17.66a19.2,19.2,0,0,0,.45,5.38Zm-.61-12.45a4.11,4.11,0,0,0-3.39-1.5,3.14,3.14,0,0,0-2.78,1.63,8.52,8.52,0,0,0-.83,4.42c0,3.1.38,4,1.25,4.86a3,3,0,0,0,2.37.83,3.8,3.8,0,0,0,3.39-1.86Z" transform="translate(-2.39 -3.51)"/><path class="cls-1" d="M145,171.34a8.71,8.71,0,0,1-7-3c-1.76-2-2.56-4.64-2.56-8.26,0-4.42,1.28-7.46,3.81-9.54a8.25,8.25,0,0,1,5.54-1.89,9.2,9.2,0,0,1,6.24,2.21l-1.47,1.92a7.49,7.49,0,0,0-4.7-1.66,4.84,4.84,0,0,0-4.74,2.82,12.65,12.65,0,0,0-1.22,6.3c0,3,.54,5.31,1.57,6.66a6.09,6.09,0,0,0,4.74,2,6.58,6.58,0,0,0,3.26-.83v-6.27h-4.06l-.51-2.53h7.62v10.3A12.68,12.68,0,0,1,145,171.34Z" transform="translate(-2.39 -3.51)"/><path class="cls-1" d="M163,171.47c-4.29,0-6.94-3.26-6.94-8.48s2.66-8.45,6.88-8.45c4.74,0,7,3.78,7,8.61C170,168.24,167.23,171.47,163,171.47Zm-.06-14.65c-2.56,0-3.62,1.82-3.62,5.86,0,4.9,1.25,6.53,3.74,6.53,2.24,0,3.62-1.73,3.62-5.92C166.66,158.32,165.22,156.82,162.91,156.82Z" transform="translate(-2.39 -3.51)"/><path class="cls-1" d="M180.36,171.15H177.6l-5.73-16.09,3-.48,3.17,9.7c.35,1.09.7,2.37,1,3.46h.06a28.68,28.68,0,0,1,1-3.52l3-9.22h3.1Z" transform="translate(-2.39 -3.51)"/><path class="cls-1" d="M191.33,163.63V164a6,6,0,0,0,.67,3.2,4.18,4.18,0,0,0,3.68,1.89,5.7,5.7,0,0,0,3.94-1.54l1.12,1.76a8.19,8.19,0,0,1-5.54,2c-4.45,0-7.17-3.23-7.17-8.48,0-2.78.54-4.58,1.92-6.21a6,6,0,0,1,4.83-2.21,5.78,5.78,0,0,1,4.35,1.73c1.41,1.44,1.92,3.23,2,6.91v.51Zm5.7-5.79a2.88,2.88,0,0,0-2.3-1.12c-2.24,0-3.36,1.82-3.36,4.74H198A5.86,5.86,0,0,0,197,157.84Z" transform="translate(-2.39 -3.51)"/><path class="cls-1" d="M212.67,157.58a2.4,2.4,0,0,0-.83-.16,3.35,3.35,0,0,0-3.33,3.26V171h-2.94V159.25a10.24,10.24,0,0,0-.61-4l2.85-.74a6.63,6.63,0,0,1,.54,2.46v.29c1.28-1.86,2.66-2.78,4.35-2.78a2.92,2.92,0,0,1,1,.16Z" transform="translate(-2.39 -3.51)"/><path class="cls-1" d="M225.76,171V160.21c0-1.44-.13-2-.51-2.46a2,2,0,0,0-1.63-.64,6.47,6.47,0,0,0-4,2V171h-2.91V159.09a8.75,8.75,0,0,0-.61-3.81l2.78-.77a5.09,5.09,0,0,1,.54,2.46,13.81,13.81,0,0,1,2.08-1.57,5.94,5.94,0,0,1,3-.8,4,4,0,0,1,3.78,2.27,5,5,0,0,1,.38,2V171Z" transform="translate(-2.39 -3.51)"/><path class="cls-1" d="M251.55,171V159.54c0-1.82-.58-2.46-1.92-2.46s-2.53,1-3.74,2.18V171H243V159.6c0-1.79-.51-2.46-2-2.46a5.51,5.51,0,0,0-3.68,1.86v12h-2.91V159.25a8.72,8.72,0,0,0-.58-4l2.75-.67a4.54,4.54,0,0,1,.54,2.24,6.55,6.55,0,0,1,4.51-2.27,4.14,4.14,0,0,1,3.81,2.53,6.87,6.87,0,0,1,4.9-2.53c2.5,0,4.1,1.57,4.1,4.51v12Z" transform="translate(-2.39 -3.51)"/><path class="cls-1" d="M262.56,163.63V164a6,6,0,0,0,.67,3.2,4.18,4.18,0,0,0,3.68,1.89,5.7,5.7,0,0,0,3.94-1.54l1.12,1.76a8.19,8.19,0,0,1-5.54,2c-4.45,0-7.17-3.23-7.17-8.48,0-2.78.54-4.58,1.92-6.21a6,6,0,0,1,4.83-2.21,5.78,5.78,0,0,1,4.35,1.73c1.41,1.44,1.92,3.23,2,6.91v.51Zm5.7-5.79a2.88,2.88,0,0,0-2.3-1.12c-2.24,0-3.36,1.82-3.36,4.74h6.66A5.86,5.86,0,0,0,268.26,157.84Z" transform="translate(-2.39 -3.51)"/><path class="cls-1" d="M285.83,171V160.21c0-1.44-.13-2-.51-2.46a2,2,0,0,0-1.63-.64,6.47,6.47,0,0,0-4,2V171H276.8V159.09a8.75,8.75,0,0,0-.61-3.81l2.78-.77a5.09,5.09,0,0,1,.54,2.46,13.81,13.81,0,0,1,2.08-1.57,5.94,5.94,0,0,1,3-.8,4,4,0,0,1,3.78,2.27,5,5,0,0,1,.38,2V171Z" transform="translate(-2.39 -3.51)"/><path class="cls-1" d="M300.55,157.07h-3.17v9.66c0,2,.48,2.59,2.08,2.59A3.54,3.54,0,0,0,301,169l.35,1.79a6.38,6.38,0,0,1-2.91.67,4.57,4.57,0,0,1-2.82-.86c-.64-.58-1.09-1-1.09-3.2V157.07h-1.92V155h1.92a34.73,34.73,0,0,1,.19-4.1l3-.7c-.13,1.15-.29,3.17-.29,4.8h3.9Z" transform="translate(-2.39 -3.51)"/><path class="cls-1" d="M304.77,157.46l-1-1.44a3.16,3.16,0,0,0,2.08-2.4c0-.45-.48-.58-1-.86a1.9,1.9,0,0,1-1.06-1.86,2.34,2.34,0,0,1,2.34-2.4c1.54,0,2.66,1.34,2.66,3.3A6.37,6.37,0,0,1,304.77,157.46Z" transform="translate(-2.39 -3.51)"/><path class="cls-1" d="M318.27,171.47a12.21,12.21,0,0,1-6-1.7l1.06-2.11a10.93,10.93,0,0,0,5.15,1.6c1.76,0,3-1,3-2.59,0-1.38-.83-2.18-2.69-2.53l-2-.38c-2.53-.51-3.9-2.08-3.9-4.45,0-2.94,2.34-5,5.79-5a10.19,10.19,0,0,1,5.06,1.31l-1,2.08a8.67,8.67,0,0,0-3.94-1.15c-1.7,0-2.78,1-2.78,2.4,0,1.15.58,1.79,2.27,2.18l2.08.48c2.94.67,4.16,2.37,4.16,4.48C324.58,169.3,322,171.47,318.27,171.47Z" transform="translate(-2.39 -3.51)"/><path class="cls-1" d="M347.3,161a6.75,6.75,0,0,1-4.64,1.34H339V171h-3.07V149h5.89c2.85,0,4.06.29,5.25,1a6.05,6.05,0,0,1,2.91,5.38A6.39,6.39,0,0,1,347.3,161Zm-1.82-8.45a4.85,4.85,0,0,0-3.58-1.09H339v8.38h3.46a3.62,3.62,0,0,0,3.17-1.25,4.41,4.41,0,0,0,.93-2.91A4.11,4.11,0,0,0,345.47,152.59Z" transform="translate(-2.39 -3.51)"/><path class="cls-1" d="M360.77,157.58a2.4,2.4,0,0,0-.83-.16,3.35,3.35,0,0,0-3.33,3.26V171h-2.94V159.25a10.24,10.24,0,0,0-.61-4l2.85-.74a6.63,6.63,0,0,1,.54,2.46v.29c1.28-1.86,2.66-2.78,4.35-2.78a2.92,2.92,0,0,1,1,.16Z" transform="translate(-2.39 -3.51)"/><path class="cls-1" d="M370.24,171.47c-4.29,0-6.94-3.26-6.94-8.48s2.66-8.45,6.88-8.45c4.74,0,7,3.78,7,8.61C377.22,168.24,374.5,171.47,370.24,171.47Zm-.06-14.65c-2.56,0-3.62,1.82-3.62,5.86,0,4.9,1.25,6.53,3.74,6.53,2.24,0,3.62-1.73,3.62-5.92C373.92,158.32,372.48,156.82,370.18,156.82Z" transform="translate(-2.39 -3.51)"/><path class="cls-1" d="M383.71,175.41a7.36,7.36,0,0,1-2.82,2.21l-1.31-1.79a7.14,7.14,0,0,0,1-.77c.86-.8,1.25-2.34,1.25-4.42V155.25l3-.64v16.06C384.9,173.33,384.29,174.64,383.71,175.41ZM383.3,152a2.06,2.06,0,0,1-2.08-2.11,2.1,2.1,0,1,1,4.19-.06A2.14,2.14,0,0,1,383.3,152Z" transform="translate(-2.39 -3.51)"/><path class="cls-1" d="M392.74,163.63V164a6,6,0,0,0,.67,3.2,4.18,4.18,0,0,0,3.68,1.89,5.7,5.7,0,0,0,3.94-1.54l1.12,1.76a8.19,8.19,0,0,1-5.54,2c-4.45,0-7.17-3.23-7.17-8.48,0-2.78.54-4.58,1.92-6.21a6,6,0,0,1,4.83-2.21,5.78,5.78,0,0,1,4.35,1.73c1.41,1.44,1.92,3.23,2,6.91v.51Zm5.7-5.79a2.88,2.88,0,0,0-2.3-1.12c-2.24,0-3.36,1.82-3.36,4.74h6.66A5.86,5.86,0,0,0,398.43,157.84Z" transform="translate(-2.39 -3.51)"/><path class="cls-1" d="M412.71,171.34a5.87,5.87,0,0,1-5.15-2.4,9.69,9.69,0,0,1-1.54-5.79c0-3.62,1.15-5.7,2.69-7.07a6.27,6.27,0,0,1,8.51.06l-1.54,2a3.91,3.91,0,0,0-2.82-1.25,3.08,3.08,0,0,0-2.82,1.73,11.38,11.38,0,0,0-.77,4.9c0,2.24.45,3.71,1.28,4.61a3.11,3.11,0,0,0,2.3,1,4.49,4.49,0,0,0,3.33-1.66l1.44,1.82A6.31,6.31,0,0,1,412.71,171.34Z" transform="translate(-2.39 -3.51)"/><path class="cls-1" d="M427.84,157.07h-3.17v9.66c0,2,.48,2.59,2.08,2.59a3.54,3.54,0,0,0,1.5-.32l.35,1.79a6.38,6.38,0,0,1-2.91.67,4.57,4.57,0,0,1-2.82-.86c-.64-.58-1.09-1-1.09-3.2V157.07h-1.92V155h1.92a34.73,34.73,0,0,1,.19-4.1l3-.7c-.13,1.15-.29,3.17-.29,4.8h3.9Z" transform="translate(-2.39 -3.51)"/><path class="cls-1" d="M451.2,171l-2-6.24H441.6L439.68,171h-3.2l7.23-22.08h3.84l7.1,22.08Zm-5.6-19h-.19c-.32,1.25-2.66,9.15-3,10.21h6.21C448.19,161.2,445.89,153.3,445.6,152Z" transform="translate(-2.39 -3.51)"/><path class="cls-1" d="M462.4,171.47a12.21,12.21,0,0,1-6-1.7l1.06-2.11a10.93,10.93,0,0,0,5.15,1.6c1.76,0,3-1,3-2.59,0-1.38-.83-2.18-2.69-2.53l-2-.38c-2.53-.51-3.9-2.08-3.9-4.45,0-2.94,2.34-5,5.79-5a10.19,10.19,0,0,1,5.06,1.31l-1,2.08a8.67,8.67,0,0,0-3.94-1.15c-1.7,0-2.78,1-2.78,2.4,0,1.15.58,1.79,2.27,2.18l2.08.48c2.94.67,4.16,2.37,4.16,4.48C468.7,169.3,466.14,171.47,462.4,171.47Z" transform="translate(-2.39 -3.51)"/><path class="cls-1" d="M477.57,171.47a12.21,12.21,0,0,1-6-1.7l1.06-2.11a10.93,10.93,0,0,0,5.15,1.6c1.76,0,3-1,3-2.59,0-1.38-.83-2.18-2.69-2.53l-2-.38c-2.53-.51-3.9-2.08-3.9-4.45,0-2.94,2.34-5,5.79-5a10.19,10.19,0,0,1,5.06,1.31l-1,2.08a8.67,8.67,0,0,0-3.94-1.15c-1.7,0-2.78,1-2.78,2.4,0,1.15.58,1.79,2.27,2.18l2.08.48c2.94.67,4.16,2.37,4.16,4.48C483.87,169.3,481.31,171.47,477.57,171.47Z" transform="translate(-2.39 -3.51)"/><path class="cls-1" d="M490.69,163.63V164a6,6,0,0,0,.67,3.2A4.18,4.18,0,0,0,495,169.1a5.7,5.7,0,0,0,3.94-1.54l1.12,1.76a8.19,8.19,0,0,1-5.54,2c-4.45,0-7.17-3.23-7.17-8.48,0-2.78.54-4.58,1.92-6.21a6,6,0,0,1,4.83-2.21,5.78,5.78,0,0,1,4.35,1.73c1.41,1.44,1.92,3.23,2,6.91v.51Zm5.7-5.79a2.88,2.88,0,0,0-2.3-1.12c-2.24,0-3.36,1.82-3.36,4.74h6.66A5.86,5.86,0,0,0,496.38,157.84Z" transform="translate(-2.39 -3.51)"/><path class="cls-1" d="M509.47,171.47a12.21,12.21,0,0,1-6-1.7l1.06-2.11a10.93,10.93,0,0,0,5.15,1.6c1.76,0,3-1,3-2.59,0-1.38-.83-2.18-2.69-2.53l-2-.38c-2.53-.51-3.9-2.08-3.9-4.45,0-2.94,2.34-5,5.79-5a10.19,10.19,0,0,1,5.06,1.31l-1,2.08a8.67,8.67,0,0,0-3.94-1.15c-1.7,0-2.78,1-2.78,2.4,0,1.15.58,1.79,2.27,2.18l2.08.48c2.94.67,4.16,2.37,4.16,4.48C515.78,169.3,513.22,171.47,509.47,171.47Z" transform="translate(-2.39 -3.51)"/><path class="cls-1" d="M524.64,171.47a12.21,12.21,0,0,1-6-1.7l1.06-2.11a10.93,10.93,0,0,0,5.15,1.6c1.76,0,3-1,3-2.59,0-1.38-.83-2.18-2.69-2.53l-2-.38c-2.53-.51-3.9-2.08-3.9-4.45,0-2.94,2.34-5,5.79-5a10.19,10.19,0,0,1,5.06,1.31l-1,2.08a8.67,8.67,0,0,0-3.94-1.15c-1.7,0-2.78,1-2.78,2.4,0,1.15.58,1.79,2.27,2.18l2.08.48c2.94.67,4.16,2.37,4.16,4.48C530.94,169.3,528.38,171.47,524.64,171.47Z" transform="translate(-2.39 -3.51)"/><path class="cls-1" d="M552.38,171V159.54c0-1.82-.58-2.46-1.92-2.46s-2.53,1-3.74,2.18V171h-2.88V159.6c0-1.79-.51-2.46-2-2.46a5.51,5.51,0,0,0-3.68,1.86v12h-2.91V159.25a8.72,8.72,0,0,0-.58-4l2.75-.67a4.54,4.54,0,0,1,.54,2.24,6.55,6.55,0,0,1,4.51-2.27,4.14,4.14,0,0,1,3.81,2.53,6.87,6.87,0,0,1,4.9-2.53c2.5,0,4.1,1.57,4.1,4.51v12Z" transform="translate(-2.39 -3.51)"/><path class="cls-1" d="M563.39,163.63V164a6,6,0,0,0,.67,3.2,4.18,4.18,0,0,0,3.68,1.89,5.7,5.7,0,0,0,3.94-1.54l1.12,1.76a8.19,8.19,0,0,1-5.54,2c-4.45,0-7.17-3.23-7.17-8.48,0-2.78.54-4.58,1.92-6.21a6,6,0,0,1,4.83-2.21,5.78,5.78,0,0,1,4.35,1.73c1.41,1.44,1.92,3.23,2,6.91v.51Zm5.7-5.79a2.88,2.88,0,0,0-2.3-1.12c-2.24,0-3.36,1.82-3.36,4.74h6.66A5.86,5.86,0,0,0,569.09,157.84Z" transform="translate(-2.39 -3.51)"/><path class="cls-1" d="M586.66,171V160.21c0-1.44-.13-2-.51-2.46a2,2,0,0,0-1.63-.64,6.47,6.47,0,0,0-4,2V171h-2.91V159.09a8.75,8.75,0,0,0-.61-3.81l2.78-.77a5.09,5.09,0,0,1,.54,2.46,13.78,13.78,0,0,1,2.08-1.57,5.94,5.94,0,0,1,3-.8,4,4,0,0,1,3.78,2.27,5,5,0,0,1,.38,2V171Z" transform="translate(-2.39 -3.51)"/><path class="cls-1" d="M601.38,157.07h-3.17v9.66c0,2,.48,2.59,2.08,2.59a3.54,3.54,0,0,0,1.5-.32l.35,1.79a6.38,6.38,0,0,1-2.91.67,4.57,4.57,0,0,1-2.82-.86c-.64-.58-1.09-1-1.09-3.2V157.07h-1.92V155h1.92a34.73,34.73,0,0,1,.19-4.1l3-.7c-.13,1.15-.29,3.17-.29,4.8h3.9Z" transform="translate(-2.39 -3.51)"/><path class="cls-1" d="M623.81,151.51h-8v6.69h6.53v2.5h-6.53V171h-3.1V149h11.49Z" transform="translate(-2.39 -3.51)"/><path class="cls-1" d="M633.89,157.58a2.4,2.4,0,0,0-.83-.16,3.35,3.35,0,0,0-3.33,3.26V171h-2.94V159.25a10.24,10.24,0,0,0-.61-4l2.85-.74a6.63,6.63,0,0,1,.54,2.46v.29c1.28-1.86,2.66-2.78,4.35-2.78a2.92,2.92,0,0,1,1,.16Z" transform="translate(-2.39 -3.51)"/><path class="cls-1" d="M648.38,171.7a3.66,3.66,0,0,1-2.14-2.3,5.57,5.57,0,0,1-4.54,2.11c-3.2,0-5.18-1.63-5.18-4.7,0-3.71,3-5.7,8.16-5.7.38,0,.7,0,1.12,0v-1.06c0-1.89-.26-3.17-2.5-3.17a8.85,8.85,0,0,0-4.93,1.82L637,156.63a12.62,12.62,0,0,1,6.72-2.11c2.34,0,4,.86,4.64,2.56a7.31,7.31,0,0,1,.32,2.82c0,1.15-.13,3.62-.13,6s.06,3.1,1.31,3.87Zm-3.62-8.61c-2.21,0-3.55.42-4.19,1.15a3.09,3.09,0,0,0-.83,2.34c0,1.76.9,2.78,2.53,2.78a4,4,0,0,0,3.36-2.11l.1-4.1C645.28,163.12,645,163.09,644.77,163.09Z" transform="translate(-2.39 -3.51)"/><path class="cls-1" d="M671.52,171V159.54c0-1.82-.58-2.46-1.92-2.46s-2.53,1-3.74,2.18V171H663V159.6c0-1.79-.51-2.46-2-2.46a5.51,5.51,0,0,0-3.68,1.86v12H654.4V159.25a8.72,8.72,0,0,0-.58-4l2.75-.67a4.54,4.54,0,0,1,.54,2.24,6.55,6.55,0,0,1,4.51-2.27,4.14,4.14,0,0,1,3.81,2.53,6.87,6.87,0,0,1,4.9-2.53c2.5,0,4.1,1.57,4.1,4.51v12Z" transform="translate(-2.39 -3.51)"/><path class="cls-1" d="M682.53,163.63V164a6,6,0,0,0,.67,3.2,4.18,4.18,0,0,0,3.68,1.89,5.7,5.7,0,0,0,3.94-1.54l1.12,1.76a8.19,8.19,0,0,1-5.54,2c-4.45,0-7.17-3.23-7.17-8.48,0-2.78.54-4.58,1.92-6.21a6,6,0,0,1,4.83-2.21,5.78,5.78,0,0,1,4.35,1.73c1.41,1.44,1.92,3.23,2,6.91v.51Zm5.7-5.79a2.88,2.88,0,0,0-2.3-1.12c-2.24,0-3.36,1.82-3.36,4.74h6.66A5.86,5.86,0,0,0,688.22,157.84Z" transform="translate(-2.39 -3.51)"/><path class="cls-1" d="M711.26,171.15h-2.85l-2.34-8.74-1-3.78H705l-.86,3.58-2.4,8.93h-2.82l-4.38-16,3-.48,2,9,.83,3.94h.1a34.46,34.46,0,0,1,.74-3.65l2.43-8.93h3l2.24,8.67c.38,1.54.8,3.46.9,3.9H710l.74-3.81,2-8.77h3.07Z" transform="translate(-2.39 -3.51)"/><path class="cls-1" d="M724.93,171.47c-4.29,0-6.94-3.26-6.94-8.48s2.66-8.45,6.88-8.45c4.74,0,7,3.78,7,8.61C731.9,168.24,729.18,171.47,724.93,171.47Zm-.06-14.65c-2.56,0-3.62,1.82-3.62,5.86,0,4.9,1.25,6.53,3.74,6.53,2.24,0,3.62-1.73,3.62-5.92C728.61,158.32,727.17,156.82,724.86,156.82Z" transform="translate(-2.39 -3.51)"/><path class="cls-1" d="M743.65,157.58a2.4,2.4,0,0,0-.83-.16,3.35,3.35,0,0,0-3.33,3.26V171h-2.94V159.25a10.24,10.24,0,0,0-.61-4l2.85-.74a6.63,6.63,0,0,1,.54,2.46v.29c1.28-1.86,2.66-2.78,4.35-2.78a2.92,2.92,0,0,1,1,.16Z" transform="translate(-2.39 -3.51)"/><path class="cls-1" d="M747.71,171V151.89a13.26,13.26,0,0,0-.42-3.65l3-.7a17.36,17.36,0,0,1,.38,3.52v20Zm9.85,0L751,161.9l5.28-6.94h3.58l-5.73,6.82,7.14,9.25Z" transform="translate(-2.39 -3.51)"/><path class="cls-1" d="M766.08,171.47a2.4,2.4,0,1,1,2.27-2.4A2.31,2.31,0,0,1,766.08,171.47Z" transform="translate(-2.39 -3.51)"/></g></g></svg>