<svg id="Layer_1" data-name="Layer 1" xmlns="http://www.w3.org/2000/svg" viewBox="0 0 523 173"><defs><style>.cls-1{fill:#e6e7e8;}.cls-2{fill:#4c4c4e;}</style></defs><title>IP_sc4_statewideBtn</title><path class="cls-1" d="M487.06,127.15a9.82,9.82,0,0,1-9.8,9.8h-431a9.82,9.82,0,0,1-9.8-9.8V46.85a9.82,9.82,0,0,1,9.8-9.8h431a9.82,9.82,0,0,1,9.8,9.8Z"/><path class="cls-2" d="M193.69,96.47a17.89,17.89,0,0,1-8.53-2.27L187,90.28a14.19,14.19,0,0,0,6.88,2c2.88,0,4.39-1.19,4.39-3.42,0-1.62-1-2.63-3.28-3.24l-2.77-.76c-2.48-.68-4-1.66-4.93-3.17a7.23,7.23,0,0,1-1-3.82c0-4.57,3.67-7.74,9-7.74a14.68,14.68,0,0,1,8.35,2.52l-2.37,3.6a10.79,10.79,0,0,0-5.83-1.91c-2.05,0-3.49,1.19-3.49,2.88,0,1.3.68,1.94,2.77,2.52l3,.83c4.1,1.12,6.34,3.74,6.34,7.45C204,93.12,199.92,96.47,193.69,96.47Z"/><path class="cls-2" d="M213.28,96.36c-2.45,0-4.39-1.08-5-2.7a6.78,6.78,0,0,1-.32-2.84v-10h-1.84V77.5H208a32,32,0,0,1,.18-4.36l4.9-1.22a55.12,55.12,0,0,0-.29,5.58h4.32l-1.22,3.31h-3.1v9.25c0,2.34.43,3,2.09,3a6.31,6.31,0,0,0,1.73-.36l.61,2.88A10.13,10.13,0,0,1,213.28,96.36Z"/><path class="cls-2" d="M232.61,96.86A5.15,5.15,0,0,1,230,94.63a9,9,0,0,1-1.12,1,6.37,6.37,0,0,1-3.71,1c-4.1,0-6.33-2.09-6.33-5.76,0-4.32,3-6.33,8.86-6.33.36,0,.68,0,1.08,0V83.8c0-2.05-.4-2.74-2.16-2.74a10.15,10.15,0,0,0-5.33,2.09l-2.05-3.46a17.77,17.77,0,0,1,3-1.51,12.47,12.47,0,0,1,5-1.08c3.1,0,5.22,1.15,5.94,3.2a8.52,8.52,0,0,1,.32,3.31l-.11,6.19c0,2,.11,2.88,1.73,4.1Zm-4.1-9c-3.35,0-4.5.61-4.5,2.81a2.19,2.19,0,0,0,2.12,2.41,3.49,3.49,0,0,0,2.52-1.26l.07-4Z"/><path class="cls-2" d="M244.2,96.36c-2.45,0-4.39-1.08-5-2.7a6.78,6.78,0,0,1-.32-2.84v-10h-1.84V77.5h1.84a32,32,0,0,1,.18-4.36l4.9-1.22a55.12,55.12,0,0,0-.29,5.58H248l-1.22,3.31h-3.1v9.25c0,2.34.43,3,2.09,3a6.31,6.31,0,0,0,1.73-.36l.61,2.88A10.13,10.13,0,0,1,244.2,96.36Z"/><path class="cls-2" d="M255.22,88.22v.14c0,2.84,1.4,4.46,3.89,4.46A7.21,7.21,0,0,0,263.78,91l1.87,2.88a10.58,10.58,0,0,1-6.95,2.56c-5.29,0-8.71-3.74-8.71-9.54,0-3.31.68-5.51,2.3-7.31a7.25,7.25,0,0,1,5.8-2.48A7.54,7.54,0,0,1,263.42,79c1.69,1.73,2.45,4.21,2.45,8.06v1.12Zm5.65-3.74a4.74,4.74,0,0,0-.58-2.77,2.33,2.33,0,0,0-2.12-1.08c-1.83,0-2.88,1.44-2.88,4v.07h5.58Z"/><path class="cls-2" d="M287,95.93h-4.43L281,89.59c-.4-1.48-.83-3.24-1-4.46l-.29-1.84a23.56,23.56,0,0,1-.43,2.38c-.36,1.58-1.15,4.75-1.58,6.48l-.94,3.78h-4.5l-5-18.11,4.79-.54,1.51,7.09c.43,1.91.94,5,1,5.72a64.21,64.21,0,0,1,1.33-6.41l1.73-6.19h4.54l1.48,6.08c.72,3.06,1.26,5.9,1.37,6.52.11-.79.5-3.67,1-6l1.4-6.59h5Z"/><path class="cls-2" d="M297.23,75.41a3,3,0,0,1-3-3,3,3,0,0,1,3-3,2.94,2.94,0,0,1,2.92,3A3,3,0,0,1,297.23,75.41Zm-2.41,20.52V77.82l4.82-.76V95.93Z"/><path class="cls-2" d="M316.13,95.93a3.29,3.29,0,0,1-.29-1.08,6.18,6.18,0,0,1-4.25,1.55c-4.68,0-7.63-3.64-7.63-9.36s3.2-9.72,7.88-9.72a5,5,0,0,1,3.28,1,22.35,22.35,0,0,1-.14-2.74V69.29l4.79.76V89.2c0,4.54.36,6,.68,6.73ZM315,82.36a4,4,0,0,0-2.63-1.19c-2.16,0-3.1,1.8-3.1,5.9s.83,5.25,3.35,5.25A3.45,3.45,0,0,0,315,91.14Z"/><path class="cls-2" d="M329.31,88.22v.14c0,2.84,1.4,4.46,3.89,4.46A7.2,7.2,0,0,0,337.87,91l1.87,2.88a10.58,10.58,0,0,1-6.95,2.56c-5.29,0-8.71-3.74-8.71-9.54,0-3.31.68-5.51,2.3-7.31a7.24,7.24,0,0,1,5.79-2.48A7.54,7.54,0,0,1,337.51,79c1.69,1.73,2.45,4.21,2.45,8.06v1.12ZM335,84.48a4.75,4.75,0,0,0-.58-2.77,2.33,2.33,0,0,0-2.12-1.08c-1.84,0-2.88,1.44-2.88,4v.07H335Z"/></svg>