<svg xmlns="http://www.w3.org/2000/svg" viewBox="0 0 953.65 174.27"><defs><style>.cls-1{fill:#58595b;}</style></defs><title>IP_sc2_subText1_2</title><g id="Layer_2" data-name="Layer 2"><g id="Ui"><path class="cls-1" d="M19.37,7.54H13.64V27h-3V7.54H4.88V5H19.69Z" transform="translate(-4.88 -3.51)"/><path class="cls-1" d="M31.63,27V16a3.53,3.53,0,0,0-.54-2.24,2.56,2.56,0,0,0-1.76-.61,6.14,6.14,0,0,0-4.26,2.34V27h-3V7.54a14,14,0,0,0-.35-3.36l3-.61a16.34,16.34,0,0,1,.35,3.71v3.58c0,.58,0,1.31-.1,2.14a11,11,0,0,1,1.7-1.31,6.19,6.19,0,0,1,3.49-1.09,4.1,4.1,0,0,1,4,2.4,6.51,6.51,0,0,1,.32,2.59V27Z" transform="translate(-4.88 -3.51)"/><path class="cls-1" d="M42.6,19.63V20a6,6,0,0,0,.67,3.2A4.18,4.18,0,0,0,47,25.1a5.7,5.7,0,0,0,3.94-1.54L52,25.33a8.19,8.19,0,0,1-5.54,2c-4.45,0-7.17-3.23-7.17-8.48,0-2.78.54-4.58,1.92-6.21a6,6,0,0,1,4.83-2.21,5.78,5.78,0,0,1,4.35,1.73c1.41,1.44,1.92,3.23,2,6.91v.51Zm5.7-5.79A2.88,2.88,0,0,0,46,12.72c-2.24,0-3.36,1.82-3.36,4.74h6.66A5.86,5.86,0,0,0,48.3,13.84Z" transform="translate(-4.88 -3.51)"/><path class="cls-1" d="M69.39,27.44a13.5,13.5,0,0,1-7.1-2l1.22-2.37a10.85,10.85,0,0,0,6,1.82c2.88,0,4.77-1.47,4.77-3.84,0-1.79-1.18-3-3.65-3.74l-2.3-.67c-3.33-1-5.22-2.56-5.22-5.7,0-3.81,2.94-6.4,7.3-6.4A11.7,11.7,0,0,1,77.1,6.67L75.72,8.85a9.27,9.27,0,0,0-5.25-1.73c-2.46,0-4,1.28-4,3.33,0,1.57.9,2.46,3.26,3.17l2.59.77c2.94.86,5.38,2.78,5.38,6.21C77.71,23.66,75.18,27.44,69.39,27.44Z" transform="translate(-4.88 -3.51)"/><path class="cls-1" d="M88.39,13.07H85.23v9.66c0,2,.48,2.59,2.08,2.59a3.54,3.54,0,0,0,1.5-.32l.35,1.79a6.38,6.38,0,0,1-2.91.67,4.57,4.57,0,0,1-2.82-.86c-.64-.58-1.09-1-1.09-3.2V13.07H80.43V11h1.92a34.73,34.73,0,0,1,.19-4.1l3-.7c-.13,1.15-.29,3.17-.29,4.8h3.9Z" transform="translate(-4.88 -3.51)"/><path class="cls-1" d="M103.21,27.7a3.66,3.66,0,0,1-2.14-2.3,5.57,5.57,0,0,1-4.54,2.11c-3.2,0-5.18-1.63-5.18-4.7,0-3.71,3-5.7,8.16-5.7.38,0,.7,0,1.12,0V16.08c0-1.89-.26-3.17-2.5-3.17a8.85,8.85,0,0,0-4.93,1.82l-1.34-2.11a12.62,12.62,0,0,1,6.72-2.11c2.34,0,4,.86,4.64,2.56a7.31,7.31,0,0,1,.32,2.82c0,1.15-.13,3.62-.13,6s.06,3.1,1.31,3.87Zm-3.62-8.61c-2.21,0-3.55.42-4.19,1.15a3.09,3.09,0,0,0-.83,2.34c0,1.76.9,2.78,2.53,2.78a4,4,0,0,0,3.36-2.11l.1-4.1C100.11,19.12,99.85,19.09,99.59,19.09Z" transform="translate(-4.88 -3.51)"/><path class="cls-1" d="M115.27,13.07h-3.17v9.66c0,2,.48,2.59,2.08,2.59a3.54,3.54,0,0,0,1.5-.32L116,26.8a6.38,6.38,0,0,1-2.91.67,4.57,4.57,0,0,1-2.82-.86c-.64-.58-1.09-1-1.09-3.2V13.07h-1.92V11h1.92a34.73,34.73,0,0,1,.19-4.1l3-.7c-.13,1.15-.29,3.17-.29,4.8h3.9Z" transform="translate(-4.88 -3.51)"/><path class="cls-1" d="M121.77,19.63V20a6,6,0,0,0,.67,3.2,4.18,4.18,0,0,0,3.68,1.89,5.7,5.7,0,0,0,3.94-1.54l1.12,1.76a8.19,8.19,0,0,1-5.54,2c-4.45,0-7.17-3.23-7.17-8.48,0-2.78.54-4.58,1.92-6.21a6,6,0,0,1,4.83-2.21,5.78,5.78,0,0,1,4.35,1.73c1.41,1.44,1.92,3.23,2,6.91v.51Zm5.7-5.79a2.88,2.88,0,0,0-2.3-1.12c-2.24,0-3.36,1.82-3.36,4.74h6.66A5.86,5.86,0,0,0,127.47,13.84Z" transform="translate(-4.88 -3.51)"/><path class="cls-1" d="M143.21,27V5h3.14V27Z" transform="translate(-4.88 -3.51)"/><path class="cls-1" d="M161.13,27V16.21c0-1.44-.13-2-.51-2.46A2,2,0,0,0,159,13.1a6.47,6.47,0,0,0-4,2V27h-2.91V15.09a8.75,8.75,0,0,0-.61-3.81l2.78-.77a5.09,5.09,0,0,1,.54,2.46,13.78,13.78,0,0,1,2.08-1.57,5.94,5.94,0,0,1,3-.8,4,4,0,0,1,3.78,2.27,5,5,0,0,1,.38,2V27Z" transform="translate(-4.88 -3.51)"/><path class="cls-1" d="M177,6.45a4.58,4.58,0,0,0-2.08-.61c-1.34,0-2.14.93-2.14,2.56V11H177l-.77,2.08h-3.46V27h-3v-14h-1.54V11h1.57c-.06-.32-.06-2.3-.06-2.56a4.61,4.61,0,0,1,1.79-4,4.88,4.88,0,0,1,2.91-.77,6.56,6.56,0,0,1,3.49.86Z" transform="translate(-4.88 -3.51)"/><path class="cls-1" d="M186.67,13.58a2.4,2.4,0,0,0-.83-.16,3.35,3.35,0,0,0-3.33,3.26V27h-2.94V15.25a10.24,10.24,0,0,0-.61-4l2.85-.74a6.63,6.63,0,0,1,.54,2.46v.29c1.28-1.86,2.66-2.78,4.35-2.78a2.92,2.92,0,0,1,1,.16Z" transform="translate(-4.88 -3.51)"/><path class="cls-1" d="M201.16,27.7a3.66,3.66,0,0,1-2.14-2.3,5.57,5.57,0,0,1-4.54,2.11c-3.2,0-5.18-1.63-5.18-4.7,0-3.71,3-5.7,8.16-5.7.38,0,.7,0,1.12,0V16.08c0-1.89-.26-3.17-2.5-3.17a8.85,8.85,0,0,0-4.93,1.82l-1.34-2.11a12.62,12.62,0,0,1,6.72-2.11c2.34,0,4,.86,4.64,2.56a7.31,7.31,0,0,1,.32,2.82c0,1.15-.13,3.62-.13,6s.06,3.1,1.31,3.87Zm-3.62-8.61c-2.21,0-3.55.42-4.19,1.15a3.09,3.09,0,0,0-.83,2.34c0,1.76.9,2.78,2.53,2.78a4,4,0,0,0,3.36-2.11l.1-4.1C198.06,19.12,197.8,19.09,197.55,19.09Z" transform="translate(-4.88 -3.51)"/><path class="cls-1" d="M211.56,27.47a12.21,12.21,0,0,1-6-1.7l1.06-2.11a10.93,10.93,0,0,0,5.15,1.6c1.76,0,3-1,3-2.59,0-1.38-.83-2.18-2.69-2.53l-2-.38c-2.53-.51-3.9-2.08-3.9-4.45,0-2.94,2.34-5,5.79-5a10.19,10.19,0,0,1,5.06,1.31l-1,2.08a8.67,8.67,0,0,0-3.94-1.15c-1.7,0-2.78,1-2.78,2.4,0,1.15.58,1.79,2.27,2.18l2.08.48c2.94.67,4.16,2.37,4.16,4.48C217.87,25.3,215.31,27.47,211.56,27.47Z" transform="translate(-4.88 -3.51)"/><path class="cls-1" d="M228.23,13.07h-3.17v9.66c0,2,.48,2.59,2.08,2.59a3.54,3.54,0,0,0,1.5-.32L229,26.8a6.38,6.38,0,0,1-2.91.67,4.57,4.57,0,0,1-2.82-.86c-.64-.58-1.09-1-1.09-3.2V13.07h-1.92V11h1.92a34.73,34.73,0,0,1,.19-4.1l3-.7c-.13,1.15-.29,3.17-.29,4.8H229Z" transform="translate(-4.88 -3.51)"/><path class="cls-1" d="M239.5,13.58a2.4,2.4,0,0,0-.83-.16,3.35,3.35,0,0,0-3.33,3.26V27h-2.94V15.25a10.24,10.24,0,0,0-.61-4l2.85-.74a6.63,6.63,0,0,1,.54,2.46v.29c1.28-1.86,2.66-2.78,4.35-2.78a2.92,2.92,0,0,1,1,.16Z" transform="translate(-4.88 -3.51)"/><path class="cls-1" d="M254.44,27.57a3.78,3.78,0,0,1-1.5-2.3,5.88,5.88,0,0,1-4.83,2.3,4.51,4.51,0,0,1-4.32-2.4,6.82,6.82,0,0,1-.38-2.69V11.09l2.91-.58V21.68c0,1.63.16,2.27.74,2.82a2.93,2.93,0,0,0,1.86.7,4.41,4.41,0,0,0,3.65-2.53V11.15l2.91-.58V22.64c0,1.63.35,2.78,1,3.33Z" transform="translate(-4.88 -3.51)"/><path class="cls-1" d="M267,27.34a5.87,5.87,0,0,1-5.15-2.4,9.69,9.69,0,0,1-1.54-5.79c0-3.62,1.15-5.7,2.69-7.07a6.27,6.27,0,0,1,8.51.06l-1.54,2a3.91,3.91,0,0,0-2.82-1.25,3.08,3.08,0,0,0-2.82,1.73,11.38,11.38,0,0,0-.77,4.9c0,2.24.45,3.71,1.28,4.61a3.11,3.11,0,0,0,2.3,1,4.49,4.49,0,0,0,3.33-1.66l1.44,1.82A6.31,6.31,0,0,1,267,27.34Z" transform="translate(-4.88 -3.51)"/><path class="cls-1" d="M282.09,13.07h-3.17v9.66c0,2,.48,2.59,2.08,2.59a3.54,3.54,0,0,0,1.5-.32l.35,1.79a6.38,6.38,0,0,1-2.91.67,4.57,4.57,0,0,1-2.82-.86c-.64-.58-1.09-1-1.09-3.2V13.07h-1.92V11H276a34.73,34.73,0,0,1,.19-4.1l3-.7c-.13,1.15-.29,3.17-.29,4.8h3.9Z" transform="translate(-4.88 -3.51)"/><path class="cls-1" d="M297.13,27.57a3.78,3.78,0,0,1-1.5-2.3,5.88,5.88,0,0,1-4.83,2.3,4.51,4.51,0,0,1-4.32-2.4,6.82,6.82,0,0,1-.38-2.69V11.09l2.91-.58V21.68c0,1.63.16,2.27.74,2.82a2.93,2.93,0,0,0,1.86.7,4.41,4.41,0,0,0,3.65-2.53V11.15l2.91-.58V22.64c0,1.63.35,2.78,1,3.33Z" transform="translate(-4.88 -3.51)"/><path class="cls-1" d="M310.7,13.58a2.4,2.4,0,0,0-.83-.16,3.35,3.35,0,0,0-3.33,3.26V27h-2.94V15.25a10.24,10.24,0,0,0-.61-4l2.85-.74a6.63,6.63,0,0,1,.54,2.46v.29c1.28-1.86,2.66-2.78,4.35-2.78a2.92,2.92,0,0,1,1,.16Z" transform="translate(-4.88 -3.51)"/><path class="cls-1" d="M316.68,19.63V20a6,6,0,0,0,.67,3.2A4.18,4.18,0,0,0,321,25.1,5.7,5.7,0,0,0,325,23.57l1.12,1.76a8.19,8.19,0,0,1-5.54,2c-4.45,0-7.17-3.23-7.17-8.48,0-2.78.54-4.58,1.92-6.21a6,6,0,0,1,4.83-2.21,5.78,5.78,0,0,1,4.35,1.73c1.41,1.44,1.92,3.23,2,6.91v.51Zm5.7-5.79a2.88,2.88,0,0,0-2.3-1.12c-2.24,0-3.36,1.82-3.36,4.74h6.66A5.86,5.86,0,0,0,322.38,13.84Z" transform="translate(-4.88 -3.51)"/><path class="cls-1" d="M349.48,17a6.75,6.75,0,0,1-4.64,1.34h-3.65V27h-3.07V5H344c2.85,0,4.06.29,5.25,1a6.05,6.05,0,0,1,2.91,5.38A6.39,6.39,0,0,1,349.48,17Zm-1.82-8.45a4.85,4.85,0,0,0-3.58-1.09h-2.88v8.38h3.46a3.62,3.62,0,0,0,3.17-1.25,4.41,4.41,0,0,0,.93-2.91A4.11,4.11,0,0,0,347.66,8.59Z" transform="translate(-4.88 -3.51)"/><path class="cls-1" d="M359,27.34a2.72,2.72,0,0,1-2.5-1.22c-.48-.67-.61-1.22-.61-2.78V8.82a20.87,20.87,0,0,0-.35-4.61l3.07-.64a19.88,19.88,0,0,1,.29,4.58V23.06c0,1.12.1,1.7.51,2a1.2,1.2,0,0,0,.9.13l.51,1.82A4.31,4.31,0,0,1,359,27.34Z" transform="translate(-4.88 -3.51)"/><path class="cls-1" d="M375.21,27.7a3.66,3.66,0,0,1-2.14-2.3,5.57,5.57,0,0,1-4.54,2.11c-3.2,0-5.18-1.63-5.18-4.7,0-3.71,3-5.7,8.16-5.7.38,0,.7,0,1.12,0V16.08c0-1.89-.26-3.17-2.5-3.17a8.85,8.85,0,0,0-4.93,1.82l-1.34-2.11a12.62,12.62,0,0,1,6.72-2.11c2.34,0,4,.86,4.64,2.56a7.31,7.31,0,0,1,.32,2.82c0,1.15-.13,3.62-.13,6s.06,3.1,1.31,3.87Zm-3.62-8.61c-2.21,0-3.55.42-4.19,1.15a3.09,3.09,0,0,0-.83,2.34c0,1.76.9,2.78,2.53,2.78a4,4,0,0,0,3.36-2.11l.1-4.1C372.1,19.12,371.85,19.09,371.59,19.09Z" transform="translate(-4.88 -3.51)"/><path class="cls-1" d="M382.73,8.18a2.08,2.08,0,0,1-2-2.11,2.1,2.1,0,1,1,4.19,0A2.14,2.14,0,0,1,382.73,8.18ZM381.22,27V11.09l3-.48V27Z" transform="translate(-4.88 -3.51)"/><path class="cls-1" d="M399,27V16.21c0-1.44-.13-2-.51-2.46a2,2,0,0,0-1.63-.64,6.47,6.47,0,0,0-4,2V27H390V15.09a8.75,8.75,0,0,0-.61-3.81l2.78-.77a5.09,5.09,0,0,1,.54,2.46,13.78,13.78,0,0,1,2.08-1.57,5.94,5.94,0,0,1,3-.8,4,4,0,0,1,3.78,2.27,5,5,0,0,1,.38,2V27Z" transform="translate(-4.88 -3.51)"/><path class="cls-1" d="M416.42,8.18a2.08,2.08,0,0,1-2-2.11,2.1,2.1,0,1,1,4.19,0A2.14,2.14,0,0,1,416.42,8.18ZM414.92,27V11.09l3-.48V27Z" transform="translate(-4.88 -3.51)"/><path class="cls-1" d="M428.1,27.47a12.21,12.21,0,0,1-6-1.7l1.06-2.11a10.93,10.93,0,0,0,5.15,1.6c1.76,0,3-1,3-2.59,0-1.38-.83-2.18-2.69-2.53l-2-.38c-2.53-.51-3.9-2.08-3.9-4.45,0-2.94,2.34-5,5.79-5a10.19,10.19,0,0,1,5.06,1.31l-1,2.08a8.67,8.67,0,0,0-3.94-1.15c-1.7,0-2.78,1-2.78,2.4,0,1.15.58,1.79,2.27,2.18l2.08.48c2.94.67,4.16,2.37,4.16,4.48C434.41,25.3,431.85,27.47,428.1,27.47Z" transform="translate(-4.88 -3.51)"/><path class="cls-1" d="M450.47,27.47a12.21,12.21,0,0,1-6-1.7l1.06-2.11a10.93,10.93,0,0,0,5.15,1.6c1.76,0,3-1,3-2.59,0-1.38-.83-2.18-2.69-2.53l-2-.38c-2.53-.51-3.9-2.08-3.9-4.45,0-2.94,2.34-5,5.79-5A10.19,10.19,0,0,1,456,11.63l-1,2.08A8.67,8.67,0,0,0,451,12.56c-1.7,0-2.78,1-2.78,2.4,0,1.15.58,1.79,2.27,2.18l2.08.48c2.94.67,4.16,2.37,4.16,4.48C456.77,25.3,454.21,27.47,450.47,27.47Z" transform="translate(-4.88 -3.51)"/><path class="cls-1" d="M467.14,13.07H464v9.66c0,2,.48,2.59,2.08,2.59a3.54,3.54,0,0,0,1.5-.32l.35,1.79a6.38,6.38,0,0,1-2.91.67,4.57,4.57,0,0,1-2.82-.86c-.64-.58-1.09-1-1.09-3.2V13.07h-1.92V11h1.92a34.73,34.73,0,0,1,.19-4.1l3-.7C464.2,7.35,464,9.36,464,11h3.9Z" transform="translate(-4.88 -3.51)"/><path class="cls-1" d="M478.41,13.58a2.4,2.4,0,0,0-.83-.16,3.35,3.35,0,0,0-3.33,3.26V27H471.3V15.25a10.24,10.24,0,0,0-.61-4l2.85-.74a6.63,6.63,0,0,1,.54,2.46v.29c1.28-1.86,2.66-2.78,4.35-2.78a2.92,2.92,0,0,1,1,.16Z" transform="translate(-4.88 -3.51)"/><path class="cls-1" d="M493.35,27.57a3.78,3.78,0,0,1-1.5-2.3,5.88,5.88,0,0,1-4.83,2.3,4.51,4.51,0,0,1-4.32-2.4,6.82,6.82,0,0,1-.38-2.69V11.09l2.91-.58V21.68c0,1.63.16,2.27.74,2.82a2.93,2.93,0,0,0,1.86.7,4.41,4.41,0,0,0,3.65-2.53V11.15l2.91-.58V22.64c0,1.63.35,2.78,1,3.33Z" transform="translate(-4.88 -3.51)"/><path class="cls-1" d="M505.86,27.34a5.87,5.87,0,0,1-5.15-2.4,9.69,9.69,0,0,1-1.54-5.79c0-3.62,1.15-5.7,2.69-7.07a6.27,6.27,0,0,1,8.51.06l-1.54,2A3.91,3.91,0,0,0,506,12.91a3.08,3.08,0,0,0-2.82,1.73,11.38,11.38,0,0,0-.77,4.9c0,2.24.45,3.71,1.28,4.61a3.11,3.11,0,0,0,2.3,1,4.49,4.49,0,0,0,3.33-1.66l1.44,1.82A6.31,6.31,0,0,1,505.86,27.34Z" transform="translate(-4.88 -3.51)"/><path class="cls-1" d="M521,13.07h-3.17v9.66c0,2,.48,2.59,2.08,2.59a3.54,3.54,0,0,0,1.5-.32l.35,1.79a6.38,6.38,0,0,1-2.91.67,4.57,4.57,0,0,1-2.82-.86c-.64-.58-1.09-1-1.09-3.2V13.07H513V11H515a34.73,34.73,0,0,1,.19-4.1l3-.7c-.13,1.15-.29,3.17-.29,4.8h3.9Z" transform="translate(-4.88 -3.51)"/><path class="cls-1" d="M536,27.57a3.78,3.78,0,0,1-1.5-2.3,5.88,5.88,0,0,1-4.83,2.3,4.51,4.51,0,0,1-4.32-2.4,6.82,6.82,0,0,1-.38-2.69V11.09l2.91-.58V21.68c0,1.63.16,2.27.74,2.82a2.93,2.93,0,0,0,1.86.7,4.41,4.41,0,0,0,3.65-2.53V11.15l2.91-.58V22.64c0,1.63.35,2.78,1,3.33Z" transform="translate(-4.88 -3.51)"/><path class="cls-1" d="M549.61,13.58a2.4,2.4,0,0,0-.83-.16,3.35,3.35,0,0,0-3.33,3.26V27H542.5V15.25a10.24,10.24,0,0,0-.61-4l2.85-.74a6.63,6.63,0,0,1,.54,2.46v.29c1.28-1.86,2.66-2.78,4.35-2.78a2.92,2.92,0,0,1,1,.16Z" transform="translate(-4.88 -3.51)"/><path class="cls-1" d="M555.59,19.63V20a6,6,0,0,0,.67,3.2,4.18,4.18,0,0,0,3.68,1.89,5.7,5.7,0,0,0,3.94-1.54L565,25.33a8.19,8.19,0,0,1-5.54,2c-4.45,0-7.17-3.23-7.17-8.48,0-2.78.54-4.58,1.92-6.21A6,6,0,0,1,559,10.48a5.78,5.78,0,0,1,4.35,1.73c1.41,1.44,1.92,3.23,2,6.91v.51Zm5.7-5.79a2.88,2.88,0,0,0-2.3-1.12c-2.24,0-3.36,1.82-3.36,4.74h6.66A5.86,5.86,0,0,0,561.29,13.84Z" transform="translate(-4.88 -3.51)"/><path class="cls-1" d="M579.78,27a6.24,6.24,0,0,1-.29-1.5,5.35,5.35,0,0,1-4.13,1.76c-4.1,0-6.5-3.07-6.5-8.13,0-3.46,1.18-6.11,3.36-7.52a5.53,5.53,0,0,1,3.14-.93,4.78,4.78,0,0,1,3.9,1.86c0-.45-.06-1.73-.06-2.82V3.51l2.94.48V21.65A19.2,19.2,0,0,0,582.6,27Zm-.61-12.45a4.11,4.11,0,0,0-3.39-1.5A3.14,3.14,0,0,0,573,14.7a8.52,8.52,0,0,0-.83,4.42c0,3.1.38,4,1.25,4.86a3,3,0,0,0,2.37.83A3.8,3.8,0,0,0,579.17,23Z" transform="translate(-4.88 -3.51)"/><path class="cls-1" d="M605.54,27.7a3.66,3.66,0,0,1-2.14-2.3,5.57,5.57,0,0,1-4.54,2.11c-3.2,0-5.18-1.63-5.18-4.7,0-3.71,3-5.7,8.16-5.7.38,0,.7,0,1.12,0V16.08c0-1.89-.26-3.17-2.5-3.17a8.85,8.85,0,0,0-4.93,1.82l-1.34-2.11a12.62,12.62,0,0,1,6.72-2.11c2.34,0,4,.86,4.64,2.56a7.31,7.31,0,0,1,.32,2.82c0,1.15-.13,3.62-.13,6s.06,3.1,1.31,3.87Zm-3.62-8.61c-2.21,0-3.55.42-4.19,1.15a3.09,3.09,0,0,0-.83,2.34c0,1.76.9,2.78,2.53,2.78a4,4,0,0,0,3.36-2.11l.1-4.1C602.44,19.12,602.18,19.09,601.93,19.09Z" transform="translate(-4.88 -3.51)"/><path class="cls-1" d="M618.66,13.58a2.4,2.4,0,0,0-.83-.16,3.35,3.35,0,0,0-3.33,3.26V27h-2.94V15.25a10.24,10.24,0,0,0-.61-4l2.85-.74a6.63,6.63,0,0,1,.54,2.46v.29c1.28-1.86,2.66-2.78,4.35-2.78a2.92,2.92,0,0,1,1,.16Z" transform="translate(-4.88 -3.51)"/><path class="cls-1" d="M628.13,27.47c-4.29,0-6.94-3.26-6.94-8.48s2.66-8.45,6.88-8.45c4.74,0,7,3.78,7,8.61C635.11,24.24,632.39,27.47,628.13,27.47Zm-.06-14.65c-2.56,0-3.62,1.82-3.62,5.86,0,4.9,1.25,6.53,3.74,6.53,2.24,0,3.62-1.73,3.62-5.92C631.81,14.32,630.37,12.82,628.07,12.82Z" transform="translate(-4.88 -3.51)"/><path class="cls-1" d="M650.63,27.57a3.78,3.78,0,0,1-1.5-2.3,5.88,5.88,0,0,1-4.83,2.3,4.51,4.51,0,0,1-4.32-2.4,6.82,6.82,0,0,1-.38-2.69V11.09l2.91-.58V21.68c0,1.63.16,2.27.74,2.82a2.93,2.93,0,0,0,1.86.7,4.41,4.41,0,0,0,3.65-2.53V11.15l2.91-.58V22.64c0,1.63.35,2.78,1,3.33Z" transform="translate(-4.88 -3.51)"/><path class="cls-1" d="M666.12,27V16.21c0-1.44-.13-2-.51-2.46A2,2,0,0,0,664,13.1a6.47,6.47,0,0,0-4,2V27h-2.91V15.09a8.75,8.75,0,0,0-.61-3.81l2.78-.77a5.09,5.09,0,0,1,.54,2.46,13.81,13.81,0,0,1,2.08-1.57,5.94,5.94,0,0,1,3-.8,4,4,0,0,1,3.78,2.27,5,5,0,0,1,.38,2V27Z" transform="translate(-4.88 -3.51)"/><path class="cls-1" d="M684.74,27a6.24,6.24,0,0,1-.29-1.5,5.35,5.35,0,0,1-4.13,1.76c-4.1,0-6.5-3.07-6.5-8.13,0-3.46,1.18-6.11,3.36-7.52a5.53,5.53,0,0,1,3.14-.93,4.78,4.78,0,0,1,3.9,1.86c0-.45-.06-1.73-.06-2.82V3.51l2.94.48V21.65a19.2,19.2,0,0,0,.45,5.38Zm-.61-12.45a4.11,4.11,0,0,0-3.39-1.5A3.14,3.14,0,0,0,678,14.7a8.52,8.52,0,0,0-.83,4.42c0,3.1.38,4,1.25,4.86a3,3,0,0,0,2.37.83A3.8,3.8,0,0,0,684.13,23Z" transform="translate(-4.88 -3.51)"/><path class="cls-1" d="M708.29,29a17,17,0,0,1-8.13,4.58l-1.54-1.73a15.53,15.53,0,0,0,6.43-3.33,12.52,12.52,0,0,0,3.65-5.34,6.86,6.86,0,0,1-3.78,1.28c-3.71,0-6.46-2.88-6.46-6.82a7.1,7.1,0,0,1,7.26-7.26c4.13,0,7,3,7,8.13A15.22,15.22,0,0,1,708.29,29ZM705.6,12.66c-2.34,0-3.87,2-3.87,4.9s1.44,4.61,3.78,4.61a5.43,5.43,0,0,0,3.71-1.6,10,10,0,0,0,.32-2.46C709.54,14.8,708,12.66,705.6,12.66Z" transform="translate(-4.88 -3.51)"/><path class="cls-1" d="M724.77,27V7.89a13.26,13.26,0,0,0-.42-3.65l3-.7a17.36,17.36,0,0,1,.38,3.52V27Zm9.85,0L728,17.9,733.32,11h3.58l-5.73,6.82L738.31,27Z" transform="translate(-4.88 -3.51)"/><path class="cls-1" d="M743.2,19.63V20a6,6,0,0,0,.67,3.2,4.18,4.18,0,0,0,3.68,1.89,5.7,5.7,0,0,0,3.94-1.54l1.12,1.76a8.19,8.19,0,0,1-5.54,2c-4.45,0-7.17-3.23-7.17-8.48,0-2.78.54-4.58,1.92-6.21a6,6,0,0,1,4.83-2.21A5.78,5.78,0,0,1,751,12.21c1.41,1.44,1.92,3.23,2,6.91v.51Zm5.7-5.79a2.88,2.88,0,0,0-2.3-1.12c-2.24,0-3.36,1.82-3.36,4.74h6.66A5.86,5.86,0,0,0,748.9,13.84Z" transform="translate(-4.88 -3.51)"/><path class="cls-1" d="M763.81,27.54c-.77,2.27-1.6,4-2.72,4.93a7.09,7.09,0,0,1-3,1.38l-.93-1.92A4.87,4.87,0,0,0,760,30.1,9.06,9.06,0,0,0,761.28,27l-1.15.16a47.74,47.74,0,0,0-1.54-5.34L755,11.25l3-.67,3.07,10.08c.29,1,.7,2.69.93,3.78h.19c.26-1.09.64-2.53,1.09-4L766.15,11h3.26Z" transform="translate(-4.88 -3.51)"/><path class="cls-1" d="M790.4,27.7a3.66,3.66,0,0,1-2.14-2.3,5.57,5.57,0,0,1-4.54,2.11c-3.2,0-5.18-1.63-5.18-4.7,0-3.71,3-5.7,8.16-5.7.38,0,.7,0,1.12,0V16.08c0-1.89-.26-3.17-2.5-3.17a8.85,8.85,0,0,0-4.93,1.82L779,12.63a12.62,12.62,0,0,1,6.72-2.11c2.34,0,4,.86,4.64,2.56a7.31,7.31,0,0,1,.32,2.82c0,1.15-.13,3.62-.13,6s.06,3.1,1.31,3.87Zm-3.62-8.61c-2.21,0-3.55.42-4.19,1.15a3.09,3.09,0,0,0-.83,2.34c0,1.76.9,2.78,2.53,2.78a4,4,0,0,0,3.36-2.11l.1-4.1C787.3,19.12,787,19.09,786.79,19.09Z" transform="translate(-4.88 -3.51)"/><path class="cls-1" d="M800.8,27.47a12.21,12.21,0,0,1-6-1.7l1.06-2.11a10.93,10.93,0,0,0,5.15,1.6c1.76,0,3-1,3-2.59,0-1.38-.83-2.18-2.69-2.53l-2-.38c-2.53-.51-3.9-2.08-3.9-4.45,0-2.94,2.34-5,5.79-5a10.19,10.19,0,0,1,5.06,1.31l-1,2.08a8.67,8.67,0,0,0-3.94-1.15c-1.7,0-2.78,1-2.78,2.4,0,1.15.58,1.79,2.27,2.18l2.08.48c2.94.67,4.16,2.37,4.16,4.48C807.11,25.3,804.55,27.47,800.8,27.47Z" transform="translate(-4.88 -3.51)"/><path class="cls-1" d="M816,27.47a12.21,12.21,0,0,1-6-1.7L811,23.66a10.93,10.93,0,0,0,5.15,1.6c1.76,0,3-1,3-2.59,0-1.38-.83-2.18-2.69-2.53l-2-.38c-2.53-.51-3.9-2.08-3.9-4.45,0-2.94,2.34-5,5.79-5a10.19,10.19,0,0,1,5.06,1.31l-1,2.08a8.67,8.67,0,0,0-3.94-1.15c-1.7,0-2.78,1-2.78,2.4,0,1.15.58,1.79,2.27,2.18l2.08.48c2.94.67,4.16,2.37,4.16,4.48C822.27,25.3,819.71,27.47,816,27.47Z" transform="translate(-4.88 -3.51)"/><path class="cls-1" d="M829.09,19.63V20a6,6,0,0,0,.67,3.2,4.18,4.18,0,0,0,3.68,1.89,5.7,5.7,0,0,0,3.94-1.54l1.12,1.76a8.19,8.19,0,0,1-5.54,2c-4.45,0-7.17-3.23-7.17-8.48,0-2.78.54-4.58,1.92-6.21a6,6,0,0,1,4.83-2.21,5.78,5.78,0,0,1,4.35,1.73c1.41,1.44,1.92,3.23,2,6.91v.51Zm5.7-5.79a2.88,2.88,0,0,0-2.3-1.12c-2.24,0-3.36,1.82-3.36,4.74h6.66A5.86,5.86,0,0,0,834.79,13.84Z" transform="translate(-4.88 -3.51)"/><path class="cls-1" d="M849.38,13.07h-3.17v9.66c0,2,.48,2.59,2.08,2.59a3.54,3.54,0,0,0,1.5-.32l.35,1.79a6.38,6.38,0,0,1-2.91.67,4.57,4.57,0,0,1-2.82-.86c-.64-.58-1.09-1-1.09-3.2V13.07h-1.92V11h1.92a34.73,34.73,0,0,1,.19-4.1l3-.7c-.13,1.15-.29,3.17-.29,4.8h3.9Z" transform="translate(-4.88 -3.51)"/><path class="cls-1" d="M866.47,27.34a5.87,5.87,0,0,1-5.15-2.4,9.69,9.69,0,0,1-1.54-5.79c0-3.62,1.15-5.7,2.69-7.07a6.27,6.27,0,0,1,8.51.06l-1.54,2a3.91,3.91,0,0,0-2.82-1.25,3.08,3.08,0,0,0-2.82,1.73,11.38,11.38,0,0,0-.77,4.9c0,2.24.45,3.71,1.28,4.61a3.11,3.11,0,0,0,2.3,1A4.49,4.49,0,0,0,870,23.44l1.44,1.82A6.31,6.31,0,0,1,866.47,27.34Z" transform="translate(-4.88 -3.51)"/><path class="cls-1" d="M878.5,27.34a2.72,2.72,0,0,1-2.5-1.22c-.48-.67-.61-1.22-.61-2.78V8.82A20.87,20.87,0,0,0,875,4.21l3.07-.64a19.88,19.88,0,0,1,.29,4.58V23.06c0,1.12.1,1.7.51,2a1.2,1.2,0,0,0,.9.13l.51,1.82A4.31,4.31,0,0,1,878.5,27.34Z" transform="translate(-4.88 -3.51)"/><path class="cls-1" d="M894.75,27.7a3.66,3.66,0,0,1-2.14-2.3,5.57,5.57,0,0,1-4.54,2.11c-3.2,0-5.18-1.63-5.18-4.7,0-3.71,3-5.7,8.16-5.7.38,0,.7,0,1.12,0V16.08c0-1.89-.26-3.17-2.5-3.17a8.85,8.85,0,0,0-4.93,1.82l-1.34-2.11a12.62,12.62,0,0,1,6.72-2.11c2.34,0,4,.86,4.64,2.56a7.31,7.31,0,0,1,.32,2.82c0,1.15-.13,3.62-.13,6s.06,3.1,1.31,3.87Zm-3.62-8.61c-2.21,0-3.55.42-4.19,1.15a3.09,3.09,0,0,0-.83,2.34c0,1.76.9,2.78,2.53,2.78A4,4,0,0,0,892,23.25l.1-4.1C891.65,19.12,891.39,19.09,891.14,19.09Z" transform="translate(-4.88 -3.51)"/><path class="cls-1" d="M905.15,27.47a12.21,12.21,0,0,1-6-1.7l1.06-2.11a10.93,10.93,0,0,0,5.15,1.6c1.76,0,3-1,3-2.59,0-1.38-.83-2.18-2.69-2.53l-2-.38c-2.53-.51-3.9-2.08-3.9-4.45,0-2.94,2.34-5,5.79-5a10.19,10.19,0,0,1,5.06,1.31l-1,2.08a8.67,8.67,0,0,0-3.94-1.15c-1.7,0-2.78,1-2.78,2.4,0,1.15.58,1.79,2.27,2.18l2.08.48c2.94.67,4.16,2.37,4.16,4.48C911.46,25.3,908.9,27.47,905.15,27.47Z" transform="translate(-4.88 -3.51)"/><path class="cls-1" d="M920.32,27.47a12.21,12.21,0,0,1-6-1.7l1.06-2.11a10.93,10.93,0,0,0,5.15,1.6c1.76,0,3-1,3-2.59,0-1.38-.83-2.18-2.69-2.53l-2-.38c-2.53-.51-3.9-2.08-3.9-4.45,0-2.94,2.34-5,5.79-5a10.19,10.19,0,0,1,5.06,1.31l-1,2.08a8.67,8.67,0,0,0-3.94-1.15c-1.7,0-2.78,1-2.78,2.4,0,1.15.58,1.79,2.27,2.18l2.08.48c2.94.67,4.16,2.37,4.16,4.48C926.63,25.3,924.07,27.47,920.32,27.47Z" transform="translate(-4.88 -3.51)"/><path class="cls-1" d="M933.44,19.63V20a6,6,0,0,0,.67,3.2,4.18,4.18,0,0,0,3.68,1.89,5.7,5.7,0,0,0,3.94-1.54l1.12,1.76a8.19,8.19,0,0,1-5.54,2c-4.45,0-7.17-3.23-7.17-8.48,0-2.78.54-4.58,1.92-6.21a6,6,0,0,1,4.83-2.21,5.78,5.78,0,0,1,4.35,1.73c1.41,1.44,1.92,3.23,2,6.91v.51Zm5.7-5.79a2.88,2.88,0,0,0-2.3-1.12c-2.24,0-3.36,1.82-3.36,4.74h6.66A5.86,5.86,0,0,0,939.14,13.84Z" transform="translate(-4.88 -3.51)"/><path class="cls-1" d="M952.23,27.47a12.21,12.21,0,0,1-6-1.7l1.06-2.11a10.93,10.93,0,0,0,5.15,1.6c1.76,0,3-1,3-2.59,0-1.38-.83-2.18-2.69-2.53l-2-.38c-2.53-.51-3.9-2.08-3.9-4.45,0-2.94,2.34-5,5.79-5a10.19,10.19,0,0,1,5.06,1.31l-1,2.08a8.67,8.67,0,0,0-3.94-1.15c-1.7,0-2.78,1-2.78,2.4,0,1.15.58,1.79,2.27,2.18l2.08.48c2.94.67,4.16,2.37,4.16,4.48C958.53,25.3,956,27.47,952.23,27.47Z" transform="translate(-4.88 -3.51)"/><path class="cls-1" d="M62.36,49.58a2.4,2.4,0,0,0-.83-.16,3.35,3.35,0,0,0-3.33,3.26V63H55.26V51.25a10.24,10.24,0,0,0-.61-4l2.85-.74A6.63,6.63,0,0,1,58,49v.29c1.28-1.86,2.66-2.78,4.35-2.78a2.92,2.92,0,0,1,1,.16Z" transform="translate(-4.88 -3.51)"/><path class="cls-1" d="M68.35,55.63V56a6,6,0,0,0,.67,3.2A4.18,4.18,0,0,0,72.7,61.1a5.7,5.7,0,0,0,3.94-1.54l1.12,1.76a8.19,8.19,0,0,1-5.54,2c-4.45,0-7.17-3.23-7.17-8.48,0-2.78.54-4.58,1.92-6.21a6,6,0,0,1,4.83-2.21,5.78,5.78,0,0,1,4.35,1.73c1.41,1.44,1.92,3.23,2,6.91v.51ZM74,49.84a2.88,2.88,0,0,0-2.3-1.12c-2.24,0-3.36,1.82-3.36,4.74H75A5.86,5.86,0,0,0,74,49.84Z" transform="translate(-4.88 -3.51)"/><path class="cls-1" d="M89.56,63.34a6.16,6.16,0,0,1-4.16-1.66,16.18,16.18,0,0,1,.06,1.79V69.1l-2.88.67V50.93A17,17,0,0,0,82.24,47l2.85-.48a8.31,8.31,0,0,1,.19,2.3,5.81,5.81,0,0,1,4.54-2.24c3.26,0,6,2.66,6,8.16C95.83,59.73,93.66,63.34,89.56,63.34Zm-.26-14.27a5,5,0,0,0-3.84,2v8.16A5,5,0,0,0,88.89,61c2.59,0,3.78-2,3.78-5.89S91.83,49.07,89.31,49.07Z" transform="translate(-4.88 -3.51)"/><path class="cls-1" d="M107.74,49.58a2.4,2.4,0,0,0-.83-.16,3.35,3.35,0,0,0-3.33,3.26V63h-2.94V51.25a10.24,10.24,0,0,0-.61-4l2.85-.74a6.63,6.63,0,0,1,.54,2.46v.29c1.28-1.86,2.66-2.78,4.35-2.78a2.92,2.92,0,0,1,1,.16Z" transform="translate(-4.88 -3.51)"/><path class="cls-1" d="M113.72,55.63V56a6,6,0,0,0,.67,3.2,4.18,4.18,0,0,0,3.68,1.89A5.7,5.7,0,0,0,122,59.57l1.12,1.76a8.19,8.19,0,0,1-5.54,2c-4.45,0-7.17-3.23-7.17-8.48,0-2.78.54-4.58,1.92-6.21a6,6,0,0,1,4.83-2.21,5.78,5.78,0,0,1,4.35,1.73c1.41,1.44,1.92,3.23,2,6.91v.51Zm5.7-5.79a2.88,2.88,0,0,0-2.3-1.12c-2.24,0-3.36,1.82-3.36,4.74h6.66A5.86,5.86,0,0,0,119.42,49.84Z" transform="translate(-4.88 -3.51)"/><path class="cls-1" d="M132.51,63.47a12.21,12.21,0,0,1-6-1.7l1.06-2.11a10.93,10.93,0,0,0,5.15,1.6c1.76,0,3-1,3-2.59,0-1.38-.83-2.18-2.69-2.53l-2-.38c-2.53-.51-3.9-2.08-3.9-4.45,0-2.94,2.34-5,5.79-5A10.19,10.19,0,0,1,138,47.63l-1,2.08a8.67,8.67,0,0,0-3.94-1.15c-1.7,0-2.78,1-2.78,2.4,0,1.15.58,1.79,2.27,2.18l2.08.48c2.94.67,4.16,2.37,4.16,4.48C138.81,61.3,136.25,63.47,132.51,63.47Z" transform="translate(-4.88 -3.51)"/><path class="cls-1" d="M145.63,55.63V56a6,6,0,0,0,.67,3.2A4.18,4.18,0,0,0,150,61.1a5.7,5.7,0,0,0,3.94-1.54L155,61.33a8.19,8.19,0,0,1-5.54,2c-4.45,0-7.17-3.23-7.17-8.48,0-2.78.54-4.58,1.92-6.21a6,6,0,0,1,4.83-2.21,5.78,5.78,0,0,1,4.35,1.73c1.41,1.44,1.92,3.23,2,6.91v.51Zm5.7-5.79a2.88,2.88,0,0,0-2.3-1.12c-2.24,0-3.36,1.82-3.36,4.74h6.66A5.86,5.86,0,0,0,151.32,49.84Z" transform="translate(-4.88 -3.51)"/><path class="cls-1" d="M168.89,63V52.21c0-1.44-.13-2-.51-2.46a2,2,0,0,0-1.63-.64,6.47,6.47,0,0,0-4,2V63h-2.91V51.09a8.75,8.75,0,0,0-.61-3.81l2.78-.77a5.09,5.09,0,0,1,.54,2.46,13.81,13.81,0,0,1,2.08-1.57,5.94,5.94,0,0,1,3-.8,4,4,0,0,1,3.78,2.27,5,5,0,0,1,.38,2V63Z" transform="translate(-4.88 -3.51)"/><path class="cls-1" d="M183.61,49.07h-3.17v9.66c0,2,.48,2.59,2.08,2.59A3.54,3.54,0,0,0,184,61l.35,1.79a6.38,6.38,0,0,1-2.91.67,4.57,4.57,0,0,1-2.82-.86c-.64-.58-1.09-1-1.09-3.2V49.07h-1.92V47h1.92a34.73,34.73,0,0,1,.19-4.1l3-.7c-.13,1.15-.29,3.17-.29,4.8h3.9Z" transform="translate(-4.88 -3.51)"/><path class="cls-1" d="M189.59,44.18a2.08,2.08,0,0,1-2-2.11,2.1,2.1,0,1,1,4.19,0A2.14,2.14,0,0,1,189.59,44.18ZM188.09,63V47.09l3-.48V63Z" transform="translate(-4.88 -3.51)"/><path class="cls-1" d="M205.91,63V52.21c0-1.44-.13-2-.51-2.46a2,2,0,0,0-1.63-.64,6.47,6.47,0,0,0-4,2V63h-2.91V51.09a8.75,8.75,0,0,0-.61-3.81l2.78-.77a5.09,5.09,0,0,1,.54,2.46,13.81,13.81,0,0,1,2.08-1.57,5.94,5.94,0,0,1,3-.8,4,4,0,0,1,3.78,2.27,5,5,0,0,1,.38,2V63Z" transform="translate(-4.88 -3.51)"/><path class="cls-1" d="M226.36,49.27A3.81,3.81,0,0,1,225,49,4.48,4.48,0,0,1,226.14,52c0,2.3-1.57,5-5.76,5-1,.32-2.53,1.06-2.53,1.76,0,.48.38.8,1.15.8h2.46c4.1,0,5.79,1.92,5.79,4.42,0,3.46-2.85,5.18-6.75,5.18-4.48,0-7-1.57-7-4.22a4.8,4.8,0,0,1,.29-1.63l2.88-.16a3.09,3.09,0,0,0-.29,1.22c0,1.66,1.38,2.56,3.87,2.56s3.94-1.06,3.94-2.75c0-1.54-1.25-2.43-4.42-2.43-1.12,0-2.4-.1-3-.16-1.41-.16-2.24-1-2.24-2.14,0-1.5,1.31-2.14,3.14-2.82-2.46-.74-3.78-2.4-3.78-4.61,0-3.23,2.46-5.38,6.14-5.38a7.83,7.83,0,0,1,2.5.35,9,9,0,0,0,2.4.51,4.38,4.38,0,0,0,2.62-.93l1.5,1.82A4,4,0,0,1,226.36,49.27Zm-6.43-.42c-1.89,0-2.91,1-2.91,3.07a2.65,2.65,0,0,0,2.94,3c1.92,0,2.91-1.06,2.91-3S221.95,48.85,219.93,48.85Z" transform="translate(-4.88 -3.51)"/><path class="cls-1" d="M245.14,49.07H242v9.66c0,2,.48,2.59,2.08,2.59a3.54,3.54,0,0,0,1.5-.32l.35,1.79a6.38,6.38,0,0,1-2.91.67,4.57,4.57,0,0,1-2.82-.86c-.64-.58-1.09-1-1.09-3.2V49.07h-1.92V47h1.92a34.73,34.73,0,0,1,.19-4.1l3-.7c-.13,1.15-.29,3.17-.29,4.8h3.9Z" transform="translate(-4.88 -3.51)"/><path class="cls-1" d="M259.16,63V52a3.53,3.53,0,0,0-.54-2.24,2.56,2.56,0,0,0-1.76-.61,6.14,6.14,0,0,0-4.26,2.34V63h-3V43.54a14,14,0,0,0-.35-3.36l3-.61a16.34,16.34,0,0,1,.35,3.71v3.58c0,.58,0,1.31-.1,2.14a11,11,0,0,1,1.7-1.31,6.19,6.19,0,0,1,3.49-1.09,4.1,4.1,0,0,1,4,2.4A6.51,6.51,0,0,1,262,51.6V63Z" transform="translate(-4.88 -3.51)"/><path class="cls-1" d="M270.14,55.63V56a6,6,0,0,0,.67,3.2,4.18,4.18,0,0,0,3.68,1.89,5.7,5.7,0,0,0,3.94-1.54l1.12,1.76a8.19,8.19,0,0,1-5.54,2c-4.45,0-7.17-3.23-7.17-8.48,0-2.78.54-4.58,1.92-6.21a6,6,0,0,1,4.83-2.21,5.78,5.78,0,0,1,4.35,1.73c1.41,1.44,1.92,3.23,2,6.91v.51Zm5.7-5.79a2.88,2.88,0,0,0-2.3-1.12c-2.24,0-3.36,1.82-3.36,4.74h6.66A5.86,5.86,0,0,0,275.83,49.84Z" transform="translate(-4.88 -3.51)"/><path class="cls-1" d="M297.3,63.34a5.87,5.87,0,0,1-5.15-2.4,9.69,9.69,0,0,1-1.54-5.79c0-3.62,1.15-5.7,2.69-7.07a6.27,6.27,0,0,1,8.51.06l-1.54,2a3.91,3.91,0,0,0-2.82-1.25,3.08,3.08,0,0,0-2.82,1.73,11.38,11.38,0,0,0-.77,4.9c0,2.24.45,3.71,1.28,4.61a3.11,3.11,0,0,0,2.3,1,4.49,4.49,0,0,0,3.33-1.66l1.44,1.82A6.31,6.31,0,0,1,297.3,63.34Z" transform="translate(-4.88 -3.51)"/><path class="cls-1" d="M313.18,49.58a2.4,2.4,0,0,0-.83-.16A3.35,3.35,0,0,0,309,52.69V63h-2.94V51.25a10.24,10.24,0,0,0-.61-4l2.85-.74a6.63,6.63,0,0,1,.54,2.46v.29c1.28-1.86,2.66-2.78,4.35-2.78a2.92,2.92,0,0,1,1,.16Z" transform="translate(-4.88 -3.51)"/><path class="cls-1" d="M318.58,44.18a2.08,2.08,0,0,1-2-2.11,2.1,2.1,0,1,1,4.19,0A2.14,2.14,0,0,1,318.58,44.18ZM317.08,63V47.09l3-.48V63Z" transform="translate(-4.88 -3.51)"/><path class="cls-1" d="M331.93,49.07h-3.17v9.66c0,2,.48,2.59,2.08,2.59a3.54,3.54,0,0,0,1.5-.32l.35,1.79a6.38,6.38,0,0,1-2.91.67,4.57,4.57,0,0,1-2.82-.86c-.64-.58-1.09-1-1.09-3.2V49.07H324V47h1.92a34.73,34.73,0,0,1,.19-4.1l3-.7c-.13,1.15-.29,3.17-.29,4.8h3.9Z" transform="translate(-4.88 -3.51)"/><path class="cls-1" d="M337.91,44.18a2.08,2.08,0,0,1-2-2.11,2.1,2.1,0,1,1,4.19,0A2.14,2.14,0,0,1,337.91,44.18ZM336.41,63V47.09l3-.48V63Z" transform="translate(-4.88 -3.51)"/><path class="cls-1" d="M350.94,63.34a5.87,5.87,0,0,1-5.15-2.4,9.69,9.69,0,0,1-1.54-5.79c0-3.62,1.15-5.7,2.69-7.07a6.27,6.27,0,0,1,8.51.06l-1.54,2a3.91,3.91,0,0,0-2.82-1.25,3.08,3.08,0,0,0-2.82,1.73,11.38,11.38,0,0,0-.77,4.9c0,2.24.45,3.71,1.28,4.61a3.11,3.11,0,0,0,2.3,1,4.49,4.49,0,0,0,3.33-1.66l1.44,1.82A6.31,6.31,0,0,1,350.94,63.34Z" transform="translate(-4.88 -3.51)"/><path class="cls-1" d="M370.3,63.7a3.66,3.66,0,0,1-2.14-2.3,5.57,5.57,0,0,1-4.54,2.11c-3.2,0-5.18-1.63-5.18-4.7,0-3.71,3-5.7,8.16-5.7.38,0,.7,0,1.12,0V52.08c0-1.89-.26-3.17-2.5-3.17a8.85,8.85,0,0,0-4.93,1.82l-1.34-2.11a12.62,12.62,0,0,1,6.72-2.11c2.34,0,4,.86,4.64,2.56a7.31,7.31,0,0,1,.32,2.82c0,1.15-.13,3.62-.13,6s.06,3.1,1.31,3.87Zm-3.62-8.61c-2.21,0-3.55.42-4.19,1.15a3.09,3.09,0,0,0-.83,2.34c0,1.76.9,2.78,2.53,2.78a4,4,0,0,0,3.36-2.11l.1-4.1C367.19,55.12,366.94,55.09,366.68,55.09Z" transform="translate(-4.88 -3.51)"/><path class="cls-1" d="M379.26,63.34a2.72,2.72,0,0,1-2.5-1.22c-.48-.67-.61-1.22-.61-2.78V44.82a20.87,20.87,0,0,0-.35-4.61l3.07-.64a19.88,19.88,0,0,1,.29,4.58V59.06c0,1.12.1,1.7.51,2a1.2,1.2,0,0,0,.9.13l.51,1.82A4.31,4.31,0,0,1,379.26,63.34Z" transform="translate(-4.88 -3.51)"/><path class="cls-1" d="M394.14,55.63V56a6,6,0,0,0,.67,3.2,4.18,4.18,0,0,0,3.68,1.89,5.7,5.7,0,0,0,3.94-1.54l1.12,1.76a8.19,8.19,0,0,1-5.54,2c-4.45,0-7.17-3.23-7.17-8.48,0-2.78.54-4.58,1.92-6.21a6,6,0,0,1,4.83-2.21,5.78,5.78,0,0,1,4.35,1.73c1.41,1.44,1.92,3.23,2,6.91v.51Zm5.7-5.79a2.88,2.88,0,0,0-2.3-1.12c-2.24,0-3.36,1.82-3.36,4.74h6.66A5.86,5.86,0,0,0,399.83,49.84Z" transform="translate(-4.88 -3.51)"/><path class="cls-1" d="M414.1,63.34a5.87,5.87,0,0,1-5.15-2.4,9.69,9.69,0,0,1-1.54-5.79c0-3.62,1.15-5.7,2.69-7.07a6.27,6.27,0,0,1,8.51.06l-1.54,2a3.91,3.91,0,0,0-2.82-1.25,3.08,3.08,0,0,0-2.82,1.73,11.38,11.38,0,0,0-.77,4.9c0,2.24.45,3.71,1.28,4.61a3.11,3.11,0,0,0,2.3,1,4.49,4.49,0,0,0,3.33-1.66L419,61.26A6.31,6.31,0,0,1,414.1,63.34Z" transform="translate(-4.88 -3.51)"/><path class="cls-1" d="M428.53,63.47c-4.29,0-6.94-3.26-6.94-8.48s2.66-8.45,6.88-8.45c4.74,0,7,3.78,7,8.61C435.51,60.24,432.79,63.47,428.53,63.47Zm-.06-14.65c-2.56,0-3.62,1.82-3.62,5.86,0,4.9,1.25,6.53,3.74,6.53,2.24,0,3.62-1.73,3.62-5.92C432.21,50.32,430.77,48.82,428.47,48.82Z" transform="translate(-4.88 -3.51)"/><path class="cls-1" d="M449.17,63V52.21c0-1.44-.13-2-.51-2.46A2,2,0,0,0,447,49.1a6.47,6.47,0,0,0-4,2V63h-2.91V51.09a8.75,8.75,0,0,0-.61-3.81l2.78-.77a5.09,5.09,0,0,1,.54,2.46A13.81,13.81,0,0,1,445,47.41a5.94,5.94,0,0,1,3-.8,4,4,0,0,1,3.78,2.27,5,5,0,0,1,.38,2V63Z" transform="translate(-4.88 -3.51)"/><path class="cls-1" d="M463.67,63.47c-4.29,0-6.94-3.26-6.94-8.48s2.66-8.45,6.88-8.45c4.74,0,7,3.78,7,8.61C470.65,60.24,467.93,63.47,463.67,63.47Zm-.06-14.65c-2.56,0-3.62,1.82-3.62,5.86,0,4.9,1.25,6.53,3.74,6.53,2.24,0,3.62-1.73,3.62-5.92C467.35,50.32,465.91,48.82,463.61,48.82Z" transform="translate(-4.88 -3.51)"/><path class="cls-1" d="M492.41,63V51.54c0-1.82-.58-2.46-1.92-2.46s-2.53,1-3.74,2.18V63h-2.88V51.6c0-1.79-.51-2.46-2-2.46A5.51,5.51,0,0,0,478.2,51V63h-2.91V51.25a8.72,8.72,0,0,0-.58-4l2.75-.67a4.54,4.54,0,0,1,.54,2.24,6.55,6.55,0,0,1,4.51-2.27,4.14,4.14,0,0,1,3.81,2.53,6.87,6.87,0,0,1,4.9-2.53c2.5,0,4.1,1.57,4.1,4.51V63Z" transform="translate(-4.88 -3.51)"/><path class="cls-1" d="M502.58,44.18a2.08,2.08,0,0,1-2-2.11,2.1,2.1,0,1,1,4.19,0A2.14,2.14,0,0,1,502.58,44.18ZM501.08,63V47.09l3-.48V63Z" transform="translate(-4.88 -3.51)"/><path class="cls-1" d="M515.61,63.34a5.87,5.87,0,0,1-5.15-2.4,9.69,9.69,0,0,1-1.54-5.79c0-3.62,1.15-5.7,2.69-7.07a6.27,6.27,0,0,1,8.51.06l-1.54,2a3.91,3.91,0,0,0-2.82-1.25A3.08,3.08,0,0,0,513,50.64a11.38,11.38,0,0,0-.77,4.9c0,2.24.45,3.71,1.28,4.61a3.11,3.11,0,0,0,2.3,1,4.49,4.49,0,0,0,3.33-1.66l1.44,1.82A6.31,6.31,0,0,1,515.61,63.34Z" transform="translate(-4.88 -3.51)"/><path class="cls-1" d="M542.33,63.7a3.66,3.66,0,0,1-2.14-2.3,5.57,5.57,0,0,1-4.54,2.11c-3.2,0-5.18-1.63-5.18-4.7,0-3.71,3-5.7,8.16-5.7.38,0,.7,0,1.12,0V52.08c0-1.89-.26-3.17-2.5-3.17a8.85,8.85,0,0,0-4.93,1.82L531,48.63a12.62,12.62,0,0,1,6.72-2.11c2.34,0,4,.86,4.64,2.56a7.31,7.31,0,0,1,.32,2.82c0,1.15-.13,3.62-.13,6s.06,3.1,1.31,3.87Zm-3.62-8.61c-2.21,0-3.55.42-4.19,1.15a3.09,3.09,0,0,0-.83,2.34c0,1.76.9,2.78,2.53,2.78a4,4,0,0,0,3.36-2.11l.1-4.1C539.22,55.12,539,55.09,538.71,55.09Z" transform="translate(-4.88 -3.51)"/><path class="cls-1" d="M557.37,63V52.21c0-1.44-.13-2-.51-2.46a2,2,0,0,0-1.63-.64,6.47,6.47,0,0,0-4,2V63h-2.91V51.09a8.75,8.75,0,0,0-.61-3.81l2.78-.77a5.09,5.09,0,0,1,.54,2.46,13.78,13.78,0,0,1,2.08-1.57,5.94,5.94,0,0,1,3-.8,4,4,0,0,1,3.78,2.27,5,5,0,0,1,.38,2V63Z" transform="translate(-4.88 -3.51)"/><path class="cls-1" d="M576,63a6.24,6.24,0,0,1-.29-1.5,5.35,5.35,0,0,1-4.13,1.76c-4.1,0-6.5-3.07-6.5-8.13,0-3.46,1.18-6.11,3.36-7.52a5.53,5.53,0,0,1,3.14-.93,4.78,4.78,0,0,1,3.9,1.86c0-.45-.06-1.73-.06-2.82V39.51l2.94.48V57.65a19.2,19.2,0,0,0,.45,5.38Zm-.61-12.45a4.11,4.11,0,0,0-3.39-1.5,3.14,3.14,0,0,0-2.78,1.63,8.52,8.52,0,0,0-.83,4.42c0,3.1.38,4,1.25,4.86a3,3,0,0,0,2.37.83A3.8,3.8,0,0,0,575.38,59Z" transform="translate(-4.88 -3.51)"/><path class="cls-1" d="M595.7,63.47a12.21,12.21,0,0,1-6-1.7l1.06-2.11a10.93,10.93,0,0,0,5.15,1.6c1.76,0,3-1,3-2.59,0-1.38-.83-2.18-2.69-2.53l-2-.38c-2.53-.51-3.9-2.08-3.9-4.45,0-2.94,2.34-5,5.79-5a10.19,10.19,0,0,1,5.06,1.31l-1,2.08a8.67,8.67,0,0,0-3.94-1.15c-1.7,0-2.78,1-2.78,2.4,0,1.15.58,1.79,2.27,2.18l2.08.48c2.94.67,4.16,2.37,4.16,4.48C602,61.3,599.44,63.47,595.7,63.47Z" transform="translate(-4.88 -3.51)"/><path class="cls-1" d="M612.31,63.47c-4.29,0-6.94-3.26-6.94-8.48s2.66-8.45,6.88-8.45c4.74,0,7,3.78,7,8.61C619.28,60.24,616.56,63.47,612.31,63.47Zm-.06-14.65c-2.56,0-3.62,1.82-3.62,5.86,0,4.9,1.25,6.53,3.74,6.53,2.24,0,3.62-1.73,3.62-5.92C616,50.32,614.55,48.82,612.24,48.82Z" transform="translate(-4.88 -3.51)"/><path class="cls-1" d="M629.65,63.34a5.87,5.87,0,0,1-5.15-2.4A9.69,9.69,0,0,1,623,55.15c0-3.62,1.15-5.7,2.69-7.07a6.27,6.27,0,0,1,8.51.06l-1.54,2a3.91,3.91,0,0,0-2.82-1.25A3.08,3.08,0,0,0,627,50.64a11.38,11.38,0,0,0-.77,4.9c0,2.24.45,3.71,1.28,4.61a3.11,3.11,0,0,0,2.3,1,4.49,4.49,0,0,0,3.33-1.66l1.44,1.82A6.31,6.31,0,0,1,629.65,63.34Z" transform="translate(-4.88 -3.51)"/><path class="cls-1" d="M639.93,44.18a2.08,2.08,0,0,1-2-2.11,2.1,2.1,0,1,1,4.19,0A2.14,2.14,0,0,1,639.93,44.18ZM638.42,63V47.09l3-.48V63Z" transform="translate(-4.88 -3.51)"/><path class="cls-1" d="M657.81,63.7a3.66,3.66,0,0,1-2.14-2.3,5.57,5.57,0,0,1-4.54,2.11c-3.2,0-5.18-1.63-5.18-4.7,0-3.71,3-5.7,8.16-5.7.38,0,.7,0,1.12,0V52.08c0-1.89-.26-3.17-2.5-3.17a8.85,8.85,0,0,0-4.93,1.82l-1.34-2.11a12.62,12.62,0,0,1,6.72-2.11c2.34,0,4,.86,4.64,2.56a7.31,7.31,0,0,1,.32,2.82c0,1.15-.13,3.62-.13,6s.06,3.1,1.31,3.87Zm-3.62-8.61c-2.21,0-3.55.42-4.19,1.15a3.09,3.09,0,0,0-.83,2.34c0,1.76.9,2.78,2.53,2.78a4,4,0,0,0,3.36-2.11l.1-4.1C654.71,55.12,654.45,55.09,654.2,55.09Z" transform="translate(-4.88 -3.51)"/><path class="cls-1" d="M666.77,63.34a2.72,2.72,0,0,1-2.5-1.22c-.48-.67-.61-1.22-.61-2.78V44.82a20.87,20.87,0,0,0-.35-4.61l3.07-.64a19.88,19.88,0,0,1,.29,4.58V59.06c0,1.12.1,1.7.51,2a1.2,1.2,0,0,0,.9.13L668.6,63A4.31,4.31,0,0,1,666.77,63.34Z" transform="translate(-4.88 -3.51)"/><path class="cls-1" d="M690.07,63.7a3.66,3.66,0,0,1-2.14-2.3,5.57,5.57,0,0,1-4.54,2.11c-3.2,0-5.18-1.63-5.18-4.7,0-3.71,3-5.7,8.16-5.7.38,0,.7,0,1.12,0V52.08c0-1.89-.26-3.17-2.5-3.17a8.85,8.85,0,0,0-4.93,1.82l-1.34-2.11a12.62,12.62,0,0,1,6.72-2.11c2.34,0,4,.86,4.64,2.56a7.31,7.31,0,0,1,.32,2.82c0,1.15-.13,3.62-.13,6s.06,3.1,1.31,3.87Zm-3.62-8.61c-2.21,0-3.55.42-4.19,1.15a3.09,3.09,0,0,0-.83,2.34c0,1.76.9,2.78,2.53,2.78a4,4,0,0,0,3.36-2.11l.1-4.1C687,55.12,686.71,55.09,686.45,55.09Z" transform="translate(-4.88 -3.51)"/><path class="cls-1" d="M700.47,63.47a12.21,12.21,0,0,1-6-1.7l1.06-2.11a10.93,10.93,0,0,0,5.15,1.6c1.76,0,3-1,3-2.59,0-1.38-.83-2.18-2.69-2.53l-2-.38c-2.53-.51-3.9-2.08-3.9-4.45,0-2.94,2.34-5,5.79-5A10.19,10.19,0,0,1,706,47.63l-1,2.08A8.67,8.67,0,0,0,701,48.56c-1.7,0-2.78,1-2.78,2.4,0,1.15.58,1.79,2.27,2.18l2.08.48c2.94.67,4.16,2.37,4.16,4.48C706.77,61.3,704.21,63.47,700.47,63.47Z" transform="translate(-4.88 -3.51)"/><path class="cls-1" d="M715.64,63.47a12.21,12.21,0,0,1-6-1.7l1.06-2.11a10.93,10.93,0,0,0,5.15,1.6c1.76,0,3-1,3-2.59,0-1.38-.83-2.18-2.69-2.53l-2-.38c-2.53-.51-3.9-2.08-3.9-4.45,0-2.94,2.34-5,5.79-5a10.19,10.19,0,0,1,5.06,1.31l-1,2.08a8.67,8.67,0,0,0-3.94-1.15c-1.7,0-2.78,1-2.78,2.4,0,1.15.58,1.79,2.27,2.18l2.08.48c2.94.67,4.16,2.37,4.16,4.48C721.94,61.3,719.38,63.47,715.64,63.47Z" transform="translate(-4.88 -3.51)"/><path class="cls-1" d="M728.76,55.63V56a6,6,0,0,0,.67,3.2,4.18,4.18,0,0,0,3.68,1.89A5.7,5.7,0,0,0,737,59.57l1.12,1.76a8.19,8.19,0,0,1-5.54,2c-4.45,0-7.17-3.23-7.17-8.48,0-2.78.54-4.58,1.92-6.21a6,6,0,0,1,4.83-2.21,5.78,5.78,0,0,1,4.35,1.73c1.41,1.44,1.92,3.23,2,6.91v.51Zm5.7-5.79a2.88,2.88,0,0,0-2.3-1.12c-2.24,0-3.36,1.82-3.36,4.74h6.66A5.86,5.86,0,0,0,734.45,49.84Z" transform="translate(-4.88 -3.51)"/><path class="cls-1" d="M749,49.07h-3.17v9.66c0,2,.48,2.59,2.08,2.59a3.54,3.54,0,0,0,1.5-.32l.35,1.79a6.38,6.38,0,0,1-2.91.67,4.57,4.57,0,0,1-2.82-.86c-.64-.58-1.09-1-1.09-3.2V49.07h-1.92V47H743a34.73,34.73,0,0,1,.19-4.1l3-.7c-.13,1.15-.29,3.17-.29,4.8h3.9Z" transform="translate(-4.88 -3.51)"/><path class="cls-1" d="M758.07,63.47a12.21,12.21,0,0,1-6-1.7l1.06-2.11a10.93,10.93,0,0,0,5.15,1.6c1.76,0,3-1,3-2.59,0-1.38-.83-2.18-2.69-2.53l-2-.38c-2.53-.51-3.9-2.08-3.9-4.45,0-2.94,2.34-5,5.79-5a10.19,10.19,0,0,1,5.06,1.31l-1,2.08a8.67,8.67,0,0,0-3.94-1.15c-1.7,0-2.78,1-2.78,2.4,0,1.15.58,1.79,2.27,2.18l2.08.48c2.94.67,4.16,2.37,4.16,4.48C764.37,61.3,761.81,63.47,758.07,63.47Z" transform="translate(-4.88 -3.51)"/><path class="cls-1" d="M790.23,63.15h-2.85L785,54.42l-1-3.78H784l-.86,3.58-2.4,8.93h-2.82l-4.38-16,3-.48,2,9,.83,3.94h.1a34.46,34.46,0,0,1,.74-3.65L782.61,47h3l2.24,8.67c.38,1.54.8,3.46.9,3.9h.13l.74-3.81,2-8.77h3.07Z" transform="translate(-4.88 -3.51)"/><path class="cls-1" d="M799.41,44.18a2.08,2.08,0,0,1-2-2.11,2.1,2.1,0,1,1,4.19,0A2.14,2.14,0,0,1,799.41,44.18ZM797.91,63V47.09l3-.48V63Z" transform="translate(-4.88 -3.51)"/><path class="cls-1" d="M812.75,49.07h-3.17v9.66c0,2,.48,2.59,2.08,2.59a3.54,3.54,0,0,0,1.5-.32l.35,1.79a6.38,6.38,0,0,1-2.91.67,4.57,4.57,0,0,1-2.82-.86c-.64-.58-1.09-1-1.09-3.2V49.07h-1.92V47h1.92a34.73,34.73,0,0,1,.19-4.1l3-.7c-.13,1.15-.29,3.17-.29,4.8h3.9Z" transform="translate(-4.88 -3.51)"/><path class="cls-1" d="M826.77,63V52a3.53,3.53,0,0,0-.54-2.24,2.56,2.56,0,0,0-1.76-.61,6.14,6.14,0,0,0-4.26,2.34V63h-3V43.54a14,14,0,0,0-.35-3.36l3-.61a16.34,16.34,0,0,1,.35,3.71v3.58c0,.58,0,1.31-.1,2.14a11,11,0,0,1,1.7-1.31,6.19,6.19,0,0,1,3.49-1.09,4.1,4.1,0,0,1,4,2.4,6.51,6.51,0,0,1,.32,2.59V63Z" transform="translate(-4.88 -3.51)"/><path class="cls-1" d="M836.91,44.18a2.08,2.08,0,0,1-2-2.11,2.1,2.1,0,1,1,4.19,0A2.14,2.14,0,0,1,836.91,44.18ZM835.41,63V47.09l3-.48V63Z" transform="translate(-4.88 -3.51)"/><path class="cls-1" d="M853.23,63V52.21c0-1.44-.13-2-.51-2.46a2,2,0,0,0-1.63-.64,6.47,6.47,0,0,0-4,2V63h-2.91V51.09a8.75,8.75,0,0,0-.61-3.81l2.78-.77a5.09,5.09,0,0,1,.54,2.46A13.81,13.81,0,0,1,849,47.41a5.94,5.94,0,0,1,3-.8,4,4,0,0,1,3.78,2.27,5,5,0,0,1,.38,2V63Z" transform="translate(-4.88 -3.51)"/><path class="cls-1" d="M875.15,49.07H872v9.66c0,2,.48,2.59,2.08,2.59a3.54,3.54,0,0,0,1.5-.32l.35,1.79a6.38,6.38,0,0,1-2.91.67,4.57,4.57,0,0,1-2.82-.86c-.64-.58-1.09-1-1.09-3.2V49.07h-1.92V47h1.92a34.73,34.73,0,0,1,.19-4.1l3-.7c-.13,1.15-.29,3.17-.29,4.8H876Z" transform="translate(-4.88 -3.51)"/><path class="cls-1" d="M889.17,63V52a3.53,3.53,0,0,0-.54-2.24,2.56,2.56,0,0,0-1.76-.61,6.14,6.14,0,0,0-4.26,2.34V63h-3V43.54a14,14,0,0,0-.35-3.36l3-.61a16.34,16.34,0,0,1,.35,3.71v3.58c0,.58,0,1.31-.1,2.14a11,11,0,0,1,1.7-1.31,6.19,6.19,0,0,1,3.49-1.09,4.1,4.1,0,0,1,4,2.4A6.51,6.51,0,0,1,892,51.6V63Z" transform="translate(-4.88 -3.51)"/><path class="cls-1" d="M900.15,55.63V56a6,6,0,0,0,.67,3.2,4.18,4.18,0,0,0,3.68,1.89,5.7,5.7,0,0,0,3.94-1.54l1.12,1.76a8.19,8.19,0,0,1-5.54,2c-4.45,0-7.17-3.23-7.17-8.48,0-2.78.54-4.58,1.92-6.21a6,6,0,0,1,4.83-2.21A5.78,5.78,0,0,1,908,48.21c1.41,1.44,1.92,3.23,2,6.91v.51Zm5.7-5.79a2.88,2.88,0,0,0-2.3-1.12c-2.24,0-3.36,1.82-3.36,4.74h6.66A5.86,5.86,0,0,0,905.84,49.84Z" transform="translate(-4.88 -3.51)"/><path class="cls-1" d="M42.87,102.7A4,4,0,0,1,41,103a8.72,8.72,0,0,1-4.1-1.63,12.47,12.47,0,0,0-4.64-2,7.8,7.8,0,0,1-6.34-2.91c-1.73-2-2.56-5-2.56-8.54,0-4.8,1.63-8.51,4.51-10.21a8.57,8.57,0,0,1,4.38-1.09A8.13,8.13,0,0,1,39.23,80a13.73,13.73,0,0,1,2.14,8.1c0,4.13-1.09,6.88-3.14,8.93a7.85,7.85,0,0,1-1.54,1.25,20,20,0,0,1,2.75,1.44,5.7,5.7,0,0,0,2.91.93,7.17,7.17,0,0,0,1.38-.13Zm-6-20.7a4.74,4.74,0,0,0-4.61-3A4.92,4.92,0,0,0,28,81.36a13,13,0,0,0-1.15,6.21c0,3.55.64,6.3,1.63,7.58a5.09,5.09,0,0,0,4,1.86,4.4,4.4,0,0,0,3.9-2c1-1.38,1.44-3.33,1.44-6.66A16.88,16.88,0,0,0,36.89,82Z" transform="translate(-4.88 -3.51)"/><path class="cls-1" d="M57.05,99.57a3.78,3.78,0,0,1-1.5-2.3,5.88,5.88,0,0,1-4.83,2.3,4.51,4.51,0,0,1-4.32-2.4A6.82,6.82,0,0,1,46,94.48V83.09l2.91-.58V93.68c0,1.63.16,2.27.74,2.82a2.93,2.93,0,0,0,1.86.7,4.41,4.41,0,0,0,3.65-2.53V83.15l2.91-.58V94.64c0,1.63.35,2.78,1,3.33Z" transform="translate(-4.88 -3.51)"/><path class="cls-1" d="M66.17,91.63V92a6,6,0,0,0,.67,3.2,4.18,4.18,0,0,0,3.68,1.89,5.7,5.7,0,0,0,3.94-1.54l1.12,1.76a8.19,8.19,0,0,1-5.54,2c-4.45,0-7.17-3.23-7.17-8.48,0-2.78.54-4.58,1.92-6.21a6,6,0,0,1,4.83-2.21A5.78,5.78,0,0,1,74,84.21c1.41,1.44,1.92,3.23,2,6.91v.51Zm5.7-5.79a2.88,2.88,0,0,0-2.3-1.12c-2.24,0-3.36,1.82-3.36,4.74h6.66A5.86,5.86,0,0,0,71.87,85.84Z" transform="translate(-4.88 -3.51)"/><path class="cls-1" d="M82.75,91.63V92a6,6,0,0,0,.67,3.2A4.18,4.18,0,0,0,87.1,97.1,5.7,5.7,0,0,0,91,95.57l1.12,1.76a8.19,8.19,0,0,1-5.54,2c-4.45,0-7.17-3.23-7.17-8.48,0-2.78.54-4.58,1.92-6.21a6,6,0,0,1,4.83-2.21,5.78,5.78,0,0,1,4.35,1.73c1.41,1.44,1.92,3.23,2,6.91v.51Zm5.7-5.79a2.88,2.88,0,0,0-2.3-1.12c-2.24,0-3.36,1.82-3.36,4.74h6.66A5.86,5.86,0,0,0,88.44,85.84Z" transform="translate(-4.88 -3.51)"/><path class="cls-1" d="M106,99V88.21c0-1.44-.13-2-.51-2.46a2,2,0,0,0-1.63-.64,6.47,6.47,0,0,0-4,2V99H97V87.09a8.75,8.75,0,0,0-.61-3.81l2.78-.77A5.09,5.09,0,0,1,99.71,85a13.78,13.78,0,0,1,2.08-1.57,5.94,5.94,0,0,1,3-.8,4,4,0,0,1,3.78,2.27,5,5,0,0,1,.38,2V99Z" transform="translate(-4.88 -3.51)"/><path class="cls-1" d="M119.23,99.47a12.21,12.21,0,0,1-6-1.7l1.06-2.11a10.93,10.93,0,0,0,5.15,1.6c1.76,0,3-1,3-2.59,0-1.38-.83-2.18-2.69-2.53l-2-.38c-2.53-.51-3.9-2.08-3.9-4.45,0-2.94,2.34-5,5.79-5a10.19,10.19,0,0,1,5.06,1.31l-1,2.08a8.67,8.67,0,0,0-3.94-1.15c-1.7,0-2.78,1-2.78,2.4,0,1.15.58,1.79,2.27,2.18l2.08.48c2.94.67,4.16,2.37,4.16,4.48C125.53,97.3,123,99.47,119.23,99.47Z" transform="translate(-4.88 -3.51)"/><path class="cls-1" d="M133,99.34a2.72,2.72,0,0,1-2.5-1.22c-.48-.67-.61-1.22-.61-2.78V80.82a20.87,20.87,0,0,0-.35-4.61l3.07-.64a19.88,19.88,0,0,1,.29,4.58V95.06c0,1.12.1,1.7.51,2a1.2,1.2,0,0,0,.9.13l.51,1.82A4.31,4.31,0,0,1,133,99.34Z" transform="translate(-4.88 -3.51)"/><path class="cls-1" d="M149.21,99.7a3.66,3.66,0,0,1-2.14-2.3,5.57,5.57,0,0,1-4.54,2.11c-3.2,0-5.18-1.63-5.18-4.7,0-3.71,3-5.7,8.16-5.7.38,0,.7,0,1.12,0V88.08c0-1.89-.26-3.17-2.5-3.17a8.85,8.85,0,0,0-4.93,1.82l-1.34-2.11a12.62,12.62,0,0,1,6.72-2.11c2.34,0,4,.86,4.64,2.56a7.31,7.31,0,0,1,.32,2.82c0,1.15-.13,3.62-.13,6s.06,3.1,1.31,3.87Zm-3.62-8.61c-2.21,0-3.55.42-4.19,1.15a3.09,3.09,0,0,0-.83,2.34c0,1.76.9,2.78,2.53,2.78a4,4,0,0,0,3.36-2.11l.1-4.1C146.11,91.12,145.85,91.09,145.59,91.09Z" transform="translate(-4.88 -3.51)"/><path class="cls-1" d="M164.25,99V88.21c0-1.44-.13-2-.51-2.46a2,2,0,0,0-1.63-.64,6.47,6.47,0,0,0-4,2V99h-2.91V87.09a8.75,8.75,0,0,0-.61-3.81l2.78-.77a5.09,5.09,0,0,1,.54,2.46A13.81,13.81,0,0,1,160,83.41a5.94,5.94,0,0,1,3-.8,4,4,0,0,1,3.78,2.27,5,5,0,0,1,.38,2V99Z" transform="translate(-4.88 -3.51)"/><path class="cls-1" d="M182.87,99a6.24,6.24,0,0,1-.29-1.5,5.35,5.35,0,0,1-4.13,1.76c-4.1,0-6.5-3.07-6.5-8.13,0-3.46,1.18-6.11,3.36-7.52a5.53,5.53,0,0,1,3.14-.93,4.78,4.78,0,0,1,3.9,1.86c0-.45-.06-1.73-.06-2.82V75.51l2.94.48V93.65a19.2,19.2,0,0,0,.45,5.38Zm-.61-12.45a4.11,4.11,0,0,0-3.39-1.5,3.14,3.14,0,0,0-2.78,1.63,8.52,8.52,0,0,0-.83,4.42c0,3.1.38,4,1.25,4.86a3,3,0,0,0,2.37.83A3.8,3.8,0,0,0,182.27,95Z" transform="translate(-4.88 -3.51)"/><path class="cls-1" d="M206.46,99.34a8.71,8.71,0,0,1-7-3c-1.76-2-2.56-4.64-2.56-8.26,0-4.42,1.28-7.46,3.81-9.54a8.25,8.25,0,0,1,5.54-1.89,9.2,9.2,0,0,1,6.24,2.21L211,80.82a7.49,7.49,0,0,0-4.7-1.66A4.84,4.84,0,0,0,201.59,82a12.65,12.65,0,0,0-1.22,6.3c0,3,.54,5.31,1.57,6.66a6.09,6.09,0,0,0,4.74,2,6.58,6.58,0,0,0,3.26-.83V89.81h-4.06l-.51-2.53H213v10.3A12.68,12.68,0,0,1,206.46,99.34Z" transform="translate(-4.88 -3.51)"/><path class="cls-1" d="M224.41,99.47c-4.29,0-6.94-3.26-6.94-8.48s2.66-8.45,6.88-8.45c4.74,0,7,3.78,7,8.61C231.38,96.24,228.66,99.47,224.41,99.47Zm-.06-14.65c-2.56,0-3.62,1.82-3.62,5.86,0,4.9,1.25,6.53,3.74,6.53,2.24,0,3.62-1.73,3.62-5.92C228.09,86.32,226.65,84.82,224.34,84.82Z" transform="translate(-4.88 -3.51)"/><path class="cls-1" d="M241.79,99.15H239l-5.73-16.09,3-.48,3.17,9.7c.35,1.09.7,2.37,1,3.46h.06a28.68,28.68,0,0,1,1-3.52l3-9.22h3.1Z" transform="translate(-4.88 -3.51)"/><path class="cls-1" d="M252.76,91.63V92a6,6,0,0,0,.67,3.2,4.18,4.18,0,0,0,3.68,1.89A5.7,5.7,0,0,0,261,95.57l1.12,1.76a8.19,8.19,0,0,1-5.54,2c-4.45,0-7.17-3.23-7.17-8.48,0-2.78.54-4.58,1.92-6.21a6,6,0,0,1,4.83-2.21,5.78,5.78,0,0,1,4.35,1.73c1.41,1.44,1.92,3.23,2,6.91v.51Zm5.7-5.79a2.88,2.88,0,0,0-2.3-1.12c-2.24,0-3.36,1.82-3.36,4.74h6.66A5.86,5.86,0,0,0,258.46,85.84Z" transform="translate(-4.88 -3.51)"/><path class="cls-1" d="M274.1,85.58a2.4,2.4,0,0,0-.83-.16,3.35,3.35,0,0,0-3.33,3.26V99H267V87.25a10.24,10.24,0,0,0-.61-4l2.85-.74a6.63,6.63,0,0,1,.54,2.46v.29c1.28-1.86,2.66-2.78,4.35-2.78a2.92,2.92,0,0,1,1,.16Z" transform="translate(-4.88 -3.51)"/><path class="cls-1" d="M287.19,99V88.21c0-1.44-.13-2-.51-2.46A2,2,0,0,0,285,85.1a6.47,6.47,0,0,0-4,2V99h-2.91V87.09a8.75,8.75,0,0,0-.61-3.81l2.78-.77a5.09,5.09,0,0,1,.54,2.46A13.78,13.78,0,0,1,283,83.41a5.94,5.94,0,0,1,3-.8,4,4,0,0,1,3.78,2.27,5,5,0,0,1,.38,2V99Z" transform="translate(-4.88 -3.51)"/><path class="cls-1" d="M313,99V87.54c0-1.82-.58-2.46-1.92-2.46s-2.53,1-3.74,2.18V99h-2.88V87.6c0-1.79-.51-2.46-2-2.46A5.51,5.51,0,0,0,298.78,87V99h-2.91V87.25a8.72,8.72,0,0,0-.58-4l2.75-.67a4.54,4.54,0,0,1,.54,2.24,6.55,6.55,0,0,1,4.51-2.27,4.14,4.14,0,0,1,3.81,2.53,6.87,6.87,0,0,1,4.9-2.53c2.5,0,4.1,1.57,4.1,4.51V99Z" transform="translate(-4.88 -3.51)"/><path class="cls-1" d="M324,91.63V92a6,6,0,0,0,.67,3.2,4.18,4.18,0,0,0,3.68,1.89,5.7,5.7,0,0,0,3.94-1.54l1.12,1.76a8.19,8.19,0,0,1-5.54,2c-4.45,0-7.17-3.23-7.17-8.48,0-2.78.54-4.58,1.92-6.21a6,6,0,0,1,4.83-2.21,5.78,5.78,0,0,1,4.35,1.73c1.41,1.44,1.92,3.23,2,6.91v.51Zm5.7-5.79a2.88,2.88,0,0,0-2.3-1.12c-2.24,0-3.36,1.82-3.36,4.74h6.66A5.86,5.86,0,0,0,329.69,85.84Z" transform="translate(-4.88 -3.51)"/><path class="cls-1" d="M347.26,99V88.21c0-1.44-.13-2-.51-2.46a2,2,0,0,0-1.63-.64,6.47,6.47,0,0,0-4,2V99h-2.91V87.09a8.75,8.75,0,0,0-.61-3.81l2.78-.77A5.09,5.09,0,0,1,341,85,13.78,13.78,0,0,1,343,83.41a5.94,5.94,0,0,1,3-.8,4,4,0,0,1,3.78,2.27,5,5,0,0,1,.38,2V99Z" transform="translate(-4.88 -3.51)"/><path class="cls-1" d="M362,85.07h-3.17v9.66c0,2,.48,2.59,2.08,2.59a3.54,3.54,0,0,0,1.5-.32l.35,1.79a6.38,6.38,0,0,1-2.91.67,4.57,4.57,0,0,1-2.82-.86c-.64-.58-1.09-1-1.09-3.2V85.07H354V83h1.92a34.73,34.73,0,0,1,.19-4.1l3-.7c-.13,1.15-.29,3.17-.29,4.8h3.9Z" transform="translate(-4.88 -3.51)"/><path class="cls-1" d="M368.41,99.47a2.4,2.4,0,1,1,2.27-2.4A2.31,2.31,0,0,1,368.41,99.47Z" transform="translate(-4.88 -3.51)"/><path class="cls-1" d="M383.16,99V77h3.14V99Z" transform="translate(-4.88 -3.51)"/><path class="cls-1" d="M401.08,99V88.21c0-1.44-.13-2-.51-2.46a2,2,0,0,0-1.63-.64,6.47,6.47,0,0,0-4,2V99h-2.91V87.09a8.75,8.75,0,0,0-.61-3.81l2.78-.77a5.09,5.09,0,0,1,.54,2.46,13.81,13.81,0,0,1,2.08-1.57,5.94,5.94,0,0,1,3-.8,4,4,0,0,1,3.78,2.27,5,5,0,0,1,.38,2V99Z" transform="translate(-4.88 -3.51)"/><path class="cls-1" d="M427.7,99.7a3.66,3.66,0,0,1-2.14-2.3A5.57,5.57,0,0,1,421,99.5c-3.2,0-5.18-1.63-5.18-4.7,0-3.71,3-5.7,8.16-5.7.38,0,.7,0,1.12,0V88.08c0-1.89-.26-3.17-2.5-3.17a8.85,8.85,0,0,0-4.93,1.82l-1.34-2.11a12.62,12.62,0,0,1,6.72-2.11c2.34,0,4,.86,4.64,2.56a7.31,7.31,0,0,1,.32,2.82c0,1.15-.13,3.62-.13,6s.06,3.1,1.31,3.87Zm-3.62-8.61c-2.21,0-3.55.42-4.19,1.15a3.09,3.09,0,0,0-.83,2.34c0,1.76.9,2.78,2.53,2.78A4,4,0,0,0,425,95.25l.1-4.1C424.6,91.12,424.34,91.09,424.09,91.09Z" transform="translate(-4.88 -3.51)"/><path class="cls-1" d="M443.67,99a6.24,6.24,0,0,1-.29-1.5,5.35,5.35,0,0,1-4.13,1.76c-4.1,0-6.5-3.07-6.5-8.13,0-3.46,1.18-6.11,3.36-7.52a5.53,5.53,0,0,1,3.14-.93,4.78,4.78,0,0,1,3.9,1.86c0-.45-.06-1.73-.06-2.82V75.51L446,76V93.65a19.2,19.2,0,0,0,.45,5.38Zm-.61-12.45a4.11,4.11,0,0,0-3.39-1.5,3.14,3.14,0,0,0-2.78,1.63,8.52,8.52,0,0,0-.83,4.42c0,3.1.38,4,1.25,4.86a3,3,0,0,0,2.37.83A3.8,3.8,0,0,0,443.06,95Z" transform="translate(-4.88 -3.51)"/><path class="cls-1" d="M461.75,99a6.24,6.24,0,0,1-.29-1.5,5.35,5.35,0,0,1-4.13,1.76c-4.1,0-6.5-3.07-6.5-8.13,0-3.46,1.18-6.11,3.36-7.52a5.53,5.53,0,0,1,3.14-.93,4.78,4.78,0,0,1,3.9,1.86c0-.45-.06-1.73-.06-2.82V75.51l2.94.48V93.65a19.2,19.2,0,0,0,.45,5.38Zm-.61-12.45a4.11,4.11,0,0,0-3.39-1.5A3.14,3.14,0,0,0,455,86.7a8.52,8.52,0,0,0-.83,4.42c0,3.1.38,4,1.25,4.86a3,3,0,0,0,2.37.83A3.8,3.8,0,0,0,461.14,95Z" transform="translate(-4.88 -3.51)"/><path class="cls-1" d="M471.38,80.18a2.08,2.08,0,0,1-2-2.11,2.1,2.1,0,1,1,4.19,0A2.14,2.14,0,0,1,471.38,80.18ZM469.88,99V83.09l3-.48V99Z" transform="translate(-4.88 -3.51)"/><path class="cls-1" d="M484.73,85.07h-3.17v9.66c0,2,.48,2.59,2.08,2.59a3.54,3.54,0,0,0,1.5-.32l.35,1.79a6.38,6.38,0,0,1-2.91.67,4.57,4.57,0,0,1-2.82-.86c-.64-.58-1.09-1-1.09-3.2V85.07h-1.92V83h1.92a34.73,34.73,0,0,1,.19-4.1l3-.7c-.13,1.15-.29,3.17-.29,4.8h3.9Z" transform="translate(-4.88 -3.51)"/><path class="cls-1" d="M490.71,80.18a2.08,2.08,0,0,1-2-2.11,2.1,2.1,0,1,1,4.19,0A2.14,2.14,0,0,1,490.71,80.18ZM489.21,99V83.09l3-.48V99Z" transform="translate(-4.88 -3.51)"/><path class="cls-1" d="M503.83,99.47c-4.29,0-6.94-3.26-6.94-8.48s2.66-8.45,6.88-8.45c4.74,0,7,3.78,7,8.61C510.8,96.24,508.08,99.47,503.83,99.47Zm-.06-14.65c-2.56,0-3.62,1.82-3.62,5.86,0,4.9,1.25,6.53,3.74,6.53,2.24,0,3.62-1.73,3.62-5.92C507.51,86.32,506.07,84.82,503.76,84.82Z" transform="translate(-4.88 -3.51)"/><path class="cls-1" d="M524.47,99V88.21c0-1.44-.13-2-.51-2.46a2,2,0,0,0-1.63-.64,6.47,6.47,0,0,0-4,2V99h-2.91V87.09a8.75,8.75,0,0,0-.61-3.81l2.78-.77a5.09,5.09,0,0,1,.54,2.46,13.81,13.81,0,0,1,2.08-1.57,5.94,5.94,0,0,1,3-.8A4,4,0,0,1,527,84.88a5,5,0,0,1,.38,2V99Z" transform="translate(-4.88 -3.51)"/><path class="cls-1" d="M533.37,103.6l-1-1.44a3.16,3.16,0,0,0,2.08-2.4c0-.45-.48-.58-1-.86A1.89,1.89,0,0,1,532.37,97a2.34,2.34,0,0,1,2.34-2.4c1.54,0,2.66,1.34,2.66,3.3A6.37,6.37,0,0,1,533.37,103.6Z" transform="translate(-4.88 -3.51)"/><path class="cls-1" d="M555.57,99.34a5.87,5.87,0,0,1-5.15-2.4,9.69,9.69,0,0,1-1.54-5.79c0-3.62,1.15-5.7,2.69-7.07a6.27,6.27,0,0,1,8.51.06l-1.54,2a3.91,3.91,0,0,0-2.82-1.25,3.08,3.08,0,0,0-2.82,1.73,11.38,11.38,0,0,0-.77,4.9c0,2.24.45,3.71,1.28,4.61a3.11,3.11,0,0,0,2.3,1,4.49,4.49,0,0,0,3.33-1.66l1.44,1.82A6.31,6.31,0,0,1,555.57,99.34Z" transform="translate(-4.88 -3.51)"/><path class="cls-1" d="M571.44,85.58a2.4,2.4,0,0,0-.83-.16,3.35,3.35,0,0,0-3.33,3.26V99h-2.94V87.25a10.24,10.24,0,0,0-.61-4l2.85-.74a6.63,6.63,0,0,1,.54,2.46v.29c1.28-1.86,2.66-2.78,4.35-2.78a2.92,2.92,0,0,1,1,.16Z" transform="translate(-4.88 -3.51)"/><path class="cls-1" d="M580.92,99.47c-4.29,0-6.94-3.26-6.94-8.48s2.66-8.45,6.88-8.45c4.74,0,7,3.78,7,8.61C587.89,96.24,585.17,99.47,580.92,99.47Zm-.06-14.65c-2.56,0-3.62,1.82-3.62,5.86,0,4.9,1.25,6.53,3.74,6.53,2.24,0,3.62-1.73,3.62-5.92C584.6,86.32,583.16,84.82,580.85,84.82Z" transform="translate(-4.88 -3.51)"/><path class="cls-1" d="M597.08,99.47a12.21,12.21,0,0,1-6-1.7l1.06-2.11a10.93,10.93,0,0,0,5.15,1.6c1.76,0,3-1,3-2.59,0-1.38-.83-2.18-2.69-2.53l-2-.38c-2.53-.51-3.9-2.08-3.9-4.45,0-2.94,2.34-5,5.79-5a10.19,10.19,0,0,1,5.06,1.31l-1,2.08a8.67,8.67,0,0,0-3.94-1.15c-1.7,0-2.78,1-2.78,2.4,0,1.15.58,1.79,2.27,2.18l2.08.48c2.94.67,4.16,2.37,4.16,4.48C603.38,97.3,600.82,99.47,597.08,99.47Z" transform="translate(-4.88 -3.51)"/><path class="cls-1" d="M612.25,99.47a12.21,12.21,0,0,1-6-1.7l1.06-2.11a10.93,10.93,0,0,0,5.15,1.6c1.76,0,3-1,3-2.59,0-1.38-.83-2.18-2.69-2.53l-2-.38c-2.53-.51-3.9-2.08-3.9-4.45,0-2.94,2.34-5,5.79-5a10.19,10.19,0,0,1,5.06,1.31l-1,2.08a8.67,8.67,0,0,0-3.94-1.15c-1.7,0-2.78,1-2.78,2.4,0,1.15.58,1.79,2.27,2.18l2.08.48c2.94.67,4.16,2.37,4.16,4.48C618.55,97.3,616,99.47,612.25,99.47Z" transform="translate(-4.88 -3.51)"/><path class="cls-1" d="M621.91,91.82V88.91h6.5v2.91Z" transform="translate(-4.88 -3.51)"/><path class="cls-1" d="M644.82,85.27a3.81,3.81,0,0,1-1.38-.26A4.48,4.48,0,0,1,644.6,88c0,2.3-1.57,5-5.76,5-1,.32-2.53,1.06-2.53,1.76,0,.48.38.8,1.15.8h2.46c4.1,0,5.79,1.92,5.79,4.42,0,3.46-2.85,5.18-6.75,5.18-4.48,0-7-1.57-7-4.22a4.8,4.8,0,0,1,.29-1.63l2.88-.16a3.09,3.09,0,0,0-.29,1.22c0,1.66,1.38,2.56,3.87,2.56s3.94-1.06,3.94-2.75c0-1.54-1.25-2.43-4.42-2.43-1.12,0-2.4-.1-3-.16-1.41-.16-2.24-1-2.24-2.14,0-1.5,1.31-2.14,3.14-2.82-2.46-.74-3.78-2.4-3.78-4.61,0-3.23,2.46-5.38,6.14-5.38a7.83,7.83,0,0,1,2.5.35,9,9,0,0,0,2.4.51,4.38,4.38,0,0,0,2.62-.93l1.5,1.82A4,4,0,0,1,644.82,85.27Zm-6.43-.42c-1.89,0-2.91,1-2.91,3.07a2.65,2.65,0,0,0,2.94,3c1.92,0,2.91-1.06,2.91-3S640.4,84.85,638.39,84.85Z" transform="translate(-4.88 -3.51)"/><path class="cls-1" d="M655.86,99.47c-4.29,0-6.94-3.26-6.94-8.48s2.66-8.45,6.88-8.45c4.74,0,7,3.78,7,8.61C662.84,96.24,660.12,99.47,655.86,99.47Zm-.06-14.65c-2.56,0-3.62,1.82-3.62,5.86,0,4.9,1.25,6.53,3.74,6.53,2.24,0,3.62-1.73,3.62-5.92C659.54,86.32,658.1,84.82,655.8,84.82Z" transform="translate(-4.88 -3.51)"/><path class="cls-1" d="M673.24,99.15h-2.75l-5.73-16.09,3-.48,3.17,9.7c.35,1.09.7,2.37,1,3.46H672a28.68,28.68,0,0,1,1-3.52L676,83h3.1Z" transform="translate(-4.88 -3.51)"/><path class="cls-1" d="M684.21,91.63V92a6,6,0,0,0,.67,3.2,4.18,4.18,0,0,0,3.68,1.89,5.7,5.7,0,0,0,3.94-1.54l1.12,1.76a8.19,8.19,0,0,1-5.54,2c-4.45,0-7.17-3.23-7.17-8.48,0-2.78.54-4.58,1.92-6.21a6,6,0,0,1,4.83-2.21A5.78,5.78,0,0,1,692,84.21c1.41,1.44,1.92,3.23,2,6.91v.51Zm5.7-5.79a2.88,2.88,0,0,0-2.3-1.12c-2.24,0-3.36,1.82-3.36,4.74h6.66A5.86,5.86,0,0,0,689.91,85.84Z" transform="translate(-4.88 -3.51)"/><path class="cls-1" d="M705.56,85.58a2.4,2.4,0,0,0-.83-.16,3.35,3.35,0,0,0-3.33,3.26V99h-2.94V87.25a10.24,10.24,0,0,0-.61-4l2.85-.74a6.63,6.63,0,0,1,.54,2.46v.29c1.28-1.86,2.66-2.78,4.35-2.78a2.92,2.92,0,0,1,1,.16Z" transform="translate(-4.88 -3.51)"/><path class="cls-1" d="M718.64,99V88.21c0-1.44-.13-2-.51-2.46a2,2,0,0,0-1.63-.64,6.47,6.47,0,0,0-4,2V99h-2.91V87.09a8.75,8.75,0,0,0-.61-3.81l2.78-.77a5.09,5.09,0,0,1,.54,2.46,13.78,13.78,0,0,1,2.08-1.57,5.94,5.94,0,0,1,3-.8,4,4,0,0,1,3.78,2.27,5,5,0,0,1,.38,2V99Z" transform="translate(-4.88 -3.51)"/><path class="cls-1" d="M744.44,99V87.54c0-1.82-.58-2.46-1.92-2.46s-2.53,1-3.74,2.18V99h-2.88V87.6c0-1.79-.51-2.46-2-2.46A5.51,5.51,0,0,0,730.23,87V99h-2.91V87.25a8.72,8.72,0,0,0-.58-4l2.75-.67a4.54,4.54,0,0,1,.54,2.24,6.55,6.55,0,0,1,4.51-2.27,4.14,4.14,0,0,1,3.81,2.53,6.87,6.87,0,0,1,4.9-2.53c2.5,0,4.1,1.57,4.1,4.51V99Z" transform="translate(-4.88 -3.51)"/><path class="cls-1" d="M755.44,91.63V92a6,6,0,0,0,.67,3.2,4.18,4.18,0,0,0,3.68,1.89,5.7,5.7,0,0,0,3.94-1.54l1.12,1.76a8.19,8.19,0,0,1-5.54,2c-4.45,0-7.17-3.23-7.17-8.48,0-2.78.54-4.58,1.92-6.21a6,6,0,0,1,4.83-2.21,5.78,5.78,0,0,1,4.35,1.73c1.41,1.44,1.92,3.23,2,6.91v.51Zm5.7-5.79a2.88,2.88,0,0,0-2.3-1.12c-2.24,0-3.36,1.82-3.36,4.74h6.66A5.86,5.86,0,0,0,761.14,85.84Z" transform="translate(-4.88 -3.51)"/><path class="cls-1" d="M778.71,99V88.21c0-1.44-.13-2-.51-2.46a2,2,0,0,0-1.63-.64,6.47,6.47,0,0,0-4,2V99h-2.91V87.09a8.75,8.75,0,0,0-.61-3.81l2.78-.77A5.09,5.09,0,0,1,772.4,85a13.78,13.78,0,0,1,2.08-1.57,5.94,5.94,0,0,1,3-.8,4,4,0,0,1,3.78,2.27,5,5,0,0,1,.38,2V99Z" transform="translate(-4.88 -3.51)"/><path class="cls-1" d="M793.43,85.07h-3.17v9.66c0,2,.48,2.59,2.08,2.59a3.54,3.54,0,0,0,1.5-.32l.35,1.79a6.38,6.38,0,0,1-2.91.67,4.57,4.57,0,0,1-2.82-.86c-.64-.58-1.09-1-1.09-3.2V85.07h-1.92V83h1.92a34.73,34.73,0,0,1,.19-4.1l3-.7c-.13,1.15-.29,3.17-.29,4.8h3.9Z" transform="translate(-4.88 -3.51)"/><path class="cls-1" d="M799.86,99.47a2.4,2.4,0,1,1,2.27-2.4A2.31,2.31,0,0,1,799.86,99.47Z" transform="translate(-4.88 -3.51)"/><path class="cls-1" d="M826.74,79.54H821V99h-3V79.54h-5.73V77h14.81Z" transform="translate(-4.88 -3.51)"/><path class="cls-1" d="M839,99V88a3.53,3.53,0,0,0-.54-2.24,2.56,2.56,0,0,0-1.76-.61,6.14,6.14,0,0,0-4.26,2.34V99h-3V79.54a14,14,0,0,0-.35-3.36l3-.61a16.34,16.34,0,0,1,.35,3.71v3.58c0,.58,0,1.31-.1,2.14A11,11,0,0,1,834,83.7a6.19,6.19,0,0,1,3.49-1.09,4.1,4.1,0,0,1,4,2.4,6.51,6.51,0,0,1,.32,2.59V99Z" transform="translate(-4.88 -3.51)"/><path class="cls-1" d="M850,91.63V92a6,6,0,0,0,.67,3.2,4.18,4.18,0,0,0,3.68,1.89,5.7,5.7,0,0,0,3.94-1.54l1.12,1.76a8.19,8.19,0,0,1-5.54,2c-4.45,0-7.17-3.23-7.17-8.48,0-2.78.54-4.58,1.92-6.21a6,6,0,0,1,4.83-2.21,5.78,5.78,0,0,1,4.35,1.73c1.41,1.44,1.92,3.23,2,6.91v.51Zm5.7-5.79a2.88,2.88,0,0,0-2.3-1.12c-2.24,0-3.36,1.82-3.36,4.74h6.66A5.86,5.86,0,0,0,855.67,85.84Z" transform="translate(-4.88 -3.51)"/><path class="cls-1" d="M882.16,99.7a3.66,3.66,0,0,1-2.14-2.3,5.57,5.57,0,0,1-4.54,2.11c-3.2,0-5.18-1.63-5.18-4.7,0-3.71,3-5.7,8.16-5.7.38,0,.7,0,1.12,0V88.08c0-1.89-.26-3.17-2.5-3.17a8.85,8.85,0,0,0-4.93,1.82l-1.34-2.11a12.62,12.62,0,0,1,6.72-2.11c2.34,0,4,.86,4.64,2.56a7.31,7.31,0,0,1,.32,2.82c0,1.15-.13,3.62-.13,6s.06,3.1,1.31,3.87Zm-3.62-8.61c-2.21,0-3.55.42-4.19,1.15a3.09,3.09,0,0,0-.83,2.34c0,1.76.9,2.78,2.53,2.78a4,4,0,0,0,3.36-2.11l.1-4.1C879.06,91.12,878.8,91.09,878.55,91.09Z" transform="translate(-4.88 -3.51)"/><path class="cls-1" d="M892.56,99.47a12.21,12.21,0,0,1-6-1.7l1.06-2.11a10.93,10.93,0,0,0,5.15,1.6c1.76,0,3-1,3-2.59,0-1.38-.83-2.18-2.69-2.53l-2-.38c-2.53-.51-3.9-2.08-3.9-4.45,0-2.94,2.34-5,5.79-5a10.19,10.19,0,0,1,5.06,1.31l-1,2.08a8.67,8.67,0,0,0-3.94-1.15c-1.7,0-2.78,1-2.78,2.4,0,1.15.58,1.79,2.27,2.18l2.08.48c2.94.67,4.16,2.37,4.16,4.48C898.87,97.3,896.31,99.47,892.56,99.47Z" transform="translate(-4.88 -3.51)"/><path class="cls-1" d="M907.73,99.47a12.21,12.21,0,0,1-6-1.7l1.06-2.11a10.93,10.93,0,0,0,5.15,1.6c1.76,0,3-1,3-2.59,0-1.38-.83-2.18-2.69-2.53l-2-.38c-2.53-.51-3.9-2.08-3.9-4.45,0-2.94,2.34-5,5.79-5a10.19,10.19,0,0,1,5.06,1.31l-1,2.08a8.67,8.67,0,0,0-3.94-1.15c-1.7,0-2.78,1-2.78,2.4,0,1.15.58,1.79,2.27,2.18l2.08.48c2.94.67,4.16,2.37,4.16,4.48C914,97.3,911.47,99.47,907.73,99.47Z" transform="translate(-4.88 -3.51)"/><path class="cls-1" d="M920.85,91.63V92a6,6,0,0,0,.67,3.2,4.18,4.18,0,0,0,3.68,1.89,5.7,5.7,0,0,0,3.94-1.54l1.12,1.76a8.19,8.19,0,0,1-5.54,2c-4.45,0-7.17-3.23-7.17-8.48,0-2.78.54-4.58,1.92-6.21a6,6,0,0,1,4.83-2.21,5.78,5.78,0,0,1,4.35,1.73c1.41,1.44,1.92,3.23,2,6.91v.51Zm5.7-5.79a2.88,2.88,0,0,0-2.3-1.12c-2.24,0-3.36,1.82-3.36,4.74h6.66A5.86,5.86,0,0,0,926.54,85.84Z" transform="translate(-4.88 -3.51)"/><path class="cls-1" d="M941.14,85.07H938v9.66c0,2,.48,2.59,2.08,2.59a3.54,3.54,0,0,0,1.5-.32l.35,1.79a6.38,6.38,0,0,1-2.91.67,4.57,4.57,0,0,1-2.82-.86c-.64-.58-1.09-1-1.09-3.2V85.07h-1.92V83h1.92a34.73,34.73,0,0,1,.19-4.1l3-.7c-.13,1.15-.29,3.17-.29,4.8h3.9Z" transform="translate(-4.88 -3.51)"/><path class="cls-1" d="M80.15,135.34a5.87,5.87,0,0,1-5.15-2.4,9.69,9.69,0,0,1-1.54-5.79c0-3.62,1.15-5.7,2.69-7.07a6.27,6.27,0,0,1,8.51.06l-1.54,2a3.91,3.91,0,0,0-2.82-1.25,3.08,3.08,0,0,0-2.82,1.73,11.38,11.38,0,0,0-.77,4.9c0,2.24.45,3.71,1.28,4.61a3.11,3.11,0,0,0,2.3,1,4.49,4.49,0,0,0,3.33-1.66l1.44,1.82A6.31,6.31,0,0,1,80.15,135.34Z" transform="translate(-4.88 -3.51)"/><path class="cls-1" d="M92.19,135.34a2.72,2.72,0,0,1-2.5-1.22c-.48-.67-.61-1.22-.61-2.78V116.82a20.87,20.87,0,0,0-.35-4.61l3.07-.64a19.88,19.88,0,0,1,.29,4.58v14.91c0,1.12.1,1.7.51,2a1.2,1.2,0,0,0,.9.13L94,135A4.31,4.31,0,0,1,92.19,135.34Z" transform="translate(-4.88 -3.51)"/><path class="cls-1" d="M108.44,135.7a3.66,3.66,0,0,1-2.14-2.3,5.57,5.57,0,0,1-4.54,2.11c-3.2,0-5.18-1.63-5.18-4.7,0-3.71,3-5.7,8.16-5.7.38,0,.7,0,1.12,0v-1.06c0-1.89-.26-3.17-2.5-3.17a8.85,8.85,0,0,0-4.93,1.82l-1.34-2.11a12.62,12.62,0,0,1,6.72-2.11c2.34,0,4,.86,4.64,2.56a7.31,7.31,0,0,1,.32,2.82c0,1.15-.13,3.62-.13,6s.06,3.1,1.31,3.87Zm-3.62-8.61c-2.21,0-3.55.42-4.19,1.15a3.09,3.09,0,0,0-.83,2.34c0,1.76.9,2.78,2.53,2.78a4,4,0,0,0,3.36-2.11l.1-4.1C105.34,127.12,105.08,127.09,104.83,127.09Z" transform="translate(-4.88 -3.51)"/><path class="cls-1" d="M118.84,135.47a12.21,12.21,0,0,1-6-1.7l1.06-2.11a10.93,10.93,0,0,0,5.15,1.6c1.76,0,3-1,3-2.59,0-1.38-.83-2.18-2.69-2.53l-2-.38c-2.53-.51-3.9-2.08-3.9-4.45,0-2.94,2.34-5,5.79-5a10.19,10.19,0,0,1,5.06,1.31l-1,2.08a8.67,8.67,0,0,0-3.94-1.15c-1.7,0-2.78,1-2.78,2.4,0,1.15.58,1.79,2.27,2.18l2.08.48c2.94.67,4.16,2.37,4.16,4.48C125.15,133.3,122.59,135.47,118.84,135.47Z" transform="translate(-4.88 -3.51)"/><path class="cls-1" d="M134,135.47a12.21,12.21,0,0,1-6-1.7l1.06-2.11a10.93,10.93,0,0,0,5.15,1.6c1.76,0,3-1,3-2.59,0-1.38-.83-2.18-2.69-2.53l-2-.38c-2.53-.51-3.9-2.08-3.9-4.45,0-2.94,2.34-5,5.79-5a10.19,10.19,0,0,1,5.06,1.31l-1,2.08a8.67,8.67,0,0,0-3.94-1.15c-1.7,0-2.78,1-2.78,2.4,0,1.15.58,1.79,2.27,2.18l2.08.48c2.94.67,4.16,2.37,4.16,4.48C140.31,133.3,137.75,135.47,134,135.47Z" transform="translate(-4.88 -3.51)"/><path class="cls-1" d="M154,127.63V128a6,6,0,0,0,.67,3.2,4.18,4.18,0,0,0,3.68,1.89,5.7,5.7,0,0,0,3.94-1.54l1.12,1.76a8.19,8.19,0,0,1-5.54,2c-4.45,0-7.17-3.23-7.17-8.48,0-2.78.54-4.58,1.92-6.21a6,6,0,0,1,4.83-2.21,5.78,5.78,0,0,1,4.35,1.73c1.41,1.44,1.92,3.23,2,6.91v.51Zm5.7-5.79a2.88,2.88,0,0,0-2.3-1.12c-2.24,0-3.36,1.82-3.36,4.74h6.66A5.86,5.86,0,0,0,159.71,121.84Z" transform="translate(-4.88 -3.51)"/><path class="cls-1" d="M177.27,135V124.21c0-1.44-.13-2-.51-2.46a2,2,0,0,0-1.63-.64,6.47,6.47,0,0,0-4,2V135h-2.91V123.09a8.75,8.75,0,0,0-.61-3.81l2.78-.77A5.09,5.09,0,0,1,171,121a13.78,13.78,0,0,1,2.08-1.57,5.94,5.94,0,0,1,3-.8,4,4,0,0,1,3.78,2.27,5,5,0,0,1,.38,2V135Z" transform="translate(-4.88 -3.51)"/><path class="cls-1" d="M190.49,135.47a12.21,12.21,0,0,1-6-1.7l1.06-2.11a10.93,10.93,0,0,0,5.15,1.6c1.76,0,3-1,3-2.59,0-1.38-.83-2.18-2.69-2.53l-2-.38c-2.53-.51-3.9-2.08-3.9-4.45,0-2.94,2.34-5,5.79-5a10.19,10.19,0,0,1,5.06,1.31l-1,2.08a8.67,8.67,0,0,0-3.94-1.15c-1.7,0-2.78,1-2.78,2.4,0,1.15.58,1.79,2.27,2.18l2.08.48c2.94.67,4.16,2.37,4.16,4.48C196.79,133.3,194.23,135.47,190.49,135.47Z" transform="translate(-4.88 -3.51)"/><path class="cls-1" d="M212,135.57a3.78,3.78,0,0,1-1.5-2.3,5.88,5.88,0,0,1-4.83,2.3,4.51,4.51,0,0,1-4.32-2.4,6.82,6.82,0,0,1-.38-2.69V119.09l2.91-.58v11.17c0,1.63.16,2.27.74,2.82a2.93,2.93,0,0,0,1.86.7,4.41,4.41,0,0,0,3.65-2.53V119.15l2.91-.58v12.06c0,1.63.35,2.78,1,3.33Z" transform="translate(-4.88 -3.51)"/><path class="cls-1" d="M225.56,121.58a2.4,2.4,0,0,0-.83-.16,3.35,3.35,0,0,0-3.33,3.26V135h-2.94V123.25a10.24,10.24,0,0,0-.61-4l2.85-.74a6.63,6.63,0,0,1,.54,2.46v.29c1.28-1.86,2.66-2.78,4.35-2.78a2.92,2.92,0,0,1,1,.16Z" transform="translate(-4.88 -3.51)"/><path class="cls-1" d="M231.55,127.63V128a6,6,0,0,0,.67,3.2,4.18,4.18,0,0,0,3.68,1.89,5.7,5.7,0,0,0,3.94-1.54l1.12,1.76a8.19,8.19,0,0,1-5.54,2c-4.45,0-7.17-3.23-7.17-8.48,0-2.78.54-4.58,1.92-6.21a6,6,0,0,1,4.83-2.21,5.78,5.78,0,0,1,4.35,1.73c1.41,1.44,1.92,3.23,2,6.91v.51Zm5.7-5.79a2.88,2.88,0,0,0-2.3-1.12c-2.24,0-3.36,1.82-3.36,4.74h6.66A5.86,5.86,0,0,0,237.24,121.84Z" transform="translate(-4.88 -3.51)"/><path class="cls-1" d="M250.33,135.47a12.21,12.21,0,0,1-6-1.7l1.06-2.11a10.93,10.93,0,0,0,5.15,1.6c1.76,0,3-1,3-2.59,0-1.38-.83-2.18-2.69-2.53l-2-.38c-2.53-.51-3.9-2.08-3.9-4.45,0-2.94,2.34-5,5.79-5a10.19,10.19,0,0,1,5.06,1.31l-1,2.08a8.67,8.67,0,0,0-3.94-1.15c-1.7,0-2.78,1-2.78,2.4,0,1.15.58,1.79,2.27,2.18l2.08.48c2.94.67,4.16,2.37,4.16,4.48C256.63,133.3,254.07,135.47,250.33,135.47Z" transform="translate(-4.88 -3.51)"/><path class="cls-1" d="M278.74,135.7a3.66,3.66,0,0,1-2.14-2.3,5.57,5.57,0,0,1-4.54,2.11c-3.2,0-5.18-1.63-5.18-4.7,0-3.71,3-5.7,8.16-5.7.38,0,.7,0,1.12,0v-1.06c0-1.89-.26-3.17-2.5-3.17a8.85,8.85,0,0,0-4.93,1.82l-1.34-2.11a12.62,12.62,0,0,1,6.72-2.11c2.34,0,4,.86,4.64,2.56a7.31,7.31,0,0,1,.32,2.82c0,1.15-.13,3.62-.13,6s.06,3.1,1.31,3.87Zm-3.62-8.61c-2.21,0-3.55.42-4.19,1.15a3.09,3.09,0,0,0-.83,2.34c0,1.76.9,2.78,2.53,2.78a4,4,0,0,0,3.36-2.11l.1-4.1C275.64,127.12,275.39,127.09,275.13,127.09Z" transform="translate(-4.88 -3.51)"/><path class="cls-1" d="M287.71,135.34a2.72,2.72,0,0,1-2.5-1.22c-.48-.67-.61-1.22-.61-2.78V116.82a20.87,20.87,0,0,0-.35-4.61l3.07-.64a19.88,19.88,0,0,1,.29,4.58v14.91c0,1.12.1,1.7.51,2a1.2,1.2,0,0,0,.9.13l.51,1.82A4.31,4.31,0,0,1,287.71,135.34Z" transform="translate(-4.88 -3.51)"/><path class="cls-1" d="M296.15,135.34a2.72,2.72,0,0,1-2.5-1.22c-.48-.67-.61-1.22-.61-2.78V116.82a20.87,20.87,0,0,0-.35-4.61l3.07-.64a19.88,19.88,0,0,1,.29,4.58v14.91c0,1.12.1,1.7.51,2a1.2,1.2,0,0,0,.9.13L298,135A4.31,4.31,0,0,1,296.15,135.34Z" transform="translate(-4.88 -3.51)"/><path class="cls-1" d="M314.52,135.47c-4.29,0-6.94-3.26-6.94-8.48s2.66-8.45,6.88-8.45c4.74,0,7,3.78,7,8.61C321.5,132.24,318.78,135.47,314.52,135.47Zm-.06-14.65c-2.56,0-3.62,1.82-3.62,5.86,0,4.9,1.25,6.53,3.74,6.53,2.24,0,3.62-1.73,3.62-5.92C318.2,122.32,316.76,120.82,314.46,120.82Z" transform="translate(-4.88 -3.51)"/><path class="cls-1" d="M332.18,121.07H329v9.66c0,2,.48,2.59,2.08,2.59a3.54,3.54,0,0,0,1.5-.32l.35,1.79a6.38,6.38,0,0,1-2.91.67,4.57,4.57,0,0,1-2.82-.86c-.64-.58-1.09-1-1.09-3.2V121.07h-1.92V119h1.92a34.73,34.73,0,0,1,.19-4.1l3-.7c-.13,1.15-.29,3.17-.29,4.8H333Z" transform="translate(-4.88 -3.51)"/><path class="cls-1" d="M346.2,135V124a3.53,3.53,0,0,0-.54-2.24,2.56,2.56,0,0,0-1.76-.61,6.14,6.14,0,0,0-4.26,2.34V135h-3V115.54a14,14,0,0,0-.35-3.36l3-.61a16.34,16.34,0,0,1,.35,3.71v3.58c0,.58,0,1.31-.1,2.14a11,11,0,0,1,1.7-1.31,6.19,6.19,0,0,1,3.49-1.09,4.1,4.1,0,0,1,4,2.4,6.51,6.51,0,0,1,.32,2.59V135Z" transform="translate(-4.88 -3.51)"/><path class="cls-1" d="M357.18,127.63V128a6,6,0,0,0,.67,3.2,4.18,4.18,0,0,0,3.68,1.89,5.7,5.7,0,0,0,3.94-1.54l1.12,1.76a8.19,8.19,0,0,1-5.54,2c-4.45,0-7.17-3.23-7.17-8.48,0-2.78.54-4.58,1.92-6.21a6,6,0,0,1,4.83-2.21,5.78,5.78,0,0,1,4.35,1.73c1.41,1.44,1.92,3.23,2,6.91v.51Zm5.7-5.79a2.88,2.88,0,0,0-2.3-1.12c-2.24,0-3.36,1.82-3.36,4.74h6.66A5.86,5.86,0,0,0,362.87,121.84Z" transform="translate(-4.88 -3.51)"/><path class="cls-1" d="M378.52,121.58a2.4,2.4,0,0,0-.83-.16,3.35,3.35,0,0,0-3.33,3.26V135h-2.94V123.25a10.24,10.24,0,0,0-.61-4l2.85-.74a6.63,6.63,0,0,1,.54,2.46v.29c1.28-1.86,2.66-2.78,4.35-2.78a2.92,2.92,0,0,1,1,.16Z" transform="translate(-4.88 -3.51)"/><path class="cls-1" d="M394.49,135.47a12.21,12.21,0,0,1-6-1.7l1.06-2.11a10.93,10.93,0,0,0,5.15,1.6c1.76,0,3-1,3-2.59,0-1.38-.83-2.18-2.69-2.53l-2-.38c-2.53-.51-3.9-2.08-3.9-4.45,0-2.94,2.34-5,5.79-5a10.19,10.19,0,0,1,5.06,1.31l-1,2.08a8.67,8.67,0,0,0-3.94-1.15c-1.7,0-2.78,1-2.78,2.4,0,1.15.58,1.79,2.27,2.18l2.08.48c2.94.67,4.16,2.37,4.16,4.48C400.79,133.3,398.23,135.47,394.49,135.47Z" transform="translate(-4.88 -3.51)"/><path class="cls-1" d="M407.61,127.63V128a6,6,0,0,0,.67,3.2A4.18,4.18,0,0,0,412,133.1a5.7,5.7,0,0,0,3.94-1.54l1.12,1.76a8.19,8.19,0,0,1-5.54,2c-4.45,0-7.17-3.23-7.17-8.48,0-2.78.54-4.58,1.92-6.21a6,6,0,0,1,4.83-2.21,5.78,5.78,0,0,1,4.35,1.73c1.41,1.44,1.92,3.23,2,6.91v.51Zm5.7-5.79a2.88,2.88,0,0,0-2.3-1.12c-2.24,0-3.36,1.82-3.36,4.74h6.66A5.86,5.86,0,0,0,413.3,121.84Z" transform="translate(-4.88 -3.51)"/><path class="cls-1" d="M429,121.58a2.4,2.4,0,0,0-.83-.16,3.35,3.35,0,0,0-3.33,3.26V135h-2.94V123.25a10.24,10.24,0,0,0-.61-4l2.85-.74a6.63,6.63,0,0,1,.54,2.46v.29c1.28-1.86,2.66-2.78,4.35-2.78a2.92,2.92,0,0,1,1,.16Z" transform="translate(-4.88 -3.51)"/><path class="cls-1" d="M439.57,135.15h-2.75l-5.73-16.09,3-.48,3.17,9.7c.35,1.09.7,2.37,1,3.46h.06a28.68,28.68,0,0,1,1-3.52l3-9.22h3.1Z" transform="translate(-4.88 -3.51)"/><path class="cls-1" d="M449.81,116.18a2.08,2.08,0,0,1-2-2.11,2.1,2.1,0,1,1,4.19,0A2.14,2.14,0,0,1,449.81,116.18ZM448.31,135V119.09l3-.48V135Z" transform="translate(-4.88 -3.51)"/><path class="cls-1" d="M462.84,135.34a5.87,5.87,0,0,1-5.15-2.4,9.69,9.69,0,0,1-1.54-5.79c0-3.62,1.15-5.7,2.69-7.07a6.27,6.27,0,0,1,8.51.06l-1.54,2a3.91,3.91,0,0,0-2.82-1.25,3.08,3.08,0,0,0-2.82,1.73,11.38,11.38,0,0,0-.77,4.9c0,2.24.45,3.71,1.28,4.61a3.11,3.11,0,0,0,2.3,1,4.49,4.49,0,0,0,3.33-1.66l1.44,1.82A6.31,6.31,0,0,1,462.84,135.34Z" transform="translate(-4.88 -3.51)"/><path class="cls-1" d="M473.78,127.63V128a6,6,0,0,0,.67,3.2,4.18,4.18,0,0,0,3.68,1.89,5.7,5.7,0,0,0,3.94-1.54l1.12,1.76a8.19,8.19,0,0,1-5.54,2c-4.45,0-7.17-3.23-7.17-8.48,0-2.78.54-4.58,1.92-6.21a6,6,0,0,1,4.83-2.21,5.78,5.78,0,0,1,4.35,1.73c1.41,1.44,1.92,3.23,2,6.91v.51Zm5.7-5.79a2.88,2.88,0,0,0-2.3-1.12c-2.24,0-3.36,1.82-3.36,4.74h6.66A5.86,5.86,0,0,0,479.48,121.84Z" transform="translate(-4.88 -3.51)"/><path class="cls-1" d="M492.57,135.47a12.21,12.21,0,0,1-6-1.7l1.06-2.11a10.93,10.93,0,0,0,5.15,1.6c1.76,0,3-1,3-2.59,0-1.38-.83-2.18-2.69-2.53l-2-.38c-2.53-.51-3.9-2.08-3.9-4.45,0-2.94,2.34-5,5.79-5a10.19,10.19,0,0,1,5.06,1.31l-1,2.08a8.67,8.67,0,0,0-3.94-1.15c-1.7,0-2.78,1-2.78,2.4,0,1.15.58,1.79,2.27,2.18l2.08.48c2.94.67,4.16,2.37,4.16,4.48C498.87,133.3,496.31,135.47,492.57,135.47Z" transform="translate(-4.88 -3.51)"/><path class="cls-1" d="M517.21,135.34a6.16,6.16,0,0,1-4.16-1.66,16.18,16.18,0,0,1,.06,1.79v5.63l-2.88.67V122.93a17,17,0,0,0-.35-3.94l2.85-.48a8.31,8.31,0,0,1,.19,2.3,5.81,5.81,0,0,1,4.54-2.24c3.26,0,6,2.66,6,8.16C523.48,131.73,521.3,135.34,517.21,135.34Zm-.26-14.27a5,5,0,0,0-3.84,2v8.16a5,5,0,0,0,3.42,1.76c2.59,0,3.78-2,3.78-5.89S519.48,121.07,516.95,121.07Z" transform="translate(-4.88 -3.51)"/><path class="cls-1" d="M535.38,121.58a2.4,2.4,0,0,0-.83-.16,3.35,3.35,0,0,0-3.33,3.26V135h-2.94V123.25a10.24,10.24,0,0,0-.61-4l2.85-.74a6.63,6.63,0,0,1,.54,2.46v.29c1.28-1.86,2.66-2.78,4.35-2.78a2.92,2.92,0,0,1,1,.16Z" transform="translate(-4.88 -3.51)"/><path class="cls-1" d="M544.85,135.47c-4.29,0-6.94-3.26-6.94-8.48s2.66-8.45,6.88-8.45c4.74,0,7,3.78,7,8.61C551.83,132.24,549.11,135.47,544.85,135.47Zm-.06-14.65c-2.56,0-3.62,1.82-3.62,5.86,0,4.9,1.25,6.53,3.74,6.53,2.24,0,3.62-1.73,3.62-5.92C548.53,122.32,547.09,120.82,544.79,120.82Z" transform="translate(-4.88 -3.51)"/><path class="cls-1" d="M562.23,135.15h-2.75l-5.73-16.09,3-.48,3.17,9.7c.35,1.09.7,2.37,1,3.46H561a28.68,28.68,0,0,1,1-3.52l3-9.22h3.1Z" transform="translate(-4.88 -3.51)"/><path class="cls-1" d="M572.47,116.18a2.08,2.08,0,0,1-2-2.11,2.1,2.1,0,1,1,4.19,0A2.14,2.14,0,0,1,572.47,116.18ZM571,135V119.09l3-.48V135Z" transform="translate(-4.88 -3.51)"/><path class="cls-1" d="M589.72,135a6.24,6.24,0,0,1-.29-1.5,5.35,5.35,0,0,1-4.13,1.76c-4.1,0-6.5-3.07-6.5-8.13,0-3.46,1.18-6.11,3.36-7.52a5.53,5.53,0,0,1,3.14-.93,4.78,4.78,0,0,1,3.9,1.86c0-.45-.06-1.73-.06-2.82v-6.24l2.94.48v17.66a19.2,19.2,0,0,0,.45,5.38Zm-.61-12.45a4.11,4.11,0,0,0-3.39-1.5,3.14,3.14,0,0,0-2.78,1.63,8.52,8.52,0,0,0-.83,4.42c0,3.1.38,4,1.25,4.86a3,3,0,0,0,2.37.83,3.8,3.8,0,0,0,3.39-1.86Z" transform="translate(-4.88 -3.51)"/><path class="cls-1" d="M600.18,127.63V128a6,6,0,0,0,.67,3.2,4.18,4.18,0,0,0,3.68,1.89,5.7,5.7,0,0,0,3.94-1.54l1.12,1.76a8.19,8.19,0,0,1-5.54,2c-4.45,0-7.17-3.23-7.17-8.48,0-2.78.54-4.58,1.92-6.21a6,6,0,0,1,4.83-2.21,5.78,5.78,0,0,1,4.35,1.73c1.41,1.44,1.92,3.23,2,6.91v.51Zm5.7-5.79a2.88,2.88,0,0,0-2.3-1.12c-2.24,0-3.36,1.82-3.36,4.74h6.66A5.86,5.86,0,0,0,605.88,121.84Z" transform="translate(-4.88 -3.51)"/><path class="cls-1" d="M624.37,135a6.24,6.24,0,0,1-.29-1.5,5.35,5.35,0,0,1-4.13,1.76c-4.1,0-6.5-3.07-6.5-8.13,0-3.46,1.18-6.11,3.36-7.52a5.53,5.53,0,0,1,3.14-.93,4.78,4.78,0,0,1,3.9,1.86c0-.45-.06-1.73-.06-2.82v-6.24l2.94.48v17.66a19.2,19.2,0,0,0,.45,5.38Zm-.61-12.45a4.11,4.11,0,0,0-3.39-1.5,3.14,3.14,0,0,0-2.78,1.63,8.52,8.52,0,0,0-.83,4.42c0,3.1.38,4,1.25,4.86a3,3,0,0,0,2.37.83,3.8,3.8,0,0,0,3.39-1.86Z" transform="translate(-4.88 -3.51)"/><path class="cls-1" d="M649.81,134.13a5.25,5.25,0,0,1-3.46,1.22,5.14,5.14,0,0,1-4.13-2.11,6.09,6.09,0,0,1-.48,1.79H639a10.36,10.36,0,0,0,.42-3.74V116a11.25,11.25,0,0,0-.51-3.84l3.14-.64a16.48,16.48,0,0,1,.32,3.46v3.71a9.67,9.67,0,0,1-.1,1.66l.1.06a5.49,5.49,0,0,1,4.19-1.79c3.81,0,6.18,3.1,6.18,8.16C652.69,130.06,651.67,132.62,649.81,134.13Zm-1.12-11.33a3.09,3.09,0,0,0-2.85-1.66,4,4,0,0,0-2.53.86,3.66,3.66,0,0,0-1,1v8.13a4.74,4.74,0,0,0,3.46,1.7,3.08,3.08,0,0,0,2.69-1.44,9.27,9.27,0,0,0,.9-4.7C649.36,124.53,649.24,123.79,648.69,122.8Z" transform="translate(-4.88 -3.51)"/><path class="cls-1" d="M663.54,135.54c-.77,2.27-1.6,4-2.72,4.93a7.09,7.09,0,0,1-3,1.38l-.93-1.92a4.87,4.87,0,0,0,2.78-1.82A9.06,9.06,0,0,0,661,135l-1.15.16a47.74,47.74,0,0,0-1.54-5.34l-3.55-10.53,3-.67,3.07,10.08c.29,1,.7,2.69.93,3.78h.19c.26-1.09.64-2.53,1.09-4l2.85-9.47h3.26Z" transform="translate(-4.88 -3.51)"/><path class="cls-1" d="M691.16,121.27a3.81,3.81,0,0,1-1.38-.26,4.48,4.48,0,0,1,1.15,2.94c0,2.3-1.57,5-5.76,5-1,.32-2.53,1.06-2.53,1.76,0,.48.38.8,1.15.8h2.46c4.1,0,5.79,1.92,5.79,4.42,0,3.46-2.85,5.18-6.75,5.18-4.48,0-7-1.57-7-4.22a4.8,4.8,0,0,1,.29-1.63l2.88-.16a3.09,3.09,0,0,0-.29,1.22c0,1.66,1.38,2.56,3.87,2.56s3.94-1.06,3.94-2.75c0-1.54-1.25-2.43-4.42-2.43-1.12,0-2.4-.1-3-.16-1.41-.16-2.24-1-2.24-2.14,0-1.5,1.31-2.14,3.14-2.82-2.46-.74-3.78-2.4-3.78-4.61,0-3.23,2.46-5.38,6.14-5.38a7.83,7.83,0,0,1,2.5.35,9,9,0,0,0,2.4.51,4.38,4.38,0,0,0,2.62-.93l1.5,1.82A4,4,0,0,1,691.16,121.27Zm-6.43-.42c-1.89,0-2.91,1-2.91,3.07a2.65,2.65,0,0,0,2.94,3c1.92,0,2.91-1.06,2.91-3S686.74,120.85,684.72,120.85Z" transform="translate(-4.88 -3.51)"/><path class="cls-1" d="M702.2,135.47c-4.29,0-6.94-3.26-6.94-8.48s2.66-8.45,6.88-8.45c4.74,0,7,3.78,7,8.61C709.17,132.24,706.45,135.47,702.2,135.47Zm-.06-14.65c-2.56,0-3.62,1.82-3.62,5.86,0,4.9,1.25,6.53,3.74,6.53,2.24,0,3.62-1.73,3.62-5.92C705.88,122.32,704.44,120.82,702.13,120.82Z" transform="translate(-4.88 -3.51)"/><path class="cls-1" d="M719.57,135.15h-2.75l-5.73-16.09,3-.48,3.17,9.7c.35,1.09.7,2.37,1,3.46h.06a28.68,28.68,0,0,1,1-3.52l3-9.22h3.1Z" transform="translate(-4.88 -3.51)"/><path class="cls-1" d="M730.55,127.63V128a6,6,0,0,0,.67,3.2,4.18,4.18,0,0,0,3.68,1.89,5.7,5.7,0,0,0,3.94-1.54l1.12,1.76a8.19,8.19,0,0,1-5.54,2c-4.45,0-7.17-3.23-7.17-8.48,0-2.78.54-4.58,1.92-6.21a6,6,0,0,1,4.83-2.21,5.78,5.78,0,0,1,4.35,1.73c1.41,1.44,1.92,3.23,2,6.91v.51Zm5.7-5.79a2.88,2.88,0,0,0-2.3-1.12c-2.24,0-3.36,1.82-3.36,4.74h6.66A5.86,5.86,0,0,0,736.24,121.84Z" transform="translate(-4.88 -3.51)"/><path class="cls-1" d="M751.89,121.58a2.4,2.4,0,0,0-.83-.16,3.35,3.35,0,0,0-3.33,3.26V135h-2.94V123.25a10.24,10.24,0,0,0-.61-4l2.85-.74a6.63,6.63,0,0,1,.54,2.46v.29c1.28-1.86,2.66-2.78,4.35-2.78a2.92,2.92,0,0,1,1,.16Z" transform="translate(-4.88 -3.51)"/><path class="cls-1" d="M765,135V124.21c0-1.44-.13-2-.51-2.46a2,2,0,0,0-1.63-.64,6.47,6.47,0,0,0-4,2V135H756V123.09a8.75,8.75,0,0,0-.61-3.81l2.78-.77a5.09,5.09,0,0,1,.54,2.46,13.81,13.81,0,0,1,2.08-1.57,5.94,5.94,0,0,1,3-.8,4,4,0,0,1,3.78,2.27,5,5,0,0,1,.38,2V135Z" transform="translate(-4.88 -3.51)"/><path class="cls-1" d="M790.77,135V123.54c0-1.82-.58-2.46-1.92-2.46s-2.53,1-3.74,2.18V135h-2.88V123.6c0-1.79-.51-2.46-2-2.46a5.51,5.51,0,0,0-3.68,1.86v12h-2.91V123.25a8.72,8.72,0,0,0-.58-4l2.75-.67a4.54,4.54,0,0,1,.54,2.24,6.55,6.55,0,0,1,4.51-2.27,4.14,4.14,0,0,1,3.81,2.53,6.87,6.87,0,0,1,4.9-2.53c2.5,0,4.1,1.57,4.1,4.51v12Z" transform="translate(-4.88 -3.51)"/><path class="cls-1" d="M801.78,127.63V128a6,6,0,0,0,.67,3.2,4.18,4.18,0,0,0,3.68,1.89,5.7,5.7,0,0,0,3.94-1.54l1.12,1.76a8.19,8.19,0,0,1-5.54,2c-4.45,0-7.17-3.23-7.17-8.48,0-2.78.54-4.58,1.92-6.21a6,6,0,0,1,4.83-2.21,5.78,5.78,0,0,1,4.35,1.73c1.41,1.44,1.92,3.23,2,6.91v.51Zm5.7-5.79a2.88,2.88,0,0,0-2.3-1.12c-2.24,0-3.36,1.82-3.36,4.74h6.66A5.86,5.86,0,0,0,807.48,121.84Z" transform="translate(-4.88 -3.51)"/><path class="cls-1" d="M825,135V124.21c0-1.44-.13-2-.51-2.46a2,2,0,0,0-1.63-.64,6.47,6.47,0,0,0-4,2V135H816V123.09a8.75,8.75,0,0,0-.61-3.81l2.78-.77a5.09,5.09,0,0,1,.54,2.46,13.81,13.81,0,0,1,2.08-1.57,5.94,5.94,0,0,1,3-.8,4,4,0,0,1,3.78,2.27,5,5,0,0,1,.38,2V135Z" transform="translate(-4.88 -3.51)"/><path class="cls-1" d="M839.76,121.07H836.6v9.66c0,2,.48,2.59,2.08,2.59a3.54,3.54,0,0,0,1.5-.32l.35,1.79a6.38,6.38,0,0,1-2.91.67,4.57,4.57,0,0,1-2.82-.86c-.64-.58-1.09-1-1.09-3.2V121.07H831.8V119h1.92a34.73,34.73,0,0,1,.19-4.1l3-.7c-.13,1.15-.29,3.17-.29,4.8h3.9Z" transform="translate(-4.88 -3.51)"/><path class="cls-1" d="M861.87,135.7a3.66,3.66,0,0,1-2.14-2.3,5.57,5.57,0,0,1-4.54,2.11c-3.2,0-5.18-1.63-5.18-4.7,0-3.71,3-5.7,8.16-5.7.38,0,.7,0,1.12,0v-1.06c0-1.89-.26-3.17-2.5-3.17a8.85,8.85,0,0,0-4.93,1.82l-1.34-2.11a12.62,12.62,0,0,1,6.72-2.11c2.34,0,4,.86,4.64,2.56a7.31,7.31,0,0,1,.32,2.82c0,1.15-.13,3.62-.13,6s.06,3.1,1.31,3.87Zm-3.62-8.61c-2.21,0-3.55.42-4.19,1.15a3.09,3.09,0,0,0-.83,2.34c0,1.76.9,2.78,2.53,2.78a4,4,0,0,0,3.36-2.11l.1-4.1C858.77,127.12,858.51,127.09,858.26,127.09Z" transform="translate(-4.88 -3.51)"/><path class="cls-1" d="M875,121.58a2.4,2.4,0,0,0-.83-.16,3.35,3.35,0,0,0-3.33,3.26V135h-2.94V123.25a10.24,10.24,0,0,0-.61-4l2.85-.74a6.63,6.63,0,0,1,.54,2.46v.29c1.28-1.86,2.66-2.78,4.35-2.78a2.92,2.92,0,0,1,1,.16Z" transform="translate(-4.88 -3.51)"/><path class="cls-1" d="M881,127.63V128a6,6,0,0,0,.67,3.2,4.18,4.18,0,0,0,3.68,1.89,5.7,5.7,0,0,0,3.94-1.54l1.12,1.76a8.19,8.19,0,0,1-5.54,2c-4.45,0-7.17-3.23-7.17-8.48,0-2.78.54-4.58,1.92-6.21a6,6,0,0,1,4.83-2.21,5.78,5.78,0,0,1,4.35,1.73c1.41,1.44,1.92,3.23,2,6.91v.51Zm5.7-5.79a2.88,2.88,0,0,0-2.3-1.12c-2.24,0-3.36,1.82-3.36,4.74h6.66A5.86,5.86,0,0,0,886.67,121.84Z" transform="translate(-4.88 -3.51)"/><path class="cls-1" d="M403.59,157.58a2.4,2.4,0,0,0-.83-.16,3.35,3.35,0,0,0-3.33,3.26V171h-2.94V159.25a10.24,10.24,0,0,0-.61-4l2.85-.74a6.63,6.63,0,0,1,.54,2.46v.29c1.28-1.86,2.66-2.78,4.35-2.78a2.92,2.92,0,0,1,1,.16Z" transform="translate(-4.88 -3.51)"/><path class="cls-1" d="M409.58,163.63V164a6,6,0,0,0,.67,3.2,4.18,4.18,0,0,0,3.68,1.89,5.7,5.7,0,0,0,3.94-1.54l1.12,1.76a8.19,8.19,0,0,1-5.54,2c-4.45,0-7.17-3.23-7.17-8.48,0-2.78.54-4.58,1.92-6.21a6,6,0,0,1,4.83-2.21,5.78,5.78,0,0,1,4.35,1.73c1.41,1.44,1.92,3.23,2,6.91v.51Zm5.7-5.79a2.88,2.88,0,0,0-2.3-1.12c-2.24,0-3.36,1.82-3.36,4.74h6.66A5.86,5.86,0,0,0,415.27,157.84Z" transform="translate(-4.88 -3.51)"/><path class="cls-1" d="M430.79,171.34a6.16,6.16,0,0,1-4.16-1.66,16.18,16.18,0,0,1,.06,1.79v5.63l-2.88.67V158.93a17,17,0,0,0-.35-3.94l2.85-.48a8.31,8.31,0,0,1,.19,2.3,5.81,5.81,0,0,1,4.54-2.24c3.26,0,6,2.66,6,8.16C437.06,167.73,434.89,171.34,430.79,171.34Zm-.26-14.27a5,5,0,0,0-3.84,2v8.16a5,5,0,0,0,3.42,1.76c2.59,0,3.78-2,3.78-5.89S433.06,157.07,430.53,157.07Z" transform="translate(-4.88 -3.51)"/><path class="cls-1" d="M449,157.58a2.4,2.4,0,0,0-.83-.16,3.35,3.35,0,0,0-3.33,3.26V171h-2.94V159.25a10.24,10.24,0,0,0-.61-4l2.85-.74a6.63,6.63,0,0,1,.54,2.46v.29c1.28-1.86,2.66-2.78,4.35-2.78a2.92,2.92,0,0,1,1,.16Z" transform="translate(-4.88 -3.51)"/><path class="cls-1" d="M455,163.63V164a6,6,0,0,0,.67,3.2,4.18,4.18,0,0,0,3.68,1.89,5.7,5.7,0,0,0,3.94-1.54l1.12,1.76a8.19,8.19,0,0,1-5.54,2c-4.45,0-7.17-3.23-7.17-8.48,0-2.78.54-4.58,1.92-6.21a6,6,0,0,1,4.83-2.21,5.78,5.78,0,0,1,4.35,1.73c1.41,1.44,1.92,3.23,2,6.91v.51Zm5.7-5.79a2.88,2.88,0,0,0-2.3-1.12c-2.24,0-3.36,1.82-3.36,4.74h6.66A5.86,5.86,0,0,0,460.65,157.84Z" transform="translate(-4.88 -3.51)"/><path class="cls-1" d="M473.74,171.47a12.21,12.21,0,0,1-6-1.7l1.06-2.11a10.93,10.93,0,0,0,5.15,1.6c1.76,0,3-1,3-2.59,0-1.38-.83-2.18-2.69-2.53l-2-.38c-2.53-.51-3.9-2.08-3.9-4.45,0-2.94,2.34-5,5.79-5a10.19,10.19,0,0,1,5.06,1.31l-1,2.08a8.67,8.67,0,0,0-3.94-1.15c-1.7,0-2.78,1-2.78,2.4,0,1.15.58,1.79,2.27,2.18l2.08.48c2.94.67,4.16,2.37,4.16,4.48C480,169.3,477.48,171.47,473.74,171.47Z" transform="translate(-4.88 -3.51)"/><path class="cls-1" d="M486.86,163.63V164a6,6,0,0,0,.67,3.2,4.18,4.18,0,0,0,3.68,1.89,5.7,5.7,0,0,0,3.94-1.54l1.12,1.76a8.19,8.19,0,0,1-5.54,2c-4.45,0-7.17-3.23-7.17-8.48,0-2.78.54-4.58,1.92-6.21a6,6,0,0,1,4.83-2.21,5.78,5.78,0,0,1,4.35,1.73c1.41,1.44,1.92,3.23,2,6.91v.51Zm5.7-5.79a2.88,2.88,0,0,0-2.3-1.12c-2.24,0-3.36,1.82-3.36,4.74h6.66A5.86,5.86,0,0,0,492.55,157.84Z" transform="translate(-4.88 -3.51)"/><path class="cls-1" d="M510.12,171V160.21c0-1.44-.13-2-.51-2.46a2,2,0,0,0-1.63-.64,6.47,6.47,0,0,0-4,2V171H501.1V159.09a8.75,8.75,0,0,0-.61-3.81l2.78-.77a5.09,5.09,0,0,1,.54,2.46,13.78,13.78,0,0,1,2.08-1.57,5.94,5.94,0,0,1,3-.8,4,4,0,0,1,3.78,2.27,5,5,0,0,1,.38,2V171Z" transform="translate(-4.88 -3.51)"/><path class="cls-1" d="M524.84,157.07h-3.17v9.66c0,2,.48,2.59,2.08,2.59a3.54,3.54,0,0,0,1.5-.32l.35,1.79a6.38,6.38,0,0,1-2.91.67,4.57,4.57,0,0,1-2.82-.86c-.64-.58-1.09-1-1.09-3.2V157.07h-1.92V155h1.92a34.73,34.73,0,0,1,.19-4.1l3-.7c-.13,1.15-.29,3.17-.29,4.8h3.9Z" transform="translate(-4.88 -3.51)"/><path class="cls-1" d="M531.33,163.63V164a6,6,0,0,0,.67,3.2,4.18,4.18,0,0,0,3.68,1.89,5.7,5.7,0,0,0,3.94-1.54l1.12,1.76a8.19,8.19,0,0,1-5.54,2c-4.45,0-7.17-3.23-7.17-8.48,0-2.78.54-4.58,1.92-6.21a6,6,0,0,1,4.83-2.21,5.78,5.78,0,0,1,4.35,1.73c1.41,1.44,1.92,3.23,2,6.91v.51Zm5.7-5.79a2.88,2.88,0,0,0-2.3-1.12c-2.24,0-3.36,1.82-3.36,4.74H538A5.86,5.86,0,0,0,537,157.84Z" transform="translate(-4.88 -3.51)"/><path class="cls-1" d="M555.53,171a6.24,6.24,0,0,1-.29-1.5,5.35,5.35,0,0,1-4.13,1.76c-4.1,0-6.5-3.07-6.5-8.13,0-3.46,1.18-6.11,3.36-7.52a5.53,5.53,0,0,1,3.14-.93,4.78,4.78,0,0,1,3.9,1.86c0-.45-.06-1.73-.06-2.82v-6.24l2.94.48v17.66a19.2,19.2,0,0,0,.45,5.38Zm-.61-12.45a4.11,4.11,0,0,0-3.39-1.5,3.14,3.14,0,0,0-2.78,1.63,8.52,8.52,0,0,0-.83,4.42c0,3.1.38,4,1.25,4.86a3,3,0,0,0,2.37.83,3.8,3.8,0,0,0,3.39-1.86Z" transform="translate(-4.88 -3.51)"/><path class="cls-1" d="M565.61,171.47a2.4,2.4,0,1,1,2.27-2.4A2.31,2.31,0,0,1,565.61,171.47Z" transform="translate(-4.88 -3.51)"/></g></g></svg>