<?xml version="1.0" encoding="utf-8"?>
<!-- Generator: Adobe Illustrator 22.1.0, SVG Export Plug-In . SVG Version: 6.00 Build 0)  -->
<svg version="1.1" id="Layer_1" xmlns="http://www.w3.org/2000/svg" xmlns:xlink="http://www.w3.org/1999/xlink" x="0px" y="0px"
	 viewBox="0 0 1080 178.9" style="enable-background:new 0 0 1080 178.9;" xml:space="preserve">
<style type="text/css">
	.st0{fill:url(#SVGID_1_);}
	.st1{clip-path:url(#SVGID_3_);}
	.st2{fill:#39C6BC;}
	.st3{fill:#FFFFFF;}
	.st4{fill:#DBDCDE;}
</style>
<title>IP_sc5_header_1</title>
<g id="Ui">
	
		<linearGradient id="SVGID_1_" gradientUnits="userSpaceOnUse" x1="540" y1="63.2" x2="540" y2="89.86" gradientTransform="matrix(1 0 0 -1 0 235.89)">
		<stop  offset="1.000000e-02" style="stop-color:#231F20;stop-opacity:0"/>
		<stop  offset="0.86" style="stop-color:#0F0D0D;stop-opacity:0.23"/>
		<stop  offset="1" style="stop-color:#000000;stop-opacity:0.4"/>
	</linearGradient>
	<rect y="146" class="st0" width="1080" height="26.7"/>
	<g>
		<defs>
			<rect id="SVGID_2_" y="0" width="1080" height="146"/>
		</defs>
		<clipPath id="SVGID_3_">
			<use xlink:href="#SVGID_2_"  style="overflow:visible;"/>
		</clipPath>
		<g class="st1">
			<path class="st2" d="M1108.5,0H-18.4c-5.5,0-10,4.5-10,10v136h1146.9V10C1118.5,4.5,1114,0,1108.5,0z"/>
		</g>
	</g>
	<path class="st3" d="M399,65.7c-0.7,0.6-1.2,1.5-1.1,2.4c0,1,0.5,1.9,1.4,2.4c2,1,4.1,1.7,6.4,2.1c2.8,0.6,5.5,1.8,7.7,3.7
		c1.8,1.6,2.7,4,2.8,7.2c0.1,3-1.2,5.8-3.5,7.6c-2.6,2-5.9,3.1-9.3,2.9c-5.6,0-11-2.2-15-6.2l4.6-5.7c3.8,3.3,7.3,5,10.5,5
		c1.2,0.1,2.4-0.3,3.4-0.9c0.8-0.6,1.2-1.5,1.2-2.5c0-1-0.5-1.9-1.3-2.5c-1.6-0.9-3.3-1.5-5.1-1.9c-4.1-1-7-2.2-8.9-3.8
		c-1.9-1.6-2.8-4-2.8-7.3c-0.2-3,1.2-5.9,3.6-7.7c2.6-1.9,5.7-2.8,8.9-2.7c2.4,0,4.7,0.4,7,1.2c2.2,0.7,4.3,1.9,6.1,3.4l-4,5.7
		c-2.7-2.2-6-3.4-9.4-3.4C400.9,64.8,399.9,65.1,399,65.7z"/>
	<path class="st3" d="M422.7,58.7h7.8v35h-7.8V58.7z"/>
	<path class="st3" d="M463.2,61.8c2.5,2.1,3.7,5.3,3.7,9.6s-1.3,7.5-3.8,9.5c-2.5,2-6.4,3-11.5,3h-4.6v9.8h-7.8v-35h12.4
		C456.8,58.7,460.8,59.8,463.2,61.8z M457.5,75.6c1-1.3,1.5-2.9,1.4-4.6c0-2-0.6-3.4-1.8-4.3c-1.2-0.9-3.1-1.3-5.7-1.3h-4.5v11.8
		h5.3C454.8,77.2,456.5,76.7,457.5,75.6z"/>
	<path class="st3" d="M510.3,61.8c2.5,2.1,3.7,5.3,3.7,9.6c0,4.3-1.3,7.5-3.8,9.5c-2.5,2-6.4,3-11.5,3H494v9.8h-7.8v-35h12.4
		C503.9,58.7,507.8,59.8,510.3,61.8z M504.5,75.6c1-1.3,1.5-2.9,1.4-4.6c0-2-0.6-3.4-1.8-4.3c-1.2-0.9-3.1-1.3-5.7-1.3H494v11.8h5.3
		C501.8,77.2,503.6,76.7,504.5,75.6z"/>
	<path class="st3" d="M533.4,73.4c-2-0.1-3.9,0.8-5,2.4c-1.2,1.9-1.7,4-1.6,6.2v11.7h-7.5V66.8h7.5v3.6c1-1.1,2.3-2.1,3.6-2.8
		c1.4-0.7,2.9-1.2,4.4-1.2l0,7.1L533.4,73.4z"/>
	<path class="st3" d="M566.3,80.2c0.1,3.7-1.4,7.3-4,9.8c-5.7,5.3-14.6,5.3-20.3,0c-5.4-5.5-5.4-14.3,0-19.7
		c5.7-5.4,14.6-5.4,20.3,0C565,72.9,566.4,76.5,566.3,80.2z M545.4,80.2c-0.1,2,0.6,3.9,1.9,5.4c2.5,2.7,6.7,2.8,9.3,0.3
		c0.1-0.1,0.2-0.2,0.3-0.3c1.3-1.5,2-3.4,1.9-5.4c0.1-2-0.6-3.9-1.9-5.4c-2.5-2.7-6.6-2.8-9.2-0.4c-0.1,0.1-0.2,0.2-0.4,0.4
		C546,76.3,545.4,78.3,545.4,80.2z"/>
	<path class="st3" d="M574.4,94.2V66.7h7.5v28c0.3,5-3.5,9.2-8.5,9.5c-0.2,0-0.5,0-0.7,0c-2.8-0.1-5.4-1.2-7.4-3.2l3.5-5.6
		c0.8,1.1,2,1.7,3.3,1.8c0.6,0,1.2-0.3,1.7-0.8C574.3,95.8,574.5,95,574.4,94.2z M575.1,63.3c-1.8-1.7-1.8-4.6-0.1-6.3
		c1.7-1.8,4.6-1.8,6.3-0.1s1.8,4.6,0.1,6.3c-0.8,0.9-2,1.3-3.2,1.3C577,64.7,575.9,64.2,575.1,63.3L575.1,63.3z"/>
	<path class="st3" d="M612.3,89.8c-2.8,2.8-6.7,4.3-10.7,4.3c-3.7,0.1-7.4-1.2-10.1-3.8c-2.7-2.6-4.2-6.3-4-10.1
		c-0.2-3.8,1.3-7.5,4.1-10.1c2.6-2.5,6.1-3.8,9.6-3.8c3.4-0.1,6.8,1.1,9.4,3.3c2.6,2.3,4.1,5.7,3.9,9.2v4H595
		c0.2,1.5,1.1,2.8,2.3,3.6c1.3,0.9,2.8,1.4,4.4,1.4c2.4,0.1,4.8-0.9,6.5-2.7L612.3,89.8z M605.1,73.8c-1.1-0.9-2.4-1.3-3.8-1.3
		c-1.5,0-2.9,0.5-4.1,1.3c-1.2,0.9-2,2.2-2.2,3.7h11.8C606.8,76.1,606.2,74.8,605.1,73.8L605.1,73.8z"/>
	<path class="st3" d="M632.8,87.4c2.5,0,4.8-1.3,6.8-3.8l4.5,5c-3.5,3.6-7.2,5.4-11.3,5.4c-3.8,0.1-7.4-1.3-10.2-3.8
		c-2.8-2.6-4.3-6.2-4.2-10c-0.1-3.8,1.4-7.5,4.2-10.1c2.7-2.5,6.3-3.9,10-3.9c2,0,4,0.4,5.9,1.2c2,0.8,3.8,2,5.2,3.6l-3.9,5.1
		c-0.9-1-1.9-1.8-3.2-2.4c-1.2-0.5-2.4-0.8-3.7-0.8c-1.9,0-3.7,0.7-5.1,1.9c-1.5,1.4-2.2,3.3-2.1,5.3c-0.1,2,0.7,4,2.1,5.3
		C629.2,86.8,631,87.5,632.8,87.4z"/>
	<path class="st3" d="M658,72.2v12c-0.1,0.9,0.2,1.8,0.8,2.4c0.5,0.6,1.2,0.9,1.9,0.9c1.4,0,2.8-0.7,3.5-1.9l2.8,5.3
		c-2,2-4.6,3.1-7.4,3.2c-5,0.1-9.1-3.8-9.2-8.8c0-0.2,0-0.5,0-0.7V72.2h-3.2v-5.4h3.2v-8h7.5v8h6.5v5.4H658z"/>
	<path class="st3" d="M691.3,85.3c0.1,2.5-1,4.8-2.9,6.4c-2.1,1.7-4.7,2.5-7.4,2.4c-2.1,0-4.2-0.4-6.3-1.1c-2.1-0.7-4.1-1.8-5.8-3.2
		l3.3-4.7c2.5,2.1,5.7,3.2,9,3.3c0.8,0,1.6-0.2,2.3-0.6c0.5-0.3,0.9-0.9,0.8-1.5c-0.1-0.8-0.5-1.4-1.2-1.7c-1.1-0.7-2.2-1.2-3.4-1.5
		c-1.5-0.5-2.6-0.9-3.4-1.2c-0.9-0.4-1.8-0.9-2.7-1.4c-2-1.2-3.1-3.3-3-5.6c0-2.4,1.1-4.7,3-6.1c2.2-1.6,5-2.5,7.8-2.3
		c3.4,0.1,6.7,1.2,9.5,3.2l-2.8,5c-2-1.5-4.5-2.3-7-2.4c-2.3,0-3.5,0.6-3.5,1.9c0,0.7,0.4,1.4,1.1,1.7c1.2,0.6,2.4,1,3.7,1.4
		c1.7,0.5,2.9,0.9,3.6,1.2c0.9,0.4,1.8,0.8,2.6,1.3C690.3,80.8,691.3,82.7,691.3,85.3z"/>
</g>
<g id="Status_Bar">
	<rect y="-132" class="st4" width="1080" height="132"/>
</g>
</svg>
