<svg xmlns="http://www.w3.org/2000/svg" viewBox="0 0 849.69 174.21"><defs><style>.cls-1{fill:#58595b;}</style></defs><title>IP_sc2_subText2</title><g id="Layer_2" data-name="Layer 2"><g id="Ui"><path class="cls-1" d="M5,27V5H8.17V27Z" transform="translate(-5.03 -3.57)"/><path class="cls-1" d="M23,27V16.21c0-1.44-.13-2-.51-2.46a2,2,0,0,0-1.63-.64,6.47,6.47,0,0,0-4,2V27H13.93V15.09a8.75,8.75,0,0,0-.61-3.81l2.78-.77A5.09,5.09,0,0,1,16.65,13a13.78,13.78,0,0,1,2.08-1.57,5.94,5.94,0,0,1,3-.8,4,4,0,0,1,3.78,2.27,5,5,0,0,1,.38,2V27Z" transform="translate(-5.03 -3.57)"/><path class="cls-1" d="M38.79,6.45a4.58,4.58,0,0,0-2.08-.61c-1.34,0-2.14.93-2.14,2.56V11h4.26l-.77,2.08H34.6V27h-3v-14H30.09V11h1.57c-.06-.32-.06-2.3-.06-2.56a4.61,4.61,0,0,1,1.79-4,4.88,4.88,0,0,1,2.91-.77,6.56,6.56,0,0,1,3.49.86Z" transform="translate(-5.03 -3.57)"/><path class="cls-1" d="M48.49,13.58a2.4,2.4,0,0,0-.83-.16,3.35,3.35,0,0,0-3.33,3.26V27H41.39V15.25a10.24,10.24,0,0,0-.61-4l2.85-.74A6.63,6.63,0,0,1,44.17,13v.29c1.28-1.86,2.66-2.78,4.35-2.78a2.92,2.92,0,0,1,1,.16Z" transform="translate(-5.03 -3.57)"/><path class="cls-1" d="M63,27.7a3.66,3.66,0,0,1-2.14-2.3A5.57,5.57,0,0,1,56.3,27.5c-3.2,0-5.18-1.63-5.18-4.7,0-3.71,3-5.7,8.16-5.7.38,0,.7,0,1.12,0V16.08c0-1.89-.26-3.17-2.5-3.17A8.85,8.85,0,0,0,53,14.74l-1.34-2.11a12.62,12.62,0,0,1,6.72-2.11c2.34,0,4,.86,4.64,2.56a7.31,7.31,0,0,1,.32,2.82c0,1.15-.13,3.62-.13,6s.06,3.1,1.31,3.87Zm-3.62-8.61c-2.21,0-3.55.42-4.19,1.15a3.09,3.09,0,0,0-.83,2.34c0,1.76.9,2.78,2.53,2.78a4,4,0,0,0,3.36-2.11l.1-4.1C59.88,19.12,59.62,19.09,59.37,19.09Z" transform="translate(-5.03 -3.57)"/><path class="cls-1" d="M73.38,27.47a12.21,12.21,0,0,1-6-1.7l1.06-2.11a10.93,10.93,0,0,0,5.15,1.6c1.76,0,3-1,3-2.59,0-1.38-.83-2.18-2.69-2.53l-2-.38c-2.53-.51-3.9-2.08-3.9-4.45,0-2.94,2.34-5,5.79-5a10.19,10.19,0,0,1,5.06,1.31l-1,2.08A8.67,8.67,0,0,0,74,12.56c-1.7,0-2.78,1-2.78,2.4,0,1.15.58,1.79,2.27,2.18l2.08.48c2.94.67,4.16,2.37,4.16,4.48C79.69,25.3,77.13,27.47,73.38,27.47Z" transform="translate(-5.03 -3.57)"/><path class="cls-1" d="M90.06,13.07H86.89v9.66c0,2,.48,2.59,2.08,2.59a3.54,3.54,0,0,0,1.5-.32l.35,1.79a6.38,6.38,0,0,1-2.91.67,4.57,4.57,0,0,1-2.82-.86c-.64-.58-1.09-1-1.09-3.2V13.07H82.09V11H84a34.73,34.73,0,0,1,.19-4.1l3-.7C87.11,7.35,87,9.36,87,11h3.9Z" transform="translate(-5.03 -3.57)"/><path class="cls-1" d="M101.32,13.58a2.4,2.4,0,0,0-.83-.16,3.35,3.35,0,0,0-3.33,3.26V27H94.22V15.25a10.24,10.24,0,0,0-.61-4l2.85-.74A6.63,6.63,0,0,1,97,13v.29c1.28-1.86,2.66-2.78,4.35-2.78a2.92,2.92,0,0,1,1,.16Z" transform="translate(-5.03 -3.57)"/><path class="cls-1" d="M116.26,27.57a3.78,3.78,0,0,1-1.5-2.3,5.88,5.88,0,0,1-4.83,2.3,4.51,4.51,0,0,1-4.32-2.4,6.82,6.82,0,0,1-.38-2.69V11.09l2.91-.58V21.68c0,1.63.16,2.27.74,2.82a2.93,2.93,0,0,0,1.86.7,4.41,4.41,0,0,0,3.65-2.53V11.15l2.91-.58V22.64c0,1.63.35,2.78,1,3.33Z" transform="translate(-5.03 -3.57)"/><path class="cls-1" d="M128.78,27.34a5.87,5.87,0,0,1-5.15-2.4,9.69,9.69,0,0,1-1.54-5.79c0-3.62,1.15-5.7,2.69-7.07a6.27,6.27,0,0,1,8.51.06l-1.54,2a3.91,3.91,0,0,0-2.82-1.25,3.08,3.08,0,0,0-2.82,1.73,11.38,11.38,0,0,0-.77,4.9c0,2.24.45,3.71,1.28,4.61a3.11,3.11,0,0,0,2.3,1,4.49,4.49,0,0,0,3.33-1.66l1.44,1.82A6.31,6.31,0,0,1,128.78,27.34Z" transform="translate(-5.03 -3.57)"/><path class="cls-1" d="M143.91,13.07h-3.17v9.66c0,2,.48,2.59,2.08,2.59a3.54,3.54,0,0,0,1.5-.32l.35,1.79a6.38,6.38,0,0,1-2.91.67,4.57,4.57,0,0,1-2.82-.86c-.64-.58-1.09-1-1.09-3.2V13.07h-1.92V11h1.92a34.73,34.73,0,0,1,.19-4.1l3-.7c-.13,1.15-.29,3.17-.29,4.8h3.9Z" transform="translate(-5.03 -3.57)"/><path class="cls-1" d="M159,27.57a3.78,3.78,0,0,1-1.5-2.3,5.88,5.88,0,0,1-4.83,2.3,4.51,4.51,0,0,1-4.32-2.4,6.82,6.82,0,0,1-.38-2.69V11.09l2.91-.58V21.68c0,1.63.16,2.27.74,2.82a2.93,2.93,0,0,0,1.86.7,4.41,4.41,0,0,0,3.65-2.53V11.15l2.91-.58V22.64c0,1.63.35,2.78,1,3.33Z" transform="translate(-5.03 -3.57)"/><path class="cls-1" d="M172.52,13.58a2.4,2.4,0,0,0-.83-.16,3.35,3.35,0,0,0-3.33,3.26V27h-2.94V15.25a10.24,10.24,0,0,0-.61-4l2.85-.74A6.63,6.63,0,0,1,168.2,13v.29c1.28-1.86,2.66-2.78,4.35-2.78a2.92,2.92,0,0,1,1,.16Z" transform="translate(-5.03 -3.57)"/><path class="cls-1" d="M178.5,19.63V20a6,6,0,0,0,.67,3.2,4.18,4.18,0,0,0,3.68,1.89,5.7,5.7,0,0,0,3.94-1.54l1.12,1.76a8.19,8.19,0,0,1-5.54,2c-4.45,0-7.17-3.23-7.17-8.48,0-2.78.54-4.58,1.92-6.21A6,6,0,0,1,182,10.48a5.78,5.78,0,0,1,4.35,1.73c1.41,1.44,1.92,3.23,2,6.91v.51Zm5.7-5.79a2.88,2.88,0,0,0-2.3-1.12c-2.24,0-3.36,1.82-3.36,4.74h6.66A5.86,5.86,0,0,0,184.2,13.84Z" transform="translate(-5.03 -3.57)"/><path class="cls-1" d="M201.45,8.18a2.08,2.08,0,0,1-2-2.11,2.1,2.1,0,1,1,4.19,0A2.14,2.14,0,0,1,201.45,8.18ZM199.94,27V11.09l3-.48V27Z" transform="translate(-5.03 -3.57)"/><path class="cls-1" d="M217.77,27V16.21c0-1.44-.13-2-.51-2.46a2,2,0,0,0-1.63-.64,6.47,6.47,0,0,0-4,2V27h-2.91V15.09a8.75,8.75,0,0,0-.61-3.81l2.78-.77a5.09,5.09,0,0,1,.54,2.46,13.81,13.81,0,0,1,2.08-1.57,5.94,5.94,0,0,1,3-.8,4,4,0,0,1,3.78,2.27,5,5,0,0,1,.38,2V27Z" transform="translate(-5.03 -3.57)"/><path class="cls-1" d="M227.94,8.18a2.08,2.08,0,0,1-2-2.11,2.1,2.1,0,1,1,4.19,0A2.14,2.14,0,0,1,227.94,8.18ZM226.44,27V11.09l3-.48V27Z" transform="translate(-5.03 -3.57)"/><path class="cls-1" d="M241.29,13.07h-3.17v9.66c0,2,.48,2.59,2.08,2.59a3.54,3.54,0,0,0,1.5-.32l.35,1.79a6.38,6.38,0,0,1-2.91.67,4.57,4.57,0,0,1-2.82-.86c-.64-.58-1.09-1-1.09-3.2V13.07h-1.92V11h1.92a34.73,34.73,0,0,1,.19-4.1l3-.7c-.13,1.15-.29,3.17-.29,4.8h3.9Z" transform="translate(-5.03 -3.57)"/><path class="cls-1" d="M247.27,8.18a2.08,2.08,0,0,1-2-2.11,2.1,2.1,0,1,1,4.19,0A2.14,2.14,0,0,1,247.27,8.18ZM245.77,27V11.09l3-.48V27Z" transform="translate(-5.03 -3.57)"/><path class="cls-1" d="M265.16,27.7a3.66,3.66,0,0,1-2.14-2.3,5.57,5.57,0,0,1-4.54,2.11c-3.2,0-5.18-1.63-5.18-4.7,0-3.71,3-5.7,8.16-5.7.38,0,.7,0,1.12,0V16.08c0-1.89-.26-3.17-2.5-3.17a8.85,8.85,0,0,0-4.93,1.82l-1.34-2.11a12.62,12.62,0,0,1,6.72-2.11c2.34,0,4,.86,4.64,2.56a7.31,7.31,0,0,1,.32,2.82c0,1.15-.13,3.62-.13,6s.06,3.1,1.31,3.87Zm-3.62-8.61c-2.21,0-3.55.42-4.19,1.15a3.09,3.09,0,0,0-.83,2.34c0,1.76.9,2.78,2.53,2.78a4,4,0,0,0,3.36-2.11l.1-4.1C262.06,19.12,261.8,19.09,261.54,19.09Z" transform="translate(-5.03 -3.57)"/><path class="cls-1" d="M277.22,13.07h-3.17v9.66c0,2,.48,2.59,2.08,2.59a3.54,3.54,0,0,0,1.5-.32L278,26.8a6.38,6.38,0,0,1-2.91.67,4.57,4.57,0,0,1-2.82-.86c-.64-.58-1.09-1-1.09-3.2V13.07h-1.92V11h1.92a34.73,34.73,0,0,1,.19-4.1l3-.7c-.13,1.15-.29,3.17-.29,4.8H278Z" transform="translate(-5.03 -3.57)"/><path class="cls-1" d="M283.21,8.18a2.08,2.08,0,0,1-2-2.11,2.1,2.1,0,1,1,4.19,0A2.14,2.14,0,0,1,283.21,8.18ZM281.7,27V11.09l3-.48V27Z" transform="translate(-5.03 -3.57)"/><path class="cls-1" d="M296.1,27.15h-2.75l-5.73-16.09,3-.48,3.17,9.7c.35,1.09.7,2.37,1,3.46h.06a28.68,28.68,0,0,1,1-3.52l3-9.22H302Z" transform="translate(-5.03 -3.57)"/><path class="cls-1" d="M307.08,19.63V20a6,6,0,0,0,.67,3.2,4.18,4.18,0,0,0,3.68,1.89,5.7,5.7,0,0,0,3.94-1.54l1.12,1.76a8.19,8.19,0,0,1-5.54,2c-4.45,0-7.17-3.23-7.17-8.48,0-2.78.54-4.58,1.92-6.21a6,6,0,0,1,4.83-2.21,5.78,5.78,0,0,1,4.35,1.73c1.41,1.44,1.92,3.23,2,6.91v.51Zm5.7-5.79a2.88,2.88,0,0,0-2.3-1.12c-2.24,0-3.36,1.82-3.36,4.74h6.66A5.86,5.86,0,0,0,312.77,13.84Z" transform="translate(-5.03 -3.57)"/><path class="cls-1" d="M325.86,27.47a12.21,12.21,0,0,1-6-1.7l1.06-2.11a10.93,10.93,0,0,0,5.15,1.6c1.76,0,3-1,3-2.59,0-1.38-.83-2.18-2.69-2.53l-2-.38c-2.53-.51-3.9-2.08-3.9-4.45,0-2.94,2.34-5,5.79-5a10.19,10.19,0,0,1,5.06,1.31l-1,2.08a8.67,8.67,0,0,0-3.94-1.15c-1.7,0-2.78,1-2.78,2.4,0,1.15.58,1.79,2.27,2.18l2.08.48c2.94.67,4.16,2.37,4.16,4.48C332.17,25.3,329.61,27.47,325.86,27.47Z" transform="translate(-5.03 -3.57)"/><path class="cls-1" d="M355.3,13.27a3.81,3.81,0,0,1-1.38-.26A4.48,4.48,0,0,1,355.08,16c0,2.3-1.57,5-5.76,5-1,.32-2.53,1.06-2.53,1.76,0,.48.38.8,1.15.8h2.46c4.1,0,5.79,1.92,5.79,4.42,0,3.46-2.85,5.18-6.75,5.18-4.48,0-7-1.57-7-4.22a4.8,4.8,0,0,1,.29-1.63l2.88-.16a3.09,3.09,0,0,0-.29,1.22c0,1.66,1.38,2.56,3.87,2.56s3.94-1.06,3.94-2.75c0-1.54-1.25-2.43-4.42-2.43-1.12,0-2.4-.1-3-.16-1.41-.16-2.24-1-2.24-2.14,0-1.5,1.31-2.14,3.14-2.82-2.46-.74-3.78-2.4-3.78-4.61,0-3.23,2.46-5.38,6.14-5.38a7.83,7.83,0,0,1,2.5.35,9,9,0,0,0,2.4.51,4.38,4.38,0,0,0,2.62-.93l1.5,1.82A4,4,0,0,1,355.3,13.27Zm-6.43-.42c-1.89,0-2.91,1-2.91,3.07a2.65,2.65,0,0,0,2.94,3c1.92,0,2.91-1.06,2.91-3S350.89,12.85,348.87,12.85Z" transform="translate(-5.03 -3.57)"/><path class="cls-1" d="M366.34,27.47c-4.29,0-6.94-3.26-6.94-8.48s2.66-8.45,6.88-8.45c4.74,0,7,3.78,7,8.61C373.32,24.24,370.6,27.47,366.34,27.47Zm-.06-14.65c-2.56,0-3.62,1.82-3.62,5.86,0,4.9,1.25,6.53,3.74,6.53,2.24,0,3.62-1.73,3.62-5.92C370,14.32,368.58,12.82,366.28,12.82Z" transform="translate(-5.03 -3.57)"/><path class="cls-1" d="M391.21,13.07H388v9.66c0,2,.48,2.59,2.08,2.59a3.54,3.54,0,0,0,1.5-.32L392,26.8a6.38,6.38,0,0,1-2.91.67,4.57,4.57,0,0,1-2.82-.86c-.64-.58-1.09-1-1.09-3.2V13.07h-1.92V11h1.92a34.73,34.73,0,0,1,.19-4.1l3-.7c-.13,1.15-.29,3.17-.29,4.8H392Z" transform="translate(-5.03 -3.57)"/><path class="cls-1" d="M405.22,27V16a3.53,3.53,0,0,0-.54-2.24,2.56,2.56,0,0,0-1.76-.61,6.14,6.14,0,0,0-4.26,2.34V27h-3V7.54a14,14,0,0,0-.35-3.36l3-.61a16.34,16.34,0,0,1,.35,3.71v3.58c0,.58,0,1.31-.1,2.14a11,11,0,0,1,1.7-1.31,6.19,6.19,0,0,1,3.49-1.09,4.1,4.1,0,0,1,4,2.4,6.51,6.51,0,0,1,.32,2.59V27Z" transform="translate(-5.03 -3.57)"/><path class="cls-1" d="M421,13.58a2.4,2.4,0,0,0-.83-.16,3.35,3.35,0,0,0-3.33,3.26V27h-2.94V15.25a10.24,10.24,0,0,0-.61-4l2.85-.74a6.63,6.63,0,0,1,.54,2.46v.29c1.28-1.86,2.66-2.78,4.35-2.78a2.92,2.92,0,0,1,1,.16Z" transform="translate(-5.03 -3.57)"/><path class="cls-1" d="M430.44,27.47c-4.29,0-6.94-3.26-6.94-8.48s2.66-8.45,6.88-8.45c4.74,0,7,3.78,7,8.61C437.41,24.24,434.69,27.47,430.44,27.47Zm-.06-14.65c-2.56,0-3.62,1.82-3.62,5.86,0,4.9,1.25,6.53,3.74,6.53,2.24,0,3.62-1.73,3.62-5.92C434.12,14.32,432.68,12.82,430.37,12.82Z" transform="translate(-5.03 -3.57)"/><path class="cls-1" d="M452.93,27.57a3.78,3.78,0,0,1-1.5-2.3,5.88,5.88,0,0,1-4.83,2.3,4.51,4.51,0,0,1-4.32-2.4,6.82,6.82,0,0,1-.38-2.69V11.09l2.91-.58V21.68c0,1.63.16,2.27.74,2.82a2.93,2.93,0,0,0,1.86.7A4.41,4.41,0,0,0,451,22.67V11.15l2.91-.58V22.64c0,1.63.35,2.78,1,3.33Z" transform="translate(-5.03 -3.57)"/><path class="cls-1" d="M471.49,13.27a3.81,3.81,0,0,1-1.38-.26A4.48,4.48,0,0,1,471.27,16c0,2.3-1.57,5-5.76,5-1,.32-2.53,1.06-2.53,1.76,0,.48.38.8,1.15.8h2.46c4.1,0,5.79,1.92,5.79,4.42,0,3.46-2.85,5.18-6.75,5.18-4.48,0-7-1.57-7-4.22a4.8,4.8,0,0,1,.29-1.63l2.88-.16a3.09,3.09,0,0,0-.29,1.22c0,1.66,1.38,2.56,3.87,2.56s3.94-1.06,3.94-2.75c0-1.54-1.25-2.43-4.42-2.43-1.12,0-2.4-.1-3-.16-1.41-.16-2.24-1-2.24-2.14,0-1.5,1.31-2.14,3.14-2.82-2.46-.74-3.78-2.4-3.78-4.61,0-3.23,2.46-5.38,6.14-5.38a7.83,7.83,0,0,1,2.5.35,9,9,0,0,0,2.4.51,4.38,4.38,0,0,0,2.62-.93l1.5,1.82A4,4,0,0,1,471.49,13.27Zm-6.43-.42c-1.89,0-2.91,1-2.91,3.07a2.65,2.65,0,0,0,2.94,3c1.92,0,2.91-1.06,2.91-3S467.08,12.85,465.06,12.85Z" transform="translate(-5.03 -3.57)"/><path class="cls-1" d="M486.56,27V16a3.53,3.53,0,0,0-.54-2.24,2.56,2.56,0,0,0-1.76-.61A6.14,6.14,0,0,0,480,15.5V27h-3V7.54a14,14,0,0,0-.35-3.36l3-.61A16.34,16.34,0,0,1,480,7.28v3.58c0,.58,0,1.31-.1,2.14a11,11,0,0,1,1.7-1.31,6.19,6.19,0,0,1,3.49-1.09,4.1,4.1,0,0,1,4,2.4,6.51,6.51,0,0,1,.32,2.59V27Z" transform="translate(-5.03 -3.57)"/><path class="cls-1" d="M509.57,6.45a4.58,4.58,0,0,0-2.08-.61c-1.34,0-2.14.93-2.14,2.56V11h4.26l-.77,2.08h-3.46V27h-3v-14h-1.54V11h1.57c-.06-.32-.06-2.3-.06-2.56a4.61,4.61,0,0,1,1.79-4,4.88,4.88,0,0,1,2.91-.77,6.56,6.56,0,0,1,3.49.86Z" transform="translate(-5.03 -3.57)"/><path class="cls-1" d="M517.89,27.47c-4.29,0-6.94-3.26-6.94-8.48s2.66-8.45,6.88-8.45c4.74,0,7,3.78,7,8.61C524.87,24.24,522.15,27.47,517.89,27.47Zm-.06-14.65c-2.56,0-3.62,1.82-3.62,5.86,0,4.9,1.25,6.53,3.74,6.53,2.24,0,3.62-1.73,3.62-5.92C521.57,14.32,520.13,12.82,517.83,12.82Z" transform="translate(-5.03 -3.57)"/><path class="cls-1" d="M540.39,27.57a3.78,3.78,0,0,1-1.5-2.3,5.88,5.88,0,0,1-4.83,2.3,4.51,4.51,0,0,1-4.32-2.4,6.82,6.82,0,0,1-.38-2.69V11.09l2.91-.58V21.68c0,1.63.16,2.27.74,2.82a2.93,2.93,0,0,0,1.86.7,4.41,4.41,0,0,0,3.65-2.53V11.15l2.91-.58V22.64c0,1.63.35,2.78,1,3.33Z" transform="translate(-5.03 -3.57)"/><path class="cls-1" d="M554,13.58a2.4,2.4,0,0,0-.83-.16,3.35,3.35,0,0,0-3.33,3.26V27h-2.94V15.25a10.24,10.24,0,0,0-.61-4l2.85-.74a6.63,6.63,0,0,1,.54,2.46v.29c1.28-1.86,2.66-2.78,4.35-2.78a2.92,2.92,0,0,1,1,.16Z" transform="translate(-5.03 -3.57)"/><path class="cls-1" d="M572.2,27.34A6.16,6.16,0,0,1,568,25.68a16.18,16.18,0,0,1,.06,1.79V33.1l-2.88.67V14.93a17,17,0,0,0-.35-3.94l2.85-.48a8.31,8.31,0,0,1,.19,2.3,5.81,5.81,0,0,1,4.54-2.24c3.26,0,6,2.66,6,8.16C578.47,23.73,576.29,27.34,572.2,27.34Zm-.26-14.27a5,5,0,0,0-3.84,2v8.16A5,5,0,0,0,571.52,25c2.59,0,3.78-2,3.78-5.89S574.47,13.07,571.94,13.07Z" transform="translate(-5.03 -3.57)"/><path class="cls-1" d="M592.64,27V16a3.53,3.53,0,0,0-.54-2.24,2.56,2.56,0,0,0-1.76-.61,6.14,6.14,0,0,0-4.26,2.34V27h-3V7.54a14,14,0,0,0-.35-3.36l3-.61a16.34,16.34,0,0,1,.35,3.71v3.58c0,.58,0,1.31-.1,2.14a11,11,0,0,1,1.7-1.31,6.19,6.19,0,0,1,3.49-1.09,4.1,4.1,0,0,1,4,2.4,6.51,6.51,0,0,1,.32,2.59V27Z" transform="translate(-5.03 -3.57)"/><path class="cls-1" d="M611.72,27.7a3.66,3.66,0,0,1-2.14-2.3A5.57,5.57,0,0,1,605,27.5c-3.2,0-5.18-1.63-5.18-4.7,0-3.71,3-5.7,8.16-5.7.38,0,.7,0,1.12,0V16.08c0-1.89-.26-3.17-2.5-3.17a8.85,8.85,0,0,0-4.93,1.82l-1.34-2.11a12.62,12.62,0,0,1,6.72-2.11c2.34,0,4,.86,4.64,2.56a7.31,7.31,0,0,1,.32,2.82c0,1.15-.13,3.62-.13,6s.06,3.1,1.31,3.87Zm-3.62-8.61c-2.21,0-3.55.42-4.19,1.15a3.09,3.09,0,0,0-.83,2.34c0,1.76.9,2.78,2.53,2.78A4,4,0,0,0,609,23.25l.1-4.1C608.61,19.12,608.36,19.09,608.1,19.09Z" transform="translate(-5.03 -3.57)"/><path class="cls-1" d="M622.12,27.47a12.21,12.21,0,0,1-6-1.7l1.06-2.11a10.93,10.93,0,0,0,5.15,1.6c1.76,0,3-1,3-2.59,0-1.38-.83-2.18-2.69-2.53l-2-.38c-2.53-.51-3.9-2.08-3.9-4.45,0-2.94,2.34-5,5.79-5a10.19,10.19,0,0,1,5.06,1.31l-1,2.08a8.67,8.67,0,0,0-3.94-1.15c-1.7,0-2.78,1-2.78,2.4,0,1.15.58,1.79,2.27,2.18l2.08.48c2.94.67,4.16,2.37,4.16,4.48C628.42,25.3,625.86,27.47,622.12,27.47Z" transform="translate(-5.03 -3.57)"/><path class="cls-1" d="M635.24,19.63V20a6,6,0,0,0,.67,3.2,4.18,4.18,0,0,0,3.68,1.89,5.7,5.7,0,0,0,3.94-1.54l1.12,1.76a8.19,8.19,0,0,1-5.54,2c-4.45,0-7.17-3.23-7.17-8.48,0-2.78.54-4.58,1.92-6.21a6,6,0,0,1,4.83-2.21A5.78,5.78,0,0,1,643,12.21c1.41,1.44,1.92,3.23,2,6.91v.51Zm5.7-5.79a2.88,2.88,0,0,0-2.3-1.12c-2.24,0-3.36,1.82-3.36,4.74h6.66A5.86,5.86,0,0,0,640.93,13.84Z" transform="translate(-5.03 -3.57)"/><path class="cls-1" d="M654,27.47a12.21,12.21,0,0,1-6-1.7l1.06-2.11a10.93,10.93,0,0,0,5.15,1.6c1.76,0,3-1,3-2.59,0-1.38-.83-2.18-2.69-2.53l-2-.38c-2.53-.51-3.9-2.08-3.9-4.45,0-2.94,2.34-5,5.79-5a10.19,10.19,0,0,1,5.06,1.31l-1,2.08a8.67,8.67,0,0,0-3.94-1.15c-1.7,0-2.78,1-2.78,2.4,0,1.15.58,1.79,2.27,2.18l2.08.48c2.94.67,4.16,2.37,4.16,4.48C660.32,25.3,657.76,27.47,654,27.47Z" transform="translate(-5.03 -3.57)"/><path class="cls-1" d="M670.56,19.82V16.91h6.5v2.91Z" transform="translate(-5.03 -3.57)"/><path class="cls-1" d="M694.95,13.07h-3.17v9.66c0,2,.48,2.59,2.08,2.59a3.54,3.54,0,0,0,1.5-.32l.35,1.79a6.38,6.38,0,0,1-2.91.67,4.57,4.57,0,0,1-2.82-.86c-.64-.58-1.09-1-1.09-3.2V13.07H687V11h1.92a34.73,34.73,0,0,1,.19-4.1l3-.7c-.13,1.15-.29,3.17-.29,4.8h3.9Z" transform="translate(-5.03 -3.57)"/><path class="cls-1" d="M709,27V16a3.53,3.53,0,0,0-.54-2.24,2.56,2.56,0,0,0-1.76-.61,6.14,6.14,0,0,0-4.26,2.34V27h-3V7.54a14,14,0,0,0-.35-3.36l3-.61a16.34,16.34,0,0,1,.35,3.71v3.58c0,.58,0,1.31-.1,2.14A11,11,0,0,1,704,11.7a6.19,6.19,0,0,1,3.49-1.09,4.1,4.1,0,0,1,4,2.4,6.51,6.51,0,0,1,.32,2.59V27Z" transform="translate(-5.03 -3.57)"/><path class="cls-1" d="M719.94,19.63V20a6,6,0,0,0,.67,3.2,4.18,4.18,0,0,0,3.68,1.89,5.7,5.7,0,0,0,3.94-1.54l1.12,1.76a8.19,8.19,0,0,1-5.54,2c-4.45,0-7.17-3.23-7.17-8.48,0-2.78.54-4.58,1.92-6.21a6,6,0,0,1,4.83-2.21,5.78,5.78,0,0,1,4.35,1.73c1.41,1.44,1.92,3.23,2,6.91v.51Zm5.7-5.79a2.88,2.88,0,0,0-2.3-1.12c-2.24,0-3.36,1.82-3.36,4.74h6.66A5.86,5.86,0,0,0,725.63,13.84Z" transform="translate(-5.03 -3.57)"/><path class="cls-1" d="M747.11,27.34a5.87,5.87,0,0,1-5.15-2.4,9.69,9.69,0,0,1-1.54-5.79c0-3.62,1.15-5.7,2.69-7.07a6.27,6.27,0,0,1,8.51.06l-1.54,2a3.91,3.91,0,0,0-2.82-1.25,3.08,3.08,0,0,0-2.82,1.73,11.38,11.38,0,0,0-.77,4.9c0,2.24.45,3.71,1.28,4.61a3.11,3.11,0,0,0,2.3,1,4.49,4.49,0,0,0,3.33-1.66L752,25.26A6.31,6.31,0,0,1,747.11,27.34Z" transform="translate(-5.03 -3.57)"/><path class="cls-1" d="M761.54,27.47c-4.29,0-6.94-3.26-6.94-8.48s2.66-8.45,6.88-8.45c4.74,0,7,3.78,7,8.61C768.51,24.24,765.79,27.47,761.54,27.47Zm-.06-14.65c-2.56,0-3.62,1.82-3.62,5.86,0,4.9,1.25,6.53,3.74,6.53,2.24,0,3.62-1.73,3.62-5.92C765.22,14.32,763.78,12.82,761.47,12.82Z" transform="translate(-5.03 -3.57)"/><path class="cls-1" d="M782.18,27V16.21c0-1.44-.13-2-.51-2.46A2,2,0,0,0,780,13.1a6.47,6.47,0,0,0-4,2V27h-2.91V15.09a8.75,8.75,0,0,0-.61-3.81l2.78-.77a5.09,5.09,0,0,1,.54,2.46A13.78,13.78,0,0,1,778,11.41a5.94,5.94,0,0,1,3-.8,4,4,0,0,1,3.78,2.27,5,5,0,0,1,.38,2V27Z" transform="translate(-5.03 -3.57)"/><path class="cls-1" d="M796.58,27.34a5.87,5.87,0,0,1-5.15-2.4,9.69,9.69,0,0,1-1.54-5.79c0-3.62,1.15-5.7,2.69-7.07a6.27,6.27,0,0,1,8.51.06l-1.54,2a3.91,3.91,0,0,0-2.82-1.25,3.08,3.08,0,0,0-2.82,1.73,11.38,11.38,0,0,0-.77,4.9c0,2.24.45,3.71,1.28,4.61a3.11,3.11,0,0,0,2.3,1,4.49,4.49,0,0,0,3.33-1.66l1.44,1.82A6.31,6.31,0,0,1,796.58,27.34Z" transform="translate(-5.03 -3.57)"/><path class="cls-1" d="M807.52,19.63V20a6,6,0,0,0,.67,3.2,4.18,4.18,0,0,0,3.68,1.89,5.7,5.7,0,0,0,3.94-1.54l1.12,1.76a8.19,8.19,0,0,1-5.54,2c-4.45,0-7.17-3.23-7.17-8.48,0-2.78.54-4.58,1.92-6.21A6,6,0,0,1,811,10.48a5.78,5.78,0,0,1,4.35,1.73c1.41,1.44,1.92,3.23,2,6.91v.51Zm5.7-5.79a2.88,2.88,0,0,0-2.3-1.12c-2.24,0-3.36,1.82-3.36,4.74h6.66A5.86,5.86,0,0,0,813.22,13.84Z" transform="translate(-5.03 -3.57)"/><path class="cls-1" d="M828.74,27.34a6.16,6.16,0,0,1-4.16-1.66,16.18,16.18,0,0,1,.06,1.79V33.1l-2.88.67V14.93a17,17,0,0,0-.35-3.94l2.85-.48a8.31,8.31,0,0,1,.19,2.3A5.81,5.81,0,0,1,829,10.58c3.26,0,6,2.66,6,8.16C835,23.73,832.83,27.34,828.74,27.34Zm-.26-14.27a5,5,0,0,0-3.84,2v8.16A5,5,0,0,0,828.06,25c2.59,0,3.78-2,3.78-5.89S831,13.07,828.48,13.07Z" transform="translate(-5.03 -3.57)"/><path class="cls-1" d="M845.86,13.07h-3.17v9.66c0,2,.48,2.59,2.08,2.59a3.54,3.54,0,0,0,1.5-.32l.35,1.79a6.38,6.38,0,0,1-2.91.67,4.57,4.57,0,0,1-2.82-.86c-.64-.58-1.09-1-1.09-3.2V13.07h-1.92V11h1.92A34.73,34.73,0,0,1,840,6.9l3-.7c-.13,1.15-.29,3.17-.29,4.8h3.9Z" transform="translate(-5.03 -3.57)"/><path class="cls-1" d="M850.72,31.6l-1-1.44a3.16,3.16,0,0,0,2.08-2.4c0-.45-.48-.58-1-.86A1.89,1.89,0,0,1,849.73,25a2.34,2.34,0,0,1,2.34-2.4c1.54,0,2.66,1.34,2.66,3.3A6.37,6.37,0,0,1,850.72,31.6Z" transform="translate(-5.03 -3.57)"/><path class="cls-1" d="M69.34,49.07H66.17v9.66c0,2,.48,2.59,2.08,2.59a3.54,3.54,0,0,0,1.5-.32l.35,1.79a6.38,6.38,0,0,1-2.91.67,4.57,4.57,0,0,1-2.82-.86c-.64-.58-1.09-1-1.09-3.2V49.07H61.37V47h1.92a34.73,34.73,0,0,1,.19-4.1l3-.7c-.13,1.15-.29,3.17-.29,4.8h3.9Z" transform="translate(-5.03 -3.57)"/><path class="cls-1" d="M83.35,63V52a3.53,3.53,0,0,0-.54-2.24A2.56,2.56,0,0,0,81,49.17a6.14,6.14,0,0,0-4.26,2.34V63h-3V43.54a14,14,0,0,0-.35-3.36l3-.61a16.34,16.34,0,0,1,.35,3.71v3.58c0,.58,0,1.31-.1,2.14a11,11,0,0,1,1.7-1.31,6.19,6.19,0,0,1,3.49-1.09,4.1,4.1,0,0,1,4,2.4,6.51,6.51,0,0,1,.32,2.59V63Z" transform="translate(-5.03 -3.57)"/><path class="cls-1" d="M94.33,55.63V56a6,6,0,0,0,.67,3.2,4.18,4.18,0,0,0,3.68,1.89,5.7,5.7,0,0,0,3.94-1.54l1.12,1.76a8.19,8.19,0,0,1-5.54,2c-4.45,0-7.17-3.23-7.17-8.48,0-2.78.54-4.58,1.92-6.21a6,6,0,0,1,4.83-2.21,5.78,5.78,0,0,1,4.35,1.73c1.41,1.44,1.92,3.23,2,6.91v.51Zm5.7-5.79a2.88,2.88,0,0,0-2.3-1.12c-2.24,0-3.36,1.82-3.36,4.74H101A5.86,5.86,0,0,0,100,49.84Z" transform="translate(-5.03 -3.57)"/><path class="cls-1" d="M120.47,63.47a12.21,12.21,0,0,1-6-1.7l1.06-2.11a10.93,10.93,0,0,0,5.15,1.6c1.76,0,3-1,3-2.59,0-1.38-.83-2.18-2.69-2.53l-2-.38c-2.53-.51-3.9-2.08-3.9-4.45,0-2.94,2.34-5,5.79-5A10.19,10.19,0,0,1,126,47.63l-1,2.08A8.67,8.67,0,0,0,121,48.56c-1.7,0-2.78,1-2.78,2.4,0,1.15.58,1.79,2.27,2.18l2.08.48c2.94.67,4.16,2.37,4.16,4.48C126.77,61.3,124.21,63.47,120.47,63.47Z" transform="translate(-5.03 -3.57)"/><path class="cls-1" d="M137.14,49.07H134v9.66c0,2,.48,2.59,2.08,2.59a3.54,3.54,0,0,0,1.5-.32l.35,1.79a6.38,6.38,0,0,1-2.91.67,4.57,4.57,0,0,1-2.82-.86c-.64-.58-1.09-1-1.09-3.2V49.07h-1.92V47h1.92a34.73,34.73,0,0,1,.19-4.1l3-.7c-.13,1.15-.29,3.17-.29,4.8h3.9Z" transform="translate(-5.03 -3.57)"/><path class="cls-1" d="M148.41,49.58a2.4,2.4,0,0,0-.83-.16,3.35,3.35,0,0,0-3.33,3.26V63H141.3V51.25a10.24,10.24,0,0,0-.61-4l2.85-.74a6.63,6.63,0,0,1,.54,2.46v.29c1.28-1.86,2.66-2.78,4.35-2.78a2.92,2.92,0,0,1,1,.16Z" transform="translate(-5.03 -3.57)"/><path class="cls-1" d="M162.9,63.7a3.66,3.66,0,0,1-2.14-2.3,5.57,5.57,0,0,1-4.54,2.11c-3.2,0-5.18-1.63-5.18-4.7,0-3.71,3-5.7,8.16-5.7.38,0,.7,0,1.12,0V52.08c0-1.89-.26-3.17-2.5-3.17a8.85,8.85,0,0,0-4.93,1.82l-1.34-2.11a12.62,12.62,0,0,1,6.72-2.11c2.34,0,4,.86,4.64,2.56a7.31,7.31,0,0,1,.32,2.82c0,1.15-.13,3.62-.13,6s.06,3.1,1.31,3.87Zm-3.62-8.61c-2.21,0-3.55.42-4.19,1.15a3.09,3.09,0,0,0-.83,2.34c0,1.76.9,2.78,2.53,2.78a4,4,0,0,0,3.36-2.11l.1-4.1C159.8,55.12,159.54,55.09,159.29,55.09Z" transform="translate(-5.03 -3.57)"/><path class="cls-1" d="M175,49.07H171.8v9.66c0,2,.48,2.59,2.08,2.59a3.54,3.54,0,0,0,1.5-.32l.35,1.79a6.38,6.38,0,0,1-2.91.67,4.57,4.57,0,0,1-2.82-.86c-.64-.58-1.09-1-1.09-3.2V49.07H167V47h1.92a34.73,34.73,0,0,1,.19-4.1l3-.7c-.13,1.15-.29,3.17-.29,4.8h3.9Z" transform="translate(-5.03 -3.57)"/><path class="cls-1" d="M181.46,55.63V56a6,6,0,0,0,.67,3.2,4.18,4.18,0,0,0,3.68,1.89,5.7,5.7,0,0,0,3.94-1.54l1.12,1.76a8.19,8.19,0,0,1-5.54,2c-4.45,0-7.17-3.23-7.17-8.48,0-2.78.54-4.58,1.92-6.21a6,6,0,0,1,4.83-2.21,5.78,5.78,0,0,1,4.35,1.73c1.41,1.44,1.92,3.23,2,6.91v.51Zm5.7-5.79a2.88,2.88,0,0,0-2.3-1.12c-2.24,0-3.36,1.82-3.36,4.74h6.66A5.86,5.86,0,0,0,187.16,49.84Z" transform="translate(-5.03 -3.57)"/><path class="cls-1" d="M207.48,49.27A3.81,3.81,0,0,1,206.1,49,4.48,4.48,0,0,1,207.25,52c0,2.3-1.57,5-5.76,5-1,.32-2.53,1.06-2.53,1.76,0,.48.38.8,1.15.8h2.46c4.1,0,5.79,1.92,5.79,4.42,0,3.46-2.85,5.18-6.75,5.18-4.48,0-7-1.57-7-4.22a4.8,4.8,0,0,1,.29-1.63l2.88-.16a3.09,3.09,0,0,0-.29,1.22c0,1.66,1.38,2.56,3.87,2.56s3.94-1.06,3.94-2.75c0-1.54-1.25-2.43-4.42-2.43-1.12,0-2.4-.1-3-.16-1.41-.16-2.24-1-2.24-2.14,0-1.5,1.31-2.14,3.14-2.82-2.46-.74-3.78-2.4-3.78-4.61,0-3.23,2.46-5.38,6.14-5.38a7.83,7.83,0,0,1,2.5.35,9,9,0,0,0,2.4.51,4.38,4.38,0,0,0,2.62-.93l1.5,1.82A4,4,0,0,1,207.48,49.27ZM201,48.85c-1.89,0-2.91,1-2.91,3.07a2.65,2.65,0,0,0,2.94,3c1.92,0,2.91-1.06,2.91-3S203.06,48.85,201,48.85Z" transform="translate(-5.03 -3.57)"/><path class="cls-1" d="M214.52,44.18a2.08,2.08,0,0,1-2-2.11,2.1,2.1,0,1,1,4.19,0A2.14,2.14,0,0,1,214.52,44.18ZM213,63V47.09l3-.48V63Z" transform="translate(-5.03 -3.57)"/><path class="cls-1" d="M227.54,63.34a5.87,5.87,0,0,1-5.15-2.4,9.69,9.69,0,0,1-1.54-5.79c0-3.62,1.15-5.7,2.69-7.07a6.27,6.27,0,0,1,8.51.06l-1.54,2a3.91,3.91,0,0,0-2.82-1.25,3.08,3.08,0,0,0-2.82,1.73,11.38,11.38,0,0,0-.77,4.9c0,2.24.45,3.71,1.28,4.61a3.11,3.11,0,0,0,2.3,1A4.49,4.49,0,0,0,231,59.44l1.44,1.82A6.31,6.31,0,0,1,227.54,63.34Z" transform="translate(-5.03 -3.57)"/><path class="cls-1" d="M254.26,63.7a3.66,3.66,0,0,1-2.14-2.3,5.57,5.57,0,0,1-4.54,2.11c-3.2,0-5.18-1.63-5.18-4.7,0-3.71,3-5.7,8.16-5.7.38,0,.7,0,1.12,0V52.08c0-1.89-.26-3.17-2.5-3.17a8.85,8.85,0,0,0-4.93,1.82l-1.34-2.11a12.62,12.62,0,0,1,6.72-2.11c2.34,0,4,.86,4.64,2.56a7.31,7.31,0,0,1,.32,2.82c0,1.15-.13,3.62-.13,6s.06,3.1,1.31,3.87Zm-3.62-8.61c-2.21,0-3.55.42-4.19,1.15a3.09,3.09,0,0,0-.83,2.34c0,1.76.9,2.78,2.53,2.78a4,4,0,0,0,3.36-2.11l.1-4.1C251.16,55.12,250.9,55.09,250.65,55.09Z" transform="translate(-5.03 -3.57)"/><path class="cls-1" d="M264.66,63.47a12.21,12.21,0,0,1-6-1.7l1.06-2.11a10.93,10.93,0,0,0,5.15,1.6c1.76,0,3-1,3-2.59,0-1.38-.83-2.18-2.69-2.53l-2-.38c-2.53-.51-3.9-2.08-3.9-4.45,0-2.94,2.34-5,5.79-5a10.19,10.19,0,0,1,5.06,1.31l-1,2.08a8.67,8.67,0,0,0-3.94-1.15c-1.7,0-2.78,1-2.78,2.4,0,1.15.58,1.79,2.27,2.18l2.08.48c2.94.67,4.16,2.37,4.16,4.48C271,61.3,268.41,63.47,264.66,63.47Z" transform="translate(-5.03 -3.57)"/><path class="cls-1" d="M279.83,63.47a12.21,12.21,0,0,1-6-1.7l1.06-2.11a10.93,10.93,0,0,0,5.15,1.6c1.76,0,3-1,3-2.59,0-1.38-.83-2.18-2.69-2.53l-2-.38c-2.53-.51-3.9-2.08-3.9-4.45,0-2.94,2.34-5,5.79-5a10.19,10.19,0,0,1,5.06,1.31l-1,2.08a8.67,8.67,0,0,0-3.94-1.15c-1.7,0-2.78,1-2.78,2.4,0,1.15.58,1.79,2.27,2.18l2.08.48c2.94.67,4.16,2.37,4.16,4.48C286.13,61.3,283.57,63.47,279.83,63.47Z" transform="translate(-5.03 -3.57)"/><path class="cls-1" d="M292.95,55.63V56a6,6,0,0,0,.67,3.2,4.18,4.18,0,0,0,3.68,1.89,5.7,5.7,0,0,0,3.94-1.54l1.12,1.76a8.19,8.19,0,0,1-5.54,2c-4.45,0-7.17-3.23-7.17-8.48,0-2.78.54-4.58,1.92-6.21a6,6,0,0,1,4.83-2.21,5.78,5.78,0,0,1,4.35,1.73c1.41,1.44,1.92,3.23,2,6.91v.51Zm5.7-5.79a2.88,2.88,0,0,0-2.3-1.12c-2.24,0-3.36,1.82-3.36,4.74h6.66A5.86,5.86,0,0,0,298.64,49.84Z" transform="translate(-5.03 -3.57)"/><path class="cls-1" d="M311.73,63.47a12.21,12.21,0,0,1-6-1.7l1.06-2.11a10.93,10.93,0,0,0,5.15,1.6c1.76,0,3-1,3-2.59,0-1.38-.83-2.18-2.69-2.53l-2-.38c-2.53-.51-3.9-2.08-3.9-4.45,0-2.94,2.34-5,5.79-5a10.19,10.19,0,0,1,5.06,1.31l-1,2.08a8.67,8.67,0,0,0-3.94-1.15c-1.7,0-2.78,1-2.78,2.4,0,1.15.58,1.79,2.27,2.18l2.08.48c2.94.67,4.16,2.37,4.16,4.48C318,61.3,315.48,63.47,311.73,63.47Z" transform="translate(-5.03 -3.57)"/><path class="cls-1" d="M326.9,63.47a12.21,12.21,0,0,1-6-1.7L322,59.66a10.93,10.93,0,0,0,5.15,1.6c1.76,0,3-1,3-2.59,0-1.38-.83-2.18-2.69-2.53l-2-.38c-2.53-.51-3.9-2.08-3.9-4.45,0-2.94,2.34-5,5.79-5a10.19,10.19,0,0,1,5.06,1.31l-1,2.08a8.67,8.67,0,0,0-3.94-1.15c-1.7,0-2.78,1-2.78,2.4,0,1.15.58,1.79,2.27,2.18l2.08.48c2.94.67,4.16,2.37,4.16,4.48C333.21,61.3,330.64,63.47,326.9,63.47Z" transform="translate(-5.03 -3.57)"/><path class="cls-1" d="M354.64,63V51.54c0-1.82-.58-2.46-1.92-2.46s-2.53,1-3.74,2.18V63H346.1V51.6c0-1.79-.51-2.46-2-2.46A5.51,5.51,0,0,0,340.44,51V63h-2.91V51.25a8.72,8.72,0,0,0-.58-4l2.75-.67a4.54,4.54,0,0,1,.54,2.24,6.55,6.55,0,0,1,4.51-2.27,4.14,4.14,0,0,1,3.81,2.53,6.87,6.87,0,0,1,4.9-2.53c2.5,0,4.1,1.57,4.1,4.51V63Z" transform="translate(-5.03 -3.57)"/><path class="cls-1" d="M365.65,55.63V56a6,6,0,0,0,.67,3.2A4.18,4.18,0,0,0,370,61.1a5.7,5.7,0,0,0,3.94-1.54l1.12,1.76a8.19,8.19,0,0,1-5.54,2c-4.45,0-7.17-3.23-7.17-8.48,0-2.78.54-4.58,1.92-6.21a6,6,0,0,1,4.83-2.21,5.78,5.78,0,0,1,4.35,1.73c1.41,1.44,1.92,3.23,2,6.91v.51Zm5.7-5.79a2.88,2.88,0,0,0-2.3-1.12c-2.24,0-3.36,1.82-3.36,4.74h6.66A5.86,5.86,0,0,0,371.35,49.84Z" transform="translate(-5.03 -3.57)"/><path class="cls-1" d="M388.92,63V52.21c0-1.44-.13-2-.51-2.46a2,2,0,0,0-1.63-.64,6.47,6.47,0,0,0-4,2V63h-2.91V51.09a8.75,8.75,0,0,0-.61-3.81l2.78-.77a5.09,5.09,0,0,1,.54,2.46,13.81,13.81,0,0,1,2.08-1.57,5.94,5.94,0,0,1,3-.8,4,4,0,0,1,3.78,2.27,5,5,0,0,1,.38,2V63Z" transform="translate(-5.03 -3.57)"/><path class="cls-1" d="M403.64,49.07h-3.17v9.66c0,2,.48,2.59,2.08,2.59a3.54,3.54,0,0,0,1.5-.32l.35,1.79a6.38,6.38,0,0,1-2.91.67,4.57,4.57,0,0,1-2.82-.86c-.64-.58-1.09-1-1.09-3.2V49.07h-1.92V47h1.92a34.73,34.73,0,0,1,.19-4.1l3-.7c-.13,1.15-.29,3.17-.29,4.8h3.9Z" transform="translate(-5.03 -3.57)"/><path class="cls-1" d="M420.82,63.47c-4.29,0-6.94-3.26-6.94-8.48s2.66-8.45,6.88-8.45c4.74,0,7,3.78,7,8.61C427.8,60.24,425.08,63.47,420.82,63.47Zm-.06-14.65c-2.56,0-3.62,1.82-3.62,5.86,0,4.9,1.25,6.53,3.74,6.53,2.24,0,3.62-1.73,3.62-5.92C424.5,50.32,423.06,48.82,420.76,48.82Z" transform="translate(-5.03 -3.57)"/><path class="cls-1" d="M439.6,42.45a4.58,4.58,0,0,0-2.08-.61c-1.34,0-2.14.93-2.14,2.56V47h4.26l-.77,2.08h-3.46V63h-3v-14H430.9V47h1.57c-.06-.32-.06-2.3-.06-2.56a4.61,4.61,0,0,1,1.79-4,4.88,4.88,0,0,1,2.91-.77,6.56,6.56,0,0,1,3.49.86Z" transform="translate(-5.03 -3.57)"/><path class="cls-1" d="M453.94,63.47a12.21,12.21,0,0,1-6-1.7L449,59.66a10.93,10.93,0,0,0,5.15,1.6c1.76,0,3-1,3-2.59,0-1.38-.83-2.18-2.69-2.53l-2-.38c-2.53-.51-3.9-2.08-3.9-4.45,0-2.94,2.34-5,5.79-5a10.19,10.19,0,0,1,5.06,1.31l-1,2.08a8.67,8.67,0,0,0-3.94-1.15c-1.7,0-2.78,1-2.78,2.4,0,1.15.58,1.79,2.27,2.18l2.08.48c2.94.67,4.16,2.37,4.16,4.48C460.24,61.3,457.68,63.47,453.94,63.47Z" transform="translate(-5.03 -3.57)"/><path class="cls-1" d="M467.06,55.63V56a6,6,0,0,0,.67,3.2,4.18,4.18,0,0,0,3.68,1.89,5.7,5.7,0,0,0,3.94-1.54l1.12,1.76a8.19,8.19,0,0,1-5.54,2c-4.45,0-7.17-3.23-7.17-8.48,0-2.78.54-4.58,1.92-6.21a6,6,0,0,1,4.83-2.21,5.78,5.78,0,0,1,4.35,1.73c1.41,1.44,1.92,3.23,2,6.91v.51Zm5.7-5.79a2.88,2.88,0,0,0-2.3-1.12c-2.24,0-3.36,1.82-3.36,4.74h6.66A5.86,5.86,0,0,0,472.76,49.84Z" transform="translate(-5.03 -3.57)"/><path class="cls-1" d="M488.4,49.58a2.4,2.4,0,0,0-.83-.16,3.35,3.35,0,0,0-3.33,3.26V63H481.3V51.25a10.24,10.24,0,0,0-.61-4l2.85-.74a6.63,6.63,0,0,1,.54,2.46v.29c1.28-1.86,2.66-2.78,4.35-2.78a2.92,2.92,0,0,1,1,.16Z" transform="translate(-5.03 -3.57)"/><path class="cls-1" d="M499,63.15h-2.75l-5.73-16.09,3-.48,3.17,9.7c.35,1.09.7,2.37,1,3.46h.06a28.68,28.68,0,0,1,1-3.52l3-9.22h3.1Z" transform="translate(-5.03 -3.57)"/><path class="cls-1" d="M509.27,44.18a2.08,2.08,0,0,1-2-2.11,2.1,2.1,0,1,1,4.19,0A2.14,2.14,0,0,1,509.27,44.18ZM507.76,63V47.09l3-.48V63Z" transform="translate(-5.03 -3.57)"/><path class="cls-1" d="M522.29,63.34a5.87,5.87,0,0,1-5.15-2.4,9.69,9.69,0,0,1-1.54-5.79c0-3.62,1.15-5.7,2.69-7.07a6.27,6.27,0,0,1,8.51.06l-1.54,2a3.91,3.91,0,0,0-2.82-1.25,3.08,3.08,0,0,0-2.82,1.73,11.38,11.38,0,0,0-.77,4.9c0,2.24.45,3.71,1.28,4.61a3.11,3.11,0,0,0,2.3,1,4.49,4.49,0,0,0,3.33-1.66l1.44,1.82A6.31,6.31,0,0,1,522.29,63.34Z" transform="translate(-5.03 -3.57)"/><path class="cls-1" d="M533.24,55.63V56a6,6,0,0,0,.67,3.2,4.18,4.18,0,0,0,3.68,1.89,5.7,5.7,0,0,0,3.94-1.54l1.12,1.76a8.19,8.19,0,0,1-5.54,2c-4.45,0-7.17-3.23-7.17-8.48,0-2.78.54-4.58,1.92-6.21a6,6,0,0,1,4.83-2.21A5.78,5.78,0,0,1,541,48.21c1.41,1.44,1.92,3.23,2,6.91v.51Zm5.7-5.79a2.88,2.88,0,0,0-2.3-1.12c-2.24,0-3.36,1.82-3.36,4.74h6.66A5.86,5.86,0,0,0,538.93,49.84Z" transform="translate(-5.03 -3.57)"/><path class="cls-1" d="M561.78,49.58a2.4,2.4,0,0,0-.83-.16,3.35,3.35,0,0,0-3.33,3.26V63h-2.94V51.25a10.24,10.24,0,0,0-.61-4l2.85-.74a6.63,6.63,0,0,1,.54,2.46v.29c1.28-1.86,2.66-2.78,4.35-2.78a2.92,2.92,0,0,1,1,.16Z" transform="translate(-5.03 -3.57)"/><path class="cls-1" d="M567.76,55.63V56a6,6,0,0,0,.67,3.2,4.18,4.18,0,0,0,3.68,1.89,5.7,5.7,0,0,0,3.94-1.54l1.12,1.76a8.19,8.19,0,0,1-5.54,2c-4.45,0-7.17-3.23-7.17-8.48,0-2.78.54-4.58,1.92-6.21a6,6,0,0,1,4.83-2.21,5.78,5.78,0,0,1,4.35,1.73c1.41,1.44,1.92,3.23,2,6.91v.51Zm5.7-5.79a2.88,2.88,0,0,0-2.3-1.12c-2.24,0-3.36,1.82-3.36,4.74h6.66A5.86,5.86,0,0,0,573.46,49.84Z" transform="translate(-5.03 -3.57)"/><path class="cls-1" d="M594.29,51.34V69l-2.82.7V63.82c0-.26,0-2,0-2.5a5.34,5.34,0,0,1-4.16,2c-3.23,0-6.3-2.53-6.3-8s2.24-8.86,6.34-8.86a5.34,5.34,0,0,1,4.35,2.21,4.83,4.83,0,0,1,.29-1.79h2.66A20.7,20.7,0,0,0,594.29,51.34Zm-2.85-.42a4.46,4.46,0,0,0-3.55-2c-2.53,0-3.68,2.21-3.68,5.76,0,4.61,1.47,6.08,3.81,6.08a4,4,0,0,0,3.42-2.14Z" transform="translate(-5.03 -3.57)"/><path class="cls-1" d="M610.93,63.57a3.78,3.78,0,0,1-1.5-2.3,5.88,5.88,0,0,1-4.83,2.3,4.51,4.51,0,0,1-4.32-2.4,6.82,6.82,0,0,1-.38-2.69V47.09l2.91-.58V57.68c0,1.63.16,2.27.74,2.82a2.93,2.93,0,0,0,1.86.7A4.41,4.41,0,0,0,609,58.67V47.15l2.91-.58V58.64c0,1.63.35,2.78,1,3.33Z" transform="translate(-5.03 -3.57)"/><path class="cls-1" d="M619.22,44.18a2.08,2.08,0,0,1-2-2.11,2.1,2.1,0,1,1,4.19,0A2.14,2.14,0,0,1,619.22,44.18ZM617.71,63V47.09l3-.48V63Z" transform="translate(-5.03 -3.57)"/><path class="cls-1" d="M633.62,49.58a2.4,2.4,0,0,0-.83-.16,3.35,3.35,0,0,0-3.33,3.26V63h-2.94V51.25a10.24,10.24,0,0,0-.61-4l2.85-.74A6.63,6.63,0,0,1,629.3,49v.29c1.28-1.86,2.66-2.78,4.35-2.78a2.92,2.92,0,0,1,1,.16Z" transform="translate(-5.03 -3.57)"/><path class="cls-1" d="M639.6,55.63V56a6,6,0,0,0,.67,3.2A4.18,4.18,0,0,0,644,61.1a5.7,5.7,0,0,0,3.94-1.54L649,61.33a8.19,8.19,0,0,1-5.54,2c-4.45,0-7.17-3.23-7.17-8.48,0-2.78.54-4.58,1.92-6.21a6,6,0,0,1,4.83-2.21,5.78,5.78,0,0,1,4.35,1.73c1.41,1.44,1.92,3.23,2,6.91v.51Zm5.7-5.79a2.88,2.88,0,0,0-2.3-1.12c-2.24,0-3.36,1.82-3.36,4.74h6.66A5.86,5.86,0,0,0,645.3,49.84Z" transform="translate(-5.03 -3.57)"/><path class="cls-1" d="M671,63V51.54c0-1.82-.58-2.46-1.92-2.46s-2.53,1-3.74,2.18V63h-2.88V51.6c0-1.79-.51-2.46-2-2.46A5.51,5.51,0,0,0,656.75,51V63h-2.91V51.25a8.72,8.72,0,0,0-.58-4l2.75-.67a4.54,4.54,0,0,1,.54,2.24,6.55,6.55,0,0,1,4.51-2.27,4.14,4.14,0,0,1,3.81,2.53,6.87,6.87,0,0,1,4.9-2.53c2.5,0,4.1,1.57,4.1,4.51V63Z" transform="translate(-5.03 -3.57)"/><path class="cls-1" d="M682,55.63V56a6,6,0,0,0,.67,3.2,4.18,4.18,0,0,0,3.68,1.89,5.7,5.7,0,0,0,3.94-1.54l1.12,1.76a8.19,8.19,0,0,1-5.54,2c-4.45,0-7.17-3.23-7.17-8.48,0-2.78.54-4.58,1.92-6.21a6,6,0,0,1,4.83-2.21,5.78,5.78,0,0,1,4.35,1.73c1.41,1.44,1.92,3.23,2,6.91v.51Zm5.7-5.79a2.88,2.88,0,0,0-2.3-1.12c-2.24,0-3.36,1.82-3.36,4.74h6.66A5.86,5.86,0,0,0,687.67,49.84Z" transform="translate(-5.03 -3.57)"/><path class="cls-1" d="M705.23,63V52.21c0-1.44-.13-2-.51-2.46a2,2,0,0,0-1.63-.64,6.47,6.47,0,0,0-4,2V63h-2.91V51.09a8.75,8.75,0,0,0-.61-3.81l2.78-.77a5.09,5.09,0,0,1,.54,2.46A13.81,13.81,0,0,1,701,47.41a5.94,5.94,0,0,1,3-.8,4,4,0,0,1,3.78,2.27,5,5,0,0,1,.38,2V63Z" transform="translate(-5.03 -3.57)"/><path class="cls-1" d="M720,49.07h-3.17v9.66c0,2,.48,2.59,2.08,2.59a3.54,3.54,0,0,0,1.5-.32l.35,1.79a6.38,6.38,0,0,1-2.91.67,4.57,4.57,0,0,1-2.82-.86c-.64-.58-1.09-1-1.09-3.2V49.07H712V47h1.92a34.73,34.73,0,0,1,.19-4.1l3-.7c-.13,1.15-.29,3.17-.29,4.8h3.9Z" transform="translate(-5.03 -3.57)"/><path class="cls-1" d="M729,63.47a12.21,12.21,0,0,1-6-1.7L724,59.66a10.93,10.93,0,0,0,5.15,1.6c1.76,0,3-1,3-2.59,0-1.38-.83-2.18-2.69-2.53l-2-.38c-2.53-.51-3.9-2.08-3.9-4.45,0-2.94,2.34-5,5.79-5a10.19,10.19,0,0,1,5.06,1.31l-1,2.08a8.67,8.67,0,0,0-3.94-1.15c-1.7,0-2.78,1-2.78,2.4,0,1.15.58,1.79,2.27,2.18l2.08.48c2.94.67,4.16,2.37,4.16,4.48C735.28,61.3,732.72,63.47,729,63.47Z" transform="translate(-5.03 -3.57)"/><path class="cls-1" d="M740,67.6l-1-1.44a3.16,3.16,0,0,0,2.08-2.4c0-.45-.48-.58-1-.86A1.89,1.89,0,0,1,739,61a2.34,2.34,0,0,1,2.34-2.4c1.54,0,2.66,1.34,2.66,3.3A6.37,6.37,0,0,1,740,67.6Z" transform="translate(-5.03 -3.57)"/><path class="cls-1" d="M762.51,49.07h-3.17v9.66c0,2,.48,2.59,2.08,2.59a3.54,3.54,0,0,0,1.5-.32l.35,1.79a6.38,6.38,0,0,1-2.91.67,4.57,4.57,0,0,1-2.82-.86c-.64-.58-1.09-1-1.09-3.2V49.07h-1.92V47h1.92a34.73,34.73,0,0,1,.19-4.1l3-.7c-.13,1.15-.29,3.17-.29,4.8h3.9Z" transform="translate(-5.03 -3.57)"/><path class="cls-1" d="M776.53,63V52a3.53,3.53,0,0,0-.54-2.24,2.56,2.56,0,0,0-1.76-.61A6.14,6.14,0,0,0,770,51.5V63h-3V43.54a14,14,0,0,0-.35-3.36l3-.61a16.34,16.34,0,0,1,.35,3.71v3.58c0,.58,0,1.31-.1,2.14a11,11,0,0,1,1.7-1.31,6.19,6.19,0,0,1,3.49-1.09,4.1,4.1,0,0,1,4,2.4,6.51,6.51,0,0,1,.32,2.59V63Z" transform="translate(-5.03 -3.57)"/><path class="cls-1" d="M787.5,55.63V56a6,6,0,0,0,.67,3.2,4.18,4.18,0,0,0,3.68,1.89,5.7,5.7,0,0,0,3.94-1.54l1.12,1.76a8.19,8.19,0,0,1-5.54,2c-4.45,0-7.17-3.23-7.17-8.48,0-2.78.54-4.58,1.92-6.21A6,6,0,0,1,791,46.48a5.78,5.78,0,0,1,4.35,1.73c1.41,1.44,1.92,3.23,2,6.91v.51Zm5.7-5.79a2.88,2.88,0,0,0-2.3-1.12c-2.24,0-3.36,1.82-3.36,4.74h6.66A5.86,5.86,0,0,0,793.2,49.84Z" transform="translate(-5.03 -3.57)"/><path class="cls-1" d="M18.63,99.34a6.16,6.16,0,0,1-4.16-1.66,16.18,16.18,0,0,1,.06,1.79v5.63l-2.88.67V86.93A17,17,0,0,0,11.31,83l2.85-.48a8.31,8.31,0,0,1,.19,2.3,5.81,5.81,0,0,1,4.54-2.24c3.26,0,6,2.66,6,8.16C24.91,95.73,22.73,99.34,18.63,99.34Zm-.26-14.27a5,5,0,0,0-3.84,2v8.16A5,5,0,0,0,18,97c2.59,0,3.78-2,3.78-5.89S20.91,85.07,18.38,85.07Z" transform="translate(-5.03 -3.57)"/><path class="cls-1" d="M36.81,85.58a2.4,2.4,0,0,0-.83-.16,3.35,3.35,0,0,0-3.33,3.26V99H29.71V87.25a10.24,10.24,0,0,0-.61-4l2.85-.74A6.63,6.63,0,0,1,32.49,85v.29c1.28-1.86,2.66-2.78,4.35-2.78a2.92,2.92,0,0,1,1,.16Z" transform="translate(-5.03 -3.57)"/><path class="cls-1" d="M42.79,91.63V92a6,6,0,0,0,.67,3.2,4.18,4.18,0,0,0,3.68,1.89,5.7,5.7,0,0,0,3.94-1.54l1.12,1.76a8.19,8.19,0,0,1-5.54,2c-4.45,0-7.17-3.23-7.17-8.48,0-2.78.54-4.58,1.92-6.21a6,6,0,0,1,4.83-2.21,5.78,5.78,0,0,1,4.35,1.73c1.41,1.44,1.92,3.23,2,6.91v.51Zm5.7-5.79a2.88,2.88,0,0,0-2.3-1.12c-2.24,0-3.36,1.82-3.36,4.74h6.66A5.86,5.86,0,0,0,48.49,85.84Z" transform="translate(-5.03 -3.57)"/><path class="cls-1" d="M60.14,99.34a2.72,2.72,0,0,1-2.5-1.22c-.48-.67-.61-1.22-.61-2.78V80.82a20.87,20.87,0,0,0-.35-4.61l3.07-.64A19.88,19.88,0,0,1,60,80.15V95.06c0,1.12.1,1.7.51,2a1.2,1.2,0,0,0,.9.13L62,99A4.31,4.31,0,0,1,60.14,99.34Z" transform="translate(-5.03 -3.57)"/><path class="cls-1" d="M67.31,80.18a2.08,2.08,0,0,1-2-2.11,2.1,2.1,0,1,1,4.19,0A2.14,2.14,0,0,1,67.31,80.18ZM65.8,99V83.09l3-.48V99Z" transform="translate(-5.03 -3.57)"/><path class="cls-1" d="M91.72,99V87.54c0-1.82-.58-2.46-1.92-2.46s-2.53,1-3.74,2.18V99H83.18V87.6c0-1.79-.51-2.46-2-2.46A5.51,5.51,0,0,0,77.51,87V99H74.6V87.25a8.72,8.72,0,0,0-.58-4l2.75-.67a4.54,4.54,0,0,1,.54,2.24,6.55,6.55,0,0,1,4.51-2.27,4.14,4.14,0,0,1,3.81,2.53,6.87,6.87,0,0,1,4.9-2.53c2.5,0,4.1,1.57,4.1,4.51V99Z" transform="translate(-5.03 -3.57)"/><path class="cls-1" d="M101.9,80.18a2.08,2.08,0,0,1-2-2.11,2.1,2.1,0,1,1,4.19,0A2.14,2.14,0,0,1,101.9,80.18ZM100.39,99V83.09l3-.48V99Z" transform="translate(-5.03 -3.57)"/><path class="cls-1" d="M118.22,99V88.21c0-1.44-.13-2-.51-2.46a2,2,0,0,0-1.63-.64,6.47,6.47,0,0,0-4,2V99h-2.91V87.09a8.75,8.75,0,0,0-.61-3.81l2.78-.77a5.09,5.09,0,0,1,.54,2.46A13.78,13.78,0,0,1,114,83.41a5.94,5.94,0,0,1,3-.8,4,4,0,0,1,3.78,2.27,5,5,0,0,1,.38,2V99Z" transform="translate(-5.03 -3.57)"/><path class="cls-1" d="M137.32,99.7a3.66,3.66,0,0,1-2.14-2.3,5.57,5.57,0,0,1-4.54,2.11c-3.2,0-5.18-1.63-5.18-4.7,0-3.71,3-5.7,8.16-5.7.38,0,.7,0,1.12,0V88.08c0-1.89-.26-3.17-2.5-3.17a8.85,8.85,0,0,0-4.93,1.82L126,84.63a12.62,12.62,0,0,1,6.72-2.11c2.34,0,4,.86,4.64,2.56a7.31,7.31,0,0,1,.32,2.82c0,1.15-.13,3.62-.13,6s.06,3.1,1.31,3.87Zm-3.62-8.61c-2.21,0-3.55.42-4.19,1.15a3.09,3.09,0,0,0-.83,2.34c0,1.76.9,2.78,2.53,2.78a4,4,0,0,0,3.36-2.11l.1-4.1C134.22,91.12,134,91.09,133.71,91.09Z" transform="translate(-5.03 -3.57)"/><path class="cls-1" d="M150.44,85.58a2.4,2.4,0,0,0-.83-.16,3.35,3.35,0,0,0-3.33,3.26V99h-2.94V87.25a10.24,10.24,0,0,0-.61-4l2.85-.74a6.63,6.63,0,0,1,.54,2.46v.29c1.28-1.86,2.66-2.78,4.35-2.78a2.92,2.92,0,0,1,1,.16Z" transform="translate(-5.03 -3.57)"/><path class="cls-1" d="M161.51,99.54c-.77,2.27-1.6,4-2.72,4.93a7.09,7.09,0,0,1-3,1.38l-.93-1.92a4.87,4.87,0,0,0,2.78-1.82A9.06,9.06,0,0,0,159,99l-1.15.16a47.74,47.74,0,0,0-1.54-5.34l-3.55-10.53,3-.67,3.07,10.08c.29,1,.7,2.69.93,3.78h.19c.26-1.09.64-2.53,1.09-4L163.85,83h3.26Z" transform="translate(-5.03 -3.57)"/><path class="cls-1" d="M179.69,91.63V92a6,6,0,0,0,.67,3.2A4.18,4.18,0,0,0,184,97.1,5.7,5.7,0,0,0,188,95.57l1.12,1.76a8.19,8.19,0,0,1-5.54,2c-4.45,0-7.17-3.23-7.17-8.48,0-2.78.54-4.58,1.92-6.21a6,6,0,0,1,4.83-2.21,5.78,5.78,0,0,1,4.35,1.73c1.41,1.44,1.92,3.23,2,6.91v.51Zm5.7-5.79a2.88,2.88,0,0,0-2.3-1.12c-2.24,0-3.36,1.82-3.36,4.74h6.66A5.86,5.86,0,0,0,185.38,85.84Z" transform="translate(-5.03 -3.57)"/><path class="cls-1" d="M199.85,99.15H197.1l-5.73-16.09,3-.48,3.17,9.7c.35,1.09.7,2.37,1,3.46h.06a28.68,28.68,0,0,1,1-3.52l3-9.22h3.1Z" transform="translate(-5.03 -3.57)"/><path class="cls-1" d="M219.33,99.7a3.66,3.66,0,0,1-2.14-2.3,5.57,5.57,0,0,1-4.54,2.11c-3.2,0-5.18-1.63-5.18-4.7,0-3.71,3-5.7,8.16-5.7.38,0,.7,0,1.12,0V88.08c0-1.89-.26-3.17-2.5-3.17a8.85,8.85,0,0,0-4.93,1.82L208,84.63a12.62,12.62,0,0,1,6.72-2.11c2.34,0,4,.86,4.64,2.56a7.31,7.31,0,0,1,.32,2.82c0,1.15-.13,3.62-.13,6s.06,3.1,1.31,3.87Zm-3.62-8.61c-2.21,0-3.55.42-4.19,1.15a3.09,3.09,0,0,0-.83,2.34c0,1.76.9,2.78,2.53,2.78a4,4,0,0,0,3.36-2.11l.1-4.1C216.23,91.12,216,91.09,215.72,91.09Z" transform="translate(-5.03 -3.57)"/><path class="cls-1" d="M228.3,99.34a2.72,2.72,0,0,1-2.5-1.22c-.48-.67-.61-1.22-.61-2.78V80.82a20.87,20.87,0,0,0-.35-4.61l3.07-.64a19.88,19.88,0,0,1,.29,4.58V95.06c0,1.12.1,1.7.51,2a1.2,1.2,0,0,0,.9.13l.51,1.82A4.31,4.31,0,0,1,228.3,99.34Z" transform="translate(-5.03 -3.57)"/><path class="cls-1" d="M244.84,99.57a3.78,3.78,0,0,1-1.5-2.3,5.88,5.88,0,0,1-4.83,2.3,4.51,4.51,0,0,1-4.32-2.4,6.82,6.82,0,0,1-.38-2.69V83.09l2.91-.58V93.68c0,1.63.16,2.27.74,2.82a2.93,2.93,0,0,0,1.86.7A4.41,4.41,0,0,0,243,94.67V83.15l2.91-.58V94.64c0,1.63.35,2.78,1,3.33Z" transform="translate(-5.03 -3.57)"/><path class="cls-1" d="M262.37,99.7a3.66,3.66,0,0,1-2.14-2.3,5.57,5.57,0,0,1-4.54,2.11c-3.2,0-5.18-1.63-5.18-4.7,0-3.71,3-5.7,8.16-5.7.38,0,.7,0,1.12,0V88.08c0-1.89-.26-3.17-2.5-3.17a8.85,8.85,0,0,0-4.93,1.82L251,84.63a12.62,12.62,0,0,1,6.72-2.11c2.34,0,4,.86,4.64,2.56a7.31,7.31,0,0,1,.32,2.82c0,1.15-.13,3.62-.13,6s.06,3.1,1.31,3.87Zm-3.62-8.61c-2.21,0-3.55.42-4.19,1.15a3.09,3.09,0,0,0-.83,2.34c0,1.76.9,2.78,2.53,2.78a4,4,0,0,0,3.36-2.11l.1-4.1C259.27,91.12,259,91.09,258.76,91.09Z" transform="translate(-5.03 -3.57)"/><path class="cls-1" d="M274.44,85.07h-3.17v9.66c0,2,.48,2.59,2.08,2.59a3.54,3.54,0,0,0,1.5-.32l.35,1.79a6.38,6.38,0,0,1-2.91.67,4.57,4.57,0,0,1-2.82-.86c-.64-.58-1.09-1-1.09-3.2V85.07h-1.92V83h1.92a34.73,34.73,0,0,1,.19-4.1l3-.7c-.13,1.15-.29,3.17-.29,4.8h3.9Z" transform="translate(-5.03 -3.57)"/><path class="cls-1" d="M280.42,80.18a2.08,2.08,0,0,1-2-2.11,2.1,2.1,0,1,1,4.19,0A2.14,2.14,0,0,1,280.42,80.18ZM278.92,99V83.09l3-.48V99Z" transform="translate(-5.03 -3.57)"/><path class="cls-1" d="M293.54,99.47c-4.29,0-6.94-3.26-6.94-8.48s2.66-8.45,6.88-8.45c4.74,0,7,3.78,7,8.61C300.52,96.24,297.8,99.47,293.54,99.47Zm-.06-14.65c-2.56,0-3.62,1.82-3.62,5.86,0,4.9,1.25,6.53,3.74,6.53,2.24,0,3.62-1.73,3.62-5.92C297.22,86.32,295.78,84.82,293.48,84.82Z" transform="translate(-5.03 -3.57)"/><path class="cls-1" d="M314.18,99V88.21c0-1.44-.13-2-.51-2.46A2,2,0,0,0,312,85.1a6.47,6.47,0,0,0-4,2V99h-2.91V87.09a8.75,8.75,0,0,0-.61-3.81l2.78-.77a5.09,5.09,0,0,1,.54,2.46A13.81,13.81,0,0,1,310,83.41a5.94,5.94,0,0,1,3-.8,4,4,0,0,1,3.78,2.27,5,5,0,0,1,.38,2V99Z" transform="translate(-5.03 -3.57)"/><path class="cls-1" d="M340.8,99.7a3.66,3.66,0,0,1-2.14-2.3,5.57,5.57,0,0,1-4.54,2.11c-3.2,0-5.18-1.63-5.18-4.7,0-3.71,3-5.7,8.16-5.7.38,0,.7,0,1.12,0V88.08c0-1.89-.26-3.17-2.5-3.17a8.85,8.85,0,0,0-4.93,1.82l-1.34-2.11a12.62,12.62,0,0,1,6.72-2.11c2.34,0,4,.86,4.64,2.56a7.31,7.31,0,0,1,.32,2.82c0,1.15-.13,3.62-.13,6s.06,3.1,1.31,3.87Zm-3.62-8.61c-2.21,0-3.55.42-4.19,1.15a3.09,3.09,0,0,0-.83,2.34c0,1.76.9,2.78,2.53,2.78a4,4,0,0,0,3.36-2.11l.1-4.1C337.7,91.12,337.45,91.09,337.19,91.09Z" transform="translate(-5.03 -3.57)"/><path class="cls-1" d="M355.84,99V88.21c0-1.44-.13-2-.51-2.46a2,2,0,0,0-1.63-.64,6.47,6.47,0,0,0-4,2V99h-2.91V87.09a8.75,8.75,0,0,0-.61-3.81l2.78-.77a5.09,5.09,0,0,1,.54,2.46,13.81,13.81,0,0,1,2.08-1.57,5.94,5.94,0,0,1,3-.8,4,4,0,0,1,3.78,2.27,5,5,0,0,1,.38,2V99Z" transform="translate(-5.03 -3.57)"/><path class="cls-1" d="M374.47,99a6.24,6.24,0,0,1-.29-1.5,5.35,5.35,0,0,1-4.13,1.76c-4.1,0-6.5-3.07-6.5-8.13,0-3.46,1.18-6.11,3.36-7.52a5.53,5.53,0,0,1,3.14-.93,4.78,4.78,0,0,1,3.9,1.86c0-.45-.06-1.73-.06-2.82V75.51l2.94.48V93.65a19.2,19.2,0,0,0,.45,5.38Zm-.61-12.45a4.11,4.11,0,0,0-3.39-1.5,3.14,3.14,0,0,0-2.78,1.63,8.52,8.52,0,0,0-.83,4.42c0,3.1.38,4,1.25,4.86a3,3,0,0,0,2.37.83A3.8,3.8,0,0,0,373.86,95Z" transform="translate(-5.03 -3.57)"/><path class="cls-1" d="M395.52,85.07h-3.17v9.66c0,2,.48,2.59,2.08,2.59a3.54,3.54,0,0,0,1.5-.32l.35,1.79a6.38,6.38,0,0,1-2.91.67,4.57,4.57,0,0,1-2.82-.86c-.64-.58-1.09-1-1.09-3.2V85.07h-1.92V83h1.92a34.73,34.73,0,0,1,.19-4.1l3-.7c-.13,1.15-.29,3.17-.29,4.8h3.9Z" transform="translate(-5.03 -3.57)"/><path class="cls-1" d="M409.54,99V88a3.53,3.53,0,0,0-.54-2.24,2.56,2.56,0,0,0-1.76-.61A6.14,6.14,0,0,0,403,87.5V99h-3V79.54a14,14,0,0,0-.35-3.36l3-.61a16.34,16.34,0,0,1,.35,3.71v3.58c0,.58,0,1.31-.1,2.14a11,11,0,0,1,1.7-1.31,6.19,6.19,0,0,1,3.49-1.09,4.1,4.1,0,0,1,4,2.4,6.51,6.51,0,0,1,.32,2.59V99Z" transform="translate(-5.03 -3.57)"/><path class="cls-1" d="M420.52,91.63V92a6,6,0,0,0,.67,3.2,4.18,4.18,0,0,0,3.68,1.89,5.7,5.7,0,0,0,3.94-1.54l1.12,1.76a8.19,8.19,0,0,1-5.54,2c-4.45,0-7.17-3.23-7.17-8.48,0-2.78.54-4.58,1.92-6.21A6,6,0,0,1,424,82.48a5.78,5.78,0,0,1,4.35,1.73c1.41,1.44,1.92,3.23,2,6.91v.51Zm5.7-5.79a2.88,2.88,0,0,0-2.3-1.12c-2.24,0-3.36,1.82-3.36,4.74h6.66A5.86,5.86,0,0,0,426.21,85.84Z" transform="translate(-5.03 -3.57)"/><path class="cls-1" d="M452.39,98.13a5.25,5.25,0,0,1-3.46,1.22,5.14,5.14,0,0,1-4.13-2.11,6.09,6.09,0,0,1-.48,1.79h-2.78a10.36,10.36,0,0,0,.42-3.74V80a11.25,11.25,0,0,0-.51-3.84l3.14-.64a16.48,16.48,0,0,1,.32,3.46v3.71a9.67,9.67,0,0,1-.1,1.66l.1.06a5.49,5.49,0,0,1,4.19-1.79c3.81,0,6.18,3.1,6.18,8.16C455.27,94.06,454.24,96.62,452.39,98.13ZM451.27,86.8a3.09,3.09,0,0,0-2.85-1.66,4,4,0,0,0-2.53.86,3.66,3.66,0,0,0-1,1v8.13a4.74,4.74,0,0,0,3.46,1.7A3.08,3.08,0,0,0,451,95.38a9.27,9.27,0,0,0,.9-4.7C451.94,88.53,451.81,87.79,451.27,86.8Z" transform="translate(-5.03 -3.57)"/><path class="cls-1" d="M470.79,99.57a3.78,3.78,0,0,1-1.5-2.3,5.88,5.88,0,0,1-4.83,2.3,4.51,4.51,0,0,1-4.32-2.4,6.82,6.82,0,0,1-.38-2.69V83.09l2.91-.58V93.68c0,1.63.16,2.27.74,2.82a2.93,2.93,0,0,0,1.86.7,4.41,4.41,0,0,0,3.65-2.53V83.15l2.91-.58V94.64c0,1.63.35,2.78,1,3.33Z" transform="translate(-5.03 -3.57)"/><path class="cls-1" d="M482.12,99.47a12.21,12.21,0,0,1-6-1.7l1.06-2.11a10.93,10.93,0,0,0,5.15,1.6c1.76,0,3-1,3-2.59,0-1.38-.83-2.18-2.69-2.53l-2-.38c-2.53-.51-3.9-2.08-3.9-4.45,0-2.94,2.34-5,5.79-5a10.19,10.19,0,0,1,5.06,1.31l-1,2.08a8.67,8.67,0,0,0-3.94-1.15c-1.7,0-2.78,1-2.78,2.4,0,1.15.58,1.79,2.27,2.18l2.08.48c2.94.67,4.16,2.37,4.16,4.48C488.42,97.3,485.86,99.47,482.12,99.47Z" transform="translate(-5.03 -3.57)"/><path class="cls-1" d="M494.08,80.18a2.08,2.08,0,0,1-2-2.11,2.1,2.1,0,1,1,4.19,0A2.14,2.14,0,0,1,494.08,80.18ZM492.58,99V83.09l3-.48V99Z" transform="translate(-5.03 -3.57)"/><path class="cls-1" d="M510.4,99V88.21c0-1.44-.13-2-.51-2.46a2,2,0,0,0-1.63-.64,6.47,6.47,0,0,0-4,2V99h-2.91V87.09a8.75,8.75,0,0,0-.61-3.81l2.78-.77A5.09,5.09,0,0,1,504.1,85a13.78,13.78,0,0,1,2.08-1.57,5.94,5.94,0,0,1,3-.8,4,4,0,0,1,3.78,2.27,5,5,0,0,1,.38,2V99Z" transform="translate(-5.03 -3.57)"/><path class="cls-1" d="M521.41,91.63V92a6,6,0,0,0,.67,3.2,4.18,4.18,0,0,0,3.68,1.89,5.7,5.7,0,0,0,3.94-1.54l1.12,1.76a8.19,8.19,0,0,1-5.54,2c-4.45,0-7.17-3.23-7.17-8.48,0-2.78.54-4.58,1.92-6.21a6,6,0,0,1,4.83-2.21,5.78,5.78,0,0,1,4.35,1.73c1.41,1.44,1.92,3.23,2,6.91v.51Zm5.7-5.79a2.88,2.88,0,0,0-2.3-1.12c-2.24,0-3.36,1.82-3.36,4.74h6.66A5.86,5.86,0,0,0,527.11,85.84Z" transform="translate(-5.03 -3.57)"/><path class="cls-1" d="M540.19,99.47a12.21,12.21,0,0,1-6-1.7l1.06-2.11a10.93,10.93,0,0,0,5.15,1.6c1.76,0,3-1,3-2.59,0-1.38-.83-2.18-2.69-2.53l-2-.38c-2.53-.51-3.9-2.08-3.9-4.45,0-2.94,2.34-5,5.79-5a10.19,10.19,0,0,1,5.06,1.31l-1,2.08a8.67,8.67,0,0,0-3.94-1.15c-1.7,0-2.78,1-2.78,2.4,0,1.15.58,1.79,2.27,2.18l2.08.48c2.94.67,4.16,2.37,4.16,4.48C546.5,97.3,543.94,99.47,540.19,99.47Z" transform="translate(-5.03 -3.57)"/><path class="cls-1" d="M555.36,99.47a12.21,12.21,0,0,1-6-1.7l1.06-2.11a10.93,10.93,0,0,0,5.15,1.6c1.76,0,3-1,3-2.59,0-1.38-.83-2.18-2.69-2.53l-2-.38c-2.53-.51-3.9-2.08-3.9-4.45,0-2.94,2.34-5,5.79-5a10.19,10.19,0,0,1,5.06,1.31l-1,2.08a8.67,8.67,0,0,0-3.94-1.15c-1.7,0-2.78,1-2.78,2.4,0,1.15.58,1.79,2.27,2.18l2.08.48c2.94.67,4.16,2.37,4.16,4.48C561.67,97.3,559.11,99.47,555.36,99.47Z" transform="translate(-5.03 -3.57)"/><path class="cls-1" d="M578.75,99.34a5.87,5.87,0,0,1-5.15-2.4,9.69,9.69,0,0,1-1.54-5.79c0-3.62,1.15-5.7,2.69-7.07a6.27,6.27,0,0,1,8.51.06l-1.54,2a3.91,3.91,0,0,0-2.82-1.25,3.08,3.08,0,0,0-2.82,1.73,11.38,11.38,0,0,0-.77,4.9c0,2.24.45,3.71,1.28,4.61a3.11,3.11,0,0,0,2.3,1,4.49,4.49,0,0,0,3.33-1.66l1.44,1.82A6.31,6.31,0,0,1,578.75,99.34Z" transform="translate(-5.03 -3.57)"/><path class="cls-1" d="M598.11,99.7a3.66,3.66,0,0,1-2.14-2.3,5.57,5.57,0,0,1-4.54,2.11c-3.2,0-5.18-1.63-5.18-4.7,0-3.71,3-5.7,8.16-5.7.38,0,.7,0,1.12,0V88.08c0-1.89-.26-3.17-2.5-3.17a8.85,8.85,0,0,0-4.93,1.82l-1.34-2.11a12.62,12.62,0,0,1,6.72-2.11c2.34,0,4,.86,4.64,2.56a7.31,7.31,0,0,1,.32,2.82c0,1.15-.13,3.62-.13,6s.06,3.1,1.31,3.87Zm-3.62-8.61c-2.21,0-3.55.42-4.19,1.15a3.09,3.09,0,0,0-.83,2.34c0,1.76.9,2.78,2.53,2.78a4,4,0,0,0,3.36-2.11l.1-4.1C595,91.12,594.75,91.09,594.5,91.09Z" transform="translate(-5.03 -3.57)"/><path class="cls-1" d="M608.51,99.47a12.21,12.21,0,0,1-6-1.7l1.06-2.11a10.93,10.93,0,0,0,5.15,1.6c1.76,0,3-1,3-2.59,0-1.38-.83-2.18-2.69-2.53l-2-.38c-2.53-.51-3.9-2.08-3.9-4.45,0-2.94,2.34-5,5.79-5A10.19,10.19,0,0,1,614,83.63l-1,2.08a8.67,8.67,0,0,0-3.94-1.15c-1.7,0-2.78,1-2.78,2.4,0,1.15.58,1.79,2.27,2.18l2.08.48c2.94.67,4.16,2.37,4.16,4.48C614.82,97.3,612.26,99.47,608.51,99.47Z" transform="translate(-5.03 -3.57)"/><path class="cls-1" d="M621.63,91.63V92a6,6,0,0,0,.67,3.2A4.18,4.18,0,0,0,626,97.1a5.7,5.7,0,0,0,3.94-1.54L631,97.33a8.19,8.19,0,0,1-5.54,2c-4.45,0-7.17-3.23-7.17-8.48,0-2.78.54-4.58,1.92-6.21a6,6,0,0,1,4.83-2.21,5.78,5.78,0,0,1,4.35,1.73c1.41,1.44,1.92,3.23,2,6.91v.51Zm5.7-5.79a2.88,2.88,0,0,0-2.3-1.12c-2.24,0-3.36,1.82-3.36,4.74h6.66A5.86,5.86,0,0,0,627.33,85.84Z" transform="translate(-5.03 -3.57)"/><path class="cls-1" d="M649.67,104.11a11,11,0,0,1-6.27-6.53,28.17,28.17,0,0,1-1.28-8.86c0-2.91.32-6.37,1.5-8.61a12.93,12.93,0,0,1,6-5.89l.74,1.54A9.59,9.59,0,0,0,646,81.39a26.36,26.36,0,0,0-.83,7.26,32.83,32.83,0,0,0,.93,8.26,9.18,9.18,0,0,0,4.38,5.66Z" transform="translate(-5.03 -3.57)"/><path class="cls-1" d="M658.66,99.47c-4.29,0-6.94-3.26-6.94-8.48s2.66-8.45,6.88-8.45c4.74,0,7,3.78,7,8.61C665.63,96.24,662.91,99.47,658.66,99.47Zm-.06-14.65c-2.56,0-3.62,1.82-3.62,5.86,0,4.9,1.25,6.53,3.74,6.53,2.24,0,3.62-1.73,3.62-5.92C662.34,86.32,660.9,84.82,658.59,84.82Z" transform="translate(-5.03 -3.57)"/><path class="cls-1" d="M677.38,85.58a2.4,2.4,0,0,0-.83-.16,3.35,3.35,0,0,0-3.33,3.26V99h-2.94V87.25a10.24,10.24,0,0,0-.61-4l2.85-.74a6.63,6.63,0,0,1,.54,2.46v.29c1.28-1.86,2.66-2.78,4.35-2.78a2.92,2.92,0,0,1,1,.16Z" transform="translate(-5.03 -3.57)"/><path class="cls-1" d="M691,91.63V92a6,6,0,0,0,.67,3.2,4.18,4.18,0,0,0,3.68,1.89,5.7,5.7,0,0,0,3.94-1.54l1.12,1.76a8.19,8.19,0,0,1-5.54,2c-4.45,0-7.17-3.23-7.17-8.48,0-2.78.54-4.58,1.92-6.21a6,6,0,0,1,4.83-2.21,5.78,5.78,0,0,1,4.35,1.73c1.41,1.44,1.92,3.23,2,6.91v.51Zm5.7-5.79a2.88,2.88,0,0,0-2.3-1.12c-2.24,0-3.36,1.82-3.36,4.74h6.66A5.86,5.86,0,0,0,696.67,85.84Z" transform="translate(-5.03 -3.57)"/><path class="cls-1" d="M717.5,87.34V105l-2.82.7V99.82c0-.26,0-2,0-2.5a5.34,5.34,0,0,1-4.16,2c-3.23,0-6.3-2.53-6.3-8s2.24-8.86,6.34-8.86a5.34,5.34,0,0,1,4.35,2.21,4.83,4.83,0,0,1,.29-1.79h2.66A20.7,20.7,0,0,0,717.5,87.34Zm-2.85-.42a4.46,4.46,0,0,0-3.55-2c-2.53,0-3.68,2.21-3.68,5.76,0,4.61,1.47,6.08,3.81,6.08a4,4,0,0,0,3.42-2.14Z" transform="translate(-5.03 -3.57)"/><path class="cls-1" d="M734.14,99.57a3.78,3.78,0,0,1-1.5-2.3,5.88,5.88,0,0,1-4.83,2.3,4.51,4.51,0,0,1-4.32-2.4,6.82,6.82,0,0,1-.38-2.69V83.09l2.91-.58V93.68c0,1.63.16,2.27.74,2.82a2.93,2.93,0,0,0,1.86.7,4.41,4.41,0,0,0,3.65-2.53V83.15l2.91-.58V94.64c0,1.63.35,2.78,1,3.33Z" transform="translate(-5.03 -3.57)"/><path class="cls-1" d="M742.43,80.18a2.08,2.08,0,0,1-2-2.11,2.1,2.1,0,1,1,4.19,0A2.14,2.14,0,0,1,742.43,80.18ZM740.93,99V83.09l3-.48V99Z" transform="translate(-5.03 -3.57)"/><path class="cls-1" d="M755.33,99.15h-2.75l-5.73-16.09,3-.48,3.17,9.7c.35,1.09.7,2.37,1,3.46h.06a28.68,28.68,0,0,1,1-3.52l3-9.22h3.1Z" transform="translate(-5.03 -3.57)"/><path class="cls-1" d="M774.81,99.7a3.66,3.66,0,0,1-2.14-2.3,5.57,5.57,0,0,1-4.54,2.11c-3.2,0-5.18-1.63-5.18-4.7,0-3.71,3-5.7,8.16-5.7.38,0,.7,0,1.12,0V88.08c0-1.89-.26-3.17-2.5-3.17a8.85,8.85,0,0,0-4.93,1.82l-1.34-2.11a12.62,12.62,0,0,1,6.72-2.11c2.34,0,4,.86,4.64,2.56a7.31,7.31,0,0,1,.32,2.82c0,1.15-.13,3.62-.13,6s.06,3.1,1.31,3.87Zm-3.62-8.61c-2.21,0-3.55.42-4.19,1.15a3.09,3.09,0,0,0-.83,2.34c0,1.76.9,2.78,2.53,2.78a4,4,0,0,0,3.36-2.11l.1-4.1C771.71,91.12,771.46,91.09,771.2,91.09Z" transform="translate(-5.03 -3.57)"/><path class="cls-1" d="M783.78,99.34a2.72,2.72,0,0,1-2.5-1.22c-.48-.67-.61-1.22-.61-2.78V80.82a20.87,20.87,0,0,0-.35-4.61l3.07-.64a19.88,19.88,0,0,1,.29,4.58V95.06c0,1.12.1,1.7.51,2a1.2,1.2,0,0,0,.9.13L785.6,99A4.31,4.31,0,0,1,783.78,99.34Z" transform="translate(-5.03 -3.57)"/><path class="cls-1" d="M791.78,91.63V92a6,6,0,0,0,.67,3.2,4.18,4.18,0,0,0,3.68,1.89,5.7,5.7,0,0,0,3.94-1.54l1.12,1.76a8.19,8.19,0,0,1-5.54,2c-4.45,0-7.17-3.23-7.17-8.48,0-2.78.54-4.58,1.92-6.21a6,6,0,0,1,4.83-2.21,5.78,5.78,0,0,1,4.35,1.73c1.41,1.44,1.92,3.23,2,6.91v.51Zm5.7-5.79a2.88,2.88,0,0,0-2.3-1.12c-2.24,0-3.36,1.82-3.36,4.74h6.66A5.86,5.86,0,0,0,797.47,85.84Z" transform="translate(-5.03 -3.57)"/><path class="cls-1" d="M815,99V88.21c0-1.44-.13-2-.51-2.46a2,2,0,0,0-1.63-.64,6.47,6.47,0,0,0-4,2V99H806V87.09a8.75,8.75,0,0,0-.61-3.81l2.78-.77a5.09,5.09,0,0,1,.54,2.46,13.78,13.78,0,0,1,2.08-1.57,5.94,5.94,0,0,1,3-.8,4,4,0,0,1,3.78,2.27,5,5,0,0,1,.38,2V99Z" transform="translate(-5.03 -3.57)"/><path class="cls-1" d="M829.76,85.07h-3.17v9.66c0,2,.48,2.59,2.08,2.59a3.54,3.54,0,0,0,1.5-.32l.35,1.79a6.38,6.38,0,0,1-2.91.67,4.57,4.57,0,0,1-2.82-.86c-.64-.58-1.09-1-1.09-3.2V85.07h-1.92V83h1.92a34.73,34.73,0,0,1,.19-4.1l3-.7c-.13,1.15-.29,3.17-.29,4.8h3.9Z" transform="translate(-5.03 -3.57)"/><path class="cls-1" d="M837.92,97.58a11.37,11.37,0,0,1-6.27,6.53l-.77-1.54a9.18,9.18,0,0,0,4.38-5.66,31.59,31.59,0,0,0,1-8.26,28.93,28.93,0,0,0-.86-7.26c-.7-2.59-2.08-4.06-4.42-5.63l.74-1.54a12.93,12.93,0,0,1,6,5.89c1.18,2.24,1.54,5.7,1.54,8.61A26.34,26.34,0,0,1,837.92,97.58Z" transform="translate(-5.03 -3.57)"/><path class="cls-1" d="M845.82,99.47a2.4,2.4,0,1,1,2.27-2.4A2.31,2.31,0,0,1,845.82,99.47Z" transform="translate(-5.03 -3.57)"/><path class="cls-1" d="M53.22,135.44a13.5,13.5,0,0,1-7.1-2l1.22-2.37a10.85,10.85,0,0,0,6,1.82c2.88,0,4.77-1.47,4.77-3.84,0-1.79-1.18-3-3.65-3.74l-2.3-.67c-3.33-1-5.22-2.56-5.22-5.7,0-3.81,2.94-6.4,7.3-6.4a11.7,11.7,0,0,1,6.75,2.08l-1.38,2.18a9.27,9.27,0,0,0-5.25-1.73c-2.46,0-4,1.28-4,3.33,0,1.57.9,2.46,3.26,3.17l2.59.77c2.94.86,5.38,2.78,5.38,6.21C61.54,131.66,59,135.44,53.22,135.44Z" transform="translate(-5.03 -3.57)"/><path class="cls-1" d="M72,135.47c-4.29,0-6.94-3.26-6.94-8.48s2.66-8.45,6.88-8.45c4.74,0,7,3.78,7,8.61C79,132.24,76.26,135.47,72,135.47Zm-.06-14.65c-2.56,0-3.62,1.82-3.62,5.86,0,4.9,1.25,6.53,3.74,6.53,2.24,0,3.62-1.73,3.62-5.92C75.69,122.32,74.25,120.82,71.94,120.82Z" transform="translate(-5.03 -3.57)"/><path class="cls-1" d="M100.74,135V123.54c0-1.82-.58-2.46-1.92-2.46s-2.53,1-3.74,2.18V135H92.2V123.6c0-1.79-.51-2.46-2-2.46A5.51,5.51,0,0,0,86.54,123v12H83.62V123.25a8.72,8.72,0,0,0-.58-4l2.75-.67a4.54,4.54,0,0,1,.54,2.24,6.55,6.55,0,0,1,4.51-2.27,4.14,4.14,0,0,1,3.81,2.53,6.87,6.87,0,0,1,4.9-2.53c2.5,0,4.1,1.57,4.1,4.51v12Z" transform="translate(-5.03 -3.57)"/><path class="cls-1" d="M111.75,127.63V128a6,6,0,0,0,.67,3.2,4.18,4.18,0,0,0,3.68,1.89,5.7,5.7,0,0,0,3.94-1.54l1.12,1.76a8.19,8.19,0,0,1-5.54,2c-4.45,0-7.17-3.23-7.17-8.48,0-2.78.54-4.58,1.92-6.21a6,6,0,0,1,4.83-2.21,5.78,5.78,0,0,1,4.35,1.73c1.41,1.44,1.92,3.23,2,6.91v.51Zm5.7-5.79a2.88,2.88,0,0,0-2.3-1.12c-2.24,0-3.36,1.82-3.36,4.74h6.66A5.86,5.86,0,0,0,117.45,121.84Z" transform="translate(-5.03 -3.57)"/><path class="cls-1" d="M137.9,135.47a12.21,12.21,0,0,1-6-1.7l1.06-2.11a10.93,10.93,0,0,0,5.15,1.6c1.76,0,3-1,3-2.59,0-1.38-.83-2.18-2.69-2.53l-2-.38c-2.53-.51-3.9-2.08-3.9-4.45,0-2.94,2.34-5,5.79-5a10.19,10.19,0,0,1,5.06,1.31l-1,2.08a8.67,8.67,0,0,0-3.94-1.15c-1.7,0-2.78,1-2.78,2.4,0,1.15.58,1.79,2.27,2.18l2.08.48c2.94.67,4.16,2.37,4.16,4.48C144.2,133.3,141.64,135.47,137.9,135.47Z" transform="translate(-5.03 -3.57)"/><path class="cls-1" d="M154.57,121.07H151.4v9.66c0,2,.48,2.59,2.08,2.59A3.54,3.54,0,0,0,155,133l.35,1.79a6.38,6.38,0,0,1-2.91.67,4.57,4.57,0,0,1-2.82-.86c-.64-.58-1.09-1-1.09-3.2V121.07H146.6V119h1.92a34.73,34.73,0,0,1,.19-4.1l3-.7c-.13,1.15-.29,3.17-.29,4.8h3.9Z" transform="translate(-5.03 -3.57)"/><path class="cls-1" d="M165.83,121.58a2.4,2.4,0,0,0-.83-.16,3.35,3.35,0,0,0-3.33,3.26V135h-2.94V123.25a10.24,10.24,0,0,0-.61-4l2.85-.74a6.63,6.63,0,0,1,.54,2.46v.29c1.28-1.86,2.66-2.78,4.35-2.78a2.92,2.92,0,0,1,1,.16Z" transform="translate(-5.03 -3.57)"/><path class="cls-1" d="M180.33,135.7a3.66,3.66,0,0,1-2.14-2.3,5.57,5.57,0,0,1-4.54,2.11c-3.2,0-5.18-1.63-5.18-4.7,0-3.71,3-5.7,8.16-5.7.38,0,.7,0,1.12,0v-1.06c0-1.89-.26-3.17-2.5-3.17a8.85,8.85,0,0,0-4.93,1.82L169,120.63a12.62,12.62,0,0,1,6.72-2.11c2.34,0,4,.86,4.64,2.56a7.31,7.31,0,0,1,.32,2.82c0,1.15-.13,3.62-.13,6s.06,3.1,1.31,3.87Zm-3.62-8.61c-2.21,0-3.55.42-4.19,1.15a3.09,3.09,0,0,0-.83,2.34c0,1.76.9,2.78,2.53,2.78a4,4,0,0,0,3.36-2.11l.1-4.1C177.22,127.12,177,127.09,176.71,127.09Z" transform="translate(-5.03 -3.57)"/><path class="cls-1" d="M192.39,121.07h-3.17v9.66c0,2,.48,2.59,2.08,2.59a3.54,3.54,0,0,0,1.5-.32l.35,1.79a6.38,6.38,0,0,1-2.91.67,4.57,4.57,0,0,1-2.82-.86c-.64-.58-1.09-1-1.09-3.2V121.07h-1.92V119h1.92a34.73,34.73,0,0,1,.19-4.1l3-.7c-.13,1.15-.29,3.17-.29,4.8h3.9Z" transform="translate(-5.03 -3.57)"/><path class="cls-1" d="M198.89,127.63V128a6,6,0,0,0,.67,3.2,4.18,4.18,0,0,0,3.68,1.89,5.7,5.7,0,0,0,3.94-1.54l1.12,1.76a8.19,8.19,0,0,1-5.54,2c-4.45,0-7.17-3.23-7.17-8.48,0-2.78.54-4.58,1.92-6.21a6,6,0,0,1,4.83-2.21,5.78,5.78,0,0,1,4.35,1.73c1.41,1.44,1.92,3.23,2,6.91v.51Zm5.7-5.79a2.88,2.88,0,0,0-2.3-1.12c-2.24,0-3.36,1.82-3.36,4.74h6.66A5.86,5.86,0,0,0,204.58,121.84Z" transform="translate(-5.03 -3.57)"/><path class="cls-1" d="M224.9,121.27a3.81,3.81,0,0,1-1.38-.26,4.48,4.48,0,0,1,1.15,2.94c0,2.3-1.57,5-5.76,5-1,.32-2.53,1.06-2.53,1.76,0,.48.38.8,1.15.8H220c4.1,0,5.79,1.92,5.79,4.42,0,3.46-2.85,5.18-6.75,5.18-4.48,0-7-1.57-7-4.22a4.8,4.8,0,0,1,.29-1.63l2.88-.16a3.09,3.09,0,0,0-.29,1.22c0,1.66,1.38,2.56,3.87,2.56s3.94-1.06,3.94-2.75c0-1.54-1.25-2.43-4.42-2.43-1.12,0-2.4-.1-3-.16-1.41-.16-2.24-1-2.24-2.14,0-1.5,1.31-2.14,3.14-2.82-2.46-.74-3.78-2.4-3.78-4.61,0-3.23,2.46-5.38,6.14-5.38a7.83,7.83,0,0,1,2.5.35,9,9,0,0,0,2.4.51,4.38,4.38,0,0,0,2.62-.93l1.5,1.82A4,4,0,0,1,224.9,121.27Zm-6.43-.42c-1.89,0-2.91,1-2.91,3.07a2.65,2.65,0,0,0,2.94,3c1.92,0,2.91-1.06,2.91-3S220.49,120.85,218.47,120.85Z" transform="translate(-5.03 -3.57)"/><path class="cls-1" d="M231.94,116.18a2.08,2.08,0,0,1-2-2.11,2.1,2.1,0,1,1,4.19,0A2.14,2.14,0,0,1,231.94,116.18ZM230.44,135V119.09l3-.48V135Z" transform="translate(-5.03 -3.57)"/><path class="cls-1" d="M245,135.34a5.87,5.87,0,0,1-5.15-2.4,9.69,9.69,0,0,1-1.54-5.79c0-3.62,1.15-5.7,2.69-7.07a6.27,6.27,0,0,1,8.51.06l-1.54,2a3.91,3.91,0,0,0-2.82-1.25,3.08,3.08,0,0,0-2.82,1.73,11.38,11.38,0,0,0-.77,4.9c0,2.24.45,3.71,1.28,4.61a3.11,3.11,0,0,0,2.3,1,4.49,4.49,0,0,0,3.33-1.66l1.44,1.82A6.31,6.31,0,0,1,245,135.34Z" transform="translate(-5.03 -3.57)"/><path class="cls-1" d="M262.44,116.18a2.08,2.08,0,0,1-2-2.11,2.1,2.1,0,1,1,4.19,0A2.14,2.14,0,0,1,262.44,116.18ZM260.93,135V119.09l3-.48V135Z" transform="translate(-5.03 -3.57)"/><path class="cls-1" d="M278.76,135V124.21c0-1.44-.13-2-.51-2.46a2,2,0,0,0-1.63-.64,6.47,6.47,0,0,0-4,2V135h-2.91V123.09a8.75,8.75,0,0,0-.61-3.81l2.78-.77a5.09,5.09,0,0,1,.54,2.46,13.81,13.81,0,0,1,2.08-1.57,5.94,5.94,0,0,1,3-.8,4,4,0,0,1,3.78,2.27,5,5,0,0,1,.38,2V135Z" transform="translate(-5.03 -3.57)"/><path class="cls-1" d="M288.93,116.18a2.08,2.08,0,0,1-2-2.11,2.1,2.1,0,1,1,4.19,0A2.14,2.14,0,0,1,288.93,116.18ZM287.43,135V119.09l3-.48V135Z" transform="translate(-5.03 -3.57)"/><path class="cls-1" d="M302.28,121.07h-3.17v9.66c0,2,.48,2.59,2.08,2.59a3.54,3.54,0,0,0,1.5-.32l.35,1.79a6.38,6.38,0,0,1-2.91.67,4.57,4.57,0,0,1-2.82-.86c-.64-.58-1.09-1-1.09-3.2V121.07h-1.92V119h1.92a34.73,34.73,0,0,1,.19-4.1l3-.7c-.13,1.15-.29,3.17-.29,4.8h3.9Z" transform="translate(-5.03 -3.57)"/><path class="cls-1" d="M308.26,116.18a2.08,2.08,0,0,1-2-2.11,2.1,2.1,0,1,1,4.19,0A2.14,2.14,0,0,1,308.26,116.18ZM306.76,135V119.09l3-.48V135Z" transform="translate(-5.03 -3.57)"/><path class="cls-1" d="M326.15,135.7a3.66,3.66,0,0,1-2.14-2.3,5.57,5.57,0,0,1-4.54,2.11c-3.2,0-5.18-1.63-5.18-4.7,0-3.71,3-5.7,8.16-5.7.38,0,.7,0,1.12,0v-1.06c0-1.89-.26-3.17-2.5-3.17a8.85,8.85,0,0,0-4.93,1.82l-1.34-2.11a12.62,12.62,0,0,1,6.72-2.11c2.34,0,4,.86,4.64,2.56a7.31,7.31,0,0,1,.32,2.82c0,1.15-.13,3.62-.13,6s.06,3.1,1.31,3.87Zm-3.62-8.61c-2.21,0-3.55.42-4.19,1.15a3.09,3.09,0,0,0-.83,2.34c0,1.76.9,2.78,2.53,2.78a4,4,0,0,0,3.36-2.11l.1-4.1C323,127.12,322.79,127.09,322.53,127.09Z" transform="translate(-5.03 -3.57)"/><path class="cls-1" d="M338.21,121.07H335v9.66c0,2,.48,2.59,2.08,2.59a3.54,3.54,0,0,0,1.5-.32l.35,1.79a6.38,6.38,0,0,1-2.91.67,4.57,4.57,0,0,1-2.82-.86c-.64-.58-1.09-1-1.09-3.2V121.07h-1.92V119h1.92a34.73,34.73,0,0,1,.19-4.1l3-.7c-.13,1.15-.29,3.17-.29,4.8H339Z" transform="translate(-5.03 -3.57)"/><path class="cls-1" d="M344.2,116.18a2.08,2.08,0,0,1-2-2.11,2.1,2.1,0,1,1,4.19,0A2.14,2.14,0,0,1,344.2,116.18ZM342.69,135V119.09l3-.48V135Z" transform="translate(-5.03 -3.57)"/><path class="cls-1" d="M357.09,135.15h-2.75l-5.73-16.09,3-.48,3.17,9.7c.35,1.09.7,2.37,1,3.46h.06a28.68,28.68,0,0,1,1-3.52l3-9.22h3.1Z" transform="translate(-5.03 -3.57)"/><path class="cls-1" d="M368.07,127.63V128a6,6,0,0,0,.67,3.2,4.18,4.18,0,0,0,3.68,1.89,5.7,5.7,0,0,0,3.94-1.54l1.12,1.76a8.19,8.19,0,0,1-5.54,2c-4.45,0-7.17-3.23-7.17-8.48,0-2.78.54-4.58,1.92-6.21a6,6,0,0,1,4.83-2.21,5.78,5.78,0,0,1,4.35,1.73c1.41,1.44,1.92,3.23,2,6.91v.51Zm5.7-5.79a2.88,2.88,0,0,0-2.3-1.12c-2.24,0-3.36,1.82-3.36,4.74h6.66A5.86,5.86,0,0,0,373.76,121.84Z" transform="translate(-5.03 -3.57)"/><path class="cls-1" d="M386.85,135.47a12.21,12.21,0,0,1-6-1.7l1.06-2.11a10.93,10.93,0,0,0,5.15,1.6c1.76,0,3-1,3-2.59,0-1.38-.83-2.18-2.69-2.53l-2-.38c-2.53-.51-3.9-2.08-3.9-4.45,0-2.94,2.34-5,5.79-5a10.19,10.19,0,0,1,5.06,1.31l-1,2.08a8.67,8.67,0,0,0-3.94-1.15c-1.7,0-2.78,1-2.78,2.4,0,1.15.58,1.79,2.27,2.18l2.08.48c2.94.67,4.16,2.37,4.16,4.48C393.16,133.3,390.6,135.47,386.85,135.47Z" transform="translate(-5.03 -3.57)"/><path class="cls-1" d="M397.86,139.6l-1-1.44a3.16,3.16,0,0,0,2.08-2.4c0-.45-.48-.58-1-.86a1.89,1.89,0,0,1-1.06-1.86,2.34,2.34,0,0,1,2.34-2.4c1.54,0,2.66,1.34,2.66,3.3A6.37,6.37,0,0,1,397.86,139.6Z" transform="translate(-5.03 -3.57)"/><path class="cls-1" d="M419,135.47a12.21,12.21,0,0,1-6-1.7l1.06-2.11a10.93,10.93,0,0,0,5.15,1.6c1.76,0,3-1,3-2.59,0-1.38-.83-2.18-2.69-2.53l-2-.38c-2.53-.51-3.9-2.08-3.9-4.45,0-2.94,2.34-5,5.79-5a10.19,10.19,0,0,1,5.06,1.31l-1,2.08a8.67,8.67,0,0,0-3.94-1.15c-1.7,0-2.78,1-2.78,2.4,0,1.15.58,1.79,2.27,2.18l2.08.48c2.94.67,4.16,2.37,4.16,4.48C425.35,133.3,422.79,135.47,419,135.47Z" transform="translate(-5.03 -3.57)"/><path class="cls-1" d="M440.55,135.57a3.78,3.78,0,0,1-1.5-2.3,5.88,5.88,0,0,1-4.83,2.3,4.51,4.51,0,0,1-4.32-2.4,6.82,6.82,0,0,1-.38-2.69V119.09l2.91-.58v11.17c0,1.63.16,2.27.74,2.82a2.93,2.93,0,0,0,1.86.7,4.41,4.41,0,0,0,3.65-2.53V119.15l2.91-.58v12.06c0,1.63.35,2.78,1,3.33Z" transform="translate(-5.03 -3.57)"/><path class="cls-1" d="M453.06,135.34a5.87,5.87,0,0,1-5.15-2.4,9.69,9.69,0,0,1-1.54-5.79c0-3.62,1.15-5.7,2.69-7.07a6.27,6.27,0,0,1,8.51.06l-1.54,2a3.91,3.91,0,0,0-2.82-1.25,3.08,3.08,0,0,0-2.82,1.73,11.38,11.38,0,0,0-.77,4.9c0,2.24.45,3.71,1.28,4.61a3.11,3.11,0,0,0,2.3,1,4.49,4.49,0,0,0,3.33-1.66l1.44,1.82A6.31,6.31,0,0,1,453.06,135.34Z" transform="translate(-5.03 -3.57)"/><path class="cls-1" d="M471.52,135V124a3.53,3.53,0,0,0-.54-2.24,2.56,2.56,0,0,0-1.76-.61A6.14,6.14,0,0,0,465,123.5V135h-3V115.54a14,14,0,0,0-.35-3.36l3-.61a16.34,16.34,0,0,1,.35,3.71v3.58c0,.58,0,1.31-.1,2.14a11,11,0,0,1,1.7-1.31,6.19,6.19,0,0,1,3.49-1.09,4.1,4.1,0,0,1,4,2.4,6.51,6.51,0,0,1,.32,2.59V135Z" transform="translate(-5.03 -3.57)"/><path class="cls-1" d="M498.12,135.7a3.66,3.66,0,0,1-2.14-2.3,5.57,5.57,0,0,1-4.54,2.11c-3.2,0-5.18-1.63-5.18-4.7,0-3.71,3-5.7,8.16-5.7.38,0,.7,0,1.12,0v-1.06c0-1.89-.26-3.17-2.5-3.17a8.85,8.85,0,0,0-4.93,1.82l-1.34-2.11a12.62,12.62,0,0,1,6.72-2.11c2.34,0,4,.86,4.64,2.56a7.31,7.31,0,0,1,.32,2.82c0,1.15-.13,3.62-.13,6s.06,3.1,1.31,3.87Zm-3.62-8.61c-2.21,0-3.55.42-4.19,1.15a3.09,3.09,0,0,0-.83,2.34c0,1.76.9,2.78,2.53,2.78a4,4,0,0,0,3.36-2.11l.1-4.1C495,127.12,494.76,127.09,494.5,127.09Z" transform="translate(-5.03 -3.57)"/><path class="cls-1" d="M508.52,135.47a12.21,12.21,0,0,1-6-1.7l1.06-2.11a10.93,10.93,0,0,0,5.15,1.6c1.76,0,3-1,3-2.59,0-1.38-.83-2.18-2.69-2.53l-2-.38c-2.53-.51-3.9-2.08-3.9-4.45,0-2.94,2.34-5,5.79-5a10.19,10.19,0,0,1,5.06,1.31l-1,2.08a8.67,8.67,0,0,0-3.94-1.15c-1.7,0-2.78,1-2.78,2.4,0,1.15.58,1.79,2.27,2.18l2.08.48c2.94.67,4.16,2.37,4.16,4.48C514.82,133.3,512.26,135.47,508.52,135.47Z" transform="translate(-5.03 -3.57)"/><path class="cls-1" d="M531.91,135.34a5.87,5.87,0,0,1-5.15-2.4,9.69,9.69,0,0,1-1.54-5.79c0-3.62,1.15-5.7,2.69-7.07a6.27,6.27,0,0,1,8.51.06l-1.54,2a3.91,3.91,0,0,0-2.82-1.25,3.08,3.08,0,0,0-2.82,1.73,11.38,11.38,0,0,0-.77,4.9c0,2.24.45,3.71,1.28,4.61a3.11,3.11,0,0,0,2.3,1,4.49,4.49,0,0,0,3.33-1.66l1.44,1.82A6.31,6.31,0,0,1,531.91,135.34Z" transform="translate(-5.03 -3.57)"/><path class="cls-1" d="M546.34,135.47c-4.29,0-6.94-3.26-6.94-8.48s2.66-8.45,6.88-8.45c4.74,0,7,3.78,7,8.61C553.31,132.24,550.59,135.47,546.34,135.47Zm-.06-14.65c-2.56,0-3.62,1.82-3.62,5.86,0,4.9,1.25,6.53,3.74,6.53,2.24,0,3.62-1.73,3.62-5.92C550,122.32,548.58,120.82,546.27,120.82Z" transform="translate(-5.03 -3.57)"/><path class="cls-1" d="M565.06,121.58a2.4,2.4,0,0,0-.83-.16,3.35,3.35,0,0,0-3.33,3.26V135H558V123.25a10.24,10.24,0,0,0-.61-4l2.85-.74a6.63,6.63,0,0,1,.54,2.46v.29c1.28-1.86,2.66-2.78,4.35-2.78a2.92,2.92,0,0,1,1,.16Z" transform="translate(-5.03 -3.57)"/><path class="cls-1" d="M576.23,121.58a2.4,2.4,0,0,0-.83-.16,3.35,3.35,0,0,0-3.33,3.26V135h-2.94V123.25a10.24,10.24,0,0,0-.61-4l2.85-.74a6.63,6.63,0,0,1,.54,2.46v.29c1.28-1.86,2.66-2.78,4.35-2.78a2.92,2.92,0,0,1,1,.16Z" transform="translate(-5.03 -3.57)"/><path class="cls-1" d="M581.64,116.18a2.08,2.08,0,0,1-2-2.11,2.1,2.1,0,1,1,4.19,0A2.14,2.14,0,0,1,581.64,116.18ZM580.13,135V119.09l3-.48V135Z" transform="translate(-5.03 -3.57)"/><path class="cls-1" d="M598.88,135a6.24,6.24,0,0,1-.29-1.5,5.35,5.35,0,0,1-4.13,1.76c-4.1,0-6.5-3.07-6.5-8.13,0-3.46,1.18-6.11,3.36-7.52a5.53,5.53,0,0,1,3.14-.93,4.78,4.78,0,0,1,3.9,1.86c0-.45-.06-1.73-.06-2.82v-6.24l2.94.48v17.66a19.2,19.2,0,0,0,.45,5.38Zm-.61-12.45a4.11,4.11,0,0,0-3.39-1.5,3.14,3.14,0,0,0-2.78,1.63,8.52,8.52,0,0,0-.83,4.42c0,3.1.38,4,1.25,4.86a3,3,0,0,0,2.37.83,3.8,3.8,0,0,0,3.39-1.86Z" transform="translate(-5.03 -3.57)"/><path class="cls-1" d="M612.83,135.47c-4.29,0-6.94-3.26-6.94-8.48s2.66-8.45,6.88-8.45c4.74,0,7,3.78,7,8.61C619.81,132.24,617.09,135.47,612.83,135.47Zm-.06-14.65c-2.56,0-3.62,1.82-3.62,5.86,0,4.9,1.25,6.53,3.74,6.53,2.24,0,3.62-1.73,3.62-5.92C616.51,122.32,615.07,120.82,612.77,120.82Z" transform="translate(-5.03 -3.57)"/><path class="cls-1" d="M631.55,121.58a2.4,2.4,0,0,0-.83-.16,3.35,3.35,0,0,0-3.33,3.26V135h-2.94V123.25a10.24,10.24,0,0,0-.61-4l2.85-.74a6.63,6.63,0,0,1,.54,2.46v.29c1.28-1.86,2.66-2.78,4.35-2.78a2.92,2.92,0,0,1,1,.16Z" transform="translate(-5.03 -3.57)"/><path class="cls-1" d="M649.79,135.34a6.16,6.16,0,0,1-4.16-1.66,16.18,16.18,0,0,1,.06,1.79v5.63l-2.88.67V122.93a17,17,0,0,0-.35-3.94l2.85-.48a8.31,8.31,0,0,1,.19,2.3,5.81,5.81,0,0,1,4.54-2.24c3.26,0,6,2.66,6,8.16C656.07,131.73,653.89,135.34,649.79,135.34Zm-.26-14.27a5,5,0,0,0-3.84,2v8.16a5,5,0,0,0,3.42,1.76c2.59,0,3.78-2,3.78-5.89S652.07,121.07,649.54,121.07Z" transform="translate(-5.03 -3.57)"/><path class="cls-1" d="M668,121.58a2.4,2.4,0,0,0-.83-.16,3.35,3.35,0,0,0-3.33,3.26V135h-2.94V123.25a10.24,10.24,0,0,0-.61-4l2.85-.74a6.63,6.63,0,0,1,.54,2.46v.29c1.28-1.86,2.66-2.78,4.35-2.78a2.92,2.92,0,0,1,1,.16Z" transform="translate(-5.03 -3.57)"/><path class="cls-1" d="M674,127.63V128a6,6,0,0,0,.67,3.2,4.18,4.18,0,0,0,3.68,1.89,5.7,5.7,0,0,0,3.94-1.54l1.12,1.76a8.19,8.19,0,0,1-5.54,2c-4.45,0-7.17-3.23-7.17-8.48,0-2.78.54-4.58,1.92-6.21a6,6,0,0,1,4.83-2.21,5.78,5.78,0,0,1,4.35,1.73c1.41,1.44,1.92,3.23,2,6.91v.51Zm5.7-5.79a2.88,2.88,0,0,0-2.3-1.12c-2.24,0-3.36,1.82-3.36,4.74h6.66A5.86,5.86,0,0,0,679.65,121.84Z" transform="translate(-5.03 -3.57)"/><path class="cls-1" d="M692.74,135.47a12.21,12.21,0,0,1-6-1.7l1.06-2.11a10.93,10.93,0,0,0,5.15,1.6c1.76,0,3-1,3-2.59,0-1.38-.83-2.18-2.69-2.53l-2-.38c-2.53-.51-3.9-2.08-3.9-4.45,0-2.94,2.34-5,5.79-5a10.19,10.19,0,0,1,5.06,1.31l-1,2.08a8.67,8.67,0,0,0-3.94-1.15c-1.7,0-2.78,1-2.78,2.4,0,1.15.58,1.79,2.27,2.18l2.08.48c2.94.67,4.16,2.37,4.16,4.48C699,133.3,696.48,135.47,692.74,135.47Z" transform="translate(-5.03 -3.57)"/><path class="cls-1" d="M705.86,127.63V128a6,6,0,0,0,.67,3.2,4.18,4.18,0,0,0,3.68,1.89,5.7,5.7,0,0,0,3.94-1.54l1.12,1.76a8.19,8.19,0,0,1-5.54,2c-4.45,0-7.17-3.23-7.17-8.48,0-2.78.54-4.58,1.92-6.21a6,6,0,0,1,4.83-2.21,5.78,5.78,0,0,1,4.35,1.73c1.41,1.44,1.92,3.23,2,6.91v.51Zm5.7-5.79a2.88,2.88,0,0,0-2.3-1.12c-2.24,0-3.36,1.82-3.36,4.74h6.66A5.86,5.86,0,0,0,711.55,121.84Z" transform="translate(-5.03 -3.57)"/><path class="cls-1" d="M727.2,121.58a2.4,2.4,0,0,0-.83-.16,3.35,3.35,0,0,0-3.33,3.26V135H720.1V123.25a10.24,10.24,0,0,0-.61-4l2.85-.74a6.63,6.63,0,0,1,.54,2.46v.29c1.28-1.86,2.66-2.78,4.35-2.78a2.92,2.92,0,0,1,1,.16Z" transform="translate(-5.03 -3.57)"/><path class="cls-1" d="M737.83,135.15h-2.75l-5.73-16.09,3-.48,3.17,9.7c.35,1.09.7,2.37,1,3.46h.06a28.68,28.68,0,0,1,1-3.52l3-9.22h3.1Z" transform="translate(-5.03 -3.57)"/><path class="cls-1" d="M757.31,135.7a3.66,3.66,0,0,1-2.14-2.3,5.57,5.57,0,0,1-4.54,2.11c-3.2,0-5.18-1.63-5.18-4.7,0-3.71,3-5.7,8.16-5.7.38,0,.7,0,1.12,0v-1.06c0-1.89-.26-3.17-2.5-3.17a8.85,8.85,0,0,0-4.93,1.82L746,120.63a12.62,12.62,0,0,1,6.72-2.11c2.34,0,4,.86,4.64,2.56a7.31,7.31,0,0,1,.32,2.82c0,1.15-.13,3.62-.13,6s.06,3.1,1.31,3.87Zm-3.62-8.61c-2.21,0-3.55.42-4.19,1.15a3.09,3.09,0,0,0-.83,2.34c0,1.76.9,2.78,2.53,2.78a4,4,0,0,0,3.36-2.11l.1-4.1C754.21,127.12,754,127.09,753.7,127.09Z" transform="translate(-5.03 -3.57)"/><path class="cls-1" d="M769.38,121.07h-3.17v9.66c0,2,.48,2.59,2.08,2.59a3.54,3.54,0,0,0,1.5-.32l.35,1.79a6.38,6.38,0,0,1-2.91.67,4.57,4.57,0,0,1-2.82-.86c-.64-.58-1.09-1-1.09-3.2V121.07h-1.92V119h1.92a34.73,34.73,0,0,1,.19-4.1l3-.7c-.13,1.15-.29,3.17-.29,4.8h3.9Z" transform="translate(-5.03 -3.57)"/><path class="cls-1" d="M775.36,116.18a2.08,2.08,0,0,1-2-2.11,2.1,2.1,0,1,1,4.19,0A2.14,2.14,0,0,1,775.36,116.18ZM773.86,135V119.09l3-.48V135Z" transform="translate(-5.03 -3.57)"/><path class="cls-1" d="M788.48,135.47c-4.29,0-6.94-3.26-6.94-8.48s2.66-8.45,6.88-8.45c4.74,0,7,3.78,7,8.61C795.46,132.24,792.74,135.47,788.48,135.47Zm-.06-14.65c-2.56,0-3.62,1.82-3.62,5.86,0,4.9,1.25,6.53,3.74,6.53,2.24,0,3.62-1.73,3.62-5.92C792.16,122.32,790.72,120.82,788.42,120.82Z" transform="translate(-5.03 -3.57)"/><path class="cls-1" d="M809.12,135V124.21c0-1.44-.13-2-.51-2.46a2,2,0,0,0-1.63-.64,6.47,6.47,0,0,0-4,2V135H800.1V123.09a8.75,8.75,0,0,0-.61-3.81l2.78-.77a5.09,5.09,0,0,1,.54,2.46,13.78,13.78,0,0,1,2.08-1.57,5.94,5.94,0,0,1,3-.8,4,4,0,0,1,3.78,2.27,5,5,0,0,1,.38,2V135Z" transform="translate(-5.03 -3.57)"/><path class="cls-1" d="M23,171.34a6.16,6.16,0,0,1-4.16-1.66,16.18,16.18,0,0,1,.06,1.79v5.63l-2.88.67V158.93A17,17,0,0,0,15.7,155l2.85-.48a8.31,8.31,0,0,1,.19,2.3,5.81,5.81,0,0,1,4.54-2.24c3.26,0,6,2.66,6,8.16C29.3,167.73,27.13,171.34,23,171.34Zm-.26-14.27a5,5,0,0,0-3.84,2v8.16A5,5,0,0,0,22.36,169c2.59,0,3.78-2,3.78-5.89S25.3,157.07,22.78,157.07Z" transform="translate(-5.03 -3.57)"/><path class="cls-1" d="M41.21,157.58a2.4,2.4,0,0,0-.83-.16A3.35,3.35,0,0,0,37,160.69V171H34.1V159.25a10.24,10.24,0,0,0-.61-4l2.85-.74a6.63,6.63,0,0,1,.54,2.46v.29c1.28-1.86,2.66-2.78,4.35-2.78a2.92,2.92,0,0,1,1,.16Z" transform="translate(-5.03 -3.57)"/><path class="cls-1" d="M50.68,171.47c-4.29,0-6.94-3.26-6.94-8.48s2.66-8.45,6.88-8.45c4.74,0,7,3.78,7,8.61C57.66,168.24,54.94,171.47,50.68,171.47Zm-.06-14.65c-2.56,0-3.62,1.82-3.62,5.86,0,4.9,1.25,6.53,3.74,6.53,2.24,0,3.62-1.73,3.62-5.92C54.36,158.32,52.92,156.82,50.62,156.82Z" transform="translate(-5.03 -3.57)"/><path class="cls-1" d="M74.07,157.27A3.81,3.81,0,0,1,72.7,157,4.48,4.48,0,0,1,73.85,160c0,2.3-1.57,5-5.76,5-1,.32-2.53,1.06-2.53,1.76,0,.48.38.8,1.15.8h2.46c4.1,0,5.79,1.92,5.79,4.42,0,3.46-2.85,5.18-6.75,5.18-4.48,0-7-1.57-7-4.22a4.8,4.8,0,0,1,.29-1.63l2.88-.16a3.09,3.09,0,0,0-.29,1.22c0,1.66,1.38,2.56,3.87,2.56s3.94-1.06,3.94-2.75c0-1.54-1.25-2.43-4.42-2.43-1.12,0-2.4-.1-3-.16-1.41-.16-2.24-1-2.24-2.14,0-1.5,1.31-2.14,3.14-2.82-2.46-.74-3.78-2.4-3.78-4.61,0-3.23,2.46-5.38,6.14-5.38a7.83,7.83,0,0,1,2.5.35,9,9,0,0,0,2.4.51,4.38,4.38,0,0,0,2.62-.93l1.5,1.82A4,4,0,0,1,74.07,157.27Zm-6.43-.42c-1.89,0-2.91,1-2.91,3.07a2.65,2.65,0,0,0,2.94,3c1.92,0,2.91-1.06,2.91-3S69.66,156.85,67.64,156.85Z" transform="translate(-5.03 -3.57)"/><path class="cls-1" d="M86.71,157.58a2.4,2.4,0,0,0-.83-.16,3.35,3.35,0,0,0-3.33,3.26V171H79.61V159.25a10.24,10.24,0,0,0-.61-4l2.85-.74a6.63,6.63,0,0,1,.54,2.46v.29c1.28-1.86,2.66-2.78,4.35-2.78a2.92,2.92,0,0,1,1,.16Z" transform="translate(-5.03 -3.57)"/><path class="cls-1" d="M101.21,171.7a3.66,3.66,0,0,1-2.14-2.3,5.57,5.57,0,0,1-4.54,2.11c-3.2,0-5.18-1.63-5.18-4.7,0-3.71,3-5.7,8.16-5.7.38,0,.7,0,1.12,0v-1.06c0-1.89-.26-3.17-2.5-3.17a8.85,8.85,0,0,0-4.93,1.82l-1.34-2.11a12.62,12.62,0,0,1,6.72-2.11c2.34,0,4,.86,4.64,2.56a7.31,7.31,0,0,1,.32,2.82c0,1.15-.13,3.62-.13,6s.06,3.1,1.31,3.87Zm-3.62-8.61c-2.21,0-3.55.42-4.19,1.15a3.09,3.09,0,0,0-.83,2.34c0,1.76.9,2.78,2.53,2.78a4,4,0,0,0,3.36-2.11l.1-4.1C98.1,163.12,97.85,163.09,97.59,163.09Z" transform="translate(-5.03 -3.57)"/><path class="cls-1" d="M124.34,171V159.54c0-1.82-.58-2.46-1.92-2.46s-2.53,1-3.74,2.18V171H115.8V159.6c0-1.79-.51-2.46-2-2.46a5.51,5.51,0,0,0-3.68,1.86v12h-2.91V159.25a8.72,8.72,0,0,0-.58-4l2.75-.67a4.54,4.54,0,0,1,.54,2.24,6.55,6.55,0,0,1,4.51-2.27,4.14,4.14,0,0,1,3.81,2.53,6.87,6.87,0,0,1,4.9-2.53c2.5,0,4.1,1.57,4.1,4.51v12Z" transform="translate(-5.03 -3.57)"/><path class="cls-1" d="M137.56,171.47a12.21,12.21,0,0,1-6-1.7l1.06-2.11a10.93,10.93,0,0,0,5.15,1.6c1.76,0,3-1,3-2.59,0-1.38-.83-2.18-2.69-2.53l-2-.38c-2.53-.51-3.9-2.08-3.9-4.45,0-2.94,2.34-5,5.79-5a10.19,10.19,0,0,1,5.06,1.31l-1,2.08a8.67,8.67,0,0,0-3.94-1.15c-1.7,0-2.78,1-2.78,2.4,0,1.15.58,1.79,2.27,2.18l2.08.48c2.94.67,4.16,2.37,4.16,4.48C143.86,169.3,141.3,171.47,137.56,171.47Z" transform="translate(-5.03 -3.57)"/><path class="cls-1" d="M148.57,175.6l-1-1.44a3.16,3.16,0,0,0,2.08-2.4c0-.45-.48-.58-1-.86a1.89,1.89,0,0,1-1.06-1.86,2.34,2.34,0,0,1,2.34-2.4c1.54,0,2.66,1.34,2.66,3.3A6.37,6.37,0,0,1,148.57,175.6Z" transform="translate(-5.03 -3.57)"/><path class="cls-1" d="M182.17,171V159.54c0-1.82-.58-2.46-1.92-2.46s-2.53,1-3.74,2.18V171h-2.88V159.6c0-1.79-.51-2.46-2-2.46A5.51,5.51,0,0,0,168,159v12H165V159.25a8.72,8.72,0,0,0-.58-4l2.75-.67a4.54,4.54,0,0,1,.54,2.24,6.55,6.55,0,0,1,4.51-2.27,4.14,4.14,0,0,1,3.81,2.53,6.87,6.87,0,0,1,4.9-2.53c2.5,0,4.1,1.57,4.1,4.51v12Z" transform="translate(-5.03 -3.57)"/><path class="cls-1" d="M192.34,152.18a2.08,2.08,0,0,1-2-2.11,2.1,2.1,0,1,1,4.19,0A2.14,2.14,0,0,1,192.34,152.18ZM190.84,171V155.09l3-.48V171Z" transform="translate(-5.03 -3.57)"/><path class="cls-1" d="M211.41,157.27A3.81,3.81,0,0,1,210,157a4.48,4.48,0,0,1,1.15,2.94c0,2.3-1.57,5-5.76,5-1,.32-2.53,1.06-2.53,1.76,0,.48.38.8,1.15.8h2.46c4.1,0,5.79,1.92,5.79,4.42,0,3.46-2.85,5.18-6.75,5.18-4.48,0-7-1.57-7-4.22a4.8,4.8,0,0,1,.29-1.63l2.88-.16a3.09,3.09,0,0,0-.29,1.22c0,1.66,1.38,2.56,3.87,2.56s3.94-1.06,3.94-2.75c0-1.54-1.25-2.43-4.42-2.43-1.12,0-2.4-.1-3-.16-1.41-.16-2.24-1-2.24-2.14,0-1.5,1.31-2.14,3.14-2.82-2.46-.74-3.78-2.4-3.78-4.61,0-3.23,2.46-5.38,6.14-5.38a7.83,7.83,0,0,1,2.5.35,9,9,0,0,0,2.4.51,4.38,4.38,0,0,0,2.62-.93l1.5,1.82A4,4,0,0,1,211.41,157.27Zm-6.43-.42c-1.89,0-2.91,1-2.91,3.07a2.65,2.65,0,0,0,2.94,3c1.92,0,2.91-1.06,2.91-3S207,156.85,205,156.85Z" transform="translate(-5.03 -3.57)"/><path class="cls-1" d="M226.49,171V160a3.53,3.53,0,0,0-.54-2.24,2.56,2.56,0,0,0-1.76-.61,6.14,6.14,0,0,0-4.26,2.34V171h-3V151.54a14,14,0,0,0-.35-3.36l3-.61a16.34,16.34,0,0,1,.35,3.71v3.58c0,.58,0,1.31-.1,2.14a11,11,0,0,1,1.7-1.31,6.19,6.19,0,0,1,3.49-1.09,4.1,4.1,0,0,1,4,2.4,6.51,6.51,0,0,1,.32,2.59V171Z" transform="translate(-5.03 -3.57)"/><path class="cls-1" d="M241.17,157.07H238v9.66c0,2,.48,2.59,2.08,2.59a3.54,3.54,0,0,0,1.5-.32l.35,1.79a6.38,6.38,0,0,1-2.91.67,4.57,4.57,0,0,1-2.82-.86c-.64-.58-1.09-1-1.09-3.2V157.07h-1.92V155h1.92a34.73,34.73,0,0,1,.19-4.1l3-.7c-.13,1.15-.29,3.17-.29,4.8H242Z" transform="translate(-5.03 -3.57)"/><path class="cls-1" d="M259.51,171.34a6.16,6.16,0,0,1-4.16-1.66,16.18,16.18,0,0,1,.06,1.79v5.63l-2.88.67V158.93a17,17,0,0,0-.35-3.94l2.85-.48a8.31,8.31,0,0,1,.19,2.3,5.81,5.81,0,0,1,4.54-2.24c3.26,0,6,2.66,6,8.16C265.78,167.73,263.61,171.34,259.51,171.34Zm-.26-14.27a5,5,0,0,0-3.84,2v8.16a5,5,0,0,0,3.42,1.76c2.59,0,3.78-2,3.78-5.89S261.78,157.07,259.25,157.07Z" transform="translate(-5.03 -3.57)"/><path class="cls-1" d="M277.69,157.58a2.4,2.4,0,0,0-.83-.16,3.35,3.35,0,0,0-3.33,3.26V171h-2.94V159.25a10.24,10.24,0,0,0-.61-4l2.85-.74a6.63,6.63,0,0,1,.54,2.46v.29c1.28-1.86,2.66-2.78,4.35-2.78a2.92,2.92,0,0,1,1,.16Z" transform="translate(-5.03 -3.57)"/><path class="cls-1" d="M287.16,171.47c-4.29,0-6.94-3.26-6.94-8.48s2.66-8.45,6.88-8.45c4.74,0,7,3.78,7,8.61C294.13,168.24,291.41,171.47,287.16,171.47Zm-.06-14.65c-2.56,0-3.62,1.82-3.62,5.86,0,4.9,1.25,6.53,3.74,6.53,2.24,0,3.62-1.73,3.62-5.92C290.84,158.32,289.4,156.82,287.09,156.82Z" transform="translate(-5.03 -3.57)"/><path class="cls-1" d="M304.5,171.34a5.87,5.87,0,0,1-5.15-2.4,9.69,9.69,0,0,1-1.54-5.79c0-3.62,1.15-5.7,2.69-7.07a6.27,6.27,0,0,1,8.51.06l-1.54,2a3.91,3.91,0,0,0-2.82-1.25,3.08,3.08,0,0,0-2.82,1.73,11.38,11.38,0,0,0-.77,4.9c0,2.24.45,3.71,1.28,4.61a3.11,3.11,0,0,0,2.3,1,4.49,4.49,0,0,0,3.33-1.66l1.44,1.82A6.31,6.31,0,0,1,304.5,171.34Z" transform="translate(-5.03 -3.57)"/><path class="cls-1" d="M315.45,163.63V164a6,6,0,0,0,.67,3.2,4.18,4.18,0,0,0,3.68,1.89,5.7,5.7,0,0,0,3.94-1.54l1.12,1.76a8.19,8.19,0,0,1-5.54,2c-4.45,0-7.17-3.23-7.17-8.48,0-2.78.54-4.58,1.92-6.21a6,6,0,0,1,4.83-2.21,5.78,5.78,0,0,1,4.35,1.73c1.41,1.44,1.92,3.23,2,6.91v.51Zm5.7-5.79a2.88,2.88,0,0,0-2.3-1.12c-2.24,0-3.36,1.82-3.36,4.74h6.66A5.86,5.86,0,0,0,321.14,157.84Z" transform="translate(-5.03 -3.57)"/><path class="cls-1" d="M332,163.63V164a6,6,0,0,0,.67,3.2,4.18,4.18,0,0,0,3.68,1.89,5.7,5.7,0,0,0,3.94-1.54l1.12,1.76a8.19,8.19,0,0,1-5.54,2c-4.45,0-7.17-3.23-7.17-8.48,0-2.78.54-4.58,1.92-6.21a6,6,0,0,1,4.83-2.21,5.78,5.78,0,0,1,4.35,1.73c1.41,1.44,1.92,3.23,2,6.91v.51Zm5.7-5.79a2.88,2.88,0,0,0-2.3-1.12c-2.24,0-3.36,1.82-3.36,4.74h6.66A5.86,5.86,0,0,0,337.72,157.84Z" transform="translate(-5.03 -3.57)"/><path class="cls-1" d="M356.21,171a6.24,6.24,0,0,1-.29-1.5,5.35,5.35,0,0,1-4.13,1.76c-4.1,0-6.5-3.07-6.5-8.13,0-3.46,1.18-6.11,3.36-7.52a5.53,5.53,0,0,1,3.14-.93,4.78,4.78,0,0,1,3.9,1.86c0-.45-.06-1.73-.06-2.82v-6.24l2.94.48v17.66A19.2,19.2,0,0,0,359,171Zm-.61-12.45a4.11,4.11,0,0,0-3.39-1.5,3.14,3.14,0,0,0-2.78,1.63,8.52,8.52,0,0,0-.83,4.42c0,3.1.38,4,1.25,4.86a3,3,0,0,0,2.37.83,3.8,3.8,0,0,0,3.39-1.86Z" transform="translate(-5.03 -3.57)"/><path class="cls-1" d="M375.93,171.47a12.21,12.21,0,0,1-6-1.7l1.06-2.11a10.93,10.93,0,0,0,5.15,1.6c1.76,0,3-1,3-2.59,0-1.38-.83-2.18-2.69-2.53l-2-.38c-2.53-.51-3.9-2.08-3.9-4.45,0-2.94,2.34-5,5.79-5a10.19,10.19,0,0,1,5.06,1.31l-1,2.08a8.67,8.67,0,0,0-3.94-1.15c-1.7,0-2.78,1-2.78,2.4,0,1.15.58,1.79,2.27,2.18l2.08.48c2.94.67,4.16,2.37,4.16,4.48C382.23,169.3,379.67,171.47,375.93,171.47Z" transform="translate(-5.03 -3.57)"/><path class="cls-1" d="M392.6,157.07h-3.17v9.66c0,2,.48,2.59,2.08,2.59A3.54,3.54,0,0,0,393,169l.35,1.79a6.38,6.38,0,0,1-2.91.67,4.57,4.57,0,0,1-2.82-.86c-.64-.58-1.09-1-1.09-3.2V157.07h-1.92V155h1.92a34.73,34.73,0,0,1,.19-4.1l3-.7c-.13,1.15-.29,3.17-.29,4.8h3.9Z" transform="translate(-5.03 -3.57)"/><path class="cls-1" d="M403.86,157.58a2.4,2.4,0,0,0-.83-.16,3.35,3.35,0,0,0-3.33,3.26V171h-2.94V159.25a10.24,10.24,0,0,0-.61-4l2.85-.74a6.63,6.63,0,0,1,.54,2.46v.29c1.28-1.86,2.66-2.78,4.35-2.78a2.92,2.92,0,0,1,1,.16Z" transform="translate(-5.03 -3.57)"/><path class="cls-1" d="M418.36,171.7a3.66,3.66,0,0,1-2.14-2.3,5.57,5.57,0,0,1-4.54,2.11c-3.2,0-5.18-1.63-5.18-4.7,0-3.71,3-5.7,8.16-5.7.38,0,.7,0,1.12,0v-1.06c0-1.89-.26-3.17-2.5-3.17a8.85,8.85,0,0,0-4.93,1.82L407,156.63a12.62,12.62,0,0,1,6.72-2.11c2.34,0,4,.86,4.64,2.56a7.31,7.31,0,0,1,.32,2.82c0,1.15-.13,3.62-.13,6s.06,3.1,1.31,3.87Zm-3.62-8.61c-2.21,0-3.55.42-4.19,1.15a3.09,3.09,0,0,0-.83,2.34c0,1.76.9,2.78,2.53,2.78a4,4,0,0,0,3.36-2.11l.1-4.1C415.25,163.12,415,163.09,414.74,163.09Z" transform="translate(-5.03 -3.57)"/><path class="cls-1" d="M425.88,152.18a2.08,2.08,0,0,1-2-2.11,2.1,2.1,0,1,1,4.19,0A2.14,2.14,0,0,1,425.88,152.18ZM424.37,171V155.09l3-.48V171Z" transform="translate(-5.03 -3.57)"/><path class="cls-1" d="M444.95,157.27a3.81,3.81,0,0,1-1.38-.26,4.48,4.48,0,0,1,1.15,2.94c0,2.3-1.57,5-5.76,5-1,.32-2.53,1.06-2.53,1.76,0,.48.38.8,1.15.8h2.46c4.1,0,5.79,1.92,5.79,4.42,0,3.46-2.85,5.18-6.75,5.18-4.48,0-7-1.57-7-4.22a4.8,4.8,0,0,1,.29-1.63l2.88-.16a3.09,3.09,0,0,0-.29,1.22c0,1.66,1.38,2.56,3.87,2.56s3.94-1.06,3.94-2.75c0-1.54-1.25-2.43-4.42-2.43-1.12,0-2.4-.1-3-.16-1.41-.16-2.24-1-2.24-2.14,0-1.5,1.31-2.14,3.14-2.82-2.46-.74-3.78-2.4-3.78-4.61,0-3.23,2.46-5.38,6.14-5.38a7.83,7.83,0,0,1,2.5.35,9,9,0,0,0,2.4.51,4.38,4.38,0,0,0,2.62-.93l1.5,1.82A4,4,0,0,1,444.95,157.27Zm-6.43-.42c-1.89,0-2.91,1-2.91,3.07a2.65,2.65,0,0,0,2.94,3c1.92,0,2.91-1.06,2.91-3S440.53,156.85,438.52,156.85Z" transform="translate(-5.03 -3.57)"/><path class="cls-1" d="M460,171V160a3.53,3.53,0,0,0-.54-2.24,2.56,2.56,0,0,0-1.76-.61,6.14,6.14,0,0,0-4.26,2.34V171h-3V151.54a14,14,0,0,0-.35-3.36l3-.61a16.34,16.34,0,0,1,.35,3.71v3.58c0,.58,0,1.31-.1,2.14a11,11,0,0,1,1.7-1.31,6.19,6.19,0,0,1,3.49-1.09,4.1,4.1,0,0,1,4,2.4,6.51,6.51,0,0,1,.32,2.59V171Z" transform="translate(-5.03 -3.57)"/><path class="cls-1" d="M474.71,157.07h-3.17v9.66c0,2,.48,2.59,2.08,2.59a3.54,3.54,0,0,0,1.5-.32l.35,1.79a6.38,6.38,0,0,1-2.91.67,4.57,4.57,0,0,1-2.82-.86c-.64-.58-1.09-1-1.09-3.2V157.07h-1.92V155h1.92a34.73,34.73,0,0,1,.19-4.1l3-.7c-.13,1.15-.29,3.17-.29,4.8h3.9Z" transform="translate(-5.03 -3.57)"/><path class="cls-1" d="M492.12,157.07h-3.17v9.66c0,2,.48,2.59,2.08,2.59a3.54,3.54,0,0,0,1.5-.32l.35,1.79a6.38,6.38,0,0,1-2.91.67,4.57,4.57,0,0,1-2.82-.86c-.64-.58-1.09-1-1.09-3.2V157.07h-1.92V155h1.92a34.73,34.73,0,0,1,.19-4.1l3-.7c-.13,1.15-.29,3.17-.29,4.8h3.9Z" transform="translate(-5.03 -3.57)"/><path class="cls-1" d="M502.1,171.47c-4.29,0-6.94-3.26-6.94-8.48s2.66-8.45,6.88-8.45c4.74,0,7,3.78,7,8.61C509.08,168.24,506.36,171.47,502.1,171.47ZM502,156.82c-2.56,0-3.62,1.82-3.62,5.86,0,4.9,1.25,6.53,3.74,6.53,2.24,0,3.62-1.73,3.62-5.92C505.78,158.32,504.34,156.82,502,156.82Z" transform="translate(-5.03 -3.57)"/><path class="cls-1" d="M531.67,171.7a3.66,3.66,0,0,1-2.14-2.3A5.57,5.57,0,0,1,525,171.5c-3.2,0-5.18-1.63-5.18-4.7,0-3.71,3-5.7,8.16-5.7.38,0,.7,0,1.12,0v-1.06c0-1.89-.26-3.17-2.5-3.17a8.85,8.85,0,0,0-4.93,1.82l-1.34-2.11a12.62,12.62,0,0,1,6.72-2.11c2.34,0,4,.86,4.64,2.56a7.31,7.31,0,0,1,.32,2.82c0,1.15-.13,3.62-.13,6s.06,3.1,1.31,3.87Zm-3.62-8.61c-2.21,0-3.55.42-4.19,1.15a3.09,3.09,0,0,0-.83,2.34c0,1.76.9,2.78,2.53,2.78a4,4,0,0,0,3.36-2.11l.1-4.1C528.56,163.12,528.31,163.09,528.05,163.09Z" transform="translate(-5.03 -3.57)"/><path class="cls-1" d="M546.71,171V160.21c0-1.44-.13-2-.51-2.46a2,2,0,0,0-1.63-.64,6.47,6.47,0,0,0-4,2V171h-2.91V159.09a8.75,8.75,0,0,0-.61-3.81l2.78-.77a5.09,5.09,0,0,1,.54,2.46,13.81,13.81,0,0,1,2.08-1.57,5.94,5.94,0,0,1,3-.8,4,4,0,0,1,3.78,2.27,5,5,0,0,1,.38,2V171Z" transform="translate(-5.03 -3.57)"/><path class="cls-1" d="M564.08,152.18a2.08,2.08,0,0,1-2-2.11,2.1,2.1,0,1,1,4.19,0A2.14,2.14,0,0,1,564.08,152.18ZM562.58,171V155.09l3-.48V171Z" transform="translate(-5.03 -3.57)"/><path class="cls-1" d="M580.4,171V160.21c0-1.44-.13-2-.51-2.46a2,2,0,0,0-1.63-.64,6.47,6.47,0,0,0-4,2V171h-2.91V159.09a8.75,8.75,0,0,0-.61-3.81l2.78-.77a5.09,5.09,0,0,1,.54,2.46,13.81,13.81,0,0,1,2.08-1.57,5.94,5.94,0,0,1,3-.8,4,4,0,0,1,3.78,2.27,5,5,0,0,1,.38,2V171Z" transform="translate(-5.03 -3.57)"/><path class="cls-1" d="M594.83,171.15h-2.75l-5.73-16.09,3-.48,3.17,9.7c.35,1.09.7,2.37,1,3.46h.06a28.68,28.68,0,0,1,1-3.52l3-9.22h3.1Z" transform="translate(-5.03 -3.57)"/><path class="cls-1" d="M605.81,163.63V164a6,6,0,0,0,.67,3.2,4.18,4.18,0,0,0,3.68,1.89,5.7,5.7,0,0,0,3.94-1.54l1.12,1.76a8.19,8.19,0,0,1-5.54,2c-4.45,0-7.17-3.23-7.17-8.48,0-2.78.54-4.58,1.92-6.21a6,6,0,0,1,4.83-2.21,5.78,5.78,0,0,1,4.35,1.73c1.41,1.44,1.92,3.23,2,6.91v.51Zm5.7-5.79a2.88,2.88,0,0,0-2.3-1.12c-2.24,0-3.36,1.82-3.36,4.74h6.66A5.86,5.86,0,0,0,611.51,157.84Z" transform="translate(-5.03 -3.57)"/><path class="cls-1" d="M624.59,171.47a12.21,12.21,0,0,1-6-1.7l1.06-2.11a10.93,10.93,0,0,0,5.15,1.6c1.76,0,3-1,3-2.59,0-1.38-.83-2.18-2.69-2.53l-2-.38c-2.53-.51-3.9-2.08-3.9-4.45,0-2.94,2.34-5,5.79-5a10.19,10.19,0,0,1,5.06,1.31l-1,2.08a8.67,8.67,0,0,0-3.94-1.15c-1.7,0-2.78,1-2.78,2.4,0,1.15.58,1.79,2.27,2.18l2.08.48c2.94.67,4.16,2.37,4.16,4.48C630.9,169.3,628.34,171.47,624.59,171.47Z" transform="translate(-5.03 -3.57)"/><path class="cls-1" d="M641.27,157.07H638.1v9.66c0,2,.48,2.59,2.08,2.59a3.54,3.54,0,0,0,1.5-.32l.35,1.79a6.38,6.38,0,0,1-2.91.67,4.57,4.57,0,0,1-2.82-.86c-.64-.58-1.09-1-1.09-3.2V157.07H633.3V155h1.92a34.73,34.73,0,0,1,.19-4.1l3-.7c-.13,1.15-.29,3.17-.29,4.8h3.9Z" transform="translate(-5.03 -3.57)"/><path class="cls-1" d="M662.55,171V159.54c0-1.82-.58-2.46-1.92-2.46s-2.53,1-3.74,2.18V171H654V159.6c0-1.79-.51-2.46-2-2.46a5.51,5.51,0,0,0-3.68,1.86v12h-2.91V159.25a8.72,8.72,0,0,0-.58-4l2.75-.67a4.54,4.54,0,0,1,.54,2.24,6.55,6.55,0,0,1,4.51-2.27,4.14,4.14,0,0,1,3.81,2.53,6.87,6.87,0,0,1,4.9-2.53c2.5,0,4.1,1.57,4.1,4.51v12Z" transform="translate(-5.03 -3.57)"/><path class="cls-1" d="M673.56,163.63V164a6,6,0,0,0,.67,3.2,4.18,4.18,0,0,0,3.68,1.89,5.7,5.7,0,0,0,3.94-1.54l1.12,1.76a8.19,8.19,0,0,1-5.54,2c-4.45,0-7.17-3.23-7.17-8.48,0-2.78.54-4.58,1.92-6.21a6,6,0,0,1,4.83-2.21,5.78,5.78,0,0,1,4.35,1.73c1.41,1.44,1.92,3.23,2,6.91v.51Zm5.7-5.79a2.88,2.88,0,0,0-2.3-1.12c-2.24,0-3.36,1.82-3.36,4.74h6.66A5.86,5.86,0,0,0,679.25,157.84Z" transform="translate(-5.03 -3.57)"/><path class="cls-1" d="M696.82,171V160.21c0-1.44-.13-2-.51-2.46a2,2,0,0,0-1.63-.64,6.47,6.47,0,0,0-4,2V171h-2.91V159.09a8.75,8.75,0,0,0-.61-3.81l2.78-.77a5.09,5.09,0,0,1,.54,2.46,13.81,13.81,0,0,1,2.08-1.57,5.94,5.94,0,0,1,3-.8,4,4,0,0,1,3.78,2.27,5,5,0,0,1,.38,2V171Z" transform="translate(-5.03 -3.57)"/><path class="cls-1" d="M711.54,157.07h-3.17v9.66c0,2,.48,2.59,2.08,2.59A3.54,3.54,0,0,0,712,169l.35,1.79a6.38,6.38,0,0,1-2.91.67,4.57,4.57,0,0,1-2.82-.86c-.64-.58-1.09-1-1.09-3.2V157.07h-1.92V155h1.92a34.73,34.73,0,0,1,.19-4.1l3-.7c-.13,1.15-.29,3.17-.29,4.8h3.9Z" transform="translate(-5.03 -3.57)"/><path class="cls-1" d="M732.85,171a6.24,6.24,0,0,1-.29-1.5,5.35,5.35,0,0,1-4.13,1.76c-4.1,0-6.5-3.07-6.5-8.13,0-3.46,1.18-6.11,3.36-7.52a5.53,5.53,0,0,1,3.14-.93,4.78,4.78,0,0,1,3.9,1.86c0-.45-.06-1.73-.06-2.82v-6.24l2.94.48v17.66a19.2,19.2,0,0,0,.45,5.38Zm-.61-12.45a4.11,4.11,0,0,0-3.39-1.5,3.14,3.14,0,0,0-2.78,1.63,8.52,8.52,0,0,0-.83,4.42c0,3.1.38,4,1.25,4.86a3,3,0,0,0,2.37.83,3.8,3.8,0,0,0,3.39-1.86Z" transform="translate(-5.03 -3.57)"/><path class="cls-1" d="M743.31,163.63V164a6,6,0,0,0,.67,3.2,4.18,4.18,0,0,0,3.68,1.89,5.7,5.7,0,0,0,3.94-1.54l1.12,1.76a8.19,8.19,0,0,1-5.54,2c-4.45,0-7.17-3.23-7.17-8.48,0-2.78.54-4.58,1.92-6.21a6,6,0,0,1,4.83-2.21,5.78,5.78,0,0,1,4.35,1.73c1.41,1.44,1.92,3.23,2,6.91v.51Zm5.7-5.79a2.88,2.88,0,0,0-2.3-1.12c-2.24,0-3.36,1.82-3.36,4.74H750A5.86,5.86,0,0,0,749,157.84Z" transform="translate(-5.03 -3.57)"/><path class="cls-1" d="M763.28,171.34a5.87,5.87,0,0,1-5.15-2.4,9.69,9.69,0,0,1-1.54-5.79c0-3.62,1.15-5.7,2.69-7.07a6.27,6.27,0,0,1,8.51.06l-1.54,2a3.91,3.91,0,0,0-2.82-1.25,3.08,3.08,0,0,0-2.82,1.73,11.38,11.38,0,0,0-.77,4.9c0,2.24.45,3.71,1.28,4.61a3.11,3.11,0,0,0,2.3,1,4.49,4.49,0,0,0,3.33-1.66l1.44,1.82A6.31,6.31,0,0,1,763.28,171.34Z" transform="translate(-5.03 -3.57)"/><path class="cls-1" d="M773.55,152.18a2.08,2.08,0,0,1-2-2.11,2.1,2.1,0,1,1,4.19,0A2.14,2.14,0,0,1,773.55,152.18ZM772,171V155.09l3-.48V171Z" transform="translate(-5.03 -3.57)"/><path class="cls-1" d="M785.23,171.47a12.21,12.21,0,0,1-6-1.7l1.06-2.11a10.93,10.93,0,0,0,5.15,1.6c1.76,0,3-1,3-2.59,0-1.38-.83-2.18-2.69-2.53l-2-.38c-2.53-.51-3.9-2.08-3.9-4.45,0-2.94,2.34-5,5.79-5a10.19,10.19,0,0,1,5.06,1.31l-1,2.08a8.67,8.67,0,0,0-3.94-1.15c-1.7,0-2.78,1-2.78,2.4,0,1.15.58,1.79,2.27,2.18l2.08.48c2.94.67,4.16,2.37,4.16,4.48C791.54,169.3,789,171.47,785.23,171.47Z" transform="translate(-5.03 -3.57)"/><path class="cls-1" d="M797.2,152.18a2.08,2.08,0,0,1-2-2.11,2.1,2.1,0,1,1,4.19,0A2.14,2.14,0,0,1,797.2,152.18ZM795.7,171V155.09l3-.48V171Z" transform="translate(-5.03 -3.57)"/><path class="cls-1" d="M810.32,171.47c-4.29,0-6.94-3.26-6.94-8.48s2.66-8.45,6.88-8.45c4.74,0,7,3.78,7,8.61C817.3,168.24,814.58,171.47,810.32,171.47Zm-.06-14.65c-2.56,0-3.62,1.82-3.62,5.86,0,4.9,1.25,6.53,3.74,6.53,2.24,0,3.62-1.73,3.62-5.92C814,158.32,812.56,156.82,810.26,156.82Z" transform="translate(-5.03 -3.57)"/><path class="cls-1" d="M831,171V160.21c0-1.44-.13-2-.51-2.46a2,2,0,0,0-1.63-.64,6.47,6.47,0,0,0-4,2V171h-2.91V159.09a8.75,8.75,0,0,0-.61-3.81l2.78-.77a5.09,5.09,0,0,1,.54,2.46,13.81,13.81,0,0,1,2.08-1.57,5.94,5.94,0,0,1,3-.8,4,4,0,0,1,3.78,2.27,5,5,0,0,1,.38,2V171Z" transform="translate(-5.03 -3.57)"/><path class="cls-1" d="M841.43,171.47a2.4,2.4,0,1,1,2.27-2.4A2.31,2.31,0,0,1,841.43,171.47Z" transform="translate(-5.03 -3.57)"/></g></g></svg>