<svg xmlns="http://www.w3.org/2000/svg" viewBox="0 0 1022.01 212.53"><defs><style>.cls-1{fill:#00c0f2;}.cls-2{fill:none;stroke:#dce1e5;stroke-miterlimit:10;opacity:0.7;}</style></defs><title>IP_sc3_btn1</title><g id="Ui"><path class="cls-1" d="M439,109.12c-1.34.63-2.6,1-5.84,1h-3.23v10.75H424V91.65h7.69c5,0,6.47.5,8.11,1.43a8.21,8.21,0,0,1,4.2,7.56A9,9,0,0,1,439,109.12Zm-5.33-12.73h-3.74v8.91H433c2.39,0,3.11-.29,3.91-1.51a5.2,5.2,0,0,0,.71-3C437.57,98,436.1,96.39,433.63,96.39Z"/><path class="cls-1" d="M463.49,120.84v-13h-8.4v13h-5.84V91.65h5.84V103h8.4V91.65h6v29.2Z"/><path class="cls-1" d="M492.34,120.84l-2.06-6.93h-8.57l-2.06,6.93h-6.13l9.58-29.28h6.34l9.2,29.28Zm-5.08-17.69c-.29-1.34-1.18-5.17-1.18-5.17s-.84,3.45-1.39,5.63-.92,3.49-1.55,5.42h5.71S487.89,106,487.26,103.16Z"/><path class="cls-1" d="M511,121.47a20.88,20.88,0,0,1-10-2.65l2.19-4.58a16.56,16.56,0,0,0,8,2.35c3.36,0,5.12-1.39,5.12-4,0-1.89-1.22-3.07-3.82-3.78l-3.24-.88c-2.9-.8-4.7-1.93-5.75-3.7a8.43,8.43,0,0,1-1.22-4.45c0-5.33,4.29-9,10.46-9a17.13,17.13,0,0,1,9.75,2.94l-2.77,4.2A12.59,12.59,0,0,0,513,95.68c-2.39,0-4.08,1.39-4.08,3.36,0,1.51.8,2.27,3.23,2.94l3.53,1c4.79,1.3,7.39,4.37,7.39,8.7C523,117.56,518.26,121.47,511,121.47Z"/><path class="cls-1" d="M528.71,120.84V91.65h16.64l-.76,4.79h-10v6.76H543V108h-8.28v7.81h11v5Z"/><path class="cls-1" d="M559.25,121.47a20.87,20.87,0,0,1-10-2.65l2.18-4.58a16.56,16.56,0,0,0,8,2.35c3.36,0,5.13-1.39,5.13-4,0-1.89-1.22-3.07-3.82-3.78l-3.23-.88c-2.9-.8-4.71-1.93-5.75-3.7a8.44,8.44,0,0,1-1.22-4.45c0-5.33,4.28-9,10.46-9a17.13,17.13,0,0,1,9.75,2.94L568,97.9a12.59,12.59,0,0,0-6.81-2.23c-2.39,0-4.07,1.39-4.07,3.36,0,1.51.8,2.27,3.23,2.94l3.53,1c4.79,1.3,7.39,4.37,7.39,8.7C571.3,117.56,566.51,121.47,559.25,121.47Z"/><rect class="cls-2" x="0.5" y="0.5" width="1021.01" height="211.53"/></g></svg>