<svg xmlns="http://www.w3.org/2000/svg" viewBox="0 0 432.83 45.43"><defs><style>.cls-1{fill:#6a0032;}.cls-2{fill:#404041;}</style></defs><title>IP_sc2_subTitle1</title><g id="Layer_2" data-name="Layer 2"><g id="Ui"><path class="cls-1" d="M359.47,19.56a37.53,37.53,0,0,0-1.92,11.5,37.53,37.53,0,0,0,1.92,11.5,35.59,35.59,0,0,0,4.7,9.86h-5.71a34,34,0,0,1-4.3-9.31,38.3,38.3,0,0,1,0-24.1,34,34,0,0,1,4.3-9.31h5.71A35.59,35.59,0,0,0,359.47,19.56Z" transform="translate(-1.38 -6.99)"/><path class="cls-1" d="M368.35,12.48h12.19V46h-5.38V17.52h-6.82Z" transform="translate(-1.38 -6.99)"/><path class="cls-1" d="M392.68,41.69Q389.27,37,389.28,29t3.41-12.65q3.41-4.73,10.27-4.73t10.27,4.73q3.41,4.73,3.41,12.65t-3.41,12.65q-3.41,4.73-10.27,4.73T392.68,41.69ZM396.74,20a18.06,18.06,0,0,0-2,9.07,18.07,18.07,0,0,0,2,9.07A6.67,6.67,0,0,0,403,41.57a6.58,6.58,0,0,0,6.17-3.43,18.41,18.41,0,0,0,1.94-9.1,18.41,18.41,0,0,0-1.94-9.1A6.58,6.58,0,0,0,403,16.51,6.67,6.67,0,0,0,396.74,20Z" transform="translate(-1.38 -6.99)"/><path class="cls-1" d="M427,42.55a37.56,37.56,0,0,0,1.92-11.5A37.56,37.56,0,0,0,427,19.56a35.63,35.63,0,0,0-4.7-9.86H428a34,34,0,0,1,4.3,9.31,38.3,38.3,0,0,1,0,24.1,34,34,0,0,1-4.3,9.31h-5.71A35.63,35.63,0,0,0,427,42.55Z" transform="translate(-1.38 -6.99)"/><path class="cls-2" d="M10.18,34.38,6.33,46h-5L14,9h5.78L32.42,46H27.3l-4-11.66Zm12.16-3.74L18.71,20c-.83-2.42-1.38-4.62-1.93-6.76h-.11c-.55,2.2-1.16,4.45-1.87,6.71L11.17,30.64Z" transform="translate(-1.38 -6.99)"/><path class="cls-2" d="M38.42,41.09A12.7,12.7,0,0,0,44.8,43c3.52,0,5.17-1.76,5.17-4s-1.38-3.57-5-4.89c-4.79-1.7-7-4.34-7-7.53,0-4.29,3.47-7.81,9.19-7.81a13.31,13.31,0,0,1,6.55,1.65L52.51,24a10.38,10.38,0,0,0-5.45-1.54c-2.86,0-4.46,1.65-4.46,3.63,0,2.2,1.6,3.19,5.06,4.51,4.62,1.76,7,4.07,7,8,0,4.67-3.63,8-10,8a15.2,15.2,0,0,1-7.49-1.81Z" transform="translate(-1.38 -6.99)"/><path class="cls-2" d="M61.59,41.09A12.7,12.7,0,0,0,68,43c3.52,0,5.17-1.76,5.17-4s-1.38-3.57-5-4.89c-4.79-1.7-7-4.34-7-7.53,0-4.29,3.47-7.81,9.19-7.81a13.31,13.31,0,0,1,6.55,1.65L75.68,24a10.38,10.38,0,0,0-5.45-1.54c-2.86,0-4.46,1.65-4.46,3.63,0,2.2,1.6,3.19,5.06,4.51,4.62,1.76,7,4.07,7,8,0,4.67-3.63,8-10,8a15.2,15.2,0,0,1-7.49-1.81Z" transform="translate(-1.38 -6.99)"/><path class="cls-2" d="M88.12,33.61c.11,6.54,4.29,9.24,9.14,9.24a17.52,17.52,0,0,0,7.37-1.37l.83,3.46a21.59,21.59,0,0,1-8.86,1.65c-8.2,0-13.1-5.39-13.1-13.42S88.23,18.81,96,18.81c8.7,0,11,7.64,11,12.54a18.22,18.22,0,0,1-.17,2.25Zm14.2-3.46c.06-3.08-1.27-7.86-6.71-7.86-4.9,0-7,4.51-7.43,7.86Z" transform="translate(-1.38 -6.99)"/><path class="cls-2" d="M120.21,11.77v7.64h6.93V23.1h-6.93V37.46c0,3.3.94,5.17,3.63,5.17a10.78,10.78,0,0,0,2.81-.33l.22,3.63a11.87,11.87,0,0,1-4.29.66,6.72,6.72,0,0,1-5.23-2c-1.38-1.43-1.87-3.79-1.87-6.93V23.1h-4.13V19.42h4.13V13Z" transform="translate(-1.38 -6.99)"/><path class="cls-2" d="M173.1,44.83a23.79,23.79,0,0,1-9.8,1.76C152.85,46.58,145,40,145,27.83c0-11.6,7.87-19.47,19.37-19.47A19.9,19.9,0,0,1,173.16,10L172,13.92a17.45,17.45,0,0,0-7.49-1.54c-8.7,0-14.48,5.55-14.48,15.29,0,9.07,5.23,14.9,14.25,14.9A19.18,19.18,0,0,0,172.11,41Z" transform="translate(-1.38 -6.99)"/><path class="cls-2" d="M180.31,7h4.84V46h-4.84Z" transform="translate(-1.38 -6.99)"/><path class="cls-2" d="M209.43,46,209,42.68h-.17a9.92,9.92,0,0,1-8.15,4c-5.39,0-8.15-3.79-8.15-7.64,0-6.43,5.72-10,16-9.9v-.55c0-2.2-.61-6.16-6.05-6.16a13.28,13.28,0,0,0-6.93,2l-1.1-3.19a16.55,16.55,0,0,1,8.75-2.36c8.15,0,10.13,5.55,10.13,10.89v10a37.41,37.41,0,0,0,.44,6.38Zm-.72-13.58c-5.28-.11-11.28.82-11.28,6A4.28,4.28,0,0,0,202,43.07a6.63,6.63,0,0,0,6.44-4.45,5.05,5.05,0,0,0,.28-1.54Z" transform="translate(-1.38 -6.99)"/><path class="cls-2" d="M221.92,41.09A12.7,12.7,0,0,0,228.31,43c3.52,0,5.17-1.76,5.17-4s-1.38-3.57-5-4.89c-4.79-1.7-7-4.34-7-7.53,0-4.29,3.47-7.81,9.19-7.81a13.31,13.31,0,0,1,6.55,1.65L236,24a10.38,10.38,0,0,0-5.45-1.54c-2.86,0-4.46,1.65-4.46,3.63,0,2.2,1.6,3.19,5.06,4.51,4.62,1.76,7,4.07,7,8,0,4.67-3.63,8-10,8a15.2,15.2,0,0,1-7.49-1.81Z" transform="translate(-1.38 -6.99)"/><path class="cls-2" d="M245.1,41.09A12.7,12.7,0,0,0,251.48,43c3.52,0,5.17-1.76,5.17-4s-1.38-3.57-5-4.89c-4.79-1.7-7-4.34-7-7.53,0-4.29,3.47-7.81,9.19-7.81a13.31,13.31,0,0,1,6.55,1.65L259.19,24a10.38,10.38,0,0,0-5.45-1.54c-2.86,0-4.46,1.65-4.46,3.63,0,2.2,1.6,3.19,5.06,4.51,4.62,1.76,7,4.07,7,8,0,4.67-3.63,8-10,8a15.2,15.2,0,0,1-7.49-1.81Z" transform="translate(-1.38 -6.99)"/><path class="cls-2" d="M271.62,33.61c.11,6.54,4.29,9.24,9.14,9.24a17.52,17.52,0,0,0,7.38-1.37l.83,3.46a21.59,21.59,0,0,1-8.86,1.65c-8.2,0-13.1-5.39-13.1-13.42s4.73-14.35,12.49-14.35c8.7,0,11,7.64,11,12.54a18.22,18.22,0,0,1-.17,2.25Zm14.2-3.46c.06-3.08-1.27-7.86-6.71-7.86-4.9,0-7,4.51-7.43,7.86Z" transform="translate(-1.38 -6.99)"/><path class="cls-2" d="M297.22,41.09A12.7,12.7,0,0,0,303.6,43c3.52,0,5.17-1.76,5.17-4s-1.38-3.57-5-4.89c-4.79-1.7-7-4.34-7-7.53,0-4.29,3.47-7.81,9.19-7.81a13.31,13.31,0,0,1,6.55,1.65L311.31,24a10.38,10.38,0,0,0-5.45-1.54c-2.86,0-4.46,1.65-4.46,3.63,0,2.2,1.6,3.19,5.06,4.51,4.62,1.76,7,4.07,7,8,0,4.67-3.63,8-10,8A15.2,15.2,0,0,1,296,44.77Z" transform="translate(-1.38 -6.99)"/></g></g></svg>