<svg xmlns="http://www.w3.org/2000/svg" xmlns:xlink="http://www.w3.org/1999/xlink" viewBox="0 0 1050.81 316.64"><defs><style>.cls-1{opacity:0.3;}.cls-1,.cls-3{isolation:isolate;}.cls-2{fill:#fff;}.cls-4{fill:#4c4c4e;}</style></defs><title>IP_sc4_delivery</title><g id="Layer_2" data-name="Layer 2"><g id="Layer_1-2" data-name="Layer 1"><image class="cls-1" width="1052" height="317" xlink:href="../AppData/Local/Packages/Microsoft.SkypeApp_kzf8qxf38zg5c/LocalState/Downloads/ECF25FFA.png"/><path class="cls-2" d="M1035.47,290.27a10,10,0,0,1-10,10H25a10,10,0,0,1-10-10V25.67a10,10,0,0,1,10-10h1000.5a10,10,0,0,1,10,10Z"/><g class="cls-3"><path class="cls-4" d="M399.85,174.54V138.75h12.33a29.91,29.91,0,0,1,6.37.51,12.14,12.14,0,0,1,5.25,2.56,14.58,14.58,0,0,1,4.24,6.12,24,24,0,0,1,1.4,8.51,25,25,0,0,1-1,7.23,17.54,17.54,0,0,1-2.44,5.21,13,13,0,0,1-3.26,3.25,13.27,13.27,0,0,1-4.27,1.79,24.38,24.38,0,0,1-5.75.61Zm4.74-4.22h7.64a18.55,18.55,0,0,0,5.55-.66A8,8,0,0,0,421,167.8a11.29,11.29,0,0,0,2.62-4.53,22.12,22.12,0,0,0,.94-6.9q0-5.61-1.84-8.63a9.28,9.28,0,0,0-4.48-4,18.52,18.52,0,0,0-6.13-.73h-7.52Z"/><path class="cls-4" d="M453.15,166.19l4.54.56a11.08,11.08,0,0,1-4,6.18,13.48,13.48,0,0,1-16.44-1.31q-3.33-3.5-3.33-9.83,0-6.54,3.37-10.16A11.41,11.41,0,0,1,446,148a11.09,11.09,0,0,1,8.5,3.54q3.3,3.54,3.3,10,0,.39,0,1.17H438.48a10,10,0,0,0,2.42,6.54,7.19,7.19,0,0,0,5.42,2.27,6.72,6.72,0,0,0,4.13-1.27A8.43,8.43,0,0,0,453.15,166.19Zm-14.43-7.1H453.2a8.79,8.79,0,0,0-1.66-4.91,6.74,6.74,0,0,0-5.44-2.54,7,7,0,0,0-5.09,2A8,8,0,0,0,438.72,159.09Z"/><path class="cls-4" d="M463.11,174.54V138.75h4.39v35.79Z"/><path class="cls-4" d="M474.34,143.81v-5.05h4.39v5.05Zm0,30.74V148.61h4.39v25.93Z"/><path class="cls-4" d="M492.63,174.54l-9.86-25.93h4.64L493,164.14q.9,2.52,1.66,5.22.59-2.05,1.64-4.93L502,148.61h4.52l-9.81,25.93Z"/><path class="cls-4" d="M528.17,166.19l4.54.56a11.08,11.08,0,0,1-4,6.18,13.48,13.48,0,0,1-16.44-1.31q-3.33-3.5-3.33-9.83,0-6.54,3.37-10.16a11.41,11.41,0,0,1,8.74-3.61,11.09,11.09,0,0,1,8.5,3.54q3.3,3.54,3.3,10,0,.39,0,1.17H513.5a10,10,0,0,0,2.42,6.54,7.19,7.19,0,0,0,5.42,2.27,6.72,6.72,0,0,0,4.13-1.27A8.43,8.43,0,0,0,528.17,166.19Zm-14.43-7.1h14.48a8.79,8.79,0,0,0-1.66-4.91,6.74,6.74,0,0,0-5.44-2.54,7,7,0,0,0-5.09,2A8,8,0,0,0,513.75,159.09Z"/><path class="cls-4" d="M538.18,174.54V148.61h4v3.93a10.71,10.71,0,0,1,2.8-3.64,4.88,4.88,0,0,1,2.82-.88,8.58,8.58,0,0,1,4.52,1.42l-1.51,4.08a6.29,6.29,0,0,0-3.22-1,4.18,4.18,0,0,0-2.59.87,4.69,4.69,0,0,0-1.64,2.4,17.12,17.12,0,0,0-.73,5.13v13.57Z"/><path class="cls-4" d="M554.69,184.53l-.49-4.13a9.82,9.82,0,0,0,2.51.39,4.83,4.83,0,0,0,2.34-.49,4,4,0,0,0,1.44-1.37,21.68,21.68,0,0,0,1.34-3.27q.12-.37.39-1.07l-9.84-26h4.74l5.4,15q1,2.86,1.88,6a59.21,59.21,0,0,1,1.81-5.91l5.54-15.11h4.39L566.28,175a51.93,51.93,0,0,1-2.47,5.88,8.69,8.69,0,0,1-2.69,3.19,6.35,6.35,0,0,1-3.61,1A8.82,8.82,0,0,1,554.69,184.53Z"/></g></g></g></svg>