<svg xmlns="http://www.w3.org/2000/svg" viewBox="0 0 522.02 50.54"><defs><style>.cls-1{fill:#6a0032;}.cls-2{fill:#404041;}</style></defs><title>IP_sc2_subTitle2_1</title><g id="Layer_2" data-name="Layer 2"><g id="Ui"><path class="cls-1" d="M248.77,19.56a37.53,37.53,0,0,0-1.92,11.5,37.53,37.53,0,0,0,1.92,11.5,35.59,35.59,0,0,0,4.7,9.86h-5.71a34,34,0,0,1-4.3-9.31,38.3,38.3,0,0,1,0-24.1,34,34,0,0,1,4.3-9.31h5.71A35.59,35.59,0,0,0,248.77,19.56Z" transform="translate(-4.18 -6.99)"/><path class="cls-1" d="M259.95,17.52v-5h19.63V16.9L271.47,26a9.85,9.85,0,0,1,7.2,2.9,9.31,9.31,0,0,1,2.59,6.6,10,10,0,0,1-3.48,8.06,13.43,13.43,0,0,1-9,2.93,19,19,0,0,1-10.7-3.5l2.4-4.56a14.88,14.88,0,0,0,8.64,2.88A8,8,0,0,0,274,39.91a4.56,4.56,0,0,0,1.9-3.94,4.83,4.83,0,0,0-2.11-4.1,9.8,9.8,0,0,0-5.86-1.54,12.26,12.26,0,0,0-3.6.53V26.55l7.78-9Z" transform="translate(-4.18 -6.99)"/><path class="cls-1" d="M301.37,32.45V26.31h5.38v6.14h4v5.14h-4V46h-5.38V37.59H287v-5l12.34-20.11h6.19l-12.14,20Z" transform="translate(-4.18 -6.99)"/><path class="cls-1" d="M330.84,16.95q-4.46,0-6.58,3a14.25,14.25,0,0,0-2.16,8.16,12.08,12.08,0,0,1,3.46-2.52,10.64,10.64,0,0,1,5-1.18,10.36,10.36,0,0,1,7.56,3,10.68,10.68,0,0,1,3,8,10.34,10.34,0,0,1-3.29,8,11.76,11.76,0,0,1-8.28,3q-8.06,0-11.14-7.2a23.91,23.91,0,0,1-1.73-9.31,28.79,28.79,0,0,1,1.1-8.64,14,14,0,0,1,3-5.47,12.2,12.2,0,0,1,9.19-3.94,15.75,15.75,0,0,1,9.86,3.41l-2.83,4.18a10.81,10.81,0,0,0-3-1.73A8.73,8.73,0,0,0,330.84,16.95Zm-1,12.48A7.35,7.35,0,0,0,325,31,5.17,5.17,0,0,0,323,35.21a6,6,0,0,0,1.87,4.42,6.42,6.42,0,0,0,4.7,1.85,6.84,6.84,0,0,0,4.7-1.66,5.39,5.39,0,0,0,1.87-4.22,6,6,0,0,0-6.36-6.17Z" transform="translate(-4.18 -6.99)"/><path class="cls-1" d="M361.9,22.06a36.36,36.36,0,0,1,6-.47c3.1,0,5.37.72,6.81,2a6.52,6.52,0,0,1,2.13,5.08A7.14,7.14,0,0,1,375,33.87c-1.66,1.76-4.36,2.66-7.42,2.66a10.79,10.79,0,0,1-2.52-.22V46H361.9ZM365,33.76a10.51,10.51,0,0,0,2.59.25c3.78,0,6.09-1.84,6.09-5.18s-2.27-4.75-5.73-4.75a13.16,13.16,0,0,0-3,.25Z" transform="translate(-4.18 -6.99)"/><path class="cls-1" d="M381.86,34c0-2.05,0-3.82-.14-5.44h2.77L384.6,32h.14a5.23,5.23,0,0,1,4.83-3.82,3.44,3.44,0,0,1,.9.11v3a4.78,4.78,0,0,0-1.08-.11c-2.23,0-3.82,1.69-4.25,4.07a8.94,8.94,0,0,0-.14,1.48V46h-3.13Z" transform="translate(-4.18 -6.99)"/><path class="cls-1" d="M410.32,37.18c0,6.44-4.47,9.25-8.68,9.25-4.72,0-8.36-3.46-8.36-9,0-5.83,3.82-9.25,8.65-9.25C406.93,28.22,410.32,31.85,410.32,37.18Zm-13.83.18c0,3.82,2.2,6.69,5.3,6.69s5.3-2.84,5.3-6.77c0-3-1.48-6.69-5.22-6.69S396.49,34,396.49,37.36Z" transform="translate(-4.18 -6.99)"/><path class="cls-1" d="M415.22,34.3c0-2.23-.07-4-.14-5.69h2.85l.14,3h.07a6.86,6.86,0,0,1,6.2-3.38c4.21,0,7.39,3.56,7.39,8.85,0,6.26-3.82,9.36-7.93,9.36a6.11,6.11,0,0,1-5.37-2.74h-.07v9.47h-3.13Zm3.13,4.64a7.15,7.15,0,0,0,.14,1.3,4.89,4.89,0,0,0,4.76,3.71c3.35,0,5.3-2.74,5.3-6.73,0-3.49-1.84-6.48-5.19-6.48a5.06,5.06,0,0,0-4.79,3.92,5.12,5.12,0,0,0-.22,1.3Z" transform="translate(-4.18 -6.99)"/><path class="cls-1" d="M452.4,37.18c0,6.44-4.47,9.25-8.68,9.25-4.72,0-8.36-3.46-8.36-9,0-5.83,3.82-9.25,8.65-9.25C449,28.22,452.4,31.85,452.4,37.18Zm-13.83.18c0,3.82,2.2,6.69,5.3,6.69s5.3-2.84,5.3-6.77c0-3-1.48-6.69-5.22-6.69S438.56,34,438.56,37.36Z" transform="translate(-4.18 -6.99)"/><path class="cls-1" d="M456.87,42.79A8.31,8.31,0,0,0,461,44.05c2.31,0,3.39-1.15,3.39-2.59s-.9-2.34-3.24-3.2c-3.13-1.12-4.61-2.84-4.61-4.93,0-2.81,2.27-5.11,6-5.11a8.71,8.71,0,0,1,4.29,1.08l-.79,2.3a6.79,6.79,0,0,0-3.57-1c-1.87,0-2.92,1.08-2.92,2.38s1,2.09,3.31,3c3,1.15,4.58,2.66,4.58,5.26,0,3.06-2.38,5.22-6.52,5.22a10,10,0,0,1-4.9-1.19Z" transform="translate(-4.18 -6.99)"/><path class="cls-1" d="M482.12,46l-.25-2.2h-.11a6.5,6.5,0,0,1-5.33,2.59,5,5,0,0,1-5.33-5c0-4.21,3.75-6.52,10.48-6.48v-.36c0-1.44-.4-4-4-4a8.69,8.69,0,0,0-4.54,1.3l-.72-2.09a10.83,10.83,0,0,1,5.73-1.55c5.33,0,6.63,3.64,6.63,7.13v6.52A24.49,24.49,0,0,0,485,46Zm-.47-8.89c-3.46-.07-7.39.54-7.39,3.92a2.8,2.8,0,0,0,3,3,4.34,4.34,0,0,0,4.21-2.92,3.29,3.29,0,0,0,.18-1Z" transform="translate(-4.18 -6.99)"/><path class="cls-1" d="M490.73,20.48h3.17V46h-3.17Z" transform="translate(-4.18 -6.99)"/><path class="cls-1" d="M499.7,42.79a8.31,8.31,0,0,0,4.18,1.26c2.31,0,3.39-1.15,3.39-2.59s-.9-2.34-3.24-3.2c-3.13-1.12-4.61-2.84-4.61-4.93,0-2.81,2.27-5.11,6-5.11a8.71,8.71,0,0,1,4.29,1.08l-.79,2.3a6.79,6.79,0,0,0-3.57-1c-1.87,0-2.92,1.08-2.92,2.38s1,2.09,3.31,3c3,1.15,4.58,2.66,4.58,5.26,0,3.06-2.38,5.22-6.52,5.22a10,10,0,0,1-4.9-1.19Z" transform="translate(-4.18 -6.99)"/><path class="cls-1" d="M519,42.55a37.56,37.56,0,0,0,1.92-11.5A37.56,37.56,0,0,0,519,19.56a35.63,35.63,0,0,0-4.7-9.86H520a34,34,0,0,1,4.3,9.31,38.3,38.3,0,0,1,0,24.1,34,34,0,0,1-4.3,9.31h-5.71A35.63,35.63,0,0,0,519,42.55Z" transform="translate(-4.18 -6.99)"/><path class="cls-2" d="M4.18,9.41a55.51,55.51,0,0,1,9.19-.71c4.73,0,8.2,1.1,10.4,3.08A10,10,0,0,1,27,19.53a10.91,10.91,0,0,1-2.86,7.92c-2.53,2.69-6.66,4.07-11.34,4.07A16.5,16.5,0,0,1,9,31.19V46H4.18ZM9,27.28a16.08,16.08,0,0,0,4,.38c5.78,0,9.3-2.8,9.3-7.92,0-4.89-3.47-7.26-8.75-7.26A20.13,20.13,0,0,0,9,12.87Z" transform="translate(-4.18 -6.99)"/><path class="cls-2" d="M34.68,7h4.84V46H34.68Z" transform="translate(-4.18 -6.99)"/><path class="cls-2" d="M63.79,46l-.39-3.35h-.17a9.92,9.92,0,0,1-8.15,4c-5.39,0-8.15-3.79-8.15-7.64,0-6.43,5.72-10,16-9.9v-.55c0-2.2-.61-6.16-6.05-6.16a13.28,13.28,0,0,0-6.93,2l-1.1-3.19a16.55,16.55,0,0,1,8.75-2.36c8.15,0,10.13,5.55,10.13,10.89v10A37.41,37.41,0,0,0,68.19,46Zm-.72-13.58c-5.28-.11-11.28.82-11.28,6a4.28,4.28,0,0,0,4.57,4.62,6.63,6.63,0,0,0,6.44-4.45,5.05,5.05,0,0,0,.28-1.54Z" transform="translate(-4.18 -6.99)"/><path class="cls-2" d="M76.95,26.62c0-2.75-.05-5-.22-7.2H81l.27,4.4h.11a9.8,9.8,0,0,1,8.81-5c3.69,0,9.41,2.2,9.41,11.33V46H94.78V30.69c0-4.29-1.6-7.86-6.16-7.86A7.1,7.1,0,0,0,81.79,30V46H76.95Z" transform="translate(-4.18 -6.99)"/><path class="cls-2" d="M108.87,26.62c0-2.75-.05-5-.22-7.2h4.29l.27,4.4h.11a9.8,9.8,0,0,1,8.81-5c3.69,0,9.41,2.2,9.41,11.33V46H126.7V30.69c0-4.29-1.6-7.86-6.16-7.86a7.1,7.1,0,0,0-6.82,7.2V46h-4.84Z" transform="translate(-4.18 -6.99)"/><path class="cls-2" d="M146.19,11.94a3,3,0,0,1-6,0,3,3,0,0,1,3-3A2.87,2.87,0,0,1,146.19,11.94ZM140.79,46V19.42h4.84V46Z" transform="translate(-4.18 -6.99)"/><path class="cls-2" d="M155,26.62c0-2.75-.05-5-.22-7.2h4.29l.27,4.4h.11a9.8,9.8,0,0,1,8.81-5c3.69,0,9.41,2.2,9.41,11.33V46h-4.84V30.69c0-4.29-1.6-7.86-6.16-7.86a7.1,7.1,0,0,0-6.82,7.2V46H155Z" transform="translate(-4.18 -6.99)"/><path class="cls-2" d="M209.92,19.42c-.11,1.92-.22,4.07-.22,7.31V42.19c0,6.1-1.21,9.84-3.8,12.15s-6.33,3.19-9.69,3.19c-3.19,0-6.71-.77-8.86-2.2l1.21-3.68a15,15,0,0,0,7.82,2.09c5,0,8.59-2.58,8.59-9.29v-3h-.11a9.51,9.51,0,0,1-8.48,4.45c-6.6,0-11.34-5.61-11.34-13,0-9,5.89-14.13,12-14.13,4.62,0,7.15,2.42,8.31,4.62h.11l.22-4Zm-5,10.5a6.88,6.88,0,0,0-.28-2.2,7,7,0,0,0-6.77-5.11c-4.62,0-7.93,3.9-7.93,10.06,0,5.22,2.64,9.57,7.87,9.57a7.08,7.08,0,0,0,6.71-4.95,8.42,8.42,0,0,0,.39-2.58Z" transform="translate(-4.18 -6.99)"/></g></g></svg>