<svg xmlns="http://www.w3.org/2000/svg" viewBox="0 0 458.02 51.2"><defs><style>.cls-1{fill:#404041;}.cls-2{fill:#6a0032;}</style></defs><title>IP_sc2_subTitle4_1</title><g id="Layer_2" data-name="Layer 2"><g id="Ui"><path class="cls-1" d="M4.18,9.46A68.66,68.66,0,0,1,14.37,8.7c6.88,0,11.78,1.59,15,4.62s5.23,7.31,5.23,13.31-1.87,11-5.34,14.41-9.19,5.33-16.4,5.33a77.38,77.38,0,0,1-8.7-.44ZM9,42.24a30.29,30.29,0,0,0,4.84.27c10.24,0,15.8-5.72,15.8-15.73.05-8.74-4.9-14.3-15-14.3A27.23,27.23,0,0,0,9,13Z" transform="translate(-4.18 -6.99)"/><path class="cls-1" d="M44.75,33.61c.11,6.54,4.29,9.24,9.14,9.24a17.53,17.53,0,0,0,7.38-1.37l.83,3.46a21.59,21.59,0,0,1-8.86,1.65c-8.2,0-13.1-5.39-13.1-13.42s4.73-14.35,12.49-14.35c8.7,0,11,7.64,11,12.54a18.09,18.09,0,0,1-.17,2.25Zm14.2-3.46c.06-3.08-1.27-7.86-6.71-7.86-4.9,0-7,4.51-7.43,7.86Z" transform="translate(-4.18 -6.99)"/><path class="cls-1" d="M71,7h4.84V46H71Z" transform="translate(-4.18 -6.99)"/><path class="cls-1" d="M90.76,11.94a3,3,0,0,1-6,0,3,3,0,0,1,3-3A2.87,2.87,0,0,1,90.76,11.94ZM85.37,46V19.42h4.84V46Z" transform="translate(-4.18 -6.99)"/><path class="cls-1" d="M101.49,19.42l5.23,15a68.21,68.21,0,0,1,2.15,6.82H109c.61-2.2,1.38-4.4,2.26-6.82l5.17-15h5.06L111.07,46h-4.62L96.32,19.42Z" transform="translate(-4.18 -6.99)"/><path class="cls-1" d="M130.17,33.61c.11,6.54,4.29,9.24,9.14,9.24a17.53,17.53,0,0,0,7.38-1.37l.83,3.46a21.59,21.59,0,0,1-8.86,1.65c-8.2,0-13.1-5.39-13.1-13.42S130.28,18.81,138,18.81c8.7,0,11,7.64,11,12.54a18.09,18.09,0,0,1-.17,2.25Zm14.2-3.46c.06-3.08-1.27-7.86-6.71-7.86-4.9,0-7,4.51-7.43,7.86Z" transform="translate(-4.18 -6.99)"/><path class="cls-1" d="M156.42,27.72c0-3.13-.05-5.83-.22-8.3h4.24l.16,5.22h.22c1.21-3.57,4.13-5.83,7.38-5.83a5.23,5.23,0,0,1,1.38.17v4.56a7.29,7.29,0,0,0-1.65-.16c-3.41,0-5.83,2.58-6.49,6.21a13.58,13.58,0,0,0-.22,2.25V46h-4.79Z" transform="translate(-4.18 -6.99)"/><path class="cls-1" d="M177.56,19.42l5.83,15.73c.61,1.76,1.27,3.85,1.71,5.44h.11c.5-1.59,1-3.63,1.71-5.55l5.28-15.62h5.12l-7.26,19c-3.47,9.13-5.83,13.8-9.14,16.66A13.13,13.13,0,0,1,175,58.19l-1.21-4.07A12.8,12.8,0,0,0,178,51.75a14.67,14.67,0,0,0,4.07-5.39,3.49,3.49,0,0,0,.39-1.15,4.23,4.23,0,0,0-.33-1.27l-9.85-24.53Z" transform="translate(-4.18 -6.99)"/><path class="cls-2" d="M232.07,19.56a37.53,37.53,0,0,0-1.92,11.5,37.53,37.53,0,0,0,1.92,11.5,35.58,35.58,0,0,0,4.7,9.86h-5.71a34,34,0,0,1-4.3-9.31,38.3,38.3,0,0,1,0-24.1,34,34,0,0,1,4.3-9.31h5.71A35.58,35.58,0,0,0,232.07,19.56Z" transform="translate(-4.18 -6.99)"/><path class="cls-2" d="M241,12.48h12.19V46h-5.38V17.52H241Z" transform="translate(-4.18 -6.99)"/><path class="cls-2" d="M260.44,12.48h12.19V46h-5.37V17.52h-6.82Z" transform="translate(-4.18 -6.99)"/><path class="cls-2" d="M285.73,14.35a14.05,14.05,0,0,1,16.13,0,7.85,7.85,0,0,1,3.22,6.41,8.72,8.72,0,0,1-3.6,6.84,9.69,9.69,0,0,1,4.85,8.64,9.13,9.13,0,0,1-3.46,7.25,15.52,15.52,0,0,1-18.14,0,9.14,9.14,0,0,1-3.46-7.25,9.69,9.69,0,0,1,4.85-8.64,8.72,8.72,0,0,1-3.6-6.84A7.85,7.85,0,0,1,285.73,14.35Zm3.36,25.75a8.52,8.52,0,0,0,9.41,0,4.54,4.54,0,0,0,2.21-4.06A4.65,4.65,0,0,0,298.6,32a8.72,8.72,0,0,0-9.6,0,4.65,4.65,0,0,0-2.11,4.08A4.54,4.54,0,0,0,289.09,40.11Zm.46-15.26a6.9,6.9,0,0,0,8.5,0,4.48,4.48,0,0,0,1.8-3.6,4.41,4.41,0,0,0-1.8-3.58,7,7,0,0,0-8.5,0,4.41,4.41,0,0,0-1.8,3.58A4.48,4.48,0,0,0,289.55,24.84Z" transform="translate(-4.18 -6.99)"/><path class="cls-2" d="M327.35,22.06a36.36,36.36,0,0,1,6-.47c3.1,0,5.37.72,6.81,2a6.52,6.52,0,0,1,2.13,5.08,7.14,7.14,0,0,1-1.87,5.18c-1.66,1.76-4.36,2.66-7.42,2.66a10.79,10.79,0,0,1-2.52-.22V46h-3.13Zm3.13,11.7a10.5,10.5,0,0,0,2.59.25c3.78,0,6.09-1.84,6.09-5.18s-2.27-4.75-5.73-4.75a13.15,13.15,0,0,0-3,.25Z" transform="translate(-4.18 -6.99)"/><path class="cls-2" d="M347.31,34c0-2.05,0-3.82-.14-5.44h2.77L350,32h.14A5.23,5.23,0,0,1,355,28.22a3.45,3.45,0,0,1,.9.11v3a4.78,4.78,0,0,0-1.08-.11c-2.23,0-3.82,1.69-4.25,4.07a8.89,8.89,0,0,0-.14,1.48V46h-3.13Z" transform="translate(-4.18 -6.99)"/><path class="cls-2" d="M375.77,37.18c0,6.44-4.47,9.25-8.68,9.25-4.72,0-8.36-3.46-8.36-9,0-5.83,3.82-9.25,8.65-9.25C372.38,28.22,375.77,31.85,375.77,37.18Zm-13.83.18c0,3.82,2.2,6.69,5.3,6.69s5.3-2.84,5.3-6.77c0-3-1.48-6.69-5.22-6.69S361.94,34,361.94,37.36Z" transform="translate(-4.18 -6.99)"/><path class="cls-2" d="M376.42,51.07a5.14,5.14,0,0,0,3.46-1.33c.87-1,1.19-2.38,1.19-6.55V28.61h3.17v15.8c0,3.38-.54,5.58-2.09,7.16a8,8,0,0,1-5.4,2Zm8.18-27.36a1.86,1.86,0,0,1-2,1.94,1.89,1.89,0,0,1-1.95-1.94,1.94,1.94,0,0,1,2-2A1.87,1.87,0,0,1,384.6,23.72Z" transform="translate(-4.18 -6.99)"/><path class="cls-2" d="M392.09,37.9c.07,4.28,2.81,6,6,6a11.48,11.48,0,0,0,4.83-.9l.54,2.27a14.13,14.13,0,0,1-5.8,1.08c-5.37,0-8.57-3.53-8.57-8.78s3.1-9.4,8.18-9.4c5.69,0,7.21,5,7.21,8.21a11.91,11.91,0,0,1-.11,1.48Zm9.29-2.27c0-2-.83-5.15-4.39-5.15-3.21,0-4.61,3-4.86,5.15Z" transform="translate(-4.18 -6.99)"/><path class="cls-2" d="M421.7,45.39a11.68,11.68,0,0,1-5,1c-5.26,0-8.68-3.56-8.68-8.89s3.67-9.25,9.37-9.25a10.6,10.6,0,0,1,4.39.9l-.72,2.45a7.35,7.35,0,0,0-3.67-.83c-4,0-6.16,3-6.16,6.59,0,4,2.59,6.52,6.05,6.52a9,9,0,0,0,3.89-.86Z" transform="translate(-4.18 -6.99)"/><path class="cls-2" d="M430.14,23.61v5h4.54V31h-4.54v9.4c0,2.16.61,3.38,2.38,3.38a7.07,7.07,0,0,0,1.84-.22l.14,2.38a7.77,7.77,0,0,1-2.81.43,4.4,4.4,0,0,1-3.42-1.33c-.9-.94-1.22-2.48-1.22-4.54V31h-2.7V28.61H427V24.44Z" transform="translate(-4.18 -6.99)"/><path class="cls-2" d="M438.71,42.8a8.3,8.3,0,0,0,4.18,1.26c2.31,0,3.39-1.15,3.39-2.59s-.9-2.34-3.24-3.2c-3.13-1.12-4.61-2.84-4.61-4.93,0-2.81,2.27-5.11,6-5.11a8.71,8.71,0,0,1,4.29,1.08l-.79,2.3a6.8,6.8,0,0,0-3.57-1c-1.87,0-2.92,1.08-2.92,2.38s1,2.09,3.31,3c3,1.15,4.58,2.66,4.58,5.26,0,3.06-2.38,5.22-6.52,5.22a10,10,0,0,1-4.9-1.19Z" transform="translate(-4.18 -6.99)"/><path class="cls-2" d="M452.64,51.84a32.48,32.48,0,0,0,6.05-19.63,31.81,31.81,0,0,0-6.05-19.49h3.27c3.07,3.94,6.29,10.08,6.29,19.54a31.15,31.15,0,0,1-6.29,19.59Z" transform="translate(-4.18 -6.99)"/></g></g></svg>