<svg xmlns="http://www.w3.org/2000/svg" viewBox="0 0 1080 178"><defs><style>.cls-1{fill:#39c6bc;}.cls-2{fill:#fff;}</style></defs><title>IP_sc4_header_1</title><g id="Layer_2" data-name="Layer 2"><g id="Ui"><rect class="cls-1" width="1080" height="178"/><path class="cls-2" d="M463.29,66v6.85h-16.2v7.55h15.4v6.85h-15.4v13.7h-7.8V66Z"/><path class="cls-2" d="M469.76,70.59a4.47,4.47,0,1,1,3.13,1.28A4.25,4.25,0,0,1,469.76,70.59Zm6.88,30.33h-7.5V74h7.5Z"/><path class="cls-2" d="M491.24,100.92h-7.5V63.82h7.5Z"/><path class="cls-2" d="M507.29,79.42v12a3.46,3.46,0,0,0,.8,2.43,2.49,2.49,0,0,0,1.9.88,4.33,4.33,0,0,0,3.55-1.9l2.8,5.25a10.83,10.83,0,0,1-7.37,3.2,9,9,0,0,1-9.22-9.5V79.42h-3.15V74h3.15V66h7.55V74h6.5v5.4Z"/><path class="cls-2" d="M543.64,97a15,15,0,0,1-10.67,4.3,14.16,14.16,0,0,1-10.12-3.77,13.26,13.26,0,0,1-4-10.12,13.06,13.06,0,0,1,4.08-10.1,13.74,13.74,0,0,1,9.63-3.75A13.92,13.92,0,0,1,542,76.92a11.52,11.52,0,0,1,3.88,9.2v4h-19.6a5.34,5.34,0,0,0,2.3,3.6,7.36,7.36,0,0,0,4.4,1.4,8.63,8.63,0,0,0,6.5-2.65Zm-7.2-16a5.68,5.68,0,0,0-3.78-1.3,6.76,6.76,0,0,0-4.08,1.35,5.16,5.16,0,0,0-2.15,3.65h11.8A5.33,5.33,0,0,0,536.44,81.07Z"/><path class="cls-2" d="M565.39,80.62a5.68,5.68,0,0,0-5,2.38,10.79,10.79,0,0,0-1.65,6.27v11.65h-7.5V74h7.5v3.55a12.6,12.6,0,0,1,3.63-2.8,9.86,9.86,0,0,1,4.42-1.2l.05,7.05Z"/><path class="cls-2" d="M600.49,73.57A11.46,11.46,0,0,1,609,77.39a13.65,13.65,0,0,1,3.65,9.82,14.23,14.23,0,0,1-3.75,10.05,11.36,11.36,0,0,1-8.53,4,9.73,9.73,0,0,1-7.92-3.95v3.55H585V63.82h7.5V77A10.26,10.26,0,0,1,600.49,73.57Zm-8.1,13.93a7.8,7.8,0,0,0,1.83,5.35,5.68,5.68,0,0,0,4.42,2.08,6.06,6.06,0,0,0,4.55-2.08,7.46,7.46,0,0,0,2-5.32,8,8,0,0,0-1.9-5.45,5.82,5.82,0,0,0-4.55-2.2A5.63,5.63,0,0,0,594.21,82,8.18,8.18,0,0,0,592.39,87.49Z"/><path class="cls-2" d="M622.39,111.52a10.91,10.91,0,0,1-7.45-3.2l3.4-5.55a5.61,5.61,0,0,0,3.9,1.85,2.19,2.19,0,0,0,1.8-1,3.62,3.62,0,0,0,.75-2.17q0-1.15-10.4-27.4h8l6.55,16.75L635.49,74h8L631,105.72a8.93,8.93,0,0,1-3.42,4.28A9.24,9.24,0,0,1,622.39,111.52Z"/><path class="cls-2" d="M74.81,127.54a7.4,7.4,0,0,0,3.74,1.06c2.14,0,3.38-1.13,3.38-2.76s-.86-2.38-3-3.22c-2.64-.94-4.27-2.3-4.27-4.58,0-2.52,2.09-4.39,5.23-4.39a7.35,7.35,0,0,1,3.58.79l-.58,1.7a6.44,6.44,0,0,0-3.07-.77c-2.21,0-3,1.32-3,2.42,0,1.51,1,2.26,3.22,3.12,2.74,1.06,4.13,2.38,4.13,4.75s-1.85,4.66-5.66,4.66a8.36,8.36,0,0,1-4.13-1Z"/><path class="cls-2" d="M88,124.66a3.72,3.72,0,0,0,4,4,7.64,7.64,0,0,0,3.22-.6l.36,1.51a9.41,9.41,0,0,1-3.86.72c-3.58,0-5.71-2.35-5.71-5.86s2.06-6.26,5.45-6.26c3.79,0,4.8,3.34,4.8,5.47a7.88,7.88,0,0,1-.07,1Zm6.19-1.51c0-1.34-.55-3.43-2.93-3.43-2.14,0-3.07,2-3.24,3.43Z"/><path class="cls-2" d="M98.88,113H101v17H98.88Z"/><path class="cls-2" d="M105.72,124.66a3.72,3.72,0,0,0,4,4,7.64,7.64,0,0,0,3.22-.6l.36,1.51a9.41,9.41,0,0,1-3.86.72c-3.58,0-5.71-2.35-5.71-5.86s2.06-6.26,5.45-6.26c3.79,0,4.8,3.34,4.8,5.47a7.88,7.88,0,0,1-.07,1Zm6.19-1.51c0-1.34-.55-3.43-2.93-3.43-2.14,0-3.07,2-3.24,3.43Z"/><path class="cls-2" d="M124.85,129.65a7.78,7.78,0,0,1-3.34.67c-3.5,0-5.78-2.38-5.78-5.93a5.9,5.9,0,0,1,6.24-6.17,7.06,7.06,0,0,1,2.93.6l-.48,1.63a4.9,4.9,0,0,0-2.45-.55c-2.66,0-4.1,2-4.1,4.39,0,2.69,1.73,4.34,4,4.34a6,6,0,0,0,2.59-.58Z"/><path class="cls-2" d="M129.86,115.13v3.34h3v1.61h-3v6.26c0,1.44.41,2.26,1.58,2.26a4.68,4.68,0,0,0,1.22-.14l.1,1.58a5.17,5.17,0,0,1-1.87.29,2.93,2.93,0,0,1-2.28-.89,4.31,4.31,0,0,1-.82-3v-6.34H126v-1.61h1.8v-2.78Z"/><path class="cls-2" d="M136.44,124.66a3.72,3.72,0,0,0,4,4,7.64,7.64,0,0,0,3.22-.6l.36,1.51a9.41,9.41,0,0,1-3.86.72c-3.58,0-5.71-2.35-5.71-5.86s2.06-6.26,5.45-6.26c3.79,0,4.8,3.34,4.8,5.47a7.88,7.88,0,0,1-.07,1Zm6.19-1.51c0-1.34-.55-3.43-2.93-3.43-2.14,0-3.07,2-3.24,3.43Z"/><path class="cls-2" d="M157.32,113v14c0,1,0,2.21.1,3h-1.9l-.1-2h0a4.3,4.3,0,0,1-4,2.28c-2.81,0-5-2.38-5-5.9,0-3.86,2.38-6.24,5.21-6.24a3.89,3.89,0,0,1,3.5,1.78h0V113Zm-2.11,10.15a3.77,3.77,0,0,0-.1-.89,3.11,3.11,0,0,0-3-2.45c-2.18,0-3.48,1.92-3.48,4.49,0,2.35,1.15,4.3,3.43,4.3a3.18,3.18,0,0,0,3.1-2.52,3.7,3.7,0,0,0,.1-.91Z"/></g></g></svg>