<svg xmlns="http://www.w3.org/2000/svg" viewBox="0 0 279.97 29.19"><defs><style>.cls-1{opacity:0.3;}.cls-2{fill:#00c0f2;}</style></defs><title>IP_sc4_assetBtn</title><g id="Layer_2" data-name="Layer 2"><g id="Ui"><g class="cls-1"><path class="cls-2" d="M7.77,26.25,4.83,35.15H1.05L10.67,6.84h4.41l9.66,28.31H20.84l-3-8.91Zm9.28-2.86-2.77-8.15c-.63-1.85-1.05-3.53-1.47-5.17h-.08c-.42,1.68-.88,3.4-1.43,5.13L8.53,23.39Z" transform="translate(-1.05 -6.38)"/><path class="cls-2" d="M29.44,30.7A13,13,0,0,0,36,32.55c3.74,0,5.92-2,5.92-4.83,0-2.65-1.51-4.16-5.33-5.63-4.62-1.64-7.48-4-7.48-8,0-4.41,3.65-7.69,9.16-7.69a12.87,12.87,0,0,1,6.26,1.39l-1,3A11.27,11.27,0,0,0,38.14,9.4c-3.86,0-5.33,2.31-5.33,4.24,0,2.65,1.72,3.95,5.63,5.46,4.79,1.85,7.23,4.16,7.23,8.32,0,4.37-3.23,8.15-9.91,8.15a14.64,14.64,0,0,1-7.23-1.81Z" transform="translate(-1.05 -6.38)"/><path class="cls-2" d="M51.2,30.7a13,13,0,0,0,6.55,1.85c3.74,0,5.92-2,5.92-4.83,0-2.65-1.51-4.16-5.33-5.63-4.62-1.64-7.48-4-7.48-8,0-4.41,3.65-7.69,9.16-7.69a12.87,12.87,0,0,1,6.26,1.39l-1,3A11.27,11.27,0,0,0,59.89,9.4c-3.86,0-5.33,2.31-5.33,4.24,0,2.65,1.72,3.95,5.63,5.46C65,21,67.41,23.27,67.41,27.42c0,4.37-3.23,8.15-9.91,8.15a14.64,14.64,0,0,1-7.23-1.81Z" transform="translate(-1.05 -6.38)"/><path class="cls-2" d="M88.12,21.88h-11V32.09H89.38v3.07H73.46V6.84H88.75V9.91H77.11v8.95h11Z" transform="translate(-1.05 -6.38)"/><path class="cls-2" d="M100.55,9.95H91.94V6.84h21V9.95h-8.65v25.2h-3.7Z" transform="translate(-1.05 -6.38)"/><path class="cls-2" d="M146.83,34.23a18.13,18.13,0,0,1-7.48,1.34c-8,0-14-5-14-14.32,0-8.86,6-14.87,14.79-14.87a15.18,15.18,0,0,1,6.72,1.26l-.88,3a13.31,13.31,0,0,0-5.71-1.18c-6.64,0-11,4.24-11,11.68,0,6.93,4,11.38,10.88,11.38a14.62,14.62,0,0,0,6-1.18Z" transform="translate(-1.05 -6.38)"/><path class="cls-2" d="M152.46,6.84h3.65V32.09h12.1v3.07H152.46Z" transform="translate(-1.05 -6.38)"/><path class="cls-2" d="M177.91,26.25,175,35.15h-3.78l9.62-28.31h4.41l9.66,28.31H191l-3-8.91Zm9.28-2.86-2.77-8.15c-.63-1.85-1.05-3.53-1.47-5.17h-.08c-.42,1.68-.88,3.4-1.43,5.13l-2.77,8.19Z" transform="translate(-1.05 -6.38)"/><path class="cls-2" d="M199.58,30.7a13,13,0,0,0,6.55,1.85c3.74,0,5.92-2,5.92-4.83,0-2.65-1.51-4.16-5.34-5.63-4.62-1.64-7.48-4-7.48-8,0-4.41,3.65-7.69,9.16-7.69a12.86,12.86,0,0,1,6.26,1.39l-1,3a11.27,11.27,0,0,0-5.38-1.34c-3.86,0-5.33,2.31-5.33,4.24,0,2.65,1.72,3.95,5.63,5.46,4.79,1.85,7.22,4.16,7.22,8.32,0,4.37-3.23,8.15-9.91,8.15a14.63,14.63,0,0,1-7.22-1.81Z" transform="translate(-1.05 -6.38)"/><path class="cls-2" d="M221.34,30.7a13,13,0,0,0,6.55,1.85c3.74,0,5.92-2,5.92-4.83,0-2.65-1.51-4.16-5.34-5.63-4.62-1.64-7.48-4-7.48-8,0-4.41,3.65-7.69,9.16-7.69a12.86,12.86,0,0,1,6.26,1.39l-1,3A11.27,11.27,0,0,0,230,9.4c-3.86,0-5.33,2.31-5.33,4.24,0,2.65,1.72,3.95,5.63,5.46,4.79,1.85,7.22,4.16,7.22,8.32,0,4.37-3.23,8.15-9.91,8.15a14.63,14.63,0,0,1-7.22-1.81Z" transform="translate(-1.05 -6.38)"/><path class="cls-2" d="M258.26,21.88h-11V32.09h12.27v3.07H243.6V6.84h15.29V9.91H247.25v8.95h11Z" transform="translate(-1.05 -6.38)"/><path class="cls-2" d="M264.81,30.7a13,13,0,0,0,6.55,1.85c3.74,0,5.92-2,5.92-4.83,0-2.65-1.51-4.16-5.33-5.63-4.62-1.64-7.48-4-7.48-8,0-4.41,3.65-7.69,9.16-7.69a12.86,12.86,0,0,1,6.26,1.39l-1,3A11.27,11.27,0,0,0,273.5,9.4c-3.86,0-5.33,2.31-5.33,4.24,0,2.65,1.72,3.95,5.63,5.46C278.59,21,281,23.27,281,27.42c0,4.37-3.23,8.15-9.91,8.15a14.63,14.63,0,0,1-7.23-1.81Z" transform="translate(-1.05 -6.38)"/></g></g></g></svg>