<svg xmlns="http://www.w3.org/2000/svg" viewBox="0 0 792.98 138.3"><defs><style>.cls-1{fill:#58595b;}</style></defs><title>IP_sc2_subText4</title><g id="Layer_2" data-name="Layer 2"><g id="Ui"><path class="cls-1" d="M11.36,27V5h3.14V27Z" transform="translate(-11.36 -3.47)"/><path class="cls-1" d="M29.28,27V16.21c0-1.44-.13-2-.51-2.46a2,2,0,0,0-1.63-.64,6.47,6.47,0,0,0-4,2V27H20.25V15.09a8.74,8.74,0,0,0-.61-3.81l2.78-.77A5.1,5.1,0,0,1,23,13a13.86,13.86,0,0,1,2.08-1.57,5.94,5.94,0,0,1,3-.8,4,4,0,0,1,3.78,2.27,5,5,0,0,1,.38,2V27Z" transform="translate(-11.36 -3.47)"/><path class="cls-1" d="M45.12,6.45A4.59,4.59,0,0,0,43,5.84c-1.34,0-2.14.93-2.14,2.56V11h4.26l-.77,2.08H40.92V27h-3v-14H36.41V11H38c-.06-.32-.06-2.3-.06-2.56a4.61,4.61,0,0,1,1.79-4,4.88,4.88,0,0,1,2.91-.77,6.56,6.56,0,0,1,3.49.86Z" transform="translate(-11.36 -3.47)"/><path class="cls-1" d="M54.81,13.58a2.39,2.39,0,0,0-.83-.16,3.35,3.35,0,0,0-3.33,3.26V27H47.71V15.25a10.24,10.24,0,0,0-.61-4l2.85-.74A6.63,6.63,0,0,1,50.49,13v.29c1.28-1.86,2.66-2.78,4.35-2.78a2.92,2.92,0,0,1,1,.16Z" transform="translate(-11.36 -3.47)"/><path class="cls-1" d="M69.31,27.7a3.66,3.66,0,0,1-2.14-2.3,5.57,5.57,0,0,1-4.54,2.11c-3.2,0-5.18-1.63-5.18-4.7,0-3.71,3-5.7,8.16-5.7.38,0,.7,0,1.12,0V16.08c0-1.89-.26-3.17-2.5-3.17a8.86,8.86,0,0,0-4.93,1.82l-1.34-2.11a12.63,12.63,0,0,1,6.72-2.11c2.34,0,4,.86,4.64,2.56a7.32,7.32,0,0,1,.32,2.82c0,1.15-.13,3.62-.13,6s.06,3.1,1.31,3.87Zm-3.62-8.61c-2.21,0-3.55.42-4.19,1.15a3.09,3.09,0,0,0-.83,2.34c0,1.76.9,2.78,2.53,2.78a4,4,0,0,0,3.36-2.11l.1-4.1C66.2,19.12,65.95,19.09,65.69,19.09Z" transform="translate(-11.36 -3.47)"/><path class="cls-1" d="M79.71,27.47a12.21,12.21,0,0,1-6-1.7l1.06-2.11a10.93,10.93,0,0,0,5.15,1.6c1.76,0,3-1,3-2.59,0-1.38-.83-2.18-2.69-2.53l-2-.38c-2.53-.51-3.9-2.08-3.9-4.45,0-2.94,2.34-5,5.79-5a10.2,10.2,0,0,1,5.06,1.31l-1,2.08a8.68,8.68,0,0,0-3.94-1.15c-1.7,0-2.78,1-2.78,2.4,0,1.15.58,1.79,2.27,2.18l2.08.48C84.79,18.29,86,20,86,22.1,86,25.3,83.45,27.47,79.71,27.47Z" transform="translate(-11.36 -3.47)"/><path class="cls-1" d="M96.38,13.07H93.21v9.66c0,2,.48,2.59,2.08,2.59a3.54,3.54,0,0,0,1.5-.32l.35,1.79a6.38,6.38,0,0,1-2.91.67,4.57,4.57,0,0,1-2.82-.86c-.64-.58-1.09-1-1.09-3.2V13.07H88.41V11h1.92a34.73,34.73,0,0,1,.19-4.1l3-.7c-.13,1.15-.29,3.17-.29,4.8h3.9Z" transform="translate(-11.36 -3.47)"/><path class="cls-1" d="M107.64,13.58a2.39,2.39,0,0,0-.83-.16,3.35,3.35,0,0,0-3.33,3.26V27h-2.94V15.25a10.24,10.24,0,0,0-.61-4l2.85-.74a6.63,6.63,0,0,1,.54,2.46v.29c1.28-1.86,2.66-2.78,4.35-2.78a2.92,2.92,0,0,1,1,.16Z" transform="translate(-11.36 -3.47)"/><path class="cls-1" d="M122.59,27.57a3.79,3.79,0,0,1-1.5-2.3,5.88,5.88,0,0,1-4.83,2.3,4.51,4.51,0,0,1-4.32-2.4,6.82,6.82,0,0,1-.38-2.69V11.09l2.91-.58V21.68c0,1.63.16,2.27.74,2.82a2.93,2.93,0,0,0,1.86.7,4.42,4.42,0,0,0,3.65-2.53V11.15l2.91-.58V22.64c0,1.63.35,2.78,1,3.33Z" transform="translate(-11.36 -3.47)"/><path class="cls-1" d="M135.1,27.34a5.87,5.87,0,0,1-5.15-2.4,9.68,9.68,0,0,1-1.54-5.79c0-3.62,1.15-5.7,2.69-7.07a6.27,6.27,0,0,1,8.51.06l-1.54,2a3.91,3.91,0,0,0-2.82-1.25,3.08,3.08,0,0,0-2.82,1.73,11.36,11.36,0,0,0-.77,4.9c0,2.24.45,3.71,1.28,4.61a3.11,3.11,0,0,0,2.3,1,4.48,4.48,0,0,0,3.33-1.66L140,25.26A6.31,6.31,0,0,1,135.1,27.34Z" transform="translate(-11.36 -3.47)"/><path class="cls-1" d="M150.23,13.07h-3.17v9.66c0,2,.48,2.59,2.08,2.59a3.54,3.54,0,0,0,1.5-.32L151,26.8a6.38,6.38,0,0,1-2.91.67,4.57,4.57,0,0,1-2.82-.86c-.64-.58-1.09-1-1.09-3.2V13.07h-1.92V11h1.92a34.73,34.73,0,0,1,.19-4.1l3-.7c-.13,1.15-.29,3.17-.29,4.8H151Z" transform="translate(-11.36 -3.47)"/><path class="cls-1" d="M165.27,27.57a3.79,3.79,0,0,1-1.5-2.3,5.88,5.88,0,0,1-4.83,2.3,4.51,4.51,0,0,1-4.32-2.4,6.82,6.82,0,0,1-.38-2.69V11.09l2.91-.58V21.68c0,1.63.16,2.27.74,2.82a2.93,2.93,0,0,0,1.86.7,4.42,4.42,0,0,0,3.65-2.53V11.15l2.91-.58V22.64c0,1.63.35,2.78,1,3.33Z" transform="translate(-11.36 -3.47)"/><path class="cls-1" d="M178.84,13.58a2.39,2.39,0,0,0-.83-.16,3.35,3.35,0,0,0-3.33,3.26V27h-2.94V15.25a10.24,10.24,0,0,0-.61-4l2.85-.74a6.63,6.63,0,0,1,.54,2.46v.29c1.28-1.86,2.66-2.78,4.35-2.78a2.92,2.92,0,0,1,1,.16Z" transform="translate(-11.36 -3.47)"/><path class="cls-1" d="M184.83,19.63V20a6,6,0,0,0,.67,3.2,4.18,4.18,0,0,0,3.68,1.89,5.7,5.7,0,0,0,3.94-1.54l1.12,1.76a8.19,8.19,0,0,1-5.54,2c-4.45,0-7.17-3.23-7.17-8.48,0-2.78.54-4.58,1.92-6.21a6,6,0,0,1,4.83-2.21,5.79,5.79,0,0,1,4.35,1.73c1.41,1.44,1.92,3.23,2,6.91v.51Zm5.7-5.79a2.88,2.88,0,0,0-2.3-1.12c-2.24,0-3.36,1.82-3.36,4.74h6.66A5.86,5.86,0,0,0,190.52,13.84Z" transform="translate(-11.36 -3.47)"/><path class="cls-1" d="M207.77,8.18a2.08,2.08,0,0,1-2-2.11,2.1,2.1,0,1,1,4.19,0A2.14,2.14,0,0,1,207.77,8.18ZM206.27,27V11.09l3-.48V27Z" transform="translate(-11.36 -3.47)"/><path class="cls-1" d="M224.09,27V16.21c0-1.44-.13-2-.51-2.46a2,2,0,0,0-1.63-.64,6.47,6.47,0,0,0-4,2V27h-2.91V15.09a8.76,8.76,0,0,0-.61-3.81l2.78-.77a5.09,5.09,0,0,1,.54,2.46,13.81,13.81,0,0,1,2.08-1.57,5.94,5.94,0,0,1,3-.8,4,4,0,0,1,3.78,2.27,5,5,0,0,1,.38,2V27Z" transform="translate(-11.36 -3.47)"/><path class="cls-1" d="M234.27,8.18a2.08,2.08,0,0,1-2-2.11,2.1,2.1,0,1,1,4.19,0A2.14,2.14,0,0,1,234.27,8.18ZM232.76,27V11.09l3-.48V27Z" transform="translate(-11.36 -3.47)"/><path class="cls-1" d="M247.61,13.07h-3.17v9.66c0,2,.48,2.59,2.08,2.59A3.54,3.54,0,0,0,248,25l.35,1.79a6.38,6.38,0,0,1-2.91.67,4.57,4.57,0,0,1-2.82-.86c-.64-.58-1.09-1-1.09-3.2V13.07h-1.92V11h1.92a34.73,34.73,0,0,1,.19-4.1l3-.7c-.13,1.15-.29,3.17-.29,4.8h3.9Z" transform="translate(-11.36 -3.47)"/><path class="cls-1" d="M253.59,8.18a2.08,2.08,0,0,1-2-2.11,2.1,2.1,0,1,1,4.19,0A2.14,2.14,0,0,1,253.59,8.18ZM252.09,27V11.09l3-.48V27Z" transform="translate(-11.36 -3.47)"/><path class="cls-1" d="M271.48,27.7a3.66,3.66,0,0,1-2.14-2.3,5.57,5.57,0,0,1-4.54,2.11c-3.2,0-5.18-1.63-5.18-4.7,0-3.71,3-5.7,8.16-5.7.38,0,.7,0,1.12,0V16.08c0-1.89-.26-3.17-2.5-3.17a8.85,8.85,0,0,0-4.93,1.82l-1.34-2.11a12.62,12.62,0,0,1,6.72-2.11c2.34,0,4,.86,4.64,2.56a7.3,7.3,0,0,1,.32,2.82c0,1.15-.13,3.62-.13,6s.06,3.1,1.31,3.87Zm-3.62-8.61c-2.21,0-3.55.42-4.19,1.15a3.1,3.1,0,0,0-.83,2.34c0,1.76.9,2.78,2.53,2.78a4,4,0,0,0,3.36-2.11l.1-4.1C268.38,19.12,268.12,19.09,267.87,19.09Z" transform="translate(-11.36 -3.47)"/><path class="cls-1" d="M283.54,13.07h-3.17v9.66c0,2,.48,2.59,2.08,2.59A3.54,3.54,0,0,0,284,25l.35,1.79a6.38,6.38,0,0,1-2.91.67,4.57,4.57,0,0,1-2.82-.86c-.64-.58-1.09-1-1.09-3.2V13.07h-1.92V11h1.92a34.73,34.73,0,0,1,.19-4.1l3-.7c-.13,1.15-.29,3.17-.29,4.8h3.9Z" transform="translate(-11.36 -3.47)"/><path class="cls-1" d="M289.53,8.18a2.08,2.08,0,0,1-2-2.11,2.1,2.1,0,1,1,4.19,0A2.14,2.14,0,0,1,289.53,8.18ZM288,27V11.09l3-.48V27Z" transform="translate(-11.36 -3.47)"/><path class="cls-1" d="M302.42,27.15h-2.75l-5.73-16.09,3-.48,3.17,9.7c.35,1.09.71,2.37,1,3.46h.06a28.77,28.77,0,0,1,1-3.52l3-9.22h3.1Z" transform="translate(-11.36 -3.47)"/><path class="cls-1" d="M313.4,19.63V20a6,6,0,0,0,.67,3.2,4.18,4.18,0,0,0,3.68,1.89,5.7,5.7,0,0,0,3.94-1.54l1.12,1.76a8.19,8.19,0,0,1-5.54,2c-4.45,0-7.17-3.23-7.17-8.48,0-2.78.54-4.58,1.92-6.21a6,6,0,0,1,4.83-2.21,5.79,5.79,0,0,1,4.35,1.73c1.41,1.44,1.92,3.23,2,6.91v.51Zm5.7-5.79a2.88,2.88,0,0,0-2.3-1.12c-2.24,0-3.36,1.82-3.36,4.74h6.66A5.86,5.86,0,0,0,319.1,13.84Z" transform="translate(-11.36 -3.47)"/><path class="cls-1" d="M332.19,27.47a12.21,12.21,0,0,1-6-1.7l1.06-2.11a10.93,10.93,0,0,0,5.15,1.6c1.76,0,3-1,3-2.59,0-1.38-.83-2.18-2.69-2.53l-2-.38c-2.53-.51-3.9-2.08-3.9-4.45,0-2.94,2.34-5,5.79-5a10.19,10.19,0,0,1,5.06,1.31l-1,2.08a8.68,8.68,0,0,0-3.94-1.15c-1.7,0-2.78,1-2.78,2.4,0,1.15.58,1.79,2.27,2.18l2.08.48c2.94.67,4.16,2.37,4.16,4.48C338.49,25.3,335.93,27.47,332.19,27.47Z" transform="translate(-11.36 -3.47)"/><path class="cls-1" d="M367,27V15.54c0-1.82-.58-2.46-1.92-2.46s-2.53,1-3.74,2.18V27h-2.88V15.6c0-1.79-.51-2.46-2-2.46A5.51,5.51,0,0,0,352.76,15V27h-2.91V15.25a8.73,8.73,0,0,0-.58-4l2.75-.67a4.54,4.54,0,0,1,.54,2.24,6.55,6.55,0,0,1,4.51-2.27,4.14,4.14,0,0,1,3.81,2.53,6.87,6.87,0,0,1,4.89-2.53c2.5,0,4.1,1.57,4.1,4.51V27Z" transform="translate(-11.36 -3.47)"/><path class="cls-1" d="M386.07,27.7a3.66,3.66,0,0,1-2.14-2.3,5.57,5.57,0,0,1-4.54,2.11c-3.2,0-5.18-1.63-5.18-4.7,0-3.71,3-5.7,8.16-5.7.38,0,.7,0,1.12,0V16.08c0-1.89-.26-3.17-2.5-3.17a8.86,8.86,0,0,0-4.93,1.82l-1.34-2.11a12.63,12.63,0,0,1,6.72-2.11c2.34,0,4,.86,4.64,2.56a7.32,7.32,0,0,1,.32,2.82c0,1.15-.13,3.62-.13,6s.06,3.1,1.31,3.87Zm-3.62-8.61c-2.21,0-3.55.42-4.19,1.15a3.09,3.09,0,0,0-.83,2.34c0,1.76.9,2.78,2.53,2.78a4,4,0,0,0,3.36-2.11l.1-4.1C383,19.12,382.71,19.09,382.46,19.09Z" transform="translate(-11.36 -3.47)"/><path class="cls-1" d="M398.3,27.54c-.77,2.27-1.6,4-2.72,4.93a7.08,7.08,0,0,1-3,1.38l-.93-1.92a4.87,4.87,0,0,0,2.78-1.82A9.07,9.07,0,0,0,395.77,27l-1.15.16a48,48,0,0,0-1.54-5.34l-3.55-10.53,3-.67,3.07,10.08c.29,1,.71,2.69.93,3.78h.19c.26-1.09.64-2.53,1.09-4L400.63,11h3.26Z" transform="translate(-11.36 -3.47)"/><path class="cls-1" d="M424.57,26.13a5.25,5.25,0,0,1-3.46,1.22A5.14,5.14,0,0,1,417,25.23,6.06,6.06,0,0,1,416.5,27h-2.78a10.36,10.36,0,0,0,.42-3.74V8a11.25,11.25,0,0,0-.51-3.84l3.13-.64a16.45,16.45,0,0,1,.32,3.46v3.71a9.64,9.64,0,0,1-.1,1.66l.1.06a5.49,5.49,0,0,1,4.19-1.79c3.81,0,6.18,3.1,6.18,8.16C427.45,22.06,426.42,24.62,424.57,26.13ZM423.45,14.8a3.08,3.08,0,0,0-2.85-1.66,4,4,0,0,0-2.53.86,3.66,3.66,0,0,0-1,1v8.13a4.75,4.75,0,0,0,3.46,1.7,3.08,3.08,0,0,0,2.69-1.44,9.27,9.27,0,0,0,.9-4.7C424.12,16.53,424,15.79,423.45,14.8Z" transform="translate(-11.36 -3.47)"/><path class="cls-1" d="M434.58,19.63V20a6,6,0,0,0,.67,3.2,4.18,4.18,0,0,0,3.68,1.89,5.7,5.7,0,0,0,3.94-1.54L444,25.33a8.19,8.19,0,0,1-5.54,2c-4.45,0-7.17-3.23-7.17-8.48,0-2.78.54-4.58,1.92-6.21A6,6,0,0,1,438,10.48a5.78,5.78,0,0,1,4.35,1.73c1.41,1.44,1.92,3.23,2,6.91v.51Zm5.7-5.79a2.88,2.88,0,0,0-2.3-1.12c-2.24,0-3.36,1.82-3.36,4.74h6.66A5.86,5.86,0,0,0,440.28,13.84Z" transform="translate(-11.36 -3.47)"/><path class="cls-1" d="M466.78,27.7a3.66,3.66,0,0,1-2.14-2.3,5.57,5.57,0,0,1-4.54,2.11c-3.2,0-5.18-1.63-5.18-4.7,0-3.71,3-5.7,8.16-5.7.38,0,.7,0,1.12,0V16.08c0-1.89-.26-3.17-2.5-3.17a8.86,8.86,0,0,0-4.93,1.82l-1.34-2.11a12.62,12.62,0,0,1,6.72-2.11c2.34,0,4,.86,4.64,2.56a7.32,7.32,0,0,1,.32,2.82c0,1.15-.13,3.62-.13,6s.06,3.1,1.31,3.87Zm-3.62-8.61c-2.21,0-3.55.42-4.19,1.15a3.09,3.09,0,0,0-.83,2.34c0,1.76.9,2.78,2.53,2.78A4,4,0,0,0,464,23.25l.1-4.1C463.67,19.12,463.42,19.09,463.16,19.09Z" transform="translate(-11.36 -3.47)"/><path class="cls-1" d="M479.77,27.34a6.16,6.16,0,0,1-4.16-1.66,16.06,16.06,0,0,1,.06,1.79V33.1l-2.88.67V14.93a16.93,16.93,0,0,0-.35-3.94l2.85-.48a8.31,8.31,0,0,1,.19,2.3A5.81,5.81,0,0,1,480,10.58c3.26,0,6,2.66,6,8.16C486,23.73,483.86,27.34,479.77,27.34Zm-.26-14.27a5,5,0,0,0-3.84,2v8.16A5,5,0,0,0,479.09,25c2.59,0,3.78-2,3.78-5.89S482,13.07,479.51,13.07Z" transform="translate(-11.36 -3.47)"/><path class="cls-1" d="M497.81,27.34a6.16,6.16,0,0,1-4.16-1.66,16.31,16.31,0,0,1,.06,1.79V33.1l-2.88.67V14.93a17,17,0,0,0-.35-3.94l2.85-.48a8.3,8.3,0,0,1,.19,2.3,5.81,5.81,0,0,1,4.54-2.24c3.26,0,6,2.66,6,8.16C504.09,23.73,501.91,27.34,497.81,27.34Zm-.26-14.27a5,5,0,0,0-3.84,2v8.16A5,5,0,0,0,497.14,25c2.59,0,3.78-2,3.78-5.89S500.09,13.07,497.56,13.07Z" transform="translate(-11.36 -3.47)"/><path class="cls-1" d="M516,13.58a2.39,2.39,0,0,0-.83-.16,3.35,3.35,0,0,0-3.33,3.26V27h-2.94V15.25a10.24,10.24,0,0,0-.61-4l2.85-.74a6.63,6.63,0,0,1,.54,2.46v.29c1.28-1.86,2.66-2.78,4.35-2.78a2.92,2.92,0,0,1,1,.16Z" transform="translate(-11.36 -3.47)"/><path class="cls-1" d="M525.46,27.47c-4.29,0-6.94-3.26-6.94-8.48s2.66-8.45,6.88-8.45c4.74,0,7,3.78,7,8.61C532.44,24.24,529.72,27.47,525.46,27.47Zm-.06-14.65c-2.56,0-3.62,1.82-3.62,5.86,0,4.9,1.25,6.53,3.74,6.53,2.24,0,3.62-1.73,3.62-5.92C529.14,14.32,527.7,12.82,525.4,12.82Z" transform="translate(-11.36 -3.47)"/><path class="cls-1" d="M542.84,27.15h-2.75l-5.73-16.09,3-.48,3.17,9.7c.35,1.09.7,2.37,1,3.46h.06a28.57,28.57,0,0,1,1-3.52l3-9.22h3.1Z" transform="translate(-11.36 -3.47)"/><path class="cls-1" d="M553.82,19.63V20a6,6,0,0,0,.67,3.2,4.18,4.18,0,0,0,3.68,1.89,5.7,5.7,0,0,0,3.94-1.54l1.12,1.76a8.18,8.18,0,0,1-5.54,2c-4.45,0-7.17-3.23-7.17-8.48,0-2.78.54-4.58,1.92-6.21a6,6,0,0,1,4.83-2.21,5.78,5.78,0,0,1,4.35,1.73c1.41,1.44,1.92,3.23,2,6.91v.51Zm5.7-5.79a2.88,2.88,0,0,0-2.3-1.12c-2.24,0-3.36,1.82-3.36,4.74h6.66A5.86,5.86,0,0,0,559.51,13.84Z" transform="translate(-11.36 -3.47)"/><path class="cls-1" d="M578,27a6.22,6.22,0,0,1-.29-1.5,5.35,5.35,0,0,1-4.13,1.76c-4.1,0-6.5-3.07-6.5-8.13,0-3.46,1.18-6.11,3.36-7.52a5.54,5.54,0,0,1,3.14-.93,4.78,4.78,0,0,1,3.9,1.86c0-.45-.06-1.73-.06-2.82V3.51l2.94.48V21.65a19.23,19.23,0,0,0,.45,5.38Zm-.61-12.45a4.1,4.1,0,0,0-3.39-1.5,3.14,3.14,0,0,0-2.79,1.63,8.52,8.52,0,0,0-.83,4.42c0,3.1.38,4,1.25,4.86a3,3,0,0,0,2.37.83A3.8,3.8,0,0,0,577.4,23Z" transform="translate(-11.36 -3.47)"/><path class="cls-1" d="M599.06,13.07h-3.17v9.66c0,2,.48,2.59,2.08,2.59a3.54,3.54,0,0,0,1.5-.32l.35,1.79a6.38,6.38,0,0,1-2.91.67,4.57,4.57,0,0,1-2.82-.86c-.64-.58-1.09-1-1.09-3.2V13.07H591.1V11H593a34.73,34.73,0,0,1,.19-4.1l3-.7c-.13,1.15-.29,3.17-.29,4.8h3.9Z" transform="translate(-11.36 -3.47)"/><path class="cls-1" d="M609,27.47c-4.29,0-6.94-3.26-6.94-8.48s2.66-8.45,6.88-8.45c4.74,0,7,3.78,7,8.61C616,24.24,613.3,27.47,609,27.47ZM609,12.82c-2.56,0-3.62,1.82-3.62,5.86,0,4.9,1.25,6.53,3.74,6.53,2.24,0,3.62-1.73,3.62-5.92C612.73,14.32,611.29,12.82,609,12.82Z" transform="translate(-11.36 -3.47)"/><path class="cls-1" d="M633.59,27.34a5.87,5.87,0,0,1-5.15-2.4,9.69,9.69,0,0,1-1.54-5.79c0-3.62,1.15-5.7,2.69-7.07a6.27,6.27,0,0,1,8.51.06l-1.54,2a3.91,3.91,0,0,0-2.82-1.25,3.08,3.08,0,0,0-2.82,1.73,11.38,11.38,0,0,0-.77,4.9c0,2.24.45,3.71,1.28,4.61a3.11,3.11,0,0,0,2.3,1,4.49,4.49,0,0,0,3.33-1.66l1.44,1.82A6.31,6.31,0,0,1,633.59,27.34Z" transform="translate(-11.36 -3.47)"/><path class="cls-1" d="M648,27.47c-4.29,0-6.94-3.26-6.94-8.48s2.66-8.45,6.88-8.45c4.74,0,7,3.78,7,8.61C655,24.24,652.28,27.47,648,27.47ZM648,12.82c-2.56,0-3.62,1.82-3.62,5.86,0,4.9,1.25,6.53,3.74,6.53,2.24,0,3.62-1.73,3.62-5.92C651.7,14.32,650.26,12.82,648,12.82Z" transform="translate(-11.36 -3.47)"/><path class="cls-1" d="M676.76,27V15.54c0-1.82-.58-2.46-1.92-2.46s-2.53,1-3.74,2.18V27h-2.88V15.6c0-1.79-.51-2.46-2-2.46A5.51,5.51,0,0,0,662.55,15V27h-2.91V15.25a8.72,8.72,0,0,0-.58-4l2.75-.67a4.53,4.53,0,0,1,.54,2.24,6.55,6.55,0,0,1,4.51-2.27,4.14,4.14,0,0,1,3.81,2.53,6.87,6.87,0,0,1,4.9-2.53c2.5,0,4.1,1.57,4.1,4.51V27Z" transform="translate(-11.36 -3.47)"/><path class="cls-1" d="M702.55,27V15.54c0-1.82-.58-2.46-1.92-2.46s-2.53,1-3.74,2.18V27H694V15.6c0-1.79-.51-2.46-2-2.46A5.51,5.51,0,0,0,688.34,15V27h-2.91V15.25a8.72,8.72,0,0,0-.58-4l2.75-.67a4.54,4.54,0,0,1,.54,2.24,6.55,6.55,0,0,1,4.51-2.27,4.14,4.14,0,0,1,3.81,2.53,6.87,6.87,0,0,1,4.9-2.53c2.5,0,4.1,1.57,4.1,4.51V27Z" transform="translate(-11.36 -3.47)"/><path class="cls-1" d="M713.56,19.63V20a6,6,0,0,0,.67,3.2,4.18,4.18,0,0,0,3.68,1.89,5.7,5.7,0,0,0,3.94-1.54L723,25.33a8.18,8.18,0,0,1-5.54,2c-4.45,0-7.17-3.23-7.17-8.48,0-2.78.54-4.58,1.92-6.21A6,6,0,0,1,717,10.48a5.78,5.78,0,0,1,4.35,1.73c1.41,1.44,1.92,3.23,2,6.91v.51Zm5.7-5.79a2.88,2.88,0,0,0-2.3-1.12c-2.24,0-3.36,1.82-3.36,4.74h6.66A5.86,5.86,0,0,0,719.25,13.84Z" transform="translate(-11.36 -3.47)"/><path class="cls-1" d="M736.82,27V16.21c0-1.44-.13-2-.51-2.46a2,2,0,0,0-1.63-.64,6.47,6.47,0,0,0-4,2V27H727.8V15.09a8.74,8.74,0,0,0-.61-3.81l2.78-.77a5.1,5.1,0,0,1,.54,2.46,13.86,13.86,0,0,1,2.08-1.57,5.94,5.94,0,0,1,3-.8,4,4,0,0,1,3.78,2.27,5,5,0,0,1,.38,2V27Z" transform="translate(-11.36 -3.47)"/><path class="cls-1" d="M751.22,27.34a5.87,5.87,0,0,1-5.15-2.4,9.68,9.68,0,0,1-1.54-5.79c0-3.62,1.15-5.7,2.69-7.07a6.27,6.27,0,0,1,8.51.06l-1.54,2a3.91,3.91,0,0,0-2.82-1.25,3.08,3.08,0,0,0-2.82,1.73,11.36,11.36,0,0,0-.77,4.9c0,2.24.45,3.71,1.28,4.61a3.11,3.11,0,0,0,2.3,1,4.48,4.48,0,0,0,3.33-1.66l1.44,1.82A6.31,6.31,0,0,1,751.22,27.34Z" transform="translate(-11.36 -3.47)"/><path class="cls-1" d="M762.17,19.63V20a6,6,0,0,0,.67,3.2,4.18,4.18,0,0,0,3.68,1.89,5.7,5.7,0,0,0,3.94-1.54l1.12,1.76a8.18,8.18,0,0,1-5.54,2c-4.45,0-7.17-3.23-7.17-8.48,0-2.78.54-4.58,1.92-6.21a6,6,0,0,1,4.83-2.21A5.78,5.78,0,0,1,770,12.21c1.41,1.44,1.92,3.23,2,6.91v.51Zm5.7-5.79a2.88,2.88,0,0,0-2.3-1.12c-2.24,0-3.36,1.82-3.36,4.74h6.66A5.86,5.86,0,0,0,767.86,13.84Z" transform="translate(-11.36 -3.47)"/><path class="cls-1" d="M785.11,8.18a2.08,2.08,0,0,1-2-2.11,2.1,2.1,0,1,1,4.19,0A2.14,2.14,0,0,1,785.11,8.18ZM783.61,27V11.09l3-.48V27Z" transform="translate(-11.36 -3.47)"/><path class="cls-1" d="M801.43,27V16.21c0-1.44-.13-2-.51-2.46a2,2,0,0,0-1.63-.64,6.47,6.47,0,0,0-4,2V27h-2.91V15.09a8.74,8.74,0,0,0-.61-3.81l2.78-.77a5.09,5.09,0,0,1,.54,2.46,13.76,13.76,0,0,1,2.08-1.57,5.94,5.94,0,0,1,3-.8A4,4,0,0,1,804,12.88a5,5,0,0,1,.38,2V27Z" transform="translate(-11.36 -3.47)"/><path class="cls-1" d="M63.77,63.7a3.66,3.66,0,0,1-2.14-2.3,5.57,5.57,0,0,1-4.54,2.11c-3.2,0-5.18-1.63-5.18-4.7,0-3.71,3-5.7,8.16-5.7.38,0,.7,0,1.12,0V52.08c0-1.89-.26-3.17-2.5-3.17a8.85,8.85,0,0,0-4.93,1.82l-1.34-2.11a12.62,12.62,0,0,1,6.72-2.11c2.34,0,4,.86,4.64,2.56a7.3,7.3,0,0,1,.32,2.82c0,1.15-.13,3.62-.13,6s.06,3.1,1.31,3.87Zm-3.62-8.61c-2.21,0-3.55.42-4.19,1.15a3.1,3.1,0,0,0-.83,2.34c0,1.76.9,2.78,2.53,2.78A4,4,0,0,0,61,59.25l.1-4.1C60.67,55.12,60.41,55.09,60.16,55.09Z" transform="translate(-11.36 -3.47)"/><path class="cls-1" d="M78.81,63V52.21c0-1.44-.13-2-.51-2.46a2,2,0,0,0-1.63-.64,6.47,6.47,0,0,0-4,2V63H69.79V51.09a8.74,8.74,0,0,0-.61-3.81L72,46.51A5.1,5.1,0,0,1,72.51,49a13.86,13.86,0,0,1,2.08-1.57,5.94,5.94,0,0,1,3-.8,4,4,0,0,1,3.78,2.27,5,5,0,0,1,.38,2V63Z" transform="translate(-11.36 -3.47)"/><path class="cls-1" d="M93.69,63.54c-.77,2.27-1.6,4-2.72,4.93a7.09,7.09,0,0,1-3,1.38l-.93-1.92a4.87,4.87,0,0,0,2.78-1.82A9.05,9.05,0,0,0,91.16,63L90,63.12a47.53,47.53,0,0,0-1.54-5.34L84.92,47.25l3-.67L91,56.66c.29,1,.7,2.69.93,3.78h.19c.26-1.09.64-2.53,1.09-4L96,47h3.26Z" transform="translate(-11.36 -3.47)"/><path class="cls-1" d="M115.36,63.47c-4.29,0-6.94-3.26-6.94-8.48s2.66-8.45,6.88-8.45c4.74,0,7,3.78,7,8.61C122.33,60.24,119.61,63.47,115.36,63.47Zm-.06-14.65c-2.56,0-3.62,1.82-3.62,5.86,0,4.9,1.25,6.53,3.74,6.53,2.24,0,3.62-1.73,3.62-5.92C119,50.32,117.6,48.82,115.29,48.82Z" transform="translate(-11.36 -3.47)"/><path class="cls-1" d="M134.14,42.45a4.58,4.58,0,0,0-2.08-.61c-1.34,0-2.14.93-2.14,2.56V47h4.26l-.77,2.08h-3.46V63h-3v-14h-1.54V47H127c-.06-.32-.06-2.3-.06-2.56a4.61,4.61,0,0,1,1.79-4,4.88,4.88,0,0,1,2.91-.77,6.56,6.56,0,0,1,3.49.86Z" transform="translate(-11.36 -3.47)"/><path class="cls-1" d="M157,49.07h-3.17v9.66c0,2,.48,2.59,2.08,2.59a3.54,3.54,0,0,0,1.5-.32l.35,1.79a6.38,6.38,0,0,1-2.91.67,4.57,4.57,0,0,1-2.82-.86c-.64-.58-1.09-1-1.09-3.2V49.07h-1.92V47H151a34.73,34.73,0,0,1,.19-4.1l3-.7c-.13,1.15-.29,3.17-.29,4.8h3.9Z" transform="translate(-11.36 -3.47)"/><path class="cls-1" d="M171,63V52a3.53,3.53,0,0,0-.54-2.24,2.55,2.55,0,0,0-1.76-.61,6.14,6.14,0,0,0-4.26,2.34V63h-3V43.54a14.06,14.06,0,0,0-.35-3.36l3-.61a16.32,16.32,0,0,1,.35,3.71v3.58c0,.58,0,1.31-.1,2.14a11.09,11.09,0,0,1,1.7-1.31,6.19,6.19,0,0,1,3.49-1.09,4.1,4.1,0,0,1,4,2.4,6.51,6.51,0,0,1,.32,2.59V63Z" transform="translate(-11.36 -3.47)"/><path class="cls-1" d="M182,55.63V56a6,6,0,0,0,.67,3.2,4.18,4.18,0,0,0,3.68,1.89,5.7,5.7,0,0,0,3.94-1.54l1.12,1.76a8.18,8.18,0,0,1-5.54,2c-4.45,0-7.17-3.23-7.17-8.48,0-2.78.54-4.58,1.92-6.21a6,6,0,0,1,4.83-2.21,5.78,5.78,0,0,1,4.35,1.73c1.41,1.44,1.92,3.23,2,6.91v.51Zm5.7-5.79a2.88,2.88,0,0,0-2.3-1.12c-2.24,0-3.36,1.82-3.36,4.74h6.66A5.86,5.86,0,0,0,187.71,49.84Z" transform="translate(-11.36 -3.47)"/><path class="cls-1" d="M212.47,63V52.21c0-1.44-.13-2-.51-2.46a2,2,0,0,0-1.63-.64,6.47,6.47,0,0,0-4,2V63h-2.91V51.09a8.74,8.74,0,0,0-.61-3.81l2.78-.77a5.1,5.1,0,0,1,.54,2.46,13.86,13.86,0,0,1,2.08-1.57,5.94,5.94,0,0,1,3-.8A4,4,0,0,1,215,48.88a5,5,0,0,1,.38,2V63Z" transform="translate(-11.36 -3.47)"/><path class="cls-1" d="M223.48,55.63V56a6,6,0,0,0,.67,3.2,4.18,4.18,0,0,0,3.68,1.89,5.7,5.7,0,0,0,3.94-1.54l1.12,1.76a8.18,8.18,0,0,1-5.54,2c-4.45,0-7.17-3.23-7.17-8.48,0-2.78.54-4.58,1.92-6.21a6,6,0,0,1,4.83-2.21,5.78,5.78,0,0,1,4.35,1.73c1.41,1.44,1.92,3.23,2,6.91v.51Zm5.7-5.79a2.88,2.88,0,0,0-2.3-1.12c-2.24,0-3.36,1.82-3.36,4.74h6.66A5.86,5.86,0,0,0,229.18,49.84Z" transform="translate(-11.36 -3.47)"/><path class="cls-1" d="M246.27,63c-.77-1.31-3-5-3.87-6.5-.9,1.57-3.23,5.44-3.9,6.5h-3.65l6-8.83-4.74-7,3.33-.42c.67,1.09,2.21,3.84,3.1,5.38.74-1.5,2-4,2.75-5.18h3.42L244,54.19l6,8.83Z" transform="translate(-11.36 -3.47)"/><path class="cls-1" d="M259,49.07h-3.17v9.66c0,2,.48,2.59,2.08,2.59a3.53,3.53,0,0,0,1.5-.32l.35,1.79a6.38,6.38,0,0,1-2.91.67,4.57,4.57,0,0,1-2.82-.86c-.64-.58-1.09-1-1.09-3.2V49.07h-1.92V47H253a34.73,34.73,0,0,1,.19-4.1l3-.7c-.13,1.15-.29,3.17-.29,4.8h3.9Z" transform="translate(-11.36 -3.47)"/><path class="cls-1" d="M277.56,42.45a4.58,4.58,0,0,0-2.08-.61c-1.34,0-2.14.93-2.14,2.56V47h4.26l-.77,2.08h-3.46V63h-3v-14h-1.54V47h1.57c-.06-.32-.06-2.3-.06-2.56a4.61,4.61,0,0,1,1.79-4,4.88,4.88,0,0,1,2.91-.77,6.56,6.56,0,0,1,3.49.86Z" transform="translate(-11.36 -3.47)"/><path class="cls-1" d="M285.88,63.47c-4.29,0-6.94-3.26-6.94-8.48s2.66-8.45,6.88-8.45c4.74,0,7,3.78,7,8.61C292.86,60.24,290.14,63.47,285.88,63.47Zm-.06-14.65c-2.56,0-3.62,1.82-3.62,5.86,0,4.9,1.25,6.53,3.74,6.53,2.24,0,3.62-1.73,3.62-5.92C289.56,50.32,288.12,48.82,285.82,48.82Z" transform="translate(-11.36 -3.47)"/><path class="cls-1" d="M308.38,63.57a3.78,3.78,0,0,1-1.5-2.3,5.88,5.88,0,0,1-4.83,2.3,4.51,4.51,0,0,1-4.32-2.4,6.8,6.8,0,0,1-.38-2.69V47.09l2.91-.58V57.68c0,1.63.16,2.27.74,2.82a2.93,2.93,0,0,0,1.86.7,4.41,4.41,0,0,0,3.65-2.53V47.15l2.91-.58V58.64c0,1.63.35,2.78,1,3.33Z" transform="translate(-11.36 -3.47)"/><path class="cls-1" d="M321.95,49.58a2.4,2.4,0,0,0-.83-.16,3.35,3.35,0,0,0-3.33,3.26V63h-2.94V51.25a10.26,10.26,0,0,0-.61-4l2.85-.74a6.65,6.65,0,0,1,.54,2.46v.29c1.28-1.86,2.66-2.78,4.35-2.78a2.92,2.92,0,0,1,1,.16Z" transform="translate(-11.36 -3.47)"/><path class="cls-1" d="M339.26,63.54c-.77,2.27-1.6,4-2.72,4.93a7.09,7.09,0,0,1-3,1.38l-.93-1.92a4.87,4.87,0,0,0,2.78-1.82A9.05,9.05,0,0,0,336.73,63l-1.15.16A47.54,47.54,0,0,0,334,57.78l-3.55-10.53,3-.67,3.07,10.08c.29,1,.7,2.69.93,3.78h.19c.26-1.09.64-2.53,1.09-4L341.59,47h3.26Z" transform="translate(-11.36 -3.47)"/><path class="cls-1" d="M350.14,55.63V56a6,6,0,0,0,.67,3.2,4.18,4.18,0,0,0,3.68,1.89,5.7,5.7,0,0,0,3.94-1.54l1.12,1.76a8.19,8.19,0,0,1-5.54,2c-4.45,0-7.17-3.23-7.17-8.48,0-2.78.54-4.58,1.92-6.21a6,6,0,0,1,4.83-2.21,5.79,5.79,0,0,1,4.35,1.73c1.41,1.44,1.92,3.23,2,6.91v.51Zm5.7-5.79a2.88,2.88,0,0,0-2.3-1.12c-2.24,0-3.36,1.82-3.36,4.74h6.66A5.86,5.86,0,0,0,355.83,49.84Z" transform="translate(-11.36 -3.47)"/><path class="cls-1" d="M374.81,63.7a3.66,3.66,0,0,1-2.14-2.3,5.57,5.57,0,0,1-4.54,2.11c-3.2,0-5.18-1.63-5.18-4.7,0-3.71,3-5.7,8.16-5.7.38,0,.7,0,1.12,0V52.08c0-1.89-.26-3.17-2.5-3.17a8.86,8.86,0,0,0-4.93,1.82l-1.34-2.11a12.63,12.63,0,0,1,6.72-2.11c2.34,0,4,.86,4.64,2.56a7.32,7.32,0,0,1,.32,2.82c0,1.15-.13,3.62-.13,6s.06,3.1,1.31,3.87Zm-3.62-8.61c-2.21,0-3.55.42-4.19,1.15a3.09,3.09,0,0,0-.83,2.34c0,1.76.9,2.78,2.53,2.78a4,4,0,0,0,3.36-2.11l.1-4.1C371.71,55.12,371.45,55.09,371.19,55.09Z" transform="translate(-11.36 -3.47)"/><path class="cls-1" d="M387.93,49.58a2.4,2.4,0,0,0-.83-.16,3.35,3.35,0,0,0-3.33,3.26V63h-2.94V51.25a10.22,10.22,0,0,0-.61-4l2.85-.74a6.61,6.61,0,0,1,.54,2.46v.29c1.28-1.86,2.66-2.78,4.35-2.78a2.93,2.93,0,0,1,1,.16Z" transform="translate(-11.36 -3.47)"/><path class="cls-1" d="M396.28,63.47a12.21,12.21,0,0,1-6-1.7l1.06-2.11a10.93,10.93,0,0,0,5.15,1.6c1.76,0,3-1,3-2.59,0-1.38-.83-2.18-2.69-2.53l-2-.38c-2.53-.51-3.9-2.08-3.9-4.45,0-2.94,2.34-5,5.79-5a10.2,10.2,0,0,1,5.06,1.31l-1,2.08a8.68,8.68,0,0,0-3.94-1.15c-1.7,0-2.78,1-2.78,2.4,0,1.15.58,1.79,2.27,2.18l2.08.48c2.94.67,4.16,2.37,4.16,4.48C402.58,61.3,400,63.47,396.28,63.47Z" transform="translate(-11.36 -3.47)"/><path class="cls-1" d="M408.86,63.47a2.4,2.4,0,1,1,2.27-2.4A2.31,2.31,0,0,1,408.86,63.47Z" transform="translate(-11.36 -3.47)"/><path class="cls-1" d="M435.74,43.54H430V63h-3V43.54h-5.73V41h14.82Z" transform="translate(-11.36 -3.47)"/><path class="cls-1" d="M448,63V52a3.53,3.53,0,0,0-.54-2.24,2.56,2.56,0,0,0-1.76-.61,6.14,6.14,0,0,0-4.26,2.34V63h-3V43.54a14.06,14.06,0,0,0-.35-3.36l3-.61a16.31,16.31,0,0,1,.35,3.71v3.58c0,.58,0,1.31-.1,2.14A11,11,0,0,1,443,47.7a6.19,6.19,0,0,1,3.49-1.09,4.1,4.1,0,0,1,4,2.4,6.51,6.51,0,0,1,.32,2.59V63Z" transform="translate(-11.36 -3.47)"/><path class="cls-1" d="M459,55.63V56a6,6,0,0,0,.67,3.2,4.18,4.18,0,0,0,3.68,1.89,5.7,5.7,0,0,0,3.94-1.54l1.12,1.76a8.18,8.18,0,0,1-5.54,2c-4.45,0-7.17-3.23-7.17-8.48,0-2.78.54-4.58,1.92-6.21a6,6,0,0,1,4.83-2.21,5.78,5.78,0,0,1,4.35,1.73c1.41,1.44,1.92,3.23,2,6.91v.51Zm5.7-5.79a2.88,2.88,0,0,0-2.3-1.12c-2.24,0-3.36,1.82-3.36,4.74h6.66A5.86,5.86,0,0,0,464.66,49.84Z" transform="translate(-11.36 -3.47)"/><path class="cls-1" d="M490.36,63a6.26,6.26,0,0,1-.29-1.5,5.35,5.35,0,0,1-4.13,1.76c-4.1,0-6.5-3.07-6.5-8.13,0-3.46,1.18-6.11,3.36-7.52a5.53,5.53,0,0,1,3.13-.93,4.78,4.78,0,0,1,3.9,1.86c0-.45-.06-1.73-.06-2.82V39.51l2.94.48V57.65a19.17,19.17,0,0,0,.45,5.38Zm-.61-12.45a4.11,4.11,0,0,0-3.39-1.5,3.14,3.14,0,0,0-2.78,1.63,8.51,8.51,0,0,0-.83,4.42c0,3.1.38,4,1.25,4.86a3,3,0,0,0,2.37.83A3.8,3.8,0,0,0,489.75,59Z" transform="translate(-11.36 -3.47)"/><path class="cls-1" d="M500.82,55.63V56a6,6,0,0,0,.67,3.2,4.18,4.18,0,0,0,3.68,1.89,5.7,5.7,0,0,0,3.94-1.54l1.12,1.76a8.18,8.18,0,0,1-5.54,2c-4.45,0-7.17-3.23-7.17-8.48,0-2.78.54-4.58,1.92-6.21a6,6,0,0,1,4.83-2.21,5.78,5.78,0,0,1,4.35,1.73c1.41,1.44,1.92,3.23,2,6.91v.51Zm5.7-5.79a2.88,2.88,0,0,0-2.3-1.12c-2.24,0-3.36,1.82-3.36,4.74h6.66A5.86,5.86,0,0,0,506.52,49.84Z" transform="translate(-11.36 -3.47)"/><path class="cls-1" d="M518.17,63.34a2.72,2.72,0,0,1-2.5-1.22c-.48-.67-.61-1.22-.61-2.78V44.82a20.87,20.87,0,0,0-.35-4.61l3.07-.64a19.88,19.88,0,0,1,.29,4.58V59.06c0,1.12.1,1.7.51,2a1.2,1.2,0,0,0,.9.13L520,63A4.31,4.31,0,0,1,518.17,63.34Z" transform="translate(-11.36 -3.47)"/><path class="cls-1" d="M525.33,44.18a2.08,2.08,0,0,1-2-2.11,2.1,2.1,0,1,1,4.19,0A2.14,2.14,0,0,1,525.33,44.18ZM523.83,63V47.09l3-.48V63Z" transform="translate(-11.36 -3.47)"/><path class="cls-1" d="M538.23,63.15h-2.75l-5.73-16.09,3-.48,3.17,9.7c.35,1.09.7,2.37,1,3.46H537a28.6,28.6,0,0,1,1-3.52L541,47h3.1Z" transform="translate(-11.36 -3.47)"/><path class="cls-1" d="M549.21,55.63V56a6,6,0,0,0,.67,3.2,4.18,4.18,0,0,0,3.68,1.89,5.7,5.7,0,0,0,3.94-1.54l1.12,1.76a8.18,8.18,0,0,1-5.54,2c-4.45,0-7.17-3.23-7.17-8.48,0-2.78.54-4.58,1.92-6.21a6,6,0,0,1,4.83-2.21A5.78,5.78,0,0,1,557,48.21c1.41,1.44,1.92,3.23,2,6.91v.51Zm5.7-5.79a2.88,2.88,0,0,0-2.3-1.12c-2.24,0-3.36,1.82-3.36,4.74h6.66A5.86,5.86,0,0,0,554.9,49.84Z" transform="translate(-11.36 -3.47)"/><path class="cls-1" d="M570.55,49.58a2.41,2.41,0,0,0-.83-.16,3.35,3.35,0,0,0-3.33,3.26V63h-2.94V51.25a10.24,10.24,0,0,0-.61-4l2.85-.74a6.63,6.63,0,0,1,.54,2.46v.29c1.28-1.86,2.66-2.78,4.35-2.78a2.92,2.92,0,0,1,1,.16Z" transform="translate(-11.36 -3.47)"/><path class="cls-1" d="M581.62,63.54c-.77,2.27-1.6,4-2.72,4.93a7.09,7.09,0,0,1-3,1.38L575,67.92a4.87,4.87,0,0,0,2.78-1.82A9.05,9.05,0,0,0,579.09,63l-1.15.16a47.53,47.53,0,0,0-1.54-5.34l-3.55-10.53,3-.67,3.07,10.08c.29,1,.7,2.69.93,3.78H580c.26-1.09.64-2.53,1.09-4L584,47h3.26Z" transform="translate(-11.36 -3.47)"/><path class="cls-1" d="M604.44,63.34a6.16,6.16,0,0,1-4.16-1.66,16.06,16.06,0,0,1,.06,1.79V69.1l-2.88.67V50.93a16.92,16.92,0,0,0-.35-3.94l2.85-.48a8.26,8.26,0,0,1,.19,2.3,5.81,5.81,0,0,1,4.54-2.24c3.26,0,6,2.66,6,8.16C610.71,59.73,608.53,63.34,604.44,63.34Zm-.26-14.27a5,5,0,0,0-3.84,2v8.16A5,5,0,0,0,603.77,61c2.59,0,3.78-2,3.78-5.89S606.71,49.07,604.18,49.07Z" transform="translate(-11.36 -3.47)"/><path class="cls-1" d="M624.88,63V52a3.53,3.53,0,0,0-.54-2.24,2.56,2.56,0,0,0-1.76-.61,6.14,6.14,0,0,0-4.26,2.34V63h-3V43.54a14,14,0,0,0-.35-3.36l3-.61a16.37,16.37,0,0,1,.35,3.71v3.58c0,.58,0,1.31-.1,2.14a11,11,0,0,1,1.7-1.31,6.19,6.19,0,0,1,3.49-1.09,4.1,4.1,0,0,1,4,2.4,6.51,6.51,0,0,1,.32,2.59V63Z" transform="translate(-11.36 -3.47)"/><path class="cls-1" d="M644,63.7a3.66,3.66,0,0,1-2.14-2.3,5.57,5.57,0,0,1-4.54,2.11c-3.2,0-5.18-1.63-5.18-4.7,0-3.71,3-5.7,8.16-5.7.38,0,.7,0,1.12,0V52.08c0-1.89-.26-3.17-2.5-3.17a8.86,8.86,0,0,0-4.93,1.82l-1.34-2.11a12.63,12.63,0,0,1,6.72-2.11c2.34,0,4,.86,4.64,2.56a7.32,7.32,0,0,1,.32,2.82c0,1.15-.13,3.62-.13,6s.06,3.1,1.31,3.87Zm-3.62-8.61c-2.21,0-3.55.42-4.19,1.15a3.09,3.09,0,0,0-.83,2.34c0,1.76.9,2.78,2.53,2.78a4,4,0,0,0,3.36-2.11l.1-4.1C640.85,55.12,640.6,55.09,640.34,55.09Z" transform="translate(-11.36 -3.47)"/><path class="cls-1" d="M654.36,63.47a12.21,12.21,0,0,1-6-1.7l1.06-2.11a10.93,10.93,0,0,0,5.15,1.6c1.76,0,3-1,3-2.59,0-1.38-.83-2.18-2.69-2.53l-2-.38c-2.53-.51-3.9-2.08-3.9-4.45,0-2.94,2.34-5,5.79-5a10.2,10.2,0,0,1,5.06,1.31l-1,2.08a8.68,8.68,0,0,0-3.94-1.15c-1.7,0-2.78,1-2.78,2.4,0,1.15.58,1.79,2.27,2.18l2.08.48c2.94.67,4.16,2.37,4.16,4.48C660.66,61.3,658.1,63.47,654.36,63.47Z" transform="translate(-11.36 -3.47)"/><path class="cls-1" d="M667.48,55.63V56a6,6,0,0,0,.67,3.2,4.18,4.18,0,0,0,3.68,1.89,5.7,5.7,0,0,0,3.94-1.54l1.12,1.76a8.19,8.19,0,0,1-5.54,2c-4.45,0-7.17-3.23-7.17-8.48,0-2.78.54-4.58,1.92-6.21a6,6,0,0,1,4.83-2.21,5.79,5.79,0,0,1,4.35,1.73c1.41,1.44,1.92,3.23,2,6.91v.51Zm5.7-5.79a2.88,2.88,0,0,0-2.3-1.12c-2.24,0-3.36,1.82-3.36,4.74h6.66A5.86,5.86,0,0,0,673.17,49.84Z" transform="translate(-11.36 -3.47)"/><path class="cls-1" d="M694.74,63.47c-4.29,0-6.94-3.26-6.94-8.48s2.66-8.45,6.88-8.45c4.74,0,7,3.78,7,8.61C701.72,60.24,699,63.47,694.74,63.47Zm-.06-14.65c-2.56,0-3.62,1.82-3.62,5.86,0,4.9,1.25,6.53,3.74,6.53,2.24,0,3.62-1.73,3.62-5.92C698.42,50.32,697,48.82,694.68,48.82Z" transform="translate(-11.36 -3.47)"/><path class="cls-1" d="M713.52,42.45a4.58,4.58,0,0,0-2.08-.61c-1.34,0-2.14.93-2.14,2.56V47h4.26l-.77,2.08h-3.46V63h-3v-14h-1.54V47h1.57c-.06-.32-.06-2.3-.06-2.56a4.61,4.61,0,0,1,1.79-4,4.88,4.88,0,0,1,2.91-.77,6.56,6.56,0,0,1,3.49.86Z" transform="translate(-11.36 -3.47)"/><path class="cls-1" d="M729.2,49.07H726v9.66c0,2,.48,2.59,2.08,2.59a3.54,3.54,0,0,0,1.5-.32L730,62.8a6.39,6.39,0,0,1-2.91.67,4.58,4.58,0,0,1-2.82-.86c-.64-.58-1.09-1-1.09-3.2V49.07h-1.92V47h1.92a34.73,34.73,0,0,1,.19-4.1l3-.7c-.13,1.15-.29,3.17-.29,4.8H730Z" transform="translate(-11.36 -3.47)"/><path class="cls-1" d="M743.22,63V52a3.53,3.53,0,0,0-.54-2.24,2.56,2.56,0,0,0-1.76-.61,6.14,6.14,0,0,0-4.26,2.34V63h-3V43.54a14,14,0,0,0-.35-3.36l3-.61a16.37,16.37,0,0,1,.35,3.71v3.58c0,.58,0,1.31-.1,2.14a11,11,0,0,1,1.7-1.31,6.2,6.2,0,0,1,3.49-1.09,4.1,4.1,0,0,1,4,2.4,6.51,6.51,0,0,1,.32,2.59V63Z" transform="translate(-11.36 -3.47)"/><path class="cls-1" d="M754.2,55.63V56a6,6,0,0,0,.67,3.2,4.18,4.18,0,0,0,3.68,1.89,5.7,5.7,0,0,0,3.94-1.54l1.12,1.76a8.19,8.19,0,0,1-5.54,2c-4.45,0-7.17-3.23-7.17-8.48,0-2.78.54-4.58,1.92-6.21a6,6,0,0,1,4.83-2.21A5.79,5.79,0,0,1,762,48.21c1.41,1.44,1.92,3.23,2,6.91v.51Zm5.7-5.79a2.88,2.88,0,0,0-2.3-1.12c-2.24,0-3.36,1.82-3.36,4.74h6.66A5.86,5.86,0,0,0,759.89,49.84Z" transform="translate(-11.36 -3.47)"/><path class="cls-1" d="M47.68,99.34a6.16,6.16,0,0,1-4.16-1.66,16.31,16.31,0,0,1,.06,1.79v5.63l-2.88.67V86.93A17,17,0,0,0,40.35,83l2.85-.48a8.35,8.35,0,0,1,.19,2.3,5.81,5.81,0,0,1,4.54-2.24c3.26,0,6,2.66,6,8.16C53.95,95.73,51.77,99.34,47.68,99.34Zm-.26-14.27a5,5,0,0,0-3.84,2v8.16A5,5,0,0,0,47,97c2.59,0,3.78-2,3.78-5.89S49.95,85.07,47.42,85.07Z" transform="translate(-11.36 -3.47)"/><path class="cls-1" d="M60.09,80.18a2.08,2.08,0,0,1-2-2.11,2.1,2.1,0,1,1,4.19,0A2.14,2.14,0,0,1,60.09,80.18ZM58.59,99V83.09l3-.48V99Z" transform="translate(-11.36 -3.47)"/><path class="cls-1" d="M74.37,99.34a6.16,6.16,0,0,1-4.16-1.66,16.06,16.06,0,0,1,.06,1.79v5.63l-2.88.67V86.93A16.93,16.93,0,0,0,67,83l2.85-.48a8.31,8.31,0,0,1,.19,2.3,5.81,5.81,0,0,1,4.54-2.24c3.26,0,6,2.66,6,8.16C80.64,95.73,78.46,99.34,74.37,99.34Zm-.26-14.27a5,5,0,0,0-3.84,2v8.16A5,5,0,0,0,73.69,97c2.59,0,3.78-2,3.78-5.89S76.64,85.07,74.11,85.07Z" transform="translate(-11.36 -3.47)"/><path class="cls-1" d="M87.77,91.63V92a6,6,0,0,0,.67,3.2,4.18,4.18,0,0,0,3.68,1.89,5.7,5.7,0,0,0,3.94-1.54l1.12,1.76a8.18,8.18,0,0,1-5.54,2c-4.45,0-7.17-3.23-7.17-8.48,0-2.78.54-4.58,1.92-6.21a6,6,0,0,1,4.83-2.21,5.78,5.78,0,0,1,4.35,1.73c1.41,1.44,1.92,3.23,2,6.91v.51Zm5.7-5.79a2.88,2.88,0,0,0-2.3-1.12c-2.24,0-3.36,1.82-3.36,4.74h6.66A5.86,5.86,0,0,0,93.47,85.84Z" transform="translate(-11.36 -3.47)"/><path class="cls-1" d="M105.12,99.34a2.72,2.72,0,0,1-2.5-1.22c-.48-.67-.61-1.22-.61-2.78V80.82a20.87,20.87,0,0,0-.35-4.61l3.07-.64a19.88,19.88,0,0,1,.29,4.58V95.06c0,1.12.1,1.7.51,2a1.2,1.2,0,0,0,.9.13l.51,1.82A4.31,4.31,0,0,1,105.12,99.34Z" transform="translate(-11.36 -3.47)"/><path class="cls-1" d="M112.28,80.18a2.08,2.08,0,0,1-2-2.11,2.1,2.1,0,1,1,4.19,0A2.14,2.14,0,0,1,112.28,80.18ZM110.78,99V83.09l3-.48V99Z" transform="translate(-11.36 -3.47)"/><path class="cls-1" d="M128.6,99V88.21c0-1.44-.13-2-.51-2.46a2,2,0,0,0-1.63-.64,6.47,6.47,0,0,0-4,2V99h-2.91V87.09a8.76,8.76,0,0,0-.61-3.81l2.78-.77A5.09,5.09,0,0,1,122.3,85a13.81,13.81,0,0,1,2.08-1.57,5.94,5.94,0,0,1,3-.8,4,4,0,0,1,3.78,2.27,5,5,0,0,1,.38,2V99Z" transform="translate(-11.36 -3.47)"/><path class="cls-1" d="M139.61,91.63V92a6,6,0,0,0,.67,3.2A4.18,4.18,0,0,0,144,97.1a5.7,5.7,0,0,0,3.94-1.54L149,97.33a8.19,8.19,0,0,1-5.54,2c-4.45,0-7.17-3.23-7.17-8.48,0-2.78.54-4.58,1.92-6.21a6,6,0,0,1,4.83-2.21,5.78,5.78,0,0,1,4.35,1.73c1.41,1.44,1.92,3.23,2,6.91v.51Zm5.7-5.79a2.88,2.88,0,0,0-2.3-1.12c-2.24,0-3.36,1.82-3.36,4.74h6.66A5.86,5.86,0,0,0,145.31,85.84Z" transform="translate(-11.36 -3.47)"/><path class="cls-1" d="M168.15,85.58a2.39,2.39,0,0,0-.83-.16A3.35,3.35,0,0,0,164,88.69V99h-2.94V87.25a10.24,10.24,0,0,0-.61-4l2.85-.74a6.63,6.63,0,0,1,.54,2.46v.29c1.28-1.86,2.66-2.78,4.35-2.78a2.92,2.92,0,0,1,1,.16Z" transform="translate(-11.36 -3.47)"/><path class="cls-1" d="M174.14,91.63V92a6,6,0,0,0,.67,3.2,4.18,4.18,0,0,0,3.68,1.89,5.7,5.7,0,0,0,3.94-1.54l1.12,1.76a8.19,8.19,0,0,1-5.54,2c-4.45,0-7.17-3.23-7.17-8.48,0-2.78.54-4.58,1.92-6.21a6,6,0,0,1,4.83-2.21,5.79,5.79,0,0,1,4.35,1.73c1.41,1.44,1.92,3.23,2,6.91v.51Zm5.7-5.79a2.88,2.88,0,0,0-2.3-1.12c-2.24,0-3.36,1.82-3.36,4.74h6.66A5.86,5.86,0,0,0,179.83,85.84Z" transform="translate(-11.36 -3.47)"/><path class="cls-1" d="M195.55,78.45a4.58,4.58,0,0,0-2.08-.61c-1.34,0-2.14.93-2.14,2.56V83h4.25l-.77,2.08h-3.46V99h-3v-14h-1.54V83h1.57c-.06-.32-.06-2.3-.06-2.56a4.61,4.61,0,0,1,1.79-4,4.88,4.88,0,0,1,2.91-.77,6.57,6.57,0,0,1,3.49.86Z" transform="translate(-11.36 -3.47)"/><path class="cls-1" d="M201.4,99.34a2.72,2.72,0,0,1-2.5-1.22c-.48-.67-.61-1.22-.61-2.78V80.82a20.88,20.88,0,0,0-.35-4.61l3.07-.64a20,20,0,0,1,.29,4.58V95.06c0,1.12.1,1.7.51,2a1.2,1.2,0,0,0,.9.13l.51,1.82A4.31,4.31,0,0,1,201.4,99.34Z" transform="translate(-11.36 -3.47)"/><path class="cls-1" d="M209.4,91.63V92a6,6,0,0,0,.67,3.2,4.18,4.18,0,0,0,3.68,1.89,5.7,5.7,0,0,0,3.94-1.54l1.12,1.76a8.19,8.19,0,0,1-5.54,2c-4.45,0-7.17-3.23-7.17-8.48,0-2.78.54-4.58,1.92-6.21a6,6,0,0,1,4.83-2.21,5.78,5.78,0,0,1,4.35,1.73c1.41,1.44,1.92,3.23,2,6.91v.51Zm5.7-5.79a2.88,2.88,0,0,0-2.3-1.12c-2.24,0-3.36,1.82-3.36,4.74h6.66A5.86,5.86,0,0,0,215.1,85.84Z" transform="translate(-11.36 -3.47)"/><path class="cls-1" d="M229.37,99.34a5.87,5.87,0,0,1-5.15-2.4,9.68,9.68,0,0,1-1.54-5.79c0-3.62,1.15-5.7,2.69-7.07a6.27,6.27,0,0,1,8.51.06l-1.54,2a3.91,3.91,0,0,0-2.82-1.25,3.08,3.08,0,0,0-2.82,1.73,11.36,11.36,0,0,0-.77,4.9c0,2.24.45,3.71,1.28,4.61a3.11,3.11,0,0,0,2.3,1,4.48,4.48,0,0,0,3.33-1.66l1.44,1.82A6.31,6.31,0,0,1,229.37,99.34Z" transform="translate(-11.36 -3.47)"/><path class="cls-1" d="M244.51,85.07h-3.17v9.66c0,2,.48,2.59,2.08,2.59a3.54,3.54,0,0,0,1.5-.32l.35,1.79a6.38,6.38,0,0,1-2.91.67,4.57,4.57,0,0,1-2.82-.86c-.64-.58-1.09-1-1.09-3.2V85.07h-1.92V83h1.92a34.73,34.73,0,0,1,.19-4.1l3-.7c-.13,1.15-.29,3.17-.29,4.8h3.9Z" transform="translate(-11.36 -3.47)"/><path class="cls-1" d="M253.53,99.47a12.21,12.21,0,0,1-6-1.7l1.06-2.11a10.93,10.93,0,0,0,5.15,1.6c1.76,0,3-1,3-2.59,0-1.38-.83-2.18-2.69-2.53l-2-.38c-2.53-.51-3.9-2.08-3.9-4.45,0-2.94,2.34-5,5.79-5A10.19,10.19,0,0,1,259,83.63l-1,2.08a8.67,8.67,0,0,0-3.94-1.15c-1.7,0-2.78,1-2.78,2.4,0,1.15.58,1.79,2.27,2.18l2.08.48c2.94.67,4.16,2.37,4.16,4.48C259.83,97.3,257.27,99.47,253.53,99.47Z" transform="translate(-11.36 -3.47)"/><path class="cls-1" d="M277.24,85.07h-3.17v9.66c0,2,.48,2.59,2.08,2.59a3.54,3.54,0,0,0,1.5-.32L278,98.8a6.38,6.38,0,0,1-2.91.67,4.57,4.57,0,0,1-2.82-.86c-.64-.58-1.09-1-1.09-3.2V85.07h-1.92V83h1.92a34.73,34.73,0,0,1,.19-4.1l3-.7c-.13,1.15-.29,3.17-.29,4.8H278Z" transform="translate(-11.36 -3.47)"/><path class="cls-1" d="M291.26,99V88a3.53,3.53,0,0,0-.54-2.24,2.55,2.55,0,0,0-1.76-.61,6.14,6.14,0,0,0-4.26,2.34V99h-3V79.54a14.06,14.06,0,0,0-.35-3.36l3-.61a16.32,16.32,0,0,1,.35,3.71v3.58c0,.58,0,1.31-.1,2.14a11.09,11.09,0,0,1,1.7-1.31,6.19,6.19,0,0,1,3.49-1.09,4.1,4.1,0,0,1,4,2.4,6.51,6.51,0,0,1,.32,2.59V99Z" transform="translate(-11.36 -3.47)"/><path class="cls-1" d="M302.23,91.63V92a6,6,0,0,0,.67,3.2,4.18,4.18,0,0,0,3.68,1.89,5.7,5.7,0,0,0,3.94-1.54l1.12,1.76a8.18,8.18,0,0,1-5.54,2c-4.45,0-7.17-3.23-7.17-8.48,0-2.78.54-4.58,1.92-6.21a6,6,0,0,1,4.83-2.21A5.78,5.78,0,0,1,310,84.21c1.41,1.44,1.92,3.23,2,6.91v.51Zm5.7-5.79a2.88,2.88,0,0,0-2.3-1.12c-2.24,0-3.36,1.82-3.36,4.74h6.66A5.86,5.86,0,0,0,307.93,85.84Z" transform="translate(-11.36 -3.47)"/><path class="cls-1" d="M335.64,99H323.19V96.43l4.16-3c2.91-2.14,4.8-3.58,4.8-5.82,0-1.73-1.22-2.66-3.23-2.66a8.53,8.53,0,0,0-4.77,2l-1.44-1.63c2.34-2,4.42-3,7-3,3.42,0,5.82,1.82,5.82,4.8s-3.2,5.57-5.15,6.94l-3.74,2.62c.45,0,2.34-.1,3.29-.1h6.27Z" transform="translate(-11.36 -3.47)"/><path class="cls-1" d="M347.64,99.47c-4.54,0-7.23-3.26-7.23-8.48s2.88-8.45,7.2-8.45c4.54,0,7.23,3.3,7.23,8.51S352,99.47,347.64,99.47Zm-.06-14.65c-2.69,0-4,2-4,5.86,0,4.86,1.38,6.53,4.1,6.53s4-2,4-5.86C351.67,86.48,350.3,84.82,347.58,84.82Z" transform="translate(-11.36 -3.47)"/><path class="cls-1" d="M360.15,99V96.66h3.14V86a20.83,20.83,0,0,1-4.22,2.11l-.7-1.54,5.66-4h2.14v14H369V99Z" transform="translate(-11.36 -3.47)"/><path class="cls-1" d="M384.73,85.81c-.42.61-1.73,2.62-2.59,4a58.7,58.7,0,0,0-3.65,7.49,45,45,0,0,0-2.4,6.88l-3.46.93a27.52,27.52,0,0,1,1.66-5.57,56.3,56.3,0,0,1,3-6.53,41,41,0,0,1,5.06-7.65,15.29,15.29,0,0,1-2.66.16h-8.16l.67-2.56h13.12Z" transform="translate(-11.36 -3.47)"/><path class="cls-1" d="M388.06,91.82V88.91h6.5v2.91Z" transform="translate(-11.36 -3.47)"/><path class="cls-1" d="M399.7,99V96.66h3.14V86a20.8,20.8,0,0,1-4.22,2.11l-.7-1.54,5.66-4h2.14v14h2.82V99Z" transform="translate(-11.36 -3.47)"/><path class="cls-1" d="M419.35,99.57c-4.42,0-7.29-2.5-7.29-6,0-2.88,2.08-4.74,4.42-5.63-2.59-1.09-3.71-3-3.71-4.93,0-3.26,2.62-5.47,7-5.47,3.84,0,6.5,2,6.5,5.06,0,2.27-1.6,4-4.48,5a12.43,12.43,0,0,1,3.36,1.86A4.36,4.36,0,0,1,427,93.23C427,96.88,423.83,99.57,419.35,99.57Zm3.42-8.19A17.67,17.67,0,0,0,418.26,89c-1.76,1-3,2.14-3,4.35,0,2.43,1.73,4,4.42,4,2.43,0,4.13-1.47,4.13-3.55A3.21,3.21,0,0,0,422.78,91.38ZM419.42,79.7c-2.27,0-3.71,1.18-3.71,3.07,0,1.6,1.22,2.72,4,3.87,2.4-1.25,3.42-2.43,3.42-3.94C423.16,80.85,421.72,79.7,419.42,79.7Z" transform="translate(-11.36 -3.47)"/><path class="cls-1" d="M457.49,102.7a4,4,0,0,1-1.86.32,8.71,8.71,0,0,1-4.1-1.63,12.47,12.47,0,0,0-4.64-2,7.8,7.8,0,0,1-6.34-2.91c-1.73-2-2.56-5-2.56-8.54,0-4.8,1.63-8.51,4.51-10.21a8.57,8.57,0,0,1,4.38-1.09A8.13,8.13,0,0,1,453.85,80a13.74,13.74,0,0,1,2.14,8.1c0,4.13-1.09,6.88-3.14,8.93a7.89,7.89,0,0,1-1.54,1.25,20,20,0,0,1,2.75,1.44,5.7,5.7,0,0,0,2.91.93,7.17,7.17,0,0,0,1.38-.13Zm-6-20.7a4.74,4.74,0,0,0-4.61-3,4.92,4.92,0,0,0-4.32,2.37,13,13,0,0,0-1.15,6.21c0,3.55.64,6.3,1.63,7.58a5.09,5.09,0,0,0,4,1.86,4.4,4.4,0,0,0,3.9-2c1-1.38,1.44-3.33,1.44-6.66A16.87,16.87,0,0,0,451.51,82Z" transform="translate(-11.36 -3.47)"/><path class="cls-1" d="M471.67,99.57a3.79,3.79,0,0,1-1.5-2.3,5.88,5.88,0,0,1-4.83,2.3,4.51,4.51,0,0,1-4.32-2.4,6.82,6.82,0,0,1-.38-2.69V83.09l2.91-.58V93.68c0,1.63.16,2.27.74,2.82a2.93,2.93,0,0,0,1.86.7,4.42,4.42,0,0,0,3.65-2.53V83.15l2.91-.58V94.64c0,1.63.35,2.78,1,3.33Z" transform="translate(-11.36 -3.47)"/><path class="cls-1" d="M480.79,91.63V92a6,6,0,0,0,.67,3.2,4.18,4.18,0,0,0,3.68,1.89,5.7,5.7,0,0,0,3.94-1.54l1.12,1.76a8.18,8.18,0,0,1-5.54,2c-4.45,0-7.17-3.23-7.17-8.48,0-2.78.54-4.58,1.92-6.21a6,6,0,0,1,4.83-2.21,5.78,5.78,0,0,1,4.35,1.73c1.41,1.44,1.92,3.23,2,6.91v.51Zm5.7-5.79a2.88,2.88,0,0,0-2.3-1.12c-2.24,0-3.36,1.82-3.36,4.74h6.66A5.86,5.86,0,0,0,486.49,85.84Z" transform="translate(-11.36 -3.47)"/><path class="cls-1" d="M497.37,91.63V92a6,6,0,0,0,.67,3.2,4.18,4.18,0,0,0,3.68,1.89,5.7,5.7,0,0,0,3.94-1.54l1.12,1.76a8.18,8.18,0,0,1-5.54,2c-4.45,0-7.17-3.23-7.17-8.48,0-2.78.54-4.58,1.92-6.21a6,6,0,0,1,4.83-2.21,5.78,5.78,0,0,1,4.35,1.73c1.41,1.44,1.92,3.23,2,6.91v.51Zm5.7-5.79a2.88,2.88,0,0,0-2.3-1.12c-2.24,0-3.36,1.82-3.36,4.74h6.66A5.86,5.86,0,0,0,503.06,85.84Z" transform="translate(-11.36 -3.47)"/><path class="cls-1" d="M520.63,99V88.21c0-1.44-.13-2-.51-2.46a2,2,0,0,0-1.63-.64,6.47,6.47,0,0,0-4,2V99h-2.91V87.09a8.74,8.74,0,0,0-.61-3.81l2.78-.77a5.09,5.09,0,0,1,.54,2.46,13.76,13.76,0,0,1,2.08-1.57,5.94,5.94,0,0,1,3-.8,4,4,0,0,1,3.78,2.27,5,5,0,0,1,.38,2V99Z" transform="translate(-11.36 -3.47)"/><path class="cls-1" d="M533.85,99.47a12.21,12.21,0,0,1-6-1.7l1.05-2.11a10.94,10.94,0,0,0,5.15,1.6c1.76,0,3-1,3-2.59,0-1.38-.83-2.18-2.69-2.53l-2-.38c-2.53-.51-3.9-2.08-3.9-4.45,0-2.94,2.34-5,5.79-5a10.19,10.19,0,0,1,5.06,1.31l-1,2.08a8.67,8.67,0,0,0-3.94-1.15c-1.7,0-2.78,1-2.78,2.4,0,1.15.58,1.79,2.27,2.18l2.08.48c2.94.67,4.16,2.37,4.16,4.48C540.15,97.3,537.59,99.47,533.85,99.47Z" transform="translate(-11.36 -3.47)"/><path class="cls-1" d="M547.57,99.34a2.72,2.72,0,0,1-2.5-1.22c-.48-.67-.61-1.22-.61-2.78V80.82a20.88,20.88,0,0,0-.35-4.61l3.07-.64a19.88,19.88,0,0,1,.29,4.58V95.06c0,1.12.1,1.7.51,2a1.2,1.2,0,0,0,.9.13L549.4,99A4.31,4.31,0,0,1,547.57,99.34Z" transform="translate(-11.36 -3.47)"/><path class="cls-1" d="M563.83,99.7a3.66,3.66,0,0,1-2.14-2.3,5.57,5.57,0,0,1-4.54,2.11c-3.2,0-5.18-1.63-5.18-4.7,0-3.71,3-5.7,8.16-5.7.38,0,.7,0,1.12,0V88.08c0-1.89-.26-3.17-2.5-3.17a8.86,8.86,0,0,0-4.93,1.82l-1.34-2.11a12.62,12.62,0,0,1,6.72-2.11c2.34,0,4,.86,4.64,2.56a7.32,7.32,0,0,1,.32,2.82c0,1.15-.13,3.62-.13,6s.06,3.1,1.31,3.87Zm-3.62-8.61c-2.21,0-3.55.42-4.19,1.15a3.09,3.09,0,0,0-.83,2.34c0,1.76.9,2.78,2.53,2.78a4,4,0,0,0,3.36-2.11l.1-4.1C560.73,91.12,560.47,91.09,560.21,91.09Z" transform="translate(-11.36 -3.47)"/><path class="cls-1" d="M578.87,99V88.21c0-1.44-.13-2-.51-2.46a2,2,0,0,0-1.63-.64,6.47,6.47,0,0,0-4,2V99h-2.91V87.09a8.76,8.76,0,0,0-.61-3.81l2.78-.77a5.08,5.08,0,0,1,.54,2.46,13.76,13.76,0,0,1,2.08-1.57,5.94,5.94,0,0,1,3-.8,4,4,0,0,1,3.78,2.27,5,5,0,0,1,.38,2V99Z" transform="translate(-11.36 -3.47)"/><path class="cls-1" d="M597.49,99a6.22,6.22,0,0,1-.29-1.5,5.35,5.35,0,0,1-4.13,1.76c-4.1,0-6.5-3.07-6.5-8.13,0-3.46,1.18-6.11,3.36-7.52a5.54,5.54,0,0,1,3.14-.93,4.78,4.78,0,0,1,3.9,1.86c0-.45-.06-1.73-.06-2.82V75.51l2.94.48V93.65a19.23,19.23,0,0,0,.45,5.38Zm-.61-12.45a4.1,4.1,0,0,0-3.39-1.5,3.14,3.14,0,0,0-2.79,1.63,8.52,8.52,0,0,0-.83,4.42c0,3.1.38,4,1.25,4.86a3,3,0,0,0,2.37.83A3.8,3.8,0,0,0,596.88,95Z" transform="translate(-11.36 -3.47)"/><path class="cls-1" d="M621.08,99.34a8.71,8.71,0,0,1-7-3c-1.76-2-2.56-4.64-2.56-8.26,0-4.42,1.28-7.46,3.81-9.54a8.25,8.25,0,0,1,5.54-1.89,9.2,9.2,0,0,1,6.24,2.21l-1.47,1.92a7.49,7.49,0,0,0-4.7-1.66A4.84,4.84,0,0,0,616.21,82a12.66,12.66,0,0,0-1.22,6.3c0,3,.54,5.31,1.57,6.66a6.09,6.09,0,0,0,4.74,2,6.58,6.58,0,0,0,3.26-.83V89.81H620.5L620,87.28h7.62v10.3A12.68,12.68,0,0,1,621.08,99.34Z" transform="translate(-11.36 -3.47)"/><path class="cls-1" d="M639,99.47c-4.29,0-6.94-3.26-6.94-8.48s2.66-8.45,6.88-8.45c4.74,0,7,3.78,7,8.61C646,96.24,643.28,99.47,639,99.47ZM639,84.82c-2.56,0-3.62,1.82-3.62,5.86,0,4.9,1.25,6.53,3.74,6.53,2.24,0,3.62-1.73,3.62-5.92C642.71,86.32,641.27,84.82,639,84.82Z" transform="translate(-11.36 -3.47)"/><path class="cls-1" d="M656.4,99.15h-2.75l-5.73-16.09,3-.48,3.17,9.7c.35,1.09.7,2.37,1,3.46h.06a28.8,28.8,0,0,1,1-3.52l3-9.22h3.1Z" transform="translate(-11.36 -3.47)"/><path class="cls-1" d="M667.38,91.63V92a6,6,0,0,0,.67,3.2,4.18,4.18,0,0,0,3.68,1.89,5.7,5.7,0,0,0,3.94-1.54l1.12,1.76a8.19,8.19,0,0,1-5.54,2c-4.45,0-7.17-3.23-7.17-8.48,0-2.78.54-4.58,1.92-6.21a6,6,0,0,1,4.83-2.21,5.78,5.78,0,0,1,4.35,1.73c1.41,1.44,1.92,3.23,2,6.91v.51Zm5.7-5.79a2.88,2.88,0,0,0-2.3-1.12c-2.24,0-3.36,1.82-3.36,4.74h6.66A5.86,5.86,0,0,0,673.08,85.84Z" transform="translate(-11.36 -3.47)"/><path class="cls-1" d="M688.72,85.58a2.4,2.4,0,0,0-.83-.16,3.35,3.35,0,0,0-3.33,3.26V99h-2.94V87.25a10.26,10.26,0,0,0-.61-4l2.85-.74A6.65,6.65,0,0,1,684.4,85v.29c1.28-1.86,2.66-2.78,4.35-2.78a2.92,2.92,0,0,1,1,.16Z" transform="translate(-11.36 -3.47)"/><path class="cls-1" d="M701.81,99V88.21c0-1.44-.13-2-.51-2.46a2,2,0,0,0-1.63-.64,6.47,6.47,0,0,0-4,2V99h-2.91V87.09a8.76,8.76,0,0,0-.61-3.81l2.78-.77a5.09,5.09,0,0,1,.54,2.46,13.81,13.81,0,0,1,2.08-1.57,5.94,5.94,0,0,1,3-.8,4,4,0,0,1,3.78,2.27,5,5,0,0,1,.38,2V99Z" transform="translate(-11.36 -3.47)"/><path class="cls-1" d="M727.6,99V87.54c0-1.82-.58-2.46-1.92-2.46s-2.53,1-3.74,2.18V99h-2.88V87.6c0-1.79-.51-2.46-2-2.46A5.51,5.51,0,0,0,713.4,87V99h-2.91V87.25a8.71,8.71,0,0,0-.58-4l2.75-.67a4.53,4.53,0,0,1,.54,2.24,6.54,6.54,0,0,1,4.51-2.27,4.14,4.14,0,0,1,3.81,2.53,6.87,6.87,0,0,1,4.9-2.53c2.5,0,4.1,1.57,4.1,4.51V99Z" transform="translate(-11.36 -3.47)"/><path class="cls-1" d="M738.61,91.63V92a6,6,0,0,0,.67,3.2A4.18,4.18,0,0,0,743,97.1a5.7,5.7,0,0,0,3.94-1.54L748,97.33a8.18,8.18,0,0,1-5.54,2c-4.45,0-7.17-3.23-7.17-8.48,0-2.78.54-4.58,1.92-6.21a6,6,0,0,1,4.83-2.21,5.78,5.78,0,0,1,4.35,1.73c1.41,1.44,1.92,3.23,2,6.91v.51Zm5.7-5.79a2.88,2.88,0,0,0-2.3-1.12c-2.24,0-3.36,1.82-3.36,4.74h6.66A5.86,5.86,0,0,0,744.31,85.84Z" transform="translate(-11.36 -3.47)"/><path class="cls-1" d="M761.88,99V88.21c0-1.44-.13-2-.51-2.46a2,2,0,0,0-1.63-.64,6.47,6.47,0,0,0-4,2V99h-2.91V87.09a8.74,8.74,0,0,0-.61-3.81l2.78-.77a5.09,5.09,0,0,1,.54,2.46,13.76,13.76,0,0,1,2.08-1.57,5.94,5.94,0,0,1,3-.8,4,4,0,0,1,3.78,2.27,5,5,0,0,1,.38,2V99Z" transform="translate(-11.36 -3.47)"/><path class="cls-1" d="M776.6,85.07h-3.17v9.66c0,2,.48,2.59,2.08,2.59A3.54,3.54,0,0,0,777,97l.35,1.79a6.38,6.38,0,0,1-2.91.67,4.57,4.57,0,0,1-2.82-.86c-.64-.58-1.09-1-1.09-3.2V85.07h-1.92V83h1.92a34.73,34.73,0,0,1,.19-4.1l3-.7c-.13,1.15-.29,3.17-.29,4.8h3.9Z" transform="translate(-11.36 -3.47)"/><path class="cls-1" d="M130.41,135.34a5.87,5.87,0,0,1-5.15-2.4,9.69,9.69,0,0,1-1.54-5.79c0-3.62,1.15-5.7,2.69-7.07a6.27,6.27,0,0,1,8.51.06l-1.54,2a3.9,3.9,0,0,0-2.81-1.25,3.08,3.08,0,0,0-2.82,1.73,11.38,11.38,0,0,0-.77,4.9c0,2.24.45,3.71,1.28,4.61a3.11,3.11,0,0,0,2.3,1,4.49,4.49,0,0,0,3.33-1.66l1.44,1.82A6.32,6.32,0,0,1,130.41,135.34Z" transform="translate(-11.36 -3.47)"/><path class="cls-1" d="M149.77,135.7a3.66,3.66,0,0,1-2.14-2.3,5.57,5.57,0,0,1-4.54,2.11c-3.2,0-5.18-1.63-5.18-4.7,0-3.71,3-5.7,8.16-5.7.38,0,.7,0,1.12,0v-1.06c0-1.89-.26-3.17-2.5-3.17a8.86,8.86,0,0,0-4.93,1.82l-1.34-2.11a12.62,12.62,0,0,1,6.72-2.11c2.34,0,4,.86,4.64,2.56a7.32,7.32,0,0,1,.32,2.82c0,1.15-.13,3.62-.13,6s.06,3.1,1.31,3.87Zm-3.62-8.61c-2.21,0-3.55.42-4.19,1.15a3.09,3.09,0,0,0-.83,2.34c0,1.76.9,2.78,2.53,2.78a4,4,0,0,0,3.36-2.11l.1-4.1C146.67,127.12,146.41,127.09,146.16,127.09Z" transform="translate(-11.36 -3.47)"/><path class="cls-1" d="M162.76,135.34a6.16,6.16,0,0,1-4.16-1.66,16.06,16.06,0,0,1,.06,1.79v5.63l-2.88.67V122.93a16.93,16.93,0,0,0-.35-3.94l2.85-.48a8.31,8.31,0,0,1,.19,2.3,5.81,5.81,0,0,1,4.54-2.24c3.26,0,6,2.66,6,8.16C169,131.73,166.86,135.34,162.76,135.34Zm-.26-14.27a5,5,0,0,0-3.84,2v8.16a5,5,0,0,0,3.42,1.76c2.59,0,3.78-2,3.78-5.89S165,121.07,162.51,121.07Z" transform="translate(-11.36 -3.47)"/><path class="cls-1" d="M175.18,116.18a2.08,2.08,0,0,1-2-2.11,2.1,2.1,0,1,1,4.19,0A2.14,2.14,0,0,1,175.18,116.18ZM173.68,135V119.09l3-.48V135Z" transform="translate(-11.36 -3.47)"/><path class="cls-1" d="M188.52,121.07h-3.17v9.66c0,2,.48,2.59,2.08,2.59a3.54,3.54,0,0,0,1.5-.32l.35,1.79a6.38,6.38,0,0,1-2.91.67,4.57,4.57,0,0,1-2.82-.86c-.64-.58-1.09-1-1.09-3.2V121.07h-1.92V119h1.92a34.73,34.73,0,0,1,.19-4.1l3-.7c-.13,1.15-.29,3.17-.29,4.8h3.9Z" transform="translate(-11.36 -3.47)"/><path class="cls-1" d="M203.34,135.7a3.66,3.66,0,0,1-2.14-2.3,5.57,5.57,0,0,1-4.54,2.11c-3.2,0-5.18-1.63-5.18-4.7,0-3.71,3-5.7,8.16-5.7.38,0,.7,0,1.12,0v-1.06c0-1.89-.26-3.17-2.5-3.17a8.85,8.85,0,0,0-4.93,1.82L192,120.63a12.62,12.62,0,0,1,6.72-2.11c2.34,0,4,.86,4.64,2.56a7.3,7.3,0,0,1,.32,2.82c0,1.15-.13,3.62-.13,6s.06,3.1,1.31,3.87Zm-3.62-8.61c-2.21,0-3.55.42-4.19,1.15a3.1,3.1,0,0,0-.83,2.34c0,1.76.9,2.78,2.53,2.78a4,4,0,0,0,3.36-2.11l.1-4.1C200.24,127.12,200,127.09,199.72,127.09Z" transform="translate(-11.36 -3.47)"/><path class="cls-1" d="M212.3,135.34a2.72,2.72,0,0,1-2.5-1.22c-.48-.67-.61-1.22-.61-2.78V116.82a20.88,20.88,0,0,0-.35-4.61l3.07-.64a20,20,0,0,1,.29,4.58v14.91c0,1.12.1,1.7.51,2a1.2,1.2,0,0,0,.9.13l.51,1.82A4.31,4.31,0,0,1,212.3,135.34Z" transform="translate(-11.36 -3.47)"/><path class="cls-1" d="M231.82,135.34a6.16,6.16,0,0,1-4.16-1.66,16.31,16.31,0,0,1,.06,1.79v5.63l-2.88.67V122.93a17,17,0,0,0-.35-3.94l2.85-.48a8.3,8.3,0,0,1,.19,2.3,5.81,5.81,0,0,1,4.54-2.24c3.26,0,6,2.66,6,8.16C238.09,131.73,235.91,135.34,231.82,135.34Zm-.26-14.27a5,5,0,0,0-3.84,2v8.16a5,5,0,0,0,3.42,1.76c2.59,0,3.78-2,3.78-5.89S234.09,121.07,231.56,121.07Z" transform="translate(-11.36 -3.47)"/><path class="cls-1" d="M250,121.58a2.39,2.39,0,0,0-.83-.16,3.35,3.35,0,0,0-3.33,3.26V135h-2.94V123.25a10.24,10.24,0,0,0-.61-4l2.85-.74a6.63,6.63,0,0,1,.54,2.46v.29c1.28-1.86,2.66-2.78,4.35-2.78a2.92,2.92,0,0,1,1,.16Z" transform="translate(-11.36 -3.47)"/><path class="cls-1" d="M259.47,135.47c-4.29,0-6.94-3.26-6.94-8.48s2.66-8.45,6.88-8.45c4.74,0,7,3.78,7,8.61C266.44,132.24,263.72,135.47,259.47,135.47Zm-.06-14.65c-2.56,0-3.62,1.82-3.62,5.86,0,4.9,1.25,6.53,3.74,6.53,2.24,0,3.62-1.73,3.62-5.92C263.15,122.32,261.71,120.82,259.4,120.82Z" transform="translate(-11.36 -3.47)"/><path class="cls-1" d="M282.86,121.27a3.81,3.81,0,0,1-1.38-.26,4.48,4.48,0,0,1,1.15,2.94c0,2.3-1.57,5-5.76,5-1,.32-2.53,1.06-2.53,1.76,0,.48.38.8,1.15.8H278c4.1,0,5.79,1.92,5.79,4.42,0,3.46-2.85,5.18-6.75,5.18-4.48,0-7-1.57-7-4.22a4.8,4.8,0,0,1,.29-1.63l2.88-.16a3.1,3.1,0,0,0-.29,1.22c0,1.66,1.38,2.56,3.87,2.56s3.94-1.06,3.94-2.75c0-1.54-1.25-2.43-4.42-2.43-1.12,0-2.4-.1-3-.16-1.41-.16-2.24-1-2.24-2.14,0-1.5,1.31-2.14,3.14-2.82-2.46-.74-3.78-2.4-3.78-4.61,0-3.23,2.46-5.38,6.14-5.38a7.82,7.82,0,0,1,2.5.35,9,9,0,0,0,2.4.51,4.37,4.37,0,0,0,2.62-.93l1.5,1.82A4,4,0,0,1,282.86,121.27Zm-6.43-.42c-1.89,0-2.91,1-2.91,3.07a2.65,2.65,0,0,0,2.94,3c1.92,0,2.91-1.06,2.91-3S278.44,120.85,276.43,120.85Z" transform="translate(-11.36 -3.47)"/><path class="cls-1" d="M295.5,121.58a2.39,2.39,0,0,0-.83-.16,3.35,3.35,0,0,0-3.33,3.26V135h-2.94V123.25a10.24,10.24,0,0,0-.61-4l2.85-.74a6.63,6.63,0,0,1,.54,2.46v.29c1.28-1.86,2.66-2.78,4.35-2.78a2.92,2.92,0,0,1,1,.16Z" transform="translate(-11.36 -3.47)"/><path class="cls-1" d="M310,135.7a3.66,3.66,0,0,1-2.14-2.3,5.57,5.57,0,0,1-4.54,2.11c-3.2,0-5.18-1.63-5.18-4.7,0-3.71,3-5.7,8.16-5.7.38,0,.7,0,1.12,0v-1.06c0-1.89-.26-3.17-2.5-3.17a8.86,8.86,0,0,0-4.93,1.82l-1.34-2.11a12.63,12.63,0,0,1,6.72-2.11c2.34,0,4,.86,4.64,2.56a7.32,7.32,0,0,1,.32,2.82c0,1.15-.13,3.62-.13,6s.06,3.1,1.31,3.87Zm-3.62-8.61c-2.21,0-3.55.42-4.19,1.15a3.09,3.09,0,0,0-.83,2.34c0,1.76.9,2.78,2.53,2.78a4,4,0,0,0,3.36-2.11l.1-4.1C306.89,127.12,306.63,127.09,306.38,127.09Z" transform="translate(-11.36 -3.47)"/><path class="cls-1" d="M333.13,135V123.54c0-1.82-.58-2.46-1.92-2.46s-2.53,1-3.74,2.18V135h-2.88V123.6c0-1.79-.51-2.46-2-2.46a5.51,5.51,0,0,0-3.68,1.86v12H316V123.25a8.72,8.72,0,0,0-.58-4l2.75-.67a4.54,4.54,0,0,1,.54,2.24,6.55,6.55,0,0,1,4.51-2.27,4.14,4.14,0,0,1,3.81,2.53,6.87,6.87,0,0,1,4.9-2.53c2.5,0,4.1,1.57,4.1,4.51v12Z" transform="translate(-11.36 -3.47)"/><path class="cls-1" d="M359.75,135.7a3.66,3.66,0,0,1-2.14-2.3,5.57,5.57,0,0,1-4.54,2.11c-3.2,0-5.18-1.63-5.18-4.7,0-3.71,3-5.7,8.16-5.7.38,0,.7,0,1.12,0v-1.06c0-1.89-.26-3.17-2.5-3.17a8.86,8.86,0,0,0-4.93,1.82l-1.34-2.11a12.62,12.62,0,0,1,6.72-2.11c2.34,0,4,.86,4.64,2.56a7.32,7.32,0,0,1,.32,2.82c0,1.15-.13,3.62-.13,6s.06,3.1,1.31,3.87Zm-3.62-8.61c-2.21,0-3.55.42-4.19,1.15a3.09,3.09,0,0,0-.83,2.34c0,1.76.9,2.78,2.53,2.78a4,4,0,0,0,3.36-2.11l.1-4.1C356.65,127.12,356.39,127.09,356.14,127.09Z" transform="translate(-11.36 -3.47)"/><path class="cls-1" d="M370.15,135.47a12.21,12.21,0,0,1-6-1.7l1.06-2.11a10.93,10.93,0,0,0,5.15,1.6c1.76,0,3-1,3-2.59,0-1.38-.83-2.18-2.69-2.53l-2-.38c-2.53-.51-3.9-2.08-3.9-4.45,0-2.94,2.34-5,5.79-5a10.19,10.19,0,0,1,5.06,1.31l-1,2.08a8.68,8.68,0,0,0-3.94-1.15c-1.7,0-2.78,1-2.78,2.4,0,1.15.58,1.79,2.27,2.18l2.08.48c2.94.67,4.16,2.37,4.16,4.48C376.46,133.3,373.9,135.47,370.15,135.47Z" transform="translate(-11.36 -3.47)"/><path class="cls-1" d="M392.52,135.47a12.21,12.21,0,0,1-6-1.7l1.06-2.11a10.93,10.93,0,0,0,5.15,1.6c1.76,0,3-1,3-2.59,0-1.38-.83-2.18-2.69-2.53l-2-.38c-2.53-.51-3.9-2.08-3.9-4.45,0-2.94,2.34-5,5.79-5a10.2,10.2,0,0,1,5.06,1.31l-1,2.08a8.68,8.68,0,0,0-3.94-1.15c-1.7,0-2.78,1-2.78,2.4,0,1.15.58,1.79,2.27,2.18l2.08.48c2.94.67,4.16,2.37,4.16,4.48C398.83,133.3,396.27,135.47,392.52,135.47Z" transform="translate(-11.36 -3.47)"/><path class="cls-1" d="M412.68,135V124a3.53,3.53,0,0,0-.54-2.24,2.55,2.55,0,0,0-1.76-.61,6.14,6.14,0,0,0-4.26,2.34V135h-3V115.54a14.06,14.06,0,0,0-.35-3.36l3-.61a16.32,16.32,0,0,1,.35,3.71v3.58c0,.58,0,1.31-.1,2.14a11.09,11.09,0,0,1,1.7-1.31,6.19,6.19,0,0,1,3.49-1.09,4.1,4.1,0,0,1,4,2.4,6.51,6.51,0,0,1,.32,2.59V135Z" transform="translate(-11.36 -3.47)"/><path class="cls-1" d="M427.15,135.47c-4.29,0-6.94-3.26-6.94-8.48s2.66-8.45,6.88-8.45c4.74,0,7,3.78,7,8.61C434.12,132.24,431.4,135.47,427.15,135.47Zm-.06-14.65c-2.56,0-3.62,1.82-3.62,5.86,0,4.9,1.25,6.53,3.74,6.53,2.24,0,3.62-1.73,3.62-5.92C430.83,122.32,429.38,120.82,427.08,120.82Z" transform="translate(-11.36 -3.47)"/><path class="cls-1" d="M453.1,135.15h-2.85l-2.34-8.74-1-3.78h-.1l-.86,3.58-2.4,8.93h-2.82l-4.38-16,3-.48,2,9,.83,3.94h.1a34.46,34.46,0,0,1,.74-3.65l2.43-8.93h3l2.24,8.67c.38,1.54.8,3.46.9,3.9h.13l.74-3.81,2-8.77h3.07Z" transform="translate(-11.36 -3.47)"/><path class="cls-1" d="M470.12,135V124.21c0-1.44-.13-2-.51-2.46a2,2,0,0,0-1.63-.64,6.47,6.47,0,0,0-4,2V135H461.1V123.09a8.76,8.76,0,0,0-.61-3.81l2.78-.77a5.09,5.09,0,0,1,.54,2.46,13.81,13.81,0,0,1,2.08-1.57,5.94,5.94,0,0,1,3-.8,4,4,0,0,1,3.78,2.27,5,5,0,0,1,.38,2V135Z" transform="translate(-11.36 -3.47)"/><path class="cls-1" d="M487.5,116.18a2.08,2.08,0,0,1-2-2.11,2.1,2.1,0,1,1,4.19,0A2.14,2.14,0,0,1,487.5,116.18ZM486,135V119.09l3-.48V135Z" transform="translate(-11.36 -3.47)"/><path class="cls-1" d="M503.82,135V124.21c0-1.44-.13-2-.51-2.46a2,2,0,0,0-1.63-.64,6.47,6.47,0,0,0-4,2V135h-2.91V123.09a8.76,8.76,0,0,0-.61-3.81l2.78-.77a5.09,5.09,0,0,1,.54,2.46,13.81,13.81,0,0,1,2.08-1.57,5.94,5.94,0,0,1,3-.8,4,4,0,0,1,3.78,2.27,5,5,0,0,1,.38,2V135Z" transform="translate(-11.36 -3.47)"/><path class="cls-1" d="M525.74,121.07h-3.17v9.66c0,2,.48,2.59,2.08,2.59a3.54,3.54,0,0,0,1.5-.32l.35,1.79a6.38,6.38,0,0,1-2.91.67,4.57,4.57,0,0,1-2.82-.86c-.64-.58-1.09-1-1.09-3.2V121.07h-1.92V119h1.92a34.73,34.73,0,0,1,.19-4.1l3-.7c-.13,1.15-.29,3.17-.29,4.8h3.9Z" transform="translate(-11.36 -3.47)"/><path class="cls-1" d="M539.75,135V124a3.53,3.53,0,0,0-.54-2.24,2.55,2.55,0,0,0-1.76-.61,6.14,6.14,0,0,0-4.26,2.34V135h-3V115.54a14.06,14.06,0,0,0-.35-3.36l3-.61a16.32,16.32,0,0,1,.35,3.71v3.58c0,.58,0,1.31-.1,2.14a11.09,11.09,0,0,1,1.7-1.31,6.19,6.19,0,0,1,3.49-1.09,4.1,4.1,0,0,1,4,2.4,6.51,6.51,0,0,1,.32,2.59V135Z" transform="translate(-11.36 -3.47)"/><path class="cls-1" d="M550.73,127.63V128a6,6,0,0,0,.67,3.2,4.18,4.18,0,0,0,3.68,1.89,5.7,5.7,0,0,0,3.94-1.54l1.12,1.76a8.18,8.18,0,0,1-5.54,2c-4.45,0-7.17-3.23-7.17-8.48,0-2.78.54-4.58,1.92-6.21a6,6,0,0,1,4.83-2.21,5.78,5.78,0,0,1,4.35,1.73c1.41,1.44,1.92,3.23,2,6.91v.51Zm5.7-5.79a2.88,2.88,0,0,0-2.3-1.12c-2.24,0-3.36,1.82-3.36,4.74h6.66A5.86,5.86,0,0,0,556.42,121.84Z" transform="translate(-11.36 -3.47)"/><path class="cls-1" d="M584.71,135.44a13.49,13.49,0,0,1-7.1-2l1.22-2.37a10.85,10.85,0,0,0,6,1.82c2.88,0,4.77-1.47,4.77-3.84,0-1.79-1.18-3-3.65-3.74l-2.3-.67c-3.33-1-5.22-2.56-5.22-5.7,0-3.81,2.94-6.4,7.3-6.4a11.69,11.69,0,0,1,6.75,2.08L591,116.85a9.28,9.28,0,0,0-5.25-1.73c-2.46,0-4,1.28-4,3.33,0,1.57.9,2.46,3.26,3.17l2.59.77c2.94.86,5.38,2.78,5.38,6.21C593,131.66,590.5,135.44,584.71,135.44Z" transform="translate(-11.36 -3.47)"/><path class="cls-1" d="M597.35,135V113h3.14v22Z" transform="translate(-11.36 -3.47)"/><path class="cls-1" d="M617.61,125a6.75,6.75,0,0,1-4.64,1.34h-3.65V135h-3.07V113h5.89c2.85,0,4.06.29,5.25,1a6.05,6.05,0,0,1,2.91,5.38A6.4,6.4,0,0,1,617.61,125Zm-1.82-8.45a4.86,4.86,0,0,0-3.58-1.09h-2.88v8.38h3.46a3.62,3.62,0,0,0,3.17-1.25,4.41,4.41,0,0,0,.93-2.91A4.11,4.11,0,0,0,615.78,116.59Z" transform="translate(-11.36 -3.47)"/><path class="cls-1" d="M631.69,135v-2.37h3.14V122a20.8,20.8,0,0,1-4.22,2.11l-.7-1.54,5.66-4h2.14v14h2.82V135Z" transform="translate(-11.36 -3.47)"/><path class="cls-1" d="M651.08,127.82v-2.91h6.5v2.91Z" transform="translate(-11.36 -3.47)"/><path class="cls-1" d="M681.09,134.77c-.38,0-.9-.06-1-.06a6.79,6.79,0,0,1,.1,1.12v4.64l-2.85.61v-5.15c0-.32,0-1,0-1.18-.16,0-.87,0-1.31,0h-8.22v-2.21l6.88-14.21h3.14l-5.47,11.33a21.75,21.75,0,0,1-1.54,2.75c.35,0,.77-.1,1.25-.1h4l1.38,0-.06-.93c0-.45.06-2,.16-3.1l.35-4.19,2.3-.64v6.11c0,.7,0,1.06,0,1.76l0,1c.13,0,.74,0,1.12,0h1.41v2.43Z" transform="translate(-11.36 -3.47)"/><path class="cls-1" d="M689.22,135.47a2.4,2.4,0,1,1,2.27-2.4A2.31,2.31,0,0,1,689.22,135.47Z" transform="translate(-11.36 -3.47)"/></g></g></svg>