<svg xmlns="http://www.w3.org/2000/svg" viewBox="0 0 989 120"><defs><style>.cls-1{fill:#eaebec;opacity:0.5;}.cls-1,.cls-2{isolation:isolate;}.cls-3{fill:#4c4c4e;}</style></defs><title>IP_sc4_prelim</title><g id="Layer_2" data-name="Layer 2"><g id="Layer_1-2" data-name="Layer 1"><rect class="cls-1" width="989" height="120"/><g class="cls-2"><path class="cls-3" d="M78.93,61.32c-1.34.63-2.6,1-5.84,1H69.85V73H64V43.85h7.69c5,0,6.47.5,8.11,1.43A8.2,8.2,0,0,1,84,52.84,9,9,0,0,1,78.93,61.32ZM73.59,48.6H69.85V57.5h3.07c2.39,0,3.11-.29,3.91-1.51a5.21,5.21,0,0,0,.71-3C77.54,50.23,76.07,48.6,73.59,48.6Z"/><path class="cls-3" d="M98.88,56.45A3.18,3.18,0,0,0,97.24,56a4.49,4.49,0,0,0-3.45,1.81V73H88.16V58.68a19.51,19.51,0,0,0-.8-6.3l5-1.34a6.91,6.91,0,0,1,.88,3.07c1.22-1.64,2.94-3.07,5-3.07a4.34,4.34,0,0,1,2.1.46Z"/><path class="cls-3" d="M107.28,64.05v.17c0,3.32,1.64,5.21,4.54,5.21a8.41,8.41,0,0,0,5.46-2.14l2.18,3.36a12.34,12.34,0,0,1-8.11,3c-6.18,0-10.17-4.37-10.17-11.13,0-3.86.8-6.43,2.69-8.53a8.46,8.46,0,0,1,6.76-2.9,8.8,8.8,0,0,1,6.22,2.27c2,2,2.86,4.91,2.86,9.41v1.3Zm6.59-4.37a5.53,5.53,0,0,0-.67-3.23,2.72,2.72,0,0,0-2.48-1.26c-2.14,0-3.36,1.68-3.36,4.66v.08h6.51Z"/><path class="cls-3" d="M129.62,73.55c-2.39,0-4.33-1.13-5-2.94-.42-1.09-.5-1.76-.5-4.83v-16a55.68,55.68,0,0,0-.29-6.47l5.75-1.3a31.89,31.89,0,0,1,.29,5.59V64.31c0,3.7,0,4.2.38,4.79a1.29,1.29,0,0,0,1.13.59,1.86,1.86,0,0,0,.63-.08L133,73A9.39,9.39,0,0,1,129.62,73.55Z"/><path class="cls-3" d="M139.15,49.1a3.47,3.47,0,0,1-3.44-3.49,3.51,3.51,0,0,1,3.53-3.49,3.43,3.43,0,0,1,3.4,3.49A3.48,3.48,0,0,1,139.15,49.1ZM136.34,73V51.91L142,51V73Z"/><path class="cls-3" d="M170.23,73V58.85c0-2.56-.29-3.07-1.76-3.07a6.4,6.4,0,0,0-3.74,1.81V73H159.4v-14c0-2.69-.38-3.32-1.93-3.32a6,6,0,0,0-3.7,1.64V73h-5.5V58c0-3.11-.21-4.45-.8-5.5l5.08-1.39a5.46,5.46,0,0,1,.76,2.18,7.41,7.41,0,0,1,5.25-2.18,5.82,5.82,0,0,1,4.37,1.76,7.14,7.14,0,0,1,.84,1,7.9,7.9,0,0,1,6.09-2.81,6.66,6.66,0,0,1,4.24,1.34c1.22,1.05,1.6,2.31,1.6,5.25V73Z"/><path class="cls-3" d="M184.8,49.1a3.47,3.47,0,0,1-3.44-3.49,3.51,3.51,0,0,1,3.53-3.49,3.43,3.43,0,0,1,3.4,3.49A3.48,3.48,0,0,1,184.8,49.1ZM182,73V51.91l5.63-.88V73Z"/><path class="cls-3" d="M205.34,73v-14c0-2.44-.42-3.15-1.89-3.15a6.56,6.56,0,0,0-3.91,1.93V73h-5.63V57.46a15.52,15.52,0,0,0-.76-5l5-1.43a5.5,5.5,0,0,1,.8,2.69,25.09,25.09,0,0,1,2.48-1.6,8.87,8.87,0,0,1,3.87-.92,5.35,5.35,0,0,1,5.17,3.11,8.68,8.68,0,0,1,.42,3.07V73Z"/><path class="cls-3" d="M231.34,74.14a6,6,0,0,1-3-2.6,10.4,10.4,0,0,1-1.3,1.13,7.43,7.43,0,0,1-4.33,1.18c-4.79,0-7.39-2.44-7.39-6.72,0-5,3.49-7.39,10.33-7.39.42,0,.8,0,1.26,0v-.88c0-2.39-.46-3.19-2.52-3.19-1.81,0-3.91.88-6.22,2.44l-2.39-4a20.81,20.81,0,0,1,3.49-1.76,14.57,14.57,0,0,1,5.88-1.26c3.61,0,6.09,1.34,6.93,3.74a10,10,0,0,1,.38,3.87l-.13,7.22c0,2.35.13,3.36,2,4.79Zm-4.79-10.5c-3.91,0-5.25.71-5.25,3.28a2.55,2.55,0,0,0,2.48,2.81,4.08,4.08,0,0,0,2.94-1.47l.08-4.62Z"/><path class="cls-3" d="M249.4,56.45a3.18,3.18,0,0,0-1.64-.42,4.49,4.49,0,0,0-3.45,1.81V73h-5.63V58.68a19.51,19.51,0,0,0-.8-6.3l5-1.34a6.91,6.91,0,0,1,.88,3.07c1.22-1.64,2.94-3.07,5-3.07a4.34,4.34,0,0,1,2.1.46Z"/><path class="cls-3" d="M265,73.38c-1.47,4.16-2.56,6-4.12,7.1a11.37,11.37,0,0,1-5.21,2l-1.93-3.7a12.61,12.61,0,0,0,3.49-1.43,6.51,6.51,0,0,0,1.6-1.76A12.86,12.86,0,0,0,260,73H258.6l-7.1-21.17,5.75-.67L261,63.76l1.13,4.45c0-.13.42-2.39.67-3.44.17-.71.5-2,.84-3l3.23-10.25h5.92Z"/><path class="cls-3" d="M289.8,64.05v.17c0,3.32,1.64,5.21,4.54,5.21a8.41,8.41,0,0,0,5.46-2.14L302,70.65a12.34,12.34,0,0,1-8.11,3c-6.18,0-10.17-4.37-10.17-11.13,0-3.86.8-6.43,2.69-8.53a8.46,8.46,0,0,1,6.76-2.9,8.8,8.8,0,0,1,6.22,2.27c2,2,2.86,4.91,2.86,9.41v1.3Zm6.59-4.37a5.54,5.54,0,0,0-.67-3.23,2.73,2.73,0,0,0-2.48-1.26c-2.14,0-3.36,1.68-3.36,4.66v.08h6.51Z"/><path class="cls-3" d="M315.76,73H311.1l-7.81-21.17,5.76-.71,3.11,9.7c.46,1.43,1.09,3.78,1.39,5.17a36.26,36.26,0,0,1,1.3-5.46l2.9-9h5.88Z"/><path class="cls-3" d="M340.71,74.14a6,6,0,0,1-3-2.6,10.39,10.39,0,0,1-1.3,1.13,7.44,7.44,0,0,1-4.33,1.18c-4.79,0-7.39-2.44-7.39-6.72,0-5,3.49-7.39,10.33-7.39.42,0,.8,0,1.26,0v-.88c0-2.39-.46-3.19-2.52-3.19-1.81,0-3.91.88-6.22,2.44l-2.39-4a20.7,20.7,0,0,1,3.49-1.76,14.56,14.56,0,0,1,5.88-1.26c3.61,0,6.09,1.34,6.93,3.74a10,10,0,0,1,.38,3.87l-.12,7.22c0,2.35.13,3.36,2,4.79Zm-4.79-10.5c-3.91,0-5.25.71-5.25,3.28a2.55,2.55,0,0,0,2.48,2.81,4.07,4.07,0,0,0,2.94-1.47l.08-4.62Z"/><path class="cls-3" d="M353.22,73.55c-2.39,0-4.33-1.13-5-2.94-.42-1.09-.5-1.76-.5-4.83v-16a55.19,55.19,0,0,0-.29-6.47l5.76-1.3a32,32,0,0,1,.29,5.59V64.31c0,3.7,0,4.2.38,4.79a1.29,1.29,0,0,0,1.13.59,1.85,1.85,0,0,0,.63-.08l1,3.36A9.4,9.4,0,0,1,353.22,73.55Z"/><path class="cls-3" d="M373.89,73.63a4.92,4.92,0,0,1-1.68-2.1,8,8,0,0,1-5.67,2.06c-3,0-5.63-1.43-6.34-3.49a12.86,12.86,0,0,1-.46-4.29V52l5.54-1V64.81a8.48,8.48,0,0,0,.46,3.53,2.26,2.26,0,0,0,2,1,4.17,4.17,0,0,0,3.49-2.06V52.17L376.58,51V67.46a6.25,6.25,0,0,0,1.3,3.91Z"/><path class="cls-3" d="M397.45,74.14a6,6,0,0,1-3-2.6,10.39,10.39,0,0,1-1.3,1.13,7.43,7.43,0,0,1-4.33,1.18c-4.79,0-7.39-2.44-7.39-6.72,0-5,3.49-7.39,10.33-7.39.42,0,.8,0,1.26,0v-.88c0-2.39-.46-3.19-2.52-3.19-1.81,0-3.91.88-6.22,2.44l-2.39-4a20.77,20.77,0,0,1,3.49-1.76,14.56,14.56,0,0,1,5.88-1.26c3.61,0,6.09,1.34,6.93,3.74a10,10,0,0,1,.38,3.87l-.13,7.22c0,2.35.13,3.36,2,4.79Zm-4.79-10.5c-3.91,0-5.25.71-5.25,3.28a2.55,2.55,0,0,0,2.48,2.81,4.08,4.08,0,0,0,2.94-1.47l.08-4.62Z"/><path class="cls-3" d="M411,73.55c-2.86,0-5.12-1.26-5.8-3.15a7.89,7.89,0,0,1-.38-3.32V55.4h-2.14V51.54h2.14a37.26,37.26,0,0,1,.21-5.08L410.72,45a64.24,64.24,0,0,0-.34,6.51h5L414,55.4h-3.61V66.2c0,2.73.5,3.45,2.44,3.45a7.37,7.37,0,0,0,2-.42l.71,3.36A11.81,11.81,0,0,1,411,73.55Z"/><path class="cls-3" d="M422.35,49.1a3.47,3.47,0,0,1-3.44-3.49,3.51,3.51,0,0,1,3.53-3.49,3.43,3.43,0,0,1,3.4,3.49A3.48,3.48,0,0,1,422.35,49.1ZM419.54,73V51.91l5.63-.88V73Z"/><path class="cls-3" d="M446.76,70.52a8.79,8.79,0,0,1-7.1,3c-5.84,0-9.66-4.37-9.66-11.13s3.86-11.26,9.66-11.26A9,9,0,0,1,447,54.35c1.72,2,2.48,4.37,2.48,7.86C449.45,65.9,448.61,68.42,446.76,70.52Zm-4.58-14.11a3.08,3.08,0,0,0-5.33,1,15.34,15.34,0,0,0-.59,4.79,15.2,15.2,0,0,0,.71,5.42,3.11,3.11,0,0,0,2.86,1.76c2.44,0,3.49-2.18,3.49-7.27C443.31,59.27,442.93,57.38,442.18,56.41Z"/><path class="cls-3" d="M465.7,73v-14c0-2.44-.42-3.15-1.89-3.15a6.57,6.57,0,0,0-3.91,1.93V73h-5.63V57.46a15.52,15.52,0,0,0-.76-5l5-1.43a5.51,5.51,0,0,1,.8,2.69,25,25,0,0,1,2.48-1.6,8.87,8.87,0,0,1,3.86-.92,5.35,5.35,0,0,1,5.17,3.11,8.68,8.68,0,0,1,.42,3.07V73Z"/></g></g></g></svg>