<svg id="Layer_1" data-name="Layer 1" xmlns="http://www.w3.org/2000/svg" viewBox="0 0 250 250"><defs><style>.cls-1{fill:#fff;}.cls-2{fill:none;}.cls-3{isolation:isolate;}.cls-4{fill:#4c4c4e;}.cls-5{fill:#dbdcde;}</style></defs><title>IP_sc4_healthBtn</title><rect class="cls-1" x="-429.84" y="-765.5" width="1108.4" height="1893.6"/><circle class="cls-1" cx="126.56" cy="125" r="125"/><rect class="cls-2" x="67.76" y="172.5" width="111.6" height="29.9"/><g class="cls-3"><path class="cls-4" d="M96.56,192.38V183.7H91v8.68H87.07V172.92H91v7.56h5.6v-7.56h4v19.46Z"/><path class="cls-4" d="M108,186.38v.11c0,2.21,1.09,3.47,3,3.47a5.6,5.6,0,0,0,3.64-1.43l1.46,2.24a8.22,8.22,0,0,1-5.4,2c-4.12,0-6.78-2.91-6.78-7.42,0-2.58.53-4.28,1.79-5.68a5.64,5.64,0,0,1,4.51-1.93,5.87,5.87,0,0,1,4.14,1.51c1.32,1.34,1.9,3.28,1.9,6.27v.87Zm4.4-2.91a3.69,3.69,0,0,0-.45-2.16,1.81,1.81,0,0,0-1.65-.84c-1.43,0-2.24,1.12-2.24,3.11v.06h4.34Z"/><path class="cls-4" d="M128.62,193.1a4,4,0,0,1-2-1.74,7,7,0,0,1-.87.76,5,5,0,0,1-2.88.78c-3.19,0-4.93-1.62-4.93-4.48,0-3.36,2.32-4.93,6.89-4.93.28,0,.53,0,.84,0v-.59c0-1.6-.31-2.13-1.68-2.13a7.91,7.91,0,0,0-4.14,1.62l-1.6-2.69a13.82,13.82,0,0,1,2.32-1.18,9.7,9.7,0,0,1,3.92-.84c2.41,0,4.06.9,4.62,2.49a6.63,6.63,0,0,1,.25,2.58l-.08,4.82c0,1.57.08,2.24,1.34,3.19Zm-3.19-7c-2.6,0-3.5.48-3.5,2.18a1.7,1.7,0,0,0,1.65,1.88,2.72,2.72,0,0,0,2-1l.06-3.08Z"/><path class="cls-4" d="M137,192.71a3.36,3.36,0,0,1-3.33-2,7.75,7.75,0,0,1-.34-3.22v-10.7a36.76,36.76,0,0,0-.2-4.31l3.84-.87a21.23,21.23,0,0,1,.2,3.72v11.17c0,2.46,0,2.8.25,3.19a.86.86,0,0,0,.76.39,1.25,1.25,0,0,0,.42-.06l.64,2.24A6.26,6.26,0,0,1,137,192.71Z"/><path class="cls-4" d="M145.45,192.71c-1.9,0-3.42-.84-3.86-2.1a5.25,5.25,0,0,1-.25-2.21v-7.78H139.9V178h1.43a24.87,24.87,0,0,1,.14-3.39l3.81-1a43.2,43.2,0,0,0-.22,4.34h3.36l-1,2.58h-2.41v7.2c0,1.82.34,2.3,1.62,2.3a4.9,4.9,0,0,0,1.34-.28l.48,2.24A7.88,7.88,0,0,1,145.45,192.71Z"/><path class="cls-4" d="M159.39,192.38v-9.63c0-1.43-.39-2-1.46-2a5,5,0,0,0-3,1.32v10.28h-3.81V175.8a15.14,15.14,0,0,0-.28-3.28l3.84-.9a19.3,19.3,0,0,1,.25,3.5V178c0,.45-.06,1-.06,1.2a6.27,6.27,0,0,1,4.06-1.54c1.82,0,3.28.78,3.72,2a6.7,6.7,0,0,1,.37,2.66v10Z"/></g><circle class="cls-5" cx="123.56" cy="95" r="60"/><path class="cls-1" d="M147.06,105.6h-45.5v-4.1h43.2a2.16,2.16,0,0,1,2.3,2.1Zm-45.9-10.2H109a1.37,1.37,0,0,1,1.4,1.4v1.7h-9.2Zm48.9,10.2v-2a5.06,5.06,0,0,0-5.2-5h-32.2V96.9a3.58,3.58,0,0,0-3.6-3.6h-8.2V88.7H95v33.9h5.9v-11h44.6v11h5.9V105.7h-1.3Z"/><polygon class="cls-1" points="134.96 88.6 140.16 88.6 140.16 85.1 144.16 85.1 144.16 79.6 140.16 79.6 140.16 75.6 134.96 75.6 134.96 79.6 131.16 79.6 131.16 85.1 134.96 85.1 134.96 88.6"/><path class="cls-1" d="M137.66,71.1a11,11,0,1,1-11,11,11,11,0,0,1,11-11m0,25.6a14.6,14.6,0,1,0-14.6-14.6,14.55,14.55,0,0,0,14.6,14.6"/></svg>