<svg id="Layer_1" data-name="Layer 1" xmlns="http://www.w3.org/2000/svg" viewBox="0 0 250 250"><defs><style>.cls-1{fill:#fff;}.cls-2{fill:none;}.cls-3{isolation:isolate;}.cls-4{fill:#4c4c4e;}.cls-5{fill:#dbdcde;}</style></defs><title>IP_sc4_socialBtn</title><rect class="cls-1" x="-431.4" y="-1034.5" width="1108.4" height="1893.6"/><circle class="cls-1" cx="125" cy="125" r="125"/><rect class="cls-2" x="22" y="173.7" width="200" height="33.7"/><g class="cls-3"><path class="cls-4" d="M44.88,194a13.91,13.91,0,0,1-6.64-1.76l1.46-3.05A11.05,11.05,0,0,0,45,190.75c2.24,0,3.42-.92,3.42-2.66,0-1.26-.81-2-2.55-2.52L43.76,185a5.9,5.9,0,0,1-3.84-2.46,5.62,5.62,0,0,1-.81-3c0-3.56,2.86-6,7-6a11.42,11.42,0,0,1,6.5,2l-1.85,2.8a8.39,8.39,0,0,0-4.54-1.48c-1.6,0-2.72.92-2.72,2.24,0,1,.53,1.51,2.16,2l2.35.64c3.19.87,4.93,2.91,4.93,5.8C52.91,191.4,49.72,194,44.88,194Z"/><path class="cls-4" d="M66.18,191.9a5.86,5.86,0,0,1-4.73,2c-3.89,0-6.44-2.91-6.44-7.42s2.58-7.5,6.44-7.5a6,6,0,0,1,4.87,2.16A7.45,7.45,0,0,1,68,186.36,7.78,7.78,0,0,1,66.18,191.9Zm-3.05-9.41a2.05,2.05,0,0,0-3.55.7,13.56,13.56,0,0,0,.08,6.8,2.07,2.07,0,0,0,1.9,1.18c1.62,0,2.32-1.46,2.32-4.84C63.89,184.4,63.64,183.14,63.13,182.49Z"/><path class="cls-4" d="M80.1,193a6.71,6.71,0,0,1-3.5.9c-3.95,0-6.24-2.74-6.24-7.39,0-3.3,1.26-5.49,2.94-6.64a6.79,6.79,0,0,1,3.56-1.06,6.12,6.12,0,0,1,2.77.64,6.32,6.32,0,0,1,1.4,1l-1.82,2.46a3.61,3.61,0,0,0-2.27-1.12c-1.68,0-2.44,1.46-2.44,4.82,0,1.88.25,3,.73,3.61a2.17,2.17,0,0,0,1.68.81,3.84,3.84,0,0,0,2.58-1.18l.22-.2L81.42,192A6,6,0,0,1,80.1,193Z"/><path class="cls-4" d="M85.81,177.62a2.31,2.31,0,0,1-2.3-2.32A2.34,2.34,0,0,1,85.87,173a2.29,2.29,0,0,1,2.27,2.32A2.32,2.32,0,0,1,85.81,177.62Zm-1.88,16V179.5l3.75-.59v14.67Z"/><path class="cls-4" d="M101.46,194.31a4,4,0,0,1-2-1.74,7,7,0,0,1-.87.76,5,5,0,0,1-2.88.78c-3.19,0-4.93-1.62-4.93-4.48,0-3.36,2.32-4.93,6.89-4.93.28,0,.53,0,.84,0v-.59c0-1.6-.31-2.13-1.68-2.13a7.9,7.9,0,0,0-4.14,1.62L91.08,181a13.82,13.82,0,0,1,2.32-1.18,9.7,9.7,0,0,1,3.92-.84c2.41,0,4.06.9,4.62,2.49a6.63,6.63,0,0,1,.25,2.58l-.08,4.82c0,1.57.08,2.24,1.34,3.19Zm-3.19-7c-2.6,0-3.5.48-3.5,2.18a1.7,1.7,0,0,0,1.65,1.88,2.72,2.72,0,0,0,2-1l.06-3.08Z"/><path class="cls-4" d="M109.81,193.92a3.36,3.36,0,0,1-3.33-2,7.76,7.76,0,0,1-.34-3.22V178a36.79,36.79,0,0,0-.2-4.31l3.84-.87a21.26,21.26,0,0,1,.2,3.72v11.17c0,2.46,0,2.8.25,3.19a.86.86,0,0,0,.76.39,1.25,1.25,0,0,0,.42-.06l.64,2.24A6.26,6.26,0,0,1,109.81,193.92Z"/><path class="cls-4" d="M128.54,193.58V184c0-1.43-.39-2-1.46-2a5,5,0,0,0-3,1.32v10.28h-3.81V177a15.16,15.16,0,0,0-.28-3.28l3.84-.9a19.31,19.31,0,0,1,.25,3.5v2.86c0,.45-.06,1-.06,1.2a6.28,6.28,0,0,1,4.06-1.54c1.82,0,3.28.78,3.72,2a6.72,6.72,0,0,1,.36,2.66v10Z"/><path class="cls-4" d="M146.6,191.9a5.86,5.86,0,0,1-4.73,2c-3.89,0-6.44-2.91-6.44-7.42s2.58-7.5,6.44-7.5a6,6,0,0,1,4.87,2.16,7.45,7.45,0,0,1,1.65,5.24A7.78,7.78,0,0,1,146.6,191.9Zm-3.05-9.41a2.05,2.05,0,0,0-3.56.7,13.59,13.59,0,0,0,.08,6.8,2.07,2.07,0,0,0,1.9,1.18c1.63,0,2.32-1.46,2.32-4.84C144.3,184.4,144.05,183.14,143.55,182.49Z"/><path class="cls-4" d="M160.91,194a3.28,3.28,0,0,1-1.12-1.4,5.36,5.36,0,0,1-3.78,1.37c-2,0-3.75-1-4.23-2.32a8.55,8.55,0,0,1-.31-2.86v-9.18l3.7-.7v9.21a5.67,5.67,0,0,0,.31,2.35,1.51,1.51,0,0,0,1.32.67,2.78,2.78,0,0,0,2.32-1.37V179.67l3.58-.76v10.95a4.17,4.17,0,0,0,.87,2.6Z"/><path class="cls-4" d="M171.29,194a12.75,12.75,0,0,1-5.8-1.65l1.34-2.74a10.46,10.46,0,0,0,4.76,1.62,1.76,1.76,0,0,0,1.9-1.62c0-1-.7-1.48-2.21-1.76l-1.68-.31a5.06,5.06,0,0,1-2.63-1.46,4.34,4.34,0,0,1-.81-2.58c0-2.8,2.21-4.68,5.54-4.68a10.76,10.76,0,0,1,5.13,1.34l-1.23,2.52a7.59,7.59,0,0,0-3.53-1c-1.09,0-1.82.56-1.82,1.4s.48,1.12,1.79,1.46l1.74.45a4.46,4.46,0,0,1,2.86,1.62,3.79,3.79,0,0,1,.79,2.44C177.43,192,175,194,171.29,194Z"/><path class="cls-4" d="M182.1,177.62a2.31,2.31,0,0,1-2.3-2.32,2.34,2.34,0,0,1,2.35-2.32,2.29,2.29,0,0,1,2.27,2.32A2.32,2.32,0,0,1,182.1,177.62Zm-1.88,16V179.5l3.75-.59v14.67Z"/><path class="cls-4" d="M195.79,193.58v-9.32c0-1.62-.28-2.1-1.26-2.1a4.37,4.37,0,0,0-2.6,1.29v10.14h-3.75V183.19a10.34,10.34,0,0,0-.5-3.36l3.33-1a3.66,3.66,0,0,1,.53,1.79,16.74,16.74,0,0,1,1.65-1.06,5.9,5.9,0,0,1,2.58-.62,3.56,3.56,0,0,1,3.44,2.07,5.77,5.77,0,0,1,.28,2v10.47Z"/><path class="cls-4" d="M215.25,181.88a7.91,7.91,0,0,1-1-.08,3.46,3.46,0,0,1,.84,2.35c0,2.46-2.24,4.26-5.29,4.26a4.53,4.53,0,0,1-.56,0c-1,.45-1.48.78-1.48,1.18,0,.2.22.34.62.34l2,0c2.18,0,3.33.36,4.34,1.29a3.91,3.91,0,0,1,1.23,3.05,4.07,4.07,0,0,1-1.15,3c-1.26,1.34-3.42,1.85-5.66,1.85-2,0-4.14-.34-5.43-1.54a3.37,3.37,0,0,1-1.18-2.55,2.87,2.87,0,0,1,.34-1.46h3.47a2,2,0,0,0-.17.92c0,1.15,1,1.76,2.69,1.76a4.53,4.53,0,0,0,2.35-.48,1.74,1.74,0,0,0,.92-1.46c0-1.29-1.15-1.68-2.63-1.71l-1.6,0a10.2,10.2,0,0,1-3.44-.45,1.82,1.82,0,0,1-1.09-1.88c0-.92.28-1.79,2.63-2.41a3.71,3.71,0,0,1-3.08-4c0-2.94,2.38-4.84,6-4.84a10.33,10.33,0,0,1,2.58.36,7.54,7.54,0,0,0,1.76.31,4.51,4.51,0,0,0,3-1.23l1.57,2.38A3.57,3.57,0,0,1,215.25,181.88Zm-6.27-.14a2,2,0,0,0-2.24,2.13c0,1.46.9,2,2.21,2,1.48,0,2.3-.73,2.3-2A2,2,0,0,0,209,181.74Z"/></g><circle class="cls-5" cx="122" cy="96.6" r="60"/><path class="cls-1" d="M159.5,119H84.6a1,1,0,0,0-1,1v1.6a1,1,0,0,0,1,1h74.9a1,1,0,0,0,1-1V120a1.08,1.08,0,0,0-1-1"/><path class="cls-1" d="M87.6,85.5a1,1,0,0,0,1.4.4l33.1-16.8,33.5,16.6a1.05,1.05,0,0,0,1.4-.5l.6-1.2a1.05,1.05,0,0,0-.5-1.4l-34.2-17c-.1,0-.2-.1-.3-.1a.92.92,0,0,0-1-.1L87.5,82.7a1.15,1.15,0,0,0-.5,1.4Z"/><path class="cls-1" d="M125.6,85.2a1,1,0,0,1-1,1h-5.1a1,1,0,0,1-1-1V80.1a1,1,0,0,1,1-1h5.1a1,1,0,0,1,1,1Zm-6.3,13.7a1,1,0,0,1-1,1h-6.1a1,1,0,0,1-1-1V92.8a1,1,0,0,1,1-1h6.1a1,1,0,0,1,1,1Zm0,10a1,1,0,0,1-1,1h-6.1a1,1,0,0,1-1-1v-6.1a1,1,0,0,1,1-1h6.1a1,1,0,0,1,1,1Zm-10.6-10a1,1,0,0,1-1,1h-6.1a1,1,0,0,1-1-1V92.8a1,1,0,0,1,1-1h6.1a1,1,0,0,1,1,1Zm0,10a1,1,0,0,1-1,1h-6.1a1,1,0,0,1-1-1v-6.1a1,1,0,0,1,1-1h6.1a1,1,0,0,1,1,1Zm35,8.2h8.6a1,1,0,0,0,1-1V88.6a1.86,1.86,0,0,0-.9-1.5L123,72.5a2.12,2.12,0,0,0-1.9,0L91.7,87.1a1.86,1.86,0,0,0-.9,1.5v27.5a1,1,0,0,0,1,1h35.1a1,1,0,0,0,1-1V92.9a1,1,0,0,1,1-1h12.6a1,1,0,0,1,1,1v23.2a1.29,1.29,0,0,0,1.2,1"/></svg>