<svg xmlns="http://www.w3.org/2000/svg" xmlns:xlink="http://www.w3.org/1999/xlink" viewBox="0 0 1080 236.5"><defs><style>.cls-1{fill:none;}.cls-2{fill:#fff;}.cls-3{fill:url(#linear-gradient);}.cls-4{clip-path:url(#clip-path);}.cls-5{fill:#39c6bc;}.cls-6{clip-path:url(#clip-path-2);}.cls-7{opacity:0.7;}.cls-8{fill:#f1f1f2;}.cls-9{fill:#d3d4d6;opacity:0.5;}.cls-10{fill:#4c4c4e;}.cls-11{fill:#dbdcde;}</style><linearGradient id="linear-gradient" x1="540" y1="172.69" x2="540" y2="146.03" gradientUnits="userSpaceOnUse"><stop offset="0.01" stop-color="#231f20" stop-opacity="0"/><stop offset="0.86" stop-color="#0f0d0d" stop-opacity="0.23"/><stop offset="1" stop-opacity="0.4"/></linearGradient><clipPath id="clip-path"><rect class="cls-1" width="1080" height="146.03"/></clipPath><clipPath id="clip-path-2"><rect class="cls-1" y="146.2" width="1080" height="381"/></clipPath></defs><title>IP_sc5_header_1</title><g id="Ui"><rect class="cls-2" y="146.03" width="1080" height="1589.98"/><rect class="cls-3" y="146.03" width="1080" height="26.66"/><g class="cls-4"><path class="cls-5" d="M1108.52,0H-18.37a10,10,0,0,0-10,10V146H1118.52V10A10,10,0,0,0,1108.52,0Z"/></g><path class="cls-2" d="M399,65.7a3,3,0,0,0-1.12,2.45,2.77,2.77,0,0,0,1.38,2.42,25.13,25.13,0,0,0,6.35,2.13,17.89,17.89,0,0,1,7.72,3.68q2.75,2.45,2.75,7.15a9.44,9.44,0,0,1-3.52,7.63,14.06,14.06,0,0,1-9.28,2.92,21.47,21.47,0,0,1-15-6.15l4.65-5.7q5.65,5,10.45,5a5.49,5.49,0,0,0,3.38-.92,3,3,0,0,0,1.22-2.5,2.91,2.91,0,0,0-1.3-2.5,17,17,0,0,0-5.15-1.87q-6.1-1.45-8.92-3.78t-2.83-7.3a9,9,0,0,1,3.58-7.67,14.38,14.38,0,0,1,8.92-2.7,21.46,21.46,0,0,1,7,1.2,18.77,18.77,0,0,1,6.1,3.4l-4,5.7a15.39,15.39,0,0,0-9.4-3.45A4.7,4.7,0,0,0,399,65.7Z"/><path class="cls-2" d="M422.73,58.73h7.8v35h-7.8Z"/><path class="cls-2" d="M463.2,61.85q3.68,3.13,3.67,9.6t-3.77,9.48q-3.78,3-11.53,3h-4.65v9.75h-7.8v-35h12.35Q459.53,58.73,463.2,61.85ZM457.48,75.6a6.72,6.72,0,0,0,1.4-4.6q0-3-1.83-4.3t-5.67-1.27h-4.45V77.18h5.25Q456.08,77.18,457.48,75.6Z"/><path class="cls-2" d="M510.25,61.85q3.68,3.13,3.67,9.6t-3.77,9.48q-3.78,3-11.53,3H494v9.75h-7.8v-35h12.35Q506.58,58.73,510.25,61.85ZM504.53,75.6a6.72,6.72,0,0,0,1.4-4.6q0-3-1.83-4.3t-5.67-1.27H494V77.18h5.25Q503.13,77.18,504.53,75.6Z"/><path class="cls-2" d="M533.43,73.38a5.68,5.68,0,0,0-5,2.38A10.79,10.79,0,0,0,526.78,82V93.68h-7.5V66.78h7.5v3.55a12.6,12.6,0,0,1,3.63-2.8,9.86,9.86,0,0,1,4.42-1.2l.05,7.05Z"/><path class="cls-2" d="M566.33,80.23a13.3,13.3,0,0,1-4,9.85,14.94,14.94,0,0,1-20.35,0,14,14,0,0,1,0-19.73,14.87,14.87,0,0,1,20.35,0A13.39,13.39,0,0,1,566.33,80.23Zm-20.9,0a7.71,7.71,0,0,0,1.88,5.38,6.59,6.59,0,0,0,9.6,0,7.71,7.71,0,0,0,1.88-5.37,7.8,7.8,0,0,0-1.87-5.4,6.54,6.54,0,0,0-9.6,0A7.8,7.8,0,0,0,545.43,80.23Z"/><path class="cls-2" d="M574.43,94.18V66.73h7.5V94.78a9,9,0,0,1-9.22,9.5,10.83,10.83,0,0,1-7.37-3.2l3.45-5.55a4.37,4.37,0,0,0,3.35,1.75,2.06,2.06,0,0,0,1.65-.77A3.56,3.56,0,0,0,574.43,94.18Zm.63-30.83a4.47,4.47,0,1,1,3.13,1.28A4.25,4.25,0,0,1,575.05,63.35Z"/><path class="cls-2" d="M612.33,89.78a15,15,0,0,1-10.67,4.3,14.16,14.16,0,0,1-10.12-3.77,13.26,13.26,0,0,1-4-10.12,13.06,13.06,0,0,1,4.08-10.1,13.74,13.74,0,0,1,9.63-3.75,13.92,13.92,0,0,1,9.42,3.35,11.52,11.52,0,0,1,3.88,9.2v4h-19.6a5.34,5.34,0,0,0,2.3,3.6,7.36,7.36,0,0,0,4.4,1.4,8.63,8.63,0,0,0,6.5-2.65Zm-7.2-16a5.68,5.68,0,0,0-3.78-1.3,6.76,6.76,0,0,0-4.08,1.35,5.16,5.16,0,0,0-2.15,3.65h11.8A5.33,5.33,0,0,0,605.13,73.83Z"/><path class="cls-2" d="M632.83,87.43q3.75,0,6.75-3.75l4.45,5q-5.2,5.4-11.25,5.4a14.58,14.58,0,0,1-10.23-3.82,12.93,12.93,0,0,1-4.17-10A13,13,0,0,1,622.6,70.2a14.34,14.34,0,0,1,10-3.87,15.62,15.62,0,0,1,5.88,1.2,14.86,14.86,0,0,1,5.22,3.55l-3.9,5.1a8.88,8.88,0,0,0-3.17-2.4,9,9,0,0,0-3.73-.85,7.3,7.3,0,0,0-5.08,1.92,6.85,6.85,0,0,0-2.12,5.35,6.77,6.77,0,0,0,2.13,5.33A7.23,7.23,0,0,0,632.83,87.43Z"/><path class="cls-2" d="M658,72.18v12a3.46,3.46,0,0,0,.8,2.43,2.49,2.49,0,0,0,1.9.88,4.33,4.33,0,0,0,3.55-1.9l2.8,5.25a10.83,10.83,0,0,1-7.37,3.2,9,9,0,0,1-9.22-9.5V72.18h-3.15v-5.4h3.15V58.73H658v8.05h6.5v5.4Z"/><path class="cls-2" d="M691.27,85.3a7.83,7.83,0,0,1-2.92,6.38,11.32,11.32,0,0,1-7.42,2.4A19.88,19.88,0,0,1,674.67,93a18.45,18.45,0,0,1-5.85-3.18l3.3-4.7a14.37,14.37,0,0,0,8.95,3.25,4.05,4.05,0,0,0,2.3-.58,1.76,1.76,0,0,0,.85-1.52A2.2,2.2,0,0,0,683,84.53a13.32,13.32,0,0,0-3.4-1.5q-2.23-.7-3.4-1.2a19,19,0,0,1-2.68-1.45,6.21,6.21,0,0,1-3-5.62,7.37,7.37,0,0,1,3-6.08,12.2,12.2,0,0,1,7.75-2.35,16.91,16.91,0,0,1,9.5,3.2l-2.8,5a12.28,12.28,0,0,0-7-2.4q-3.48,0-3.48,1.9a1.83,1.83,0,0,0,1.1,1.65,22.16,22.16,0,0,0,3.65,1.4q2.55.8,3.63,1.23a18.26,18.26,0,0,1,2.58,1.33Q691.27,81.33,691.27,85.3Z"/><g class="cls-6"><g class="cls-7"><rect class="cls-8" x="-21" y="152.83" width="1122" height="374.54"/></g><path class="cls-9" d="M1101.56,236.5v-78c0-6.59-4.5-12-10-12h-1102c-5.5,0-10,5.39-10,12v78Z"/><path class="cls-10" d="M241.45,192.31a5.05,5.05,0,0,0,1.06-2.9,3.21,3.21,0,0,0-.92-2.34,3.16,3.16,0,0,0-2.36-.94q-2.64,0-5,3.76l-5-3a15.5,15.5,0,0,1,4.3-4.6,10.54,10.54,0,0,1,6-1.56,9.6,9.6,0,0,1,6.36,2.3,7.74,7.74,0,0,1,2.74,6.26,8.41,8.41,0,0,1-1.1,4.14,27.06,27.06,0,0,1-4.06,5.06l-5,5.24h11v5.6H229.71v-4.64l8.2-8.4A35.71,35.71,0,0,0,241.45,192.31Z"/><path class="cls-10" d="M265.39,209.69q-5.8,0-8.68-3.94t-2.88-10.52q0-6.58,2.88-10.52t8.68-3.94q5.8,0,8.68,3.94t2.88,10.52q0,6.58-2.88,10.52T265.39,209.69Zm-4.12-21.2a18,18,0,0,0,0,13.52,4.6,4.6,0,0,0,8.24,0,18,18,0,0,0,0-13.52,4.6,4.6,0,0,0-8.24,0Z"/><path class="cls-10" d="M280.43,181.41h11.32v28h-6V186.73h-5.32Z"/><path class="cls-10" d="M297.19,190.37v-9h20.2v4.72l-11.32,23.24h-6.8l10.8-22.6h-7v3.6Z"/><path class="cls-10" d="M321.43,200.77v-3.88h15.8v3.88Z"/><path class="cls-10" d="M341.43,181.41h11.32v28h-6V186.73h-5.32Z"/><path class="cls-10" d="M362.21,183a12,12,0,0,1,13.86,0,6.69,6.69,0,0,1,2.76,5.42,7.33,7.33,0,0,1-2.48,5.54,8.46,8.46,0,0,1,3.48,7,7.83,7.83,0,0,1-3,6.2,13.08,13.08,0,0,1-15.44,0,7.83,7.83,0,0,1-3-6.2,8.46,8.46,0,0,1,3.48-7,7.38,7.38,0,0,1-2.52-5.56A6.65,6.65,0,0,1,362.21,183Zm3.9,20.58a5.39,5.39,0,0,0,6.08,0,3.09,3.09,0,0,0,1.4-2.74,3.17,3.17,0,0,0-1.36-2.76,5.42,5.42,0,0,0-6.16,0,3.17,3.17,0,0,0-1.36,2.76A3.09,3.09,0,0,0,366.11,203.55Zm.38-12.22a4.17,4.17,0,0,0,5.32,0,3.07,3.07,0,0,0,0-4.76,4.22,4.22,0,0,0-5.36,0,3.07,3.07,0,0,0,0,4.76Z"/><path class="cls-10" d="M417.34,185.07q4,3.66,4,10.18t-3.9,10.32q-3.9,3.8-11.9,3.8H396v-28h9.88Q413.34,181.41,417.34,185.07Zm-4.58,16.62a8.2,8.2,0,0,0,2.3-6.28,8.4,8.4,0,0,0-2.3-6.34q-2.3-2.22-7.06-2.22h-3.48v17h4Q410.46,203.85,412.76,201.69Z"/><path class="cls-10" d="M446.9,181.41V187H433v5.76H445.5v5.32H433v5.8h14.36v5.52h-20.6v-28Z"/><path class="cls-10" d="M452.9,209.37v-28h6.24v22.4h11.92v5.56Z"/><path class="cls-10" d="M475.62,181.41h6.24v28h-6.24Z"/><path class="cls-10" d="M499.06,199.21l7.12-17.8h6.76l-11.24,28h-5.28l-11.24-28h6.76Z"/><path class="cls-10" d="M536.42,181.41V187H522.5v5.76H535v5.32H522.5v5.8h14.36v5.52h-20.6v-28Z"/><path class="cls-10" d="M565.1,190.69q0,6.72-5.32,8.68l7.08,10h-7.68l-6.2-8.92h-4.32v8.92h-6.24v-28H553q6.52,0,9.3,2.2T565.1,190.69ZM557.58,194a4.22,4.22,0,0,0,1.16-3.3,3.53,3.53,0,0,0-1.2-3.1,7.68,7.68,0,0,0-4.2-.84h-4.68v8.28h4.56Q556.42,195.05,557.58,194Z"/><path class="cls-10" d="M582.82,209.37h-6.24v-11l-9.68-16.92h6.76l6,10.4,6-10.4h6.76l-9.68,16.92Z"/><path class="cls-10" d="M623.42,181.41h6.24v28h-6.24v-11H612.3v11h-6.24v-28h6.24v11.68h11.12Z"/><path class="cls-10" d="M636.54,181.41h6.24v28h-6.24Z"/><path class="cls-10" d="M667.82,195.13h6.28v9.92q-4.16,4.64-11.52,4.64a14.23,14.23,0,0,1-10.34-4.08,14.78,14.78,0,0,1,.08-20.68,14.18,14.18,0,0,1,10.28-4.16,15.21,15.21,0,0,1,10.46,4l-3.24,4.68a12.36,12.36,0,0,0-3.46-2.26,9.29,9.29,0,0,0-3.42-.62,8.19,8.19,0,0,0-6,2.42,9.66,9.66,0,0,0-.1,12.72,7.55,7.55,0,0,0,5.58,2.38,10.71,10.71,0,0,0,5.4-1.24Z"/><path class="cls-10" d="M697,181.41h6.24v28H697v-11H685.9v11h-6.24v-28h6.24v11.68H697Z"/><path class="cls-10" d="M710.14,209.37v-28h6.24v22.4H728.3v5.56Z"/><path class="cls-10" d="M732.86,181.41h6.24v28h-6.24Z"/><path class="cls-10" d="M764.14,195.13h6.28v9.92q-4.16,4.64-11.52,4.64a14.23,14.23,0,0,1-10.34-4.08,14.78,14.78,0,0,1,.08-20.68,14.18,14.18,0,0,1,10.28-4.16,15.21,15.21,0,0,1,10.46,4l-3.24,4.68a12.36,12.36,0,0,0-3.46-2.26,9.29,9.29,0,0,0-3.42-.62,8.19,8.19,0,0,0-6,2.42,9.66,9.66,0,0,0-.1,12.72,7.55,7.55,0,0,0,5.58,2.38,10.71,10.71,0,0,0,5.4-1.24Z"/><path class="cls-10" d="M793.34,181.41h6.24v28h-6.24v-11H782.22v11H776v-28h6.24v11.68h11.12Z"/><path class="cls-10" d="M818.3,186.81v22.56h-6.24V186.81h-7.92v-5.4h22.08v5.4Z"/><path class="cls-10" d="M837.08,187a2.41,2.41,0,0,0-.9,2,2.21,2.21,0,0,0,1.1,1.94,20.11,20.11,0,0,0,5.08,1.7,14.31,14.31,0,0,1,6.18,2.94,7.26,7.26,0,0,1,2.2,5.72,7.55,7.55,0,0,1-2.82,6.1,11.24,11.24,0,0,1-7.42,2.34,17.17,17.17,0,0,1-12-4.92l3.72-4.56q4.52,4,8.36,4a4.39,4.39,0,0,0,2.7-.74,2.38,2.38,0,0,0,1-2,2.33,2.33,0,0,0-1-2,13.59,13.59,0,0,0-4.12-1.5,17.9,17.9,0,0,1-7.14-3q-2.26-1.86-2.26-5.84a7.24,7.24,0,0,1,2.86-6.14,11.51,11.51,0,0,1,7.14-2.16,17.19,17.19,0,0,1,5.6,1,15,15,0,0,1,4.88,2.72L847.06,189a12.31,12.31,0,0,0-7.52-2.76A3.76,3.76,0,0,0,837.08,187Z"/></g></g><g id="Status_Bar" data-name="Status Bar"><rect class="cls-11" y="-131.97" width="1080" height="132"/></g></svg>