<svg xmlns="http://www.w3.org/2000/svg" viewBox="0 0 851 137.6"><defs><style>.cls-1{fill:#58595b;}</style></defs><title>IP_sc2_subText3</title><g id="Layer_2" data-name="Layer 2"><g id="Ui"><path class="cls-1" d="M19.21,27V5h3.14V27Z" transform="translate(-8.3 -3.47)"/><path class="cls-1" d="M37.13,27V16.21c0-1.44-.13-2-.51-2.46A2,2,0,0,0,35,13.1a6.47,6.47,0,0,0-4,2V27H28.11V15.09a8.75,8.75,0,0,0-.61-3.81l2.78-.77A5.09,5.09,0,0,1,30.83,13a13.78,13.78,0,0,1,2.08-1.57,5.94,5.94,0,0,1,3-.8,4,4,0,0,1,3.78,2.27,5,5,0,0,1,.38,2V27Z" transform="translate(-8.3 -3.47)"/><path class="cls-1" d="M53,6.45a4.58,4.58,0,0,0-2.08-.61c-1.34,0-2.14.93-2.14,2.56V11H53l-.77,2.08H48.78V27h-3v-14H44.27V11h1.57c-.06-.32-.06-2.3-.06-2.56a4.61,4.61,0,0,1,1.79-4,4.88,4.88,0,0,1,2.91-.77A6.56,6.56,0,0,1,54,4.53Z" transform="translate(-8.3 -3.47)"/><path class="cls-1" d="M62.67,13.58a2.4,2.4,0,0,0-.83-.16,3.35,3.35,0,0,0-3.33,3.26V27H55.56V15.25a10.24,10.24,0,0,0-.61-4l2.85-.74A6.63,6.63,0,0,1,58.35,13v.29c1.28-1.86,2.66-2.78,4.35-2.78a2.92,2.92,0,0,1,1,.16Z" transform="translate(-8.3 -3.47)"/><path class="cls-1" d="M77.16,27.7A3.66,3.66,0,0,1,75,25.39a5.57,5.57,0,0,1-4.54,2.11c-3.2,0-5.18-1.63-5.18-4.7,0-3.71,3-5.7,8.16-5.7.38,0,.7,0,1.12,0V16.08c0-1.89-.26-3.17-2.5-3.17a8.85,8.85,0,0,0-4.93,1.82L65.8,12.63a12.62,12.62,0,0,1,6.72-2.11c2.34,0,4,.86,4.64,2.56a7.31,7.31,0,0,1,.32,2.82c0,1.15-.13,3.62-.13,6s.06,3.1,1.31,3.87Zm-3.62-8.61c-2.21,0-3.55.42-4.19,1.15a3.09,3.09,0,0,0-.83,2.34c0,1.76.9,2.78,2.53,2.78a4,4,0,0,0,3.36-2.11l.1-4.1C74.06,19.12,73.8,19.09,73.55,19.09Z" transform="translate(-8.3 -3.47)"/><path class="cls-1" d="M87.56,27.47a12.21,12.21,0,0,1-6-1.7l1.06-2.11a10.93,10.93,0,0,0,5.15,1.6c1.76,0,3-1,3-2.59,0-1.38-.83-2.18-2.69-2.53l-2-.38c-2.53-.51-3.9-2.08-3.9-4.45,0-2.94,2.34-5,5.79-5a10.19,10.19,0,0,1,5.06,1.31l-1,2.08a8.67,8.67,0,0,0-3.94-1.15c-1.7,0-2.78,1-2.78,2.4,0,1.15.58,1.79,2.27,2.18l2.08.48c2.94.67,4.16,2.37,4.16,4.48C93.87,25.3,91.31,27.47,87.56,27.47Z" transform="translate(-8.3 -3.47)"/><path class="cls-1" d="M104.23,13.07h-3.17v9.66c0,2,.48,2.59,2.08,2.59a3.54,3.54,0,0,0,1.5-.32L105,26.8a6.38,6.38,0,0,1-2.91.67,4.57,4.57,0,0,1-2.82-.86c-.64-.58-1.09-1-1.09-3.2V13.07H96.27V11h1.92a34.73,34.73,0,0,1,.19-4.1l3-.7c-.13,1.15-.29,3.17-.29,4.8H105Z" transform="translate(-8.3 -3.47)"/><path class="cls-1" d="M115.5,13.58a2.4,2.4,0,0,0-.83-.16,3.35,3.35,0,0,0-3.33,3.26V27h-2.94V15.25a10.24,10.24,0,0,0-.61-4l2.85-.74a6.63,6.63,0,0,1,.54,2.46v.29c1.28-1.86,2.66-2.78,4.35-2.78a2.92,2.92,0,0,1,1,.16Z" transform="translate(-8.3 -3.47)"/><path class="cls-1" d="M130.44,27.57a3.78,3.78,0,0,1-1.5-2.3,5.88,5.88,0,0,1-4.83,2.3,4.51,4.51,0,0,1-4.32-2.4,6.82,6.82,0,0,1-.38-2.69V11.09l2.91-.58V21.68c0,1.63.16,2.27.74,2.82a2.93,2.93,0,0,0,1.86.7,4.41,4.41,0,0,0,3.65-2.53V11.15l2.91-.58V22.64c0,1.63.35,2.78,1,3.33Z" transform="translate(-8.3 -3.47)"/><path class="cls-1" d="M143,27.34a5.87,5.87,0,0,1-5.15-2.4,9.69,9.69,0,0,1-1.54-5.79c0-3.62,1.15-5.7,2.69-7.07a6.27,6.27,0,0,1,8.51.06l-1.54,2a3.91,3.91,0,0,0-2.82-1.25,3.08,3.08,0,0,0-2.82,1.73,11.38,11.38,0,0,0-.77,4.9c0,2.24.45,3.71,1.28,4.61a3.11,3.11,0,0,0,2.3,1,4.49,4.49,0,0,0,3.33-1.66l1.44,1.82A6.31,6.31,0,0,1,143,27.34Z" transform="translate(-8.3 -3.47)"/><path class="cls-1" d="M158.09,13.07h-3.17v9.66c0,2,.48,2.59,2.08,2.59a3.54,3.54,0,0,0,1.5-.32l.35,1.79a6.38,6.38,0,0,1-2.91.67,4.57,4.57,0,0,1-2.82-.86c-.64-.58-1.09-1-1.09-3.2V13.07h-1.92V11H152a34.73,34.73,0,0,1,.19-4.1l3-.7c-.13,1.15-.29,3.17-.29,4.8h3.9Z" transform="translate(-8.3 -3.47)"/><path class="cls-1" d="M173.13,27.57a3.78,3.78,0,0,1-1.5-2.3,5.88,5.88,0,0,1-4.83,2.3,4.51,4.51,0,0,1-4.32-2.4,6.82,6.82,0,0,1-.38-2.69V11.09l2.91-.58V21.68c0,1.63.16,2.27.74,2.82a2.93,2.93,0,0,0,1.86.7,4.41,4.41,0,0,0,3.65-2.53V11.15l2.91-.58V22.64c0,1.63.35,2.78,1,3.33Z" transform="translate(-8.3 -3.47)"/><path class="cls-1" d="M186.7,13.58a2.4,2.4,0,0,0-.83-.16,3.35,3.35,0,0,0-3.33,3.26V27h-2.94V15.25a10.24,10.24,0,0,0-.61-4l2.85-.74a6.63,6.63,0,0,1,.54,2.46v.29c1.28-1.86,2.66-2.78,4.35-2.78a2.92,2.92,0,0,1,1,.16Z" transform="translate(-8.3 -3.47)"/><path class="cls-1" d="M192.68,19.63V20a6,6,0,0,0,.67,3.2A4.18,4.18,0,0,0,197,25.1,5.7,5.7,0,0,0,201,23.57l1.12,1.76a8.19,8.19,0,0,1-5.54,2c-4.45,0-7.17-3.23-7.17-8.48,0-2.78.54-4.58,1.92-6.21a6,6,0,0,1,4.83-2.21,5.78,5.78,0,0,1,4.35,1.73c1.41,1.44,1.92,3.23,2,6.91v.51Zm5.7-5.79a2.88,2.88,0,0,0-2.3-1.12c-2.24,0-3.36,1.82-3.36,4.74h6.66A5.86,5.86,0,0,0,198.38,13.84Z" transform="translate(-8.3 -3.47)"/><path class="cls-1" d="M215.63,8.18a2.08,2.08,0,0,1-2-2.11,2.1,2.1,0,1,1,4.19,0A2.14,2.14,0,0,1,215.63,8.18ZM214.12,27V11.09l3-.48V27Z" transform="translate(-8.3 -3.47)"/><path class="cls-1" d="M231.95,27V16.21c0-1.44-.13-2-.51-2.46a2,2,0,0,0-1.63-.64,6.47,6.47,0,0,0-4,2V27h-2.91V15.09a8.75,8.75,0,0,0-.61-3.81l2.78-.77a5.09,5.09,0,0,1,.54,2.46,13.81,13.81,0,0,1,2.08-1.57,5.94,5.94,0,0,1,3-.8,4,4,0,0,1,3.78,2.27,5,5,0,0,1,.38,2V27Z" transform="translate(-8.3 -3.47)"/><path class="cls-1" d="M242.12,8.18a2.08,2.08,0,0,1-2-2.11,2.1,2.1,0,1,1,4.19,0A2.14,2.14,0,0,1,242.12,8.18ZM240.62,27V11.09l3-.48V27Z" transform="translate(-8.3 -3.47)"/><path class="cls-1" d="M255.46,13.07H252.3v9.66c0,2,.48,2.59,2.08,2.59a3.54,3.54,0,0,0,1.5-.32l.35,1.79a6.38,6.38,0,0,1-2.91.67,4.57,4.57,0,0,1-2.82-.86c-.64-.58-1.09-1-1.09-3.2V13.07H247.5V11h1.92a34.73,34.73,0,0,1,.19-4.1l3-.7c-.13,1.15-.29,3.17-.29,4.8h3.9Z" transform="translate(-8.3 -3.47)"/><path class="cls-1" d="M261.45,8.18a2.08,2.08,0,0,1-2-2.11,2.1,2.1,0,1,1,4.19,0A2.14,2.14,0,0,1,261.45,8.18ZM259.95,27V11.09l3-.48V27Z" transform="translate(-8.3 -3.47)"/><path class="cls-1" d="M279.34,27.7a3.66,3.66,0,0,1-2.14-2.3,5.57,5.57,0,0,1-4.54,2.11c-3.2,0-5.18-1.63-5.18-4.7,0-3.71,3-5.7,8.16-5.7.38,0,.7,0,1.12,0V16.08c0-1.89-.26-3.17-2.5-3.17a8.85,8.85,0,0,0-4.93,1.82L268,12.63a12.62,12.62,0,0,1,6.72-2.11c2.34,0,4,.86,4.64,2.56a7.31,7.31,0,0,1,.32,2.82c0,1.15-.13,3.62-.13,6s.06,3.1,1.31,3.87Zm-3.62-8.61c-2.21,0-3.55.42-4.19,1.15a3.09,3.09,0,0,0-.83,2.34c0,1.76.9,2.78,2.53,2.78a4,4,0,0,0,3.36-2.11l.1-4.1C276.23,19.12,276,19.09,275.72,19.09Z" transform="translate(-8.3 -3.47)"/><path class="cls-1" d="M291.4,13.07h-3.17v9.66c0,2,.48,2.59,2.08,2.59a3.54,3.54,0,0,0,1.5-.32l.35,1.79a6.38,6.38,0,0,1-2.91.67,4.57,4.57,0,0,1-2.82-.86c-.64-.58-1.09-1-1.09-3.2V13.07h-1.92V11h1.92a34.73,34.73,0,0,1,.19-4.1l3-.7c-.13,1.15-.29,3.17-.29,4.8h3.9Z" transform="translate(-8.3 -3.47)"/><path class="cls-1" d="M297.38,8.18a2.08,2.08,0,0,1-2-2.11,2.1,2.1,0,1,1,4.19,0A2.14,2.14,0,0,1,297.38,8.18ZM295.88,27V11.09l3-.48V27Z" transform="translate(-8.3 -3.47)"/><path class="cls-1" d="M310.28,27.15h-2.75L301.8,11.06l3-.48,3.17,9.7c.35,1.09.7,2.37,1,3.46H309a28.68,28.68,0,0,1,1-3.52L313,11h3.1Z" transform="translate(-8.3 -3.47)"/><path class="cls-1" d="M321.26,19.63V20a6,6,0,0,0,.67,3.2,4.18,4.18,0,0,0,3.68,1.89,5.7,5.7,0,0,0,3.94-1.54l1.12,1.76a8.19,8.19,0,0,1-5.54,2c-4.45,0-7.17-3.23-7.17-8.48,0-2.78.54-4.58,1.92-6.21a6,6,0,0,1,4.83-2.21,5.78,5.78,0,0,1,4.35,1.73c1.41,1.44,1.92,3.23,2,6.91v.51Zm5.7-5.79a2.88,2.88,0,0,0-2.3-1.12c-2.24,0-3.36,1.82-3.36,4.74h6.66A5.86,5.86,0,0,0,327,13.84Z" transform="translate(-8.3 -3.47)"/><path class="cls-1" d="M340,27.47a12.21,12.21,0,0,1-6-1.7l1.06-2.11a10.93,10.93,0,0,0,5.15,1.6c1.76,0,3-1,3-2.59,0-1.38-.83-2.18-2.69-2.53l-2-.38c-2.53-.51-3.9-2.08-3.9-4.45,0-2.94,2.34-5,5.79-5a10.19,10.19,0,0,1,5.06,1.31l-1,2.08a8.67,8.67,0,0,0-3.94-1.15c-1.7,0-2.78,1-2.78,2.4,0,1.15.58,1.79,2.27,2.18l2.08.48c2.94.67,4.16,2.37,4.16,4.48C346.34,25.3,343.78,27.47,340,27.47Z" transform="translate(-8.3 -3.47)"/><path class="cls-1" d="M368.46,27.7a3.66,3.66,0,0,1-2.14-2.3,5.57,5.57,0,0,1-4.54,2.11c-3.2,0-5.18-1.63-5.18-4.7,0-3.71,3-5.7,8.16-5.7.38,0,.7,0,1.12,0V16.08c0-1.89-.26-3.17-2.5-3.17a8.85,8.85,0,0,0-4.93,1.82l-1.34-2.11a12.62,12.62,0,0,1,6.72-2.11c2.34,0,4,.86,4.64,2.56a7.31,7.31,0,0,1,.32,2.82c0,1.15-.13,3.62-.13,6s.06,3.1,1.31,3.87Zm-3.62-8.61c-2.21,0-3.55.42-4.19,1.15a3.09,3.09,0,0,0-.83,2.34c0,1.76.9,2.78,2.53,2.78a4,4,0,0,0,3.36-2.11l.1-4.1C365.35,19.12,365.1,19.09,364.84,19.09Z" transform="translate(-8.3 -3.47)"/><path class="cls-1" d="M381.58,13.58a2.4,2.4,0,0,0-.83-.16,3.35,3.35,0,0,0-3.33,3.26V27h-2.94V15.25a10.24,10.24,0,0,0-.61-4l2.85-.74a6.63,6.63,0,0,1,.54,2.46v.29c1.28-1.86,2.66-2.78,4.35-2.78a2.92,2.92,0,0,1,1,.16Z" transform="translate(-8.3 -3.47)"/><path class="cls-1" d="M387.56,19.63V20a6,6,0,0,0,.67,3.2,4.18,4.18,0,0,0,3.68,1.89,5.7,5.7,0,0,0,3.94-1.54L397,25.33a8.19,8.19,0,0,1-5.54,2c-4.45,0-7.17-3.23-7.17-8.48,0-2.78.54-4.58,1.92-6.21A6,6,0,0,1,391,10.48a5.78,5.78,0,0,1,4.35,1.73c1.41,1.44,1.92,3.23,2,6.91v.51Zm5.7-5.79a2.88,2.88,0,0,0-2.3-1.12c-2.24,0-3.36,1.82-3.36,4.74h6.66A5.86,5.86,0,0,0,393.26,13.84Z" transform="translate(-8.3 -3.47)"/><path class="cls-1" d="M419,27a6.24,6.24,0,0,1-.29-1.5,5.35,5.35,0,0,1-4.13,1.76c-4.1,0-6.5-3.07-6.5-8.13,0-3.46,1.18-6.11,3.36-7.52a5.53,5.53,0,0,1,3.14-.93,4.78,4.78,0,0,1,3.9,1.86c0-.45-.06-1.73-.06-2.82V3.51l2.94.48V21.65a19.2,19.2,0,0,0,.45,5.38Zm-.61-12.45a4.11,4.11,0,0,0-3.39-1.5,3.14,3.14,0,0,0-2.78,1.63,8.52,8.52,0,0,0-.83,4.42c0,3.1.38,4,1.25,4.86a3,3,0,0,0,2.37.83A3.8,3.8,0,0,0,418.34,23Z" transform="translate(-8.3 -3.47)"/><path class="cls-1" d="M429.42,19.63V20a6,6,0,0,0,.67,3.2,4.18,4.18,0,0,0,3.68,1.89,5.7,5.7,0,0,0,3.94-1.54l1.12,1.76a8.18,8.18,0,0,1-5.54,2c-4.45,0-7.17-3.23-7.17-8.48,0-2.78.54-4.58,1.92-6.21a6,6,0,0,1,4.83-2.21,5.78,5.78,0,0,1,4.35,1.73c1.41,1.44,1.92,3.23,2,6.91v.51Zm5.7-5.79a2.88,2.88,0,0,0-2.3-1.12c-2.24,0-3.36,1.82-3.36,4.74h6.66A5.86,5.86,0,0,0,435.11,13.84Z" transform="translate(-8.3 -3.47)"/><path class="cls-1" d="M449.38,27.34a5.88,5.88,0,0,1-5.15-2.4,9.7,9.7,0,0,1-1.54-5.79c0-3.62,1.15-5.7,2.69-7.07a6.27,6.27,0,0,1,8.51.06l-1.54,2a3.91,3.91,0,0,0-2.82-1.25,3.09,3.09,0,0,0-2.82,1.73,11.4,11.4,0,0,0-.77,4.9c0,2.24.45,3.71,1.28,4.61a3.11,3.11,0,0,0,2.3,1,4.49,4.49,0,0,0,3.33-1.66l1.44,1.82A6.31,6.31,0,0,1,449.38,27.34Z" transform="translate(-8.3 -3.47)"/><path class="cls-1" d="M459.66,8.18a2.08,2.08,0,0,1-2-2.11,2.1,2.1,0,1,1,4.19,0A2.14,2.14,0,0,1,459.66,8.18ZM458.15,27V11.09l3-.48V27Z" transform="translate(-8.3 -3.47)"/><path class="cls-1" d="M476.9,27a6.26,6.26,0,0,1-.29-1.5,5.35,5.35,0,0,1-4.13,1.76c-4.1,0-6.5-3.07-6.5-8.13,0-3.46,1.18-6.11,3.36-7.52a5.53,5.53,0,0,1,3.13-.93,4.78,4.78,0,0,1,3.9,1.86c0-.45-.06-1.73-.06-2.82V3.51l2.94.48V21.65a19.17,19.17,0,0,0,.45,5.38Zm-.61-12.45a4.11,4.11,0,0,0-3.39-1.5,3.14,3.14,0,0,0-2.78,1.63,8.51,8.51,0,0,0-.83,4.42c0,3.1.38,4,1.25,4.86a3,3,0,0,0,2.37.83A3.8,3.8,0,0,0,476.29,23Z" transform="translate(-8.3 -3.47)"/><path class="cls-1" d="M487.37,19.63V20a6,6,0,0,0,.67,3.2,4.18,4.18,0,0,0,3.68,1.89,5.7,5.7,0,0,0,3.94-1.54l1.12,1.76a8.18,8.18,0,0,1-5.54,2c-4.45,0-7.17-3.23-7.17-8.48,0-2.78.54-4.58,1.92-6.21a6,6,0,0,1,4.83-2.21,5.78,5.78,0,0,1,4.35,1.73c1.41,1.44,1.92,3.23,2,6.91v.51Zm5.7-5.79a2.88,2.88,0,0,0-2.3-1.12c-2.24,0-3.36,1.82-3.36,4.74h6.66A5.86,5.86,0,0,0,493.06,13.84Z" transform="translate(-8.3 -3.47)"/><path class="cls-1" d="M511.56,27a6.22,6.22,0,0,1-.29-1.5,5.35,5.35,0,0,1-4.13,1.76c-4.1,0-6.5-3.07-6.5-8.13,0-3.46,1.18-6.11,3.36-7.52a5.54,5.54,0,0,1,3.14-.93,4.78,4.78,0,0,1,3.9,1.86c0-.45-.06-1.73-.06-2.82V3.51l2.94.48V21.65a19.23,19.23,0,0,0,.45,5.38Zm-.61-12.45a4.1,4.1,0,0,0-3.39-1.5,3.14,3.14,0,0,0-2.79,1.63,8.52,8.52,0,0,0-.83,4.42c0,3.1.38,4,1.25,4.86a3,3,0,0,0,2.37.83A3.8,3.8,0,0,0,510.95,23Z" transform="translate(-8.3 -3.47)"/><path class="cls-1" d="M537.45,27.57a3.77,3.77,0,0,1-1.5-2.3,5.88,5.88,0,0,1-4.83,2.3,4.51,4.51,0,0,1-4.32-2.4,6.83,6.83,0,0,1-.38-2.69V11.09l2.91-.58V21.68c0,1.63.16,2.27.74,2.82a2.93,2.93,0,0,0,1.86.7,4.41,4.41,0,0,0,3.65-2.53V11.15l2.91-.58V22.64c0,1.63.35,2.78,1,3.33Z" transform="translate(-8.3 -3.47)"/><path class="cls-1" d="M550.88,27.34a6.16,6.16,0,0,1-4.16-1.66,16.31,16.31,0,0,1,.06,1.79V33.1l-2.88.67V14.93a17,17,0,0,0-.35-3.94l2.85-.48a8.3,8.3,0,0,1,.19,2.3,5.81,5.81,0,0,1,4.54-2.24c3.26,0,6,2.66,6,8.16C557.16,23.73,555,27.34,550.88,27.34Zm-.26-14.27a5,5,0,0,0-3.84,2v8.16A5,5,0,0,0,550.21,25c2.59,0,3.78-2,3.78-5.89S553.16,13.07,550.63,13.07Z" transform="translate(-8.3 -3.47)"/><path class="cls-1" d="M567.78,27.47c-4.29,0-6.94-3.26-6.94-8.48s2.66-8.45,6.88-8.45c4.74,0,7,3.78,7,8.61C574.76,24.24,572,27.47,567.78,27.47Zm-.06-14.65c-2.56,0-3.62,1.82-3.62,5.86,0,4.9,1.25,6.53,3.74,6.53,2.24,0,3.62-1.73,3.62-5.92C571.46,14.32,570,12.82,567.72,12.82Z" transform="translate(-8.3 -3.47)"/><path class="cls-1" d="M588.42,27V16.21c0-1.44-.13-2-.51-2.46a2,2,0,0,0-1.63-.64,6.47,6.47,0,0,0-4,2V27H579.4V15.09a8.74,8.74,0,0,0-.61-3.81l2.78-.77a5.09,5.09,0,0,1,.54,2.46,13.76,13.76,0,0,1,2.08-1.57,5.94,5.94,0,0,1,3-.8,4,4,0,0,1,3.78,2.27,5,5,0,0,1,.38,2V27Z" transform="translate(-8.3 -3.47)"/><path class="cls-1" d="M615.17,27.57a3.78,3.78,0,0,1-1.5-2.3,5.88,5.88,0,0,1-4.83,2.3,4.51,4.51,0,0,1-4.32-2.4,6.8,6.8,0,0,1-.38-2.69V11.09l2.91-.58V21.68c0,1.63.16,2.27.74,2.82a2.93,2.93,0,0,0,1.86.7,4.41,4.41,0,0,0,3.65-2.53V11.15l2.91-.58V22.64c0,1.63.35,2.78,1,3.33Z" transform="translate(-8.3 -3.47)"/><path class="cls-1" d="M626.5,27.47a12.21,12.21,0,0,1-6-1.7l1.05-2.11a10.94,10.94,0,0,0,5.15,1.6c1.76,0,3-1,3-2.59,0-1.38-.83-2.18-2.69-2.53l-2-.38c-2.53-.51-3.9-2.08-3.9-4.45,0-2.94,2.34-5,5.79-5A10.2,10.2,0,0,1,632,11.63l-1,2.08a8.67,8.67,0,0,0-3.94-1.15c-1.7,0-2.78,1-2.78,2.4,0,1.15.58,1.79,2.27,2.18l2.08.48c2.94.67,4.16,2.37,4.16,4.48C632.8,25.3,630.24,27.47,626.5,27.47Z" transform="translate(-8.3 -3.47)"/><path class="cls-1" d="M638.47,8.18a2.08,2.08,0,0,1-2-2.11,2.1,2.1,0,1,1,4.19,0A2.14,2.14,0,0,1,638.47,8.18ZM637,27V11.09l3-.48V27Z" transform="translate(-8.3 -3.47)"/><path class="cls-1" d="M654.79,27V16.21c0-1.44-.13-2-.51-2.46a2,2,0,0,0-1.63-.64,6.47,6.47,0,0,0-4,2V27h-2.91V15.09a8.74,8.74,0,0,0-.61-3.81l2.78-.77a5.09,5.09,0,0,1,.54,2.46,13.76,13.76,0,0,1,2.08-1.57,5.94,5.94,0,0,1,3-.8,4,4,0,0,1,3.78,2.27,5,5,0,0,1,.38,2V27Z" transform="translate(-8.3 -3.47)"/><path class="cls-1" d="M675.24,13.27a3.81,3.81,0,0,1-1.38-.26A4.48,4.48,0,0,1,675,16c0,2.3-1.57,5-5.76,5-1,.32-2.53,1.06-2.53,1.76,0,.48.38.8,1.15.8h2.46c4.1,0,5.79,1.92,5.79,4.42,0,3.46-2.85,5.18-6.75,5.18-4.48,0-7-1.57-7-4.22a4.8,4.8,0,0,1,.29-1.63l2.88-.16a3.1,3.1,0,0,0-.29,1.22c0,1.66,1.38,2.56,3.87,2.56S673,29.78,673,28.08c0-1.54-1.25-2.43-4.42-2.43-1.12,0-2.4-.1-3-.16-1.41-.16-2.24-1-2.24-2.14,0-1.5,1.31-2.14,3.14-2.82-2.46-.74-3.78-2.4-3.78-4.61,0-3.23,2.46-5.38,6.14-5.38a7.82,7.82,0,0,1,2.5.35,9,9,0,0,0,2.4.51,4.37,4.37,0,0,0,2.62-.93l1.5,1.82A4,4,0,0,1,675.24,13.27Zm-6.43-.42c-1.89,0-2.91,1-2.91,3.07a2.65,2.65,0,0,0,2.94,3c1.92,0,2.91-1.06,2.91-3S670.82,12.85,668.8,12.85Z" transform="translate(-8.3 -3.47)"/><path class="cls-1" d="M698.72,27.7a3.66,3.66,0,0,1-2.14-2.3A5.57,5.57,0,0,1,692,27.5c-3.2,0-5.18-1.63-5.18-4.7,0-3.71,3-5.7,8.16-5.7.38,0,.7,0,1.12,0V16.08c0-1.89-.26-3.17-2.5-3.17a8.86,8.86,0,0,0-4.93,1.82l-1.34-2.11a12.63,12.63,0,0,1,6.72-2.11c2.34,0,4,.86,4.64,2.56a7.32,7.32,0,0,1,.32,2.82c0,1.15-.13,3.62-.13,6s.06,3.1,1.31,3.87Zm-3.62-8.61c-2.21,0-3.55.42-4.19,1.15a3.09,3.09,0,0,0-.83,2.34c0,1.76.9,2.78,2.53,2.78A4,4,0,0,0,696,23.25l.1-4.1C695.62,19.12,695.36,19.09,695.11,19.09Z" transform="translate(-8.3 -3.47)"/><path class="cls-1" d="M721,27V16.21c0-1.44-.13-2-.51-2.46a2,2,0,0,0-1.63-.64,6.47,6.47,0,0,0-4,2V27h-2.91V15.09a8.74,8.74,0,0,0-.61-3.81l2.78-.77a5.1,5.1,0,0,1,.54,2.46,13.86,13.86,0,0,1,2.08-1.57,5.94,5.94,0,0,1,3-.8,4,4,0,0,1,3.78,2.27,5,5,0,0,1,.38,2V27Z" transform="translate(-8.3 -3.47)"/><path class="cls-1" d="M740.51,27.57a3.78,3.78,0,0,1-1.5-2.3,5.88,5.88,0,0,1-4.83,2.3,4.51,4.51,0,0,1-4.32-2.4,6.8,6.8,0,0,1-.38-2.69V11.09l2.91-.58V21.68c0,1.63.16,2.27.74,2.82a2.93,2.93,0,0,0,1.86.7,4.41,4.41,0,0,0,3.65-2.53V11.15l2.91-.58V22.64c0,1.63.35,2.78,1,3.33Z" transform="translate(-8.3 -3.47)"/><path class="cls-1" d="M764.1,27V15.54c0-1.82-.58-2.46-1.92-2.46s-2.53,1-3.74,2.18V27h-2.88V15.6c0-1.79-.51-2.46-2-2.46A5.51,5.51,0,0,0,749.89,15V27H747V15.25a8.72,8.72,0,0,0-.58-4l2.75-.67a4.53,4.53,0,0,1,.54,2.24,6.55,6.55,0,0,1,4.51-2.27A4.14,4.14,0,0,1,758,13.07a6.87,6.87,0,0,1,4.9-2.53c2.5,0,4.1,1.57,4.1,4.51V27Z" transform="translate(-8.3 -3.47)"/><path class="cls-1" d="M782.88,26.13a5.25,5.25,0,0,1-3.46,1.22,5.14,5.14,0,0,1-4.13-2.11,6.09,6.09,0,0,1-.48,1.79H772a10.38,10.38,0,0,0,.42-3.74V8a11.25,11.25,0,0,0-.51-3.84l3.14-.64a16.45,16.45,0,0,1,.32,3.46v3.71a9.74,9.74,0,0,1-.1,1.66l.1.06a5.49,5.49,0,0,1,4.19-1.79c3.81,0,6.18,3.1,6.18,8.16C785.76,22.06,784.74,24.62,782.88,26.13ZM781.76,14.8a3.08,3.08,0,0,0-2.85-1.66,4,4,0,0,0-2.53.86,3.66,3.66,0,0,0-1,1v8.13a4.74,4.74,0,0,0,3.46,1.7,3.08,3.08,0,0,0,2.69-1.44,9.27,9.27,0,0,0,.9-4.7C782.43,16.53,782.31,15.79,781.76,14.8Z" transform="translate(-8.3 -3.47)"/><path class="cls-1" d="M792.9,19.63V20a6,6,0,0,0,.67,3.2,4.18,4.18,0,0,0,3.68,1.89,5.7,5.7,0,0,0,3.94-1.54l1.12,1.76a8.18,8.18,0,0,1-5.54,2c-4.45,0-7.17-3.23-7.17-8.48,0-2.78.54-4.58,1.92-6.21a6,6,0,0,1,4.83-2.21,5.78,5.78,0,0,1,4.35,1.73c1.41,1.44,1.92,3.23,2,6.91v.51Zm5.7-5.79a2.88,2.88,0,0,0-2.3-1.12c-2.24,0-3.36,1.82-3.36,4.74h6.66A5.86,5.86,0,0,0,798.59,13.84Z" transform="translate(-8.3 -3.47)"/><path class="cls-1" d="M814.24,13.58a2.41,2.41,0,0,0-.83-.16,3.35,3.35,0,0,0-3.33,3.26V27h-2.94V15.25a10.24,10.24,0,0,0-.61-4l2.85-.74a6.63,6.63,0,0,1,.54,2.46v.29c1.28-1.86,2.66-2.78,4.35-2.78a2.92,2.92,0,0,1,1,.16Z" transform="translate(-8.3 -3.47)"/><path class="cls-1" d="M831.33,27.47c-4.29,0-6.94-3.26-6.94-8.48s2.66-8.45,6.88-8.45c4.74,0,7,3.78,7,8.61C838.3,24.24,835.58,27.47,831.33,27.47Zm-.06-14.65c-2.56,0-3.62,1.82-3.62,5.86,0,4.9,1.25,6.53,3.74,6.53,2.24,0,3.62-1.73,3.62-5.92C835,14.32,833.57,12.82,831.27,12.82Z" transform="translate(-8.3 -3.47)"/><path class="cls-1" d="M850.11,6.45A4.58,4.58,0,0,0,848,5.84c-1.34,0-2.14.93-2.14,2.56V11h4.25l-.77,2.08h-3.46V27h-3v-14h-1.54V11H843c-.06-.32-.06-2.3-.06-2.56a4.61,4.61,0,0,1,1.79-4,4.88,4.88,0,0,1,2.91-.77,6.57,6.57,0,0,1,3.49.86Z" transform="translate(-8.3 -3.47)"/><path class="cls-1" d="M104.17,63.34A6.16,6.16,0,0,1,100,61.68a16.18,16.18,0,0,1,.06,1.79V69.1l-2.88.67V50.93A17,17,0,0,0,96.84,47l2.85-.48a8.31,8.31,0,0,1,.19,2.3,5.81,5.81,0,0,1,4.54-2.24c3.26,0,6,2.66,6,8.16C110.44,59.73,108.27,63.34,104.17,63.34Zm-.26-14.27a5,5,0,0,0-3.84,2v8.16A5,5,0,0,0,103.5,61c2.59,0,3.78-2,3.78-5.89S106.44,49.07,103.91,49.07Z" transform="translate(-8.3 -3.47)"/><path class="cls-1" d="M122.35,49.58a2.4,2.4,0,0,0-.83-.16,3.35,3.35,0,0,0-3.33,3.26V63h-2.94V51.25a10.24,10.24,0,0,0-.61-4l2.85-.74A6.63,6.63,0,0,1,118,49v.29c1.28-1.86,2.66-2.78,4.35-2.78a2.92,2.92,0,0,1,1,.16Z" transform="translate(-8.3 -3.47)"/><path class="cls-1" d="M127.75,44.18a2.08,2.08,0,0,1-2-2.11,2.1,2.1,0,1,1,4.19,0A2.14,2.14,0,0,1,127.75,44.18ZM126.25,63V47.09l3-.48V63Z" transform="translate(-8.3 -3.47)"/><path class="cls-1" d="M144.07,63V52.21c0-1.44-.13-2-.51-2.46a2,2,0,0,0-1.63-.64,6.47,6.47,0,0,0-4,2V63h-2.91V51.09a8.75,8.75,0,0,0-.61-3.81l2.78-.77a5.09,5.09,0,0,1,.54,2.46,13.78,13.78,0,0,1,2.08-1.57,5.94,5.94,0,0,1,3-.8,4,4,0,0,1,3.78,2.27,5,5,0,0,1,.38,2V63Z" transform="translate(-8.3 -3.47)"/><path class="cls-1" d="M158.47,63.34a5.87,5.87,0,0,1-5.15-2.4,9.69,9.69,0,0,1-1.54-5.79c0-3.62,1.15-5.7,2.69-7.07a6.27,6.27,0,0,1,8.51.06l-1.54,2a3.91,3.91,0,0,0-2.82-1.25,3.08,3.08,0,0,0-2.82,1.73,11.38,11.38,0,0,0-.77,4.9c0,2.24.45,3.71,1.28,4.61a3.11,3.11,0,0,0,2.3,1A4.49,4.49,0,0,0,162,59.44l1.44,1.82A6.31,6.31,0,0,1,158.47,63.34Z" transform="translate(-8.3 -3.47)"/><path class="cls-1" d="M168.75,44.18a2.08,2.08,0,0,1-2-2.11,2.1,2.1,0,1,1,4.19,0A2.14,2.14,0,0,1,168.75,44.18ZM167.24,63V47.09l3-.48V63Z" transform="translate(-8.3 -3.47)"/><path class="cls-1" d="M183,63.34a6.16,6.16,0,0,1-4.16-1.66,16.18,16.18,0,0,1,.06,1.79V69.1l-2.88.67V50.93a17,17,0,0,0-.35-3.94l2.85-.48a8.31,8.31,0,0,1,.19,2.3,5.81,5.81,0,0,1,4.54-2.24c3.26,0,6,2.66,6,8.16C189.29,59.73,187.11,63.34,183,63.34Zm-.26-14.27a5,5,0,0,0-3.84,2v8.16A5,5,0,0,0,182.35,61c2.59,0,3.78-2,3.78-5.89S185.29,49.07,182.76,49.07Z" transform="translate(-8.3 -3.47)"/><path class="cls-1" d="M197,63.34a2.72,2.72,0,0,1-2.5-1.22c-.48-.67-.61-1.22-.61-2.78V44.82a20.87,20.87,0,0,0-.35-4.61l3.07-.64a19.88,19.88,0,0,1,.29,4.58V59.06c0,1.12.1,1.7.51,2a1.2,1.2,0,0,0,.9.13l.51,1.82A4.31,4.31,0,0,1,197,63.34Z" transform="translate(-8.3 -3.47)"/><path class="cls-1" d="M205,55.63V56a6,6,0,0,0,.67,3.2,4.18,4.18,0,0,0,3.68,1.89,5.7,5.7,0,0,0,3.94-1.54l1.12,1.76a8.19,8.19,0,0,1-5.54,2c-4.45,0-7.17-3.23-7.17-8.48,0-2.78.54-4.58,1.92-6.21a6,6,0,0,1,4.83-2.21,5.78,5.78,0,0,1,4.35,1.73c1.41,1.44,1.92,3.23,2,6.91v.51Zm5.7-5.79a2.88,2.88,0,0,0-2.3-1.12c-2.24,0-3.36,1.82-3.36,4.74h6.66A5.86,5.86,0,0,0,210.73,49.84Z" transform="translate(-8.3 -3.47)"/><path class="cls-1" d="M223.82,63.47a12.21,12.21,0,0,1-6-1.7l1.06-2.11a10.93,10.93,0,0,0,5.15,1.6c1.76,0,3-1,3-2.59,0-1.38-.83-2.18-2.69-2.53l-2-.38c-2.53-.51-3.9-2.08-3.9-4.45,0-2.94,2.34-5,5.79-5a10.19,10.19,0,0,1,5.06,1.31l-1,2.08a8.67,8.67,0,0,0-3.94-1.15c-1.7,0-2.78,1-2.78,2.4,0,1.15.58,1.79,2.27,2.18l2.08.48c2.94.67,4.16,2.37,4.16,4.48C230.12,61.3,227.56,63.47,223.82,63.47Z" transform="translate(-8.3 -3.47)"/><path class="cls-1" d="M248.07,68.11a11,11,0,0,1-6.27-6.53,28.17,28.17,0,0,1-1.28-8.86c0-2.91.32-6.37,1.5-8.61a12.93,12.93,0,0,1,6-5.89l.74,1.54a9.59,9.59,0,0,0-4.42,5.63,26.36,26.36,0,0,0-.83,7.26,32.83,32.83,0,0,0,.93,8.26,9.18,9.18,0,0,0,4.38,5.66Z" transform="translate(-8.3 -3.47)"/><path class="cls-1" d="M252.75,44.18a2.08,2.08,0,0,1-2-2.11,2.1,2.1,0,1,1,4.19,0A2.14,2.14,0,0,1,252.75,44.18ZM251.24,63V47.09l3-.48V63Z" transform="translate(-8.3 -3.47)"/><path class="cls-1" d="M261.83,63.47a2.4,2.4,0,1,1,2.27-2.4A2.31,2.31,0,0,1,261.83,63.47Z" transform="translate(-8.3 -3.47)"/><path class="cls-1" d="M271.72,55.63V56a6,6,0,0,0,.67,3.2,4.18,4.18,0,0,0,3.68,1.89A5.7,5.7,0,0,0,280,59.57l1.12,1.76a8.19,8.19,0,0,1-5.54,2c-4.45,0-7.17-3.23-7.17-8.48,0-2.78.54-4.58,1.92-6.21a6,6,0,0,1,4.83-2.21,5.78,5.78,0,0,1,4.35,1.73c1.41,1.44,1.92,3.23,2,6.91v.51Zm5.7-5.79a2.88,2.88,0,0,0-2.3-1.12c-2.24,0-3.36,1.82-3.36,4.74h6.66A5.86,5.86,0,0,0,277.42,49.84Z" transform="translate(-8.3 -3.47)"/><path class="cls-1" d="M287.75,63.47a2.4,2.4,0,1,1,2.27-2.4A2.31,2.31,0,0,1,287.75,63.47Z" transform="translate(-8.3 -3.47)"/><path class="cls-1" d="M307.85,63.44a13.49,13.49,0,0,1-7.1-2L302,59.12a10.85,10.85,0,0,0,6,1.82c2.88,0,4.77-1.47,4.77-3.84,0-1.79-1.18-3-3.65-3.74l-2.3-.67c-3.33-1-5.22-2.56-5.22-5.7,0-3.81,2.94-6.4,7.3-6.4a11.7,11.7,0,0,1,6.75,2.08l-1.38,2.18a9.28,9.28,0,0,0-5.25-1.73c-2.46,0-4,1.28-4,3.33,0,1.57.9,2.46,3.26,3.17l2.59.77c2.94.86,5.38,2.78,5.38,6.21C316.17,59.66,313.64,63.44,307.85,63.44Z" transform="translate(-8.3 -3.47)"/><path class="cls-1" d="M326.86,49.07h-3.17v9.66c0,2,.48,2.59,2.08,2.59a3.54,3.54,0,0,0,1.5-.32l.35,1.79a6.38,6.38,0,0,1-2.91.67,4.57,4.57,0,0,1-2.82-.86c-.64-.58-1.09-1-1.09-3.2V49.07h-1.92V47h1.92a34.73,34.73,0,0,1,.19-4.1l3-.7c-.13,1.15-.29,3.17-.29,4.8h3.9Z" transform="translate(-8.3 -3.47)"/><path class="cls-1" d="M338.12,49.58a2.4,2.4,0,0,0-.83-.16A3.35,3.35,0,0,0,334,52.69V63H331V51.25a10.24,10.24,0,0,0-.61-4l2.85-.74A6.63,6.63,0,0,1,333.8,49v.29c1.28-1.86,2.66-2.78,4.35-2.78a2.92,2.92,0,0,1,1,.16Z" transform="translate(-8.3 -3.47)"/><path class="cls-1" d="M352.62,63.7a3.66,3.66,0,0,1-2.14-2.3,5.57,5.57,0,0,1-4.54,2.11c-3.2,0-5.18-1.63-5.18-4.7,0-3.71,3-5.7,8.16-5.7.38,0,.7,0,1.12,0V52.08c0-1.89-.26-3.17-2.5-3.17a8.85,8.85,0,0,0-4.93,1.82l-1.34-2.11A12.62,12.62,0,0,1,348,46.51c2.34,0,4,.86,4.64,2.56a7.31,7.31,0,0,1,.32,2.82c0,1.15-.13,3.62-.13,6s.06,3.1,1.31,3.87ZM349,55.09c-2.21,0-3.55.42-4.19,1.15a3.09,3.09,0,0,0-.83,2.34c0,1.76.9,2.78,2.53,2.78a4,4,0,0,0,3.36-2.11l.1-4.1C349.51,55.12,349.26,55.09,349,55.09Z" transform="translate(-8.3 -3.47)"/><path class="cls-1" d="M364.68,49.07h-3.17v9.66c0,2,.48,2.59,2.08,2.59a3.54,3.54,0,0,0,1.5-.32l.35,1.79a6.38,6.38,0,0,1-2.91.67,4.57,4.57,0,0,1-2.82-.86c-.64-.58-1.09-1-1.09-3.2V49.07h-1.92V47h1.92a34.73,34.73,0,0,1,.19-4.1l3-.7c-.13,1.15-.29,3.17-.29,4.8h3.9Z" transform="translate(-8.3 -3.47)"/><path class="cls-1" d="M371.18,55.63V56a6,6,0,0,0,.67,3.2,4.18,4.18,0,0,0,3.68,1.89,5.7,5.7,0,0,0,3.94-1.54l1.12,1.76a8.19,8.19,0,0,1-5.54,2c-4.45,0-7.17-3.23-7.17-8.48,0-2.78.54-4.58,1.92-6.21a6,6,0,0,1,4.83-2.21A5.78,5.78,0,0,1,379,48.21c1.41,1.44,1.92,3.23,2,6.91v.51Zm5.7-5.79a2.88,2.88,0,0,0-2.3-1.12c-2.24,0-3.36,1.82-3.36,4.74h6.66A5.86,5.86,0,0,0,376.87,49.84Z" transform="translate(-8.3 -3.47)"/><path class="cls-1" d="M397.19,49.27a3.81,3.81,0,0,1-1.38-.26A4.48,4.48,0,0,1,397,52c0,2.3-1.57,5-5.76,5-1,.32-2.53,1.06-2.53,1.76,0,.48.38.8,1.15.8h2.46c4.1,0,5.79,1.92,5.79,4.42,0,3.46-2.85,5.18-6.75,5.18-4.48,0-7-1.57-7-4.22a4.8,4.8,0,0,1,.29-1.63l2.88-.16a3.09,3.09,0,0,0-.29,1.22c0,1.66,1.38,2.56,3.87,2.56S395,65.78,395,64.08c0-1.54-1.25-2.43-4.42-2.43-1.12,0-2.4-.1-3-.16-1.41-.16-2.24-1-2.24-2.14,0-1.5,1.31-2.14,3.14-2.82-2.46-.74-3.78-2.4-3.78-4.61,0-3.23,2.46-5.38,6.14-5.38a7.83,7.83,0,0,1,2.5.35,9,9,0,0,0,2.4.51,4.38,4.38,0,0,0,2.62-.93l1.5,1.82A4,4,0,0,1,397.19,49.27Zm-6.43-.42c-1.89,0-2.91,1-2.91,3.07a2.65,2.65,0,0,0,2.94,3c1.92,0,2.91-1.06,2.91-3S392.77,48.85,390.76,48.85Z" transform="translate(-8.3 -3.47)"/><path class="cls-1" d="M404.23,44.18a2.08,2.08,0,0,1-2-2.11,2.1,2.1,0,1,1,4.19,0A2.14,2.14,0,0,1,404.23,44.18ZM402.73,63V47.09l3-.48V63Z" transform="translate(-8.3 -3.47)"/><path class="cls-1" d="M417.25,63.34a5.87,5.87,0,0,1-5.15-2.4,9.69,9.69,0,0,1-1.54-5.79c0-3.62,1.15-5.7,2.69-7.07a6.27,6.27,0,0,1,8.51.06l-1.54,2a3.91,3.91,0,0,0-2.82-1.25,3.08,3.08,0,0,0-2.82,1.73,11.38,11.38,0,0,0-.77,4.9c0,2.24.45,3.71,1.28,4.61a3.11,3.11,0,0,0,2.3,1,4.49,4.49,0,0,0,3.33-1.66l1.44,1.82A6.31,6.31,0,0,1,417.25,63.34Z" transform="translate(-8.3 -3.47)"/><path class="cls-1" d="M426.41,67.6l-1-1.44a3.16,3.16,0,0,0,2.08-2.4c0-.45-.48-.58-1-.86A1.89,1.89,0,0,1,425.41,61a2.34,2.34,0,0,1,2.34-2.4c1.54,0,2.66,1.34,2.66,3.3A6.37,6.37,0,0,1,426.41,67.6Z" transform="translate(-8.3 -3.47)"/><path class="cls-1" d="M442.89,63V41h12l-.42,2.53H446v6.72h7.07v2.59H446v7.55h9.22V63Z" transform="translate(-8.3 -3.47)"/><path class="cls-1" d="M464.65,63.34a5.87,5.87,0,0,1-5.15-2.4A9.69,9.69,0,0,1,458,55.15c0-3.62,1.15-5.7,2.69-7.07a6.27,6.27,0,0,1,8.51.06l-1.54,2a3.9,3.9,0,0,0-2.81-1.25A3.08,3.08,0,0,0,462,50.64a11.38,11.38,0,0,0-.77,4.9c0,2.24.45,3.71,1.28,4.61a3.11,3.11,0,0,0,2.3,1,4.49,4.49,0,0,0,3.33-1.66l1.44,1.82A6.32,6.32,0,0,1,464.65,63.34Z" transform="translate(-8.3 -3.47)"/><path class="cls-1" d="M479.08,63.47c-4.29,0-6.94-3.26-6.94-8.48s2.66-8.45,6.88-8.45c4.74,0,7,3.78,7,8.61C486.05,60.24,483.33,63.47,479.08,63.47ZM479,48.82c-2.56,0-3.62,1.82-3.62,5.86,0,4.9,1.25,6.53,3.74,6.53,2.24,0,3.62-1.73,3.62-5.92C482.76,50.32,481.32,48.82,479,48.82Z" transform="translate(-8.3 -3.47)"/><path class="cls-1" d="M499.72,63V52.21c0-1.44-.13-2-.51-2.46a2,2,0,0,0-1.63-.64,6.47,6.47,0,0,0-4,2V63h-2.91V51.09a8.74,8.74,0,0,0-.61-3.81l2.78-.77a5.09,5.09,0,0,1,.54,2.46,13.76,13.76,0,0,1,2.08-1.57,5.94,5.94,0,0,1,3-.8,4,4,0,0,1,3.78,2.27,5,5,0,0,1,.38,2V63Z" transform="translate(-8.3 -3.47)"/><path class="cls-1" d="M514.21,63.47c-4.29,0-6.94-3.26-6.94-8.48s2.66-8.45,6.88-8.45c4.74,0,7,3.78,7,8.61C521.19,60.24,518.47,63.47,514.21,63.47Zm-.06-14.65c-2.56,0-3.62,1.82-3.62,5.86,0,4.9,1.25,6.53,3.74,6.53,2.24,0,3.62-1.73,3.62-5.92C517.89,50.32,516.45,48.82,514.15,48.82Z" transform="translate(-8.3 -3.47)"/><path class="cls-1" d="M542.95,63V51.54c0-1.82-.58-2.46-1.92-2.46s-2.53,1-3.74,2.18V63h-2.88V51.6c0-1.79-.51-2.46-2-2.46A5.51,5.51,0,0,0,528.74,51V63h-2.91V51.25a8.72,8.72,0,0,0-.58-4l2.75-.67a4.53,4.53,0,0,1,.54,2.24,6.55,6.55,0,0,1,4.51-2.27,4.14,4.14,0,0,1,3.81,2.53,6.87,6.87,0,0,1,4.9-2.53c2.5,0,4.1,1.57,4.1,4.51V63Z" transform="translate(-8.3 -3.47)"/><path class="cls-1" d="M553.13,44.18a2.08,2.08,0,0,1-2-2.11,2.1,2.1,0,1,1,4.19,0A2.14,2.14,0,0,1,553.13,44.18ZM551.62,63V47.09l3-.48V63Z" transform="translate(-8.3 -3.47)"/><path class="cls-1" d="M566.15,63.34a5.87,5.87,0,0,1-5.15-2.4,9.68,9.68,0,0,1-1.54-5.79c0-3.62,1.15-5.7,2.69-7.07a6.27,6.27,0,0,1,8.51.06l-1.54,2a3.91,3.91,0,0,0-2.82-1.25,3.08,3.08,0,0,0-2.82,1.73,11.36,11.36,0,0,0-.77,4.9c0,2.24.45,3.71,1.28,4.61a3.11,3.11,0,0,0,2.3,1,4.48,4.48,0,0,0,3.33-1.66l1.44,1.82A6.31,6.31,0,0,1,566.15,63.34Z" transform="translate(-8.3 -3.47)"/><path class="cls-1" d="M592.87,63.7a3.66,3.66,0,0,1-2.14-2.3,5.57,5.57,0,0,1-4.54,2.11c-3.2,0-5.18-1.63-5.18-4.7,0-3.71,3-5.7,8.16-5.7.38,0,.7,0,1.12,0V52.08c0-1.89-.26-3.17-2.5-3.17a8.86,8.86,0,0,0-4.93,1.82l-1.34-2.11a12.62,12.62,0,0,1,6.72-2.11c2.34,0,4,.86,4.64,2.56a7.32,7.32,0,0,1,.32,2.82c0,1.15-.13,3.62-.13,6s.06,3.1,1.31,3.87Zm-3.62-8.61c-2.21,0-3.55.42-4.19,1.15a3.09,3.09,0,0,0-.83,2.34c0,1.76.9,2.78,2.53,2.78a4,4,0,0,0,3.36-2.11l.1-4.1C589.77,55.12,589.51,55.09,589.25,55.09Z" transform="translate(-8.3 -3.47)"/><path class="cls-1" d="M607.91,63V52.21c0-1.44-.13-2-.51-2.46a2,2,0,0,0-1.63-.64,6.47,6.47,0,0,0-4,2V63h-2.91V51.09a8.76,8.76,0,0,0-.61-3.81l2.78-.77a5.08,5.08,0,0,1,.54,2.46,13.71,13.71,0,0,1,2.08-1.57,5.94,5.94,0,0,1,3-.8,4,4,0,0,1,3.78,2.27,5,5,0,0,1,.38,2V63Z" transform="translate(-8.3 -3.47)"/><path class="cls-1" d="M626.53,63a6.22,6.22,0,0,1-.29-1.5,5.35,5.35,0,0,1-4.13,1.76c-4.1,0-6.5-3.07-6.5-8.13,0-3.46,1.18-6.11,3.36-7.52a5.54,5.54,0,0,1,3.14-.93,4.78,4.78,0,0,1,3.9,1.86c0-.45-.06-1.73-.06-2.82V39.51l2.94.48V57.65a19.23,19.23,0,0,0,.45,5.38Zm-.61-12.45a4.1,4.1,0,0,0-3.39-1.5,3.14,3.14,0,0,0-2.79,1.63,8.52,8.52,0,0,0-.83,4.42c0,3.1.38,4,1.25,4.86a3,3,0,0,0,2.37.83A3.8,3.8,0,0,0,625.92,59Z" transform="translate(-8.3 -3.47)"/><path class="cls-1" d="M652.61,43.51h-8v6.69h6.53v2.5h-6.53V63h-3.1V41H653Z" transform="translate(-8.3 -3.47)"/><path class="cls-1" d="M657.25,44.18a2.08,2.08,0,0,1-2-2.11,2.1,2.1,0,1,1,4.19,0A2.14,2.14,0,0,1,657.25,44.18ZM655.75,63V47.09l3-.48V63Z" transform="translate(-8.3 -3.47)"/><path class="cls-1" d="M673.57,63V52.21c0-1.44-.13-2-.51-2.46a2,2,0,0,0-1.63-.64,6.47,6.47,0,0,0-4,2V63h-2.91V51.09a8.74,8.74,0,0,0-.61-3.81l2.78-.77a5.09,5.09,0,0,1,.54,2.46,13.76,13.76,0,0,1,2.08-1.57,5.94,5.94,0,0,1,3-.8,4,4,0,0,1,3.78,2.27,5,5,0,0,1,.38,2V63Z" transform="translate(-8.3 -3.47)"/><path class="cls-1" d="M692.67,63.7a3.66,3.66,0,0,1-2.14-2.3A5.57,5.57,0,0,1,686,63.5c-3.2,0-5.18-1.63-5.18-4.7,0-3.71,3-5.7,8.16-5.7.38,0,.7,0,1.12,0V52.08c0-1.89-.26-3.17-2.5-3.17a8.85,8.85,0,0,0-4.93,1.82l-1.34-2.11A12.62,12.62,0,0,1,688,46.51c2.34,0,4,.86,4.64,2.56a7.3,7.3,0,0,1,.32,2.82c0,1.15-.13,3.62-.13,6s.06,3.1,1.31,3.87Zm-3.62-8.61c-2.21,0-3.55.42-4.19,1.15a3.1,3.1,0,0,0-.83,2.34c0,1.76.9,2.78,2.53,2.78a4,4,0,0,0,3.36-2.11l.1-4.1C689.57,55.12,689.32,55.09,689.06,55.09Z" transform="translate(-8.3 -3.47)"/><path class="cls-1" d="M707.71,63V52.21c0-1.44-.13-2-.51-2.46a2,2,0,0,0-1.63-.64,6.47,6.47,0,0,0-4,2V63h-2.91V51.09a8.76,8.76,0,0,0-.61-3.81l2.78-.77a5.09,5.09,0,0,1,.54,2.46,13.86,13.86,0,0,1,2.08-1.57,5.94,5.94,0,0,1,3-.8,4,4,0,0,1,3.78,2.27,5,5,0,0,1,.38,2V63Z" transform="translate(-8.3 -3.47)"/><path class="cls-1" d="M722.12,63.34a5.87,5.87,0,0,1-5.15-2.4,9.69,9.69,0,0,1-1.54-5.79c0-3.62,1.15-5.7,2.69-7.07a6.27,6.27,0,0,1,8.51.06l-1.54,2a3.9,3.9,0,0,0-2.81-1.25,3.08,3.08,0,0,0-2.82,1.73,11.38,11.38,0,0,0-.77,4.9c0,2.24.45,3.71,1.28,4.61a3.11,3.11,0,0,0,2.3,1,4.49,4.49,0,0,0,3.33-1.66L727,61.26A6.32,6.32,0,0,1,722.12,63.34Z" transform="translate(-8.3 -3.47)"/><path class="cls-1" d="M732.39,44.18a2.08,2.08,0,0,1-2-2.11,2.1,2.1,0,1,1,4.19,0A2.14,2.14,0,0,1,732.39,44.18ZM730.88,63V47.09l3-.48V63Z" transform="translate(-8.3 -3.47)"/><path class="cls-1" d="M750.27,63.7a3.66,3.66,0,0,1-2.14-2.3,5.57,5.57,0,0,1-4.54,2.11c-3.2,0-5.18-1.63-5.18-4.7,0-3.71,3-5.7,8.16-5.7.38,0,.7,0,1.12,0V52.08c0-1.89-.26-3.17-2.5-3.17a8.85,8.85,0,0,0-4.93,1.82l-1.34-2.11a12.62,12.62,0,0,1,6.72-2.11c2.34,0,4,.86,4.64,2.56a7.3,7.3,0,0,1,.32,2.82c0,1.15-.13,3.62-.13,6s.06,3.1,1.31,3.87Zm-3.62-8.61c-2.21,0-3.55.42-4.19,1.15a3.1,3.1,0,0,0-.83,2.34c0,1.76.9,2.78,2.53,2.78a4,4,0,0,0,3.36-2.11l.1-4.1C747.17,55.12,746.91,55.09,746.66,55.09Z" transform="translate(-8.3 -3.47)"/><path class="cls-1" d="M759.23,63.34a2.72,2.72,0,0,1-2.5-1.22c-.48-.67-.61-1.22-.61-2.78V44.82a20.88,20.88,0,0,0-.35-4.61l3.07-.64a20,20,0,0,1,.29,4.58V59.06c0,1.12.1,1.7.51,2a1.2,1.2,0,0,0,.9.13l.51,1.82A4.31,4.31,0,0,1,759.23,63.34Z" transform="translate(-8.3 -3.47)"/><path class="cls-1" d="M765.28,67.6l-1-1.44a3.16,3.16,0,0,0,2.08-2.4c0-.45-.48-.58-1-.86A1.89,1.89,0,0,1,764.29,61a2.34,2.34,0,0,1,2.34-2.4c1.54,0,2.66,1.34,2.66,3.3A6.37,6.37,0,0,1,765.28,67.6Z" transform="translate(-8.3 -3.47)"/><path class="cls-1" d="M21.23,96c-1.54,1.92-3.58,3-7.42,3H8.3V77h5.12c3.81,0,6.24.86,8.26,3.65a12.55,12.55,0,0,1,2,7.39A12.45,12.45,0,0,1,21.23,96ZM18.57,81.39c-1.22-1.54-2.5-2-4.64-2h-2.5V96.5h2.43C16.39,96.5,18,95.82,19,94A12,12,0,0,0,20.2,88.4C20.2,85.33,19.88,83.06,18.57,81.39Z" transform="translate(-8.3 -3.47)"/><path class="cls-1" d="M30.76,91.63V92a6,6,0,0,0,.67,3.2,4.18,4.18,0,0,0,3.68,1.89A5.7,5.7,0,0,0,39,95.57l1.12,1.76a8.19,8.19,0,0,1-5.54,2c-4.45,0-7.17-3.23-7.17-8.48,0-2.78.54-4.58,1.92-6.21a6,6,0,0,1,4.83-2.21,5.78,5.78,0,0,1,4.35,1.73c1.41,1.44,1.92,3.23,2,6.91v.51Zm5.7-5.79a2.88,2.88,0,0,0-2.3-1.12c-2.24,0-3.36,1.82-3.36,4.74h6.66A5.86,5.86,0,0,0,36.46,85.84Z" transform="translate(-8.3 -3.47)"/><path class="cls-1" d="M48.11,99.34a2.72,2.72,0,0,1-2.5-1.22c-.48-.67-.61-1.22-.61-2.78V80.82a20.87,20.87,0,0,0-.35-4.61l3.07-.64A19.88,19.88,0,0,1,48,80.15V95.06c0,1.12.1,1.7.51,2a1.2,1.2,0,0,0,.9.13L49.93,99A4.31,4.31,0,0,1,48.11,99.34Z" transform="translate(-8.3 -3.47)"/><path class="cls-1" d="M55.27,80.18a2.08,2.08,0,0,1-2-2.11,2.1,2.1,0,1,1,4.19,0A2.14,2.14,0,0,1,55.27,80.18ZM53.77,99V83.09l3-.48V99Z" transform="translate(-8.3 -3.47)"/><path class="cls-1" d="M68.17,99.15H65.42L59.69,83.06l3-.48,3.17,9.7c.35,1.09.7,2.37,1,3.46h.06a28.68,28.68,0,0,1,1-3.52l3-9.22H74Z" transform="translate(-8.3 -3.47)"/><path class="cls-1" d="M79.15,91.63V92a6,6,0,0,0,.67,3.2A4.18,4.18,0,0,0,83.5,97.1a5.7,5.7,0,0,0,3.94-1.54l1.12,1.76a8.19,8.19,0,0,1-5.54,2c-4.45,0-7.17-3.23-7.17-8.48,0-2.78.54-4.58,1.92-6.21a6,6,0,0,1,4.83-2.21A5.78,5.78,0,0,1,87,84.21c1.41,1.44,1.92,3.23,2,6.91v.51Zm5.7-5.79a2.88,2.88,0,0,0-2.3-1.12c-2.24,0-3.36,1.82-3.36,4.74h6.66A5.86,5.86,0,0,0,84.84,85.84Z" transform="translate(-8.3 -3.47)"/><path class="cls-1" d="M100.49,85.58a2.4,2.4,0,0,0-.83-.16,3.35,3.35,0,0,0-3.33,3.26V99H93.39V87.25a10.24,10.24,0,0,0-.61-4l2.85-.74A6.63,6.63,0,0,1,96.17,85v.29c1.28-1.86,2.66-2.78,4.35-2.78a2.92,2.92,0,0,1,1,.16Z" transform="translate(-8.3 -3.47)"/><path class="cls-1" d="M115,99.7a3.66,3.66,0,0,1-2.14-2.3,5.57,5.57,0,0,1-4.54,2.11c-3.2,0-5.18-1.63-5.18-4.7,0-3.71,3-5.7,8.16-5.7.38,0,.7,0,1.12,0V88.08c0-1.89-.26-3.17-2.5-3.17A8.85,8.85,0,0,0,105,86.74l-1.34-2.11a12.62,12.62,0,0,1,6.72-2.11c2.34,0,4,.86,4.64,2.56a7.31,7.31,0,0,1,.32,2.82c0,1.15-.13,3.62-.13,6s.06,3.1,1.31,3.87Zm-3.62-8.61c-2.21,0-3.55.42-4.19,1.15a3.09,3.09,0,0,0-.83,2.34c0,1.76.9,2.78,2.53,2.78a4,4,0,0,0,3.36-2.11l.1-4.1C111.88,91.12,111.62,91.09,111.37,91.09Z" transform="translate(-8.3 -3.47)"/><path class="cls-1" d="M131.27,98.13a5.25,5.25,0,0,1-3.46,1.22,5.14,5.14,0,0,1-4.13-2.11,6.09,6.09,0,0,1-.48,1.79h-2.78a10.36,10.36,0,0,0,.42-3.74V80a11.25,11.25,0,0,0-.51-3.84l3.14-.64a16.48,16.48,0,0,1,.32,3.46v3.71a9.67,9.67,0,0,1-.1,1.66l.1.06A5.49,5.49,0,0,1,128,82.58c3.81,0,6.18,3.1,6.18,8.16C134.15,94.06,133.13,96.62,131.27,98.13ZM130.15,86.8a3.09,3.09,0,0,0-2.85-1.66,4,4,0,0,0-2.53.86,3.66,3.66,0,0,0-1,1v8.13a4.74,4.74,0,0,0,3.46,1.7,3.08,3.08,0,0,0,2.69-1.44,9.27,9.27,0,0,0,.9-4.7C130.82,88.53,130.7,87.79,130.15,86.8Z" transform="translate(-8.3 -3.47)"/><path class="cls-1" d="M140.3,80.18a2.08,2.08,0,0,1-2-2.11,2.1,2.1,0,1,1,4.19,0A2.14,2.14,0,0,1,140.3,80.18ZM138.79,99V83.09l3-.48V99Z" transform="translate(-8.3 -3.47)"/><path class="cls-1" d="M150.54,99.34a2.72,2.72,0,0,1-2.5-1.22c-.48-.67-.61-1.22-.61-2.78V80.82a20.87,20.87,0,0,0-.35-4.61l3.07-.64a19.88,19.88,0,0,1,.29,4.58V95.06c0,1.12.1,1.7.51,2a1.2,1.2,0,0,0,.9.13l.51,1.82A4.31,4.31,0,0,1,150.54,99.34Z" transform="translate(-8.3 -3.47)"/><path class="cls-1" d="M157.71,80.18a2.08,2.08,0,0,1-2-2.11,2.1,2.1,0,1,1,4.19,0A2.14,2.14,0,0,1,157.71,80.18ZM156.2,99V83.09l3-.48V99Z" transform="translate(-8.3 -3.47)"/><path class="cls-1" d="M171,85.07h-3.17v9.66c0,2,.48,2.59,2.08,2.59a3.54,3.54,0,0,0,1.5-.32l.35,1.79a6.38,6.38,0,0,1-2.91.67,4.57,4.57,0,0,1-2.82-.86c-.64-.58-1.09-1-1.09-3.2V85.07h-1.92V83H165a34.73,34.73,0,0,1,.19-4.1l3-.7c-.13,1.15-.29,3.17-.29,4.8h3.9Z" transform="translate(-8.3 -3.47)"/><path class="cls-1" d="M181.9,99.54c-.77,2.27-1.6,4-2.72,4.93a7.09,7.09,0,0,1-3,1.38l-.93-1.92a4.87,4.87,0,0,0,2.78-1.82A9.06,9.06,0,0,0,179.37,99l-1.15.16a47.74,47.74,0,0,0-1.54-5.34l-3.55-10.53,3-.67,3.07,10.08c.29,1,.7,2.69.93,3.78h.19c.26-1.09.64-2.53,1.09-4L184.23,83h3.26Z" transform="translate(-8.3 -3.47)"/><path class="cls-1" d="M189.7,103.6l-1-1.44a3.16,3.16,0,0,0,2.08-2.4c0-.45-.48-.58-1-.86A1.89,1.89,0,0,1,188.71,97a2.34,2.34,0,0,1,2.34-2.4c1.54,0,2.66,1.34,2.66,3.3A6.37,6.37,0,0,1,189.7,103.6Z" transform="translate(-8.3 -3.47)"/><path class="cls-1" d="M218.73,99.44a13.49,13.49,0,0,1-7.1-2l1.22-2.37a10.85,10.85,0,0,0,6,1.82c2.88,0,4.77-1.47,4.77-3.84,0-1.79-1.18-3-3.65-3.74l-2.3-.67c-3.33-1-5.22-2.56-5.22-5.7,0-3.81,2.94-6.4,7.3-6.4a11.7,11.7,0,0,1,6.75,2.08l-1.38,2.18a9.28,9.28,0,0,0-5.25-1.73c-2.46,0-4,1.28-4,3.33,0,1.57.9,2.46,3.26,3.17l2.59.77c2.94.86,5.38,2.78,5.38,6.21C227,95.66,224.52,99.44,218.73,99.44Z" transform="translate(-8.3 -3.47)"/><path class="cls-1" d="M237.51,99.47c-4.29,0-6.94-3.26-6.94-8.48s2.66-8.45,6.88-8.45c4.74,0,7,3.78,7,8.61C244.49,96.24,241.77,99.47,237.51,99.47Zm-.06-14.65c-2.56,0-3.62,1.82-3.62,5.86,0,4.9,1.25,6.53,3.74,6.53,2.24,0,3.62-1.73,3.62-5.92C241.19,86.32,239.75,84.82,237.45,84.82Z" transform="translate(-8.3 -3.47)"/><path class="cls-1" d="M254.86,99.34a5.87,5.87,0,0,1-5.15-2.4,9.69,9.69,0,0,1-1.54-5.79c0-3.62,1.15-5.7,2.69-7.07a6.27,6.27,0,0,1,8.51.06l-1.54,2A3.91,3.91,0,0,0,255,84.91a3.08,3.08,0,0,0-2.82,1.73,11.38,11.38,0,0,0-.77,4.9c0,2.24.45,3.71,1.28,4.61a3.11,3.11,0,0,0,2.3,1,4.49,4.49,0,0,0,3.33-1.66l1.44,1.82A6.31,6.31,0,0,1,254.86,99.34Z" transform="translate(-8.3 -3.47)"/><path class="cls-1" d="M265.13,80.18a2.08,2.08,0,0,1-2-2.11,2.1,2.1,0,1,1,4.19,0A2.14,2.14,0,0,1,265.13,80.18ZM263.62,99V83.09l3-.48V99Z" transform="translate(-8.3 -3.47)"/><path class="cls-1" d="M283,99.7a3.66,3.66,0,0,1-2.14-2.3,5.57,5.57,0,0,1-4.54,2.11c-3.2,0-5.18-1.63-5.18-4.7,0-3.71,3-5.7,8.16-5.7.38,0,.7,0,1.12,0V88.08c0-1.89-.26-3.17-2.5-3.17A8.85,8.85,0,0,0,273,86.74l-1.34-2.11a12.62,12.62,0,0,1,6.72-2.11c2.34,0,4,.86,4.64,2.56a7.31,7.31,0,0,1,.32,2.82c0,1.15-.13,3.62-.13,6s.06,3.1,1.31,3.87Zm-3.62-8.61c-2.21,0-3.55.42-4.19,1.15a3.09,3.09,0,0,0-.83,2.34c0,1.76.9,2.78,2.53,2.78a4,4,0,0,0,3.36-2.11l.1-4.1C279.91,91.12,279.66,91.09,279.4,91.09Z" transform="translate(-8.3 -3.47)"/><path class="cls-1" d="M292,99.34a2.72,2.72,0,0,1-2.5-1.22c-.48-.67-.61-1.22-.61-2.78V80.82a20.87,20.87,0,0,0-.35-4.61l3.07-.64a19.88,19.88,0,0,1,.29,4.58V95.06c0,1.12.1,1.7.51,2a1.2,1.2,0,0,0,.9.13L293.8,99A4.31,4.31,0,0,1,292,99.34Z" transform="translate(-8.3 -3.47)"/><path class="cls-1" d="M322.47,99.7a3.66,3.66,0,0,1-2.14-2.3,5.57,5.57,0,0,1-4.54,2.11c-3.2,0-5.18-1.63-5.18-4.7,0-3.71,3-5.7,8.16-5.7.38,0,.7,0,1.12,0V88.08c0-1.89-.26-3.17-2.5-3.17a8.85,8.85,0,0,0-4.93,1.82l-1.34-2.11a12.62,12.62,0,0,1,6.72-2.11c2.34,0,4,.86,4.64,2.56a7.31,7.31,0,0,1,.32,2.82c0,1.15-.13,3.62-.13,6s.06,3.1,1.31,3.87Zm-3.62-8.61c-2.21,0-3.55.42-4.19,1.15a3.09,3.09,0,0,0-.83,2.34c0,1.76.9,2.78,2.53,2.78a4,4,0,0,0,3.36-2.11l.1-4.1C319.37,91.12,319.11,91.09,318.85,91.09Z" transform="translate(-8.3 -3.47)"/><path class="cls-1" d="M337.51,99V88.21c0-1.44-.13-2-.51-2.46a2,2,0,0,0-1.63-.64,6.47,6.47,0,0,0-4,2V99h-2.91V87.09a8.75,8.75,0,0,0-.61-3.81l2.78-.77a5.09,5.09,0,0,1,.54,2.46,13.78,13.78,0,0,1,2.08-1.57,5.94,5.94,0,0,1,3-.8A4,4,0,0,1,340,84.88a5,5,0,0,1,.38,2V99Z" transform="translate(-8.3 -3.47)"/><path class="cls-1" d="M356.13,99a6.24,6.24,0,0,1-.29-1.5,5.35,5.35,0,0,1-4.13,1.76c-4.1,0-6.5-3.07-6.5-8.13,0-3.46,1.18-6.11,3.36-7.52a5.53,5.53,0,0,1,3.14-.93,4.78,4.78,0,0,1,3.9,1.86c0-.45-.06-1.73-.06-2.82V75.51l2.94.48V93.65a19.2,19.2,0,0,0,.45,5.38Zm-.61-12.45a4.11,4.11,0,0,0-3.39-1.5,3.14,3.14,0,0,0-2.78,1.63,8.52,8.52,0,0,0-.83,4.42c0,3.1.38,4,1.25,4.86a3,3,0,0,0,2.37.83A3.8,3.8,0,0,0,355.53,95Z" transform="translate(-8.3 -3.47)"/><path class="cls-1" d="M371.14,99V77h12l-.42,2.53h-8.45v6.72h7.07v2.59h-7.07v7.55h9.22V99Z" transform="translate(-8.3 -3.47)"/><path class="cls-1" d="M396.52,99V88.21c0-1.44-.13-2-.51-2.46a2,2,0,0,0-1.63-.64,6.47,6.47,0,0,0-4,2V99h-2.91V87.09a8.75,8.75,0,0,0-.61-3.81l2.78-.77a5.09,5.09,0,0,1,.54,2.46,13.78,13.78,0,0,1,2.08-1.57,5.94,5.94,0,0,1,3-.8A4,4,0,0,1,399,84.88a5,5,0,0,1,.38,2V99Z" transform="translate(-8.3 -3.47)"/><path class="cls-1" d="M410.95,99.15H408.2l-5.73-16.09,3-.48,3.17,9.7c.35,1.09.7,2.37,1,3.46h.06a28.68,28.68,0,0,1,1-3.52l3-9.22h3.1Z" transform="translate(-8.3 -3.47)"/><path class="cls-1" d="M421.19,80.18a2.08,2.08,0,0,1-2-2.11,2.1,2.1,0,1,1,4.19,0A2.14,2.14,0,0,1,421.19,80.18ZM419.69,99V83.09l3-.48V99Z" transform="translate(-8.3 -3.47)"/><path class="cls-1" d="M435.59,85.58a2.4,2.4,0,0,0-.83-.16,3.35,3.35,0,0,0-3.33,3.26V99h-2.94V87.25a10.23,10.23,0,0,0-.61-4l2.85-.74a6.61,6.61,0,0,1,.54,2.46v.29c1.28-1.86,2.66-2.78,4.35-2.78a2.92,2.92,0,0,1,1,.16Z" transform="translate(-8.3 -3.47)"/><path class="cls-1" d="M445.06,99.47c-4.29,0-6.94-3.26-6.94-8.48s2.66-8.45,6.88-8.45c4.74,0,7,3.78,7,8.61C452,96.24,449.32,99.47,445.06,99.47ZM445,84.82c-2.56,0-3.62,1.82-3.62,5.86,0,4.9,1.25,6.53,3.74,6.53,2.24,0,3.62-1.73,3.62-5.92C448.74,86.32,447.3,84.82,445,84.82Z" transform="translate(-8.3 -3.47)"/><path class="cls-1" d="M465.7,99V88.21c0-1.44-.13-2-.51-2.46a2,2,0,0,0-1.63-.64,6.47,6.47,0,0,0-4,2V99h-2.91V87.09a8.76,8.76,0,0,0-.61-3.81l2.78-.77A5.09,5.09,0,0,1,459.4,85a13.86,13.86,0,0,1,2.08-1.57,5.94,5.94,0,0,1,3-.8,4,4,0,0,1,3.78,2.27,5,5,0,0,1,.38,2V99Z" transform="translate(-8.3 -3.47)"/><path class="cls-1" d="M491.49,99V87.54c0-1.82-.58-2.46-1.92-2.46s-2.53,1-3.74,2.18V99h-2.88V87.6c0-1.79-.51-2.46-2-2.46A5.51,5.51,0,0,0,477.29,87V99h-2.91V87.25a8.71,8.71,0,0,0-.58-4l2.75-.67a4.53,4.53,0,0,1,.54,2.24,6.54,6.54,0,0,1,4.51-2.27,4.14,4.14,0,0,1,3.81,2.53,6.87,6.87,0,0,1,4.9-2.53c2.5,0,4.1,1.57,4.1,4.51V99Z" transform="translate(-8.3 -3.47)"/><path class="cls-1" d="M502.5,91.63V92a6,6,0,0,0,.67,3.2,4.18,4.18,0,0,0,3.68,1.89,5.7,5.7,0,0,0,3.94-1.54l1.12,1.76a8.18,8.18,0,0,1-5.54,2c-4.45,0-7.17-3.23-7.17-8.48,0-2.78.54-4.58,1.92-6.21A6,6,0,0,1,506,82.48a5.78,5.78,0,0,1,4.35,1.73c1.41,1.44,1.92,3.23,2,6.91v.51Zm5.7-5.79a2.88,2.88,0,0,0-2.3-1.12c-2.24,0-3.36,1.82-3.36,4.74h6.66A5.86,5.86,0,0,0,508.2,85.84Z" transform="translate(-8.3 -3.47)"/><path class="cls-1" d="M525.76,99V88.21c0-1.44-.13-2-.51-2.46a2,2,0,0,0-1.63-.64,6.47,6.47,0,0,0-4,2V99h-2.91V87.09a8.74,8.74,0,0,0-.61-3.81l2.78-.77a5.09,5.09,0,0,1,.54,2.46,13.76,13.76,0,0,1,2.08-1.57,5.94,5.94,0,0,1,3-.8,4,4,0,0,1,3.78,2.27,5,5,0,0,1,.38,2V99Z" transform="translate(-8.3 -3.47)"/><path class="cls-1" d="M540.48,85.07h-3.17v9.66c0,2,.48,2.59,2.08,2.59a3.54,3.54,0,0,0,1.5-.32l.35,1.79a6.38,6.38,0,0,1-2.91.67,4.57,4.57,0,0,1-2.82-.86c-.64-.58-1.09-1-1.09-3.2V85.07h-1.92V83h1.92a34.73,34.73,0,0,1,.19-4.1l3-.7c-.13,1.15-.29,3.17-.29,4.8h3.9Z" transform="translate(-8.3 -3.47)"/><path class="cls-1" d="M548.64,97.58a11.37,11.37,0,0,1-6.27,6.53l-.77-1.54A9.17,9.17,0,0,0,546,96.91a31.59,31.59,0,0,0,1-8.26,28.91,28.91,0,0,0-.87-7.26c-.7-2.59-2.08-4.06-4.42-5.63l.74-1.54a12.93,12.93,0,0,1,6,5.89c1.18,2.24,1.54,5.7,1.54,8.61A26.33,26.33,0,0,1,548.64,97.58Z" transform="translate(-8.3 -3.47)"/><path class="cls-1" d="M556.55,99.47a2.4,2.4,0,1,1,2.27-2.4A2.31,2.31,0,0,1,556.55,99.47Z" transform="translate(-8.3 -3.47)"/><path class="cls-1" d="M571.3,99V77h3.13V99Z" transform="translate(-8.3 -3.47)"/><path class="cls-1" d="M589.22,99V88.21c0-1.44-.13-2-.51-2.46a2,2,0,0,0-1.63-.64,6.47,6.47,0,0,0-4,2V99H580.2V87.09a8.74,8.74,0,0,0-.61-3.81l2.78-.77a5.09,5.09,0,0,1,.54,2.46A13.76,13.76,0,0,1,585,83.41a5.94,5.94,0,0,1,3-.8,4,4,0,0,1,3.78,2.27,5,5,0,0,1,.38,2V99Z" transform="translate(-8.3 -3.47)"/><path class="cls-1" d="M603.65,99.15H600.9l-5.73-16.09,3-.48,3.17,9.7c.35,1.09.7,2.37,1,3.46h.06a28.57,28.57,0,0,1,1-3.52l3-9.22h3.1Z" transform="translate(-8.3 -3.47)"/><path class="cls-1" d="M614.63,91.63V92a6,6,0,0,0,.67,3.2A4.18,4.18,0,0,0,619,97.1a5.7,5.7,0,0,0,3.94-1.54L624,97.33a8.18,8.18,0,0,1-5.54,2c-4.45,0-7.17-3.23-7.17-8.48,0-2.78.54-4.58,1.92-6.21a6,6,0,0,1,4.83-2.21,5.78,5.78,0,0,1,4.35,1.73c1.41,1.44,1.92,3.23,2,6.91v.51Zm5.7-5.79a2.88,2.88,0,0,0-2.3-1.12c-2.24,0-3.36,1.82-3.36,4.74h6.66A5.86,5.86,0,0,0,620.32,85.84Z" transform="translate(-8.3 -3.47)"/><path class="cls-1" d="M633.41,99.47a12.21,12.21,0,0,1-6-1.7l1.06-2.11a10.93,10.93,0,0,0,5.15,1.6c1.76,0,3-1,3-2.59,0-1.38-.83-2.18-2.69-2.53l-2-.38c-2.53-.51-3.9-2.08-3.9-4.45,0-2.94,2.34-5,5.79-5a10.2,10.2,0,0,1,5.06,1.31l-1,2.08A8.68,8.68,0,0,0,634,84.56c-1.7,0-2.78,1-2.78,2.4,0,1.15.58,1.79,2.27,2.18l2.08.48c2.94.67,4.16,2.37,4.16,4.48C639.72,97.3,637.16,99.47,633.41,99.47Z" transform="translate(-8.3 -3.47)"/><path class="cls-1" d="M650.08,85.07h-3.17v9.66c0,2,.48,2.59,2.08,2.59a3.54,3.54,0,0,0,1.5-.32l.35,1.79a6.38,6.38,0,0,1-2.91.67,4.57,4.57,0,0,1-2.82-.86c-.64-.58-1.09-1-1.09-3.2V85.07h-1.92V83H644a34.73,34.73,0,0,1,.19-4.1l3-.7c-.13,1.15-.29,3.17-.29,4.8h3.9Z" transform="translate(-8.3 -3.47)"/><path class="cls-1" d="M671.36,99V87.54c0-1.82-.58-2.46-1.92-2.46s-2.53,1-3.74,2.18V99h-2.88V87.6c0-1.79-.51-2.46-2-2.46A5.51,5.51,0,0,0,657.16,87V99h-2.91V87.25a8.71,8.71,0,0,0-.58-4l2.75-.67a4.53,4.53,0,0,1,.54,2.24,6.54,6.54,0,0,1,4.51-2.27,4.14,4.14,0,0,1,3.81,2.53,6.87,6.87,0,0,1,4.9-2.53c2.5,0,4.1,1.57,4.1,4.51V99Z" transform="translate(-8.3 -3.47)"/><path class="cls-1" d="M682.37,91.63V92a6,6,0,0,0,.67,3.2,4.18,4.18,0,0,0,3.68,1.89,5.7,5.7,0,0,0,3.94-1.54l1.12,1.76a8.18,8.18,0,0,1-5.54,2c-4.45,0-7.17-3.23-7.17-8.48,0-2.78.54-4.58,1.92-6.21a6,6,0,0,1,4.83-2.21,5.78,5.78,0,0,1,4.35,1.73c1.41,1.44,1.92,3.23,2,6.91v.51Zm5.7-5.79a2.88,2.88,0,0,0-2.3-1.12c-2.24,0-3.36,1.82-3.36,4.74h6.66A5.86,5.86,0,0,0,688.07,85.84Z" transform="translate(-8.3 -3.47)"/><path class="cls-1" d="M705.64,99V88.21c0-1.44-.13-2-.51-2.46a2,2,0,0,0-1.63-.64,6.47,6.47,0,0,0-4,2V99h-2.91V87.09a8.74,8.74,0,0,0-.61-3.81l2.78-.77a5.09,5.09,0,0,1,.54,2.46,13.76,13.76,0,0,1,2.08-1.57,5.94,5.94,0,0,1,3-.8,4,4,0,0,1,3.78,2.27,5,5,0,0,1,.38,2V99Z" transform="translate(-8.3 -3.47)"/><path class="cls-1" d="M720.36,85.07h-3.17v9.66c0,2,.48,2.59,2.08,2.59a3.54,3.54,0,0,0,1.5-.32l.35,1.79a6.38,6.38,0,0,1-2.91.67,4.57,4.57,0,0,1-2.82-.86c-.64-.58-1.09-1-1.09-3.2V85.07h-1.92V83h1.92a34.73,34.73,0,0,1,.19-4.1l3-.7c-.13,1.15-.29,3.17-.29,4.8h3.9Z" transform="translate(-8.3 -3.47)"/><path class="cls-1" d="M741.67,99a6.22,6.22,0,0,1-.29-1.5,5.35,5.35,0,0,1-4.13,1.76c-4.1,0-6.5-3.07-6.5-8.13,0-3.46,1.18-6.11,3.36-7.52a5.54,5.54,0,0,1,3.14-.93,4.78,4.78,0,0,1,3.9,1.86c0-.45-.06-1.73-.06-2.82V75.51L744,76V93.65a19.23,19.23,0,0,0,.45,5.38Zm-.61-12.45a4.1,4.1,0,0,0-3.39-1.5,3.14,3.14,0,0,0-2.79,1.63,8.52,8.52,0,0,0-.83,4.42c0,3.1.38,4,1.25,4.86a3,3,0,0,0,2.37.83A3.8,3.8,0,0,0,741.06,95Z" transform="translate(-8.3 -3.47)"/><path class="cls-1" d="M752.13,91.63V92a6,6,0,0,0,.67,3.2,4.18,4.18,0,0,0,3.68,1.89,5.7,5.7,0,0,0,3.94-1.54l1.12,1.76a8.19,8.19,0,0,1-5.54,2c-4.45,0-7.17-3.23-7.17-8.48,0-2.78.54-4.58,1.92-6.21a6,6,0,0,1,4.83-2.21,5.78,5.78,0,0,1,4.35,1.73c1.41,1.44,1.92,3.23,2,6.91v.51Zm5.7-5.79a2.88,2.88,0,0,0-2.3-1.12c-2.24,0-3.36,1.82-3.36,4.74h6.66A5.86,5.86,0,0,0,757.83,85.84Z" transform="translate(-8.3 -3.47)"/><path class="cls-1" d="M772.1,99.34a5.87,5.87,0,0,1-5.15-2.4,9.68,9.68,0,0,1-1.54-5.79c0-3.62,1.15-5.7,2.69-7.07a6.27,6.27,0,0,1,8.51.06l-1.54,2a3.91,3.91,0,0,0-2.82-1.25,3.08,3.08,0,0,0-2.82,1.73,11.36,11.36,0,0,0-.77,4.9c0,2.24.45,3.71,1.28,4.61a3.11,3.11,0,0,0,2.3,1,4.48,4.48,0,0,0,3.33-1.66L777,97.26A6.31,6.31,0,0,1,772.1,99.34Z" transform="translate(-8.3 -3.47)"/><path class="cls-1" d="M782.37,80.18a2.08,2.08,0,0,1-2-2.11,2.1,2.1,0,1,1,4.19,0A2.14,2.14,0,0,1,782.37,80.18ZM780.87,99V83.09l3-.48V99Z" transform="translate(-8.3 -3.47)"/><path class="cls-1" d="M794.05,99.47a12.21,12.21,0,0,1-6-1.7l1.06-2.11a10.93,10.93,0,0,0,5.15,1.6c1.76,0,3-1,3-2.59,0-1.38-.83-2.18-2.69-2.53l-2-.38c-2.53-.51-3.9-2.08-3.9-4.45,0-2.94,2.34-5,5.79-5a10.2,10.2,0,0,1,5.06,1.31l-1,2.08a8.68,8.68,0,0,0-3.94-1.15c-1.7,0-2.78,1-2.78,2.4,0,1.15.58,1.79,2.27,2.18l2.08.48c2.94.67,4.16,2.37,4.16,4.48C800.35,97.3,797.79,99.47,794.05,99.47Z" transform="translate(-8.3 -3.47)"/><path class="cls-1" d="M806,80.18a2.08,2.08,0,0,1-2-2.11,2.1,2.1,0,1,1,4.19,0A2.14,2.14,0,0,1,806,80.18ZM804.52,99V83.09l3-.48V99Z" transform="translate(-8.3 -3.47)"/><path class="cls-1" d="M819.14,99.47c-4.29,0-6.94-3.26-6.94-8.48s2.66-8.45,6.88-8.45c4.74,0,7,3.78,7,8.61C826.11,96.24,823.39,99.47,819.14,99.47Zm-.06-14.65c-2.56,0-3.62,1.82-3.62,5.86,0,4.9,1.25,6.53,3.74,6.53,2.24,0,3.62-1.73,3.62-5.92C822.82,86.32,821.38,84.82,819.07,84.82Z" transform="translate(-8.3 -3.47)"/><path class="cls-1" d="M839.78,99V88.21c0-1.44-.13-2-.51-2.46a2,2,0,0,0-1.63-.64,6.47,6.47,0,0,0-4,2V99h-2.91V87.09a8.74,8.74,0,0,0-.61-3.81l2.78-.77a5.09,5.09,0,0,1,.54,2.46,13.76,13.76,0,0,1,2.08-1.57,5.94,5.94,0,0,1,3-.8,4,4,0,0,1,3.78,2.27,5,5,0,0,1,.38,2V99Z" transform="translate(-8.3 -3.47)"/><path class="cls-1" d="M853,99.47a12.21,12.21,0,0,1-6-1.7l1.05-2.11a10.94,10.94,0,0,0,5.15,1.6c1.76,0,3-1,3-2.59,0-1.38-.83-2.18-2.69-2.53l-2-.38c-2.53-.51-3.9-2.08-3.9-4.45,0-2.94,2.34-5,5.79-5a10.2,10.2,0,0,1,5.06,1.31l-1,2.08a8.67,8.67,0,0,0-3.94-1.15c-1.7,0-2.78,1-2.78,2.4,0,1.15.58,1.79,2.27,2.18l2.08.48c2.94.67,4.16,2.37,4.16,4.48C859.3,97.3,856.74,99.47,853,99.47Z" transform="translate(-8.3 -3.47)"/><path class="cls-1" d="M84.2,135.7a3.66,3.66,0,0,1-2.14-2.3,5.57,5.57,0,0,1-4.54,2.11c-3.2,0-5.18-1.63-5.18-4.7,0-3.71,3-5.7,8.16-5.7.38,0,.7,0,1.12,0v-1.06c0-1.89-.26-3.17-2.5-3.17a8.85,8.85,0,0,0-4.93,1.82l-1.34-2.11a12.62,12.62,0,0,1,6.72-2.11c2.34,0,4,.86,4.64,2.56a7.31,7.31,0,0,1,.32,2.82c0,1.15-.13,3.62-.13,6s.06,3.1,1.31,3.87Zm-3.62-8.61c-2.21,0-3.55.42-4.19,1.15a3.09,3.09,0,0,0-.83,2.34c0,1.76.9,2.78,2.53,2.78a4,4,0,0,0,3.36-2.11l.1-4.1C81.1,127.12,80.84,127.09,80.58,127.09Z" transform="translate(-8.3 -3.47)"/><path class="cls-1" d="M97.32,121.58a2.4,2.4,0,0,0-.83-.16,3.35,3.35,0,0,0-3.33,3.26V135H90.22V123.25a10.24,10.24,0,0,0-.61-4l2.85-.74A6.63,6.63,0,0,1,93,121v.29c1.28-1.86,2.66-2.78,4.35-2.78a2.92,2.92,0,0,1,1,.16Z" transform="translate(-8.3 -3.47)"/><path class="cls-1" d="M103.31,127.63V128a6,6,0,0,0,.67,3.2,4.18,4.18,0,0,0,3.68,1.89,5.7,5.7,0,0,0,3.94-1.54l1.12,1.76a8.19,8.19,0,0,1-5.54,2c-4.45,0-7.17-3.23-7.17-8.48,0-2.78.54-4.58,1.92-6.21a6,6,0,0,1,4.83-2.21,5.78,5.78,0,0,1,4.35,1.73c1.41,1.44,1.92,3.23,2,6.91v.51Zm5.7-5.79a2.88,2.88,0,0,0-2.3-1.12c-2.24,0-3.36,1.82-3.36,4.74H110A5.86,5.86,0,0,0,109,121.84Z" transform="translate(-8.3 -3.47)"/><path class="cls-1" d="M141.86,135V123.54c0-1.82-.58-2.46-1.92-2.46s-2.53,1-3.74,2.18V135h-2.88V123.6c0-1.79-.51-2.46-2-2.46a5.51,5.51,0,0,0-3.68,1.86v12h-2.91V123.25a8.72,8.72,0,0,0-.58-4l2.75-.67a4.54,4.54,0,0,1,.54,2.24,6.55,6.55,0,0,1,4.51-2.27,4.14,4.14,0,0,1,3.81,2.53,6.87,6.87,0,0,1,4.9-2.53c2.5,0,4.1,1.57,4.1,4.51v12Z" transform="translate(-8.3 -3.47)"/><path class="cls-1" d="M161,135.7a3.66,3.66,0,0,1-2.14-2.3,5.57,5.57,0,0,1-4.54,2.11c-3.2,0-5.18-1.63-5.18-4.7,0-3.71,3-5.7,8.16-5.7.38,0,.7,0,1.12,0v-1.06c0-1.89-.26-3.17-2.5-3.17a8.85,8.85,0,0,0-4.93,1.82l-1.34-2.11a12.62,12.62,0,0,1,6.72-2.11c2.34,0,4,.86,4.64,2.56a7.31,7.31,0,0,1,.32,2.82c0,1.15-.13,3.62-.13,6s.06,3.1,1.31,3.87Zm-3.62-8.61c-2.21,0-3.55.42-4.19,1.15a3.09,3.09,0,0,0-.83,2.34c0,1.76.9,2.78,2.53,2.78a4,4,0,0,0,3.36-2.11l.1-4.1C157.86,127.12,157.61,127.09,157.35,127.09Z" transform="translate(-8.3 -3.47)"/><path class="cls-1" d="M176.94,135a6.24,6.24,0,0,1-.29-1.5,5.35,5.35,0,0,1-4.13,1.76c-4.1,0-6.5-3.07-6.5-8.13,0-3.46,1.18-6.11,3.36-7.52a5.53,5.53,0,0,1,3.14-.93,4.78,4.78,0,0,1,3.9,1.86c0-.45-.06-1.73-.06-2.82v-6.24l2.94.48v17.66a19.2,19.2,0,0,0,.45,5.38Zm-.61-12.45a4.11,4.11,0,0,0-3.39-1.5,3.14,3.14,0,0,0-2.78,1.63,8.52,8.52,0,0,0-.83,4.42c0,3.1.38,4,1.25,4.86a3,3,0,0,0,2.37.83,3.8,3.8,0,0,0,3.39-1.86Z" transform="translate(-8.3 -3.47)"/><path class="cls-1" d="M187.4,127.63V128a6,6,0,0,0,.67,3.2,4.18,4.18,0,0,0,3.68,1.89,5.7,5.7,0,0,0,3.94-1.54l1.12,1.76a8.19,8.19,0,0,1-5.54,2c-4.45,0-7.17-3.23-7.17-8.48,0-2.78.54-4.58,1.92-6.21a6,6,0,0,1,4.83-2.21,5.78,5.78,0,0,1,4.35,1.73c1.41,1.44,1.92,3.23,2,6.91v.51Zm5.7-5.79a2.88,2.88,0,0,0-2.3-1.12c-2.24,0-3.36,1.82-3.36,4.74h6.66A5.86,5.86,0,0,0,193.1,121.84Z" transform="translate(-8.3 -3.47)"/><path class="cls-1" d="M214.89,121.07h-3.17v9.66c0,2,.48,2.59,2.08,2.59a3.54,3.54,0,0,0,1.5-.32l.35,1.79a6.38,6.38,0,0,1-2.91.67,4.57,4.57,0,0,1-2.82-.86c-.64-.58-1.09-1-1.09-3.2V121.07h-1.92V119h1.92a34.73,34.73,0,0,1,.19-4.1l3-.7c-.13,1.15-.29,3.17-.29,4.8h3.9Z" transform="translate(-8.3 -3.47)"/><path class="cls-1" d="M228.9,135V124a3.53,3.53,0,0,0-.54-2.24,2.56,2.56,0,0,0-1.76-.61,6.14,6.14,0,0,0-4.26,2.34V135h-3V115.54a14,14,0,0,0-.35-3.36l3-.61a16.34,16.34,0,0,1,.35,3.71v3.58c0,.58,0,1.31-.1,2.14a11,11,0,0,1,1.7-1.31,6.19,6.19,0,0,1,3.49-1.09,4.1,4.1,0,0,1,4,2.4,6.51,6.51,0,0,1,.32,2.59V135Z" transform="translate(-8.3 -3.47)"/><path class="cls-1" d="M244.65,121.58a2.4,2.4,0,0,0-.83-.16,3.35,3.35,0,0,0-3.33,3.26V135h-2.94V123.25a10.24,10.24,0,0,0-.61-4l2.85-.74a6.63,6.63,0,0,1,.54,2.46v.29c1.28-1.86,2.66-2.78,4.35-2.78a2.92,2.92,0,0,1,1,.16Z" transform="translate(-8.3 -3.47)"/><path class="cls-1" d="M254.12,135.47c-4.29,0-6.94-3.26-6.94-8.48s2.66-8.45,6.88-8.45c4.74,0,7,3.78,7,8.61C261.09,132.24,258.37,135.47,254.12,135.47Zm-.06-14.65c-2.56,0-3.62,1.82-3.62,5.86,0,4.9,1.25,6.53,3.74,6.53,2.24,0,3.62-1.73,3.62-5.92C257.8,122.32,256.36,120.82,254.06,120.82Z" transform="translate(-8.3 -3.47)"/><path class="cls-1" d="M276.61,135.57a3.78,3.78,0,0,1-1.5-2.3,5.88,5.88,0,0,1-4.83,2.3,4.51,4.51,0,0,1-4.32-2.4,6.82,6.82,0,0,1-.38-2.69V119.09l2.91-.58v11.17c0,1.63.16,2.27.74,2.82a2.93,2.93,0,0,0,1.86.7,4.41,4.41,0,0,0,3.65-2.53V119.15l2.91-.58v12.06c0,1.63.35,2.78,1,3.33Z" transform="translate(-8.3 -3.47)"/><path class="cls-1" d="M295.17,121.27a3.81,3.81,0,0,1-1.38-.26A4.48,4.48,0,0,1,295,124c0,2.3-1.57,5-5.76,5-1,.32-2.53,1.06-2.53,1.76,0,.48.38.8,1.15.8h2.46c4.1,0,5.79,1.92,5.79,4.42,0,3.46-2.85,5.18-6.75,5.18-4.48,0-7-1.57-7-4.22a4.8,4.8,0,0,1,.29-1.63l2.88-.16a3.09,3.09,0,0,0-.29,1.22c0,1.66,1.38,2.56,3.87,2.56s3.94-1.06,3.94-2.75c0-1.54-1.25-2.43-4.42-2.43-1.12,0-2.4-.1-3-.16-1.41-.16-2.24-1-2.24-2.14,0-1.5,1.31-2.14,3.14-2.82-2.46-.74-3.78-2.4-3.78-4.61,0-3.23,2.46-5.38,6.14-5.38a7.83,7.83,0,0,1,2.5.35,9,9,0,0,0,2.4.51,4.38,4.38,0,0,0,2.62-.93l1.5,1.82A4,4,0,0,1,295.17,121.27Zm-6.43-.42c-1.89,0-2.91,1-2.91,3.07a2.65,2.65,0,0,0,2.94,3c1.92,0,2.91-1.06,2.91-3S290.76,120.85,288.74,120.85Z" transform="translate(-8.3 -3.47)"/><path class="cls-1" d="M310.25,135V124a3.53,3.53,0,0,0-.54-2.24,2.56,2.56,0,0,0-1.76-.61,6.14,6.14,0,0,0-4.26,2.34V135h-3V115.54a14,14,0,0,0-.35-3.36l3-.61a16.34,16.34,0,0,1,.35,3.71v3.58c0,.58,0,1.31-.1,2.14a11,11,0,0,1,1.7-1.31,6.19,6.19,0,0,1,3.49-1.09,4.1,4.1,0,0,1,4,2.4,6.51,6.51,0,0,1,.32,2.59V135Z" transform="translate(-8.3 -3.47)"/><path class="cls-1" d="M328.42,127.63V128a6,6,0,0,0,.67,3.2,4.18,4.18,0,0,0,3.68,1.89,5.7,5.7,0,0,0,3.94-1.54l1.12,1.76a8.19,8.19,0,0,1-5.54,2c-4.45,0-7.17-3.23-7.17-8.48,0-2.78.54-4.58,1.92-6.21a6,6,0,0,1,4.83-2.21,5.78,5.78,0,0,1,4.35,1.73c1.41,1.44,1.92,3.23,2,6.91v.51Zm5.7-5.79a2.88,2.88,0,0,0-2.3-1.12c-2.24,0-3.36,1.82-3.36,4.74h6.66A5.86,5.86,0,0,0,334.12,121.84Z" transform="translate(-8.3 -3.47)"/><path class="cls-1" d="M351.21,135c-.77-1.31-3-5-3.87-6.5-.9,1.57-3.23,5.44-3.9,6.5h-3.65l6-8.83-4.74-7,3.33-.42c.67,1.09,2.21,3.84,3.1,5.38.74-1.5,2-4,2.75-5.18h3.42l-4.67,7.2,6,8.83Z" transform="translate(-8.3 -3.47)"/><path class="cls-1" d="M359.11,116.18a2.08,2.08,0,0,1-2-2.11,2.1,2.1,0,1,1,4.19,0A2.14,2.14,0,0,1,359.11,116.18ZM357.61,135V119.09l3-.48V135Z" transform="translate(-8.3 -3.47)"/><path class="cls-1" d="M370.79,135.47a12.21,12.21,0,0,1-6-1.7l1.06-2.11a10.93,10.93,0,0,0,5.15,1.6c1.76,0,3-1,3-2.59,0-1.38-.83-2.18-2.69-2.53l-2-.38c-2.53-.51-3.9-2.08-3.9-4.45,0-2.94,2.34-5,5.79-5a10.19,10.19,0,0,1,5.06,1.31l-1,2.08a8.67,8.67,0,0,0-3.94-1.15c-1.7,0-2.78,1-2.78,2.4,0,1.15.58,1.79,2.27,2.18l2.08.48c2.94.67,4.16,2.37,4.16,4.48C377.09,133.3,374.53,135.47,370.79,135.47Z" transform="translate(-8.3 -3.47)"/><path class="cls-1" d="M387.46,121.07h-3.17v9.66c0,2,.48,2.59,2.08,2.59a3.54,3.54,0,0,0,1.5-.32l.35,1.79a6.38,6.38,0,0,1-2.91.67,4.57,4.57,0,0,1-2.82-.86c-.64-.58-1.09-1-1.09-3.2V121.07h-1.92V119h1.92a34.73,34.73,0,0,1,.19-4.1l3-.7c-.13,1.15-.29,3.17-.29,4.8h3.9Z" transform="translate(-8.3 -3.47)"/><path class="cls-1" d="M393.45,116.18a2.08,2.08,0,0,1-2-2.11,2.1,2.1,0,1,1,4.19,0A2.14,2.14,0,0,1,393.45,116.18ZM391.94,135V119.09l3-.48V135Z" transform="translate(-8.3 -3.47)"/><path class="cls-1" d="M409.77,135V124.21c0-1.44-.13-2-.51-2.46a2,2,0,0,0-1.63-.64,6.47,6.47,0,0,0-4,2V135h-2.91V123.09a8.75,8.75,0,0,0-.61-3.81l2.78-.77a5.09,5.09,0,0,1,.54,2.46,13.81,13.81,0,0,1,2.08-1.57,5.94,5.94,0,0,1,3-.8,4,4,0,0,1,3.78,2.27,5,5,0,0,1,.38,2V135Z" transform="translate(-8.3 -3.47)"/><path class="cls-1" d="M430.21,121.27a3.81,3.81,0,0,1-1.38-.26A4.48,4.48,0,0,1,430,124c0,2.3-1.57,5-5.76,5-1,.32-2.53,1.06-2.53,1.76,0,.48.38.8,1.15.8h2.46c4.1,0,5.79,1.92,5.79,4.42,0,3.46-2.85,5.18-6.75,5.18-4.48,0-7-1.57-7-4.22a4.8,4.8,0,0,1,.29-1.63l2.88-.16a3.09,3.09,0,0,0-.29,1.22c0,1.66,1.38,2.56,3.87,2.56s3.94-1.06,3.94-2.75c0-1.54-1.25-2.43-4.42-2.43-1.12,0-2.4-.1-3-.16-1.41-.16-2.24-1-2.24-2.14,0-1.5,1.31-2.14,3.14-2.82-2.46-.74-3.78-2.4-3.78-4.61,0-3.23,2.46-5.38,6.14-5.38a7.83,7.83,0,0,1,2.5.35,9,9,0,0,0,2.4.51,4.38,4.38,0,0,0,2.62-.93l1.5,1.82A4,4,0,0,1,430.21,121.27Zm-6.43-.42c-1.89,0-2.91,1-2.91,3.07a2.65,2.65,0,0,0,2.94,3c1.92,0,2.91-1.06,2.91-3S425.8,120.85,423.78,120.85Z" transform="translate(-8.3 -3.47)"/><path class="cls-1" d="M454.72,121.27a3.82,3.82,0,0,1-1.38-.26A4.48,4.48,0,0,1,454.5,124c0,2.3-1.57,5-5.76,5-1,.32-2.53,1.06-2.53,1.76,0,.48.38.8,1.15.8h2.46c4.1,0,5.79,1.92,5.79,4.42,0,3.46-2.85,5.18-6.75,5.18-4.48,0-7-1.57-7-4.22a4.8,4.8,0,0,1,.29-1.63l2.88-.16a3.09,3.09,0,0,0-.29,1.22c0,1.66,1.38,2.56,3.87,2.56s3.94-1.06,3.94-2.75c0-1.54-1.25-2.43-4.42-2.43-1.12,0-2.4-.1-3-.16-1.41-.16-2.24-1-2.24-2.14,0-1.5,1.31-2.14,3.13-2.82-2.46-.74-3.78-2.4-3.78-4.61,0-3.23,2.46-5.38,6.14-5.38a7.83,7.83,0,0,1,2.5.35,9,9,0,0,0,2.4.51,4.38,4.38,0,0,0,2.62-.93l1.5,1.82A4,4,0,0,1,454.72,121.27Zm-6.43-.42c-1.89,0-2.91,1-2.91,3.07a2.65,2.65,0,0,0,2.94,3c1.92,0,2.91-1.06,2.91-3S450.31,120.85,448.29,120.85Z" transform="translate(-8.3 -3.47)"/><path class="cls-1" d="M465.76,135.47c-4.29,0-6.94-3.26-6.94-8.48s2.66-8.45,6.88-8.45c4.74,0,7,3.78,7,8.61C472.74,132.24,470,135.47,465.76,135.47Zm-.06-14.65c-2.56,0-3.62,1.82-3.62,5.86,0,4.9,1.25,6.53,3.74,6.53,2.24,0,3.62-1.73,3.62-5.92C469.44,122.32,468,120.82,465.7,120.82Z" transform="translate(-8.3 -3.47)"/><path class="cls-1" d="M483.14,135.15h-2.75l-5.73-16.09,3-.48,3.17,9.7c.35,1.09.7,2.37,1,3.46h.06a28.6,28.6,0,0,1,1-3.52l3-9.22H489Z" transform="translate(-8.3 -3.47)"/><path class="cls-1" d="M494.12,127.63V128a6,6,0,0,0,.67,3.2,4.18,4.18,0,0,0,3.68,1.89,5.7,5.7,0,0,0,3.94-1.54l1.12,1.76a8.18,8.18,0,0,1-5.54,2c-4.45,0-7.17-3.23-7.17-8.48,0-2.78.54-4.58,1.92-6.21a6,6,0,0,1,4.83-2.21,5.78,5.78,0,0,1,4.35,1.73c1.41,1.44,1.92,3.23,2,6.91v.51Zm5.7-5.79a2.88,2.88,0,0,0-2.3-1.12c-2.24,0-3.36,1.82-3.36,4.74h6.66A5.86,5.86,0,0,0,499.81,121.84Z" transform="translate(-8.3 -3.47)"/><path class="cls-1" d="M515.46,121.58a2.41,2.41,0,0,0-.83-.16,3.35,3.35,0,0,0-3.33,3.26V135h-2.94V123.25a10.24,10.24,0,0,0-.61-4l2.85-.74a6.63,6.63,0,0,1,.54,2.46v.29c1.28-1.86,2.66-2.78,4.35-2.78a2.92,2.92,0,0,1,1,.16Z" transform="translate(-8.3 -3.47)"/><path class="cls-1" d="M528.55,135V124.21c0-1.44-.13-2-.51-2.46a2,2,0,0,0-1.63-.64,6.47,6.47,0,0,0-4,2V135h-2.91V123.09a8.74,8.74,0,0,0-.61-3.81l2.78-.77a5.1,5.1,0,0,1,.54,2.46,13.86,13.86,0,0,1,2.08-1.57,5.94,5.94,0,0,1,3-.8,4,4,0,0,1,3.78,2.27,5,5,0,0,1,.38,2V135Z" transform="translate(-8.3 -3.47)"/><path class="cls-1" d="M554.34,135V123.54c0-1.82-.58-2.46-1.92-2.46s-2.53,1-3.74,2.18V135H545.8V123.6c0-1.79-.51-2.46-2-2.46a5.51,5.51,0,0,0-3.68,1.86v12h-2.91V123.25a8.72,8.72,0,0,0-.58-4l2.75-.67a4.53,4.53,0,0,1,.54,2.24,6.55,6.55,0,0,1,4.51-2.27,4.14,4.14,0,0,1,3.81,2.53,6.87,6.87,0,0,1,4.9-2.53c2.5,0,4.1,1.57,4.1,4.51v12Z" transform="translate(-8.3 -3.47)"/><path class="cls-1" d="M565.35,127.63V128a6,6,0,0,0,.67,3.2,4.18,4.18,0,0,0,3.68,1.89,5.7,5.7,0,0,0,3.94-1.54l1.12,1.76a8.19,8.19,0,0,1-5.54,2c-4.45,0-7.17-3.23-7.17-8.48,0-2.78.54-4.58,1.92-6.21a6,6,0,0,1,4.83-2.21,5.79,5.79,0,0,1,4.35,1.73c1.41,1.44,1.92,3.23,2,6.91v.51Zm5.7-5.79a2.88,2.88,0,0,0-2.3-1.12c-2.24,0-3.36,1.82-3.36,4.74H572A5.86,5.86,0,0,0,571,121.84Z" transform="translate(-8.3 -3.47)"/><path class="cls-1" d="M588.61,135V124.21c0-1.44-.13-2-.51-2.46a2,2,0,0,0-1.63-.64,6.47,6.47,0,0,0-4,2V135h-2.91V123.09a8.76,8.76,0,0,0-.61-3.81l2.78-.77a5.08,5.08,0,0,1,.54,2.46,13.71,13.71,0,0,1,2.08-1.57,5.94,5.94,0,0,1,3-.8,4,4,0,0,1,3.78,2.27,5,5,0,0,1,.38,2V135Z" transform="translate(-8.3 -3.47)"/><path class="cls-1" d="M603.33,121.07h-3.17v9.66c0,2,.48,2.59,2.08,2.59a3.54,3.54,0,0,0,1.5-.32l.35,1.79a6.38,6.38,0,0,1-2.91.67,4.57,4.57,0,0,1-2.82-.86c-.64-.58-1.09-1-1.09-3.2V121.07h-1.92V119h1.92a34.73,34.73,0,0,1,.19-4.1l3-.7c-.13,1.15-.29,3.17-.29,4.8h3.9Z" transform="translate(-8.3 -3.47)"/><path class="cls-1" d="M631.81,135V123.54c0-1.82-.58-2.46-1.92-2.46s-2.53,1-3.74,2.18V135h-2.88V123.6c0-1.79-.51-2.46-2-2.46A5.51,5.51,0,0,0,617.6,123v12h-2.91V123.25a8.71,8.71,0,0,0-.58-4l2.75-.67a4.53,4.53,0,0,1,.54,2.24,6.54,6.54,0,0,1,4.51-2.27,4.14,4.14,0,0,1,3.81,2.53,6.87,6.87,0,0,1,4.9-2.53c2.5,0,4.1,1.57,4.1,4.51v12Z" transform="translate(-8.3 -3.47)"/><path class="cls-1" d="M642.82,127.63V128a6,6,0,0,0,.67,3.2,4.18,4.18,0,0,0,3.68,1.89,5.7,5.7,0,0,0,3.94-1.54l1.12,1.76a8.18,8.18,0,0,1-5.54,2c-4.45,0-7.17-3.23-7.17-8.48,0-2.78.54-4.58,1.92-6.21a6,6,0,0,1,4.83-2.21,5.78,5.78,0,0,1,4.35,1.73c1.41,1.44,1.92,3.23,2,6.91v.51Zm5.7-5.79a2.88,2.88,0,0,0-2.3-1.12c-2.24,0-3.36,1.82-3.36,4.74h6.66A5.86,5.86,0,0,0,648.52,121.84Z" transform="translate(-8.3 -3.47)"/><path class="cls-1" d="M662.79,135.34a5.88,5.88,0,0,1-5.15-2.4,9.7,9.7,0,0,1-1.54-5.79c0-3.62,1.15-5.7,2.69-7.07a6.27,6.27,0,0,1,8.51.06l-1.54,2a3.91,3.91,0,0,0-2.82-1.25,3.09,3.09,0,0,0-2.82,1.73,11.4,11.4,0,0,0-.77,4.9c0,2.24.45,3.71,1.28,4.61a3.11,3.11,0,0,0,2.3,1,4.49,4.49,0,0,0,3.33-1.66l1.44,1.82A6.31,6.31,0,0,1,662.79,135.34Z" transform="translate(-8.3 -3.47)"/><path class="cls-1" d="M681.25,135V124a3.53,3.53,0,0,0-.54-2.24,2.56,2.56,0,0,0-1.76-.61,6.14,6.14,0,0,0-4.26,2.34V135h-3V115.54a14,14,0,0,0-.35-3.36l3-.61a16.37,16.37,0,0,1,.35,3.71v3.58c0,.58,0,1.31-.1,2.14a11,11,0,0,1,1.7-1.31,6.2,6.2,0,0,1,3.49-1.09,4.1,4.1,0,0,1,4,2.4,6.51,6.51,0,0,1,.32,2.59V135Z" transform="translate(-8.3 -3.47)"/><path class="cls-1" d="M700.32,135.7a3.66,3.66,0,0,1-2.14-2.3,5.57,5.57,0,0,1-4.54,2.11c-3.2,0-5.18-1.63-5.18-4.7,0-3.71,3-5.7,8.16-5.7.38,0,.7,0,1.12,0v-1.06c0-1.89-.26-3.17-2.5-3.17a8.85,8.85,0,0,0-4.93,1.82L689,120.63a12.62,12.62,0,0,1,6.72-2.11c2.34,0,4,.86,4.64,2.56a7.3,7.3,0,0,1,.32,2.82c0,1.15-.13,3.62-.13,6s.06,3.1,1.31,3.87Zm-3.62-8.61c-2.21,0-3.55.42-4.19,1.15a3.1,3.1,0,0,0-.83,2.34c0,1.76.9,2.78,2.53,2.78a4,4,0,0,0,3.36-2.11l.1-4.1C697.22,127.12,697,127.09,696.71,127.09Z" transform="translate(-8.3 -3.47)"/><path class="cls-1" d="M715.36,135V124.21c0-1.44-.13-2-.51-2.46a2,2,0,0,0-1.63-.64,6.47,6.47,0,0,0-4,2V135h-2.91V123.09a8.74,8.74,0,0,0-.61-3.81l2.78-.77a5.1,5.1,0,0,1,.54,2.46,13.86,13.86,0,0,1,2.08-1.57,5.94,5.94,0,0,1,3-.8,4,4,0,0,1,3.78,2.27,5,5,0,0,1,.38,2V135Z" transform="translate(-8.3 -3.47)"/><path class="cls-1" d="M725.54,116.18a2.08,2.08,0,0,1-2-2.11,2.1,2.1,0,1,1,4.19,0A2.14,2.14,0,0,1,725.54,116.18ZM724,135V119.09l3-.48V135Z" transform="translate(-8.3 -3.47)"/><path class="cls-1" d="M737.22,135.47a12.21,12.21,0,0,1-6-1.7l1.06-2.11a10.93,10.93,0,0,0,5.15,1.6c1.76,0,3-1,3-2.59,0-1.38-.83-2.18-2.69-2.53l-2-.38c-2.53-.51-3.9-2.08-3.9-4.45,0-2.94,2.34-5,5.79-5a10.2,10.2,0,0,1,5.06,1.31l-1,2.08a8.68,8.68,0,0,0-3.94-1.15c-1.7,0-2.78,1-2.78,2.4,0,1.15.58,1.79,2.27,2.18l2.08.48c2.94.67,4.16,2.37,4.16,4.48C743.52,133.3,741,135.47,737.22,135.47Z" transform="translate(-8.3 -3.47)"/><path class="cls-1" d="M765,135V123.54c0-1.82-.58-2.46-1.92-2.46s-2.53,1-3.74,2.18V135h-2.88V123.6c0-1.79-.51-2.46-2-2.46a5.51,5.51,0,0,0-3.68,1.86v12h-2.91V123.25a8.73,8.73,0,0,0-.58-4l2.75-.67a4.54,4.54,0,0,1,.54,2.24,6.55,6.55,0,0,1,4.51-2.27,4.14,4.14,0,0,1,3.81,2.53,6.87,6.87,0,0,1,4.89-2.53c2.5,0,4.1,1.57,4.1,4.51v12Z" transform="translate(-8.3 -3.47)"/><path class="cls-1" d="M778.18,135.47a12.21,12.21,0,0,1-6-1.7l1.06-2.11a10.93,10.93,0,0,0,5.15,1.6c1.76,0,3-1,3-2.59,0-1.38-.83-2.18-2.69-2.53l-2-.38c-2.53-.51-3.9-2.08-3.9-4.45,0-2.94,2.34-5,5.79-5a10.19,10.19,0,0,1,5.06,1.31l-1,2.08a8.68,8.68,0,0,0-3.94-1.15c-1.7,0-2.78,1-2.78,2.4,0,1.15.58,1.79,2.27,2.18l2.08.48c2.94.67,4.16,2.37,4.16,4.48C784.48,133.3,781.92,135.47,778.18,135.47Z" transform="translate(-8.3 -3.47)"/><path class="cls-1" d="M790.76,135.47a2.4,2.4,0,1,1,2.27-2.4A2.31,2.31,0,0,1,790.76,135.47Z" transform="translate(-8.3 -3.47)"/></g></g></svg>