<svg id="Layer_1" data-name="Layer 1" xmlns="http://www.w3.org/2000/svg" viewBox="0 0 523 173"><defs><style>.cls-1{fill:#e6e7e8;}.cls-2{fill:#4c4c4e;}</style></defs><title>IP_sc4_cairnsBtn</title><path class="cls-1" d="M35.95,126.22a9.82,9.82,0,0,0,9.8,9.8h431a9.82,9.82,0,0,0,9.8-9.8V45.82a9.82,9.82,0,0,0-9.8-9.8h-431a9.82,9.82,0,0,0-9.8,9.8Z"/><path class="cls-2" d="M227.76,95.34a10.21,10.21,0,0,1-8.17-3.46,13.05,13.05,0,0,1-3-9,16,16,0,0,1,1.69-7.78,10.75,10.75,0,0,1,9.58-5.79,10.23,10.23,0,0,1,6.33,2l-2.27,3.42a6.59,6.59,0,0,0-4-1.4,5.18,5.18,0,0,0-4.25,2.16c-1,1.44-1.4,3.53-1.4,6.44,0,3.42.29,5.33,1,6.69a5.2,5.2,0,0,0,4.82,2.81,6.47,6.47,0,0,0,4.28-1.62l2.3,3.17A10.22,10.22,0,0,1,227.76,95.34Z"/><path class="cls-2" d="M250.08,95.84a5.15,5.15,0,0,1-2.59-2.23,9,9,0,0,1-1.12,1,6.37,6.37,0,0,1-3.71,1c-4.1,0-6.34-2.09-6.34-5.76,0-4.32,3-6.33,8.86-6.33.36,0,.68,0,1.08,0v-.76c0-2.05-.4-2.74-2.16-2.74a10.15,10.15,0,0,0-5.33,2.09l-2.05-3.46a17.77,17.77,0,0,1,3-1.51,12.47,12.47,0,0,1,5-1.08c3.1,0,5.22,1.15,5.94,3.2a8.53,8.53,0,0,1,.32,3.31l-.11,6.19c0,2,.11,2.88,1.73,4.1Zm-4.1-9c-3.35,0-4.5.61-4.5,2.81a2.19,2.19,0,0,0,2.12,2.41,3.49,3.49,0,0,0,2.52-1.26l.07-4Z"/><path class="cls-2" d="M258.79,74.39a3,3,0,0,1-3-3,3,3,0,0,1,3-3,2.94,2.94,0,0,1,2.92,3A3,3,0,0,1,258.79,74.39Zm-2.41,20.52V76.8l4.82-.76V94.91Z"/><path class="cls-2" d="M275.79,80.69a2.73,2.73,0,0,0-1.4-.36,3.84,3.84,0,0,0-3,1.55v13h-4.82V82.59a16.69,16.69,0,0,0-.68-5.4L270.24,76a5.93,5.93,0,0,1,.76,2.63A5.65,5.65,0,0,1,275.32,76a3.72,3.72,0,0,1,1.8.4Z"/><path class="cls-2" d="M289.25,94.91v-12c0-2.09-.36-2.7-1.62-2.7a5.63,5.63,0,0,0-3.35,1.66v13h-4.82V81.55a13.3,13.3,0,0,0-.65-4.32L283.1,76a4.72,4.72,0,0,1,.68,2.3,21.43,21.43,0,0,1,2.12-1.37,7.6,7.6,0,0,1,3.31-.79,4.58,4.58,0,0,1,4.43,2.66,7.44,7.44,0,0,1,.36,2.63V94.91Z"/><path class="cls-2" d="M304.95,95.48a16.37,16.37,0,0,1-7.45-2.12l1.73-3.53a13.47,13.47,0,0,0,6.12,2.09,2.26,2.26,0,0,0,2.45-2.09c0-1.26-.9-1.91-2.84-2.27l-2.16-.4a6.5,6.5,0,0,1-3.38-1.87,5.59,5.59,0,0,1-1-3.31c0-3.6,2.84-6,7.13-6a13.85,13.85,0,0,1,6.59,1.73l-1.58,3.24A9.74,9.74,0,0,0,306,79.61c-1.4,0-2.34.72-2.34,1.8s.61,1.44,2.3,1.87l2.23.58c2.27.58,3,1.26,3.67,2.09a4.88,4.88,0,0,1,1,3.13C312.83,92.89,309.66,95.48,304.95,95.48Z"/></svg>