<svg id="Layer_1" data-name="Layer 1" xmlns="http://www.w3.org/2000/svg" viewBox="0 0 523 173"><defs><style>.cls-1{fill:#e6e7e8;}.cls-2{fill:#4c4c4e;}</style></defs><title>IP_sc4_townsvilleBtn</title><path class="cls-1" d="M35.95,124.61a9.82,9.82,0,0,0,9.8,9.8h431a9.82,9.82,0,0,0,9.8-9.8V44.21a9.82,9.82,0,0,0-9.8-9.8h-431a9.82,9.82,0,0,0-9.8,9.8Z"/><path class="cls-2" d="M199.45,72.47h-6V93.31h-5.11V72.47h-6.12V68.29h18Z"/><path class="cls-2" d="M214,91.15a7.53,7.53,0,0,1-6.08,2.56c-5,0-8.28-3.74-8.28-9.54s3.31-9.65,8.28-9.65a7.72,7.72,0,0,1,6.26,2.77C215.68,79,216.33,81,216.33,84,216.33,87.19,215.61,89.35,214,91.15ZM210.1,79.06a2.64,2.64,0,0,0-4.57.9,13.13,13.13,0,0,0-.5,4.1,13,13,0,0,0,.61,4.64,2.67,2.67,0,0,0,2.45,1.51c2.09,0,3-1.87,3-6.23C211.08,81.5,210.75,79.88,210.1,79.06Z"/><path class="cls-2" d="M237.68,93.31h-4.43L231.6,87c-.4-1.48-.83-3.24-1-4.46l-.29-1.84a23.28,23.28,0,0,1-.43,2.38c-.36,1.58-1.15,4.75-1.58,6.48l-.94,3.78h-4.5l-5-18.11,4.79-.54,1.51,7.09c.43,1.91.94,5,1,5.72a64.49,64.49,0,0,1,1.33-6.41l1.73-6.19h4.54L234.19,81c.72,3.06,1.26,5.9,1.37,6.52.11-.79.5-3.67,1-6l1.4-6.59h5Z"/><path class="cls-2" d="M255.61,93.31v-12c0-2.09-.36-2.7-1.62-2.7a5.63,5.63,0,0,0-3.35,1.66v13h-4.82V80a13.3,13.3,0,0,0-.65-4.32l4.28-1.22a4.72,4.72,0,0,1,.68,2.3,21.33,21.33,0,0,1,2.13-1.37,7.59,7.59,0,0,1,3.31-.79A4.58,4.58,0,0,1,260,77.22a7.44,7.44,0,0,1,.36,2.63V93.31Z"/><path class="cls-2" d="M271.3,93.89a16.38,16.38,0,0,1-7.45-2.12l1.73-3.53a13.47,13.47,0,0,0,6.12,2.09,2.26,2.26,0,0,0,2.45-2.09c0-1.26-.9-1.91-2.84-2.27l-2.16-.4a6.5,6.5,0,0,1-3.38-1.87,5.58,5.58,0,0,1-1-3.31c0-3.6,2.84-6,7.13-6a13.84,13.84,0,0,1,6.59,1.73l-1.58,3.24A9.74,9.74,0,0,0,272.31,78c-1.4,0-2.34.72-2.34,1.8s.61,1.44,2.3,1.87l2.23.58c2.27.58,3,1.26,3.67,2.09a4.88,4.88,0,0,1,1,3.13C279.19,91.29,276,93.89,271.3,93.89Z"/><path class="cls-2" d="M291,93.31h-4l-6.7-18.14,4.93-.61,2.66,8.32c.4,1.22.94,3.24,1.19,4.43a31.19,31.19,0,0,1,1.12-4.68l2.48-7.74h5Z"/><path class="cls-2" d="M302.27,72.79a3,3,0,0,1-3-3,3,3,0,0,1,3-3,2.94,2.94,0,0,1,2.92,3A3,3,0,0,1,302.27,72.79Zm-2.41,20.52V75.21l4.82-.76V93.31Z"/><path class="cls-2" d="M314.61,93.74a4.32,4.32,0,0,1-4.28-2.52c-.36-.94-.43-1.51-.43-4.14V73.33a47.54,47.54,0,0,0-.25-5.54l4.93-1.12a27.35,27.35,0,0,1,.25,4.79V85.82c0,3.17,0,3.6.32,4.1a1.1,1.1,0,0,0,1,.5,1.6,1.6,0,0,0,.54-.07l.83,2.88A8,8,0,0,1,314.61,93.74Z"/><path class="cls-2" d="M324.73,93.74a4.33,4.33,0,0,1-4.28-2.52c-.36-.94-.43-1.51-.43-4.14V73.33a47.54,47.54,0,0,0-.25-5.54l4.93-1.12a27.35,27.35,0,0,1,.25,4.79V85.82c0,3.17,0,3.6.32,4.1a1.1,1.1,0,0,0,1,.5,1.61,1.61,0,0,0,.54-.07l.83,2.88A8,8,0,0,1,324.73,93.74Z"/><path class="cls-2" d="M334.63,85.61v.14c0,2.84,1.4,4.46,3.89,4.46a7.21,7.21,0,0,0,4.68-1.84l1.87,2.88a10.58,10.58,0,0,1-6.95,2.56c-5.29,0-8.71-3.74-8.71-9.54,0-3.31.68-5.51,2.3-7.31a7.24,7.24,0,0,1,5.79-2.48,7.54,7.54,0,0,1,5.33,1.94c1.69,1.73,2.45,4.21,2.45,8.06v1.12Zm5.65-3.74a4.74,4.74,0,0,0-.58-2.77A2.33,2.33,0,0,0,337.58,78c-1.84,0-2.88,1.44-2.88,4v.07h5.58Z"/></svg>