<svg xmlns="http://www.w3.org/2000/svg" viewBox="0 0 168.17 30.71"><defs><style>.cls-1{fill:#00c0f2;}</style></defs><title>IP_sc4_regionBtn1</title><g id="Layer_2" data-name="Layer 2"><g id="Ui"><path class="cls-1" d="M17.39,35.64c-1.13-1.93-1.6-2.73-2.73-4.79-2.9-5.25-3.78-6.68-4.83-7.14a3,3,0,0,0-.92-.25V35.64H3.15V6.44H14c5.17,0,8.57,3.44,8.57,8.57,0,4.37-2.9,8-6.51,8.07a5.59,5.59,0,0,1,1.22,1.22c1.68,2.1,7,11.34,7,11.34ZM14.33,11.57A10.61,10.61,0,0,0,11,11.15H8.91V19h2c2.52,0,3.61-.25,4.41-1a4,4,0,0,0,1.13-2.94C16.42,13.33,15.71,12.07,14.33,11.57Z" transform="translate(-3.15 -5.56)"/><path class="cls-1" d="M29.15,35.64V6.44H45.78L45,11.23H35V18h8.36v4.79H35.11V30.6h11v5Z" transform="translate(-3.15 -5.56)"/><path class="cls-1" d="M63.21,36c-4.37,0-7.6-1.43-10-4.45-2.14-2.73-3.11-5.84-3.11-10.21,0-6.17,2-10.54,6.09-13.27A12.05,12.05,0,0,1,63.34,6a13.87,13.87,0,0,1,9.28,3.36L69.51,13a9.24,9.24,0,0,0-6.09-2.27,6,6,0,0,0-4.2,1.47c-2,1.89-2.48,5-2.48,9.41,0,4.16.71,6.85,2.18,8.32a6.48,6.48,0,0,0,4.58,1.64,6.91,6.91,0,0,0,3.32-.71V24.21H62.37l-.76-4.79h11.3V33.37A18.78,18.78,0,0,1,63.21,36Z" transform="translate(-3.15 -5.56)"/><path class="cls-1" d="M79.84,35.64V6.44H86v29.2Z" transform="translate(-3.15 -5.56)"/><path class="cls-1" d="M110.76,34.75a11.13,11.13,0,0,1-5.84,1.34c-4.41,0-7.27-1.22-9.49-4.12a17.28,17.28,0,0,1-3.36-10.84c0-6.3,2.39-11.34,6.59-13.65a13,13,0,0,1,6-1.43c7.77,0,12.56,5.67,12.56,14.83C117.27,27.49,115,32.44,110.76,34.75Zm-1-20.46a5.28,5.28,0,0,0-5.12-3.7,5.09,5.09,0,0,0-4.54,2.56c-1,1.89-1.47,4.45-1.47,8,0,5,.84,8.19,2.6,9.45a5.81,5.81,0,0,0,3.49,1c4.08,0,5.8-3.11,5.8-10.54A23.4,23.4,0,0,0,109.75,14.3Z" transform="translate(-3.15 -5.56)"/><path class="cls-1" d="M137.51,35.64l-5-11.17c-1.64-3.65-3.4-7.77-3.95-9.58.21,2.39.25,5.84.29,8.28L129,35.64h-5.67V6.44h6.51l5.59,11.68a56.38,56.38,0,0,1,3.19,8.28c-.21-2.27-.42-6-.46-8l-.12-11.93h5.59v29.2Z" transform="translate(-3.15 -5.56)"/><path class="cls-1" d="M159.26,36.27a20.88,20.88,0,0,1-10-2.65L151.49,29a16.56,16.56,0,0,0,8,2.35c3.36,0,5.12-1.39,5.12-4,0-1.89-1.22-3.07-3.82-3.78l-3.24-.88c-2.9-.8-4.7-1.93-5.75-3.7a8.43,8.43,0,0,1-1.22-4.45c0-5.33,4.29-9,10.46-9a17.13,17.13,0,0,1,9.75,2.94L168,12.7a12.59,12.59,0,0,0-6.81-2.23c-2.39,0-4.08,1.39-4.08,3.36,0,1.51.8,2.27,3.23,2.94l3.53,1c4.79,1.3,7.39,4.37,7.39,8.7C171.32,32.36,166.53,36.27,159.26,36.27Z" transform="translate(-3.15 -5.56)"/></g></g></svg>