<svg xmlns="http://www.w3.org/2000/svg" viewBox="0 0 152.82 63.54"><defs><style>.cls-1{fill:#fff;}.cls-2{fill:#00c0f2;}</style></defs><title>Landing Page_</title><g id="Ui"><rect class="cls-1" x="-869.03" y="-30.68" width="1080" height="1689"/><path class="cls-2" d="M32.45,42.63a17.27,17.27,0,0,1-7.12,1.28c-7.6,0-13.32-4.8-13.32-13.64,0-8.44,5.72-14.16,14.08-14.16a14.45,14.45,0,0,1,6.4,1.2l-.84,2.84A12.67,12.67,0,0,0,26.21,19c-6.32,0-10.52,4-10.52,11.12,0,6.6,3.8,10.84,10.36,10.84a13.93,13.93,0,0,0,5.68-1.12Z"/><path class="cls-2" d="M36.69,15.12h3.52v28.4H36.69Z"/><path class="cls-2" d="M48.09,34.47c.08,4.76,3.12,6.72,6.64,6.72a12.73,12.73,0,0,0,5.36-1l.6,2.52a15.69,15.69,0,0,1-6.44,1.2c-6,0-9.52-3.92-9.52-9.76s3.44-10.44,9.08-10.44c6.32,0,8,5.56,8,9.12a13.25,13.25,0,0,1-.12,1.64ZM58.41,32c0-2.24-.92-5.72-4.88-5.72-3.56,0-5.12,3.28-5.4,5.72Z"/><path class="cls-2" d="M76.89,43.51l-.28-2.44h-.12A7.21,7.21,0,0,1,70.57,44a5.51,5.51,0,0,1-5.92-5.56c0-4.68,4.16-7.24,11.64-7.2v-.4c0-1.6-.44-4.48-4.4-4.48a9.64,9.64,0,0,0-5,1.44l-.8-2.32a12,12,0,0,1,6.36-1.72c5.92,0,7.36,4,7.36,7.92v7.24a27.33,27.33,0,0,0,.32,4.64Zm-.52-9.88c-3.84-.08-8.2.6-8.2,4.36a3.11,3.11,0,0,0,3.32,3.36,4.82,4.82,0,0,0,4.68-3.24,3.67,3.67,0,0,0,.2-1.12Z"/><path class="cls-2" d="M85.45,30.19c0-2.28,0-4.24-.16-6h3.08l.12,3.8h.16A5.81,5.81,0,0,1,94,23.72a3.81,3.81,0,0,1,1,.12v3.32a5.27,5.27,0,0,0-1.2-.12c-2.48,0-4.24,1.88-4.72,4.52a9.9,9.9,0,0,0-.16,1.64V43.51H85.45Z"/><path class="cls-2" d="M117.73,43.51l-.28-2.44h-.12A7.21,7.21,0,0,1,111.41,44a5.51,5.51,0,0,1-5.92-5.56c0-4.68,4.16-7.24,11.64-7.2v-.4c0-1.6-.44-4.48-4.4-4.48a9.64,9.64,0,0,0-5,1.44l-.8-2.32a12,12,0,0,1,6.36-1.72c5.92,0,7.36,4,7.36,7.92v7.24a27.33,27.33,0,0,0,.32,4.64Zm-.52-9.88c-3.84-.08-8.2.6-8.2,4.36a3.11,3.11,0,0,0,3.32,3.36A4.82,4.82,0,0,0,117,38.11a3.67,3.67,0,0,0,.2-1.12Z"/><path class="cls-2" d="M126.29,15.12h3.52v28.4h-3.52Z"/><path class="cls-2" d="M135.73,15.12h3.52v28.4h-3.52Z"/></g></svg>