<svg xmlns="http://www.w3.org/2000/svg" viewBox="0 0 989 120"><defs><style>.cls-1{fill:#eaebec;opacity:0.5;}.cls-1,.cls-2{isolation:isolate;}.cls-3{fill:#4c4c4e;}</style></defs><title>IP_sc4_concept</title><g id="Layer_2" data-name="Layer 2"><g id="Layer_1-2" data-name="Layer 1"><rect class="cls-1" width="989" height="120"/><g class="cls-2"><path class="cls-3" d="M75,73.7a11.91,11.91,0,0,1-9.54-4C63.09,67,61.91,63.5,61.91,59.21a18.7,18.7,0,0,1,2-9.07,12.54,12.54,0,0,1,11.17-6.76,11.93,11.93,0,0,1,7.39,2.31l-2.65,4A7.69,7.69,0,0,0,75.15,48a6,6,0,0,0-5,2.52c-1.13,1.68-1.64,4.12-1.64,7.52,0,4,.34,6.22,1.22,7.81a6.07,6.07,0,0,0,5.63,3.28,7.55,7.55,0,0,0,5-1.89L83.08,71A11.93,11.93,0,0,1,75,73.7Z"/><path class="cls-3" d="M101,70.68a8.79,8.79,0,0,1-7.1,3c-5.84,0-9.66-4.37-9.66-11.13s3.87-11.26,9.66-11.26a9,9,0,0,1,7.31,3.23c1.72,2,2.48,4.37,2.48,7.86C103.66,66.06,102.82,68.58,101,70.68ZM96.4,56.56a3.08,3.08,0,0,0-5.33,1,15.34,15.34,0,0,0-.59,4.79,15.2,15.2,0,0,0,.71,5.42A3.11,3.11,0,0,0,94,69.59c2.44,0,3.49-2.18,3.49-7.27C97.53,59.42,97.15,57.53,96.4,56.56Z"/><path class="cls-3" d="M119.92,73.2v-14c0-2.44-.42-3.15-1.89-3.15A6.56,6.56,0,0,0,114.12,58V73.2h-5.63V57.61a15.52,15.52,0,0,0-.76-5l5-1.43a5.51,5.51,0,0,1,.8,2.69,24.87,24.87,0,0,1,2.48-1.6,8.86,8.86,0,0,1,3.86-.92A5.35,5.35,0,0,1,125,54.42a8.68,8.68,0,0,1,.42,3.07V73.2Z"/><path class="cls-3" d="M145.12,72.36a10.06,10.06,0,0,1-5.25,1.34c-5.92,0-9.37-4.12-9.37-11.09,0-5,1.89-8.23,4.41-10a10.19,10.19,0,0,1,5.33-1.6,9.19,9.19,0,0,1,4.16,1,9.51,9.51,0,0,1,2.1,1.51l-2.73,3.7a5.42,5.42,0,0,0-3.4-1.68c-2.52,0-3.66,2.18-3.66,7.23,0,2.81.38,4.5,1.09,5.42a3.25,3.25,0,0,0,2.52,1.22,5.76,5.76,0,0,0,3.87-1.76l.34-.29,2.56,3.4A8.89,8.89,0,0,1,145.12,72.36Z"/><path class="cls-3" d="M155.49,64.21v.17c0,3.32,1.64,5.21,4.54,5.21a8.41,8.41,0,0,0,5.46-2.14l2.18,3.36a12.34,12.34,0,0,1-8.11,3c-6.18,0-10.17-4.37-10.17-11.13,0-3.86.8-6.43,2.69-8.53a8.46,8.46,0,0,1,6.76-2.9,8.8,8.8,0,0,1,6.22,2.27c2,2,2.86,4.91,2.86,9.41v1.3Zm6.59-4.37a5.53,5.53,0,0,0-.67-3.23,2.72,2.72,0,0,0-2.48-1.26c-2.14,0-3.36,1.68-3.36,4.66v.08h6.51Z"/><path class="cls-3" d="M187.92,71.22a7.66,7.66,0,0,1-5.76,2.44,9,9,0,0,1-4.49-1.13,11.55,11.55,0,0,1,.08,1.76V81l-5.42,1.43V57.57a27.1,27.1,0,0,0-.34-5.42l5-.88a9.37,9.37,0,0,1,.38,2,7.21,7.21,0,0,1,5.29-2,7.78,7.78,0,0,1,4.24,1.3c2.31,1.55,4,4.33,4,9.28C190.9,66.48,190.14,68.83,187.92,71.22Zm-3.7-13.57a2.59,2.59,0,0,0-2.69-1.81,5.2,5.2,0,0,0-3.74,1.64V67.95a5.3,5.3,0,0,0,3.11,1.26c2.77,0,3.87-1.89,3.87-6.81A15.25,15.25,0,0,0,184.22,57.66Z"/><path class="cls-3" d="M202.11,73.7c-2.86,0-5.12-1.26-5.8-3.15a7.89,7.89,0,0,1-.38-3.32V55.56h-2.14V51.69h2.14a37.26,37.26,0,0,1,.21-5.08l5.71-1.43a64.53,64.53,0,0,0-.34,6.51h5l-1.43,3.86h-3.61v10.8c0,2.73.5,3.45,2.44,3.45a7.36,7.36,0,0,0,2-.42l.71,3.36A11.81,11.81,0,0,1,202.11,73.7Z"/></g></g></g></svg>