<svg xmlns="http://www.w3.org/2000/svg" viewBox="0 0 1022.01 211.81"><defs><style>.cls-1{fill:#00c0f2;}.cls-2{fill:none;stroke:#dce1e5;stroke-miterlimit:10;opacity:0.7;}</style></defs><title>IP_sc3_btn2</title><g id="Ui"><path class="cls-1" d="M438,122.54c-1.13-1.93-1.6-2.73-2.73-4.79-2.9-5.25-3.78-6.68-4.83-7.14a3,3,0,0,0-.92-.25v12.18h-5.76V93.35h10.88c5.17,0,8.57,3.44,8.57,8.57,0,4.37-2.9,8-6.51,8.07a5.54,5.54,0,0,1,1.22,1.22c1.68,2.1,7,11.34,7,11.34ZM435,98.47a10.6,10.6,0,0,0-3.32-.42h-2.1v7.9h2c2.52,0,3.61-.25,4.41-1a4,4,0,0,0,1.13-2.94C437.06,100.24,436.35,99,435,98.47Z"/><path class="cls-1" d="M449.79,122.54V93.35h16.63l-.76,4.79h-10v6.76H464v4.79h-8.28v7.81h11v5Z"/><path class="cls-1" d="M483.85,122.88c-4.37,0-7.6-1.43-10-4.45-2.14-2.73-3.11-5.84-3.11-10.21,0-6.17,2-10.54,6.09-13.27a12.06,12.06,0,0,1,7.1-2.06,13.87,13.87,0,0,1,9.28,3.36l-3.11,3.65a9.24,9.24,0,0,0-6.09-2.27,6,6,0,0,0-4.2,1.47c-2,1.89-2.48,5-2.48,9.41,0,4.16.71,6.85,2.19,8.32a6.48,6.48,0,0,0,4.58,1.64,6.9,6.9,0,0,0,3.32-.71v-6.64H483l-.76-4.79h11.3v13.95A18.79,18.79,0,0,1,483.85,122.88Z"/><path class="cls-1" d="M500.48,122.54V93.35h6.13v29.2Z"/><path class="cls-1" d="M531.39,121.66a11.12,11.12,0,0,1-5.84,1.34c-4.41,0-7.27-1.22-9.49-4.12A17.28,17.28,0,0,1,512.7,108c0-6.3,2.39-11.34,6.6-13.65a13,13,0,0,1,6-1.43c7.77,0,12.56,5.67,12.56,14.83C537.91,114.39,535.64,119.35,531.39,121.66Zm-1-20.46a5.28,5.28,0,0,0-5.12-3.7,5.09,5.09,0,0,0-4.54,2.56c-1,1.89-1.47,4.45-1.47,8,0,5,.84,8.19,2.61,9.45a5.8,5.8,0,0,0,3.49,1c4.07,0,5.8-3.11,5.8-10.54A23.4,23.4,0,0,0,530.39,101.2Z"/><path class="cls-1" d="M558.15,122.54l-5-11.17c-1.64-3.65-3.4-7.77-3.95-9.58.21,2.39.25,5.84.29,8.28l.17,12.48H544V93.35h6.51L556.09,105a56.58,56.58,0,0,1,3.19,8.28c-.21-2.27-.42-6-.46-8l-.13-11.93h5.59v29.2Z"/><path class="cls-1" d="M579.9,123.17a20.87,20.87,0,0,1-10-2.65l2.18-4.58a16.56,16.56,0,0,0,8,2.35c3.36,0,5.13-1.39,5.13-4,0-1.89-1.22-3.07-3.82-3.78l-3.23-.88c-2.9-.8-4.71-1.93-5.76-3.7a8.44,8.44,0,0,1-1.22-4.45c0-5.33,4.28-9,10.46-9a17.13,17.13,0,0,1,9.75,2.94l-2.77,4.2a12.58,12.58,0,0,0-6.8-2.23c-2.39,0-4.07,1.39-4.07,3.36,0,1.51.8,2.27,3.23,2.94l3.53,1c4.79,1.3,7.39,4.37,7.39,8.7C592,119.27,587.17,123.17,579.9,123.17Z"/><path class="cls-2" d="M1011.51,211.31H10.5a10,10,0,0,1-10-10V.5h1021V201.31A10,10,0,0,1,1011.51,211.31Z"/></g></svg>