<svg xmlns="http://www.w3.org/2000/svg" xmlns:xlink="http://www.w3.org/1999/xlink" viewBox="0 0 1298.83 727.32"><defs><style>.cls-1,.cls-14,.cls-26,.cls-29,.cls-31,.cls-32,.cls-35,.cls-36,.cls-9{fill:none;}.cls-2{fill:#59a9b1;}.cls-18,.cls-2,.cls-27{mix-blend-mode:multiply;}.cls-15,.cls-3,.cls-37{fill:#fff;}.cls-4{fill:#009f9c;}.cls-5{fill:#303e47;}.cls-6{isolation:isolate;}.cls-7{clip-path:url(#clip-path);}.cls-8{fill:#e8eccb;stroke:#f1f1f2;opacity:0.15;}.cls-12,.cls-13,.cls-14,.cls-21,.cls-22,.cls-26,.cls-29,.cls-31,.cls-32,.cls-33,.cls-8,.cls-9{stroke-miterlimit:10;}.cls-8,.cls-9{stroke-width:2.07px;}.cls-9{stroke:#77765b;}.cls-10,.cls-30{opacity:0.6;}.cls-11{fill:#c4ddcb;}.cls-12{fill:#9f974f;stroke-width:1.45px;}.cls-12,.cls-14{stroke:#8d8744;}.cls-13{fill:#d0cc7c;stroke:#8d8743;}.cls-14{stroke-width:1.04px;}.cls-15{opacity:0.2;}.cls-16{fill:#837c39;}.cls-17{fill:#58595b;}.cls-18,.cls-27,.cls-34{opacity:0.5;}.cls-18{fill:url(#linear-gradient);}.cls-19{fill:#6a0032;}.cls-20{fill:#808184;}.cls-21{fill:#90c3c0;}.cls-21,.cls-33,.cls-35{stroke:#79a9a4;}.cls-21,.cls-26,.cls-29{stroke-width:2.58px;}.cls-22,.cls-25{fill:#d7eeec;}.cls-22{stroke:#5c928c;stroke-width:2.59px;}.cls-23,.cls-30{fill:#02817c;}.cls-24{fill:#d1dce7;}.cls-26{stroke:#81a3c3;opacity:0.3;}.cls-27{fill:url(#linear-gradient-2);}.cls-28{fill:#a32d6e;}.cls-29{stroke:#5e5e5e;}.cls-31{stroke:#d5d4ad;stroke-width:20.93px;}.cls-32,.cls-36{stroke:#fff;}.cls-32{stroke-width:2.99px;}.cls-33{fill:#79a9a4;stroke-width:2.28px;}.cls-35,.cls-36{stroke-linejoin:round;stroke-width:28px;stroke-dasharray:1 8 1 8;}.cls-37{opacity:0.8;}</style><clipPath id="clip-path" transform="translate(0 -170.36)"><rect class="cls-1" x="123.91" width="1077.85" height="931.13"/></clipPath><linearGradient id="linear-gradient" x1="1052.53" y1="175.93" x2="1052.53" y2="131.52" gradientUnits="userSpaceOnUse"><stop offset="0.47" stop-opacity="0.35"/><stop offset="0.98" stop-opacity="0"/></linearGradient><linearGradient id="linear-gradient-2" x1="537" y1="228.07" x2="537" y2="191.3" gradientUnits="userSpaceOnUse"><stop offset="0.08" stop-color="#808184"/><stop offset="1" stop-color="#808184" stop-opacity="0"/></linearGradient><symbol id="New_Symbol_8" data-name="New Symbol 8" viewBox="0 0 12.14 12.14"><circle class="cls-5" cx="6.07" cy="6.07" r="6.07"/><polygon class="cls-3" points="9.58 6.18 8.62 5.22 6.75 7.09 6.75 2.45 5.39 2.45 5.39 7.09 3.52 5.22 2.56 6.18 6.07 9.69 6.07 9.69 6.07 9.69 9.58 6.18"/></symbol><symbol id="New_Symbol_7" data-name="New Symbol 7" viewBox="0 0 14.1 14.1"><circle class="cls-3" cx="7.05" cy="7.05" r="7.05"/><circle class="cls-4" cx="7.05" cy="7.05" r="7.05"/><path class="cls-3" d="M8.92,7.29a4.5,4.5,0,0,0-1-.52h0l-.54-.2v-2A.81.81,0,0,1,8.11,5a1.89,1.89,0,0,1,.16.69H9.67A2.09,2.09,0,0,0,8.74,3.8a2.62,2.62,0,0,0-1.36-.43V2.65H6.87v.71A3.88,3.88,0,0,0,6,3.49,2.05,2.05,0,0,0,5.2,4a2.08,2.08,0,0,0-.46.7,2.37,2.37,0,0,0-.16.9A2,2,0,0,0,5,6.9a2.51,2.51,0,0,0,1.12.72h0l.16,0,.43.13v2.28a1.11,1.11,0,0,1-.82-.47,2.78,2.78,0,0,1-.21-.9H4.24a2.31,2.31,0,0,0,.89,2.09,3.72,3.72,0,0,0,1.57.46v1.06h.52V11.26a3.15,3.15,0,0,0,1.43-.44,2.13,2.13,0,0,0,1-2A1.88,1.88,0,0,0,8.92,7.29ZM6.18,4.8a.93.93,0,0,1,.69-.25V6.42a1.93,1.93,0,0,1-.58-.27A.85.85,0,0,1,6,5.45.9.9,0,0,1,6.18,4.8ZM8,9.95a1.31,1.31,0,0,1-.61.2V8.06A2.27,2.27,0,0,1,8,8.38a.91.91,0,0,1,.31.73A1,1,0,0,1,8,9.95Z"/></symbol><symbol id="New_Symbol_59" data-name="New Symbol 59" viewBox="0 0 4.38 4.38"><circle class="cls-2" cx="2.19" cy="2.19" r="2.19"/></symbol></defs><title>IP_sc2_car3</title><g class="cls-6"><g id="Layer_2" data-name="Layer 2"><g id="Ui"><g class="cls-7"><polygon class="cls-8" points="1080.08 284.58 663.47 394.43 541.16 409.1 542.5 2.58 1057.29 104.49 1080.08 284.58"/><polygon class="cls-9" points="1066.86 288.96 615.96 414.08 539.45 423.12 539.45 1.29 648.39 19.06 1066.86 122.27 1066.86 288.96"/><g class="cls-10"><path class="cls-11" d="M949,426.17l8.36-6.79,6.89-7.73-7.09-4.94a52.72,52.72,0,0,0,4.92-8.59l9.53.64,2.82-9.06.87-9.33L966,378.79a46.17,46.17,0,0,0-1.34-9.26l8.69-3.15-3.48-8.91-5.36-8.38-9.13,2.23a57.59,57.59,0,0,0-7.22-7.52l5.48-6-8.88-6.4-10.1-5.2-6.5,5.4A89.81,89.81,0,0,0,917,327.87l.81-7.3-11.86-2.13-12.21-.65-2,7.17a95.51,95.51,0,0,0-12.15,1l-4.09-6.64-11.69,2.7-11,4.07,2.91,7a72.67,72.67,0,0,0-9.88,5.55l-7.87-4.18-8.32,6.79L822.73,349,829.8,354a48.29,48.29,0,0,0-4.91,8.58l-9.55-.63L812.52,371l-.87,9.31,9.36,1.56a43.88,43.88,0,0,0,1.35,9.27l-8.72,3.14,3.5,8.94,5.34,8.36,9.15-2.21a60.63,60.63,0,0,0,7.2,7.51l-5.45,6,8.88,6.4,10.08,5.22,6.47-5.4A81.21,81.21,0,0,0,870,432.81l-.87,7.28,11.92,2.16,12.15.63,2.07-7.17a95.37,95.37,0,0,0,12.13-1l4.07,6.64,11.71-2.71,11-4.08-2.89-7a78.09,78.09,0,0,0,9.86-5.56ZM864.7,407.83c-19.85-12.13-23-34.26-7.13-49.44s44.89-17.67,64.7-5.55,23,34.23,7.13,49.44S884.52,420,864.7,407.83Z" transform="translate(0 -170.36)"/><path class="cls-11" d="M915.38,359.46c-15.07-9.22-37.09-7.34-49.16,4.21s-9.68,28.36,5.37,37.57,37.11,7.32,49.17-4.2S930.44,368.65,915.38,359.46ZM888,385.55c-3.75-2.28-4.35-6.48-1.31-9.35s8.45-3.33,12.21-1,4.34,6.48,1.31,9.33S891.84,387.83,888,385.55Z" transform="translate(0 -170.36)"/><path class="cls-11" d="M837.78,336.21l4.11-6,2.8-6.57-6.43-3a34.06,34.06,0,0,0,1.15-7l7-.5-.48-7.15L844,298.84l-7.12-.24a47.61,47.61,0,0,0-3.52-6.87l5.35-3.26-5-6.39-6.15-5.79-5.92,2.63a59.24,59.24,0,0,0-7.25-4.94l2.27-5.12-8.12-3.92L799.9,262l-3.18,4.76a75.61,75.61,0,0,0-9-1.68l-1.44-5.6-9.08-.38-8.92.76.52,5.63a60,60,0,0,0-8.4,2L755.65,263,748,266.22l-6.76,4.21,4,5a39.18,39.18,0,0,0-5.56,5.22L733,278.29l-4.09,6-2.78,6.57,6.42,3a30.08,30.08,0,0,0-1.14,7l-7,.5.49,7.17,1.93,7.13,7.13.22a42.79,42.79,0,0,0,3.52,6.89L732.06,326l5,6.4,6.13,5.76,5.95-2.6a63.11,63.11,0,0,0,7.22,4.93l-2.23,5.11,8.11,3.92,8.65,2.92,3.14-4.76a67.89,67.89,0,0,0,9.05,1.66l1.39,5.61,9.13.4,8.87-.77-.5-5.65a59.42,59.42,0,0,0,8.41-2l4.74,4.6,7.63-3.26,6.75-4.23-4-5a41.4,41.4,0,0,0,5.52-5.22ZM772.35,331c-17.56-7.13-25.92-23.56-18.75-36.68s27.26-18,44.79-10.88,25.94,23.53,18.74,36.69S789.88,338.17,772.35,331Z" transform="translate(0 -170.36)"/><path class="cls-11" d="M795.28,289.19c-13.32-5.42-28.56-1.72-34,8.26s.9,22.46,14.21,27.88,28.58,1.71,34-8.25S808.6,294.6,795.28,289.19Zm-12.36,22.57c-3.32-1.34-4.9-4.46-3.51-6.94s5.13-3.39,8.45-2,4.9,4.46,3.52,6.93S786.25,313.1,782.91,311.76Z" transform="translate(0 -170.36)"/><path class="cls-11" d="M794.92,444.89l7.59-6.3,6.13-7.15L801.43,427a43.67,43.67,0,0,0,4.16-7.91l9.26.49,2.07-8.32.19-8.56-9.16-1.36a43.37,43.37,0,0,0-2-8.47l8.17-3-4-8.14-5.79-7.62-8.68,2.12a60.6,60.6,0,0,0-7.53-6.82l4.88-5.55L784,358.13l-10.15-4.66-5.92,5a96.88,96.88,0,0,0-11.06-3.31l.26-6.69-11.64-1.83-11.85-.48-1.46,6.58a98.25,98.25,0,0,0-11.67,1.08l-4.43-6-11.12,2.59-10.39,3.83,3.34,6.39a67.21,67.21,0,0,0-9.18,5.17L680.79,362l-7.57,6.3-6.11,7.17,7.22,4.44a39,39,0,0,0-4.15,7.9l-9.29-.49-2.09,8.36-.18,8.53,9.17,1.34a39.76,39.76,0,0,0,2,8.49l-8.21,3,4,8.16,5.76,7.6,8.7-2.11a64.73,64.73,0,0,0,7.51,6.8L682.71,443l9.05,5.76,10.14,4.69,5.88-5a87.16,87.16,0,0,0,11.12,3.31l-.32,6.68,11.7,1.87,11.8.46,1.5-6.59a97.39,97.39,0,0,0,11.69-1.05l4.39,6,11.14-2.59,10.36-3.85-3.29-6.35a70.7,70.7,0,0,0,9.15-5.18Zm-83-16c-20.09-10.92-24.73-31.16-10.45-45.22s42.19-16.6,62.25-5.7,24.76,31.14,10.45,45.22S732,439.83,712,428.91Z" transform="translate(0 -170.36)"/><path class="cls-11" d="M757.56,384.11c-15.25-8.3-36.42-6.36-47.3,4.32s-7.34,26.08,7.9,34.36,36.45,6.34,47.29-4.31S772.8,392.4,757.56,384.11ZM733,408.27c-3.8-2-4.67-5.9-1.92-8.55s7.93-3.13,11.73-1.07,4.67,5.89,1.95,8.53S736.79,410.33,733,408.27Z" transform="translate(0 -170.36)"/></g><ellipse class="cls-12" cx="1054.66" cy="211.02" rx="99.14" ry="78.54"/><ellipse class="cls-13" cx="1054.66" cy="200.21" rx="99.14" ry="78.54"/><ellipse class="cls-14" cx="1054.66" cy="200.21" rx="91" ry="72.09"/><ellipse class="cls-15" cx="1054.66" cy="200.21" rx="88.13" ry="69.82"/><circle class="cls-16" cx="1051.5" cy="284.72" r="2.94"/><path class="cls-16" d="M1077.57,452.85a2.07,2.07,0,0,0,2.51,2.09,3.09,3.09,0,0,0,2.51-2.93,2.07,2.07,0,0,0-2.51-2.09A3.09,3.09,0,0,0,1077.57,452.85Z" transform="translate(0 -170.36)"/><path class="cls-16" d="M1100.76,445.6c0,1.39,1.12,2,2.51,1.46a4.24,4.24,0,0,0,2.51-3.56c0-1.39-1.12-2-2.51-1.46A4.25,4.25,0,0,0,1100.76,445.6Z" transform="translate(0 -170.36)"/><path class="cls-16" d="M1120.74,433.91c0,1.21,1,1.78,2.19,1.27a3.7,3.7,0,0,0,2.19-3.1c0-1.21-1-1.79-2.19-1.28A3.71,3.71,0,0,0,1120.74,433.91Z" transform="translate(0 -170.36)"/><path class="cls-16" d="M1145.25,407.12a1.08,1.08,0,0,0,1.84.12,2.2,2.2,0,0,0,.39-2.45,1.08,1.08,0,0,0-1.83-.12A2.21,2.21,0,0,0,1145.25,407.12Z" transform="translate(0 -170.36)"/><path class="cls-16" d="M1150.76,393a.74.74,0,0,0,1.25.08,1.5,1.5,0,0,0,.26-1.67.74.74,0,0,0-1.26-.08A1.5,1.5,0,0,0,1150.76,393Z" transform="translate(0 -170.36)"/><path class="cls-16" d="M1134.42,422.34a1.14,1.14,0,0,0,1.92.12,2.31,2.31,0,0,0,.41-2.56,1.13,1.13,0,0,0-1.92-.12A2.3,2.3,0,0,0,1134.42,422.34Z" transform="translate(0 -170.36)"/><path class="cls-16" d="M1031.92,452.85a2.07,2.07,0,0,1-2.51,2.09,3.09,3.09,0,0,1-2.51-2.93,2.07,2.07,0,0,1,2.51-2.09A3.09,3.09,0,0,1,1031.92,452.85Z" transform="translate(0 -170.36)"/><path class="cls-16" d="M1008.74,445.6c0,1.39-1.12,2-2.51,1.46a4.24,4.24,0,0,1-2.51-3.56c0-1.39,1.12-2,2.51-1.46A4.24,4.24,0,0,1,1008.74,445.6Z" transform="translate(0 -170.36)"/><path class="cls-16" d="M988.75,433.91c0,1.21-1,1.78-2.19,1.27a3.69,3.69,0,0,1-2.19-3.1c0-1.21,1-1.79,2.19-1.28A3.71,3.71,0,0,1,988.75,433.91Z" transform="translate(0 -170.36)"/><path class="cls-16" d="M964.25,407.12a1.09,1.09,0,0,1-1.84.12,2.21,2.21,0,0,1-.39-2.45,1.09,1.09,0,0,1,1.84-.12A2.21,2.21,0,0,1,964.25,407.12Z" transform="translate(0 -170.36)"/><path class="cls-16" d="M958.74,393a.74.74,0,0,1-1.26.08,1.5,1.5,0,0,1-.26-1.67.74.74,0,0,1,1.26-.08A1.51,1.51,0,0,1,958.74,393Z" transform="translate(0 -170.36)"/><path class="cls-16" d="M975.08,422.34a1.14,1.14,0,0,1-1.92.12,2.32,2.32,0,0,1-.41-2.56,1.13,1.13,0,0,1,1.92-.12A2.3,2.3,0,0,1,975.08,422.34Z" transform="translate(0 -170.36)"/><path class="cls-17" d="M1025.75,349.54l-2.59-5.79c-.85-1.89-1.76-4-2-5,.11,1.24.13,3,.15,4.29l.09,6.47h-2.94V334.41h3.38l2.9,6.05a29.28,29.28,0,0,1,1.65,4.29c-.11-1.18-.22-3.11-.24-4.16l-.07-6.18h2.9v15.13Z" transform="translate(0 -170.36)"/><path class="cls-17" d="M1040.13,348.23a4.55,4.55,0,0,1-3.68,1.55c-3,0-5-2.26-5-5.77s2-5.84,5-5.84a4.67,4.67,0,0,1,3.79,1.68,5.79,5.79,0,0,1,1.29,4.07A6,6,0,0,1,1040.13,348.23Zm-2.37-7.32a1.6,1.6,0,0,0-2.77.54,8,8,0,0,0-.3,2.48,7.89,7.89,0,0,0,.37,2.81,1.61,1.61,0,0,0,1.48.91c1.26,0,1.81-1.13,1.81-3.77A5.18,5.18,0,0,0,1037.75,340.92Z" transform="translate(0 -170.36)"/><path class="cls-17" d="M1055.41,349.54v-7.36c0-1.33-.15-1.59-.91-1.59a3.32,3.32,0,0,0-1.94.94v8h-2.77v-7.25c0-1.39-.2-1.72-1-1.72a3.09,3.09,0,0,0-1.92.85v8.12H1044v-7.77a5.77,5.77,0,0,0-.41-2.85l2.63-.72a2.83,2.83,0,0,1,.39,1.13,3.84,3.84,0,0,1,2.72-1.13,3,3,0,0,1,2.26.91,3.69,3.69,0,0,1,.44.54,4.09,4.09,0,0,1,3.16-1.46,3.45,3.45,0,0,1,2.2.7c.63.54.83,1.2.83,2.72v7.93Z" transform="translate(0 -170.36)"/><path class="cls-17" d="M1063,337.13a1.8,1.8,0,0,1-1.79-1.81,1.82,1.82,0,0,1,1.83-1.81,1.78,1.78,0,0,1,1.76,1.81A1.8,1.8,0,0,1,1063,337.13Zm-1.46,12.41v-11l2.92-.46v11.41Z" transform="translate(0 -170.36)"/><path class="cls-17" d="M1073.62,349.54v-7.25c0-1.26-.22-1.63-1-1.63a3.4,3.4,0,0,0-2,1v7.88h-2.92v-8.08a8,8,0,0,0-.39-2.61l2.59-.74a2.85,2.85,0,0,1,.41,1.39,12.9,12.9,0,0,1,1.28-.83,4.59,4.59,0,0,1,2-.48,2.77,2.77,0,0,1,2.68,1.61,4.47,4.47,0,0,1,.22,1.59v8.14Z" transform="translate(0 -170.36)"/><path class="cls-17" d="M1087.32,350.11a3.12,3.12,0,0,1-1.57-1.35,5.53,5.53,0,0,1-.68.59,3.85,3.85,0,0,1-2.24.61c-2.48,0-3.83-1.26-3.83-3.48,0-2.61,1.81-3.83,5.36-3.83.22,0,.41,0,.65,0v-.46c0-1.24-.24-1.65-1.31-1.65a6.14,6.14,0,0,0-3.22,1.26l-1.24-2.09a10.7,10.7,0,0,1,1.81-.91,7.54,7.54,0,0,1,3-.65c1.87,0,3.16.7,3.59,1.94a5.15,5.15,0,0,1,.2,2l-.06,3.75a2.39,2.39,0,0,0,1,2.48Zm-2.48-5.44c-2,0-2.72.37-2.72,1.7a1.32,1.32,0,0,0,1.29,1.46,2.11,2.11,0,0,0,1.52-.76l0-2.4Z" transform="translate(0 -170.36)"/><path class="cls-17" d="M1094,349.8a2.62,2.62,0,0,1-2.59-1.52,6,6,0,0,1-.26-2.5v-8.32a28.62,28.62,0,0,0-.15-3.35l3-.67a16.64,16.64,0,0,1,.15,2.9V345c0,1.92,0,2.18.2,2.48a.67.67,0,0,0,.59.3,1,1,0,0,0,.33,0l.5,1.74A4.87,4.87,0,0,1,1094,349.8Z" transform="translate(0 -170.36)"/><path class="cls-17" d="M996,371.58a6.18,6.18,0,0,1-4.94-2.09,7.9,7.9,0,0,1-1.83-5.42,9.69,9.69,0,0,1,1-4.7,6.5,6.5,0,0,1,5.79-3.51,6.18,6.18,0,0,1,3.83,1.2l-1.37,2.07a4,4,0,0,0-2.42-.85,3.14,3.14,0,0,0-2.57,1.31,7,7,0,0,0-.85,3.9,8.44,8.44,0,0,0,.63,4.05,3.14,3.14,0,0,0,2.92,1.7,3.91,3.91,0,0,0,2.59-1l1.39,1.92A6.19,6.19,0,0,1,996,371.58Z" transform="translate(0 -170.36)"/><path class="cls-17" d="M1009.93,371.88a3.12,3.12,0,0,1-1.57-1.35,5.35,5.35,0,0,1-.68.59,3.85,3.85,0,0,1-2.24.61c-2.48,0-3.83-1.26-3.83-3.48,0-2.61,1.81-3.83,5.36-3.83.22,0,.41,0,.65,0V364c0-1.24-.24-1.65-1.31-1.65a6.14,6.14,0,0,0-3.22,1.26l-1.24-2.09a10.73,10.73,0,0,1,1.81-.91,7.55,7.55,0,0,1,3-.65c1.87,0,3.16.7,3.59,1.94a5.15,5.15,0,0,1,.2,2l-.07,3.75a2.39,2.39,0,0,0,1,2.48Zm-2.48-5.44c-2,0-2.72.37-2.72,1.7a1.32,1.32,0,0,0,1.29,1.46,2.11,2.11,0,0,0,1.52-.76l0-2.4Z" transform="translate(0 -170.36)"/><path class="cls-17" d="M1021.82,370.29a4,4,0,0,1-3,1.26,4.68,4.68,0,0,1-2.33-.59,5.93,5.93,0,0,1,0,.91v3.48l-2.81.74V363.22a14.07,14.07,0,0,0-.17-2.81l2.59-.46a4.87,4.87,0,0,1,.2,1,3.74,3.74,0,0,1,2.74-1,4,4,0,0,1,2.2.67c1.2.81,2.07,2.24,2.07,4.81C1023.37,367.83,1023,369.05,1021.82,370.29Zm-1.92-7a1.34,1.34,0,0,0-1.39-.94,2.69,2.69,0,0,0-1.94.85v5.42a2.74,2.74,0,0,0,1.61.65c1.44,0,2-1,2-3.53A7.9,7.9,0,0,0,1019.91,363.26Z" transform="translate(0 -170.36)"/><path class="cls-17" d="M1027.44,358.91a1.8,1.8,0,0,1-1.79-1.81,1.82,1.82,0,0,1,1.83-1.81,1.78,1.78,0,0,1,1.76,1.81A1.8,1.8,0,0,1,1027.44,358.91ZM1026,371.32v-11l2.92-.46v11.41Z" transform="translate(0 -170.36)"/><path class="cls-17" d="M1035.37,371.58a3,3,0,0,1-3-1.63,4.08,4.08,0,0,1-.2-1.72v-6.05h-1.11v-2h1.11a19.39,19.39,0,0,1,.11-2.63l3-.74a33.44,33.44,0,0,0-.17,3.38h2.61l-.74,2h-1.87v5.6c0,1.42.26,1.79,1.26,1.79a3.83,3.83,0,0,0,1-.22l.37,1.74A6.12,6.12,0,0,1,1035.37,371.58Z" transform="translate(0 -170.36)"/><path class="cls-17" d="M1047.37,371.88a3.12,3.12,0,0,1-1.57-1.35,5.35,5.35,0,0,1-.68.59,3.85,3.85,0,0,1-2.24.61c-2.48,0-3.83-1.26-3.83-3.48,0-2.61,1.81-3.83,5.36-3.83.22,0,.41,0,.65,0V364c0-1.24-.24-1.65-1.31-1.65a6.14,6.14,0,0,0-3.22,1.26l-1.24-2.09a10.73,10.73,0,0,1,1.81-.91,7.55,7.55,0,0,1,3-.65c1.87,0,3.16.7,3.59,1.94a5.15,5.15,0,0,1,.2,2l-.07,3.75a2.39,2.39,0,0,0,1,2.48Zm-2.48-5.44c-2,0-2.72.37-2.72,1.7a1.32,1.32,0,0,0,1.29,1.46,2.11,2.11,0,0,0,1.52-.76l0-2.4Z" transform="translate(0 -170.36)"/><path class="cls-17" d="M1054,371.58a2.62,2.62,0,0,1-2.59-1.52,6.07,6.07,0,0,1-.26-2.5v-8.32a28.59,28.59,0,0,0-.15-3.35l3-.67a16.64,16.64,0,0,1,.15,2.9v8.69c0,1.92,0,2.18.2,2.48a.67.67,0,0,0,.59.31,1,1,0,0,0,.33,0l.5,1.74A4.88,4.88,0,0,1,1054,371.58Z" transform="translate(0 -170.36)"/><path class="cls-17" d="M1069.12,371.27c-.48,0-1.11,0-1.94,0h-4.77V356.18h5.12c1.85,0,2.81.28,3.72,1.09a3.59,3.59,0,0,1,.22,5.23,2.9,2.9,0,0,1-1.39.78,3.77,3.77,0,0,1,3,3.81A4,4,0,0,1,1069.12,371.27Zm-.67-12.3a3.05,3.05,0,0,0-1.26-.2h-1.74v3.46h1.79a2.81,2.81,0,0,0,1.31-.2,1.93,1.93,0,0,0,.79-1.55A1.64,1.64,0,0,0,1068.45,359Zm.09,5.9a3.57,3.57,0,0,0-1.18-.13h-1.89v4.09h2a2.2,2.2,0,0,0,1.42-.35,2.28,2.28,0,0,0,.78-1.76A1.84,1.84,0,0,0,1068.53,364.87Z" transform="translate(0 -170.36)"/><path class="cls-17" d="M1082.93,371.62a2.56,2.56,0,0,1-.87-1.09,4.16,4.16,0,0,1-2.94,1.07,3.36,3.36,0,0,1-3.29-1.81,6.67,6.67,0,0,1-.24-2.22v-7.14l2.87-.54v7.16a4.4,4.4,0,0,0,.24,1.83,1.17,1.17,0,0,0,1,.52,2.16,2.16,0,0,0,1.81-1.07V360.5l2.79-.59v8.51a3.24,3.24,0,0,0,.67,2Z" transform="translate(0 -170.36)"/><path class="cls-17" d="M1094.3,371.32a2,2,0,0,1-.17-.65,3.74,3.74,0,0,1-2.57.94c-2.83,0-4.62-2.2-4.62-5.66s1.94-5.88,4.77-5.88a3,3,0,0,1,2,.63,13.43,13.43,0,0,1-.09-1.65v-3.83l2.9.46v11.58c0,2.74.22,3.64.41,4.07Zm-.65-8.21a2.43,2.43,0,0,0-1.59-.72c-1.31,0-1.87,1.09-1.87,3.57s.5,3.18,2,3.18a2.09,2.09,0,0,0,1.44-.72Z" transform="translate(0 -170.36)"/><path class="cls-17" d="M1108.76,362.22a6.17,6.17,0,0,1-.76-.07,2.69,2.69,0,0,1,.65,1.83c0,1.92-1.74,3.31-4.12,3.31a3.61,3.61,0,0,1-.44,0c-.74.35-1.15.61-1.15.91,0,.15.17.26.48.26l1.57,0c1.7,0,2.59.28,3.38,1a3,3,0,0,1,1,2.37,3.17,3.17,0,0,1-.89,2.31,6,6,0,0,1-4.4,1.44,6.24,6.24,0,0,1-4.22-1.2,2.62,2.62,0,0,1-.91-2,2.23,2.23,0,0,1,.26-1.13h2.7a1.57,1.57,0,0,0-.13.72c0,.89.74,1.37,2.09,1.37a3.52,3.52,0,0,0,1.83-.37,1.36,1.36,0,0,0,.72-1.13c0-1-.89-1.31-2-1.33l-1.24,0a8,8,0,0,1-2.68-.35,1.42,1.42,0,0,1-.85-1.46c0-.72.22-1.39,2-1.87a2.89,2.89,0,0,1-2.39-3.09c0-2.29,1.85-3.77,4.7-3.77a8,8,0,0,1,2,.28,5.81,5.81,0,0,0,1.37.24,3.51,3.51,0,0,0,2.31-1l1.22,1.85A2.77,2.77,0,0,1,1108.76,362.22Zm-4.88-.11a1.55,1.55,0,0,0-1.74,1.65c0,1.13.7,1.59,1.72,1.59s1.79-.57,1.79-1.59A1.57,1.57,0,0,0,1103.88,362.11Z" transform="translate(0 -170.36)"/><path class="cls-17" d="M1114.53,366.66v.09c0,1.72.85,2.7,2.35,2.7a4.36,4.36,0,0,0,2.83-1.11l1.13,1.74a6.39,6.39,0,0,1-4.2,1.55c-3.2,0-5.27-2.26-5.27-5.77a6.1,6.1,0,0,1,1.39-4.42,4.38,4.38,0,0,1,3.5-1.5,4.56,4.56,0,0,1,3.22,1.18c1,1,1.48,2.55,1.48,4.88v.67Zm3.42-2.26a2.88,2.88,0,0,0-.35-1.68,1.41,1.41,0,0,0-1.28-.65c-1.11,0-1.74.87-1.74,2.42v0h3.38Z" transform="translate(0 -170.36)"/><path class="cls-17" d="M1126.46,371.58a3,3,0,0,1-3-1.63,4.1,4.1,0,0,1-.2-1.72v-6.05h-1.11v-2h1.11a19.56,19.56,0,0,1,.11-2.63l3-.74a33.43,33.43,0,0,0-.17,3.38h2.61l-.74,2h-1.87v5.6c0,1.42.26,1.79,1.26,1.79a3.82,3.82,0,0,0,1-.22l.37,1.74A6.12,6.12,0,0,1,1126.46,371.58Z" transform="translate(0 -170.36)"/><path class="cls-5" d="M1037,412c-.62,0-1.43.06-2.49.06h-6.13V392.64H1035c2.38,0,3.61.36,4.78,1.4a4.34,4.34,0,0,1,1.59,3.47,4.3,4.3,0,0,1-1.31,3.24,3.73,3.73,0,0,1-1.79,1,4.84,4.84,0,0,1,3.86,4.89A5.12,5.12,0,0,1,1037,412Zm-.87-15.8a3.91,3.91,0,0,0-1.62-.25h-2.24v4.45h2.29a3.61,3.61,0,0,0,1.68-.25,2.48,2.48,0,0,0,1-2A2.11,2.11,0,0,0,1036.17,396.22Zm.11,7.58a4.58,4.58,0,0,0-1.51-.17h-2.43v5.26h2.55a2.82,2.82,0,0,0,1.82-.45,2.93,2.93,0,0,0,1-2.27A2.37,2.37,0,0,0,1036.29,403.8Z" transform="translate(0 -170.36)"/><path class="cls-17" d="M1046,415.12h-1.74l5.29-18.13h1.74Z" transform="translate(0 -170.36)"/><path class="cls-17" d="M1062,412.08a6,6,0,0,1-.64,0,2.43,2.43,0,0,1,.1.75v2.92l-2.63.33v-3.5c0-.17,0-.46,0-.52a2.49,2.49,0,0,1-.66.06h-5.48V410.2l4-8.83h2.85l-3,6.7a9.72,9.72,0,0,1-.93,1.68,1.55,1.55,0,0,1,.44,0h2.34l.5,0c0-.06,0-.29,0-.37a21.47,21.47,0,0,1,.15-2.21l.23-2.42,2.17-.5v3.66c0,.48,0,.85,0,1.22s0,.58,0,.62l.66,0h.87v2.38Z" transform="translate(0 -170.36)"/><path class="cls-17" d="M1075.16,406.16v5.92h-3v-5.92l-4.47-8.46h3.48l1.84,3.93a12.64,12.64,0,0,1,.72,1.84c.17-.41.46-1.12.77-1.8l1.86-4h3.41Z" transform="translate(0 -170.36)"/><path class="cls-17" d="M1083.27,407.65v.08c0,1.63.81,2.57,2.24,2.57a4.14,4.14,0,0,0,2.69-1.06l1.08,1.66a6.08,6.08,0,0,1-4,1.47c-3,0-5-2.15-5-5.48a5.8,5.8,0,0,1,1.32-4.2,4.17,4.17,0,0,1,3.33-1.43,4.34,4.34,0,0,1,3.06,1.12c1,1,1.41,2.42,1.41,4.63v.64Zm3.25-2.15a2.72,2.72,0,0,0-.33-1.59,1.34,1.34,0,0,0-1.22-.62c-1.05,0-1.65.83-1.65,2.3v0h3.21Z" transform="translate(0 -170.36)"/><path class="cls-17" d="M1098.75,412.62a3,3,0,0,1-1.49-1.28,5.27,5.27,0,0,1-.64.56,3.67,3.67,0,0,1-2.13.58c-2.36,0-3.64-1.2-3.64-3.31,0-2.48,1.72-3.64,5.09-3.64.21,0,.39,0,.62,0v-.43c0-1.18-.23-1.57-1.24-1.57a5.84,5.84,0,0,0-3.06,1.2l-1.18-2a10.21,10.21,0,0,1,1.72-.87,7.17,7.17,0,0,1,2.9-.62c1.78,0,3,.66,3.41,1.84a4.92,4.92,0,0,1,.19,1.9l-.06,3.56a2.27,2.27,0,0,0,1,2.36Zm-2.36-5.17c-1.92,0-2.59.35-2.59,1.61a1.26,1.26,0,0,0,1.22,1.39,2,2,0,0,0,1.45-.72l0-2.28Z" transform="translate(0 -170.36)"/><path class="cls-17" d="M1107.65,403.91a1.57,1.57,0,0,0-.81-.21,2.21,2.21,0,0,0-1.7.89v7.49h-2.77V405a9.61,9.61,0,0,0-.39-3.1l2.48-.66a3.42,3.42,0,0,1,.44,1.51,3.24,3.24,0,0,1,2.48-1.51,2.14,2.14,0,0,1,1,.23Z" transform="translate(0 -170.36)"/><ellipse class="cls-18" cx="1052.53" cy="146.03" rx="35.33" ry="15.47"/><path class="cls-19" d="M1048.28,277.39s-14.91,8.49-19.4,25.49c0,0-6.57,23.72,12.18,28.37,0,0,16.51,1.45,24.69-1,0,0,18.44-2.09,10.74-29.66,0,0-5.45-14.74-18.59-23.24Z" transform="translate(0 -170.36)"/><path class="cls-20" d="M1058.09,276.13a1.35,1.35,0,0,1-1.34,1.35h-7.51a1.35,1.35,0,0,1-1.34-1.35h0a1.34,1.34,0,0,1,1.34-1.34h7.51a1.34,1.34,0,0,1,1.34,1.34Z" transform="translate(0 -170.36)"/><path class="cls-19" d="M1048.6,274.85a26.63,26.63,0,0,1-4.29-12.07s.16-1.77,1.77-1.29c0,0,1.45,1.34,2.74.64s1.82-1,2.84-.27a2.45,2.45,0,0,0,2.79-.06,2.43,2.43,0,0,1,2.9.38c.86.91,1.61.11,2.1-.48s1.88-.64,1.71,1.23c0,0-.59,8.85-3.86,11.91Z" transform="translate(0 -170.36)"/><path class="cls-3" d="M1058.79,305.09a12.12,12.12,0,0,0-2.72-1.39l.05,0-1.44-.53V297.7a2.16,2.16,0,0,1,1.94,1.11,5,5,0,0,1,.43,1.86h3.77a5.61,5.61,0,0,0-2.49-5,7,7,0,0,0-3.64-1.15v-1.93h-1.4v1.9a10.5,10.5,0,0,0-2.21.35,5.54,5.54,0,0,0-2.26,1.41,5.65,5.65,0,0,0-1.23,1.88,6.43,6.43,0,0,0-.44,2.42,5.47,5.47,0,0,0,1.13,3.46,6.76,6.76,0,0,0,3,1.95h0l.44.13,1.15.34v6.13a3,3,0,0,1-2.19-1.26,7.52,7.52,0,0,1-.55-2.42h-3.86c0,2.64.77,4.51,2.4,5.62a10,10,0,0,0,4.21,1.23v2.85h1.4v-2.88a8.47,8.47,0,0,0,3.84-1.17,5.72,5.72,0,0,0,2.64-5.24A5,5,0,0,0,1058.79,305.09Zm-7.34-6.7a2.49,2.49,0,0,1,1.84-.67v5a5.37,5.37,0,0,1-1.54-.72,2.28,2.28,0,0,1-.9-1.9A2.4,2.4,0,0,1,1051.45,298.39Zm4.93,13.83a3.54,3.54,0,0,1-1.63.52v-5.6a6.18,6.18,0,0,1,1.69.85,2.43,2.43,0,0,1,.83,2A2.61,2.61,0,0,1,1056.37,312.22Z" transform="translate(0 -170.36)"/><path class="cls-5" d="M995.32,412v2.44h-2.59V412a14.87,14.87,0,0,1-5.87-1.84l1.56-3.28a11.86,11.86,0,0,0,5.75,1.69c2.41,0,3.67-1,3.67-2.86,0-1.35-.87-2.2-2.74-2.71l-2.32-.63c-2.08-.57-3.37-1.38-4.12-2.65a6,6,0,0,1-.87-3.19c0-3.46,2.5-6,6.29-6.41V388h2.59v2.2a11.7,11.7,0,0,1,5.6,2l-2,3a9,9,0,0,0-4.88-1.59c-1.71,0-2.92,1-2.92,2.41,0,1.08.57,1.62,2.32,2.11l2.53.69c3.43.93,5.3,3.13,5.3,6.23C1002.63,408.89,999.77,411.56,995.32,412Z" transform="translate(0 -170.36)"/><path class="cls-5" d="M1013.19,412v2.44h-2.59V412a14.87,14.87,0,0,1-5.87-1.84l1.56-3.28a11.87,11.87,0,0,0,5.75,1.69c2.41,0,3.67-1,3.67-2.86,0-1.35-.87-2.2-2.74-2.71l-2.32-.63c-2.08-.57-3.37-1.38-4.12-2.65a6,6,0,0,1-.87-3.19c0-3.46,2.5-6,6.29-6.41V388h2.59v2.2a11.7,11.7,0,0,1,5.6,2l-2,3a9,9,0,0,0-4.87-1.59c-1.71,0-2.92,1-2.92,2.41,0,1.08.57,1.62,2.32,2.11l2.53.69c3.43.93,5.29,3.13,5.29,6.23C1020.5,408.89,1017.65,411.56,1013.19,412Z" transform="translate(0 -170.36)"/><ellipse class="cls-21" cx="539.45" cy="221.09" rx="257.81" ry="202.03"/><ellipse class="cls-22" cx="539.45" cy="203.32" rx="257.81" ry="202.03"/><ellipse class="cls-23" cx="539.45" cy="200.84" rx="223.01" ry="172.28"/><ellipse class="cls-24" cx="539.45" cy="195.88" rx="118.87" ry="86.35"/><rect class="cls-25" x="530.89" y="2.58" width="17.12" height="386.2"/><rect class="cls-25" x="298.87" y="187.12" width="481.16" height="17.12"/><ellipse class="cls-3" cx="539.45" cy="195.88" rx="118.87" ry="86.35"/><ellipse class="cls-26" cx="539.45" cy="195.89" rx="98.74" ry="71.73"/><polygon class="cls-27" points="615.96 186.57 458.05 186.57 486.43 226.86 591.69 226.86 615.96 186.57"/><path class="cls-28" d="M526.1,312.23H491.77a6.17,6.17,0,0,0-6.16,6.16V328.7h52.22Z" transform="translate(0 -170.36)"/><path class="cls-28" d="M592.62,391.75a6.18,6.18,0,0,1-6.16,6.16H491.77a6.18,6.18,0,0,1-6.16-6.16V329.59a6.18,6.18,0,0,1,6.16-6.16h94.68a6.18,6.18,0,0,1,6.16,6.16Z" transform="translate(0 -170.36)"/><path class="cls-19" d="M586.62,325.78H534.26l-8-11.2H491.95a6.17,6.17,0,0,0-6.16,6.16v10.32h.09a5.69,5.69,0,0,0-.09.89V394.1a6.17,6.17,0,0,0,6.16,6.16h94.67a6.18,6.18,0,0,0,6.17-6.16V331.94A6.17,6.17,0,0,0,586.62,325.78Z" transform="translate(0 -170.36)"/><path class="cls-3" d="M539.5,344.15A19.5,19.5,0,1,0,559,363.66,19.51,19.51,0,0,0,539.5,344.15Z" transform="translate(0 -170.36)"/><polygon class="cls-19" points="548.48 184.24 536.06 196.65 530.39 190.97 526.57 194.8 536.06 204.3 552.31 188.05 548.48 184.24"/><path class="cls-29" d="M722.67,371.2" transform="translate(0 -170.36)"/><path class="cls-3" d="M584.22,234l5.73-21.25L602.06,216l-1.49,3.34-7.22-1.94L592,222.34l6,1.62-.94,3.49-6-1.62-1.53,5.69,8,2.17-1,3.67Z" transform="translate(0 -170.36)"/><path class="cls-3" d="M607.54,241.5a9,9,0,0,1-5.78-5.25,11.49,11.49,0,0,1,.1-8.32,14.11,14.11,0,0,1,3.67-6,9.46,9.46,0,0,1,9.64-2,9,9,0,0,1,4.68,3.49L617,225.61a5.8,5.8,0,0,0-2.91-2.33,4.56,4.56,0,0,0-4.16.55c-1.23.91-2.19,2.52-3,4.94-1,2.84-1.31,4.51-1.09,5.86a4.58,4.58,0,0,0,3.19,3.74,5.7,5.7,0,0,0,4-.1l1,3.3A9,9,0,0,1,607.54,241.5Z" transform="translate(0 -170.36)"/><path class="cls-3" d="M628.15,249a8.39,8.39,0,0,1-4.43-.91c-3-1.38-4.6-3.11-5.22-5.8a13,13,0,0,1,1.09-8.49c2-4.32,5.2-7,8.8-7.3a9.79,9.79,0,0,1,4.6.92c5.33,2.44,6.84,7.83,4,14.11C634.89,246.06,631.79,248.75,628.15,249Zm5.72-14.35a4,4,0,0,0-2.36-4.14,3.84,3.84,0,0,0-3.91.34,12.82,12.82,0,0,0-3.51,5c-1.58,3.46-2,5.88-1.18,7.3a4.38,4.38,0,0,0,2.08,1.78c2.79,1.28,5-.31,7.28-5.41A17.64,17.64,0,0,0,633.87,234.66Z" transform="translate(0 -170.36)"/><path class="cls-3" d="M644.42,258.62l1-9.17c.33-3,.75-6.35,1.08-7.74-.78,1.64-2.06,3.89-3,5.5l-4.65,8.18-3.69-2.16,11.12-19,4.24,2.48-.82,9.73a42.47,42.47,0,0,1-1.08,6.6c.73-1.56,2-4.07,2.76-5.4l4.46-7.81,3.63,2.13-11.12,19Z" transform="translate(0 -170.36)"/><path class="cls-3" d="M662.88,270.51a8.39,8.39,0,0,1-4.14-1.81c-2.67-2-3.85-4-3.9-6.76a13,13,0,0,1,2.83-8.07c2.83-3.82,6.55-5.79,10.13-5.3a9.79,9.79,0,0,1,4.3,1.85c4.71,3.49,5.06,9.08.94,14.62C670.09,269,666.49,271,662.88,270.51Zm8.58-12.84a4,4,0,0,0-1.44-4.54,3.84,3.84,0,0,0-3.9-.49,12.81,12.81,0,0,0-4.48,4.17c-2.27,3.05-3.17,5.34-2.67,6.89a4.38,4.38,0,0,0,1.66,2.18c2.47,1.83,4.91.72,8.25-3.78A17.64,17.64,0,0,0,671.46,257.67Z" transform="translate(0 -170.36)"/><path class="cls-3" d="M681.54,288.33l7.64-9c.91-1.06,1.64-1.9,2.46-2.73-1.07.73-1.76,1.16-3,1.84l-10.91,6.15L675.07,282l5.85-10.45c.55-1,1.37-2.34,2.09-3.4-.91.93-1.86,1.81-2.88,2.72l-8.59,7.68-3.14-3.08,16.88-14.27,4,4L683.67,275a34.45,34.45,0,0,1-1.9,3c.93-.68,1.91-1.32,3.07-2l9.78-5.72,4,3.95-14,17.09Z" transform="translate(0 -170.36)"/><path class="cls-3" d="M686.64,294.29l17.06-13.91,2.92,3.58-17.06,13.91Z" transform="translate(0 -170.36)"/><path class="cls-3" d="M696.91,308.77a9,9,0,0,1-1.48-7.66,11.49,11.49,0,0,1,5.06-6.6,14.09,14.09,0,0,1,6.51-2.58,9.46,9.46,0,0,1,8.93,4.15,9,9,0,0,1,1.66,5.6l-3.61,0a5.8,5.8,0,0,0-.93-3.61,4.56,4.56,0,0,0-3.66-2c-1.53,0-3.26.7-5.4,2.13-2.5,1.68-3.75,2.82-4.38,4a4.57,4.57,0,0,0,.31,4.9,5.7,5.7,0,0,0,3.28,2.33L702,312.7A9,9,0,0,1,696.91,308.77Z" transform="translate(0 -170.36)"/><path class="cls-3" d="M710.52,335.05l.73-1.73a7.61,7.61,0,0,1-1.78-1.33,11.71,11.71,0,0,1-2.16-3.6c-1.92-4.69-1-8.19,2.54-9.62,2.29-.93,4.42-.4,6.57,1.59a6.16,6.16,0,0,1,1.3-2.76,6.77,6.77,0,0,1,2.13-1.42c2.9-1.19,5.91.39,7.32,3.85s.53,6.73-2.2,7.85a4.68,4.68,0,0,1-3.22.15,10.08,10.08,0,0,1-2.87-1.84l-.25-.2-1.84,4.72a9.48,9.48,0,0,0,3-.91l.21-.08,1.34,3.28-.18.07a14.46,14.46,0,0,1-5.84,1.29l-2.56,6.14Zm4.63-11.71a3.23,3.23,0,0,0-3.35-.48c-1.85.75-2.41,2.39-1.56,4.47a4.42,4.42,0,0,0,2.25,2.67Zm9.31-2.16a1.94,1.94,0,0,0-2.67-1.1c-.85.35-1.2.83-2,2.58l-.14.33a3.35,3.35,0,0,0,3.55.81A2,2,0,0,0,724.46,321.18Z" transform="translate(0 -170.36)"/><path class="cls-3" d="M389.5,314.21a15.74,15.74,0,0,1-6,5l-1.87-3.34a12.49,12.49,0,0,0,4.94-3.91c1.46-2.07,1.38-3.76-.22-4.89-1.16-.82-2.42-.59-4,.71l-2,1.61c-1.75,1.44-3.24,2.05-4.78,1.93a6.36,6.36,0,0,1-3.27-1.19c-3.28-2.32-3.69-6.57-1-10.37a12.92,12.92,0,0,1,6.05-4.72l1.38,3.54a9.48,9.48,0,0,0-4.33,3.22c-1,1.47-.92,3.11.29,4,.93.66,1.74.5,3.22-.71l2.13-1.75c2.89-2.38,5.91-2.65,8.57-.76C392.34,305.09,392.66,309.74,389.5,314.21Z" transform="translate(0 -170.36)"/><path class="cls-3" d="M391.44,282.27l-3.51,3.92,13.67,12.23-3,3.35-13.67-12.23-3.59,4-2.74-2.45,10.58-11.83Z" transform="translate(0 -170.36)"/><path class="cls-3" d="M414.56,285.86c-1.61-.51-2.27-.72-3.95-1.3-4.28-1.47-5.49-1.82-6.31-1.55a2.25,2.25,0,0,0-.64.33l6.16,6.81-3.22,2.91-14.77-16.32,6.08-5.51a6.1,6.1,0,0,1,9.13.45c2.21,2.44,2.42,5.93.44,7.8a4.18,4.18,0,0,1,1.3.06c1.8.29,8.14,2.29,9.66,2.79ZM400.67,274a8,8,0,0,0-2.07,1.44l-1.17,1.06,4,4.41,1.1-1c1.41-1.28,1.89-2,2-2.77a3,3,0,0,0-.85-2.22A2.58,2.58,0,0,0,400.67,274Z" transform="translate(0 -170.36)"/><path class="cls-3" d="M429.75,274.07l-4.33-3.3-5.22,3.81,1.83,5.13-3.73,2.73-7.19-22.08,3.86-2.82,18.62,13.73Zm-11-8.51-3-2.62c.2.48,1.11,2.64,1.66,4s1,2.53,1.46,4l3.48-2.54C422,268.15,420,266.59,418.79,265.57Z" transform="translate(0 -170.36)"/><path class="cls-3" d="M437.09,247.89l-4.51,2.71L442,266.32l-3.85,2.32-9.44-15.72-4.61,2.77-1.89-3.15,13.6-8.17Z" transform="translate(0 -170.36)"/><path class="cls-3" d="M448.54,262.61l-9.82-19.69,11.22-5.6,1.1,3.48-6.69,3.33,2.27,4.56,5.58-2.78,1.61,3.23-5.58,2.78,2.63,5.27,7.45-3.72,1.7,3.4Z" transform="translate(0 -170.36)"/><path class="cls-3" d="M470.84,252.72a8.83,8.83,0,0,1-8.21-.35,11.63,11.63,0,0,1-5-6.29c-1.72-4.33-1.52-7.95.58-11a9.09,9.09,0,0,1,4.4-3.42,10.45,10.45,0,0,1,7.44-.23l-1.16,3.42a7,7,0,0,0-4.9.1,4.48,4.48,0,0,0-2.53,2.2c-.86,1.87-.34,4.22.88,7.28s2.4,4.6,3.84,5.22a4.89,4.89,0,0,0,3.66-.12,5.2,5.2,0,0,0,2.13-1.42l-1.84-4.65L467,244.71l-1.86-3.15,7.92-3.14,3.88,9.77A14.17,14.17,0,0,1,470.84,252.72Z" transform="translate(0 -170.36)"/><path class="cls-3" d="M481.46,248.6l-6.73-21,4.4-1.41,6.73,21Z" transform="translate(0 -170.36)"/><path class="cls-3" d="M498.82,244a9,9,0,0,1-7.72-1.16,11.49,11.49,0,0,1-4.54-7,14.1,14.1,0,0,1-.26-7,9.46,9.46,0,0,1,6.89-7,9,9,0,0,1,5.83.3l-1.19,3.41a5.8,5.8,0,0,0-3.71-.32A4.56,4.56,0,0,0,491,228c-.51,1.44-.43,3.31.21,5.8.75,2.92,1.41,4.48,2.35,5.48a4.57,4.57,0,0,0,4.73,1.34,5.7,5.7,0,0,0,3.3-2.32l2.66,2.2A9,9,0,0,1,498.82,244Z" transform="translate(0 -170.36)"/><path class="cls-3" d="M349.37,396.69l21.34-5.42,3.09,12.16-3.64.34-1.84-7.25-4.94,1.26,1.54,6-3.5.89-1.54-6-5.71,1.45,2.05,8.07-3.68.94Z" transform="translate(0 -170.36)"/><path class="cls-3" d="M358.65,424.12l6.17-6.86c2-2.25,4.31-4.72,5.39-5.65-1.59.88-3.95,2-5.61,2.73L356,418.27l-1.73-3.91,20.12-8.93,2,4.49-6.34,7.42a42.56,42.56,0,0,1-4.73,4.73c1.5-.84,4-2.13,5.39-2.77l8.18-3.74,1.71,3.85-20.12,8.93Z" transform="translate(0 -170.36)"/><path class="cls-3" d="M368.58,441.77l-2.21-3.36L380.8,420l2.66,4.05-7.58,9.34a39.43,39.43,0,0,1-2.65,2.95A42.22,42.22,0,0,1,377.6,435l11.16-2.85,2.55,3.89Z" transform="translate(0 -170.36)"/><path class="cls-3" d="M375.25,450.59l17-14,2.94,3.57-17,14Z" transform="translate(0 -170.36)"/><path class="cls-3" d="M389.74,466.4c.42-1.64.6-2.31,1.09-4,1.24-4.35,1.53-5.58,1.21-6.39a2.25,2.25,0,0,0-.36-.63l-6.48,6.51-3.08-3.06,15.53-15.61,5.82,5.79a6.1,6.1,0,0,1,0,9.14c-2.32,2.34-5.79,2.73-7.77.85a4.18,4.18,0,0,1,0,1.3c-.2,1.81-1.86,8.25-2.28,9.79Zm11.16-14.5a8,8,0,0,0-1.55-2l-1.12-1.12L394,453l1.06,1c1.35,1.34,2.07,1.79,2.87,1.83a3,3,0,0,0,2.17-1A2.58,2.58,0,0,0,400.9,451.9Z" transform="translate(0 -170.36)"/><path class="cls-3" d="M407.86,480.57a8.39,8.39,0,0,1-4.12-1.86c-2.65-2-3.8-4.05-3.81-6.81a13,13,0,0,1,2.94-8c2.88-3.78,6.62-5.71,10.2-5.17a9.79,9.79,0,0,1,4.28,1.91c4.66,3.55,4.94,9.15.75,14.64C415.09,479.19,411.46,481.12,407.86,480.57Zm8.75-12.73a4,4,0,0,0-1.38-4.56,3.84,3.84,0,0,0-3.89-.54,12.82,12.82,0,0,0-4.53,4.11c-2.31,3-3.24,5.3-2.76,6.86a4.38,4.38,0,0,0,1.63,2.2c2.44,1.86,4.9.79,8.3-3.67A17.64,17.64,0,0,0,416.61,467.84Z" transform="translate(0 -170.36)"/><path class="cls-3" d="M425.19,492.41l1-9.17c.33-3,.75-6.35,1.08-7.74-.78,1.64-2.06,3.89-3,5.5l-4.65,8.18L416,487l11.12-19,4.24,2.48-.82,9.73a42.47,42.47,0,0,1-1.08,6.6c.73-1.56,2-4.07,2.76-5.4l4.46-7.81,3.63,2.13-11.12,19Z" transform="translate(0 -170.36)"/><path class="cls-3" d="M451.17,504.85l3.9-11.11c.47-1.32.85-2.36,1.31-3.43-.73,1.06-1.22,1.71-2.1,2.78l-8,9.66-3.46-1.49,1.71-11.85c.17-1.1.43-2.68.73-3.93-.51,1.19-1.09,2.36-1.71,3.57l-5.26,10.25-4-1.75,10.62-19.39,5.2,2.25-1.72,11.26a34.34,34.34,0,0,1-.68,3.5c.63-1,1.31-1.92,2.15-3l7.06-8.85,5.17,2.24-6.93,21Z" transform="translate(0 -170.36)"/><path class="cls-3" d="M460.45,508.22l6.6-21L479,491l-1.63,3.27L470.25,492l-1.53,4.86,6,1.87-1.08,3.44-6-1.87-1.77,5.62,7.95,2.5-1.14,3.63Z" transform="translate(0 -170.36)"/><path class="cls-3" d="M487.25,515.53l-1.83-9c-.6-3-1.22-6.28-1.32-7.7-.24,1.8-.78,4.34-1.15,6.14l-1.93,9.2-4.17-.94,4.81-21.47,4.79,1.07,2.18,9.51a42.57,42.57,0,0,1,1,6.61c.22-1.7.68-4.49,1-6l1.88-8.8,4.11.92-4.81,21.48Z" transform="translate(0 -170.36)"/><path class="cls-3" d="M513.22,501.21l-5.21-.73-2.56,18.16L501,518l2.56-18.16-5.33-.75.51-3.64,15.71,2.22Z" transform="translate(0 -170.36)"/><path class="cls-3" d="M571.27,515.08a7.54,7.54,0,0,1-5.06,3.63c-.81.14-1.85.29-3.14.4l-5.33.47-1.93-21.93,4.42-.39c1.26-.11,2.94-.2,3.83-.21a7.47,7.47,0,0,1,5,1.76c2.19,1.81,3.42,4.53,3.77,8.48A12.59,12.59,0,0,1,571.27,515.08Zm-5-13a3.64,3.64,0,0,0-3.63-1.52l-2,.18,1.31,14.86,2.37-.21c2.9-.26,4-2.61,3.62-7.25C567.67,505.57,567.26,503.44,566.25,502.07Z" transform="translate(0 -170.36)"/><path class="cls-3" d="M578.61,517.44,575,495.73l12.37-2.08,0,3.66L580,498.54l.85,5,6.15-1,.6,3.56-6.15,1,1,5.81,8.21-1.38.63,3.75Z" transform="translate(0 -170.36)"/><path class="cls-3" d="M606.58,511.69l-11.3,2.73L590.11,493l4.4-1.06,4.3,17.83,7.67-1.85Z" transform="translate(0 -170.36)"/><path class="cls-3" d="M610.66,510.47l-6.37-21.07,4.43-1.34,6.37,21.07Z" transform="translate(0 -170.36)"/><path class="cls-3" d="M628.65,504.56,624.88,506l-14.8-18.12,4.54-1.71,7.45,9.45a39.46,39.46,0,0,1,2.3,3.23,42.28,42.28,0,0,1-.36-4.57l-.34-11.51L628,481.1Z" transform="translate(0 -170.36)"/><path class="cls-3" d="M638.53,500.35,629,480.49l11.31-5.41,1,3.5-6.74,3.23,2.2,4.6,5.63-2.69L644,487l-5.63,2.69,2.54,5.31,7.51-3.6,1.64,3.43Z" transform="translate(0 -170.36)"/><path class="cls-3" d="M663.25,487.18c-1.48-.81-2.09-1.15-3.62-2-3.91-2.27-5-2.86-5.89-2.75a2.25,2.25,0,0,0-.7.2l4.72,7.88L654,492.7l-11.32-18.89,7-4.22a6.1,6.1,0,0,1,8.87,2.22c1.69,2.83,1.22,6.29-1.09,7.74a4.21,4.21,0,0,1,1.26.32c1.71.64,7.54,3.83,8.93,4.62ZM651.94,472.8a8,8,0,0,0-2.31,1l-1.36.81,3.06,5.11,1.28-.77c1.63-1,2.24-1.56,2.48-2.33a3,3,0,0,0-.41-2.34A2.58,2.58,0,0,0,651.94,472.8Z" transform="translate(0 -170.36)"/><path class="cls-3" d="M680.63,474.9l-4.39-3.23-5.15,3.9,1.92,5.1-3.68,2.79-7.58-22,3.81-2.89L684.41,472Zm-11.11-8.31L666.46,464c.21.48,1.15,2.62,1.73,4s1,2.52,1.54,4l3.43-2.6C672.74,469.11,670.71,467.59,669.52,466.59Z" transform="translate(0 -170.36)"/><path class="cls-3" d="M694.29,462.52c-.48.51-1.12,1.17-2,2l-5,4.83L672,453.57l5.34-5.19c1.93-1.88,3.22-2.55,5-2.64a4.92,4.92,0,0,1,4,1.56,4.87,4.87,0,0,1,1.49,3.67,4.22,4.22,0,0,1-.66,2.23,5.48,5.48,0,0,1,7,.93A5.79,5.79,0,0,1,694.29,462.52Zm-13.17-12.15a4.43,4.43,0,0,0-1.52,1.08l-1.82,1.77,3.51,3.61,1.86-1.81a4.09,4.09,0,0,0,1.16-1.53,2.81,2.81,0,0,0-.75-2.41A2.39,2.39,0,0,0,681.12,450.36Zm6.07,6.07a5.17,5.17,0,0,0-1.36,1.06l-2,1.92,4.15,4.27,2.07-2a3.2,3.2,0,0,0,1.12-1.8,3.32,3.32,0,0,0-1-2.63A2.68,2.68,0,0,0,687.19,456.43Z" transform="translate(0 -170.36)"/><path class="cls-3" d="M701.8,454.54l-16.85-14.16,3-3.54L704.77,451Z" transform="translate(0 -170.36)"/><path class="cls-3" d="M715.17,436.72l-6.61,9.56-18.1-12.52L693,430l15.08,10.43L712.6,434Z" transform="translate(0 -170.36)"/><path class="cls-3" d="M717.57,432.46,698.3,421.83l2.23-4,19.27,10.64Z" transform="translate(0 -170.36)"/><path class="cls-3" d="M710.82,403.59l-2,4.86,16.95,7L724,419.63l-16.95-7-2.06,5-3.39-1.41,6.08-14.66Z" transform="translate(0 -170.36)"/><path class="cls-3" d="M722.33,395.65l8.81,2.12-1.08,4.5-8.81-2.12-14.2,3.62,1.25-5.17,6.51-1.33a19.44,19.44,0,0,1,3-.42c-.56-.39-1.5-1.08-2.4-1.78l-5.25-4.19,1.22-5.08Z" transform="translate(0 -170.36)"/><path class="cls-3" d="M596,249.58l-6.67-2.13-1.53,4.8,5.34,1.7-1.1,3.44-5.34-1.7-3,9.32-4.22-1.35,6.69-21,11.37,3.63Z" transform="translate(0 -170.36)"/><path class="cls-3" d="M592.55,268.07l8-20.5,4.31,1.68-8,20.5Z" transform="translate(0 -170.36)"/><path class="cls-3" d="M610.48,276l.33-9.22c.1-3,.28-6.39.51-7.79-.65,1.69-1.77,4-2.55,5.7l-4,8.5-3.84-1.88,9.69-19.76,4.41,2.16-.1,9.76a42.55,42.55,0,0,1-.59,6.66c.61-1.6,1.71-4.2,2.35-5.58l3.88-8.12,3.78,1.85L614.63,278Z" transform="translate(0 -170.36)"/><path class="cls-3" d="M628.06,286.43l1.53-5.23-5.43-3.5L620,281.24l-3.89-2.51,18-14.63,4,2.59L632.05,289Zm4-13.28,1.37-3.75c-.38.36-2.07,2-3.18,3s-2,1.83-3.2,2.8l3.62,2.34C630.8,277,631.54,274.61,632.07,273.15Z" transform="translate(0 -170.36)"/><path class="cls-3" d="M641.43,296.92l2.55-8.87c.83-2.9,1.82-6.13,2.38-7.44-1,1.48-2.69,3.49-3.86,4.91l-6,7.27L633.28,290l14.2-16.82,3.75,3.17-2.46,9.45a42.59,42.59,0,0,1-2.19,6.32c1-1.41,2.68-3.67,3.64-4.85l5.73-6.93,3.22,2.72L645,299.9Z" transform="translate(0 -170.36)"/><path class="cls-3" d="M653.47,309.61a9,9,0,0,1-2.53-7.38A11.48,11.48,0,0,1,655,295a14.1,14.1,0,0,1,6.09-3.46,9.46,9.46,0,0,1,9.42,2.87,9,9,0,0,1,2.42,5.31l-3.57.52a5.79,5.79,0,0,0-1.43-3.44,4.56,4.56,0,0,0-3.91-1.52c-1.51.21-3.14,1.15-5,2.86-2.24,2-3.32,3.32-3.77,4.62a4.57,4.57,0,0,0,1,4.81,5.7,5.7,0,0,0,3.58,1.86l-.72,3.37A9,9,0,0,1,653.47,309.61Z" transform="translate(0 -170.36)"/><path class="cls-3" d="M659.21,316.15l17.92-12.79,2.69,3.77L661.9,319.92Z" transform="translate(0 -170.36)"/><path class="cls-3" d="M669.92,333.52l3.85-3.86L670.68,324l-5.33,1.13-2.21-4.06L686,316.85l2.29,4.2-16.07,16.64Zm9.88-9.74,3-2.64c-.5.13-2.77.75-4.23,1.11s-2.64.64-4.15.92l2.06,3.78C676.82,326.59,678.63,324.82,679.8,323.78Z" transform="translate(0 -170.36)"/><path class="cls-3" d="M676.37,350.09l-3.89-11,20.74-7.36,1.51,4.27-17.28,6.13,2.64,7.43Z" transform="translate(0 -170.36)"/><path class="cls-3" d="M393.46,411.06a15.74,15.74,0,0,1-1.44-7.63h3.83a12.49,12.49,0,0,0,1,6.22c1.09,2.29,2.61,3,4.38,2.19,1.29-.61,1.69-1.83,1.33-3.83l-.45-2.49c-.4-2.23-.21-3.83.64-5.12a6.35,6.35,0,0,1,2.63-2.28c3.63-1.73,7.54,0,9.55,4.18a12.92,12.92,0,0,1,1.17,7.59l-3.76-.52a9.49,9.49,0,0,0-.7-5.35c-.78-1.63-2.27-2.32-3.61-1.68-1,.49-1.28,1.28-.95,3.16l.49,2.71c.67,3.68-.57,6.45-3.51,7.86C400,418,395.82,416,393.46,411.06Z" transform="translate(0 -170.36)"/><path class="cls-3" d="M409.77,434.55a8.4,8.4,0,0,1-3.49-2.87c-2-2.63-2.62-4.9-1.91-7.57a13,13,0,0,1,4.92-7c3.76-2.9,7.88-3.79,11.19-2.35a9.79,9.79,0,0,1,3.64,3c3.58,4.64,2.4,10.11-3.07,14.33C417.11,435.09,413.11,436,409.77,434.55Zm11.75-10a4,4,0,0,0-.15-4.76,3.84,3.84,0,0,0-3.62-1.53,12.81,12.81,0,0,0-5.44,2.8c-3,2.32-4.5,4.27-4.44,5.91a4.38,4.38,0,0,0,1,2.55c1.88,2.43,4.53,2,9-1.39A17.65,17.65,0,0,0,421.52,424.53Z" transform="translate(0 -170.36)"/><path class="cls-3" d="M423,449.5a9,9,0,0,1-3.29-7.08,11.49,11.49,0,0,1,3.33-7.63,14.1,14.1,0,0,1,5.7-4.07,9.46,9.46,0,0,1,9.67,1.88,9,9,0,0,1,3,5l-3.5.89a5.8,5.8,0,0,0-1.78-3.28,4.56,4.56,0,0,0-4-1.1c-1.48.36-3,1.47-4.72,3.37-2,2.23-3,3.64-3.28,5a4.57,4.57,0,0,0,1.49,4.68,5.7,5.7,0,0,0,3.75,1.48l-.37,3.43A9,9,0,0,1,423,449.5Z" transform="translate(0 -170.36)"/><path class="cls-3" d="M431.67,456l12.93-17.82,3.74,2.72-12.93,17.82Z" transform="translate(0 -170.36)"/><path class="cls-3" d="M450.56,468.16l1.29-5.3-5.58-3.25-4,3.74-4-2.33,17.34-15.45,4.13,2.41-5.11,22.57ZM454,454.71l1.19-3.81c-.36.37-2,2.07-3,3.14S450.19,456,449,457l3.72,2.17C452.87,458.65,453.49,456.2,454,454.71Z" transform="translate(0 -170.36)"/><path class="cls-3" d="M468.83,476.75l-10.63-4.69,8.88-20.14,4.14,1.83-7.4,16.78,7.22,3.18Z" transform="translate(0 -170.36)"/><path class="cls-3" d="M494.75,484.8l-.95-1.63a7.58,7.58,0,0,1-2.13.62,11.67,11.67,0,0,1-4.17-.45c-4.9-1.29-7.13-4.14-6.16-7.82.63-2.39,2.34-3.77,5.23-4.29a6.17,6.17,0,0,1-1.42-2.7,6.76,6.76,0,0,1,.15-2.55c.8-3,3.87-4.48,7.48-3.53s5.69,3.63,4.94,6.48a4.67,4.67,0,0,1-1.82,2.67,10.09,10.09,0,0,1-3.2,1.19l-.32.08,2.66,4.31a9.48,9.48,0,0,0,1.07-2.93l.06-.21,3.43.91,0,.18a14.47,14.47,0,0,1-2.48,5.44l3.37,5.74Zm-6.56-10.74a3.23,3.23,0,0,0-2.4,2.38c-.51,1.93.46,3.36,2.63,3.94a4.42,4.42,0,0,0,3.49-.19Zm3.88-8.74a1.94,1.94,0,0,0-2.49,1.47c-.23.89-.06,1.46.88,3.12l.18.31a3.35,3.35,0,0,0,2.78-2.35A2,2,0,0,0,492.06,465.32Z" transform="translate(0 -170.36)"/><circle class="cls-30" cx="586.68" cy="411.53" r="4.46"/><path class="cls-30" d="M625.5,573.39a3.52,3.52,0,0,0,4.47,3.53,5.81,5.81,0,0,0,4.47-5.41A3.52,3.52,0,0,0,630,568,5.8,5.8,0,0,0,625.5,573.39Z" transform="translate(0 -170.36)"/><path class="cls-30" d="M659.37,561.55a3.23,3.23,0,0,0,4.1,3.24,5.32,5.32,0,0,0,4.1-5,3.23,3.23,0,0,0-4.1-3.24A5.33,5.33,0,0,0,659.37,561.55Z" transform="translate(0 -170.36)"/><path class="cls-30" d="M688.25,546.78a3.14,3.14,0,0,0,4,3.15,5.19,5.19,0,0,0,4-4.83,3.14,3.14,0,0,0-4-3.16A5.19,5.19,0,0,0,688.25,546.78Z" transform="translate(0 -170.36)"/><path class="cls-30" d="M717.12,527a3.12,3.12,0,0,0,4,3.13,5.15,5.15,0,0,0,4-4.8,3.11,3.11,0,0,0-4-3.12A5.14,5.14,0,0,0,717.12,527Z" transform="translate(0 -170.36)"/><path class="cls-30" d="M742.52,504.48c0,2.2,1.78,3.26,4,2.37a6.6,6.6,0,0,0,4-5.57c0-2.2-1.78-3.25-4-2.37A6.6,6.6,0,0,0,742.52,504.48Z" transform="translate(0 -170.36)"/><path class="cls-30" d="M764.32,480.16c.27,2.05,1.59,2.53,2.94,1a9,9,0,0,0,1.94-6.4c-.27-2.05-1.59-2.52-2.94-1A9,9,0,0,0,764.32,480.16Z" transform="translate(0 -170.36)"/><path class="cls-30" d="M781.73,451c.37,1.74,1.31,2,2.1.64a9.44,9.44,0,0,0,.76-5.69c-.37-1.75-1.31-2-2.1-.64A9.34,9.34,0,0,0,781.73,451Z" transform="translate(0 -170.36)"/><circle class="cls-30" cx="491.09" cy="411.53" r="4.45"/><path class="cls-30" d="M452.27,573.39a3.52,3.52,0,0,1-4.47,3.53,5.81,5.81,0,0,1-4.47-5.41A3.51,3.51,0,0,1,447.8,568,5.8,5.8,0,0,1,452.27,573.39Z" transform="translate(0 -170.36)"/><path class="cls-30" d="M418.4,561.55a3.23,3.23,0,0,1-4.1,3.24,5.33,5.33,0,0,1-4.1-5,3.23,3.23,0,0,1,4.1-3.24A5.33,5.33,0,0,1,418.4,561.55Z" transform="translate(0 -170.36)"/><path class="cls-30" d="M389.51,546.78a3.14,3.14,0,0,1-4,3.15,5.19,5.19,0,0,1-4-4.83,3.14,3.14,0,0,1,4-3.16A5.19,5.19,0,0,1,389.51,546.78Z" transform="translate(0 -170.36)"/><path class="cls-30" d="M360.64,527a3.12,3.12,0,0,1-4,3.13,5.15,5.15,0,0,1-4-4.8,3.11,3.11,0,0,1,4-3.12A5.14,5.14,0,0,1,360.64,527Z" transform="translate(0 -170.36)"/><path class="cls-30" d="M335.24,504.48c0,2.2-1.78,3.26-4,2.37a6.6,6.6,0,0,1-4-5.57c0-2.2,1.78-3.25,4-2.37A6.61,6.61,0,0,1,335.24,504.48Z" transform="translate(0 -170.36)"/><path class="cls-30" d="M313.45,480.16c-.28,2.05-1.59,2.53-2.94,1a9,9,0,0,1-1.95-6.4c.27-2.05,1.59-2.52,2.94-1A9,9,0,0,1,313.45,480.16Z" transform="translate(0 -170.36)"/><path class="cls-30" d="M296,451c-.37,1.74-1.31,2-2.1.64a9.42,9.42,0,0,1-.76-5.69c.37-1.75,1.31-2,2.1-.64A9.32,9.32,0,0,1,296,451Z" transform="translate(0 -170.36)"/><path class="cls-31" d="M1055.39,446.49V714.21a15,15,0,0,0,15,15h184.48" transform="translate(0 -170.36)"/><path class="cls-32" d="M1055.39,446.49V714.21a15,15,0,0,0,15,15h184.48" transform="translate(0 -170.36)"/><use width="12.14" height="12.14" transform="matrix(-1.65, -0.05, -0.05, 1.65, 1065.67, 479.44)" xlink:href="#New_Symbol_8"/><use id="New_Symbol_7-3" data-name="New Symbol 7" width="14.1" height="14.09" transform="translate(1155.53 546.5) scale(1.42)" xlink:href="#New_Symbol_7"/><path class="cls-33" d="M286.62,383.78H222.73a25.65,25.65,0,0,0-25.65,25.65V784.59c0,21.63,2.12,63.35,2.12,63.35H6.8v48.6h171c53.67,0,76.46-45.58,76.46-77.35l-1.62-368.78c0-14.79,4.87-15.32,12.46-15.32h21.5C287,416.5,286.62,399,286.62,383.78Z" transform="translate(0 -170.36)"/><path class="cls-25" d="M303.57,360.62H231.49c-32.29,0-46.67,27.25-45.5,51.45V804.94c0,21.63-19.09,19.84-19.09,19.84H5v48.6H187.28c44.2-5.53,57.08-40,57.08-54.19V427.72c0-14.79,5.14-15.8,12.73-15.8h46.47C304,393.34,303.57,375.86,303.57,360.62Z" transform="translate(0 -170.36)"/><g class="cls-34"><use width="4.38" height="4.38" transform="translate(256.49 250.5) scale(1.97)" xlink:href="#New_Symbol_59"/><use width="4.38" height="4.38" transform="translate(295.02 250.5) scale(1.97)" xlink:href="#New_Symbol_59"/></g><use width="4.38" height="4.38" transform="translate(33.38 711.97) scale(1.98 1.97)" xlink:href="#New_Symbol_59"/><use width="4.38" height="4.38" transform="translate(72.13 711.97) scale(1.98 1.97)" xlink:href="#New_Symbol_59"/><use width="4.38" height="4.38" transform="translate(110.87 711.97) scale(1.98 1.97)" xlink:href="#New_Symbol_59"/><use width="4.38" height="4.38" transform="translate(149.62 711.97) scale(1.98 1.97)" xlink:href="#New_Symbol_59"/><use width="4.38" height="4.38" transform="translate(194.86 711.97) scale(1.98 1.97)" xlink:href="#New_Symbol_59"/><use width="4.38" height="4.38" transform="translate(235.63 681.76) scale(1.52 1.97)" xlink:href="#New_Symbol_59"/><path class="cls-35" d="M0,849H171.83s44.44-2.1,43.34-40.28c.57-61.09,0-378.1,0-378.1s-4.87-46.84,34.08-46.32c46.29.76,54.4,0,54.4,0" transform="translate(0 -170.36)"/><path class="cls-33" d="M553.74,567.91V822.57c0,21.63,19.09,19.84,19.09,19.84H1248V891H584.79c-81.06.29-78.33-69.57-78.33-83.74V567.91Z" transform="translate(0 -170.36)"/><path class="cls-25" d="M572.72,558.49V781.72c0,40.13,27.26,37.53,41.19,37.53h684.92v48.6H567.91c-54.78,0-63-55.5-63-69.67V558.49Z" transform="translate(0 -170.36)"/><use width="4.38" height="4.38" transform="matrix(-1.98, 0, 0, 1.97, 718.69, 706.44)" xlink:href="#New_Symbol_59"/><use width="4.38" height="4.38" transform="matrix(-1.98, 0, 0, 1.97, 679.53, 706.44)" xlink:href="#New_Symbol_59"/><use width="4.38" height="4.38" transform="matrix(-1.98, 0, 0, 1.97, 640.37, 706.44)" xlink:href="#New_Symbol_59"/><use width="4.38" height="4.38" transform="matrix(-1.98, 0, 0, 1.97, 601.2, 706.44)" xlink:href="#New_Symbol_59"/><use width="4.38" height="4.38" transform="matrix(-1.98, 0, 0, 1.97, 875.35, 706.44)" xlink:href="#New_Symbol_59"/><use width="4.38" height="4.38" transform="matrix(-1.98, 0, 0, 1.97, 836.18, 706.44)" xlink:href="#New_Symbol_59"/><use width="4.38" height="4.38" transform="matrix(-1.98, 0, 0, 1.97, 797.02, 706.44)" xlink:href="#New_Symbol_59"/><use width="4.38" height="4.38" transform="matrix(-1.98, 0, 0, 1.97, 757.86, 706.44)" xlink:href="#New_Symbol_59"/><use width="4.38" height="4.38" transform="matrix(-1.98, 0, 0, 1.97, 1032, 706.44)" xlink:href="#New_Symbol_59"/><use width="4.38" height="4.38" transform="matrix(-1.98, 0, 0, 1.97, 992.83, 706.44)" xlink:href="#New_Symbol_59"/><use width="4.38" height="4.38" transform="matrix(-1.98, 0, 0, 1.97, 953.67, 706.44)" xlink:href="#New_Symbol_59"/><use width="4.38" height="4.38" transform="matrix(-1.98, 0, 0, 1.97, 914.51, 706.44)" xlink:href="#New_Symbol_59"/><use width="4.38" height="4.38" transform="matrix(-1.98, 0, 0, 1.97, 1188.65, 706.44)" xlink:href="#New_Symbol_59"/><use width="4.38" height="4.38" transform="matrix(-1.98, 0, 0, 1.97, 1149.49, 706.44)" xlink:href="#New_Symbol_59"/><use width="4.38" height="4.38" transform="matrix(-1.98, 0, 0, 1.97, 1110.32, 706.44)" xlink:href="#New_Symbol_59"/><use width="4.38" height="4.38" transform="matrix(-1.98, 0, 0, 1.97, 1071.16, 706.44)" xlink:href="#New_Symbol_59"/><use width="4.38" height="4.38" transform="matrix(-1.98, 0, 0, 1.97, 555.96, 706.44)" xlink:href="#New_Symbol_59"/><use width="4.38" height="4.38" transform="matrix(-1.52, 0, 0, 1.97, 523.32, 678.58)" xlink:href="#New_Symbol_59"/><path class="cls-35" d="M1203.83,843.47h-605c-15.31.08-61.77-7.6-62.72-60.43V554.7" transform="translate(0 -170.36)"/><path class="cls-36" d="M538.92,567.89" transform="translate(0 -170.36)"/><path class="cls-28" d="M242.4,345.05H223.19a3.46,3.46,0,0,0-3.45,3.45v5.78H249Z" transform="translate(0 -170.36)"/><rect class="cls-28" x="219.74" y="180.97" width="59.9" height="41.7" rx="3.45" ry="3.45"/><path class="cls-19" d="M276.29,352.64H247l-4.47-6.27H223.28a3.46,3.46,0,0,0-3.44,3.45v5.78h0a3,3,0,0,0,0,.5v34.8a3.46,3.46,0,0,0,3.44,3.45h53a3.46,3.46,0,0,0,3.45-3.45v-34.8A3.46,3.46,0,0,0,276.29,352.64Z" transform="translate(0 -170.36)"/><path class="cls-3" d="M245.58,363.49l-14,16.4c-.27.35.38.92.66,1.27a.62.62,0,0,0,.49.26.64.64,0,0,0,.49-.26l13.72-17.67Z" transform="translate(0 -170.36)"/><path class="cls-3" d="M267.68,379.65l-13.85-16.16H252.5L266,380.92a.58.58,0,0,0,1,0c.27-.35.92-.92.66-1.27" transform="translate(0 -170.36)"/><polygon class="cls-3" points="257.02 200.42 242.52 200.42 243.91 198.77 255.63 198.77 257.02 200.42"/><polygon class="cls-3" points="254.28 197.12 245.27 197.12 246.13 196.09 253.41 196.09 254.28 197.12"/><polygon class="cls-3" points="247.38 194.22 246.82 194.9 252.72 194.9 252.16 194.22 247.38 194.22"/><polygon class="cls-3" points="260.49 205.4 239.06 205.4 241.11 202.95 258.44 202.95 260.49 205.4"/><polygon class="cls-3" points="265.06 211.21 234.49 211.21 237.41 207.71 262.13 207.71 265.06 211.21"/><path class="cls-28" d="M715.33,797.59H696.12a3.46,3.46,0,0,0-3.45,3.45v5.78h29.24Z" transform="translate(0 -170.36)"/><path class="cls-28" d="M752.57,842.11a3.46,3.46,0,0,1-3.45,3.45h-53a3.46,3.46,0,0,1-3.45-3.45v-34.8a3.46,3.46,0,0,1,3.45-3.45h53a3.46,3.46,0,0,1,3.45,3.45Z" transform="translate(0 -170.36)"/><path class="cls-19" d="M749.22,805.18H719.91l-4.48-6.27H696.22a3.46,3.46,0,0,0-3.45,3.45v5.78h.05a3,3,0,0,0-.05.5v34.8a3.46,3.46,0,0,0,3.45,3.45h53a3.46,3.46,0,0,0,3.45-3.45v-34.8A3.46,3.46,0,0,0,749.22,805.18Z" transform="translate(0 -170.36)"/><path class="cls-3" d="M718.51,816l-14,16.4c-.27.35.38.92.66,1.27a.62.62,0,0,0,.49.27.64.64,0,0,0,.49-.27L719.84,816Z" transform="translate(0 -170.36)"/><path class="cls-3" d="M740.62,832.18,726.77,816h-1.33L739,833.46a.63.63,0,0,0,.49.27.64.64,0,0,0,.49-.27c.27-.35.92-.92.66-1.27" transform="translate(0 -170.36)"/><polygon class="cls-3" points="729.95 652.96 715.45 652.96 716.84 651.3 728.57 651.3 729.95 652.96"/><polygon class="cls-3" points="727.21 649.65 718.2 649.65 719.06 648.62 726.35 648.62 727.21 649.65"/><polygon class="cls-3" points="720.32 646.75 719.75 647.43 725.66 647.43 725.1 646.75 720.32 646.75"/><polygon class="cls-3" points="733.42 657.93 711.99 657.93 714.04 655.48 731.37 655.48 733.42 657.93"/><polygon class="cls-3" points="737.99 663.75 707.42 663.75 710.35 660.25 735.06 660.25 737.99 663.75"/><path class="cls-28" d="M533.82,663.85H514.61a3.46,3.46,0,0,0-3.45,3.45v5.78H540.4Z" transform="translate(0 -170.36)"/><path class="cls-28" d="M571.06,708.37a3.46,3.46,0,0,1-3.45,3.45h-53a3.46,3.46,0,0,1-3.45-3.45v-34.8a3.46,3.46,0,0,1,3.45-3.45h53a3.46,3.46,0,0,1,3.45,3.45Z" transform="translate(0 -170.36)"/><path class="cls-19" d="M567.71,671.44H538.39l-4.47-6.27H514.7a3.46,3.46,0,0,0-3.44,3.45v5.78h.05a3,3,0,0,0-.05.5v34.8a3.46,3.46,0,0,0,3.44,3.45h53a3.46,3.46,0,0,0,3.45-3.45v-34.8A3.46,3.46,0,0,0,567.71,671.44Z" transform="translate(0 -170.36)"/><path class="cls-3" d="M537,682.29l-14,16.4c-.27.35.38.92.66,1.27a.62.62,0,0,0,.49.27.63.63,0,0,0,.49-.27l13.72-17.67Z" transform="translate(0 -170.36)"/><path class="cls-3" d="M559.11,698.45l-13.85-16.16h-1.33l13.54,17.43a.58.58,0,0,0,1,0c.27-.35.92-.92.66-1.27" transform="translate(0 -170.36)"/><polygon class="cls-3" points="548.44 519.22 533.94 519.22 535.33 517.57 547.05 517.57 548.44 519.22"/><polygon class="cls-3" points="545.7 515.92 536.69 515.92 537.55 514.88 544.84 514.88 545.7 515.92"/><polygon class="cls-3" points="538.8 513.02 538.24 513.7 544.14 513.7 543.58 513.02 538.8 513.02"/><polygon class="cls-3" points="551.9 524.2 530.48 524.2 532.53 521.75 549.86 521.75 551.9 524.2"/><polygon class="cls-3" points="556.48 530.01 525.91 530.01 528.83 526.51 553.55 526.51 556.48 530.01"/><path class="cls-28" d="M113.74,802H94.52a3.45,3.45,0,0,0-3.45,3.45v5.78h29.24Z" transform="translate(0 -170.36)"/><rect class="cls-28" x="91.07" y="637.9" width="59.9" height="41.7" rx="3.45" ry="3.45"/><path class="cls-19" d="M147.62,809.57H118.31l-4.47-6.27H94.62a3.46,3.46,0,0,0-3.45,3.45v5.78h.05a3.24,3.24,0,0,0-.05.5v34.8a3.46,3.46,0,0,0,3.45,3.45h53a3.46,3.46,0,0,0,3.45-3.45V813A3.46,3.46,0,0,0,147.62,809.57Z" transform="translate(0 -170.36)"/><path class="cls-3" d="M124.67,835.74h-4.54c-.46,0-.91,0-1.37,0a.77.77,0,0,0-.78,1l0,.06a.73.73,0,0,0,.39.39,1.21,1.21,0,0,0,.44.08h5.83c.54,0,.87-.29.88-.76s-.32-.79-.88-.8" transform="translate(0 -170.36)"/><path class="cls-3" d="M124.55,838.31H119c-.56,0-.91.32-.9.78a1,1,0,0,0,0,.19.71.71,0,0,0,.51.51,1.12,1.12,0,0,0,.34.05h5.57c.56,0,.9-.31.9-.78a.79.79,0,0,0-.88-.76" transform="translate(0 -170.36)"/><path class="cls-3" d="M119,840.88h-.11a3.85,3.85,0,0,0,1.45,1.33,3,3,0,0,0,1.38.34,3.65,3.65,0,0,0,2.84-1.67H119Z" transform="translate(0 -170.36)"/><path class="cls-3" d="M126.21,830.64l-3.49.91,0,2.59a1.08,1.08,0,0,0,1.07,1.09h0a1.08,1.08,0,0,0,1.09-1.07v-.93l1.88-.49a1.08,1.08,0,1,0-.54-2.1" transform="translate(0 -170.36)"/><path class="cls-3" d="M126.21,827.39l-8.63,2.25-.83.22a1.08,1.08,0,0,0-.8,1.18,1.12,1.12,0,0,0,.1.61,1,1,0,0,0,.51.51h0l2.2,1,0,1a.91.91,0,0,0,0,.25,1.06,1.06,0,0,0,.77.76,1,1,0,0,0,.28,0h0a1.09,1.09,0,0,0,1.05-1.11l-.07-2.35-1-.49,6.91-1.79a1.08,1.08,0,1,0-.54-2.1" transform="translate(0 -170.36)"/><path class="cls-3" d="M126.21,824.14l-5.85,1.52-2.81.73-.81.21a1.08,1.08,0,0,0-.78,1.31l.06.16a1.09,1.09,0,0,0,1,.65,1.16,1.16,0,0,0,.27,0l2-.53,2.8-.73,4.62-1.2a1.08,1.08,0,1,0-.54-2.1" transform="translate(0 -170.36)"/><path class="cls-3" d="M116.06,824.9a1.13,1.13,0,0,0,.46.46,1.11,1.11,0,0,0,.5.12,1.16,1.16,0,0,0,.27,0l2.26-.59,7.2-1.87a1.11,1.11,0,0,0,.55-.34,1.1,1.1,0,0,0,.23-1,1.46,1.46,0,0,0-.06-.17,1.08,1.08,0,0,0-.54-.54,1.07,1.07,0,0,0-.72-.07l-.53.13-7.9,2.06-1,.27a1.08,1.08,0,0,0-.78,1.32,2.27,2.27,0,0,0,.1.23" transform="translate(0 -170.36)"/><path class="cls-3" d="M116,821.42a1.09,1.09,0,0,0,1,.8h.1l.27,0,6-1.55a1.08,1.08,0,0,0,.78-1.28.12.12,0,0,0,0-.05,1.07,1.07,0,0,0-.83-.78,1,1,0,0,0-.49,0l-6,1.55a1.09,1.09,0,0,0-.8,1.15,1.44,1.44,0,0,0,0,.18" transform="translate(0 -170.36)"/><path class="cls-28" d="M1015.74,797.59H996.53a3.46,3.46,0,0,0-3.45,3.44v5.78h29.24Z" transform="translate(0 -170.36)"/><path class="cls-28" d="M1053,842.11a3.47,3.47,0,0,1-3.46,3.44h-53a3.46,3.46,0,0,1-3.45-3.44V807.31a3.45,3.45,0,0,1,3.45-3.44h53a3.46,3.46,0,0,1,3.46,3.44Z" transform="translate(0 -170.36)"/><path class="cls-19" d="M1049.63,805.18h-29.31l-4.48-6.27H996.62a3.46,3.46,0,0,0-3.45,3.44v5.78h.05a3.43,3.43,0,0,0-.05.5v34.8a3.46,3.46,0,0,0,3.45,3.45h53a3.46,3.46,0,0,0,3.45-3.45v-34.8A3.46,3.46,0,0,0,1049.63,805.18Z" transform="translate(0 -170.36)"/><path class="cls-37" d="M1006.27,805.53a7.4,7.4,0,1,0,7.4,7.4A7.4,7.4,0,0,0,1006.27,805.53Z" transform="translate(0 -170.36)"/><polygon class="cls-19" points="1009.68 639.13 1004.97 643.84 1002.82 641.69 1001.37 643.14 1004.97 646.74 1011.13 640.58 1009.68 639.13"/><g class="cls-34"><path class="cls-3" d="M1029.23,835.49a2.47,2.47,0,0,1-2.47-2.47.56.56,0,1,1,1.11,0,1.36,1.36,0,0,0,1.36,1.35.56.56,0,1,1,0,1.11m2.19-5.93c-.64-1-1.26-1.91-1.29-1.95l-.45-.62-.45-.62-.45.62-.45.62s-.65.9-1.29,1.95a7.63,7.63,0,0,0-1.39,3.45,3.58,3.58,0,0,0,7.17,0,7.63,7.63,0,0,0-1.39-3.45" transform="translate(0 -170.36)"/><path class="cls-3" d="M1023.94,829.77a2.09,2.09,0,0,1-2.09-2.08.47.47,0,0,1,.94,0,1.14,1.14,0,0,0,1.14,1.14.47.47,0,1,1,0,.94m1.85-5c-.54-.88-1.06-1.61-1.09-1.64l-.38-.52-.38-.52-.38.52-.38.52s-.55.76-1.09,1.64a6.48,6.48,0,0,0-1.17,2.91,3,3,0,0,0,6,0,6.46,6.46,0,0,0-1.17-2.91" transform="translate(0 -170.36)"/><path class="cls-3" d="M1033.38,826.53a2.09,2.09,0,0,1-2.08-2.08.47.47,0,1,1,.94,0,1.14,1.14,0,0,0,1.14,1.14.47.47,0,0,1,0,.94m1.85-5c-.54-.88-1.06-1.6-1.08-1.64l-.38-.52-.38-.53-.38.53-.39.52s-.55.76-1.08,1.64a6.38,6.38,0,0,0-1.17,2.91,3,3,0,0,0,6,0,6.39,6.39,0,0,0-1.17-2.91" transform="translate(0 -170.36)"/></g></g></g></g></g></svg>