<svg xmlns="http://www.w3.org/2000/svg" xmlns:xlink="http://www.w3.org/1999/xlink" viewBox="0 0 1080 346.53"><defs><style>.cls-1,.cls-12,.cls-9{fill:none;}.cls-2{clip-path:url(#clip-path);}.cls-3{fill:#39c6bc;}.cls-4{fill:#fff;}.cls-5{clip-path:url(#clip-path-2);}.cls-6{fill:#939597;}.cls-7{fill:url(#linear-gradient);}.cls-8{clip-path:url(#clip-path-3);}.cls-9{stroke:#bbbdc0;stroke-linecap:round;stroke-linejoin:round;stroke-width:8px;opacity:0.4;}.cls-10{fill:#333e48;}.cls-11{fill:#6a0032;}.cls-12{stroke:#cdd1d3;stroke-miterlimit:10;}</style><clipPath id="clip-path"><rect class="cls-1" x="-0.12" width="1080" height="146.03"/></clipPath><clipPath id="clip-path-2"><rect class="cls-1" y="146.12" width="1080" height="200.41"/></clipPath><linearGradient id="linear-gradient" x1="539.88" y1="172.69" x2="539.88" y2="146.03" gradientUnits="userSpaceOnUse"><stop offset="0.01" stop-color="#231f20" stop-opacity="0"/><stop offset="0.86" stop-color="#0f0d0d" stop-opacity="0.23"/><stop offset="1" stop-opacity="0.4"/></linearGradient><clipPath id="clip-path-3"><rect class="cls-1" x="14.88" y="718.51" width="1080" height="1589.98"/></clipPath></defs><title>IP_sc6_header</title><g id="Ui"><g class="cls-2"><path class="cls-3" d="M1108.39,0H-18.49a10,10,0,0,0-10,10V146H1118.39V10A10,10,0,0,0,1108.39,0Z"/></g><path class="cls-4" d="M319,61.85q3.68,3.13,3.67,9.6t-3.77,9.48q-3.78,3-11.53,3h-4.65v9.75h-7.8v-35h12.35Q315.32,58.73,319,61.85ZM313.27,75.6a6.72,6.72,0,0,0,1.4-4.6q0-3-1.83-4.3t-5.67-1.27h-4.45V77.18H308Q311.87,77.18,313.27,75.6Z"/><path class="cls-4" d="M342.17,73.38a5.68,5.68,0,0,0-5,2.38A10.79,10.79,0,0,0,335.52,82V93.68H328V66.78h7.5v3.55a12.62,12.62,0,0,1,3.63-2.8,9.86,9.86,0,0,1,4.42-1.2l.05,7.05Z"/><path class="cls-4" d="M375.07,80.23a13.3,13.3,0,0,1-4,9.85,14.94,14.94,0,0,1-20.35,0,14,14,0,0,1,0-19.72,14.87,14.87,0,0,1,20.35,0A13.39,13.39,0,0,1,375.07,80.23Zm-20.9,0A7.71,7.71,0,0,0,356,85.6a6.59,6.59,0,0,0,9.6,0,7.71,7.71,0,0,0,1.88-5.37,7.8,7.8,0,0,0-1.87-5.4,6.54,6.54,0,0,0-9.6,0A7.8,7.8,0,0,0,354.17,80.23Z"/><path class="cls-4" d="M383.17,94.18V66.73h7.5v28a9,9,0,0,1-9.22,9.5,10.83,10.83,0,0,1-7.37-3.2l3.45-5.55a4.37,4.37,0,0,0,3.35,1.75,2.06,2.06,0,0,0,1.65-.77A3.56,3.56,0,0,0,383.17,94.18Zm.63-30.83a4.47,4.47,0,1,1,3.13,1.28A4.25,4.25,0,0,1,383.79,63.35Z"/><path class="cls-4" d="M421.07,89.78a15,15,0,0,1-10.67,4.3,14.17,14.17,0,0,1-10.12-3.77,13.26,13.26,0,0,1-4-10.12,13.06,13.06,0,0,1,4.08-10.1A13.74,13.74,0,0,1,410,66.33a13.91,13.91,0,0,1,9.42,3.35,11.52,11.52,0,0,1,3.88,9.2v4h-19.6a5.34,5.34,0,0,0,2.3,3.6,7.36,7.36,0,0,0,4.4,1.4,8.63,8.63,0,0,0,6.5-2.65Zm-7.2-16a5.68,5.68,0,0,0-3.78-1.3A6.76,6.76,0,0,0,406,73.88a5.16,5.16,0,0,0-2.15,3.65h11.8A5.33,5.33,0,0,0,413.87,73.83Z"/><path class="cls-4" d="M441.57,87.43q3.75,0,6.75-3.75l4.45,5q-5.2,5.4-11.25,5.4a14.58,14.58,0,0,1-10.23-3.82,12.93,12.93,0,0,1-4.17-10,13,13,0,0,1,4.22-10.05,14.34,14.34,0,0,1,10-3.87,15.63,15.63,0,0,1,5.88,1.2,14.86,14.86,0,0,1,5.22,3.55l-3.9,5.1a8.88,8.88,0,0,0-3.17-2.4,9,9,0,0,0-3.73-.85,7.3,7.3,0,0,0-5.08,1.92,6.85,6.85,0,0,0-2.12,5.35,6.77,6.77,0,0,0,2.13,5.33A7.22,7.22,0,0,0,441.57,87.43Z"/><path class="cls-4" d="M466.72,72.18v12a3.46,3.46,0,0,0,.8,2.42,2.49,2.49,0,0,0,1.9.88,4.33,4.33,0,0,0,3.55-1.9l2.8,5.25a10.83,10.83,0,0,1-7.37,3.2,9,9,0,0,1-9.22-9.5V72.18H456v-5.4h3.15v-8h7.55v8h6.5v5.4Z"/><path class="cls-4" d="M493.71,58.73h7.8v35h-7.8Z"/><path class="cls-4" d="M516.61,78.68v15h-7.5V66.78h7.5v3a10.5,10.5,0,0,1,7.65-3.45,9.47,9.47,0,0,1,7.13,3,11.08,11.08,0,0,1,2.88,8V93.68h-7.5V78.48q0-6.2-4.55-6.2a5.46,5.46,0,0,0-3.93,1.63A6.36,6.36,0,0,0,516.61,78.68Z"/><path class="cls-4" d="M549.76,65.23V67h6.5v5.4h-6.5V93.68h-7.55V72.43h-3.15V67h3.15V65.38a9,9,0,0,1,9.33-9.55,10.41,10.41,0,0,1,7.22,3l-2.7,5.05a4.8,4.8,0,0,0-3.65-1.9,2.46,2.46,0,0,0-1.9.83A3.49,3.49,0,0,0,549.76,65.23Z"/><path class="cls-4" d="M587.16,80.23a13.3,13.3,0,0,1-4,9.85,14.94,14.94,0,0,1-20.35,0,14,14,0,0,1,0-19.72,14.87,14.87,0,0,1,20.35,0A13.39,13.39,0,0,1,587.16,80.23Zm-20.9,0a7.71,7.71,0,0,0,1.88,5.38,6.59,6.59,0,0,0,9.6,0,7.71,7.71,0,0,0,1.88-5.37,7.8,7.8,0,0,0-1.87-5.4,6.54,6.54,0,0,0-9.6,0A7.8,7.8,0,0,0,566.26,80.23Z"/><path class="cls-4" d="M606.86,73.38a5.68,5.68,0,0,0-5,2.38A10.79,10.79,0,0,0,600.21,82V93.68h-7.5V66.78h7.5v3.55a12.62,12.62,0,0,1,3.63-2.8,9.86,9.86,0,0,1,4.42-1.2l.05,7.05Z"/><path class="cls-4" d="M638,79.18v14.5h-7.55V79a8.82,8.82,0,0,0-1-4.7,3.48,3.48,0,0,0-3.15-1.5,5.37,5.37,0,0,0-3.85,1.63,6.36,6.36,0,0,0-1.67,4.78v14.5h-7.5V66.78h7.5v3a9.28,9.28,0,0,1,7.1-3.5,7.71,7.71,0,0,1,4.63,1.5,9.77,9.77,0,0,1,3.13,3.65,10.55,10.55,0,0,1,4.17-3.8,11.43,11.43,0,0,1,5.27-1.35,10.5,10.5,0,0,1,7.65,2.83q2.9,2.83,2.9,8.17V93.68h-7.55V79q0-6.2-4.55-6.2a5.37,5.37,0,0,0-3.9,1.63A6.41,6.41,0,0,0,638,79.18Z"/><path class="cls-4" d="M685.26,93.68h-7.05V90.43A8.84,8.84,0,0,1,671,94.08a10.67,10.67,0,0,1-7.17-2.47A8.24,8.24,0,0,1,661,85a7,7,0,0,1,3-6.18q3-2,8.2-2h5.6v-.15q0-4.3-4.55-4.3a12.3,12.3,0,0,0-4.12.78A13.42,13.42,0,0,0,665.41,75l-3.35-4.85a20.06,20.06,0,0,1,12.1-3.85,12.52,12.52,0,0,1,8,2.45q3.1,2.45,3.1,7.75Zm-7.55-10.25v-1.3H673q-4.5,0-4.5,2.8a2.57,2.57,0,0,0,1.07,2.22,5.2,5.2,0,0,0,3.08.78,5.47,5.47,0,0,0,3.53-1.23A4,4,0,0,0,677.71,83.43Z"/><path class="cls-4" d="M700.76,72.18v12a3.46,3.46,0,0,0,.8,2.42,2.49,2.49,0,0,0,1.9.88,4.33,4.33,0,0,0,3.55-1.9l2.8,5.25a10.83,10.83,0,0,1-7.37,3.2,9,9,0,0,1-9.22-9.5V72.18h-3.15v-5.4h3.15v-8h7.55v8h6.5v5.4Z"/><path class="cls-4" d="M714.43,63.35a4.47,4.47,0,1,1,3.13,1.28A4.25,4.25,0,0,1,714.43,63.35Zm6.88,30.33h-7.5V66.78h7.5Z"/><path class="cls-4" d="M755.31,80.23a13.3,13.3,0,0,1-4,9.85,14.94,14.94,0,0,1-20.35,0,14,14,0,0,1,0-19.72,14.87,14.87,0,0,1,20.35,0A13.39,13.39,0,0,1,755.31,80.23Zm-20.9,0a7.71,7.71,0,0,0,1.88,5.38,6.59,6.59,0,0,0,9.6,0,7.71,7.71,0,0,0,1.88-5.37,7.8,7.8,0,0,0-1.87-5.4,6.54,6.54,0,0,0-9.6,0A7.8,7.8,0,0,0,734.41,80.23Z"/><path class="cls-4" d="M768.36,78.68v15h-7.5V66.78h7.5v3A10.5,10.5,0,0,1,776,66.33a9.47,9.47,0,0,1,7.13,3,11.08,11.08,0,0,1,2.88,8V93.68h-7.5V78.48q0-6.2-4.55-6.2A5.46,5.46,0,0,0,770,73.9,6.36,6.36,0,0,0,768.36,78.68Z"/><g class="cls-5"><path class="cls-6" d="M1101.44,346.53V158c0-6.59-4.5-12-10-12h-1102c-5.5,0-10,5.39-10,12V346.53Z"/></g><rect class="cls-7" x="-0.12" y="146.03" width="1080" height="26.66"/><g class="cls-8"><line class="cls-9" x1="1068.91" y1="-532" x2="1068.91" y2="855.09"/><path class="cls-10" d="M104.51,14.61a15.56,15.56,0,0,1-6.41,1.15c-6.84,0-12-4.32-12-12.27,0-7.59,5.15-12.74,12.67-12.74a13,13,0,0,1,5.76,1.08l-.76,2.56a11.4,11.4,0,0,0-4.9-1c-5.69,0-9.47,3.63-9.47,10,0,5.94,3.42,9.75,9.32,9.75a12.55,12.55,0,0,0,5.11-1Z"/><path class="cls-10" d="M122.48,10.65c0,1.8,0,3.38.14,4.75h-2.81l-.18-2.84h-.07a6.55,6.55,0,0,1-5.76,3.24c-2.74,0-6-1.51-6-7.63V-2H111V7.63c0,3.31,1,5.54,3.89,5.54A4.58,4.58,0,0,0,119,10.29a4.62,4.62,0,0,0,.29-1.62V-2h3.17Z"/><path class="cls-10" d="M127.73,3.42c0-2.05,0-3.82-.14-5.44h2.77l.11,3.42h.14a5.23,5.23,0,0,1,4.82-3.82,3.41,3.41,0,0,1,.9.11v3a4.74,4.74,0,0,0-1.08-.11c-2.23,0-3.82,1.69-4.25,4.07a8.88,8.88,0,0,0-.14,1.48V15.4h-3.13Z"/><path class="cls-10" d="M139.65,3.42c0-2.05,0-3.82-.14-5.44h2.77l.11,3.42h.14a5.23,5.23,0,0,1,4.82-3.82,3.41,3.41,0,0,1,.9.11v3a4.74,4.74,0,0,0-1.08-.11c-2.23,0-3.82,1.69-4.25,4.07a8.88,8.88,0,0,0-.14,1.48V15.4h-3.13Z"/><path class="cls-10" d="M152.82,7.27c.07,4.28,2.81,6,6,6a11.46,11.46,0,0,0,4.82-.9l.54,2.27a14.12,14.12,0,0,1-5.8,1.08c-5.36,0-8.57-3.53-8.57-8.78s3.1-9.4,8.17-9.4c5.69,0,7.2,5,7.2,8.21a11.91,11.91,0,0,1-.11,1.48ZM162.11,5c0-2-.83-5.15-4.39-5.15-3.2,0-4.61,3-4.86,5.15Z"/><path class="cls-10" d="M169.1,2.7c0-1.8,0-3.28-.14-4.71h2.81l.18,2.88H172a6.41,6.41,0,0,1,5.76-3.28c2.41,0,6.16,1.44,6.16,7.42V15.4h-3.17v-10c0-2.81-1-5.15-4-5.15a4.5,4.5,0,0,0-4.25,3.24,4.55,4.55,0,0,0-.22,1.48V15.4H169.1Z"/><path class="cls-10" d="M192.75-7v5h4.54V.39h-4.54V9.79c0,2.16.61,3.38,2.38,3.38A7,7,0,0,0,197,13l.14,2.38a7.76,7.76,0,0,1-2.81.43,4.39,4.39,0,0,1-3.42-1.33c-.9-.94-1.22-2.48-1.22-4.54V.39H187V-2h2.7V-6.19Z"/><path class="cls-10" d="M208.16,11.59a11.11,11.11,0,0,0,5.62,1.58c3.2,0,5.08-1.69,5.08-4.14,0-2.27-1.3-3.56-4.57-4.82-4-1.4-6.41-3.46-6.41-6.87,0-3.78,3.13-6.59,7.85-6.59a11,11,0,0,1,5.36,1.19l-.86,2.55a9.67,9.67,0,0,0-4.61-1.15c-3.31,0-4.57,2-4.57,3.64,0,2.27,1.48,3.38,4.82,4.68,4.1,1.58,6.19,3.56,6.19,7.13,0,3.74-2.77,7-8.5,7a12.54,12.54,0,0,1-6.19-1.55Z"/><path class="cls-10" d="M229.94-7v5h4.54V.39h-4.54V9.79c0,2.16.61,3.38,2.38,3.38a7,7,0,0,0,1.83-.22l.14,2.38a7.76,7.76,0,0,1-2.81.43,4.39,4.39,0,0,1-3.42-1.33c-.9-.94-1.22-2.48-1.22-4.54V.39h-2.7V-2h2.7V-6.19Z"/><path class="cls-10" d="M247.68,15.4l-.25-2.2h-.11A6.49,6.49,0,0,1,242,15.8a5,5,0,0,1-5.33-5c0-4.21,3.74-6.52,10.47-6.48V4c0-1.44-.4-4-4-4a8.68,8.68,0,0,0-4.54,1.3l-.72-2.09a10.82,10.82,0,0,1,5.72-1.55c5.33,0,6.62,3.64,6.62,7.13v6.52a24.55,24.55,0,0,0,.29,4.18Zm-.47-8.89c-3.46-.07-7.38.54-7.38,3.92a2.8,2.8,0,0,0,3,3A4.34,4.34,0,0,0,247,10.55a3.32,3.32,0,0,0,.18-1Z"/><path class="cls-10" d="M259.06-7v5h4.54V.39h-4.54V9.79c0,2.16.61,3.38,2.38,3.38a7,7,0,0,0,1.83-.22l.14,2.38a7.76,7.76,0,0,1-2.81.43,4.39,4.39,0,0,1-3.42-1.33c-.9-.94-1.22-2.48-1.22-4.54V.39h-2.7V-2H256V-6.19Z"/><path class="cls-10" d="M281.74,10.65c0,1.8,0,3.38.14,4.75h-2.81l-.18-2.84h-.07a6.55,6.55,0,0,1-5.76,3.24c-2.74,0-6-1.51-6-7.63V-2h3.17V7.63c0,3.31,1,5.54,3.89,5.54a4.58,4.58,0,0,0,4.17-2.88,4.62,4.62,0,0,0,.29-1.62V-2h3.17Z"/><path class="cls-10" d="M286.56,12.16a8.3,8.3,0,0,0,4.18,1.26c2.3,0,3.38-1.15,3.38-2.59s-.9-2.34-3.24-3.2c-3.13-1.12-4.61-2.84-4.61-4.93,0-2.81,2.27-5.11,6-5.11a8.69,8.69,0,0,1,4.28,1.08L295.78,1a6.78,6.78,0,0,0-3.56-1C290.34,0,289.3,1,289.3,2.34s1,2.09,3.31,3c3,1.15,4.57,2.66,4.57,5.26,0,3.06-2.38,5.22-6.52,5.22a9.93,9.93,0,0,1-4.89-1.19Z"/><path class="cls-10" d="M308.13.86a2.15,2.15,0,1,1,4.28,0,2.1,2.1,0,0,1-2.16,2.23A2.11,2.11,0,0,1,308.13.86Zm0,12.71a2.15,2.15,0,1,1,4.28,0,2.14,2.14,0,1,1-4.28,0Z"/><path class="cls-11" d="M377.23-7.56q2.63,2.2,2.63,6.77t-2.68,6.7Q374.49,8,368.95,8h-4.46V15.4h-4.25V-9.76h8.64Q374.6-9.76,377.23-7.56Zm-3,10.39a5.55,5.55,0,0,0,1.28-4,4.1,4.1,0,0,0-1.62-3.69,9.34,9.34,0,0,0-5.08-1.08h-4.32V4.17h4.93Q372.94,4.17,374.22,2.82Z"/><path class="cls-11" d="M394.33,0A5.35,5.35,0,0,0,389.83,2a8.28,8.28,0,0,0-1.51,5.22V15.4h-4V-3.75h4V.1a8.34,8.34,0,0,1,2.65-3A6.37,6.37,0,0,1,394.51-4l0,4.07Z"/><path class="cls-11" d="M416.39,7.59h-15A4.36,4.36,0,0,0,403.29,11a7.42,7.42,0,0,0,9.5-1l2.3,2.52a10.71,10.71,0,0,1-8.06,3.2A9.6,9.6,0,0,1,400.18,13a9.46,9.46,0,0,1-2.83-7.2,9.3,9.3,0,0,1,2.88-7.18A9.66,9.66,0,0,1,407-4a9.83,9.83,0,0,1,6.64,2.36,8.13,8.13,0,0,1,2.74,6.5Zm-15-3.17h11A4.62,4.62,0,0,0,410.85.72a5.53,5.53,0,0,0-3.73-1.3,6.38,6.38,0,0,0-4,1.35A4.36,4.36,0,0,0,401.38,4.42Z"/><path class="cls-11" d="M420.5,6.55V2.77h12V6.55Z"/><path class="cls-11" d="M439.43,13a9.81,9.81,0,0,1-2.7-7.2,9.42,9.42,0,0,1,2.77-7.13A9.2,9.2,0,0,1,446.11-4,7.27,7.27,0,0,1,452.29-.8V-11.31h4V15.4h-4V12.52a7.47,7.47,0,0,1-6.52,3.17A8.62,8.62,0,0,1,439.43,13Zm1.33-7a6,6,0,0,0,1.76,4.48,5.73,5.73,0,0,0,4.14,1.73,5.35,5.35,0,0,0,4-1.75,6.25,6.25,0,0,0,1.66-4.48,6.57,6.57,0,0,0-1.66-4.57,5.27,5.27,0,0,0-4.07-1.84,5.48,5.48,0,0,0-4.14,1.84A6.43,6.43,0,0,0,440.76,5.92Z"/><path class="cls-11" d="M480,7.59H465A4.36,4.36,0,0,0,466.87,11a7.42,7.42,0,0,0,9.5-1l2.3,2.52a10.71,10.71,0,0,1-8.06,3.2A9.6,9.6,0,0,1,463.75,13a9.46,9.46,0,0,1-2.83-7.2,9.3,9.3,0,0,1,2.88-7.18A9.66,9.66,0,0,1,470.59-4a9.83,9.83,0,0,1,6.64,2.36A8.13,8.13,0,0,1,480,4.82ZM465,4.42h11A4.62,4.62,0,0,0,474.43.72a5.53,5.53,0,0,0-3.73-1.3,6.38,6.38,0,0,0-4,1.35A4.36,4.36,0,0,0,465,4.42Z"/><path class="cls-11" d="M498,9.68a5.39,5.39,0,0,1-2,4.37A7.7,7.7,0,0,1,491,15.69a13.6,13.6,0,0,1-4.34-.76,13,13,0,0,1-4-2.12l1.94-3.13a10.86,10.86,0,0,0,6.48,2.52,3.38,3.38,0,0,0,2.16-.63A2,2,0,0,0,494,10q0-1.44-3.82-2.59l-.43-.14q-6-1.62-6-5.4a5.12,5.12,0,0,1,2.07-4.27A8.54,8.54,0,0,1,491.27-4a11.19,11.19,0,0,1,6.26,1.94L496,.9a9,9,0,0,0-5.08-1.55,4.63,4.63,0,0,0-2.34.52,1.7,1.7,0,0,0-.9,1.57,1.43,1.43,0,0,0,.94,1.37,9.07,9.07,0,0,0,1.82.61q1.17.29,2.07.58t1.75.65a11.4,11.4,0,0,1,1.82,1A4.5,4.5,0,0,1,498,9.68Z"/><path class="cls-11" d="M502.87-7.56a2.46,2.46,0,0,1-.76-1.8,2.46,2.46,0,0,1,.76-1.8,2.46,2.46,0,0,1,1.8-.76,2.46,2.46,0,0,1,1.8.76,2.45,2.45,0,0,1,.76,1.8,2.45,2.45,0,0,1-.76,1.8,2.46,2.46,0,0,1-1.8.76A2.46,2.46,0,0,1,502.87-7.56Zm3.78,23h-4V-3.75h4Z"/><path class="cls-11" d="M530.19-3.75V13q0,5.08-2.75,7.61a10,10,0,0,1-7.07,2.54,12.45,12.45,0,0,1-7.81-2.7l1.91-3.06a9.35,9.35,0,0,0,5.67,2.12A6.62,6.62,0,0,0,524.66,18q1.67-1.48,1.67-4.72V10.83a6.86,6.86,0,0,1-2.57,2.7,7.14,7.14,0,0,1-3.76,1,8.13,8.13,0,0,1-6.26-2.66,9.42,9.42,0,0,1-2.45-6.62,9.42,9.42,0,0,1,2.45-6.62A8.11,8.11,0,0,1,520-4,7.4,7.4,0,0,1,526.16-.9V-3.75ZM515.25,5.09a6.06,6.06,0,0,0,1.46,4.07,4.89,4.89,0,0,0,3.92,1.71,5.19,5.19,0,0,0,4-1.66,5.84,5.84,0,0,0,1.53-4.12A6,6,0,0,0,524.61.91a5.15,5.15,0,0,0-4-1.71A4.81,4.81,0,0,0,516.71,1,6.27,6.27,0,0,0,515.25,5.09Z"/><path class="cls-11" d="M540.05,5V15.4h-4V-3.75h4V-.26A7.18,7.18,0,0,1,542.73-3a7.15,7.15,0,0,1,3.69-1,7.12,7.12,0,0,1,5.24,2,7.71,7.71,0,0,1,2,5.72V15.4h-4V4.89q0-5.29-4.39-5.29A5.28,5.28,0,0,0,541.6,1,5.15,5.15,0,0,0,540.05,5Z"/><path class="cls-11" d="M559,6.55V2.77h12V6.55Z"/><path class="cls-11" d="M586.67-4a9.1,9.1,0,0,1,6.59,2.66A9.45,9.45,0,0,1,596,5.72a9.85,9.85,0,0,1-2.72,7.2,8.43,8.43,0,0,1-12.83-.4v9.86h-4V-3.75h4V-.4A7.17,7.17,0,0,1,586.67-4Zm-6.3,9.9A6.25,6.25,0,0,0,582,10.35a5.35,5.35,0,0,0,4,1.75,5.73,5.73,0,0,0,4.14-1.73A6,6,0,0,0,592,5.88a6.38,6.38,0,0,0-1.73-4.57A5.51,5.51,0,0,0,586.1-.51,5.29,5.29,0,0,0,582,1.31,6.51,6.51,0,0,0,580.37,5.86Z"/><path class="cls-11" d="M610.65,0A5.35,5.35,0,0,0,606.15,2a8.28,8.28,0,0,0-1.51,5.22V15.4h-4V-3.75h4V.1a8.34,8.34,0,0,1,2.65-3A6.37,6.37,0,0,1,610.83-4l0,4.07Z"/><path class="cls-11" d="M630.55,12.83a10.49,10.49,0,0,1-14.4,0,9.49,9.49,0,0,1-2.88-7,9.49,9.49,0,0,1,2.88-7,10.49,10.49,0,0,1,14.4,0,9.49,9.49,0,0,1,2.88,7A9.49,9.49,0,0,1,630.55,12.83ZM619,10.35a6.26,6.26,0,0,0,8.68,0,6.18,6.18,0,0,0,1.71-4.52,6.19,6.19,0,0,0-1.71-4.52,6.26,6.26,0,0,0-8.68,0,6.18,6.18,0,0,0-1.71,4.52A6.18,6.18,0,0,0,619,10.35Z"/><path class="cls-11" d="M646.5,15.69A9.67,9.67,0,0,1,639.63,13a9.32,9.32,0,0,1-2.88-7.11,9.24,9.24,0,0,1,3-7.15A10.45,10.45,0,0,1,647.08-4a9.94,9.94,0,0,1,7.31,3L652,1.87a7.65,7.65,0,0,0-5-2.16,6.31,6.31,0,0,0-4.37,1.67,5.55,5.55,0,0,0-1.85,4.32,6.09,6.09,0,0,0,1.84,4.48A6.14,6.14,0,0,0,647.13,12a7,7,0,0,0,5.06-2.45l2.38,2.59A11,11,0,0,1,646.5,15.69Z"/><path class="cls-11" d="M672.14,6.62V-3.75h4V15.4h-4V11.91a7.26,7.26,0,0,1-6.37,3.78,7.12,7.12,0,0,1-5.24-2,7.71,7.71,0,0,1-2-5.72V-3.75h4V6.76q0,5.29,4.39,5.29a5.28,5.28,0,0,0,3.64-1.39A5.15,5.15,0,0,0,672.14,6.62Z"/><path class="cls-11" d="M692,0A5.35,5.35,0,0,0,687.54,2,8.28,8.28,0,0,0,686,7.2V15.4h-4V-3.75h4V.1a8.34,8.34,0,0,1,2.65-3A6.37,6.37,0,0,1,692.22-4l0,4.07Z"/><path class="cls-11" d="M714.11,7.59h-15A4.36,4.36,0,0,0,701,11a7.42,7.42,0,0,0,9.5-1l2.3,2.52a10.71,10.71,0,0,1-8.06,3.2A9.6,9.6,0,0,1,697.89,13a9.46,9.46,0,0,1-2.83-7.2,9.3,9.3,0,0,1,2.88-7.18A9.66,9.66,0,0,1,704.73-4a9.83,9.83,0,0,1,6.64,2.36,8.13,8.13,0,0,1,2.74,6.5Zm-15-3.17h11A4.62,4.62,0,0,0,708.57.72a5.53,5.53,0,0,0-3.73-1.3,6.38,6.38,0,0,0-4,1.35A4.36,4.36,0,0,0,699.1,4.42Z"/><path class="cls-11" d="M722.57,5V15.4h-4V-3.75h4V-.26A6.4,6.4,0,0,1,725.18-3a7.41,7.41,0,0,1,3.76-1q4.54,0,6.16,3.74A8.6,8.6,0,0,1,742.19-4a7.12,7.12,0,0,1,5.24,2,7.71,7.71,0,0,1,2,5.72V15.4h-4V4.89Q745.39-.4,741-.4A5.33,5.33,0,0,0,737.42.91a5,5,0,0,0-1.6,3.83V15.4h-4V4.89a6.66,6.66,0,0,0-1-4A3.6,3.6,0,0,0,727.75-.4,5.28,5.28,0,0,0,724.12,1,5.15,5.15,0,0,0,722.57,5Z"/><path class="cls-11" d="M772.86,7.59h-15A4.36,4.36,0,0,0,759.76,11a7.42,7.42,0,0,0,9.5-1l2.3,2.52a10.71,10.71,0,0,1-8.06,3.2A9.6,9.6,0,0,1,756.64,13a9.46,9.46,0,0,1-2.83-7.2,9.3,9.3,0,0,1,2.88-7.18A9.66,9.66,0,0,1,763.48-4a9.83,9.83,0,0,1,6.64,2.36,8.13,8.13,0,0,1,2.74,6.5Zm-15-3.17h11A4.62,4.62,0,0,0,767.32.72a5.53,5.53,0,0,0-3.73-1.3,6.38,6.38,0,0,0-4,1.35A4.36,4.36,0,0,0,757.85,4.42Z"/><path class="cls-11" d="M781.32,5V15.4h-4V-3.75h4V-.26A7.18,7.18,0,0,1,784-3a7.15,7.15,0,0,1,3.69-1,7.12,7.12,0,0,1,5.24,2,7.71,7.71,0,0,1,2,5.72V15.4h-4V4.89q0-5.29-4.39-5.29A5.28,5.28,0,0,0,782.87,1,5.15,5.15,0,0,0,781.32,5Z"/><path class="cls-11" d="M805.26-.51V9.21a3.16,3.16,0,0,0,.72,2.18,2.56,2.56,0,0,0,2,.81,3.43,3.43,0,0,0,2.48-1.26l1.66,2.84a6.87,6.87,0,0,1-4.7,1.91A6,6,0,0,1,803,13.91a6.42,6.42,0,0,1-1.82-4.81V-.51h-2.41V-3.75h2.41v-6h4v6h5V-.51Z"/><path class="cls-11" d="M841.22,12.83a10.49,10.49,0,0,1-14.4,0,9.49,9.49,0,0,1-2.88-7,9.49,9.49,0,0,1,2.88-7,10.49,10.49,0,0,1,14.4,0,9.49,9.49,0,0,1,2.88,7A9.49,9.49,0,0,1,841.22,12.83Zm-11.54-2.48a6.26,6.26,0,0,0,8.68,0,6.18,6.18,0,0,0,1.71-4.52,6.19,6.19,0,0,0-1.71-4.52,6.26,6.26,0,0,0-8.68,0A6.18,6.18,0,0,0,828,5.83,6.18,6.18,0,0,0,829.69,10.35Z"/><path class="cls-11" d="M853.36-5.33v1.58h5V-.51h-5V15.4h-4V-.51h-2.41V-3.75h2.41V-5.22A6.42,6.42,0,0,1,851.14-10a6,6,0,0,1,4.39-1.78,6.88,6.88,0,0,1,4.7,1.91l-1.66,2.84a3.43,3.43,0,0,0-2.48-1.26,2.56,2.56,0,0,0-2,.81A3.16,3.16,0,0,0,853.36-5.33Z"/><path class="cls-11" d="M873.62,13a9.81,9.81,0,0,1-2.7-7.2,9.42,9.42,0,0,1,2.77-7.13A9.2,9.2,0,0,1,880.3-4,7.27,7.27,0,0,1,886.48-.8V-11.31h4V15.4h-4V12.52A7.47,7.47,0,0,1,880,15.69,8.62,8.62,0,0,1,873.62,13Zm1.33-7a6,6,0,0,0,1.76,4.48,5.73,5.73,0,0,0,4.14,1.73,5.35,5.35,0,0,0,4-1.75,6.25,6.25,0,0,0,1.66-4.48,6.57,6.57,0,0,0-1.66-4.57,5.27,5.27,0,0,0-4.07-1.84,5.48,5.48,0,0,0-4.14,1.84A6.43,6.43,0,0,0,875,5.92Z"/><path class="cls-11" d="M914.16,7.59h-15A4.36,4.36,0,0,0,901.06,11a7.42,7.42,0,0,0,9.5-1l2.3,2.52a10.71,10.71,0,0,1-8.06,3.2A9.6,9.6,0,0,1,897.94,13a9.46,9.46,0,0,1-2.83-7.2A9.3,9.3,0,0,1,898-1.37,9.66,9.66,0,0,1,904.78-4a9.83,9.83,0,0,1,6.64,2.36,8.13,8.13,0,0,1,2.74,6.5Zm-15-3.17h11A4.62,4.62,0,0,0,908.62.72a5.53,5.53,0,0,0-3.73-1.3,6.38,6.38,0,0,0-4,1.35A4.36,4.36,0,0,0,899.15,4.42Z"/><path class="cls-11" d="M932.23,9.68a5.39,5.39,0,0,1-2,4.37,7.7,7.7,0,0,1-5.08,1.64,13.6,13.6,0,0,1-4.34-.76,13,13,0,0,1-4-2.12l1.94-3.13a10.86,10.86,0,0,0,6.48,2.52,3.38,3.38,0,0,0,2.16-.63,2,2,0,0,0,.79-1.6q0-1.44-3.82-2.59L924,7.23q-6-1.62-6-5.4a5.12,5.12,0,0,1,2.07-4.27A8.54,8.54,0,0,1,925.46-4a11.19,11.19,0,0,1,6.26,1.94l-1.51,3a9,9,0,0,0-5.08-1.55,4.63,4.63,0,0,0-2.34.52,1.7,1.7,0,0,0-.9,1.57,1.43,1.43,0,0,0,.94,1.37,9.07,9.07,0,0,0,1.82.61q1.17.29,2.07.58t1.75.65a11.4,11.4,0,0,1,1.82,1A4.5,4.5,0,0,1,932.23,9.68Z"/><path class="cls-11" d="M937.06-7.56a2.46,2.46,0,0,1-.76-1.8,2.46,2.46,0,0,1,.76-1.8,2.46,2.46,0,0,1,1.8-.76,2.46,2.46,0,0,1,1.8.76,2.45,2.45,0,0,1,.76,1.8,2.45,2.45,0,0,1-.76,1.8,2.46,2.46,0,0,1-1.8.76A2.46,2.46,0,0,1,937.06-7.56Zm3.78,23h-4V-3.75h4Z"/><path class="cls-11" d="M964.38-3.75V13q0,5.08-2.75,7.61a10,10,0,0,1-7.07,2.54,12.45,12.45,0,0,1-7.81-2.7l1.91-3.06a9.35,9.35,0,0,0,5.67,2.12A6.62,6.62,0,0,0,958.85,18q1.67-1.48,1.67-4.72V10.83a6.86,6.86,0,0,1-2.57,2.7,7.14,7.14,0,0,1-3.76,1,8.13,8.13,0,0,1-6.26-2.66,9.42,9.42,0,0,1-2.45-6.62,9.42,9.42,0,0,1,2.45-6.62A8.11,8.11,0,0,1,954.17-4,7.4,7.4,0,0,1,960.35-.9V-3.75ZM949.44,5.09a6.06,6.06,0,0,0,1.46,4.07,4.89,4.89,0,0,0,3.92,1.71,5.19,5.19,0,0,0,4-1.66,5.84,5.84,0,0,0,1.53-4.12A6,6,0,0,0,958.8.91a5.15,5.15,0,0,0-4-1.71A4.81,4.81,0,0,0,950.9,1,6.27,6.27,0,0,0,949.44,5.09Z"/><path class="cls-11" d="M974.24,5V15.4h-4V-3.75h4V-.26A7.18,7.18,0,0,1,976.93-3a7.15,7.15,0,0,1,3.69-1,7.12,7.12,0,0,1,5.24,2,7.71,7.71,0,0,1,2,5.72V15.4h-4V4.89q0-5.29-4.39-5.29A5.28,5.28,0,0,0,975.79,1,5.15,5.15,0,0,0,974.24,5Z"/><path class="cls-10" d="M87.56,112.82V88.56H91l7.78,12.28a68.7,68.7,0,0,1,4.36,7.88l.07,0c-.29-3.24-.36-6.19-.36-10V88.56h3v24.26H102.6l-7.7-12.31a77,77,0,0,1-4.54-8.1l-.11,0c.18,3.06.25,6,.25,10v10.37Z"/><path class="cls-10" d="M112.9,104.69c.07,4.28,2.81,6,6,6a11.46,11.46,0,0,0,4.82-.9l.54,2.27a14.12,14.12,0,0,1-5.8,1.08c-5.36,0-8.57-3.53-8.57-8.78S113,95,118,95c5.69,0,7.2,5,7.2,8.21a11.91,11.91,0,0,1-.11,1.48Zm9.29-2.27c0-2-.83-5.15-4.39-5.15-3.2,0-4.61,3-4.86,5.15Z"/><path class="cls-10" d="M130.54,95.4,133,99.15c.65,1,1.19,1.87,1.76,2.84h.11c.58-1,1.15-1.94,1.73-2.88l2.45-3.71h3.42l-5.94,8.42,6.12,9h-3.6l-2.56-3.92c-.68-1-1.26-2-1.87-3h-.07c-.58,1-1.19,2-1.84,3l-2.52,3.92h-3.49l6.19-8.89L127,95.4Z"/><path class="cls-10" d="M150,90.4v5h4.54v2.41H150v9.39c0,2.16.61,3.38,2.38,3.38a7,7,0,0,0,1.83-.22l.14,2.38a7.76,7.76,0,0,1-2.81.43,4.39,4.39,0,0,1-3.42-1.33c-.9-.94-1.22-2.48-1.22-4.54v-9.5h-2.7V95.4h2.7V91.23Z"/><path class="cls-10" d="M165.75,100.12c0-1.8,0-3.28-.14-4.71h2.77l.14,2.81h.11A6,6,0,0,1,174.1,95,5.15,5.15,0,0,1,179,98.5h.07A7.15,7.15,0,0,1,181,96.23,5.94,5.94,0,0,1,184.9,95c2.3,0,5.72,1.51,5.72,7.56v10.26h-3.1V103c0-3.35-1.22-5.36-3.78-5.36a4.1,4.1,0,0,0-3.74,2.88,5.23,5.23,0,0,0-.25,1.58v10.76h-3.1V102.39c0-2.77-1.22-4.79-3.64-4.79a4.72,4.72,0,0,0-4.17,4.72v10.51h-3.1Z"/><path class="cls-10" d="M199.3,90.51a2,2,0,0,1-3.92,0,1.93,1.93,0,0,1,2-2A1.88,1.88,0,0,1,199.3,90.51Zm-3.53,22.32V95.4h3.17v17.42Z"/><path class="cls-10" d="M204.2,87.27h3.17v25.56H204.2Z"/><path class="cls-10" d="M214.46,104.69c.07,4.28,2.81,6,6,6a11.46,11.46,0,0,0,4.82-.9l.54,2.27a14.12,14.12,0,0,1-5.8,1.08c-5.36,0-8.57-3.53-8.57-8.78s3.1-9.4,8.17-9.4c5.69,0,7.2,5,7.2,8.21a11.91,11.91,0,0,1-.11,1.48Zm9.29-2.27c0-2-.83-5.15-4.39-5.15-3.2,0-4.61,3-4.86,5.15Z"/><path class="cls-10" d="M230.29,109.58a8.3,8.3,0,0,0,4.18,1.26c2.3,0,3.38-1.15,3.38-2.59s-.9-2.34-3.24-3.2c-3.13-1.12-4.61-2.84-4.61-4.93,0-2.81,2.27-5.11,6-5.11a8.69,8.69,0,0,1,4.28,1.08l-.79,2.3a6.78,6.78,0,0,0-3.56-1c-1.87,0-2.92,1.08-2.92,2.38s1,2.09,3.31,3c3,1.15,4.57,2.66,4.57,5.26,0,3.06-2.38,5.22-6.52,5.22A9.93,9.93,0,0,1,229.5,112Z"/><path class="cls-10" d="M248.8,90.4v5h4.54v2.41H248.8v9.39c0,2.16.61,3.38,2.38,3.38a7,7,0,0,0,1.83-.22l.14,2.38a7.76,7.76,0,0,1-2.81.43,4.39,4.39,0,0,1-3.42-1.33c-.9-.94-1.22-2.48-1.22-4.54v-9.5H243V95.4h2.7V91.23Z"/><path class="cls-10" d="M272.45,104c0,6.44-4.46,9.25-8.67,9.25-4.72,0-8.35-3.46-8.35-9,0-5.83,3.82-9.25,8.64-9.25C269.06,95,272.45,98.64,272.45,104Zm-13.82.18c0,3.82,2.2,6.69,5.29,6.69s5.29-2.84,5.29-6.77c0-3-1.48-6.7-5.22-6.7S258.63,100.84,258.63,104.15Z"/><path class="cls-10" d="M276.45,100.12c0-1.8,0-3.28-.14-4.71h2.81l.18,2.88h.07A6.41,6.41,0,0,1,285.12,95c2.41,0,6.16,1.44,6.16,7.42v10.4h-3.17v-10c0-2.81-1-5.15-4-5.15a4.5,4.5,0,0,0-4.25,3.24,4.55,4.55,0,0,0-.22,1.48v10.47h-3.17Z"/><path class="cls-10" d="M298.19,104.69c.07,4.28,2.81,6,6,6a11.46,11.46,0,0,0,4.82-.9l.54,2.27a14.12,14.12,0,0,1-5.8,1.08c-5.36,0-8.57-3.53-8.57-8.78s3.1-9.4,8.17-9.4c5.69,0,7.2,5,7.2,8.21a11.91,11.91,0,0,1-.11,1.48Zm9.29-2.27c0-2-.83-5.15-4.39-5.15-3.2,0-4.61,3-4.86,5.15Z"/><path class="cls-10" d="M313.71,98.28a2.15,2.15,0,1,1,4.28,0,2.14,2.14,0,1,1-4.28,0Zm0,12.71a2.15,2.15,0,1,1,4.28,0,2.14,2.14,0,1,1-4.28,0Z"/><path class="cls-11" d="M887.81,91q3.64,3.29,3.64,9.16t-3.53,9.29q-3.53,3.42-10.8,3.42h-8.35V87.66h8.64Q884.17,87.66,887.81,91Zm-.65,9.27q0-8.64-9.9-8.64H873v17.24h4.72q4.57,0,7-2.18T887.16,100.22Z"/><path class="cls-11" d="M914.16,105h-15a4.36,4.36,0,0,0,1.91,3.37,7.42,7.42,0,0,0,9.5-1l2.3,2.52a10.71,10.71,0,0,1-8.06,3.21,9.6,9.6,0,0,1-6.86-2.68,9.46,9.46,0,0,1-2.83-7.2A9.3,9.3,0,0,1,898,96a9.67,9.67,0,0,1,6.79-2.66,9.83,9.83,0,0,1,6.64,2.36,8.13,8.13,0,0,1,2.74,6.5Zm-15-3.17h11a4.62,4.62,0,0,0-1.51-3.71,5.53,5.53,0,0,0-3.73-1.3,6.38,6.38,0,0,0-4,1.35A4.36,4.36,0,0,0,899.15,101.84Z"/><path class="cls-11" d="M932.23,107.1a5.39,5.39,0,0,1-2,4.37,7.7,7.7,0,0,1-5.08,1.64,13.6,13.6,0,0,1-4.34-.76,13,13,0,0,1-4-2.12l1.94-3.13a10.86,10.86,0,0,0,6.48,2.52,3.38,3.38,0,0,0,2.16-.63,2,2,0,0,0,.79-1.6q0-1.44-3.82-2.59l-.43-.14q-6-1.62-6-5.4A5.12,5.12,0,0,1,920.08,95a8.55,8.55,0,0,1,5.38-1.6,11.2,11.2,0,0,1,6.26,1.94l-1.51,3a9,9,0,0,0-5.08-1.55,4.63,4.63,0,0,0-2.34.52,1.7,1.7,0,0,0-.9,1.57,1.43,1.43,0,0,0,.94,1.37,9.07,9.07,0,0,0,1.82.61q1.17.29,2.07.58t1.75.65a11.4,11.4,0,0,1,1.82,1A4.5,4.5,0,0,1,932.23,107.1Z"/><path class="cls-11" d="M937.06,89.86a2.52,2.52,0,1,1,1.8.76A2.46,2.46,0,0,1,937.06,89.86Zm3.78,23h-4V93.67h4Z"/><path class="cls-11" d="M964.38,93.67v16.7q0,5.08-2.75,7.61a10,10,0,0,1-7.07,2.54,12.45,12.45,0,0,1-7.81-2.7l1.91-3.06a9.35,9.35,0,0,0,5.67,2.12,6.62,6.62,0,0,0,4.54-1.48q1.67-1.48,1.67-4.72v-2.45A6.87,6.87,0,0,1,958,111a7.15,7.15,0,0,1-3.76,1,8.13,8.13,0,0,1-6.26-2.66,10.19,10.19,0,0,1,0-13.25,8.11,8.11,0,0,1,6.25-2.66,7.4,7.4,0,0,1,6.17,3.13V93.67Zm-14.94,8.84a6.06,6.06,0,0,0,1.46,4.07,4.89,4.89,0,0,0,3.92,1.71,5.19,5.19,0,0,0,4-1.66,5.84,5.84,0,0,0,1.53-4.12,6,6,0,0,0-1.55-4.18,5.15,5.15,0,0,0-4-1.71,4.81,4.81,0,0,0-3.91,1.76A6.27,6.27,0,0,0,949.44,102.51Z"/><path class="cls-11" d="M974.24,102.46v10.37h-4V93.67h4v3.49a7.52,7.52,0,0,1,11.61-1.8,7.71,7.71,0,0,1,2,5.72v11.74h-4V102.31q0-5.29-4.39-5.29a5.28,5.28,0,0,0-3.64,1.39A5.16,5.16,0,0,0,974.24,102.46Z"/><path class="cls-10" d="M87.56,210.24V186H91l7.78,12.28a68.7,68.7,0,0,1,4.36,7.88l.07,0c-.29-3.24-.36-6.19-.36-10V186h3v24.26H102.6l-7.7-12.31a77,77,0,0,1-4.54-8.1l-.11,0c.18,3.06.25,6,.25,10v10.37Z"/><path class="cls-10" d="M112.9,202.11c.07,4.28,2.81,6,6,6a11.46,11.46,0,0,0,4.82-.9l.54,2.27a14.12,14.12,0,0,1-5.8,1.08c-5.36,0-8.57-3.53-8.57-8.78s3.1-9.4,8.17-9.4c5.69,0,7.2,5,7.2,8.21a11.91,11.91,0,0,1-.11,1.48Zm9.29-2.27c0-2-.83-5.15-4.39-5.15-3.2,0-4.61,3-4.86,5.15Z"/><path class="cls-10" d="M130.54,192.82l2.48,3.74c.65,1,1.19,1.87,1.76,2.84h.11c.58-1,1.15-1.94,1.73-2.88l2.45-3.71h3.42l-5.94,8.42,6.12,9h-3.6l-2.56-3.92c-.68-1-1.26-2-1.87-3h-.07c-.58,1-1.19,2-1.84,3l-2.52,3.92h-3.49l6.19-8.89-5.9-8.53Z"/><path class="cls-10" d="M150,187.82v5h4.54v2.41H150v9.39c0,2.16.61,3.38,2.38,3.38a7,7,0,0,0,1.83-.22l.14,2.38a7.76,7.76,0,0,1-2.81.43,4.39,4.39,0,0,1-3.42-1.33c-.9-.94-1.22-2.48-1.22-4.54v-9.5h-2.7v-2.41h2.7v-4.18Z"/><path class="cls-10" d="M165.75,197.54c0-1.8,0-3.28-.14-4.71h2.77l.14,2.81h.11a6,6,0,0,1,5.47-3.2,5.15,5.15,0,0,1,4.93,3.49h.07a7.15,7.15,0,0,1,1.94-2.27,5.94,5.94,0,0,1,3.85-1.22c2.3,0,5.72,1.51,5.72,7.56v10.26h-3.1v-9.86c0-3.35-1.22-5.36-3.78-5.36A4.1,4.1,0,0,0,180,197.9a5.23,5.23,0,0,0-.25,1.58v10.76h-3.1V199.8c0-2.77-1.22-4.79-3.64-4.79a4.72,4.72,0,0,0-4.17,4.72v10.51h-3.1Z"/><path class="cls-10" d="M199.3,187.93a2,2,0,0,1-3.92,0,1.93,1.93,0,0,1,2-2A1.88,1.88,0,0,1,199.3,187.93Zm-3.53,22.32V192.82h3.17v17.42Z"/><path class="cls-10" d="M204.2,184.69h3.17v25.56H204.2Z"/><path class="cls-10" d="M214.46,202.11c.07,4.28,2.81,6,6,6a11.46,11.46,0,0,0,4.82-.9l.54,2.27a14.12,14.12,0,0,1-5.8,1.08c-5.36,0-8.57-3.53-8.57-8.78s3.1-9.4,8.17-9.4c5.69,0,7.2,5,7.2,8.21a11.91,11.91,0,0,1-.11,1.48Zm9.29-2.27c0-2-.83-5.15-4.39-5.15-3.2,0-4.61,3-4.86,5.15Z"/><path class="cls-10" d="M230.29,207a8.3,8.3,0,0,0,4.18,1.26c2.3,0,3.38-1.15,3.38-2.59s-.9-2.34-3.24-3.2c-3.13-1.12-4.61-2.84-4.61-4.93,0-2.81,2.27-5.11,6-5.11a8.69,8.69,0,0,1,4.28,1.08l-.79,2.3a6.78,6.78,0,0,0-3.56-1c-1.87,0-2.92,1.08-2.92,2.38s1,2.09,3.31,3c3,1.15,4.57,2.66,4.57,5.26,0,3.06-2.38,5.22-6.52,5.22a9.93,9.93,0,0,1-4.89-1.19Z"/><path class="cls-10" d="M248.8,187.82v5h4.54v2.41H248.8v9.39c0,2.16.61,3.38,2.38,3.38a7,7,0,0,0,1.83-.22l.14,2.38a7.76,7.76,0,0,1-2.81.43,4.39,4.39,0,0,1-3.42-1.33c-.9-.94-1.22-2.48-1.22-4.54v-9.5H243v-2.41h2.7v-4.18Z"/><path class="cls-10" d="M272.45,201.39c0,6.44-4.46,9.25-8.67,9.25-4.72,0-8.35-3.46-8.35-9,0-5.83,3.82-9.25,8.64-9.25C269.06,192.43,272.45,196.06,272.45,201.39Zm-13.82.18c0,3.82,2.2,6.69,5.29,6.69s5.29-2.84,5.29-6.77c0-3-1.48-6.7-5.22-6.7S258.63,198.26,258.63,201.57Z"/><path class="cls-10" d="M276.45,197.54c0-1.8,0-3.28-.14-4.71h2.81l.18,2.88h.07a6.41,6.41,0,0,1,5.76-3.28c2.41,0,6.16,1.44,6.16,7.42v10.4h-3.17v-10c0-2.81-1-5.15-4-5.15a4.5,4.5,0,0,0-4.25,3.24,4.55,4.55,0,0,0-.22,1.48v10.47h-3.17Z"/><path class="cls-10" d="M298.19,202.11c.07,4.28,2.81,6,6,6a11.46,11.46,0,0,0,4.82-.9l.54,2.27a14.12,14.12,0,0,1-5.8,1.08c-5.36,0-8.57-3.53-8.57-8.78s3.1-9.4,8.17-9.4c5.69,0,7.2,5,7.2,8.21a11.91,11.91,0,0,1-.11,1.48Zm9.29-2.27c0-2-.83-5.15-4.39-5.15-3.2,0-4.61,3-4.86,5.15Z"/><path class="cls-10" d="M322.42,210.24v-15H320v-2.41h2.45V192c0-2.45.54-4.68,2-6.08a6.06,6.06,0,0,1,4.25-1.62,7.34,7.34,0,0,1,2.7.5l-.43,2.45a4.75,4.75,0,0,0-2-.4c-2.7,0-3.38,2.38-3.38,5v.94h4.21v2.41h-4.21v15Z"/><path class="cls-10" d="M347.9,201.39c0,6.44-4.46,9.25-8.67,9.25-4.72,0-8.35-3.46-8.35-9,0-5.83,3.82-9.25,8.64-9.25C344.52,192.43,347.9,196.06,347.9,201.39Zm-13.82.18c0,3.82,2.2,6.69,5.29,6.69s5.29-2.84,5.29-6.77c0-3-1.48-6.7-5.22-6.7S334.08,198.26,334.08,201.57Z"/><path class="cls-10" d="M351.9,198.26c0-2.05,0-3.82-.14-5.44h2.77l.11,3.42h.14a5.23,5.23,0,0,1,4.82-3.82,3.41,3.41,0,0,1,.9.11v3a4.74,4.74,0,0,0-1.08-.11c-2.23,0-3.82,1.69-4.25,4.07A8.88,8.88,0,0,0,355,201v9.29H351.9Z"/><path class="cls-10" d="M365.08,202.11c.07,4.28,2.81,6,6,6a11.46,11.46,0,0,0,4.82-.9l.54,2.27a14.12,14.12,0,0,1-5.8,1.08c-5.36,0-8.57-3.53-8.57-8.78s3.1-9.4,8.17-9.4c5.69,0,7.2,5,7.2,8.21a11.91,11.91,0,0,1-.11,1.48Zm9.29-2.27c0-2-.83-5.15-4.39-5.15-3.2,0-4.61,3-4.86,5.15Z"/><path class="cls-10" d="M393.77,209.6a11.67,11.67,0,0,1-5,1c-5.26,0-8.67-3.56-8.67-8.89s3.67-9.25,9.36-9.25a10.58,10.58,0,0,1,4.39.9l-.72,2.45a7.35,7.35,0,0,0-3.67-.83c-4,0-6.16,3-6.16,6.59,0,4,2.59,6.51,6,6.51a9,9,0,0,0,3.89-.86Z"/><path class="cls-10" d="M407.12,210.24l-.25-2.2h-.11a6.49,6.49,0,0,1-5.33,2.59,5,5,0,0,1-5.33-5c0-4.21,3.74-6.52,10.47-6.48v-.36c0-1.44-.4-4-4-4a8.68,8.68,0,0,0-4.54,1.3l-.72-2.09a10.82,10.82,0,0,1,5.72-1.55c5.33,0,6.62,3.64,6.62,7.13v6.52a24.55,24.55,0,0,0,.29,4.18Zm-.47-8.89c-3.46-.07-7.38.54-7.38,3.92a2.8,2.8,0,0,0,3,3,4.34,4.34,0,0,0,4.21-2.92,3.32,3.32,0,0,0,.18-1Z"/><path class="cls-10" d="M414.4,207a8.3,8.3,0,0,0,4.18,1.26c2.3,0,3.38-1.15,3.38-2.59s-.9-2.34-3.24-3.2c-3.13-1.12-4.61-2.84-4.61-4.93,0-2.81,2.27-5.11,6-5.11a8.69,8.69,0,0,1,4.28,1.08l-.79,2.3a6.78,6.78,0,0,0-3.56-1c-1.87,0-2.92,1.08-2.92,2.38s1,2.09,3.31,3c3,1.15,4.57,2.66,4.57,5.26,0,3.06-2.38,5.22-6.52,5.22a9.93,9.93,0,0,1-4.89-1.19Z"/><path class="cls-10" d="M432.9,187.82v5h4.54v2.41H432.9v9.39c0,2.16.61,3.38,2.38,3.38a7,7,0,0,0,1.83-.22l.14,2.38a7.76,7.76,0,0,1-2.81.43,4.39,4.39,0,0,1-3.42-1.33c-.9-.94-1.22-2.48-1.22-4.54v-9.5h-2.7v-2.41h2.7v-4.18Z"/><path class="cls-10" d="M438.84,214.67a51.75,51.75,0,0,0,2.16-8.6l3.53-.36a43.91,43.91,0,0,1-3.42,8.75Z"/><path class="cls-10" d="M455.54,207a8.3,8.3,0,0,0,4.18,1.26c2.3,0,3.38-1.15,3.38-2.59s-.9-2.34-3.24-3.2c-3.13-1.12-4.61-2.84-4.61-4.93,0-2.81,2.27-5.11,6-5.11a8.69,8.69,0,0,1,4.28,1.08l-.79,2.3a6.78,6.78,0,0,0-3.56-1c-1.87,0-2.92,1.08-2.92,2.38s1,2.09,3.31,3c3,1.15,4.57,2.66,4.57,5.26,0,3.06-2.38,5.22-6.52,5.22a9.93,9.93,0,0,1-4.89-1.19Z"/><path class="cls-10" d="M474,187.82v5h4.54v2.41H474v9.39c0,2.16.61,3.38,2.38,3.38a7,7,0,0,0,1.83-.22l.14,2.38a7.76,7.76,0,0,1-2.81.43,4.39,4.39,0,0,1-3.42-1.33c-.9-.94-1.22-2.48-1.22-4.54v-9.5h-2.7v-2.41H471v-4.18Z"/><path class="cls-10" d="M491.79,210.24l-.25-2.2h-.11a6.49,6.49,0,0,1-5.33,2.59,5,5,0,0,1-5.33-5c0-4.21,3.74-6.52,10.47-6.48v-.36c0-1.44-.4-4-4-4a8.68,8.68,0,0,0-4.54,1.3L482,194a10.82,10.82,0,0,1,5.72-1.55c5.33,0,6.62,3.64,6.62,7.13v6.52a24.55,24.55,0,0,0,.29,4.18Zm-.47-8.89c-3.46-.07-7.38.54-7.38,3.92a2.8,2.8,0,0,0,3,3,4.34,4.34,0,0,0,4.21-2.92,3.32,3.32,0,0,0,.18-1Z"/><path class="cls-10" d="M499.5,198.26c0-2.05,0-3.82-.14-5.44h2.77l.11,3.42h.14a5.23,5.23,0,0,1,4.82-3.82,3.41,3.41,0,0,1,.9.11v3a4.74,4.74,0,0,0-1.08-.11c-2.23,0-3.82,1.69-4.25,4.07a8.88,8.88,0,0,0-.14,1.48v9.29H499.5Z"/><path class="cls-10" d="M516,187.82v5h4.54v2.41H516v9.39c0,2.16.61,3.38,2.38,3.38a7,7,0,0,0,1.83-.22l.14,2.38a7.76,7.76,0,0,1-2.81.43,4.39,4.39,0,0,1-3.42-1.33c-.9-.94-1.22-2.48-1.22-4.54v-9.5h-2.7v-2.41h2.7v-4.18Z"/><path class="cls-10" d="M546.73,184.69v21.06c0,1.55,0,3.31.14,4.5H544l-.14-3h-.07a6.44,6.44,0,0,1-5.94,3.42c-4.21,0-7.45-3.56-7.45-8.85,0-5.79,3.56-9.36,7.81-9.36a5.82,5.82,0,0,1,5.26,2.66h.07v-10.4Zm-3.17,15.23a5.63,5.63,0,0,0-.14-1.33,4.66,4.66,0,0,0-4.57-3.67c-3.28,0-5.22,2.88-5.22,6.73,0,3.53,1.73,6.44,5.15,6.44a4.76,4.76,0,0,0,4.64-3.78,5.53,5.53,0,0,0,.14-1.37Z"/><path class="cls-10" d="M561.63,210.24l-.25-2.2h-.11a6.49,6.49,0,0,1-5.33,2.59,5,5,0,0,1-5.33-5c0-4.21,3.74-6.52,10.47-6.48v-.36c0-1.44-.4-4-4-4a8.68,8.68,0,0,0-4.54,1.3l-.72-2.09a10.82,10.82,0,0,1,5.72-1.55c5.33,0,6.62,3.64,6.62,7.13v6.52a24.55,24.55,0,0,0,.29,4.18Zm-.47-8.89c-3.46-.07-7.38.54-7.38,3.92a2.8,2.8,0,0,0,3,3,4.34,4.34,0,0,0,4.21-2.92,3.32,3.32,0,0,0,.18-1Z"/><path class="cls-10" d="M573,187.82v5h4.54v2.41H573v9.39c0,2.16.61,3.38,2.38,3.38a7,7,0,0,0,1.83-.22l.14,2.38a7.76,7.76,0,0,1-2.81.43,4.39,4.39,0,0,1-3.42-1.33c-.9-.94-1.22-2.48-1.22-4.54v-9.5h-2.7v-2.41h2.7v-4.18Z"/><path class="cls-10" d="M582.66,202.11c.07,4.28,2.81,6,6,6a11.46,11.46,0,0,0,4.82-.9l.54,2.27a14.12,14.12,0,0,1-5.8,1.08c-5.36,0-8.57-3.53-8.57-8.78s3.1-9.4,8.17-9.4c5.69,0,7.2,5,7.2,8.21a11.91,11.91,0,0,1-.11,1.48Zm9.29-2.27c0-2-.83-5.15-4.39-5.15-3.2,0-4.61,3-4.86,5.15Z"/><path class="cls-10" d="M598.17,195.7a2.15,2.15,0,1,1,4.28,0,2.14,2.14,0,1,1-4.28,0Zm0,12.71a2.15,2.15,0,1,1,4.28,0,2.14,2.14,0,1,1-4.28,0Z"/><path class="cls-10" d="M87.56,307.66V283.4H91l7.78,12.27a68.79,68.79,0,0,1,4.36,7.88l.07,0c-.29-3.24-.36-6.19-.36-10V283.4h3v24.26H102.6l-7.7-12.31a77.17,77.17,0,0,1-4.54-8.1l-.11,0c.18,3.06.25,6,.25,10v10.37Z"/><path class="cls-10" d="M112.9,299.53c.07,4.28,2.81,6,6,6a11.46,11.46,0,0,0,4.82-.9l.54,2.27a14.12,14.12,0,0,1-5.8,1.08c-5.36,0-8.57-3.53-8.57-8.78s3.1-9.4,8.17-9.4c5.69,0,7.2,5,7.2,8.21a11.88,11.88,0,0,1-.11,1.48Zm9.29-2.27c0-2-.83-5.15-4.39-5.15-3.2,0-4.61,3-4.86,5.15Z"/><path class="cls-10" d="M130.54,290.24,133,294c.65,1,1.19,1.87,1.76,2.84h.11c.58-1,1.15-1.94,1.73-2.88l2.45-3.71h3.42l-5.94,8.42,6.12,9h-3.6l-2.56-3.92c-.68-1-1.26-2-1.87-3h-.07c-.58,1-1.19,2-1.84,3l-2.52,3.92h-3.49l6.19-8.89-5.9-8.53Z"/><path class="cls-10" d="M150,285.24v5h4.54v2.41H150V302c0,2.16.61,3.38,2.38,3.38a7,7,0,0,0,1.83-.22l.14,2.38a7.76,7.76,0,0,1-2.81.43,4.39,4.39,0,0,1-3.42-1.33c-.9-.94-1.22-2.48-1.22-4.54v-9.5h-2.7v-2.41h2.7v-4.18Z"/><path class="cls-10" d="M165.75,295c0-1.8,0-3.28-.14-4.72h2.77l.14,2.81h.11a6,6,0,0,1,5.47-3.2,5.15,5.15,0,0,1,4.93,3.49h.07a7.19,7.19,0,0,1,1.94-2.27,6,6,0,0,1,3.85-1.22c2.3,0,5.72,1.51,5.72,7.56v10.26h-3.1V297.8c0-3.35-1.22-5.36-3.78-5.36a4.1,4.1,0,0,0-3.74,2.88,5.23,5.23,0,0,0-.25,1.58v10.76h-3.1V297.22c0-2.77-1.22-4.79-3.64-4.79a4.72,4.72,0,0,0-4.17,4.72v10.51h-3.1Z"/><path class="cls-10" d="M199.3,285.35a2,2,0,0,1-3.92,0,1.93,1.93,0,0,1,2-2A1.88,1.88,0,0,1,199.3,285.35Zm-3.53,22.32V290.24h3.17v17.42Z"/><path class="cls-10" d="M204.2,282.11h3.17v25.56H204.2Z"/><path class="cls-10" d="M214.46,299.53c.07,4.28,2.81,6,6,6a11.46,11.46,0,0,0,4.82-.9l.54,2.27A14.12,14.12,0,0,1,220,308c-5.36,0-8.57-3.53-8.57-8.78s3.1-9.4,8.17-9.4c5.69,0,7.2,5,7.2,8.21a11.88,11.88,0,0,1-.11,1.48Zm9.29-2.27c0-2-.83-5.15-4.39-5.15-3.2,0-4.61,3-4.86,5.15Z"/><path class="cls-10" d="M230.29,304.42a8.31,8.31,0,0,0,4.18,1.26c2.3,0,3.38-1.15,3.38-2.59s-.9-2.34-3.24-3.2C231.48,298.77,230,297,230,295c0-2.81,2.27-5.11,6-5.11a8.7,8.7,0,0,1,4.28,1.08l-.79,2.3a6.78,6.78,0,0,0-3.56-1c-1.87,0-2.92,1.08-2.92,2.38s1,2.09,3.31,3c3,1.15,4.57,2.66,4.57,5.26,0,3.06-2.38,5.22-6.52,5.22a9.93,9.93,0,0,1-4.89-1.19Z"/><path class="cls-10" d="M248.8,285.24v5h4.54v2.41H248.8V302c0,2.16.61,3.38,2.38,3.38a7,7,0,0,0,1.83-.22l.14,2.38a7.76,7.76,0,0,1-2.81.43,4.39,4.39,0,0,1-3.42-1.33c-.9-.94-1.22-2.48-1.22-4.54v-9.5H243v-2.41h2.7v-4.18Z"/><path class="cls-10" d="M272.45,298.81c0,6.44-4.46,9.25-8.67,9.25-4.72,0-8.35-3.46-8.35-9,0-5.83,3.82-9.25,8.64-9.25C269.06,289.84,272.45,293.48,272.45,298.81Zm-13.82.18c0,3.82,2.2,6.7,5.29,6.7s5.29-2.84,5.29-6.77c0-3-1.48-6.7-5.22-6.7S258.63,295.68,258.63,299Z"/><path class="cls-10" d="M276.45,295c0-1.8,0-3.28-.14-4.72h2.81l.18,2.88h.07a6.41,6.41,0,0,1,5.76-3.28c2.41,0,6.16,1.44,6.16,7.42v10.4h-3.17v-10c0-2.81-1-5.15-4-5.15a4.65,4.65,0,0,0-4.46,4.72v10.47h-3.17Z"/><path class="cls-10" d="M298.19,299.53c.07,4.28,2.81,6,6,6a11.46,11.46,0,0,0,4.82-.9l.54,2.27a14.12,14.12,0,0,1-5.8,1.08c-5.36,0-8.57-3.53-8.57-8.78s3.1-9.4,8.17-9.4c5.69,0,7.2,5,7.2,8.21a11.88,11.88,0,0,1-.11,1.48Zm9.29-2.27c0-2-.83-5.15-4.39-5.15-3.2,0-4.61,3-4.86,5.15Z"/><path class="cls-10" d="M322.42,307.66v-15H320v-2.41h2.45v-.83c0-2.45.54-4.68,2-6.08a6.06,6.06,0,0,1,4.25-1.62,7.34,7.34,0,0,1,2.7.5l-.43,2.45a4.72,4.72,0,0,0-2-.4c-2.7,0-3.38,2.38-3.38,5v.94h4.21v2.41h-4.21v15Z"/><path class="cls-10" d="M347.9,298.81c0,6.44-4.46,9.25-8.67,9.25-4.72,0-8.35-3.46-8.35-9,0-5.83,3.82-9.25,8.64-9.25C344.52,289.84,347.9,293.48,347.9,298.81Zm-13.82.18c0,3.82,2.2,6.7,5.29,6.7s5.29-2.84,5.29-6.77c0-3-1.48-6.7-5.22-6.7S334.08,295.68,334.08,299Z"/><path class="cls-10" d="M351.9,295.68c0-2.05,0-3.81-.14-5.43h2.77l.11,3.42h.14a5.23,5.23,0,0,1,4.82-3.82,3.41,3.41,0,0,1,.9.11v3a4.8,4.8,0,0,0-1.08-.11c-2.23,0-3.82,1.69-4.25,4.07a8.88,8.88,0,0,0-.14,1.48v9.29H351.9Z"/><path class="cls-10" d="M365.08,299.53c.07,4.28,2.81,6,6,6a11.46,11.46,0,0,0,4.82-.9l.54,2.27a14.12,14.12,0,0,1-5.8,1.08c-5.36,0-8.57-3.53-8.57-8.78s3.1-9.4,8.17-9.4c5.69,0,7.2,5,7.2,8.21a11.88,11.88,0,0,1-.11,1.48Zm9.29-2.27c0-2-.83-5.15-4.39-5.15-3.2,0-4.61,3-4.86,5.15Z"/><path class="cls-10" d="M393.77,307a11.66,11.66,0,0,1-5,1c-5.26,0-8.67-3.56-8.67-8.89s3.67-9.25,9.36-9.25a10.59,10.59,0,0,1,4.39.9l-.72,2.45a7.35,7.35,0,0,0-3.67-.83c-4,0-6.16,3-6.16,6.59,0,4,2.59,6.51,6,6.51a9,9,0,0,0,3.89-.86Z"/><path class="cls-10" d="M407.12,307.66l-.25-2.2h-.11a6.49,6.49,0,0,1-5.33,2.59,5,5,0,0,1-5.33-5c0-4.21,3.74-6.52,10.47-6.48v-.36c0-1.44-.4-4-4-4a8.68,8.68,0,0,0-4.54,1.3l-.72-2.09a10.82,10.82,0,0,1,5.72-1.55c5.33,0,6.62,3.64,6.62,7.13v6.51a24.55,24.55,0,0,0,.29,4.18Zm-.47-8.89c-3.46-.07-7.38.54-7.38,3.92a2.8,2.8,0,0,0,3,3,4.34,4.34,0,0,0,4.21-2.92,3.33,3.33,0,0,0,.18-1Z"/><path class="cls-10" d="M414.4,304.42a8.31,8.31,0,0,0,4.18,1.26c2.3,0,3.38-1.15,3.38-2.59s-.9-2.34-3.24-3.2c-3.13-1.12-4.61-2.84-4.61-4.93,0-2.81,2.27-5.11,6-5.11a8.7,8.7,0,0,1,4.28,1.08l-.79,2.3a6.78,6.78,0,0,0-3.56-1c-1.87,0-2.92,1.08-2.92,2.38s1,2.09,3.31,3c3,1.15,4.57,2.66,4.57,5.26,0,3.06-2.38,5.22-6.52,5.22a9.93,9.93,0,0,1-4.89-1.19Z"/><path class="cls-10" d="M432.9,285.24v5h4.54v2.41H432.9V302c0,2.16.61,3.38,2.38,3.38a7,7,0,0,0,1.83-.22l.14,2.38a7.76,7.76,0,0,1-2.81.43,4.39,4.39,0,0,1-3.42-1.33c-.9-.94-1.22-2.48-1.22-4.54v-9.5h-2.7v-2.41h2.7v-4.18Z"/><path class="cls-10" d="M438.84,312.09a51.71,51.71,0,0,0,2.16-8.6l3.53-.36a43.87,43.87,0,0,1-3.42,8.75Z"/><path class="cls-10" d="M457.74,299.53c.07,4.28,2.81,6,6,6a11.46,11.46,0,0,0,4.82-.9l.54,2.27a14.12,14.12,0,0,1-5.8,1.08c-5.36,0-8.57-3.53-8.57-8.78s3.1-9.4,8.17-9.4c5.69,0,7.2,5,7.2,8.21a11.88,11.88,0,0,1-.11,1.48Zm9.29-2.27c0-2-.83-5.15-4.39-5.15-3.2,0-4.61,3-4.86,5.15Z"/><path class="cls-10" d="M474,295c0-1.8,0-3.28-.14-4.72h2.81l.18,2.88h.07a6.41,6.41,0,0,1,5.76-3.28c2.41,0,6.16,1.44,6.16,7.42v10.4h-3.17v-10c0-2.81-1-5.15-4-5.15a4.65,4.65,0,0,0-4.46,4.72v10.47H474Z"/><path class="cls-10" d="M509,282.11v21.06c0,1.55,0,3.31.14,4.5h-2.84l-.14-3h-.07a6.44,6.44,0,0,1-5.94,3.42c-4.21,0-7.45-3.56-7.45-8.85,0-5.8,3.56-9.36,7.81-9.36a5.83,5.83,0,0,1,5.26,2.66h.07v-10.4Zm-3.17,15.23a5.63,5.63,0,0,0-.14-1.33,4.66,4.66,0,0,0-4.57-3.67c-3.28,0-5.22,2.88-5.22,6.73,0,3.53,1.73,6.44,5.15,6.44a4.76,4.76,0,0,0,4.64-3.78,5.53,5.53,0,0,0,.14-1.37Z"/><path class="cls-10" d="M537,282.11v21.06c0,1.55,0,3.31.14,4.5h-2.84l-.14-3h-.07a6.44,6.44,0,0,1-5.94,3.42c-4.21,0-7.45-3.56-7.45-8.85,0-5.8,3.56-9.36,7.81-9.36a5.83,5.83,0,0,1,5.26,2.66h.07v-10.4Zm-3.17,15.23a5.63,5.63,0,0,0-.14-1.33,4.66,4.66,0,0,0-4.57-3.67c-3.28,0-5.22,2.88-5.22,6.73,0,3.53,1.73,6.44,5.15,6.44a4.76,4.76,0,0,0,4.64-3.78,5.53,5.53,0,0,0,.14-1.37Z"/><path class="cls-10" d="M551.88,307.66l-.25-2.2h-.11a6.49,6.49,0,0,1-5.33,2.59,5,5,0,0,1-5.33-5c0-4.21,3.74-6.52,10.47-6.48v-.36c0-1.44-.4-4-4-4a8.68,8.68,0,0,0-4.54,1.3l-.72-2.09a10.82,10.82,0,0,1,5.72-1.55c5.33,0,6.62,3.64,6.62,7.13v6.51a24.55,24.55,0,0,0,.29,4.18Zm-.47-8.89c-3.46-.07-7.38.54-7.38,3.92a2.8,2.8,0,0,0,3,3,4.34,4.34,0,0,0,4.21-2.92,3.33,3.33,0,0,0,.18-1Z"/><path class="cls-10" d="M563.25,285.24v5h4.54v2.41h-4.54V302c0,2.16.61,3.38,2.38,3.38a7,7,0,0,0,1.83-.22l.14,2.38a7.76,7.76,0,0,1-2.81.43,4.39,4.39,0,0,1-3.42-1.33c-.9-.94-1.22-2.48-1.22-4.54v-9.5h-2.7v-2.41h2.7v-4.18Z"/><path class="cls-10" d="M572.9,299.53c.07,4.28,2.81,6,6,6a11.46,11.46,0,0,0,4.82-.9l.54,2.27a14.12,14.12,0,0,1-5.8,1.08c-5.36,0-8.57-3.53-8.57-8.78s3.1-9.4,8.17-9.4c5.69,0,7.2,5,7.2,8.21a11.88,11.88,0,0,1-.11,1.48Zm9.29-2.27c0-2-.83-5.15-4.39-5.15-3.2,0-4.61,3-4.86,5.15Z"/><path class="cls-10" d="M588.42,293.12a2.15,2.15,0,1,1,4.28,0,2.14,2.14,0,1,1-4.28,0Zm0,12.71a2.15,2.15,0,1,1,4.28,0,2.14,2.14,0,1,1-4.28,0Z"/><path class="cls-11" d="M856.13,214l-.54,0a13,13,0,0,1-9.43-3.73,13.21,13.21,0,0,1,0-18.58,13.8,13.8,0,0,1,18.86,0,12.43,12.43,0,0,1,3.82,9.27,12.76,12.76,0,0,1-8.32,12.17,3.73,3.73,0,0,0,3.1,1.62,5.52,5.52,0,0,0,2.68-.72,5.11,5.11,0,0,0,2-1.87l2.41,3.35a9.62,9.62,0,0,1-7.16,3.31,8.38,8.38,0,0,1-4.43-1.3A7,7,0,0,1,856.13,214Zm5.78-19.44a8.82,8.82,0,0,0-12.64,0,9.4,9.4,0,0,0,0,12.92,8.82,8.82,0,0,0,12.64,0,9.4,9.4,0,0,0,0-12.92Z"/><path class="cls-11" d="M873.48,192.42v-3.78h14.72V192l-6.08,6.8a7.39,7.39,0,0,1,5.4,2.18,7,7,0,0,1,1.94,5,7.48,7.48,0,0,1-2.61,6,10.07,10.07,0,0,1-6.71,2.2,14.27,14.27,0,0,1-8-2.63l1.8-3.42a11.15,11.15,0,0,0,6.48,2.16,6,6,0,0,0,3.62-1,3.42,3.42,0,0,0,1.42-3,3.62,3.62,0,0,0-1.58-3.08,7.35,7.35,0,0,0-4.39-1.15,9.2,9.2,0,0,0-2.7.4v-3.24l5.83-6.77Z"/><path class="cls-11" d="M894.11,205v-3.78h12V205Z"/><path class="cls-11" d="M921.32,198.47a5,5,0,0,0,1.08-3,3.37,3.37,0,0,0-1.15-2.57,4.14,4.14,0,0,0-2.92-1.06q-3.1,0-5.15,3.17l-3.42-2a12.54,12.54,0,0,1,3.65-3.74,9.51,9.51,0,0,1,5.15-1.26,8.33,8.33,0,0,1,5.53,2,6.75,6.75,0,0,1,2.38,5.45,7.37,7.37,0,0,1-1,3.71,25,25,0,0,1-3.71,4.54l-5.9,6h11.41v4.07H910.06v-3.6l7.63-7.67A40.63,40.63,0,0,0,921.32,198.47Z"/><path class="cls-11" d="M933.85,210.55q-2.56-3.54-2.56-9.49t2.56-9.49q2.56-3.54,7.7-3.55t7.7,3.55q2.56,3.55,2.56,9.49t-2.56,9.49q-2.56,3.55-7.7,3.55T933.85,210.55Zm3-16.29a16.24,16.24,0,0,0,0,13.61,5,5,0,0,0,4.66,2.59,4.93,4.93,0,0,0,4.63-2.57,16.69,16.69,0,0,0,0-13.64,4.93,4.93,0,0,0-4.63-2.57A5,5,0,0,0,936.89,194.26Z"/><path class="cls-11" d="M955,188.64h9.14v25.16h-4V192.42H955Z"/><path class="cls-11" d="M973.06,190a10.54,10.54,0,0,1,12.1,0,5.89,5.89,0,0,1,2.41,4.81,6.55,6.55,0,0,1-2.7,5.13,7.26,7.26,0,0,1,3.64,6.48,6.85,6.85,0,0,1-2.59,5.44,11.64,11.64,0,0,1-13.61,0,6.85,6.85,0,0,1-2.59-5.44,7.26,7.26,0,0,1,3.64-6.48,6.54,6.54,0,0,1-2.7-5.13A5.88,5.88,0,0,1,973.06,190Zm2.52,19.31a6.39,6.39,0,0,0,7.06,0,3.4,3.4,0,0,0,1.66-3,3.49,3.49,0,0,0-1.58-3.06,6.54,6.54,0,0,0-7.2,0,3.49,3.49,0,0,0-1.58,3.06A3.4,3.4,0,0,0,975.58,209.36Zm.34-11.45a5.17,5.17,0,0,0,6.37,0,3.36,3.36,0,0,0,1.35-2.7,3.31,3.31,0,0,0-1.35-2.68,5.24,5.24,0,0,0-6.37,0,3.31,3.31,0,0,0-1.35,2.68A3.36,3.36,0,0,0,975.92,197.91Z"/><path class="cls-11" d="M856.35,311.44l-.54,0a13,13,0,0,1-9.43-3.73,13.21,13.21,0,0,1,0-18.58,13.8,13.8,0,0,1,18.86,0,12.43,12.43,0,0,1,3.82,9.27,12.76,12.76,0,0,1-8.32,12.17,3.73,3.73,0,0,0,3.1,1.62,5.52,5.52,0,0,0,2.68-.72,5.11,5.11,0,0,0,2-1.87l2.41,3.35a9.62,9.62,0,0,1-7.16,3.31,8.38,8.38,0,0,1-4.43-1.3A7,7,0,0,1,856.35,311.44ZM862.12,292a8.82,8.82,0,0,0-12.64,0,9.4,9.4,0,0,0,0,12.92,8.82,8.82,0,0,0,12.64,0,9.4,9.4,0,0,0,0-12.92Z"/><path class="cls-11" d="M883.06,301v-4.61h4V301h3v3.85h-3v6.34h-4v-6.34h-10.8v-3.74l9.25-15.08h4.64L877,301Z"/><path class="cls-11" d="M894.11,302.37v-3.78h12v3.78Z"/><path class="cls-11" d="M921.32,295.89a5,5,0,0,0,1.08-3,3.37,3.37,0,0,0-1.15-2.57,4.14,4.14,0,0,0-2.92-1.06q-3.1,0-5.15,3.17l-3.42-2a12.54,12.54,0,0,1,3.65-3.74,9.51,9.51,0,0,1,5.15-1.26,8.33,8.33,0,0,1,5.53,2,6.75,6.75,0,0,1,2.38,5.45,7.37,7.37,0,0,1-1,3.71,25,25,0,0,1-3.71,4.54l-5.9,6h11.41v4.07H910.06v-3.6l7.63-7.67A40.63,40.63,0,0,0,921.32,295.89Z"/><path class="cls-11" d="M933.85,308q-2.56-3.54-2.56-9.49t2.56-9.49q2.56-3.54,7.7-3.55t7.7,3.55q2.56,3.55,2.56,9.49T949.26,308q-2.56,3.55-7.7,3.55T933.85,308Zm3-16.29a16.24,16.24,0,0,0,0,13.61,5,5,0,0,0,4.66,2.59,4.93,4.93,0,0,0,4.63-2.57,16.69,16.69,0,0,0,0-13.64,4.93,4.93,0,0,0-4.63-2.57A5,5,0,0,0,936.89,291.68Z"/><path class="cls-11" d="M955,286.06h9.14v25.16h-4V289.84H955Z"/><path class="cls-11" d="M973.06,287.47a10.54,10.54,0,0,1,12.1,0,5.89,5.89,0,0,1,2.41,4.81,6.55,6.55,0,0,1-2.7,5.13,7.26,7.26,0,0,1,3.64,6.48,6.85,6.85,0,0,1-2.59,5.44,11.64,11.64,0,0,1-13.61,0,6.85,6.85,0,0,1-2.59-5.44,7.26,7.26,0,0,1,3.64-6.48,6.54,6.54,0,0,1-2.7-5.13A5.88,5.88,0,0,1,973.06,287.47Zm2.52,19.31a6.39,6.39,0,0,0,7.06,0,3.4,3.4,0,0,0,1.66-3,3.49,3.49,0,0,0-1.58-3.06,6.54,6.54,0,0,0-7.2,0,3.49,3.49,0,0,0-1.58,3.06A3.4,3.4,0,0,0,975.58,306.78Zm.34-11.45a5.17,5.17,0,0,0,6.37,0,3.36,3.36,0,0,0,1.35-2.7,3.31,3.31,0,0,0-1.35-2.68,5.24,5.24,0,0,0-6.37,0,3.31,3.31,0,0,0-1.35,2.68A3.36,3.36,0,0,0,975.92,295.33Z"/><rect class="cls-12" x="-5.56" y="-560.24" width="1122" height="940.78"/></g></g></svg>