<svg xmlns="http://www.w3.org/2000/svg" viewBox="0 0 989.6 120"><defs><style>.cls-1{fill:#eaebec;opacity:0.3;}.cls-1,.cls-2{isolation:isolate;}.cls-3{fill:#4c4c4e;}</style></defs><title>IP_sc4_business</title><g id="Layer_2" data-name="Layer 2"><g id="Layer_1-2" data-name="Layer 1"><path class="cls-1" d="M979.6,120H10c-5.5,0-10-3.8-10-8.4V0H989.6V111.6C989.6,116.2,985.1,120,979.6,120Z"/><g class="cls-2"><path class="cls-3" d="M76.41,68.38c-.92,0-2.14.08-3.74.08h-9.2V39.27h9.87c3.57,0,5.42.55,7.18,2.1a6.52,6.52,0,0,1,2.39,5.21,6.45,6.45,0,0,1-2,4.87A5.59,5.59,0,0,1,78.26,53c3.61,1.05,5.8,3.53,5.8,7.35C84.06,64.35,81.54,68.13,76.41,68.38Zm-1.3-23.73a5.89,5.89,0,0,0-2.44-.38H69.31v6.68h3.44a5.44,5.44,0,0,0,2.52-.38,3.72,3.72,0,0,0,1.51-3A3.17,3.17,0,0,0,75.11,44.65ZM75.28,56A6.9,6.9,0,0,0,73,55.78H69.35v7.9h3.82A4.25,4.25,0,0,0,75.91,63a4.41,4.41,0,0,0,1.51-3.4A3.56,3.56,0,0,0,75.28,56Z"/><path class="cls-3" d="M102.83,69.06a4.93,4.93,0,0,1-1.68-2.1A8,8,0,0,1,95.48,69c-3,0-5.63-1.43-6.34-3.49a12.86,12.86,0,0,1-.46-4.29V47.46l5.54-1V60.23a8.46,8.46,0,0,0,.46,3.53,2.26,2.26,0,0,0,2,1,4.17,4.17,0,0,0,3.49-2.06V47.59l5.38-1.13V62.88a6.25,6.25,0,0,0,1.3,3.91Z"/><path class="cls-3" d="M118.41,69.14a19.11,19.11,0,0,1-8.7-2.48l2-4.12c1.72,1,4.71,2.44,7.14,2.44a2.63,2.63,0,0,0,2.86-2.44c0-1.47-1.05-2.23-3.32-2.65l-2.52-.46a7.59,7.59,0,0,1-3.95-2.18,6.51,6.51,0,0,1-1.22-3.87c0-4.2,3.32-7,8.32-7a16.15,16.15,0,0,1,7.69,2l-1.85,3.78a11.38,11.38,0,0,0-5.29-1.55c-1.64,0-2.73.84-2.73,2.1,0,1.09.71,1.68,2.69,2.18l2.6.67c2.65.67,3.53,1.47,4.29,2.44a5.69,5.69,0,0,1,1.18,3.65C127.61,66.11,123.91,69.14,118.41,69.14Z"/><path class="cls-3" d="M134.62,44.52A3.47,3.47,0,0,1,131.18,41a3.51,3.51,0,0,1,3.53-3.49,3.43,3.43,0,0,1,3.4,3.49A3.48,3.48,0,0,1,134.62,44.52Zm-2.81,23.94V47.34l5.63-.88v22Z"/><path class="cls-3" d="M155.16,68.47v-14c0-2.44-.42-3.15-1.89-3.15a6.57,6.57,0,0,0-3.91,1.93V68.47h-5.63V52.88a15.52,15.52,0,0,0-.76-5l5-1.43a5.51,5.51,0,0,1,.8,2.69,25,25,0,0,1,2.48-1.6,8.87,8.87,0,0,1,3.87-.92,5.35,5.35,0,0,1,5.17,3.11,8.66,8.66,0,0,1,.42,3.07V68.47Z"/><path class="cls-3" d="M171.83,59.48v.17c0,3.32,1.64,5.21,4.54,5.21a8.41,8.41,0,0,0,5.46-2.14L184,66.07a12.34,12.34,0,0,1-8.11,3c-6.18,0-10.17-4.37-10.17-11.13,0-3.86.8-6.43,2.69-8.53a8.46,8.46,0,0,1,6.76-2.9,8.8,8.8,0,0,1,6.22,2.27c2,2,2.86,4.91,2.86,9.41v1.3Zm6.59-4.37a5.54,5.54,0,0,0-.67-3.23,2.73,2.73,0,0,0-2.48-1.26c-2.14,0-3.36,1.68-3.36,4.66v.08h6.51Z"/><path class="cls-3" d="M195.27,69.14a19.11,19.11,0,0,1-8.7-2.48l2-4.12c1.72,1,4.71,2.44,7.14,2.44a2.63,2.63,0,0,0,2.86-2.44c0-1.47-1.05-2.23-3.32-2.65l-2.52-.46a7.59,7.59,0,0,1-3.95-2.18,6.51,6.51,0,0,1-1.22-3.87c0-4.2,3.32-7,8.32-7a16.15,16.15,0,0,1,7.69,2l-1.85,3.78a11.38,11.38,0,0,0-5.29-1.55c-1.64,0-2.73.84-2.73,2.1,0,1.09.71,1.68,2.69,2.18l2.6.67c2.65.67,3.53,1.47,4.29,2.44a5.69,5.69,0,0,1,1.18,3.65C204.47,66.11,200.77,69.14,195.27,69.14Z"/><path class="cls-3" d="M215.47,69.14a19.11,19.11,0,0,1-8.7-2.48l2-4.12c1.72,1,4.71,2.44,7.14,2.44a2.63,2.63,0,0,0,2.86-2.44c0-1.47-1-2.23-3.32-2.65L213,59.44A7.59,7.59,0,0,1,209,57.25a6.52,6.52,0,0,1-1.22-3.87c0-4.2,3.32-7,8.32-7a16.15,16.15,0,0,1,7.69,2l-1.85,3.78a11.37,11.37,0,0,0-5.29-1.55c-1.64,0-2.73.84-2.73,2.1,0,1.09.71,1.68,2.69,2.18l2.6.67c2.65.67,3.53,1.47,4.28,2.44a5.69,5.69,0,0,1,1.18,3.65C224.67,66.11,221,69.14,215.47,69.14Z"/><path class="cls-3" d="M251.68,67.63A10.06,10.06,0,0,1,246.43,69c-5.92,0-9.37-4.12-9.37-11.09,0-5,1.89-8.23,4.41-10a10.19,10.19,0,0,1,5.33-1.6,9.19,9.19,0,0,1,4.16,1,9.53,9.53,0,0,1,2.1,1.51l-2.73,3.7a5.42,5.42,0,0,0-3.4-1.68c-2.52,0-3.65,2.18-3.65,7.23,0,2.81.38,4.5,1.09,5.42a3.25,3.25,0,0,0,2.52,1.22,5.75,5.75,0,0,0,3.86-1.76l.34-.29,2.56,3.4A8.87,8.87,0,0,1,251.68,67.63Z"/><path class="cls-3" d="M271.8,69.56a6,6,0,0,1-3-2.6,10.39,10.39,0,0,1-1.3,1.13,7.43,7.43,0,0,1-4.33,1.18c-4.79,0-7.39-2.44-7.39-6.72,0-5,3.49-7.39,10.33-7.39.42,0,.8,0,1.26,0v-.88c0-2.39-.46-3.19-2.52-3.19-1.81,0-3.91.88-6.22,2.44l-2.39-4a20.74,20.74,0,0,1,3.49-1.76,14.56,14.56,0,0,1,5.88-1.26c3.61,0,6.09,1.34,6.93,3.74a10,10,0,0,1,.38,3.87l-.13,7.22c0,2.35.13,3.36,2,4.79ZM267,59.06c-3.91,0-5.25.71-5.25,3.28a2.55,2.55,0,0,0,2.48,2.81,4.08,4.08,0,0,0,2.94-1.47l.08-4.62Z"/><path class="cls-3" d="M285.53,69.14a19.11,19.11,0,0,1-8.7-2.48l2-4.12c1.72,1,4.71,2.44,7.14,2.44a2.63,2.63,0,0,0,2.86-2.44c0-1.47-1.05-2.23-3.32-2.65L283,59.44a7.59,7.59,0,0,1-3.95-2.18,6.51,6.51,0,0,1-1.22-3.87c0-4.2,3.32-7,8.32-7a16.15,16.15,0,0,1,7.69,2L292,52.17a11.38,11.38,0,0,0-5.29-1.55c-1.64,0-2.73.84-2.73,2.1,0,1.09.71,1.68,2.69,2.18l2.61.67c2.65.67,3.53,1.47,4.28,2.44a5.69,5.69,0,0,1,1.18,3.65C294.73,66.11,291,69.14,285.53,69.14Z"/><path class="cls-3" d="M304.17,59.48v.17c0,3.32,1.64,5.21,4.54,5.21a8.41,8.41,0,0,0,5.46-2.14l2.18,3.36a12.34,12.34,0,0,1-8.11,3c-6.17,0-10.17-4.37-10.17-11.13,0-3.86.8-6.43,2.69-8.53a8.46,8.46,0,0,1,6.76-2.9,8.8,8.8,0,0,1,6.22,2.27c2,2,2.86,4.91,2.86,9.41v1.3Zm6.6-4.37a5.54,5.54,0,0,0-.67-3.23,2.73,2.73,0,0,0-2.48-1.26c-2.14,0-3.36,1.68-3.36,4.66v.08h6.51Z"/></g></g></g></svg>