<svg xmlns="http://www.w3.org/2000/svg" xmlns:xlink="http://www.w3.org/1999/xlink" viewBox="0 0 948.28 367.09"><defs><style>.cls-1,.cls-76{fill:none;}.cls-2{fill:#59a9b1;}.cls-10,.cls-18,.cls-2,.cls-21,.cls-25,.cls-26,.cls-27,.cls-30,.cls-31,.cls-32,.cls-33,.cls-41,.cls-49,.cls-50,.cls-51,.cls-52,.cls-68,.cls-69,.cls-70,.cls-71,.cls-72,.cls-8{mix-blend-mode:multiply;}.cls-3{isolation:isolate;}.cls-4{clip-path:url(#clip-path);}.cls-5{fill:#8dbeba;}.cls-6{fill:#65938e;}.cls-7{fill:#90c3c0;}.cls-8{fill:#809eae;opacity:0.1;}.cls-9{fill:#9ecdcb;}.cls-10{fill:url(#linear-gradient);}.cls-11{fill:#917657;}.cls-12{fill:#32373a;}.cls-13{fill:#373a3e;}.cls-14{fill:#dfe4c2;}.cls-15{fill:#517e9b;}.cls-16{fill:#58595b;}.cls-17{fill:#282a2a;}.cls-18{opacity:0.85;}.cls-19,.cls-21,.cls-25,.cls-26,.cls-27,.cls-30,.cls-31,.cls-32,.cls-33,.cls-49,.cls-50,.cls-51,.cls-69,.cls-70,.cls-71,.cls-72{opacity:0.5;}.cls-20{fill:#7b9dbb;}.cls-21{fill:url(#linear-gradient-2);}.cls-22{fill:#a32d6e;}.cls-23{fill:#6a0032;}.cls-24{fill:#fff;}.cls-25{fill:url(#linear-gradient-3);}.cls-26{fill:url(#linear-gradient-4);}.cls-27{fill:url(#linear-gradient-5);}.cls-28{fill:#f4f4f4;}.cls-29{fill:#698696;}.cls-30{fill:url(#linear-gradient-6);}.cls-31{fill:url(#linear-gradient-7);}.cls-32{fill:url(#linear-gradient-8);}.cls-33{fill:url(#linear-gradient-9);}.cls-34{fill:#dcb044;}.cls-35{fill:#5982a7;}.cls-36{fill:#4b2c14;}.cls-37{fill:#633c16;}.cls-38{fill:#353735;}.cls-39{fill:#3c6773;}.cls-40{fill:#cce0e5;}.cls-42{fill:#808184;}.cls-43{fill:#f2bf87;}.cls-44{fill:#91bcd2;}.cls-45{fill:#3f4244;}.cls-46{fill:#6d6e70;}.cls-47{fill:#a2cee6;}.cls-48{fill:#c4b382;}.cls-49{fill:url(#linear-gradient-10);}.cls-50{fill:url(#linear-gradient-11);}.cls-51{fill:url(#linear-gradient-12);}.cls-52{fill:url(#linear-gradient-13);}.cls-53{fill:#ffe1be;}.cls-54{fill:#ced4d7;}.cls-55{fill:#e7b389;}.cls-56{fill:#bf8c6b;}.cls-57{fill:#3b130f;}.cls-58{fill:#e6e7e8;}.cls-59{fill:#774326;}.cls-60{fill:#404041;}.cls-61{fill:#f6c5a3;}.cls-62{fill:#c5cba7;}.cls-63{fill:#33373d;}.cls-64{fill:#326c8e;}.cls-65{fill:#e9b467;}.cls-66{fill:#494e56;}.cls-67{fill:#555959;}.cls-68{fill:url(#linear-gradient-14);}.cls-69{fill:url(#linear-gradient-15);}.cls-70{fill:url(#linear-gradient-16);}.cls-71{fill:url(#linear-gradient-17);}.cls-72{fill:url(#linear-gradient-18);}.cls-73{fill:#4c4c4e;}.cls-74{fill:#79a9a4;stroke-miterlimit:10;stroke-width:2.28px;}.cls-74,.cls-76{stroke:#79a9a4;}.cls-75{fill:#d7eeec;}.cls-76{stroke-linejoin:round;stroke-width:28px;stroke-dasharray:1 8 1 8;}</style><clipPath id="clip-path" transform="translate(-177.19 -60.95)"><rect class="cls-1" width="1080.37" height="447.3"/></clipPath><linearGradient id="linear-gradient" x1="1562.94" y1="-12770.3" x2="1592.36" y2="-12770.3" gradientTransform="matrix(-0.67, 0.74, 0.13, 0.12, 3441.77, 563.13)" gradientUnits="userSpaceOnUse"><stop offset="0.27" stop-color="#bbbdbf" stop-opacity="0"/><stop offset="0.98" stop-color="#a6a8ab"/></linearGradient><linearGradient id="linear-gradient-2" x1="276.17" y1="166.92" x2="276.17" y2="129.15" gradientUnits="userSpaceOnUse"><stop offset="0.08" stop-color="#808184"/><stop offset="1" stop-color="#808184" stop-opacity="0"/></linearGradient><linearGradient id="linear-gradient-3" x1="277.18" y1="113.77" x2="277.18" y2="103.88" xlink:href="#linear-gradient-2"/><linearGradient id="linear-gradient-4" x1="277.24" y1="118.1" x2="277.24" y2="108.46" xlink:href="#linear-gradient-2"/><linearGradient id="linear-gradient-5" x1="277.18" y1="133.88" x2="277.18" y2="123.99" xlink:href="#linear-gradient-2"/><linearGradient id="linear-gradient-6" x1="626.22" y1="220.85" x2="626.22" y2="183.09" xlink:href="#linear-gradient-2"/><linearGradient id="linear-gradient-7" x1="627.23" y1="167.7" x2="627.23" y2="157.81" xlink:href="#linear-gradient-2"/><linearGradient id="linear-gradient-8" x1="627.29" y1="172.03" x2="627.29" y2="162.39" xlink:href="#linear-gradient-2"/><linearGradient id="linear-gradient-9" x1="627.23" y1="187.81" x2="627.23" y2="177.92" xlink:href="#linear-gradient-2"/><linearGradient id="linear-gradient-10" x1="453.46" y1="193.25" x2="453.46" y2="155.48" xlink:href="#linear-gradient-2"/><linearGradient id="linear-gradient-11" x1="454.53" y1="144.43" x2="454.53" y2="134.79" xlink:href="#linear-gradient-2"/><linearGradient id="linear-gradient-12" x1="454.46" y1="160.21" x2="454.46" y2="150.32" xlink:href="#linear-gradient-2"/><linearGradient id="linear-gradient-13" x1="1816.85" y1="-14765.23" x2="1846.27" y2="-14765.23" xlink:href="#linear-gradient"/><linearGradient id="linear-gradient-14" x1="1852.74" y1="-15258.9" x2="1890.63" y2="-15258.9" xlink:href="#linear-gradient"/><linearGradient id="linear-gradient-15" x1="98.89" y1="139.71" x2="98.89" y2="101.95" xlink:href="#linear-gradient-2"/><linearGradient id="linear-gradient-16" x1="99.9" y1="86.56" x2="99.9" y2="76.67" xlink:href="#linear-gradient-2"/><linearGradient id="linear-gradient-17" x1="99.96" y1="90.89" x2="99.96" y2="81.25" xlink:href="#linear-gradient-2"/><linearGradient id="linear-gradient-18" x1="99.9" y1="106.67" x2="99.9" y2="96.78" xlink:href="#linear-gradient-2"/><symbol id="New_Symbol_59" data-name="New Symbol 59" viewBox="0 0 4.38 4.38"><circle class="cls-2" cx="2.19" cy="2.19" r="2.19"/></symbol></defs><title>IP_sc2_car2_Steps</title><g class="cls-3"><g id="Layer_2" data-name="Layer 2"><g id="Ui"><g class="cls-4"><path class="cls-5" d="M324.45,133.73H210.54a33.35,33.35,0,0,0-33.35,33.35v3.53a33.17,33.17,0,0,0,.34,4.5V256h112V203.53c1.69.26-80.73.44-79,.44H324.45a33.35,33.35,0,0,0,33.34-33.35v-3.53A33.35,33.35,0,0,0,324.45,133.73Z" transform="translate(-177.19 -60.95)"/><path class="cls-5" d="M756.45,216.75H870.36a33.06,33.06,0,0,1,33,33.35v84.11h-112V286.54c-1.69.26,80.73.44,79,.44H756.45a33.35,33.35,0,0,1-33.35-33.35V250.1A33.35,33.35,0,0,1,756.45,216.75Z" transform="translate(-177.19 -60.95)"/><path class="cls-6" d="M357,314.35a30.2,30.2,0,0,1-30.29,30.1H207.83a30.2,30.2,0,0,1-30.29-30.1V241.69a30.2,30.2,0,0,1,30.29-30.1H326.69A30.2,30.2,0,0,1,357,241.69Z" transform="translate(-177.19 -60.95)"/><path class="cls-7" d="M348.36,314.37A23.5,23.5,0,0,1,325,338H208.14a23.5,23.5,0,0,1-23.39-23.61V243.08a23.5,23.5,0,0,1,23.39-23.61H325a23.5,23.5,0,0,1,23.39,23.61Z" transform="translate(-177.19 -60.95)"/><path class="cls-6" d="M903.54,397.79A30.27,30.27,0,0,1,873.25,428H754.38a30.27,30.27,0,0,1-30.29-30.25v-73a30.27,30.27,0,0,1,30.29-30.25H873.25a30.27,30.27,0,0,1,30.29,30.25Z" transform="translate(-177.19 -60.95)"/><path class="cls-7" d="M897.47,397.53a23.44,23.44,0,0,1-23.21,23.67H758.32a23.44,23.44,0,0,1-23.21-23.67V326.07a23.44,23.44,0,0,1,23.21-23.66H874.25a23.44,23.44,0,0,1,23.21,23.66Z" transform="translate(-177.19 -60.95)"/><polygon class="cls-6" points="557.93 222.78 516.63 194.85 516.63 195.57 383.43 195.57 342.49 167.89 342.49 167.49 208.93 167.49 167.98 139.81 167.98 139.56 34.06 139.56 34.06 283.55 167.62 283.55 208.57 311.47 342.13 311.63 383.07 339.56 516.99 339.56 557.58 366.76 691.5 366.76 691.5 222.78 557.93 222.78"/><polygon class="cls-7" points="557.93 216.25 516.63 188.33 516.63 189.05 383.43 189.05 342.49 161.37 342.49 160.96 208.93 160.96 167.98 133.28 167.98 133.04 34.06 133.04 34.06 277.03 167.62 277.03 208.57 304.95 342.13 305.11 383.07 333.03 516.99 333.03 557.58 360.24 691.5 360.24 691.5 216.25 557.93 216.25"/><polygon class="cls-8" points="557.93 160.72 516.63 132.79 516.63 133.51 383.43 133.51 342.49 105.83 342.49 105.43 208.93 105.43 167.98 77.75 167.98 77.5 34.06 77.5 34.06 166.46 167.62 166.46 208.57 194.14 208.57 194.38 342.13 194.38 342.13 194.54 383.07 222.22 383.07 222.47 516.99 222.47 516.99 221.99 557.58 249.43 557.58 249.67 691.5 249.67 691.5 160.72 557.93 160.72"/><polygon class="cls-6" points="557.93 163.84 516.63 135.91 516.63 136.63 383.43 136.63 342.49 108.94 342.49 108.54 208.93 108.54 167.98 80.86 167.98 80.62 34.06 80.62 34.06 158.25 167.62 158.25 208.57 185.93 208.57 186.16 342.13 186.16 342.13 186.33 383.07 214.01 383.07 214.25 516.99 214.25 516.99 213.78 557.58 241.22 557.58 241.46 691.5 241.46 691.5 163.84 557.93 163.84"/><rect class="cls-9" x="34.06" y="72.72" width="133.92" height="77.63"/><polygon class="cls-5" points="208.93 178.27 167.62 150.35 167.62 72.72 208.93 100.64 208.93 178.27"/><polygon class="cls-5" points="383.43 206.35 342.13 178.43 342.13 100.81 383.43 128.73 383.43 206.35"/><polygon class="cls-5" points="557.93 233.56 516.63 205.64 516.63 128.01 557.93 155.94 557.93 233.56"/><rect class="cls-9" x="208.57" y="100.64" width="133.92" height="77.62"/><rect class="cls-9" x="383.07" y="128.73" width="133.92" height="77.63"/><rect class="cls-9" x="557.58" y="155.94" width="133.92" height="77.62"/><polygon class="cls-10" points="666.6 176.8 681.67 157.64 663.66 157.16 664.21 171.68 658.93 176.71 659.95 176.73 663.39 175.8 666.6 176.8"/><path class="cls-11" d="M818,186s-.54,1.27-.56,1.32c-.36.89-1.21,1-2.08.62s-1.59-.84-1.23-1.74l.72-1.62Z" transform="translate(-177.19 -60.95)"/><path class="cls-12" d="M826.63,195.22a3.14,3.14,0,0,0,3.14,3.15h11.1a3.15,3.15,0,0,0,3.15-3.15v-5.9c0-1.74-1.41-2.61-3.15-2.61h-11.1c-1.74,0-3.14.87-3.14,2.61Z" transform="translate(-177.19 -60.95)"/><rect class="cls-13" x="649.22" y="127.43" width="17.82" height="2.45" rx="0.55" ry="0.55"/><path class="cls-11" d="M832.08,156.18a1.57,1.57,0,0,0,1.57,1.57h3.42a1.58,1.58,0,0,0,1.57-1.57v-3.23a1.57,1.57,0,0,0-1.57-1.57h-3.42a1.57,1.57,0,0,0-1.57,1.57Z" transform="translate(-177.19 -60.95)"/><path class="cls-14" d="M825.09,186a3.27,3.27,0,0,0,3.27,3.27h13.69a3.26,3.26,0,0,0,3.26-3.27l.87-24.32A5,5,0,0,0,841.4,157H838l-2.41,1.55L832.29,157h-4.2c-2.91,0-4,2.88-4,4.69Z" transform="translate(-177.19 -60.95)"/><path class="cls-11" d="M656.35,79.51H660A3.46,3.46,0,0,1,663.44,83v7.31A3.47,3.47,0,0,1,660,93.75h-3.62a3.47,3.47,0,0,1-3.47-3.47V83A3.47,3.47,0,0,1,656.35,79.51Z"/><polygon class="cls-14" points="653.68 96.12 658.18 98.9 662.65 96.12 661.55 93.42 657.96 95.9 654.75 93.42 653.68 96.12"/><polygon class="cls-15" points="657.85 95.9 659.56 97.84 657.9 99.38 656.33 97.78 657.85 95.9"/><polygon class="cls-15" points="658.05 117.93 660.7 115.87 658.76 98.22 657.16 98.22 655.59 115.87 658.05 117.93"/><polygon class="cls-12" points="655.78 173.79 651.78 173.79 649.45 133.96 657.17 133.96 655.78 173.79"/><polygon class="cls-12" points="660.48 173.79 664.48 173.79 666.82 133.96 659.09 133.96 660.48 173.79"/><polygon class="cls-16" points="655.74 176.74 649.81 176.74 650.31 175.59 651.91 173.79 655.74 173.79 655.74 176.74"/><polygon class="cls-16" points="660.49 176.74 666.58 176.74 666.08 175.59 664.49 173.79 660.49 173.79 660.49 176.74"/><path class="cls-17" d="M830.33,141.49a1.59,1.59,0,0,0,1.09,2l4.66,1.32a1.59,1.59,0,0,0,2-1.1h0a1.59,1.59,0,0,0-1.1-2l-4.66-1.33a1.59,1.59,0,0,0-2,1.1Z" transform="translate(-177.19 -60.95)"/><path class="cls-17" d="M828.93,140.73c0,1.72,7.33,4.85,8.82,3.25,2.33-2.5,1.91.9,3,.11.71-.51.58-2.69.58-3.36,0-1.71-2.84-3.09-6-3.09S828.93,139,828.93,140.73Z" transform="translate(-177.19 -60.95)"/><path class="cls-17" d="M830,139.84l.11,0s1.7,3.65,1,3.43c-1.07-.32-1,4.23-1,4.23l-.11,0c-.28,0-.74-.54-.74-1.22l-.48-5.26A1.22,1.22,0,0,1,830,139.84Z" transform="translate(-177.19 -60.95)"/><path class="cls-17" d="M839.81,138.79s.84,1.06.8,1.07-1.88,3.13-1.12,3.27,1.12,4.39,1.12,4.39l.11,0c.41,0,.46-.25.6-1.22l.62-5.26C841.95,140.38,840.49,138.79,839.81,138.79Z" transform="translate(-177.19 -60.95)"/><path class="cls-14" d="M821.84,173.55a1.77,1.77,0,0,0,2.34-.94l5-11.59a1.78,1.78,0,0,0-.93-2.33l-1.37-.58a1.77,1.77,0,0,0-2.33.93l-5,11.59a1.78,1.78,0,0,0,.94,2.33Z" transform="translate(-177.19 -60.95)"/><path class="cls-14" d="M816.35,186.22c.88.38,1.67.42,2.05-.46L824,172.84a1.74,1.74,0,0,0-.91-2.28l-1.32-.56a1.73,1.73,0,0,0-2.28.9l-5,13.44c-.38.88.22,1.13,1.1,1.51Z" transform="translate(-177.19 -60.95)"/><path class="cls-11" d="M862.86,162.14l1.29-.62c.86-.44,1.55.06,2,.9s.65,1.68-.22,2.12l-1.61.74Z" transform="translate(-177.19 -60.95)"/><path class="cls-14" d="M853.38,169.65a1.78,1.78,0,0,0,0-2.52l-8.89-9a1.78,1.78,0,0,0-2.52,0l-1,1a1.78,1.78,0,0,0,0,2.52l8.89,9a1.79,1.79,0,0,0,2.52,0Z" transform="translate(-177.19 -60.95)"/><path class="cls-14" d="M864.24,163c-.41-.87-1-1.42-1.85-1l-11.58,5.47a1.74,1.74,0,0,0-.82,2.31l.06,1a2.6,2.6,0,0,0,2.88,1.13l11.47-6.26c.86-.41.57-1,.16-1.86Z" transform="translate(-177.19 -60.95)"/><g class="cls-18"><g class="cls-19"><polygon class="cls-20" points="196.29 130.26 196.3 130.26 196.29 130.25 193.33 118.77 189.33 116.2 192.29 127.69 187.28 134.06 191.28 136.63 196.29 130.27 196.29 130.27 196.29 130.26"/><polygon class="cls-20" points="189.12 126.24 189.12 126.23 189.12 126.23 189.11 126.22 186.15 114.73 182.15 112.17 185.11 123.66 180.1 130.02 184.1 132.6 189.11 126.23 189.12 126.24"/></g><g class="cls-19"><polygon class="cls-20" points="371.82 160.69 371.83 160.68 371.82 160.68 368.86 149.19 364.86 146.62 367.82 158.12 362.81 164.49 366.8 167.05 371.82 160.69 371.82 160.7 371.82 160.69"/><polygon class="cls-20" points="364.64 156.66 364.64 156.66 364.65 156.65 364.64 156.64 361.68 145.16 357.68 142.59 360.64 154.09 355.63 160.45 359.62 163.02 364.64 156.66 364.64 156.66"/></g><g class="cls-19"><polygon class="cls-20" points="545.92 186.74 545.92 186.73 545.91 186.73 542.95 175.24 538.95 172.67 541.92 184.17 536.9 190.53 540.9 193.1 545.91 186.74 545.92 186.75 545.92 186.74"/><polygon class="cls-20" points="538.74 182.71 538.74 182.7 538.75 182.7 538.74 182.69 535.77 171.21 531.77 168.64 534.74 180.13 529.72 186.5 533.72 189.07 538.74 182.71 538.74 182.71"/></g></g><polygon class="cls-21" points="334.62 124.3 217.73 124.3 234.73 165.68 320.59 165.68 334.62 124.3"/><path class="cls-22" d="M446.93,150H427.48a3.5,3.5,0,0,0-3.49,3.49v5.85h29.6Z" transform="translate(-177.19 -60.95)"/><path class="cls-22" d="M484.65,195.06a3.51,3.51,0,0,1-3.5,3.49H427.48a3.5,3.5,0,0,1-3.49-3.49V159.82a3.5,3.5,0,0,1,3.49-3.49h53.67a3.51,3.51,0,0,1,3.5,3.49Z" transform="translate(-177.19 -60.95)"/><path class="cls-23" d="M481.25,157.66H451.56L447,151.31H427.57a3.5,3.5,0,0,0-3.49,3.49v5.85h.05a3.38,3.38,0,0,0-.05.5v35.24a3.5,3.5,0,0,0,3.49,3.49h53.67a3.5,3.5,0,0,0,3.5-3.49V161.15A3.5,3.5,0,0,0,481.25,157.66Z" transform="translate(-177.19 -60.95)"/><path class="cls-24" d="M453,189.12a3.76,3.76,0,0,1-3.76-3.76.85.85,0,1,1,1.69,0,2.06,2.06,0,0,0,2.06,2.06.85.85,0,1,1,0,1.7m3.33-9c-1-1.59-1.92-2.9-2-3l-.68-.94-.69-.95-.69.95-.69.94c0,.05-1,1.37-2,3-1.45,2.39-2.12,4.06-2.12,5.25a5.45,5.45,0,0,0,10.9,0c0-1.19-.67-2.86-2.12-5.25" transform="translate(-177.19 -60.95)"/><path class="cls-24" d="M445,180.4a3.17,3.17,0,0,1-3.17-3.17.71.71,0,0,1,1.43,0A1.74,1.74,0,0,0,445,179a.71.71,0,0,1,0,1.43m2.8-7.61c-.81-1.34-1.61-2.45-1.65-2.5l-.58-.8-.58-.79-.58.79-.58.8s-.84,1.16-1.65,2.5c-1.22,2-1.79,3.42-1.79,4.42a4.59,4.59,0,0,0,9.19,0c0-1-.57-2.41-1.79-4.42" transform="translate(-177.19 -60.95)"/><path class="cls-24" d="M459.34,175.48a3.18,3.18,0,0,1-3.17-3.17.72.72,0,1,1,1.43,0,1.74,1.74,0,0,0,1.74,1.74.72.72,0,0,1,0,1.43m2.81-7.61c-.81-1.34-1.62-2.45-1.65-2.5l-.58-.8-.58-.79-.58.79-.58.8s-.84,1.15-1.65,2.5c-1.22,2-1.78,3.42-1.78,4.42a4.59,4.59,0,0,0,9.18,0c0-1-.57-2.41-1.79-4.42" transform="translate(-177.19 -60.95)"/><rect class="cls-25" x="246.93" y="102.61" width="60.5" height="10.84"/><path class="cls-22" d="M446.93,160.34H427.48a3.5,3.5,0,0,0-3.49,3.49v5.85h29.6Z" transform="translate(-177.19 -60.95)"/><path class="cls-22" d="M484.65,205.42a3.51,3.51,0,0,1-3.5,3.49H427.48a3.5,3.5,0,0,1-3.49-3.49V170.18a3.5,3.5,0,0,1,3.49-3.49h53.67a3.51,3.51,0,0,1,3.5,3.49Z" transform="translate(-177.19 -60.95)"/><path class="cls-23" d="M481.25,168H451.56L447,161.67H427.57a3.5,3.5,0,0,0-3.49,3.49V171h.05a3.38,3.38,0,0,0-.05.5v35.24a3.5,3.5,0,0,0,3.49,3.49h53.67a3.51,3.51,0,0,0,3.5-3.49V171.52A3.5,3.5,0,0,0,481.25,168Z" transform="translate(-177.19 -60.95)"/><circle class="cls-23" cx="277.24" cy="126.81" r="11.81"/><rect class="cls-24" x="448.72" y="185.67" width="2.76" height="8.43" transform="translate(-179.49 313.28) rotate(-45.04)"/><rect class="cls-24" x="448.94" y="186.19" width="14.96" height="2.76" transform="translate(-176.24 316.49) rotate(-44.97)"/><rect class="cls-26" x="246.99" y="107.22" width="60.51" height="10.56"/><path class="cls-22" d="M446.93,170.08H427.48a3.5,3.5,0,0,0-3.49,3.49v5.85h29.6Z" transform="translate(-177.19 -60.95)"/><path class="cls-22" d="M484.65,215.16a3.51,3.51,0,0,1-3.5,3.49H427.48a3.5,3.5,0,0,1-3.49-3.49V179.92a3.5,3.5,0,0,1,3.49-3.49h53.67a3.51,3.51,0,0,1,3.5,3.49Z" transform="translate(-177.19 -60.95)"/><path class="cls-23" d="M481.25,177.77H451.56L447,171.42H427.57a3.5,3.5,0,0,0-3.49,3.49v5.85h.05a3.39,3.39,0,0,0-.05.5V216.5a3.5,3.5,0,0,0,3.49,3.49h53.67a3.5,3.5,0,0,0,3.5-3.49V181.26A3.5,3.5,0,0,0,481.25,177.77Z" transform="translate(-177.19 -60.95)"/><path class="cls-24" d="M453,209.23a3.76,3.76,0,0,1-3.76-3.76.85.85,0,1,1,1.69,0,2.06,2.06,0,0,0,2.06,2.06.85.85,0,1,1,0,1.7m3.33-9c-1-1.59-1.92-2.91-2-3l-.68-.95-.69-.95-.69.95-.69.95c0,.05-1,1.37-2,3-1.45,2.39-2.12,4.06-2.12,5.25a5.45,5.45,0,0,0,10.9,0c0-1.19-.67-2.86-2.12-5.25" transform="translate(-177.19 -60.95)"/><path class="cls-24" d="M445,200.51a3.17,3.17,0,0,1-3.17-3.17.71.71,0,0,1,1.43,0,1.74,1.74,0,0,0,1.74,1.74.71.71,0,0,1,0,1.43m2.8-7.61c-.81-1.34-1.61-2.45-1.65-2.49l-.58-.8-.58-.79-.58.79-.58.8s-.84,1.15-1.65,2.49c-1.22,2-1.79,3.42-1.79,4.42a4.59,4.59,0,0,0,9.19,0c0-1-.57-2.41-1.79-4.42" transform="translate(-177.19 -60.95)"/><path class="cls-24" d="M459.34,195.59a3.17,3.17,0,0,1-3.17-3.17.72.72,0,0,1,1.43,0,1.74,1.74,0,0,0,1.74,1.74.71.71,0,1,1,0,1.43m2.81-7.61c-.81-1.34-1.62-2.45-1.65-2.5l-.58-.8-.58-.8-.58.8-.58.8s-.84,1.16-1.65,2.5c-1.22,2-1.78,3.42-1.78,4.42a4.59,4.59,0,0,0,9.18,0c0-1-.57-2.42-1.79-4.42" transform="translate(-177.19 -60.95)"/><rect class="cls-27" x="246.93" y="122.72" width="60.5" height="10.84"/><rect class="cls-28" x="236.15" y="130.19" width="82.13" height="33.13"/><rect class="cls-28" x="236.15" y="109.96" width="1.95" height="20.23"/><rect class="cls-29" x="238.08" y="109.96" width="8.91" height="20.23"/><rect class="cls-28" x="238.08" y="109.96" width="8.91" height="1.58"/><rect class="cls-28" x="316.38" y="109.96" width="1.95" height="20.23"/><rect class="cls-29" x="307.5" y="109.96" width="8.91" height="20.23"/><rect class="cls-28" x="307.5" y="109.96" width="8.91" height="1.58"/><polygon class="cls-30" points="684.67 178.23 567.78 178.23 584.78 219.61 670.64 219.61 684.67 178.23"/><path class="cls-22" d="M797,203.91H777.52A3.5,3.5,0,0,0,774,207.4v5.85h29.61Z" transform="translate(-177.19 -60.95)"/><rect class="cls-22" x="596.84" y="149.3" width="60.66" height="42.22" rx="3.49" ry="3.49"/><path class="cls-23" d="M831.3,211.59H801.61l-4.53-6.35H777.62a3.5,3.5,0,0,0-3.49,3.49v5.85h0a3.37,3.37,0,0,0,0,.5v35.24a3.5,3.5,0,0,0,3.49,3.5H831.3a3.51,3.51,0,0,0,3.49-3.5V215.08A3.5,3.5,0,0,0,831.3,211.59Z" transform="translate(-177.19 -60.95)"/><path class="cls-24" d="M803.07,243a3.76,3.76,0,0,1-3.76-3.76.85.85,0,0,1,1.7,0,2.06,2.06,0,0,0,2.06,2.06.85.85,0,1,1,0,1.7m3.33-9c-1-1.59-1.92-2.9-2-3l-.69-.95-.69-.95-.69.95-.69.95c0,.05-1,1.37-2,3-1.45,2.39-2.12,4.06-2.12,5.25a5.45,5.45,0,0,0,10.9,0c0-1.2-.68-2.86-2.12-5.25" transform="translate(-177.19 -60.95)"/><path class="cls-24" d="M795,234.33a3.18,3.18,0,0,1-3.17-3.17.71.71,0,1,1,1.43,0A1.74,1.74,0,0,0,795,232.9a.71.71,0,1,1,0,1.43m2.81-7.61c-.81-1.34-1.61-2.45-1.65-2.49l-.58-.8-.58-.8-.58.8-.58.8s-.84,1.15-1.65,2.49c-1.22,2-1.79,3.42-1.79,4.43a4.59,4.59,0,0,0,9.19,0c0-1-.57-2.41-1.79-4.43" transform="translate(-177.19 -60.95)"/><path class="cls-24" d="M809.39,229.41a3.17,3.17,0,0,1-3.17-3.17.72.72,0,0,1,1.43,0,1.74,1.74,0,0,0,1.74,1.74.72.72,0,1,1,0,1.43m2.81-7.62c-.81-1.34-1.61-2.45-1.65-2.49l-.58-.8-.58-.79-.58.79-.58.8s-.84,1.16-1.65,2.49c-1.22,2-1.79,3.42-1.79,4.43a4.59,4.59,0,0,0,9.18,0c0-1-.56-2.41-1.79-4.43" transform="translate(-177.19 -60.95)"/><rect class="cls-31" x="596.97" y="156.54" width="60.51" height="10.84"/><path class="cls-22" d="M797,214.27H777.52a3.5,3.5,0,0,0-3.49,3.49v5.85h29.61Z" transform="translate(-177.19 -60.95)"/><path class="cls-22" d="M834.7,259.36a3.5,3.5,0,0,1-3.49,3.49H777.52a3.5,3.5,0,0,1-3.49-3.49V224.12a3.5,3.5,0,0,1,3.49-3.49H831.2a3.5,3.5,0,0,1,3.49,3.49Z" transform="translate(-177.19 -60.95)"/><path class="cls-23" d="M831.3,222H801.61l-4.53-6.35H777.62a3.5,3.5,0,0,0-3.49,3.49v5.85h0a3.42,3.42,0,0,0,0,.5v35.24a3.5,3.5,0,0,0,3.49,3.49H831.3a3.5,3.5,0,0,0,3.49-3.49V225.45A3.5,3.5,0,0,0,831.3,222Z" transform="translate(-177.19 -60.95)"/><circle class="cls-23" cx="627.29" cy="180.74" r="11.81"/><rect class="cls-24" x="798.77" y="239.6" width="2.76" height="8.43" transform="translate(-114.95 576.78) rotate(-45.04)"/><rect class="cls-24" x="798.99" y="240.12" width="14.96" height="2.76" transform="translate(-112.05 579.49) rotate(-44.96)"/><rect class="cls-32" x="597.04" y="161.15" width="60.51" height="10.56"/><path class="cls-22" d="M797,224H777.52A3.5,3.5,0,0,0,774,227.5v5.85h29.61Z" transform="translate(-177.19 -60.95)"/><path class="cls-22" d="M834.7,269.1a3.5,3.5,0,0,1-3.49,3.49H777.52A3.5,3.5,0,0,1,774,269.1V233.85a3.5,3.5,0,0,1,3.49-3.49H831.2a3.5,3.5,0,0,1,3.49,3.49Z" transform="translate(-177.19 -60.95)"/><path class="cls-23" d="M831.3,231.7H801.61l-4.53-6.35H777.62a3.5,3.5,0,0,0-3.49,3.49v5.85h0a3.33,3.33,0,0,0,0,.5v35.24a3.5,3.5,0,0,0,3.49,3.49H831.3a3.5,3.5,0,0,0,3.49-3.49V235.19A3.5,3.5,0,0,0,831.3,231.7Z" transform="translate(-177.19 -60.95)"/><path class="cls-24" d="M803.07,263.16a3.77,3.77,0,0,1-3.76-3.76.85.85,0,1,1,1.7,0,2.07,2.07,0,0,0,2.06,2.06.85.85,0,1,1,0,1.69m3.33-9c-1-1.59-1.92-2.9-2-3l-.69-1-.69-.94-.69.94-.69,1c0,.05-1,1.37-2,3-1.45,2.39-2.12,4.06-2.12,5.25a5.45,5.45,0,0,0,10.9,0c0-1.19-.68-2.86-2.12-5.25" transform="translate(-177.19 -60.95)"/><path class="cls-24" d="M795,254.44a3.17,3.17,0,0,1-3.17-3.17.71.71,0,1,1,1.43,0A1.74,1.74,0,0,0,795,253a.72.72,0,0,1,0,1.43m2.81-7.61c-.81-1.34-1.61-2.45-1.65-2.5l-.58-.79-.58-.8-.58.8-.58.79s-.84,1.16-1.65,2.5c-1.22,2-1.79,3.42-1.79,4.42a4.59,4.59,0,0,0,9.19,0c0-1-.57-2.41-1.79-4.42" transform="translate(-177.19 -60.95)"/><path class="cls-24" d="M809.39,249.52a3.17,3.17,0,0,1-3.17-3.17.72.72,0,1,1,1.43,0,1.74,1.74,0,0,0,1.74,1.74.72.72,0,1,1,0,1.43m2.81-7.61c-.81-1.34-1.61-2.45-1.65-2.49l-.58-.8-.58-.8-.58.8-.58.8s-.84,1.15-1.65,2.49c-1.22,2-1.79,3.42-1.79,4.42a4.59,4.59,0,0,0,9.18,0c0-1-.56-2.41-1.79-4.42" transform="translate(-177.19 -60.95)"/><rect class="cls-33" x="596.97" y="176.65" width="60.51" height="10.84"/><rect class="cls-28" x="586.2" y="184.12" width="82.13" height="33.13"/><rect class="cls-28" x="586.2" y="163.89" width="1.95" height="20.23"/><rect class="cls-29" x="588.13" y="163.89" width="8.91" height="20.23"/><rect class="cls-28" x="588.13" y="163.89" width="8.91" height="1.58"/><rect class="cls-28" x="666.43" y="163.89" width="1.95" height="20.23"/><rect class="cls-29" x="657.55" y="163.89" width="8.91" height="20.23"/><rect class="cls-28" x="657.55" y="163.89" width="8.91" height="1.58"/><path class="cls-8" d="M185.36,258.78s-1.26-32.15,25.9-31.37V219.2S177.19,216.11,185.36,258.78Z" transform="translate(-177.19 -60.95)"/><path class="cls-34" d="M658.25,158.64l-.74-7.78-3.58,3.51s1.27,6.94,1.45,7.44,1.33,4.45,1.88,6.56c.36,1.39.93,4.29,1.13,5.3a4.53,4.53,0,0,1,1.68-.54A134.36,134.36,0,0,0,658.25,158.64Z" transform="translate(-177.19 -60.95)"/><path class="cls-34" d="M661.68,176.6c.1-.23-.43-1.17-.43-1.17s3,1,2.61.24a12.39,12.39,0,0,0-.87-1.3c-.51-.82-3-1.72-3-1.72-.42-.7-1.09-.11-1.31-.17-.17.59-.4.55-.34,1.13,0,.37.54.7.54.7C660.05,175.58,661.54,176.95,661.68,176.6Z" transform="translate(-177.19 -60.95)"/><path class="cls-35" d="M655.64,143.25a38.81,38.81,0,0,1,1.81,7.46c.36,2.31,1,8.86,1,8.86l-3.42.79-1.36-6.27Z" transform="translate(-177.19 -60.95)"/><path class="cls-34" d="M636.3,148.82l-2,8.8a131.69,131.69,0,0,0-1.87,15.18s-.84,3.67-.27,4.46c.36.5.38.45,1.31.81s.77-2.5.77-2.5.67.84.93.84-.33-1.9-1.08-3.42c0,0,.77-3.95,1.21-5.65.54-2.11,1.69-6.07,1.87-6.57s2.67-8.46,2.67-8.46Z" transform="translate(-177.19 -60.95)"/><path class="cls-35" d="M638.19,143.25s-1.46,4-1.89,5.57S634,159.51,634,159.51l3.39.88,2.19-6.31Z" transform="translate(-177.19 -60.95)"/><rect class="cls-36" x="464.03" y="70.71" width="10.06" height="10.07"/><path class="cls-34" d="M641,132.51c.17,4,3.14,6.77,5.56,6.83,3.29.09,6-3,6-6.8s-2.67-6.8-6-6.8S640.79,127.21,641,132.51Z" transform="translate(-177.19 -60.95)"/><path class="cls-37" d="M642.74,141.76s-1.93-7.73.08-10.53l5.07-5.33,1.41-2.46a6.29,6.29,0,0,0-5.1-.85c-4.58,1-6,7.43-4.32,12.25,2.06,5.94.94,7.74.94,7.74Z" transform="translate(-177.19 -60.95)"/><path class="cls-37" d="M652.55,142.71s-2.1-2.27,0-7.87c1.06-2.85,1.83-9.37-3.26-11.4l-1.45,2.27a10.45,10.45,0,0,1,3.39,3.92c1,2.3.36,6.8-1.09,8.25,0,0-.49,2.79.6,3.52A1.87,1.87,0,0,0,652.55,142.71Z" transform="translate(-177.19 -60.95)"/><path class="cls-38" d="M645.54,216.76a14.85,14.85,0,0,1-2.75,0,2,2,0,0,1-1.61-1.84c-.09-1.22,1.4-3.75,1.4-3.75l3.68,2.09S647.95,216.61,645.54,216.76Z" transform="translate(-177.19 -60.95)"/><path class="cls-34" d="M646.26,191.77c-.86,13.74-.7,19-.7,19a16.4,16.4,0,0,0,.52,1.58c.17.35.52,2.37-.87,2.37s-3.06-.16-3.24-2.2c-.07-.81.56-1.62.56-2.41s-1.61-11.71-1.63-16.16c0-2.11.64-4,.57-5.73-.14-3.45-2.94-15.08-2.94-15.08l9.08.67s-.91,8.38-1.09,11.19C646.42,186.69,646.37,190.07,646.26,191.77Z" transform="translate(-177.19 -60.95)"/><path class="cls-39" d="M638.54,173.14s2.8,11.63,2.94,15.08c.07,1.73-.59,3.61-.57,5.73,0,3.07.79,9.22,1.27,13,.21,1.69.37,2.91.37,3.16h0a4.35,4.35,0,0,0,1.77.36,4.63,4.63,0,0,0,1.24-.16c0-.6,0-1.8,0-3.73.07-3,.24-7.81.67-14.8.11-1.69.16-5.08.26-6.77.18-2.81,1.09-11.19,1.09-11.19Z" transform="translate(-177.19 -60.95)"/><path class="cls-38" d="M648.31,216.76a14.88,14.88,0,0,0,2.75,0,2,2,0,0,0,1.6-1.84c.09-1.22-1.39-3.75-1.39-3.75l-3.68,2.09S645.91,216.61,648.31,216.76Z" transform="translate(-177.19 -60.95)"/><path class="cls-34" d="M647.59,191.77c.85,13.74.69,19,.69,19a14.89,14.89,0,0,1-.52,1.58c-.17.35-.52,2.37.88,2.37s3.06-.16,3.24-2.2c.06-.81-.56-1.62-.56-2.41s1.6-11.71,1.64-16.16c0-2.11-.65-4-.58-5.73.14-3.45,2.94-15.08,2.94-15.08l-9.08.67s.91,8.38,1.09,11.19C647.43,186.69,647.48,190.07,647.59,191.77Z" transform="translate(-177.19 -60.95)"/><path class="cls-39" d="M655.31,173.14s-2.8,11.63-2.94,15.08c-.07,1.73.59,3.61.58,5.73,0,3.07-.8,9.22-1.28,13-.21,1.69-.36,2.91-.36,3.16h0a4.36,4.36,0,0,1-1.77.36,4.6,4.6,0,0,1-1.24-.16c0-.6,0-1.8,0-3.73-.06-3-.23-7.81-.67-14.8-.1-1.69-.16-5.08-.26-6.77-.19-2.81-1.09-11.19-1.09-11.19Z" transform="translate(-177.19 -60.95)"/><path class="cls-40" d="M653.48,160.66l1-8.36a29.15,29.15,0,0,0,1.18-9c-.83-.76-5-2.25-5-2.25l-1.46-.77-1.81.36-.48,0-.48,0-2.8.22-.47.19s-4.14,1.49-5,2.25a27.18,27.18,0,0,0,.75,8.29l1.41,9.12a23.41,23.41,0,0,1-.33,3.51c-.55,2.07-1.9,6.39-1.74,9a30.62,30.62,0,0,0,8.7,1c6.05,0,8.58-1,8.58-1a37.43,37.43,0,0,0-1.75-9A19.47,19.47,0,0,1,653.48,160.66Z" transform="translate(-177.19 -60.95)"/><path class="cls-37" d="M643.08,132a15.29,15.29,0,0,0,5.08-6.8l-2.94.39S645.35,130,643.08,132Z" transform="translate(-177.19 -60.95)"/><path class="cls-37" d="M648.16,129.23s3.33.54,4,1.2l-1.33-4-3.07-1.6A16.55,16.55,0,0,1,648.16,129.23Z" transform="translate(-177.19 -60.95)"/><path class="cls-34" d="M649,140.12v-3.06h-4.69v3.47l-.72.28a1.48,1.48,0,0,0-.35.9c0,1.16,1.57,2.1,3.5,2.1s3.35-.86,3.48-1.95c0-.06,0-.1,0-.15A1.93,1.93,0,0,0,649,140.12Z" transform="translate(-177.19 -60.95)"/><path class="cls-22" d="M634,157.48H619.19a2.66,2.66,0,0,0-2.65,2.65v4.45H639Z" transform="translate(-177.19 -60.95)"/><path class="cls-22" d="M442,101.35h40.79a2.65,2.65,0,0,1,2.65,2.65v26.78a2.66,2.66,0,0,1-2.66,2.66H442a2.65,2.65,0,0,1-2.65-2.65V104A2.65,2.65,0,0,1,442,101.35Z"/><path class="cls-23" d="M660.05,163.32H637.49l-3.44-4.83H619.26a2.66,2.66,0,0,0-2.65,2.65v4.45h0a2.74,2.74,0,0,0,0,.38v26.78a2.66,2.66,0,0,0,2.65,2.66h40.79a2.66,2.66,0,0,0,2.66-2.66V166A2.66,2.66,0,0,0,660.05,163.32Z" transform="translate(-177.19 -60.95)"/><path class="cls-24" d="M638.6,187.22a2.86,2.86,0,0,1-2.85-2.86.64.64,0,0,1,1.29,0,1.57,1.57,0,0,0,1.57,1.57.64.64,0,1,1,0,1.29m2.53-6.87c-.73-1.21-1.45-2.2-1.49-2.25l-.52-.72-.53-.72-.52.72-.52.72s-.75,1-1.48,2.25a8.8,8.8,0,0,0-1.61,4,4.14,4.14,0,0,0,8.29,0,8.82,8.82,0,0,0-1.61-4" transform="translate(-177.19 -60.95)"/><path class="cls-24" d="M632.48,180.6a2.41,2.41,0,0,1-2.41-2.4.54.54,0,0,1,1.09,0,1.32,1.32,0,0,0,1.32,1.32.55.55,0,0,1,.54.55.54.54,0,0,1-.54.54m2.13-5.78c-.62-1-1.23-1.86-1.26-1.9l-.44-.61-.44-.6-.44.6-.44.61s-.64.88-1.25,1.9a7.41,7.41,0,0,0-1.36,3.36,3.49,3.49,0,0,0,7,0,7.44,7.44,0,0,0-1.35-3.36" transform="translate(-177.19 -60.95)"/><path class="cls-24" d="M643.4,176.86a2.41,2.41,0,0,1-2.41-2.41.54.54,0,0,1,1.09,0,1.32,1.32,0,0,0,1.32,1.32.54.54,0,1,1,0,1.08m2.13-5.78c-.62-1-1.22-1.86-1.25-1.9l-.44-.6-.44-.61-.44.61-.44.6s-.63.88-1.25,1.9a7.37,7.37,0,0,0-1.36,3.36,3.49,3.49,0,0,0,7,0,7.4,7.4,0,0,0-1.36-3.36" transform="translate(-177.19 -60.95)"/><g class="cls-41"><polygon class="cls-42" points="410.58 155.46 410.85 154.38 410.59 150.94 409.99 150.48 409.71 151.56 408.51 156.29 408.24 157.37 409.98 157.81 410.25 156.73 410.58 155.46"/></g><path class="cls-43" d="M618.62,158.66l1.29.3c.87.22,1.38-.37,1.59-1.2s.24-1.64-.62-1.86l-1.6-.34Z" transform="translate(-177.19 -60.95)"/><path class="cls-44" d="M606.63,155.13a1.64,1.64,0,0,1-2.28.4l-9.54-6.64a1.64,1.64,0,0,1-.4-2.28l.79-1.11a1.64,1.64,0,0,1,2.28-.4l9.54,6.64a1.64,1.64,0,0,1,.4,2.28Z" transform="translate(-177.19 -60.95)"/><path class="cls-44" d="M619.68,157.58c-.2.86-.6,1.48-1.46,1.28L605.61,156a1.59,1.59,0,0,1-1.2-1.91l.3-1.3a1.59,1.59,0,0,1,1.91-1.19l12.67,3.61c.86.2.72.78.52,1.64Z" transform="translate(-177.19 -60.95)"/><polygon class="cls-45" points="407.48 156.52 416.58 156.52 416.12 155.46 411.16 153.8 407.48 153.8 407.48 156.52"/><polygon class="cls-16" points="411.19 153.78 407.51 153.78 405.83 116.08 414.87 116.08 411.19 153.78"/><path class="cls-46" d="M593.67,177.6c-.44,1.7-.78,2-2,2L587,181l-2.09.52a6.51,6.51,0,0,1-2.24-4.12v-6.21c0-1.2,1-1.8,2.18-1.8h7.67c1.2,0,1.54.6,1.54,1.8Z" transform="translate(-177.19 -60.95)"/><rect class="cls-13" x="405.48" y="109.1" width="11.8" height="2.31"/><polygon class="cls-46" points="412.85 153.78 409.17 153.78 407.49 116.08 416.52 116.08 412.85 153.78"/><path class="cls-16" d="M594.51,172.24a.4.4,0,0,1-.4.4h0a.4.4,0,0,1-.4-.4V170a.39.39,0,0,1,.4-.39h0a.4.4,0,0,1,.4.39Z" transform="translate(-177.19 -60.95)"/><path class="cls-43" d="M596.16,141.71a1.45,1.45,0,0,1-1.62,1.25l-3.12-.41a1.45,1.45,0,0,1-1.24-1.63l.65-4.92a1.45,1.45,0,0,1,1.63-1.25l3.11.41a1.45,1.45,0,0,1,1.24,1.63Z" transform="translate(-177.19 -60.95)"/><path class="cls-43" d="M600,135.91a3.19,3.19,0,0,1-3.58,2.74l-3.3-.43c-1.75-.23-2.56-1.78-2.33-3.52l.88-6.67c.23-1.75,1.43-3,3.17-2.8l3.3.44a3.19,3.19,0,0,1,2.74,3.58Z" transform="translate(-177.19 -60.95)"/><polygon class="cls-16" points="409.17 156.52 418.27 156.52 417.81 155.46 412.85 153.8 409.17 153.8 409.17 156.52"/><path class="cls-47" d="M595,171.21a1.44,1.44,0,0,1-1.72,1.11l-10-2.17a1.45,1.45,0,0,1-1.11-1.72l4.37-22.53c.17-.78,2.82-5.37,3.6-5.2l6.24,1.35c.78.17,1.29.84,1.89,2.19,0,0,2,5.6,1.58,8C599.15,156.15,595,171.21,595,171.21Z" transform="translate(-177.19 -60.95)"/><rect class="cls-47" x="592.56" y="137.19" width="2.09" height="7.03" transform="translate(153.26 630.14) rotate(-77.78)"/><path class="cls-48" d="M592.22,135.46a1.1,1.1,0,0,1-1.32.84h0a1.1,1.1,0,0,1-.84-1.31l.77-3.58a1.1,1.1,0,0,1,1.31-.84h0a1.1,1.1,0,0,1,.85,1.31Z" transform="translate(-177.19 -60.95)"/><path class="cls-48" d="M594,127.78a2,2,0,0,1-1.71-2.24h0a2,2,0,0,1,2.24-1.71l6.54.86a2,2,0,0,1,1.71,2.24h0a2,2,0,0,1-2.23,1.71Z" transform="translate(-177.19 -60.95)"/><path class="cls-48" d="M597.27,128.05l-.89,2.4s-3.52-.06-4.39,2.63l-2.49,2.07,0-5.78s-.72-6.88,5.67-5.45Z" transform="translate(-177.19 -60.95)"/><path class="cls-43" d="M594.45,133.54a1,1,0,0,1-1.09.83h0a1,1,0,0,1-.83-1.08l.36-2.71a1,1,0,0,1,1.09-.83h0a1,1,0,0,1,.83,1.08Z" transform="translate(-177.19 -60.95)"/><path class="cls-43" d="M613.43,166.7l1.16.63c.78.44,1.43,0,1.85-.74s.67-1.52-.11-2l-1.46-.75Z" transform="translate(-177.19 -60.95)"/><path class="cls-47" d="M602.8,160.12a1.62,1.62,0,0,1-2.3-.22L593.05,151a1.64,1.64,0,0,1,.22-2.31l1-.86a1.64,1.64,0,0,1,2.31.21l7.44,8.93a1.63,1.63,0,0,1-.22,2.3Z" transform="translate(-177.19 -60.95)"/><path class="cls-47" d="M614.74,165.95c-.42.78-1,1.27-1.74.85l-11.4-6.12a1.61,1.61,0,0,1-.65-2.16l.63-1.17a1.59,1.59,0,0,1,2.16-.65L615,163.54c.77.42.49.94.07,1.71Z" transform="translate(-177.19 -60.95)"/><polygon class="cls-49" points="511.9 150.63 395.01 150.63 412.01 192.01 497.87 192.01 511.9 150.63"/><path class="cls-22" d="M624.22,186.67H604.76a3.5,3.5,0,0,0-3.49,3.49V196h29.61Z" transform="translate(-177.19 -60.95)"/><rect class="cls-22" x="424.08" y="132.07" width="60.66" height="42.22" rx="3.49" ry="3.49"/><path class="cls-23" d="M658.53,194.35H628.84L624.32,188H604.86a3.5,3.5,0,0,0-3.49,3.49v5.85h.05a3.26,3.26,0,0,0-.05.5v35.24a3.5,3.5,0,0,0,3.49,3.5h53.67a3.51,3.51,0,0,0,3.5-3.5V197.84A3.5,3.5,0,0,0,658.53,194.35Z" transform="translate(-177.19 -60.95)"/><circle class="cls-23" cx="454.52" cy="153.13" r="11.81"/><rect class="cls-24" x="626" y="212" width="2.76" height="8.43" transform="translate(-146.22 446.21) rotate(-45.02)"/><rect class="cls-24" x="626.22" y="212.52" width="14.96" height="2.75" transform="translate(-142.95 449.56) rotate(-44.98)"/><rect class="cls-50" x="424.27" y="133.55" width="60.51" height="10.56"/><path class="cls-22" d="M624.22,196.41H604.76a3.5,3.5,0,0,0-3.49,3.49v5.85h29.61Z" transform="translate(-177.19 -60.95)"/><rect class="cls-22" x="424.08" y="141.81" width="60.66" height="42.22" rx="3.49" ry="3.49"/><path class="cls-23" d="M658.53,204.1H628.84l-4.53-6.35H604.86a3.5,3.5,0,0,0-3.49,3.49v5.85h.05a3.27,3.27,0,0,0-.05.5v35.24a3.5,3.5,0,0,0,3.49,3.49h53.67a3.5,3.5,0,0,0,3.5-3.49V207.59A3.5,3.5,0,0,0,658.53,204.1Z" transform="translate(-177.19 -60.95)"/><path class="cls-24" d="M630.31,235.56a3.76,3.76,0,0,1-3.75-3.76.85.85,0,0,1,1.7,0,2.06,2.06,0,0,0,2.06,2.06.85.85,0,1,1,0,1.7m3.33-9c-1-1.59-1.91-2.9-2-3l-.68-.95-.69-.95-.68.95-.69.95c0,.05-1,1.37-2,3-1.45,2.39-2.12,4.06-2.12,5.25a5.45,5.45,0,0,0,10.9,0c0-1.19-.67-2.86-2.12-5.25" transform="translate(-177.19 -60.95)"/><path class="cls-24" d="M622.25,226.84a3.17,3.17,0,0,1-3.17-3.17.71.71,0,0,1,1.43,0,1.74,1.74,0,0,0,1.74,1.74.72.72,0,0,1,0,1.43m2.81-7.62c-.81-1.34-1.61-2.45-1.65-2.49l-.58-.8-.58-.8-.58.8-.58.8s-.84,1.16-1.65,2.49c-1.22,2-1.79,3.42-1.79,4.43a4.59,4.59,0,0,0,9.19,0c0-1-.57-2.41-1.79-4.43" transform="translate(-177.19 -60.95)"/><path class="cls-24" d="M636.62,221.92a3.17,3.17,0,0,1-3.17-3.17.71.71,0,1,1,1.43,0,1.74,1.74,0,0,0,1.74,1.74.71.71,0,0,1,0,1.43m2.81-7.61c-.81-1.34-1.61-2.45-1.65-2.49l-.58-.8-.58-.8-.58.8-.58.8s-.84,1.15-1.65,2.49c-1.22,2-1.79,3.42-1.79,4.43a4.59,4.59,0,0,0,9.19,0c0-1-.57-2.41-1.79-4.43" transform="translate(-177.19 -60.95)"/><rect class="cls-51" x="424.21" y="149.05" width="60.51" height="10.84"/><rect class="cls-28" x="413.43" y="156.52" width="82.13" height="33.13"/><rect class="cls-28" x="413.43" y="136.28" width="1.95" height="20.23"/><rect class="cls-29" x="415.36" y="136.28" width="8.91" height="20.23"/><rect class="cls-28" x="415.36" y="136.28" width="8.91" height="1.59"/><rect class="cls-28" x="493.67" y="136.28" width="1.95" height="20.23"/><rect class="cls-29" x="484.78" y="136.28" width="8.91" height="20.23"/><rect class="cls-28" x="484.78" y="136.28" width="8.91" height="1.59"/><polygon class="cls-52" points="228.16 120.04 243.24 100.88 225.23 100.39 225.77 114.91 220.49 119.94 221.52 119.97 224.96 119.03 228.16 120.04"/><path class="cls-53" d="M378.09,105.09l-1.09-.76c-.74-.5-.65-1.28-.17-2s1.06-1.28,1.81-.78l1.33,1Z" transform="translate(-177.19 -60.95)"/><path class="cls-54" d="M388.35,112.23a1.64,1.64,0,0,0,2.05,1.09L401.56,110a1.65,1.65,0,0,0,1.09-2.05l-.4-1.31a1.64,1.64,0,0,0-2.05-1.09L389,108.87a1.64,1.64,0,0,0-1.09,2.05Z" transform="translate(-177.19 -60.95)"/><path class="cls-54" d="M378.19,103.58c-.51.72-.71,1.43,0,1.94L388.8,113a1.6,1.6,0,0,0,2.23-.39l.77-1.09a1.6,1.6,0,0,0-.39-2.23l-11.19-7c-.72-.51-1.06,0-1.56.7Z" transform="translate(-177.19 -60.95)"/><path class="cls-53" d="M399,106.11a1.44,1.44,0,0,0,1.32,1.57l3.13.27a1.45,1.45,0,0,0,1.57-1.32l.43-5a1.46,1.46,0,0,0-1.33-1.57L401,99.83a1.45,1.45,0,0,0-1.57,1.32Z" transform="translate(-177.19 -60.95)"/><path class="cls-53" d="M396.47,99.61a3.2,3.2,0,0,0,2.92,3.45l3.32.28c1.76.15,2.9-1.19,3-2.95l.57-6.72c.15-1.76-.74-3.27-2.5-3.42L400.5,90A3.2,3.2,0,0,0,397,92.9Z" transform="translate(-177.19 -60.95)"/><path class="cls-55" d="M407.68,134a8.54,8.54,0,0,0-1.36,2.36c-.46,1.06-.52,3-2,3.71l-1.06-2.64a6.77,6.77,0,0,1,1.29-4.14Z" transform="translate(-177.19 -60.95)"/><path class="cls-56" d="M398.61,146.81l-2.33,27.05-2.5,2.4s2.24,3.25,5.72-.64c0,0,.58.38-.1-1.44,0,0,3.79-14.15,3.36-17.33a6,6,0,0,1,0-2.66l3.57-4Z" transform="translate(-177.19 -60.95)"/><path class="cls-57" d="M393.77,176.26a10.19,10.19,0,0,0-4.43,1.12,18,18,0,0,0,6.91,1.94l.9-1,.5,1.71.43.29L400,177l-.42-3S396,178.21,393.77,176.26Z" transform="translate(-177.19 -60.95)"/><path class="cls-55" d="M398.78,149.17l2.67,26.72L399.86,179s3.19,2.34,5.2-2.48c0,0,.68.16-.55-1.34,0,0,2.19-11,.74-13.88-.94-1.82-.68-5.07-.68-5.07l.77-6.64Z" transform="translate(-177.19 -60.95)"/><path class="cls-57" d="M399.86,179a10,10,0,0,0-3.81,2.51,18.08,18.08,0,0,0,7.17-.44l.5-1.24,1,1.45.5.12.74-3.79-1.37-2.68S402.59,180.1,399.86,179Z" transform="translate(-177.19 -60.95)"/><path class="cls-12" d="M407.37,131.75a42.63,42.63,0,0,1-.26,13.83l1.52,6.49s-4.46,6.87-17,1.45l1.75-21.63Z" transform="translate(-177.19 -60.95)"/><path class="cls-58" d="M398.53,104.93s8.81-5.29,10.85,3.36c.58,2.49.29,5.19-1.33,8.72a16.7,16.7,0,0,0-1,6.53,54.34,54.34,0,0,0,1.2,9.6,16.17,16.17,0,0,1-15.77,0s2.64-7.2,2.44-12.53c-.09-2.18-2.81-4.15-2.74-6,0-1.18-.7-2.59,3.25-6.54C395.73,107.75,398.17,105.23,398.53,104.93Z" transform="translate(-177.19 -60.95)"/><path class="cls-58" d="M404.26,118.37s3.95-6.16-2.75-6.62l-10,9.4s-8,1.62-11.21,2.35c0,0-.33,2.78,1.07,3.88L393.28,125S397.64,122.53,404.26,118.37Z" transform="translate(-177.19 -60.95)"/><path class="cls-55" d="M381.15,126.85s.32-.43-1.61-.35c-1.15,0-1.57.55-2.42-.92a1.19,1.19,0,0,1,.1-1.4s.31-.78,3.2-.49Z" transform="translate(-177.19 -60.95)"/><path class="cls-54" d="M398.4,105l.2-1.2s5.58-2.21,7.78-1.25l.32,1.95A26.78,26.78,0,0,0,398.4,105Z" transform="translate(-177.19 -60.95)"/><path class="cls-59" d="M405.38,104s-4.33.81-4.67-8.87a4.54,4.54,0,0,0-1.61-2.94l-1.91-.25s-1.86-3.5,4.7-3.71c0,0,7.85-.51,8.44,6.16,0,0,1.47,4.48-3.13,9.19,0,0,3,3.38-.59,7.5,0,0-2.55,3.39-.43,8.41,0,0-4.29-2.85-4.24-6.78,0,0-.72-2.54,1.63-5.57A3,3,0,0,0,405.38,104Z" transform="translate(-177.19 -60.95)"/><path class="cls-60" d="M405,104.26a.57.57,0,0,0,.69.44l1.89-.42a.57.57,0,0,0,.43-.68h0a.57.57,0,0,0-.69-.44l-1.89.42a.57.57,0,0,0-.44.69Z" transform="translate(-177.19 -60.95)"/><path class="cls-61" d="M344.62,97.93a.36.36,0,0,1-.4.3L342,98a.36.36,0,0,1-.3-.4h0a.35.35,0,0,1,.4-.3l2.17.28a.35.35,0,0,1,.31.4Z" transform="translate(-177.19 -60.95)"/><path class="cls-62" d="M322.52,79.28s5.08,8,7.53,10.27c2.61,2.4,12,7.77,12,7.77l-1.59,2.31s-10.33-4.36-13.49-6.82C324.19,90.68,318,82.57,318,82.57S318.68,77.25,322.52,79.28Z" transform="translate(-177.19 -60.95)"/><path class="cls-61" d="M342,97.32l-1.54,2.36s2.56,1.92,4.35,1.46c1.07-.27,1.83-1.2,1.27-1.82S342,97.32,342,97.32Z" transform="translate(-177.19 -60.95)"/><path class="cls-22" d="M361.4,82.58l-13.6-4.66a2.59,2.59,0,0,0-3.28,1.61l-1.4,4.09,20.7,7.09Z" transform="translate(-177.19 -60.95)"/><path class="cls-22" d="M377,123.13a2.58,2.58,0,0,1-3.28,1.6l-37.52-12.86a2.58,2.58,0,0,1-1.6-3.27L343,84a2.58,2.58,0,0,1,3.27-1.6l37.52,12.86a2.59,2.59,0,0,1,1.6,3.28Z" transform="translate(-177.19 -60.95)"/><path class="cls-23" d="M383.54,96.17l-20.75-7.11-1.64-5.53-13.6-4.66a2.59,2.59,0,0,0-3.27,1.6l-1.4,4.09h0a2.77,2.77,0,0,0-.15.34l-8.44,24.63a2.59,2.59,0,0,0,1.6,3.28l37.52,12.86a2.59,2.59,0,0,0,3.28-1.6l8.44-24.64A2.59,2.59,0,0,0,383.54,96.17Z" transform="translate(-177.19 -60.95)"/><path class="cls-24" d="M353.51,102.42l-1.1,3.3h0l0,.07h0c-.56,1.68,2.34,4.17,6.48,5.54s8,1.12,8.51-.56h0l0-.07h0l1.1-3.3-8.26-.19Z" transform="translate(-177.19 -60.95)"/><path class="cls-24" d="M371.3,109l.09-.24a.26.26,0,0,0,0-.25l.32-1,.31-.93,2.56.05-11.39-8.12-14-.32,11.39,8.12,11.07.25-.31.94-.3.88a.26.26,0,0,0-.18.18l-.08.24a.25.25,0,0,0,0,.24l-1.1,2,.57.19.56.18.33-2.27a.25.25,0,0,0,.16-.17" transform="translate(-177.19 -60.95)"/><path class="cls-63" d="M315.1,106.89s-4.7,17-7.29,21.85c-2.38,4.51-15.36,16.3-15.36,16.3l-4-2.38s10.82-12.86,13-18.42c1.28-3.27,2.26-15.63,2.26-15.63Z" transform="translate(-177.19 -60.95)"/><polygon class="cls-61" points="145.07 15.69 140.43 13.74 143.6 6.21 148.25 8.18 145.07 15.69"/><polygon class="cls-64" points="146.2 17.17 139.48 14.34 140.23 12.56 146.42 15.58 146.2 17.17"/><path class="cls-61" d="M328.58,73.19c-1,2.61-3.45,2.82-6.06,1.85l.44.17c-2.6-1-4.35-2.75-3.37-5.35l1.76-4.72a5,5,0,0,1,6.47-3h0a5,5,0,0,1,3,6.48Z" transform="translate(-177.19 -60.95)"/><path class="cls-65" d="M325.1,65.68l6.1,1.82s2.32-.74,1.69-2.78-5.07-3.07-5.07-3.07-5.18-1.61-5.72.07c0,0-3.41,1.05-2.58,8.83Z" transform="translate(-177.19 -60.95)"/><path class="cls-14" d="M316.67,75.29s-4.07,3.15-5.13,5.48c-2.14,4.71-6.9,19.49-6.9,19.49s-1.86,3,1.72,3.44l8.48,2.91s2.38.27,3.71-3.84c.89-2.76,5-11.92,5.3-17.35,0-.8-.45-7.3-.45-7.3Z" transform="translate(-177.19 -60.95)"/><path class="cls-66" d="M315,106.36s3.31,14.81,3.58,18.67-.27,21.13-.27,21.13h-4.5s-.79-16.76-2.39-19.54c-.66-1.15-8.08-14.7-8.08-14.7s-1.72-3.71,1.33-9.15Z" transform="translate(-177.19 -60.95)"/><path class="cls-67" d="M313.78,146.16v2.72h10.46s.27-1.06-1.06-1.33l-4.9-1.39Z" transform="translate(-177.19 -60.95)"/><path class="cls-67" d="M288.47,142.65l-2,2.52,5.17,3.44h6s0-1.19-3.45-1.85L292.45,145Z" transform="translate(-177.19 -60.95)"/><path class="cls-61" d="M339.27,104.8a.35.35,0,0,1-.45.21l-2.06-.73a.36.36,0,0,1-.21-.45h0a.35.35,0,0,1,.45-.21l2.06.73a.36.36,0,0,1,.21.46Z" transform="translate(-177.19 -60.95)"/><path class="cls-14" d="M321.62,81.9s3.27,8.92,5.19,11.63c2,2.89,10.05,10.13,10.05,10.13l-2,1.92s-9.17-6.44-11.74-9.52c-2.23-2.67-6.54-11.9-6.54-11.9S318.3,79.1,321.62,81.9Z" transform="translate(-177.19 -60.95)"/><path class="cls-61" d="M336.8,103.64l-2,2s2.09,2.41,3.94,2.34c1.1,0,2-.78,1.63-1.51S336.8,103.64,336.8,103.64Z" transform="translate(-177.19 -60.95)"/><polygon class="cls-68" points="147.1 87.79 158.87 72.38 119.13 71.91 119.48 87.7 140.46 87.72 143.9 86.78 147.1 87.79"/><polygon class="cls-69" points="157.34 97.09 40.44 97.09 57.45 138.47 143.31 138.47 157.34 97.09"/><path class="cls-22" d="M269.65,122.76H250.19a3.5,3.5,0,0,0-3.49,3.49v5.85h29.61Z" transform="translate(-177.19 -60.95)"/><rect class="cls-22" x="69.51" y="68.16" width="60.66" height="42.22" rx="3.49" ry="3.49"/><path class="cls-23" d="M304,130.45H274.28l-4.53-6.35H250.29a3.5,3.5,0,0,0-3.49,3.5v5.85h.05a3.52,3.52,0,0,0-.05.5v35.24a3.5,3.5,0,0,0,3.49,3.49H304a3.51,3.51,0,0,0,3.5-3.49V133.94A3.5,3.5,0,0,0,304,130.45Z" transform="translate(-177.19 -60.95)"/><path class="cls-24" d="M275.74,161.91a3.76,3.76,0,0,1-3.76-3.76.85.85,0,1,1,1.7,0,2.06,2.06,0,0,0,2.06,2.06.85.85,0,1,1,0,1.7m3.33-9c-1-1.59-1.92-2.9-2-3l-.68-.95-.69-.94-.69.94-.68.95c0,.06-1,1.37-2,3-1.44,2.39-2.12,4.06-2.12,5.25a5.45,5.45,0,0,0,10.9,0c0-1.19-.68-2.86-2.12-5.25" transform="translate(-177.19 -60.95)"/><path class="cls-24" d="M267.68,153.19a3.17,3.17,0,0,1-3.17-3.17.71.71,0,0,1,1.43,0,1.74,1.74,0,0,0,1.74,1.74.71.71,0,0,1,0,1.43m2.81-7.61c-.81-1.34-1.61-2.45-1.65-2.49l-.58-.8-.58-.8-.58.8-.58.8s-.84,1.15-1.65,2.49c-1.22,2-1.79,3.42-1.79,4.43a4.59,4.59,0,0,0,9.19,0c0-1-.57-2.42-1.79-4.43" transform="translate(-177.19 -60.95)"/><path class="cls-24" d="M282.05,148.27a3.17,3.17,0,0,1-3.17-3.17.71.71,0,1,1,1.43,0,1.74,1.74,0,0,0,1.74,1.74.72.72,0,1,1,0,1.43m2.81-7.61c-.81-1.34-1.62-2.45-1.65-2.5l-.59-.8-.58-.8-.58.8-.58.8s-.83,1.15-1.64,2.5c-1.22,2-1.79,3.42-1.79,4.42a4.59,4.59,0,0,0,9.18,0c0-1-.57-2.41-1.78-4.42" transform="translate(-177.19 -60.95)"/><rect class="cls-70" x="69.64" y="75.4" width="60.51" height="10.84"/><path class="cls-22" d="M269.65,133.13H250.19a3.5,3.5,0,0,0-3.49,3.49v5.85h29.61Z" transform="translate(-177.19 -60.95)"/><path class="cls-22" d="M307.36,178.22a3.5,3.5,0,0,1-3.49,3.49H250.19a3.5,3.5,0,0,1-3.49-3.49V143a3.5,3.5,0,0,1,3.49-3.49h53.68a3.5,3.5,0,0,1,3.49,3.49Z" transform="translate(-177.19 -60.95)"/><path class="cls-23" d="M304,140.82H274.28l-4.53-6.35H250.29A3.49,3.49,0,0,0,246.8,138v5.85h.05a3.52,3.52,0,0,0-.05.5v35.24a3.5,3.5,0,0,0,3.49,3.49H304a3.5,3.5,0,0,0,3.5-3.49V144.31A3.5,3.5,0,0,0,304,140.82Z" transform="translate(-177.19 -60.95)"/><circle class="cls-23" cx="99.96" cy="99.6" r="11.81"/><rect class="cls-24" x="271.44" y="158.46" width="2.76" height="8.43" transform="translate(-212.28 179.76) rotate(-45.03)"/><rect class="cls-24" x="271.66" y="158.99" width="14.96" height="2.76" transform="translate(-208.83 183.39) rotate(-45)"/><rect class="cls-71" x="69.71" y="80.01" width="60.51" height="10.56"/><path class="cls-22" d="M269.65,142.88H250.19a3.5,3.5,0,0,0-3.49,3.49v5.85h29.61Z" transform="translate(-177.19 -60.95)"/><path class="cls-22" d="M307.36,188a3.5,3.5,0,0,1-3.49,3.48H250.19A3.5,3.5,0,0,1,246.7,188V152.72a3.5,3.5,0,0,1,3.49-3.49h53.68a3.51,3.51,0,0,1,3.49,3.49Z" transform="translate(-177.19 -60.95)"/><path class="cls-23" d="M304,150.56H274.28l-4.53-6.35H250.29a3.5,3.5,0,0,0-3.49,3.49v5.85h.05a3.63,3.63,0,0,0-.05.5v35.24a3.5,3.5,0,0,0,3.49,3.49H304a3.5,3.5,0,0,0,3.5-3.49V154.05A3.51,3.51,0,0,0,304,150.56Z" transform="translate(-177.19 -60.95)"/><path class="cls-24" d="M275.74,182a3.76,3.76,0,0,1-3.76-3.75.85.85,0,1,1,1.7,0,2.07,2.07,0,0,0,2.06,2.06.85.85,0,1,1,0,1.7m3.33-9c-1-1.59-1.92-2.9-2-3l-.68-.95-.69-.95-.69.95-.68.95c0,.06-1,1.37-2,3-1.44,2.39-2.12,4.06-2.12,5.25a5.45,5.45,0,0,0,10.9,0c0-1.19-.68-2.86-2.12-5.25" transform="translate(-177.19 -60.95)"/><path class="cls-24" d="M267.68,173.3a3.17,3.17,0,0,1-3.17-3.17.71.71,0,0,1,1.43,0,1.74,1.74,0,0,0,1.74,1.74.72.72,0,0,1,0,1.43m2.81-7.62c-.81-1.34-1.61-2.45-1.65-2.49l-.58-.8-.58-.8-.58.8-.58.8s-.84,1.15-1.65,2.49c-1.22,2-1.79,3.42-1.79,4.43a4.59,4.59,0,0,0,9.19,0c0-1-.57-2.41-1.79-4.43" transform="translate(-177.19 -60.95)"/><path class="cls-24" d="M282.05,168.38a3.17,3.17,0,0,1-3.17-3.17.71.71,0,0,1,1.43,0,1.74,1.74,0,0,0,1.74,1.74.72.72,0,1,1,0,1.43m2.81-7.61c-.81-1.34-1.62-2.45-1.65-2.49l-.59-.8-.58-.8-.58.8-.58.8s-.83,1.15-1.64,2.49c-1.22,2-1.79,3.42-1.79,4.42a4.59,4.59,0,0,0,9.18,0c0-1-.57-2.41-1.78-4.42" transform="translate(-177.19 -60.95)"/><rect class="cls-72" x="69.64" y="95.51" width="60.51" height="10.84"/><rect class="cls-28" x="58.86" y="102.98" width="82.13" height="33.13"/><rect class="cls-28" x="58.86" y="82.75" width="1.95" height="20.24"/><rect class="cls-29" x="60.79" y="82.75" width="8.91" height="20.24"/><rect class="cls-28" x="60.79" y="82.75" width="8.91" height="1.59"/><rect class="cls-28" x="139.1" y="82.75" width="1.95" height="20.24"/><rect class="cls-29" x="130.21" y="82.75" width="8.91" height="20.24"/><rect class="cls-28" x="130.21" y="82.75" width="8.91" height="1.59"/><path class="cls-73" d="M385,297.13a15.9,15.9,0,0,1-7.58-2l1.66-3.49a12.62,12.62,0,0,0,6.11,1.79c2.56,0,3.9-1.06,3.9-3,0-1.44-.93-2.34-2.91-2.88l-2.46-.67c-2.21-.61-3.58-1.47-4.38-2.82a6.42,6.42,0,0,1-.93-3.39c0-4.06,3.26-6.88,8-6.88a13,13,0,0,1,7.42,2.24l-2.11,3.2a9.59,9.59,0,0,0-5.18-1.7c-1.82,0-3.1,1.06-3.1,2.56,0,1.15.61,1.73,2.46,2.24l2.69.74c3.65,1,5.63,3.33,5.63,6.62C394.21,294.16,390.56,297.13,385,297.13Z" transform="translate(-177.19 -60.95)"/><path class="cls-73" d="M402.44,297c-2.18,0-3.9-1-4.42-2.4a6,6,0,0,1-.29-2.53v-8.9H396.1v-2.94h1.63a28.42,28.42,0,0,1,.16-3.87l4.35-1.09a48.88,48.88,0,0,0-.26,5h3.84l-1.09,2.94H402v8.22c0,2.08.38,2.62,1.86,2.62a5.62,5.62,0,0,0,1.54-.32l.54,2.56A9,9,0,0,1,402.44,297Z" transform="translate(-177.19 -60.95)"/><path class="cls-73" d="M417.12,284a2.42,2.42,0,0,0-1.25-.32,3.42,3.42,0,0,0-2.62,1.38v11.58H409V285.71a14.84,14.84,0,0,0-.61-4.8l3.84-1a5.26,5.26,0,0,1,.67,2.34,5,5,0,0,1,3.84-2.34,3.31,3.31,0,0,1,1.6.35Z" transform="translate(-177.19 -60.95)"/><path class="cls-73" d="M431.49,297.49a4.58,4.58,0,0,1-2.3-2,7.92,7.92,0,0,1-1,.86,5.66,5.66,0,0,1-3.3.9c-3.65,0-5.63-1.86-5.63-5.12,0-3.84,2.66-5.63,7.87-5.63.32,0,.61,0,1,0v-.67c0-1.82-.35-2.43-1.92-2.43a9,9,0,0,0-4.74,1.86l-1.82-3.07a15.76,15.76,0,0,1,2.66-1.34,11.09,11.09,0,0,1,4.48-1c2.75,0,4.64,1,5.28,2.85a7.58,7.58,0,0,1,.29,2.94l-.1,5.5c0,1.79.1,2.56,1.54,3.65Zm-3.65-8c-3,0-4,.54-4,2.5a1.94,1.94,0,0,0,1.89,2.14A3.11,3.11,0,0,0,428,293l.06-3.52Z" transform="translate(-177.19 -60.95)"/><path class="cls-73" d="M441.79,297c-2.18,0-3.9-1-4.42-2.4a6,6,0,0,1-.29-2.53v-8.9h-1.63v-2.94h1.63a28.42,28.42,0,0,1,.16-3.87l4.35-1.09a48.88,48.88,0,0,0-.26,5h3.84l-1.09,2.94h-2.75v8.22c0,2.08.38,2.62,1.86,2.62a5.62,5.62,0,0,0,1.54-.32l.54,2.56A9,9,0,0,1,441.79,297Z" transform="translate(-177.19 -60.95)"/><path class="cls-73" d="M452,289.81v.13c0,2.53,1.25,4,3.46,4a6.4,6.4,0,0,0,4.16-1.63l1.66,2.56a9.4,9.4,0,0,1-6.18,2.27c-4.7,0-7.74-3.33-7.74-8.48,0-2.94.61-4.9,2-6.5a6.44,6.44,0,0,1,5.15-2.21,6.7,6.7,0,0,1,4.74,1.73c1.5,1.54,2.18,3.74,2.18,7.17v1Zm5-3.33a4.22,4.22,0,0,0-.51-2.46,2.08,2.08,0,0,0-1.89-1c-1.63,0-2.56,1.28-2.56,3.55v.06h5Z" transform="translate(-177.19 -60.95)"/><path class="cls-73" d="M478,283.28a9.1,9.1,0,0,1-1.12-.1,4,4,0,0,1,1,2.69c0,2.82-2.56,4.86-6,4.86a5.19,5.19,0,0,1-.64,0c-1.09.51-1.7.9-1.7,1.34,0,.22.26.38.7.38l2.3,0c2.5,0,3.81.42,5,1.47a4.47,4.47,0,0,1,1.41,3.49,4.66,4.66,0,0,1-1.31,3.39c-1.44,1.54-3.9,2.11-6.46,2.11-2.34,0-4.74-.38-6.21-1.76a3.84,3.84,0,0,1-1.34-2.91,3.28,3.28,0,0,1,.38-1.66h4a2.3,2.3,0,0,0-.19,1.06c0,1.31,1.09,2,3.07,2a5.16,5.16,0,0,0,2.69-.54,2,2,0,0,0,1.06-1.66c0-1.47-1.31-1.92-3-2l-1.82,0a11.66,11.66,0,0,1-3.94-.51,2.08,2.08,0,0,1-1.25-2.14c0-1.06.32-2,3-2.75a4.24,4.24,0,0,1-3.52-4.54c0-3.36,2.72-5.54,6.91-5.54a11.8,11.8,0,0,1,2.94.42,8.57,8.57,0,0,0,2,.35,5.15,5.15,0,0,0,3.39-1.41l1.79,2.72A4.08,4.08,0,0,1,478,283.28Zm-7.17-.16a2.28,2.28,0,0,0-2.56,2.43c0,1.66,1,2.34,2.53,2.34,1.7,0,2.62-.83,2.62-2.34A2.3,2.3,0,0,0,470.88,283.12Z" transform="translate(-177.19 -60.95)"/><path class="cls-73" d="M485,278.42a2.64,2.64,0,0,1-2.62-2.66,2.68,2.68,0,0,1,2.69-2.66,2.62,2.62,0,0,1,2.59,2.66A2.65,2.65,0,0,1,485,278.42Zm-2.14,18.24V280.56l4.29-.67v16.77Z" transform="translate(-177.19 -60.95)"/><path class="cls-73" d="M502.11,296a7.66,7.66,0,0,1-4,1c-4.51,0-7.14-3.14-7.14-8.45,0-3.78,1.44-6.27,3.36-7.58a7.76,7.76,0,0,1,4.06-1.22,7,7,0,0,1,3.17.74,7.27,7.27,0,0,1,1.6,1.15l-2.08,2.82a4.13,4.13,0,0,0-2.59-1.28c-1.92,0-2.78,1.66-2.78,5.5,0,2.14.29,3.42.83,4.13a2.48,2.48,0,0,0,1.92.93,4.38,4.38,0,0,0,2.94-1.34l.26-.22,2,2.59A6.76,6.76,0,0,1,502.11,296Z" transform="translate(-177.19 -60.95)"/><path class="cls-73" d="M370.26,332.92a4.58,4.58,0,0,1-2.3-2,8,8,0,0,1-1,.86,5.66,5.66,0,0,1-3.3.9c-3.65,0-5.63-1.86-5.63-5.12,0-3.84,2.66-5.63,7.87-5.63.32,0,.61,0,1,0v-.67c0-1.82-.35-2.43-1.92-2.43a9,9,0,0,0-4.74,1.86l-1.82-3.07a15.76,15.76,0,0,1,2.66-1.34,11.09,11.09,0,0,1,4.48-1c2.75,0,4.64,1,5.28,2.85a7.58,7.58,0,0,1,.29,2.94l-.1,5.5c0,1.79.1,2.56,1.54,3.65Zm-3.65-8c-3,0-4,.54-4,2.5a1.94,1.94,0,0,0,1.89,2.14,3.11,3.11,0,0,0,2.24-1.12l.06-3.52Z" transform="translate(-177.19 -60.95)"/><path class="cls-73" d="M381,332.6a14.56,14.56,0,0,1-6.62-1.89l1.54-3.14a12,12,0,0,0,5.44,1.86,2,2,0,0,0,2.18-1.86c0-1.12-.8-1.7-2.53-2l-1.92-.35a5.78,5.78,0,0,1-3-1.66,5,5,0,0,1-.93-2.94c0-3.2,2.53-5.34,6.34-5.34a12.31,12.31,0,0,1,5.86,1.54L386,319.68a8.66,8.66,0,0,0-4-1.18c-1.25,0-2.08.64-2.08,1.6s.54,1.28,2,1.66l2,.51a5.1,5.1,0,0,1,3.26,1.86,4.33,4.33,0,0,1,.9,2.78C388.05,330.3,385.23,332.6,381,332.6Z" transform="translate(-177.19 -60.95)"/><path class="cls-73" d="M396.75,332.6a14.56,14.56,0,0,1-6.62-1.89l1.54-3.14a12,12,0,0,0,5.44,1.86,2,2,0,0,0,2.18-1.86c0-1.12-.8-1.7-2.53-2l-1.92-.35a5.78,5.78,0,0,1-3-1.66,5,5,0,0,1-.93-2.94c0-3.2,2.53-5.34,6.34-5.34a12.31,12.31,0,0,1,5.86,1.54l-1.41,2.88a8.66,8.66,0,0,0-4-1.18c-1.25,0-2.08.64-2.08,1.6s.54,1.28,2,1.66l2,.51a5.1,5.1,0,0,1,3.26,1.86,4.33,4.33,0,0,1,.9,2.78C403.76,330.3,400.95,332.6,396.75,332.6Z" transform="translate(-177.19 -60.95)"/><path class="cls-73" d="M411,325.24v.13c0,2.53,1.25,4,3.46,4a6.4,6.4,0,0,0,4.16-1.63l1.66,2.56a9.4,9.4,0,0,1-6.18,2.27c-4.7,0-7.74-3.33-7.74-8.48,0-2.94.61-4.9,2-6.5a6.44,6.44,0,0,1,5.15-2.21,6.7,6.7,0,0,1,4.74,1.73c1.5,1.54,2.18,3.74,2.18,7.17v1Zm5-3.33a4.22,4.22,0,0,0-.51-2.46,2.08,2.08,0,0,0-1.89-1c-1.63,0-2.56,1.28-2.56,3.55v.06h5Z" transform="translate(-177.19 -60.95)"/><path class="cls-73" d="M429,332.6a14.56,14.56,0,0,1-6.62-1.89l1.54-3.14a12,12,0,0,0,5.44,1.86,2,2,0,0,0,2.18-1.86c0-1.12-.8-1.7-2.53-2l-1.92-.35a5.78,5.78,0,0,1-3-1.66,5,5,0,0,1-.93-2.94c0-3.2,2.53-5.34,6.34-5.34a12.31,12.31,0,0,1,5.86,1.54l-1.41,2.88a8.66,8.66,0,0,0-4-1.18c-1.25,0-2.08.64-2.08,1.6s.54,1.28,2,1.66l2,.51a5.1,5.1,0,0,1,3.26,1.86,4.33,4.33,0,0,1,.9,2.78C436,330.3,433.17,332.6,429,332.6Z" transform="translate(-177.19 -60.95)"/><path class="cls-73" d="M444.69,332.6a14.56,14.56,0,0,1-6.62-1.89l1.54-3.14a12,12,0,0,0,5.44,1.86,2,2,0,0,0,2.18-1.86c0-1.12-.8-1.7-2.53-2l-1.92-.35a5.78,5.78,0,0,1-3-1.66,5,5,0,0,1-.93-2.94c0-3.2,2.53-5.34,6.34-5.34A12.31,12.31,0,0,1,451,316.8l-1.41,2.88a8.66,8.66,0,0,0-4-1.18c-1.25,0-2.08.64-2.08,1.6s.54,1.28,2,1.66l2,.51a5.1,5.1,0,0,1,3.26,1.86,4.33,4.33,0,0,1,.9,2.78C451.7,330.3,448.88,332.6,444.69,332.6Z" transform="translate(-177.19 -60.95)"/><path class="cls-73" d="M472,332.09V321.27c0-2-.22-2.34-1.34-2.34a4.88,4.88,0,0,0-2.85,1.38v11.77H463.7V321.44c0-2-.29-2.53-1.47-2.53a4.54,4.54,0,0,0-2.82,1.25v11.94h-4.19V320.67c0-2.37-.16-3.39-.61-4.19l3.87-1.06a4.16,4.16,0,0,1,.58,1.66,5.64,5.64,0,0,1,4-1.66,4.44,4.44,0,0,1,3.33,1.34,5.36,5.36,0,0,1,.64.8,6,6,0,0,1,4.64-2.14,5.07,5.07,0,0,1,3.23,1c.93.8,1.22,1.76,1.22,4v11.65Z" transform="translate(-177.19 -60.95)"/><path class="cls-73" d="M484.59,325.24v.13c0,2.53,1.25,4,3.46,4a6.4,6.4,0,0,0,4.16-1.63l1.66,2.56a9.4,9.4,0,0,1-6.18,2.27c-4.7,0-7.74-3.33-7.74-8.48,0-2.94.61-4.9,2-6.5a6.44,6.44,0,0,1,5.15-2.21,6.7,6.7,0,0,1,4.74,1.73c1.5,1.54,2.18,3.74,2.18,7.17v1Zm5-3.33a4.22,4.22,0,0,0-.51-2.46,2.08,2.08,0,0,0-1.89-1c-1.63,0-2.56,1.28-2.56,3.55v.06h5Z" transform="translate(-177.19 -60.95)"/><path class="cls-73" d="M506.13,332.09V321.44c0-1.86-.32-2.4-1.44-2.4a5,5,0,0,0-3,1.47v11.58h-4.29V320.22a11.81,11.81,0,0,0-.58-3.84l3.81-1.09a4.2,4.2,0,0,1,.61,2,19,19,0,0,1,1.89-1.22,6.75,6.75,0,0,1,2.94-.7,4.07,4.07,0,0,1,3.94,2.37,6.61,6.61,0,0,1,.32,2.34v12Z" transform="translate(-177.19 -60.95)"/><path class="cls-73" d="M519.86,332.47c-2.18,0-3.9-1-4.42-2.4a6,6,0,0,1-.29-2.53v-8.9h-1.63v-2.94h1.63a28.42,28.42,0,0,1,.16-3.87l4.35-1.09a48.88,48.88,0,0,0-.26,5h3.84l-1.09,2.94h-2.75v8.22c0,2.08.38,2.62,1.86,2.62a5.62,5.62,0,0,0,1.54-.32l.54,2.56A9,9,0,0,1,519.86,332.47Z" transform="translate(-177.19 -60.95)"/><path class="cls-73" d="M568.73,326.7a9.23,9.23,0,0,1-4.45.74h-2.46v8.19h-4.48V313.39h5.86c3.78,0,4.93.38,6.18,1.09a6.25,6.25,0,0,1,3.2,5.76A6.83,6.83,0,0,1,568.73,326.7Zm-4.06-9.7h-2.85v6.78h2.34c1.82,0,2.37-.22,3-1.15a4,4,0,0,0,.54-2.3C567.68,318.25,566.56,317,564.67,317Z" transform="translate(-177.19 -60.95)"/><path class="cls-73" d="M583.93,323a2.42,2.42,0,0,0-1.25-.32,3.42,3.42,0,0,0-2.62,1.38v11.58h-4.29V324.68a14.84,14.84,0,0,0-.61-4.8l3.84-1a5.27,5.27,0,0,1,.67,2.34,5,5,0,0,1,3.84-2.34,3.31,3.31,0,0,1,1.6.35Z" transform="translate(-177.19 -60.95)"/><path class="cls-73" d="M590.88,328.78v.13c0,2.53,1.25,4,3.46,4a6.4,6.4,0,0,0,4.16-1.63l1.66,2.56a9.4,9.4,0,0,1-6.18,2.27c-4.7,0-7.74-3.33-7.74-8.48,0-2.94.61-4.9,2-6.5a6.44,6.44,0,0,1,5.15-2.21,6.7,6.7,0,0,1,4.74,1.73c1.5,1.54,2.18,3.74,2.18,7.17v1Zm5-3.33a4.22,4.22,0,0,0-.51-2.46,2.08,2.08,0,0,0-1.89-1c-1.63,0-2.56,1.28-2.56,3.55v.06h5Z" transform="translate(-177.19 -60.95)"/><path class="cls-73" d="M607.9,336a3.85,3.85,0,0,1-3.81-2.24c-.32-.83-.38-1.34-.38-3.68V317.87a42.18,42.18,0,0,0-.22-4.93l4.38-1a24.36,24.36,0,0,1,.22,4.26V329c0,2.82,0,3.2.29,3.65a1,1,0,0,0,.86.45,1.42,1.42,0,0,0,.48-.06l.74,2.56A7.15,7.15,0,0,1,607.9,336Z" transform="translate(-177.19 -60.95)"/><path class="cls-73" d="M615.16,317.39a2.64,2.64,0,0,1-2.62-2.66,2.68,2.68,0,0,1,2.69-2.66,2.62,2.62,0,0,1,2.59,2.66A2.65,2.65,0,0,1,615.16,317.39ZM613,335.63V319.53l4.29-.67v16.77Z" transform="translate(-177.19 -60.95)"/><path class="cls-73" d="M638.84,335.63V324.81c0-2-.22-2.34-1.34-2.34a4.88,4.88,0,0,0-2.85,1.38v11.77h-4.06V325c0-2-.29-2.53-1.47-2.53a4.54,4.54,0,0,0-2.82,1.25v11.94h-4.19V324.2c0-2.37-.16-3.39-.61-4.19l3.87-1.06a4.16,4.16,0,0,1,.58,1.66,5.64,5.64,0,0,1,4-1.66,4.44,4.44,0,0,1,3.33,1.34,5.36,5.36,0,0,1,.64.8,6,6,0,0,1,4.64-2.14,5.07,5.07,0,0,1,3.23,1c.93.8,1.22,1.76,1.22,4v11.65Z" transform="translate(-177.19 -60.95)"/><path class="cls-73" d="M649.95,317.39a2.64,2.64,0,0,1-2.62-2.66,2.68,2.68,0,0,1,2.69-2.66,2.62,2.62,0,0,1,2.59,2.66A2.65,2.65,0,0,1,649.95,317.39Zm-2.14,18.24V319.53l4.29-.67v16.77Z" transform="translate(-177.19 -60.95)"/><path class="cls-73" d="M665.6,335.63V325c0-1.86-.32-2.4-1.44-2.4a5,5,0,0,0-3,1.47v11.58h-4.29V323.75a11.81,11.81,0,0,0-.58-3.84l3.81-1.09a4.19,4.19,0,0,1,.61,2,19,19,0,0,1,1.89-1.22,6.75,6.75,0,0,1,2.94-.7,4.07,4.07,0,0,1,3.94,2.37,6.61,6.61,0,0,1,.32,2.34v12Z" transform="translate(-177.19 -60.95)"/><path class="cls-73" d="M685.72,336.46a4.58,4.58,0,0,1-2.3-2,8,8,0,0,1-1,.86,5.66,5.66,0,0,1-3.3.9c-3.65,0-5.63-1.86-5.63-5.12,0-3.84,2.66-5.63,7.87-5.63.32,0,.61,0,1,0v-.67c0-1.82-.35-2.43-1.92-2.43a9,9,0,0,0-4.74,1.86l-1.82-3.07a15.76,15.76,0,0,1,2.66-1.34,11.09,11.09,0,0,1,4.48-1c2.75,0,4.64,1,5.28,2.85a7.58,7.58,0,0,1,.29,2.94l-.1,5.5c0,1.79.1,2.56,1.54,3.65Zm-3.65-8c-3,0-4,.54-4,2.5A1.94,1.94,0,0,0,680,333.1,3.11,3.11,0,0,0,682.2,332l.06-3.52Z" transform="translate(-177.19 -60.95)"/><path class="cls-73" d="M699.48,323a2.42,2.42,0,0,0-1.25-.32,3.42,3.42,0,0,0-2.62,1.38v11.58h-4.29V324.68a14.84,14.84,0,0,0-.61-4.8l3.84-1a5.27,5.27,0,0,1,.67,2.34,5,5,0,0,1,3.84-2.34,3.31,3.31,0,0,1,1.6.35Z" transform="translate(-177.19 -60.95)"/><path class="cls-73" d="M710.62,335.88c-1.12,3.17-2,4.54-3.14,5.41a8.64,8.64,0,0,1-4,1.5L702,340a9.58,9.58,0,0,0,2.66-1.09,4.93,4.93,0,0,0,1.22-1.34,9.8,9.8,0,0,0,.93-1.92h-1.09l-5.41-16.13,4.38-.51,2.85,9.57.86,3.39c0-.1.32-1.82.51-2.62.13-.54.38-1.5.64-2.27l2.46-7.81h4.51Z" transform="translate(-177.19 -60.95)"/><path class="cls-73" d="M568.19,364.21v.13c0,2.53,1.25,4,3.46,4a6.4,6.4,0,0,0,4.16-1.63l1.66,2.56a9.4,9.4,0,0,1-6.18,2.27c-4.7,0-7.74-3.33-7.74-8.48,0-2.94.61-4.9,2-6.5a6.44,6.44,0,0,1,5.15-2.21,6.7,6.7,0,0,1,4.74,1.73c1.5,1.54,2.18,3.74,2.18,7.17v1Zm5-3.33a4.22,4.22,0,0,0-.51-2.46,2.08,2.08,0,0,0-1.89-1c-1.63,0-2.56,1.28-2.56,3.55v.06h5Z" transform="translate(-177.19 -60.95)"/><path class="cls-73" d="M588,371.06h-3.55l-6-16.13,4.38-.54,2.37,7.39c.35,1.09.83,2.88,1.06,3.94a27.59,27.59,0,0,1,1-4.16l2.21-6.88h4.48Z" transform="translate(-177.19 -60.95)"/><path class="cls-73" d="M607.29,371.89a4.58,4.58,0,0,1-2.3-2,7.92,7.92,0,0,1-1,.86,5.66,5.66,0,0,1-3.3.9c-3.65,0-5.63-1.86-5.63-5.12,0-3.84,2.66-5.63,7.87-5.63.32,0,.61,0,1,0v-.67c0-1.82-.35-2.43-1.92-2.43a9,9,0,0,0-4.74,1.86l-1.82-3.07a15.76,15.76,0,0,1,2.66-1.34,11.09,11.09,0,0,1,4.48-1c2.75,0,4.64,1,5.28,2.85a7.58,7.58,0,0,1,.29,2.94l-.1,5.5c0,1.79.1,2.56,1.54,3.65Zm-3.65-8c-3,0-4,.54-4,2.5a1.94,1.94,0,0,0,1.89,2.14,3.11,3.11,0,0,0,2.24-1.12l.06-3.52Z" transform="translate(-177.19 -60.95)"/><path class="cls-73" d="M617.08,371.45a3.85,3.85,0,0,1-3.81-2.24c-.32-.83-.38-1.34-.38-3.68V353.3a42.18,42.18,0,0,0-.22-4.93l4.38-1a24.36,24.36,0,0,1,.22,4.26v12.77c0,2.82,0,3.2.29,3.65a1,1,0,0,0,.86.45,1.41,1.41,0,0,0,.48-.06l.74,2.56A7.15,7.15,0,0,1,617.08,371.45Z" transform="translate(-177.19 -60.95)"/><path class="cls-73" d="M632.83,371.51a3.75,3.75,0,0,1-1.28-1.6,6.12,6.12,0,0,1-4.32,1.57c-2.3,0-4.29-1.09-4.83-2.66a9.8,9.8,0,0,1-.35-3.26v-10.5l4.22-.8v10.53a6.46,6.46,0,0,0,.35,2.69,1.72,1.72,0,0,0,1.5.77,3.17,3.17,0,0,0,2.66-1.57V355.16l4.1-.86v12.51a4.76,4.76,0,0,0,1,3Z" transform="translate(-177.19 -60.95)"/><path class="cls-73" d="M650.78,371.89a4.58,4.58,0,0,1-2.3-2,7.92,7.92,0,0,1-1,.86,5.66,5.66,0,0,1-3.3.9c-3.65,0-5.63-1.86-5.63-5.12,0-3.84,2.66-5.63,7.87-5.63.32,0,.61,0,1,0v-.67c0-1.82-.35-2.43-1.92-2.43a9,9,0,0,0-4.74,1.86l-1.82-3.07a15.76,15.76,0,0,1,2.66-1.34,11.09,11.09,0,0,1,4.48-1c2.75,0,4.64,1,5.28,2.85a7.58,7.58,0,0,1,.29,2.94l-.1,5.5c0,1.79.1,2.56,1.54,3.65Zm-3.65-8c-3,0-4,.54-4,2.5a1.94,1.94,0,0,0,1.89,2.14,3.11,3.11,0,0,0,2.24-1.12l.06-3.52Z" transform="translate(-177.19 -60.95)"/><path class="cls-73" d="M661.08,371.45c-2.18,0-3.9-1-4.42-2.4a6,6,0,0,1-.29-2.53v-8.9h-1.63v-2.94h1.63a28.42,28.42,0,0,1,.16-3.87l4.35-1.09a48.88,48.88,0,0,0-.26,5h3.84l-1.09,2.94h-2.75v8.22c0,2.08.38,2.62,1.86,2.62a5.62,5.62,0,0,0,1.54-.32l.54,2.56A9,9,0,0,1,661.08,371.45Z" transform="translate(-177.19 -60.95)"/><path class="cls-73" d="M669.76,352.82a2.64,2.64,0,0,1-2.62-2.66,2.68,2.68,0,0,1,2.69-2.66,2.62,2.62,0,0,1,2.59,2.66A2.65,2.65,0,0,1,669.76,352.82Zm-2.14,18.24V355l4.29-.67v16.77Z" transform="translate(-177.19 -60.95)"/><path class="cls-73" d="M688.35,369.14a6.69,6.69,0,0,1-5.41,2.27c-4.45,0-7.36-3.33-7.36-8.48s2.94-8.58,7.36-8.58a6.87,6.87,0,0,1,5.57,2.46,8.51,8.51,0,0,1,1.89,6A8.89,8.89,0,0,1,688.35,369.14Zm-3.49-10.75a2.35,2.35,0,0,0-4.06.8,15.51,15.51,0,0,0,.1,7.78,2.37,2.37,0,0,0,2.18,1.34c1.86,0,2.66-1.66,2.66-5.54C685.72,360.57,685.44,359.13,684.86,358.39Z" transform="translate(-177.19 -60.95)"/><path class="cls-73" d="M702.78,371.06V360.41c0-1.86-.32-2.4-1.44-2.4a5,5,0,0,0-3,1.47v11.58h-4.29V359.19a11.81,11.81,0,0,0-.58-3.84l3.81-1.09a4.19,4.19,0,0,1,.61,2,19,19,0,0,1,1.89-1.22,6.75,6.75,0,0,1,2.94-.7,4.07,4.07,0,0,1,3.94,2.37,6.61,6.61,0,0,1,.32,2.34v12Z" transform="translate(-177.19 -60.95)"/><path class="cls-73" d="M758.71,360.1c-.7,0-1.63.06-2.85.06h-7V337.93h7.52c2.72,0,4.13.42,5.47,1.6a5,5,0,0,1,1.82,4,4.92,4.92,0,0,1-1.5,3.71,4.26,4.26,0,0,1-2,1.15c2.75.8,4.42,2.69,4.42,5.6A5.85,5.85,0,0,1,758.71,360.1Zm-1-18.08a4.48,4.48,0,0,0-1.86-.29h-2.56v5.09h2.62a4.14,4.14,0,0,0,1.92-.29,2.83,2.83,0,0,0,1.15-2.27A2.41,2.41,0,0,0,757.72,342Zm.13,8.67a5.24,5.24,0,0,0-1.73-.19h-2.78v6h2.91a3.23,3.23,0,0,0,2.08-.51,3.36,3.36,0,0,0,1.15-2.59A2.71,2.71,0,0,0,757.85,350.69Z" transform="translate(-177.19 -60.95)"/><path class="cls-73" d="M779,360.61a3.75,3.75,0,0,1-1.28-1.6,6.12,6.12,0,0,1-4.32,1.57c-2.3,0-4.29-1.09-4.83-2.66a9.8,9.8,0,0,1-.35-3.26v-10.5l4.22-.8v10.53a6.46,6.46,0,0,0,.35,2.69,1.72,1.72,0,0,0,1.5.77,3.17,3.17,0,0,0,2.66-1.57V344.26l4.1-.86v12.51a4.76,4.76,0,0,0,1,3Z" transform="translate(-177.19 -60.95)"/><path class="cls-73" d="M791,360.68a14.56,14.56,0,0,1-6.62-1.89l1.54-3.14a12,12,0,0,0,5.44,1.86,2,2,0,0,0,2.18-1.86c0-1.12-.8-1.7-2.53-2l-1.92-.35a5.78,5.78,0,0,1-3-1.66,5,5,0,0,1-.93-2.94c0-3.2,2.53-5.34,6.34-5.34a12.31,12.31,0,0,1,5.86,1.54L796,347.75a8.66,8.66,0,0,0-4-1.18c-1.25,0-2.08.64-2.08,1.6s.54,1.28,2,1.66l2,.51a5.1,5.1,0,0,1,3.26,1.86A4.33,4.33,0,0,1,798,355C798,358.37,795.22,360.68,791,360.68Z" transform="translate(-177.19 -60.95)"/><path class="cls-73" d="M803.7,341.92a2.64,2.64,0,0,1-2.62-2.66,2.68,2.68,0,0,1,2.69-2.66,2.62,2.62,0,0,1,2.59,2.66A2.65,2.65,0,0,1,803.7,341.92Zm-2.14,18.24V344.07l4.29-.67v16.77Z" transform="translate(-177.19 -60.95)"/><path class="cls-73" d="M819.35,360.16V349.51c0-1.86-.32-2.4-1.44-2.4a5,5,0,0,0-3,1.47v11.58h-4.29V348.29a11.81,11.81,0,0,0-.58-3.84l3.81-1.09a4.19,4.19,0,0,1,.61,2,19,19,0,0,1,1.89-1.22,6.75,6.75,0,0,1,2.94-.7,4.07,4.07,0,0,1,3.94,2.37,6.61,6.61,0,0,1,.32,2.34v12Z" transform="translate(-177.19 -60.95)"/><path class="cls-73" d="M832.06,353.32v.13c0,2.53,1.25,4,3.46,4a6.4,6.4,0,0,0,4.16-1.63l1.66,2.56a9.4,9.4,0,0,1-6.18,2.27c-4.7,0-7.74-3.33-7.74-8.48,0-2.94.61-4.9,2-6.5a6.44,6.44,0,0,1,5.15-2.21,6.7,6.7,0,0,1,4.74,1.73c1.5,1.54,2.18,3.74,2.18,7.17v1Zm5-3.33a4.22,4.22,0,0,0-.51-2.46,2.08,2.08,0,0,0-1.89-1c-1.63,0-2.56,1.28-2.56,3.55v.06h5Z" transform="translate(-177.19 -60.95)"/><path class="cls-73" d="M850.07,360.68a14.56,14.56,0,0,1-6.62-1.89l1.54-3.14a12,12,0,0,0,5.44,1.86,2,2,0,0,0,2.18-1.86c0-1.12-.8-1.7-2.53-2l-1.92-.35a5.78,5.78,0,0,1-3-1.66,5,5,0,0,1-.93-2.94c0-3.2,2.53-5.34,6.34-5.34a12.31,12.31,0,0,1,5.86,1.54L855,347.75a8.66,8.66,0,0,0-4-1.18c-1.25,0-2.08.64-2.08,1.6s.54,1.28,2,1.66l2,.51a5.1,5.1,0,0,1,3.26,1.86,4.33,4.33,0,0,1,.9,2.78C857.08,358.37,854.26,360.68,850.07,360.68Z" transform="translate(-177.19 -60.95)"/><path class="cls-73" d="M865.78,360.68a14.56,14.56,0,0,1-6.62-1.89l1.54-3.14a12,12,0,0,0,5.44,1.86,2,2,0,0,0,2.18-1.86c0-1.12-.8-1.7-2.53-2l-1.92-.35a5.78,5.78,0,0,1-3-1.66,5,5,0,0,1-.93-2.94c0-3.2,2.53-5.34,6.34-5.34a12.31,12.31,0,0,1,5.86,1.54l-1.41,2.88a8.66,8.66,0,0,0-4-1.18c-1.25,0-2.08.64-2.08,1.6s.54,1.28,2,1.66l2,.51a5.1,5.1,0,0,1,3.26,1.86,4.33,4.33,0,0,1,.9,2.78C872.79,358.37,870,360.68,865.78,360.68Z" transform="translate(-177.19 -60.95)"/><path class="cls-73" d="M790.86,395a7.66,7.66,0,0,1-4,1c-4.51,0-7.14-3.14-7.14-8.45,0-3.78,1.44-6.27,3.36-7.58a7.76,7.76,0,0,1,4.06-1.22,7,7,0,0,1,3.17.74,7.27,7.27,0,0,1,1.6,1.15l-2.08,2.82a4.13,4.13,0,0,0-2.59-1.28c-1.92,0-2.78,1.66-2.78,5.5,0,2.14.29,3.42.83,4.13a2.48,2.48,0,0,0,1.92.93,4.38,4.38,0,0,0,2.94-1.34l.26-.22,2,2.59A6.76,6.76,0,0,1,790.86,395Z" transform="translate(-177.19 -60.95)"/><path class="cls-73" d="M806.66,396.43a4.58,4.58,0,0,1-2.3-2,7.92,7.92,0,0,1-1,.86,5.66,5.66,0,0,1-3.3.9c-3.65,0-5.63-1.86-5.63-5.12,0-3.84,2.66-5.63,7.87-5.63.32,0,.61,0,1,0v-.67c0-1.82-.35-2.43-1.92-2.43a9,9,0,0,0-4.74,1.86l-1.82-3.07a15.76,15.76,0,0,1,2.66-1.34,11.09,11.09,0,0,1,4.48-1c2.75,0,4.64,1,5.28,2.85a7.58,7.58,0,0,1,.29,2.94l-.1,5.5c0,1.79.1,2.56,1.54,3.65Zm-3.65-8c-3,0-4,.54-4,2.5a1.94,1.94,0,0,0,1.89,2.14,3.11,3.11,0,0,0,2.24-1.12l.06-3.52Z" transform="translate(-177.19 -60.95)"/><path class="cls-73" d="M817.45,396.11a14.56,14.56,0,0,1-6.62-1.89l1.54-3.14a12,12,0,0,0,5.44,1.86,2,2,0,0,0,2.18-1.86c0-1.12-.8-1.7-2.53-2l-1.92-.35a5.78,5.78,0,0,1-3-1.66,5,5,0,0,1-.93-2.94c0-3.2,2.53-5.34,6.34-5.34a12.31,12.31,0,0,1,5.86,1.54l-1.41,2.88a8.66,8.66,0,0,0-4-1.18c-1.25,0-2.08.64-2.08,1.6s.54,1.28,2,1.66l2,.51a5.1,5.1,0,0,1,3.26,1.86,4.33,4.33,0,0,1,.9,2.78C824.46,393.81,821.64,396.11,817.45,396.11Z" transform="translate(-177.19 -60.95)"/><path class="cls-73" d="M831.66,388.75v.13c0,2.53,1.25,4,3.46,4a6.4,6.4,0,0,0,4.16-1.63l1.66,2.56a9.4,9.4,0,0,1-6.18,2.27c-4.7,0-7.74-3.33-7.74-8.48,0-2.94.61-4.9,2-6.5a6.44,6.44,0,0,1,5.15-2.21,6.7,6.7,0,0,1,4.74,1.73c1.5,1.54,2.18,3.74,2.18,7.17v1Zm5-3.33a4.22,4.22,0,0,0-.51-2.46,2.08,2.08,0,0,0-1.89-1c-1.63,0-2.56,1.28-2.56,3.55v.06h5Z" transform="translate(-177.19 -60.95)"/><path class="cls-73" d="M235.76,294.9a9.07,9.07,0,0,1-7.26-3.07,11.6,11.6,0,0,1-2.69-8,14.25,14.25,0,0,1,1.5-6.91,9.55,9.55,0,0,1,8.51-5.15,9.09,9.09,0,0,1,5.63,1.76l-2,3a5.86,5.86,0,0,0-3.55-1.25,4.61,4.61,0,0,0-3.78,1.92c-.86,1.28-1.25,3.14-1.25,5.73,0,3,.26,4.74.93,6a4.62,4.62,0,0,0,4.29,2.5,5.75,5.75,0,0,0,3.81-1.44l2,2.82A9.09,9.09,0,0,1,235.76,294.9Z" transform="translate(-177.19 -60.95)"/><path class="cls-73" d="M256.78,292.59a6.69,6.69,0,0,1-5.41,2.27c-4.45,0-7.36-3.33-7.36-8.48s2.94-8.58,7.36-8.58a6.87,6.87,0,0,1,5.57,2.46,8.51,8.51,0,0,1,1.89,6A8.89,8.89,0,0,1,256.78,292.59Zm-3.49-10.75a2.35,2.35,0,0,0-4.06.8,15.51,15.51,0,0,0,.1,7.78,2.37,2.37,0,0,0,2.18,1.34c1.86,0,2.66-1.66,2.66-5.54C254.16,284,253.87,282.58,253.29,281.84Z" transform="translate(-177.19 -60.95)"/><path class="cls-73" d="M271.21,294.51V283.86c0-1.86-.32-2.4-1.44-2.4a5,5,0,0,0-3,1.47v11.58h-4.29V282.64a11.81,11.81,0,0,0-.58-3.84l3.81-1.09a4.19,4.19,0,0,1,.61,2,19,19,0,0,1,1.89-1.22,6.75,6.75,0,0,1,2.94-.7,4.07,4.07,0,0,1,3.94,2.37,6.61,6.61,0,0,1,.32,2.34v12Z" transform="translate(-177.19 -60.95)"/><path class="cls-73" d="M290.41,293.87a7.66,7.66,0,0,1-4,1c-4.51,0-7.14-3.14-7.14-8.45,0-3.78,1.44-6.27,3.36-7.58a7.76,7.76,0,0,1,4.06-1.22,7,7,0,0,1,3.17.74,7.27,7.27,0,0,1,1.6,1.15l-2.08,2.82a4.13,4.13,0,0,0-2.59-1.28c-1.92,0-2.78,1.66-2.78,5.5,0,2.14.29,3.42.83,4.13a2.48,2.48,0,0,0,1.92.93,4.38,4.38,0,0,0,2.94-1.34l.26-.22,2,2.59A6.76,6.76,0,0,1,290.41,293.87Z" transform="translate(-177.19 -60.95)"/><path class="cls-73" d="M298.79,287.67v.13c0,2.53,1.25,4,3.46,4a6.4,6.4,0,0,0,4.16-1.63l1.66,2.56A9.4,9.4,0,0,1,301.9,295c-4.7,0-7.74-3.33-7.74-8.48,0-2.94.61-4.9,2-6.5a6.44,6.44,0,0,1,5.15-2.21,6.7,6.7,0,0,1,4.74,1.73c1.5,1.54,2.18,3.74,2.18,7.17v1Zm5-3.33a4.22,4.22,0,0,0-.51-2.46,2.08,2.08,0,0,0-1.89-1c-1.63,0-2.56,1.28-2.56,3.55v.06h5Z" transform="translate(-177.19 -60.95)"/><path class="cls-73" d="M323.5,293a5.84,5.84,0,0,1-4.38,1.86,6.87,6.87,0,0,1-3.42-.86,8.81,8.81,0,0,1,.06,1.34v5.12l-4.13,1.09V282.61a20.72,20.72,0,0,0-.26-4.13l3.81-.67a7.18,7.18,0,0,1,.29,1.54,5.49,5.49,0,0,1,4-1.54,5.93,5.93,0,0,1,3.23,1c1.76,1.18,3,3.3,3,7.07C325.77,289.39,325.19,291.19,323.5,293Zm-2.82-10.34a2,2,0,0,0-2-1.38,4,4,0,0,0-2.85,1.25v8a4,4,0,0,0,2.37,1c2.11,0,2.94-1.44,2.94-5.18A11.61,11.61,0,0,0,320.68,282.67Z" transform="translate(-177.19 -60.95)"/><path class="cls-73" d="M334.31,294.9c-2.18,0-3.9-1-4.42-2.4a6,6,0,0,1-.29-2.53v-8.9H328v-2.94h1.63a28.42,28.42,0,0,1,.16-3.87l4.35-1.09a48.88,48.88,0,0,0-.26,5h3.84l-1.09,2.94h-2.75v8.22c0,2.08.38,2.62,1.86,2.62a5.62,5.62,0,0,0,1.54-.32l.54,2.56A9,9,0,0,1,334.31,294.9Z" transform="translate(-177.19 -60.95)"/><rect class="cls-74" x="726.35" y="202.33" width="220.79" height="58.51"/><rect class="cls-75" x="724.9" y="189.16" width="223.24" height="48.54"/><use width="4.38" height="4.38" transform="translate(736.88 246.75) scale(1.97)" xlink:href="#New_Symbol_59"/><use width="4.38" height="4.38" transform="translate(775.41 246.75) scale(1.97)" xlink:href="#New_Symbol_59"/><use width="4.38" height="4.38" transform="translate(813.95 246.75) scale(1.97)" xlink:href="#New_Symbol_59"/><use width="4.38" height="4.38" transform="translate(852.49 246.75) scale(1.97)" xlink:href="#New_Symbol_59"/><use width="4.38" height="4.38" transform="translate(897.49 246.75) scale(1.97)" xlink:href="#New_Symbol_59"/><use width="4.38" height="4.38" transform="translate(936.03 246.75) scale(1.97)" xlink:href="#New_Symbol_59"/><path class="cls-76" d="M910.92,272.75h206.62" transform="translate(-177.19 -60.95)"/><path class="cls-22" d="M975.93,230.45H956.71a3.45,3.45,0,0,0-3.44,3.45v5.78h29.24Z" transform="translate(-177.19 -60.95)"/><path class="cls-22" d="M1013.17,275a3.46,3.46,0,0,1-3.45,3.45h-53a3.46,3.46,0,0,1-3.44-3.45V240.18a3.46,3.46,0,0,1,3.44-3.45h53a3.46,3.46,0,0,1,3.45,3.45Z" transform="translate(-177.19 -60.95)"/><path class="cls-23" d="M1009.82,238H980.5L976,231.77H956.81a3.46,3.46,0,0,0-3.45,3.44V241h.05a3.2,3.2,0,0,0-.05.5V276.3a3.46,3.46,0,0,0,3.45,3.45h53a3.46,3.46,0,0,0,3.45-3.45V241.49A3.46,3.46,0,0,0,1009.82,238Z" transform="translate(-177.19 -60.95)"/><polygon class="cls-24" points="819.27 192.88 819.27 192.89 792.84 192.89 792.84 192.88 792.84 191.85 792.84 191.85 819.27 191.85 819.27 191.85 819.27 192.88"/><rect class="cls-24" x="801.91" y="193.37" width="1.85" height="12.34"/><rect class="cls-24" x="808.35" y="193.37" width="1.85" height="12.34"/><rect class="cls-24" x="814.79" y="193.37" width="1.85" height="12.34"/><polygon class="cls-24" points="804.26 194.94 801.4 194.94 801.04 193.37 804.63 193.37 804.26 194.94"/><polygon class="cls-24" points="804.23 204.12 801.44 204.12 801.09 205.71 804.58 205.71 804.23 204.12"/><rect class="cls-24" x="795.47" y="193.37" width="1.85" height="12.34"/><polygon class="cls-24" points="797.83 194.94 794.96 194.94 794.6 193.37 798.19 193.37 797.83 194.94"/><polygon class="cls-24" points="797.79 204.12 795 204.12 794.65 205.71 798.14 205.71 797.79 204.12"/><polygon class="cls-24" points="810.71 194.94 807.84 194.94 807.48 193.37 811.07 193.37 810.71 194.94"/><polygon class="cls-24" points="810.67 204.12 807.88 204.12 807.53 205.71 811.02 205.71 810.67 204.12"/><polygon class="cls-24" points="817.15 194.94 814.28 194.94 813.93 193.37 817.51 193.37 817.15 194.94"/><polygon class="cls-24" points="817.11 204.12 814.32 204.12 813.97 205.71 817.46 205.71 817.11 204.12"/><polygon class="cls-24" points="806.06 187.14 819.27 191.98 792.84 191.98 806.06 187.14"/><path class="cls-24" d="M998.42,269.28H968.07v-.77h30.35Z" transform="translate(-177.19 -60.95)"/><path class="cls-24" d="M996.27,267.88h-26v-.77h26Z" transform="translate(-177.19 -60.95)"/><path class="cls-24" d="M1000.28,270.66H966.22v-.77h34.06Z" transform="translate(-177.19 -60.95)"/></g></g></g></g></svg>