<svg xmlns="http://www.w3.org/2000/svg" viewBox="0 0 121 121"><defs><style>.cls-1{fill:#39c6bc;stroke:#39c6bc;stroke-miterlimit:10;}.cls-2{fill:#fff;}</style></defs><title>IP_sc4_doneBtn</title><g id="Layer_2" data-name="Layer 2"><g id="Ui"><circle class="cls-1" cx="60.5" cy="60.5" r="60"/><path class="cls-2" d="M27.63,49.42q3.6,3.29,3.6,9.16t-3.51,9.29Q24.21,71.29,17,71.29H8.41V46.13H17.3Q24,46.13,27.63,49.42Zm-4.12,15a7.38,7.38,0,0,0,2.07-5.65A7.56,7.56,0,0,0,23.51,53q-2.07-2-6.35-2H14v15.3h3.56A8.33,8.33,0,0,0,23.51,64.38Z"/><path class="cls-2" d="M57.26,67.82a12.93,12.93,0,0,1-9.4,3.73,12.93,12.93,0,0,1-9.4-3.73,12.43,12.43,0,0,1-3.82-9.27,12.43,12.43,0,0,1,3.82-9.27,12.93,12.93,0,0,1,9.4-3.73,12.93,12.93,0,0,1,9.4,3.73,12.43,12.43,0,0,1,3.82,9.27A12.43,12.43,0,0,1,57.26,67.82Zm-1.91-9.25a8.24,8.24,0,0,0-2.16-5.74,7.12,7.12,0,0,0-10.62,0,8.69,8.69,0,0,0,0,11.47,7.16,7.16,0,0,0,10.62,0A8.17,8.17,0,0,0,55.35,58.56Z"/><path class="cls-2" d="M83.43,46.13h5.62V71.29H83.43l-12-15.77V71.29H65.83V46.13h5.26l12.35,16.2Z"/><path class="cls-2" d="M113.39,46.13v5H100.86v5.18h11.27V61.1H100.86v5.22h12.92v5H95.24V46.13Z"/></g></g></svg>