<svg id="Layer_1" data-name="Layer 1" xmlns="http://www.w3.org/2000/svg" viewBox="0 0 523 173"><defs><style>.cls-1{fill:#e6e7e8;}.cls-2{fill:#4c4c4e;}</style></defs><title>IP_sc4_ToowoombaBtn</title><path class="cls-1" d="M1935.2,123.9a9.82,9.82,0,0,1-9.8,9.8h-431a9.82,9.82,0,0,1-9.8-9.8V43.5a9.82,9.82,0,0,1,9.8-9.8h431a9.82,9.82,0,0,1,9.8,9.8Z"/><path class="cls-1" d="M486.55,126.22a9.82,9.82,0,0,1-9.8,9.8h-431a9.82,9.82,0,0,1-9.8-9.8V45.82a9.82,9.82,0,0,1,9.8-9.8h431a9.82,9.82,0,0,1,9.8,9.8Z"/><path class="cls-2" d="M185.67,74.11h-6V94.95h-5.11V74.11h-6.12V69.93h18Z"/><path class="cls-2" d="M200.25,92.79a7.53,7.53,0,0,1-6.08,2.55c-5,0-8.28-3.74-8.28-9.54s3.31-9.65,8.28-9.65a7.72,7.72,0,0,1,6.26,2.77c1.48,1.73,2.13,3.74,2.13,6.73C202.56,88.83,201.84,91,200.25,92.79ZM196.33,80.7a2.58,2.58,0,0,0-2.09-1,2.6,2.6,0,0,0-2.48,1.87,13.13,13.13,0,0,0-.5,4.1,13,13,0,0,0,.61,4.64,2.67,2.67,0,0,0,2.45,1.51c2.09,0,3-1.87,3-6.23C197.3,83.14,197,81.52,196.33,80.7Z"/><path class="cls-2" d="M219.8,92.79a7.53,7.53,0,0,1-6.08,2.55c-5,0-8.28-3.74-8.28-9.54s3.31-9.65,8.28-9.65A7.72,7.72,0,0,1,220,78.93c1.48,1.73,2.12,3.74,2.12,6.73C222.11,88.83,221.39,91,219.8,92.79ZM215.88,80.7a2.64,2.64,0,0,0-4.57.9,13.13,13.13,0,0,0-.5,4.1,13,13,0,0,0,.61,4.64,2.67,2.67,0,0,0,2.45,1.51c2.09,0,3-1.87,3-6.23C216.85,83.14,216.53,81.52,215.88,80.7Z"/><path class="cls-2" d="M243.45,94.95H239l-1.66-6.34c-.4-1.47-.83-3.24-1-4.46L236,82.32a23.53,23.53,0,0,1-.43,2.38c-.36,1.58-1.15,4.75-1.58,6.48l-.94,3.78h-4.5l-5-18.11,4.79-.54,1.51,7.09c.43,1.91.94,5,1,5.72a64.14,64.14,0,0,1,1.33-6.41L234,76.52h4.54L240,82.6c.72,3.06,1.26,5.9,1.37,6.52.11-.79.5-3.67,1-6l1.4-6.59h5Z"/><path class="cls-2" d="M264.52,92.79a7.53,7.53,0,0,1-6.08,2.55c-5,0-8.28-3.74-8.28-9.54s3.31-9.65,8.28-9.65a7.72,7.72,0,0,1,6.26,2.77c1.48,1.73,2.12,3.74,2.12,6.73C266.82,88.83,266.1,91,264.52,92.79ZM260.59,80.7a2.64,2.64,0,0,0-4.57.9,13.13,13.13,0,0,0-.5,4.1,13,13,0,0,0,.61,4.64,2.67,2.67,0,0,0,2.45,1.51c2.09,0,3-1.87,3-6.23C261.56,83.14,261.24,81.52,260.59,80.7Z"/><path class="cls-2" d="M284.06,92.79A7.53,7.53,0,0,1,278,95.34c-5,0-8.28-3.74-8.28-9.54S273,76.16,278,76.16a7.72,7.72,0,0,1,6.26,2.77c1.48,1.73,2.13,3.74,2.13,6.73C286.37,88.83,285.65,91,284.06,92.79ZM280.14,80.7a2.58,2.58,0,0,0-2.09-1,2.6,2.6,0,0,0-2.48,1.87,13.13,13.13,0,0,0-.5,4.1,13,13,0,0,0,.61,4.64,2.67,2.67,0,0,0,2.45,1.51c2.09,0,3-1.87,3-6.23C281.11,83.14,280.79,81.52,280.14,80.7Z"/><path class="cls-2" d="M309.33,94.95V82.78c0-2.2-.25-2.63-1.51-2.63a5.48,5.48,0,0,0-3.2,1.55V94.95H300V83c0-2.3-.32-2.84-1.66-2.84a5.11,5.11,0,0,0-3.17,1.4V94.95h-4.72V82.1c0-2.66-.18-3.81-.68-4.71l4.36-1.19a4.67,4.67,0,0,1,.65,1.87,6.36,6.36,0,0,1,4.5-1.87,5,5,0,0,1,3.74,1.51,6,6,0,0,1,.72.9A6.76,6.76,0,0,1,309,76.2a5.7,5.7,0,0,1,3.64,1.15c1,.9,1.37,2,1.37,4.5v13.1Z"/><path class="cls-2" d="M331.55,93.87a6.1,6.1,0,0,1-4,1.44,5.1,5.1,0,0,1-4.1-1.69,3.12,3.12,0,0,1-.5,1.33h-4.32c.36-.83.47-1.37.47-3.92V74a19.63,19.63,0,0,0-.32-4.54l4.93-1.15a24.88,24.88,0,0,1,.18,3.28v4.36a9.8,9.8,0,0,1-.11,1.62,5.05,5.05,0,0,1,3.92-1.48c4.5,0,7.31,3.6,7.31,9.36C335,89.16,333.81,92.07,331.55,93.87Zm-2.27-11.48A2.64,2.64,0,0,0,326.65,80a3.7,3.7,0,0,0-2.74,1.47V90a3.8,3.8,0,0,0,2.7,1.19A2.25,2.25,0,0,0,329,89.77a10.08,10.08,0,0,0,.54-4.25A13.23,13.23,0,0,0,329.28,82.39Z"/><path class="cls-2" d="M351.6,95.89A5.16,5.16,0,0,1,349,93.65a8.86,8.86,0,0,1-1.12,1,6.37,6.37,0,0,1-3.71,1c-4.1,0-6.33-2.09-6.33-5.76,0-4.32,3-6.33,8.85-6.33.36,0,.68,0,1.08,0v-.76c0-2.05-.4-2.74-2.16-2.74a10.15,10.15,0,0,0-5.33,2.09l-2.05-3.46a17.7,17.7,0,0,1,3-1.51,12.47,12.47,0,0,1,5-1.08c3.1,0,5.22,1.15,5.94,3.2a8.53,8.53,0,0,1,.32,3.31l-.11,6.19c0,2,.11,2.88,1.73,4.1Zm-4.1-9c-3.35,0-4.5.61-4.5,2.81a2.19,2.19,0,0,0,2.12,2.41,3.5,3.5,0,0,0,2.52-1.26l.07-4Z"/></svg>