<svg xmlns="http://www.w3.org/2000/svg" viewBox="0 0 989 120"><defs><style>.cls-1{fill:#eaebec;opacity:0.3;}.cls-1,.cls-2{isolation:isolate;}.cls-3{fill:#4c4c4e;}</style></defs><title>IP_sc4_strategy</title><g id="Layer_2" data-name="Layer 2"><g id="Layer_1-2" data-name="Layer 1"><rect class="cls-1" width="989" height="120"/><g class="cls-2"><path class="cls-3" d="M71.45,71a20.87,20.87,0,0,1-10-2.65l2.18-4.58a16.57,16.57,0,0,0,8,2.35c3.36,0,5.13-1.39,5.13-4,0-1.89-1.22-3.07-3.82-3.78l-3.23-.88c-2.9-.8-4.71-1.93-5.76-3.7a8.44,8.44,0,0,1-1.22-4.45c0-5.33,4.28-9,10.46-9A17.13,17.13,0,0,1,83,43.21l-2.77,4.2a12.59,12.59,0,0,0-6.8-2.23c-2.39,0-4.07,1.39-4.07,3.36,0,1.51.8,2.27,3.23,2.94l3.53,1c4.79,1.3,7.39,4.37,7.39,8.7C83.5,67.07,78.72,71,71.45,71Z"/><path class="cls-3" d="M94.3,70.85c-2.86,0-5.12-1.26-5.8-3.15a7.88,7.88,0,0,1-.38-3.32V52.7H86V48.84h2.14a37.09,37.09,0,0,1,.21-5.08L94,42.33a64.24,64.24,0,0,0-.34,6.51h5L97.32,52.7H93.71V63.5c0,2.73.5,3.45,2.44,3.45a7.38,7.38,0,0,0,2-.42l.71,3.36A11.8,11.8,0,0,1,94.3,70.85Z"/><path class="cls-3" d="M113.16,53.75a3.18,3.18,0,0,0-1.64-.42,4.49,4.49,0,0,0-3.44,1.81V70.35h-5.63V56a19.54,19.54,0,0,0-.8-6.3l5-1.34a6.9,6.9,0,0,1,.88,3.07c1.22-1.64,2.94-3.07,5-3.07a4.34,4.34,0,0,1,2.1.46Z"/><path class="cls-3" d="M131.59,71.44a6,6,0,0,1-3-2.6,10.4,10.4,0,0,1-1.3,1.13,7.44,7.44,0,0,1-4.33,1.18c-4.79,0-7.39-2.44-7.39-6.72,0-5,3.49-7.39,10.33-7.39.42,0,.8,0,1.26,0v-.88c0-2.39-.46-3.19-2.52-3.19-1.81,0-3.91.88-6.22,2.44l-2.39-4a20.77,20.77,0,0,1,3.49-1.76,14.56,14.56,0,0,1,5.88-1.26c3.61,0,6.09,1.34,6.93,3.74a10,10,0,0,1,.38,3.87l-.13,7.22c0,2.35.13,3.36,2,4.79Zm-4.79-10.5c-3.91,0-5.25.71-5.25,3.28A2.55,2.55,0,0,0,124,67,4.08,4.08,0,0,0,127,65.56l.08-4.62Z"/><path class="cls-3" d="M145.12,70.85c-2.86,0-5.12-1.26-5.8-3.15a7.87,7.87,0,0,1-.38-3.32V52.7H136.8V48.84h2.14a37.26,37.26,0,0,1,.21-5.08l5.71-1.43a64,64,0,0,0-.34,6.51h5l-1.43,3.86h-3.61V63.5c0,2.73.5,3.45,2.44,3.45a7.38,7.38,0,0,0,2-.42l.71,3.36A11.81,11.81,0,0,1,145.12,70.85Z"/><path class="cls-3" d="M158,61.36v.17c0,3.32,1.64,5.21,4.54,5.21A8.41,8.41,0,0,0,168,64.59L170.15,68a12.34,12.34,0,0,1-8.11,3c-6.17,0-10.17-4.37-10.17-11.13,0-3.86.8-6.43,2.69-8.53a8.45,8.45,0,0,1,6.76-2.9,8.8,8.8,0,0,1,6.22,2.27c2,2,2.86,4.91,2.86,9.41v1.3Zm6.6-4.37a5.53,5.53,0,0,0-.67-3.23,2.73,2.73,0,0,0-2.48-1.26c-2.14,0-3.36,1.68-3.36,4.66v.08h6.51Z"/><path class="cls-3" d="M192.16,52.79a12,12,0,0,1-1.47-.13,5.19,5.19,0,0,1,1.26,3.53c0,3.7-3.36,6.38-7.94,6.38a6.87,6.87,0,0,1-.84,0c-1.43.67-2.23,1.18-2.23,1.76,0,.29.34.5.92.5l3,0c3.28,0,5,.55,6.51,1.93a5.86,5.86,0,0,1,1.85,4.58,6.11,6.11,0,0,1-1.72,4.45c-1.89,2-5.12,2.77-8.49,2.77-3.07,0-6.22-.5-8.15-2.31a5,5,0,0,1-1.76-3.82,4.32,4.32,0,0,1,.5-2.18h5.21a3,3,0,0,0-.25,1.39c0,1.72,1.43,2.65,4,2.65a6.79,6.79,0,0,0,3.53-.71,2.61,2.61,0,0,0,1.39-2.18c0-1.93-1.72-2.52-3.95-2.56l-2.39,0a15.31,15.31,0,0,1-5.17-.67,2.73,2.73,0,0,1-1.64-2.81c0-1.39.42-2.69,3.95-3.61a5.57,5.57,0,0,1-4.62-6c0-4.41,3.57-7.27,9.07-7.27a15.5,15.5,0,0,1,3.87.55,11.25,11.25,0,0,0,2.65.46,6.76,6.76,0,0,0,4.45-1.85l2.35,3.57A5.36,5.36,0,0,1,192.16,52.79Zm-9.41-.21c-2.14,0-3.36,1.18-3.36,3.19,0,2.18,1.34,3.07,3.32,3.07,2.23,0,3.45-1.09,3.45-3.07S184.89,52.58,182.75,52.58Z"/><path class="cls-3" d="M201.27,46.4a3.47,3.47,0,0,1-3.44-3.49,3.51,3.51,0,0,1,3.53-3.49,3.43,3.43,0,0,1,3.4,3.49A3.48,3.48,0,0,1,201.27,46.4Zm-2.81,23.94V49.22l5.63-.88v22Z"/><path class="cls-3" d="M223.74,69.51a10.06,10.06,0,0,1-5.25,1.34c-5.92,0-9.37-4.12-9.37-11.09,0-5,1.89-8.23,4.41-10a10.2,10.2,0,0,1,5.34-1.6,9.18,9.18,0,0,1,4.16,1,9.51,9.51,0,0,1,2.1,1.51l-2.73,3.7A5.42,5.42,0,0,0,219,52.7c-2.52,0-3.65,2.18-3.65,7.23,0,2.81.38,4.5,1.09,5.42A3.25,3.25,0,0,0,219,66.56a5.75,5.75,0,0,0,3.86-1.76l.34-.29,2.56,3.4A8.89,8.89,0,0,1,223.74,69.51Z"/><path class="cls-3" d="M253.52,71.44a6,6,0,0,1-3-2.6,10.39,10.39,0,0,1-1.3,1.13,7.43,7.43,0,0,1-4.33,1.18c-4.79,0-7.39-2.44-7.39-6.72,0-5,3.49-7.39,10.33-7.39.42,0,.8,0,1.26,0v-.88c0-2.39-.46-3.19-2.52-3.19-1.81,0-3.91.88-6.22,2.44l-2.39-4a20.74,20.74,0,0,1,3.49-1.76,14.56,14.56,0,0,1,5.88-1.26c3.61,0,6.09,1.34,6.93,3.74a10,10,0,0,1,.38,3.87l-.13,7.22c0,2.35.13,3.36,2,4.79Zm-4.79-10.5c-3.91,0-5.25.71-5.25,3.28A2.55,2.55,0,0,0,246,67a4.08,4.08,0,0,0,2.94-1.47l.08-4.62Z"/><path class="cls-3" d="M267.25,71a19.11,19.11,0,0,1-8.7-2.48l2-4.12c1.72,1,4.71,2.44,7.14,2.44a2.63,2.63,0,0,0,2.86-2.44c0-1.47-1.05-2.23-3.32-2.65l-2.52-.46a7.59,7.59,0,0,1-3.95-2.18,6.51,6.51,0,0,1-1.22-3.87c0-4.2,3.32-7,8.32-7a16.15,16.15,0,0,1,7.69,2L273.72,54a11.38,11.38,0,0,0-5.29-1.55c-1.64,0-2.73.84-2.73,2.1,0,1.09.71,1.68,2.69,2.18l2.6.67c2.65.67,3.53,1.47,4.29,2.44a5.69,5.69,0,0,1,1.18,3.65C276.45,68,272.75,71,267.25,71Z"/><path class="cls-3" d="M287.45,71a19.11,19.11,0,0,1-8.7-2.48l2-4.12c1.72,1,4.71,2.44,7.14,2.44a2.63,2.63,0,0,0,2.86-2.44c0-1.47-1-2.23-3.32-2.65l-2.52-.46A7.59,7.59,0,0,1,281,59.13a6.52,6.52,0,0,1-1.22-3.87c0-4.2,3.32-7,8.32-7a16.15,16.15,0,0,1,7.69,2L293.92,54a11.37,11.37,0,0,0-5.29-1.55c-1.64,0-2.73.84-2.73,2.1,0,1.09.71,1.68,2.69,2.18l2.6.67c2.65.67,3.53,1.47,4.28,2.44a5.69,5.69,0,0,1,1.18,3.65C296.65,68,293,71,287.45,71Z"/><path class="cls-3" d="M306.1,61.36v.17c0,3.32,1.64,5.21,4.54,5.21a8.41,8.41,0,0,0,5.46-2.14L318.28,68a12.34,12.34,0,0,1-8.11,3C304,70.93,300,66.56,300,59.8c0-3.86.8-6.43,2.69-8.53a8.46,8.46,0,0,1,6.76-2.9,8.8,8.8,0,0,1,6.22,2.27c2,2,2.86,4.91,2.86,9.41v1.3ZM312.7,57a5.53,5.53,0,0,0-.67-3.23,2.72,2.72,0,0,0-2.48-1.26c-2.14,0-3.36,1.68-3.36,4.66v.08h6.51Z"/><path class="cls-3" d="M329.54,71a19.11,19.11,0,0,1-8.7-2.48l2-4.12c1.72,1,4.71,2.44,7.14,2.44a2.63,2.63,0,0,0,2.86-2.44c0-1.47-1-2.23-3.32-2.65L327,61.31a7.59,7.59,0,0,1-3.95-2.18,6.52,6.52,0,0,1-1.22-3.87c0-4.2,3.32-7,8.32-7a16.15,16.15,0,0,1,7.69,2L336,54a11.37,11.37,0,0,0-5.29-1.55c-1.64,0-2.73.84-2.73,2.1,0,1.09.71,1.68,2.69,2.18l2.6.67c2.65.67,3.53,1.47,4.28,2.44a5.69,5.69,0,0,1,1.18,3.65C338.74,68,335,71,329.54,71Z"/><path class="cls-3" d="M349.74,71a19.11,19.11,0,0,1-8.7-2.48l2-4.12c1.72,1,4.71,2.44,7.14,2.44a2.63,2.63,0,0,0,2.86-2.44c0-1.47-1.05-2.23-3.32-2.65l-2.52-.46a7.59,7.59,0,0,1-3.95-2.18,6.51,6.51,0,0,1-1.22-3.87c0-4.2,3.32-7,8.32-7a16.15,16.15,0,0,1,7.69,2L356.21,54a11.38,11.38,0,0,0-5.29-1.55c-1.64,0-2.73.84-2.73,2.1,0,1.09.71,1.68,2.69,2.18l2.6.67c2.65.67,3.53,1.47,4.29,2.44a5.69,5.69,0,0,1,1.18,3.65C358.94,68,355.24,71,349.74,71Z"/><path class="cls-3" d="M385.32,70.35V56.15c0-2.56-.29-3.07-1.76-3.07a6.41,6.41,0,0,0-3.74,1.81V70.35h-5.33v-14c0-2.69-.38-3.32-1.93-3.32a6,6,0,0,0-3.7,1.64V70.35h-5.5v-15c0-3.11-.21-4.45-.8-5.5l5.08-1.39a5.46,5.46,0,0,1,.76,2.18,7.41,7.41,0,0,1,5.25-2.18A5.82,5.82,0,0,1,378,50.22a7.08,7.08,0,0,1,.84,1,7.9,7.9,0,0,1,6.09-2.81,6.66,6.66,0,0,1,4.24,1.34c1.22,1.05,1.6,2.31,1.6,5.25V70.35Z"/><path class="cls-3" d="M401.9,61.36v.17c0,3.32,1.64,5.21,4.54,5.21a8.41,8.41,0,0,0,5.46-2.14L414.08,68a12.34,12.34,0,0,1-8.11,3c-6.17,0-10.17-4.37-10.17-11.13,0-3.86.8-6.43,2.69-8.53a8.45,8.45,0,0,1,6.76-2.9,8.8,8.8,0,0,1,6.22,2.27c2,2,2.86,4.91,2.86,9.41v1.3ZM408.5,57a5.54,5.54,0,0,0-.67-3.23,2.73,2.73,0,0,0-2.48-1.26c-2.14,0-3.36,1.68-3.36,4.66v.08h6.51Z"/><path class="cls-3" d="M430.17,70.35v-14c0-2.44-.42-3.15-1.89-3.15a6.57,6.57,0,0,0-3.91,1.93V70.35h-5.63V54.76a15.52,15.52,0,0,0-.76-5l5-1.43a5.51,5.51,0,0,1,.8,2.69,25,25,0,0,1,2.48-1.6,8.87,8.87,0,0,1,3.86-.92,5.35,5.35,0,0,1,5.17,3.11,8.68,8.68,0,0,1,.42,3.07V70.35Z"/><path class="cls-3" d="M448.19,70.85c-2.86,0-5.12-1.26-5.8-3.15a7.89,7.89,0,0,1-.38-3.32V52.7h-2.14V48.84H442a37.26,37.26,0,0,1,.21-5.08l5.71-1.43a64.24,64.24,0,0,0-.34,6.51h5l-1.43,3.86H447.6V63.5c0,2.73.5,3.45,2.44,3.45a7.37,7.37,0,0,0,2-.42l.71,3.36A11.81,11.81,0,0,1,448.19,70.85Z"/></g></g></g></svg>