<svg xmlns="http://www.w3.org/2000/svg" viewBox="0 0 911.57 690.05"><defs><style>.cls-1{font-size:60px;fill:#009887;font-family:MetaPro-Bold, Meta Pro;font-weight:700;}.cls-2{letter-spacing:-0.02em;}.cls-3{letter-spacing:-0.02em;}.cls-4{letter-spacing:-0.01em;}.cls-5{letter-spacing:0em;}.cls-6{letter-spacing:-0.01em;}.cls-7{letter-spacing:-0.01em;}.cls-8{letter-spacing:-0.01em;}.cls-9{letter-spacing:-0.01em;}.cls-10{letter-spacing:0em;}.cls-11{letter-spacing:0em;}.cls-12{letter-spacing:-0.01em;}.cls-13{letter-spacing:0em;}.cls-14{letter-spacing:-0.02em;}.cls-15{font-size:36px;fill:#58595b;}.cls-15,.cls-38{font-family:MetaPro-Normal, MetaPro Normal;}.cls-16{letter-spacing:-0.01em;}.cls-17{letter-spacing:0em;}.cls-18{letter-spacing:0em;}.cls-19{letter-spacing:0.01em;}.cls-20{letter-spacing:0em;}.cls-21{letter-spacing:0em;}.cls-22{letter-spacing:0.01em;}.cls-23{letter-spacing:-0.01em;}.cls-24{letter-spacing:-0.02em;}.cls-25{letter-spacing:-0.01em;}.cls-26{letter-spacing:-0.01em;}.cls-27{letter-spacing:0em;}.cls-28{letter-spacing:-0.01em;}.cls-29{letter-spacing:0em;}.cls-30{letter-spacing:-0.01em;}.cls-31{letter-spacing:0em;}.cls-32{letter-spacing:0em;}.cls-33{letter-spacing:0.01em;}.cls-34{letter-spacing:0em;}.cls-35{letter-spacing:0em;}.cls-36{letter-spacing:-0.01em;}.cls-37{letter-spacing:-0.01em;}.cls-38{font-size:70px;fill:#6a0032;}.cls-39{letter-spacing:0em;}.cls-40{letter-spacing:0em;}.cls-41{letter-spacing:-0.01em;}.cls-42{letter-spacing:0em;}.cls-43{letter-spacing:0.01em;}.cls-44{letter-spacing:0em;}.cls-45{letter-spacing:0em;}.cls-46{letter-spacing:0.01em;}.cls-47{letter-spacing:-0.01em;}.cls-48{letter-spacing:0em;}</style></defs><title>IP_sc1_Text</title><g id="Layer_2" data-name="Layer 2"><g id="Ui"><text></text><text class="cls-1" transform="translate(102 184.96)"><tspan class="cls-2">W</tspan><tspan x="49.44" y="0">el</tspan><tspan class="cls-3" x="97.86" y="0">c</tspan><tspan x="124.86" y="0">ome </tspan><tspan class="cls-4" x="250.08" y="0">t</tspan><tspan class="cls-5" x="270.36" y="0">o the in</tspan><tspan class="cls-4" x="466.73" y="0">t</tspan><tspan x="487.02" y="0">e</tspan><tspan class="cls-6" x="517.98" y="0">r</tspan><tspan x="538.8" y="0">act</tspan><tspan class="cls-7" x="619.07" y="0">i</tspan><tspan class="cls-8" x="635.51" y="0">v</tspan><tspan x="663.11" y="0">e </tspan><tspan x="-102" y="69.13">Quee</tspan><tspan class="cls-9" x="34.08" y="69.13">n</tspan><tspan class="cls-10" x="66.84" y="69.13">s</tspan><tspan class="cls-11" x="96" y="69.13">l</tspan><tspan x="113.34" y="69.13">an</tspan><tspan class="cls-12" x="177.9" y="69.13">d</tspan><tspan x="210.84" y="69.13" xml:space="preserve"> In</tspan><tspan class="cls-10" x="275.34" y="69.13">f</tspan><tspan class="cls-6" x="293.88" y="69.13">ra</tspan><tspan class="cls-13" x="345.42" y="69.13">s</tspan><tspan class="cls-6" x="374.58" y="69.13">t</tspan><tspan x="395.04" y="69.13">ruc</tspan><tspan class="cls-6" x="477.12" y="69.13">tu</tspan><tspan class="cls-14" x="529.74" y="69.13">r</tspan><tspan x="550.14" y="69.13">e Pipeline</tspan></text><text class="cls-15" transform="translate(92.41 405.58)"><tspan class="cls-16">T</tspan><tspan class="cls-17" x="17.64" y="0">he </tspan><tspan class="cls-18" x="63.29" y="0">Queensland Infrastructure Pipeline has been </tspan><tspan x="23.44" y="46.09">developed to illustrate how proposals mature </tspan><tspan x="2.32" y="92.18">f</tspan><tspan class="cls-25" x="12.83" y="92.18">r</tspan><tspan x="24.25" y="92.18">om a </tspan><tspan class="cls-26" x="106.65" y="92.18">c</tspan><tspan x="122.56" y="92.18">on</tspan><tspan class="cls-26" x="162.3" y="92.18">c</tspan><tspan x="178.22" y="92.18">ept </tspan><tspan class="cls-28" x="236.28" y="92.18">t</tspan><tspan class="cls-21" x="247.98" y="92.18">o a funded g</tspan><tspan class="cls-30" x="437.09" y="92.18">o</tspan><tspan class="cls-25" x="456.6" y="92.18">v</tspan><tspan x="473.56" y="92.18">e</tspan><tspan class="cls-31" x="491.59" y="92.18">r</tspan><tspan x="503.51" y="92.18">nme</tspan><tspan class="cls-32" x="571.55" y="92.18">n</tspan><tspan x="591.38" y="92.18">t p</tspan><tspan class="cls-23" x="631.41" y="92.18">r</tspan><tspan x="642.82" y="92.18">oje</tspan><tspan class="cls-33" x="689.37" y="92.18">c</tspan><tspan class="cls-34" x="705.97" y="92.18">t</tspan><tspan x="717.78" y="92.18">, </tspan><tspan class="cls-16" x="56.32" y="138.26">b</tspan><tspan class="cls-17" x="76.55" y="138.26">y m</tspan><tspan class="cls-30" x="131.16" y="138.26">o</tspan><tspan x="150.68" y="138.26">ving th</tspan><tspan class="cls-25" x="256.05" y="138.26">r</tspan><tspan x="267.46" y="138.26">ough </tspan><tspan class="cls-27" x="354.79" y="138.26">v</tspan><tspan x="371.96" y="138.26">a</tspan><tspan class="cls-35" x="389.32" y="138.26">r</tspan><tspan x="401.23" y="138.26">ious planning and </tspan><tspan x="153.32" y="184.35">i</tspan><tspan class="cls-36" x="161.75" y="184.35">n</tspan><tspan class="cls-23" x="181.26" y="184.35">v</tspan><tspan x="198.21" y="184.35">estme</tspan><tspan class="cls-27" x="290.48" y="184.35">n</tspan><tspan x="310.32" y="184.35">t decision phase</tspan><tspan class="cls-37" x="552.92" y="184.35">s</tspan><tspan x="566.78" y="184.35">.</tspan></text><text class="cls-38" transform="translate(105.26 58.59)"><tspan class="cls-39">S</tspan><tspan x="34.3" y="0">t</tspan><tspan class="cls-40" x="57.47" y="0">a</tspan><tspan class="cls-41" x="90.93" y="0">t</tspan><tspan class="cls-42" x="113.68" y="0">e </tspan><tspan class="cls-43" x="163.59" y="0">I</tspan><tspan class="cls-44" x="181.02" y="0">nf</tspan><tspan class="cls-45" x="240.31" y="0">r</tspan><tspan class="cls-44" x="262.85" y="0">astru</tspan><tspan class="cls-46" x="408.94" y="0">c</tspan><tspan class="cls-44" x="441.2" y="0">tu</tspan><tspan class="cls-47" x="502.94" y="0">r</tspan><tspan x="525.13" y="0">e </tspan><tspan class="cls-48" x="575.04" y="0">P</tspan><tspan x="611.93" y="0">lan</tspan></text></g></g></svg>