<svg id="Layer_1" data-name="Layer 1" xmlns="http://www.w3.org/2000/svg" xmlns:xlink="http://www.w3.org/1999/xlink" viewBox="0 0 250 250"><defs><style>.cls-1{fill:#fff;}.cls-2{fill:none;}.cls-3,.cls-6{isolation:isolate;}.cls-4{fill:#4c4c4e;}.cls-5{fill:#dbdcde;}.cls-6{opacity:0.6;}.cls-7{fill:#f0563f;}.cls-8{fill:#404041;}.cls-9{fill:#e6e7e8;}.cls-10{fill:#00c0f2;}</style></defs><title>IP_sc4_eduBtn</title><rect class="cls-1" x="-749" y="-501.3" width="1108.4" height="1893.6"/><circle class="cls-1" cx="125" cy="125" r="125"/><rect class="cls-2" x="51.9" y="163.7" width="143.2" height="61.5"/><g class="cls-3"><path class="cls-4" d="M55.28,183.53V164.07H66.36l-.5,3.19H59.25v4.51h5.52V175H59.25v5.21h7.36v3.36Z"/><path class="cls-4" d="M77.76,183.53a2.57,2.57,0,0,1-.22-.84,4.81,4.81,0,0,1-3.3,1.2c-3.64,0-5.94-2.83-5.94-7.28s2.49-7.56,6.13-7.56a3.87,3.87,0,0,1,2.55.81,17.49,17.49,0,0,1-.11-2.13v-4.93l3.72.59v14.9c0,3.53.28,4.68.53,5.24ZM76.92,173a3.13,3.13,0,0,0-2-.92c-1.68,0-2.41,1.4-2.41,4.59s.64,4.09,2.6,4.09a2.69,2.69,0,0,0,1.85-.92Z"/><path class="cls-4" d="M94.08,183.93a3.28,3.28,0,0,1-1.12-1.4,5.35,5.35,0,0,1-3.78,1.37c-2,0-3.75-1-4.23-2.32a8.58,8.58,0,0,1-.31-2.86v-9.18l3.7-.7V178a5.66,5.66,0,0,0,.31,2.35,1.5,1.5,0,0,0,1.32.67,2.78,2.78,0,0,0,2.32-1.37V169.62l3.58-.76v10.95a4.16,4.16,0,0,0,.87,2.6Z"/><path class="cls-4" d="M109,183a6.7,6.7,0,0,1-3.5.9c-3.95,0-6.24-2.74-6.24-7.39,0-3.3,1.26-5.49,2.94-6.64a6.79,6.79,0,0,1,3.55-1.06,6.12,6.12,0,0,1,2.77.64,6.34,6.34,0,0,1,1.4,1l-1.82,2.46a3.61,3.61,0,0,0-2.27-1.12c-1.68,0-2.44,1.46-2.44,4.82,0,1.88.25,3,.73,3.61a2.16,2.16,0,0,0,1.68.81,3.83,3.83,0,0,0,2.58-1.18l.22-.2,1.71,2.27A6,6,0,0,1,109,183Z"/><path class="cls-4" d="M122.39,184.26a4,4,0,0,1-2-1.74,7,7,0,0,1-.87.76,5,5,0,0,1-2.88.78c-3.19,0-4.93-1.62-4.93-4.48,0-3.36,2.32-4.93,6.89-4.93.28,0,.53,0,.84,0v-.59c0-1.6-.31-2.13-1.68-2.13a7.9,7.9,0,0,0-4.14,1.62l-1.6-2.69a13.81,13.81,0,0,1,2.32-1.18,9.7,9.7,0,0,1,3.92-.84c2.41,0,4.06.9,4.62,2.49a6.67,6.67,0,0,1,.25,2.58l-.08,4.82c0,1.57.08,2.24,1.34,3.19Zm-3.19-7c-2.6,0-3.5.48-3.5,2.18a1.7,1.7,0,0,0,1.65,1.88,2.72,2.72,0,0,0,2-1l.06-3.08Z"/><path class="cls-4" d="M131.41,183.87c-1.9,0-3.42-.84-3.86-2.1a5.25,5.25,0,0,1-.25-2.21v-7.78h-1.43V169.2h1.43a24.87,24.87,0,0,1,.14-3.39l3.81-1a42.91,42.91,0,0,0-.22,4.34h3.36l-1,2.58H131V179c0,1.82.34,2.3,1.62,2.3A4.9,4.9,0,0,0,134,181l.48,2.24A7.89,7.89,0,0,1,131.41,183.87Z"/><path class="cls-4" d="M139,167.57a2.31,2.31,0,0,1-2.29-2.32,2.34,2.34,0,0,1,2.35-2.32,2.29,2.29,0,0,1,2.27,2.32A2.32,2.32,0,0,1,139,167.57Zm-1.87,16V169.45l3.75-.59v14.67Z"/><path class="cls-4" d="M155.26,181.85a5.86,5.86,0,0,1-4.73,2c-3.89,0-6.44-2.91-6.44-7.42s2.57-7.5,6.44-7.5a6,6,0,0,1,4.87,2.16,7.45,7.45,0,0,1,1.65,5.24A7.79,7.79,0,0,1,155.26,181.85Zm-3.05-9.41a2.05,2.05,0,0,0-3.56.7,13.62,13.62,0,0,0,.08,6.8,2.07,2.07,0,0,0,1.9,1.18c1.63,0,2.32-1.46,2.32-4.84C153,174.35,152.72,173.09,152.21,172.45Z"/><path class="cls-4" d="M167.89,183.53v-9.32c0-1.62-.28-2.1-1.26-2.1A4.38,4.38,0,0,0,164,173.4v10.14h-3.75V173.15a10.34,10.34,0,0,0-.5-3.36l3.33-1a3.67,3.67,0,0,1,.53,1.79,16.41,16.41,0,0,1,1.65-1.06,5.89,5.89,0,0,1,2.57-.62,3.57,3.57,0,0,1,3.45,2.07,5.8,5.8,0,0,1,.28,2v10.47Z"/><path class="cls-4" d="M194.8,183.53l-1.18-1.18a6.66,6.66,0,0,1-1.68,1,10.3,10.3,0,0,1-3.67.56c-4.48,0-7-1.93-7-5.29,0-2.18,1.15-3.75,3.5-4.84a5.45,5.45,0,0,1-1.82-2,6,6,0,0,1-.45-2.21c0-2.77,2.29-4.7,5.6-4.7s5.68,1.82,5.68,4.42a4.13,4.13,0,0,1-1,2.69,8.92,8.92,0,0,1-2.46,1.74l-.25.14,3.25,3.08a8.36,8.36,0,0,0,.25-2.74V174h3.14v.17a12.8,12.8,0,0,1-.9,5.21l4.17,4.14Zm-6.69-16a1.71,1.71,0,0,0-1.79,1.82c0,.81.28,1.26,1.46,2.46l.22.22a3,3,0,0,0,1.85-2.63A1.75,1.75,0,0,0,188.11,167.49Zm-1.34,8.34a2.86,2.86,0,0,0-1.51,2.58c0,1.76,1.15,2.77,3.13,2.77a3.91,3.91,0,0,0,2.94-1Z"/></g><g class="cls-3"><path class="cls-4" d="M83.79,211.87c-1.9,0-3.42-.84-3.86-2.1a5.27,5.27,0,0,1-.25-2.21v-7.78H78.25V197.2h1.43a24.7,24.7,0,0,1,.14-3.39l3.81-1a42.91,42.91,0,0,0-.22,4.34h3.36l-1,2.58H83.4V207c0,1.82.34,2.3,1.62,2.3a4.9,4.9,0,0,0,1.34-.28l.48,2.24A7.88,7.88,0,0,1,83.79,211.87Z"/><path class="cls-4" d="M96.36,200.47a2.11,2.11,0,0,0-1.09-.28A3,3,0,0,0,93,201.4v10.14H89.23V202a13,13,0,0,0-.53-4.2l3.36-.9a4.6,4.6,0,0,1,.59,2,4.39,4.39,0,0,1,3.36-2,2.89,2.89,0,0,1,1.4.31Z"/><path class="cls-4" d="M108.66,212.26a4,4,0,0,1-2-1.74,7,7,0,0,1-.87.76,5,5,0,0,1-2.88.78c-3.19,0-4.93-1.62-4.93-4.48,0-3.36,2.32-4.93,6.89-4.93.28,0,.53,0,.84,0v-.59c0-1.6-.31-2.13-1.68-2.13a7.9,7.9,0,0,0-4.14,1.62l-1.6-2.69a13.81,13.81,0,0,1,2.32-1.18,9.71,9.71,0,0,1,3.92-.84c2.41,0,4.06.9,4.62,2.49a6.67,6.67,0,0,1,.25,2.58l-.08,4.82c0,1.57.08,2.24,1.34,3.19Zm-3.19-7c-2.6,0-3.5.48-3.5,2.18a1.7,1.7,0,0,0,1.65,1.88,2.72,2.72,0,0,0,2-1l.06-3.08Z"/><path class="cls-4" d="M115.43,195.57a2.31,2.31,0,0,1-2.29-2.32,2.34,2.34,0,0,1,2.35-2.32,2.29,2.29,0,0,1,2.27,2.32A2.32,2.32,0,0,1,115.43,195.57Zm-1.87,16V197.45l3.75-.59v14.67Z"/><path class="cls-4" d="M129.12,211.53v-9.32c0-1.62-.28-2.1-1.26-2.1a4.37,4.37,0,0,0-2.6,1.29v10.14h-3.75V201.15a10.34,10.34,0,0,0-.5-3.36l3.33-1a3.67,3.67,0,0,1,.53,1.79,16.86,16.86,0,0,1,1.65-1.06,5.9,5.9,0,0,1,2.58-.62,3.56,3.56,0,0,1,3.44,2.07,5.75,5.75,0,0,1,.28,2v10.47Z"/><path class="cls-4" d="M138.9,195.57a2.31,2.31,0,0,1-2.3-2.32,2.34,2.34,0,0,1,2.35-2.32,2.29,2.29,0,0,1,2.27,2.32A2.32,2.32,0,0,1,138.9,195.57Zm-1.88,16V197.45l3.75-.59v14.67Z"/><path class="cls-4" d="M152.59,211.53v-9.32c0-1.62-.28-2.1-1.26-2.1a4.38,4.38,0,0,0-2.6,1.29v10.14H145V201.15a10.34,10.34,0,0,0-.5-3.36l3.33-1a3.67,3.67,0,0,1,.53,1.79,16.86,16.86,0,0,1,1.65-1.06,5.91,5.91,0,0,1,2.58-.62A3.56,3.56,0,0,1,156,199a5.75,5.75,0,0,1,.28,2v10.47Z"/><path class="cls-4" d="M172,199.83a8,8,0,0,1-1-.08,3.46,3.46,0,0,1,.84,2.35c0,2.46-2.24,4.26-5.29,4.26a4.53,4.53,0,0,1-.56,0c-1,.45-1.48.78-1.48,1.18,0,.2.22.34.62.34l2,0c2.18,0,3.33.36,4.34,1.29a3.91,3.91,0,0,1,1.23,3.05,4.08,4.08,0,0,1-1.15,3c-1.26,1.34-3.42,1.85-5.66,1.85-2,0-4.14-.34-5.43-1.54a3.37,3.37,0,0,1-1.18-2.55,2.86,2.86,0,0,1,.34-1.46h3.47a2,2,0,0,0-.17.92c0,1.15,1,1.76,2.69,1.76a4.53,4.53,0,0,0,2.35-.48,1.74,1.74,0,0,0,.92-1.46c0-1.29-1.15-1.68-2.63-1.71l-1.6,0a10.19,10.19,0,0,1-3.44-.45,1.82,1.82,0,0,1-1.09-1.88c0-.92.28-1.79,2.63-2.41a3.71,3.71,0,0,1-3.08-4c0-2.94,2.38-4.84,6-4.84a10.33,10.33,0,0,1,2.58.36,7.52,7.52,0,0,0,1.76.31,4.52,4.52,0,0,0,3-1.23l1.57,2.38A3.57,3.57,0,0,1,172,199.83Zm-6.27-.14a2,2,0,0,0-2.24,2.13c0,1.46.9,2,2.21,2,1.48,0,2.3-.73,2.3-2A2,2,0,0,0,165.78,199.69Z"/></g><circle class="cls-5" cx="123.5" cy="87.3" r="60"/><path class="cls-1" d="M98.2,93v11.1h0v.2h0c0,5.7,11.3,10.3,25.3,10.3s25.2-4.6,25.2-10.3h0v-.2h0V93l-25.2,7.8Z"/><path class="cls-1" d="M158.8,92.1v-.8a.84.84,0,0,0-.4-.7V84.1l7.8-2.4L123.5,68.6,80.8,81.7l42.7,13.1,33.8-10.4v6.1a.84.84,0,0,0-.4.7V92a.78.78,0,0,0,.3.7l-1.3,7.2h3.8l-1.3-7.2c.3,0,.4-.2.4-.6"/><circle class="cls-1" cx="1750.7" cy="128.7" r="125"/><rect class="cls-2" x="1677.6" y="167.3" width="143.2" height="61.5"/><g class="cls-3"><path class="cls-4" d="M1681,187.23V167.77H1692l-.5,3.19h-6.61v4.51h5.52v3.19h-5.52v5.21h7.36v3.36Z"/><path class="cls-4" d="M1703.44,187.23a2.55,2.55,0,0,1-.22-.84,4.81,4.81,0,0,1-3.3,1.2c-3.64,0-5.94-2.83-5.94-7.28s2.49-7.56,6.13-7.56a3.86,3.86,0,0,1,2.55.81,17.74,17.74,0,0,1-.11-2.13v-4.93l3.72.59V182c0,3.53.28,4.68.53,5.24Zm-.84-10.56a3.12,3.12,0,0,0-2-.92c-1.68,0-2.41,1.4-2.41,4.59s.64,4.09,2.61,4.09a2.68,2.68,0,0,0,1.85-.92Z"/><path class="cls-4" d="M1719.76,187.62a3.28,3.28,0,0,1-1.12-1.4,5.35,5.35,0,0,1-3.78,1.37c-2,0-3.75-1-4.23-2.32a8.6,8.6,0,0,1-.31-2.86v-9.18l3.7-.7v9.21a5.68,5.68,0,0,0,.31,2.35,1.51,1.51,0,0,0,1.32.67,2.77,2.77,0,0,0,2.32-1.37V173.31l3.58-.76v10.95a4.16,4.16,0,0,0,.87,2.6Z"/><path class="cls-4" d="M1734.66,186.67a6.7,6.7,0,0,1-3.5.9c-3.95,0-6.24-2.74-6.24-7.39,0-3.3,1.26-5.49,2.94-6.64a6.79,6.79,0,0,1,3.55-1.06,6.11,6.11,0,0,1,2.77.64,6.32,6.32,0,0,1,1.4,1l-1.82,2.46a3.62,3.62,0,0,0-2.27-1.12c-1.68,0-2.44,1.46-2.44,4.82,0,1.88.25,3,.73,3.61a2.16,2.16,0,0,0,1.68.81,3.83,3.83,0,0,0,2.58-1.18l.22-.2,1.71,2.27A6,6,0,0,1,1734.66,186.67Z"/><path class="cls-4" d="M1748.07,188a4,4,0,0,1-2-1.74,7,7,0,0,1-.87.76,5,5,0,0,1-2.88.78c-3.19,0-4.93-1.62-4.93-4.48,0-3.36,2.32-4.93,6.89-4.93.28,0,.53,0,.84,0v-.59c0-1.6-.31-2.13-1.68-2.13a7.9,7.9,0,0,0-4.14,1.62l-1.6-2.69a13.8,13.8,0,0,1,2.32-1.18,9.71,9.71,0,0,1,3.92-.84c2.41,0,4.06.9,4.62,2.49a6.67,6.67,0,0,1,.25,2.58l-.08,4.82c0,1.57.08,2.24,1.34,3.19Zm-3.19-7c-2.6,0-3.5.48-3.5,2.18A1.7,1.7,0,0,0,1743,185a2.71,2.71,0,0,0,2-1L1745,181Z"/><path class="cls-4" d="M1757.08,187.57c-1.9,0-3.42-.84-3.86-2.1a5.25,5.25,0,0,1-.25-2.21v-7.78h-1.43v-2.58H1753a24.7,24.7,0,0,1,.14-3.39l3.81-1a43.19,43.19,0,0,0-.22,4.34h3.36l-1,2.58h-2.41v7.2c0,1.82.34,2.3,1.63,2.3a4.9,4.9,0,0,0,1.34-.28l.48,2.24A7.89,7.89,0,0,1,1757.08,187.57Z"/><path class="cls-4" d="M1764.67,171.27a2.31,2.31,0,0,1-2.29-2.32,2.34,2.34,0,0,1,2.35-2.32,2.29,2.29,0,0,1,2.27,2.32A2.32,2.32,0,0,1,1764.67,171.27Zm-1.87,16V173.15l3.75-.59v14.67Z"/><path class="cls-4" d="M1780.94,185.55a5.86,5.86,0,0,1-4.73,2c-3.89,0-6.44-2.91-6.44-7.42s2.57-7.5,6.44-7.5a6,6,0,0,1,4.87,2.16,7.45,7.45,0,0,1,1.65,5.24A7.79,7.79,0,0,1,1780.94,185.55Zm-3.05-9.41a2.05,2.05,0,0,0-3.56.7,13.62,13.62,0,0,0,.08,6.8,2.07,2.07,0,0,0,1.9,1.18c1.63,0,2.32-1.46,2.32-4.84C1778.64,178,1778.39,176.79,1777.89,176.14Z"/><path class="cls-4" d="M1793.57,187.23v-9.32c0-1.62-.28-2.1-1.26-2.1a4.38,4.38,0,0,0-2.61,1.29v10.14H1786V176.84a10.34,10.34,0,0,0-.5-3.36l3.33-1a3.67,3.67,0,0,1,.53,1.79,16.41,16.41,0,0,1,1.65-1.06,5.89,5.89,0,0,1,2.57-.62,3.57,3.57,0,0,1,3.45,2.07,5.8,5.8,0,0,1,.28,2v10.47Z"/><path class="cls-4" d="M1820.48,187.23l-1.18-1.18a6.66,6.66,0,0,1-1.68,1,10.3,10.3,0,0,1-3.67.56c-4.48,0-7-1.93-7-5.29,0-2.18,1.15-3.75,3.5-4.84a5.45,5.45,0,0,1-1.82-2,6,6,0,0,1-.45-2.21c0-2.77,2.29-4.7,5.6-4.7s5.68,1.82,5.68,4.42a4.13,4.13,0,0,1-1,2.69,8.92,8.92,0,0,1-2.46,1.74l-.25.14,3.25,3.08a8.36,8.36,0,0,0,.25-2.74v-.2h3.14v.17a12.8,12.8,0,0,1-.9,5.21l4.17,4.14Zm-6.69-16A1.71,1.71,0,0,0,1812,173c0,.81.28,1.26,1.46,2.46l.22.22a3,3,0,0,0,1.85-2.63A1.75,1.75,0,0,0,1813.78,171.19Zm-1.34,8.34a2.86,2.86,0,0,0-1.51,2.58c0,1.76,1.15,2.77,3.13,2.77a3.91,3.91,0,0,0,2.94-1Z"/></g><g class="cls-3"><path class="cls-4" d="M1709.47,215.57c-1.9,0-3.41-.84-3.86-2.1a5.28,5.28,0,0,1-.25-2.21v-7.78h-1.43v-2.58h1.43a24.7,24.7,0,0,1,.14-3.39l3.81-1a43.21,43.21,0,0,0-.22,4.34h3.36l-1,2.58h-2.41v7.2c0,1.82.34,2.3,1.62,2.3a4.9,4.9,0,0,0,1.35-.28l.47,2.24A7.88,7.88,0,0,1,1709.47,215.57Z"/><path class="cls-4" d="M1722,204.17a2.11,2.11,0,0,0-1.09-.28,3,3,0,0,0-2.29,1.2v10.14h-3.75v-9.58a13,13,0,0,0-.53-4.2l3.36-.9a4.62,4.62,0,0,1,.59,2,4.39,4.39,0,0,1,3.36-2,2.89,2.89,0,0,1,1.4.31Z"/><path class="cls-4" d="M1734.33,216a4,4,0,0,1-2-1.74,6.84,6.84,0,0,1-.87.76,5,5,0,0,1-2.88.78c-3.19,0-4.93-1.62-4.93-4.48,0-3.36,2.32-4.93,6.89-4.93.28,0,.53,0,.84,0v-.59c0-1.6-.31-2.13-1.68-2.13a7.9,7.9,0,0,0-4.14,1.62l-1.6-2.69a13.9,13.9,0,0,1,2.32-1.18,9.71,9.71,0,0,1,3.92-.84c2.41,0,4.06.9,4.62,2.49a6.67,6.67,0,0,1,.25,2.58l-.08,4.82c0,1.57.08,2.24,1.34,3.19Zm-3.19-7c-2.6,0-3.5.48-3.5,2.18a1.7,1.7,0,0,0,1.65,1.88,2.72,2.72,0,0,0,2-1l.06-3.08Z"/><path class="cls-4" d="M1741.11,199.27a2.31,2.31,0,0,1-2.29-2.32,2.34,2.34,0,0,1,2.35-2.32,2.29,2.29,0,0,1,2.27,2.32A2.32,2.32,0,0,1,1741.11,199.27Zm-1.87,16V201.15l3.75-.59v14.67Z"/><path class="cls-4" d="M1754.8,215.23v-9.32c0-1.62-.28-2.1-1.26-2.1a4.37,4.37,0,0,0-2.6,1.29v10.14h-3.75V204.84a10.34,10.34,0,0,0-.5-3.36l3.33-1a3.67,3.67,0,0,1,.53,1.79,16.86,16.86,0,0,1,1.65-1.06,5.9,5.9,0,0,1,2.58-.62,3.56,3.56,0,0,1,3.44,2.07,5.75,5.75,0,0,1,.28,2v10.47Z"/><path class="cls-4" d="M1764.57,199.27a2.31,2.31,0,0,1-2.3-2.32,2.34,2.34,0,0,1,2.35-2.32,2.29,2.29,0,0,1,2.27,2.32A2.32,2.32,0,0,1,1764.57,199.27Zm-1.88,16V201.15l3.75-.59v14.67Z"/><path class="cls-4" d="M1778.26,215.23v-9.32c0-1.62-.28-2.1-1.26-2.1a4.38,4.38,0,0,0-2.6,1.29v10.14h-3.75V204.84a10.34,10.34,0,0,0-.5-3.36l3.33-1a3.67,3.67,0,0,1,.53,1.79,16.86,16.86,0,0,1,1.65-1.06,5.91,5.91,0,0,1,2.58-.62,3.56,3.56,0,0,1,3.44,2.07,5.75,5.75,0,0,1,.28,2v10.47Z"/><path class="cls-4" d="M1797.72,203.53a8,8,0,0,1-1-.08,3.46,3.46,0,0,1,.84,2.35c0,2.46-2.24,4.26-5.29,4.26a4.53,4.53,0,0,1-.56,0c-1,.45-1.48.78-1.48,1.18,0,.2.22.34.62.34l2,0c2.18,0,3.33.36,4.34,1.29a3.91,3.91,0,0,1,1.23,3.05,4.08,4.08,0,0,1-1.15,3c-1.26,1.34-3.42,1.85-5.66,1.85-2,0-4.14-.34-5.43-1.54a3.37,3.37,0,0,1-1.18-2.55,2.86,2.86,0,0,1,.34-1.46h3.47a2,2,0,0,0-.17.92c0,1.15,1,1.76,2.69,1.76a4.53,4.53,0,0,0,2.35-.48,1.74,1.74,0,0,0,.92-1.46c0-1.29-1.15-1.68-2.63-1.71l-1.6,0a10.19,10.19,0,0,1-3.44-.45,1.82,1.82,0,0,1-1.09-1.88c0-.92.28-1.79,2.63-2.41a3.71,3.71,0,0,1-3.08-4c0-2.94,2.38-4.84,6-4.84a10.33,10.33,0,0,1,2.58.36,7.52,7.52,0,0,0,1.76.31,4.52,4.52,0,0,0,3-1.23l1.57,2.38A3.57,3.57,0,0,1,1797.72,203.53Zm-6.27-.14a2,2,0,0,0-2.24,2.13c0,1.46.9,2,2.21,2,1.48,0,2.3-.73,2.3-2A2,2,0,0,0,1791.45,203.39Z"/></g><circle class="cls-5" cx="1749.2" cy="91" r="60"/><path class="cls-1" d="M1723.9,96.7v11.1h0v.2h0c0,5.7,11.3,10.3,25.3,10.3s25.2-4.6,25.2-10.3h0v-.2h0V96.7l-25.2,7.8Z"/><path class="cls-1" d="M1784.5,95.8V95a.84.84,0,0,0-.4-.7V87.8l7.8-2.4-42.7-13.1-42.7,13.1,42.7,13.1L1783,88.1v6.1a.84.84,0,0,0-.4.7v.8a.78.78,0,0,0,.3.7l-1.3,7.2h3.8l-1.3-7.2c.2,0,.4-.3.4-.6"/><circle class="cls-1" cx="1111" cy="128.7" r="125"/><rect class="cls-2" x="1019.3" y="167.3" width="183.4" height="58.5"/><g class="cls-3"><path class="cls-4" d="M1081.94,188.41a7.94,7.94,0,0,1-6.36-2.69,10.15,10.15,0,0,1-2.35-7,12.46,12.46,0,0,1,1.32-6,8.36,8.36,0,0,1,7.45-4.51,8,8,0,0,1,4.93,1.54l-1.77,2.66a5.12,5.12,0,0,0-3.11-1.09,4,4,0,0,0-3.3,1.68,8.94,8.94,0,0,0-1.09,5c0,2.66.22,4.14.81,5.21a4,4,0,0,0,3.75,2.18,5,5,0,0,0,3.33-1.26l1.79,2.46A7.94,7.94,0,0,1,1081.94,188.41Z"/><path class="cls-4" d="M1097,177a2.11,2.11,0,0,0-1.09-.28,3,3,0,0,0-2.29,1.2v10.14h-3.75v-9.58a13,13,0,0,0-.53-4.2l3.36-.9a4.59,4.59,0,0,1,.59,2,4.39,4.39,0,0,1,3.36-2,2.89,2.89,0,0,1,1.4.31Z"/><path class="cls-4" d="M1109.58,186.39a5.86,5.86,0,0,1-4.73,2c-3.89,0-6.44-2.91-6.44-7.42s2.58-7.5,6.44-7.5a6,6,0,0,1,4.87,2.16,7.45,7.45,0,0,1,1.65,5.24A7.78,7.78,0,0,1,1109.58,186.39Zm-3.05-9.41a2.05,2.05,0,0,0-3.55.7,13.56,13.56,0,0,0,.08,6.8,2.07,2.07,0,0,0,1.9,1.18c1.62,0,2.32-1.46,2.32-4.84C1107.28,178.89,1107,177.63,1106.53,177Z"/><path class="cls-4" d="M1119,188.52a12.76,12.76,0,0,1-5.8-1.65l1.35-2.74a10.46,10.46,0,0,0,4.76,1.62,1.76,1.76,0,0,0,1.9-1.62c0-1-.7-1.48-2.21-1.76l-1.68-.31a5.06,5.06,0,0,1-2.63-1.46,4.34,4.34,0,0,1-.81-2.58c0-2.8,2.21-4.68,5.54-4.68a10.76,10.76,0,0,1,5.13,1.34l-1.23,2.52a7.59,7.59,0,0,0-3.53-1c-1.09,0-1.82.56-1.82,1.4s.48,1.12,1.79,1.46l1.74.45a4.46,4.46,0,0,1,2.86,1.62,3.79,3.79,0,0,1,.79,2.44C1125.12,186.5,1122.66,188.52,1119,188.52Z"/><path class="cls-4" d="M1132.46,188.52a12.76,12.76,0,0,1-5.8-1.65l1.34-2.74a10.47,10.47,0,0,0,4.76,1.62,1.75,1.75,0,0,0,1.9-1.62c0-1-.7-1.48-2.21-1.76l-1.68-.31a5.06,5.06,0,0,1-2.63-1.46,4.35,4.35,0,0,1-.81-2.58c0-2.8,2.21-4.68,5.54-4.68a10.76,10.76,0,0,1,5.12,1.34l-1.23,2.52a7.59,7.59,0,0,0-3.53-1c-1.09,0-1.82.56-1.82,1.4s.47,1.12,1.79,1.46l1.74.45a4.46,4.46,0,0,1,2.86,1.62,3.8,3.8,0,0,1,.79,2.44C1138.59,186.5,1136.12,188.52,1132.46,188.52Z"/><path class="cls-4" d="M1140.83,182v-3.25h6.72V182Z"/></g><g class="cls-3"><path class="cls-4" d="M1051.44,204.37a7.91,7.91,0,0,1-1-.08,3.47,3.47,0,0,1,.84,2.35c0,2.46-2.24,4.26-5.29,4.26a4.5,4.5,0,0,1-.56,0c-1,.45-1.48.78-1.48,1.18,0,.2.22.34.62.34l2,0c2.19,0,3.33.36,4.34,1.29a3.91,3.91,0,0,1,1.23,3.05,4.07,4.07,0,0,1-1.15,3c-1.26,1.34-3.41,1.85-5.66,1.85-2,0-4.14-.34-5.43-1.54a3.37,3.37,0,0,1-1.18-2.55,2.89,2.89,0,0,1,.34-1.46h3.47a2,2,0,0,0-.17.92c0,1.15,1,1.76,2.69,1.76a4.54,4.54,0,0,0,2.35-.48,1.74,1.74,0,0,0,.92-1.46c0-1.29-1.15-1.68-2.63-1.71l-1.6,0a10.21,10.21,0,0,1-3.45-.45,1.82,1.82,0,0,1-1.09-1.88c0-.92.28-1.79,2.63-2.41a3.71,3.71,0,0,1-3.08-4c0-2.94,2.38-4.84,6-4.84a10.35,10.35,0,0,1,2.58.36,7.53,7.53,0,0,0,1.76.31,4.51,4.51,0,0,0,3-1.23l1.57,2.38A3.57,3.57,0,0,1,1051.44,204.37Zm-6.27-.14a2,2,0,0,0-2.24,2.13c0,1.46.9,2,2.21,2,1.48,0,2.3-.73,2.3-2A2,2,0,0,0,1045.17,204.23Z"/><path class="cls-4" d="M1065.55,214.39a5.86,5.86,0,0,1-4.73,2c-3.89,0-6.44-2.91-6.44-7.42s2.58-7.5,6.44-7.5a6,6,0,0,1,4.87,2.16,7.45,7.45,0,0,1,1.65,5.24A7.78,7.78,0,0,1,1065.55,214.39ZM1062.5,205a2.05,2.05,0,0,0-3.55.7,13.59,13.59,0,0,0,.08,6.8,2.07,2.07,0,0,0,1.9,1.18c1.63,0,2.32-1.46,2.32-4.84C1063.25,206.89,1063,205.63,1062.5,205Z"/><path class="cls-4" d="M1076.5,216.07h-3.11L1068.18,202l3.84-.48,2.07,6.47c.31,1,.73,2.52.92,3.44a24.2,24.2,0,0,1,.87-3.64l1.93-6h3.92Z"/><path class="cls-4" d="M1086.52,210.08v.11c0,2.21,1.09,3.47,3,3.47a5.6,5.6,0,0,0,3.64-1.43l1.46,2.24a8.23,8.23,0,0,1-5.4,2c-4.12,0-6.78-2.91-6.78-7.42,0-2.58.53-4.28,1.79-5.68a5.64,5.64,0,0,1,4.51-1.93,5.86,5.86,0,0,1,4.14,1.51c1.32,1.34,1.9,3.28,1.9,6.27v.87Zm4.4-2.91a3.69,3.69,0,0,0-.45-2.16,1.82,1.82,0,0,0-1.65-.84c-1.43,0-2.24,1.12-2.24,3.11v.06h4.34Z"/><path class="cls-4" d="M1104.89,205a2.12,2.12,0,0,0-1.09-.28,3,3,0,0,0-2.3,1.2v10.14h-3.75v-9.58a13,13,0,0,0-.53-4.2l3.36-.9a4.59,4.59,0,0,1,.59,2,4.4,4.4,0,0,1,3.36-2,2.89,2.89,0,0,1,1.4.31Z"/><path class="cls-4" d="M1115.36,216.07v-9.32c0-1.62-.28-2.1-1.26-2.1a4.37,4.37,0,0,0-2.61,1.29v10.14h-3.75V205.68a10.34,10.34,0,0,0-.5-3.36l3.33-1a3.67,3.67,0,0,1,.53,1.79,16.6,16.6,0,0,1,1.65-1.06,5.9,5.9,0,0,1,2.58-.62,3.57,3.57,0,0,1,3.45,2.07,5.8,5.8,0,0,1,.28,2v10.47Z"/><path class="cls-4" d="M1137.9,216.07v-9.46c0-1.71-.2-2-1.18-2a4.26,4.26,0,0,0-2.49,1.2v10.3h-3.56v-9.32c0-1.79-.25-2.21-1.29-2.21a4,4,0,0,0-2.46,1.09v10.44h-3.67v-10c0-2.07-.14-3-.53-3.67l3.39-.92a3.62,3.62,0,0,1,.5,1.46,4.94,4.94,0,0,1,3.5-1.46,3.88,3.88,0,0,1,2.91,1.18,4.79,4.79,0,0,1,.56.7,5.27,5.27,0,0,1,4.06-1.88,4.44,4.44,0,0,1,2.83.9c.81.7,1.06,1.54,1.06,3.5v10.19Z"/><path class="cls-4" d="M1149,210.08v.11c0,2.21,1.09,3.47,3,3.47a5.6,5.6,0,0,0,3.64-1.43l1.46,2.24a8.23,8.23,0,0,1-5.4,2c-4.12,0-6.78-2.91-6.78-7.42,0-2.58.53-4.28,1.79-5.68a5.63,5.63,0,0,1,4.51-1.93,5.87,5.87,0,0,1,4.14,1.51c1.32,1.34,1.9,3.28,1.9,6.27v.87Zm4.4-2.91a3.69,3.69,0,0,0-.45-2.16,1.82,1.82,0,0,0-1.65-.84c-1.43,0-2.24,1.12-2.24,3.11v.06h4.34Z"/><path class="cls-4" d="M1167.81,216.07v-9.32c0-1.62-.28-2.1-1.26-2.1a4.38,4.38,0,0,0-2.6,1.29v10.14h-3.75V205.68a10.34,10.34,0,0,0-.5-3.36l3.33-1a3.67,3.67,0,0,1,.53,1.79,16.86,16.86,0,0,1,1.65-1.06,5.9,5.9,0,0,1,2.58-.62,3.56,3.56,0,0,1,3.44,2.07,5.75,5.75,0,0,1,.28,2v10.47Z"/><path class="cls-4" d="M1179.82,216.41c-1.9,0-3.42-.84-3.86-2.1a5.25,5.25,0,0,1-.25-2.21v-7.78h-1.43v-2.58h1.43a24.7,24.7,0,0,1,.14-3.39l3.81-1a43.19,43.19,0,0,0-.22,4.34h3.36l-1,2.58h-2.41v7.2c0,1.82.34,2.3,1.63,2.3a4.9,4.9,0,0,0,1.34-.28l.48,2.24A7.88,7.88,0,0,1,1179.82,216.41Z"/></g><image class="cls-6" width="181" height="181" transform="translate(1020.3 4.72)" xlink:href="../AppData/Local/Packages/Microsoft.SkypeApp_kzf8qxf38zg5c/LocalState/Downloads/ECF25F83.png"/><circle class="cls-7" cx="1111" cy="91" r="60"/><path class="cls-1" d="M1096.2,79.1a2.14,2.14,0,0,0-.9.6c-.3.4-.2.6,0,.5s.4.1.6-.1.4.3.4-.1.4-.3.7-.4.3-.2.1-.4a2.48,2.48,0,0,0-.9-.1"/><path class="cls-1" d="M1096.3,81s-.1.2-.2.2-.2.5,0,.4.5-.1.5,0,.2-.1,0-.3-.2-.3-.3-.3"/><path class="cls-1" d="M1105,58.7a.77.77,0,0,1-.3-.1c-.2-.1-.2.1-.1.2s.2.3.4.2.4-.1.3-.3a.19.19,0,0,0-.3,0"/><path class="cls-1" d="M1104.9,60s-.1.3-.3.3-.2.4,0,.4.3-.3.4-.3.2-.3.1-.3c0-.2,0-.1-.2-.1"/><path class="cls-1" d="M1131.4,98.7s.1.2-.1.2-.2.1,0,.3a.82.82,0,0,1,.4.6c0,.2,0,.5.2.3s.2-.3.3-.3,0-.3-.2-.5a1.76,1.76,0,0,1-.4-.5c0-.2-.3-.2-.2-.1"/><path class="cls-1" d="M1133.3,103.4s-.3-.2-.2.1.2.3.3.6.3.4.5.3.1-.2-.1-.5-.4-.6-.5-.5"/><path class="cls-1" d="M1140.5,107.7a.74.74,0,0,1-.3.3c-.2.1-.1.2,0,.4s.1.4-.1.7-.4.4-.4.6.2.6,0,.8-.2.3-.1.6.1.7.2.5,0-1.1.3-1.4.3-.7.4-.9.4-.5.2-.7a.39.39,0,0,1-.1-.6,1.06,1.06,0,0,0-.1-.3"/><path class="cls-1" d="M1141.1,115.8a.35.35,0,0,0-.1.5c.1.3.1.9.2.7a2.78,2.78,0,0,0,.1-.9c.1-.2-.2-.3-.2-.3"/><path class="cls-1" d="M1141.3,117a1,1,0,0,0-.1.4v1.4c0,.2.1.3.1.2s0-.7.2-1,0-.6,0-.7c-.1-.3-.2-.3-.2-.3"/><path class="cls-1" d="M1116,122.5c.3-.3,1-1,1.7-.7a1,1,0,0,0,1.2-.1c.2-.2,1.4,0,1.9.1s1.6.4,1.8,1,.6,1.1,1.1.3a2.66,2.66,0,0,1,1.5-1.2,11.4,11.4,0,0,0,1.6-.9c.4-.2,1.2-.6,1.8-.3s1.3-.9,1.7-1.1h0a3.41,3.41,0,0,1-.1-1,3.49,3.49,0,0,0-.5-1.3c-.2-.4-.5-.5-.3-1.2s-.1-.7,0-1.4-.3-.5-.3-1.1.3-.7.3-1.1-.2-.4-.4-.3,0-.4-.2-.7-.5-.5-.2-.8a.39.39,0,0,0-.2-.7,1.4,1.4,0,0,1-1.1-.8c-.3-.6-.1-.9-.6-1.1s-1.3-.7-1.2-.8,0-.6-.2-.9-.5-.9-1.2-.8-.9-.5-1.2-.9a3.77,3.77,0,0,1-1-1.2,5.84,5.84,0,0,1-.2-1.8c0-.4.3-.9.1-1.3s-.2-.2-.3,0a.42.42,0,0,1-.7,0c-.2-.3-1.1-.7-1.2-1.1s-.1-.5-.5-.7-.4.2-.3.4.3.3.2.6a.62.62,0,0,0,.2.7c.2.2.1.4-.1.1s-.3-.6-.5-.6-.1.2-.4-.2-.2-.7-.4-1.1a1.8,1.8,0,0,1-.3-1.2c.1-.4.2-.5-.2-.8a1,1,0,0,1-.4-1q.15-.6-.3-.6c-.3,0-.3-.2-.3-.4s-.1,0-.4-.1a.74.74,0,0,1-.6-.6c-.1-.3-.3-.9.1-.7s.5.4.5.2a2.39,2.39,0,0,0-.7-1.1c-.5-.3-.4-.2-.5-.4a.28.28,0,0,0-.5,0c0,.2-.4,0-.5-.4s-.4-.3-.8-.4-.4.1-.5-.3-.4-.2-.4,0a.33.33,0,0,1-.6-.2c0-.4.2-.7-.2-1.2s-.1-.1-.4,0-1,.2-1.1-.3-.4-.3-.5-.6-.4.1-.6.2-1.4-.4-1.3-1a5.76,5.76,0,0,0,.1-1.2c0-.4.1-.6-.2-.9s-.6-.3-.6,0-.4-.2-.3-.5a2.3,2.3,0,0,0,.4-1.4c-.1-.5-.7-1.6-.6-2a.52.52,0,0,0-.2-.8c-.3-.1-1.1-.6-1.2-1.1s.2-1.1-.2-1.7-.6-1.1-.4-1.6.2-.6-.1-.7-.2-.4,0-.6.2-.3-.2-.7a8.53,8.53,0,0,0-1.4-1.1c-.5-.3-.3-.4-.3-.8s-.3-.6-.7-.4-.6,0-.8.3-.3.6-.8.6-.8-.1-.7-.7a1.74,1.74,0,0,0-.4-1.2.93.93,0,0,1-.1-1,1.67,1.67,0,0,0,0-1,8.67,8.67,0,0,1-.1-1.5c0-.3-.2-.2-.3,0s-.2-.4,0-.6-.3-.3-.5-.5-.2-.6-.6-.6-.1-.5.2-.8,0-.5-.2-.5-.7,0-.7-.7a3.46,3.46,0,0,0-.1-1.2c-.2-.3,0-.7-.3-1.1s-.7-.3-.6-.6,0-.4-.3-.4-.3.5-.8.6-.5.5-.5.9.1,1.4-.2,1.7a.75.75,0,0,0-.2.7c0,.2.1.6-.1.5s-.4-.3-.5,0a6.89,6.89,0,0,1-.3.8c-.1.2-.3.6.1.7s.7.2.6.4,0,.7-.2.3-.3-.3-.3-.1a.6.6,0,0,1-.3.6c-.2.2-.3.3,0,.5s.5.7.3.8-.6,0-.6.6-.2,1.4,0,1.7a1.09,1.09,0,0,1,.1,1.1c-.2.3-.1,1-.1,1.2s.3.6.3,1a1.49,1.49,0,0,1-.4.9,4.78,4.78,0,0,0-.5,1.1c0,.2.1.5,0,.6s-.1.4,0,.6a.64.64,0,0,1,0,.6,1.89,1.89,0,0,0-.4.9,1.61,1.61,0,0,1-.6,1.3c-.4.2-.3.8-.4,1.1a2.51,2.51,0,0,1-.7,1.2c-.4.2-1.6.9-2.2.6s-1.4-.5-1.6-.9-.9-.1-1-.6-.5-1.3-1.1-1.4a6,6,0,0,1-2.2-.6,5.69,5.69,0,0,0-.7-.4v32.8h9.5V123h25.2c-.2,0,.4-.2.7-.5"/><polygon class="cls-8" points="1101 0 1111 17.4 1121 0 1101 0"/><circle class="cls-1" cx="1429.6" cy="128.7" r="125"/><rect class="cls-2" x="1374.3" y="167.3" width="111.6" height="30.8"/><g class="cls-3"><path class="cls-4" d="M1412.58,188.24h-4.29l-1.73-7.92a49.07,49.07,0,0,1-.93-5.49c-.08.53-.42,2.94-.92,5.43l-1.62,8h-4.45L1394,168.61h4.14l1.68,7.67c.73,3.39,1,6,1,6.38a60.8,60.8,0,0,1,1-6.19l1.74-7.87h4.28l1.79,8.71c.36,1.74.78,4.82.84,5.12.06-.67.64-4.56,1.06-6.44l1.6-7.39h4.12Z"/><path class="cls-4" d="M1428.73,188.8a4,4,0,0,1-2-1.74,7.12,7.12,0,0,1-.87.76,5,5,0,0,1-2.88.78c-3.19,0-4.93-1.62-4.93-4.48,0-3.36,2.32-4.93,6.89-4.93.28,0,.53,0,.84,0v-.59c0-1.6-.31-2.13-1.68-2.13a7.91,7.91,0,0,0-4.14,1.62l-1.6-2.69a13.82,13.82,0,0,1,2.32-1.18,9.7,9.7,0,0,1,3.92-.84c2.41,0,4.06.9,4.62,2.49a6.64,6.64,0,0,1,.25,2.58l-.08,4.82c0,1.57.08,2.24,1.34,3.19Zm-3.19-7c-2.61,0-3.5.48-3.5,2.18a1.7,1.7,0,0,0,1.65,1.88,2.72,2.72,0,0,0,2-1l.06-3.08Z"/><path class="cls-4" d="M1437.75,188.41c-1.9,0-3.42-.84-3.86-2.1a5.24,5.24,0,0,1-.25-2.21v-7.78h-1.43v-2.58h1.43a24.7,24.7,0,0,1,.14-3.39l3.81-1a42.62,42.62,0,0,0-.22,4.34h3.36l-1,2.58h-2.41v7.2c0,1.82.34,2.3,1.62,2.3a4.9,4.9,0,0,0,1.35-.28l.47,2.24A7.87,7.87,0,0,1,1437.75,188.41Z"/><path class="cls-4" d="M1446.32,182.08v.11c0,2.21,1.09,3.47,3,3.47a5.61,5.61,0,0,0,3.64-1.43l1.46,2.24a8.22,8.22,0,0,1-5.4,2c-4.12,0-6.78-2.91-6.78-7.42,0-2.58.53-4.28,1.79-5.68a5.63,5.63,0,0,1,4.51-1.93,5.87,5.87,0,0,1,4.14,1.51c1.31,1.34,1.9,3.28,1.9,6.27v.87Zm4.4-2.91a3.69,3.69,0,0,0-.45-2.16,1.81,1.81,0,0,0-1.65-.84c-1.43,0-2.24,1.12-2.24,3.11v.06h4.34Z"/><path class="cls-4" d="M1464.68,177a2.11,2.11,0,0,0-1.09-.28,3,3,0,0,0-2.3,1.2v10.14h-3.75v-9.58a13,13,0,0,0-.53-4.2l3.36-.9a4.59,4.59,0,0,1,.59,2,4.4,4.4,0,0,1,3.36-2,2.9,2.9,0,0,1,1.4.31Z"/></g><image class="cls-6" width="181" height="181" transform="translate(1339.3 4.72)" xlink:href="../AppData/Local/Packages/Microsoft.SkypeApp_kzf8qxf38zg5c/LocalState/Downloads/ECF25F9C.png"/><circle class="cls-7" cx="1430.1" cy="91" r="60"/><path class="cls-1" d="M1432.4,124.4a10,10,0,0,1-10-10,2.33,2.33,0,0,1,2.3-2.3,2.26,2.26,0,0,1,2.3,2.3,5.55,5.55,0,0,0,5.5,5.5,2.33,2.33,0,0,1,2.3,2.3,2.47,2.47,0,0,1-2.4,2.2m8.9-24.1c-2.6-4.2-5.1-7.7-5.2-7.9l-1.8-2.5-1.8-2.5-1.8,2.5-1.8,2.5c-.1.2-2.6,3.6-5.2,7.9-3.8,6.4-5.6,10.8-5.6,14a14.5,14.5,0,0,0,29,0c-.2-3.1-2-7.6-5.8-14"/><path class="cls-1" d="M1410.9,101.2a8.39,8.39,0,0,1-8.4-8.4,1.9,1.9,0,0,1,1.9-1.9,1.84,1.84,0,0,1,1.9,1.9,4.59,4.59,0,0,0,4.6,4.6,1.9,1.9,0,1,1,0,3.8m7.5-20.3c-2.2-3.6-4.3-6.5-4.4-6.6l-1.6-2.1-1.5-2.1-1.5,2.1-1.5,2.1c-.1.1-2.2,3.1-4.4,6.6-3.2,5.4-4.8,9.1-4.8,11.8a12.2,12.2,0,0,0,24.4,0c.1-2.7-1.4-6.4-4.7-11.8"/><path class="cls-1" d="M1449.2,88.1a8.45,8.45,0,0,1-8.4-8.4,1.9,1.9,0,0,1,3.8,0,4.59,4.59,0,0,0,4.6,4.6,1.9,1.9,0,1,1,0,3.8m7.5-20.3c-2.2-3.6-4.3-6.5-4.4-6.6l-1.5-2.1-1.5-2.1-1.5,2.1-1.5,2.1c-.1.1-2.2,3.1-4.4,6.6-3.2,5.4-4.8,9.1-4.8,11.8a12.2,12.2,0,0,0,24.4,0c0-2.7-1.5-6.4-4.8-11.8"/><polygon class="cls-8" points="1420.1 0 1430.1 17.4 1440.1 0 1420.1 0"/><rect class="cls-1" x="2460.8" y="-501.3" width="1108.4" height="1893.6"/><path class="cls-9" d="M2989.1,90.2a9.82,9.82,0,0,1-9.8,9.8H2548.9a9.82,9.82,0,0,1-9.8-9.8V9.8a9.82,9.82,0,0,1,9.8-9.8h430.4a9.82,9.82,0,0,1,9.8,9.8Z"/><g class="cls-3"><path class="cls-4" d="M2626.11,59c-1-1.66-1.37-2.34-2.34-4.1-2.48-4.5-3.24-5.72-4.14-6.12a2.54,2.54,0,0,0-.79-.22V59h-4.93v-25h9.32a6.93,6.93,0,0,1,7.34,7.34c0,3.74-2.48,6.84-5.58,6.91a4.78,4.78,0,0,1,1,1c1.29,1.62,5.11,8.13,6,9.72Zm-2.63-20.62a9.05,9.05,0,0,0-2.84-.36h-1.8v6.77h1.69c2.16,0,3.1-.22,3.78-.83a3.42,3.42,0,0,0,1-2.52A2.93,2.93,0,0,0,2623.48,38.33Z"/><path class="cls-4" d="M2639.07,51.26v.14c0,2.84,1.4,4.46,3.89,4.46a7.21,7.21,0,0,0,4.68-1.84l1.87,2.88a10.58,10.58,0,0,1-6.95,2.56c-5.29,0-8.71-3.74-8.71-9.54,0-3.31.68-5.51,2.3-7.31a7.24,7.24,0,0,1,5.79-2.48,7.54,7.54,0,0,1,5.33,1.94c1.69,1.73,2.45,4.21,2.45,8.06v1.12Zm5.65-3.74a4.75,4.75,0,0,0-.58-2.77,2.33,2.33,0,0,0-2.12-1.08c-1.84,0-2.88,1.44-2.88,4v.07h5.58Z"/><path class="cls-4" d="M2672.33,59V46.79c0-2.2-.25-2.63-1.51-2.63a5.49,5.49,0,0,0-3.2,1.55V59H2663V47c0-2.3-.32-2.84-1.66-2.84a5.11,5.11,0,0,0-3.17,1.4V59h-4.71V46.11c0-2.66-.18-3.82-.68-4.71l4.36-1.19a4.68,4.68,0,0,1,.65,1.87,6.35,6.35,0,0,1,4.5-1.87,5,5,0,0,1,3.74,1.51,6,6,0,0,1,.72.9,6.77,6.77,0,0,1,5.22-2.41,5.7,5.7,0,0,1,3.64,1.15c1,.9,1.37,2,1.37,4.5V59Z"/><path class="cls-4" d="M2695.52,56.8a7.53,7.53,0,0,1-6.08,2.56c-5,0-8.28-3.74-8.28-9.54s3.31-9.65,8.28-9.65a7.72,7.72,0,0,1,6.26,2.77c1.48,1.73,2.12,3.74,2.12,6.73C2697.82,52.84,2697.1,55,2695.52,56.8Zm-3.92-12.09a2.64,2.64,0,0,0-4.57.9,13.13,13.13,0,0,0-.5,4.1,13,13,0,0,0,.61,4.64,2.67,2.67,0,0,0,2.45,1.51c2.09,0,3-1.87,3-6.23C2692.57,47.15,2692.24,45.53,2691.59,44.71Z"/><path class="cls-4" d="M2707.25,59.39c-2.45,0-4.39-1.08-5-2.7a6.77,6.77,0,0,1-.32-2.84v-10h-1.84V40.53H2702a31.63,31.63,0,0,1,.18-4.36L2707,35a55.11,55.11,0,0,0-.29,5.58h4.32l-1.22,3.31h-3.1v9.25c0,2.34.43,3,2.09,3a6.31,6.31,0,0,0,1.73-.36l.61,2.88A10.13,10.13,0,0,1,2707.25,59.39Z"/><path class="cls-4" d="M2718.27,51.26v.14c0,2.84,1.4,4.46,3.89,4.46a7.21,7.21,0,0,0,4.68-1.84l1.87,2.88a10.58,10.58,0,0,1-6.95,2.56c-5.29,0-8.71-3.74-8.71-9.54,0-3.31.68-5.51,2.3-7.31a7.24,7.24,0,0,1,5.79-2.48,7.54,7.54,0,0,1,5.33,1.94c1.69,1.73,2.45,4.21,2.45,8.06v1.12Zm5.65-3.74a4.75,4.75,0,0,0-.58-2.77,2.33,2.33,0,0,0-2.12-1.08c-1.84,0-2.88,1.44-2.88,4v.07h5.58Z"/><path class="cls-4" d="M2762.62,63.21a5,5,0,0,1-2.23.43,8.79,8.79,0,0,1-4.61-1.76,21.52,21.52,0,0,0-5.07-2.52c-3.74,0-6.19-1-8.1-3.53a14.8,14.8,0,0,1-2.88-9.29c0-5.4,2.05-9.75,5.65-11.7a11.12,11.12,0,0,1,5.18-1.22c6.66,0,10.76,4.86,10.76,12.71,0,5.44-1.94,9.5-4.93,11.48a14.9,14.9,0,0,1,2.23,1.26,6.25,6.25,0,0,0,3.1,1,16.2,16.2,0,0,0,2.23-.18Zm-7.74-22.53a4.52,4.52,0,0,0-4.39-3.17,4.36,4.36,0,0,0-3.89,2.2,14.57,14.57,0,0,0-1.26,6.84c0,4.32.72,7,2.23,8.1a5,5,0,0,0,3,.86c3.49,0,5-2.66,5-9A20.06,20.06,0,0,0,2754.88,40.67Z"/><path class="cls-4" d="M2777.6,59.46a4.22,4.22,0,0,1-1.44-1.8,6.88,6.88,0,0,1-4.86,1.76c-2.59,0-4.82-1.22-5.43-3a11,11,0,0,1-.4-3.67V41l4.75-.9V51.91a7.28,7.28,0,0,0,.39,3,1.93,1.93,0,0,0,1.69.86,3.57,3.57,0,0,0,3-1.76v-13l4.61-1V54.17a5.36,5.36,0,0,0,1.12,3.35Z"/><path class="cls-4" d="M2789.44,51.26v.14c0,2.84,1.4,4.46,3.89,4.46A7.2,7.2,0,0,0,2798,54l1.87,2.88a10.58,10.58,0,0,1-6.95,2.56c-5.29,0-8.71-3.74-8.71-9.54,0-3.31.68-5.51,2.3-7.31a7.25,7.25,0,0,1,5.79-2.48,7.54,7.54,0,0,1,5.33,1.94c1.69,1.73,2.45,4.21,2.45,8.06v1.12Zm5.65-3.74a4.75,4.75,0,0,0-.58-2.77,2.33,2.33,0,0,0-2.12-1.08c-1.84,0-2.88,1.44-2.88,4v.07h5.58Z"/><path class="cls-4" d="M2808,51.26v.14c0,2.84,1.4,4.46,3.89,4.46a7.2,7.2,0,0,0,4.68-1.84l1.87,2.88a10.58,10.58,0,0,1-6.95,2.56c-5.29,0-8.71-3.74-8.71-9.54,0-3.31.69-5.51,2.3-7.31a7.24,7.24,0,0,1,5.79-2.48,7.54,7.54,0,0,1,5.33,1.94c1.69,1.73,2.45,4.21,2.45,8.06v1.12Zm5.65-3.74a4.75,4.75,0,0,0-.57-2.77,2.34,2.34,0,0,0-2.12-1.08c-1.84,0-2.88,1.44-2.88,4v.07h5.58Z"/><path class="cls-4" d="M2832.24,59V47c0-2.09-.36-2.7-1.62-2.7a5.62,5.62,0,0,0-3.35,1.66V59h-4.82V45.61a13.24,13.24,0,0,0-.65-4.32l4.29-1.22a4.72,4.72,0,0,1,.68,2.3A21.31,21.31,0,0,1,2828.9,41a7.6,7.6,0,0,1,3.31-.79,4.59,4.59,0,0,1,4.43,2.66,7.48,7.48,0,0,1,.36,2.63V59Z"/><path class="cls-4" d="M2847.94,59.54a16.38,16.38,0,0,1-7.45-2.12l1.73-3.53a13.47,13.47,0,0,0,6.12,2.09,2.26,2.26,0,0,0,2.45-2.09c0-1.26-.9-1.91-2.84-2.27l-2.16-.4a6.51,6.51,0,0,1-3.38-1.87,5.59,5.59,0,0,1-1-3.31c0-3.6,2.84-6,7.13-6a13.83,13.83,0,0,1,6.59,1.73L2853.48,45a9.74,9.74,0,0,0-4.54-1.33c-1.4,0-2.34.72-2.34,1.8s.61,1.44,2.3,1.87l2.23.58c2.27.58,3,1.26,3.67,2.09a4.88,4.88,0,0,1,1,3.13C2855.82,56.94,2852.66,59.54,2847.94,59.54Z"/><path class="cls-4" d="M2864.32,59.39a4.33,4.33,0,0,1-4.28-2.52c-.36-.94-.43-1.51-.43-4.14V39a47.54,47.54,0,0,0-.25-5.54l4.93-1.12a27.45,27.45,0,0,1,.25,4.79V51.47c0,3.17,0,3.6.32,4.1a1.1,1.1,0,0,0,1,.5,1.61,1.61,0,0,0,.54-.07l.83,2.88A8,8,0,0,1,2864.32,59.39Z"/><path class="cls-4" d="M2882.5,59.9a5.14,5.14,0,0,1-2.59-2.23,8.94,8.94,0,0,1-1.12,1,6.37,6.37,0,0,1-3.71,1c-4.1,0-6.33-2.09-6.33-5.76,0-4.32,3-6.33,8.85-6.33.36,0,.68,0,1.08,0v-.76c0-2.05-.4-2.74-2.16-2.74a10.15,10.15,0,0,0-5.33,2.09l-2.05-3.46a17.79,17.79,0,0,1,3-1.51,12.47,12.47,0,0,1,5-1.08c3.1,0,5.22,1.15,5.94,3.2a8.54,8.54,0,0,1,.32,3.31l-.11,6.19c0,2,.11,2.88,1.73,4.1Zm-4.11-9c-3.35,0-4.5.61-4.5,2.81a2.19,2.19,0,0,0,2.12,2.41,3.49,3.49,0,0,0,2.52-1.26l.07-4Z"/><path class="cls-4" d="M2898.59,59V47c0-2.09-.36-2.7-1.62-2.7a5.63,5.63,0,0,0-3.35,1.66V59h-4.82V45.61a13.3,13.3,0,0,0-.65-4.32l4.28-1.22a4.72,4.72,0,0,1,.68,2.3,21.33,21.33,0,0,1,2.13-1.37,7.59,7.59,0,0,1,3.31-.79,4.58,4.58,0,0,1,4.43,2.66,7.44,7.44,0,0,1,.36,2.63V59Z"/><path class="cls-4" d="M2919.83,59a3.24,3.24,0,0,1-.29-1.08,6.18,6.18,0,0,1-4.25,1.55c-4.68,0-7.63-3.64-7.63-9.36s3.2-9.72,7.88-9.72a5,5,0,0,1,3.28,1,22,22,0,0,1-.14-2.74V32.32l4.79.76V52.23c0,4.54.36,6,.69,6.73Zm-1.08-13.57a4,4,0,0,0-2.63-1.19c-2.16,0-3.1,1.8-3.1,5.9s.83,5.25,3.35,5.25a3.45,3.45,0,0,0,2.38-1.19Z"/></g><path class="cls-9" d="M3490.2,90.2a9.82,9.82,0,0,1-9.8,9.8H3050a9.82,9.82,0,0,1-9.8-9.8V9.8A9.82,9.82,0,0,1,3050,0h430.4a9.82,9.82,0,0,1,9.8,9.8Z"/><g class="cls-3"><path class="cls-4" d="M3153.27,59.25c-3.74,0-6.52-1.22-8.53-3.82-1.84-2.34-2.66-5-2.66-8.75,0-5.29,1.73-9,5.22-11.37a10.33,10.33,0,0,1,6.08-1.76,11.88,11.88,0,0,1,8,2.88l-2.66,3.13a7.91,7.91,0,0,0-5.22-1.94,5.1,5.1,0,0,0-3.6,1.26c-1.69,1.62-2.12,4.32-2.12,8.06,0,3.56.61,5.87,1.87,7.13a5.55,5.55,0,0,0,3.92,1.4,5.92,5.92,0,0,0,2.84-.61V49.17h-3.81l-.65-4.1h9.68V57A16.1,16.1,0,0,1,3153.27,59.25Z"/><path class="cls-4" d="M3175.8,44.74a2.72,2.72,0,0,0-1.4-.36,3.85,3.85,0,0,0-3,1.55V59h-4.82V46.65a16.68,16.68,0,0,0-.69-5.4l4.32-1.15a5.93,5.93,0,0,1,.76,2.63,5.65,5.65,0,0,1,4.32-2.63,3.71,3.71,0,0,1,1.8.4Z"/><path class="cls-4" d="M3183,51.26v.14c0,2.84,1.4,4.46,3.89,4.46a7.2,7.2,0,0,0,4.68-1.84l1.87,2.88a10.58,10.58,0,0,1-6.95,2.56c-5.29,0-8.71-3.74-8.71-9.54,0-3.31.69-5.51,2.3-7.31a7.24,7.24,0,0,1,5.79-2.48,7.54,7.54,0,0,1,5.33,1.94c1.69,1.73,2.45,4.21,2.45,8.06v1.12Zm5.65-3.74a4.75,4.75,0,0,0-.57-2.77,2.34,2.34,0,0,0-2.12-1.08c-1.84,0-2.88,1.44-2.88,4v.07h5.58Z"/><path class="cls-4" d="M3209.57,59.9a5.16,5.16,0,0,1-2.59-2.23,8.93,8.93,0,0,1-1.12,1,6.37,6.37,0,0,1-3.71,1c-4.1,0-6.34-2.09-6.34-5.76,0-4.32,3-6.33,8.86-6.33.36,0,.68,0,1.08,0v-.76c0-2.05-.4-2.74-2.16-2.74a10.16,10.16,0,0,0-5.33,2.09l-2.05-3.46a17.79,17.79,0,0,1,3-1.51,12.47,12.47,0,0,1,5-1.08c3.1,0,5.22,1.15,5.94,3.2a8.52,8.52,0,0,1,.32,3.31l-.11,6.19c0,2,.11,2.88,1.73,4.1Zm-4.1-9c-3.35,0-4.5.61-4.5,2.81a2.19,2.19,0,0,0,2.12,2.41,3.49,3.49,0,0,0,2.52-1.26l.07-4Z"/><path class="cls-4" d="M3221.17,59.39c-2.45,0-4.39-1.08-5-2.7a6.78,6.78,0,0,1-.32-2.84v-10H3214V40.53h1.84a32,32,0,0,1,.18-4.36l4.89-1.22a55.11,55.11,0,0,0-.29,5.58H3225l-1.22,3.31h-3.1v9.25c0,2.34.43,3,2.09,3a6.3,6.3,0,0,0,1.73-.36l.61,2.88A10.13,10.13,0,0,1,3221.17,59.39Z"/><path class="cls-4" d="M3232.18,51.26v.14c0,2.84,1.4,4.46,3.89,4.46a7.21,7.21,0,0,0,4.68-1.84l1.87,2.88a10.58,10.58,0,0,1-6.95,2.56c-5.29,0-8.71-3.74-8.71-9.54,0-3.31.68-5.51,2.3-7.31a7.24,7.24,0,0,1,5.8-2.48,7.54,7.54,0,0,1,5.33,1.94c1.69,1.73,2.45,4.21,2.45,8.06v1.12Zm5.65-3.74a4.75,4.75,0,0,0-.57-2.77,2.34,2.34,0,0,0-2.12-1.08c-1.84,0-2.88,1.44-2.88,4v.07h5.58Z"/><path class="cls-4" d="M3255.8,44.74a2.72,2.72,0,0,0-1.4-.36,3.84,3.84,0,0,0-3,1.55V59h-4.82V46.65a16.69,16.69,0,0,0-.68-5.4l4.32-1.15a5.93,5.93,0,0,1,.76,2.63,5.65,5.65,0,0,1,4.32-2.63,3.72,3.72,0,0,1,1.8.4Z"/><path class="cls-4" d="M3278.66,58.89c-.79,0-1.84.07-3.2.07h-7.88v-25H3276c3.06,0,4.64.47,6.16,1.8a5.59,5.59,0,0,1,2.05,4.46,5.53,5.53,0,0,1-1.69,4.18,4.79,4.79,0,0,1-2.3,1.3c3.1.9,5,3,5,6.3A6.59,6.59,0,0,1,3278.66,58.89Zm-1.12-20.34a5,5,0,0,0-2.09-.32h-2.88V44h3a4.66,4.66,0,0,0,2.16-.32,3.19,3.19,0,0,0,1.3-2.56A2.71,2.71,0,0,0,3277.54,38.55Zm.14,9.75a5.88,5.88,0,0,0-1.94-.22h-3.13v6.77h3.28a3.64,3.64,0,0,0,2.34-.58,3.77,3.77,0,0,0,1.29-2.92A3,3,0,0,0,3277.68,48.31Z"/><path class="cls-4" d="M3298.71,44.74a2.72,2.72,0,0,0-1.4-.36,3.85,3.85,0,0,0-3,1.55V59h-4.82V46.65a16.68,16.68,0,0,0-.69-5.4l4.32-1.15a5.93,5.93,0,0,1,.76,2.63,5.65,5.65,0,0,1,4.32-2.63,3.71,3.71,0,0,1,1.8.4Z"/><path class="cls-4" d="M3304.5,38.44a3,3,0,0,1-3-3,3,3,0,0,1,3-3,2.94,2.94,0,0,1,2.92,3A3,3,0,0,1,3304.5,38.44ZM3302.09,59V40.85l4.82-.76V59Z"/><path class="cls-4" d="M3317.79,59.54a16.37,16.37,0,0,1-7.45-2.12l1.73-3.53a13.48,13.48,0,0,0,6.12,2.09,2.26,2.26,0,0,0,2.45-2.09c0-1.26-.9-1.91-2.84-2.27l-2.16-.4a6.5,6.5,0,0,1-3.38-1.87,5.58,5.58,0,0,1-1-3.31c0-3.6,2.84-6,7.13-6a13.85,13.85,0,0,1,6.59,1.73L3323.33,45a9.74,9.74,0,0,0-4.54-1.33c-1.4,0-2.34.72-2.34,1.8s.61,1.44,2.3,1.87l2.23.58c2.27.58,3,1.26,3.67,2.09a4.88,4.88,0,0,1,1,3.13C3325.67,56.94,3322.5,59.54,3317.79,59.54Z"/><path class="cls-4" d="M3341.94,57.88a6.1,6.1,0,0,1-4,1.44,5.1,5.1,0,0,1-4.1-1.69,3.12,3.12,0,0,1-.5,1.33H3329c.36-.83.47-1.37.47-3.92V38a19.62,19.62,0,0,0-.32-4.54l4.93-1.15a24.88,24.88,0,0,1,.18,3.28v4.36a9.79,9.79,0,0,1-.11,1.62,5.05,5.05,0,0,1,3.92-1.48c4.5,0,7.31,3.6,7.31,9.36C3345.36,53.17,3344.21,56.08,3341.94,57.88Zm-2.27-11.48a2.64,2.64,0,0,0-2.63-2.34,3.7,3.7,0,0,0-2.74,1.48V54a3.8,3.8,0,0,0,2.7,1.19,2.25,2.25,0,0,0,2.34-1.44,10.07,10.07,0,0,0,.54-4.25A13.26,13.26,0,0,0,3339.67,46.4Z"/><path class="cls-4" d="M3362,59.9a5.14,5.14,0,0,1-2.59-2.23,9.07,9.07,0,0,1-1.12,1,6.37,6.37,0,0,1-3.71,1c-4.1,0-6.33-2.09-6.33-5.76,0-4.32,3-6.33,8.86-6.33.36,0,.68,0,1.08,0v-.76c0-2.05-.39-2.74-2.16-2.74a10.15,10.15,0,0,0-5.33,2.09l-2.05-3.46a17.79,17.79,0,0,1,3-1.51,12.48,12.48,0,0,1,5-1.08c3.1,0,5.22,1.15,5.94,3.2a8.51,8.51,0,0,1,.32,3.31l-.11,6.19c0,2,.11,2.88,1.73,4.1Zm-4.1-9c-3.35,0-4.5.61-4.5,2.81a2.19,2.19,0,0,0,2.12,2.41,3.49,3.49,0,0,0,2.52-1.26l.07-4Z"/><path class="cls-4" d="M3378.09,59V47c0-2.09-.36-2.7-1.62-2.7a5.62,5.62,0,0,0-3.35,1.66V59h-4.82V45.61a13.24,13.24,0,0,0-.65-4.32l4.29-1.22a4.74,4.74,0,0,1,.68,2.3,21.31,21.31,0,0,1,2.12-1.37,7.6,7.6,0,0,1,3.31-.79,4.58,4.58,0,0,1,4.43,2.66,7.43,7.43,0,0,1,.36,2.63V59Z"/><path class="cls-4" d="M3392.38,51.26v.14c0,2.84,1.4,4.46,3.89,4.46a7.21,7.21,0,0,0,4.68-1.84l1.87,2.88a10.58,10.58,0,0,1-6.95,2.56c-5.29,0-8.71-3.74-8.71-9.54,0-3.31.68-5.51,2.3-7.31a7.24,7.24,0,0,1,5.79-2.48,7.54,7.54,0,0,1,5.33,1.94c1.69,1.73,2.45,4.21,2.45,8.06v1.12Zm5.65-3.74a4.75,4.75,0,0,0-.58-2.77,2.33,2.33,0,0,0-2.12-1.08c-1.84,0-2.88,1.44-2.88,4v.07H3398Z"/></g><path class="cls-9" d="M3490.8,236.2a9.82,9.82,0,0,1-9.8,9.8H3050a9.82,9.82,0,0,1-9.8-9.8V155.8a9.82,9.82,0,0,1,9.8-9.8h431a9.82,9.82,0,0,1,9.8,9.8Z"/><g class="cls-3"><path class="cls-4" d="M3154.79,205.42a17.89,17.89,0,0,1-8.53-2.27l1.87-3.92a14.19,14.19,0,0,0,6.88,2c2.88,0,4.39-1.19,4.39-3.42,0-1.62-1-2.63-3.28-3.24l-2.77-.76c-2.48-.68-4-1.66-4.93-3.17a7.23,7.23,0,0,1-1-3.82c0-4.57,3.67-7.74,9-7.74a14.68,14.68,0,0,1,8.35,2.52l-2.37,3.6a10.79,10.79,0,0,0-5.83-1.91c-2.05,0-3.49,1.19-3.49,2.88,0,1.3.68,1.94,2.77,2.52l3,.83c4.1,1.12,6.33,3.74,6.33,7.45C3165.12,202.08,3161,205.42,3154.79,205.42Z"/><path class="cls-4" d="M3180.85,205.39a4.23,4.23,0,0,1-1.44-1.8,6.88,6.88,0,0,1-4.86,1.76c-2.59,0-4.82-1.22-5.44-3a11.05,11.05,0,0,1-.39-3.67V186.88l4.75-.9v11.84a7.27,7.27,0,0,0,.4,3,1.93,1.93,0,0,0,1.69.86,3.57,3.57,0,0,0,3-1.76V187l4.61-1V200.1a5.35,5.35,0,0,0,1.12,3.35Z"/><path class="cls-4" d="M3198,204.88v-12c0-2.09-.36-2.7-1.62-2.7a5.62,5.62,0,0,0-3.35,1.66v13h-4.82V191.53a13.3,13.3,0,0,0-.65-4.32l4.28-1.22a4.7,4.7,0,0,1,.69,2.3,21.53,21.53,0,0,1,2.12-1.37,7.6,7.6,0,0,1,3.31-.79,4.58,4.58,0,0,1,4.43,2.66,7.39,7.39,0,0,1,.36,2.63v13.46Z"/><path class="cls-4" d="M3213.69,205.46a16.38,16.38,0,0,1-7.45-2.12l1.73-3.53a13.47,13.47,0,0,0,6.12,2.09,2.26,2.26,0,0,0,2.45-2.09c0-1.26-.9-1.91-2.84-2.27l-2.16-.4a6.51,6.51,0,0,1-3.38-1.87,5.59,5.59,0,0,1-1-3.31c0-3.6,2.84-6,7.13-6a13.84,13.84,0,0,1,6.59,1.73l-1.58,3.24a9.74,9.74,0,0,0-4.54-1.33c-1.4,0-2.34.72-2.34,1.8s.61,1.44,2.3,1.87l2.23.58c2.27.58,3,1.26,3.67,2.09a4.88,4.88,0,0,1,1,3.13C3221.57,202.87,3218.4,205.46,3213.69,205.46Z"/><path class="cls-4" d="M3235.93,204.88V192.5c0-1.83-.5-2.52-1.87-2.52a6.38,6.38,0,0,0-3.81,1.69v13.21h-4.9V183.57a19.56,19.56,0,0,0-.36-4.21l4.93-1.15a24.93,24.93,0,0,1,.32,4.5v3.67c0,.58-.07,1.33-.07,1.55a8.08,8.08,0,0,1,5.22-2c2.34,0,4.21,1,4.79,2.63a8.65,8.65,0,0,1,.47,3.42v12.89Z"/><path class="cls-4" d="M3248.46,184.37a3,3,0,0,1-3-3,3,3,0,0,1,3-3,2.94,2.94,0,0,1,2.92,3A3,3,0,0,1,3248.46,184.37Zm-2.41,20.52V186.78l4.82-.76v18.86Z"/><path class="cls-4" d="M3266.07,204.88v-12c0-2.09-.36-2.7-1.62-2.7a5.62,5.62,0,0,0-3.35,1.66v13h-4.82V191.53a13.24,13.24,0,0,0-.65-4.32l4.29-1.22a4.74,4.74,0,0,1,.68,2.3,21.31,21.31,0,0,1,2.12-1.37,7.6,7.6,0,0,1,3.31-.79,4.58,4.58,0,0,1,4.43,2.66,7.43,7.43,0,0,1,.36,2.63v13.46Z"/><path class="cls-4" d="M3280.36,197.18v.14c0,2.84,1.4,4.46,3.89,4.46a7.21,7.21,0,0,0,4.68-1.84l1.87,2.88a10.58,10.58,0,0,1-6.95,2.56c-5.29,0-8.71-3.74-8.71-9.54,0-3.31.68-5.51,2.3-7.31a7.24,7.24,0,0,1,5.79-2.48,7.54,7.54,0,0,1,5.33,1.94c1.69,1.73,2.45,4.21,2.45,8.06v1.12Zm5.65-3.74a4.75,4.75,0,0,0-.58-2.77,2.33,2.33,0,0,0-2.12-1.08c-1.84,0-2.88,1.44-2.88,4v.07H3286Z"/><path class="cls-4" d="M3313,205.31a10.21,10.21,0,0,1-8.17-3.46,13.05,13.05,0,0,1-3-9,16,16,0,0,1,1.69-7.78,10.75,10.75,0,0,1,9.57-5.79,10.23,10.23,0,0,1,6.34,2l-2.27,3.42a6.59,6.59,0,0,0-4-1.4,5.19,5.19,0,0,0-4.25,2.16c-1,1.44-1.4,3.53-1.4,6.44,0,3.42.29,5.33,1,6.69a5.2,5.2,0,0,0,4.82,2.81,6.47,6.47,0,0,0,4.28-1.62L3320,203A10.21,10.21,0,0,1,3313,205.31Z"/><path class="cls-4" d="M3335.29,202.72a7.53,7.53,0,0,1-6.08,2.56c-5,0-8.28-3.74-8.28-9.54s3.31-9.65,8.28-9.65a7.72,7.72,0,0,1,6.26,2.77c1.47,1.73,2.12,3.74,2.12,6.73C3337.6,198.76,3336.88,200.92,3335.29,202.72Zm-3.92-12.09a2.64,2.64,0,0,0-4.57.9,17.47,17.47,0,0,0,.11,8.75,2.67,2.67,0,0,0,2.45,1.51c2.09,0,3-1.87,3-6.23C3332.34,193.08,3332,191.46,3331.37,190.63Z"/><path class="cls-4" d="M3354,205.82a5.16,5.16,0,0,1-2.59-2.23,8.93,8.93,0,0,1-1.12,1,6.37,6.37,0,0,1-3.71,1c-4.11,0-6.34-2.09-6.34-5.76,0-4.32,3-6.33,8.86-6.33.36,0,.68,0,1.08,0v-.76c0-2.05-.39-2.74-2.16-2.74a10.15,10.15,0,0,0-5.33,2.09l-2.05-3.46a17.76,17.76,0,0,1,3-1.51,12.48,12.48,0,0,1,5-1.08c3.1,0,5.22,1.15,5.94,3.2a8.56,8.56,0,0,1,.32,3.31l-.11,6.19c0,2,.11,2.88,1.73,4.1Zm-4.1-9c-3.35,0-4.5.61-4.5,2.81a2.19,2.19,0,0,0,2.12,2.41,3.49,3.49,0,0,0,2.52-1.26l.07-4Z"/><path class="cls-4" d="M3365.82,205.46a16.37,16.37,0,0,1-7.45-2.12l1.73-3.53a13.48,13.48,0,0,0,6.12,2.09,2.26,2.26,0,0,0,2.45-2.09c0-1.26-.9-1.91-2.84-2.27l-2.16-.4a6.5,6.5,0,0,1-3.38-1.87,5.58,5.58,0,0,1-1-3.31c0-3.6,2.84-6,7.13-6a13.85,13.85,0,0,1,6.59,1.73l-1.58,3.24a9.74,9.74,0,0,0-4.54-1.33c-1.4,0-2.34.72-2.34,1.8s.61,1.44,2.3,1.87l2.23.58c2.27.58,3,1.26,3.67,2.09a4.88,4.88,0,0,1,1,3.13C3373.71,202.87,3370.54,205.46,3365.82,205.46Z"/><path class="cls-4" d="M3382.78,205.31c-2.45,0-4.39-1.08-5-2.7a6.74,6.74,0,0,1-.32-2.84v-10h-1.84v-3.31h1.84a32,32,0,0,1,.18-4.36l4.89-1.22a55.13,55.13,0,0,0-.29,5.58h4.32l-1.22,3.31h-3.1V199c0,2.34.43,3,2.09,3a6.32,6.32,0,0,0,1.73-.36l.61,2.88A10.13,10.13,0,0,1,3382.78,205.31Z"/></g><path class="cls-9" d="M2539.1,236.2a9.82,9.82,0,0,0,9.8,9.8h431a9.82,9.82,0,0,0,9.8-9.8V155.8a9.82,9.82,0,0,0-9.8-9.8h-431a9.82,9.82,0,0,0-9.8,9.8Z"/><g class="cls-3"><path class="cls-4" d="M2730.91,205.31a10.21,10.21,0,0,1-8.17-3.46,13.05,13.05,0,0,1-3-9,16,16,0,0,1,1.69-7.78,10.75,10.75,0,0,1,9.57-5.79,10.23,10.23,0,0,1,6.34,2l-2.27,3.42a6.59,6.59,0,0,0-4-1.4,5.18,5.18,0,0,0-4.25,2.16c-1,1.44-1.4,3.53-1.4,6.44,0,3.42.29,5.33,1,6.69a5.2,5.2,0,0,0,4.82,2.81,6.48,6.48,0,0,0,4.28-1.62l2.3,3.17A10.23,10.23,0,0,1,2730.91,205.31Z"/><path class="cls-4" d="M2753.23,205.82a5.16,5.16,0,0,1-2.59-2.23,8.93,8.93,0,0,1-1.12,1,6.37,6.37,0,0,1-3.71,1c-4.11,0-6.34-2.09-6.34-5.76,0-4.32,3-6.33,8.86-6.33.36,0,.68,0,1.08,0v-.76c0-2.05-.39-2.74-2.16-2.74a10.15,10.15,0,0,0-5.33,2.09l-2.05-3.46a17.76,17.76,0,0,1,3-1.51,12.48,12.48,0,0,1,5-1.08c3.1,0,5.22,1.15,5.94,3.2a8.56,8.56,0,0,1,.32,3.31l-.11,6.19c0,2,.11,2.88,1.73,4.1Zm-4.1-9c-3.35,0-4.5.61-4.5,2.81a2.19,2.19,0,0,0,2.12,2.41,3.49,3.49,0,0,0,2.52-1.26l.07-4Z"/><path class="cls-4" d="M2761.95,184.37a3,3,0,0,1-3-3,3,3,0,0,1,3-3,2.94,2.94,0,0,1,2.92,3A3,3,0,0,1,2761.95,184.37Zm-2.41,20.52V186.78l4.82-.76v18.86Z"/><path class="cls-4" d="M2778.94,190.67a2.72,2.72,0,0,0-1.4-.36,3.85,3.85,0,0,0-3,1.55v13h-4.82V192.57a16.69,16.69,0,0,0-.68-5.4l4.32-1.15a5.93,5.93,0,0,1,.76,2.63,5.65,5.65,0,0,1,4.32-2.63,3.71,3.71,0,0,1,1.8.4Z"/><path class="cls-4" d="M2792.4,204.88v-12c0-2.09-.36-2.7-1.62-2.7a5.62,5.62,0,0,0-3.35,1.66v13h-4.82V191.53a13.3,13.3,0,0,0-.65-4.32l4.28-1.22a4.7,4.7,0,0,1,.69,2.3,21.53,21.53,0,0,1,2.12-1.37,7.6,7.6,0,0,1,3.31-.79,4.58,4.58,0,0,1,4.43,2.66,7.39,7.39,0,0,1,.36,2.63v13.46Z"/><path class="cls-4" d="M2808.1,205.46a16.37,16.37,0,0,1-7.45-2.12l1.73-3.53a13.47,13.47,0,0,0,6.12,2.09,2.26,2.26,0,0,0,2.45-2.09c0-1.26-.9-1.91-2.84-2.27l-2.16-.4a6.51,6.51,0,0,1-3.38-1.87,5.58,5.58,0,0,1-1-3.31c0-3.6,2.84-6,7.13-6a13.85,13.85,0,0,1,6.59,1.73l-1.59,3.24a9.73,9.73,0,0,0-4.54-1.33c-1.4,0-2.34.72-2.34,1.8s.61,1.44,2.3,1.87l2.23.58c2.27.58,3,1.26,3.67,2.09a4.88,4.88,0,0,1,1,3.13C2816,202.87,2812.81,205.46,2808.1,205.46Z"/></g><rect class="cls-10" x="2347" y="-184.8" width="89.4" height="193.5"/><rect class="cls-10" x="3677.6" y="-184.8" width="89.4" height="193.5"/></svg>