<svg id="Layer_1" data-name="Layer 1" xmlns="http://www.w3.org/2000/svg" viewBox="0 0 523 173"><defs><style>.cls-1{fill:#e6e7e8;}.cls-2{fill:#4c4c4e;}</style></defs><title>IP_sc4_mackayBtn</title><path class="cls-1" d="M36.95,127a9.82,9.82,0,0,0,9.8,9.8h431a9.82,9.82,0,0,0,9.8-9.8V46.62a9.82,9.82,0,0,0-9.8-9.8h-431a9.82,9.82,0,0,0-9.8,9.8Z"/><path class="cls-2" d="M228.37,95.75l-.94-13.35c-.11-1.58-.18-2.84-.18-4.18-.29,1.44-.5,2.34-.94,3.85l-4,13.68h-4.28l-3.56-13.14c-.32-1.22-.76-3-1-4.43,0,1.48-.07,3-.18,4.5l-.86,13.07h-5l2.34-25h6.44l3.28,12.53a39.13,39.13,0,0,1,.87,4c.21-1.3.5-2.59.9-4.07l3.38-12.42h6.41l2.23,25Z"/><path class="cls-2" d="M250.29,96.69a5.15,5.15,0,0,1-2.59-2.23,9,9,0,0,1-1.12,1,6.36,6.36,0,0,1-3.71,1c-4.1,0-6.33-2.09-6.33-5.76,0-4.32,3-6.33,8.85-6.33.36,0,.68,0,1.08,0v-.76c0-2.05-.4-2.74-2.16-2.74A10.15,10.15,0,0,0,239,83l-2.05-3.46a17.79,17.79,0,0,1,3-1.51,12.47,12.47,0,0,1,5-1.08c3.1,0,5.22,1.15,5.94,3.2a8.54,8.54,0,0,1,.32,3.31l-.11,6.19c0,2,.11,2.88,1.73,4.1Zm-4.1-9c-3.35,0-4.5.61-4.5,2.81a2.19,2.19,0,0,0,2.12,2.41,3.49,3.49,0,0,0,2.52-1.26l.07-4Z"/><path class="cls-2" d="M268,95a8.61,8.61,0,0,1-4.5,1.15c-5.08,0-8-3.53-8-9.5,0-4.25,1.62-7.05,3.78-8.53a8.73,8.73,0,0,1,4.57-1.37,7.87,7.87,0,0,1,3.56.83,8.14,8.14,0,0,1,1.8,1.3l-2.34,3.17A4.65,4.65,0,0,0,264,80.63c-2.16,0-3.13,1.87-3.13,6.19,0,2.41.32,3.85.94,4.64a2.79,2.79,0,0,0,2.16,1A4.93,4.93,0,0,0,267.25,91l.29-.25,2.2,2.92A7.62,7.62,0,0,1,268,95Z"/><path class="cls-2" d="M273.15,95.75V75a28.62,28.62,0,0,0-.32-4.79L277.69,69a43.85,43.85,0,0,1,.29,6V95.75Zm11.12,0-6.19-10.44,4.72-8h5.79L282.73,85,290,95.75Z"/><path class="cls-2" d="M304.36,96.69a5.15,5.15,0,0,1-2.59-2.23,9,9,0,0,1-1.12,1,6.37,6.37,0,0,1-3.71,1c-4.1,0-6.34-2.09-6.34-5.76,0-4.32,3-6.33,8.86-6.33.36,0,.68,0,1.08,0v-.76c0-2.05-.4-2.74-2.16-2.74A10.15,10.15,0,0,0,293.06,83L291,79.52A17.77,17.77,0,0,1,294,78a12.47,12.47,0,0,1,5-1.08c3.1,0,5.22,1.15,5.94,3.2a8.53,8.53,0,0,1,.32,3.31l-.11,6.19c0,2,.11,2.88,1.73,4.1Zm-4.1-9c-3.35,0-4.5.61-4.5,2.81a2.19,2.19,0,0,0,2.12,2.41,3.49,3.49,0,0,0,2.52-1.26l.07-4Z"/><path class="cls-2" d="M319.34,96c-1.26,3.56-2.2,5.11-3.53,6.08a9.71,9.71,0,0,1-4.46,1.69l-1.66-3.17a10.81,10.81,0,0,0,3-1.22A5.55,5.55,0,0,0,314,97.91a11,11,0,0,0,1-2.16h-1.22l-6.08-18.14,4.93-.58,3.2,10.76,1,3.82c0-.11.36-2.05.58-3,.14-.61.43-1.69.72-2.56L321,77.32H326Z"/></svg>