<svg xmlns="http://www.w3.org/2000/svg" xmlns:xlink="http://www.w3.org/1999/xlink" viewBox="0 0 1052.86 734.2"><defs><style>.cls-1{opacity:0.3;}.cls-1,.cls-3,.cls-4{isolation:isolate;}.cls-2,.cls-3{fill:#fff;}.cls-3{stroke:#fff;stroke-miterlimit:10;opacity:0.2;}.cls-5{fill:#4c4c4e;}</style></defs><title>Asset 19</title><g id="Layer_2" data-name="Layer 2"><g id="Layer_1-2" data-name="Layer 1"><image class="cls-1" width="1054" height="735" transform="translate(0 0)" xlink:href="../AppData/Local/Packages/Microsoft.SkypeApp_kzf8qxf38zg5c/LocalState/Downloads/ECF25FC6.png"/><path class="cls-2" d="M1036.5,707.75a10,10,0,0,1-10,10H26a10,10,0,0,1-10-10V25.55a10,10,0,0,1,10-10H1026.5a10,10,0,0,1,10,10Z" transform="translate(0 0)"/><path class="cls-3" d="M1026.5,15.55H26a10,10,0,0,0-10,10v129.3H1036.5V25.65A10.05,10.05,0,0,0,1026.5,15.55Z" transform="translate(0 0)"/><g class="cls-4"><path class="cls-5" d="M393.6,98.19V62.4h13.5a32.63,32.63,0,0,1,5.44.34A10.8,10.8,0,0,1,417,64.42a8.79,8.79,0,0,1,2.87,3.46A11.65,11.65,0,0,1,418,80.48q-2.9,3.16-10.5,3.16h-9.18V98.19Zm4.74-18.77h9.25q4.59,0,6.52-1.71A6.09,6.09,0,0,0,416,72.9a6.48,6.48,0,0,0-1.13-3.85,5.31,5.31,0,0,0-3-2.11,20.28,20.28,0,0,0-4.42-.32h-9.16Z" transform="translate(0 0)"/><path class="cls-5" d="M426.29,98.19V62.4h4.39V98.19Z" transform="translate(0 0)"/><path class="cls-5" d="M454.42,95a16.36,16.36,0,0,1-4.7,2.93,13.59,13.59,0,0,1-4.85.85q-4.27,0-6.57-2.09A6.89,6.89,0,0,1,436,91.36a7.09,7.09,0,0,1,.87-3.48,7.16,7.16,0,0,1,2.27-2.53,10.69,10.69,0,0,1,3.16-1.44,31.49,31.49,0,0,1,3.91-.66,40.15,40.15,0,0,0,7.84-1.51q0-.9,0-1.15,0-2.69-1.25-3.78a7.36,7.36,0,0,0-5-1.49,7.76,7.76,0,0,0-4.58,1.09,6.64,6.64,0,0,0-2.18,3.84l-4.3-.59a10.65,10.65,0,0,1,1.93-4.46,8.45,8.45,0,0,1,3.88-2.61,17.29,17.29,0,0,1,5.88-.92,15.58,15.58,0,0,1,5.4.78,7.12,7.12,0,0,1,3.05,2,6.93,6.93,0,0,1,1.37,3,24.75,24.75,0,0,1,.22,4.05v5.86a62.14,62.14,0,0,0,.28,7.75,9.77,9.77,0,0,0,1.11,3.11H455.3A9.3,9.3,0,0,1,454.42,95Zm-.37-9.81a32.18,32.18,0,0,1-7.18,1.66,16.63,16.63,0,0,0-3.83.88,3.82,3.82,0,0,0-1.73,1.43,3.88,3.88,0,0,0,.72,5,5.73,5.73,0,0,0,3.89,1.17,9.07,9.07,0,0,0,4.52-1.11,6.85,6.85,0,0,0,2.91-3,10.62,10.62,0,0,0,.71-4.39Z" transform="translate(0 0)"/><path class="cls-5" d="M465.31,98.19V72.27h4V76a9.32,9.32,0,0,1,8.25-4.27,10.84,10.84,0,0,1,4.31.84,6.79,6.79,0,0,1,2.94,2.21A8.49,8.49,0,0,1,486.13,78a25.14,25.14,0,0,1,.24,4.27V98.19H482V82.42a11.84,11.84,0,0,0-.51-4,4.23,4.23,0,0,0-1.82-2.12,5.79,5.79,0,0,0-3.06-.79,7.12,7.12,0,0,0-4.85,1.78q-2,1.78-2,6.76V98.19Z" transform="translate(0 0)"/><path class="cls-5" d="M493.12,98.19V72.27h4V76a9.32,9.32,0,0,1,8.25-4.27,10.85,10.85,0,0,1,4.31.84,6.79,6.79,0,0,1,2.94,2.21A8.5,8.5,0,0,1,513.94,78a25.24,25.24,0,0,1,.24,4.27V98.19h-4.39V82.42a11.84,11.84,0,0,0-.51-4,4.22,4.22,0,0,0-1.82-2.12,5.79,5.79,0,0,0-3.06-.79,7.12,7.12,0,0,0-4.85,1.78q-2,1.78-2,6.76V98.19Z" transform="translate(0 0)"/><path class="cls-5" d="M520.95,67.46V62.4h4.39v5.05Zm0,30.74V72.27h4.39V98.19Z" transform="translate(0 0)"/><path class="cls-5" d="M532,98.19V72.27h4V76a9.32,9.32,0,0,1,8.25-4.27,10.85,10.85,0,0,1,4.31.84,6.79,6.79,0,0,1,2.94,2.21A8.5,8.5,0,0,1,552.86,78a25.24,25.24,0,0,1,.24,4.27V98.19h-4.39V82.42a11.84,11.84,0,0,0-.51-4,4.22,4.22,0,0,0-1.82-2.12,5.79,5.79,0,0,0-3.06-.79,7.12,7.12,0,0,0-4.85,1.78q-2,1.78-2,6.76V98.19Z" transform="translate(0 0)"/><path class="cls-5" d="M559,100.34l4.27.63a4.07,4.07,0,0,0,1.49,2.88,7.32,7.32,0,0,0,4.47,1.22,7.85,7.85,0,0,0,4.71-1.22,6,6,0,0,0,2.25-3.42,28.14,28.14,0,0,0,.32-5.64,9,9,0,0,1-7.18,3.39,9.78,9.78,0,0,1-8.28-3.86,14.85,14.85,0,0,1-2.93-9.25,17.22,17.22,0,0,1,1.34-6.85,10.74,10.74,0,0,1,3.89-4.85,10.52,10.52,0,0,1,6-1.71A9.3,9.3,0,0,1,577,75.39V72.27H581V94.68q0,6.05-1.23,8.58a9,9,0,0,1-3.91,4,13.53,13.53,0,0,1-6.58,1.46,12.41,12.41,0,0,1-7.5-2.09A7.06,7.06,0,0,1,559,100.34Zm3.64-15.58q0,5.1,2,7.45a6.68,6.68,0,0,0,10.16,0q2.05-2.33,2.05-7.31,0-4.76-2.11-7.18a6.53,6.53,0,0,0-5.09-2.42,6.35,6.35,0,0,0-5,2.38Q562.67,80.08,562.67,84.77Z" transform="translate(0 0)"/></g></g></g></svg>