<svg xmlns="http://www.w3.org/2000/svg" viewBox="0 0 998.19 111.42"><defs><style>.cls-1,.cls-3{fill:#00c0f2;}.cls-1{stroke:#00c0f2;stroke-miterlimit:10;stroke-width:1.74px;}.cls-2{fill:#fff;}</style></defs><title>IP_sc2_btn1</title><g id="Layer_2" data-name="Layer 2"><g id="Ui"><path class="cls-1" d="M997.32,55.71a54.84,54.84,0,0,1-54.84,54.84H55.71A54.84,54.84,0,0,1,.87,55.71h0A54.84,54.84,0,0,1,55.71.87H942.48a54.84,54.84,0,0,1,54.84,54.84Z"/><path class="cls-2" d="M381.28,72,370.72,39.65h4.51l5,15.94c1.39,4.37,2.59,8.3,3.46,12.1h.1c.91-3.74,2.26-7.82,3.7-12l5.47-16h4.46L385.88,72Z"/><path class="cls-2" d="M406.72,42.25a2.62,2.62,0,0,1-5.23,0,2.57,2.57,0,0,1,2.64-2.64A2.51,2.51,0,0,1,406.72,42.25ZM402,72V48.78h4.22V72Z"/><path class="cls-2" d="M416.8,61.16c.1,5.71,3.74,8.06,8,8.06A15.28,15.28,0,0,0,431.2,68l.72,3a18.82,18.82,0,0,1-7.73,1.44c-7.15,0-11.42-4.7-11.42-11.71s4.13-12.53,10.9-12.53c7.58,0,9.6,6.67,9.6,10.95a15.86,15.86,0,0,1-.14,2Zm12.39-3c0-2.69-1.1-6.86-5.86-6.86-4.27,0-6.14,3.94-6.48,6.86Z"/><path class="cls-2" d="M441.37,48.78l3.07,11.81c.67,2.59,1.3,5,1.73,7.39h.14c.53-2.35,1.3-4.85,2.06-7.34l3.79-11.86h3.55l3.6,11.62c.86,2.78,1.54,5.23,2.06,7.58h.14a69.77,69.77,0,0,1,1.78-7.54l3.31-11.67h4.18L463.31,72h-3.84l-3.55-11.09a77.51,77.51,0,0,1-2.06-7.63h-.1A68.7,68.7,0,0,1,451.64,61L447.9,72h-3.84l-7-23.23Z"/><path class="cls-2" d="M491.91,39.65V72h-4.18V39.65Z"/><path class="cls-2" d="M500.27,55.06c0-2.4,0-4.37-.19-6.29h3.74l.24,3.84h.1a8.54,8.54,0,0,1,7.68-4.37c3.22,0,8.21,1.92,8.21,9.89V72h-4.22V58.62c0-3.74-1.39-6.86-5.38-6.86a6,6,0,0,0-5.66,4.32,6.08,6.08,0,0,0-.29,2V72h-4.22Z"/><path class="cls-2" d="M532.81,42.25a2.62,2.62,0,0,1-5.23,0,2.57,2.57,0,0,1,2.64-2.64A2.51,2.51,0,0,1,532.81,42.25ZM528.11,72V48.78h4.22V72Z"/><path class="cls-2" d="M545.63,42.1v6.67h6V52h-6V64.52c0,2.88.82,4.51,3.17,4.51a9.4,9.4,0,0,0,2.45-.29l.19,3.17a10.33,10.33,0,0,1-3.74.58,5.85,5.85,0,0,1-4.56-1.78c-1.2-1.25-1.63-3.31-1.63-6V52h-3.6V48.78h3.6V43.21Z"/><path class="cls-2" d="M562.33,42.25a2.62,2.62,0,0,1-5.23,0,2.57,2.57,0,0,1,2.64-2.64A2.51,2.51,0,0,1,562.33,42.25ZM557.63,72V48.78h4.22V72Z"/><path class="cls-2" d="M582.92,72l-.34-2.93h-.14a8.65,8.65,0,0,1-7.1,3.46c-4.7,0-7.1-3.31-7.1-6.67,0-5.62,5-8.69,14-8.64v-.48c0-1.92-.53-5.38-5.28-5.38a11.58,11.58,0,0,0-6,1.73l-1-2.78a14.42,14.42,0,0,1,7.63-2.06c7.1,0,8.83,4.85,8.83,9.5v8.69a32.7,32.7,0,0,0,.38,5.57Zm-.62-11.86c-4.61-.1-9.84.72-9.84,5.23a3.74,3.74,0,0,0,4,4,5.78,5.78,0,0,0,5.62-3.89,4.41,4.41,0,0,0,.24-1.34Z"/><path class="cls-2" d="M599.48,42.1v6.67h6V52h-6V64.52c0,2.88.82,4.51,3.17,4.51a9.39,9.39,0,0,0,2.45-.29l.19,3.17a10.33,10.33,0,0,1-3.74.58A5.85,5.85,0,0,1,597,70.71c-1.2-1.25-1.63-3.31-1.63-6V52h-3.6V48.78h3.6V43.21Z"/><path class="cls-2" d="M616.18,42.25a2.62,2.62,0,0,1-5.23,0,2.57,2.57,0,0,1,2.64-2.64A2.51,2.51,0,0,1,616.18,42.25ZM611.48,72V48.78h4.22V72Z"/><path class="cls-2" d="M625.54,48.78l4.56,13.06a59.76,59.76,0,0,1,1.87,6h.14c.53-1.92,1.2-3.84,2-6l4.51-13.06H643L633.9,72h-4L621,48.78Z"/><path class="cls-2" d="M650.55,61.16c.1,5.71,3.74,8.06,8,8.06A15.28,15.28,0,0,0,665,68l.72,3a18.82,18.82,0,0,1-7.73,1.44c-7.15,0-11.42-4.7-11.42-11.71s4.13-12.53,10.9-12.53c7.58,0,9.6,6.67,9.6,10.95a15.86,15.86,0,0,1-.14,2Zm12.39-3c0-2.69-1.1-6.86-5.86-6.86-4.27,0-6.14,3.94-6.48,6.86Z"/><path class="cls-2" d="M672.87,67.69a11.07,11.07,0,0,0,5.57,1.68c3.07,0,4.51-1.54,4.51-3.46s-1.2-3.12-4.32-4.27c-4.18-1.49-6.14-3.79-6.14-6.58,0-3.74,3-6.82,8-6.82a11.6,11.6,0,0,1,5.71,1.44l-1.06,3.07a9,9,0,0,0-4.75-1.34c-2.5,0-3.89,1.44-3.89,3.17,0,1.92,1.39,2.78,4.42,3.94,4,1.54,6.1,3.55,6.1,7,0,4.08-3.17,7-8.69,7a13.25,13.25,0,0,1-6.53-1.58Z"/><circle class="cls-2" cx="312.4" cy="55.66" r="25"/><path class="cls-3" d="M326.31,54,318,45.67a2.17,2.17,0,1,0-3.06,3.07l4.76,4.76H300.29a2.17,2.17,0,0,0,0,4.34h19.37l-4.76,4.76A2.17,2.17,0,1,0,318,65.66l8.35-8.35a2.5,2.5,0,0,0,0-3.28Z"/></g></g></svg>