<svg id="Layer_1" data-name="Layer 1" xmlns="http://www.w3.org/2000/svg" viewBox="0 0 963.89 41.56"><defs><style>.cls-1{isolation:isolate;}.cls-2{fill:#009887;}</style></defs><title>IP_sc2_text1</title><g id="Layer_2" data-name="Layer 2"><g id="Ui"><g class="cls-1"><g class="cls-1"><path class="cls-2" d="M224.62,26.77a8.57,8.57,0,0,1-6.08,3.6c-.94.07-2.12.14-3.6.14h-6.08v-25h5c1.44,0,3.35.07,4.36.14a8.48,8.48,0,0,1,5.47,2.48c2.3,2.27,3.42,5.47,3.42,10A14.31,14.31,0,0,1,224.62,26.77Zm-4.39-15.23a4.14,4.14,0,0,0-4-2.09H214v17h2.7c3.31,0,4.82-2.56,4.82-7.85C221.48,15.64,221.23,13.2,220.22,11.54Z"/><path class="cls-2" d="M235.6,22.81V23c0,2.84,1.4,4.46,3.89,4.46a7.21,7.21,0,0,0,4.68-1.84L246,28.46A10.58,10.58,0,0,1,239.09,31c-5.29,0-8.71-3.74-8.71-9.54,0-3.31.68-5.51,2.3-7.31a7.24,7.24,0,0,1,5.8-2.48,7.54,7.54,0,0,1,5.33,1.94c1.69,1.73,2.45,4.21,2.45,8.06v1.12Zm5.65-3.74a4.75,4.75,0,0,0-.58-2.77,2.33,2.33,0,0,0-2.12-1.08c-1.84,0-2.88,1.44-2.88,4v.07h5.58Z"/><path class="cls-2" d="M260.9,30.51v-15h-6.16v15H250v-15h-1.66V12.08h1.76c0-.79-.18-1.69-.18-2.52,0-3.64,2.16-5.72,5.94-5.72a9,9,0,0,1,4,.86l-1.55,3a4.63,4.63,0,0,0-1.62-.32,1.89,1.89,0,0,0-2,2.09v2.63h11V30.51ZM263.32,10a3,3,0,0,1-3-3,3,3,0,0,1,3-3,2.94,2.94,0,0,1,2.92,3A3,3,0,0,1,263.32,10Z"/><path class="cls-2" d="M280.92,30.51v-12c0-2.09-.36-2.7-1.62-2.7A5.63,5.63,0,0,0,276,17.48v13h-4.82V17.16a13.28,13.28,0,0,0-.65-4.32l4.28-1.22a4.72,4.72,0,0,1,.68,2.3,21.38,21.38,0,0,1,2.12-1.37,7.6,7.6,0,0,1,3.31-.79,4.58,4.58,0,0,1,4.43,2.66,7.44,7.44,0,0,1,.36,2.63V30.51Z"/><path class="cls-2" d="M293.48,10a3,3,0,0,1-3-3,3,3,0,0,1,3-3,2.94,2.94,0,0,1,2.92,3A3,3,0,0,1,293.48,10Zm-2.41,20.52V12.4l4.82-.76V30.51Z"/><path class="cls-2" d="M306.59,30.94c-2.45,0-4.39-1.08-5-2.7a6.77,6.77,0,0,1-.32-2.84v-10h-1.84V12.08h1.84a32,32,0,0,1,.18-4.36l4.9-1.22a55.12,55.12,0,0,0-.29,5.58h4.32l-1.22,3.31h-3.1v9.25c0,2.34.43,3,2.09,3a6.31,6.31,0,0,0,1.73-.36l.61,2.88A10.13,10.13,0,0,1,306.59,30.94Z"/><path class="cls-2" d="M316.34,10a3,3,0,0,1-3-3,3,3,0,0,1,3-3,2.94,2.94,0,0,1,2.92,3A3,3,0,0,1,316.34,10Zm-2.41,20.52V12.4l4.82-.76V30.51Z"/><path class="cls-2" d="M337.26,28.35a7.53,7.53,0,0,1-6.08,2.56c-5,0-8.28-3.74-8.28-9.54s3.31-9.65,8.28-9.65a7.72,7.72,0,0,1,6.26,2.77c1.48,1.73,2.12,3.74,2.12,6.73C339.56,24.39,338.84,26.55,337.26,28.35Zm-3.92-12.09a2.64,2.64,0,0,0-4.57.9,13.13,13.13,0,0,0-.5,4.1,13,13,0,0,0,.61,4.64,2.67,2.67,0,0,0,2.45,1.51c2.09,0,3-1.87,3-6.23C334.31,18.7,334,17.08,333.34,16.26Z"/><path class="cls-2" d="M353.49,30.51v-12c0-2.09-.36-2.7-1.62-2.7a5.63,5.63,0,0,0-3.35,1.66v13H343.7V17.16a13.28,13.28,0,0,0-.65-4.32l4.28-1.22a4.72,4.72,0,0,1,.68,2.3,21.38,21.38,0,0,1,2.12-1.37,7.6,7.6,0,0,1,3.31-.79,4.58,4.58,0,0,1,4.43,2.66,7.44,7.44,0,0,1,.36,2.63V30.51Z"/><path class="cls-2" d="M369.19,31.09A16.37,16.37,0,0,1,361.74,29l1.73-3.53a13.47,13.47,0,0,0,6.12,2.09A2.26,2.26,0,0,0,372,25.43c0-1.26-.9-1.91-2.84-2.27l-2.16-.4a6.51,6.51,0,0,1-3.38-1.87,5.58,5.58,0,0,1-1-3.31c0-3.6,2.84-6,7.13-6a13.84,13.84,0,0,1,6.59,1.73l-1.58,3.24a9.74,9.74,0,0,0-4.54-1.33c-1.4,0-2.34.72-2.34,1.8s.61,1.44,2.3,1.87l2.23.58c2.27.58,3,1.26,3.67,2.09a4.88,4.88,0,0,1,1,3.13C377.07,28.49,373.91,31.09,369.19,31.09Z"/><path class="cls-2" d="M387.7,22.48V18.78h17.53v3.71Z"/><path class="cls-2" d="M417.65,30.51V9.74A28.62,28.62,0,0,0,417.32,5l4.86-1.19a43.77,43.77,0,0,1,.29,6V30.51Zm11.12,0-6.19-10.44,4.72-8h5.79l-5.87,7.7,7.24,10.73Z"/><path class="cls-2" d="M440.33,22.81V23c0,2.84,1.4,4.46,3.89,4.46a7.21,7.21,0,0,0,4.68-1.84l1.87,2.88A10.58,10.58,0,0,1,443.82,31c-5.29,0-8.71-3.74-8.71-9.54,0-3.31.68-5.51,2.3-7.31a7.24,7.24,0,0,1,5.8-2.48,7.54,7.54,0,0,1,5.33,1.94c1.69,1.73,2.45,4.21,2.45,8.06v1.12ZM446,19.06a4.75,4.75,0,0,0-.58-2.77,2.33,2.33,0,0,0-2.12-1.08c-1.84,0-2.88,1.44-2.88,4v.07H446Z"/><path class="cls-2" d="M463.62,30.8c-1.26,3.56-2.2,5.11-3.53,6.08a9.72,9.72,0,0,1-4.46,1.69L454,35.41a10.81,10.81,0,0,0,3-1.22,5.56,5.56,0,0,0,1.37-1.51,11,11,0,0,0,1-2.16h-1.22l-6.08-18.14,4.93-.58,3.2,10.76,1,3.82c0-.11.36-2.05.58-3,.14-.61.43-1.69.72-2.56l2.77-8.78h5.08Z"/><path class="cls-2" d="M486,30.94c-2.45,0-4.39-1.08-5-2.7a6.77,6.77,0,0,1-.32-2.84v-10h-1.84V12.08h1.84a31.88,31.88,0,0,1,.18-4.36l4.9-1.22a55.12,55.12,0,0,0-.29,5.58h4.32l-1.22,3.31h-3.1v9.25c0,2.34.43,3,2.09,3a6.31,6.31,0,0,0,1.73-.36l.61,2.88A10.13,10.13,0,0,1,486,30.94Z"/><path class="cls-2" d="M497.06,22.81V23c0,2.84,1.4,4.46,3.89,4.46a7.21,7.21,0,0,0,4.68-1.84l1.87,2.88A10.58,10.58,0,0,1,500.55,31c-5.29,0-8.71-3.74-8.71-9.54,0-3.31.68-5.51,2.3-7.31a7.24,7.24,0,0,1,5.8-2.48,7.54,7.54,0,0,1,5.33,1.94c1.69,1.73,2.45,4.21,2.45,8.06v1.12Zm5.65-3.74a4.75,4.75,0,0,0-.58-2.77A2.33,2.33,0,0,0,500,15.21c-1.84,0-2.88,1.44-2.88,4v.07h5.58Z"/><path class="cls-2" d="M520.68,16.29a2.73,2.73,0,0,0-1.4-.36,3.84,3.84,0,0,0-3,1.55v13H511.5V18.2a16.7,16.7,0,0,0-.68-5.4l4.32-1.15a5.9,5.9,0,0,1,.76,2.63,5.65,5.65,0,0,1,4.32-2.63,3.71,3.71,0,0,1,1.8.4Z"/><path class="cls-2" d="M543.18,30.51V18.34c0-2.2-.25-2.63-1.51-2.63a5.49,5.49,0,0,0-3.2,1.55V30.51h-4.57v-12c0-2.3-.32-2.84-1.66-2.84a5.11,5.11,0,0,0-3.17,1.4V30.51h-4.72V17.66c0-2.66-.18-3.82-.68-4.71L528,11.76a4.69,4.69,0,0,1,.65,1.87,6.35,6.35,0,0,1,4.5-1.87,5,5,0,0,1,3.74,1.51,6.12,6.12,0,0,1,.72.9,6.77,6.77,0,0,1,5.22-2.41,5.7,5.7,0,0,1,3.64,1.15c1,.9,1.37,2,1.37,4.5v13.1Z"/><path class="cls-2" d="M558.8,31.09A16.38,16.38,0,0,1,551.35,29l1.73-3.53a13.47,13.47,0,0,0,6.12,2.09,2.26,2.26,0,0,0,2.45-2.09c0-1.26-.9-1.91-2.84-2.27l-2.16-.4a6.51,6.51,0,0,1-3.38-1.87,5.59,5.59,0,0,1-1-3.31c0-3.6,2.84-6,7.13-6a13.84,13.84,0,0,1,6.59,1.73l-1.58,3.24a9.74,9.74,0,0,0-4.54-1.33c-1.4,0-2.34.72-2.34,1.8s.61,1.44,2.3,1.87l2.23.58c2.27.58,3,1.26,3.67,2.09a4.88,4.88,0,0,1,1,3.13C566.68,28.49,563.52,31.09,558.8,31.09Z"/><path class="cls-2" d="M590.88,31.45a5.15,5.15,0,0,1-2.59-2.23,8.93,8.93,0,0,1-1.12,1,6.36,6.36,0,0,1-3.71,1c-4.1,0-6.34-2.09-6.34-5.76,0-4.32,3-6.33,8.86-6.33.36,0,.68,0,1.08,0v-.76c0-2.05-.4-2.74-2.16-2.74a10.15,10.15,0,0,0-5.33,2.09l-2.05-3.46a17.77,17.77,0,0,1,3-1.51,12.47,12.47,0,0,1,5-1.08c3.1,0,5.22,1.15,5.94,3.2a8.52,8.52,0,0,1,.32,3.31l-.11,6.19c0,2,.11,2.88,1.73,4.1Zm-4.1-9c-3.35,0-4.5.61-4.5,2.81a2.19,2.19,0,0,0,2.12,2.41,3.49,3.49,0,0,0,2.52-1.26l.07-4Z"/><path class="cls-2" d="M607,30.51v-12c0-2.09-.36-2.7-1.62-2.7A5.62,5.62,0,0,0,602,17.48v13h-4.82V17.16a13.3,13.3,0,0,0-.65-4.32l4.28-1.22a4.71,4.71,0,0,1,.68,2.3,21.31,21.31,0,0,1,2.12-1.37,7.6,7.6,0,0,1,3.31-.79,4.58,4.58,0,0,1,4.43,2.66,7.44,7.44,0,0,1,.36,2.63V30.51Z"/><path class="cls-2" d="M628.21,30.51a3.32,3.32,0,0,1-.29-1.08A6.18,6.18,0,0,1,623.67,31C619,31,616,27.34,616,21.62s3.2-9.72,7.88-9.72a5,5,0,0,1,3.28,1,22.4,22.4,0,0,1-.14-2.74V3.87l4.79.76V23.78c0,4.54.36,6,.68,6.73Zm-1.08-13.57a4,4,0,0,0-2.63-1.19c-2.16,0-3.1,1.8-3.1,5.9s.83,5.25,3.35,5.25a3.45,3.45,0,0,0,2.38-1.19Z"/><path class="cls-2" d="M656.43,29.79a8.62,8.62,0,0,1-4.5,1.15c-5.08,0-8-3.53-8-9.5,0-4.25,1.62-7.05,3.78-8.53a8.73,8.73,0,0,1,4.57-1.37,7.87,7.87,0,0,1,3.56.83,8.14,8.14,0,0,1,1.8,1.3l-2.34,3.17a4.65,4.65,0,0,0-2.92-1.44c-2.16,0-3.13,1.87-3.13,6.19,0,2.41.32,3.85.94,4.64a2.79,2.79,0,0,0,2.16,1,4.93,4.93,0,0,0,3.31-1.51l.29-.25,2.2,2.92A7.64,7.64,0,0,1,656.43,29.79Z"/><path class="cls-2" d="M674.29,28.35a7.53,7.53,0,0,1-6.08,2.56c-5,0-8.28-3.74-8.28-9.54s3.31-9.65,8.28-9.65a7.72,7.72,0,0,1,6.26,2.77c1.48,1.73,2.12,3.74,2.12,6.73C676.59,24.39,675.87,26.55,674.29,28.35Zm-3.92-12.09a2.64,2.64,0,0,0-4.57.9,13.16,13.16,0,0,0-.5,4.1,13,13,0,0,0,.61,4.64,2.67,2.67,0,0,0,2.45,1.51c2.09,0,3-1.87,3-6.23C671.34,18.7,671,17.08,670.36,16.26Z"/><path class="cls-2" d="M690.52,30.51v-12c0-2.09-.36-2.7-1.62-2.7a5.62,5.62,0,0,0-3.35,1.66v13h-4.82V17.16a13.3,13.3,0,0,0-.65-4.32l4.28-1.22a4.71,4.71,0,0,1,.68,2.3,21.31,21.31,0,0,1,2.12-1.37,7.6,7.6,0,0,1,3.31-.79,4.58,4.58,0,0,1,4.43,2.66,7.44,7.44,0,0,1,.36,2.63V30.51Z"/><path class="cls-2" d="M712.12,29.79a8.62,8.62,0,0,1-4.5,1.15c-5.08,0-8-3.53-8-9.5,0-4.25,1.62-7.05,3.78-8.53a8.73,8.73,0,0,1,4.57-1.37,7.87,7.87,0,0,1,3.56.83,8.14,8.14,0,0,1,1.8,1.3L711,16.83a4.65,4.65,0,0,0-2.92-1.44c-2.16,0-3.13,1.87-3.13,6.19,0,2.41.32,3.85.94,4.64a2.79,2.79,0,0,0,2.16,1,4.93,4.93,0,0,0,3.31-1.51l.29-.25,2.2,2.92A7.64,7.64,0,0,1,712.12,29.79Z"/><path class="cls-2" d="M721,22.81V23c0,2.84,1.4,4.46,3.89,4.46a7.2,7.2,0,0,0,4.68-1.84l1.87,2.88A10.58,10.58,0,0,1,724.51,31c-5.29,0-8.71-3.74-8.71-9.54,0-3.31.68-5.51,2.3-7.31a7.24,7.24,0,0,1,5.79-2.48,7.54,7.54,0,0,1,5.33,1.94c1.69,1.73,2.45,4.21,2.45,8.06v1.12Zm5.65-3.74a4.74,4.74,0,0,0-.58-2.77A2.33,2.33,0,0,0,724,15.21c-1.84,0-2.88,1.44-2.88,4v.07h5.58Z"/><path class="cls-2" d="M748.81,28.82a6.57,6.57,0,0,1-4.93,2.09,7.73,7.73,0,0,1-3.85-1,10,10,0,0,1,.07,1.51v5.76l-4.64,1.22V17.12a23.29,23.29,0,0,0-.29-4.64l4.28-.76a8.08,8.08,0,0,1,.32,1.73,6.17,6.17,0,0,1,4.54-1.73,6.67,6.67,0,0,1,3.64,1.12c2,1.33,3.42,3.71,3.42,8C751.36,24.75,750.71,26.77,748.81,28.82Zm-3.17-11.63a2.22,2.22,0,0,0-2.3-1.55,4.45,4.45,0,0,0-3.2,1.4v9a4.55,4.55,0,0,0,2.66,1.08c2.38,0,3.31-1.62,3.31-5.83A13.09,13.09,0,0,0,745.64,17.19Z"/><path class="cls-2" d="M761,30.94c-2.45,0-4.39-1.08-5-2.7a6.76,6.76,0,0,1-.32-2.84v-10h-1.83V12.08h1.83a31.79,31.79,0,0,1,.18-4.36l4.9-1.22a54.83,54.83,0,0,0-.29,5.58h4.32l-1.22,3.31h-3.1v9.25c0,2.34.43,3,2.09,3a6.31,6.31,0,0,0,1.73-.36l.61,2.88A10.12,10.12,0,0,1,761,30.94Z"/><path class="cls-2" d="M773.86,31.09A16.38,16.38,0,0,1,766.41,29l1.73-3.53a13.47,13.47,0,0,0,6.12,2.09,2.26,2.26,0,0,0,2.45-2.09c0-1.26-.9-1.91-2.84-2.27l-2.16-.4a6.51,6.51,0,0,1-3.38-1.87,5.59,5.59,0,0,1-1-3.31c0-3.6,2.84-6,7.13-6A13.84,13.84,0,0,1,781,13.3l-1.58,3.24a9.74,9.74,0,0,0-4.54-1.33c-1.4,0-2.34.72-2.34,1.8s.61,1.44,2.3,1.87l2.23.58c2.27.58,3,1.26,3.67,2.09a4.88,4.88,0,0,1,1,3.13C781.75,28.49,778.58,31.09,773.86,31.09Z"/></g></g></g></g></svg>