<svg xmlns="http://www.w3.org/2000/svg" viewBox="0 0 190.26 52.39"><defs><style>.cls-1{fill:#6d6e70;}.cls-2{fill:none;stroke:#6d6e70;stroke-miterlimit:10;stroke-width:2px;}</style></defs><title>IP_sc5_sortBtn</title><g id="Layer_2" data-name="Layer 2"><g id="Ui"><path class="cls-1" d="M77,15.77c-3.24,0-5.36,1.3-5.36,3.46,0,6.55,14.18,3.13,14.15,12.27,0,4.18-3.71,6.88-9.11,6.88A14.38,14.38,0,0,1,67,34.52L68.33,32a12.66,12.66,0,0,0,8.39,3.53c3.63,0,5.9-1.48,5.9-3.92,0-6.73-14.15-3.17-14.15-12.2,0-4,3.49-6.48,8.71-6.48a14.9,14.9,0,0,1,8,2.34l-1.22,2.56A13.26,13.26,0,0,0,77,15.77Z"/><path class="cls-1" d="M108.61,28.76a9.61,9.61,0,1,1-19.22,0c0-5.62,4-9.54,9.61-9.54A9.19,9.19,0,0,1,108.61,28.76Zm-16.41,0c0,4.25,2.81,7.13,6.8,7.13s6.8-2.88,6.8-7.13S103,21.71,99,21.71,92.19,24.62,92.19,28.8Z"/><path class="cls-1" d="M123.15,19.23V22c-4-.07-6.48,2.41-6.8,6.23V38.27h-2.81V19.33h2.81v4.21A7.09,7.09,0,0,1,123.15,19.23Z"/><path class="cls-1" d="M136.72,37a7.6,7.6,0,0,1-4.28,1.4c-2.77,0-4.82-1.62-4.82-5.36V22.11h-2.74v-2.2h2.74v-5h2.77v5h6v2.2h-6V32.54c0,2.3.9,3.24,2.52,3.24a6.46,6.46,0,0,0,3-1Z"/><path class="cls-1" d="M171.17,28.84c0,5.62-3.67,9.54-9,9.54a8,8,0,0,1-7.38-4.18v4.07H152V11.56h2.81V23.4a7.91,7.91,0,0,1,7.31-4.18C167.43,19.23,171.17,23.19,171.17,28.84Zm-2.84-.07c0-4.1-2.81-7.13-6.77-7.13s-6.8,3-6.8,7.13,2.81,7.13,6.8,7.13S168.33,32.9,168.33,28.76Z"/><path class="cls-1" d="M175.86,45.36a6,6,0,0,1-4-1.37L173,41.76a4.48,4.48,0,0,0,2.66.9c1.48,0,2.7-.94,3.46-2.74l.79-1.8-7.85-18.79h3l6.3,15.77,6-15.77h2.88L181.54,41C180.36,43.85,178.38,45.36,175.86,45.36Z"/><polyline class="cls-2" points="0.55 10.02 14.04 1.2 27.48 10.02"/><line class="cls-2" x1="14.04" y1="1.2" x2="14.04" y2="35.02"/><polyline class="cls-2" points="20.93 42.38 34.43 51.2 47.87 42.38"/><line class="cls-2" x1="34.43" y1="51.2" x2="34.43" y2="17.38"/></g></g></svg>