<svg xmlns="http://www.w3.org/2000/svg" viewBox="0 0 996.45 109.67"><defs><style>.cls-1{fill:#57c3b8;}.cls-2{font-size:48px;font-family:MetaPro-Medium, MetaPro Medium;letter-spacing:0.02em;}.cls-2,.cls-3{fill:#fff;}.cls-4{fill:#00c0f2;}</style></defs><title>IP_sc1_explore</title><g id="Layer_2" data-name="Layer 2"><g id="Ui"><path class="cls-1" d="M996.45,54.84a54.84,54.84,0,0,1-54.84,54.84H54.84A54.84,54.84,0,0,1,0,54.84H0A54.84,54.84,0,0,1,54.84,0H941.61a54.84,54.84,0,0,1,54.84,54.84Z"/><text class="cls-2" transform="translate(427.96 71.14)">Explore</text><circle class="cls-3" cx="379.39" cy="54.79" r="25"/><path class="cls-4" d="M393.3,53.15l-8.35-8.35a2.17,2.17,0,1,0-3.06,3.07l4.76,4.76H367.28a2.17,2.17,0,0,0,0,4.34h19.37l-4.76,4.76a2.17,2.17,0,1,0,3.06,3.07l8.35-8.35a2.5,2.5,0,0,0,0-3.28Z"/></g></g></svg>