<svg id="Layer_1" data-name="Layer 1" xmlns="http://www.w3.org/2000/svg" viewBox="0 0 523 173"><defs><style>.cls-1{fill:#e6e7e8;}.cls-2{fill:#4c4c4e;}.cls-3{fill:none;stroke:#6d6e70;stroke-linecap:round;stroke-linejoin:round;stroke-width:2px;}</style></defs><title>IP_sc4_darlingBtn</title><path class="cls-1" d="M36.95,126.82a9.82,9.82,0,0,0,9.8,9.8h431a9.82,9.82,0,0,0,9.8-9.8V46.42a9.82,9.82,0,0,0-9.8-9.8h-431a9.82,9.82,0,0,0-9.8,9.8Z"/><path class="cls-2" d="M169.63,91.77a8.57,8.57,0,0,1-6.08,3.6c-.94.07-2.12.14-3.6.14h-6.08v-25h5c1.44,0,3.35.07,4.36.14a8.48,8.48,0,0,1,5.47,2.48c2.3,2.27,3.42,5.47,3.42,10A14.31,14.31,0,0,1,169.63,91.77Zm-4.39-15.23a4.14,4.14,0,0,0-4-2.09H159v17h2.7c3.31,0,4.82-2.56,4.82-7.85C166.5,80.65,166.25,78.2,165.24,76.55Z"/><path class="cls-2" d="M188.79,96.45a5.15,5.15,0,0,1-2.59-2.23,9,9,0,0,1-1.12,1,6.37,6.37,0,0,1-3.71,1c-4.1,0-6.34-2.09-6.34-5.76,0-4.32,3-6.33,8.86-6.33.36,0,.68,0,1.08,0v-.76c0-2.05-.4-2.74-2.16-2.74a10.15,10.15,0,0,0-5.33,2.09l-2.05-3.46a17.77,17.77,0,0,1,3-1.51,12.47,12.47,0,0,1,5-1.08c3.1,0,5.22,1.15,5.94,3.2a8.53,8.53,0,0,1,.32,3.31l-.11,6.19c0,2,.11,2.88,1.73,4.1Zm-4.1-9c-3.35,0-4.5.61-4.5,2.81a2.19,2.19,0,0,0,2.12,2.41,3.49,3.49,0,0,0,2.52-1.26l.07-4Z"/><path class="cls-2" d="M204.27,81.3a2.72,2.72,0,0,0-1.4-.36,3.85,3.85,0,0,0-3,1.55v13h-4.82V83.21a16.69,16.69,0,0,0-.68-5.4l4.32-1.15a5.93,5.93,0,0,1,.76,2.63,5.65,5.65,0,0,1,4.32-2.63,3.72,3.72,0,0,1,1.8.4Z"/><path class="cls-2" d="M212.65,95.95a4.32,4.32,0,0,1-4.28-2.52c-.36-.94-.43-1.51-.43-4.14V75.54a47.54,47.54,0,0,0-.25-5.54l4.93-1.12a27.35,27.35,0,0,1,.25,4.79V88c0,3.17,0,3.6.32,4.1a1.1,1.1,0,0,0,1,.5,1.6,1.6,0,0,0,.54-.07l.83,2.88A8,8,0,0,1,212.65,95.95Z"/><path class="cls-2" d="M220.83,75a3,3,0,0,1-3-3,3,3,0,0,1,3-3,2.94,2.94,0,0,1,2.92,3A3,3,0,0,1,220.83,75Zm-2.41,20.52V77.41l4.82-.76V95.52Z"/><path class="cls-2" d="M238.43,95.52v-12c0-2.09-.36-2.7-1.62-2.7a5.63,5.63,0,0,0-3.35,1.66v13h-4.82V82.16a13.3,13.3,0,0,0-.65-4.32l4.28-1.22a4.72,4.72,0,0,1,.68,2.3,21.43,21.43,0,0,1,2.12-1.37,7.6,7.6,0,0,1,3.31-.79,4.58,4.58,0,0,1,4.43,2.66,7.44,7.44,0,0,1,.36,2.63V95.52Z"/><path class="cls-2" d="M263.45,80.47a10.26,10.26,0,0,1-1.26-.11,4.44,4.44,0,0,1,1.08,3c0,3.17-2.88,5.47-6.8,5.47a5.88,5.88,0,0,1-.72,0c-1.22.58-1.91,1-1.91,1.51,0,.25.29.43.79.43l2.59,0c2.81,0,4.28.47,5.58,1.66a5,5,0,0,1,1.58,3.92,5.24,5.24,0,0,1-1.47,3.82c-1.62,1.73-4.39,2.38-7.27,2.38-2.63,0-5.33-.43-7-2a4.32,4.32,0,0,1-1.51-3.28,3.69,3.69,0,0,1,.43-1.87H252a2.6,2.6,0,0,0-.22,1.19c0,1.48,1.22,2.27,3.46,2.27a5.82,5.82,0,0,0,3-.61,2.24,2.24,0,0,0,1.19-1.87c0-1.66-1.48-2.16-3.38-2.2l-2.05,0a13.1,13.1,0,0,1-4.43-.58,2.34,2.34,0,0,1-1.4-2.41c0-1.19.36-2.3,3.38-3.1a4.77,4.77,0,0,1-4-5.11c0-3.78,3.06-6.23,7.77-6.23a13.31,13.31,0,0,1,3.31.47,9.66,9.66,0,0,0,2.27.4A5.8,5.8,0,0,0,264.82,76l2,3.06A4.59,4.59,0,0,1,263.45,80.47Zm-8.06-.18A2.56,2.56,0,0,0,252.5,83c0,1.87,1.15,2.63,2.84,2.63,1.91,0,3-.94,3-2.63A2.59,2.59,0,0,0,255.38,80.29Z"/><path class="cls-2" d="M292.71,91.77a8.57,8.57,0,0,1-6.08,3.6c-.94.07-2.12.14-3.6.14h-6.08v-25h5c1.44,0,3.35.07,4.36.14a8.48,8.48,0,0,1,5.47,2.48c2.3,2.27,3.42,5.47,3.42,10A14.31,14.31,0,0,1,292.71,91.77Zm-4.39-15.23a4.14,4.14,0,0,0-4-2.09h-2.3v17h2.7c3.31,0,4.82-2.56,4.82-7.85C289.58,80.65,289.33,78.2,288.32,76.55Z"/><path class="cls-2" d="M312.66,93.36a7.53,7.53,0,0,1-6.08,2.56c-5,0-8.28-3.74-8.28-9.54s3.31-9.65,8.28-9.65a7.72,7.72,0,0,1,6.26,2.77c1.48,1.73,2.13,3.74,2.13,6.73C315,89.4,314.24,91.56,312.66,93.36Zm-3.92-12.09a2.64,2.64,0,0,0-4.57.9,13.13,13.13,0,0,0-.5,4.1,13,13,0,0,0,.61,4.64,2.67,2.67,0,0,0,2.45,1.51c2.09,0,3-1.87,3-6.23C309.71,83.71,309.38,82.09,308.73,81.26Z"/><path class="cls-2" d="M336.31,95.52h-4.43l-1.66-6.33c-.4-1.48-.83-3.24-1-4.46l-.29-1.84a23.28,23.28,0,0,1-.43,2.38c-.36,1.58-1.15,4.75-1.58,6.48l-.94,3.78h-4.5l-5-18.11,4.79-.54L322.7,84c.43,1.91.94,5,1,5.72a64.49,64.49,0,0,1,1.33-6.41l1.73-6.19h4.54l1.47,6.08c.72,3.06,1.26,5.9,1.37,6.52.11-.79.5-3.67,1-6l1.4-6.59h5Z"/><path class="cls-2" d="M354.24,95.52v-12c0-2.09-.36-2.7-1.62-2.7a5.63,5.63,0,0,0-3.35,1.66v13h-4.82V82.16a13.3,13.3,0,0,0-.65-4.32l4.28-1.22a4.72,4.72,0,0,1,.68,2.3,21.33,21.33,0,0,1,2.13-1.37,7.59,7.59,0,0,1,3.31-.79,4.58,4.58,0,0,1,4.43,2.66,7.44,7.44,0,0,1,.36,2.63V95.52Z"/><path class="cls-2" d="M369.94,96.09A16.38,16.38,0,0,1,362.48,94l1.73-3.53a13.47,13.47,0,0,0,6.12,2.09,2.26,2.26,0,0,0,2.45-2.09c0-1.26-.9-1.91-2.84-2.27l-2.16-.4a6.51,6.51,0,0,1-3.38-1.87,5.58,5.58,0,0,1-1-3.31c0-3.6,2.84-6,7.13-6a13.84,13.84,0,0,1,6.59,1.73l-1.58,3.24a9.74,9.74,0,0,0-4.54-1.33c-1.4,0-2.34.72-2.34,1.8s.61,1.44,2.3,1.87l2.23.58c2.27.58,3,1.26,3.67,2.09a4.88,4.88,0,0,1,1,3.13C377.82,93.5,374.65,96.09,369.94,96.09Z"/><polyline class="cls-3" points="1679.45 99.15 1656.25 129.15 1679.45 159.95"/><line class="cls-3" x1="1749.75" y1="129.15" x2="1656.25" y2="129.15"/></svg>