<?xml version="1.0" encoding="utf-8"?>
<!-- Generator: Adobe Illustrator 22.1.0, SVG Export Plug-In . SVG Version: 6.00 Build 0)  -->
<svg version="1.1" id="Layer_1" xmlns="http://www.w3.org/2000/svg" xmlns:xlink="http://www.w3.org/1999/xlink" x="0px" y="0px"
	 viewBox="0 0 911.6 690" style="enable-background:new 0 0 911.6 690;" xml:space="preserve">
<style type="text/css">
	.st0{fill:#009887;}
	.st1{font-family:'MetaOT-Bold';}
	.st2{font-size:60px;}
	.st3{letter-spacing:-1;}
	.st4{fill:#58595B;}
	.st5{font-family:'MetaOT-Book';}
	.st6{font-size:36px;}
	.st7{fill:#6A0032;}
	.st8{font-size:70px;}
</style>
<title>IP_sc1_Text</title>
<g id="Layer_2_1_">
	<g id="Ui">
		<text transform="matrix(1 0 0 1 110.05 184.9602)" class="st0 st1 st2 st3">W</text>
		<text transform="matrix(1 0 0 1 159.49 184.9602)" class="st0 st1 st2">el</text>
		<text transform="matrix(1 0 0 1 207.91 184.9602)" class="st0 st1 st2 st3">c</text>
		<text transform="matrix(1 0 0 1 234.91 184.9602)" class="st0 st1 st2">ome </text>
		<text transform="matrix(1 0 0 1 360.13 184.9602)" class="st0 st1 st2">t</text>
		<text transform="matrix(1 0 0 1 380.41 184.9602)" class="st0 st1 st2">o the in</text>
		<text transform="matrix(1 0 0 1 576.78 184.9602)" class="st0 st1 st2">t</text>
		<text transform="matrix(1 0 0 1 597.07 184.9602)" class="st0 st1 st2">e</text>
		<text transform="matrix(1 0 0 1 628.03 184.9602)" class="st0 st1 st2">r</text>
		<text transform="matrix(1 0 0 1 648.85 184.9602)" class="st0 st1 st2">act</text>
		<text transform="matrix(1 0 0 1 729.12 184.9602)" class="st0 st1 st2">i</text>
		<text transform="matrix(1 0 0 1 745.56 184.9602)" class="st0 st1 st2">v</text>
		<text transform="matrix(1 0 0 1 773.16 184.9602)" class="st0 st1 st2">e </text>
		<g>
			<text transform="matrix(1 0 0 1 155.6998 254.0897)" class="st0 st1 st2"> In</text>
			<text transform="matrix(1 0 0 1 220.1998 254.0897)" class="st0 st1 st2">f</text>
			<text transform="matrix(1 0 0 1 238.7398 254.0897)" class="st0 st1 st2">ra</text>
			<text transform="matrix(1 0 0 1 290.2798 254.0897)" class="st0 st1 st2">s</text>
			<text transform="matrix(1 0 0 1 319.4398 254.0897)" class="st0 st1 st2">t</text>
			<text transform="matrix(1 0 0 1 339.8998 254.0897)" class="st0 st1 st2">ruc</text>
			<text transform="matrix(1 0 0 1 421.9798 254.0897)" class="st0 st1 st2">tu</text>
			<text transform="matrix(1 0 0 1 474.5998 254.0897)" class="st0 st1 st2 st3">r</text>
			<text transform="matrix(1 0 0 1 494.9998 254.0897)" class="st0 st1 st2">e Pipeline</text>
		</g>
		<text transform="matrix(1 0 0 1 92.41 405.58)" class="st4 st5 st6">T</text>
		<text transform="matrix(1 0 0 1 110.05 405.58)" class="st4 st5 st6">he </text>
		<text transform="matrix(1 0 0 1 155.7 405.58)" class="st4 st5 st6">Infrastructure Pipeline has been developed </text>
		<text transform="matrix(1 0 0 1 144.85 451.67)" class="st4 st5 st6">to illustrate how proposals mature from a</text>
		<text transform="matrix(1 0 0 1 150.2198 497.76)" class="st4 st5 st6">c</text>
		<text transform="matrix(1 0 0 1 166.1298 497.76)" class="st4 st5 st6">on</text>
		<text transform="matrix(1 0 0 1 205.8698 497.76)" class="st4 st5 st6">c</text>
		<text transform="matrix(1 0 0 1 221.7898 497.76)" class="st4 st5 st6">ept </text>
		<text transform="matrix(1 0 0 1 279.8498 497.76)" class="st4 st5 st6">t</text>
		<text transform="matrix(1 0 0 1 291.5498 497.76)" class="st4 st5 st6">o a funded g</text>
		<text transform="matrix(1 0 0 1 480.6598 497.76)" class="st4 st5 st6">o</text>
		<text transform="matrix(1 0 0 1 500.1698 497.76)" class="st4 st5 st6">v</text>
		<text transform="matrix(1 0 0 1 517.1298 497.76)" class="st4 st5 st6">e</text>
		<text transform="matrix(1 0 0 1 535.1598 497.76)" class="st4 st5 st6">r</text>
		<text transform="matrix(1 0 0 1 547.0798 497.76)" class="st4 st5 st6">nme</text>
		<text transform="matrix(1 0 0 1 615.1198 497.76)" class="st4 st5 st6">n</text>
		<text transform="matrix(1 0 0 1 634.9498 497.76)" class="st4 st5 st6">t p</text>
		<text transform="matrix(1 0 0 1 674.9797 497.76)" class="st4 st5 st6">r</text>
		<text transform="matrix(1 0 0 1 686.3898 497.76)" class="st4 st5 st6">oje</text>
		<text transform="matrix(1 0 0 1 732.9398 497.76)" class="st4 st5 st6">c</text>
		<text transform="matrix(1 0 0 1 749.5398 497.76)" class="st4 st5 st6">t</text>
		<text transform="matrix(1 0 0 1 761.3499 497.76)" class="st4 st5 st6">, </text>
		<text transform="matrix(1 0 0 1 148.73 543.84)" class="st4 st5 st6">b</text>
		<text transform="matrix(1 0 0 1 168.96 543.84)" class="st4 st5 st6">y m</text>
		<text transform="matrix(1 0 0 1 223.57 543.84)" class="st4 st5 st6">o</text>
		<text transform="matrix(1 0 0 1 243.09 543.84)" class="st4 st5 st6">ving th</text>
		<text transform="matrix(1 0 0 1 348.46 543.84)" class="st4 st5 st6">r</text>
		<text transform="matrix(1 0 0 1 359.87 543.84)" class="st4 st5 st6">ough </text>
		<text transform="matrix(1 0 0 1 447.2 543.84)" class="st4 st5 st6">v</text>
		<text transform="matrix(1 0 0 1 464.37 543.84)" class="st4 st5 st6">a</text>
		<text transform="matrix(1 0 0 1 481.73 543.84)" class="st4 st5 st6">r</text>
		<text transform="matrix(1 0 0 1 493.64 543.84)" class="st4 st5 st6">ious planning and </text>
		<text transform="matrix(1 0 0 1 233.73 589.93)" class="st4 st5 st6">i</text>
		<text transform="matrix(1 0 0 1 242.16 589.93)" class="st4 st5 st6">n</text>
		<text transform="matrix(1 0 0 1 261.67 589.93)" class="st4 st5 st6">v</text>
		<text transform="matrix(1 0 0 1 278.62 589.93)" class="st4 st5 st6">estme</text>
		<text transform="matrix(1 0 0 1 370.89 589.93)" class="st4 st5 st6">n</text>
		<text transform="matrix(1 0 0 1 390.73 589.93)" class="st4 st5 st6">t decision phase</text>
		<text transform="matrix(1 0 0 1 643.33 589.93)" class="st4 st5 st6">s</text>
		<text transform="matrix(1 0 0 1 661.1901 589.93)" class="st4 st5 st6">.</text>
		<text transform="matrix(1 0 0 1 105.26 58.59)" class="st7 st5 st8">S</text>
		<text transform="matrix(1 0 0 1 139.56 58.59)" class="st7 st5 st8">t</text>
		<text transform="matrix(1 0 0 1 162.73 58.59)" class="st7 st5 st8">a</text>
		<text transform="matrix(1 0 0 1 196.19 58.59)" class="st7 st5 st8">t</text>
		<text transform="matrix(1 0 0 1 218.94 58.59)" class="st7 st5 st8">e </text>
		<text transform="matrix(1 0 0 1 268.85 58.59)" class="st7 st5 st8">I</text>
		<text transform="matrix(1 0 0 1 286.28 58.59)" class="st7 st5 st8">nf</text>
		<text transform="matrix(1 0 0 1 345.57 58.59)" class="st7 st5 st8">r</text>
		<text transform="matrix(1 0 0 1 368.11 58.59)" class="st7 st5 st8">astru</text>
		<text transform="matrix(1 0 0 1 514.2 58.59)" class="st7 st5 st8">c</text>
		<text transform="matrix(1 0 0 1 546.46 58.59)" class="st7 st5 st8">tu</text>
		<text transform="matrix(1 0 0 1 608.2 58.59)" class="st7 st5 st8">r</text>
		<text transform="matrix(1 0 0 1 630.39 58.59)" class="st7 st5 st8">e </text>
		<text transform="matrix(1 0 0 1 680.3 58.59)" class="st7 st5 st8">P</text>
		<text transform="matrix(1 0 0 1 717.19 58.59)" class="st7 st5 st8">lan</text>
	</g>
</g>
</svg>
