<svg xmlns="http://www.w3.org/2000/svg" viewBox="0 0 1044.18 37.57"><defs><style>.cls-1,.cls-2,.cls-8{fill:#231f20;}.cls-2,.cls-8{font-size:34.57px;}.cls-2{font-family:HelveticaNeue-Medium, HelveticaNeue Medium;}.cls-3{letter-spacing:-0.02em;}.cls-4{letter-spacing:-0.01em;}.cls-5{letter-spacing:0em;}.cls-6{letter-spacing:0.01em;}.cls-7{letter-spacing:-0.01em;}.cls-8{font-family:HelveticaNeue, HelveticaNeue;}</style></defs><title>IP_time</title><g id="Layer_2" data-name="Layer 2"><g id="Status_Bar" data-name="Status Bar"><circle class="cls-1" cx="7.92" cy="16.69" r="7.92"/><circle class="cls-1" cx="28.09" cy="16.69" r="7.92"/><circle class="cls-1" cx="48.25" cy="16.69" r="7.92"/><circle class="cls-1" cx="68.41" cy="16.69" r="7.92"/><path class="cls-1" d="M88.58,10.21a6.48,6.48,0,1,1-6.48,6.48,6.49,6.49,0,0,1,6.48-6.48m0-1.44a7.92,7.92,0,1,0,7.92,7.92,7.92,7.92,0,0,0-7.92-7.92Z"/><text class="cls-2" transform="translate(106.58 28.93)"><tspan class="cls-3">P</tspan><tspan class="cls-4" x="17.84" y="0">r</tspan><tspan class="cls-5" x="28.79" y="0">odu</tspan><tspan class="cls-6" x="86.31" y="0">c</tspan><tspan x="102.25" y="0">t Club</tspan></text><path class="cls-1" d="M326.53,14.32a20.09,20.09,0,0,1,30.47,0l3.06-3.06a24.41,24.41,0,0,0-36.59,0Z"/><path class="cls-1" d="M332.66,20.45a11.48,11.48,0,0,1,18.21,0L354,17.37a15.84,15.84,0,0,0-24.37,0Z"/><path class="cls-1" d="M341.77,29.56l6-6a7.18,7.18,0,0,0-12,0Z"/><text class="cls-2" transform="translate(440.72 28.93)">12:55 <tspan class="cls-7" x="85.41" y="0">P</tspan><tspan x="103.38" y="0">M</tspan></text><text class="cls-8" transform="translate(891.52 28.93)">79%</text><path class="cls-1" d="M1033.83,4.46a3.31,3.31,0,0,1,3.3,3.3V25.94a3.31,3.31,0,0,1-3.3,3.3h-55.5a3.31,3.31,0,0,1-3.3-3.3V7.77a3.31,3.31,0,0,1,3.3-3.3h55.5m0-1.44h-55.5a4.74,4.74,0,0,0-4.75,4.74V25.94a4.74,4.74,0,0,0,4.75,4.74h55.5a4.74,4.74,0,0,0,4.74-4.74V7.77A4.74,4.74,0,0,0,1033.83,3Z"/><path class="cls-1" d="M978.77,5.89h43.81a0,0,0,0,1,0,0v21.6a0,0,0,0,1,0,0H978.77a2.28,2.28,0,0,1-2.28-2.28v-17a2.28,2.28,0,0,1,2.28-2.28Z"/><path class="cls-1" d="M1039.86,11.65V21.73c2.39,0,4.32-2.26,4.32-5S1042.25,11.65,1039.86,11.65Z"/><path class="cls-1" d="M979.9,5.89h42.68a0,0,0,0,1,0,0v21.6a0,0,0,0,1,0,0H979.9a3.4,3.4,0,0,1-3.4-3.4V9.29A3.41,3.41,0,0,1,979.9,5.89Z"/></g></g></svg>