<?xml version="1.0" encoding="UTF-8" standalone="no"?>
<!-- Created with Inkscape (http://www.inkscape.org/) -->

<svg
   xmlns:dc="http://purl.org/dc/elements/1.1/"
   xmlns:cc="http://creativecommons.org/ns#"
   xmlns:rdf="http://www.w3.org/1999/02/22-rdf-syntax-ns#"
   xmlns:svg="http://www.w3.org/2000/svg"
   xmlns="http://www.w3.org/2000/svg"
   xmlns:sodipodi="http://sodipodi.sourceforge.net/DTD/sodipodi-0.dtd"
   xmlns:inkscape="http://www.inkscape.org/namespaces/inkscape"
   width="14.603039mm"
   height="16.862137mm"
   viewBox="0 0 14.603039 16.862137"
   version="1.1"
   id="svg8"
   inkscape:version="0.92.2 (5c3e80d, 2017-08-06)"
   sodipodi:docname="social.svg"
   inkscape:export-filename="C:\wamp64\www\dilgp3\images\buttons\icons\social.png"
   inkscape:export-xdpi="95.599998"
   inkscape:export-ydpi="95.599998">
  <defs
     id="defs2">
    <style
       id="style8167">.cls-1{fill:#f1563f;}.cls-2{fill:#fff;}.cls-3{font-size:13px;fill:#e1bebb;font-family:Helvetica, Helvetica;}.cls-4{letter-spacing:0em;}.cls-5{letter-spacing:0.02em;}.cls-6{letter-spacing:-0.01em;}.cls-7{letter-spacing:0em;}.cls-8{letter-spacing:-0.01em;}.cls-9{letter-spacing:-0.01em;}.cls-10{letter-spacing:0em;}.cls-11{letter-spacing:0em;}</style>
    <style
       id="style8834">.cls-1{isolation:isolate;}.cls-2{opacity:0.7;mix-blend-mode:multiply;}.cls-3,.cls-5{fill:#fff;}.cls-4{fill:#009887;}.cls-5{font-size:13px;font-family:Helvetica-Bold, Helvetica Bold;font-weight:700;}.cls-6{letter-spacing:0em;}.cls-7{letter-spacing:0.02em;}.cls-8{letter-spacing:-0.01em;}.cls-9{letter-spacing:0em;}.cls-10{letter-spacing:-0.01em;}.cls-11{letter-spacing:-0.01em;}.cls-12{letter-spacing:0em;}.cls-13{letter-spacing:0em;}</style>
    <style
       id="style10273">.cls-1{fill:#f1563f;}.cls-2{fill:#fff;}.cls-3{font-size:13px;fill:#e1bebb;font-family:Helvetica, Helvetica;}.cls-4{letter-spacing:0em;}.cls-5{letter-spacing:-0.01em;}.cls-6{letter-spacing:-0.01em;}.cls-7{letter-spacing:0em;}.cls-8{letter-spacing:0em;}.cls-9{letter-spacing:0em;}</style>
    <style
       id="style10906">.cls-1{isolation:isolate;}.cls-2{opacity:0.7;mix-blend-mode:multiply;}.cls-3,.cls-5{fill:#fff;}.cls-4{fill:#009887;}.cls-5{font-size:13px;font-family:Helvetica-Bold, Helvetica Bold;font-weight:700;}.cls-6{letter-spacing:0em;}.cls-7{letter-spacing:-0.01em;}.cls-8{letter-spacing:-0.01em;}.cls-9{letter-spacing:0em;}.cls-10{letter-spacing:0em;}.cls-11{letter-spacing:0em;}</style>
    <style
       id="style11956">.cls-1{fill:#f1563f;}.cls-2{fill:#fff;}.cls-3{font-size:13px;fill:#e1bebb;font-family:Helvetica, Helvetica;}.cls-4{letter-spacing:-0.01em;}</style>
    <style
       id="style12531">.cls-1{isolation:isolate;}.cls-2{opacity:0.7;mix-blend-mode:multiply;}.cls-3,.cls-5{fill:#fff;}.cls-4{fill:#009887;}.cls-5{font-size:13px;font-family:Helvetica-Bold, Helvetica Bold;font-weight:700;}.cls-6{letter-spacing:-0.01em;}</style>
    <style
       id="style11956-4">.cls-1{fill:#f1563f;}.cls-2{fill:#fff;}.cls-3{font-size:13px;fill:#e1bebb;font-family:Helvetica, Helvetica;}.cls-4{letter-spacing:-0.01em;}</style>
    <style
       id="style12531-7">.cls-1{isolation:isolate;}.cls-2{opacity:0.7;mix-blend-mode:multiply;}.cls-3,.cls-5{fill:#fff;}.cls-4{fill:#009887;}.cls-5{font-size:13px;font-family:Helvetica-Bold, Helvetica Bold;font-weight:700;}.cls-6{letter-spacing:-0.01em;}</style>
    <style
       id="style10273-9">.cls-1{fill:#f1563f;}.cls-2{fill:#fff;}.cls-3{font-size:13px;fill:#e1bebb;font-family:Helvetica, Helvetica;}.cls-4{letter-spacing:0em;}.cls-5{letter-spacing:-0.01em;}.cls-6{letter-spacing:-0.01em;}.cls-7{letter-spacing:0em;}.cls-8{letter-spacing:0em;}.cls-9{letter-spacing:0em;}</style>
    <style
       id="style10906-3">.cls-1{isolation:isolate;}.cls-2{opacity:0.7;mix-blend-mode:multiply;}.cls-3,.cls-5{fill:#fff;}.cls-4{fill:#009887;}.cls-5{font-size:13px;font-family:Helvetica-Bold, Helvetica Bold;font-weight:700;}.cls-6{letter-spacing:0em;}.cls-7{letter-spacing:-0.01em;}.cls-8{letter-spacing:-0.01em;}.cls-9{letter-spacing:0em;}.cls-10{letter-spacing:0em;}.cls-11{letter-spacing:0em;}</style>
    <style
       id="style11956-0">.cls-1{fill:#f1563f;}.cls-2{fill:#fff;}.cls-3{font-size:13px;fill:#e1bebb;font-family:Helvetica, Helvetica;}.cls-4{letter-spacing:-0.01em;}</style>
    <style
       id="style12531-5">.cls-1{isolation:isolate;}.cls-2{opacity:0.7;mix-blend-mode:multiply;}.cls-3,.cls-5{fill:#fff;}.cls-4{fill:#009887;}.cls-5{font-size:13px;font-family:Helvetica-Bold, Helvetica Bold;font-weight:700;}.cls-6{letter-spacing:-0.01em;}</style>
    <style
       id="style7552">.cls-1{fill:#f1563f;}.cls-2{fill:#fff;}.cls-3{font-size:13px;fill:#e1bebb;font-family:Helvetica, Helvetica;}.cls-4{letter-spacing:0em;}.cls-5{letter-spacing:0em;}.cls-6{letter-spacing:0em;}</style>
    <style
       id="style8161">.cls-1{isolation:isolate;}.cls-2{opacity:0.7;mix-blend-mode:multiply;}.cls-3,.cls-5{fill:#fff;}.cls-4{fill:#009887;}.cls-5{font-size:13px;font-family:Helvetica-Bold, Helvetica Bold;font-weight:700;}.cls-6{letter-spacing:0em;}.cls-7{letter-spacing:0em;}.cls-8{letter-spacing:0em;}</style>
    <style
       id="style9392">.cls-1{fill:#f1563f;}.cls-2{fill:#fff;}.cls-3{font-size:13px;fill:#e1bebb;font-family:Helvetica, Helvetica;}.cls-4{letter-spacing:-0.01em;}</style>
    <style
       id="style10012">.cls-1{isolation:isolate;}.cls-2{opacity:0.7;mix-blend-mode:multiply;}.cls-3,.cls-5{fill:#fff;}.cls-4{fill:#009887;}.cls-5{font-size:13px;font-family:Helvetica-Bold, Helvetica Bold;font-weight:700;}.cls-6{letter-spacing:-0.01em;}</style>
    <style
       id="style10706">.cls-1{fill:#f1563f;}.cls-2{fill:#fff;}.cls-3{font-size:13px;fill:#e1bebb;font-family:Helvetica, Helvetica;}</style>
    <style
       id="style11302">.cls-1{isolation:isolate;}.cls-2{opacity:0.7;mix-blend-mode:multiply;}.cls-3,.cls-5{fill:#fff;}.cls-4{fill:#009887;}.cls-5{font-size:13px;font-family:Helvetica-Bold, Helvetica Bold;font-weight:700;}</style>
    <style
       id="style13202">.cls-1{fill:#f1563f;}.cls-2{fill:#fff;}.cls-3{font-size:13px;fill:#e1bebb;font-family:Helvetica, Helvetica;}.cls-4{letter-spacing:-0.01em;}.cls-5{letter-spacing:0em;}.cls-6{letter-spacing:-0.01em;}.cls-7{letter-spacing:0.01em;}</style>
    <style
       id="style13792">.cls-1{isolation:isolate;}.cls-2{opacity:0.7;mix-blend-mode:multiply;}.cls-3,.cls-5{fill:#fff;}.cls-4{fill:#009887;}.cls-5{font-size:13px;font-family:Helvetica-Bold, Helvetica Bold;font-weight:700;}.cls-6{letter-spacing:-0.01em;}.cls-7{letter-spacing:0em;}.cls-8{letter-spacing:-0.01em;}.cls-9{letter-spacing:0.01em;}</style>
    <style
       id="style13202-6">.cls-1{fill:#f1563f;}.cls-2{fill:#fff;}.cls-3{font-size:13px;fill:#e1bebb;font-family:Helvetica, Helvetica;}.cls-4{letter-spacing:-0.01em;}.cls-5{letter-spacing:0em;}.cls-6{letter-spacing:-0.01em;}.cls-7{letter-spacing:0.01em;}</style>
    <style
       id="style13792-2">.cls-1{isolation:isolate;}.cls-2{opacity:0.7;mix-blend-mode:multiply;}.cls-3,.cls-5{fill:#fff;}.cls-4{fill:#009887;}.cls-5{font-size:13px;font-family:Helvetica-Bold, Helvetica Bold;font-weight:700;}.cls-6{letter-spacing:-0.01em;}.cls-7{letter-spacing:0em;}.cls-8{letter-spacing:-0.01em;}.cls-9{letter-spacing:0.01em;}</style>
    <style
       id="style4485">.cls-1{fill:#f1563f;}.cls-2{fill:#fff;}.cls-3{font-size:13px;fill:#e1bebb;font-family:Helvetica, Helvetica;}.cls-4{letter-spacing:0.01em;}.cls-5{letter-spacing:0em;}</style>
    <style
       id="style4517">.cls-1{isolation:isolate;}.cls-2{opacity:0.7;mix-blend-mode:multiply;}.cls-3,.cls-5{fill:#fff;}.cls-4{fill:#009887;}.cls-5{font-size:13px;font-family:Helvetica-Bold, Helvetica Bold;font-weight:700;}.cls-6{letter-spacing:0.01em;}.cls-7{letter-spacing:0em;}</style>
    <style
       id="style5297">.cls-1{fill:#f1563f;}.cls-2{fill:#fff;}.cls-3{font-size:13px;fill:#e1bebb;font-family:Helvetica, Helvetica;}.cls-4{letter-spacing:-0.04em;}.cls-5{letter-spacing:0em;}.cls-6{letter-spacing:0.02em;}.cls-7{letter-spacing:0em;}</style>
    <style
       id="style5963">.cls-1{isolation:isolate;}.cls-2{opacity:0.7;mix-blend-mode:multiply;}.cls-3,.cls-5{fill:#fff;}.cls-4{fill:#009887;}.cls-5{font-size:13px;font-family:Helvetica-Bold, Helvetica Bold;font-weight:700;}.cls-6{letter-spacing:-0.04em;}.cls-7{letter-spacing:0em;}.cls-8{letter-spacing:0.02em;}.cls-9{letter-spacing:0em;}</style>
    <style
       id="style6675">.cls-1{fill:#f1563f;}.cls-2{fill:#fff;}.cls-3{font-size:13px;fill:#e1bebb;font-family:Helvetica, Helvetica;letter-spacing:-0.03em;}.cls-4{letter-spacing:0em;}.cls-5{letter-spacing:-0.01em;}.cls-6{letter-spacing:0em;}</style>
    <style
       id="style7265">.cls-1{isolation:isolate;}.cls-2{opacity:0.7;mix-blend-mode:multiply;}.cls-3,.cls-5{fill:#fff;}.cls-4{fill:#009887;}.cls-5{font-size:13px;font-family:Helvetica-Bold, Helvetica Bold;font-weight:700;letter-spacing:-0.03em;}.cls-6{letter-spacing:0em;}.cls-7{letter-spacing:-0.01em;}.cls-8{letter-spacing:0em;}</style>
  </defs>
  <sodipodi:namedview
     id="base"
     pagecolor="#ffffff"
     bordercolor="#666666"
     borderopacity="1.0"
     inkscape:pageopacity="0.0"
     inkscape:pageshadow="2"
     inkscape:zoom="5.6568545"
     inkscape:cx="26.389973"
     inkscape:cy="37.255766"
     inkscape:document-units="mm"
     inkscape:current-layer="layer14"
     showgrid="false"
     showguides="true"
     inkscape:guide-bbox="true"
     inkscape:window-width="1920"
     inkscape:window-height="1001"
     inkscape:window-x="-9"
     inkscape:window-y="-9"
     inkscape:window-maximized="1"
     fit-margin-top="0"
     fit-margin-left="0"
     fit-margin-right="0"
     fit-margin-bottom="0"
     inkscape:snap-global="false">
    <sodipodi:guide
       position="7.4269323,17.021278"
       orientation="1,0"
       id="guide4580"
       inkscape:locked="false" />
    <sodipodi:guide
       position="0.14262234,8.6238581"
       orientation="0,1"
       id="guide4582"
       inkscape:locked="false" />
  </sodipodi:namedview>
  <metadata
     id="metadata5">
    <rdf:RDF>
      <cc:Work
         rdf:about="">
        <dc:format>image/svg+xml</dc:format>
        <dc:type
           rdf:resource="http://purl.org/dc/dcmitype/StillImage" />
        <dc:title></dc:title>
      </cc:Work>
    </rdf:RDF>
  </metadata>
  <g
     inkscape:label="Layer 1"
     inkscape:groupmode="layer"
     id="layer1"
     transform="translate(-101.33542,-147.7295)">
    <g
       id="g4672"
       transform="matrix(0.26458333,0,0,0.26458333,56.020229,168.73794)">
      <g
         transform="translate(-6.56,-2)"
         inkscape:label="Layer 1"
         id="layer11" />
      <g
         style="display:inline"
         transform="translate(-14.81,-16)"
         inkscape:label="Layer 2"
         id="layer12" />
      <g
         transform="translate(-49.616837,-57.604266)"
         style="isolation:isolate"
         class="cls-1"
         id="g12561" />
    </g>
    <path
       sodipodi:type="star"
       style="opacity:0.98999999;vector-effect:none;fill:#e1f0ef;fill-opacity:1;fill-rule:nonzero;stroke:none;stroke-width:4.70968056;stroke-linecap:round;stroke-linejoin:round;stroke-miterlimit:4;stroke-dasharray:none;stroke-dashoffset:0;stroke-opacity:1;paint-order:markers stroke fill"
       id="path4515"
       sodipodi:sides="6"
       sodipodi:cx="108.63694"
       sodipodi:cy="156.16057"
       sodipodi:r1="8.4310684"
       sodipodi:r2="7.3015194"
       sodipodi:arg1="0.52359878"
       sodipodi:arg2="1.0471976"
       inkscape:flatsided="true"
       inkscape:rounded="0"
       inkscape:randomized="0"
       d="m 115.93846,160.3761 -7.30152,4.21554 -7.30152,-4.21554 0,-8.43107 7.30152,-4.21553 7.30152,4.21553 z"
       inkscape:transform-center-x="1.2497473e-006"
       inkscape:transform-center-y="-1.8508538e-006" />
    <g
       id="layer9-6"
       inkscape:label="Layer 1"
       style="display:inline"
       transform="matrix(0.26458333,0,0,0.26458333,85.244444,147.46592)" />
  </g>
  <g
     inkscape:groupmode="layer"
     id="layer14"
     inkscape:label="social"
     style="display:inline"
     transform="translate(0.16369945,-0.18708982)">
    <g
       id="g4698"
       style="display:inline;isolation:isolate;fill:#0e9d8e;fill-opacity:1"
       transform="matrix(0.49053604,0,0,0.49053604,-11.4137,-3.5468364)">
      <path
         id="path4530"
         d="M 47.71,30.84 H 28.44 a 0.27,0.27 0 0 0 -0.27,0.27 v 0.42 a 0.27,0.27 0 0 0 0.27,0.27 h 19.27 a 0.27,0.27 0 0 0 0.27,-0.27 v -0.42 a 0.27,0.27 0 0 0 -0.27,-0.27"
         class="cls-3"
         inkscape:connector-curvature="0"
         style="fill:#0e9d8e;fill-opacity:1" />
      <path
         id="path4532"
         d="m 29.22,22.22 a 0.27,0.27 0 0 0 0.36,0.12 l 8.5,-4.34 8.62,4.28 a 0.27,0.27 0 0 0 0.36,-0.12 l 0.14,-0.29 a 0.27,0.27 0 0 0 -0.12,-0.36 l -8.8,-4.36 h -0.07 a 0.27,0.27 0 0 0 -0.27,0 l -8.76,4.45 a 0.27,0.27 0 0 0 -0.12,0.36 z"
         class="cls-3"
         inkscape:connector-curvature="0"
         style="fill:#0e9d8e;fill-opacity:1" />
      <path
         id="path4534"
         d="m 39,22.15 a 0.27,0.27 0 0 1 -0.27,0.27 h -1.31 a 0.27,0.27 0 0 1 -0.27,-0.27 v -1.31 a 0.27,0.27 0 0 1 0.27,-0.27 h 1.31 A 0.27,0.27 0 0 1 39,20.84 Z m -1.62,3.52 a 0.27,0.27 0 0 1 -0.27,0.27 h -1.56 a 0.27,0.27 0 0 1 -0.27,-0.27 v -1.56 a 0.27,0.27 0 0 1 0.27,-0.27 h 1.56 a 0.27,0.27 0 0 1 0.27,0.27 z m 0,2.56 a 0.27,0.27 0 0 1 -0.27,0.27 h -1.56 a 0.27,0.27 0 0 1 -0.27,-0.27 v -1.56 a 0.27,0.27 0 0 1 0.27,-0.27 h 1.56 a 0.27,0.27 0 0 1 0.27,0.27 z m -2.73,-2.56 a 0.27,0.27 0 0 1 -0.27,0.27 h -1.56 a 0.27,0.27 0 0 1 -0.27,-0.27 v -1.56 a 0.27,0.27 0 0 1 0.27,-0.27 h 1.56 a 0.27,0.27 0 0 1 0.27,0.27 z m 0,2.56 a 0.27,0.27 0 0 1 -0.27,0.27 h -1.56 a 0.27,0.27 0 0 1 -0.27,-0.27 v -1.56 a 0.27,0.27 0 0 1 0.27,-0.27 h 1.56 a 0.27,0.27 0 0 1 0.27,0.27 z m 9,2.11 h 2.22 a 0.27,0.27 0 0 0 0.27,-0.27 V 23 A 0.47,0.47 0 0 0 45.9,22.61 l -7.57,-3.75 a 0.62,0.62 0 0 0 -0.48,0 l -7.57,3.75 A 0.47,0.47 0 0 0 30,23 v 7.08 a 0.27,0.27 0 0 0 0.27,0.27 h 9 a 0.27,0.27 0 0 0 0.27,-0.27 v -6 a 0.27,0.27 0 0 1 0.27,-0.27 h 3.24 a 0.27,0.27 0 0 1 0.27,0.27 v 6 a 0.27,0.27 0 0 0 0.27,0.27"
         class="cls-3"
         inkscape:connector-curvature="0"
         style="fill:#0e9d8e;fill-opacity:1" />
    </g>
  </g>
</svg>
