<svg xmlns="http://www.w3.org/2000/svg" xmlns:xlink="http://www.w3.org/1999/xlink" viewBox="0 0 512 512"><defs><style>.cls-1{fill:none;}.cls-2{clip-path:url(#clip-path);}.cls-3,.cls-4{fill:#009786;stroke:#fff;stroke-miterlimit:10;stroke-width:1.5px;}.cls-3{opacity:0.5;}.cls-5{fill:#fff;}.cls-5,.cls-6{fill-rule:evenodd;}.cls-6{fill:#a8ad2c;}</style><clipPath id="clip-path"><rect class="cls-1" x="-1102.56" y="-410.88" width="1080" height="1589.98"/></clipPath></defs><title>Toowoomba</title><g id="Ui"><g class="cls-2"><polygon class="cls-3" points="310.21 320.06 309.19 320.97 309.62 320.91 310.21 320.06"/><polygon class="cls-3" points="316.2 313.88 315.62 314.79 316.52 313.43 316.2 313.88"/><polygon class="cls-3" points="386.96 412.29 387.14 411.31 386.87 410.4 386.06 409.59 385.62 408.69 385.62 407.08 386.33 405.45 386.42 404.37 386.51 403.3 386.33 402.31 385.17 401.49 384.08 400.77 383.59 400.28 383.27 401.05 383.09 401.85 381.83 401.49 380.12 400.77 379.58 400.05 378.15 400.33 377.16 400.96 376.17 401.77 375.71 402.94 375.71 404.46 375.44 406.17 375.18 407.17 374.91 408.51 375.54 409.5 376.26 410.04 377.33 409.14 378.24 408.33 379.23 408.15 380.4 408.24 381.38 409.69 381.83 411.31 384.44 413.19 385.17 413.11 386.16 412.84 386.87 412.75 387.32 413.11 386.96 412.29"/><polygon class="cls-3" points="316.92 312.83 316.52 313.43 317.02 312.74 316.92 312.83"/><polygon class="cls-3" points="325.57 302.95 325.41 303.22 326.04 305.02 326.04 303.72 325.57 302.95"/><polygon class="cls-3" points="317.66 311.84 317.02 312.74 318.55 311.2 317.66 311.84"/><polygon class="cls-3" points="326.04 305.02 324.41 306.65 325.7 305.56 326.04 305.02"/><polygon class="cls-3" points="236.19 162.44 235.54 165.06 235.54 167.01 233.92 168.96 236.85 171.89 238.47 174.49 242.38 175.47 243.35 181.98 242.05 184.58 240.1 185.88 240.75 190.12 241.73 192.07 237.5 194.35 235.87 195.98 231.96 199.23 231.32 204.44 229.69 208.02 228.06 208.99 226.75 211.27 228.06 213.55 231.32 214.85 235.22 216.48 237.5 216.48 237.82 215.18 237.82 213.23 239.45 213.23 240.43 215.18 242.05 215.83 243.68 215.83 247.59 214.85 249.87 214.52 251.5 213.55 252.8 212.57 255.07 212.75 254.59 208.93 255.54 205.6 256.49 202.26 256.02 196.55 252.68 191.78 252.68 187.01 251.25 184.63 250.77 182.25 247.92 180.34 243.63 176.53 242.67 173.19 243.15 171.28 242.67 166.04 240.81 162.24 238.15 161.8 236.19 162.44"/><line class="cls-3" x1="280.65" y1="318.88" x2="279.81" y2="318.04"/><polyline class="cls-4" points="255.4 290.69 252.47 290.69 248.57 290.05 247.59 286.79 245.64 284.18 243.68 280.28 241.4 276.05 239.45 274.42 237.5 270.19 237.5 264.66 235.54 260.75 233.59 258.8 230.34 253.26 226.75 248.06 224.15 245.45 222.2 245.78 220.25 244.15 218.94 240.57 218.62 236.34 220.9 235.36 224.8 231.13 227.08 228.85 227.73 226.57 228.06 222.67 227.08 219.09 226.43 214.85 226.75 211.27 228.06 208.99 229.69 208.02 231.32 204.44 231.96 199.23 235.87 195.98 237.5 194.35 241.73 192.07 240.75 190.12 240.1 185.88 242.05 184.58 243.35 181.98 242.38 175.47 238.47 174.49 236.85 171.89 233.92 168.96 235.54 167.01 235.54 165.06 236.19 162.44 238.15 161.8 240.81 162.24 240.75 162.12 240.43 159.84 240.29 156.51 236.95 151.74 237.43 146.03 238.86 143.17 236.95 141.26 232.19 137.93 229.33 136.02 225.99 132.21 223.13 128.4 221.23 128.87 219.8 130.3 215.03 133.64 212.17 134.11 208.36 132.68 206.45 130.78 205.5 128.87 204.55 125.06 203.59 121.73 202.16 118.39 202.64 113.14 199.78 108.86 200.26 105.52 198.83 102.19 195.97 101.23 196.92 96.94 196.92 93.6 195.49 90.75 192.15 89.31 192.15 86.94 192.63 81.69 193.59 77.4 190.25 78.36 187.87 72.63 187.87 69.78 187.87 66.44 186.91 63.58 186.44 59.77 183.1 59.77 181.2 59.3 180.72 55 179.29 56.91 175 58.34 175.48 60.72 175.48 63.58 175 65.96 174.52 68.82 173.57 71.69 170.24 77.88 171.66 79.78 170.71 82.64 169.76 84.55 168.8 80.26 167.37 82.64 165.94 86.46 165.47 88.36 167.37 90.75 171.19 93.6 164.04 98.37 163.08 101.71 167.37 104.57 163.08 109.33 159.75 119.34 163.57 123.15 163.57 129.35 161.66 131.26 162.13 134.11 162.61 138.41 164.04 141.26 165.47 143.65 163.08 146.03 159.75 162.71 158.32 167.47 155.94 175.58 152.6 180.82 149.74 183.68 147.84 191.3 146.88 193.68 144.98 194.64 141.64 196.07 136.4 197.98 133.54 197.98 128.78 197.98 126.39 197.98 123.06 196.55 120.19 194.64 117.33 193.68 113.53 192.26 111.14 189.87 107.8 185.11 105.42 182.72 103.04 182.25 93.03 180.34 93.03 371.45 150.22 371.92 150.22 435.31 272.98 435.31 272.98 432.95 272.32 431.64 272.98 426.11 273.63 422.21 273.96 417.32 274.61 415.69 275.26 413.42 277.86 413.42 278.19 409.83 278.19 406.91 278.19 405.27 275.91 404.95 275.58 402.35 275.91 399.09 277.54 396.49 275.58 394.54 277.54 392.26 279.49 392.26 279.81 383.47 282.42 382.17 283.39 377.61 284.37 375.33 285.35 373.7 285.35 371.75 282.42 370.13 280.79 368.82 280.14 366.87 279.81 364.6 282.75 361.66 283.72 359.71 285.35 357.43 288.28 355.8 290.56 353.53 292.51 352.22 295.76 350.6 297.72 350.26 294.46 348.64 289.58 346.36 286 347.99 282.75 349.29 278.84 350.6 276.88 349.29 273.96 346.68 270.37 345.71 268.75 340.18 271.35 338.87 272.65 336.6 275.91 334.64 277.86 332.36 279.49 329.11 279.16 326.18 280.14 323.57 281.12 319.34 280.65 318.88"/><polyline class="cls-3" points="279.81 318.04 279.16 317.39 276.23 315.77 272.65 315.44 271.68 312.83 270.7 310.56 267.12 308.6 264.19 305.67 263.54 302.74 261.91 300.79 258.66 299.49 255.4 297.2 256.05 294.93 255.4 290.69"/><polygon class="cls-3" points="251.5 213.55 249.87 214.52 247.59 214.85 243.68 215.83 242.05 215.83 240.43 215.18 239.45 213.23 237.82 213.23 237.82 215.18 237.5 216.48 235.22 216.48 231.32 214.85 228.06 213.55 226.75 211.27 226.43 214.85 227.08 219.09 228.06 222.67 227.73 226.57 227.08 228.85 224.8 231.13 220.9 235.36 218.62 236.34 218.94 240.57 220.25 244.15 222.2 245.78 224.15 245.45 226.75 248.06 230.34 253.26 233.59 258.8 235.54 260.75 237.5 264.66 237.5 270.19 239.45 274.42 241.4 276.05 243.68 280.28 245.64 284.18 247.59 286.79 248.57 290.05 252.47 290.69 255.4 290.69 255.4 288.42 257.68 286.47 256.7 285.17 256.38 283.54 256.38 281.26 256.38 279.63 257.36 278.65 259.31 279.63 260.94 280.93 262.24 281.91 264.19 281.91 265.82 280.28 268.1 280.93 270.37 280.61 271.68 279.3 272.98 278 272.98 276.38 272.32 274.75 272.65 272.48 273.3 270.19 273.3 268.24 273.3 265.96 273.63 263.68 274.61 261.73 276.23 260.75 277.86 260.75 279.81 259.77 280.46 258.15 280.79 255.87 281.12 253.59 280.46 251.31 279.49 249.69 281.76 248.38 282.42 250.01 284.7 249.03 284.7 246.43 284.7 245.13 286.99 243.72 285.09 238.01 282.23 236.11 276.99 235.15 268.89 230.86 264.59 228 262.22 223.71 261.74 220.85 260.79 217.99 257.45 216.56 255.07 212.75 252.8 212.57 251.5 213.55"/><polygon class="cls-3" points="408.13 406.79 408.11 406.8 406.66 407.17 405.14 408.06 403.79 408.88 402.89 409.69 401.81 410.85 401.54 412.38 400.91 414.99 401.81 415.98 402.26 417.06 402.44 418.68 402.8 419.58 402.8 419.58 408.04 417.68 409 413.86 409 409.1 408.13 406.79"/><path class="cls-3" d="M402.26,417.06l-.45-1.08-.9-1,.63-2.61.27-1.53,1.08-1.17.9-.81,1.35-.81,1.52-.9,1.44-.36h0l-.56-1.51-3.34-7.63-2.86-3.81s-1.27.18-1.54.18-1.35-1-1.35-1l-.72-1.17-.45-1.26-.72-1.35-3-.36-1.35-.63-.27-1.62-.45-.81.15-1.19-1.87-.53-2-1.63-2.28-.64-3.58.64-.32,1.31.32,2.92v1.63l-.75,1.31.65,1.21.45,1.7.45,2.08.54,1.26L383,397l-.27,1.8,1,1.17-.13.32.49.49,1.08.72,1.17.81.18,1-.09,1.08-.09,1.08-.72,1.63v1.62l.45.9.81.81.27.9-.18,1,.36.81.63,1.8.81,1.71.36,1.25,1,1.08.72.63.45.54.81.63.36.45,0,.16,7.47-.35,2.85-1.43-.36-.9Z"/><polyline class="cls-3" points="383.59 400.28 383.72 399.97 382.73 398.8 383 397 383.37 395.92 382.82 394.66 382.37 392.58 381.92 390.88 381.27 389.67 380.72 390.63 379.42 389 377.46 389.33 375.19 390.95 372.91 390.95 369.98 389 368.68 387.7 365.1 385.75 362.49 383.8 359.89 378.92 359.56 375.33 361.19 373.7 355.33 372.4 352.73 372.4 352.4 369.47 352.08 367.85 351.42 365.89 348.82 364.92 347.5 364.81 347.19 368.5 344.92 368.5 342.96 368.5 340.03 369.15 336.78 370.13 333.85 370.13 329.94 370.13 325.39 371.43 320.5 372.4 317.25 369.47 314.64 366.87 316.6 365.57 316.6 363.61 315.62 362.31 311.71 360.69 310.74 358.08 308.13 357.1 303.58 357.1 300.64 354.83 299.02 351.9 297.72 350.26 295.76 350.6 292.51 352.22 290.56 353.53 288.28 355.8 285.35 357.43 283.72 359.71 282.75 361.66 279.81 364.6 280.14 366.87 280.79 368.82 282.42 370.13 285.35 371.75 285.35 373.7 284.37 375.33 283.39 377.61 282.42 382.17 279.81 383.47 279.49 392.26 277.54 392.26 275.58 394.54 277.54 396.49 275.91 399.09 275.58 402.35 275.91 404.95 278.19 405.27 278.19 406.91 278.19 409.83 277.86 413.42 275.26 413.42 274.61 415.69 273.96 417.32 273.63 422.21 272.98 426.11 272.32 431.64 272.98 432.95 272.98 435.31 315.11 435.31 318.45 433.88 322.74 430.06 326.07 426.73 330.37 428.63 336.08 426.73 343.71 424.82 349.43 426.25 357.05 430.06 363.72 432.92 363.72 435.79 367.06 438.65 371.35 434.83 378.02 431.98 378.97 426.73 381.36 424.35 384.69 420.54 389.94 421.49 392.47 421.36 392.45 421.2 392.09 420.75 391.29 420.12 390.83 419.58 390.11 418.95 389.12 417.87 388.76 416.62 387.95 414.9 387.32 413.11 387.32 413.11 386.87 412.75 386.16 412.84 385.17 413.11 384.44 413.19 381.83 411.31 381.38 409.69 380.4 408.24 379.23 408.15 378.24 408.33 377.33 409.14 376.26 410.04 375.54 409.5 374.91 408.51 375.18 407.17 375.44 406.17 375.71 404.46 375.71 402.94 376.17 401.77 377.16 400.96 378.15 400.33 379.58 400.05 380.12 400.77 381.83 401.49 383.09 401.85 383.27 401.05 383.59 400.28"/><path class="cls-3" d="M329.89,295.2,327,292.81l-1.43-4.28-1-1.91-1-4.76-2.38-3.34.48-2.86-1.91-3.81L317,270.41l-6.2-5.24-.48-4.28,1.43-2.86-.47-4.29h-3.81L301.77,249l-5.24-2.38-7.63-1L287,243.72l-2.29,1.4V249l-2.28,1-.65-1.63-2.27,1.31,1,1.63.65,2.28-.32,2.28-.33,2.28-.65,1.63-2,1h-1.63l-1.63,1-1,2L273.3,266v4.23l-.65,2.28-.33,2.27.65,1.63V278l-1.3,1.3-1.3,1.3-2.28.33-2.28-.65-1.63,1.63h-2l-1.3-1-1.63-1.3-2-1-1,1v3.91l.33,1.63,1,1.3-2.28,2v2.27l.65,4.24-.65,2.28,3.25,2.28,3.25,1.3,1.63,2,.65,2.93,2.93,2.93,3.58,2,1,2.28,1,2.6,3.58.33,2.93,1.62.65.65.84.84.31-1.48-.17-1.31.32-1.63.34-.5,1.13-.81,1.61-.88,1.61-1.46.88-1.61.58-1.17.88-.44h1.61l2.48-2,2.49-1.9,1.38-.59h2l.9.59s.15,1.75.58,1.61a8.52,8.52,0,0,0,1.44-.89h1.88l.78,1-1.32.73.44,1.46h1.17v0l2.93.65,1.3.33v1.63l-.65,2.6v2.28l-.14,1.3-.18,1.63.91,2.51.21.57.92-.14,1-.91,1.17-1,1.87-2.08,1-.13.88-1.16.44-.86.58-.9.32-.46.4-.59.1-.1.64-.9.89-.64h1.3l2.6-1.3,2-3.26L326,305l-.63-1.8.16-.27.71-1.19,1.46-.14h1.31l2-1.17,1.61-1.9,1-1Z"/><path class="cls-3" d="M379,340.95l-1.91-6.2-6.67-.48-1.91-2.38L366.11,329l-3.81-1-5.24-5.24-3.34-4.29-1.43-2.86,2.38-9.52v-5.72l-2.38,1-2.38-.48-5.24-.47-2.86-4.29-5.24-1-1.43,5.71-1.43-3.34-1,1-1.61,1.9-2,1.17h-1.31l-1.46.14-.71,1.19.47.77V305l-.34.54-1.29,1.09-2,3.26-2.6,1.3h-1.3L317,312.74l-.5.69-.9,1.36-.44.86-.88,1.16-1,.13L311.39,319l-1.17,1-.59.84-.43.06-.92.14-.21-.57-.91-2.51.18-1.63.14-1.3v-2.28l.65-2.6V308.6l-1.3-.33-2.93-.65v0h-1.17l-.44-1.46,1.32-.73-.78-1H301a8.52,8.52,0,0,1-1.44.89c-.44.15-.58-1.61-.58-1.61l-.9-.59h-2l-1.38.59-2.49,1.9-2.48,2h-1.61l-.87.44-.58,1.17-.88,1.61-1.61,1.46-1.61.88-1.12.81-.34.5-.32,1.63.17,1.31-.31,1.48.46.46-1,4.23-1,2.61.33,2.93-1.63,3.25-2,2.28-3.26,2-1.3,2.27-2.6,1.31,1.62,5.53,3.59,1,2.92,2.6,2,1.31,3.91-1.31L286,348l3.58-1.63,4.88,2.28,3.25,1.62,1.3,1.63,1.63,2.93,2.93,2.27h4.56l2.6,1,1,2.61,3.9,1.63,1,1.3v2l-2,1.3,2.61,2.6,3.25,2.93,4.88-1,4.55-1.3h6.84l3.25-1,2.93-.65h4.23l.31-3.68,0-.22-.33-6.52,2-3.58v-4.56l2.28-3.58,2.61-1,2.93-1.62.32-2.61,3.25-2,1.63,1.3,1,2,2.6,1.31,1.63-1.63h1.3l1.3,2.28,2,1.62,2.28.33h3.91l1-3.25Z"/><path class="cls-3" d="M397,376.31l-1.31,2.28-.32,2.6-1.3,2-2,1.63-.41-.12-.15,1.19.45.81.27,1.63,1.35.63,3,.36.72,1.35.45,1.26.72,1.17s1.08,1,1.35,1,1.54-.18,1.54-.18l1.9-7.63.48-3.81-.48-4.77-2.18-2.43-1.82,1.42Z"/><polygon class="cls-3" points="399.38 369.78 399.94 365.25 399.47 361.44 394.7 361.44 392.31 358.11 391.37 353.81 388.5 348.1 385.4 347.2 381.05 340.18 378.97 340.94 379.1 343.11 378.12 346.36 374.21 346.36 371.93 346.04 369.98 344.41 368.68 342.13 367.38 342.13 365.75 343.76 363.15 342.45 362.17 340.5 360.54 339.2 357.29 341.15 356.96 343.76 354.03 345.38 351.42 346.36 349.15 349.94 349.15 354.5 347.19 358.08 347.52 364.6 347.5 364.81 348.82 364.92 351.42 365.89 352.08 367.85 352.4 369.47 352.73 372.4 355.33 372.4 361.19 373.7 359.56 375.33 359.89 378.92 362.49 383.8 365.1 385.75 368.68 387.7 369.98 389 372.91 390.95 375.19 390.95 377.46 389.33 379.42 389 380.72 390.63 381.27 389.67 382.02 388.35 382.02 386.72 381.7 383.8 382.02 382.49 385.61 381.85 387.88 382.49 389.83 384.12 391.7 384.65 392.12 384.77 394.07 383.14 395.37 381.19 395.69 378.59 397 376.31 399.28 376.63 401.1 375.22 402.21 374.35 399.38 369.78"/><polygon class="cls-4" points="117.81 178.44 119.72 177.01 121.62 176.53 124.48 173.19 122.1 174.15 118.77 174.15 114 175.58 112.67 178.24 111.62 180.34 114.48 178.44 117.81 178.44"/><polygon class="cls-4" points="115.9 185.58 121.15 189.39 120.67 187.01 118.77 185.58 115.9 185.58"/><path class="cls-3" d="M406.39,396.71s.54-5.23,1.09-6.32a30.14,30.14,0,0,0,1.26-4l.9,4.51-1.8,9.38Z"/><path class="cls-5" d="M207.21,252.52a31.61,31.61,0,1,1-31.62-31.6A31.61,31.61,0,0,1,207.21,252.52Z"/><path class="cls-6" d="M225.53,252.14c0-25.75-21.21-46.63-47.38-46.63s-47.35,20.88-47.35,46.63a46,46,0,0,0,12.13,31.1L147.6,289h-.18l30.79,39.29L209,289h-.25c2.83-3.5,4.67-5.76,4.67-5.76A46,46,0,0,0,225.53,252.14Zm-47.38,24.75a24.74,24.74,0,1,1,25.13-24.74A24.92,24.92,0,0,1,178.15,276.88Z"/><polyline class="cls-4" points="651.4 294.85 648.47 294.85 644.57 294.21 643.59 290.95 641.64 288.34 639.68 284.44 637.4 280.21 635.45 278.58 633.5 274.34 633.5 268.82 631.54 264.91 629.59 262.95 626.34 257.42 622.75 252.22 620.15 249.61 618.2 249.94 616.25 248.31 614.94 244.73 614.62 240.5 616.9 239.52 620.8 235.29 623.08 233.01 623.73 230.73 624.06 226.83 623.08 223.25 622.43 219.01 622.75 215.43 624.06 213.15 625.68 212.18 627.32 208.6 627.96 203.39 631.87 200.14 633.5 198.51 637.73 196.23 636.75 194.28 636.1 190.04 638.05 188.74 639.36 186.14 638.38 179.63 634.47 178.65 632.85 176.05 629.92 173.12 631.54 171.17 631.54 169.21 632.19 166.6 634.15 165.96 636.81 166.4 636.75 166.28 636.42 164 636.29 160.67 632.95 155.9 633.43 150.19 634.86 147.33 632.95 145.42 628.19 142.09 625.33 140.18 621.99 136.37 619.13 132.56 617.23 133.03 615.8 134.46 611.03 137.8 608.17 138.27 604.36 136.84 602.45 134.94 601.5 133.03 600.55 129.22 599.59 125.89 598.16 122.55 598.64 117.3 595.78 113.02 596.26 109.68 594.83 106.34 591.97 105.39 592.92 101.1 592.92 97.76 591.49 94.91 588.15 93.47 588.15 91.09 588.63 85.85 589.59 81.56 586.25 82.52 583.87 76.79 583.87 73.94 583.87 70.6 582.91 67.74 582.44 63.93 579.1 63.93 577.2 63.45 576.72 59.16 575.29 61.07 571 62.5 571.48 64.88 571.48 67.74 571 70.12 570.52 72.98 569.57 75.85 566.24 82.03 567.66 83.94 566.71 86.8 565.76 88.71 564.8 84.42 563.37 86.8 561.95 90.62 561.47 92.53 563.37 94.91 567.19 97.76 560.04 102.53 559.08 105.87 563.37 108.73 559.08 113.5 555.75 123.5 559.57 127.31 559.57 133.51 557.66 135.41 558.13 138.27 558.61 142.57 560.04 145.42 561.47 147.81 559.08 150.19 555.75 166.87 554.32 171.63 551.94 179.74 548.6 184.98 545.74 187.84 543.84 195.46 542.88 197.84 540.98 198.8 537.64 200.23 532.4 202.14 529.54 202.14 524.77 202.14 522.39 202.14 519.06 200.71 516.19 198.8 513.34 197.84 509.53 196.42 507.14 194.03 503.8 189.27 501.42 186.88 499.04 186.41 489.03 184.5 489.03 375.61 546.22 376.08 546.22 439.47 668.98 439.47 668.98 437.11 668.32 435.8 668.98 430.27 669.63 426.37 669.96 421.48 670.61 419.86 671.26 417.58 673.86 417.58 674.19 413.99 674.19 411.07 674.19 409.44 671.91 409.12 671.58 406.51 671.91 403.25 673.54 400.65 671.58 398.7 673.54 396.42 675.49 396.42 675.81 387.63 678.41 386.33 679.39 381.77 680.37 379.49 681.35 377.86 681.35 375.91 678.41 374.29 676.79 372.98 676.14 371.03 675.81 368.75 678.75 365.82 679.72 363.87 681.35 361.59 684.28 359.96 686.56 357.69 688.51 356.38 691.76 354.75 693.72 354.42 690.46 352.8 685.58 350.52 682 352.15 678.75 353.44 674.84 354.75 672.88 353.44 669.96 350.84 666.37 349.87 664.75 344.34 667.35 343.03 668.65 340.76 671.91 338.8 673.86 336.52 675.49 333.27 675.16 330.34 676.14 327.73 677.12 323.5 676.65 323.04"/><polygon class="cls-4" points="513.81 182.59 515.72 181.17 517.62 180.69 520.48 177.35 518.1 178.31 514.76 178.31 510 179.74 508.67 182.4 507.62 184.5 510.48 182.59 513.81 182.59"/><polygon class="cls-4" points="511.9 189.74 517.15 193.55 516.67 191.17 514.76 189.74 511.9 189.74"/></g><polygon class="cls-3" points="310.06 319.88 309.04 320.79 309.47 320.73 310.06 319.88"/><polygon class="cls-3" points="316.05 313.71 315.47 314.61 316.37 313.25 316.05 313.71"/><polygon class="cls-4" points="386.81 412.12 386.99 411.13 386.72 410.22 385.91 409.41 385.46 408.52 385.46 406.9 386.18 405.27 386.27 404.19 386.36 403.12 386.18 402.13 385.01 401.31 383.93 400.6 383.44 400.1 383.12 400.87 382.94 401.68 381.68 401.31 379.97 400.6 379.43 399.88 378 400.15 377 400.78 376.02 401.59 375.56 402.76 375.56 404.29 375.29 406 375.02 406.99 374.75 408.33 375.39 409.32 376.11 409.86 377.18 408.96 378.08 408.16 379.07 407.98 380.25 408.06 381.23 409.51 381.68 411.13 384.29 413.01 385.01 412.93 386 412.66 386.72 412.57 387.17 412.93 386.81 412.12"/><polygon class="cls-3" points="316.77 312.66 316.37 313.25 316.87 312.56 316.77 312.66"/><polygon class="cls-3" points="325.42 302.77 325.25 303.04 325.89 304.84 325.89 303.54 325.42 302.77"/><polygon class="cls-3" points="317.51 311.66 316.87 312.56 318.4 311.02 317.51 311.66"/><polygon class="cls-3" points="325.89 304.84 324.26 306.47 325.55 305.38 325.89 304.84"/><polygon class="cls-3" points="236.04 162.27 235.39 164.88 235.39 166.83 233.77 168.78 236.7 171.71 238.32 174.31 242.23 175.29 243.2 181.8 241.9 184.4 239.95 185.71 240.6 189.94 241.58 191.89 237.34 194.17 235.72 195.8 231.81 199.05 231.16 204.26 229.53 207.84 227.91 208.81 226.6 211.09 227.91 213.37 231.16 214.67 235.07 216.3 237.34 216.3 237.67 215 237.67 213.05 239.3 213.05 240.27 215 241.9 215.65 243.53 215.65 247.44 214.67 249.71 214.34 251.34 213.37 252.65 212.39 254.91 212.57 254.44 208.75 255.39 205.43 256.34 202.09 255.87 196.37 252.53 191.6 252.53 186.84 251.1 184.45 250.62 182.07 247.77 180.16 243.47 176.35 242.52 173.01 243 171.11 242.52 165.86 240.66 162.06 238 161.62 236.04 162.27"/><line class="cls-3" x1="280.5" y1="318.7" x2="279.66" y2="317.86"/><polyline class="cls-3" points="279.66 317.86 279.01 317.21 276.08 315.59 272.5 315.26 271.52 312.66 270.55 310.38 266.96 308.42 264.04 305.49 263.39 302.56 261.76 300.61 258.51 299.31 255.25 297.03 255.9 294.75 255.25 290.51 252.32 290.51 248.41 289.87 247.44 286.61 245.49 284 243.53 280.1 241.25 275.87 239.3 274.25 237.34 270.01 237.34 264.48 235.39 260.57 233.44 258.62 230.18 253.08 226.6 247.88 224 245.28 222.05 245.6 220.09 243.97 218.79 240.39 218.47 236.16 220.75 235.18 224.65 230.95 226.93 228.68 227.58 226.39 227.91 222.49 226.93 218.91 226.28 214.67 226.6 211.09 227.91 208.81 229.53 207.84 231.16 204.26 231.81 199.05 235.72 195.8 237.34 194.17 241.58 191.89 240.6 189.94 239.95 185.71 241.9 184.4 243.2 181.8 242.23 175.29 238.32 174.31 236.7 171.71 233.77 168.78 235.39 166.83 235.39 164.88 236.04 162.27 238 161.62 240.66 162.06 240.6 161.94 240.27 159.66 240.14 156.34 236.8 151.56 237.28 145.85 238.71 142.99 236.8 141.09 232.04 137.75 229.18 135.84 225.84 132.03 222.98 128.22 221.08 128.69 219.65 130.12 214.88 133.46 212.02 133.93 208.21 132.5 206.3 130.6 205.35 128.69 204.4 124.88 203.44 121.55 202.01 118.21 202.49 112.97 199.63 108.68 200.11 105.34 198.68 102.01 195.82 101.05 196.77 96.76 196.77 93.42 195.34 90.57 192 89.13 192 86.76 192.48 81.51 193.44 77.22 190.1 78.18 187.72 72.45 187.72 69.6 187.72 66.26 186.76 63.4 186.29 59.59 182.95 59.59 181.04 59.12 180.56 54.82 179.13 56.73 174.85 58.16 175.33 60.54 175.33 63.4 174.85 65.78 174.37 68.64 173.42 71.51 170.08 77.7 171.51 79.6 170.56 82.47 169.61 84.37 168.65 80.08 167.22 82.47 165.79 86.28 165.32 88.19 167.22 90.57 171.04 93.42 163.89 98.19 162.93 101.53 167.22 104.39 162.93 109.16 159.6 119.16 163.41 122.97 163.41 129.17 161.5 131.08 161.98 133.93 162.46 138.23 163.89 141.09 165.32 143.47 162.93 145.85 159.6 162.53 158.17 167.3 155.79 175.4 152.45 180.64 149.59 183.5 147.69 191.12 146.73 193.5 144.83 194.46 141.49 195.89 136.25 197.8 133.38 197.8 128.62 197.8 126.24 197.8 122.91 196.37 120.04 194.46 117.18 193.5 113.38 192.08 110.99 189.69 107.65 184.93 105.27 182.54 102.89 182.07 92.88 180.16 92.88 371.27 150.07 371.74 150.07 435.13 272.83 435.13 272.83 432.77 272.17 431.47 272.83 425.93 273.48 422.03 273.81 417.14 274.45 415.52 275.11 413.24 277.71 413.24 278.04 409.65 278.04 406.73 278.04 405.1 275.76 404.78 275.43 402.17 275.76 398.92 277.38 396.31 275.43 394.36 277.38 392.08 279.34 392.08 279.66 383.29 282.26 381.99 283.24 377.43 284.22 375.15 285.19 373.52 285.19 371.57 282.26 369.95 280.64 368.64 279.99 366.69 279.66 364.42 282.59 361.49 283.56 359.53 285.19 357.25 288.13 355.62 290.4 353.35 292.36 352.04 295.61 350.42 297.56 350.08 294.31 348.46 289.43 346.19 285.84 347.81 282.59 349.11 278.69 350.42 276.73 349.11 273.81 346.5 270.22 345.53 268.6 340 271.2 338.69 272.5 336.42 275.76 334.46 277.71 332.18 279.34 328.93 279.01 326 279.99 323.39 280.96 319.16 280.5 318.7"/><polygon class="cls-3" points="251.34 213.37 249.71 214.34 247.44 214.67 243.53 215.65 241.9 215.65 240.27 215 239.3 213.05 237.67 213.05 237.67 215 237.34 216.3 235.07 216.3 231.16 214.67 227.91 213.37 226.6 211.09 226.28 214.67 226.93 218.91 227.91 222.49 227.58 226.39 226.93 228.68 224.65 230.95 220.75 235.18 218.47 236.16 218.79 240.39 220.09 243.97 222.05 245.6 224 245.28 226.6 247.88 230.18 253.08 233.44 258.62 235.39 260.57 237.34 264.48 237.34 270.01 239.3 274.25 241.25 275.87 243.53 280.1 245.49 284 247.44 286.61 248.41 289.87 252.32 290.51 255.25 290.51 255.25 288.24 257.53 286.29 256.55 284.99 256.23 283.36 256.23 281.08 256.23 279.45 257.2 278.47 259.16 279.45 260.79 280.75 262.09 281.73 264.04 281.73 265.67 280.1 267.94 280.75 270.22 280.43 271.52 279.12 272.83 277.83 272.83 276.2 272.17 274.57 272.5 272.3 273.15 270.01 273.15 268.06 273.15 265.78 273.48 263.5 274.45 261.55 276.08 260.57 277.71 260.57 279.66 259.6 280.31 257.97 280.64 255.69 280.96 253.41 280.31 251.13 279.34 249.51 281.61 248.2 282.26 249.83 284.55 248.85 284.55 246.25 284.55 244.95 286.84 243.55 284.94 237.83 282.08 235.93 276.84 234.97 268.74 230.68 264.44 227.82 262.06 223.53 261.58 220.67 260.63 217.81 257.3 216.38 254.91 212.57 252.65 212.39 251.34 213.37"/><polygon class="cls-3" points="407.98 406.61 407.96 406.62 406.51 406.99 404.99 407.88 403.64 408.7 402.74 409.51 401.66 410.68 401.39 412.2 400.76 414.81 401.66 415.8 402.11 416.88 402.29 418.5 402.64 419.4 402.65 419.4 407.89 417.5 408.84 413.68 408.84 408.92 407.98 406.61"/><path class="cls-3" d="M402.11,416.88l-.45-1.08-.9-1,.63-2.61.27-1.53,1.08-1.17.9-.81,1.35-.81,1.52-.9,1.44-.36h0l-.56-1.51-3.34-7.63-2.86-3.81s-1.27.18-1.54.18-1.35-1-1.35-1l-.72-1.17-.45-1.26-.72-1.35-3-.36-1.35-.63-.27-1.62-.45-.81.15-1.19-1.87-.53-2-1.63-2.28-.64-3.58.64-.32,1.31.32,2.92v1.63l-.75,1.31.65,1.21.45,1.7.45,2.08.54,1.26-.36,1.08-.27,1.8,1,1.17-.13.32.49.49,1.08.72,1.17.81.18,1-.09,1.08-.09,1.08-.72,1.63v1.62l.45.9.81.81.27.9-.18,1,.36.81.63,1.8.81,1.71.36,1.25,1,1.08.72.63.45.54.81.63.36.45,0,.16,7.47-.35,2.85-1.43-.36-.9Z"/><polyline class="cls-3" points="383.44 400.1 383.57 399.79 382.58 398.62 382.85 396.82 383.21 395.74 382.67 394.48 382.22 392.4 381.77 390.7 381.12 389.49 380.57 390.45 379.27 388.83 377.31 389.15 375.04 390.78 372.76 390.78 369.83 388.83 368.53 387.52 364.95 385.57 362.34 383.62 359.74 378.74 359.41 375.15 361.04 373.52 355.18 372.23 352.58 372.23 352.25 369.29 351.93 367.67 351.27 365.71 348.67 364.74 347.35 364.64 347.04 368.32 344.77 368.32 342.81 368.32 339.88 368.97 336.63 369.95 333.7 369.95 329.79 369.95 325.24 371.25 320.35 372.23 317.1 369.29 314.49 366.69 316.45 365.39 316.45 363.44 315.47 362.13 311.56 360.51 310.58 357.9 307.98 356.92 303.42 356.92 300.49 354.65 298.87 351.72 297.56 350.08 295.61 350.42 292.36 352.04 290.4 353.35 288.13 355.62 285.19 357.25 283.56 359.53 282.59 361.49 279.66 364.42 279.99 366.69 280.64 368.64 282.26 369.95 285.19 371.57 285.19 373.52 284.22 375.15 283.24 377.43 282.26 381.99 279.66 383.29 279.34 392.08 277.38 392.08 275.43 394.36 277.38 396.31 275.76 398.92 275.43 402.17 275.76 404.78 278.04 405.1 278.04 406.73 278.04 409.65 277.71 413.24 275.11 413.24 274.45 415.52 273.81 417.14 273.48 422.03 272.83 425.93 272.17 431.47 272.83 432.77 272.83 435.13 314.96 435.13 318.3 433.7 322.58 429.88 325.92 426.55 330.21 428.45 335.93 426.55 343.56 424.64 349.27 426.07 356.9 429.88 363.57 432.74 363.57 435.61 366.9 438.47 371.19 434.65 377.87 431.8 378.82 426.55 381.21 424.17 384.54 420.36 389.78 421.31 392.32 421.18 392.3 421.02 391.94 420.57 391.13 419.94 390.68 419.4 389.96 418.77 388.97 417.69 388.61 416.44 387.8 414.73 387.17 412.93 387.17 412.93 386.72 412.57 386 412.66 385.01 412.93 384.29 413.01 381.68 411.13 381.23 409.51 380.25 408.06 379.07 407.98 378.08 408.16 377.18 408.96 376.11 409.86 375.39 409.32 374.75 408.33 375.02 406.99 375.29 406 375.56 404.29 375.56 402.76 376.02 401.59 377 400.78 378 400.15 379.43 399.88 379.97 400.6 381.68 401.31 382.94 401.68 383.12 400.87 383.44 400.1"/><path class="cls-3" d="M329.73,295l-2.86-2.39-1.43-4.28-1-1.91-1-4.76-2.38-3.34.48-2.86-1.91-3.81-2.86-1.44-6.2-5.24-.48-4.28,1.43-2.86-.47-4.29h-3.81l-5.72-4.77-5.24-2.38-7.63-1-1.91-1.91-2.29,1.4v3.9l-2.28,1-.65-1.63-2.27,1.31,1,1.63.65,2.28-.32,2.28-.33,2.28-.65,1.63-2,1h-1.63l-1.63,1-1,2-.32,2.28V270l-.65,2.28-.33,2.27.65,1.63v1.63l-1.3,1.3-1.3,1.3-2.28.33-2.28-.65L264,281.73h-2l-1.3-1-1.63-1.3-2-1-1,1v3.91l.33,1.63,1,1.3-2.28,2v2.27l.65,4.24-.65,2.28,3.25,2.28,3.25,1.3,1.63,2,.65,2.93,2.93,2.93,3.58,2,1,2.28,1,2.6,3.58.33,2.93,1.62.65.65.84.84.31-1.48-.17-1.31.32-1.63.34-.5,1.13-.81,1.61-.88,1.61-1.46.88-1.61.58-1.17.88-.44h1.61l2.48-2,2.49-1.9,1.38-.59h2l.9.59s.15,1.75.58,1.61a8.52,8.52,0,0,0,1.44-.89h1.88l.78,1-1.32.73.44,1.46h1.17v0l2.93.65,1.3.33v1.63l-.65,2.6v2.28l-.14,1.3-.18,1.63.91,2.51.21.57.92-.14,1-.91,1.17-1,1.87-2.08,1-.13.88-1.16.44-.86.58-.9.32-.46.4-.59.1-.1.64-.9.89-.64h1.3l2.6-1.3,2-3.26,1.63-1.63-.63-1.8.16-.27.71-1.19,1.46-.14h1.31l2-1.17,1.61-1.9,1-1Z"/><path class="cls-3" d="M378.82,340.77l-1.91-6.2-6.67-.48-1.91-2.38L366,328.85l-3.81-1-5.24-5.24-3.34-4.29-1.43-2.86,2.38-9.52v-5.72l-2.38,1-2.38-.48-5.24-.47L341.65,296l-5.24-1L335,300.73l-1.43-3.34-1,1-1.61,1.9-2,1.17H327.6l-1.46.14-.71,1.19.47.77v1.3l-.34.54-1.29,1.09-2,3.26-2.6,1.3h-1.3l-1.53,1.53-.5.69-.9,1.36-.44.86-.88,1.16-1,.13-1.87,2.08-1.17,1-.59.84-.43.06-.92.14-.21-.57-.91-2.51.18-1.63.14-1.3v-2.28l.65-2.6v-1.63l-1.3-.33-2.93-.65v0H302.6l-.44-1.46,1.32-.73-.78-1h-1.88a8.52,8.52,0,0,1-1.44.89c-.44.15-.58-1.61-.58-1.61l-.9-.59h-2l-1.38.59-2.49,1.9-2.48,2H288l-.87.44-.58,1.17-.88,1.61L284,312.1l-1.61.88-1.12.81-.34.5-.32,1.63.17,1.31-.31,1.48.46.46-1,4.23L279,326l.33,2.93-1.63,3.25-2,2.28-3.26,2-1.3,2.27L268.6,340l1.62,5.53,3.59,1,2.92,2.6,2,1.31,3.91-1.31,3.25-1.29,3.58-1.63,4.88,2.28,3.25,1.62,1.3,1.63,1.63,2.93,2.93,2.27H308l2.6,1,1,2.61,3.9,1.63,1,1.3v2l-2,1.3,2.61,2.6,3.25,2.93,4.88-1,4.55-1.3h6.84l3.25-1,2.93-.65H347l.31-3.68,0-.22L347,357.9l2-3.58v-4.56l2.28-3.58,2.61-1,2.93-1.62.32-2.61,3.25-2,1.63,1.3,1,2,2.6,1.31,1.63-1.63h1.3l1.3,2.28,2,1.62,2.28.33H378l1-3.25Z"/><path class="cls-3" d="M396.85,376.13l-1.31,2.28-.32,2.6-1.3,2-2,1.63-.41-.12-.15,1.19.45.81.27,1.63,1.35.63,3,.36.72,1.35.45,1.26.72,1.17s1.08,1,1.35,1,1.54-.18,1.54-.18l1.9-7.63.48-3.81-.48-4.77L400.95,375l-1.82,1.42Z"/><polygon class="cls-3" points="399.23 369.6 399.79 365.07 399.31 361.26 394.55 361.26 392.16 357.93 391.21 353.63 388.35 347.92 385.25 347.02 380.9 340 378.82 340.77 378.95 342.93 377.97 346.19 374.06 346.19 371.78 345.86 369.83 344.23 368.53 341.95 367.23 341.95 365.6 343.58 363 342.27 362.02 340.32 360.39 339.02 357.13 340.97 356.81 343.58 353.88 345.2 351.27 346.19 349 349.76 349 354.32 347.04 357.9 347.37 364.42 347.35 364.64 348.67 364.74 351.27 365.71 351.93 367.67 352.25 369.29 352.58 372.23 355.18 372.23 361.04 373.52 359.41 375.15 359.74 378.74 362.34 383.62 364.95 385.57 368.53 387.52 369.83 388.83 372.76 390.78 375.04 390.78 377.31 389.15 379.27 388.83 380.57 390.45 381.12 389.49 381.87 388.17 381.87 386.54 381.55 383.62 381.87 382.31 385.46 381.67 387.73 382.31 389.68 383.94 391.55 384.47 391.96 384.59 393.92 382.96 395.22 381.01 395.54 378.41 396.85 376.13 399.13 376.45 400.95 375.04 402.06 374.18 399.23 369.6"/><polygon class="cls-3" points="117.66 178.26 119.57 176.83 121.47 176.35 124.33 173.01 121.95 173.97 118.61 173.97 113.85 175.4 112.52 178.06 111.47 180.16 114.33 178.26 117.66 178.26"/><polygon class="cls-3" points="115.75 185.41 121 189.21 120.52 186.84 118.61 185.41 115.75 185.41"/><path class="cls-3" d="M406.24,396.53s.54-5.23,1.09-6.32a30.14,30.14,0,0,0,1.26-4l.9,4.51-1.8,9.38Z"/><path class="cls-5" d="M411.21,326.92a31.61,31.61,0,1,1-31.62-31.6A31.61,31.61,0,0,1,411.21,326.92Z"/><path class="cls-6" d="M429.54,326.53c0-25.75-21.21-46.63-47.38-46.63s-47.35,20.88-47.35,46.63a46,46,0,0,0,12.13,31.1l4.66,5.76h-.18l30.79,39.29L413,363.39h-.25c2.83-3.5,4.67-5.76,4.67-5.76A46,46,0,0,0,429.54,326.53Zm-47.38,24.75a24.74,24.74,0,1,1,25.13-24.74A24.92,24.92,0,0,1,382.15,351.28Z"/></g></svg>