<svg xmlns="http://www.w3.org/2000/svg" viewBox="0 0 78.57 56.82"><defs><style>.cls-1{fill:#f1563f;}.cls-2{fill:#fff;}.cls-3{font-size:13px;fill:#e1bebb;font-family:Helvetica, Helvetica;}.cls-4{letter-spacing:0em;}.cls-5{letter-spacing:0.02em;}.cls-6{letter-spacing:-0.01em;}.cls-7{letter-spacing:0em;}.cls-8{letter-spacing:-0.01em;}.cls-9{letter-spacing:-0.01em;}.cls-10{letter-spacing:0em;}.cls-11{letter-spacing:0em;}</style></defs><title>Asset 38</title><g id="Layer_2" data-name="Layer 2"><g id="Assets_class" data-name="Assets class"><g id="_Group_" data-name="&lt;Group&gt;"><circle class="cls-1" cx="39.29" cy="14.5" r="14.5"/><circle class="cls-1" cx="39.29" cy="14.5" r="13.33"/></g><polygon class="cls-2" points="47.76 9.52 47.76 9.52 30.64 9.52 30.63 9.52 30.63 8.85 30.63 8.85 47.76 8.85 47.76 8.85 47.76 9.52"/><rect class="cls-2" x="36.51" y="9.83" width="1.2" height="8"/><rect class="cls-2" x="40.69" y="9.83" width="1.2" height="8"/><rect class="cls-2" x="44.86" y="9.83" width="1.2" height="8"/><polygon class="cls-2" points="38.04 10.85 36.18 10.85 35.95 9.83 38.27 9.83 38.04 10.85"/><polygon class="cls-2" points="38.02 16.8 36.21 16.8 35.98 17.82 38.24 17.82 38.02 16.8"/><rect class="cls-2" x="32.34" y="9.83" width="1.2" height="8"/><polygon class="cls-2" points="33.87 10.85 32.01 10.85 31.78 9.83 34.1 9.83 33.87 10.85"/><polygon class="cls-2" points="33.84 16.8 32.03 16.8 31.81 17.82 34.07 17.82 33.84 16.8"/><polygon class="cls-2" points="42.21 10.85 40.35 10.85 40.12 9.83 42.44 9.83 42.21 10.85"/><polygon class="cls-2" points="42.19 16.8 40.38 16.8 40.15 17.82 42.42 17.82 42.19 16.8"/><polygon class="cls-2" points="46.39 10.85 44.53 10.85 44.3 9.83 46.62 9.83 46.39 10.85"/><polygon class="cls-2" points="46.37 16.8 44.56 16.8 44.33 17.82 46.59 17.82 46.37 16.8"/><polygon class="cls-2" points="39.2 5.79 47.76 8.93 30.63 8.93 39.2 5.79"/><polygon class="cls-2" points="49.03 19.53 49.03 19.53 29.37 19.53 29.36 19.53 29.36 19.03 29.37 19.02 49.03 19.02 49.03 19.03 49.03 19.53"/><polygon class="cls-2" points="47.63 18.62 47.63 18.62 30.77 18.62 30.76 18.62 30.76 18.12 30.76 18.12 47.63 18.12 47.63 18.12 47.63 18.62"/><polygon class="cls-2" points="50.23 20.42 50.23 20.42 28.16 20.42 28.16 20.42 28.16 19.92 28.16 19.92 50.23 19.92 50.23 19.92 50.23 20.42"/><text class="cls-3" transform="translate(6.59 41.57)"><tspan class="cls-4">A</tspan><tspan class="cls-5" x="7.92" y="0">r</tspan><tspan x="12.48" y="0">t</tspan><tspan class="cls-6" x="16.78" y="0">s</tspan><tspan class="cls-7" x="21.79" y="0">, cultu</tspan><tspan class="cls-8" x="54.76" y="0">r</tspan><tspan x="58.88" y="0">e</tspan><tspan x="-6.59" y="12">and </tspan><tspan class="cls-9" x="16.98" y="12">r</tspan><tspan class="cls-10" x="21.1" y="12">ec</tspan><tspan class="cls-8" x="33.44" y="12">r</tspan><tspan class="cls-10" x="37.56" y="12">e</tspan><tspan class="cls-11" x="44.07" y="12">a</tspan><tspan x="50.28" y="12">tion</tspan></text></g></g></svg>