<svg xmlns="http://www.w3.org/2000/svg" viewBox="0 0 67.29 56.64"><defs><style>.cls-1{fill:#f1563f;}.cls-2{fill:#fff;}.cls-3{font-size:13px;fill:#e1bebb;font-family:Helvetica, Helvetica;}.cls-4{letter-spacing:0em;}.cls-5{letter-spacing:-0.01em;}.cls-6{letter-spacing:-0.01em;}.cls-7{letter-spacing:0em;}.cls-8{letter-spacing:0em;}.cls-9{letter-spacing:0em;}</style></defs><title>Asset 29</title><g id="Layer_2" data-name="Layer 2"><g id="Assets_class" data-name="Assets class"><g id="_Group_" data-name="&lt;Group&gt;"><circle class="cls-1" cx="33.64" cy="14.5" r="14.5"/><circle class="cls-1" cx="33.64" cy="14.5" r="13.33"/></g><path class="cls-2" d="M28.59,10.83a.72.72,0,0,0-.26.17c-.08.11-.05.16,0,.14s.12,0,.17,0,.12.08.12,0,.11-.08.18-.1.07-.06,0-.11a.23.23,0,0,0-.23,0"/><path class="cls-2" d="M28.62,11.35s0,.07-.07.06-.06.14,0,.1.13,0,.15,0,0,0,0-.08-.06-.1-.09-.08"/><path class="cls-2" d="M31,5.23l-.09,0c-.06,0,0,0,0,.05s0,.09.12.07.1,0,.08-.08a0,0,0,0,0-.08,0"/><path class="cls-2" d="M31,5.58s0,.08-.07.07-.07.12,0,.12.08-.07.12-.09,0-.07,0-.1,0,0-.07,0"/><path class="cls-2" d="M38.25,16.19s0,.06,0,0-.05,0,0,.07.12.11.1.16,0,.13,0,.09.07-.09.09-.09,0-.08-.06-.13-.09-.09-.1-.13-.06,0-.05,0"/><path class="cls-2" d="M38.77,17.48s-.09-.06-.06,0a1.06,1.06,0,0,0,.09.16c0,.07.08.12.13.09s0-.05,0-.14-.1-.14-.14-.12"/><path class="cls-2" d="M40.75,18.68a.26.26,0,0,1-.08.08s0,.06,0,.1a.16.16,0,0,1,0,.2c-.06.08-.12.12-.11.17s.05.17,0,.23-.06.08,0,.17,0,.2.07.15,0-.31.07-.39a.92.92,0,0,0,.12-.25c0-.07.12-.14,0-.2a.12.12,0,0,1,0-.16s0-.09,0-.09"/><path class="cls-2" d="M40.93,20.9a.11.11,0,0,0,0,.13c0,.08,0,.24.07.19S41,21,41,21s-.07-.08-.07-.08"/><path class="cls-2" d="M41,21.22a.77.77,0,0,0,0,.1s0,.32,0,.37,0,.09,0,0,0-.2.05-.27a.24.24,0,0,0,0-.2.08.08,0,0,0-.05,0"/><path class="cls-2" d="M37,22.72c.1-.08.28-.29.45-.2a.27.27,0,0,0,.32,0,1.28,1.28,0,0,1,.52,0c.13,0,.43.11.49.26s.18.3.29.09a.7.7,0,0,1,.42-.33A4.88,4.88,0,0,0,40,22.3a.61.61,0,0,1,.5-.09c.17.08.35-.24.45-.31h0a.71.71,0,0,1,0-.26,1,1,0,0,0-.15-.37c-.07-.12-.14-.14-.08-.32s0-.19,0-.39-.09-.14-.08-.31.07-.2.08-.31-.07-.11-.11-.07,0-.12-.06-.2-.13-.15-.06-.21a.12.12,0,0,0-.06-.2.41.41,0,0,1-.31-.22c-.09-.16,0-.25-.17-.31s-.37-.19-.32-.23,0-.16-.05-.24a.36.36,0,0,0-.34-.23c-.21,0-.24-.13-.34-.24a1.1,1.1,0,0,1-.28-.33,1.5,1.5,0,0,1-.05-.5c0-.11.08-.26,0-.34s0,0-.09,0a.1.1,0,0,1-.18,0c-.06-.09-.29-.18-.32-.29s0-.14-.14-.18-.12.05-.07.1a.16.16,0,0,1,.07.17.17.17,0,0,0,0,.18s0,.1,0,0-.09-.16-.14-.15,0,.06-.12,0-.07-.19-.12-.3a.57.57,0,0,1-.07-.33c0-.1,0-.13-.06-.22a.25.25,0,0,1-.1-.27c0-.11,0-.17-.08-.17S37,15.05,37,15s0,0-.11,0a.24.24,0,0,1-.17-.15c0-.09-.08-.24,0-.19s.14.11.14.06a.51.51,0,0,0-.2-.29c-.13-.1-.11-.06-.12-.11a.07.07,0,0,0-.13,0s-.1,0-.15-.1-.1-.1-.21-.1-.1,0-.13-.08-.11-.07-.12,0-.17,0-.18-.05.05-.2,0-.34,0,0-.11,0-.28.05-.3-.09-.11-.08-.15-.15-.1,0-.16,0-.38-.11-.36-.28a2.85,2.85,0,0,0,0-.33c0-.11,0-.17,0-.25s-.15-.07-.16,0-.12,0-.08-.14a.73.73,0,0,0,.11-.39c0-.13-.2-.45-.15-.54a.14.14,0,0,0-.07-.21.62.62,0,0,1-.34-.29c0-.12,0-.3-.05-.47a.58.58,0,0,1-.11-.45c0-.14,0-.17,0-.2s0-.1,0-.15.05-.09-.05-.19a1.93,1.93,0,0,0-.38-.29c-.15-.08-.08-.12-.08-.21s-.1-.17-.19-.1-.17,0-.21.07-.09.16-.22.16-.21,0-.2-.19a.46.46,0,0,0-.1-.32.31.31,0,0,1,0-.28.47.47,0,0,0,0-.27,3.61,3.61,0,0,1,0-.42c0-.09,0,0-.08,0s0-.12,0-.17-.09-.08-.13-.13-.06-.17-.16-.17,0-.14,0-.23,0-.14-.07-.14-.19,0-.2-.18,0-.24,0-.32,0-.2-.09-.31-.21-.07-.15-.16,0-.12-.08-.1-.07.15-.21.18-.14.13-.14.23,0,.38,0,.48a.22.22,0,0,0,0,.2s0,.18,0,.13-.1-.08-.13,0-.05.17-.07.21-.07.17,0,.2.18,0,.17.11,0,.18,0,.09-.08-.09-.09,0a.21.21,0,0,1-.09.17c-.07,0-.07.07,0,.15s.13.18.09.21-.17,0-.18.15-.06.38,0,.45a.31.31,0,0,1,0,.31.76.76,0,0,0,0,.33s.08.16.09.27-.06.17-.11.26a1.38,1.38,0,0,0-.13.31c0,.05,0,.15,0,.18a.12.12,0,0,0,0,.15.14.14,0,0,1,0,.15.56.56,0,0,0-.12.25c0,.1-.06.31-.17.36s-.08.22-.11.3-.08.26-.2.32-.43.23-.6.16-.39-.14-.43-.25-.26,0-.29-.15-.13-.36-.31-.4a1.56,1.56,0,0,1-.59-.16L27.26,11v9h2.61v2.91h6.91a1.06,1.06,0,0,0,.25-.14"/><text class="cls-3" transform="translate(15.87 41.39)"><tspan class="cls-4">C</tspan><tspan class="cls-5" x="7.5" y="0">r</tspan><tspan x="11.62" y="0">oss–</tspan><tspan x="-15.87" y="12">g</tspan><tspan class="cls-6" x="-8.6" y="12">o</tspan><tspan class="cls-5" x="-1.55" y="12">v</tspan><tspan x="4.57" y="12">e</tspan><tspan class="cls-7" x="11.08" y="12">r</tspan><tspan class="cls-8" x="15.39" y="12">nme</tspan><tspan class="cls-9" x="39.96" y="12">n</tspan><tspan x="47.12" y="12">t</tspan></text></g></g></svg>