<svg xmlns="http://www.w3.org/2000/svg" viewBox="0 0 35.57 45.81"><defs><style>.cls-1{fill:#f1563f;}.cls-2{fill:#fff;}.cls-3{font-size:13px;fill:#e1bebb;font-family:Helvetica, Helvetica;}.cls-4{letter-spacing:-0.01em;}</style></defs><title>Asset 36</title><g id="Layer_2" data-name="Layer 2"><g id="Assets_class" data-name="Assets class"><g id="_Group_" data-name="&lt;Group&gt;"><circle class="cls-1" cx="17.78" cy="14.5" r="14.5"/><circle class="cls-1" cx="17.78" cy="14.5" r="13.33"/></g><path class="cls-2" d="M19,20a1.11,1.11,0,1,1-1.11-1.11A1.11,1.11,0,0,1,19,20"/><path class="cls-2" d="M26.47,13.7a1.16,1.16,0,0,1-.84-.35,11,11,0,0,0-15.54,0,1.17,1.17,0,1,1-1.67-1.63,13.37,13.37,0,0,1,18.89,0,1.17,1.17,0,0,1-.84,2"/><path class="cls-2" d="M23.6,16.1a1.16,1.16,0,0,1-.8-.32,7.35,7.35,0,0,0-9.87,0,1.17,1.17,0,0,1-1.61-1.69,9.42,9.42,0,0,1,6.55-2.55,9.42,9.42,0,0,1,6.55,2.55,1.17,1.17,0,0,1-.81,2"/><path class="cls-2" d="M14.93,18.58a1.17,1.17,0,0,1-.73-2.08,5.85,5.85,0,0,1,3.66-1.23,5.91,5.91,0,0,1,3.57,1.15A1.17,1.17,0,0,1,20,18.28a3.75,3.75,0,0,0-4.35,0,1.16,1.16,0,0,1-.73.26"/><text class="cls-3" transform="translate(0 42.56)">Di<tspan class="cls-4" x="11.7" y="0">g</tspan><tspan x="18.89" y="0">ital</tspan></text></g></g></svg>