<svg xmlns="http://www.w3.org/2000/svg" viewBox="0 0 66.1 57.57"><defs><style>.cls-1{fill:#f1563f;}.cls-2{fill:#fff;}.cls-3{font-size:13px;fill:#e1bebb;font-family:Helvetica, Helvetica;}.cls-4{letter-spacing:0em;}.cls-5{letter-spacing:0em;}.cls-6{letter-spacing:0em;}</style></defs><title>Asset 35</title><g id="Layer_2" data-name="Layer 2"><g id="Assets_class" data-name="Assets class"><g id="_Group_" data-name="&lt;Group&gt;"><circle class="cls-1" cx="33.05" cy="14.5" r="14.5"/><circle class="cls-1" cx="33.05" cy="14.5" r="13.33"/></g><path class="cls-2" d="M26.51,14.8v2.91h0s0,0,0,.06h0c0,1.49,3,2.69,6.6,2.69s6.6-1.2,6.6-2.69h0a.4.4,0,0,0,0-.06h0V14.8l-6.6,2Z"/><path class="cls-2" d="M42.35,15.29v-.21a.21.21,0,0,0-.1-.19V13.2l2-.63L33.11,9.13,21.94,12.57,33.11,16,42,13.29v1.6a.21.21,0,0,0-.1.19v.21a.22.22,0,0,0,.08.18l-.34,1.88h1l-.34-1.88a.22.22,0,0,0,.08-.18"/><text class="cls-3" transform="translate(5.77 42.32)"><tspan class="cls-4">E</tspan><tspan x="6.34" y="0">duc</tspan><tspan class="cls-4" x="26.66" y="0">a</tspan><tspan class="cls-5" x="32.88" y="0">tion</tspan><tspan x="-5.77" y="12">and t</tspan><tspan class="cls-6" x="22.11" y="12">r</tspan><tspan x="26.29" y="12">aining</tspan></text></g></g></svg>