<svg xmlns="http://www.w3.org/2000/svg" viewBox="0 0 37.66 45.51"><defs><style>.cls-1{fill:#f1563f;}.cls-2{fill:#fff;}.cls-3{font-size:13px;fill:#e1bebb;font-family:Helvetica, Helvetica;}.cls-4{letter-spacing:-0.01em;}</style></defs><title>Asset 31</title><g id="Layer_2" data-name="Layer 2"><g id="Assets_class" data-name="Assets class"><g id="_Group_" data-name="&lt;Group&gt;"><circle class="cls-1" cx="18.83" cy="14.5" r="14.5"/><circle class="cls-1" cx="18.83" cy="14.5" r="13.33"/></g><path class="cls-2" d="M20.81,18H16.6a.55.55,0,0,0-.55.73l0,0a.51.51,0,0,0,.28.28.86.86,0,0,0,.31.05h4.15c.39,0,.62-.21.62-.54s-.22-.57-.62-.57"/><path class="cls-2" d="M20.71,19.82h-4a.56.56,0,0,0-.64.55.58.58,0,0,0,0,.14.51.51,0,0,0,.36.36.85.85,0,0,0,.24,0h4c.39,0,.64-.22.64-.55a.56.56,0,0,0-.63-.54"/><path class="cls-2" d="M16.78,21.65H16.7a2.72,2.72,0,0,0,1,1,2.16,2.16,0,0,0,1,.24,2.59,2.59,0,0,0,2-1.19h-4Z"/><path class="cls-2" d="M21.9,14.36,19.41,15v1.85a.77.77,0,0,0,.76.78h0a.77.77,0,0,0,.77-.77V16.2l1.34-.35a.77.77,0,1,0-.39-1.49"/><path class="cls-2" d="M21.9,12l-6.14,1.6-.59.16a.77.77,0,0,0-.57.84.78.78,0,0,0,.07.43.77.77,0,0,0,.37.37h0l1.57.72,0,.72a.61.61,0,0,0,0,.18.76.76,0,0,0,.54.55l.2,0h0a.77.77,0,0,0,.75-.79l0-1.68-.75-.35,4.92-1.28A.77.77,0,1,0,21.9,12"/><path class="cls-2" d="M21.9,9.73l-4.17,1.08-2,.52-.57.15a.77.77,0,0,0-.55.94.55.55,0,0,0,0,.11.75.75,0,0,0,.4.4.77.77,0,0,0,.31.07l.19,0L17,12.6l2-.52,3.29-.86a.77.77,0,1,0-.39-1.49"/><path class="cls-2" d="M14.67,10.27a.77.77,0,0,0,.68.42.68.68,0,0,0,.19,0l1.61-.42,5.12-1.33A.77.77,0,0,0,22.84,8l0-.12a.78.78,0,0,0-.38-.38.77.77,0,0,0-.51,0l-.38.1L15.9,9l-.74.19a.77.77,0,0,0-.55.94.84.84,0,0,0,.07.16"/><path class="cls-2" d="M14.61,7.79a.77.77,0,0,0,.68.57h.07l.19,0,4.24-1.1a.77.77,0,0,0,.56-.9v0a.77.77,0,0,0-.59-.56.75.75,0,0,0-.35,0l-4.24,1.1a.77.77,0,0,0-.57.81.91.91,0,0,0,0,.13"/><text class="cls-3" transform="translate(0 42.26)">Ene<tspan class="cls-4" x="20.12" y="0">r</tspan><tspan x="24.27" y="0">gy</tspan></text></g></g></svg>