<svg xmlns="http://www.w3.org/2000/svg" viewBox="0 0 35.84 45.57"><defs><style>.cls-1{fill:#f1563f;}.cls-2{fill:#fff;}.cls-3{font-size:13px;fill:#e1bebb;font-family:Helvetica, Helvetica;}</style></defs><title>Asset 34</title><g id="Layer_2" data-name="Layer 2"><g id="Assets_class" data-name="Assets class"><g id="_Group_" data-name="&lt;Group&gt;"><circle class="cls-1" cx="17.92" cy="14.5" r="14.5"/><circle class="cls-1" cx="17.92" cy="14.5" r="13.33"/></g><path class="cls-2" d="M25,16.57H11V15.33H24.3A.67.67,0,0,1,25,16ZM10.9,13.45h2.38a.44.44,0,0,1,.44.44v.53H10.9Zm15,3.12V16a1.58,1.58,0,0,0-1.6-1.54H14.4v-.53a1.11,1.11,0,0,0-1.11-1.12H10.77V11.37H9V21.77h1.81V18.38H24.46v3.39h1.81v-5.2Z"/><polygon class="cls-2" points="21.28 11.36 22.87 11.36 22.87 10.28 24.11 10.28 24.11 8.59 22.87 8.59 22.87 7.37 21.28 7.37 21.28 8.59 20.09 8.59 20.09 10.28 21.28 10.28 21.28 11.36"/><path class="cls-2" d="M22.1,6a3.37,3.37,0,1,1-3.37,3.37A3.37,3.37,0,0,1,22.1,6m0,7.85a4.49,4.49,0,1,0-4.49-4.49,4.49,4.49,0,0,0,4.49,4.49"/><text class="cls-3" transform="translate(0 42.32)">Health</text></g></g></svg>