<svg xmlns="http://www.w3.org/2000/svg" viewBox="0 0 68.74 57.81"><defs><style>.cls-1{fill:#f1563f;}.cls-2{fill:#fff;}.cls-3{font-size:13px;fill:#e1bebb;font-family:Helvetica, Helvetica;}.cls-4{letter-spacing:-0.01em;}.cls-5{letter-spacing:0em;}.cls-6{letter-spacing:-0.01em;}.cls-7{letter-spacing:0.01em;}</style></defs><title>Asset 37</title><g id="Layer_2" data-name="Layer 2"><g id="Assets_class" data-name="Assets class"><g id="_Group_" data-name="&lt;Group&gt;"><circle class="cls-1" cx="34.37" cy="14.5" r="14.5"/><circle class="cls-1" cx="34.37" cy="14.5" r="13.33"/></g><path class="cls-2" d="M28.44,10.44,31,16.61l-1.05,0h-3l-.76,0h-.27Zm11.82,0,2.57,6.18h-.3l-.76,0h-3l-1,0ZM25.7,17.28l.14.09.06,0,.13.07.07,0a4.94,4.94,0,0,0,.78.3,5.59,5.59,0,0,0,1.56.21A5.65,5.65,0,0,0,30,17.79a5.12,5.12,0,0,0,.78-.3c.12-.06.25-.12.39-.21a3,3,0,0,0,.4-.28l.05,0v-.31h-.08l-2.69-6.48.39,0c.52.06,1.08.11,1.7.15,1,.07,1.94.1,3,.11-.05.52-.1,1-.15,1.54l-.14,1.64-.12,1.64c0,.25,0,.52-.07.81l0,.29-.06.54c0,.31,0,.58,0,.83a8.12,8.12,0,0,0,0,.83c0,.41.09.81.16,1.2l-.35,0a6.89,6.89,0,0,0-1.17.28,6,6,0,0,0-.59.23,6.47,6.47,0,0,0-.59.29,6.14,6.14,0,0,0-.59.37,4.56,4.56,0,0,0-.59.49l0,0v.39L30.9,22l1.15,0,2.3,0h2.3l1.15,0,.58,0,.71,0v-.39l0,0a4.22,4.22,0,0,0-.59-.49,6.3,6.3,0,0,0-.59-.37,6.83,6.83,0,0,0-1.17-.52,7.11,7.11,0,0,0-1.17-.29l-.32,0c.07-.39.12-.79.16-1.21s0-.57,0-.83,0-.52,0-.83,0-.36-.06-.53,0-.19,0-.29c0-.29-.05-.56-.07-.81l-.11-1.64L34.94,12c0-.51-.1-1-.15-1.54,1,0,2,0,2.94-.11.63,0,1.18-.09,1.7-.15l.43-.05-2.7,6.49h-.1V17l.05,0a2.88,2.88,0,0,0,.39.28l.14.09.05,0,.13.06.07,0a4.65,4.65,0,0,0,.78.3,5.55,5.55,0,0,0,1.56.21,5.73,5.73,0,0,0,1.56-.21,5,5,0,0,0,.78-.3l.39-.21a3.06,3.06,0,0,0,.4-.28l.05,0v-.31h-.08l-2.69-6.48.22,0,.4.05.26,0,.13,0a1.25,1.25,0,0,0,.45,0,2.14,2.14,0,0,0,.43-.12A1.69,1.69,0,0,0,43,10l.05,0V9.71l-.05,0a1.63,1.63,0,0,0-.43-.25,2.07,2.07,0,0,0-.43-.12,1.23,1.23,0,0,0-.45,0l-.13,0-.26,0-.4.05-.4.06-.23,0-.81-.1c-.52-.06-1.08-.11-1.7-.15-.93-.06-1.88-.1-2.91-.11l.09-.76c0-.13,0-.26.06-.39l0-.2a2.11,2.11,0,0,0,0-.32,1.9,1.9,0,0,0,0-.32,3.12,3.12,0,0,0-.16-.62,2.62,2.62,0,0,0-.13-.31,2.11,2.11,0,0,0-.2-.32l0-.06h-.24l0,.06a2.17,2.17,0,0,0-.2.32,2.7,2.7,0,0,0-.13.31,3.19,3.19,0,0,0-.16.62,2.16,2.16,0,0,0,0,.32,2.52,2.52,0,0,0,0,.32l0,.19c0,.14,0,.27.06.4l0,.3.06.46c-1.06,0-2,0-3,.11-.62,0-1.18.09-1.7.15l-.74.1-.19,0-.41-.06-.4-.05-.26,0-.13,0a1.24,1.24,0,0,0-.45,0,2,2,0,0,0-.43.12,1.6,1.6,0,0,0-.44.25l-.05,0v.21l.05,0a1.61,1.61,0,0,0,.44.25,2.07,2.07,0,0,0,.43.12,1.27,1.27,0,0,0,.45,0l.13,0,.26,0,.4-.05.14,0-2.68,6.45h-.1V17l0,0a3.1,3.1,0,0,0,.4.28"/><text class="cls-3" transform="translate(4.23 42.56)">Justi<tspan class="cls-4" x="24.47" y="0">c</tspan><tspan class="cls-5" x="30.21" y="0">e and</tspan><tspan x="-4.23" y="12">public sa</tspan><tspan class="cls-6" x="43.83" y="12">f</tspan><tspan class="cls-5" x="47.46" y="12">e</tspan><tspan class="cls-7" x="53.98" y="12">t</tspan><tspan x="58.39" y="12">y</tspan></text></g></g></svg>