<svg xmlns="http://www.w3.org/2000/svg" viewBox="0 0 44.19 56.82"><defs><style>.cls-1{fill:#f1563f;}.cls-2{fill:#fff;}.cls-3{font-size:13px;fill:#e1bebb;font-family:Helvetica, Helvetica;}.cls-4{letter-spacing:0.01em;}.cls-5{letter-spacing:0em;}</style></defs><title>Asset 39</title><g id="Layer_2" data-name="Layer 2"><g id="Assets_class" data-name="Assets class"><g id="_Group_" data-name="&lt;Group&gt;"><circle class="cls-1" cx="22.09" cy="14.5" r="14.5"/><circle class="cls-1" cx="22.09" cy="14.5" r="13.33"/></g><path class="cls-2" d="M32,19.84H12.77a.27.27,0,0,0-.27.27v.42a.27.27,0,0,0,.27.27H32a.27.27,0,0,0,.27-.27v-.42a.27.27,0,0,0-.27-.27"/><path class="cls-2" d="M13.55,11.22a.27.27,0,0,0,.36.12L22.41,7,31,11.3a.27.27,0,0,0,.36-.12l.14-.29a.27.27,0,0,0-.12-.36l-8.8-4.36-.07,0a.27.27,0,0,0-.27,0l-8.76,4.45a.27.27,0,0,0-.12.36Z"/><path class="cls-2" d="M23.33,11.15a.27.27,0,0,1-.27.27H21.75a.27.27,0,0,1-.27-.27V9.84a.27.27,0,0,1,.27-.27h1.31a.27.27,0,0,1,.27.27Zm-1.62,3.52a.27.27,0,0,1-.27.27H19.88a.27.27,0,0,1-.27-.27V13.11a.27.27,0,0,1,.27-.27h1.56a.27.27,0,0,1,.27.27Zm0,2.56a.27.27,0,0,1-.27.27H19.88a.27.27,0,0,1-.27-.27V15.67a.27.27,0,0,1,.27-.27h1.56a.27.27,0,0,1,.27.27ZM19,14.67a.27.27,0,0,1-.27.27H17.15a.27.27,0,0,1-.27-.27V13.11a.27.27,0,0,1,.27-.27h1.56a.27.27,0,0,1,.27.27Zm0,2.56a.27.27,0,0,1-.27.27H17.15a.27.27,0,0,1-.27-.27V15.67a.27.27,0,0,1,.27-.27h1.56a.27.27,0,0,1,.27.27Zm9,2.11h2.22a.27.27,0,0,0,.27-.27V12a.47.47,0,0,0-.24-.39L22.65,7.86a.62.62,0,0,0-.48,0L14.6,11.61a.47.47,0,0,0-.24.39v7.08a.27.27,0,0,0,.27.27h9a.27.27,0,0,0,.27-.27v-6a.27.27,0,0,1,.27-.27h3.24a.27.27,0,0,1,.27.27v6a.27.27,0,0,0,.27.27"/><text class="cls-3" transform="translate(4.8 41.57)"><tspan class="cls-4">S<tspan class="cls-5" x="6.49" y="0">ocial </tspan></tspan><tspan x="-4.8" y="12">housing</tspan></text></g></g></svg>