<svg xmlns="http://www.w3.org/2000/svg" viewBox="0 0 52.1 44.64"><defs><style>.cls-1{fill:#f1563f;}.cls-2{fill:#fff;}.cls-3{font-size:13px;fill:#e1bebb;font-family:Helvetica, Helvetica;}.cls-4{letter-spacing:-0.04em;}.cls-5{letter-spacing:0em;}.cls-6{letter-spacing:0.02em;}.cls-7{letter-spacing:0em;}</style></defs><title>Asset 30</title><g id="Layer_2" data-name="Layer 2"><g id="Assets_class" data-name="Assets class"><circle class="cls-1" cx="26.06" cy="14.5" r="14.5"/><circle class="cls-1" cx="26.06" cy="14.5" r="13.33"/><path class="cls-2" d="M23.72,7.16,14.5,17.94c-.18.23.25.61.43.84a.39.39,0,0,0,.65,0l9-11.62Z"/><path class="cls-2" d="M38.24,17.78,29.14,7.16h-.87l8.89,11.46a.41.41,0,0,0,.33.17.41.41,0,0,0,.32-.17c.18-.23.61-.61.43-.84"/><polygon class="cls-2" points="31.24 11.95 21.71 11.95 22.62 10.86 30.32 10.86 31.24 11.95"/><polygon class="cls-2" points="29.43 9.78 23.51 9.78 24.08 9.1 28.87 9.1 29.43 9.78"/><polygon class="cls-2" points="24.9 7.87 24.53 8.31 28.41 8.31 28.04 7.87 24.9 7.87"/><polygon class="cls-2" points="33.52 15.22 19.43 15.22 20.78 13.61 32.17 13.61 33.52 15.22"/><polygon class="cls-2" points="36.52 19.04 16.43 19.04 18.35 16.74 34.59 16.74 36.52 19.04"/><text class="cls-3" transform="translate(0.01 41.39)"><tspan class="cls-4">T</tspan><tspan class="cls-5" x="5.88" y="0">r</tspan><tspan x="10.06" y="0">anspo</tspan><tspan class="cls-6" x="43.22" y="0">r</tspan><tspan class="cls-7" x="47.79" y="0">t</tspan></text></g></g></svg>