<svg xmlns="http://www.w3.org/2000/svg" viewBox="0 0 31.77 45.51"><defs><style>.cls-1{fill:#f1563f;}.cls-2{fill:#fff;}.cls-3{font-size:13px;fill:#e1bebb;font-family:Helvetica, Helvetica;letter-spacing:-0.03em;}.cls-4{letter-spacing:0em;}.cls-5{letter-spacing:-0.01em;}.cls-6{letter-spacing:0em;}</style></defs><title>Asset 33</title><g id="Layer_2" data-name="Layer 2"><g id="Assets_class" data-name="Assets class"><g id="_Group_" data-name="&lt;Group&gt;"><circle class="cls-1" cx="15.89" cy="14.5" r="14.5"/><circle class="cls-1" cx="15.89" cy="14.5" r="13.33"/></g><path class="cls-2" d="M16.2,22.67a2.53,2.53,0,0,1-2.52-2.52.57.57,0,1,1,1.14,0,1.39,1.39,0,0,0,1.38,1.38.57.57,0,0,1,0,1.14m2.24-6.06c-.65-1.07-1.28-1.95-1.31-2L16.66,14l-.46-.63-.46.63-.46.63s-.67.92-1.31,2a7.75,7.75,0,0,0-1.42,3.52,3.66,3.66,0,0,0,7.32,0,7.77,7.77,0,0,0-1.42-3.52"/><path class="cls-2" d="M10.79,16.82A2.13,2.13,0,0,1,8.66,14.7a.48.48,0,1,1,1,0,1.17,1.17,0,0,0,1.17,1.17.48.48,0,0,1,0,1m1.88-5.11c-.54-.9-1.08-1.64-1.11-1.67l-.39-.54L10.79,9l-.39.53L10,10s-.56.77-1.11,1.67a6.56,6.56,0,0,0-1.2,3,3.08,3.08,0,0,0,6.17,0,6.55,6.55,0,0,0-1.2-3"/><path class="cls-2" d="M20.44,13.52a2.13,2.13,0,0,1-2.13-2.13.48.48,0,0,1,1,0,1.17,1.17,0,0,0,1.17,1.17.48.48,0,0,1,0,1m1.88-5.11c-.54-.9-1.08-1.64-1.11-1.67l-.39-.54-.39-.54L20,6.2l-.39.54s-.56.77-1.11,1.67a6.53,6.53,0,0,0-1.2,3,3.08,3.08,0,0,0,6.17,0,6.55,6.55,0,0,0-1.2-3"/><text class="cls-3" transform="translate(0 42.26)">W<tspan class="cls-4" x="10.57" y="0">a</tspan><tspan class="cls-5" x="16.78" y="0">t</tspan><tspan class="cls-6" x="21.01" y="0">er</tspan></text></g></g></svg>